<?xml version="1.0" encoding="utf-8" standalone="no"?>
<!DOCTYPE svg PUBLIC "-//W3C//DTD SVG 1.1//EN"
  "http://www.w3.org/Graphics/SVG/1.1/DTD/svg11.dtd">
<!-- Created with matplotlib (https://matplotlib.org/) -->
<svg height="345.6pt" version="1.1" viewBox="0 0 460.8 345.6" width="460.8pt" xmlns="http://www.w3.org/2000/svg" xmlns:xlink="http://www.w3.org/1999/xlink">
 <defs>
  <style type="text/css">
*{stroke-linecap:butt;stroke-linejoin:round;}
  </style>
 </defs>
 <g id="figure_1">
  <g id="patch_1">
   <path d="M 0 345.6 
L 460.8 345.6 
L 460.8 0 
L 0 0 
z
" style="fill:#ffffff;"/>
  </g>
  <g id="axes_1">
   <g id="patch_2">
    <path d="M 57.44 303.64 
L 406.6 303.64 
L 406.6 10.8 
L 57.44 10.8 
z
" style="fill:#ffffff;"/>
   </g>
   <g id="matplotlib.axis_1">
    <g id="xtick_1">
     <g id="line2d_1">
      <defs>
       <path d="M 0 0 
L 0 3.5 
" id="mf138fcffef" style="stroke:#000000;stroke-width:0.8;"/>
      </defs>
      <g>
       <use style="stroke:#000000;stroke-width:0.8;" x="73.279164" xlink:href="#mf138fcffef" y="303.64"/>
      </g>
     </g>
     <g id="text_1">
      <!-- 0.0 -->
      <defs>
       <path d="M 31.78125 66.40625 
Q 24.171875 66.40625 20.328125 58.90625 
Q 16.5 51.421875 16.5 36.375 
Q 16.5 21.390625 20.328125 13.890625 
Q 24.171875 6.390625 31.78125 6.390625 
Q 39.453125 6.390625 43.28125 13.890625 
Q 47.125 21.390625 47.125 36.375 
Q 47.125 51.421875 43.28125 58.90625 
Q 39.453125 66.40625 31.78125 66.40625 
z
M 31.78125 74.21875 
Q 44.046875 74.21875 50.515625 64.515625 
Q 56.984375 54.828125 56.984375 36.375 
Q 56.984375 17.96875 50.515625 8.265625 
Q 44.046875 -1.421875 31.78125 -1.421875 
Q 19.53125 -1.421875 13.0625 8.265625 
Q 6.59375 17.96875 6.59375 36.375 
Q 6.59375 54.828125 13.0625 64.515625 
Q 19.53125 74.21875 31.78125 74.21875 
z
" id="DejaVuSans-48"/>
       <path d="M 10.6875 12.40625 
L 21 12.40625 
L 21 0 
L 10.6875 0 
z
" id="DejaVuSans-46"/>
      </defs>
      <g transform="translate(65.327602 318.238437)scale(0.1 -0.1)">
       <use xlink:href="#DejaVuSans-48"/>
       <use x="63.623047" xlink:href="#DejaVuSans-46"/>
       <use x="95.410156" xlink:href="#DejaVuSans-48"/>
      </g>
     </g>
    </g>
    <g id="xtick_2">
     <g id="line2d_2">
      <g>
       <use style="stroke:#000000;stroke-width:0.8;" x="136.769149" xlink:href="#mf138fcffef" y="303.64"/>
      </g>
     </g>
     <g id="text_2">
      <!-- 0.2 -->
      <defs>
       <path d="M 19.1875 8.296875 
L 53.609375 8.296875 
L 53.609375 0 
L 7.328125 0 
L 7.328125 8.296875 
Q 12.9375 14.109375 22.625 23.890625 
Q 32.328125 33.6875 34.8125 36.53125 
Q 39.546875 41.84375 41.421875 45.53125 
Q 43.3125 49.21875 43.3125 52.78125 
Q 43.3125 58.59375 39.234375 62.25 
Q 35.15625 65.921875 28.609375 65.921875 
Q 23.96875 65.921875 18.8125 64.3125 
Q 13.671875 62.703125 7.8125 59.421875 
L 7.8125 69.390625 
Q 13.765625 71.78125 18.9375 73 
Q 24.125 74.21875 28.421875 74.21875 
Q 39.75 74.21875 46.484375 68.546875 
Q 53.21875 62.890625 53.21875 53.421875 
Q 53.21875 48.921875 51.53125 44.890625 
Q 49.859375 40.875 45.40625 35.40625 
Q 44.1875 33.984375 37.640625 27.21875 
Q 31.109375 20.453125 19.1875 8.296875 
z
" id="DejaVuSans-50"/>
      </defs>
      <g transform="translate(128.817587 318.238437)scale(0.1 -0.1)">
       <use xlink:href="#DejaVuSans-48"/>
       <use x="63.623047" xlink:href="#DejaVuSans-46"/>
       <use x="95.410156" xlink:href="#DejaVuSans-50"/>
      </g>
     </g>
    </g>
    <g id="xtick_3">
     <g id="line2d_3">
      <g>
       <use style="stroke:#000000;stroke-width:0.8;" x="200.259135" xlink:href="#mf138fcffef" y="303.64"/>
      </g>
     </g>
     <g id="text_3">
      <!-- 0.4 -->
      <defs>
       <path d="M 37.796875 64.3125 
L 12.890625 25.390625 
L 37.796875 25.390625 
z
M 35.203125 72.90625 
L 47.609375 72.90625 
L 47.609375 25.390625 
L 58.015625 25.390625 
L 58.015625 17.1875 
L 47.609375 17.1875 
L 47.609375 0 
L 37.796875 0 
L 37.796875 17.1875 
L 4.890625 17.1875 
L 4.890625 26.703125 
z
" id="DejaVuSans-52"/>
      </defs>
      <g transform="translate(192.307572 318.238437)scale(0.1 -0.1)">
       <use xlink:href="#DejaVuSans-48"/>
       <use x="63.623047" xlink:href="#DejaVuSans-46"/>
       <use x="95.410156" xlink:href="#DejaVuSans-52"/>
      </g>
     </g>
    </g>
    <g id="xtick_4">
     <g id="line2d_4">
      <g>
       <use style="stroke:#000000;stroke-width:0.8;" x="263.74912" xlink:href="#mf138fcffef" y="303.64"/>
      </g>
     </g>
     <g id="text_4">
      <!-- 0.6 -->
      <defs>
       <path d="M 33.015625 40.375 
Q 26.375 40.375 22.484375 35.828125 
Q 18.609375 31.296875 18.609375 23.390625 
Q 18.609375 15.53125 22.484375 10.953125 
Q 26.375 6.390625 33.015625 6.390625 
Q 39.65625 6.390625 43.53125 10.953125 
Q 47.40625 15.53125 47.40625 23.390625 
Q 47.40625 31.296875 43.53125 35.828125 
Q 39.65625 40.375 33.015625 40.375 
z
M 52.59375 71.296875 
L 52.59375 62.3125 
Q 48.875 64.0625 45.09375 64.984375 
Q 41.3125 65.921875 37.59375 65.921875 
Q 27.828125 65.921875 22.671875 59.328125 
Q 17.53125 52.734375 16.796875 39.40625 
Q 19.671875 43.65625 24.015625 45.921875 
Q 28.375 48.1875 33.59375 48.1875 
Q 44.578125 48.1875 50.953125 41.515625 
Q 57.328125 34.859375 57.328125 23.390625 
Q 57.328125 12.15625 50.6875 5.359375 
Q 44.046875 -1.421875 33.015625 -1.421875 
Q 20.359375 -1.421875 13.671875 8.265625 
Q 6.984375 17.96875 6.984375 36.375 
Q 6.984375 53.65625 15.1875 63.9375 
Q 23.390625 74.21875 37.203125 74.21875 
Q 40.921875 74.21875 44.703125 73.484375 
Q 48.484375 72.75 52.59375 71.296875 
z
" id="DejaVuSans-54"/>
      </defs>
      <g transform="translate(255.797558 318.238437)scale(0.1 -0.1)">
       <use xlink:href="#DejaVuSans-48"/>
       <use x="63.623047" xlink:href="#DejaVuSans-46"/>
       <use x="95.410156" xlink:href="#DejaVuSans-54"/>
      </g>
     </g>
    </g>
    <g id="xtick_5">
     <g id="line2d_5">
      <g>
       <use style="stroke:#000000;stroke-width:0.8;" x="327.239106" xlink:href="#mf138fcffef" y="303.64"/>
      </g>
     </g>
     <g id="text_5">
      <!-- 0.8 -->
      <defs>
       <path d="M 31.78125 34.625 
Q 24.75 34.625 20.71875 30.859375 
Q 16.703125 27.09375 16.703125 20.515625 
Q 16.703125 13.921875 20.71875 10.15625 
Q 24.75 6.390625 31.78125 6.390625 
Q 38.8125 6.390625 42.859375 10.171875 
Q 46.921875 13.96875 46.921875 20.515625 
Q 46.921875 27.09375 42.890625 30.859375 
Q 38.875 34.625 31.78125 34.625 
z
M 21.921875 38.8125 
Q 15.578125 40.375 12.03125 44.71875 
Q 8.5 49.078125 8.5 55.328125 
Q 8.5 64.0625 14.71875 69.140625 
Q 20.953125 74.21875 31.78125 74.21875 
Q 42.671875 74.21875 48.875 69.140625 
Q 55.078125 64.0625 55.078125 55.328125 
Q 55.078125 49.078125 51.53125 44.71875 
Q 48 40.375 41.703125 38.8125 
Q 48.828125 37.15625 52.796875 32.3125 
Q 56.78125 27.484375 56.78125 20.515625 
Q 56.78125 9.90625 50.3125 4.234375 
Q 43.84375 -1.421875 31.78125 -1.421875 
Q 19.734375 -1.421875 13.25 4.234375 
Q 6.78125 9.90625 6.78125 20.515625 
Q 6.78125 27.484375 10.78125 32.3125 
Q 14.796875 37.15625 21.921875 38.8125 
z
M 18.3125 54.390625 
Q 18.3125 48.734375 21.84375 45.5625 
Q 25.390625 42.390625 31.78125 42.390625 
Q 38.140625 42.390625 41.71875 45.5625 
Q 45.3125 48.734375 45.3125 54.390625 
Q 45.3125 60.0625 41.71875 63.234375 
Q 38.140625 66.40625 31.78125 66.40625 
Q 25.390625 66.40625 21.84375 63.234375 
Q 18.3125 60.0625 18.3125 54.390625 
z
" id="DejaVuSans-56"/>
      </defs>
      <g transform="translate(319.287543 318.238437)scale(0.1 -0.1)">
       <use xlink:href="#DejaVuSans-48"/>
       <use x="63.623047" xlink:href="#DejaVuSans-46"/>
       <use x="95.410156" xlink:href="#DejaVuSans-56"/>
      </g>
     </g>
    </g>
    <g id="xtick_6">
     <g id="line2d_6">
      <g>
       <use style="stroke:#000000;stroke-width:0.8;" x="390.729091" xlink:href="#mf138fcffef" y="303.64"/>
      </g>
     </g>
     <g id="text_6">
      <!-- 1.0 -->
      <defs>
       <path d="M 12.40625 8.296875 
L 28.515625 8.296875 
L 28.515625 63.921875 
L 10.984375 60.40625 
L 10.984375 69.390625 
L 28.421875 72.90625 
L 38.28125 72.90625 
L 38.28125 8.296875 
L 54.390625 8.296875 
L 54.390625 0 
L 12.40625 0 
z
" id="DejaVuSans-49"/>
      </defs>
      <g transform="translate(382.777528 318.238437)scale(0.1 -0.1)">
       <use xlink:href="#DejaVuSans-49"/>
       <use x="63.623047" xlink:href="#DejaVuSans-46"/>
       <use x="95.410156" xlink:href="#DejaVuSans-48"/>
      </g>
     </g>
    </g>
    <g id="text_7">
     <!-- mu_testTpos -->
     <defs>
      <path d="M 52 44.1875 
Q 55.375 50.25 60.0625 53.125 
Q 64.75 56 71.09375 56 
Q 79.640625 56 84.28125 50.015625 
Q 88.921875 44.046875 88.921875 33.015625 
L 88.921875 0 
L 79.890625 0 
L 79.890625 32.71875 
Q 79.890625 40.578125 77.09375 44.375 
Q 74.3125 48.1875 68.609375 48.1875 
Q 61.625 48.1875 57.5625 43.546875 
Q 53.515625 38.921875 53.515625 30.90625 
L 53.515625 0 
L 44.484375 0 
L 44.484375 32.71875 
Q 44.484375 40.625 41.703125 44.40625 
Q 38.921875 48.1875 33.109375 48.1875 
Q 26.21875 48.1875 22.15625 43.53125 
Q 18.109375 38.875 18.109375 30.90625 
L 18.109375 0 
L 9.078125 0 
L 9.078125 54.6875 
L 18.109375 54.6875 
L 18.109375 46.1875 
Q 21.1875 51.21875 25.484375 53.609375 
Q 29.78125 56 35.6875 56 
Q 41.65625 56 45.828125 52.96875 
Q 50 49.953125 52 44.1875 
z
" id="DejaVuSans-109"/>
      <path d="M 8.5 21.578125 
L 8.5 54.6875 
L 17.484375 54.6875 
L 17.484375 21.921875 
Q 17.484375 14.15625 20.5 10.265625 
Q 23.53125 6.390625 29.59375 6.390625 
Q 36.859375 6.390625 41.078125 11.03125 
Q 45.3125 15.671875 45.3125 23.6875 
L 45.3125 54.6875 
L 54.296875 54.6875 
L 54.296875 0 
L 45.3125 0 
L 45.3125 8.40625 
Q 42.046875 3.421875 37.71875 1 
Q 33.40625 -1.421875 27.6875 -1.421875 
Q 18.265625 -1.421875 13.375 4.4375 
Q 8.5 10.296875 8.5 21.578125 
z
M 31.109375 56 
z
" id="DejaVuSans-117"/>
      <path d="M 50.984375 -16.609375 
L 50.984375 -23.578125 
L -0.984375 -23.578125 
L -0.984375 -16.609375 
z
" id="DejaVuSans-95"/>
      <path d="M 18.3125 70.21875 
L 18.3125 54.6875 
L 36.8125 54.6875 
L 36.8125 47.703125 
L 18.3125 47.703125 
L 18.3125 18.015625 
Q 18.3125 11.328125 20.140625 9.421875 
Q 21.96875 7.515625 27.59375 7.515625 
L 36.8125 7.515625 
L 36.8125 0 
L 27.59375 0 
Q 17.1875 0 13.234375 3.875 
Q 9.28125 7.765625 9.28125 18.015625 
L 9.28125 47.703125 
L 2.6875 47.703125 
L 2.6875 54.6875 
L 9.28125 54.6875 
L 9.28125 70.21875 
z
" id="DejaVuSans-116"/>
      <path d="M 56.203125 29.59375 
L 56.203125 25.203125 
L 14.890625 25.203125 
Q 15.484375 15.921875 20.484375 11.0625 
Q 25.484375 6.203125 34.421875 6.203125 
Q 39.59375 6.203125 44.453125 7.46875 
Q 49.3125 8.734375 54.109375 11.28125 
L 54.109375 2.78125 
Q 49.265625 0.734375 44.1875 -0.34375 
Q 39.109375 -1.421875 33.890625 -1.421875 
Q 20.796875 -1.421875 13.15625 6.1875 
Q 5.515625 13.8125 5.515625 26.8125 
Q 5.515625 40.234375 12.765625 48.109375 
Q 20.015625 56 32.328125 56 
Q 43.359375 56 49.78125 48.890625 
Q 56.203125 41.796875 56.203125 29.59375 
z
M 47.21875 32.234375 
Q 47.125 39.59375 43.09375 43.984375 
Q 39.0625 48.390625 32.421875 48.390625 
Q 24.90625 48.390625 20.390625 44.140625 
Q 15.875 39.890625 15.1875 32.171875 
z
" id="DejaVuSans-101"/>
      <path d="M 44.28125 53.078125 
L 44.28125 44.578125 
Q 40.484375 46.53125 36.375 47.5 
Q 32.28125 48.484375 27.875 48.484375 
Q 21.1875 48.484375 17.84375 46.4375 
Q 14.5 44.390625 14.5 40.28125 
Q 14.5 37.15625 16.890625 35.375 
Q 19.28125 33.59375 26.515625 31.984375 
L 29.59375 31.296875 
Q 39.15625 29.25 43.1875 25.515625 
Q 47.21875 21.78125 47.21875 15.09375 
Q 47.21875 7.46875 41.1875 3.015625 
Q 35.15625 -1.421875 24.609375 -1.421875 
Q 20.21875 -1.421875 15.453125 -0.5625 
Q 10.6875 0.296875 5.421875 2 
L 5.421875 11.28125 
Q 10.40625 8.6875 15.234375 7.390625 
Q 20.0625 6.109375 24.8125 6.109375 
Q 31.15625 6.109375 34.5625 8.28125 
Q 37.984375 10.453125 37.984375 14.40625 
Q 37.984375 18.0625 35.515625 20.015625 
Q 33.0625 21.96875 24.703125 23.78125 
L 21.578125 24.515625 
Q 13.234375 26.265625 9.515625 29.90625 
Q 5.8125 33.546875 5.8125 39.890625 
Q 5.8125 47.609375 11.28125 51.796875 
Q 16.75 56 26.8125 56 
Q 31.78125 56 36.171875 55.265625 
Q 40.578125 54.546875 44.28125 53.078125 
z
" id="DejaVuSans-115"/>
      <path d="M -0.296875 72.90625 
L 61.375 72.90625 
L 61.375 64.59375 
L 35.5 64.59375 
L 35.5 0 
L 25.59375 0 
L 25.59375 64.59375 
L -0.296875 64.59375 
z
" id="DejaVuSans-84"/>
      <path d="M 18.109375 8.203125 
L 18.109375 -20.796875 
L 9.078125 -20.796875 
L 9.078125 54.6875 
L 18.109375 54.6875 
L 18.109375 46.390625 
Q 20.953125 51.265625 25.265625 53.625 
Q 29.59375 56 35.59375 56 
Q 45.5625 56 51.78125 48.09375 
Q 58.015625 40.1875 58.015625 27.296875 
Q 58.015625 14.40625 51.78125 6.484375 
Q 45.5625 -1.421875 35.59375 -1.421875 
Q 29.59375 -1.421875 25.265625 0.953125 
Q 20.953125 3.328125 18.109375 8.203125 
z
M 48.6875 27.296875 
Q 48.6875 37.203125 44.609375 42.84375 
Q 40.53125 48.484375 33.40625 48.484375 
Q 26.265625 48.484375 22.1875 42.84375 
Q 18.109375 37.203125 18.109375 27.296875 
Q 18.109375 17.390625 22.1875 11.75 
Q 26.265625 6.109375 33.40625 6.109375 
Q 40.53125 6.109375 44.609375 11.75 
Q 48.6875 17.390625 48.6875 27.296875 
z
" id="DejaVuSans-112"/>
      <path d="M 30.609375 48.390625 
Q 23.390625 48.390625 19.1875 42.75 
Q 14.984375 37.109375 14.984375 27.296875 
Q 14.984375 17.484375 19.15625 11.84375 
Q 23.34375 6.203125 30.609375 6.203125 
Q 37.796875 6.203125 41.984375 11.859375 
Q 46.1875 17.53125 46.1875 27.296875 
Q 46.1875 37.015625 41.984375 42.703125 
Q 37.796875 48.390625 30.609375 48.390625 
z
M 30.609375 56 
Q 42.328125 56 49.015625 48.375 
Q 55.71875 40.765625 55.71875 27.296875 
Q 55.71875 13.875 49.015625 6.21875 
Q 42.328125 -1.421875 30.609375 -1.421875 
Q 18.84375 -1.421875 12.171875 6.21875 
Q 5.515625 13.875 5.515625 27.296875 
Q 5.515625 40.765625 12.171875 48.375 
Q 18.84375 56 30.609375 56 
z
" id="DejaVuSans-111"/>
     </defs>
     <g transform="translate(199.987188 331.638437)scale(0.1 -0.1)">
      <use xlink:href="#DejaVuSans-109"/>
      <use x="97.412109" xlink:href="#DejaVuSans-117"/>
      <use x="160.791016" xlink:href="#DejaVuSans-95"/>
      <use x="210.791016" xlink:href="#DejaVuSans-116"/>
      <use x="250" xlink:href="#DejaVuSans-101"/>
      <use x="311.523438" xlink:href="#DejaVuSans-115"/>
      <use x="363.623047" xlink:href="#DejaVuSans-116"/>
      <use x="402.832031" xlink:href="#DejaVuSans-84"/>
      <use x="463.916016" xlink:href="#DejaVuSans-112"/>
      <use x="527.392578" xlink:href="#DejaVuSans-111"/>
      <use x="588.574219" xlink:href="#DejaVuSans-115"/>
     </g>
    </g>
    <g id="text_8">
     <!-- 1e−7 -->
     <defs>
      <path d="M 10.59375 35.5 
L 73.1875 35.5 
L 73.1875 27.203125 
L 10.59375 27.203125 
z
" id="DejaVuSans-8722"/>
      <path d="M 8.203125 72.90625 
L 55.078125 72.90625 
L 55.078125 68.703125 
L 28.609375 0 
L 18.3125 0 
L 43.21875 64.59375 
L 8.203125 64.59375 
z
" id="DejaVuSans-55"/>
     </defs>
     <g transform="translate(379.342188 330.916562)scale(0.1 -0.1)">
      <use xlink:href="#DejaVuSans-49"/>
      <use x="63.623047" xlink:href="#DejaVuSans-101"/>
      <use x="125.146484" xlink:href="#DejaVuSans-8722"/>
      <use x="208.935547" xlink:href="#DejaVuSans-55"/>
     </g>
    </g>
   </g>
   <g id="matplotlib.axis_2">
    <g id="ytick_1">
     <g id="line2d_7">
      <defs>
       <path d="M 0 0 
L -3.5 0 
" id="mfd2aa10084" style="stroke:#000000;stroke-width:0.8;"/>
      </defs>
      <g>
       <use style="stroke:#000000;stroke-width:0.8;" x="57.44" xlink:href="#mfd2aa10084" y="290.329091"/>
      </g>
     </g>
     <g id="text_9">
      <!-- 0 -->
      <g style="fill:#d62728;" transform="translate(44.0775 294.12831)scale(0.1 -0.1)">
       <use xlink:href="#DejaVuSans-48"/>
      </g>
     </g>
    </g>
    <g id="ytick_2">
     <g id="line2d_8">
      <g>
       <use style="stroke:#000000;stroke-width:0.8;" x="57.44" xlink:href="#mfd2aa10084" y="234.033108"/>
      </g>
     </g>
     <g id="text_10">
      <!-- 2000 -->
      <g style="fill:#d62728;" transform="translate(24.99 237.832327)scale(0.1 -0.1)">
       <use xlink:href="#DejaVuSans-50"/>
       <use x="63.623047" xlink:href="#DejaVuSans-48"/>
       <use x="127.246094" xlink:href="#DejaVuSans-48"/>
       <use x="190.869141" xlink:href="#DejaVuSans-48"/>
      </g>
     </g>
    </g>
    <g id="ytick_3">
     <g id="line2d_9">
      <g>
       <use style="stroke:#000000;stroke-width:0.8;" x="57.44" xlink:href="#mfd2aa10084" y="177.737126"/>
      </g>
     </g>
     <g id="text_11">
      <!-- 4000 -->
      <g style="fill:#d62728;" transform="translate(24.99 181.536344)scale(0.1 -0.1)">
       <use xlink:href="#DejaVuSans-52"/>
       <use x="63.623047" xlink:href="#DejaVuSans-48"/>
       <use x="127.246094" xlink:href="#DejaVuSans-48"/>
       <use x="190.869141" xlink:href="#DejaVuSans-48"/>
      </g>
     </g>
    </g>
    <g id="ytick_4">
     <g id="line2d_10">
      <g>
       <use style="stroke:#000000;stroke-width:0.8;" x="57.44" xlink:href="#mfd2aa10084" y="121.441143"/>
      </g>
     </g>
     <g id="text_12">
      <!-- 6000 -->
      <g style="fill:#d62728;" transform="translate(24.99 125.240362)scale(0.1 -0.1)">
       <use xlink:href="#DejaVuSans-54"/>
       <use x="63.623047" xlink:href="#DejaVuSans-48"/>
       <use x="127.246094" xlink:href="#DejaVuSans-48"/>
       <use x="190.869141" xlink:href="#DejaVuSans-48"/>
      </g>
     </g>
    </g>
    <g id="ytick_5">
     <g id="line2d_11">
      <g>
       <use style="stroke:#000000;stroke-width:0.8;" x="57.44" xlink:href="#mfd2aa10084" y="65.14516"/>
      </g>
     </g>
     <g id="text_13">
      <!-- 8000 -->
      <g style="fill:#d62728;" transform="translate(24.99 68.944379)scale(0.1 -0.1)">
       <use xlink:href="#DejaVuSans-56"/>
       <use x="63.623047" xlink:href="#DejaVuSans-48"/>
       <use x="127.246094" xlink:href="#DejaVuSans-48"/>
       <use x="190.869141" xlink:href="#DejaVuSans-48"/>
      </g>
     </g>
    </g>
    <g id="text_14">
     <!-- Cell Eq -->
     <defs>
      <path d="M 64.40625 67.28125 
L 64.40625 56.890625 
Q 59.421875 61.53125 53.78125 63.8125 
Q 48.140625 66.109375 41.796875 66.109375 
Q 29.296875 66.109375 22.65625 58.46875 
Q 16.015625 50.828125 16.015625 36.375 
Q 16.015625 21.96875 22.65625 14.328125 
Q 29.296875 6.6875 41.796875 6.6875 
Q 48.140625 6.6875 53.78125 8.984375 
Q 59.421875 11.28125 64.40625 15.921875 
L 64.40625 5.609375 
Q 59.234375 2.09375 53.4375 0.328125 
Q 47.65625 -1.421875 41.21875 -1.421875 
Q 24.65625 -1.421875 15.125 8.703125 
Q 5.609375 18.84375 5.609375 36.375 
Q 5.609375 53.953125 15.125 64.078125 
Q 24.65625 74.21875 41.21875 74.21875 
Q 47.75 74.21875 53.53125 72.484375 
Q 59.328125 70.75 64.40625 67.28125 
z
" id="DejaVuSans-67"/>
      <path d="M 9.421875 75.984375 
L 18.40625 75.984375 
L 18.40625 0 
L 9.421875 0 
z
" id="DejaVuSans-108"/>
      <path id="DejaVuSans-32"/>
      <path d="M 9.8125 72.90625 
L 55.90625 72.90625 
L 55.90625 64.59375 
L 19.671875 64.59375 
L 19.671875 43.015625 
L 54.390625 43.015625 
L 54.390625 34.71875 
L 19.671875 34.71875 
L 19.671875 8.296875 
L 56.78125 8.296875 
L 56.78125 0 
L 9.8125 0 
z
" id="DejaVuSans-69"/>
      <path d="M 14.796875 27.296875 
Q 14.796875 17.390625 18.875 11.75 
Q 22.953125 6.109375 30.078125 6.109375 
Q 37.203125 6.109375 41.296875 11.75 
Q 45.40625 17.390625 45.40625 27.296875 
Q 45.40625 37.203125 41.296875 42.84375 
Q 37.203125 48.484375 30.078125 48.484375 
Q 22.953125 48.484375 18.875 42.84375 
Q 14.796875 37.203125 14.796875 27.296875 
z
M 45.40625 8.203125 
Q 42.578125 3.328125 38.25 0.953125 
Q 33.9375 -1.421875 27.875 -1.421875 
Q 17.96875 -1.421875 11.734375 6.484375 
Q 5.515625 14.40625 5.515625 27.296875 
Q 5.515625 40.1875 11.734375 48.09375 
Q 17.96875 56 27.875 56 
Q 33.9375 56 38.25 53.625 
Q 42.578125 51.265625 45.40625 46.390625 
L 45.40625 54.6875 
L 54.390625 54.6875 
L 54.390625 -20.796875 
L 45.40625 -20.796875 
z
" id="DejaVuSans-113"/>
     </defs>
     <g style="fill:#d62728;" transform="translate(18.910312 174.48875)rotate(-90)scale(0.1 -0.1)">
      <use xlink:href="#DejaVuSans-67"/>
      <use x="69.824219" xlink:href="#DejaVuSans-101"/>
      <use x="131.347656" xlink:href="#DejaVuSans-108"/>
      <use x="159.130859" xlink:href="#DejaVuSans-108"/>
      <use x="186.914062" xlink:href="#DejaVuSans-32"/>
      <use x="218.701172" xlink:href="#DejaVuSans-69"/>
      <use x="281.884766" xlink:href="#DejaVuSans-113"/>
     </g>
    </g>
   </g>
   <g id="line2d_12">
    <path clip-path="url(#p87f5884c22)" d="M 73.310909 290.329091 
L 73.330711 290.329091 
L 73.362865 290.329091 
L 73.415075 290.329091 
L 73.499853 290.329091 
L 73.637514 290.329091 
L 73.861044 290.329091 
L 74.224007 290.329091 
L 74.813377 290.329091 
L 75.770384 290.329091 
L 77.324349 290.329091 
L 79.847641 290.329091 
L 83.944905 290.329091 
L 90.597946 290.329091 
L 101.400999 290.329091 
L 118.942745 290.329091 
L 147.426625 290.329091 
L 193.678086 290.329091 
L 268.780134 290.329091 
L 390.729091 290.329091 
" style="fill:none;stroke:#2ca02c;stroke-linecap:square;stroke-width:1.5;"/>
    <defs>
     <path d="M 0 1.5 
C 0.397805 1.5 0.77937 1.341951 1.06066 1.06066 
C 1.341951 0.77937 1.5 0.397805 1.5 0 
C 1.5 -0.397805 1.341951 -0.77937 1.06066 -1.06066 
C 0.77937 -1.341951 0.397805 -1.5 0 -1.5 
C -0.397805 -1.5 -0.77937 -1.341951 -1.06066 -1.06066 
C -1.341951 -0.77937 -1.5 -0.397805 -1.5 0 
C -1.5 0.397805 -1.341951 0.77937 -1.06066 1.06066 
C -0.77937 1.341951 -0.397805 1.5 0 1.5 
z
" id="mb44ac2af46" style="stroke:#2ca02c;"/>
    </defs>
    <g clip-path="url(#p87f5884c22)">
     <use style="fill:#2ca02c;stroke:#2ca02c;" x="73.310909" xlink:href="#mb44ac2af46" y="290.329091"/>
     <use style="fill:#2ca02c;stroke:#2ca02c;" x="73.330711" xlink:href="#mb44ac2af46" y="290.329091"/>
     <use style="fill:#2ca02c;stroke:#2ca02c;" x="73.362865" xlink:href="#mb44ac2af46" y="290.329091"/>
     <use style="fill:#2ca02c;stroke:#2ca02c;" x="73.415075" xlink:href="#mb44ac2af46" y="290.329091"/>
     <use style="fill:#2ca02c;stroke:#2ca02c;" x="73.499853" xlink:href="#mb44ac2af46" y="290.329091"/>
     <use style="fill:#2ca02c;stroke:#2ca02c;" x="73.637514" xlink:href="#mb44ac2af46" y="290.329091"/>
     <use style="fill:#2ca02c;stroke:#2ca02c;" x="73.861044" xlink:href="#mb44ac2af46" y="290.329091"/>
     <use style="fill:#2ca02c;stroke:#2ca02c;" x="74.224007" xlink:href="#mb44ac2af46" y="290.329091"/>
     <use style="fill:#2ca02c;stroke:#2ca02c;" x="74.813377" xlink:href="#mb44ac2af46" y="290.329091"/>
     <use style="fill:#2ca02c;stroke:#2ca02c;" x="75.770384" xlink:href="#mb44ac2af46" y="290.329091"/>
     <use style="fill:#2ca02c;stroke:#2ca02c;" x="77.324349" xlink:href="#mb44ac2af46" y="290.329091"/>
     <use style="fill:#2ca02c;stroke:#2ca02c;" x="79.847641" xlink:href="#mb44ac2af46" y="290.329091"/>
     <use style="fill:#2ca02c;stroke:#2ca02c;" x="83.944905" xlink:href="#mb44ac2af46" y="290.329091"/>
     <use style="fill:#2ca02c;stroke:#2ca02c;" x="90.597946" xlink:href="#mb44ac2af46" y="290.329091"/>
     <use style="fill:#2ca02c;stroke:#2ca02c;" x="101.400999" xlink:href="#mb44ac2af46" y="290.329091"/>
     <use style="fill:#2ca02c;stroke:#2ca02c;" x="118.942745" xlink:href="#mb44ac2af46" y="290.329091"/>
     <use style="fill:#2ca02c;stroke:#2ca02c;" x="147.426625" xlink:href="#mb44ac2af46" y="290.329091"/>
     <use style="fill:#2ca02c;stroke:#2ca02c;" x="193.678086" xlink:href="#mb44ac2af46" y="290.329091"/>
     <use style="fill:#2ca02c;stroke:#2ca02c;" x="268.780134" xlink:href="#mb44ac2af46" y="290.329091"/>
     <use style="fill:#2ca02c;stroke:#2ca02c;" x="390.729091" xlink:href="#mb44ac2af46" y="290.329091"/>
    </g>
   </g>
   <g id="line2d_13">
    <path clip-path="url(#p87f5884c22)" d="M 73.310909 24.110909 
L 73.330711 24.110909 
L 73.362865 24.110909 
L 73.415075 24.110909 
L 73.499853 24.110909 
L 73.637514 24.110909 
L 73.861044 24.110909 
L 74.224007 24.110909 
L 74.813377 24.110909 
L 75.770384 24.110909 
L 77.324349 24.110909 
L 79.847641 24.110909 
L 83.944905 24.110909 
L 90.597946 24.110909 
L 101.400999 24.110909 
L 118.942745 24.110909 
L 147.426625 24.110909 
L 193.678086 24.110909 
L 268.780134 24.110909 
L 390.729091 24.110909 
" style="fill:none;stroke:#1f77b4;stroke-linecap:square;stroke-width:1.5;"/>
    <defs>
     <path d="M 0 1.5 
C 0.397805 1.5 0.77937 1.341951 1.06066 1.06066 
C 1.341951 0.77937 1.5 0.397805 1.5 0 
C 1.5 -0.397805 1.341951 -0.77937 1.06066 -1.06066 
C 0.77937 -1.341951 0.397805 -1.5 0 -1.5 
C -0.397805 -1.5 -0.77937 -1.341951 -1.06066 -1.06066 
C -1.341951 -0.77937 -1.5 -0.397805 -1.5 0 
C -1.5 0.397805 -1.341951 0.77937 -1.06066 1.06066 
C -0.77937 1.341951 -0.397805 1.5 0 1.5 
z
" id="m2c0e2d93cb" style="stroke:#1f77b4;"/>
    </defs>
    <g clip-path="url(#p87f5884c22)">
     <use style="fill:#1f77b4;stroke:#1f77b4;" x="73.310909" xlink:href="#m2c0e2d93cb" y="24.110909"/>
     <use style="fill:#1f77b4;stroke:#1f77b4;" x="73.330711" xlink:href="#m2c0e2d93cb" y="24.110909"/>
     <use style="fill:#1f77b4;stroke:#1f77b4;" x="73.362865" xlink:href="#m2c0e2d93cb" y="24.110909"/>
     <use style="fill:#1f77b4;stroke:#1f77b4;" x="73.415075" xlink:href="#m2c0e2d93cb" y="24.110909"/>
     <use style="fill:#1f77b4;stroke:#1f77b4;" x="73.499853" xlink:href="#m2c0e2d93cb" y="24.110909"/>
     <use style="fill:#1f77b4;stroke:#1f77b4;" x="73.637514" xlink:href="#m2c0e2d93cb" y="24.110909"/>
     <use style="fill:#1f77b4;stroke:#1f77b4;" x="73.861044" xlink:href="#m2c0e2d93cb" y="24.110909"/>
     <use style="fill:#1f77b4;stroke:#1f77b4;" x="74.224007" xlink:href="#m2c0e2d93cb" y="24.110909"/>
     <use style="fill:#1f77b4;stroke:#1f77b4;" x="74.813377" xlink:href="#m2c0e2d93cb" y="24.110909"/>
     <use style="fill:#1f77b4;stroke:#1f77b4;" x="75.770384" xlink:href="#m2c0e2d93cb" y="24.110909"/>
     <use style="fill:#1f77b4;stroke:#1f77b4;" x="77.324349" xlink:href="#m2c0e2d93cb" y="24.110909"/>
     <use style="fill:#1f77b4;stroke:#1f77b4;" x="79.847641" xlink:href="#m2c0e2d93cb" y="24.110909"/>
     <use style="fill:#1f77b4;stroke:#1f77b4;" x="83.944905" xlink:href="#m2c0e2d93cb" y="24.110909"/>
     <use style="fill:#1f77b4;stroke:#1f77b4;" x="90.597946" xlink:href="#m2c0e2d93cb" y="24.110909"/>
     <use style="fill:#1f77b4;stroke:#1f77b4;" x="101.400999" xlink:href="#m2c0e2d93cb" y="24.110909"/>
     <use style="fill:#1f77b4;stroke:#1f77b4;" x="118.942745" xlink:href="#m2c0e2d93cb" y="24.110909"/>
     <use style="fill:#1f77b4;stroke:#1f77b4;" x="147.426625" xlink:href="#m2c0e2d93cb" y="24.110909"/>
     <use style="fill:#1f77b4;stroke:#1f77b4;" x="193.678086" xlink:href="#m2c0e2d93cb" y="24.110909"/>
     <use style="fill:#1f77b4;stroke:#1f77b4;" x="268.780134" xlink:href="#m2c0e2d93cb" y="24.110909"/>
     <use style="fill:#1f77b4;stroke:#1f77b4;" x="390.729091" xlink:href="#m2c0e2d93cb" y="24.110909"/>
    </g>
   </g>
   <g id="patch_3">
    <path d="M 57.44 303.64 
L 57.44 10.8 
" style="fill:none;stroke:#000000;stroke-linecap:square;stroke-linejoin:miter;stroke-width:0.8;"/>
   </g>
   <g id="patch_4">
    <path d="M 406.6 303.64 
L 406.6 10.8 
" style="fill:none;stroke:#000000;stroke-linecap:square;stroke-linejoin:miter;stroke-width:0.8;"/>
   </g>
   <g id="patch_5">
    <path d="M 57.44 303.64 
L 406.6 303.64 
" style="fill:none;stroke:#000000;stroke-linecap:square;stroke-linejoin:miter;stroke-width:0.8;"/>
   </g>
   <g id="patch_6">
    <path d="M 57.44 10.8 
L 406.6 10.8 
" style="fill:none;stroke:#000000;stroke-linecap:square;stroke-linejoin:miter;stroke-width:0.8;"/>
   </g>
   <g id="legend_1">
    <g id="patch_7">
     <path d="M 353.1125 173.398125 
L 399.6 173.398125 
Q 401.6 173.398125 401.6 171.398125 
L 401.6 143.041875 
Q 401.6 141.041875 399.6 141.041875 
L 353.1125 141.041875 
Q 351.1125 141.041875 351.1125 143.041875 
L 351.1125 171.398125 
Q 351.1125 173.398125 353.1125 173.398125 
z
" style="fill:#ffffff;opacity:0.8;stroke:#cccccc;stroke-linejoin:miter;"/>
    </g>
    <g id="line2d_14">
     <path d="M 355.1125 149.140312 
L 375.1125 149.140312 
" style="fill:none;stroke:#2ca02c;stroke-linecap:square;stroke-width:1.5;"/>
    </g>
    <g id="line2d_15">
     <g>
      <use style="fill:#2ca02c;stroke:#2ca02c;" x="365.1125" xlink:href="#mb44ac2af46" y="149.140312"/>
     </g>
    </g>
    <g id="text_15">
     <!-- T+ -->
     <defs>
      <path d="M 46 62.703125 
L 46 35.5 
L 73.1875 35.5 
L 73.1875 27.203125 
L 46 27.203125 
L 46 0 
L 37.796875 0 
L 37.796875 27.203125 
L 10.59375 27.203125 
L 10.59375 35.5 
L 37.796875 35.5 
L 37.796875 62.703125 
z
" id="DejaVuSans-43"/>
     </defs>
     <g transform="translate(383.1125 152.640312)scale(0.1 -0.1)">
      <use xlink:href="#DejaVuSans-84"/>
      <use x="61.083984" xlink:href="#DejaVuSans-43"/>
     </g>
    </g>
    <g id="line2d_16">
     <path d="M 355.1125 163.818437 
L 375.1125 163.818437 
" style="fill:none;stroke:#1f77b4;stroke-linecap:square;stroke-width:1.5;"/>
    </g>
    <g id="line2d_17">
     <g>
      <use style="fill:#1f77b4;stroke:#1f77b4;" x="365.1125" xlink:href="#m2c0e2d93cb" y="163.818437"/>
     </g>
    </g>
    <g id="text_16">
     <!-- Tp -->
     <g transform="translate(383.1125 167.318437)scale(0.1 -0.1)">
      <use xlink:href="#DejaVuSans-84"/>
      <use x="61.083984" xlink:href="#DejaVuSans-112"/>
     </g>
    </g>
   </g>
  </g>
  <g id="axes_2">
   <g id="matplotlib.axis_3">
    <g id="ytick_6">
     <g id="line2d_18">
      <defs>
       <path d="M 0 0 
L 3.5 0 
" id="m6fb48643bd" style="stroke:#000000;stroke-width:0.8;"/>
      </defs>
      <g>
       <use style="stroke:#000000;stroke-width:0.8;" x="406.6" xlink:href="#m6fb48643bd" y="250.440836"/>
      </g>
     </g>
     <g id="text_17">
      <!-- 0.96 -->
      <defs>
       <path d="M 10.984375 1.515625 
L 10.984375 10.5 
Q 14.703125 8.734375 18.5 7.8125 
Q 22.3125 6.890625 25.984375 6.890625 
Q 35.75 6.890625 40.890625 13.453125 
Q 46.046875 20.015625 46.78125 33.40625 
Q 43.953125 29.203125 39.59375 26.953125 
Q 35.25 24.703125 29.984375 24.703125 
Q 19.046875 24.703125 12.671875 31.3125 
Q 6.296875 37.9375 6.296875 49.421875 
Q 6.296875 60.640625 12.9375 67.421875 
Q 19.578125 74.21875 30.609375 74.21875 
Q 43.265625 74.21875 49.921875 64.515625 
Q 56.59375 54.828125 56.59375 36.375 
Q 56.59375 19.140625 48.40625 8.859375 
Q 40.234375 -1.421875 26.421875 -1.421875 
Q 22.703125 -1.421875 18.890625 -0.6875 
Q 15.09375 0.046875 10.984375 1.515625 
z
M 30.609375 32.421875 
Q 37.25 32.421875 41.125 36.953125 
Q 45.015625 41.5 45.015625 49.421875 
Q 45.015625 57.28125 41.125 61.84375 
Q 37.25 66.40625 30.609375 66.40625 
Q 23.96875 66.40625 20.09375 61.84375 
Q 16.21875 57.28125 16.21875 49.421875 
Q 16.21875 41.5 20.09375 36.953125 
Q 23.96875 32.421875 30.609375 32.421875 
z
" id="DejaVuSans-57"/>
      </defs>
      <g style="fill:#17becf;" transform="translate(413.6 254.240054)scale(0.1 -0.1)">
       <use xlink:href="#DejaVuSans-48"/>
       <use x="63.623047" xlink:href="#DejaVuSans-46"/>
       <use x="95.410156" xlink:href="#DejaVuSans-57"/>
       <use x="159.033203" xlink:href="#DejaVuSans-54"/>
      </g>
     </g>
    </g>
    <g id="ytick_7">
     <g id="line2d_19">
      <g>
       <use style="stroke:#000000;stroke-width:0.8;" x="406.6" xlink:href="#m6fb48643bd" y="194.110732"/>
      </g>
     </g>
     <g id="text_18">
      <!-- 0.98 -->
      <g style="fill:#17becf;" transform="translate(413.6 197.909951)scale(0.1 -0.1)">
       <use xlink:href="#DejaVuSans-48"/>
       <use x="63.623047" xlink:href="#DejaVuSans-46"/>
       <use x="95.410156" xlink:href="#DejaVuSans-57"/>
       <use x="159.033203" xlink:href="#DejaVuSans-56"/>
      </g>
     </g>
    </g>
    <g id="ytick_8">
     <g id="line2d_20">
      <g>
       <use style="stroke:#000000;stroke-width:0.8;" x="406.6" xlink:href="#m6fb48643bd" y="137.780629"/>
      </g>
     </g>
     <g id="text_19">
      <!-- 1.00 -->
      <g style="fill:#17becf;" transform="translate(413.6 141.579848)scale(0.1 -0.1)">
       <use xlink:href="#DejaVuSans-49"/>
       <use x="63.623047" xlink:href="#DejaVuSans-46"/>
       <use x="95.410156" xlink:href="#DejaVuSans-48"/>
       <use x="159.033203" xlink:href="#DejaVuSans-48"/>
      </g>
     </g>
    </g>
    <g id="ytick_9">
     <g id="line2d_21">
      <g>
       <use style="stroke:#000000;stroke-width:0.8;" x="406.6" xlink:href="#m6fb48643bd" y="81.450526"/>
      </g>
     </g>
     <g id="text_20">
      <!-- 1.02 -->
      <g style="fill:#17becf;" transform="translate(413.6 85.249745)scale(0.1 -0.1)">
       <use xlink:href="#DejaVuSans-49"/>
       <use x="63.623047" xlink:href="#DejaVuSans-46"/>
       <use x="95.410156" xlink:href="#DejaVuSans-48"/>
       <use x="159.033203" xlink:href="#DejaVuSans-50"/>
      </g>
     </g>
    </g>
    <g id="ytick_10">
     <g id="line2d_22">
      <g>
       <use style="stroke:#000000;stroke-width:0.8;" x="406.6" xlink:href="#m6fb48643bd" y="25.120423"/>
      </g>
     </g>
     <g id="text_21">
      <!-- 1.04 -->
      <g style="fill:#17becf;" transform="translate(413.6 28.919642)scale(0.1 -0.1)">
       <use xlink:href="#DejaVuSans-49"/>
       <use x="63.623047" xlink:href="#DejaVuSans-46"/>
       <use x="95.410156" xlink:href="#DejaVuSans-48"/>
       <use x="159.033203" xlink:href="#DejaVuSans-52"/>
      </g>
     </g>
    </g>
    <g id="text_22">
     <!-- Resource Eq -->
     <defs>
      <path d="M 44.390625 34.1875 
Q 47.5625 33.109375 50.5625 29.59375 
Q 53.5625 26.078125 56.59375 19.921875 
L 66.609375 0 
L 56 0 
L 46.6875 18.703125 
Q 43.0625 26.03125 39.671875 28.421875 
Q 36.28125 30.8125 30.421875 30.8125 
L 19.671875 30.8125 
L 19.671875 0 
L 9.8125 0 
L 9.8125 72.90625 
L 32.078125 72.90625 
Q 44.578125 72.90625 50.734375 67.671875 
Q 56.890625 62.453125 56.890625 51.90625 
Q 56.890625 45.015625 53.6875 40.46875 
Q 50.484375 35.9375 44.390625 34.1875 
z
M 19.671875 64.796875 
L 19.671875 38.921875 
L 32.078125 38.921875 
Q 39.203125 38.921875 42.84375 42.21875 
Q 46.484375 45.515625 46.484375 51.90625 
Q 46.484375 58.296875 42.84375 61.546875 
Q 39.203125 64.796875 32.078125 64.796875 
z
" id="DejaVuSans-82"/>
      <path d="M 41.109375 46.296875 
Q 39.59375 47.171875 37.8125 47.578125 
Q 36.03125 48 33.890625 48 
Q 26.265625 48 22.1875 43.046875 
Q 18.109375 38.09375 18.109375 28.8125 
L 18.109375 0 
L 9.078125 0 
L 9.078125 54.6875 
L 18.109375 54.6875 
L 18.109375 46.1875 
Q 20.953125 51.171875 25.484375 53.578125 
Q 30.03125 56 36.53125 56 
Q 37.453125 56 38.578125 55.875 
Q 39.703125 55.765625 41.0625 55.515625 
z
" id="DejaVuSans-114"/>
      <path d="M 48.78125 52.59375 
L 48.78125 44.1875 
Q 44.96875 46.296875 41.140625 47.34375 
Q 37.3125 48.390625 33.40625 48.390625 
Q 24.65625 48.390625 19.8125 42.84375 
Q 14.984375 37.3125 14.984375 27.296875 
Q 14.984375 17.28125 19.8125 11.734375 
Q 24.65625 6.203125 33.40625 6.203125 
Q 37.3125 6.203125 41.140625 7.25 
Q 44.96875 8.296875 48.78125 10.40625 
L 48.78125 2.09375 
Q 45.015625 0.34375 40.984375 -0.53125 
Q 36.96875 -1.421875 32.421875 -1.421875 
Q 20.0625 -1.421875 12.78125 6.34375 
Q 5.515625 14.109375 5.515625 27.296875 
Q 5.515625 40.671875 12.859375 48.328125 
Q 20.21875 56 33.015625 56 
Q 37.15625 56 41.109375 55.140625 
Q 45.0625 54.296875 48.78125 52.59375 
z
" id="DejaVuSans-99"/>
     </defs>
     <g style="fill:#17becf;" transform="translate(447.464063 188.402813)rotate(-90)scale(0.1 -0.1)">
      <use xlink:href="#DejaVuSans-82"/>
      <use x="69.419922" xlink:href="#DejaVuSans-101"/>
      <use x="130.943359" xlink:href="#DejaVuSans-115"/>
      <use x="183.042969" xlink:href="#DejaVuSans-111"/>
      <use x="244.224609" xlink:href="#DejaVuSans-117"/>
      <use x="307.603516" xlink:href="#DejaVuSans-114"/>
      <use x="348.685547" xlink:href="#DejaVuSans-99"/>
      <use x="403.666016" xlink:href="#DejaVuSans-101"/>
      <use x="465.189453" xlink:href="#DejaVuSans-32"/>
      <use x="496.976562" xlink:href="#DejaVuSans-69"/>
      <use x="560.160156" xlink:href="#DejaVuSans-113"/>
     </g>
    </g>
   </g>
   <g id="line2d_23">
    <path clip-path="url(#p87f5884c22)" d="M 73.310909 290.32876 
L 73.330711 290.328752 
L 73.362865 290.328728 
L 73.415075 290.32891 
L 73.499853 290.328757 
L 73.637514 290.328804 
L 73.861044 290.328748 
L 74.224007 290.328755 
L 74.813377 290.328768 
L 75.770384 290.328331 
L 77.324349 290.328971 
L 79.847641 290.329091 
L 83.944905 290.328757 
L 90.597946 290.328753 
L 101.400999 290.328749 
L 118.942745 290.328779 
L 147.426625 290.328749 
L 193.678086 290.328999 
L 268.780134 290.32875 
L 390.729091 290.328756 
" style="fill:none;stroke:#17becf;stroke-linecap:square;stroke-width:1.5;"/>
    <defs>
     <path d="M 0 1.5 
C 0.397805 1.5 0.77937 1.341951 1.06066 1.06066 
C 1.341951 0.77937 1.5 0.397805 1.5 0 
C 1.5 -0.397805 1.341951 -0.77937 1.06066 -1.06066 
C 0.77937 -1.341951 0.397805 -1.5 0 -1.5 
C -0.397805 -1.5 -0.77937 -1.341951 -1.06066 -1.06066 
C -1.341951 -0.77937 -1.5 -0.397805 -1.5 0 
C -1.5 0.397805 -1.341951 0.77937 -1.06066 1.06066 
C -0.77937 1.341951 -0.397805 1.5 0 1.5 
z
" id="m1f165de92b" style="stroke:#17becf;"/>
    </defs>
    <g clip-path="url(#p87f5884c22)">
     <use style="fill:#17becf;stroke:#17becf;" x="73.310909" xlink:href="#m1f165de92b" y="290.32876"/>
     <use style="fill:#17becf;stroke:#17becf;" x="73.330711" xlink:href="#m1f165de92b" y="290.328752"/>
     <use style="fill:#17becf;stroke:#17becf;" x="73.362865" xlink:href="#m1f165de92b" y="290.328728"/>
     <use style="fill:#17becf;stroke:#17becf;" x="73.415075" xlink:href="#m1f165de92b" y="290.32891"/>
     <use style="fill:#17becf;stroke:#17becf;" x="73.499853" xlink:href="#m1f165de92b" y="290.328757"/>
     <use style="fill:#17becf;stroke:#17becf;" x="73.637514" xlink:href="#m1f165de92b" y="290.328804"/>
     <use style="fill:#17becf;stroke:#17becf;" x="73.861044" xlink:href="#m1f165de92b" y="290.328748"/>
     <use style="fill:#17becf;stroke:#17becf;" x="74.224007" xlink:href="#m1f165de92b" y="290.328755"/>
     <use style="fill:#17becf;stroke:#17becf;" x="74.813377" xlink:href="#m1f165de92b" y="290.328768"/>
     <use style="fill:#17becf;stroke:#17becf;" x="75.770384" xlink:href="#m1f165de92b" y="290.328331"/>
     <use style="fill:#17becf;stroke:#17becf;" x="77.324349" xlink:href="#m1f165de92b" y="290.328971"/>
     <use style="fill:#17becf;stroke:#17becf;" x="79.847641" xlink:href="#m1f165de92b" y="290.329091"/>
     <use style="fill:#17becf;stroke:#17becf;" x="83.944905" xlink:href="#m1f165de92b" y="290.328757"/>
     <use style="fill:#17becf;stroke:#17becf;" x="90.597946" xlink:href="#m1f165de92b" y="290.328753"/>
     <use style="fill:#17becf;stroke:#17becf;" x="101.400999" xlink:href="#m1f165de92b" y="290.328749"/>
     <use style="fill:#17becf;stroke:#17becf;" x="118.942745" xlink:href="#m1f165de92b" y="290.328779"/>
     <use style="fill:#17becf;stroke:#17becf;" x="147.426625" xlink:href="#m1f165de92b" y="290.328749"/>
     <use style="fill:#17becf;stroke:#17becf;" x="193.678086" xlink:href="#m1f165de92b" y="290.328999"/>
     <use style="fill:#17becf;stroke:#17becf;" x="268.780134" xlink:href="#m1f165de92b" y="290.32875"/>
     <use style="fill:#17becf;stroke:#17becf;" x="390.729091" xlink:href="#m1f165de92b" y="290.328756"/>
    </g>
   </g>
   <g id="line2d_24">
    <path clip-path="url(#p87f5884c22)" d="M 73.310909 24.110909 
L 73.330711 24.110909 
L 73.362865 24.110909 
L 73.415075 24.110909 
L 73.499853 24.110909 
L 73.637514 24.110909 
L 73.861044 24.110909 
L 74.224007 24.110909 
L 74.813377 24.110909 
L 75.770384 24.110909 
L 77.324349 24.110909 
L 79.847641 24.110909 
L 83.944905 24.110909 
L 90.597946 24.110909 
L 101.400999 24.110909 
L 118.942745 24.110909 
L 147.426625 24.110909 
L 193.678086 24.110909 
L 268.780134 24.110909 
L 390.729091 24.110909 
" style="fill:none;stroke:#ff7f0e;stroke-linecap:square;stroke-width:1.5;"/>
    <defs>
     <path d="M 0 1.5 
C 0.397805 1.5 0.77937 1.341951 1.06066 1.06066 
C 1.341951 0.77937 1.5 0.397805 1.5 0 
C 1.5 -0.397805 1.341951 -0.77937 1.06066 -1.06066 
C 0.77937 -1.341951 0.397805 -1.5 0 -1.5 
C -0.397805 -1.5 -0.77937 -1.341951 -1.06066 -1.06066 
C -1.341951 -0.77937 -1.5 -0.397805 -1.5 0 
C -1.5 0.397805 -1.341951 0.77937 -1.06066 1.06066 
C -0.77937 1.341951 -0.397805 1.5 0 1.5 
z
" id="m7933621279" style="stroke:#ff7f0e;"/>
    </defs>
    <g clip-path="url(#p87f5884c22)">
     <use style="fill:#ff7f0e;stroke:#ff7f0e;" x="73.310909" xlink:href="#m7933621279" y="24.110909"/>
     <use style="fill:#ff7f0e;stroke:#ff7f0e;" x="73.330711" xlink:href="#m7933621279" y="24.110909"/>
     <use style="fill:#ff7f0e;stroke:#ff7f0e;" x="73.362865" xlink:href="#m7933621279" y="24.110909"/>
     <use style="fill:#ff7f0e;stroke:#ff7f0e;" x="73.415075" xlink:href="#m7933621279" y="24.110909"/>
     <use style="fill:#ff7f0e;stroke:#ff7f0e;" x="73.499853" xlink:href="#m7933621279" y="24.110909"/>
     <use style="fill:#ff7f0e;stroke:#ff7f0e;" x="73.637514" xlink:href="#m7933621279" y="24.110909"/>
     <use style="fill:#ff7f0e;stroke:#ff7f0e;" x="73.861044" xlink:href="#m7933621279" y="24.110909"/>
     <use style="fill:#ff7f0e;stroke:#ff7f0e;" x="74.224007" xlink:href="#m7933621279" y="24.110909"/>
     <use style="fill:#ff7f0e;stroke:#ff7f0e;" x="74.813377" xlink:href="#m7933621279" y="24.110909"/>
     <use style="fill:#ff7f0e;stroke:#ff7f0e;" x="75.770384" xlink:href="#m7933621279" y="24.110909"/>
     <use style="fill:#ff7f0e;stroke:#ff7f0e;" x="77.324349" xlink:href="#m7933621279" y="24.110909"/>
     <use style="fill:#ff7f0e;stroke:#ff7f0e;" x="79.847641" xlink:href="#m7933621279" y="24.110909"/>
     <use style="fill:#ff7f0e;stroke:#ff7f0e;" x="83.944905" xlink:href="#m7933621279" y="24.110909"/>
     <use style="fill:#ff7f0e;stroke:#ff7f0e;" x="90.597946" xlink:href="#m7933621279" y="24.110909"/>
     <use style="fill:#ff7f0e;stroke:#ff7f0e;" x="101.400999" xlink:href="#m7933621279" y="24.110909"/>
     <use style="fill:#ff7f0e;stroke:#ff7f0e;" x="118.942745" xlink:href="#m7933621279" y="24.110909"/>
     <use style="fill:#ff7f0e;stroke:#ff7f0e;" x="147.426625" xlink:href="#m7933621279" y="24.110909"/>
     <use style="fill:#ff7f0e;stroke:#ff7f0e;" x="193.678086" xlink:href="#m7933621279" y="24.110909"/>
     <use style="fill:#ff7f0e;stroke:#ff7f0e;" x="268.780134" xlink:href="#m7933621279" y="24.110909"/>
     <use style="fill:#ff7f0e;stroke:#ff7f0e;" x="390.729091" xlink:href="#m7933621279" y="24.110909"/>
    </g>
   </g>
   <g id="patch_8">
    <path d="M 57.44 303.64 
L 57.44 10.8 
" style="fill:none;stroke:#000000;stroke-linecap:square;stroke-linejoin:miter;stroke-width:0.8;"/>
   </g>
   <g id="patch_9">
    <path d="M 406.6 303.64 
L 406.6 10.8 
" style="fill:none;stroke:#000000;stroke-linecap:square;stroke-linejoin:miter;stroke-width:0.8;"/>
   </g>
   <g id="patch_10">
    <path d="M 57.44 303.64 
L 406.6 303.64 
" style="fill:none;stroke:#000000;stroke-linecap:square;stroke-linejoin:miter;stroke-width:0.8;"/>
   </g>
   <g id="patch_11">
    <path d="M 57.44 10.8 
L 406.6 10.8 
" style="fill:none;stroke:#000000;stroke-linecap:square;stroke-linejoin:miter;stroke-width:0.8;"/>
   </g>
   <g id="legend_2">
    <g id="patch_12">
     <path d="M 348.396875 173.398125 
L 399.6 173.398125 
Q 401.6 173.398125 401.6 171.398125 
L 401.6 143.041875 
Q 401.6 141.041875 399.6 141.041875 
L 348.396875 141.041875 
Q 346.396875 141.041875 346.396875 143.041875 
L 346.396875 171.398125 
Q 346.396875 173.398125 348.396875 173.398125 
z
" style="fill:#ffffff;opacity:0.8;stroke:#cccccc;stroke-linejoin:miter;"/>
    </g>
    <g id="line2d_25">
     <path d="M 350.396875 149.140312 
L 370.396875 149.140312 
" style="fill:none;stroke:#17becf;stroke-linecap:square;stroke-width:1.5;"/>
    </g>
    <g id="line2d_26">
     <g>
      <use style="fill:#17becf;stroke:#17becf;" x="360.396875" xlink:href="#m1f165de92b" y="149.140312"/>
     </g>
    </g>
    <g id="text_23">
     <!-- o2 -->
     <g transform="translate(378.396875 152.640312)scale(0.1 -0.1)">
      <use xlink:href="#DejaVuSans-111"/>
      <use x="61.181641" xlink:href="#DejaVuSans-50"/>
     </g>
    </g>
    <g id="line2d_27">
     <path d="M 350.396875 163.818437 
L 370.396875 163.818437 
" style="fill:none;stroke:#ff7f0e;stroke-linecap:square;stroke-width:1.5;"/>
    </g>
    <g id="line2d_28">
     <g>
      <use style="fill:#ff7f0e;stroke:#ff7f0e;" x="360.396875" xlink:href="#m7933621279" y="163.818437"/>
     </g>
    </g>
    <g id="text_24">
     <!-- test -->
     <g transform="translate(378.396875 167.318437)scale(0.1 -0.1)">
      <use xlink:href="#DejaVuSans-116"/>
      <use x="39.208984" xlink:href="#DejaVuSans-101"/>
      <use x="100.732422" xlink:href="#DejaVuSans-115"/>
      <use x="152.832031" xlink:href="#DejaVuSans-116"/>
     </g>
    </g>
   </g>
  </g>
 </g>
 <defs>
  <clipPath id="p87f5884c22">
   <rect height="292.84" width="349.16" x="57.44" y="10.8"/>
  </clipPath>
 </defs>
</svg>
