<?xml version="1.0" encoding="utf-8" standalone="no"?>
<!DOCTYPE svg PUBLIC "-//W3C//DTD SVG 1.1//EN"
  "http://www.w3.org/Graphics/SVG/1.1/DTD/svg11.dtd">
<!-- Created with matplotlib (https://matplotlib.org/) -->
<svg height="345.6pt" version="1.1" viewBox="0 0 460.8 345.6" width="460.8pt" xmlns="http://www.w3.org/2000/svg" xmlns:xlink="http://www.w3.org/1999/xlink">
 <defs>
  <style type="text/css">
*{stroke-linecap:butt;stroke-linejoin:round;}
  </style>
 </defs>
 <g id="figure_1">
  <g id="patch_1">
   <path d="M 0 345.6 
L 460.8 345.6 
L 460.8 0 
L 0 0 
z
" style="fill:#ffffff;"/>
  </g>
  <g id="axes_1">
   <g id="patch_2">
    <path d="M 57.6 307.584 
L 414.72 307.584 
L 414.72 41.472 
L 57.6 41.472 
z
" style="fill:#ffffff;"/>
   </g>
   <g id="matplotlib.axis_1">
    <g id="xtick_1">
     <g id="line2d_1">
      <defs>
       <path d="M 0 0 
L 0 3.5 
" id="m9b7cacf07c" style="stroke:#000000;stroke-width:0.8;"/>
      </defs>
      <g>
       <use style="stroke:#000000;stroke-width:0.8;" x="73.832727" xlink:href="#m9b7cacf07c" y="307.584"/>
      </g>
     </g>
     <g id="text_1">
      <!-- 0.0 -->
      <defs>
       <path d="M 31.78125 66.40625 
Q 24.171875 66.40625 20.328125 58.90625 
Q 16.5 51.421875 16.5 36.375 
Q 16.5 21.390625 20.328125 13.890625 
Q 24.171875 6.390625 31.78125 6.390625 
Q 39.453125 6.390625 43.28125 13.890625 
Q 47.125 21.390625 47.125 36.375 
Q 47.125 51.421875 43.28125 58.90625 
Q 39.453125 66.40625 31.78125 66.40625 
z
M 31.78125 74.21875 
Q 44.046875 74.21875 50.515625 64.515625 
Q 56.984375 54.828125 56.984375 36.375 
Q 56.984375 17.96875 50.515625 8.265625 
Q 44.046875 -1.421875 31.78125 -1.421875 
Q 19.53125 -1.421875 13.0625 8.265625 
Q 6.59375 17.96875 6.59375 36.375 
Q 6.59375 54.828125 13.0625 64.515625 
Q 19.53125 74.21875 31.78125 74.21875 
z
" id="DejaVuSans-48"/>
       <path d="M 10.6875 12.40625 
L 21 12.40625 
L 21 0 
L 10.6875 0 
z
" id="DejaVuSans-46"/>
      </defs>
      <g transform="translate(65.881165 322.182437)scale(0.1 -0.1)">
       <use xlink:href="#DejaVuSans-48"/>
       <use x="63.623047" xlink:href="#DejaVuSans-46"/>
       <use x="95.410156" xlink:href="#DejaVuSans-48"/>
      </g>
     </g>
    </g>
    <g id="xtick_2">
     <g id="line2d_2">
      <g>
       <use style="stroke:#000000;stroke-width:0.8;" x="118.925515" xlink:href="#m9b7cacf07c" y="307.584"/>
      </g>
     </g>
     <g id="text_2">
      <!-- 0.2 -->
      <defs>
       <path d="M 19.1875 8.296875 
L 53.609375 8.296875 
L 53.609375 0 
L 7.328125 0 
L 7.328125 8.296875 
Q 12.9375 14.109375 22.625 23.890625 
Q 32.328125 33.6875 34.8125 36.53125 
Q 39.546875 41.84375 41.421875 45.53125 
Q 43.3125 49.21875 43.3125 52.78125 
Q 43.3125 58.59375 39.234375 62.25 
Q 35.15625 65.921875 28.609375 65.921875 
Q 23.96875 65.921875 18.8125 64.3125 
Q 13.671875 62.703125 7.8125 59.421875 
L 7.8125 69.390625 
Q 13.765625 71.78125 18.9375 73 
Q 24.125 74.21875 28.421875 74.21875 
Q 39.75 74.21875 46.484375 68.546875 
Q 53.21875 62.890625 53.21875 53.421875 
Q 53.21875 48.921875 51.53125 44.890625 
Q 49.859375 40.875 45.40625 35.40625 
Q 44.1875 33.984375 37.640625 27.21875 
Q 31.109375 20.453125 19.1875 8.296875 
z
" id="DejaVuSans-50"/>
      </defs>
      <g transform="translate(110.973953 322.182437)scale(0.1 -0.1)">
       <use xlink:href="#DejaVuSans-48"/>
       <use x="63.623047" xlink:href="#DejaVuSans-46"/>
       <use x="95.410156" xlink:href="#DejaVuSans-50"/>
      </g>
     </g>
    </g>
    <g id="xtick_3">
     <g id="line2d_3">
      <g>
       <use style="stroke:#000000;stroke-width:0.8;" x="164.018303" xlink:href="#m9b7cacf07c" y="307.584"/>
      </g>
     </g>
     <g id="text_3">
      <!-- 0.4 -->
      <defs>
       <path d="M 37.796875 64.3125 
L 12.890625 25.390625 
L 37.796875 25.390625 
z
M 35.203125 72.90625 
L 47.609375 72.90625 
L 47.609375 25.390625 
L 58.015625 25.390625 
L 58.015625 17.1875 
L 47.609375 17.1875 
L 47.609375 0 
L 37.796875 0 
L 37.796875 17.1875 
L 4.890625 17.1875 
L 4.890625 26.703125 
z
" id="DejaVuSans-52"/>
      </defs>
      <g transform="translate(156.066741 322.182437)scale(0.1 -0.1)">
       <use xlink:href="#DejaVuSans-48"/>
       <use x="63.623047" xlink:href="#DejaVuSans-46"/>
       <use x="95.410156" xlink:href="#DejaVuSans-52"/>
      </g>
     </g>
    </g>
    <g id="xtick_4">
     <g id="line2d_4">
      <g>
       <use style="stroke:#000000;stroke-width:0.8;" x="209.111091" xlink:href="#m9b7cacf07c" y="307.584"/>
      </g>
     </g>
     <g id="text_4">
      <!-- 0.6 -->
      <defs>
       <path d="M 33.015625 40.375 
Q 26.375 40.375 22.484375 35.828125 
Q 18.609375 31.296875 18.609375 23.390625 
Q 18.609375 15.53125 22.484375 10.953125 
Q 26.375 6.390625 33.015625 6.390625 
Q 39.65625 6.390625 43.53125 10.953125 
Q 47.40625 15.53125 47.40625 23.390625 
Q 47.40625 31.296875 43.53125 35.828125 
Q 39.65625 40.375 33.015625 40.375 
z
M 52.59375 71.296875 
L 52.59375 62.3125 
Q 48.875 64.0625 45.09375 64.984375 
Q 41.3125 65.921875 37.59375 65.921875 
Q 27.828125 65.921875 22.671875 59.328125 
Q 17.53125 52.734375 16.796875 39.40625 
Q 19.671875 43.65625 24.015625 45.921875 
Q 28.375 48.1875 33.59375 48.1875 
Q 44.578125 48.1875 50.953125 41.515625 
Q 57.328125 34.859375 57.328125 23.390625 
Q 57.328125 12.15625 50.6875 5.359375 
Q 44.046875 -1.421875 33.015625 -1.421875 
Q 20.359375 -1.421875 13.671875 8.265625 
Q 6.984375 17.96875 6.984375 36.375 
Q 6.984375 53.65625 15.1875 63.9375 
Q 23.390625 74.21875 37.203125 74.21875 
Q 40.921875 74.21875 44.703125 73.484375 
Q 48.484375 72.75 52.59375 71.296875 
z
" id="DejaVuSans-54"/>
      </defs>
      <g transform="translate(201.159529 322.182437)scale(0.1 -0.1)">
       <use xlink:href="#DejaVuSans-48"/>
       <use x="63.623047" xlink:href="#DejaVuSans-46"/>
       <use x="95.410156" xlink:href="#DejaVuSans-54"/>
      </g>
     </g>
    </g>
    <g id="xtick_5">
     <g id="line2d_5">
      <g>
       <use style="stroke:#000000;stroke-width:0.8;" x="254.203879" xlink:href="#m9b7cacf07c" y="307.584"/>
      </g>
     </g>
     <g id="text_5">
      <!-- 0.8 -->
      <defs>
       <path d="M 31.78125 34.625 
Q 24.75 34.625 20.71875 30.859375 
Q 16.703125 27.09375 16.703125 20.515625 
Q 16.703125 13.921875 20.71875 10.15625 
Q 24.75 6.390625 31.78125 6.390625 
Q 38.8125 6.390625 42.859375 10.171875 
Q 46.921875 13.96875 46.921875 20.515625 
Q 46.921875 27.09375 42.890625 30.859375 
Q 38.875 34.625 31.78125 34.625 
z
M 21.921875 38.8125 
Q 15.578125 40.375 12.03125 44.71875 
Q 8.5 49.078125 8.5 55.328125 
Q 8.5 64.0625 14.71875 69.140625 
Q 20.953125 74.21875 31.78125 74.21875 
Q 42.671875 74.21875 48.875 69.140625 
Q 55.078125 64.0625 55.078125 55.328125 
Q 55.078125 49.078125 51.53125 44.71875 
Q 48 40.375 41.703125 38.8125 
Q 48.828125 37.15625 52.796875 32.3125 
Q 56.78125 27.484375 56.78125 20.515625 
Q 56.78125 9.90625 50.3125 4.234375 
Q 43.84375 -1.421875 31.78125 -1.421875 
Q 19.734375 -1.421875 13.25 4.234375 
Q 6.78125 9.90625 6.78125 20.515625 
Q 6.78125 27.484375 10.78125 32.3125 
Q 14.796875 37.15625 21.921875 38.8125 
z
M 18.3125 54.390625 
Q 18.3125 48.734375 21.84375 45.5625 
Q 25.390625 42.390625 31.78125 42.390625 
Q 38.140625 42.390625 41.71875 45.5625 
Q 45.3125 48.734375 45.3125 54.390625 
Q 45.3125 60.0625 41.71875 63.234375 
Q 38.140625 66.40625 31.78125 66.40625 
Q 25.390625 66.40625 21.84375 63.234375 
Q 18.3125 60.0625 18.3125 54.390625 
z
" id="DejaVuSans-56"/>
      </defs>
      <g transform="translate(246.252317 322.182437)scale(0.1 -0.1)">
       <use xlink:href="#DejaVuSans-48"/>
       <use x="63.623047" xlink:href="#DejaVuSans-46"/>
       <use x="95.410156" xlink:href="#DejaVuSans-56"/>
      </g>
     </g>
    </g>
    <g id="xtick_6">
     <g id="line2d_6">
      <g>
       <use style="stroke:#000000;stroke-width:0.8;" x="299.296667" xlink:href="#m9b7cacf07c" y="307.584"/>
      </g>
     </g>
     <g id="text_6">
      <!-- 1.0 -->
      <defs>
       <path d="M 12.40625 8.296875 
L 28.515625 8.296875 
L 28.515625 63.921875 
L 10.984375 60.40625 
L 10.984375 69.390625 
L 28.421875 72.90625 
L 38.28125 72.90625 
L 38.28125 8.296875 
L 54.390625 8.296875 
L 54.390625 0 
L 12.40625 0 
z
" id="DejaVuSans-49"/>
      </defs>
      <g transform="translate(291.345105 322.182437)scale(0.1 -0.1)">
       <use xlink:href="#DejaVuSans-49"/>
       <use x="63.623047" xlink:href="#DejaVuSans-46"/>
       <use x="95.410156" xlink:href="#DejaVuSans-48"/>
      </g>
     </g>
    </g>
    <g id="xtick_7">
     <g id="line2d_7">
      <g>
       <use style="stroke:#000000;stroke-width:0.8;" x="344.389455" xlink:href="#m9b7cacf07c" y="307.584"/>
      </g>
     </g>
     <g id="text_7">
      <!-- 1.2 -->
      <g transform="translate(336.437893 322.182437)scale(0.1 -0.1)">
       <use xlink:href="#DejaVuSans-49"/>
       <use x="63.623047" xlink:href="#DejaVuSans-46"/>
       <use x="95.410156" xlink:href="#DejaVuSans-50"/>
      </g>
     </g>
    </g>
    <g id="xtick_8">
     <g id="line2d_8">
      <g>
       <use style="stroke:#000000;stroke-width:0.8;" x="389.482243" xlink:href="#m9b7cacf07c" y="307.584"/>
      </g>
     </g>
     <g id="text_8">
      <!-- 1.4 -->
      <g transform="translate(381.53068 322.182437)scale(0.1 -0.1)">
       <use xlink:href="#DejaVuSans-49"/>
       <use x="63.623047" xlink:href="#DejaVuSans-46"/>
       <use x="95.410156" xlink:href="#DejaVuSans-52"/>
      </g>
     </g>
    </g>
    <g id="text_9">
     <!-- Time (min) -->
     <defs>
      <path d="M -0.296875 72.90625 
L 61.375 72.90625 
L 61.375 64.59375 
L 35.5 64.59375 
L 35.5 0 
L 25.59375 0 
L 25.59375 64.59375 
L -0.296875 64.59375 
z
" id="DejaVuSans-84"/>
      <path d="M 9.421875 54.6875 
L 18.40625 54.6875 
L 18.40625 0 
L 9.421875 0 
z
M 9.421875 75.984375 
L 18.40625 75.984375 
L 18.40625 64.59375 
L 9.421875 64.59375 
z
" id="DejaVuSans-105"/>
      <path d="M 52 44.1875 
Q 55.375 50.25 60.0625 53.125 
Q 64.75 56 71.09375 56 
Q 79.640625 56 84.28125 50.015625 
Q 88.921875 44.046875 88.921875 33.015625 
L 88.921875 0 
L 79.890625 0 
L 79.890625 32.71875 
Q 79.890625 40.578125 77.09375 44.375 
Q 74.3125 48.1875 68.609375 48.1875 
Q 61.625 48.1875 57.5625 43.546875 
Q 53.515625 38.921875 53.515625 30.90625 
L 53.515625 0 
L 44.484375 0 
L 44.484375 32.71875 
Q 44.484375 40.625 41.703125 44.40625 
Q 38.921875 48.1875 33.109375 48.1875 
Q 26.21875 48.1875 22.15625 43.53125 
Q 18.109375 38.875 18.109375 30.90625 
L 18.109375 0 
L 9.078125 0 
L 9.078125 54.6875 
L 18.109375 54.6875 
L 18.109375 46.1875 
Q 21.1875 51.21875 25.484375 53.609375 
Q 29.78125 56 35.6875 56 
Q 41.65625 56 45.828125 52.96875 
Q 50 49.953125 52 44.1875 
z
" id="DejaVuSans-109"/>
      <path d="M 56.203125 29.59375 
L 56.203125 25.203125 
L 14.890625 25.203125 
Q 15.484375 15.921875 20.484375 11.0625 
Q 25.484375 6.203125 34.421875 6.203125 
Q 39.59375 6.203125 44.453125 7.46875 
Q 49.3125 8.734375 54.109375 11.28125 
L 54.109375 2.78125 
Q 49.265625 0.734375 44.1875 -0.34375 
Q 39.109375 -1.421875 33.890625 -1.421875 
Q 20.796875 -1.421875 13.15625 6.1875 
Q 5.515625 13.8125 5.515625 26.8125 
Q 5.515625 40.234375 12.765625 48.109375 
Q 20.015625 56 32.328125 56 
Q 43.359375 56 49.78125 48.890625 
Q 56.203125 41.796875 56.203125 29.59375 
z
M 47.21875 32.234375 
Q 47.125 39.59375 43.09375 43.984375 
Q 39.0625 48.390625 32.421875 48.390625 
Q 24.90625 48.390625 20.390625 44.140625 
Q 15.875 39.890625 15.1875 32.171875 
z
" id="DejaVuSans-101"/>
      <path id="DejaVuSans-32"/>
      <path d="M 31 75.875 
Q 24.46875 64.65625 21.28125 53.65625 
Q 18.109375 42.671875 18.109375 31.390625 
Q 18.109375 20.125 21.3125 9.0625 
Q 24.515625 -2 31 -13.1875 
L 23.1875 -13.1875 
Q 15.875 -1.703125 12.234375 9.375 
Q 8.59375 20.453125 8.59375 31.390625 
Q 8.59375 42.28125 12.203125 53.3125 
Q 15.828125 64.359375 23.1875 75.875 
z
" id="DejaVuSans-40"/>
      <path d="M 54.890625 33.015625 
L 54.890625 0 
L 45.90625 0 
L 45.90625 32.71875 
Q 45.90625 40.484375 42.875 44.328125 
Q 39.84375 48.1875 33.796875 48.1875 
Q 26.515625 48.1875 22.3125 43.546875 
Q 18.109375 38.921875 18.109375 30.90625 
L 18.109375 0 
L 9.078125 0 
L 9.078125 54.6875 
L 18.109375 54.6875 
L 18.109375 46.1875 
Q 21.34375 51.125 25.703125 53.5625 
Q 30.078125 56 35.796875 56 
Q 45.21875 56 50.046875 50.171875 
Q 54.890625 44.34375 54.890625 33.015625 
z
" id="DejaVuSans-110"/>
      <path d="M 8.015625 75.875 
L 15.828125 75.875 
Q 23.140625 64.359375 26.78125 53.3125 
Q 30.421875 42.28125 30.421875 31.390625 
Q 30.421875 20.453125 26.78125 9.375 
Q 23.140625 -1.703125 15.828125 -13.1875 
L 8.015625 -13.1875 
Q 14.5 -2 17.703125 9.0625 
Q 20.90625 20.125 20.90625 31.390625 
Q 20.90625 42.671875 17.703125 53.65625 
Q 14.5 64.65625 8.015625 75.875 
z
" id="DejaVuSans-41"/>
     </defs>
     <g transform="translate(209.007656 335.860562)scale(0.1 -0.1)">
      <use xlink:href="#DejaVuSans-84"/>
      <use x="57.958984" xlink:href="#DejaVuSans-105"/>
      <use x="85.742188" xlink:href="#DejaVuSans-109"/>
      <use x="183.154297" xlink:href="#DejaVuSans-101"/>
      <use x="244.677734" xlink:href="#DejaVuSans-32"/>
      <use x="276.464844" xlink:href="#DejaVuSans-40"/>
      <use x="315.478516" xlink:href="#DejaVuSans-109"/>
      <use x="412.890625" xlink:href="#DejaVuSans-105"/>
      <use x="440.673828" xlink:href="#DejaVuSans-110"/>
      <use x="504.052734" xlink:href="#DejaVuSans-41"/>
     </g>
    </g>
    <g id="text_10">
     <!-- 1e6 -->
     <g transform="translate(395.841875 334.860562)scale(0.1 -0.1)">
      <use xlink:href="#DejaVuSans-49"/>
      <use x="63.623047" xlink:href="#DejaVuSans-101"/>
      <use x="125.146484" xlink:href="#DejaVuSans-54"/>
     </g>
    </g>
   </g>
   <g id="matplotlib.axis_2">
    <g id="ytick_1">
     <g id="line2d_9">
      <defs>
       <path d="M 0 0 
L -3.5 0 
" id="m0c19a1bd18" style="stroke:#000000;stroke-width:0.8;"/>
      </defs>
      <g>
       <use style="stroke:#000000;stroke-width:0.8;" x="57.6" xlink:href="#m0c19a1bd18" y="306.944631"/>
      </g>
     </g>
     <g id="text_11">
      <!-- −400 -->
      <defs>
       <path d="M 10.59375 35.5 
L 73.1875 35.5 
L 73.1875 27.203125 
L 10.59375 27.203125 
z
" id="DejaVuSans-8722"/>
      </defs>
      <g transform="translate(23.132812 310.74385)scale(0.1 -0.1)">
       <use xlink:href="#DejaVuSans-8722"/>
       <use x="83.789062" xlink:href="#DejaVuSans-52"/>
       <use x="147.412109" xlink:href="#DejaVuSans-48"/>
       <use x="211.035156" xlink:href="#DejaVuSans-48"/>
      </g>
     </g>
    </g>
    <g id="ytick_2">
     <g id="line2d_10">
      <g>
       <use style="stroke:#000000;stroke-width:0.8;" x="57.6" xlink:href="#m0c19a1bd18" y="256.269305"/>
      </g>
     </g>
     <g id="text_12">
      <!-- −300 -->
      <defs>
       <path d="M 40.578125 39.3125 
Q 47.65625 37.796875 51.625 33 
Q 55.609375 28.21875 55.609375 21.1875 
Q 55.609375 10.40625 48.1875 4.484375 
Q 40.765625 -1.421875 27.09375 -1.421875 
Q 22.515625 -1.421875 17.65625 -0.515625 
Q 12.796875 0.390625 7.625 2.203125 
L 7.625 11.71875 
Q 11.71875 9.328125 16.59375 8.109375 
Q 21.484375 6.890625 26.8125 6.890625 
Q 36.078125 6.890625 40.9375 10.546875 
Q 45.796875 14.203125 45.796875 21.1875 
Q 45.796875 27.640625 41.28125 31.265625 
Q 36.765625 34.90625 28.71875 34.90625 
L 20.21875 34.90625 
L 20.21875 43.015625 
L 29.109375 43.015625 
Q 36.375 43.015625 40.234375 45.921875 
Q 44.09375 48.828125 44.09375 54.296875 
Q 44.09375 59.90625 40.109375 62.90625 
Q 36.140625 65.921875 28.71875 65.921875 
Q 24.65625 65.921875 20.015625 65.03125 
Q 15.375 64.15625 9.8125 62.3125 
L 9.8125 71.09375 
Q 15.4375 72.65625 20.34375 73.4375 
Q 25.25 74.21875 29.59375 74.21875 
Q 40.828125 74.21875 47.359375 69.109375 
Q 53.90625 64.015625 53.90625 55.328125 
Q 53.90625 49.265625 50.4375 45.09375 
Q 46.96875 40.921875 40.578125 39.3125 
z
" id="DejaVuSans-51"/>
      </defs>
      <g transform="translate(23.132812 260.068523)scale(0.1 -0.1)">
       <use xlink:href="#DejaVuSans-8722"/>
       <use x="83.789062" xlink:href="#DejaVuSans-51"/>
       <use x="147.412109" xlink:href="#DejaVuSans-48"/>
       <use x="211.035156" xlink:href="#DejaVuSans-48"/>
      </g>
     </g>
    </g>
    <g id="ytick_3">
     <g id="line2d_11">
      <g>
       <use style="stroke:#000000;stroke-width:0.8;" x="57.6" xlink:href="#m0c19a1bd18" y="205.593979"/>
      </g>
     </g>
     <g id="text_13">
      <!-- −200 -->
      <g transform="translate(23.132812 209.393197)scale(0.1 -0.1)">
       <use xlink:href="#DejaVuSans-8722"/>
       <use x="83.789062" xlink:href="#DejaVuSans-50"/>
       <use x="147.412109" xlink:href="#DejaVuSans-48"/>
       <use x="211.035156" xlink:href="#DejaVuSans-48"/>
      </g>
     </g>
    </g>
    <g id="ytick_4">
     <g id="line2d_12">
      <g>
       <use style="stroke:#000000;stroke-width:0.8;" x="57.6" xlink:href="#m0c19a1bd18" y="154.918652"/>
      </g>
     </g>
     <g id="text_14">
      <!-- −100 -->
      <g transform="translate(23.132812 158.717871)scale(0.1 -0.1)">
       <use xlink:href="#DejaVuSans-8722"/>
       <use x="83.789062" xlink:href="#DejaVuSans-49"/>
       <use x="147.412109" xlink:href="#DejaVuSans-48"/>
       <use x="211.035156" xlink:href="#DejaVuSans-48"/>
      </g>
     </g>
    </g>
    <g id="ytick_5">
     <g id="line2d_13">
      <g>
       <use style="stroke:#000000;stroke-width:0.8;" x="57.6" xlink:href="#m0c19a1bd18" y="104.243326"/>
      </g>
     </g>
     <g id="text_15">
      <!-- 0 -->
      <g transform="translate(44.2375 108.042545)scale(0.1 -0.1)">
       <use xlink:href="#DejaVuSans-48"/>
      </g>
     </g>
    </g>
    <g id="ytick_6">
     <g id="line2d_14">
      <g>
       <use style="stroke:#000000;stroke-width:0.8;" x="57.6" xlink:href="#m0c19a1bd18" y="53.568"/>
      </g>
     </g>
     <g id="text_16">
      <!-- 100 -->
      <g transform="translate(31.5125 57.367219)scale(0.1 -0.1)">
       <use xlink:href="#DejaVuSans-49"/>
       <use x="63.623047" xlink:href="#DejaVuSans-48"/>
       <use x="127.246094" xlink:href="#DejaVuSans-48"/>
      </g>
     </g>
    </g>
    <g id="text_17">
     <!-- Density -->
     <defs>
      <path d="M 19.671875 64.796875 
L 19.671875 8.109375 
L 31.59375 8.109375 
Q 46.6875 8.109375 53.6875 14.9375 
Q 60.6875 21.78125 60.6875 36.53125 
Q 60.6875 51.171875 53.6875 57.984375 
Q 46.6875 64.796875 31.59375 64.796875 
z
M 9.8125 72.90625 
L 30.078125 72.90625 
Q 51.265625 72.90625 61.171875 64.09375 
Q 71.09375 55.28125 71.09375 36.53125 
Q 71.09375 17.671875 61.125 8.828125 
Q 51.171875 0 30.078125 0 
L 9.8125 0 
z
" id="DejaVuSans-68"/>
      <path d="M 44.28125 53.078125 
L 44.28125 44.578125 
Q 40.484375 46.53125 36.375 47.5 
Q 32.28125 48.484375 27.875 48.484375 
Q 21.1875 48.484375 17.84375 46.4375 
Q 14.5 44.390625 14.5 40.28125 
Q 14.5 37.15625 16.890625 35.375 
Q 19.28125 33.59375 26.515625 31.984375 
L 29.59375 31.296875 
Q 39.15625 29.25 43.1875 25.515625 
Q 47.21875 21.78125 47.21875 15.09375 
Q 47.21875 7.46875 41.1875 3.015625 
Q 35.15625 -1.421875 24.609375 -1.421875 
Q 20.21875 -1.421875 15.453125 -0.5625 
Q 10.6875 0.296875 5.421875 2 
L 5.421875 11.28125 
Q 10.40625 8.6875 15.234375 7.390625 
Q 20.0625 6.109375 24.8125 6.109375 
Q 31.15625 6.109375 34.5625 8.28125 
Q 37.984375 10.453125 37.984375 14.40625 
Q 37.984375 18.0625 35.515625 20.015625 
Q 33.0625 21.96875 24.703125 23.78125 
L 21.578125 24.515625 
Q 13.234375 26.265625 9.515625 29.90625 
Q 5.8125 33.546875 5.8125 39.890625 
Q 5.8125 47.609375 11.28125 51.796875 
Q 16.75 56 26.8125 56 
Q 31.78125 56 36.171875 55.265625 
Q 40.578125 54.546875 44.28125 53.078125 
z
" id="DejaVuSans-115"/>
      <path d="M 18.3125 70.21875 
L 18.3125 54.6875 
L 36.8125 54.6875 
L 36.8125 47.703125 
L 18.3125 47.703125 
L 18.3125 18.015625 
Q 18.3125 11.328125 20.140625 9.421875 
Q 21.96875 7.515625 27.59375 7.515625 
L 36.8125 7.515625 
L 36.8125 0 
L 27.59375 0 
Q 17.1875 0 13.234375 3.875 
Q 9.28125 7.765625 9.28125 18.015625 
L 9.28125 47.703125 
L 2.6875 47.703125 
L 2.6875 54.6875 
L 9.28125 54.6875 
L 9.28125 70.21875 
z
" id="DejaVuSans-116"/>
      <path d="M 32.171875 -5.078125 
Q 28.375 -14.84375 24.75 -17.8125 
Q 21.140625 -20.796875 15.09375 -20.796875 
L 7.90625 -20.796875 
L 7.90625 -13.28125 
L 13.1875 -13.28125 
Q 16.890625 -13.28125 18.9375 -11.515625 
Q 21 -9.765625 23.484375 -3.21875 
L 25.09375 0.875 
L 2.984375 54.6875 
L 12.5 54.6875 
L 29.59375 11.921875 
L 46.6875 54.6875 
L 56.203125 54.6875 
z
" id="DejaVuSans-121"/>
     </defs>
     <g transform="translate(17.053125 193.536594)rotate(-90)scale(0.1 -0.1)">
      <use xlink:href="#DejaVuSans-68"/>
      <use x="77.001953" xlink:href="#DejaVuSans-101"/>
      <use x="138.525391" xlink:href="#DejaVuSans-110"/>
      <use x="201.904297" xlink:href="#DejaVuSans-115"/>
      <use x="254.003906" xlink:href="#DejaVuSans-105"/>
      <use x="281.787109" xlink:href="#DejaVuSans-116"/>
      <use x="320.996094" xlink:href="#DejaVuSans-121"/>
     </g>
    </g>
   </g>
   <g id="line2d_15">
    <path clip-path="url(#p918a4e1c27)" d="M 73.832727 104.243326 
L 398.487273 104.243326 
L 398.487273 104.243326 
" style="fill:none;stroke:#1f77b4;stroke-linecap:square;stroke-width:1.5;"/>
   </g>
   <g id="line2d_16">
    <path clip-path="url(#p918a4e1c27)" d="M 73.832727 104.243326 
L 398.487273 104.243326 
L 398.487273 104.243326 
" style="fill:none;stroke:#ff7f0e;stroke-linecap:square;stroke-width:1.5;"/>
   </g>
   <g id="line2d_17">
    <path clip-path="url(#p918a4e1c27)" d="M 73.832727 99.175794 
L 74.170923 99.183975 
L 102.985215 100.171962 
L 135.235577 101.050807 
L 142.283579 101.109344 
L 398.487273 101.109345 
L 398.487273 101.109345 
" style="fill:none;stroke:#2ca02c;stroke-linecap:square;stroke-width:1.5;"/>
   </g>
   <g id="line2d_18">
    <path clip-path="url(#p918a4e1c27)" d="M 73.832727 53.568 
L 73.859783 295.488 
L 73.954478 294.903455 
L 73.968006 295.188196 
L 74.008589 294.454039 
L 74.049173 294.953209 
L 74.143868 294.078249 
L 74.184451 294.242348 
L 74.197979 294.222195 
L 74.292674 293.353414 
L 74.333257 293.625291 
L 74.346785 293.798888 
L 74.373841 293.235037 
L 74.414424 293.363466 
L 74.739092 291.795248 
L 74.75262 291.907872 
L 74.766148 292.259124 
L 74.806731 291.34835 
L 74.847315 291.691078 
L 74.860843 291.654202 
L 74.955538 291.006174 
L 74.982593 291.206901 
L 75.171983 290.163844 
L 75.185511 290.269726 
L 75.199039 290.408414 
L 75.226094 289.932167 
L 75.280206 290.251264 
L 75.388428 289.365925 
L 75.415484 289.556243 
L 75.591346 288.531266 
L 75.604874 288.587407 
L 75.618402 288.827013 
L 75.658985 288.245768 
L 75.713097 288.632063 
L 75.807791 287.648529 
L 75.834847 287.919715 
L 75.848375 287.996893 
L 75.875431 287.635492 
L 75.956598 287.205258 
L 75.916014 287.820917 
L 75.983653 287.386462 
L 75.997181 287.403875 
L 76.105404 286.621846 
L 76.118932 286.708703 
L 76.132459 287.075085 
L 76.173043 286.155151 
L 76.213626 286.554838 
L 76.227154 286.514899 
L 76.321849 285.858919 
L 76.348905 286.023525 
L 76.375961 285.904881 
L 76.470655 285.230853 
L 76.430072 285.989627 
L 76.484183 285.394634 
L 76.497711 285.670401 
L 76.538295 285.004955 
L 76.578878 285.229999 
L 76.687101 284.470405 
L 76.700629 284.605782 
L 76.714156 284.762873 
L 76.75474 284.233247 
L 76.781796 284.391398 
L 77.174103 282.583362 
L 77.214686 282.772245 
L 77.228214 282.907646 
L 77.241742 282.30207 
L 77.295853 282.488718 
L 77.309381 282.518122 
L 77.404076 281.694736 
L 77.431132 282.134938 
L 77.539354 281.037806 
L 77.579938 281.459476 
L 77.593466 281.422347 
L 77.688161 280.781756 
L 77.715216 280.888215 
L 77.728744 280.900086 
L 77.742272 280.833517 
L 77.836967 280.082905 
L 77.796383 280.893842 
L 77.850495 280.272656 
L 77.864023 280.541986 
L 77.904606 279.916627 
L 77.94519 280.132316 
L 78.053412 279.30912 
L 78.06694 279.485174 
L 78.080468 279.645787 
L 78.121051 279.168931 
L 78.148107 279.27571 
L 78.175163 279.228818 
L 78.269858 278.604231 
L 78.296913 278.78871 
L 78.310441 278.814082 
L 78.418664 278.044209 
L 78.432192 278.174499 
L 78.445719 278.421461 
L 78.486303 277.782858 
L 78.526886 277.976903 
L 78.635109 277.255588 
L 78.648637 277.583718 
L 78.770388 276.608591 
L 78.810971 276.877343 
L 78.824499 276.850032 
L 78.905666 276.005007 
L 78.946249 276.405118 
L 78.959777 276.374423 
L 79.068 275.702699 
L 79.081528 275.805649 
L 79.095056 275.865442 
L 79.108583 275.806205 
L 79.203278 275.022248 
L 79.216806 275.204602 
L 79.230334 275.471512 
L 79.284445 274.902601 
L 79.311501 275.078942 
L 79.419724 274.21029 
L 79.446779 274.573365 
L 79.500891 274.120616 
L 79.541474 274.217251 
L 79.636169 273.586118 
L 79.663225 273.732215 
L 79.676753 273.839635 
L 79.717336 273.355497 
L 79.744392 273.497007 
L 79.852614 272.753461 
L 79.87967 272.977922 
L 79.893198 272.960068 
L 80.001421 272.212403 
L 80.014949 272.519118 
L 80.217866 271.465962 
L 80.231394 271.758323 
L 80.271977 271.055568 
L 80.312561 271.392356 
L 80.326089 271.371967 
L 80.434311 270.674073 
L 80.447839 270.774206 
L 80.461367 270.872014 
L 80.488423 270.408779 
L 80.529006 270.660794 
L 80.718396 269.527638 
L 80.731924 269.69561 
L 80.745452 269.92901 
L 80.786035 269.185799 
L 80.826619 269.592097 
L 80.921314 268.804848 
L 80.961897 268.986648 
L 80.975425 269.126887 
L 81.002481 268.633943 
L 81.043064 268.743083 
L 81.367732 267.231605 
L 81.394788 267.413388 
L 81.408316 267.577826 
L 81.448899 267.074937 
L 81.475955 267.160481 
L 82.084707 264.57061 
L 82.138819 264.791138 
L 82.233514 264.156601 
L 82.247042 264.237656 
L 82.260569 264.355818 
L 82.287625 263.934598 
L 82.341736 264.208006 
L 82.436431 263.354759 
L 82.463487 263.466727 
L 82.477015 263.776765 
L 82.517598 263.004229 
L 82.558182 263.254324 
L 82.57171 263.247063 
L 82.666404 262.554487 
L 82.706988 262.635779 
L 82.815211 262.131756 
L 82.774627 262.677138 
L 82.855794 262.220273 
L 82.950489 261.615796 
L 82.977545 261.745605 
L 82.991073 261.849981 
L 83.031656 261.373089 
L 83.058712 261.515373 
L 83.166934 260.804622 
L 83.19399 261.007757 
L 83.207518 260.992604 
L 83.302213 260.173313 
L 83.342796 260.43576 
L 83.356324 260.558651 
L 83.38338 260.083784 
L 83.423963 260.158326 
L 84.100355 257.46869 
L 84.127411 257.600359 
L 84.140939 257.816554 
L 84.181522 257.245581 
L 84.222106 257.374404 
L 84.330328 256.776023 
L 84.343856 256.863363 
L 84.357384 257.027137 
L 84.397967 256.455526 
L 84.425023 256.648148 
L 84.587357 255.898165 
L 84.614413 255.684722 
L 84.654996 255.904216 
L 84.763219 255.258078 
L 84.776747 255.333915 
L 84.790275 255.343513 
L 84.803803 255.29057 
L 84.898497 254.712474 
L 84.925553 254.841008 
L 84.939081 254.907323 
L 84.952609 254.420033 
L 84.993192 254.613835 
L 85.020248 254.348996 
L 85.033776 254.356553 
L 85.074359 254.491182 
L 85.182582 253.621807 
L 85.209638 254.018803 
L 85.250221 253.310569 
L 85.277277 253.629248 
L 85.601945 252.22044 
L 85.304333 253.635258 
L 85.642528 252.293743 
L 85.656056 252.447985 
L 85.69664 251.940102 
L 85.723695 252.241029 
L 85.831918 251.309169 
L 85.845446 251.469965 
L 85.858974 251.674258 
L 85.913085 251.18559 
L 85.940141 251.33539 
L 86.034836 250.647679 
L 86.075419 250.774119 
L 86.088947 250.94901 
L 86.129531 250.438365 
L 86.156586 250.56857 
L 88.794514 241.242283 
L 88.808042 241.299987 
L 88.82157 241.507381 
L 88.862153 240.969232 
L 88.902737 241.108714 
L 89.01096 240.503386 
L 89.024488 240.578464 
L 89.038015 240.685194 
L 89.078599 240.254412 
L 89.105655 240.367027 
L 89.349156 239.281232 
L 89.389739 239.358221 
L 89.403267 239.515283 
L 89.44385 239.032641 
L 89.470906 239.157506 
L 91.297164 232.695924 
L 91.337748 232.796377 
L 91.351275 232.917308 
L 91.391859 232.489079 
L 91.418915 232.57472 
L 92.027667 230.212046 
L 92.054723 230.377753 
L 92.068251 230.55699 
L 92.108834 230.020141 
L 92.13589 230.294966 
L 92.25764 229.603107 
L 92.271168 229.663659 
L 92.284696 229.792365 
L 92.32528 229.316196 
L 92.352335 229.427134 
L 92.365863 229.49786 
L 92.392919 229.120107 
L 92.419974 229.207609 
L 92.690531 228.170705 
L 92.704059 228.221378 
L 92.717587 228.364275 
L 92.75817 227.907533 
L 92.785226 228.027079 
L 95.423154 219.118835 
L 95.436682 219.211366 
L 95.45021 219.370072 
L 95.490793 218.913758 
L 95.531377 219.022783 
L 95.626072 218.357015 
L 95.666655 218.532057 
L 95.680183 218.603389 
L 95.707239 218.243415 
L 95.734294 218.319529 
L 96.140129 216.788196 
L 96.153657 216.860243 
L 96.167185 217.07773 
L 96.207769 216.49517 
L 96.248352 216.658198 
L 96.26188 216.665137 
L 96.356575 216.067518 
L 96.397158 216.17759 
L 96.789466 214.671738 
L 96.802993 214.775803 
L 96.816521 214.930732 
L 96.857105 214.503307 
L 96.897688 214.604541 
L 96.992383 213.976804 
L 97.032967 214.111629 
L 97.046495 214.206921 
L 97.087078 213.847472 
L 97.100606 213.89067 
L 97.127662 213.830454 
L 97.222356 213.354948 
L 97.249412 213.431979 
L 97.26294 213.46678 
L 97.371163 212.875146 
L 97.38469 212.944611 
L 97.398218 213.081252 
L 97.438802 212.64893 
L 97.465857 212.770392 
L 97.506441 212.381291 
L 97.560552 212.449029 
L 97.655247 211.976956 
L 97.682303 212.06155 
L 97.871693 211.270194 
L 97.898748 211.381939 
L 98.07461 210.740673 
L 98.223416 210.152203 
L 98.250472 210.226328 
L 98.291055 210.037641 
L 98.331639 210.077943 
L 98.439862 209.518861 
L 98.737474 208.488612 
L 98.751002 208.573274 
L 98.76453 208.712861 
L 98.805113 208.293507 
L 98.832169 208.40843 
L 98.859225 208.194571 
L 98.940392 207.778599 
L 98.899808 208.27391 
L 98.980975 207.911556 
L 98.994503 207.972707 
L 99.021559 207.63994 
L 99.035086 207.666191 
L 99.048614 207.699681 
L 99.07567 207.609567 
L 99.156837 207.054852 
L 99.19742 207.331253 
L 99.373282 206.581833 
L 99.522089 205.950122 
L 99.413866 206.691628 
L 99.535616 206.052055 
L 99.549144 206.172682 
L 99.603256 205.807009 
L 99.616783 205.878113 
L 99.630311 205.890849 
L 99.643839 205.782292 
L 100.753122 202.180559 
L 100.76665 202.220464 
L 100.780177 202.397604 
L 100.820761 201.86332 
L 100.861344 202.008852 
L 101.023678 201.479279 
L 101.104845 201.079773 
L 101.145429 201.245116 
L 101.267179 200.649386 
L 101.280707 200.677561 
L 101.294235 200.765175 
L 101.334819 200.412937 
L 101.361874 200.512858 
L 101.470097 199.880177 
L 101.497153 200.09283 
L 101.673015 199.284053 
L 101.70007 199.315503 
L 101.727126 199.429054 
L 101.740654 199.221043 
L 101.88946 198.580106 
L 101.916516 198.62605 
L 101.930043 198.778367 
L 101.984155 198.395239 
L 102.01121 198.461192 
L 102.187072 197.690338 
L 102.214128 197.884432 
L 102.241184 197.74971 
L 102.335879 197.299062 
L 102.362934 197.340535 
L 102.471157 196.88062 
L 102.633491 196.38728 
L 102.51174 196.997972 
L 102.647019 196.434337 
L 102.660547 196.53422 
L 102.70113 196.14345 
L 102.728186 196.272681 
L 102.917576 195.507146 
L 102.944631 195.576574 
L 102.971687 195.439023 
L 103.106965 195.026757 
L 103.282827 194.396962 
L 103.309883 194.438729 
L 103.323411 194.450759 
L 103.418105 193.902886 
L 103.458689 193.983209 
L 109.262131 176.488185 
L 109.275659 176.528172 
L 109.289186 176.601969 
L 109.32977 176.273711 
L 109.343298 176.37222 
L 109.695022 175.226192 
L 109.708549 175.262253 
L 109.722077 175.342062 
L 109.762661 175.025091 
L 109.789716 175.082529 
L 110.033217 174.33811 
L 110.114384 173.910546 
L 110.168496 173.94579 
L 110.411997 173.11 
L 110.425525 173.172888 
L 110.439053 173.181436 
L 110.466108 173.082969 
L 110.601387 172.657203 
L 111.250723 170.849024 
L 111.358945 170.45679 
L 111.372473 170.467843 
L 111.751253 169.404773 
L 111.845948 168.940506 
L 111.886531 168.996103 
L 111.900059 168.994488 
L 112.062393 168.369789 
L 112.102976 168.456892 
L 112.116504 168.310341 
L 112.427644 167.299548 
L 112.441172 167.347469 
L 112.4547 167.419632 
L 112.508812 167.13331 
L 112.522339 167.173073 
L 112.562923 167.009177 
L 112.725257 166.522831 
L 112.752313 166.527265 
L 112.76584 166.486314 
L 112.847007 166.077367 
L 112.901119 166.091617 
L 113.347537 164.812805 
L 113.482816 164.424767 
L 113.942762 163.010928 
L 113.969818 163.053676 
L 113.983346 163.086056 
L 113.996874 162.867433 
L 114.010401 162.888239 
L 114.57857 161.207145 
L 114.050985 162.901189 
L 114.619154 161.221457 
L 114.632682 161.249327 
L 114.64621 161.104211 
L 114.889711 160.404352 
L 114.903239 160.434856 
L 114.943822 160.268363 
L 115.160267 159.568559 
L 115.187323 159.645501 
L 115.227907 159.451416 
L 115.552575 158.600095 
L 115.566103 158.631542 
L 115.57963 158.436063 
L 115.593158 158.440515 
L 115.823131 157.784883 
L 115.620214 158.461774 
L 115.836659 157.813253 
L 115.863715 157.732758 
L 116.026049 157.229186 
L 116.675385 155.364929 
L 116.702441 155.3904 
L 116.715969 155.452232 
L 116.756552 155.164287 
L 116.783608 155.244058 
L 116.972998 154.578099 
L 117.000053 154.618015 
L 117.027109 154.470989 
L 117.257082 153.820017 
L 117.297666 153.78863 
L 117.46 153.229689 
L 117.527639 153.115929 
L 117.676445 152.707343 
L 117.825251 152.171954 
L 117.838779 152.208986 
L 117.879363 152.182395 
L 118.041697 151.614175 
L 118.109336 151.523417 
L 118.27167 151.011978 
L 118.298725 151.067726 
L 118.325781 150.918594 
L 118.474587 150.424791 
L 118.488115 150.444001 
L 118.501643 150.464987 
L 118.528699 150.426882 
L 118.704561 149.830515 
L 118.731616 149.888705 
L 118.758672 149.740178 
L 118.907478 149.232381 
L 118.934534 149.29129 
L 119.421536 147.877876 
L 119.435064 147.88543 
L 119.448592 147.94985 
L 119.489175 147.664777 
L 119.502703 147.694032 
L 119.516231 147.72968 
L 119.556814 147.528776 
L 120.260262 145.714544 
L 120.39554 145.330074 
L 123.046996 138.241745 
L 123.060524 138.265372 
L 123.08758 138.125774 
L 123.331081 137.494952 
L 123.439303 137.226222 
L 123.615165 136.739456 
L 123.791027 136.324523 
L 123.939833 135.879 
L 124.305085 134.948354 
L 124.467419 134.47601 
L 124.575642 134.278569 
L 124.751503 133.712296 
L 124.778559 133.730057 
L 125.197922 132.587923 
L 125.21145 132.614431 
L 125.238506 132.535143 
L 125.414367 132.029229 
L 125.454951 131.944468 
L 125.644341 131.460342 
L 125.874314 130.881583 
L 126.090759 130.315801 
L 129.066883 122.711741 
L 129.269801 122.209741 
L 131.556005 116.491329 
L 131.596589 116.396786 
L 131.853618 115.76119 
L 131.975368 115.44936 
L 132.218869 114.874212 
L 132.65176 113.798363 
L 133.111706 112.669236 
L 133.422847 111.899504 
L 133.896321 110.758802 
L 134.261572 109.865566 
L 137.77881 101.657369 
L 138.157589 101.65426 
L 138.617536 101.654638 
L 139.104538 101.651564 
L 139.659179 101.656886 
L 139.943264 101.652552 
L 140.267932 101.657401 
L 140.565544 101.657095 
L 141.647771 101.653619 
L 142.026551 101.652408 
L 143.541668 101.657321 
L 143.839281 101.657198 
L 144.745646 101.653231 
L 145.110897 101.657601 
L 145.435565 101.650978 
L 145.773761 101.655259 
L 146.139013 101.651892 
L 146.436625 101.651597 
L 146.991266 101.656913 
L 147.275351 101.652512 
L 147.600019 101.657417 
L 147.911159 101.655747 
L 148.235827 101.652643 
L 148.560495 101.657363 
L 148.858108 101.657147 
L 149.84564 101.651079 
L 150.15678 101.652912 
L 150.481448 101.65724 
L 150.765533 101.651987 
L 151.076673 101.654457 
L 151.563675 101.65706 
L 152.727069 101.651252 
L 153.024681 101.65247 
L 154.796828 101.657631 
L 155.256774 101.650997 
L 155.581443 101.657535 
L 156.136084 101.652949 
L 156.460752 101.657222 
L 156.744836 101.652018 
L 157.055977 101.654495 
L 157.556507 101.655732 
L 157.881175 101.652658 
L 158.205843 101.657356 
L 158.503455 101.657155 
L 159.490987 101.651085 
L 159.7886 101.65287 
L 185.532072 101.655814 
L 185.85674 101.652573 
L 186.181408 101.657392 
L 186.479021 101.657108 
L 187.561248 101.653642 
L 187.940027 101.652386 
L 189.373978 101.655294 
L 189.739229 101.651864 
L 190.036842 101.651626 
L 190.632067 101.657543 
L 190.956735 101.650963 
L 191.294931 101.65502 
L 191.700766 101.65118 
L 191.998378 101.652621 
L 194.744529 101.654222 
L 195.366809 101.651171 
L 195.664422 101.652642 
L 198.627018 101.655063 
L 199.032853 101.651162 
L 199.330465 101.652664 
L 202.509507 101.655837 
L 202.834175 101.652549 
L 203.158843 101.657402 
L 203.456456 101.657094 
L 204.538682 101.653615 
L 204.917462 101.652411 
L 206.473163 101.65767 
L 206.838415 101.652148 
L 207.825947 101.657674 
L 208.204726 101.653593 
L 208.583506 101.652431 
L 210.193318 101.654766 
L 210.653264 101.655605 
L 211.586685 101.656132 
L 211.897825 101.653639 
L 212.952997 101.650967 
L 213.291193 101.655147 
L 213.697028 101.651128 
L 213.99464 101.652749 
L 219.054051 101.654294 
L 219.635748 101.652015 
L 219.946888 101.654492 
L 220.447418 101.655735 
L 220.772086 101.652655 
L 221.096754 101.657358 
L 221.394367 101.657153 
L 222.381899 101.651084 
L 222.679511 101.652874 
L 251.872582 101.655082 
L 252.278417 101.651154 
L 252.576029 101.652683 
L 256.106795 101.654742 
L 256.566741 101.655626 
L 257.540745 101.657076 
L 257.82483 101.652258 
L 258.149498 101.657511 
L 258.474166 101.650967 
L 258.798834 101.657463 
L 259.394059 101.651569 
L 259.691671 101.651967 
L 260.503342 101.657674 
L 260.922705 101.651938 
L 261.220317 101.651552 
L 261.774958 101.656877 
L 262.059043 101.652566 
L 262.383711 101.657396 
L 262.681323 101.657103 
L 263.76355 101.653634 
L 264.14233 101.652394 
L 265.616864 101.656494 
L 265.900948 101.653106 
L 266.252672 101.654291 
L 266.712618 101.654582 
L 267.213148 101.654433 
L 267.700151 101.657048 
L 268.904128 101.650988 
L 269.26938 101.656471 
L 306.295068 101.655728 
L 306.619736 101.652663 
L 306.944404 101.657354 
L 307.242016 101.657158 
L 308.229548 101.651086 
L 308.527161 101.652865 
L 330.60459 101.65579 
L 330.929258 101.652598 
L 331.253926 101.657382 
L 331.551538 101.657122 
L 332.593182 101.65507 
L 333.22899 101.653162 
L 336.083363 101.654468 
L 336.570366 101.657067 
L 337.73376 101.651258 
L 338.031372 101.652459 
L 339.722351 101.65706 
L 340.006436 101.652284 
L 340.331104 101.657502 
L 340.655772 101.650969 
L 340.98044 101.657472 
L 341.575665 101.651589 
L 341.873277 101.651941 
L 342.644364 101.657483 
L 342.969032 101.650975 
L 343.2937 101.657491 
L 343.888925 101.651629 
L 344.186537 101.651889 
L 344.917041 101.656768 
L 345.201125 101.652726 
L 345.525793 101.657327 
L 345.823406 101.657191 
L 346.729771 101.653216 
L 347.095022 101.657604 
L 347.41969 101.65098 
L 347.757886 101.655274 
L 348.123138 101.65188 
L 348.42075 101.651609 
L 348.975392 101.656922 
L 349.259476 101.652498 
L 349.584144 101.657423 
L 349.895284 101.655761 
L 350.219952 101.652629 
L 350.544621 101.657369 
L 350.842233 101.657139 
L 351.843293 101.656326 
L 356.307479 101.656948 
L 356.591563 101.652459 
L 356.916232 101.657438 
L 357.2409 101.650994 
L 357.565568 101.657531 
L 358.120209 101.652934 
L 358.444877 101.65723 
L 358.728962 101.652005 
L 359.040102 101.65448 
L 359.540632 101.655746 
L 359.8653 101.652644 
L 360.189968 101.657362 
L 360.48758 101.657147 
L 361.475112 101.65108 
L 361.786253 101.652913 
L 362.110921 101.65724 
L 362.395005 101.651988 
L 362.706145 101.654458 
L 363.193148 101.657061 
L 364.356542 101.651253 
L 364.654154 101.652468 
L 366.399245 101.652766 
L 372.067408 101.65534 
L 372.43266 101.651827 
L 372.730272 101.651664 
L 373.325497 101.657556 
L 373.650165 101.650964 
L 373.988361 101.655068 
L 374.394196 101.65116 
L 374.691809 101.652669 
L 378.006128 101.653894 
L 378.804271 101.651691 
L 379.101883 101.651815 
L 379.791803 101.655588 
L 380.143527 101.65444 
L 380.68464 101.653164 
L 381.049892 101.657614 
L 381.388088 101.655491 
L 382.240341 101.653537 
L 383.430791 101.651778 
L 383.728403 101.651716 
L 384.364212 101.657648 
L 384.797102 101.657111 
L 385.838746 101.65505 
L 386.461026 101.65766 
L 386.826278 101.652045 
L 387.692059 101.655288 
L 388.057311 101.651869 
L 388.354923 101.65162 
L 388.950148 101.657542 
L 389.274816 101.650963 
L 389.613012 101.655014 
L 390.018847 101.651183 
L 390.31646 101.652615 
L 392.927332 101.656104 
L 393.238472 101.653604 
L 394.347755 101.654344 
L 394.807701 101.654528 
L 395.308231 101.654487 
L 395.808761 101.65574 
L 396.133429 101.65265 
L 396.458097 101.65736 
L 396.75571 101.657151 
L 397.743242 101.651082 
L 398.054382 101.65292 
L 398.37905 101.657237 
L 398.487273 101.651561 
L 398.487273 101.651561 
" style="fill:none;stroke:#d62728;stroke-linecap:square;stroke-width:1.5;"/>
   </g>
   <g id="line2d_19">
    <path clip-path="url(#p918a4e1c27)" d="M 73.832727 104.243326 
L 398.487273 104.243326 
L 398.487273 104.243326 
" style="fill:none;stroke:#9467bd;stroke-linecap:square;stroke-width:1.5;"/>
   </g>
   <g id="patch_3">
    <path d="M 57.6 307.584 
L 57.6 41.472 
" style="fill:none;stroke:#000000;stroke-linecap:square;stroke-linejoin:miter;stroke-width:0.8;"/>
   </g>
   <g id="patch_4">
    <path d="M 414.72 307.584 
L 414.72 41.472 
" style="fill:none;stroke:#000000;stroke-linecap:square;stroke-linejoin:miter;stroke-width:0.8;"/>
   </g>
   <g id="patch_5">
    <path d="M 57.6 307.584 
L 414.72 307.584 
" style="fill:none;stroke:#000000;stroke-linecap:square;stroke-linejoin:miter;stroke-width:0.8;"/>
   </g>
   <g id="patch_6">
    <path d="M 57.6 41.472 
L 414.72 41.472 
" style="fill:none;stroke:#000000;stroke-linecap:square;stroke-linejoin:miter;stroke-width:0.8;"/>
   </g>
   <g id="legend_1">
    <g id="patch_7">
     <path d="M 356.516875 302.584 
L 407.72 302.584 
Q 409.72 302.584 409.72 300.584 
L 409.72 228.193375 
Q 409.72 226.193375 407.72 226.193375 
L 356.516875 226.193375 
Q 354.516875 226.193375 354.516875 228.193375 
L 354.516875 300.584 
Q 354.516875 302.584 356.516875 302.584 
z
" style="fill:#ffffff;opacity:0.8;stroke:#cccccc;stroke-linejoin:miter;"/>
    </g>
    <g id="line2d_20">
     <path d="M 358.516875 234.291812 
L 378.516875 234.291812 
" style="fill:none;stroke:#1f77b4;stroke-linecap:square;stroke-width:1.5;"/>
    </g>
    <g id="line2d_21"/>
    <g id="text_18">
     <!-- T+ -->
     <defs>
      <path d="M 46 62.703125 
L 46 35.5 
L 73.1875 35.5 
L 73.1875 27.203125 
L 46 27.203125 
L 46 0 
L 37.796875 0 
L 37.796875 27.203125 
L 10.59375 27.203125 
L 10.59375 35.5 
L 37.796875 35.5 
L 37.796875 62.703125 
z
" id="DejaVuSans-43"/>
     </defs>
     <g transform="translate(386.516875 237.791812)scale(0.1 -0.1)">
      <use xlink:href="#DejaVuSans-84"/>
      <use x="61.083984" xlink:href="#DejaVuSans-43"/>
     </g>
    </g>
    <g id="line2d_22">
     <path d="M 358.516875 248.969937 
L 378.516875 248.969937 
" style="fill:none;stroke:#ff7f0e;stroke-linecap:square;stroke-width:1.5;"/>
    </g>
    <g id="line2d_23"/>
    <g id="text_19">
     <!-- Tp -->
     <defs>
      <path d="M 18.109375 8.203125 
L 18.109375 -20.796875 
L 9.078125 -20.796875 
L 9.078125 54.6875 
L 18.109375 54.6875 
L 18.109375 46.390625 
Q 20.953125 51.265625 25.265625 53.625 
Q 29.59375 56 35.59375 56 
Q 45.5625 56 51.78125 48.09375 
Q 58.015625 40.1875 58.015625 27.296875 
Q 58.015625 14.40625 51.78125 6.484375 
Q 45.5625 -1.421875 35.59375 -1.421875 
Q 29.59375 -1.421875 25.265625 0.953125 
Q 20.953125 3.328125 18.109375 8.203125 
z
M 48.6875 27.296875 
Q 48.6875 37.203125 44.609375 42.84375 
Q 40.53125 48.484375 33.40625 48.484375 
Q 26.265625 48.484375 22.1875 42.84375 
Q 18.109375 37.203125 18.109375 27.296875 
Q 18.109375 17.390625 22.1875 11.75 
Q 26.265625 6.109375 33.40625 6.109375 
Q 40.53125 6.109375 44.609375 11.75 
Q 48.6875 17.390625 48.6875 27.296875 
z
" id="DejaVuSans-112"/>
     </defs>
     <g transform="translate(386.516875 252.469937)scale(0.1 -0.1)">
      <use xlink:href="#DejaVuSans-84"/>
      <use x="61.083984" xlink:href="#DejaVuSans-112"/>
     </g>
    </g>
    <g id="line2d_24">
     <path d="M 358.516875 263.648062 
L 378.516875 263.648062 
" style="fill:none;stroke:#2ca02c;stroke-linecap:square;stroke-width:1.5;"/>
    </g>
    <g id="line2d_25"/>
    <g id="text_20">
     <!-- T- -->
     <defs>
      <path d="M 4.890625 31.390625 
L 31.203125 31.390625 
L 31.203125 23.390625 
L 4.890625 23.390625 
z
" id="DejaVuSans-45"/>
     </defs>
     <g transform="translate(386.516875 267.148062)scale(0.1 -0.1)">
      <use xlink:href="#DejaVuSans-84"/>
      <use x="51.958984" xlink:href="#DejaVuSans-45"/>
     </g>
    </g>
    <g id="line2d_26">
     <path d="M 358.516875 278.326188 
L 378.516875 278.326188 
" style="fill:none;stroke:#d62728;stroke-linecap:square;stroke-width:1.5;"/>
    </g>
    <g id="line2d_27"/>
    <g id="text_21">
     <!-- O2 -->
     <defs>
      <path d="M 39.40625 66.21875 
Q 28.65625 66.21875 22.328125 58.203125 
Q 16.015625 50.203125 16.015625 36.375 
Q 16.015625 22.609375 22.328125 14.59375 
Q 28.65625 6.59375 39.40625 6.59375 
Q 50.140625 6.59375 56.421875 14.59375 
Q 62.703125 22.609375 62.703125 36.375 
Q 62.703125 50.203125 56.421875 58.203125 
Q 50.140625 66.21875 39.40625 66.21875 
z
M 39.40625 74.21875 
Q 54.734375 74.21875 63.90625 63.9375 
Q 73.09375 53.65625 73.09375 36.375 
Q 73.09375 19.140625 63.90625 8.859375 
Q 54.734375 -1.421875 39.40625 -1.421875 
Q 24.03125 -1.421875 14.8125 8.828125 
Q 5.609375 19.09375 5.609375 36.375 
Q 5.609375 53.65625 14.8125 63.9375 
Q 24.03125 74.21875 39.40625 74.21875 
z
" id="DejaVuSans-79"/>
     </defs>
     <g transform="translate(386.516875 281.826188)scale(0.1 -0.1)">
      <use xlink:href="#DejaVuSans-79"/>
      <use x="78.710938" xlink:href="#DejaVuSans-50"/>
     </g>
    </g>
    <g id="line2d_28">
     <path d="M 358.516875 293.004312 
L 378.516875 293.004312 
" style="fill:none;stroke:#9467bd;stroke-linecap:square;stroke-width:1.5;"/>
    </g>
    <g id="line2d_29"/>
    <g id="text_22">
     <!-- test -->
     <g transform="translate(386.516875 296.504312)scale(0.1 -0.1)">
      <use xlink:href="#DejaVuSans-116"/>
      <use x="39.208984" xlink:href="#DejaVuSans-101"/>
      <use x="100.732422" xlink:href="#DejaVuSans-115"/>
      <use x="152.832031" xlink:href="#DejaVuSans-116"/>
     </g>
    </g>
   </g>
  </g>
 </g>
 <defs>
  <clipPath id="p918a4e1c27">
   <rect height="266.112" width="357.12" x="57.6" y="41.472"/>
  </clipPath>
 </defs>
</svg>
