<?xml version="1.0" encoding="utf-8" standalone="no"?>
<!DOCTYPE svg PUBLIC "-//W3C//DTD SVG 1.1//EN"
  "http://www.w3.org/Graphics/SVG/1.1/DTD/svg11.dtd">
<!-- Created with matplotlib (https://matplotlib.org/) -->
<svg height="345.6pt" version="1.1" viewBox="0 0 460.8 345.6" width="460.8pt" xmlns="http://www.w3.org/2000/svg" xmlns:xlink="http://www.w3.org/1999/xlink">
 <defs>
  <style type="text/css">
*{stroke-linecap:butt;stroke-linejoin:round;}
  </style>
 </defs>
 <g id="figure_1">
  <g id="patch_1">
   <path d="M 0 345.6 
L 460.8 345.6 
L 460.8 0 
L 0 0 
z
" style="fill:#ffffff;"/>
  </g>
  <g id="axes_1">
   <g id="patch_2">
    <path d="M 57.6 307.584 
L 414.72 307.584 
L 414.72 41.472 
L 57.6 41.472 
z
" style="fill:#ffffff;"/>
   </g>
   <g id="matplotlib.axis_1">
    <g id="xtick_1">
     <g id="line2d_1">
      <defs>
       <path d="M 0 0 
L 0 3.5 
" id="m68cd44b4da" style="stroke:#000000;stroke-width:0.8;"/>
      </defs>
      <g>
       <use style="stroke:#000000;stroke-width:0.8;" x="73.832727" xlink:href="#m68cd44b4da" y="307.584"/>
      </g>
     </g>
     <g id="text_1">
      <!-- 0.0 -->
      <defs>
       <path d="M 31.78125 66.40625 
Q 24.171875 66.40625 20.328125 58.90625 
Q 16.5 51.421875 16.5 36.375 
Q 16.5 21.390625 20.328125 13.890625 
Q 24.171875 6.390625 31.78125 6.390625 
Q 39.453125 6.390625 43.28125 13.890625 
Q 47.125 21.390625 47.125 36.375 
Q 47.125 51.421875 43.28125 58.90625 
Q 39.453125 66.40625 31.78125 66.40625 
z
M 31.78125 74.21875 
Q 44.046875 74.21875 50.515625 64.515625 
Q 56.984375 54.828125 56.984375 36.375 
Q 56.984375 17.96875 50.515625 8.265625 
Q 44.046875 -1.421875 31.78125 -1.421875 
Q 19.53125 -1.421875 13.0625 8.265625 
Q 6.59375 17.96875 6.59375 36.375 
Q 6.59375 54.828125 13.0625 64.515625 
Q 19.53125 74.21875 31.78125 74.21875 
z
" id="DejaVuSans-48"/>
       <path d="M 10.6875 12.40625 
L 21 12.40625 
L 21 0 
L 10.6875 0 
z
" id="DejaVuSans-46"/>
      </defs>
      <g transform="translate(65.881165 322.182437)scale(0.1 -0.1)">
       <use xlink:href="#DejaVuSans-48"/>
       <use x="63.623047" xlink:href="#DejaVuSans-46"/>
       <use x="95.410156" xlink:href="#DejaVuSans-48"/>
      </g>
     </g>
    </g>
    <g id="xtick_2">
     <g id="line2d_2">
      <g>
       <use style="stroke:#000000;stroke-width:0.8;" x="118.925515" xlink:href="#m68cd44b4da" y="307.584"/>
      </g>
     </g>
     <g id="text_2">
      <!-- 0.2 -->
      <defs>
       <path d="M 19.1875 8.296875 
L 53.609375 8.296875 
L 53.609375 0 
L 7.328125 0 
L 7.328125 8.296875 
Q 12.9375 14.109375 22.625 23.890625 
Q 32.328125 33.6875 34.8125 36.53125 
Q 39.546875 41.84375 41.421875 45.53125 
Q 43.3125 49.21875 43.3125 52.78125 
Q 43.3125 58.59375 39.234375 62.25 
Q 35.15625 65.921875 28.609375 65.921875 
Q 23.96875 65.921875 18.8125 64.3125 
Q 13.671875 62.703125 7.8125 59.421875 
L 7.8125 69.390625 
Q 13.765625 71.78125 18.9375 73 
Q 24.125 74.21875 28.421875 74.21875 
Q 39.75 74.21875 46.484375 68.546875 
Q 53.21875 62.890625 53.21875 53.421875 
Q 53.21875 48.921875 51.53125 44.890625 
Q 49.859375 40.875 45.40625 35.40625 
Q 44.1875 33.984375 37.640625 27.21875 
Q 31.109375 20.453125 19.1875 8.296875 
z
" id="DejaVuSans-50"/>
      </defs>
      <g transform="translate(110.973953 322.182437)scale(0.1 -0.1)">
       <use xlink:href="#DejaVuSans-48"/>
       <use x="63.623047" xlink:href="#DejaVuSans-46"/>
       <use x="95.410156" xlink:href="#DejaVuSans-50"/>
      </g>
     </g>
    </g>
    <g id="xtick_3">
     <g id="line2d_3">
      <g>
       <use style="stroke:#000000;stroke-width:0.8;" x="164.018303" xlink:href="#m68cd44b4da" y="307.584"/>
      </g>
     </g>
     <g id="text_3">
      <!-- 0.4 -->
      <defs>
       <path d="M 37.796875 64.3125 
L 12.890625 25.390625 
L 37.796875 25.390625 
z
M 35.203125 72.90625 
L 47.609375 72.90625 
L 47.609375 25.390625 
L 58.015625 25.390625 
L 58.015625 17.1875 
L 47.609375 17.1875 
L 47.609375 0 
L 37.796875 0 
L 37.796875 17.1875 
L 4.890625 17.1875 
L 4.890625 26.703125 
z
" id="DejaVuSans-52"/>
      </defs>
      <g transform="translate(156.066741 322.182437)scale(0.1 -0.1)">
       <use xlink:href="#DejaVuSans-48"/>
       <use x="63.623047" xlink:href="#DejaVuSans-46"/>
       <use x="95.410156" xlink:href="#DejaVuSans-52"/>
      </g>
     </g>
    </g>
    <g id="xtick_4">
     <g id="line2d_4">
      <g>
       <use style="stroke:#000000;stroke-width:0.8;" x="209.111091" xlink:href="#m68cd44b4da" y="307.584"/>
      </g>
     </g>
     <g id="text_4">
      <!-- 0.6 -->
      <defs>
       <path d="M 33.015625 40.375 
Q 26.375 40.375 22.484375 35.828125 
Q 18.609375 31.296875 18.609375 23.390625 
Q 18.609375 15.53125 22.484375 10.953125 
Q 26.375 6.390625 33.015625 6.390625 
Q 39.65625 6.390625 43.53125 10.953125 
Q 47.40625 15.53125 47.40625 23.390625 
Q 47.40625 31.296875 43.53125 35.828125 
Q 39.65625 40.375 33.015625 40.375 
z
M 52.59375 71.296875 
L 52.59375 62.3125 
Q 48.875 64.0625 45.09375 64.984375 
Q 41.3125 65.921875 37.59375 65.921875 
Q 27.828125 65.921875 22.671875 59.328125 
Q 17.53125 52.734375 16.796875 39.40625 
Q 19.671875 43.65625 24.015625 45.921875 
Q 28.375 48.1875 33.59375 48.1875 
Q 44.578125 48.1875 50.953125 41.515625 
Q 57.328125 34.859375 57.328125 23.390625 
Q 57.328125 12.15625 50.6875 5.359375 
Q 44.046875 -1.421875 33.015625 -1.421875 
Q 20.359375 -1.421875 13.671875 8.265625 
Q 6.984375 17.96875 6.984375 36.375 
Q 6.984375 53.65625 15.1875 63.9375 
Q 23.390625 74.21875 37.203125 74.21875 
Q 40.921875 74.21875 44.703125 73.484375 
Q 48.484375 72.75 52.59375 71.296875 
z
" id="DejaVuSans-54"/>
      </defs>
      <g transform="translate(201.159529 322.182437)scale(0.1 -0.1)">
       <use xlink:href="#DejaVuSans-48"/>
       <use x="63.623047" xlink:href="#DejaVuSans-46"/>
       <use x="95.410156" xlink:href="#DejaVuSans-54"/>
      </g>
     </g>
    </g>
    <g id="xtick_5">
     <g id="line2d_5">
      <g>
       <use style="stroke:#000000;stroke-width:0.8;" x="254.203879" xlink:href="#m68cd44b4da" y="307.584"/>
      </g>
     </g>
     <g id="text_5">
      <!-- 0.8 -->
      <defs>
       <path d="M 31.78125 34.625 
Q 24.75 34.625 20.71875 30.859375 
Q 16.703125 27.09375 16.703125 20.515625 
Q 16.703125 13.921875 20.71875 10.15625 
Q 24.75 6.390625 31.78125 6.390625 
Q 38.8125 6.390625 42.859375 10.171875 
Q 46.921875 13.96875 46.921875 20.515625 
Q 46.921875 27.09375 42.890625 30.859375 
Q 38.875 34.625 31.78125 34.625 
z
M 21.921875 38.8125 
Q 15.578125 40.375 12.03125 44.71875 
Q 8.5 49.078125 8.5 55.328125 
Q 8.5 64.0625 14.71875 69.140625 
Q 20.953125 74.21875 31.78125 74.21875 
Q 42.671875 74.21875 48.875 69.140625 
Q 55.078125 64.0625 55.078125 55.328125 
Q 55.078125 49.078125 51.53125 44.71875 
Q 48 40.375 41.703125 38.8125 
Q 48.828125 37.15625 52.796875 32.3125 
Q 56.78125 27.484375 56.78125 20.515625 
Q 56.78125 9.90625 50.3125 4.234375 
Q 43.84375 -1.421875 31.78125 -1.421875 
Q 19.734375 -1.421875 13.25 4.234375 
Q 6.78125 9.90625 6.78125 20.515625 
Q 6.78125 27.484375 10.78125 32.3125 
Q 14.796875 37.15625 21.921875 38.8125 
z
M 18.3125 54.390625 
Q 18.3125 48.734375 21.84375 45.5625 
Q 25.390625 42.390625 31.78125 42.390625 
Q 38.140625 42.390625 41.71875 45.5625 
Q 45.3125 48.734375 45.3125 54.390625 
Q 45.3125 60.0625 41.71875 63.234375 
Q 38.140625 66.40625 31.78125 66.40625 
Q 25.390625 66.40625 21.84375 63.234375 
Q 18.3125 60.0625 18.3125 54.390625 
z
" id="DejaVuSans-56"/>
      </defs>
      <g transform="translate(246.252317 322.182437)scale(0.1 -0.1)">
       <use xlink:href="#DejaVuSans-48"/>
       <use x="63.623047" xlink:href="#DejaVuSans-46"/>
       <use x="95.410156" xlink:href="#DejaVuSans-56"/>
      </g>
     </g>
    </g>
    <g id="xtick_6">
     <g id="line2d_6">
      <g>
       <use style="stroke:#000000;stroke-width:0.8;" x="299.296667" xlink:href="#m68cd44b4da" y="307.584"/>
      </g>
     </g>
     <g id="text_6">
      <!-- 1.0 -->
      <defs>
       <path d="M 12.40625 8.296875 
L 28.515625 8.296875 
L 28.515625 63.921875 
L 10.984375 60.40625 
L 10.984375 69.390625 
L 28.421875 72.90625 
L 38.28125 72.90625 
L 38.28125 8.296875 
L 54.390625 8.296875 
L 54.390625 0 
L 12.40625 0 
z
" id="DejaVuSans-49"/>
      </defs>
      <g transform="translate(291.345105 322.182437)scale(0.1 -0.1)">
       <use xlink:href="#DejaVuSans-49"/>
       <use x="63.623047" xlink:href="#DejaVuSans-46"/>
       <use x="95.410156" xlink:href="#DejaVuSans-48"/>
      </g>
     </g>
    </g>
    <g id="xtick_7">
     <g id="line2d_7">
      <g>
       <use style="stroke:#000000;stroke-width:0.8;" x="344.389455" xlink:href="#m68cd44b4da" y="307.584"/>
      </g>
     </g>
     <g id="text_7">
      <!-- 1.2 -->
      <g transform="translate(336.437893 322.182437)scale(0.1 -0.1)">
       <use xlink:href="#DejaVuSans-49"/>
       <use x="63.623047" xlink:href="#DejaVuSans-46"/>
       <use x="95.410156" xlink:href="#DejaVuSans-50"/>
      </g>
     </g>
    </g>
    <g id="xtick_8">
     <g id="line2d_8">
      <g>
       <use style="stroke:#000000;stroke-width:0.8;" x="389.482243" xlink:href="#m68cd44b4da" y="307.584"/>
      </g>
     </g>
     <g id="text_8">
      <!-- 1.4 -->
      <g transform="translate(381.53068 322.182437)scale(0.1 -0.1)">
       <use xlink:href="#DejaVuSans-49"/>
       <use x="63.623047" xlink:href="#DejaVuSans-46"/>
       <use x="95.410156" xlink:href="#DejaVuSans-52"/>
      </g>
     </g>
    </g>
    <g id="text_9">
     <!-- Time (min) -->
     <defs>
      <path d="M -0.296875 72.90625 
L 61.375 72.90625 
L 61.375 64.59375 
L 35.5 64.59375 
L 35.5 0 
L 25.59375 0 
L 25.59375 64.59375 
L -0.296875 64.59375 
z
" id="DejaVuSans-84"/>
      <path d="M 9.421875 54.6875 
L 18.40625 54.6875 
L 18.40625 0 
L 9.421875 0 
z
M 9.421875 75.984375 
L 18.40625 75.984375 
L 18.40625 64.59375 
L 9.421875 64.59375 
z
" id="DejaVuSans-105"/>
      <path d="M 52 44.1875 
Q 55.375 50.25 60.0625 53.125 
Q 64.75 56 71.09375 56 
Q 79.640625 56 84.28125 50.015625 
Q 88.921875 44.046875 88.921875 33.015625 
L 88.921875 0 
L 79.890625 0 
L 79.890625 32.71875 
Q 79.890625 40.578125 77.09375 44.375 
Q 74.3125 48.1875 68.609375 48.1875 
Q 61.625 48.1875 57.5625 43.546875 
Q 53.515625 38.921875 53.515625 30.90625 
L 53.515625 0 
L 44.484375 0 
L 44.484375 32.71875 
Q 44.484375 40.625 41.703125 44.40625 
Q 38.921875 48.1875 33.109375 48.1875 
Q 26.21875 48.1875 22.15625 43.53125 
Q 18.109375 38.875 18.109375 30.90625 
L 18.109375 0 
L 9.078125 0 
L 9.078125 54.6875 
L 18.109375 54.6875 
L 18.109375 46.1875 
Q 21.1875 51.21875 25.484375 53.609375 
Q 29.78125 56 35.6875 56 
Q 41.65625 56 45.828125 52.96875 
Q 50 49.953125 52 44.1875 
z
" id="DejaVuSans-109"/>
      <path d="M 56.203125 29.59375 
L 56.203125 25.203125 
L 14.890625 25.203125 
Q 15.484375 15.921875 20.484375 11.0625 
Q 25.484375 6.203125 34.421875 6.203125 
Q 39.59375 6.203125 44.453125 7.46875 
Q 49.3125 8.734375 54.109375 11.28125 
L 54.109375 2.78125 
Q 49.265625 0.734375 44.1875 -0.34375 
Q 39.109375 -1.421875 33.890625 -1.421875 
Q 20.796875 -1.421875 13.15625 6.1875 
Q 5.515625 13.8125 5.515625 26.8125 
Q 5.515625 40.234375 12.765625 48.109375 
Q 20.015625 56 32.328125 56 
Q 43.359375 56 49.78125 48.890625 
Q 56.203125 41.796875 56.203125 29.59375 
z
M 47.21875 32.234375 
Q 47.125 39.59375 43.09375 43.984375 
Q 39.0625 48.390625 32.421875 48.390625 
Q 24.90625 48.390625 20.390625 44.140625 
Q 15.875 39.890625 15.1875 32.171875 
z
" id="DejaVuSans-101"/>
      <path id="DejaVuSans-32"/>
      <path d="M 31 75.875 
Q 24.46875 64.65625 21.28125 53.65625 
Q 18.109375 42.671875 18.109375 31.390625 
Q 18.109375 20.125 21.3125 9.0625 
Q 24.515625 -2 31 -13.1875 
L 23.1875 -13.1875 
Q 15.875 -1.703125 12.234375 9.375 
Q 8.59375 20.453125 8.59375 31.390625 
Q 8.59375 42.28125 12.203125 53.3125 
Q 15.828125 64.359375 23.1875 75.875 
z
" id="DejaVuSans-40"/>
      <path d="M 54.890625 33.015625 
L 54.890625 0 
L 45.90625 0 
L 45.90625 32.71875 
Q 45.90625 40.484375 42.875 44.328125 
Q 39.84375 48.1875 33.796875 48.1875 
Q 26.515625 48.1875 22.3125 43.546875 
Q 18.109375 38.921875 18.109375 30.90625 
L 18.109375 0 
L 9.078125 0 
L 9.078125 54.6875 
L 18.109375 54.6875 
L 18.109375 46.1875 
Q 21.34375 51.125 25.703125 53.5625 
Q 30.078125 56 35.796875 56 
Q 45.21875 56 50.046875 50.171875 
Q 54.890625 44.34375 54.890625 33.015625 
z
" id="DejaVuSans-110"/>
      <path d="M 8.015625 75.875 
L 15.828125 75.875 
Q 23.140625 64.359375 26.78125 53.3125 
Q 30.421875 42.28125 30.421875 31.390625 
Q 30.421875 20.453125 26.78125 9.375 
Q 23.140625 -1.703125 15.828125 -13.1875 
L 8.015625 -13.1875 
Q 14.5 -2 17.703125 9.0625 
Q 20.90625 20.125 20.90625 31.390625 
Q 20.90625 42.671875 17.703125 53.65625 
Q 14.5 64.65625 8.015625 75.875 
z
" id="DejaVuSans-41"/>
     </defs>
     <g transform="translate(209.007656 335.860562)scale(0.1 -0.1)">
      <use xlink:href="#DejaVuSans-84"/>
      <use x="57.958984" xlink:href="#DejaVuSans-105"/>
      <use x="85.742188" xlink:href="#DejaVuSans-109"/>
      <use x="183.154297" xlink:href="#DejaVuSans-101"/>
      <use x="244.677734" xlink:href="#DejaVuSans-32"/>
      <use x="276.464844" xlink:href="#DejaVuSans-40"/>
      <use x="315.478516" xlink:href="#DejaVuSans-109"/>
      <use x="412.890625" xlink:href="#DejaVuSans-105"/>
      <use x="440.673828" xlink:href="#DejaVuSans-110"/>
      <use x="504.052734" xlink:href="#DejaVuSans-41"/>
     </g>
    </g>
    <g id="text_10">
     <!-- 1e6 -->
     <g transform="translate(395.841875 334.860562)scale(0.1 -0.1)">
      <use xlink:href="#DejaVuSans-49"/>
      <use x="63.623047" xlink:href="#DejaVuSans-101"/>
      <use x="125.146484" xlink:href="#DejaVuSans-54"/>
     </g>
    </g>
   </g>
   <g id="matplotlib.axis_2">
    <g id="ytick_1">
     <g id="line2d_9">
      <defs>
       <path d="M 0 0 
L -3.5 0 
" id="m16601125ee" style="stroke:#000000;stroke-width:0.8;"/>
      </defs>
      <g>
       <use style="stroke:#000000;stroke-width:0.8;" x="57.6" xlink:href="#m16601125ee" y="283.081086"/>
      </g>
     </g>
     <g id="text_11">
      <!-- −150 -->
      <defs>
       <path d="M 10.59375 35.5 
L 73.1875 35.5 
L 73.1875 27.203125 
L 10.59375 27.203125 
z
" id="DejaVuSans-8722"/>
       <path d="M 10.796875 72.90625 
L 49.515625 72.90625 
L 49.515625 64.59375 
L 19.828125 64.59375 
L 19.828125 46.734375 
Q 21.96875 47.46875 24.109375 47.828125 
Q 26.265625 48.1875 28.421875 48.1875 
Q 40.625 48.1875 47.75 41.5 
Q 54.890625 34.8125 54.890625 23.390625 
Q 54.890625 11.625 47.5625 5.09375 
Q 40.234375 -1.421875 26.90625 -1.421875 
Q 22.3125 -1.421875 17.546875 -0.640625 
Q 12.796875 0.140625 7.71875 1.703125 
L 7.71875 11.625 
Q 12.109375 9.234375 16.796875 8.0625 
Q 21.484375 6.890625 26.703125 6.890625 
Q 35.15625 6.890625 40.078125 11.328125 
Q 45.015625 15.765625 45.015625 23.390625 
Q 45.015625 31 40.078125 35.4375 
Q 35.15625 39.890625 26.703125 39.890625 
Q 22.75 39.890625 18.8125 39.015625 
Q 14.890625 38.140625 10.796875 36.28125 
z
" id="DejaVuSans-53"/>
      </defs>
      <g transform="translate(23.132812 286.880305)scale(0.1 -0.1)">
       <use xlink:href="#DejaVuSans-8722"/>
       <use x="83.789062" xlink:href="#DejaVuSans-49"/>
       <use x="147.412109" xlink:href="#DejaVuSans-53"/>
       <use x="211.035156" xlink:href="#DejaVuSans-48"/>
      </g>
     </g>
    </g>
    <g id="ytick_2">
     <g id="line2d_10">
      <g>
       <use style="stroke:#000000;stroke-width:0.8;" x="57.6" xlink:href="#m16601125ee" y="237.178469"/>
      </g>
     </g>
     <g id="text_12">
      <!-- −100 -->
      <g transform="translate(23.132812 240.977688)scale(0.1 -0.1)">
       <use xlink:href="#DejaVuSans-8722"/>
       <use x="83.789062" xlink:href="#DejaVuSans-49"/>
       <use x="147.412109" xlink:href="#DejaVuSans-48"/>
       <use x="211.035156" xlink:href="#DejaVuSans-48"/>
      </g>
     </g>
    </g>
    <g id="ytick_3">
     <g id="line2d_11">
      <g>
       <use style="stroke:#000000;stroke-width:0.8;" x="57.6" xlink:href="#m16601125ee" y="191.275852"/>
      </g>
     </g>
     <g id="text_13">
      <!-- −50 -->
      <g transform="translate(29.495313 195.07507)scale(0.1 -0.1)">
       <use xlink:href="#DejaVuSans-8722"/>
       <use x="83.789062" xlink:href="#DejaVuSans-53"/>
       <use x="147.412109" xlink:href="#DejaVuSans-48"/>
      </g>
     </g>
    </g>
    <g id="ytick_4">
     <g id="line2d_12">
      <g>
       <use style="stroke:#000000;stroke-width:0.8;" x="57.6" xlink:href="#m16601125ee" y="145.373234"/>
      </g>
     </g>
     <g id="text_14">
      <!-- 0 -->
      <g transform="translate(44.2375 149.172453)scale(0.1 -0.1)">
       <use xlink:href="#DejaVuSans-48"/>
      </g>
     </g>
    </g>
    <g id="ytick_5">
     <g id="line2d_13">
      <g>
       <use style="stroke:#000000;stroke-width:0.8;" x="57.6" xlink:href="#m16601125ee" y="99.470617"/>
      </g>
     </g>
     <g id="text_15">
      <!-- 50 -->
      <g transform="translate(37.875 103.269836)scale(0.1 -0.1)">
       <use xlink:href="#DejaVuSans-53"/>
       <use x="63.623047" xlink:href="#DejaVuSans-48"/>
      </g>
     </g>
    </g>
    <g id="ytick_6">
     <g id="line2d_14">
      <g>
       <use style="stroke:#000000;stroke-width:0.8;" x="57.6" xlink:href="#m16601125ee" y="53.568"/>
      </g>
     </g>
     <g id="text_16">
      <!-- 100 -->
      <g transform="translate(31.5125 57.367219)scale(0.1 -0.1)">
       <use xlink:href="#DejaVuSans-49"/>
       <use x="63.623047" xlink:href="#DejaVuSans-48"/>
       <use x="127.246094" xlink:href="#DejaVuSans-48"/>
      </g>
     </g>
    </g>
    <g id="text_17">
     <!-- Density -->
     <defs>
      <path d="M 19.671875 64.796875 
L 19.671875 8.109375 
L 31.59375 8.109375 
Q 46.6875 8.109375 53.6875 14.9375 
Q 60.6875 21.78125 60.6875 36.53125 
Q 60.6875 51.171875 53.6875 57.984375 
Q 46.6875 64.796875 31.59375 64.796875 
z
M 9.8125 72.90625 
L 30.078125 72.90625 
Q 51.265625 72.90625 61.171875 64.09375 
Q 71.09375 55.28125 71.09375 36.53125 
Q 71.09375 17.671875 61.125 8.828125 
Q 51.171875 0 30.078125 0 
L 9.8125 0 
z
" id="DejaVuSans-68"/>
      <path d="M 44.28125 53.078125 
L 44.28125 44.578125 
Q 40.484375 46.53125 36.375 47.5 
Q 32.28125 48.484375 27.875 48.484375 
Q 21.1875 48.484375 17.84375 46.4375 
Q 14.5 44.390625 14.5 40.28125 
Q 14.5 37.15625 16.890625 35.375 
Q 19.28125 33.59375 26.515625 31.984375 
L 29.59375 31.296875 
Q 39.15625 29.25 43.1875 25.515625 
Q 47.21875 21.78125 47.21875 15.09375 
Q 47.21875 7.46875 41.1875 3.015625 
Q 35.15625 -1.421875 24.609375 -1.421875 
Q 20.21875 -1.421875 15.453125 -0.5625 
Q 10.6875 0.296875 5.421875 2 
L 5.421875 11.28125 
Q 10.40625 8.6875 15.234375 7.390625 
Q 20.0625 6.109375 24.8125 6.109375 
Q 31.15625 6.109375 34.5625 8.28125 
Q 37.984375 10.453125 37.984375 14.40625 
Q 37.984375 18.0625 35.515625 20.015625 
Q 33.0625 21.96875 24.703125 23.78125 
L 21.578125 24.515625 
Q 13.234375 26.265625 9.515625 29.90625 
Q 5.8125 33.546875 5.8125 39.890625 
Q 5.8125 47.609375 11.28125 51.796875 
Q 16.75 56 26.8125 56 
Q 31.78125 56 36.171875 55.265625 
Q 40.578125 54.546875 44.28125 53.078125 
z
" id="DejaVuSans-115"/>
      <path d="M 18.3125 70.21875 
L 18.3125 54.6875 
L 36.8125 54.6875 
L 36.8125 47.703125 
L 18.3125 47.703125 
L 18.3125 18.015625 
Q 18.3125 11.328125 20.140625 9.421875 
Q 21.96875 7.515625 27.59375 7.515625 
L 36.8125 7.515625 
L 36.8125 0 
L 27.59375 0 
Q 17.1875 0 13.234375 3.875 
Q 9.28125 7.765625 9.28125 18.015625 
L 9.28125 47.703125 
L 2.6875 47.703125 
L 2.6875 54.6875 
L 9.28125 54.6875 
L 9.28125 70.21875 
z
" id="DejaVuSans-116"/>
      <path d="M 32.171875 -5.078125 
Q 28.375 -14.84375 24.75 -17.8125 
Q 21.140625 -20.796875 15.09375 -20.796875 
L 7.90625 -20.796875 
L 7.90625 -13.28125 
L 13.1875 -13.28125 
Q 16.890625 -13.28125 18.9375 -11.515625 
Q 21 -9.765625 23.484375 -3.21875 
L 25.09375 0.875 
L 2.984375 54.6875 
L 12.5 54.6875 
L 29.59375 11.921875 
L 46.6875 54.6875 
L 56.203125 54.6875 
z
" id="DejaVuSans-121"/>
     </defs>
     <g transform="translate(17.053125 193.536594)rotate(-90)scale(0.1 -0.1)">
      <use xlink:href="#DejaVuSans-68"/>
      <use x="77.001953" xlink:href="#DejaVuSans-101"/>
      <use x="138.525391" xlink:href="#DejaVuSans-110"/>
      <use x="201.904297" xlink:href="#DejaVuSans-115"/>
      <use x="254.003906" xlink:href="#DejaVuSans-105"/>
      <use x="281.787109" xlink:href="#DejaVuSans-116"/>
      <use x="320.996094" xlink:href="#DejaVuSans-121"/>
     </g>
    </g>
   </g>
   <g id="line2d_15">
    <path clip-path="url(#p4c00e981d2)" d="M 73.832727 145.373234 
L 398.487273 145.373234 
L 398.487273 145.373234 
" style="fill:none;stroke:#1f77b4;stroke-linecap:square;stroke-width:1.5;"/>
   </g>
   <g id="line2d_16">
    <path clip-path="url(#p4c00e981d2)" d="M 73.832727 145.373234 
L 398.487273 145.373234 
L 398.487273 145.373234 
" style="fill:none;stroke:#ff7f0e;stroke-linecap:square;stroke-width:1.5;"/>
   </g>
   <g id="line2d_17">
    <path clip-path="url(#p4c00e981d2)" d="M 73.832727 136.192711 
L 74.008589 136.192979 
L 95.220237 137.549836 
L 100.157897 137.729807 
L 398.487273 137.72981 
L 398.487273 137.72981 
" style="fill:none;stroke:#2ca02c;stroke-linecap:square;stroke-width:1.5;"/>
   </g>
   <g id="line2d_18">
    <path clip-path="url(#p4c00e981d2)" d="M 73.832727 53.568 
L 73.859783 295.488 
L 73.954478 294.628203 
L 73.968006 294.865401 
L 74.022117 294.117524 
L 74.035645 294.292208 
L 74.603814 290.136873 
L 74.617342 290.172006 
L 74.63087 290.306954 
L 74.671453 289.637143 
L 74.698509 289.712964 
L 74.712037 289.623089 
L 74.806731 288.546784 
L 74.847315 288.645616 
L 74.860843 288.641129 
L 75.023177 287.036199 
L 75.06376 287.249694 
L 75.090816 286.843911 
L 75.25315 285.698698 
L 75.266678 285.729277 
L 75.280206 285.840443 
L 75.307261 285.394147 
L 75.469595 284.206 
L 75.483123 284.285778 
L 75.523707 283.895964 
L 75.686041 282.743183 
L 75.699569 282.763124 
L 75.726624 282.632388 
L 75.875431 281.297134 
L 75.929542 281.270627 
L 76.105404 279.878787 
L 85.913085 215.433884 
L 76.132459 279.897321 
L 85.926613 215.441225 
L 85.940141 215.473333 
L 85.967197 215.256664 
L 86.129531 214.145959 
L 86.332448 212.926826 
L 86.50831 211.790606 
L 86.521838 211.814102 
L 86.535366 211.624573 
L 88.997432 196.241886 
L 89.254461 194.724737 
L 90.120242 189.365871 
L 90.201409 188.887714 
L 90.688411 185.863627 
L 90.701939 185.861884 
L 91.053663 183.669089 
L 92.75817 173.349237 
L 93.069311 171.469937 
L 93.393979 169.54601 
L 94.300344 164.141801 
L 95.991323 154.173482 
L 96.640659 150.363097 
L 98.412806 140.675081 
L 98.615724 140.68859 
L 98.872752 140.685448 
L 101.118373 140.687724 
L 101.280707 140.676481 
L 101.483625 140.687984 
L 101.781237 140.687828 
L 102.105905 140.678768 
L 102.295295 140.681802 
L 102.538796 140.683713 
L 102.849936 140.678079 
L 103.025798 140.680833 
L 114.416236 140.686544 
L 114.605626 140.683808 
L 114.889711 140.687114 
L 115.403768 140.680532 
L 115.606686 140.687423 
L 115.782548 140.686421 
L 116.89183 140.678954 
L 117.08122 140.682017 
L 117.351777 140.688671 
L 117.554694 140.677271 
L 117.798196 140.688588 
L 118.014641 140.684294 
L 118.555754 140.681477 
L 119.800315 140.682329 
L 120.070872 140.688705 
L 120.27379 140.677051 
L 120.490235 140.683692 
L 120.801375 140.678095 
L 120.977237 140.680811 
L 129.499774 140.686632 
L 129.675636 140.687247 
L 130.14911 140.677788 
L 130.324972 140.681231 
L 132.502954 140.684799 
L 133.260513 140.687209 
L 133.436374 140.686679 
L 134.207461 140.677025 
L 134.383323 140.682466 
L 134.883853 140.682207 
L 135.15441 140.688693 
L 135.357327 140.677135 
L 135.573773 140.683811 
L 135.857857 140.687112 
L 136.371915 140.680529 
L 136.574832 140.687425 
L 136.750694 140.68642 
L 137.859977 140.678952 
L 138.049367 140.682014 
L 138.319923 140.688671 
L 138.522841 140.677273 
L 138.766342 140.688587 
L 138.982787 140.684292 
L 139.523901 140.68148 
L 140.768462 140.682327 
L 141.039018 140.688705 
L 141.241936 140.677053 
L 141.458381 140.683694 
L 141.769522 140.678093 
L 141.945383 140.680814 
L 150.724949 140.68847 
L 150.900811 140.684358 
L 151.46898 140.688647 
L 151.644842 140.683559 
L 152.037149 140.682099 
L 152.645902 140.679143 
L 152.84882 140.688142 
L 153.024681 140.685241 
L 154.377465 140.687313 
L 154.553327 140.686558 
L 155.47322 140.676853 
L 155.649082 140.68281 
L 156.068445 140.676578 
L 156.244307 140.683484 
L 156.555447 140.678262 
L 156.731309 140.680595 
L 159.179847 140.688286 
L 159.355709 140.684903 
L 160.22149 140.688602 
L 160.397352 140.683813 
L 160.816715 140.688698 
L 160.992577 140.683159 
L 161.344301 140.685668 
L 161.547218 140.679228 
L 161.750136 140.688104 
L 161.925998 140.685323 
L 163.53581 140.688661 
L 163.711672 140.683464 
L 164.063396 140.685404 
L 164.266314 140.679514 
L 164.469231 140.68797 
L 164.631565 140.676677 
L 164.834483 140.687741 
L 165.159151 140.678617 
L 165.34854 140.681625 
L 165.592041 140.683884 
L 165.862598 140.676364 
L 166.03846 140.684366 
L 166.281961 140.683927 
L 166.741908 140.687563 
L 166.917769 140.686237 
L 168.473471 140.678319 
L 168.649333 140.680523 
L 170.651452 140.688065 
L 170.827314 140.685404 
L 172.775323 140.687589 
L 172.937657 140.676415 
L 173.140574 140.688093 
L 173.424659 140.676863 
L 173.600521 140.682788 
L 174.019884 140.676585 
L 174.195745 140.683462 
L 174.506886 140.67828 
L 174.682748 140.680573 
L 176.98248 140.688217 
L 177.158342 140.685071 
L 178.213513 140.687227 
L 178.389375 140.686658 
L 179.201045 140.679557 
L 179.403962 140.687949 
L 179.566296 140.676656 
L 179.769214 140.687764 
L 180.093882 140.678656 
L 180.283272 140.681671 
L 180.526773 140.68384 
L 180.79733 140.67637 
L 180.973191 140.684322 
L 181.216693 140.68397 
L 181.676639 140.687537 
L 181.852501 140.686272 
L 183.299979 140.681647 
L 183.54348 140.683863 
L 183.814037 140.676366 
L 183.989899 140.684345 
L 184.2334 140.683947 
L 184.693346 140.687551 
L 184.869208 140.686253 
L 186.384326 140.676457 
L 186.560188 140.683887 
L 186.830745 140.676363 
L 187.006606 140.684368 
L 187.250108 140.683924 
L 187.710054 140.687564 
L 187.885916 140.686235 
L 189.441617 140.678317 
L 189.617479 140.680526 
L 191.619599 140.688066 
L 191.795461 140.685401 
L 193.743469 140.687591 
L 193.905803 140.676416 
L 194.108721 140.688092 
L 194.392805 140.676862 
L 194.568667 140.682791 
L 194.98803 140.676585 
L 195.163892 140.683465 
L 195.475032 140.678277 
L 195.650894 140.680575 
L 197.950626 140.688218 
L 198.126488 140.685069 
L 199.181659 140.687229 
L 199.357521 140.686656 
L 200.169191 140.679555 
L 200.372109 140.687951 
L 200.534443 140.676657 
L 200.73736 140.687762 
L 201.062028 140.678654 
L 201.251418 140.681668 
L 201.494919 140.683842 
L 201.765476 140.676369 
L 201.941338 140.684325 
L 202.184839 140.683968 
L 202.644785 140.687538 
L 202.820647 140.68627 
L 204.268126 140.681644 
L 204.511627 140.683866 
L 204.782184 140.676366 
L 204.958045 140.684348 
L 205.201546 140.683945 
L 205.661493 140.687552 
L 205.837355 140.686251 
L 207.352472 140.676457 
L 207.528334 140.683889 
L 207.798891 140.676363 
L 207.974753 140.684371 
L 208.218254 140.683922 
L 208.6782 140.687565 
L 208.854062 140.686233 
L 210.409763 140.678315 
L 210.585625 140.680528 
L 212.587745 140.688067 
L 212.763607 140.685399 
L 214.671032 140.688692 
L 214.846894 140.683223 
L 215.198618 140.685613 
L 215.401535 140.679288 
L 215.604453 140.688077 
L 215.780314 140.685378 
L 217.579517 140.687513 
L 217.755379 140.686305 
L 219.12169 140.676522 
L 219.297552 140.683657 
L 219.608692 140.678123 
L 219.784554 140.680775 
L 225.736802 140.686938 
L 225.912664 140.686965 
L 226.494361 140.676351 
L 226.670223 140.685118 
L 226.87314 140.679822 
L 227.076058 140.687816 
L 227.238392 140.676542 
L 227.441309 140.6879 
L 227.765978 140.6789 
L 227.955367 140.681954 
L 228.198868 140.683564 
L 228.510009 140.678198 
L 228.68587 140.680677 
L 232.067829 140.687187 
L 232.243691 140.686704 
L 233.014778 140.677044 
L 233.19064 140.68243 
L 233.69117 140.682243 
L 233.961727 140.688697 
L 234.164644 140.67711 
L 234.38109 140.683776 
L 234.665174 140.687134 
L 235.179232 140.680564 
L 235.382149 140.687404 
L 235.558011 140.686446 
L 236.62671 140.67671 
L 236.802572 140.683135 
L 237.154296 140.681712 
L 237.397797 140.6838 
L 237.681882 140.687119 
L 238.195939 140.68054 
L 238.398857 140.687419 
L 238.574719 140.686428 
L 239.684001 140.678962 
L 239.873391 140.682025 
L 240.143948 140.688672 
L 240.346865 140.677265 
L 240.590366 140.68859 
L 240.806812 140.684302 
L 241.347925 140.681468 
L 242.63307 140.685477 
L 245.027497 140.687805 
L 245.189831 140.676534 
L 245.392748 140.68791 
L 245.717416 140.678919 
L 245.906806 140.681976 
L 246.150307 140.683542 
L 246.461447 140.678215 
L 246.637309 140.680655 
L 249.681072 140.688504 
L 249.856934 140.684234 
L 250.357464 140.684842 
L 250.587438 140.678422 
L 250.912106 140.687746 
L 251.07444 140.676494 
L 251.277357 140.687965 
L 251.588497 140.68292 
L 251.980805 140.685126 
L 253.144199 140.688617 
L 253.32006 140.683732 
L 253.739423 140.688706 
L 253.915285 140.683077 
L 254.226425 140.687921 
L 254.38876 140.676628 
L 254.591677 140.687795 
L 254.916345 140.67871 
L 255.105735 140.681734 
L 255.349236 140.683779 
L 255.63332 140.687133 
L 256.147378 140.680562 
L 256.350296 140.687406 
L 256.526158 140.686444 
L 257.594857 140.676709 
L 257.770719 140.683138 
L 258.122442 140.681709 
L 258.365943 140.683802 
L 258.650028 140.687117 
L 259.164086 140.680538 
L 259.367003 140.68742 
L 259.542865 140.686426 
L 260.652148 140.67896 
L 260.841537 140.682023 
L 261.112094 140.688672 
L 261.315012 140.677267 
L 261.558513 140.688589 
L 261.774958 140.6843 
L 262.316072 140.681471 
L 263.601216 140.685475 
L 265.995643 140.687807 
L 266.157977 140.676535 
L 266.360895 140.687909 
L 266.685563 140.678917 
L 266.874953 140.681974 
L 267.118454 140.683545 
L 267.429594 140.678213 
L 267.605456 140.680658 
L 270.689802 140.686958 
L 270.865664 140.686946 
L 271.460889 140.686478 
L 272.461949 140.68243 
L 272.732506 140.688713 
L 272.935423 140.676983 
L 273.151869 140.683593 
L 273.463009 140.678174 
L 273.638871 140.680708 
L 277.575471 140.688693 
L 277.751333 140.683216 
L 278.103057 140.68562 
L 278.305974 140.67928 
L 278.508892 140.68808 
L 278.684754 140.685372 
L 280.483956 140.687517 
L 280.659818 140.686299 
L 282.026129 140.676519 
L 282.201991 140.683665 
L 282.513131 140.678117 
L 282.688993 140.680783 
L 289.08766 140.687265 
L 289.263522 140.686614 
L 290.115775 140.682787 
L 290.426916 140.688051 
L 290.58925 140.676769 
L 290.792167 140.687645 
L 291.157419 140.681609 
L 291.40092 140.6839 
L 291.671477 140.676362 
L 291.847338 140.684381 
L 292.09084 140.683911 
L 292.550786 140.687571 
L 292.726648 140.686225 
L 294.322933 140.681416 
L 294.566434 140.684085 
L 294.83699 140.676343 
L 295.012852 140.684561 
L 295.256353 140.683727 
L 295.675716 140.688706 
L 295.851578 140.683072 
L 296.162718 140.687923 
L 296.325052 140.676631 
L 296.52797 140.687792 
L 296.852638 140.678705 
L 297.042028 140.681729 
L 297.285529 140.683784 
L 297.569613 140.687129 
L 298.083671 140.680556 
L 298.286589 140.687409 
L 298.46245 140.68644 
L 299.53115 140.676706 
L 299.707011 140.683143 
L 300.058735 140.681704 
L 300.302236 140.683808 
L 300.586321 140.687114 
L 301.100379 140.680532 
L 301.303296 140.687423 
L 301.479158 140.686422 
L 302.588441 140.678955 
L 302.77783 140.682017 
L 303.048387 140.688671 
L 303.251305 140.677271 
L 303.494806 140.688588 
L 303.711251 140.684295 
L 304.252364 140.681476 
L 305.496925 140.68233 
L 305.767482 140.688705 
L 305.9704 140.67705 
L 306.186845 140.683691 
L 306.497985 140.678096 
L 306.673847 140.68081 
L 315.047578 140.68651 
L 315.236968 140.683763 
L 315.521052 140.687143 
L 316.03511 140.680578 
L 316.238027 140.687396 
L 316.413889 140.686456 
L 317.482588 140.676715 
L 317.65845 140.683121 
L 318.010174 140.681726 
L 318.253675 140.683786 
L 318.53776 140.687128 
L 319.051817 140.680554 
L 319.254735 140.68741 
L 319.430597 140.686438 
L 320.499296 140.676705 
L 320.675158 140.683146 
L 321.026882 140.681702 
L 321.270383 140.68381 
L 321.554467 140.687112 
L 322.068525 140.68053 
L 322.271443 140.687425 
L 322.447304 140.68642 
L 323.556587 140.678953 
L 323.745977 140.682015 
L 324.016533 140.688671 
L 324.219451 140.677273 
L 324.462952 140.688588 
L 324.679397 140.684293 
L 325.220511 140.681479 
L 326.465072 140.682327 
L 326.735629 140.688705 
L 326.938546 140.677052 
L 327.154991 140.683694 
L 327.466132 140.678094 
L 327.641994 140.680813 
L 336.313337 140.686752 
L 336.489199 140.687141 
L 337.003256 140.680575 
L 337.206174 140.687398 
L 337.382036 140.686454 
L 338.450735 140.676714 
L 338.626597 140.683124 
L 338.97832 140.681723 
L 339.221822 140.683789 
L 339.505906 140.687126 
L 340.019964 140.680551 
L 340.222881 140.687412 
L 340.398743 140.686436 
L 341.467442 140.676704 
L 341.643304 140.683149 
L 341.995028 140.681699 
L 342.238529 140.683813 
L 342.522614 140.687111 
L 343.036671 140.680527 
L 343.239589 140.687426 
L 343.415451 140.686418 
L 344.524733 140.67895 
L 344.714123 140.682012 
L 344.98468 140.68867 
L 345.187597 140.677275 
L 345.431098 140.688587 
L 345.647544 140.68429 
L 346.188657 140.681482 
L 347.433218 140.682325 
L 347.703775 140.688704 
L 347.906692 140.677054 
L 348.123138 140.683696 
L 348.434278 140.678092 
L 348.61014 140.680816 
L 357.579095 140.686981 
L 357.754957 140.686922 
L 358.377238 140.67733 
L 358.5531 140.681929 
L 359.270075 140.676786 
L 359.445937 140.682958 
L 359.824716 140.677006 
L 360.041162 140.683627 
L 360.352302 140.678147 
L 360.528164 140.680744 
L 365.289962 140.685925 
L 365.49288 140.678948 
L 365.682269 140.682009 
L 365.952826 140.68867 
L 366.155744 140.677277 
L 366.399245 140.688586 
L 366.61569 140.684288 
L 367.156804 140.681485 
L 368.401365 140.682322 
L 368.671921 140.688704 
L 368.874839 140.677056 
L 369.091284 140.683699 
L 369.402424 140.67809 
L 369.578286 140.680818 
L 378.844854 140.687198 
L 379.020716 140.686691 
L 379.791803 140.677034 
L 379.967665 140.682448 
L 380.468195 140.682224 
L 380.738751 140.688695 
L 380.941669 140.677123 
L 381.158114 140.683794 
L 381.442199 140.687123 
L 381.956257 140.680546 
L 382.159174 140.687415 
L 382.335036 140.686432 
L 383.403735 140.676702 
L 383.579597 140.683154 
L 383.931321 140.681694 
L 384.174822 140.683818 
L 384.458906 140.687107 
L 384.972964 140.680522 
L 385.175882 140.687429 
L 385.351744 140.686414 
L 386.461026 140.678946 
L 386.650416 140.682007 
L 386.920973 140.68867 
L 387.12389 140.677279 
L 387.367391 140.688586 
L 387.583837 140.684285 
L 388.12495 140.681487 
L 389.369511 140.682319 
L 389.640068 140.688704 
L 389.842985 140.677058 
L 390.059431 140.683702 
L 390.370571 140.678088 
L 390.546433 140.680821 
L 398.487273 140.676654 
L 398.487273 140.676654 
" style="fill:none;stroke:#d62728;stroke-linecap:square;stroke-width:1.5;"/>
   </g>
   <g id="line2d_19">
    <path clip-path="url(#p4c00e981d2)" d="M 73.832727 145.373234 
L 398.487273 145.373234 
L 398.487273 145.373234 
" style="fill:none;stroke:#9467bd;stroke-linecap:square;stroke-width:1.5;"/>
   </g>
   <g id="patch_3">
    <path d="M 57.6 307.584 
L 57.6 41.472 
" style="fill:none;stroke:#000000;stroke-linecap:square;stroke-linejoin:miter;stroke-width:0.8;"/>
   </g>
   <g id="patch_4">
    <path d="M 414.72 307.584 
L 414.72 41.472 
" style="fill:none;stroke:#000000;stroke-linecap:square;stroke-linejoin:miter;stroke-width:0.8;"/>
   </g>
   <g id="patch_5">
    <path d="M 57.6 307.584 
L 414.72 307.584 
" style="fill:none;stroke:#000000;stroke-linecap:square;stroke-linejoin:miter;stroke-width:0.8;"/>
   </g>
   <g id="patch_6">
    <path d="M 57.6 41.472 
L 414.72 41.472 
" style="fill:none;stroke:#000000;stroke-linecap:square;stroke-linejoin:miter;stroke-width:0.8;"/>
   </g>
   <g id="legend_1">
    <g id="patch_7">
     <path d="M 356.516875 122.862625 
L 407.72 122.862625 
Q 409.72 122.862625 409.72 120.862625 
L 409.72 48.472 
Q 409.72 46.472 407.72 46.472 
L 356.516875 46.472 
Q 354.516875 46.472 354.516875 48.472 
L 354.516875 120.862625 
Q 354.516875 122.862625 356.516875 122.862625 
z
" style="fill:#ffffff;opacity:0.8;stroke:#cccccc;stroke-linejoin:miter;"/>
    </g>
    <g id="line2d_20">
     <path d="M 358.516875 54.570438 
L 378.516875 54.570438 
" style="fill:none;stroke:#1f77b4;stroke-linecap:square;stroke-width:1.5;"/>
    </g>
    <g id="line2d_21"/>
    <g id="text_18">
     <!-- T+ -->
     <defs>
      <path d="M 46 62.703125 
L 46 35.5 
L 73.1875 35.5 
L 73.1875 27.203125 
L 46 27.203125 
L 46 0 
L 37.796875 0 
L 37.796875 27.203125 
L 10.59375 27.203125 
L 10.59375 35.5 
L 37.796875 35.5 
L 37.796875 62.703125 
z
" id="DejaVuSans-43"/>
     </defs>
     <g transform="translate(386.516875 58.070438)scale(0.1 -0.1)">
      <use xlink:href="#DejaVuSans-84"/>
      <use x="61.083984" xlink:href="#DejaVuSans-43"/>
     </g>
    </g>
    <g id="line2d_22">
     <path d="M 358.516875 69.248563 
L 378.516875 69.248563 
" style="fill:none;stroke:#ff7f0e;stroke-linecap:square;stroke-width:1.5;"/>
    </g>
    <g id="line2d_23"/>
    <g id="text_19">
     <!-- Tp -->
     <defs>
      <path d="M 18.109375 8.203125 
L 18.109375 -20.796875 
L 9.078125 -20.796875 
L 9.078125 54.6875 
L 18.109375 54.6875 
L 18.109375 46.390625 
Q 20.953125 51.265625 25.265625 53.625 
Q 29.59375 56 35.59375 56 
Q 45.5625 56 51.78125 48.09375 
Q 58.015625 40.1875 58.015625 27.296875 
Q 58.015625 14.40625 51.78125 6.484375 
Q 45.5625 -1.421875 35.59375 -1.421875 
Q 29.59375 -1.421875 25.265625 0.953125 
Q 20.953125 3.328125 18.109375 8.203125 
z
M 48.6875 27.296875 
Q 48.6875 37.203125 44.609375 42.84375 
Q 40.53125 48.484375 33.40625 48.484375 
Q 26.265625 48.484375 22.1875 42.84375 
Q 18.109375 37.203125 18.109375 27.296875 
Q 18.109375 17.390625 22.1875 11.75 
Q 26.265625 6.109375 33.40625 6.109375 
Q 40.53125 6.109375 44.609375 11.75 
Q 48.6875 17.390625 48.6875 27.296875 
z
" id="DejaVuSans-112"/>
     </defs>
     <g transform="translate(386.516875 72.748563)scale(0.1 -0.1)">
      <use xlink:href="#DejaVuSans-84"/>
      <use x="61.083984" xlink:href="#DejaVuSans-112"/>
     </g>
    </g>
    <g id="line2d_24">
     <path d="M 358.516875 83.926688 
L 378.516875 83.926688 
" style="fill:none;stroke:#2ca02c;stroke-linecap:square;stroke-width:1.5;"/>
    </g>
    <g id="line2d_25"/>
    <g id="text_20">
     <!-- T- -->
     <defs>
      <path d="M 4.890625 31.390625 
L 31.203125 31.390625 
L 31.203125 23.390625 
L 4.890625 23.390625 
z
" id="DejaVuSans-45"/>
     </defs>
     <g transform="translate(386.516875 87.426688)scale(0.1 -0.1)">
      <use xlink:href="#DejaVuSans-84"/>
      <use x="51.958984" xlink:href="#DejaVuSans-45"/>
     </g>
    </g>
    <g id="line2d_26">
     <path d="M 358.516875 98.604813 
L 378.516875 98.604813 
" style="fill:none;stroke:#d62728;stroke-linecap:square;stroke-width:1.5;"/>
    </g>
    <g id="line2d_27"/>
    <g id="text_21">
     <!-- O2 -->
     <defs>
      <path d="M 39.40625 66.21875 
Q 28.65625 66.21875 22.328125 58.203125 
Q 16.015625 50.203125 16.015625 36.375 
Q 16.015625 22.609375 22.328125 14.59375 
Q 28.65625 6.59375 39.40625 6.59375 
Q 50.140625 6.59375 56.421875 14.59375 
Q 62.703125 22.609375 62.703125 36.375 
Q 62.703125 50.203125 56.421875 58.203125 
Q 50.140625 66.21875 39.40625 66.21875 
z
M 39.40625 74.21875 
Q 54.734375 74.21875 63.90625 63.9375 
Q 73.09375 53.65625 73.09375 36.375 
Q 73.09375 19.140625 63.90625 8.859375 
Q 54.734375 -1.421875 39.40625 -1.421875 
Q 24.03125 -1.421875 14.8125 8.828125 
Q 5.609375 19.09375 5.609375 36.375 
Q 5.609375 53.65625 14.8125 63.9375 
Q 24.03125 74.21875 39.40625 74.21875 
z
" id="DejaVuSans-79"/>
     </defs>
     <g transform="translate(386.516875 102.104813)scale(0.1 -0.1)">
      <use xlink:href="#DejaVuSans-79"/>
      <use x="78.710938" xlink:href="#DejaVuSans-50"/>
     </g>
    </g>
    <g id="line2d_28">
     <path d="M 358.516875 113.282938 
L 378.516875 113.282938 
" style="fill:none;stroke:#9467bd;stroke-linecap:square;stroke-width:1.5;"/>
    </g>
    <g id="line2d_29"/>
    <g id="text_22">
     <!-- test -->
     <g transform="translate(386.516875 116.782938)scale(0.1 -0.1)">
      <use xlink:href="#DejaVuSans-116"/>
      <use x="39.208984" xlink:href="#DejaVuSans-101"/>
      <use x="100.732422" xlink:href="#DejaVuSans-115"/>
      <use x="152.832031" xlink:href="#DejaVuSans-116"/>
     </g>
    </g>
   </g>
  </g>
 </g>
 <defs>
  <clipPath id="p4c00e981d2">
   <rect height="266.112" width="357.12" x="57.6" y="41.472"/>
  </clipPath>
 </defs>
</svg>
