<?xml version="1.0" encoding="utf-8" standalone="no"?>
<!DOCTYPE svg PUBLIC "-//W3C//DTD SVG 1.1//EN"
  "http://www.w3.org/Graphics/SVG/1.1/DTD/svg11.dtd">
<!-- Created with matplotlib (https://matplotlib.org/) -->
<svg height="345.6pt" version="1.1" viewBox="0 0 460.8 345.6" width="460.8pt" xmlns="http://www.w3.org/2000/svg" xmlns:xlink="http://www.w3.org/1999/xlink">
 <defs>
  <style type="text/css">
*{stroke-linecap:butt;stroke-linejoin:round;}
  </style>
 </defs>
 <g id="figure_1">
  <g id="patch_1">
   <path d="M 0 345.6 
L 460.8 345.6 
L 460.8 0 
L 0 0 
z
" style="fill:#ffffff;"/>
  </g>
  <g id="axes_1">
   <g id="patch_2">
    <path d="M 57.6 307.584 
L 414.72 307.584 
L 414.72 41.472 
L 57.6 41.472 
z
" style="fill:#ffffff;"/>
   </g>
   <g id="matplotlib.axis_1">
    <g id="xtick_1">
     <g id="line2d_1">
      <defs>
       <path d="M 0 0 
L 0 3.5 
" id="m48ae20cb26" style="stroke:#000000;stroke-width:0.8;"/>
      </defs>
      <g>
       <use style="stroke:#000000;stroke-width:0.8;" x="73.832727" xlink:href="#m48ae20cb26" y="307.584"/>
      </g>
     </g>
     <g id="text_1">
      <!-- 0.0 -->
      <defs>
       <path d="M 31.78125 66.40625 
Q 24.171875 66.40625 20.328125 58.90625 
Q 16.5 51.421875 16.5 36.375 
Q 16.5 21.390625 20.328125 13.890625 
Q 24.171875 6.390625 31.78125 6.390625 
Q 39.453125 6.390625 43.28125 13.890625 
Q 47.125 21.390625 47.125 36.375 
Q 47.125 51.421875 43.28125 58.90625 
Q 39.453125 66.40625 31.78125 66.40625 
z
M 31.78125 74.21875 
Q 44.046875 74.21875 50.515625 64.515625 
Q 56.984375 54.828125 56.984375 36.375 
Q 56.984375 17.96875 50.515625 8.265625 
Q 44.046875 -1.421875 31.78125 -1.421875 
Q 19.53125 -1.421875 13.0625 8.265625 
Q 6.59375 17.96875 6.59375 36.375 
Q 6.59375 54.828125 13.0625 64.515625 
Q 19.53125 74.21875 31.78125 74.21875 
z
" id="DejaVuSans-48"/>
       <path d="M 10.6875 12.40625 
L 21 12.40625 
L 21 0 
L 10.6875 0 
z
" id="DejaVuSans-46"/>
      </defs>
      <g transform="translate(65.881165 322.182437)scale(0.1 -0.1)">
       <use xlink:href="#DejaVuSans-48"/>
       <use x="63.623047" xlink:href="#DejaVuSans-46"/>
       <use x="95.410156" xlink:href="#DejaVuSans-48"/>
      </g>
     </g>
    </g>
    <g id="xtick_2">
     <g id="line2d_2">
      <g>
       <use style="stroke:#000000;stroke-width:0.8;" x="118.925515" xlink:href="#m48ae20cb26" y="307.584"/>
      </g>
     </g>
     <g id="text_2">
      <!-- 0.2 -->
      <defs>
       <path d="M 19.1875 8.296875 
L 53.609375 8.296875 
L 53.609375 0 
L 7.328125 0 
L 7.328125 8.296875 
Q 12.9375 14.109375 22.625 23.890625 
Q 32.328125 33.6875 34.8125 36.53125 
Q 39.546875 41.84375 41.421875 45.53125 
Q 43.3125 49.21875 43.3125 52.78125 
Q 43.3125 58.59375 39.234375 62.25 
Q 35.15625 65.921875 28.609375 65.921875 
Q 23.96875 65.921875 18.8125 64.3125 
Q 13.671875 62.703125 7.8125 59.421875 
L 7.8125 69.390625 
Q 13.765625 71.78125 18.9375 73 
Q 24.125 74.21875 28.421875 74.21875 
Q 39.75 74.21875 46.484375 68.546875 
Q 53.21875 62.890625 53.21875 53.421875 
Q 53.21875 48.921875 51.53125 44.890625 
Q 49.859375 40.875 45.40625 35.40625 
Q 44.1875 33.984375 37.640625 27.21875 
Q 31.109375 20.453125 19.1875 8.296875 
z
" id="DejaVuSans-50"/>
      </defs>
      <g transform="translate(110.973953 322.182437)scale(0.1 -0.1)">
       <use xlink:href="#DejaVuSans-48"/>
       <use x="63.623047" xlink:href="#DejaVuSans-46"/>
       <use x="95.410156" xlink:href="#DejaVuSans-50"/>
      </g>
     </g>
    </g>
    <g id="xtick_3">
     <g id="line2d_3">
      <g>
       <use style="stroke:#000000;stroke-width:0.8;" x="164.018303" xlink:href="#m48ae20cb26" y="307.584"/>
      </g>
     </g>
     <g id="text_3">
      <!-- 0.4 -->
      <defs>
       <path d="M 37.796875 64.3125 
L 12.890625 25.390625 
L 37.796875 25.390625 
z
M 35.203125 72.90625 
L 47.609375 72.90625 
L 47.609375 25.390625 
L 58.015625 25.390625 
L 58.015625 17.1875 
L 47.609375 17.1875 
L 47.609375 0 
L 37.796875 0 
L 37.796875 17.1875 
L 4.890625 17.1875 
L 4.890625 26.703125 
z
" id="DejaVuSans-52"/>
      </defs>
      <g transform="translate(156.066741 322.182437)scale(0.1 -0.1)">
       <use xlink:href="#DejaVuSans-48"/>
       <use x="63.623047" xlink:href="#DejaVuSans-46"/>
       <use x="95.410156" xlink:href="#DejaVuSans-52"/>
      </g>
     </g>
    </g>
    <g id="xtick_4">
     <g id="line2d_4">
      <g>
       <use style="stroke:#000000;stroke-width:0.8;" x="209.111091" xlink:href="#m48ae20cb26" y="307.584"/>
      </g>
     </g>
     <g id="text_4">
      <!-- 0.6 -->
      <defs>
       <path d="M 33.015625 40.375 
Q 26.375 40.375 22.484375 35.828125 
Q 18.609375 31.296875 18.609375 23.390625 
Q 18.609375 15.53125 22.484375 10.953125 
Q 26.375 6.390625 33.015625 6.390625 
Q 39.65625 6.390625 43.53125 10.953125 
Q 47.40625 15.53125 47.40625 23.390625 
Q 47.40625 31.296875 43.53125 35.828125 
Q 39.65625 40.375 33.015625 40.375 
z
M 52.59375 71.296875 
L 52.59375 62.3125 
Q 48.875 64.0625 45.09375 64.984375 
Q 41.3125 65.921875 37.59375 65.921875 
Q 27.828125 65.921875 22.671875 59.328125 
Q 17.53125 52.734375 16.796875 39.40625 
Q 19.671875 43.65625 24.015625 45.921875 
Q 28.375 48.1875 33.59375 48.1875 
Q 44.578125 48.1875 50.953125 41.515625 
Q 57.328125 34.859375 57.328125 23.390625 
Q 57.328125 12.15625 50.6875 5.359375 
Q 44.046875 -1.421875 33.015625 -1.421875 
Q 20.359375 -1.421875 13.671875 8.265625 
Q 6.984375 17.96875 6.984375 36.375 
Q 6.984375 53.65625 15.1875 63.9375 
Q 23.390625 74.21875 37.203125 74.21875 
Q 40.921875 74.21875 44.703125 73.484375 
Q 48.484375 72.75 52.59375 71.296875 
z
" id="DejaVuSans-54"/>
      </defs>
      <g transform="translate(201.159529 322.182437)scale(0.1 -0.1)">
       <use xlink:href="#DejaVuSans-48"/>
       <use x="63.623047" xlink:href="#DejaVuSans-46"/>
       <use x="95.410156" xlink:href="#DejaVuSans-54"/>
      </g>
     </g>
    </g>
    <g id="xtick_5">
     <g id="line2d_5">
      <g>
       <use style="stroke:#000000;stroke-width:0.8;" x="254.203879" xlink:href="#m48ae20cb26" y="307.584"/>
      </g>
     </g>
     <g id="text_5">
      <!-- 0.8 -->
      <defs>
       <path d="M 31.78125 34.625 
Q 24.75 34.625 20.71875 30.859375 
Q 16.703125 27.09375 16.703125 20.515625 
Q 16.703125 13.921875 20.71875 10.15625 
Q 24.75 6.390625 31.78125 6.390625 
Q 38.8125 6.390625 42.859375 10.171875 
Q 46.921875 13.96875 46.921875 20.515625 
Q 46.921875 27.09375 42.890625 30.859375 
Q 38.875 34.625 31.78125 34.625 
z
M 21.921875 38.8125 
Q 15.578125 40.375 12.03125 44.71875 
Q 8.5 49.078125 8.5 55.328125 
Q 8.5 64.0625 14.71875 69.140625 
Q 20.953125 74.21875 31.78125 74.21875 
Q 42.671875 74.21875 48.875 69.140625 
Q 55.078125 64.0625 55.078125 55.328125 
Q 55.078125 49.078125 51.53125 44.71875 
Q 48 40.375 41.703125 38.8125 
Q 48.828125 37.15625 52.796875 32.3125 
Q 56.78125 27.484375 56.78125 20.515625 
Q 56.78125 9.90625 50.3125 4.234375 
Q 43.84375 -1.421875 31.78125 -1.421875 
Q 19.734375 -1.421875 13.25 4.234375 
Q 6.78125 9.90625 6.78125 20.515625 
Q 6.78125 27.484375 10.78125 32.3125 
Q 14.796875 37.15625 21.921875 38.8125 
z
M 18.3125 54.390625 
Q 18.3125 48.734375 21.84375 45.5625 
Q 25.390625 42.390625 31.78125 42.390625 
Q 38.140625 42.390625 41.71875 45.5625 
Q 45.3125 48.734375 45.3125 54.390625 
Q 45.3125 60.0625 41.71875 63.234375 
Q 38.140625 66.40625 31.78125 66.40625 
Q 25.390625 66.40625 21.84375 63.234375 
Q 18.3125 60.0625 18.3125 54.390625 
z
" id="DejaVuSans-56"/>
      </defs>
      <g transform="translate(246.252317 322.182437)scale(0.1 -0.1)">
       <use xlink:href="#DejaVuSans-48"/>
       <use x="63.623047" xlink:href="#DejaVuSans-46"/>
       <use x="95.410156" xlink:href="#DejaVuSans-56"/>
      </g>
     </g>
    </g>
    <g id="xtick_6">
     <g id="line2d_6">
      <g>
       <use style="stroke:#000000;stroke-width:0.8;" x="299.296667" xlink:href="#m48ae20cb26" y="307.584"/>
      </g>
     </g>
     <g id="text_6">
      <!-- 1.0 -->
      <defs>
       <path d="M 12.40625 8.296875 
L 28.515625 8.296875 
L 28.515625 63.921875 
L 10.984375 60.40625 
L 10.984375 69.390625 
L 28.421875 72.90625 
L 38.28125 72.90625 
L 38.28125 8.296875 
L 54.390625 8.296875 
L 54.390625 0 
L 12.40625 0 
z
" id="DejaVuSans-49"/>
      </defs>
      <g transform="translate(291.345105 322.182437)scale(0.1 -0.1)">
       <use xlink:href="#DejaVuSans-49"/>
       <use x="63.623047" xlink:href="#DejaVuSans-46"/>
       <use x="95.410156" xlink:href="#DejaVuSans-48"/>
      </g>
     </g>
    </g>
    <g id="xtick_7">
     <g id="line2d_7">
      <g>
       <use style="stroke:#000000;stroke-width:0.8;" x="344.389455" xlink:href="#m48ae20cb26" y="307.584"/>
      </g>
     </g>
     <g id="text_7">
      <!-- 1.2 -->
      <g transform="translate(336.437893 322.182437)scale(0.1 -0.1)">
       <use xlink:href="#DejaVuSans-49"/>
       <use x="63.623047" xlink:href="#DejaVuSans-46"/>
       <use x="95.410156" xlink:href="#DejaVuSans-50"/>
      </g>
     </g>
    </g>
    <g id="xtick_8">
     <g id="line2d_8">
      <g>
       <use style="stroke:#000000;stroke-width:0.8;" x="389.482243" xlink:href="#m48ae20cb26" y="307.584"/>
      </g>
     </g>
     <g id="text_8">
      <!-- 1.4 -->
      <g transform="translate(381.53068 322.182437)scale(0.1 -0.1)">
       <use xlink:href="#DejaVuSans-49"/>
       <use x="63.623047" xlink:href="#DejaVuSans-46"/>
       <use x="95.410156" xlink:href="#DejaVuSans-52"/>
      </g>
     </g>
    </g>
    <g id="text_9">
     <!-- Time (min) -->
     <defs>
      <path d="M -0.296875 72.90625 
L 61.375 72.90625 
L 61.375 64.59375 
L 35.5 64.59375 
L 35.5 0 
L 25.59375 0 
L 25.59375 64.59375 
L -0.296875 64.59375 
z
" id="DejaVuSans-84"/>
      <path d="M 9.421875 54.6875 
L 18.40625 54.6875 
L 18.40625 0 
L 9.421875 0 
z
M 9.421875 75.984375 
L 18.40625 75.984375 
L 18.40625 64.59375 
L 9.421875 64.59375 
z
" id="DejaVuSans-105"/>
      <path d="M 52 44.1875 
Q 55.375 50.25 60.0625 53.125 
Q 64.75 56 71.09375 56 
Q 79.640625 56 84.28125 50.015625 
Q 88.921875 44.046875 88.921875 33.015625 
L 88.921875 0 
L 79.890625 0 
L 79.890625 32.71875 
Q 79.890625 40.578125 77.09375 44.375 
Q 74.3125 48.1875 68.609375 48.1875 
Q 61.625 48.1875 57.5625 43.546875 
Q 53.515625 38.921875 53.515625 30.90625 
L 53.515625 0 
L 44.484375 0 
L 44.484375 32.71875 
Q 44.484375 40.625 41.703125 44.40625 
Q 38.921875 48.1875 33.109375 48.1875 
Q 26.21875 48.1875 22.15625 43.53125 
Q 18.109375 38.875 18.109375 30.90625 
L 18.109375 0 
L 9.078125 0 
L 9.078125 54.6875 
L 18.109375 54.6875 
L 18.109375 46.1875 
Q 21.1875 51.21875 25.484375 53.609375 
Q 29.78125 56 35.6875 56 
Q 41.65625 56 45.828125 52.96875 
Q 50 49.953125 52 44.1875 
z
" id="DejaVuSans-109"/>
      <path d="M 56.203125 29.59375 
L 56.203125 25.203125 
L 14.890625 25.203125 
Q 15.484375 15.921875 20.484375 11.0625 
Q 25.484375 6.203125 34.421875 6.203125 
Q 39.59375 6.203125 44.453125 7.46875 
Q 49.3125 8.734375 54.109375 11.28125 
L 54.109375 2.78125 
Q 49.265625 0.734375 44.1875 -0.34375 
Q 39.109375 -1.421875 33.890625 -1.421875 
Q 20.796875 -1.421875 13.15625 6.1875 
Q 5.515625 13.8125 5.515625 26.8125 
Q 5.515625 40.234375 12.765625 48.109375 
Q 20.015625 56 32.328125 56 
Q 43.359375 56 49.78125 48.890625 
Q 56.203125 41.796875 56.203125 29.59375 
z
M 47.21875 32.234375 
Q 47.125 39.59375 43.09375 43.984375 
Q 39.0625 48.390625 32.421875 48.390625 
Q 24.90625 48.390625 20.390625 44.140625 
Q 15.875 39.890625 15.1875 32.171875 
z
" id="DejaVuSans-101"/>
      <path id="DejaVuSans-32"/>
      <path d="M 31 75.875 
Q 24.46875 64.65625 21.28125 53.65625 
Q 18.109375 42.671875 18.109375 31.390625 
Q 18.109375 20.125 21.3125 9.0625 
Q 24.515625 -2 31 -13.1875 
L 23.1875 -13.1875 
Q 15.875 -1.703125 12.234375 9.375 
Q 8.59375 20.453125 8.59375 31.390625 
Q 8.59375 42.28125 12.203125 53.3125 
Q 15.828125 64.359375 23.1875 75.875 
z
" id="DejaVuSans-40"/>
      <path d="M 54.890625 33.015625 
L 54.890625 0 
L 45.90625 0 
L 45.90625 32.71875 
Q 45.90625 40.484375 42.875 44.328125 
Q 39.84375 48.1875 33.796875 48.1875 
Q 26.515625 48.1875 22.3125 43.546875 
Q 18.109375 38.921875 18.109375 30.90625 
L 18.109375 0 
L 9.078125 0 
L 9.078125 54.6875 
L 18.109375 54.6875 
L 18.109375 46.1875 
Q 21.34375 51.125 25.703125 53.5625 
Q 30.078125 56 35.796875 56 
Q 45.21875 56 50.046875 50.171875 
Q 54.890625 44.34375 54.890625 33.015625 
z
" id="DejaVuSans-110"/>
      <path d="M 8.015625 75.875 
L 15.828125 75.875 
Q 23.140625 64.359375 26.78125 53.3125 
Q 30.421875 42.28125 30.421875 31.390625 
Q 30.421875 20.453125 26.78125 9.375 
Q 23.140625 -1.703125 15.828125 -13.1875 
L 8.015625 -13.1875 
Q 14.5 -2 17.703125 9.0625 
Q 20.90625 20.125 20.90625 31.390625 
Q 20.90625 42.671875 17.703125 53.65625 
Q 14.5 64.65625 8.015625 75.875 
z
" id="DejaVuSans-41"/>
     </defs>
     <g transform="translate(209.007656 335.860562)scale(0.1 -0.1)">
      <use xlink:href="#DejaVuSans-84"/>
      <use x="57.958984" xlink:href="#DejaVuSans-105"/>
      <use x="85.742188" xlink:href="#DejaVuSans-109"/>
      <use x="183.154297" xlink:href="#DejaVuSans-101"/>
      <use x="244.677734" xlink:href="#DejaVuSans-32"/>
      <use x="276.464844" xlink:href="#DejaVuSans-40"/>
      <use x="315.478516" xlink:href="#DejaVuSans-109"/>
      <use x="412.890625" xlink:href="#DejaVuSans-105"/>
      <use x="440.673828" xlink:href="#DejaVuSans-110"/>
      <use x="504.052734" xlink:href="#DejaVuSans-41"/>
     </g>
    </g>
    <g id="text_10">
     <!-- 1e6 -->
     <g transform="translate(395.841875 334.860562)scale(0.1 -0.1)">
      <use xlink:href="#DejaVuSans-49"/>
      <use x="63.623047" xlink:href="#DejaVuSans-101"/>
      <use x="125.146484" xlink:href="#DejaVuSans-54"/>
     </g>
    </g>
   </g>
   <g id="matplotlib.axis_2">
    <g id="ytick_1">
     <g id="line2d_9">
      <defs>
       <path d="M 0 0 
L -3.5 0 
" id="mab653de9f4" style="stroke:#000000;stroke-width:0.8;"/>
      </defs>
      <g>
       <use style="stroke:#000000;stroke-width:0.8;" x="57.6" xlink:href="#mab653de9f4" y="277.821139"/>
      </g>
     </g>
     <g id="text_11">
      <!-- −600 -->
      <defs>
       <path d="M 10.59375 35.5 
L 73.1875 35.5 
L 73.1875 27.203125 
L 10.59375 27.203125 
z
" id="DejaVuSans-8722"/>
      </defs>
      <g transform="translate(23.132812 281.620357)scale(0.1 -0.1)">
       <use xlink:href="#DejaVuSans-8722"/>
       <use x="83.789062" xlink:href="#DejaVuSans-54"/>
       <use x="147.412109" xlink:href="#DejaVuSans-48"/>
       <use x="211.035156" xlink:href="#DejaVuSans-48"/>
      </g>
     </g>
    </g>
    <g id="ytick_2">
     <g id="line2d_10">
      <g>
       <use style="stroke:#000000;stroke-width:0.8;" x="57.6" xlink:href="#mab653de9f4" y="245.784976"/>
      </g>
     </g>
     <g id="text_12">
      <!-- −500 -->
      <defs>
       <path d="M 10.796875 72.90625 
L 49.515625 72.90625 
L 49.515625 64.59375 
L 19.828125 64.59375 
L 19.828125 46.734375 
Q 21.96875 47.46875 24.109375 47.828125 
Q 26.265625 48.1875 28.421875 48.1875 
Q 40.625 48.1875 47.75 41.5 
Q 54.890625 34.8125 54.890625 23.390625 
Q 54.890625 11.625 47.5625 5.09375 
Q 40.234375 -1.421875 26.90625 -1.421875 
Q 22.3125 -1.421875 17.546875 -0.640625 
Q 12.796875 0.140625 7.71875 1.703125 
L 7.71875 11.625 
Q 12.109375 9.234375 16.796875 8.0625 
Q 21.484375 6.890625 26.703125 6.890625 
Q 35.15625 6.890625 40.078125 11.328125 
Q 45.015625 15.765625 45.015625 23.390625 
Q 45.015625 31 40.078125 35.4375 
Q 35.15625 39.890625 26.703125 39.890625 
Q 22.75 39.890625 18.8125 39.015625 
Q 14.890625 38.140625 10.796875 36.28125 
z
" id="DejaVuSans-53"/>
      </defs>
      <g transform="translate(23.132812 249.584195)scale(0.1 -0.1)">
       <use xlink:href="#DejaVuSans-8722"/>
       <use x="83.789062" xlink:href="#DejaVuSans-53"/>
       <use x="147.412109" xlink:href="#DejaVuSans-48"/>
       <use x="211.035156" xlink:href="#DejaVuSans-48"/>
      </g>
     </g>
    </g>
    <g id="ytick_3">
     <g id="line2d_11">
      <g>
       <use style="stroke:#000000;stroke-width:0.8;" x="57.6" xlink:href="#mab653de9f4" y="213.748813"/>
      </g>
     </g>
     <g id="text_13">
      <!-- −400 -->
      <g transform="translate(23.132812 217.548032)scale(0.1 -0.1)">
       <use xlink:href="#DejaVuSans-8722"/>
       <use x="83.789062" xlink:href="#DejaVuSans-52"/>
       <use x="147.412109" xlink:href="#DejaVuSans-48"/>
       <use x="211.035156" xlink:href="#DejaVuSans-48"/>
      </g>
     </g>
    </g>
    <g id="ytick_4">
     <g id="line2d_12">
      <g>
       <use style="stroke:#000000;stroke-width:0.8;" x="57.6" xlink:href="#mab653de9f4" y="181.712651"/>
      </g>
     </g>
     <g id="text_14">
      <!-- −300 -->
      <defs>
       <path d="M 40.578125 39.3125 
Q 47.65625 37.796875 51.625 33 
Q 55.609375 28.21875 55.609375 21.1875 
Q 55.609375 10.40625 48.1875 4.484375 
Q 40.765625 -1.421875 27.09375 -1.421875 
Q 22.515625 -1.421875 17.65625 -0.515625 
Q 12.796875 0.390625 7.625 2.203125 
L 7.625 11.71875 
Q 11.71875 9.328125 16.59375 8.109375 
Q 21.484375 6.890625 26.8125 6.890625 
Q 36.078125 6.890625 40.9375 10.546875 
Q 45.796875 14.203125 45.796875 21.1875 
Q 45.796875 27.640625 41.28125 31.265625 
Q 36.765625 34.90625 28.71875 34.90625 
L 20.21875 34.90625 
L 20.21875 43.015625 
L 29.109375 43.015625 
Q 36.375 43.015625 40.234375 45.921875 
Q 44.09375 48.828125 44.09375 54.296875 
Q 44.09375 59.90625 40.109375 62.90625 
Q 36.140625 65.921875 28.71875 65.921875 
Q 24.65625 65.921875 20.015625 65.03125 
Q 15.375 64.15625 9.8125 62.3125 
L 9.8125 71.09375 
Q 15.4375 72.65625 20.34375 73.4375 
Q 25.25 74.21875 29.59375 74.21875 
Q 40.828125 74.21875 47.359375 69.109375 
Q 53.90625 64.015625 53.90625 55.328125 
Q 53.90625 49.265625 50.4375 45.09375 
Q 46.96875 40.921875 40.578125 39.3125 
z
" id="DejaVuSans-51"/>
      </defs>
      <g transform="translate(23.132812 185.511869)scale(0.1 -0.1)">
       <use xlink:href="#DejaVuSans-8722"/>
       <use x="83.789062" xlink:href="#DejaVuSans-51"/>
       <use x="147.412109" xlink:href="#DejaVuSans-48"/>
       <use x="211.035156" xlink:href="#DejaVuSans-48"/>
      </g>
     </g>
    </g>
    <g id="ytick_5">
     <g id="line2d_13">
      <g>
       <use style="stroke:#000000;stroke-width:0.8;" x="57.6" xlink:href="#mab653de9f4" y="149.676488"/>
      </g>
     </g>
     <g id="text_15">
      <!-- −200 -->
      <g transform="translate(23.132812 153.475707)scale(0.1 -0.1)">
       <use xlink:href="#DejaVuSans-8722"/>
       <use x="83.789062" xlink:href="#DejaVuSans-50"/>
       <use x="147.412109" xlink:href="#DejaVuSans-48"/>
       <use x="211.035156" xlink:href="#DejaVuSans-48"/>
      </g>
     </g>
    </g>
    <g id="ytick_6">
     <g id="line2d_14">
      <g>
       <use style="stroke:#000000;stroke-width:0.8;" x="57.6" xlink:href="#mab653de9f4" y="117.640325"/>
      </g>
     </g>
     <g id="text_16">
      <!-- −100 -->
      <g transform="translate(23.132812 121.439544)scale(0.1 -0.1)">
       <use xlink:href="#DejaVuSans-8722"/>
       <use x="83.789062" xlink:href="#DejaVuSans-49"/>
       <use x="147.412109" xlink:href="#DejaVuSans-48"/>
       <use x="211.035156" xlink:href="#DejaVuSans-48"/>
      </g>
     </g>
    </g>
    <g id="ytick_7">
     <g id="line2d_15">
      <g>
       <use style="stroke:#000000;stroke-width:0.8;" x="57.6" xlink:href="#mab653de9f4" y="85.604163"/>
      </g>
     </g>
     <g id="text_17">
      <!-- 0 -->
      <g transform="translate(44.2375 89.403381)scale(0.1 -0.1)">
       <use xlink:href="#DejaVuSans-48"/>
      </g>
     </g>
    </g>
    <g id="ytick_8">
     <g id="line2d_16">
      <g>
       <use style="stroke:#000000;stroke-width:0.8;" x="57.6" xlink:href="#mab653de9f4" y="53.568"/>
      </g>
     </g>
     <g id="text_18">
      <!-- 100 -->
      <g transform="translate(31.5125 57.367219)scale(0.1 -0.1)">
       <use xlink:href="#DejaVuSans-49"/>
       <use x="63.623047" xlink:href="#DejaVuSans-48"/>
       <use x="127.246094" xlink:href="#DejaVuSans-48"/>
      </g>
     </g>
    </g>
    <g id="text_19">
     <!-- Density -->
     <defs>
      <path d="M 19.671875 64.796875 
L 19.671875 8.109375 
L 31.59375 8.109375 
Q 46.6875 8.109375 53.6875 14.9375 
Q 60.6875 21.78125 60.6875 36.53125 
Q 60.6875 51.171875 53.6875 57.984375 
Q 46.6875 64.796875 31.59375 64.796875 
z
M 9.8125 72.90625 
L 30.078125 72.90625 
Q 51.265625 72.90625 61.171875 64.09375 
Q 71.09375 55.28125 71.09375 36.53125 
Q 71.09375 17.671875 61.125 8.828125 
Q 51.171875 0 30.078125 0 
L 9.8125 0 
z
" id="DejaVuSans-68"/>
      <path d="M 44.28125 53.078125 
L 44.28125 44.578125 
Q 40.484375 46.53125 36.375 47.5 
Q 32.28125 48.484375 27.875 48.484375 
Q 21.1875 48.484375 17.84375 46.4375 
Q 14.5 44.390625 14.5 40.28125 
Q 14.5 37.15625 16.890625 35.375 
Q 19.28125 33.59375 26.515625 31.984375 
L 29.59375 31.296875 
Q 39.15625 29.25 43.1875 25.515625 
Q 47.21875 21.78125 47.21875 15.09375 
Q 47.21875 7.46875 41.1875 3.015625 
Q 35.15625 -1.421875 24.609375 -1.421875 
Q 20.21875 -1.421875 15.453125 -0.5625 
Q 10.6875 0.296875 5.421875 2 
L 5.421875 11.28125 
Q 10.40625 8.6875 15.234375 7.390625 
Q 20.0625 6.109375 24.8125 6.109375 
Q 31.15625 6.109375 34.5625 8.28125 
Q 37.984375 10.453125 37.984375 14.40625 
Q 37.984375 18.0625 35.515625 20.015625 
Q 33.0625 21.96875 24.703125 23.78125 
L 21.578125 24.515625 
Q 13.234375 26.265625 9.515625 29.90625 
Q 5.8125 33.546875 5.8125 39.890625 
Q 5.8125 47.609375 11.28125 51.796875 
Q 16.75 56 26.8125 56 
Q 31.78125 56 36.171875 55.265625 
Q 40.578125 54.546875 44.28125 53.078125 
z
" id="DejaVuSans-115"/>
      <path d="M 18.3125 70.21875 
L 18.3125 54.6875 
L 36.8125 54.6875 
L 36.8125 47.703125 
L 18.3125 47.703125 
L 18.3125 18.015625 
Q 18.3125 11.328125 20.140625 9.421875 
Q 21.96875 7.515625 27.59375 7.515625 
L 36.8125 7.515625 
L 36.8125 0 
L 27.59375 0 
Q 17.1875 0 13.234375 3.875 
Q 9.28125 7.765625 9.28125 18.015625 
L 9.28125 47.703125 
L 2.6875 47.703125 
L 2.6875 54.6875 
L 9.28125 54.6875 
L 9.28125 70.21875 
z
" id="DejaVuSans-116"/>
      <path d="M 32.171875 -5.078125 
Q 28.375 -14.84375 24.75 -17.8125 
Q 21.140625 -20.796875 15.09375 -20.796875 
L 7.90625 -20.796875 
L 7.90625 -13.28125 
L 13.1875 -13.28125 
Q 16.890625 -13.28125 18.9375 -11.515625 
Q 21 -9.765625 23.484375 -3.21875 
L 25.09375 0.875 
L 2.984375 54.6875 
L 12.5 54.6875 
L 29.59375 11.921875 
L 46.6875 54.6875 
L 56.203125 54.6875 
z
" id="DejaVuSans-121"/>
     </defs>
     <g transform="translate(17.053125 193.536594)rotate(-90)scale(0.1 -0.1)">
      <use xlink:href="#DejaVuSans-68"/>
      <use x="77.001953" xlink:href="#DejaVuSans-101"/>
      <use x="138.525391" xlink:href="#DejaVuSans-110"/>
      <use x="201.904297" xlink:href="#DejaVuSans-115"/>
      <use x="254.003906" xlink:href="#DejaVuSans-105"/>
      <use x="281.787109" xlink:href="#DejaVuSans-116"/>
      <use x="320.996094" xlink:href="#DejaVuSans-121"/>
     </g>
    </g>
   </g>
   <g id="line2d_17">
    <path clip-path="url(#pf31c4711b6)" d="M 73.832727 85.604163 
L 398.487273 85.604163 
L 398.487273 85.604163 
" style="fill:none;stroke:#1f77b4;stroke-linecap:square;stroke-width:1.5;"/>
   </g>
   <g id="line2d_18">
    <path clip-path="url(#pf31c4711b6)" d="M 73.832727 85.604163 
L 398.487273 85.604163 
L 398.487273 85.604163 
" style="fill:none;stroke:#ff7f0e;stroke-linecap:square;stroke-width:1.5;"/>
   </g>
   <g id="line2d_19">
    <path clip-path="url(#pf31c4711b6)" d="M 73.832727 82.400546 
L 74.766148 82.421393 
L 111.426585 83.19005 
L 153.809296 83.850396 
L 203.997569 84.402933 
L 228.482953 84.51364 
L 398.487273 84.513639 
L 398.487273 84.513639 
" style="fill:none;stroke:#2ca02c;stroke-linecap:square;stroke-width:1.5;"/>
   </g>
   <g id="line2d_20">
    <path clip-path="url(#pf31c4711b6)" d="M 73.832727 53.568 
L 73.859783 295.488 
L 73.954478 295.02309 
L 73.968006 294.963495 
L 73.981533 295.092778 
L 73.995061 295.37572 
L 74.035645 294.733356 
L 74.076228 294.989661 
L 74.170923 294.175608 
L 74.184451 294.447879 
L 74.197979 294.785979 
L 74.25209 294.220781 
L 74.279146 294.496396 
L 74.387369 293.626218 
L 74.400896 293.928422 
L 74.427952 294.184121 
L 74.468536 293.699913 
L 74.509119 293.944282 
L 74.603814 293.368082 
L 74.617342 293.428009 
L 74.671453 293.008475 
L 74.712037 293.715002 
L 74.820259 292.783679 
L 74.833787 292.879423 
L 74.860843 293.122839 
L 74.901426 292.632629 
L 74.928482 293.105387 
L 75.036705 292.351424 
L 75.050233 292.399393 
L 75.077288 292.532996 
L 75.104344 291.946788 
L 75.158455 292.459482 
L 75.239622 291.849034 
L 75.280206 292.041481 
L 75.293734 292.091966 
L 75.401956 291.419268 
L 75.415484 291.565189 
L 75.429012 291.742247 
L 75.456068 291.268368 
L 75.510179 291.528131 
L 75.686041 290.596158 
L 75.699569 290.83942 
L 75.713097 291.154423 
L 75.75368 290.312312 
L 75.794264 290.964139 
L 75.888958 290.191009 
L 75.929542 290.453626 
L 75.94307 290.684876 
L 75.983653 290.114543 
L 76.024237 290.299988 
L 76.118932 289.554062 
L 76.078348 290.444942 
L 76.132459 289.816529 
L 76.145987 290.144319 
L 76.186571 289.544229 
L 76.227154 289.853013 
L 76.335377 289.137614 
L 76.348905 289.463863 
L 76.551822 288.708406 
L 76.375961 289.680549 
L 76.578878 288.956993 
L 76.592406 289.079675 
L 76.632989 288.627732 
L 76.660045 288.832452 
L 76.768268 288.155264 
L 76.781796 288.281348 
L 76.808851 288.483467 
L 76.849435 288.067646 
L 76.890018 288.245111 
L 76.903546 287.625836 
L 76.998241 287.821531 
L 77.011769 287.928877 
L 77.038824 287.835967 
L 77.052352 287.338276 
L 77.079408 287.867195 
L 77.147047 287.7378 
L 77.187631 286.952433 
L 77.295853 287.190735 
L 77.309381 287.458737 
L 77.349965 286.839386 
L 77.390548 287.089844 
L 77.485243 286.292582 
L 77.44466 287.193847 
L 77.498771 286.564996 
L 77.512299 286.8646 
L 77.56641 286.341606 
L 77.593466 286.608999 
L 77.701688 285.915832 
L 77.728744 286.169323 
L 77.742272 286.468128 
L 77.782855 285.834905 
L 77.823439 286.068291 
L 77.918134 285.509066 
L 77.931662 285.566333 
L 77.958717 285.910023 
L 77.999301 285.322781 
L 78.026357 285.599324 
L 78.134579 284.941388 
L 78.148107 285.033895 
L 78.175163 285.268862 
L 78.215746 284.793106 
L 78.25633 285.10343 
L 78.269858 284.450494 
L 78.364552 284.566648 
L 78.391608 284.697341 
L 78.418664 284.133608 
L 78.472775 284.615501 
L 78.553942 283.821822 
L 78.594526 284.233861 
L 78.608054 284.247089 
L 78.716276 283.610509 
L 78.675693 284.252187 
L 78.729804 283.752583 
L 78.810971 283.96114 
L 78.783915 283.359049 
L 78.824499 283.634193 
L 78.838027 283.660159 
L 78.851555 283.088011 
L 78.946249 283.306578 
L 78.959777 283.393602 
L 78.986833 283.236081 
L 79.068 282.541995 
L 79.027416 283.343303 
L 79.095056 283.024266 
L 79.108583 283.162917 
L 79.149167 282.611361 
L 79.18975 282.893005 
L 79.297973 282.333346 
L 79.311501 282.479786 
L 79.325029 282.760758 
L 79.365612 282.052641 
L 79.406196 282.226607 
L 79.419724 282.242994 
L 79.500891 281.782798 
L 79.460307 282.360542 
L 79.527946 282.035924 
L 79.541474 282.079522 
L 79.56853 281.810476 
L 79.636169 281.335308 
L 79.622641 281.988187 
L 79.676753 281.653709 
L 79.69028 281.90001 
L 79.730864 281.345904 
L 79.771447 281.510233 
L 79.866142 280.964865 
L 79.87967 281.212956 
L 79.893198 281.183191 
L 79.906726 281.311291 
L 80.014949 280.567173 
L 80.028476 280.763213 
L 80.042004 281.067836 
L 80.082588 280.426957 
L 80.123171 280.743566 
L 80.217866 279.939282 
L 80.177283 280.748957 
L 80.244922 280.388691 
L 80.299033 279.978828 
L 80.271977 280.495173 
L 80.353144 280.109915 
L 80.434311 279.374595 
L 80.393728 280.137662 
L 80.461367 279.818069 
L 80.474895 280.034577 
L 80.515478 279.436364 
L 80.556062 279.74181 
L 80.664285 279.143023 
L 80.677812 279.289779 
L 80.69134 279.624899 
L 80.731924 278.830314 
L 80.772507 279.122656 
L 80.786035 279.122797 
L 80.799563 278.630213 
L 80.826619 279.165392 
L 80.894258 278.852209 
L 80.907786 278.917156 
L 80.934841 278.701586 
L 81.016008 278.244762 
L 80.975425 278.874649 
L 81.043064 278.488847 
L 81.056592 278.769337 
L 81.097175 278.161503 
L 81.137759 278.388201 
L 81.232454 277.846093 
L 81.245982 277.987244 
L 81.273037 278.171504 
L 81.38126 277.378133 
L 81.394788 277.597002 
L 81.408316 277.905034 
L 81.448899 277.292908 
L 81.489483 277.608296 
L 81.584178 276.850865 
L 81.611233 277.191234 
L 81.624761 277.205518 
L 81.638289 277.393942 
L 81.665345 276.867546 
L 81.719456 277.012603 
L 81.800623 276.269249 
L 81.827679 276.641988 
L 81.841206 276.923427 
L 81.88179 276.309477 
L 81.922373 276.616267 
L 82.030596 275.993795 
L 82.044124 276.131492 
L 82.057652 276.506873 
L 82.098235 275.651876 
L 82.138819 276.041696 
L 82.152347 276.031186 
L 82.165874 275.508951 
L 82.260569 275.695796 
L 82.274097 275.781158 
L 82.301153 275.62394 
L 82.38232 275.153886 
L 82.341736 275.724516 
L 82.409376 275.350668 
L 82.422903 275.655314 
L 82.463487 275.021963 
L 82.50407 275.289945 
L 82.598765 274.772678 
L 82.625821 274.88695 
L 82.639349 275.055195 
L 82.679932 274.549622 
L 82.706988 274.788607 
L 82.815211 274.211112 
L 82.842266 274.45604 
L 82.855794 274.498623 
L 82.88285 274.233445 
L 82.950489 273.790527 
L 82.936961 274.402552 
L 82.991073 274.084392 
L 83.0046 274.315508 
L 83.045184 273.78208 
L 83.085767 273.942947 
L 83.166934 273.230687 
L 83.19399 273.496436 
L 83.207518 273.828795 
L 83.248101 273.235917 
L 83.288685 273.515556 
L 83.396908 272.889036 
L 83.410435 273.005754 
L 83.423963 273.406256 
L 83.464547 272.520316 
L 83.518658 272.96707 
L 83.532186 272.442032 
L 83.626881 272.567758 
L 83.640409 272.671392 
L 83.680992 272.125064 
L 83.721576 272.520526 
L 83.88391 271.830672 
L 83.789215 272.562368 
L 83.910965 271.848772 
L 83.938021 272.205033 
L 83.978605 271.638616 
L 84.00566 271.962862 
L 84.113883 271.143459 
L 84.127411 271.373914 
L 84.140939 271.650317 
L 84.19505 271.162056 
L 84.222106 271.414417 
L 84.3168 270.786721 
L 84.357384 270.995677 
L 84.370912 271.254117 
L 84.411495 270.68028 
L 84.452079 270.896469 
L 84.533246 270.238016 
L 84.560302 270.389417 
L 84.573829 270.749884 
L 84.627941 270.20739 
L 84.654996 270.441551 
L 84.763219 269.832888 
L 84.776747 269.917598 
L 84.803803 270.137074 
L 84.830858 269.614183 
L 84.88497 269.939368 
L 84.898497 269.414518 
L 84.993192 269.469076 
L 85.020248 269.601767 
L 85.047304 269.079313 
L 85.087887 269.501494 
L 85.277277 268.74105 
L 85.304333 269.155566 
L 85.344916 268.515028 
L 85.3855 268.719822 
L 85.480194 268.098777 
L 85.520778 268.48041 
L 85.534306 268.555662 
L 85.561361 268.113092 
L 85.588417 268.355416 
L 85.710168 267.797974 
L 85.669584 268.37934 
L 85.723695 267.935494 
L 85.737223 268.214233 
L 85.777807 267.617611 
L 85.81839 267.875409 
L 85.899557 267.281887 
L 85.926613 267.317774 
L 85.940141 267.688669 
L 85.994252 267.171329 
L 86.034836 267.262798 
L 86.048364 267.25067 
L 86.129531 266.827249 
L 86.088947 267.359109 
L 86.156586 267.062304 
L 86.170114 267.104297 
L 86.183642 266.948619 
L 86.264809 266.44863 
L 86.224225 266.987572 
L 86.291865 266.641183 
L 86.31892 266.916443 
L 86.345976 266.427196 
L 86.359504 266.408072 
L 86.373032 266.535044 
L 86.386559 266.601002 
L 86.400087 266.560602 
L 86.494782 265.923779 
L 86.50831 266.125992 
L 86.521838 266.438997 
L 86.562421 265.878424 
L 86.603005 266.145929 
L 86.711228 265.537687 
L 86.724755 265.650496 
L 86.738283 266.026223 
L 86.778867 265.187076 
L 86.832978 265.609974 
L 86.927673 265.108054 
L 86.941201 265.218635 
L 86.995312 264.797059 
L 87.035896 265.398626 
L 87.144118 264.597308 
L 87.157646 264.707385 
L 87.171174 264.881172 
L 87.19823 264.514142 
L 87.252341 264.860802 
L 87.360564 264.177843 
L 87.374091 264.281934 
L 87.387619 264.371176 
L 87.414675 264.28559 
L 87.428203 263.842184 
L 87.455259 264.320546 
L 87.522898 264.032574 
L 87.536426 264.095935 
L 87.549953 264.027538 
L 87.63112 263.518045 
L 87.671704 263.69203 
L 87.685232 263.932281 
L 87.725815 263.38257 
L 87.766399 263.590005 
L 87.861094 262.891297 
L 87.874621 263.120344 
L 87.888149 263.410449 
L 87.942261 262.918829 
L 87.969316 263.148073 
L 88.077539 262.557245 
L 88.091067 262.638129 
L 88.104595 263.017995 
L 88.145178 262.190198 
L 88.19929 262.645991 
L 88.293984 262.147407 
L 88.307512 262.200569 
L 88.361624 261.829547 
L 88.402207 262.432153 
L 88.51043 261.623717 
L 88.523958 261.706986 
L 88.551013 261.906459 
L 88.591597 261.492765 
L 88.618652 261.885827 
L 88.726875 261.204825 
L 88.753931 261.370947 
L 88.780986 261.348623 
L 88.794514 260.873092 
L 88.889209 261.02751 
L 88.916265 261.132088 
L 88.929793 260.771097 
L 88.983904 260.976119 
L 89.092127 260.395115 
L 89.105655 260.51762 
L 89.119182 260.662296 
L 89.146238 260.24749 
L 89.200349 260.469678 
L 89.376211 259.661003 
L 89.389739 259.866124 
L 89.403267 260.134272 
L 89.44385 259.626723 
L 89.497962 259.875807 
L 89.51149 259.247412 
L 89.606185 259.444321 
L 89.63324 259.701133 
L 89.660296 259.231627 
L 89.673824 259.21485 
L 89.687352 259.338657 
L 89.700879 259.403618 
L 89.714407 259.361212 
L 89.809102 258.721135 
L 89.768519 259.484012 
L 89.82263 258.94183 
L 89.836158 259.221279 
L 89.876741 258.698423 
L 89.917325 258.958479 
L 90.025547 258.270022 
L 90.039075 258.487774 
L 90.052603 258.668547 
L 90.093187 258.296043 
L 90.13377 258.461018 
L 90.147298 258.434106 
L 90.241993 257.946608 
L 90.255521 258.054038 
L 90.282576 258.252158 
L 90.32316 257.876416 
L 90.350216 258.037142 
L 90.458438 257.450911 
L 90.471966 257.557963 
L 90.485494 257.724862 
L 90.539605 257.372221 
L 90.566661 257.69736 
L 90.674884 257.039423 
L 90.688411 257.138556 
L 90.701939 257.226676 
L 90.728995 257.143498 
L 90.82369 256.72081 
L 90.769578 257.169757 
L 90.837218 257.056019 
L 90.877801 256.363946 
L 90.986024 256.565648 
L 90.999552 256.791099 
L 91.040135 256.263469 
L 91.080719 256.464614 
L 91.175414 255.780015 
L 91.13483 256.553815 
L 91.188941 256.010542 
L 91.202469 256.267089 
L 91.256581 255.812532 
L 91.283636 256.0345 
L 91.391859 255.311283 
L 91.405387 255.551854 
L 91.432442 255.751112 
L 91.473026 255.355156 
L 91.513609 255.544742 
L 91.608304 255.058967 
L 91.621832 255.110191 
L 91.648888 255.391919 
L 91.689471 254.899995 
L 91.716527 255.122532 
L 91.82475 254.550548 
L 91.838278 254.630957 
L 91.865333 254.82275 
L 91.905917 254.421911 
L 91.932972 254.795918 
L 92.041195 254.162126 
L 92.054723 254.205854 
L 92.081779 254.307033 
L 92.108834 253.826991 
L 92.162946 254.23082 
L 92.244113 253.535747 
L 92.284696 253.893422 
L 92.298224 253.901506 
L 92.406447 253.35205 
L 92.419974 253.471039 
L 92.433502 253.610083 
L 92.460558 253.215566 
L 92.514669 253.422517 
L 92.690531 252.638034 
L 92.704059 252.832641 
L 92.717587 253.086651 
L 92.75817 252.397508 
L 92.798754 252.916289 
L 92.893449 252.273705 
L 92.934032 252.482576 
L 92.94756 252.665619 
L 92.988144 252.197508 
L 93.015199 252.550357 
L 93.123422 251.729167 
L 93.13695 251.93317 
L 93.150478 252.20086 
L 93.191061 251.697821 
L 93.231645 251.947534 
L 93.339867 251.347345 
L 93.353395 251.612007 
L 93.705119 250.611486 
L 93.380451 251.778687 
L 93.718647 250.772755 
L 93.732175 251.02947 
L 93.772758 250.480521 
L 93.813342 250.740603 
L 93.908036 250.030922 
L 93.935092 250.44482 
L 94.124482 249.538812 
L 93.962148 250.515423 
L 94.151538 249.917802 
L 94.165065 250.094937 
L 94.205649 249.586654 
L 94.246232 249.837423 
L 94.354455 249.321693 
L 94.367983 249.443381 
L 94.422094 249.106255 
L 94.44915 249.589612 
L 94.489733 248.856626 
L 94.5709 248.880445 
L 94.597956 249.094979 
L 94.63854 248.626465 
L 94.665595 249.053907 
L 94.787346 248.435088 
L 94.800874 248.547384 
L 94.814402 248.641276 
L 94.841457 248.194531 
L 94.895569 248.592578 
L 95.003791 247.987798 
L 95.017319 248.154337 
L 95.030847 248.192123 
L 95.044375 248.010781 
L 95.057903 248.023765 
L 95.13907 247.652038 
L 95.098486 248.17926 
L 95.166125 247.899983 
L 95.179653 247.913571 
L 95.274348 247.234656 
L 95.301404 247.563643 
L 95.314931 247.553414 
L 95.328459 247.715405 
L 95.355515 247.264351 
L 95.409626 247.379478 
L 95.490793 246.734109 
L 95.517849 247.056559 
L 95.531377 247.28969 
L 95.57196 246.765494 
L 95.612544 247.018871 
L 95.720767 246.482272 
L 95.734294 246.597369 
L 95.815461 246.748772 
L 95.788406 246.26792 
L 95.828989 246.483319 
L 95.842517 246.499189 
L 95.856045 246.037615 
L 95.95074 246.199534 
L 95.964268 246.267934 
L 95.991323 246.131388 
L 96.07249 245.722441 
L 96.031907 246.214955 
L 96.099546 245.887842 
L 96.113074 246.144993 
L 96.153657 245.604666 
L 96.194241 245.822252 
L 96.302464 245.355191 
L 96.315991 245.472561 
L 96.329519 245.69006 
L 96.370103 245.118879 
L 96.410686 245.24792 
L 96.424214 245.256292 
L 96.505381 244.871404 
L 96.464798 245.349172 
L 96.532437 245.07609 
L 96.545965 245.108791 
L 96.559492 244.898176 
L 96.57302 244.882127 
L 96.640659 244.490727 
L 96.627132 245.017067 
L 96.681243 244.742128 
L 96.694771 244.936564 
L 96.735354 244.483069 
L 96.775938 244.608824 
L 96.857105 243.987827 
L 96.88416 244.22342 
L 96.897688 244.500109 
L 96.938272 243.990327 
L 96.978855 244.223405 
L 97.087078 243.681866 
L 97.100606 243.780852 
L 97.114134 243.935785 
L 97.154717 243.473658 
L 97.195301 243.723983 
L 97.208829 243.736156 
L 97.222356 243.266415 
L 97.317051 243.381462 
L 97.330579 243.465149 
L 97.357635 243.379995 
L 97.438802 242.978146 
L 97.398218 243.397856 
L 97.465857 243.087061 
L 97.479385 243.356426 
L 97.519969 242.812477 
L 97.560552 243.050742 
L 97.668775 242.550535 
L 97.682303 242.668478 
L 97.695831 242.930926 
L 97.736414 242.288973 
L 97.776998 242.514918 
L 97.790526 242.510389 
L 97.804053 242.113844 
L 97.831109 242.541619 
L 97.898748 242.277669 
L 97.912276 242.328036 
L 97.939332 242.145473 
L 98.006971 241.77837 
L 97.993443 242.289232 
L 98.047554 241.958071 
L 98.061082 242.175358 
L 98.101666 241.687405 
L 98.142249 241.860209 
L 98.236944 241.404161 
L 98.264 241.54678 
L 98.277528 241.664444 
L 98.318111 241.249321 
L 98.345167 241.447002 
L 98.453389 240.924231 
L 98.466917 240.99472 
L 98.493973 241.174496 
L 98.521029 240.728333 
L 98.57514 240.997036 
L 98.669835 240.544713 
L 98.683363 240.590427 
L 98.710418 240.692178 
L 98.737474 240.249018 
L 98.778058 240.598643 
L 98.967447 239.942507 
L 98.994503 240.283775 
L 99.035086 239.78136 
L 99.062142 240.188375 
L 99.170365 239.368241 
L 99.183893 239.55259 
L 99.19742 239.756188 
L 99.251532 239.371153 
L 99.278588 239.570617 
L 99.400338 239.089397 
L 99.413866 239.200065 
L 99.427394 239.434105 
L 99.467977 238.926506 
L 99.508561 239.134878 
L 99.603256 238.697965 
L 99.630311 238.79213 
L 99.643839 238.924208 
L 99.684423 238.507815 
L 99.711478 238.69916 
L 99.819701 238.211682 
L 99.846757 238.407487 
L 99.860284 238.439674 
L 99.873812 238.302739 
L 99.954979 237.868974 
L 99.914396 238.341253 
L 99.995563 238.086619 
L 100.009091 238.263164 
L 100.049674 237.832026 
L 100.090258 237.950622 
L 100.171425 237.366897 
L 100.19848 237.577273 
L 100.212008 237.839228 
L 100.252592 237.353339 
L 100.293175 237.575766 
L 100.401398 237.050617 
L 100.414926 237.143878 
L 100.428454 237.46192 
L 100.469037 236.744453 
L 100.523148 237.093911 
L 100.617843 236.660338 
L 100.631371 236.753937 
L 100.644899 236.83625 
L 100.671955 236.754056 
L 100.76665 236.326352 
L 100.726066 236.890923 
L 100.780177 236.468625 
L 100.793705 236.71234 
L 100.834289 236.20289 
L 100.874872 236.43216 
L 100.983095 235.9487 
L 100.996623 236.062181 
L 101.010151 236.205314 
L 101.050734 235.803704 
L 101.091318 235.921539 
L 101.104845 235.90354 
L 101.19954 235.526956 
L 101.145429 235.930028 
L 101.213068 235.677652 
L 101.226596 235.727456 
L 101.240124 235.664301 
L 101.321291 235.22237 
L 101.361874 235.370695 
L 101.375402 235.571432 
L 101.415986 235.105376 
L 101.456569 235.270326 
L 101.537736 234.729733 
L 101.564792 234.846787 
L 101.57832 235.131926 
L 101.632431 234.686571 
L 101.659487 234.8727 
L 101.767709 234.362142 
L 101.781237 234.42915 
L 101.794765 234.750637 
L 101.835349 234.041197 
L 101.88946 234.419607 
L 101.984155 233.988514 
L 101.997683 234.034525 
L 102.024738 234.134807 
L 102.051794 233.710177 
L 102.092377 234.043172 
L 102.281767 233.399842 
L 102.308823 233.727465 
L 102.349406 233.205738 
L 102.376462 233.507114 
L 102.484685 232.849114 
L 102.51174 233.213018 
L 102.714658 232.565358 
L 102.728186 232.679728 
L 102.741714 232.899056 
L 102.782297 232.412531 
L 102.822881 232.61267 
L 102.904048 232.124517 
L 102.931103 232.147022 
L 102.944631 232.440974 
L 102.998743 232.016005 
L 103.039326 232.085242 
L 103.052854 232.070698 
L 103.134021 231.717164 
L 103.093437 232.151907 
L 103.161077 232.05654 
L 103.20166 231.385239 
L 103.296355 231.547158 
L 103.323411 231.755456 
L 103.350466 231.356122 
L 103.363994 231.344233 
L 103.377522 231.445056 
L 103.39105 231.494097 
L 103.404578 231.457322 
L 103.499272 230.932253 
L 103.5128 231.091548 
L 103.526328 231.340178 
L 103.566912 230.881736 
L 103.607495 231.092466 
L 103.715718 230.502538 
L 103.729246 230.682886 
L 103.742774 230.832656 
L 103.783357 230.514263 
L 103.823941 230.644675 
L 103.837468 230.621844 
L 103.932163 230.20133 
L 103.945691 230.291767 
L 103.959219 230.372239 
L 103.986275 230.290211 
L 104.080969 229.876144 
L 104.040386 230.415297 
L 104.094497 230.013586 
L 104.108025 230.243098 
L 104.148609 229.756229 
L 104.189192 229.97678 
L 104.297415 229.479225 
L 104.337998 229.765818 
L 104.365054 229.382557 
L 104.405638 229.48295 
L 104.419165 229.461161 
L 104.51386 229.095786 
L 104.459749 229.481288 
L 104.527388 229.379799 
L 104.567972 228.780447 
L 104.676194 228.943555 
L 104.689722 229.130435 
L 104.730306 228.684732 
L 104.770889 228.843616 
L 104.865584 228.268217 
L 104.879112 228.448438 
L 104.89264 228.678859 
L 104.946751 228.275023 
L 104.973807 228.456155 
L 105.082029 227.836514 
L 105.109085 228.180806 
L 105.122613 228.196019 
L 105.136141 228.045168 
L 105.217308 227.632667 
L 105.257891 227.866701 
L 105.271419 227.988616 
L 105.298475 227.59529 
L 105.339058 227.739248 
L 105.596087 227.022378 
L 105.406697 227.805301 
L 105.609615 227.141797 
L 105.623143 227.332858 
L 105.663726 226.848465 
L 105.70431 227.178031 
L 105.799005 226.493957 
L 105.82606 226.834135 
L 106.028978 226.206023 
L 106.042506 226.317835 
L 106.056034 226.524449 
L 106.096617 226.058164 
L 106.137201 226.25184 
L 106.231895 225.645455 
L 106.245423 225.837241 
L 106.258951 226.037108 
L 106.313062 225.669097 
L 106.340118 225.841671 
L 106.448341 225.210391 
L 106.475396 225.551536 
L 106.488924 225.637204 
L 106.529508 225.245667 
L 106.556563 225.443087 
L 106.570091 225.42977 
L 106.678314 225.015412 
L 106.691842 225.113405 
L 106.70537 225.162822 
L 106.718898 225.125004 
L 106.813592 224.597378 
L 106.773009 225.212213 
L 106.82712 224.771069 
L 106.840648 224.992021 
L 106.881232 224.566664 
L 106.921815 224.769388 
L 107.030038 224.253414 
L 107.043566 224.477259 
L 107.246483 223.902099 
L 107.070621 224.609755 
L 107.273539 224.066987 
L 107.287067 224.139906 
L 107.32765 223.833192 
L 107.354706 223.959001 
L 107.462929 223.469548 
L 107.476456 223.553577 
L 107.489984 223.685618 
L 107.544096 223.392444 
L 107.571151 223.524139 
L 107.584679 223.491361 
L 107.598207 223.07143 
L 107.692902 223.183708 
L 107.70643 223.251616 
L 107.733485 223.176443 
L 107.82818 222.823991 
L 107.774069 223.193163 
L 107.841708 223.088079 
L 107.882291 222.533999 
L 107.990514 222.673586 
L 108.004042 222.849801 
L 108.044625 222.421116 
L 108.085209 222.576257 
L 108.179904 222.012399 
L 108.13932 222.635584 
L 108.193432 222.193467 
L 108.20696 222.395638 
L 108.261071 222.02344 
L 108.288127 222.197771 
L 108.396349 221.696196 
L 108.423405 221.86346 
L 108.436933 222.060333 
L 108.477516 221.62278 
L 108.5181 221.766376 
L 108.612795 221.360804 
L 108.626322 221.401165 
L 108.653378 221.620704 
L 108.693962 221.220429 
L 108.721017 221.395933 
L 108.82924 220.918807 
L 108.842768 220.980607 
L 108.869824 221.130684 
L 108.910407 220.801054 
L 108.950991 220.99184 
L 108.964518 220.546549 
L 109.059213 220.6064 
L 109.072741 220.684918 
L 109.113325 220.294435 
L 109.167436 220.604335 
L 109.248603 220.042232 
L 109.289186 220.317018 
L 109.302714 220.321268 
L 109.410937 219.862124 
L 109.424465 219.955527 
L 109.505632 220.074908 
L 109.478576 219.673437 
L 109.51916 219.844919 
L 109.532687 219.859423 
L 109.546215 219.470097 
L 109.64091 219.595284 
L 109.654438 219.649232 
L 109.681494 219.531463 
L 109.762661 219.043592 
L 109.722077 219.597971 
L 109.789716 219.36404 
L 109.803244 219.448819 
L 109.843828 219.068682 
L 109.870883 219.259854 
L 109.884411 219.246048 
L 109.992634 218.841213 
L 110.006162 218.936287 
L 110.01969 219.118814 
L 110.060273 218.635203 
L 110.100857 218.733903 
L 110.114384 218.742535 
L 110.195551 218.409375 
L 110.154968 218.815487 
L 110.222607 218.577089 
L 110.236135 218.601583 
L 110.249663 218.421234 
L 110.263191 218.409356 
L 110.33083 218.068211 
L 110.317302 218.513824 
L 110.371413 218.277505 
L 110.384941 218.438402 
L 110.425525 218.056031 
L 110.466108 218.152281 
L 110.560803 217.758795 
L 110.574331 217.927914 
L 110.587859 217.90054 
L 110.601387 217.982119 
L 110.709609 217.453413 
L 110.723137 217.580646 
L 110.736665 217.782233 
L 110.777248 217.337716 
L 110.817832 217.53978 
L 110.912527 216.969602 
L 110.939582 217.270641 
L 111.061333 216.727178 
L 110.966638 217.329873 
L 111.115444 216.988082 
L 111.128972 216.530871 
L 111.223667 216.628643 
L 111.237195 216.750241 
L 111.264251 216.462484 
L 111.318362 216.723426 
L 111.426585 216.086348 
L 111.440112 216.264964 
L 111.45364 216.335935 
L 111.480696 216.263944 
L 111.575391 215.926312 
L 111.521279 216.2856 
L 111.588919 216.055374 
L 111.602446 216.094396 
L 111.629502 215.938861 
L 111.710669 215.610099 
L 111.670086 216.047965 
L 111.737725 215.769055 
L 111.751253 215.952997 
L 111.791836 215.534085 
L 111.83242 215.673348 
L 111.927115 215.281583 
L 111.95417 215.394013 
L 111.967698 215.491325 
L 112.008282 215.140368 
L 112.035337 215.299856 
L 112.14356 214.850681 
L 112.170616 215.042973 
L 112.184143 215.052659 
L 112.278838 214.513917 
L 112.305894 214.741289 
L 112.319422 214.744925 
L 112.33295 214.866322 
L 112.360005 214.504416 
L 112.400589 214.61938 
L 112.414117 214.587143 
L 112.495284 214.064134 
L 112.522339 214.31146 
L 112.535867 214.494721 
L 112.576451 214.070435 
L 112.617034 214.266241 
L 112.725257 213.818543 
L 112.738785 213.908064 
L 112.752313 214.155544 
L 112.792896 213.571214 
L 112.83348 213.818745 
L 112.847007 213.808347 
L 112.941702 213.447499 
L 112.95523 213.555861 
L 112.968758 213.608749 
L 112.995814 213.493203 
L 113.076981 213.155121 
L 113.036397 213.552788 
L 113.104036 213.282315 
L 113.117564 213.482628 
L 113.158148 213.046399 
L 113.198731 213.214079 
L 113.293426 212.839264 
L 113.320482 212.911245 
L 113.33401 213.019996 
L 113.374593 212.668885 
L 113.401649 212.822627 
L 113.509871 212.40293 
L 113.536927 212.562389 
L 113.550455 212.586472 
L 113.563983 212.417785 
L 113.591038 212.23735 
L 113.631622 212.497336 
L 113.739845 212.054245 
L 113.753372 212.137505 
L 113.7669 212.177985 
L 113.780428 212.148893 
L 113.861595 211.646877 
L 113.888651 211.821787 
L 113.902179 212.039847 
L 113.942762 211.629428 
L 113.983346 211.807297 
L 114.091568 211.356992 
L 114.105096 211.43244 
L 114.118624 211.696962 
L 114.159208 211.091812 
L 114.213319 211.374958 
L 114.308014 211.002359 
L 114.321542 211.079303 
L 114.335069 211.144555 
L 114.362125 211.071322 
L 114.443292 210.739363 
L 114.402709 211.077175 
L 114.470348 210.81992 
L 114.483876 211.030091 
L 114.524459 210.59188 
L 114.565043 210.77562 
L 114.673265 210.36045 
L 114.686793 210.451209 
L 114.700321 210.568523 
L 114.740905 210.230416 
L 114.781488 210.319764 
L 114.795016 210.305079 
L 114.889711 209.979551 
L 114.835599 210.322467 
L 114.903239 210.102672 
L 114.916766 210.141159 
L 114.943822 209.989882 
L 115.011461 209.692394 
L 114.997933 210.094356 
L 115.052045 209.823492 
L 115.065573 209.992187 
L 115.106156 209.597613 
L 115.14674 209.729875 
L 115.227907 209.265201 
L 115.254962 209.362017 
L 115.26849 209.599068 
L 115.322601 209.220708 
L 115.349657 209.370038 
L 115.45788 208.932196 
L 115.484936 209.115222 
L 115.498463 209.124804 
L 115.593158 208.613937 
L 115.633742 208.825768 
L 115.64727 208.939237 
L 115.674325 208.593668 
L 115.714909 208.706166 
L 115.971938 208.061219 
L 115.985465 208.161227 
L 115.998993 208.329819 
L 116.039577 207.891724 
L 116.08016 208.014477 
L 116.174855 207.574599 
L 116.215439 207.818504 
L 116.228967 207.864243 
L 116.242494 207.607844 
L 116.323661 207.345591 
L 116.283078 207.71655 
L 116.350717 207.55127 
L 116.364245 207.709101 
L 116.404828 207.31115 
L 116.445412 207.370351 
L 116.526579 207.046502 
L 116.567162 207.177195 
L 116.58069 207.299494 
L 116.594218 206.911833 
L 116.661857 207.110969 
L 116.756552 206.586379 
L 116.77008 206.727196 
L 116.783608 206.91244 
L 116.824191 206.545354 
L 116.864775 206.719463 
L 116.95947 206.254882 
L 117.000053 206.415853 
L 117.013581 206.55244 
L 117.054165 206.202741 
L 117.094748 206.292434 
L 117.189443 205.84236 
L 117.202971 205.973045 
L 117.216499 206.1781 
L 117.257082 205.792432 
L 117.297666 205.959826 
L 117.405888 205.524308 
L 117.419416 205.595952 
L 117.432944 205.842397 
L 117.473527 205.272068 
L 117.514111 205.555129 
L 117.527639 205.53832 
L 117.622334 205.177687 
L 117.635861 205.247966 
L 117.649389 205.312237 
L 117.676445 205.243919 
L 117.77114 204.884731 
L 117.730556 205.340954 
L 117.784668 204.997021 
L 117.798196 205.186775 
L 117.838779 204.77741 
L 117.879363 204.953428 
L 117.987585 204.526842 
L 118.001113 204.764332 
L 118.055224 204.437753 
L 118.095808 204.512537 
L 118.109336 204.49425 
L 118.204031 204.179244 
L 118.149919 204.506467 
L 118.217558 204.295944 
L 118.231086 204.334233 
L 118.244614 204.284673 
L 118.325781 203.923205 
L 118.366365 204.027781 
L 118.379892 204.183681 
L 118.420476 203.8069 
L 118.46106 203.933363 
L 118.555754 203.442492 
L 118.569282 203.59093 
L 118.58281 203.779974 
L 118.636921 203.438075 
L 118.663977 203.582836 
L 118.7722 203.159976 
L 118.785728 203.209903 
L 118.799255 203.458445 
L 118.839839 202.897229 
L 118.89395 203.184839 
L 118.988645 202.827225 
L 119.015701 202.931579 
L 119.029229 202.93785 
L 119.042756 202.901973 
L 119.137451 202.491738 
L 119.096868 202.985876 
L 119.150979 202.621935 
L 119.164507 202.810821 
L 119.205091 202.4189 
L 119.245674 202.595125 
L 119.353897 202.142412 
L 119.367425 202.261671 
L 119.380952 202.37747 
L 119.421536 202.080353 
L 119.462119 202.182218 
L 119.475647 202.160564 
L 119.570342 201.821545 
L 119.58387 201.916787 
L 119.610926 201.979193 
L 119.624453 201.735952 
L 119.678565 201.856311 
L 119.786787 201.44059 
L 119.800315 201.5179 
L 119.813843 201.610216 
L 119.840899 201.328209 
L 119.89501 201.459749 
L 120.070872 200.874246 
L 120.0844 201.006329 
L 120.097928 201.179995 
L 120.138511 200.83311 
L 120.192623 200.982781 
L 120.20615 200.562811 
L 120.300845 200.665576 
L 120.327901 200.828821 
L 120.354957 200.510684 
L 120.422596 200.28189 
L 120.39554 200.612838 
L 120.449651 200.413753 
L 120.463179 200.646636 
L 120.503763 200.130008 
L 120.544346 200.330841 
L 120.557874 200.325167 
L 120.652569 199.943451 
L 120.666097 200.054639 
L 120.679625 200.220139 
L 120.720208 199.770202 
L 120.760792 199.98179 
L 120.855487 199.527225 
L 120.89607 199.736906 
L 120.909598 199.806248 
L 120.936654 199.496298 
L 120.977237 199.687503 
L 121.08546 199.211625 
L 121.098988 199.320619 
L 121.112515 199.498075 
L 121.153099 199.107257 
L 121.193682 199.274745 
L 121.301905 198.86221 
L 121.315433 199.082737 
L 121.437184 198.543384 
L 121.477767 198.760207 
L 121.491295 198.770499 
L 121.572462 198.27225 
L 121.613045 198.544473 
L 121.626573 198.538489 
L 121.734796 198.158152 
L 121.748324 198.236905 
L 121.802435 197.992387 
L 121.829491 198.323009 
L 121.951241 197.799717 
L 121.978297 197.938389 
L 122.01888 197.607205 
L 122.059464 197.771339 
L 122.221798 197.252185 
L 122.262382 197.423529 
L 122.275909 197.517973 
L 122.302965 197.204114 
L 122.343549 197.412349 
L 122.451771 196.881125 
L 122.465299 197.003564 
L 122.478827 197.181503 
L 122.51941 196.807277 
L 122.559994 196.974733 
L 122.668217 196.550289 
L 122.681744 196.750601 
L 122.803495 196.250322 
L 122.7088 196.802679 
L 122.844079 196.464572 
L 122.857606 196.501469 
L 122.871134 196.272033 
L 122.89819 196.405071 
L 123.033468 195.981264 
L 123.060524 196.22454 
L 123.101107 195.852153 
L 123.141691 195.998578 
L 123.236386 195.506017 
L 123.263441 195.803856 
L 123.452831 195.124386 
L 123.466359 195.28634 
L 123.493415 195.455718 
L 123.533998 195.13568 
L 123.574582 195.276027 
L 123.682804 194.926831 
L 123.696332 195.002362 
L 123.70986 195.153045 
L 123.750444 194.747343 
L 123.791027 194.822376 
L 123.804555 194.82927 
L 123.885722 194.543143 
L 123.845138 194.882589 
L 123.912778 194.676176 
L 123.926305 194.694064 
L 123.939833 194.543443 
L 123.966889 194.391349 
L 123.980417 194.497741 
L 123.993945 194.652962 
L 124.034528 194.269337 
L 124.075112 194.541556 
L 124.169806 193.994559 
L 124.196862 194.201434 
L 124.223918 194.251414 
L 124.237446 194.027783 
L 124.291557 194.132037 
L 124.39978 193.680361 
L 124.426835 193.947953 
L 124.467419 193.57683 
L 124.508002 193.736188 
L 124.602697 193.244452 
L 124.629753 193.50478 
L 124.819143 192.859573 
L 124.656809 193.54699 
L 124.846198 193.09795 
L 124.859726 193.212987 
L 124.90031 192.867025 
L 124.940893 193.02014 
L 125.049116 192.649927 
L 125.062644 192.725567 
L 125.116755 192.489352 
L 125.143811 192.798323 
L 125.265561 192.299779 
L 125.279089 192.401619 
L 125.292617 192.432224 
L 125.319673 192.30553 
L 125.40084 192.021272 
L 125.360256 192.385233 
L 125.427895 192.145268 
L 125.441423 192.297541 
L 125.482007 191.945378 
L 125.52259 192.054912 
L 125.617285 191.720747 
L 125.644341 191.806215 
L 125.657868 191.884961 
L 125.698452 191.59146 
L 125.725508 191.717152 
L 125.83373 191.334266 
L 125.860786 191.486901 
L 125.874314 191.49284 
L 125.969009 191.024822 
L 125.996064 191.226085 
L 126.02312 191.321653 
L 126.036648 191.096099 
L 126.117815 190.796479 
L 126.077231 191.10541 
L 126.158398 190.996768 
L 126.171926 191.029512 
L 126.266621 190.630527 
L 126.280149 190.67568 
L 126.307205 190.783632 
L 126.347788 190.526936 
L 126.374844 190.755781 
L 126.483066 190.242107 
L 126.496594 190.329906 
L 126.510122 190.546913 
L 126.550706 190.073604 
L 126.604817 190.331804 
L 126.699512 189.86846 
L 126.726568 190.136066 
L 126.848318 189.703936 
L 126.875374 189.849418 
L 126.888902 189.835723 
L 126.997124 189.497459 
L 127.010652 189.570232 
L 127.02418 189.711188 
L 127.064763 189.322117 
L 127.105347 189.401198 
L 127.118875 189.4017 
L 127.200042 189.12763 
L 127.159458 189.446401 
L 127.227097 189.249428 
L 127.240625 189.267972 
L 127.254153 189.130787 
L 127.281209 188.974735 
L 127.321792 189.188278 
L 127.430015 188.80413 
L 127.443543 188.869702 
L 127.457071 188.902326 
L 127.470599 188.877689 
L 127.551766 188.45288 
L 127.578821 188.591571 
L 127.592349 188.769853 
L 127.632933 188.428696 
L 127.673516 188.56616 
L 127.781739 188.182775 
L 127.795267 188.241686 
L 127.808794 188.339495 
L 127.849378 188.028372 
L 127.889961 188.180631 
L 127.903489 188.184429 
L 127.998184 187.86153 
L 128.011712 187.918558 
L 128.02524 187.96998 
L 128.052296 187.910409 
L 128.14699 187.624955 
L 128.160518 187.685058 
L 128.174046 187.856513 
L 128.21463 187.491994 
L 128.255213 187.63567 
L 128.363436 187.277234 
L 128.376964 187.349592 
L 128.390491 187.518839 
L 128.431075 187.085855 
L 128.471658 187.227308 
L 128.485186 187.219574 
L 128.579881 186.936175 
L 128.52577 187.223064 
L 128.593409 187.032751 
L 128.606937 187.062814 
L 128.633992 186.940042 
L 128.701632 186.684195 
L 128.688104 187.017748 
L 128.742215 186.782986 
L 128.755743 186.921438 
L 128.796327 186.591015 
L 128.83691 186.694428 
L 128.931605 186.371966 
L 128.958661 186.45309 
L 128.972188 186.52663 
L 129.012772 186.245047 
L 129.039828 186.365129 
L 129.14805 185.996757 
L 129.175106 186.138999 
L 129.188634 186.145926 
L 129.283329 185.716182 
L 129.323912 185.88064 
L 129.33744 185.974832 
L 129.364496 185.688819 
L 129.405079 185.772401 
L 129.729747 185.084669 
L 129.743275 185.151263 
L 129.756803 185.341016 
L 129.797386 184.878883 
L 129.83797 185.070579 
L 129.851498 185.057798 
L 129.946193 184.757327 
L 129.95972 184.836021 
L 129.973248 184.8769 
L 130.000304 184.786559 
L 130.094999 184.527068 
L 130.054415 184.863426 
L 130.108527 184.597558 
L 130.122054 184.74584 
L 130.162638 184.405058 
L 130.203221 184.530168 
L 130.297916 184.222483 
L 130.324972 184.27025 
L 130.3385 184.352662 
L 130.379083 184.072486 
L 130.406139 184.18679 
L 130.582001 183.710541 
L 130.595529 183.751045 
L 130.609057 183.892302 
L 130.64964 183.586035 
L 130.703751 183.820379 
L 130.798446 183.334165 
L 130.825502 183.50197 
L 130.83903 183.497986 
L 130.852558 183.551187 
L 130.947252 183.16354 
L 130.96078 183.18055 
L 130.987836 183.291632 
L 131.02842 183.018053 
L 131.055475 183.256381 
L 131.163698 182.702802 
L 131.190754 182.910678 
L 131.204281 182.930337 
L 131.217809 182.915706 
L 131.312504 182.607895 
L 131.326032 182.65978 
L 131.33956 182.710074 
L 131.366615 182.654028 
L 131.46131 182.34333 
L 131.420727 182.724796 
L 131.474838 182.433631 
L 131.488366 182.586808 
L 131.528949 182.24793 
L 131.569533 182.384465 
L 131.677756 182.034637 
L 131.691284 182.107673 
L 131.704811 182.196537 
L 131.745395 181.928641 
L 131.785978 181.995032 
L 131.799506 181.978709 
L 131.894201 181.704862 
L 131.907729 181.795692 
L 131.921257 181.825475 
L 131.934785 181.788496 
L 132.015952 181.479969 
L 132.056535 181.555561 
L 132.070063 181.682637 
L 132.110646 181.368274 
L 132.15123 181.466418 
L 132.232397 181.100392 
L 132.259453 181.157161 
L 132.27298 181.337786 
L 132.327092 181.037012 
L 132.354147 181.148005 
L 132.46237 180.790746 
L 132.475898 180.82609 
L 132.489426 181.027763 
L 132.530009 180.563275 
L 132.584121 180.791566 
L 132.678816 180.488077 
L 132.705871 180.564464 
L 132.732927 180.539713 
L 132.827622 180.208517 
L 132.84115 180.291919 
L 132.854677 180.451794 
L 132.895261 180.122457 
L 132.935844 180.256651 
L 133.044067 179.868867 
L 133.057595 179.96576 
L 133.071123 180.057867 
L 133.111706 179.815254 
L 133.15229 179.889632 
L 133.165818 179.871162 
L 133.260513 179.580107 
L 133.27404 179.652695 
L 133.301096 179.704249 
L 133.314624 179.503688 
L 133.368735 179.590328 
L 133.476958 179.236635 
L 133.490486 179.296305 
L 133.504014 179.369778 
L 133.531069 179.138842 
L 133.585181 179.317054 
L 133.693403 178.920515 
L 133.706931 178.989441 
L 133.720459 179.023306 
L 133.747515 178.942636 
L 133.828682 178.692492 
L 133.788098 178.975376 
L 133.855737 178.893273 
L 133.96396 178.455707 
L 134.004544 178.555333 
L 134.018071 178.658122 
L 134.058655 178.378385 
L 134.099238 178.444474 
L 134.193933 178.073515 
L 134.207461 178.174172 
L 134.220989 178.327075 
L 134.261572 178.029302 
L 134.302156 178.147483 
L 134.410379 177.733647 
L 134.423906 177.847688 
L 134.437434 177.938736 
L 134.491546 177.719056 
L 134.518601 177.799831 
L 134.532129 177.78134 
L 134.626824 177.483799 
L 134.640352 177.531966 
L 134.65388 177.580811 
L 134.680935 177.526482 
L 134.77563 177.225069 
L 134.735047 177.588108 
L 134.789158 177.31176 
L 134.802686 177.454362 
L 134.843269 177.13333 
L 134.883853 177.262705 
L 134.992076 176.91003 
L 135.005603 177.086427 
L 135.127354 176.631968 
L 135.167937 176.801472 
L 135.181465 176.811633 
L 135.262632 176.393168 
L 135.303216 176.60527 
L 135.316744 176.598975 
L 135.424966 176.273814 
L 135.438494 176.3347 
L 135.452022 176.38897 
L 135.479078 176.142284 
L 135.519661 176.306459 
L 135.709051 175.781645 
L 135.722579 175.878027 
L 135.736107 176.012009 
L 135.77669 175.62735 
L 135.817274 175.853969 
L 135.911968 175.467917 
L 135.952552 175.596487 
L 135.96608 175.673873 
L 135.993135 175.416525 
L 136.033719 175.495412 
L 136.290748 174.954091 
L 136.304276 175.02868 
L 136.317804 175.147671 
L 136.358387 174.827414 
L 136.398971 175.028912 
L 136.493665 174.56525 
L 136.520721 174.765138 
L 136.723639 174.305113 
L 136.737166 174.375491 
L 136.750694 174.504008 
L 136.791278 174.195171 
L 136.831861 174.308947 
L 136.926556 173.89406 
L 136.953612 174.128496 
L 137.143002 173.551794 
L 137.156529 173.681628 
L 137.183585 173.816468 
L 137.224169 173.549356 
L 137.264752 173.657074 
L 137.372975 173.35675 
L 137.386503 173.415118 
L 137.40003 173.447803 
L 137.413558 173.420802 
L 137.508253 173.05202 
L 137.46767 173.455261 
L 137.521781 173.15909 
L 137.535309 173.292285 
L 137.575892 173.019748 
L 137.616476 173.130395 
L 137.724699 172.772331 
L 137.751754 172.87919 
L 137.765282 172.987182 
L 137.805866 172.714692 
L 137.846449 172.77308 
L 137.941144 172.486477 
L 137.9682 172.577615 
L 137.981727 172.628848 
L 138.022311 172.407292 
L 138.049367 172.486693 
L 138.157589 172.145471 
L 138.171117 172.191331 
L 138.184645 172.272452 
L 138.238756 172.065809 
L 138.265812 172.146912 
L 138.27934 172.131095 
L 138.374035 171.848031 
L 138.387563 171.890759 
L 138.40109 171.931329 
L 138.428146 171.882741 
L 138.522841 171.626335 
L 138.536369 171.782647 
L 138.671647 171.429686 
L 138.685175 171.480591 
L 138.698703 171.590347 
L 138.739286 171.30431 
L 138.77987 171.395317 
L 138.874565 171.007683 
L 138.833981 171.410653 
L 138.90162 171.236246 
L 139.09101 170.746142 
L 139.131594 170.961289 
L 139.172177 170.669419 
L 139.199233 170.769952 
L 139.212761 170.753093 
L 139.307455 170.470867 
L 139.334511 170.536319 
L 139.348039 170.622856 
L 139.388622 170.344342 
L 139.415678 170.453937 
L 139.523901 170.124772 
L 139.550956 170.239194 
L 139.564484 170.243292 
L 139.659179 169.855255 
L 139.686235 170.00584 
L 139.71329 170.084852 
L 139.726818 169.902255 
L 139.807985 169.646376 
L 139.848569 169.799062 
L 139.862097 169.82691 
L 139.875625 169.650917 
L 139.90268 169.733578 
L 140.037959 169.386772 
L 140.065014 169.571362 
L 140.105598 169.279057 
L 140.146181 169.386538 
L 140.240876 168.995294 
L 140.267932 169.199284 
L 140.457321 168.658512 
L 140.484377 168.847091 
L 140.497905 168.906549 
L 140.538488 168.648546 
L 140.565544 168.762247 
L 140.579072 168.750942 
L 140.687295 168.458172 
L 140.700823 168.513878 
L 140.71435 168.631449 
L 140.754934 168.303926 
L 140.795517 168.369449 
L 140.809045 168.368116 
L 140.890212 168.135193 
L 140.849629 168.391394 
L 140.917268 168.222683 
L 140.930796 168.236573 
L 140.957851 168.114757 
L 141.025491 167.884472 
L 141.011963 168.16511 
L 141.066074 167.991109 
L 141.079602 168.091331 
L 141.120185 167.833433 
L 141.160769 167.889081 
L 141.255464 167.612909 
L 141.282519 167.688881 
L 141.296047 167.738391 
L 141.309575 167.497553 
L 141.363687 167.60182 
L 141.471909 167.280632 
L 141.485437 167.322774 
L 141.498965 167.399832 
L 141.539548 167.146327 
L 141.580132 167.261916 
L 141.59366 167.263797 
L 141.688355 166.989909 
L 141.71541 167.068201 
L 142.337691 165.996219 
L 142.351219 166.080512 
L 142.364746 166.195839 
L 142.40533 165.917779 
L 142.445913 166.116333 
L 142.540608 165.711918 
L 142.581192 165.811309 
L 142.59472 165.87867 
L 142.621775 165.648321 
L 142.662359 165.760679 
L 142.770582 165.372897 
L 142.784109 165.459452 
L 142.797637 165.580898 
L 142.838221 165.310849 
L 142.878804 165.420793 
L 142.973499 165.066145 
L 143.014083 165.185937 
L 143.02761 165.262316 
L 143.054666 165.030456 
L 143.09525 165.08878 
L 143.704002 164.025732 
L 143.71753 164.108906 
L 143.731058 164.218598 
L 143.771641 163.971369 
L 143.812225 164.154389 
L 143.90692 163.781517 
L 143.947503 163.845141 
L 143.961031 163.926833 
L 144.001615 163.696657 
L 144.02867 163.799474 
L 144.136893 163.406305 
L 144.150421 163.49555 
L 144.163949 163.610295 
L 144.204532 163.370386 
L 144.245116 163.463848 
L 144.339811 163.134485 
L 144.380394 163.22537 
L 144.393922 163.318264 
L 144.434505 163.071567 
L 144.475089 163.126173 
L 144.556256 162.798638 
L 144.583312 162.87999 
L 144.596839 163.015341 
L 144.637423 162.756555 
L 144.678006 162.846368 
L 144.786229 162.535911 
L 144.799757 162.573694 
L 144.813285 162.733756 
L 144.853868 162.3477 
L 144.894452 162.525247 
L 144.90798 162.511875 
L 145.002675 162.251572 
L 145.02973 162.324311 
L 145.489677 161.671109 
L 145.584371 161.434396 
L 145.597899 161.501631 
L 145.611427 161.524237 
L 145.638483 161.43161 
L 145.706122 161.232286 
L 145.692594 161.478667 
L 145.746706 161.285276 
L 145.760233 161.387918 
L 145.800817 161.128192 
L 145.8414 161.203783 
L 145.922567 160.903085 
L 145.949623 160.93449 
L 145.963151 161.077987 
L 146.017262 160.831575 
L 146.044318 160.913218 
L 146.152541 160.615603 
L 146.179596 160.712421 
L 146.193124 160.71744 
L 146.206652 160.62518 
L 146.287819 160.3847 
L 146.247235 160.657007 
L 146.328402 160.489215 
L 146.34193 160.560266 
L 146.368986 160.341639 
L 146.409569 160.396696 
L 146.869516 159.555996 
L 146.910099 159.688903 
L 146.923627 159.719628 
L 146.950683 159.519787 
L 146.977739 159.601893 
L 147.167128 159.208765 
L 147.180656 159.25168 
L 147.194184 159.310077 
L 147.22124 159.129145 
L 147.275351 159.257036 
L 147.383574 158.924381 
L 147.397102 158.972061 
L 147.410629 158.997639 
L 147.437685 158.935202 
L 147.53238 158.723428 
L 147.478269 158.947457 
L 147.545908 158.794735 
L 147.559436 158.808647 
L 147.572963 158.753041 
L 147.65413 158.50813 
L 147.694714 158.578614 
L 147.708242 158.662568 
L 147.748825 158.428566 
L 147.789409 158.480119 
L 147.884104 158.163451 
L 147.897631 158.243761 
L 147.911159 158.360551 
L 147.951743 158.125759 
L 147.992326 158.206692 
L 148.100549 157.908536 
L 148.114077 157.942578 
L 148.127605 158.089311 
L 148.168188 157.730108 
L 148.208772 157.896088 
L 148.2223 157.88132 
L 148.316994 157.63092 
L 148.34405 157.696616 
L 148.371106 157.656752 
L 148.465801 157.392982 
L 148.425217 157.694761 
L 148.479328 157.462037 
L 148.492856 157.573067 
L 148.53344 157.314718 
L 148.574023 157.409483 
L 148.682246 157.110734 
L 148.695774 157.245733 
L 148.817524 156.869993 
L 148.858108 156.996581 
L 148.871636 157.006597 
L 148.952803 156.749267 
L 148.993386 156.810309 
L 149.006914 156.816899 
L 149.115137 156.533696 
L 149.128665 156.578223 
L 149.142192 156.622338 
L 149.169248 156.428821 
L 149.209832 156.545063 
L 149.399221 156.096628 
L 149.412749 156.170948 
L 149.426277 156.273715 
L 149.466861 156.036522 
L 149.507444 156.102868 
L 149.520972 156.108725 
L 149.602139 155.824537 
L 149.642722 155.908994 
L 149.65625 155.973319 
L 149.683306 155.767443 
L 149.723889 155.819737 
L 150.183836 155.007516 
L 150.197364 155.07715 
L 150.237947 155.15698 
L 150.265003 154.965922 
L 150.305586 155.058504 
L 150.413809 154.755912 
L 150.427337 154.811788 
L 150.440865 154.912505 
L 150.481448 154.662284 
L 150.522032 154.746452 
L 150.616727 154.402717 
L 150.643782 154.577758 
L 150.8467 154.187969 
L 150.860228 154.321383 
L 150.900811 154.007058 
L 150.954923 154.157622 
L 151.063145 153.899764 
L 151.076673 153.942848 
L 151.090201 153.970869 
L 151.103729 153.948999 
L 151.198424 153.637587 
L 151.15784 153.963655 
L 151.211951 153.720611 
L 151.225479 153.820435 
L 151.266063 153.607597 
L 151.306646 153.681592 
L 151.414869 153.346118 
L 151.441925 153.494423 
L 151.496036 153.319661 
L 151.536619 153.365117 
L 151.631314 153.123899 
L 151.65837 153.184084 
L 151.671898 153.231385 
L 151.712481 153.036759 
L 151.739537 153.100384 
L 151.84776 152.816198 
L 151.874815 152.908533 
L 151.888343 152.903964 
L 151.996566 152.61636 
L 152.010094 152.73821 
L 152.213011 152.344324 
L 152.226539 152.45902 
L 152.267123 152.192604 
L 152.321234 152.320423 
L 152.429457 152.052179 
L 152.442985 152.093576 
L 152.497096 151.930405 
L 152.524152 152.118887 
L 152.645902 151.770287 
L 152.65943 151.825143 
L 152.672958 151.842485 
L 152.700013 151.764534 
L 152.78118 151.500071 
L 152.740597 151.791551 
L 152.808236 151.64848 
L 152.821764 151.670325 
L 152.84882 151.530817 
L 152.889403 151.555301 
L 153.011154 151.305089 
L 153.038209 151.418067 
L 153.078793 151.181173 
L 153.105849 151.267217 
L 153.214071 150.995795 
L 153.241127 151.07514 
L 153.254655 151.07778 
L 153.268183 150.972266 
L 153.34935 150.884828 
L 153.444044 150.733738 
L 153.403461 150.931341 
L 153.4711 150.773951 
L 155.09444 148.503035 
L 155.107968 148.563624 
L 155.121496 148.656661 
L 155.16208 148.428733 
L 155.202663 148.509561 
L 155.297358 148.19419 
L 155.337942 148.302423 
L 155.351469 148.353212 
L 155.378525 148.165876 
L 155.419109 148.202242 
L 156.0955 147.203962 
L 156.122556 147.258294 
L 156.136084 147.347728 
L 156.176667 147.121846 
L 156.217251 147.180864 
L 156.311946 146.957201 
L 156.339001 146.986113 
L 156.352529 147.030973 
L 156.393113 146.844705 
L 156.420168 146.907535 
L 156.609558 146.547838 
L 156.650142 146.643397 
L 156.663669 146.436535 
L 156.717781 146.582195 
L 156.812476 146.244949 
L 156.853059 146.341183 
L 156.866587 146.364646 
L 156.961282 146.095183 
L 156.988338 146.164875 
L 157.028921 146.066109 
L 157.069505 146.125141 
L 157.177727 145.789301 
L 157.204783 145.950594 
L 157.245366 145.67345 
L 157.299478 145.809939 
L 157.394173 145.496847 
L 157.421228 145.63727 
L 157.624146 145.28419 
L 157.637674 145.311107 
L 157.651202 145.375491 
L 157.691785 145.174564 
L 157.718841 145.300803 
L 157.827063 144.93784 
L 157.840591 145.004168 
L 157.854119 145.087387 
L 157.90823 144.898005 
L 157.935286 144.962354 
L 158.029981 144.700235 
L 158.070564 144.752629 
L 158.084092 144.825766 
L 158.124676 144.623095 
L 158.165259 144.663758 
L 158.246426 144.401325 
L 158.273482 144.446728 
L 158.28701 144.55181 
L 158.341121 144.347672 
L 158.368177 144.406228 
L 158.4764 144.149731 
L 158.503455 144.22684 
L 158.530511 144.13133 
L 158.611678 143.934731 
L 158.571094 144.179445 
L 158.652261 144.023425 
L 158.665789 144.068028 
L 158.692845 143.892895 
L 158.733428 143.927124 
L 159.342181 143.020728 
L 159.369237 143.105548 
L 159.382765 143.170999 
L 159.423348 142.971843 
L 159.450404 143.082992 
L 159.545099 142.784122 
L 159.585682 142.833726 
L 159.59921 142.883153 
L 159.626266 142.714331 
L 159.666849 142.77961 
L 159.775072 142.471923 
L 159.7886 142.532273 
L 159.802128 142.614249 
L 159.842711 142.420537 
L 159.883295 142.485628 
L 159.977989 142.221255 
L 160.018573 142.283797 
L 160.032101 142.34077 
L 160.072684 142.161622 
L 160.09974 142.202177 
L 160.708493 141.292472 
L 160.735548 141.372825 
L 160.749076 141.454327 
L 160.78966 141.228899 
L 160.816715 141.354648 
L 160.938466 141.077911 
L 160.951994 141.104819 
L 160.965521 141.163587 
L 161.006105 140.975734 
L 161.033161 141.05378 
L 161.141383 140.74726 
L 161.168439 140.881699 
L 161.344301 140.526322 
L 161.371357 140.538936 
L 161.398412 140.626844 
L 161.425468 140.46947 
L 161.560746 140.231712 
L 161.466051 140.491108 
L 161.587802 140.262335 
L 161.60133 140.358912 
L 161.655441 140.167228 
L 161.682497 140.221067 
L 161.790719 139.976662 
L 161.831303 140.018991 
L 161.844831 140.018505 
L 161.925998 139.779375 
L 161.966581 139.848832 
L 161.980109 139.889848 
L 162.007165 139.725506 
L 162.047748 139.757382 
L 162.507695 139.046284 
L 162.548278 139.133717 
L 162.561806 139.145648 
L 162.575334 139.02777 
L 162.737668 138.821928 
L 162.615917 139.057314 
L 162.751196 138.855615 
L 162.764724 138.927112 
L 162.805307 138.729929 
L 162.845891 138.780263 
L 162.954113 138.554797 
L 162.967641 138.65341 
L 163.089392 138.34122 
L 163.129975 138.414023 
L 163.170559 138.294367 
L 163.211142 138.335041 
L 163.292309 138.106972 
L 163.332893 138.152623 
L 163.346421 138.203674 
L 163.387004 138.034021 
L 163.41406 138.073705 
L 164.103979 137.124154 
L 164.117507 137.166905 
L 164.131035 137.241446 
L 164.171619 137.045472 
L 164.212202 137.102343 
L 164.320425 136.866969 
L 164.333953 136.961421 
L 164.53687 136.613947 
L 164.550398 136.706879 
L 164.590982 136.474209 
L 164.631565 136.580523 
L 164.739788 136.38613 
L 164.888594 136.130799 
L 164.780371 136.404002 
L 164.902122 136.187554 
L 164.91565 136.26129 
L 164.969761 136.089729 
L 164.996817 136.139393 
L 165.172679 135.858162 
L 165.389124 135.531728 
L 165.402652 135.566973 
L 165.429707 135.675827 
L 165.443235 135.53733 
L 165.456763 135.546024 
L 165.497347 135.568724 
L 165.592041 135.34748 
L 165.673209 135.26894 
L 165.72732 135.294898 
L 165.822015 135.002945 
L 165.84907 135.105319 
L 165.903182 134.953949 
L 165.930237 134.994738 
L 165.943765 135.013027 
L 166.051988 134.776995 
L 166.065516 134.80888 
L 166.079044 134.873418 
L 166.119627 134.688479 
L 166.160211 134.734876 
L 166.254905 134.471518 
L 166.281961 134.591968 
L 166.471351 134.201934 
L 166.498407 134.305232 
L 166.511934 134.330353 
L 166.53899 134.223265 
L 166.701324 134.0081 
L 166.755435 133.895763 
L 166.796019 134.025717 
L 166.904242 133.74465 
L 166.931297 133.789339 
L 166.971881 133.709328 
L 167.012464 133.741968 
L 167.120687 133.509827 
L 167.837662 132.566902 
L 167.864718 132.658171 
L 167.878246 132.704347 
L 167.918829 132.532815 
L 167.945885 132.589211 
L 168.054108 132.404387 
L 168.202914 132.154549 
L 168.216442 132.208725 
L 168.22997 132.268799 
L 168.284081 132.113604 
L 168.311137 132.158425 
L 168.419359 131.92909 
L 168.446415 131.969549 
L 168.459943 132.030429 
L 168.500526 131.856995 
L 168.54111 131.886496 
L 168.635805 131.696884 
L 168.66286 131.722788 
L 168.676388 131.763837 
L 168.716972 131.598031 
L 168.744027 131.646937 
L 168.906361 131.394434 
L 169.122807 131.189151 
L 169.217502 131.006438 
L 169.244557 131.043101 
L 169.258085 131.059236 
L 169.271613 130.904626 
L 169.285141 130.92184 
L 169.325724 130.962811 
L 169.35278 130.880068 
L 169.501586 130.645955 
L 169.393364 130.920079 
L 169.515114 130.677407 
L 169.528642 130.764708 
L 169.569225 130.542044 
L 169.609809 130.614386 
L 169.623337 130.630619 
L 169.650392 130.500747 
L 169.677448 130.540507 
L 169.866838 130.241382 
L 169.893893 130.291707 
L 170.069755 130.050597 
L 170.150922 129.874529 
L 170.191506 129.933236 
L 170.286201 129.792225 
L 170.435007 129.596608 
L 170.935537 128.953218 
L 170.97612 129.015935 
L 170.989648 129.042378 
L 171.016704 128.907976 
L 171.04376 128.938458 
L 174.046939 125.412464 
L 174.060467 125.446252 
L 174.073995 125.499389 
L 174.114578 125.343619 
L 174.141634 125.433819 
L 174.249857 125.164855 
L 174.29044 125.211845 
L 174.303968 125.235285 
L 174.331024 125.110182 
L 174.358079 125.13521 
L 174.818026 124.615382 
L 174.912721 124.453342 
L 174.939776 124.488194 
L 175.129166 124.207461 
L 175.142694 124.226003 
L 175.156222 124.245963 
L 175.183277 124.131205 
L 175.237389 124.183001 
L 175.345612 123.968902 
L 175.359139 123.994063 
L 175.399723 123.947138 
L 175.48089 123.805189 
L 175.521473 123.824546 
L 175.535001 123.824416 
L 175.616168 123.638078 
L 175.656752 123.66721 
L 175.67028 123.69893 
L 175.710863 123.570741 
L 175.737919 123.5887 
L 176.346671 122.812844 
L 176.373727 122.859201 
L 176.387255 122.907364 
L 176.427838 122.748591 
L 176.454894 122.823328 
L 176.576645 122.605924 
L 176.590172 122.619825 
L 176.6037 122.654199 
L 176.644284 122.510741 
L 176.671339 122.538377 
L 176.684867 122.554641 
L 176.711923 122.441616 
L 176.738979 122.465604 
L 177.009535 122.126418 
L 177.023063 122.137192 
L 177.036591 122.175805 
L 177.077175 122.038283 
L 177.10423 122.067413 
L 178.971072 119.994505 
L 178.9846 120.02338 
L 179.025183 119.900859 
L 179.052239 119.919569 
L 179.742158 119.099902 
L 179.755686 119.123747 
L 179.769214 119.167628 
L 179.809798 119.02876 
L 179.850381 119.054124 
L 179.945076 118.846651 
L 179.985659 118.892713 
L 179.999187 118.909824 
L 180.026243 118.802284 
L 180.053299 118.821986 
L 180.459134 118.3196 
L 180.472662 118.338169 
L 180.486189 118.399219 
L 180.526773 118.224186 
L 180.567356 118.264772 
L 180.662051 118.14508 
L 180.810857 117.966203 
L 181.040831 117.707626 
L 181.054358 117.729504 
L 181.094942 117.681138 
L 181.23022 117.514245 
L 181.446666 117.317558 
L 181.541361 117.167331 
L 181.568416 117.185867 
L 181.595472 117.079944 
L 181.649583 117.109272 
L 181.757806 116.932307 
L 181.784862 116.962878 
L 182.393614 116.286152 
L 182.54242 116.09497 
L 182.677699 115.984311 
L 182.826505 115.771998 
L 182.880616 115.8104 
L 182.9212 115.736652 
L 183.462313 115.18037 
L 183.557008 115.01777 
L 183.584064 115.044942 
L 183.759926 114.845077 
L 183.841093 114.694671 
L 183.881676 114.726327 
L 183.976371 114.611984 
L 184.125177 114.443956 
L 184.301039 114.276861 
L 184.314567 114.29077 
L 184.355151 114.186064 
L 184.382206 114.203681 
L 184.571596 113.952902 
L 184.585124 113.98787 
L 184.625707 113.873407 
L 184.666291 113.895979 
L 184.679819 113.917598 
L 184.706874 113.820432 
L 184.747458 113.819057 
L 186.181408 112.321066 
L 186.208464 112.227089 
L 186.249048 112.277363 
L 186.451965 112.013544 
L 186.479021 112.023715 
L 186.506077 111.928461 
L 186.533132 111.979379 
L 186.722522 111.698225 
L 186.73605 111.716249 
L 186.749578 111.74099 
L 186.803689 111.633195 
L 186.830745 111.680655 
L 187.020134 111.409711 
L 187.04719 111.441076 
L 187.087774 111.347351 
L 187.114829 111.354057 
L 188.075306 110.375695 
L 188.17 110.2227 
L 188.210584 110.23294 
L 188.440557 110.000884 
L 188.521724 109.85715 
L 188.562308 109.875914 
L 188.643475 109.791918 
L 189.482201 108.932164 
L 189.495728 108.940937 
L 189.522784 108.886456 
L 189.67159 108.739671 
L 189.820396 108.532451 
L 189.833924 108.556471 
L 189.942147 108.501581 
L 190.090953 108.306753 
L 190.226232 108.201143 
L 190.402093 107.983833 
L 190.537372 107.852681 
L 190.902623 107.454625 
L 190.916151 107.475616 
L 190.929679 107.496302 
L 190.98379 107.401925 
L 190.997318 107.409795 
L 191.105541 107.314728 
L 191.267875 107.125985 
L 191.470792 106.943028 
L 191.619599 106.78549 
L 191.781933 106.612355 
L 191.890155 106.548924 
L 192.052489 106.357958 
L 192.214823 106.182061 
L 192.323046 106.121497 
L 192.48538 105.913015 
L 193.432329 104.965266 
L 193.445857 104.978412 
L 193.459384 104.999854 
L 193.499968 104.909282 
L 193.527024 104.91657 
L 193.770525 104.679261 
L 193.919331 104.489281 
L 194.068137 104.375423 
L 194.216943 104.191464 
L 194.243999 104.216895 
L 195.042141 103.433087 
L 195.055669 103.448059 
L 195.096253 103.362177 
L 195.123308 103.364053 
L 204.05168 94.99402 
L 204.227542 94.830326 
L 204.633377 94.467296 
L 204.728072 94.385781 
L 204.903934 94.214341 
L 205.039212 94.089293 
L 205.309769 93.860732 
L 205.499159 93.692455 
L 206.527274 92.78014 
L 206.703136 92.608572 
L 206.906054 92.433583 
L 207.203666 92.164654 
L 207.623029 91.802677 
L 207.853002 91.587467 
L 208.05592 91.412116 
L 208.542922 91.00197 
L 208.840534 90.731224 
L 210.572097 89.233394 
L 210.896766 88.948804 
L 211.086155 88.787679 
L 212.195438 87.83856 
L 212.750079 87.369597 
L 213.291193 86.911081 
L 216.064399 84.594546 
L 216.862541 83.971372 
L 218.485882 83.969098 
L 218.99994 83.966278 
L 219.554581 83.968918 
L 222.665983 83.968292 
L 223.220624 83.96566 
L 224.235212 83.968952 
L 224.74927 83.966452 
L 225.303911 83.96905 
L 231.229104 83.969235 
L 231.783745 83.966687 
L 234.137588 83.967889 
L 234.976314 83.96831 
L 235.530956 83.965671 
L 236.545543 83.968966 
L 237.059601 83.966434 
L 237.614242 83.969036 
L 242.998321 83.969077 
L 243.525907 83.969111 
L 254.38876 83.96875 
L 254.902817 83.966699 
L 255.470986 83.969143 
L 255.998572 83.969044 
L 261.707319 83.969175 
L 262.234905 83.969009 
L 266.807313 83.968809 
L 267.321371 83.966628 
L 267.88954 83.969189 
L 268.417126 83.968993 
L 272.610755 83.968674 
L 273.124813 83.966789 
L 273.692982 83.969083 
L 274.220568 83.969106 
L 284.27175 83.968407 
L 284.826391 83.965738 
L 285.96273 83.966189 
L 290.616305 83.968501 
L 291.143891 83.969492 
L 293.132483 83.966072 
L 293.660069 83.966953 
L 295.039908 83.96811 
L 295.986856 83.968146 
L 296.555026 83.967351 
L 297.231417 83.968707 
L 297.745475 83.966751 
L 298.313644 83.969109 
L 298.84123 83.96908 
L 306.40329 83.967199 
L 307.40435 83.968065 
L 308.351299 83.968191 
L 308.919468 83.967303 
L 309.582332 83.969486 
L 311.625035 83.966039 
L 312.152621 83.966998 
L 313.424238 83.968121 
L 314.41177 83.96965 
L 315.426357 83.967114 
L 316.048638 83.96887 
L 316.562696 83.966554 
L 317.130865 83.969236 
L 317.685506 83.966689 
L 320.03935 83.967887 
L 320.878075 83.968312 
L 321.432717 83.965672 
L 322.447304 83.968968 
L 322.961362 83.966432 
L 323.516003 83.969035 
L 328.845971 83.96906 
L 329.373557 83.969128 
L 343.388395 83.967289 
L 344.321816 83.96553 
L 344.944096 83.969657 
L 345.904573 83.967215 
L 346.540381 83.965866 
L 348.041971 83.969301 
L 348.61014 83.965975 
L 349.137726 83.967087 
L 350.287592 83.965548 
L 350.909872 83.969663 
L 351.816237 83.96733 
L 352.492629 83.968724 
L 353.006687 83.966731 
L 353.574856 83.969122 
L 354.102442 83.969066 
L 360.798721 83.966772 
L 362.719673 83.968019 
L 363.612511 83.968211 
L 364.18068 83.967282 
L 364.843544 83.969478 
L 366.953886 83.968857 
L 369.524175 83.968103 
L 370.105872 83.969611 
L 371.336905 83.966768 
L 371.905074 83.969097 
L 372.43266 83.969092 
L 380.914613 83.96766 
L 381.631589 83.965508 
L 382.321508 83.968353 
L 382.87615 83.965699 
L 383.944849 83.969018 
L 384.472434 83.969166 
L 398.487273 83.967225 
L 398.487273 83.967225 
" style="fill:none;stroke:#d62728;stroke-linecap:square;stroke-width:1.5;"/>
   </g>
   <g id="line2d_21">
    <path clip-path="url(#pf31c4711b6)" d="M 73.832727 85.604163 
L 398.487273 85.604163 
L 398.487273 85.604163 
" style="fill:none;stroke:#9467bd;stroke-linecap:square;stroke-width:1.5;"/>
   </g>
   <g id="patch_3">
    <path d="M 57.6 307.584 
L 57.6 41.472 
" style="fill:none;stroke:#000000;stroke-linecap:square;stroke-linejoin:miter;stroke-width:0.8;"/>
   </g>
   <g id="patch_4">
    <path d="M 414.72 307.584 
L 414.72 41.472 
" style="fill:none;stroke:#000000;stroke-linecap:square;stroke-linejoin:miter;stroke-width:0.8;"/>
   </g>
   <g id="patch_5">
    <path d="M 57.6 307.584 
L 414.72 307.584 
" style="fill:none;stroke:#000000;stroke-linecap:square;stroke-linejoin:miter;stroke-width:0.8;"/>
   </g>
   <g id="patch_6">
    <path d="M 57.6 41.472 
L 414.72 41.472 
" style="fill:none;stroke:#000000;stroke-linecap:square;stroke-linejoin:miter;stroke-width:0.8;"/>
   </g>
   <g id="legend_1">
    <g id="patch_7">
     <path d="M 356.516875 302.584 
L 407.72 302.584 
Q 409.72 302.584 409.72 300.584 
L 409.72 228.193375 
Q 409.72 226.193375 407.72 226.193375 
L 356.516875 226.193375 
Q 354.516875 226.193375 354.516875 228.193375 
L 354.516875 300.584 
Q 354.516875 302.584 356.516875 302.584 
z
" style="fill:#ffffff;opacity:0.8;stroke:#cccccc;stroke-linejoin:miter;"/>
    </g>
    <g id="line2d_22">
     <path d="M 358.516875 234.291812 
L 378.516875 234.291812 
" style="fill:none;stroke:#1f77b4;stroke-linecap:square;stroke-width:1.5;"/>
    </g>
    <g id="line2d_23"/>
    <g id="text_20">
     <!-- T+ -->
     <defs>
      <path d="M 46 62.703125 
L 46 35.5 
L 73.1875 35.5 
L 73.1875 27.203125 
L 46 27.203125 
L 46 0 
L 37.796875 0 
L 37.796875 27.203125 
L 10.59375 27.203125 
L 10.59375 35.5 
L 37.796875 35.5 
L 37.796875 62.703125 
z
" id="DejaVuSans-43"/>
     </defs>
     <g transform="translate(386.516875 237.791812)scale(0.1 -0.1)">
      <use xlink:href="#DejaVuSans-84"/>
      <use x="61.083984" xlink:href="#DejaVuSans-43"/>
     </g>
    </g>
    <g id="line2d_24">
     <path d="M 358.516875 248.969937 
L 378.516875 248.969937 
" style="fill:none;stroke:#ff7f0e;stroke-linecap:square;stroke-width:1.5;"/>
    </g>
    <g id="line2d_25"/>
    <g id="text_21">
     <!-- Tp -->
     <defs>
      <path d="M 18.109375 8.203125 
L 18.109375 -20.796875 
L 9.078125 -20.796875 
L 9.078125 54.6875 
L 18.109375 54.6875 
L 18.109375 46.390625 
Q 20.953125 51.265625 25.265625 53.625 
Q 29.59375 56 35.59375 56 
Q 45.5625 56 51.78125 48.09375 
Q 58.015625 40.1875 58.015625 27.296875 
Q 58.015625 14.40625 51.78125 6.484375 
Q 45.5625 -1.421875 35.59375 -1.421875 
Q 29.59375 -1.421875 25.265625 0.953125 
Q 20.953125 3.328125 18.109375 8.203125 
z
M 48.6875 27.296875 
Q 48.6875 37.203125 44.609375 42.84375 
Q 40.53125 48.484375 33.40625 48.484375 
Q 26.265625 48.484375 22.1875 42.84375 
Q 18.109375 37.203125 18.109375 27.296875 
Q 18.109375 17.390625 22.1875 11.75 
Q 26.265625 6.109375 33.40625 6.109375 
Q 40.53125 6.109375 44.609375 11.75 
Q 48.6875 17.390625 48.6875 27.296875 
z
" id="DejaVuSans-112"/>
     </defs>
     <g transform="translate(386.516875 252.469937)scale(0.1 -0.1)">
      <use xlink:href="#DejaVuSans-84"/>
      <use x="61.083984" xlink:href="#DejaVuSans-112"/>
     </g>
    </g>
    <g id="line2d_26">
     <path d="M 358.516875 263.648062 
L 378.516875 263.648062 
" style="fill:none;stroke:#2ca02c;stroke-linecap:square;stroke-width:1.5;"/>
    </g>
    <g id="line2d_27"/>
    <g id="text_22">
     <!-- T- -->
     <defs>
      <path d="M 4.890625 31.390625 
L 31.203125 31.390625 
L 31.203125 23.390625 
L 4.890625 23.390625 
z
" id="DejaVuSans-45"/>
     </defs>
     <g transform="translate(386.516875 267.148062)scale(0.1 -0.1)">
      <use xlink:href="#DejaVuSans-84"/>
      <use x="51.958984" xlink:href="#DejaVuSans-45"/>
     </g>
    </g>
    <g id="line2d_28">
     <path d="M 358.516875 278.326188 
L 378.516875 278.326188 
" style="fill:none;stroke:#d62728;stroke-linecap:square;stroke-width:1.5;"/>
    </g>
    <g id="line2d_29"/>
    <g id="text_23">
     <!-- O2 -->
     <defs>
      <path d="M 39.40625 66.21875 
Q 28.65625 66.21875 22.328125 58.203125 
Q 16.015625 50.203125 16.015625 36.375 
Q 16.015625 22.609375 22.328125 14.59375 
Q 28.65625 6.59375 39.40625 6.59375 
Q 50.140625 6.59375 56.421875 14.59375 
Q 62.703125 22.609375 62.703125 36.375 
Q 62.703125 50.203125 56.421875 58.203125 
Q 50.140625 66.21875 39.40625 66.21875 
z
M 39.40625 74.21875 
Q 54.734375 74.21875 63.90625 63.9375 
Q 73.09375 53.65625 73.09375 36.375 
Q 73.09375 19.140625 63.90625 8.859375 
Q 54.734375 -1.421875 39.40625 -1.421875 
Q 24.03125 -1.421875 14.8125 8.828125 
Q 5.609375 19.09375 5.609375 36.375 
Q 5.609375 53.65625 14.8125 63.9375 
Q 24.03125 74.21875 39.40625 74.21875 
z
" id="DejaVuSans-79"/>
     </defs>
     <g transform="translate(386.516875 281.826188)scale(0.1 -0.1)">
      <use xlink:href="#DejaVuSans-79"/>
      <use x="78.710938" xlink:href="#DejaVuSans-50"/>
     </g>
    </g>
    <g id="line2d_30">
     <path d="M 358.516875 293.004312 
L 378.516875 293.004312 
" style="fill:none;stroke:#9467bd;stroke-linecap:square;stroke-width:1.5;"/>
    </g>
    <g id="line2d_31"/>
    <g id="text_24">
     <!-- test -->
     <g transform="translate(386.516875 296.504312)scale(0.1 -0.1)">
      <use xlink:href="#DejaVuSans-116"/>
      <use x="39.208984" xlink:href="#DejaVuSans-101"/>
      <use x="100.732422" xlink:href="#DejaVuSans-115"/>
      <use x="152.832031" xlink:href="#DejaVuSans-116"/>
     </g>
    </g>
   </g>
  </g>
 </g>
 <defs>
  <clipPath id="pf31c4711b6">
   <rect height="266.112" width="357.12" x="57.6" y="41.472"/>
  </clipPath>
 </defs>
</svg>
