<?xml version="1.0" encoding="utf-8" standalone="no"?>
<!DOCTYPE svg PUBLIC "-//W3C//DTD SVG 1.1//EN"
  "http://www.w3.org/Graphics/SVG/1.1/DTD/svg11.dtd">
<!-- Created with matplotlib (https://matplotlib.org/) -->
<svg height="345.6pt" version="1.1" viewBox="0 0 460.8 345.6" width="460.8pt" xmlns="http://www.w3.org/2000/svg" xmlns:xlink="http://www.w3.org/1999/xlink">
 <defs>
  <style type="text/css">
*{stroke-linecap:butt;stroke-linejoin:round;}
  </style>
 </defs>
 <g id="figure_1">
  <g id="patch_1">
   <path d="M 0 345.6 
L 460.8 345.6 
L 460.8 0 
L 0 0 
z
" style="fill:#ffffff;"/>
  </g>
  <g id="axes_1">
   <g id="patch_2">
    <path d="M 57.6 307.584 
L 414.72 307.584 
L 414.72 41.472 
L 57.6 41.472 
z
" style="fill:#ffffff;"/>
   </g>
   <g id="matplotlib.axis_1">
    <g id="xtick_1">
     <g id="line2d_1">
      <defs>
       <path d="M 0 0 
L 0 3.5 
" id="mcd67915c56" style="stroke:#000000;stroke-width:0.8;"/>
      </defs>
      <g>
       <use style="stroke:#000000;stroke-width:0.8;" x="73.832727" xlink:href="#mcd67915c56" y="307.584"/>
      </g>
     </g>
     <g id="text_1">
      <!-- 0.0 -->
      <defs>
       <path d="M 31.78125 66.40625 
Q 24.171875 66.40625 20.328125 58.90625 
Q 16.5 51.421875 16.5 36.375 
Q 16.5 21.390625 20.328125 13.890625 
Q 24.171875 6.390625 31.78125 6.390625 
Q 39.453125 6.390625 43.28125 13.890625 
Q 47.125 21.390625 47.125 36.375 
Q 47.125 51.421875 43.28125 58.90625 
Q 39.453125 66.40625 31.78125 66.40625 
z
M 31.78125 74.21875 
Q 44.046875 74.21875 50.515625 64.515625 
Q 56.984375 54.828125 56.984375 36.375 
Q 56.984375 17.96875 50.515625 8.265625 
Q 44.046875 -1.421875 31.78125 -1.421875 
Q 19.53125 -1.421875 13.0625 8.265625 
Q 6.59375 17.96875 6.59375 36.375 
Q 6.59375 54.828125 13.0625 64.515625 
Q 19.53125 74.21875 31.78125 74.21875 
z
" id="DejaVuSans-48"/>
       <path d="M 10.6875 12.40625 
L 21 12.40625 
L 21 0 
L 10.6875 0 
z
" id="DejaVuSans-46"/>
      </defs>
      <g transform="translate(65.881165 322.182437)scale(0.1 -0.1)">
       <use xlink:href="#DejaVuSans-48"/>
       <use x="63.623047" xlink:href="#DejaVuSans-46"/>
       <use x="95.410156" xlink:href="#DejaVuSans-48"/>
      </g>
     </g>
    </g>
    <g id="xtick_2">
     <g id="line2d_2">
      <g>
       <use style="stroke:#000000;stroke-width:0.8;" x="118.925515" xlink:href="#mcd67915c56" y="307.584"/>
      </g>
     </g>
     <g id="text_2">
      <!-- 0.2 -->
      <defs>
       <path d="M 19.1875 8.296875 
L 53.609375 8.296875 
L 53.609375 0 
L 7.328125 0 
L 7.328125 8.296875 
Q 12.9375 14.109375 22.625 23.890625 
Q 32.328125 33.6875 34.8125 36.53125 
Q 39.546875 41.84375 41.421875 45.53125 
Q 43.3125 49.21875 43.3125 52.78125 
Q 43.3125 58.59375 39.234375 62.25 
Q 35.15625 65.921875 28.609375 65.921875 
Q 23.96875 65.921875 18.8125 64.3125 
Q 13.671875 62.703125 7.8125 59.421875 
L 7.8125 69.390625 
Q 13.765625 71.78125 18.9375 73 
Q 24.125 74.21875 28.421875 74.21875 
Q 39.75 74.21875 46.484375 68.546875 
Q 53.21875 62.890625 53.21875 53.421875 
Q 53.21875 48.921875 51.53125 44.890625 
Q 49.859375 40.875 45.40625 35.40625 
Q 44.1875 33.984375 37.640625 27.21875 
Q 31.109375 20.453125 19.1875 8.296875 
z
" id="DejaVuSans-50"/>
      </defs>
      <g transform="translate(110.973953 322.182437)scale(0.1 -0.1)">
       <use xlink:href="#DejaVuSans-48"/>
       <use x="63.623047" xlink:href="#DejaVuSans-46"/>
       <use x="95.410156" xlink:href="#DejaVuSans-50"/>
      </g>
     </g>
    </g>
    <g id="xtick_3">
     <g id="line2d_3">
      <g>
       <use style="stroke:#000000;stroke-width:0.8;" x="164.018303" xlink:href="#mcd67915c56" y="307.584"/>
      </g>
     </g>
     <g id="text_3">
      <!-- 0.4 -->
      <defs>
       <path d="M 37.796875 64.3125 
L 12.890625 25.390625 
L 37.796875 25.390625 
z
M 35.203125 72.90625 
L 47.609375 72.90625 
L 47.609375 25.390625 
L 58.015625 25.390625 
L 58.015625 17.1875 
L 47.609375 17.1875 
L 47.609375 0 
L 37.796875 0 
L 37.796875 17.1875 
L 4.890625 17.1875 
L 4.890625 26.703125 
z
" id="DejaVuSans-52"/>
      </defs>
      <g transform="translate(156.066741 322.182437)scale(0.1 -0.1)">
       <use xlink:href="#DejaVuSans-48"/>
       <use x="63.623047" xlink:href="#DejaVuSans-46"/>
       <use x="95.410156" xlink:href="#DejaVuSans-52"/>
      </g>
     </g>
    </g>
    <g id="xtick_4">
     <g id="line2d_4">
      <g>
       <use style="stroke:#000000;stroke-width:0.8;" x="209.111091" xlink:href="#mcd67915c56" y="307.584"/>
      </g>
     </g>
     <g id="text_4">
      <!-- 0.6 -->
      <defs>
       <path d="M 33.015625 40.375 
Q 26.375 40.375 22.484375 35.828125 
Q 18.609375 31.296875 18.609375 23.390625 
Q 18.609375 15.53125 22.484375 10.953125 
Q 26.375 6.390625 33.015625 6.390625 
Q 39.65625 6.390625 43.53125 10.953125 
Q 47.40625 15.53125 47.40625 23.390625 
Q 47.40625 31.296875 43.53125 35.828125 
Q 39.65625 40.375 33.015625 40.375 
z
M 52.59375 71.296875 
L 52.59375 62.3125 
Q 48.875 64.0625 45.09375 64.984375 
Q 41.3125 65.921875 37.59375 65.921875 
Q 27.828125 65.921875 22.671875 59.328125 
Q 17.53125 52.734375 16.796875 39.40625 
Q 19.671875 43.65625 24.015625 45.921875 
Q 28.375 48.1875 33.59375 48.1875 
Q 44.578125 48.1875 50.953125 41.515625 
Q 57.328125 34.859375 57.328125 23.390625 
Q 57.328125 12.15625 50.6875 5.359375 
Q 44.046875 -1.421875 33.015625 -1.421875 
Q 20.359375 -1.421875 13.671875 8.265625 
Q 6.984375 17.96875 6.984375 36.375 
Q 6.984375 53.65625 15.1875 63.9375 
Q 23.390625 74.21875 37.203125 74.21875 
Q 40.921875 74.21875 44.703125 73.484375 
Q 48.484375 72.75 52.59375 71.296875 
z
" id="DejaVuSans-54"/>
      </defs>
      <g transform="translate(201.159529 322.182437)scale(0.1 -0.1)">
       <use xlink:href="#DejaVuSans-48"/>
       <use x="63.623047" xlink:href="#DejaVuSans-46"/>
       <use x="95.410156" xlink:href="#DejaVuSans-54"/>
      </g>
     </g>
    </g>
    <g id="xtick_5">
     <g id="line2d_5">
      <g>
       <use style="stroke:#000000;stroke-width:0.8;" x="254.203879" xlink:href="#mcd67915c56" y="307.584"/>
      </g>
     </g>
     <g id="text_5">
      <!-- 0.8 -->
      <defs>
       <path d="M 31.78125 34.625 
Q 24.75 34.625 20.71875 30.859375 
Q 16.703125 27.09375 16.703125 20.515625 
Q 16.703125 13.921875 20.71875 10.15625 
Q 24.75 6.390625 31.78125 6.390625 
Q 38.8125 6.390625 42.859375 10.171875 
Q 46.921875 13.96875 46.921875 20.515625 
Q 46.921875 27.09375 42.890625 30.859375 
Q 38.875 34.625 31.78125 34.625 
z
M 21.921875 38.8125 
Q 15.578125 40.375 12.03125 44.71875 
Q 8.5 49.078125 8.5 55.328125 
Q 8.5 64.0625 14.71875 69.140625 
Q 20.953125 74.21875 31.78125 74.21875 
Q 42.671875 74.21875 48.875 69.140625 
Q 55.078125 64.0625 55.078125 55.328125 
Q 55.078125 49.078125 51.53125 44.71875 
Q 48 40.375 41.703125 38.8125 
Q 48.828125 37.15625 52.796875 32.3125 
Q 56.78125 27.484375 56.78125 20.515625 
Q 56.78125 9.90625 50.3125 4.234375 
Q 43.84375 -1.421875 31.78125 -1.421875 
Q 19.734375 -1.421875 13.25 4.234375 
Q 6.78125 9.90625 6.78125 20.515625 
Q 6.78125 27.484375 10.78125 32.3125 
Q 14.796875 37.15625 21.921875 38.8125 
z
M 18.3125 54.390625 
Q 18.3125 48.734375 21.84375 45.5625 
Q 25.390625 42.390625 31.78125 42.390625 
Q 38.140625 42.390625 41.71875 45.5625 
Q 45.3125 48.734375 45.3125 54.390625 
Q 45.3125 60.0625 41.71875 63.234375 
Q 38.140625 66.40625 31.78125 66.40625 
Q 25.390625 66.40625 21.84375 63.234375 
Q 18.3125 60.0625 18.3125 54.390625 
z
" id="DejaVuSans-56"/>
      </defs>
      <g transform="translate(246.252317 322.182437)scale(0.1 -0.1)">
       <use xlink:href="#DejaVuSans-48"/>
       <use x="63.623047" xlink:href="#DejaVuSans-46"/>
       <use x="95.410156" xlink:href="#DejaVuSans-56"/>
      </g>
     </g>
    </g>
    <g id="xtick_6">
     <g id="line2d_6">
      <g>
       <use style="stroke:#000000;stroke-width:0.8;" x="299.296667" xlink:href="#mcd67915c56" y="307.584"/>
      </g>
     </g>
     <g id="text_6">
      <!-- 1.0 -->
      <defs>
       <path d="M 12.40625 8.296875 
L 28.515625 8.296875 
L 28.515625 63.921875 
L 10.984375 60.40625 
L 10.984375 69.390625 
L 28.421875 72.90625 
L 38.28125 72.90625 
L 38.28125 8.296875 
L 54.390625 8.296875 
L 54.390625 0 
L 12.40625 0 
z
" id="DejaVuSans-49"/>
      </defs>
      <g transform="translate(291.345105 322.182437)scale(0.1 -0.1)">
       <use xlink:href="#DejaVuSans-49"/>
       <use x="63.623047" xlink:href="#DejaVuSans-46"/>
       <use x="95.410156" xlink:href="#DejaVuSans-48"/>
      </g>
     </g>
    </g>
    <g id="xtick_7">
     <g id="line2d_7">
      <g>
       <use style="stroke:#000000;stroke-width:0.8;" x="344.389455" xlink:href="#mcd67915c56" y="307.584"/>
      </g>
     </g>
     <g id="text_7">
      <!-- 1.2 -->
      <g transform="translate(336.437893 322.182437)scale(0.1 -0.1)">
       <use xlink:href="#DejaVuSans-49"/>
       <use x="63.623047" xlink:href="#DejaVuSans-46"/>
       <use x="95.410156" xlink:href="#DejaVuSans-50"/>
      </g>
     </g>
    </g>
    <g id="xtick_8">
     <g id="line2d_8">
      <g>
       <use style="stroke:#000000;stroke-width:0.8;" x="389.482243" xlink:href="#mcd67915c56" y="307.584"/>
      </g>
     </g>
     <g id="text_8">
      <!-- 1.4 -->
      <g transform="translate(381.53068 322.182437)scale(0.1 -0.1)">
       <use xlink:href="#DejaVuSans-49"/>
       <use x="63.623047" xlink:href="#DejaVuSans-46"/>
       <use x="95.410156" xlink:href="#DejaVuSans-52"/>
      </g>
     </g>
    </g>
    <g id="text_9">
     <!-- Time (min) -->
     <defs>
      <path d="M -0.296875 72.90625 
L 61.375 72.90625 
L 61.375 64.59375 
L 35.5 64.59375 
L 35.5 0 
L 25.59375 0 
L 25.59375 64.59375 
L -0.296875 64.59375 
z
" id="DejaVuSans-84"/>
      <path d="M 9.421875 54.6875 
L 18.40625 54.6875 
L 18.40625 0 
L 9.421875 0 
z
M 9.421875 75.984375 
L 18.40625 75.984375 
L 18.40625 64.59375 
L 9.421875 64.59375 
z
" id="DejaVuSans-105"/>
      <path d="M 52 44.1875 
Q 55.375 50.25 60.0625 53.125 
Q 64.75 56 71.09375 56 
Q 79.640625 56 84.28125 50.015625 
Q 88.921875 44.046875 88.921875 33.015625 
L 88.921875 0 
L 79.890625 0 
L 79.890625 32.71875 
Q 79.890625 40.578125 77.09375 44.375 
Q 74.3125 48.1875 68.609375 48.1875 
Q 61.625 48.1875 57.5625 43.546875 
Q 53.515625 38.921875 53.515625 30.90625 
L 53.515625 0 
L 44.484375 0 
L 44.484375 32.71875 
Q 44.484375 40.625 41.703125 44.40625 
Q 38.921875 48.1875 33.109375 48.1875 
Q 26.21875 48.1875 22.15625 43.53125 
Q 18.109375 38.875 18.109375 30.90625 
L 18.109375 0 
L 9.078125 0 
L 9.078125 54.6875 
L 18.109375 54.6875 
L 18.109375 46.1875 
Q 21.1875 51.21875 25.484375 53.609375 
Q 29.78125 56 35.6875 56 
Q 41.65625 56 45.828125 52.96875 
Q 50 49.953125 52 44.1875 
z
" id="DejaVuSans-109"/>
      <path d="M 56.203125 29.59375 
L 56.203125 25.203125 
L 14.890625 25.203125 
Q 15.484375 15.921875 20.484375 11.0625 
Q 25.484375 6.203125 34.421875 6.203125 
Q 39.59375 6.203125 44.453125 7.46875 
Q 49.3125 8.734375 54.109375 11.28125 
L 54.109375 2.78125 
Q 49.265625 0.734375 44.1875 -0.34375 
Q 39.109375 -1.421875 33.890625 -1.421875 
Q 20.796875 -1.421875 13.15625 6.1875 
Q 5.515625 13.8125 5.515625 26.8125 
Q 5.515625 40.234375 12.765625 48.109375 
Q 20.015625 56 32.328125 56 
Q 43.359375 56 49.78125 48.890625 
Q 56.203125 41.796875 56.203125 29.59375 
z
M 47.21875 32.234375 
Q 47.125 39.59375 43.09375 43.984375 
Q 39.0625 48.390625 32.421875 48.390625 
Q 24.90625 48.390625 20.390625 44.140625 
Q 15.875 39.890625 15.1875 32.171875 
z
" id="DejaVuSans-101"/>
      <path id="DejaVuSans-32"/>
      <path d="M 31 75.875 
Q 24.46875 64.65625 21.28125 53.65625 
Q 18.109375 42.671875 18.109375 31.390625 
Q 18.109375 20.125 21.3125 9.0625 
Q 24.515625 -2 31 -13.1875 
L 23.1875 -13.1875 
Q 15.875 -1.703125 12.234375 9.375 
Q 8.59375 20.453125 8.59375 31.390625 
Q 8.59375 42.28125 12.203125 53.3125 
Q 15.828125 64.359375 23.1875 75.875 
z
" id="DejaVuSans-40"/>
      <path d="M 54.890625 33.015625 
L 54.890625 0 
L 45.90625 0 
L 45.90625 32.71875 
Q 45.90625 40.484375 42.875 44.328125 
Q 39.84375 48.1875 33.796875 48.1875 
Q 26.515625 48.1875 22.3125 43.546875 
Q 18.109375 38.921875 18.109375 30.90625 
L 18.109375 0 
L 9.078125 0 
L 9.078125 54.6875 
L 18.109375 54.6875 
L 18.109375 46.1875 
Q 21.34375 51.125 25.703125 53.5625 
Q 30.078125 56 35.796875 56 
Q 45.21875 56 50.046875 50.171875 
Q 54.890625 44.34375 54.890625 33.015625 
z
" id="DejaVuSans-110"/>
      <path d="M 8.015625 75.875 
L 15.828125 75.875 
Q 23.140625 64.359375 26.78125 53.3125 
Q 30.421875 42.28125 30.421875 31.390625 
Q 30.421875 20.453125 26.78125 9.375 
Q 23.140625 -1.703125 15.828125 -13.1875 
L 8.015625 -13.1875 
Q 14.5 -2 17.703125 9.0625 
Q 20.90625 20.125 20.90625 31.390625 
Q 20.90625 42.671875 17.703125 53.65625 
Q 14.5 64.65625 8.015625 75.875 
z
" id="DejaVuSans-41"/>
     </defs>
     <g transform="translate(209.007656 335.860562)scale(0.1 -0.1)">
      <use xlink:href="#DejaVuSans-84"/>
      <use x="57.958984" xlink:href="#DejaVuSans-105"/>
      <use x="85.742188" xlink:href="#DejaVuSans-109"/>
      <use x="183.154297" xlink:href="#DejaVuSans-101"/>
      <use x="244.677734" xlink:href="#DejaVuSans-32"/>
      <use x="276.464844" xlink:href="#DejaVuSans-40"/>
      <use x="315.478516" xlink:href="#DejaVuSans-109"/>
      <use x="412.890625" xlink:href="#DejaVuSans-105"/>
      <use x="440.673828" xlink:href="#DejaVuSans-110"/>
      <use x="504.052734" xlink:href="#DejaVuSans-41"/>
     </g>
    </g>
    <g id="text_10">
     <!-- 1e6 -->
     <g transform="translate(395.841875 334.860562)scale(0.1 -0.1)">
      <use xlink:href="#DejaVuSans-49"/>
      <use x="63.623047" xlink:href="#DejaVuSans-101"/>
      <use x="125.146484" xlink:href="#DejaVuSans-54"/>
     </g>
    </g>
   </g>
   <g id="matplotlib.axis_2">
    <g id="ytick_1">
     <g id="line2d_9">
      <defs>
       <path d="M 0 0 
L -3.5 0 
" id="m3e705e5e85" style="stroke:#000000;stroke-width:0.8;"/>
      </defs>
      <g>
       <use style="stroke:#000000;stroke-width:0.8;" x="57.6" xlink:href="#m3e705e5e85" y="281.563409"/>
      </g>
     </g>
     <g id="text_11">
      <!-- −500 -->
      <defs>
       <path d="M 10.59375 35.5 
L 73.1875 35.5 
L 73.1875 27.203125 
L 10.59375 27.203125 
z
" id="DejaVuSans-8722"/>
       <path d="M 10.796875 72.90625 
L 49.515625 72.90625 
L 49.515625 64.59375 
L 19.828125 64.59375 
L 19.828125 46.734375 
Q 21.96875 47.46875 24.109375 47.828125 
Q 26.265625 48.1875 28.421875 48.1875 
Q 40.625 48.1875 47.75 41.5 
Q 54.890625 34.8125 54.890625 23.390625 
Q 54.890625 11.625 47.5625 5.09375 
Q 40.234375 -1.421875 26.90625 -1.421875 
Q 22.3125 -1.421875 17.546875 -0.640625 
Q 12.796875 0.140625 7.71875 1.703125 
L 7.71875 11.625 
Q 12.109375 9.234375 16.796875 8.0625 
Q 21.484375 6.890625 26.703125 6.890625 
Q 35.15625 6.890625 40.078125 11.328125 
Q 45.015625 15.765625 45.015625 23.390625 
Q 45.015625 31 40.078125 35.4375 
Q 35.15625 39.890625 26.703125 39.890625 
Q 22.75 39.890625 18.8125 39.015625 
Q 14.890625 38.140625 10.796875 36.28125 
z
" id="DejaVuSans-53"/>
      </defs>
      <g transform="translate(23.132812 285.362628)scale(0.1 -0.1)">
       <use xlink:href="#DejaVuSans-8722"/>
       <use x="83.789062" xlink:href="#DejaVuSans-53"/>
       <use x="147.412109" xlink:href="#DejaVuSans-48"/>
       <use x="211.035156" xlink:href="#DejaVuSans-48"/>
      </g>
     </g>
    </g>
    <g id="ytick_2">
     <g id="line2d_10">
      <g>
       <use style="stroke:#000000;stroke-width:0.8;" x="57.6" xlink:href="#m3e705e5e85" y="243.564174"/>
      </g>
     </g>
     <g id="text_12">
      <!-- −400 -->
      <g transform="translate(23.132812 247.363393)scale(0.1 -0.1)">
       <use xlink:href="#DejaVuSans-8722"/>
       <use x="83.789062" xlink:href="#DejaVuSans-52"/>
       <use x="147.412109" xlink:href="#DejaVuSans-48"/>
       <use x="211.035156" xlink:href="#DejaVuSans-48"/>
      </g>
     </g>
    </g>
    <g id="ytick_3">
     <g id="line2d_11">
      <g>
       <use style="stroke:#000000;stroke-width:0.8;" x="57.6" xlink:href="#m3e705e5e85" y="205.564939"/>
      </g>
     </g>
     <g id="text_13">
      <!-- −300 -->
      <defs>
       <path d="M 40.578125 39.3125 
Q 47.65625 37.796875 51.625 33 
Q 55.609375 28.21875 55.609375 21.1875 
Q 55.609375 10.40625 48.1875 4.484375 
Q 40.765625 -1.421875 27.09375 -1.421875 
Q 22.515625 -1.421875 17.65625 -0.515625 
Q 12.796875 0.390625 7.625 2.203125 
L 7.625 11.71875 
Q 11.71875 9.328125 16.59375 8.109375 
Q 21.484375 6.890625 26.8125 6.890625 
Q 36.078125 6.890625 40.9375 10.546875 
Q 45.796875 14.203125 45.796875 21.1875 
Q 45.796875 27.640625 41.28125 31.265625 
Q 36.765625 34.90625 28.71875 34.90625 
L 20.21875 34.90625 
L 20.21875 43.015625 
L 29.109375 43.015625 
Q 36.375 43.015625 40.234375 45.921875 
Q 44.09375 48.828125 44.09375 54.296875 
Q 44.09375 59.90625 40.109375 62.90625 
Q 36.140625 65.921875 28.71875 65.921875 
Q 24.65625 65.921875 20.015625 65.03125 
Q 15.375 64.15625 9.8125 62.3125 
L 9.8125 71.09375 
Q 15.4375 72.65625 20.34375 73.4375 
Q 25.25 74.21875 29.59375 74.21875 
Q 40.828125 74.21875 47.359375 69.109375 
Q 53.90625 64.015625 53.90625 55.328125 
Q 53.90625 49.265625 50.4375 45.09375 
Q 46.96875 40.921875 40.578125 39.3125 
z
" id="DejaVuSans-51"/>
      </defs>
      <g transform="translate(23.132812 209.364158)scale(0.1 -0.1)">
       <use xlink:href="#DejaVuSans-8722"/>
       <use x="83.789062" xlink:href="#DejaVuSans-51"/>
       <use x="147.412109" xlink:href="#DejaVuSans-48"/>
       <use x="211.035156" xlink:href="#DejaVuSans-48"/>
      </g>
     </g>
    </g>
    <g id="ytick_4">
     <g id="line2d_12">
      <g>
       <use style="stroke:#000000;stroke-width:0.8;" x="57.6" xlink:href="#m3e705e5e85" y="167.565704"/>
      </g>
     </g>
     <g id="text_14">
      <!-- −200 -->
      <g transform="translate(23.132812 171.364923)scale(0.1 -0.1)">
       <use xlink:href="#DejaVuSans-8722"/>
       <use x="83.789062" xlink:href="#DejaVuSans-50"/>
       <use x="147.412109" xlink:href="#DejaVuSans-48"/>
       <use x="211.035156" xlink:href="#DejaVuSans-48"/>
      </g>
     </g>
    </g>
    <g id="ytick_5">
     <g id="line2d_13">
      <g>
       <use style="stroke:#000000;stroke-width:0.8;" x="57.6" xlink:href="#m3e705e5e85" y="129.56647"/>
      </g>
     </g>
     <g id="text_15">
      <!-- −100 -->
      <g transform="translate(23.132812 133.365688)scale(0.1 -0.1)">
       <use xlink:href="#DejaVuSans-8722"/>
       <use x="83.789062" xlink:href="#DejaVuSans-49"/>
       <use x="147.412109" xlink:href="#DejaVuSans-48"/>
       <use x="211.035156" xlink:href="#DejaVuSans-48"/>
      </g>
     </g>
    </g>
    <g id="ytick_6">
     <g id="line2d_14">
      <g>
       <use style="stroke:#000000;stroke-width:0.8;" x="57.6" xlink:href="#m3e705e5e85" y="91.567235"/>
      </g>
     </g>
     <g id="text_16">
      <!-- 0 -->
      <g transform="translate(44.2375 95.366454)scale(0.1 -0.1)">
       <use xlink:href="#DejaVuSans-48"/>
      </g>
     </g>
    </g>
    <g id="ytick_7">
     <g id="line2d_15">
      <g>
       <use style="stroke:#000000;stroke-width:0.8;" x="57.6" xlink:href="#m3e705e5e85" y="53.568"/>
      </g>
     </g>
     <g id="text_17">
      <!-- 100 -->
      <g transform="translate(31.5125 57.367219)scale(0.1 -0.1)">
       <use xlink:href="#DejaVuSans-49"/>
       <use x="63.623047" xlink:href="#DejaVuSans-48"/>
       <use x="127.246094" xlink:href="#DejaVuSans-48"/>
      </g>
     </g>
    </g>
    <g id="text_18">
     <!-- Density -->
     <defs>
      <path d="M 19.671875 64.796875 
L 19.671875 8.109375 
L 31.59375 8.109375 
Q 46.6875 8.109375 53.6875 14.9375 
Q 60.6875 21.78125 60.6875 36.53125 
Q 60.6875 51.171875 53.6875 57.984375 
Q 46.6875 64.796875 31.59375 64.796875 
z
M 9.8125 72.90625 
L 30.078125 72.90625 
Q 51.265625 72.90625 61.171875 64.09375 
Q 71.09375 55.28125 71.09375 36.53125 
Q 71.09375 17.671875 61.125 8.828125 
Q 51.171875 0 30.078125 0 
L 9.8125 0 
z
" id="DejaVuSans-68"/>
      <path d="M 44.28125 53.078125 
L 44.28125 44.578125 
Q 40.484375 46.53125 36.375 47.5 
Q 32.28125 48.484375 27.875 48.484375 
Q 21.1875 48.484375 17.84375 46.4375 
Q 14.5 44.390625 14.5 40.28125 
Q 14.5 37.15625 16.890625 35.375 
Q 19.28125 33.59375 26.515625 31.984375 
L 29.59375 31.296875 
Q 39.15625 29.25 43.1875 25.515625 
Q 47.21875 21.78125 47.21875 15.09375 
Q 47.21875 7.46875 41.1875 3.015625 
Q 35.15625 -1.421875 24.609375 -1.421875 
Q 20.21875 -1.421875 15.453125 -0.5625 
Q 10.6875 0.296875 5.421875 2 
L 5.421875 11.28125 
Q 10.40625 8.6875 15.234375 7.390625 
Q 20.0625 6.109375 24.8125 6.109375 
Q 31.15625 6.109375 34.5625 8.28125 
Q 37.984375 10.453125 37.984375 14.40625 
Q 37.984375 18.0625 35.515625 20.015625 
Q 33.0625 21.96875 24.703125 23.78125 
L 21.578125 24.515625 
Q 13.234375 26.265625 9.515625 29.90625 
Q 5.8125 33.546875 5.8125 39.890625 
Q 5.8125 47.609375 11.28125 51.796875 
Q 16.75 56 26.8125 56 
Q 31.78125 56 36.171875 55.265625 
Q 40.578125 54.546875 44.28125 53.078125 
z
" id="DejaVuSans-115"/>
      <path d="M 18.3125 70.21875 
L 18.3125 54.6875 
L 36.8125 54.6875 
L 36.8125 47.703125 
L 18.3125 47.703125 
L 18.3125 18.015625 
Q 18.3125 11.328125 20.140625 9.421875 
Q 21.96875 7.515625 27.59375 7.515625 
L 36.8125 7.515625 
L 36.8125 0 
L 27.59375 0 
Q 17.1875 0 13.234375 3.875 
Q 9.28125 7.765625 9.28125 18.015625 
L 9.28125 47.703125 
L 2.6875 47.703125 
L 2.6875 54.6875 
L 9.28125 54.6875 
L 9.28125 70.21875 
z
" id="DejaVuSans-116"/>
      <path d="M 32.171875 -5.078125 
Q 28.375 -14.84375 24.75 -17.8125 
Q 21.140625 -20.796875 15.09375 -20.796875 
L 7.90625 -20.796875 
L 7.90625 -13.28125 
L 13.1875 -13.28125 
Q 16.890625 -13.28125 18.9375 -11.515625 
Q 21 -9.765625 23.484375 -3.21875 
L 25.09375 0.875 
L 2.984375 54.6875 
L 12.5 54.6875 
L 29.59375 11.921875 
L 46.6875 54.6875 
L 56.203125 54.6875 
z
" id="DejaVuSans-121"/>
     </defs>
     <g transform="translate(17.053125 193.536594)rotate(-90)scale(0.1 -0.1)">
      <use xlink:href="#DejaVuSans-68"/>
      <use x="77.001953" xlink:href="#DejaVuSans-101"/>
      <use x="138.525391" xlink:href="#DejaVuSans-110"/>
      <use x="201.904297" xlink:href="#DejaVuSans-115"/>
      <use x="254.003906" xlink:href="#DejaVuSans-105"/>
      <use x="281.787109" xlink:href="#DejaVuSans-116"/>
      <use x="320.996094" xlink:href="#DejaVuSans-121"/>
     </g>
    </g>
   </g>
   <g id="line2d_16">
    <path clip-path="url(#p363681182c)" d="M 73.832727 91.567235 
L 398.487273 91.567235 
L 398.487273 91.567235 
" style="fill:none;stroke:#1f77b4;stroke-linecap:square;stroke-width:1.5;"/>
   </g>
   <g id="line2d_17">
    <path clip-path="url(#p363681182c)" d="M 73.832727 91.567235 
L 398.487273 91.567235 
L 398.487273 91.567235 
" style="fill:none;stroke:#ff7f0e;stroke-linecap:square;stroke-width:1.5;"/>
   </g>
   <g id="line2d_18">
    <path clip-path="url(#p363681182c)" d="M 73.832727 87.767311 
L 74.414424 87.78133 
L 107.909347 88.626284 
L 146.125485 89.362554 
L 180.499717 89.822873 
L 398.487273 89.822873 
L 398.487273 89.822873 
" style="fill:none;stroke:#2ca02c;stroke-linecap:square;stroke-width:1.5;"/>
   </g>
   <g id="line2d_19">
    <path clip-path="url(#p363681182c)" d="M 73.832727 53.568 
L 73.859783 295.488 
L 73.954478 294.68079 
L 73.981533 295.154635 
L 74.0627 294.913916 
L 74.076228 294.871277 
L 74.157395 294.089879 
L 74.184451 294.302698 
L 74.197979 294.677673 
L 74.238562 294.042817 
L 74.279146 294.303857 
L 74.387369 293.583841 
L 74.400896 293.688376 
L 74.427952 293.901559 
L 74.455008 293.30827 
L 74.509119 293.641989 
L 74.603814 293.029432 
L 74.617342 293.112832 
L 74.63087 293.229331 
L 74.671453 292.63746 
L 74.712037 293.072213 
L 74.901426 292.20541 
L 74.914954 292.354041 
L 74.928482 292.619592 
L 74.969066 291.938829 
L 75.009649 292.067696 
L 75.104344 291.388878 
L 75.144927 291.788956 
L 75.158455 291.843673 
L 75.25315 291.031492 
L 75.280206 291.366802 
L 75.293734 291.597943 
L 75.307261 290.962219 
L 75.361373 291.408384 
L 75.456068 290.509759 
L 75.496651 290.76038 
L 75.510179 290.943964 
L 75.523707 290.283024 
L 75.591346 290.6238 
L 75.686041 289.807041 
L 75.699569 290.033549 
L 75.713097 290.340631 
L 75.75368 289.714858 
L 75.794264 290.015237 
L 75.888958 289.22886 
L 75.929542 289.528337 
L 75.94307 289.735581 
L 75.970125 289.18254 
L 76.024237 289.309688 
L 76.118932 288.6161 
L 76.132459 288.812975 
L 76.145987 289.153479 
L 76.186571 288.49871 
L 76.227154 288.786898 
L 76.335377 288.080754 
L 76.348905 288.208438 
L 76.362433 288.602408 
L 76.403016 287.681475 
L 76.4436 288.11739 
L 76.457128 288.091788 
L 76.551822 287.512801 
L 76.56535 287.650088 
L 76.578878 287.747297 
L 76.605934 287.609612 
L 76.700629 287.068816 
L 76.660045 287.775192 
L 76.714156 287.236321 
L 76.727684 287.542345 
L 76.768268 286.874116 
L 76.808851 287.153701 
L 76.917074 286.477759 
L 76.930602 286.871923 
L 76.984713 286.315803 
L 77.025297 286.423395 
L 77.038824 286.398442 
L 77.119992 285.907743 
L 77.079408 286.453562 
L 77.147047 286.108307 
L 77.160575 286.161207 
L 77.174103 286.040881 
L 77.25527 285.457623 
L 77.295853 285.668297 
L 77.309381 285.910263 
L 77.349965 285.314971 
L 77.390548 285.498087 
L 77.485243 284.727732 
L 77.498771 284.958769 
L 77.512299 285.279401 
L 77.552882 284.700901 
L 77.593466 284.94593 
L 77.701688 284.249875 
L 77.715216 284.348179 
L 77.728744 284.753663 
L 77.769328 283.830964 
L 77.823439 284.288981 
L 77.918134 283.705556 
L 77.931662 283.785849 
L 77.985773 283.335461 
L 78.026357 283.97329 
L 78.134579 283.053069 
L 78.148107 283.151348 
L 78.175163 283.34332 
L 78.215746 282.902826 
L 78.242802 283.29378 
L 78.351025 282.49903 
L 78.37808 282.687462 
L 78.405136 282.627329 
L 78.499831 282.091653 
L 78.513359 282.262689 
L 78.526886 282.338647 
L 78.553942 281.927551 
L 78.594526 282.116562 
L 78.608054 282.149126 
L 78.716276 281.483989 
L 78.729804 281.614267 
L 78.743332 281.750731 
L 78.770388 281.264405 
L 78.824499 281.505587 
L 78.851555 280.896063 
L 78.973305 280.971531 
L 78.986833 280.94959 
L 79.068 280.477892 
L 79.027416 281.070912 
L 79.095056 280.930074 
L 79.203278 280.034822 
L 79.230334 280.249145 
L 79.25739 280.481095 
L 79.270918 280.102533 
L 79.352085 279.580671 
L 79.325029 280.129323 
L 79.37914 279.826296 
L 79.392668 280.196937 
L 79.433252 279.369776 
L 79.473835 279.675671 
L 79.487363 279.648572 
L 79.582058 279.074082 
L 79.595586 279.245837 
L 79.609113 279.510782 
L 79.649697 278.798499 
L 79.69028 279.087051 
L 79.784975 278.364781 
L 79.825559 278.724234 
L 79.839087 278.819141 
L 79.866142 278.3262 
L 79.906726 278.617542 
L 80.014949 277.892246 
L 80.028476 278.057732 
L 80.042004 278.343146 
L 80.082588 277.705237 
L 80.123171 277.971402 
L 80.231394 277.317367 
L 80.244922 277.684502 
L 80.299033 277.158533 
L 80.339617 277.269213 
L 80.353144 277.237437 
L 80.447839 276.760301 
L 80.393728 277.278809 
L 80.461367 277.131463 
L 80.501951 276.325408 
L 80.610173 276.524621 
L 80.623701 276.750341 
L 80.664285 276.180146 
L 80.704868 276.357804 
L 80.799563 275.5965 
L 80.75898 276.445672 
L 80.813091 275.835976 
L 80.826619 276.117069 
L 80.867202 275.585726 
L 80.907786 275.818853 
L 81.016008 275.00724 
L 81.029536 275.251767 
L 81.043064 275.436358 
L 81.097175 275.013379 
L 81.124231 275.211014 
L 81.137759 275.178881 
L 81.232454 274.613233 
L 81.245982 274.687534 
L 81.273037 274.94474 
L 81.313621 274.446316 
L 81.340676 274.64807 
L 81.448899 273.978969 
L 81.462427 274.072035 
L 81.489483 274.255254 
L 81.530066 273.828194 
L 81.557122 274.19877 
L 81.665345 273.459116 
L 81.678872 273.52496 
L 81.6924 273.622266 
L 81.719456 273.555801 
L 81.814151 273.038882 
L 81.827679 273.362122 
L 81.962957 272.671169 
L 81.976485 272.796124 
L 81.990013 273.045438 
L 82.030596 272.447009 
L 82.07118 272.671066 
L 82.165874 271.882237 
L 82.179402 272.11807 
L 82.19293 272.384268 
L 82.247042 271.882537 
L 82.274097 272.10321 
L 82.38232 271.269342 
L 82.409376 271.701083 
L 82.422903 271.78136 
L 82.449959 271.428391 
L 82.517598 271.044395 
L 82.490543 271.527564 
L 82.558182 271.279461 
L 82.57171 271.457025 
L 82.598765 270.95553 
L 82.639349 271.298042 
L 82.747571 270.393817 
L 82.761099 270.602359 
L 82.774627 270.887789 
L 82.815211 270.309034 
L 82.855794 270.570262 
L 82.964017 269.880209 
L 82.977545 270.178602 
L 83.180462 269.36668 
L 83.0046 270.31387 
L 83.207518 269.555725 
L 83.221046 269.655989 
L 83.234574 269.084989 
L 83.288685 269.40178 
L 83.396908 268.762131 
L 83.410435 268.874023 
L 83.423963 269.032291 
L 83.451019 268.641204 
L 83.50513 268.801456 
L 83.680992 267.879221 
L 83.69452 268.07877 
L 83.708048 268.333182 
L 83.748631 267.59619 
L 83.789215 268.161631 
L 83.88391 267.452608 
L 83.924493 267.608336 
L 83.938021 267.815946 
L 83.978605 267.272721 
L 84.019188 267.442109 
L 84.113883 266.711605 
L 84.073299 267.512436 
L 84.127411 266.935343 
L 84.140939 267.197895 
L 84.181522 266.698746 
L 84.222106 266.915535 
L 84.330328 266.238005 
L 84.357384 266.453728 
L 84.370912 266.690368 
L 84.411495 266.133556 
L 84.452079 266.292329 
L 84.546774 265.746528 
L 84.573829 265.905054 
L 84.587357 266.026121 
L 84.600885 265.53687 
L 84.654996 265.759125 
L 84.763219 265.128715 
L 84.776747 265.215473 
L 84.803803 265.391271 
L 84.844386 264.975717 
L 84.871442 265.169744 
L 84.88497 265.169955 
L 84.898497 264.610538 
L 84.993192 264.681491 
L 85.00672 264.775221 
L 85.033776 264.709548 
L 85.114943 263.986096 
L 85.141998 264.341916 
L 85.155526 264.56485 
L 85.19611 263.991817 
L 85.236693 264.244734 
L 85.344916 263.632416 
L 85.358444 263.752179 
L 85.412555 263.373652 
L 85.439611 263.87684 
L 85.561361 263.082348 
L 85.574889 263.233297 
L 85.588417 263.29377 
L 85.615473 263.118443 
L 85.69664 262.650186 
L 85.656056 263.212307 
L 85.723695 262.830193 
L 85.737223 263.090909 
L 85.777807 262.505111 
L 85.81839 262.706635 
L 85.926613 262.177578 
L 85.940141 262.294289 
L 85.953669 262.500163 
L 85.994252 261.906567 
L 86.021308 262.163147 
L 86.129531 261.551554 
L 86.156586 261.774385 
L 86.170114 261.796553 
L 86.264809 261.075714 
L 86.305392 261.34921 
L 86.31892 261.539808 
L 86.345976 261.057112 
L 86.400087 261.152381 
L 86.481254 260.444318 
L 86.50831 260.715926 
L 86.521838 260.990498 
L 86.562421 260.422962 
L 86.603005 260.661663 
L 86.711228 260.039303 
L 86.724755 260.144825 
L 86.738283 260.29699 
L 86.778867 259.785702 
L 86.81945 260.023766 
L 86.832978 260.031765 
L 86.927673 259.513016 
L 86.941201 259.626327 
L 86.954729 259.703843 
L 86.981784 259.583969 
L 87.062951 259.117692 
L 87.022368 259.6078 
L 87.090007 259.24207 
L 87.103535 259.518269 
L 87.144118 258.923067 
L 87.184702 259.151901 
L 87.292924 258.584367 
L 87.306452 258.703658 
L 87.31998 258.961304 
L 87.360564 258.285816 
L 87.401147 258.475075 
L 87.414675 258.468363 
L 87.50937 258.025966 
L 87.455259 258.50486 
L 87.522898 258.192022 
L 87.536426 258.233168 
L 87.563481 258.012465 
L 87.63112 257.585212 
L 87.617593 258.138246 
L 87.671704 257.782319 
L 87.685232 257.998916 
L 87.725815 257.475138 
L 87.766399 257.62466 
L 87.861094 257.097786 
L 87.888149 257.249152 
L 87.901677 257.361912 
L 87.942261 256.908898 
L 87.969316 257.104966 
L 88.077539 256.497128 
L 88.104595 256.74221 
L 88.118122 256.745724 
L 88.212817 256.024615 
L 88.239873 256.329814 
L 88.253401 256.320645 
L 88.266929 256.459755 
L 88.293984 255.993661 
L 88.334568 256.129279 
L 88.591597 255.244934 
L 88.605125 255.363181 
L 88.618652 255.57867 
L 88.659236 255.034603 
L 88.699819 255.131925 
L 88.713347 255.114162 
L 88.794514 254.52964 
L 88.82157 254.941945 
L 88.943321 254.199336 
L 88.970376 254.466745 
L 88.983904 254.660024 
L 88.997432 254.132691 
L 89.051543 254.48517 
L 89.146238 253.727773 
L 89.186822 253.920351 
L 89.200349 254.070317 
L 89.227405 253.617323 
L 89.267989 253.849761 
L 89.376211 253.092689 
L 89.389739 253.276761 
L 89.403267 253.524919 
L 89.44385 253.008948 
L 89.484434 253.240093 
L 89.579129 252.57779 
L 89.619712 252.809117 
L 89.63324 252.980183 
L 89.673824 252.521855 
L 89.714407 252.611795 
L 89.795574 251.949936 
L 89.82263 252.187398 
L 89.836158 252.446653 
L 89.876741 251.908843 
L 89.917325 252.132936 
L 90.025547 251.531235 
L 90.039075 251.629154 
L 90.052603 251.953388 
L 90.093187 251.184287 
L 90.13377 251.535797 
L 90.147298 251.513582 
L 90.241993 251.017772 
L 90.255521 251.12237 
L 90.269048 251.198491 
L 90.296104 251.085057 
L 90.390799 250.61529 
L 90.350216 251.207493 
L 90.404327 250.749925 
L 90.417855 250.998062 
L 90.458438 250.44304 
L 90.499022 250.660944 
L 90.607244 250.124118 
L 90.620772 250.22492 
L 90.6343 250.36624 
L 90.674884 249.920461 
L 90.701939 250.095202 
L 90.877801 249.364479 
L 90.891329 249.410321 
L 90.904857 249.601263 
L 90.94544 249.171798 
L 90.999552 249.527671 
L 91.094247 248.761515 
L 91.121302 248.981852 
L 91.148358 249.104751 
L 91.243053 248.482775 
L 91.270108 248.63598 
L 91.283636 248.668805 
L 91.297164 248.474303 
L 91.310692 248.469895 
L 91.391859 248.078727 
L 91.351275 248.608954 
L 91.432442 248.241205 
L 91.44597 248.251181 
L 91.527137 247.64665 
L 91.554193 247.910035 
L 91.567721 247.902299 
L 91.581249 248.02741 
L 91.608304 247.584502 
L 91.648888 247.717733 
L 91.905917 246.849166 
L 91.919445 246.965539 
L 91.932972 247.168364 
L 91.973556 246.618525 
L 92.014139 246.733717 
L 92.108834 246.165376 
L 92.149418 246.462898 
L 92.162946 246.506669 
L 92.176473 246.180084 
L 92.338807 245.777184 
L 92.217057 246.318344 
L 92.352335 245.882642 
L 92.365863 246.101607 
L 92.406447 245.57846 
L 92.44703 245.760875 
L 92.528197 245.198932 
L 92.555253 245.235239 
L 92.568781 245.535318 
L 92.622892 245.0595 
L 92.649948 245.234981 
L 92.75817 244.677951 
L 92.771698 244.713116 
L 92.785226 245.035467 
L 92.82581 244.302869 
L 92.879921 244.679204 
L 92.988144 244.196873 
L 93.001671 244.294279 
L 93.015199 244.328628 
L 93.028727 244.282694 
L 93.123422 243.70768 
L 93.13695 243.860682 
L 93.150478 244.116613 
L 93.191061 243.606829 
L 93.231645 243.814847 
L 93.339867 243.160866 
L 93.353395 243.335771 
L 93.366923 243.486014 
L 93.407507 243.121636 
L 93.44809 243.241415 
L 93.461618 243.211311 
L 93.556313 242.732244 
L 93.569841 242.830181 
L 93.583368 242.904324 
L 93.610424 242.794354 
L 93.705119 242.337498 
L 93.664535 242.902579 
L 93.718647 242.467756 
L 93.732175 242.699047 
L 93.772758 242.171909 
L 93.813342 242.379494 
L 93.921564 241.818253 
L 93.935092 242.114258 
L 94.056843 241.360195 
L 94.097426 241.633389 
L 94.110954 241.634666 
L 94.192121 240.949805 
L 94.232705 241.320408 
L 94.246232 241.306758 
L 94.354455 240.790901 
L 94.367983 240.89124 
L 94.381511 240.965563 
L 94.408566 240.5453 
L 94.44915 240.835183 
L 94.63854 239.996322 
L 94.652067 240.149868 
L 94.665595 240.36974 
L 94.706179 239.748443 
L 94.746762 240.083405 
L 94.841457 239.45501 
L 94.882041 239.691304 
L 94.895569 239.804456 
L 94.922624 239.384007 
L 94.963208 239.513638 
L 95.220237 238.664715 
L 95.030847 239.554425 
L 95.233764 238.777127 
L 95.247292 238.96534 
L 95.287876 238.446528 
L 95.328459 238.760485 
L 95.423154 238.010836 
L 95.45021 238.360986 
L 95.653127 237.616411 
L 95.666655 237.719989 
L 95.680183 237.924446 
L 95.720767 237.425508 
L 95.76135 237.600978 
L 95.856045 236.933718 
L 95.869573 237.124711 
L 95.883101 237.332553 
L 95.937212 236.918018 
L 95.964268 237.086505 
L 96.07249 236.384024 
L 96.099546 236.726412 
L 96.113074 236.794652 
L 96.140129 236.505484 
L 96.207769 236.174991 
L 96.180713 236.568922 
L 96.248352 236.350112 
L 96.26188 236.494036 
L 96.302464 236.076169 
L 96.329519 236.20668 
L 96.586548 235.30395 
L 96.397158 236.229931 
L 96.600076 235.436164 
L 96.613604 235.636653 
L 96.654187 235.118477 
L 96.694771 235.463122 
L 96.789466 234.713145 
L 96.816521 235.004348 
L 97.168245 233.995585 
L 96.843577 235.041349 
L 97.208829 234.059196 
L 97.303523 233.619179 
L 97.317051 233.70743 
L 97.330579 233.768514 
L 97.357635 233.669842 
L 97.45233 233.269062 
L 97.398218 233.679189 
L 97.465857 233.540695 
L 97.57408 232.936559 
L 97.614664 233.038427 
L 97.628191 233.209578 
L 97.668775 232.754304 
L 97.709358 232.887475 
L 97.804053 232.267891 
L 97.76347 232.928658 
L 97.817581 232.447231 
L 97.831109 232.652947 
L 97.88522 232.239997 
L 97.912276 232.406496 
L 98.020499 231.836185 
L 98.047554 231.999517 
L 98.061082 232.191483 
L 98.101666 231.728015 
L 98.142249 231.849421 
L 98.236944 231.386842 
L 98.264 231.514256 
L 98.277528 231.632162 
L 98.318111 231.217792 
L 98.345167 231.376679 
L 98.453389 230.832469 
L 98.466917 230.894103 
L 98.493973 231.031761 
L 98.534557 230.681079 
L 98.561612 230.834729 
L 98.57514 230.842141 
L 98.669835 230.36473 
L 98.683363 230.408737 
L 98.696891 230.481138 
L 98.723946 230.428177 
L 98.818641 229.998471 
L 98.832169 230.229683 
L 98.967447 229.66248 
L 98.980975 229.760531 
L 98.994503 229.948517 
L 99.035086 229.475576 
L 99.07567 229.641781 
L 99.170365 229.006615 
L 99.129781 229.649895 
L 99.19742 229.360766 
L 99.38681 228.469568 
L 99.400338 228.663714 
L 99.427394 228.857383 
L 99.467977 228.456567 
L 99.495033 228.636354 
L 99.508561 228.614519 
L 99.616783 228.154317 
L 99.630311 228.244437 
L 99.643839 228.417629 
L 99.684423 227.915218 
L 99.711478 228.119916 
L 99.819701 227.607926 
L 99.846757 227.772973 
L 99.860284 227.789195 
L 99.954979 227.190783 
L 99.995563 227.394166 
L 100.009091 227.548585 
L 100.049674 227.144364 
L 100.090258 227.216322 
L 100.184953 226.770733 
L 100.212008 226.905029 
L 100.225536 226.979496 
L 100.239064 226.558558 
L 100.293175 226.762831 
L 100.401398 226.23912 
L 100.414926 226.316803 
L 100.428454 226.437718 
L 100.469037 226.018266 
L 100.509621 226.20101 
L 100.523148 226.205708 
L 100.617843 225.76367 
L 100.631371 225.845067 
L 100.644899 225.904711 
L 100.671955 225.808957 
L 100.753122 225.246351 
L 100.780177 225.538464 
L 100.793705 225.666115 
L 100.834289 225.229601 
L 100.874872 225.406382 
L 100.983095 224.918251 
L 100.996623 225.009195 
L 101.010151 225.221896 
L 101.050734 224.656922 
L 101.091318 224.810586 
L 101.104845 224.802587 
L 101.19954 224.417563 
L 101.145429 224.812213 
L 101.213068 224.544295 
L 101.226596 224.575508 
L 101.253652 224.399239 
L 101.334819 224.028315 
L 101.294235 224.496847 
L 101.361874 224.17994 
L 101.375402 224.357786 
L 101.415986 223.915814 
L 101.456569 224.03323 
L 101.551264 223.58847 
L 101.57832 223.693908 
L 101.591848 223.784555 
L 101.632431 223.409512 
L 101.659487 223.558376 
L 101.767709 223.047716 
L 101.794765 223.232589 
L 101.808293 223.2341 
L 101.902988 222.636521 
L 101.943571 222.857126 
L 101.957099 222.970535 
L 101.984155 222.59023 
L 102.024738 222.686773 
L 102.349406 221.721423 
L 102.362934 221.806561 
L 102.376462 222.048207 
L 102.417046 221.440204 
L 102.457629 221.664583 
L 102.471157 221.648216 
L 102.565852 221.23904 
L 102.57938 221.3449 
L 102.592907 221.390386 
L 102.619963 221.255885 
L 102.70113 220.874708 
L 102.660547 221.302051 
L 102.728186 220.994363 
L 102.741714 221.189036 
L 102.782297 220.729186 
L 102.822881 220.87657 
L 102.917576 220.449258 
L 102.944631 220.513563 
L 102.958159 220.615847 
L 102.998743 220.240682 
L 103.025798 220.383931 
L 103.215188 219.701779 
L 103.255771 219.937892 
L 103.269299 219.511192 
L 103.323411 219.831243 
L 103.418105 219.165782 
L 103.445161 219.395633 
L 103.458689 219.378271 
L 103.472217 219.440531 
L 103.566912 218.911391 
L 103.593967 219.061495 
L 103.607495 219.073383 
L 103.715718 218.5661 
L 103.729246 218.637102 
L 103.742774 218.896332 
L 103.783357 218.267096 
L 103.823941 218.543431 
L 103.837468 218.522932 
L 103.932163 218.101703 
L 103.959219 218.233747 
L 104.229776 217.473293 
L 104.243303 217.542333 
L 104.256831 217.687496 
L 104.297415 217.281055 
L 104.32447 217.473863 
L 104.432693 216.837759 
L 104.446221 216.983087 
L 104.459749 217.16115 
L 104.51386 216.788049 
L 104.540916 216.937274 
L 104.635611 216.435404 
L 104.676194 216.551655 
L 104.689722 216.713355 
L 104.730306 216.298555 
L 104.770889 216.409044 
L 104.852056 215.899585 
L 104.879112 215.989067 
L 104.89264 216.219508 
L 104.946751 215.812395 
L 104.973807 215.949134 
L 105.082029 215.455183 
L 105.109085 215.626979 
L 105.122613 215.628985 
L 105.217308 215.067282 
L 105.257891 215.262708 
L 105.271419 215.368239 
L 105.298475 215.008254 
L 105.339058 215.100958 
L 105.799005 213.74093 
L 105.812532 213.877956 
L 105.82606 214.03057 
L 105.880172 213.688467 
L 105.907227 213.830377 
L 106.028978 213.365863 
L 106.042506 213.445307 
L 106.056034 213.620198 
L 106.096617 213.19117 
L 106.137201 213.330241 
L 106.218368 212.868397 
L 106.245423 212.876639 
L 106.258951 213.113474 
L 106.313062 212.725066 
L 106.340118 212.85301 
L 106.51598 212.204924 
L 106.529508 212.252628 
L 106.543036 212.427049 
L 106.583619 212.031889 
L 106.637731 212.303122 
L 106.732425 211.678374 
L 106.759481 211.881067 
L 106.773009 211.920839 
L 106.800065 211.678471 
L 106.881232 211.423622 
L 106.840648 211.829753 
L 106.908287 211.560222 
L 106.921815 211.57105 
L 107.030038 211.083084 
L 107.043566 211.148222 
L 107.057093 211.386682 
L 107.097677 210.798538 
L 107.13826 211.059251 
L 107.151788 211.035803 
L 107.246483 210.629703 
L 107.273539 210.750715 
L 107.611735 209.800432 
L 107.63879 209.929492 
L 107.652318 210.009977 
L 107.679374 209.677569 
L 107.70643 209.784896 
L 107.949931 209.030678 
L 107.976986 209.056337 
L 108.004042 209.262571 
L 108.044625 208.868568 
L 108.071681 209.004672 
L 108.166376 208.68566 
L 108.261071 208.393992 
L 108.20696 208.760341 
L 108.274599 208.500568 
L 108.288127 208.523895 
L 108.315182 208.373739 
L 108.396349 208.050331 
L 108.355766 208.45241 
L 108.436933 208.161583 
L 108.450461 208.16589 
L 108.531628 207.694799 
L 108.558683 207.855229 
L 108.585739 207.951842 
L 108.680434 207.350344 
L 108.707489 207.506075 
L 108.721017 207.714469 
L 108.761601 207.20499 
L 108.802184 207.348752 
L 109.194492 206.324343 
L 109.221547 206.455804 
L 109.235075 206.460014 
L 109.343298 206.001429 
L 109.356826 206.08429 
L 109.370353 206.246069 
L 109.410937 205.838713 
L 109.45152 205.970281 
L 109.546215 205.413807 
L 109.573271 205.716562 
L 109.762661 205.062402 
L 109.776189 205.072761 
L 109.789716 205.301016 
L 109.8303 204.761743 
L 109.870883 205.037739 
L 109.884411 205.018662 
L 109.992634 204.611543 
L 110.006162 204.681743 
L 110.01969 204.714825 
L 110.033217 204.676781 
L 110.127912 204.183823 
L 110.087329 204.713216 
L 110.14144 204.31733 
L 110.154968 204.488033 
L 110.195551 204.117997 
L 110.236135 204.254053 
L 110.344358 203.719492 
L 110.371413 203.958172 
L 110.64197 203.228691 
L 110.655498 203.290479 
L 110.669026 203.314496 
L 110.682554 203.119349 
L 110.696081 203.146666 
L 110.736665 203.253055 
L 110.83136 202.761173 
L 110.885471 202.923941 
L 110.993694 202.413102 
L 111.007222 202.464063 
L 111.02075 202.511167 
L 111.047805 202.438702 
L 111.1425 202.088417 
L 111.169556 202.191846 
L 111.183084 202.225143 
L 111.291306 201.802489 
L 111.304834 201.859488 
L 111.318362 201.995747 
L 111.358945 201.621136 
L 111.399529 201.721575 
L 111.494224 201.203026 
L 111.45364 201.734071 
L 111.521279 201.494242 
L 111.710669 200.728494 
L 111.751253 200.985548 
L 111.791836 200.693214 
L 111.818892 200.810895 
L 111.83242 200.786152 
L 111.927115 200.399363 
L 111.95417 200.479915 
L 111.967698 200.582265 
L 112.008282 200.226046 
L 112.035337 200.351772 
L 112.14356 199.900197 
L 112.170616 200.042772 
L 112.184143 200.04207 
L 112.292366 199.571879 
L 112.319422 199.698895 
L 112.33295 199.798876 
L 112.360005 199.480865 
L 112.400589 199.54173 
L 113.658678 196.649602 
L 113.685733 196.770587 
L 113.699261 196.893296 
L 113.739845 196.554173 
L 113.7669 196.639796 
L 114.172735 195.633617 
L 114.213319 195.694118 
L 114.308014 195.324667 
L 114.335069 195.417977 
L 114.740905 194.363417 
L 114.754432 194.440554 
L 114.76796 194.647459 
L 114.808544 194.154023 
L 114.849127 194.336631 
L 114.862655 194.352162 
L 114.95735 193.887531 
L 114.984406 194.135516 
L 115.106156 193.648255 
L 115.119684 193.707864 
L 115.133212 193.760981 
L 115.160267 193.464245 
L 115.214379 193.666791 
L 115.322601 193.195557 
L 115.336129 193.286847 
L 115.349657 193.30191 
L 115.363185 193.186091 
L 115.376713 193.180859 
L 115.45788 192.879367 
L 115.417296 193.237739 
L 115.498463 193.009058 
L 115.593158 192.514854 
L 115.633742 192.673005 
L 115.64727 192.768235 
L 115.674325 192.464665 
L 115.714909 192.526193 
L 116.391301 190.92577 
L 116.418356 190.998647 
L 116.431884 191.150416 
L 116.472468 190.779073 
L 116.513051 190.886233 
L 116.621274 190.501389 
L 116.634802 190.564011 
L 116.648329 190.696682 
L 116.688913 190.295015 
L 116.715969 190.447078 
L 116.905358 189.851008 
L 116.945942 190.042257 
L 116.95947 189.706708 
L 117.013581 189.931297 
L 117.108276 189.392875 
L 117.148859 189.535349 
L 117.162387 189.588193 
L 117.175915 189.221104 
L 117.216499 189.493421 
L 117.338249 188.961515 
L 117.351777 189.050072 
L 117.365305 189.18968 
L 117.405888 188.834163 
L 117.446472 188.957414 
L 117.541167 188.474119 
L 117.58175 188.636306 
L 117.595278 188.700186 
L 117.622334 188.415111 
L 117.649389 188.499567 
L 118.704561 186.12894 
L 118.718088 186.226678 
L 118.731616 186.365021 
L 118.7722 186.032557 
L 118.812783 186.149211 
L 118.907478 185.699923 
L 118.948062 185.824466 
L 118.961589 185.910349 
L 118.988645 185.626983 
L 119.029229 185.683397 
L 119.637981 184.215604 
L 119.665037 184.353252 
L 119.678565 184.476213 
L 119.719148 184.126621 
L 119.746204 184.324005 
L 119.840899 183.860111 
L 119.881482 183.91937 
L 119.89501 184.00968 
L 119.935594 183.722454 
L 119.962649 183.836787 
L 120.070872 183.335707 
L 120.0844 183.435573 
L 120.097928 183.565112 
L 120.152039 183.268035 
L 120.179095 183.366265 
L 120.368484 182.838031 
L 120.39554 182.919501 
L 120.422596 182.640224 
L 120.463179 182.763098 
L 120.476707 182.81098 
L 120.490235 182.479892 
L 120.530818 182.714292 
L 120.652569 182.206022 
L 120.666097 182.289554 
L 120.679625 182.417433 
L 120.720208 182.085313 
L 120.760792 182.153822 
L 120.77432 182.149326 
L 120.855487 181.753991 
L 120.89607 181.886196 
L 120.909598 181.945037 
L 120.936654 181.676133 
L 120.963709 181.750828 
L 120.990765 181.692022 
L 121.08546 181.33798 
L 121.044876 181.725791 
L 121.098988 181.419214 
L 121.112515 181.554875 
L 121.153099 181.219097 
L 121.193682 181.325135 
L 121.301905 180.928499 
L 121.315433 180.995794 
L 121.328961 181.072332 
L 121.369544 180.805367 
L 121.3966 180.877677 
L 122.451771 178.601287 
L 122.465299 178.676774 
L 122.478827 178.815907 
L 122.51941 178.496146 
L 122.559994 178.594493 
L 122.668217 178.166081 
L 122.695272 178.331867 
L 122.884662 177.790346 
L 122.89819 177.842952 
L 122.925246 177.891976 
L 122.952301 177.691192 
L 122.992885 177.738468 
L 123.101107 177.350078 
L 123.114635 177.395233 
L 123.128163 177.459723 
L 123.155219 177.243051 
L 123.20933 177.368189 
L 123.317553 176.941935 
L 123.331081 176.99075 
L 123.344608 177.017238 
L 123.371664 176.937146 
L 123.466359 176.653558 
L 123.493415 176.718459 
L 123.506942 176.733557 
L 123.58811 176.373607 
L 123.628693 176.42846 
L 123.642221 176.520332 
L 123.682804 176.232976 
L 123.70986 176.311507 
L 124.318613 174.894073 
L 124.345668 175.003053 
L 124.359196 175.137201 
L 124.39978 174.771165 
L 124.440363 174.845159 
L 124.751503 174.040807 
L 124.765031 174.124526 
L 124.778559 174.225394 
L 124.83267 173.966535 
L 124.859726 174.035891 
L 124.873254 174.061891 
L 124.981477 173.693027 
L 124.995004 173.738487 
L 125.008532 173.841756 
L 125.049116 173.541469 
L 125.089699 173.611947 
L 125.184394 173.186843 
L 125.21145 173.395977 
L 125.40084 172.752929 
L 125.414367 172.861483 
L 125.441423 172.951724 
L 125.482007 172.702922 
L 125.509062 172.789295 
L 125.671396 172.463391 
L 125.766091 172.088875 
L 125.725508 172.472282 
L 125.793147 172.29255 
L 125.955481 171.835187 
L 126.036648 171.685507 
L 126.198982 171.313097 
L 126.21251 171.357942 
L 126.239565 171.408397 
L 126.266621 171.216185 
L 126.307205 171.255566 
L 126.415427 170.882929 
L 126.442483 170.983674 
L 126.537178 170.78104 
L 126.631873 170.483585 
L 126.658928 170.551749 
L 126.902429 169.939892 
L 126.929485 169.951208 
L 126.956541 170.062991 
L 126.983596 169.833362 
L 127.02418 169.866138 
L 127.21357 169.375858 
L 127.240625 169.451806 
L 127.281209 169.195607 
L 127.308265 169.371316 
L 127.430015 168.965015 
L 127.443543 169.00508 
L 127.457071 169.030038 
L 127.470599 169.005192 
L 127.565293 168.693429 
L 127.592349 168.749936 
L 127.605877 168.803378 
L 127.64646 168.555861 
L 127.673516 168.624883 
L 127.781739 168.259759 
L 127.808794 168.353903 
L 127.822322 168.345349 
L 127.917017 167.930028 
L 127.957601 168.049839 
L 127.971128 168.110172 
L 127.998184 167.872507 
L 128.02524 167.921765 
L 128.052296 167.874777 
L 128.14699 167.582982 
L 128.174046 167.646514 
L 128.187574 167.669185 
L 128.295797 167.310424 
L 128.309324 167.355428 
L 128.322852 167.449758 
L 128.363436 167.166617 
L 128.390491 167.25572 
L 128.431075 167.002326 
L 128.485186 167.055785 
L 128.579881 166.765223 
L 128.606937 166.836666 
L 128.796327 166.349891 
L 128.823382 166.430247 
L 128.850438 166.21269 
L 128.877494 166.26129 
L 128.904549 166.336484 
L 128.918077 166.180915 
L 129.080411 165.756306 
L 128.972188 166.218849 
L 129.093939 165.832667 
L 129.107467 165.938993 
L 129.14805 165.672181 
L 129.188634 165.747427 
L 129.283329 165.363717 
L 129.323912 165.450619 
L 129.33744 165.525064 
L 129.378023 165.282076 
L 129.405079 165.323186 
L 130.595529 162.929603 
L 130.622584 163.02157 
L 130.636112 163.076307 
L 130.64964 162.827275 
L 130.703751 162.961817 
L 130.798446 162.542728 
L 130.83903 162.619093 
L 130.852558 162.66226 
L 130.879613 162.442366 
L 130.920197 162.5231 
L 131.02842 162.124161 
L 131.041947 162.189176 
L 131.055475 162.288014 
L 131.096059 162.019512 
L 131.136642 162.094523 
L 131.231337 161.717043 
L 131.271921 161.809022 
L 131.285448 161.861172 
L 131.312504 161.641083 
L 131.33956 161.68181 
L 131.366615 161.638545 
L 131.447782 161.284481 
L 131.488366 161.482086 
L 131.610116 161.087716 
L 131.623644 161.130864 
L 131.637172 161.215333 
L 131.677756 160.950347 
L 131.704811 161.108117 
L 131.813034 160.634427 
L 131.84009 160.784993 
L 132.029479 160.282754 
L 132.056535 160.327753 
L 132.070063 160.423388 
L 132.110646 160.153005 
L 132.15123 160.207428 
L 132.259453 159.919524 
L 132.27298 159.937315 
L 132.286508 159.983754 
L 132.327092 159.759459 
L 132.34062 159.807749 
L 132.354147 159.818115 
L 132.367675 159.755959 
L 132.381203 159.740141 
L 132.46237 159.497874 
L 132.502954 159.560133 
L 132.692343 159.109068 
L 132.719399 159.150428 
L 132.732927 159.12234 
L 132.814094 158.784149 
L 132.854677 158.956513 
L 132.976428 158.545528 
L 133.017011 158.581013 
L 133.179346 158.126835 
L 133.219929 158.217559 
L 133.233457 158.249483 
L 133.260513 158.045561 
L 133.287568 158.096911 
L 133.761042 157.065843 
L 133.77457 157.132981 
L 133.788098 157.216063 
L 133.842209 156.98826 
L 133.869265 157.049346 
L 134.058655 156.594086 
L 134.085711 156.653613 
L 134.112766 156.452965 
L 134.139822 156.507809 
L 134.166878 156.550557 
L 134.2751 156.204382 
L 134.288628 156.252764 
L 134.302156 156.258315 
L 134.315684 156.176678 
L 134.329212 156.162948 
L 134.410379 155.933872 
L 134.369795 156.180009 
L 134.450962 155.969944 
L 134.46449 155.966868 
L 134.545657 155.655371 
L 134.58624 155.720784 
L 134.599768 155.767717 
L 134.626824 155.563665 
L 134.65388 155.595139 
L 134.680935 155.556651 
L 134.77563 155.263178 
L 134.802686 155.405427 
L 134.924436 155.018412 
L 134.937964 155.059406 
L 134.951492 155.134961 
L 134.992076 154.868939 
L 135.019131 154.973637 
L 135.208521 154.507053 
L 135.235577 154.562042 
L 135.262632 154.482922 
L 135.357327 154.240717 
L 135.384383 154.358376 
L 135.479078 154.002639 
L 135.519661 154.02821 
L 135.533189 154.080824 
L 135.573773 153.851171 
L 135.5873 153.964165 
L 135.790218 153.471283 
L 135.817274 153.525643 
L 135.844329 153.338699 
L 135.871385 153.424916 
L 136.223109 152.697378 
L 136.236637 152.747755 
L 136.27722 152.638708 
L 136.317804 152.668191 
L 136.426026 152.33578 
L 137.061835 151.271625 
L 137.156529 151.023198 
L 137.183585 151.076525 
L 137.724699 149.998789 
L 137.738226 150.006708 
L 137.751754 150.117353 
L 137.792338 149.804757 
L 137.832921 149.92033 
L 138.076422 149.456068 
L 138.117006 149.461716 
L 138.211701 149.177342 
L 138.292868 149.055878 
L 138.346979 149.065975 
L 138.441674 148.69097 
L 138.46873 148.795386 
L 138.522841 148.604394 
L 138.536369 148.634994 
L 138.563424 148.651614 
L 138.576952 148.518837 
L 138.725758 148.296075 
L 138.874565 147.916614 
L 138.888092 147.981574 
L 138.90162 148.043249 
L 138.955732 147.847467 
L 138.969259 147.876784 
L 138.982787 147.887657 
L 139.009843 147.820075 
L 139.104538 147.592085 
L 139.131594 147.622879 
L 139.145121 147.625122 
L 139.226288 147.353019 
L 139.266872 147.370435 
L 139.2804 147.42332 
L 139.320983 147.21673 
L 139.348039 147.256404 
L 140.240876 145.536661 
L 140.28146 145.608791 
L 140.294987 145.644303 
L 140.322043 145.466501 
L 140.349099 145.493037 
L 142.175357 142.3537 
L 142.270052 142.109584 
L 142.297107 142.14111 
L 142.567664 141.625045 
L 142.581192 141.638216 
L 142.59472 141.684809 
L 142.635303 141.490524 
L 142.662359 141.57968 
L 142.770582 141.206261 
L 142.811165 141.260246 
L 142.90586 141.068693 
L 143.054666 140.794471 
L 143.284639 140.386483 
L 143.298167 140.422718 
L 143.338751 140.336119 
L 143.487557 140.06204 
L 143.514613 140.07308 
L 143.676947 139.78972 
L 144.867396 137.696866 
L 144.894452 137.736951 
L 144.90798 137.748091 
L 145.016202 137.477458 
L 145.02973 137.493598 
L 145.056786 137.469111 
L 145.137953 137.203201 
L 145.178536 137.304879 
L 145.367926 136.863528 
L 145.394982 136.906888 
L 145.422037 136.797494 
L 145.462621 136.829168 
L 145.584371 136.513699 
L 145.611427 136.535698 
L 145.638483 136.483038 
L 145.773761 136.254226 
L 146.233708 135.405843 
L 146.247235 135.459967 
L 146.368986 135.230225 
L 146.598959 134.833585 
L 146.626015 134.857644 
L 146.653071 134.781975 
L 146.801877 134.465677 
L 146.828932 134.54075 
L 146.855988 134.479914 
L 146.964211 134.246135 
L 146.977739 134.258539 
L 147.072433 134.110456 
L 147.234768 133.805247 
L 147.383574 133.48411 
L 147.275351 133.820691 
L 147.410629 133.544985 
L 147.735297 132.989544 
L 147.897631 132.689672 
L 147.911159 132.758775 
L 147.965271 132.581888 
L 147.992326 132.599854 
L 148.262883 132.118729 
L 148.316994 132.01591 
L 148.966331 130.909334 
L 148.993386 130.943204 
L 149.006914 130.996698 
L 149.047498 130.797058 
L 149.074553 130.871381 
L 149.263943 130.455323 
L 149.290999 130.498576 
L 149.318054 130.39731 
L 149.480388 130.112768 
L 149.507444 130.13418 
L 150.752005 128.121052 
L 150.8467 127.910289 
L 150.873755 127.924836 
L 150.914339 127.817518 
L 151.049617 127.619139 
L 151.211951 127.322956 
L 151.225479 127.378904 
L 151.279591 127.22071 
L 151.293118 127.228353 
L 151.333702 127.178442 
L 151.482508 126.844454 
L 151.523092 126.889256 
L 151.550147 126.778164 
L 151.563675 126.781278 
L 154.066325 122.865585 
L 154.215131 122.563921 
L 154.350409 122.41145 
L 154.729189 121.734031 
L 154.756245 121.76962 
L 154.769772 121.789823 
L 154.796828 121.70613 
L 154.959162 121.42216 
L 154.97269 121.42834 
L 154.986218 121.466018 
L 155.026801 121.291425 
L 155.040329 121.31819 
L 155.080913 121.275182 
L 155.216191 121.05331 
L 159.950934 113.835994 
L 159.964462 113.856908 
L 160.005045 113.722759 
L 160.032101 113.747911 
L 160.059156 113.673932 
L 160.248546 113.398229 
L 160.316185 113.297575 
L 161.614858 111.363774 
L 161.628385 111.37056 
L 161.655441 111.282943 
L 162.291249 110.365532 
L 162.440056 110.097079 
L 162.453583 110.100144 
L 162.575334 109.942318 
L 162.900002 109.460489 
L 162.91353 109.470934 
L 162.940586 109.411541 
L 163.10292 109.155872 
L 163.211142 109.038131 
L 163.400532 108.723293 
L 163.454643 108.648743 
L 163.752256 108.204685 
L 163.792839 108.182421 
L 163.806367 108.111655 
L 163.955173 107.923442 
L 164.212202 107.563266 
L 164.780371 106.736786 
L 165.023872 106.390688 
L 165.199734 106.113992 
L 165.294429 106.012085 
L 165.564986 105.595847 
L 165.740848 105.355293 
L 167.093631 103.423928 
L 167.255965 103.194521 
L 168.392304 101.588675 
L 168.500526 101.42784 
L 169.244557 100.386745 
L 169.420419 100.15982 
L 169.677448 99.783501 
L 169.866838 99.528698 
L 170.096811 99.191747 
L 170.245617 98.99103 
L 170.583813 98.537466 
L 170.881426 98.110616 
L 171.368428 97.459574 
L 171.706624 96.985511 
L 171.896013 96.716747 
L 172.234209 96.268635 
L 172.640044 95.711424 
L 173.85755 94.060424 
L 177.428898 89.628043 
L 178.145874 89.623742 
L 178.578764 89.625106 
L 180.323855 89.625695 
L 180.878497 89.628351 
L 181.798389 89.624186 
L 182.217752 89.62807 
L 182.637115 89.624217 
L 183.056478 89.62805 
L 183.475841 89.624248 
L 183.895204 89.628031 
L 184.314567 89.624279 
L 184.73393 89.62801 
L 185.153293 89.624311 
L 185.572656 89.627989 
L 185.992019 89.624343 
L 186.411382 89.627968 
L 186.830745 89.624375 
L 187.250108 89.627947 
L 187.66947 89.624408 
L 188.088833 89.627925 
L 188.508196 89.624441 
L 188.941087 89.624187 
L 190.5509 89.628413 
L 191.078485 89.625952 
L 191.687238 89.628286 
L 192.160712 89.625041 
L 192.634186 89.626155 
L 193.242939 89.624223 
L 193.662302 89.628046 
L 194.081665 89.624254 
L 194.501028 89.628026 
L 194.920391 89.624285 
L 195.339754 89.628006 
L 195.759117 89.624317 
L 196.17848 89.627985 
L 196.597842 89.624349 
L 197.017205 89.627964 
L 197.436568 89.624382 
L 197.855931 89.627942 
L 198.275294 89.624415 
L 198.694657 89.62792 
L 199.11402 89.624448 
L 199.546911 89.62418 
L 201.11614 89.626933 
L 201.576086 89.623586 
L 202.008977 89.625466 
L 203.010037 89.624199 
L 203.4294 89.628062 
L 203.848763 89.62423 
L 204.268126 89.628042 
L 204.687489 89.624261 
L 205.106852 89.628022 
L 205.526215 89.624292 
L 205.945577 89.628002 
L 206.36494 89.624324 
L 206.784303 89.627981 
L 207.203666 89.624356 
L 207.623029 89.627959 
L 208.042392 89.624389 
L 208.461755 89.627937 
L 208.881118 89.624422 
L 209.314009 89.624206 
L 210.977933 89.627869 
L 211.397295 89.624523 
L 211.830186 89.624108 
L 213.196498 89.628077 
L 213.615861 89.624205 
L 214.035224 89.628058 
L 214.454587 89.624236 
L 214.873949 89.628038 
L 215.293312 89.624267 
L 215.712675 89.628018 
L 216.132038 89.624299 
L 216.551401 89.627997 
L 216.970764 89.624331 
L 217.390127 89.627976 
L 217.80949 89.624363 
L 218.228853 89.627955 
L 218.648216 89.624396 
L 219.067579 89.627933 
L 219.486942 89.624429 
L 219.919832 89.624199 
L 221.543173 89.625529 
L 222.490121 89.623476 
L 222.977123 89.624504 
L 228.198868 89.626669 
L 228.672343 89.627327 
L 230.620351 89.625346 
L 231.770217 89.624503 
L 232.203108 89.624127 
L 233.623531 89.627096 
L 234.042894 89.625526 
L 234.556951 89.627937 
L 234.976314 89.624422 
L 235.409205 89.624206 
L 237.073129 89.627869 
L 237.492492 89.624523 
L 237.925383 89.624108 
L 239.291694 89.628077 
L 239.711057 89.624206 
L 240.13042 89.628057 
L 240.549783 89.624237 
L 240.969146 89.628038 
L 241.388509 89.624268 
L 241.807872 89.628018 
L 242.227235 89.624299 
L 242.646598 89.627997 
L 243.06596 89.624331 
L 243.485323 89.627976 
L 243.904686 89.624364 
L 244.324049 89.627954 
L 244.743412 89.624396 
L 245.162775 89.627932 
L 245.582138 89.624429 
L 246.015029 89.624199 
L 247.638369 89.625529 
L 248.585318 89.623476 
L 249.07232 89.624504 
L 254.294065 89.626668 
L 254.767539 89.627328 
L 256.715547 89.625345 
L 257.865413 89.624504 
L 258.298304 89.624126 
L 259.718727 89.627095 
L 260.13809 89.625527 
L 260.652148 89.627937 
L 261.071511 89.624423 
L 261.504401 89.624205 
L 263.168325 89.627868 
L 263.587688 89.624524 
L 264.020579 89.624107 
L 265.386891 89.628076 
L 265.806253 89.624206 
L 266.225616 89.628057 
L 266.644979 89.624237 
L 267.064342 89.628037 
L 267.483705 89.624268 
L 267.903068 89.628017 
L 268.322431 89.6243 
L 268.741794 89.627996 
L 269.161157 89.624332 
L 269.58052 89.627975 
L 269.999883 89.624364 
L 270.419246 89.627954 
L 270.838609 89.624397 
L 271.257972 89.627932 
L 271.677334 89.62443 
L 272.110225 89.624198 
L 273.733566 89.625528 
L 274.680514 89.623476 
L 275.167516 89.624503 
L 280.33515 89.627825 
L 280.754513 89.624587 
L 281.187403 89.62405 
L 282.404909 89.628158 
L 282.837799 89.627745 
L 398.487273 89.625548 
L 398.487273 89.625548 
" style="fill:none;stroke:#d62728;stroke-linecap:square;stroke-width:1.5;"/>
   </g>
   <g id="line2d_20">
    <path clip-path="url(#p363681182c)" d="M 73.832727 91.567235 
L 398.487273 91.567235 
L 398.487273 91.567235 
" style="fill:none;stroke:#9467bd;stroke-linecap:square;stroke-width:1.5;"/>
   </g>
   <g id="patch_3">
    <path d="M 57.6 307.584 
L 57.6 41.472 
" style="fill:none;stroke:#000000;stroke-linecap:square;stroke-linejoin:miter;stroke-width:0.8;"/>
   </g>
   <g id="patch_4">
    <path d="M 414.72 307.584 
L 414.72 41.472 
" style="fill:none;stroke:#000000;stroke-linecap:square;stroke-linejoin:miter;stroke-width:0.8;"/>
   </g>
   <g id="patch_5">
    <path d="M 57.6 307.584 
L 414.72 307.584 
" style="fill:none;stroke:#000000;stroke-linecap:square;stroke-linejoin:miter;stroke-width:0.8;"/>
   </g>
   <g id="patch_6">
    <path d="M 57.6 41.472 
L 414.72 41.472 
" style="fill:none;stroke:#000000;stroke-linecap:square;stroke-linejoin:miter;stroke-width:0.8;"/>
   </g>
   <g id="legend_1">
    <g id="patch_7">
     <path d="M 356.516875 302.584 
L 407.72 302.584 
Q 409.72 302.584 409.72 300.584 
L 409.72 228.193375 
Q 409.72 226.193375 407.72 226.193375 
L 356.516875 226.193375 
Q 354.516875 226.193375 354.516875 228.193375 
L 354.516875 300.584 
Q 354.516875 302.584 356.516875 302.584 
z
" style="fill:#ffffff;opacity:0.8;stroke:#cccccc;stroke-linejoin:miter;"/>
    </g>
    <g id="line2d_21">
     <path d="M 358.516875 234.291812 
L 378.516875 234.291812 
" style="fill:none;stroke:#1f77b4;stroke-linecap:square;stroke-width:1.5;"/>
    </g>
    <g id="line2d_22"/>
    <g id="text_19">
     <!-- T+ -->
     <defs>
      <path d="M 46 62.703125 
L 46 35.5 
L 73.1875 35.5 
L 73.1875 27.203125 
L 46 27.203125 
L 46 0 
L 37.796875 0 
L 37.796875 27.203125 
L 10.59375 27.203125 
L 10.59375 35.5 
L 37.796875 35.5 
L 37.796875 62.703125 
z
" id="DejaVuSans-43"/>
     </defs>
     <g transform="translate(386.516875 237.791812)scale(0.1 -0.1)">
      <use xlink:href="#DejaVuSans-84"/>
      <use x="61.083984" xlink:href="#DejaVuSans-43"/>
     </g>
    </g>
    <g id="line2d_23">
     <path d="M 358.516875 248.969937 
L 378.516875 248.969937 
" style="fill:none;stroke:#ff7f0e;stroke-linecap:square;stroke-width:1.5;"/>
    </g>
    <g id="line2d_24"/>
    <g id="text_20">
     <!-- Tp -->
     <defs>
      <path d="M 18.109375 8.203125 
L 18.109375 -20.796875 
L 9.078125 -20.796875 
L 9.078125 54.6875 
L 18.109375 54.6875 
L 18.109375 46.390625 
Q 20.953125 51.265625 25.265625 53.625 
Q 29.59375 56 35.59375 56 
Q 45.5625 56 51.78125 48.09375 
Q 58.015625 40.1875 58.015625 27.296875 
Q 58.015625 14.40625 51.78125 6.484375 
Q 45.5625 -1.421875 35.59375 -1.421875 
Q 29.59375 -1.421875 25.265625 0.953125 
Q 20.953125 3.328125 18.109375 8.203125 
z
M 48.6875 27.296875 
Q 48.6875 37.203125 44.609375 42.84375 
Q 40.53125 48.484375 33.40625 48.484375 
Q 26.265625 48.484375 22.1875 42.84375 
Q 18.109375 37.203125 18.109375 27.296875 
Q 18.109375 17.390625 22.1875 11.75 
Q 26.265625 6.109375 33.40625 6.109375 
Q 40.53125 6.109375 44.609375 11.75 
Q 48.6875 17.390625 48.6875 27.296875 
z
" id="DejaVuSans-112"/>
     </defs>
     <g transform="translate(386.516875 252.469937)scale(0.1 -0.1)">
      <use xlink:href="#DejaVuSans-84"/>
      <use x="61.083984" xlink:href="#DejaVuSans-112"/>
     </g>
    </g>
    <g id="line2d_25">
     <path d="M 358.516875 263.648062 
L 378.516875 263.648062 
" style="fill:none;stroke:#2ca02c;stroke-linecap:square;stroke-width:1.5;"/>
    </g>
    <g id="line2d_26"/>
    <g id="text_21">
     <!-- T- -->
     <defs>
      <path d="M 4.890625 31.390625 
L 31.203125 31.390625 
L 31.203125 23.390625 
L 4.890625 23.390625 
z
" id="DejaVuSans-45"/>
     </defs>
     <g transform="translate(386.516875 267.148062)scale(0.1 -0.1)">
      <use xlink:href="#DejaVuSans-84"/>
      <use x="51.958984" xlink:href="#DejaVuSans-45"/>
     </g>
    </g>
    <g id="line2d_27">
     <path d="M 358.516875 278.326188 
L 378.516875 278.326188 
" style="fill:none;stroke:#d62728;stroke-linecap:square;stroke-width:1.5;"/>
    </g>
    <g id="line2d_28"/>
    <g id="text_22">
     <!-- O2 -->
     <defs>
      <path d="M 39.40625 66.21875 
Q 28.65625 66.21875 22.328125 58.203125 
Q 16.015625 50.203125 16.015625 36.375 
Q 16.015625 22.609375 22.328125 14.59375 
Q 28.65625 6.59375 39.40625 6.59375 
Q 50.140625 6.59375 56.421875 14.59375 
Q 62.703125 22.609375 62.703125 36.375 
Q 62.703125 50.203125 56.421875 58.203125 
Q 50.140625 66.21875 39.40625 66.21875 
z
M 39.40625 74.21875 
Q 54.734375 74.21875 63.90625 63.9375 
Q 73.09375 53.65625 73.09375 36.375 
Q 73.09375 19.140625 63.90625 8.859375 
Q 54.734375 -1.421875 39.40625 -1.421875 
Q 24.03125 -1.421875 14.8125 8.828125 
Q 5.609375 19.09375 5.609375 36.375 
Q 5.609375 53.65625 14.8125 63.9375 
Q 24.03125 74.21875 39.40625 74.21875 
z
" id="DejaVuSans-79"/>
     </defs>
     <g transform="translate(386.516875 281.826188)scale(0.1 -0.1)">
      <use xlink:href="#DejaVuSans-79"/>
      <use x="78.710938" xlink:href="#DejaVuSans-50"/>
     </g>
    </g>
    <g id="line2d_29">
     <path d="M 358.516875 293.004312 
L 378.516875 293.004312 
" style="fill:none;stroke:#9467bd;stroke-linecap:square;stroke-width:1.5;"/>
    </g>
    <g id="line2d_30"/>
    <g id="text_23">
     <!-- test -->
     <g transform="translate(386.516875 296.504312)scale(0.1 -0.1)">
      <use xlink:href="#DejaVuSans-116"/>
      <use x="39.208984" xlink:href="#DejaVuSans-101"/>
      <use x="100.732422" xlink:href="#DejaVuSans-115"/>
      <use x="152.832031" xlink:href="#DejaVuSans-116"/>
     </g>
    </g>
   </g>
  </g>
 </g>
 <defs>
  <clipPath id="p363681182c">
   <rect height="266.112" width="357.12" x="57.6" y="41.472"/>
  </clipPath>
 </defs>
</svg>
