<?xml version="1.0" encoding="utf-8" standalone="no"?>
<!DOCTYPE svg PUBLIC "-//W3C//DTD SVG 1.1//EN"
  "http://www.w3.org/Graphics/SVG/1.1/DTD/svg11.dtd">
<!-- Created with matplotlib (https://matplotlib.org/) -->
<svg height="345.6pt" version="1.1" viewBox="0 0 460.8 345.6" width="460.8pt" xmlns="http://www.w3.org/2000/svg" xmlns:xlink="http://www.w3.org/1999/xlink">
 <defs>
  <style type="text/css">
*{stroke-linecap:butt;stroke-linejoin:round;}
  </style>
 </defs>
 <g id="figure_1">
  <g id="patch_1">
   <path d="M 0 345.6 
L 460.8 345.6 
L 460.8 0 
L 0 0 
z
" style="fill:#ffffff;"/>
  </g>
  <g id="axes_1">
   <g id="patch_2">
    <path d="M 57.6 307.584 
L 414.72 307.584 
L 414.72 41.472 
L 57.6 41.472 
z
" style="fill:#ffffff;"/>
   </g>
   <g id="matplotlib.axis_1">
    <g id="xtick_1">
     <g id="line2d_1">
      <defs>
       <path d="M 0 0 
L 0 3.5 
" id="m98ef7a00dd" style="stroke:#000000;stroke-width:0.8;"/>
      </defs>
      <g>
       <use style="stroke:#000000;stroke-width:0.8;" x="73.832727" xlink:href="#m98ef7a00dd" y="307.584"/>
      </g>
     </g>
     <g id="text_1">
      <!-- 0.0 -->
      <defs>
       <path d="M 31.78125 66.40625 
Q 24.171875 66.40625 20.328125 58.90625 
Q 16.5 51.421875 16.5 36.375 
Q 16.5 21.390625 20.328125 13.890625 
Q 24.171875 6.390625 31.78125 6.390625 
Q 39.453125 6.390625 43.28125 13.890625 
Q 47.125 21.390625 47.125 36.375 
Q 47.125 51.421875 43.28125 58.90625 
Q 39.453125 66.40625 31.78125 66.40625 
z
M 31.78125 74.21875 
Q 44.046875 74.21875 50.515625 64.515625 
Q 56.984375 54.828125 56.984375 36.375 
Q 56.984375 17.96875 50.515625 8.265625 
Q 44.046875 -1.421875 31.78125 -1.421875 
Q 19.53125 -1.421875 13.0625 8.265625 
Q 6.59375 17.96875 6.59375 36.375 
Q 6.59375 54.828125 13.0625 64.515625 
Q 19.53125 74.21875 31.78125 74.21875 
z
" id="DejaVuSans-48"/>
       <path d="M 10.6875 12.40625 
L 21 12.40625 
L 21 0 
L 10.6875 0 
z
" id="DejaVuSans-46"/>
      </defs>
      <g transform="translate(65.881165 322.182437)scale(0.1 -0.1)">
       <use xlink:href="#DejaVuSans-48"/>
       <use x="63.623047" xlink:href="#DejaVuSans-46"/>
       <use x="95.410156" xlink:href="#DejaVuSans-48"/>
      </g>
     </g>
    </g>
    <g id="xtick_2">
     <g id="line2d_2">
      <g>
       <use style="stroke:#000000;stroke-width:0.8;" x="118.925515" xlink:href="#m98ef7a00dd" y="307.584"/>
      </g>
     </g>
     <g id="text_2">
      <!-- 0.2 -->
      <defs>
       <path d="M 19.1875 8.296875 
L 53.609375 8.296875 
L 53.609375 0 
L 7.328125 0 
L 7.328125 8.296875 
Q 12.9375 14.109375 22.625 23.890625 
Q 32.328125 33.6875 34.8125 36.53125 
Q 39.546875 41.84375 41.421875 45.53125 
Q 43.3125 49.21875 43.3125 52.78125 
Q 43.3125 58.59375 39.234375 62.25 
Q 35.15625 65.921875 28.609375 65.921875 
Q 23.96875 65.921875 18.8125 64.3125 
Q 13.671875 62.703125 7.8125 59.421875 
L 7.8125 69.390625 
Q 13.765625 71.78125 18.9375 73 
Q 24.125 74.21875 28.421875 74.21875 
Q 39.75 74.21875 46.484375 68.546875 
Q 53.21875 62.890625 53.21875 53.421875 
Q 53.21875 48.921875 51.53125 44.890625 
Q 49.859375 40.875 45.40625 35.40625 
Q 44.1875 33.984375 37.640625 27.21875 
Q 31.109375 20.453125 19.1875 8.296875 
z
" id="DejaVuSans-50"/>
      </defs>
      <g transform="translate(110.973953 322.182437)scale(0.1 -0.1)">
       <use xlink:href="#DejaVuSans-48"/>
       <use x="63.623047" xlink:href="#DejaVuSans-46"/>
       <use x="95.410156" xlink:href="#DejaVuSans-50"/>
      </g>
     </g>
    </g>
    <g id="xtick_3">
     <g id="line2d_3">
      <g>
       <use style="stroke:#000000;stroke-width:0.8;" x="164.018303" xlink:href="#m98ef7a00dd" y="307.584"/>
      </g>
     </g>
     <g id="text_3">
      <!-- 0.4 -->
      <defs>
       <path d="M 37.796875 64.3125 
L 12.890625 25.390625 
L 37.796875 25.390625 
z
M 35.203125 72.90625 
L 47.609375 72.90625 
L 47.609375 25.390625 
L 58.015625 25.390625 
L 58.015625 17.1875 
L 47.609375 17.1875 
L 47.609375 0 
L 37.796875 0 
L 37.796875 17.1875 
L 4.890625 17.1875 
L 4.890625 26.703125 
z
" id="DejaVuSans-52"/>
      </defs>
      <g transform="translate(156.066741 322.182437)scale(0.1 -0.1)">
       <use xlink:href="#DejaVuSans-48"/>
       <use x="63.623047" xlink:href="#DejaVuSans-46"/>
       <use x="95.410156" xlink:href="#DejaVuSans-52"/>
      </g>
     </g>
    </g>
    <g id="xtick_4">
     <g id="line2d_4">
      <g>
       <use style="stroke:#000000;stroke-width:0.8;" x="209.111091" xlink:href="#m98ef7a00dd" y="307.584"/>
      </g>
     </g>
     <g id="text_4">
      <!-- 0.6 -->
      <defs>
       <path d="M 33.015625 40.375 
Q 26.375 40.375 22.484375 35.828125 
Q 18.609375 31.296875 18.609375 23.390625 
Q 18.609375 15.53125 22.484375 10.953125 
Q 26.375 6.390625 33.015625 6.390625 
Q 39.65625 6.390625 43.53125 10.953125 
Q 47.40625 15.53125 47.40625 23.390625 
Q 47.40625 31.296875 43.53125 35.828125 
Q 39.65625 40.375 33.015625 40.375 
z
M 52.59375 71.296875 
L 52.59375 62.3125 
Q 48.875 64.0625 45.09375 64.984375 
Q 41.3125 65.921875 37.59375 65.921875 
Q 27.828125 65.921875 22.671875 59.328125 
Q 17.53125 52.734375 16.796875 39.40625 
Q 19.671875 43.65625 24.015625 45.921875 
Q 28.375 48.1875 33.59375 48.1875 
Q 44.578125 48.1875 50.953125 41.515625 
Q 57.328125 34.859375 57.328125 23.390625 
Q 57.328125 12.15625 50.6875 5.359375 
Q 44.046875 -1.421875 33.015625 -1.421875 
Q 20.359375 -1.421875 13.671875 8.265625 
Q 6.984375 17.96875 6.984375 36.375 
Q 6.984375 53.65625 15.1875 63.9375 
Q 23.390625 74.21875 37.203125 74.21875 
Q 40.921875 74.21875 44.703125 73.484375 
Q 48.484375 72.75 52.59375 71.296875 
z
" id="DejaVuSans-54"/>
      </defs>
      <g transform="translate(201.159529 322.182437)scale(0.1 -0.1)">
       <use xlink:href="#DejaVuSans-48"/>
       <use x="63.623047" xlink:href="#DejaVuSans-46"/>
       <use x="95.410156" xlink:href="#DejaVuSans-54"/>
      </g>
     </g>
    </g>
    <g id="xtick_5">
     <g id="line2d_5">
      <g>
       <use style="stroke:#000000;stroke-width:0.8;" x="254.203879" xlink:href="#m98ef7a00dd" y="307.584"/>
      </g>
     </g>
     <g id="text_5">
      <!-- 0.8 -->
      <defs>
       <path d="M 31.78125 34.625 
Q 24.75 34.625 20.71875 30.859375 
Q 16.703125 27.09375 16.703125 20.515625 
Q 16.703125 13.921875 20.71875 10.15625 
Q 24.75 6.390625 31.78125 6.390625 
Q 38.8125 6.390625 42.859375 10.171875 
Q 46.921875 13.96875 46.921875 20.515625 
Q 46.921875 27.09375 42.890625 30.859375 
Q 38.875 34.625 31.78125 34.625 
z
M 21.921875 38.8125 
Q 15.578125 40.375 12.03125 44.71875 
Q 8.5 49.078125 8.5 55.328125 
Q 8.5 64.0625 14.71875 69.140625 
Q 20.953125 74.21875 31.78125 74.21875 
Q 42.671875 74.21875 48.875 69.140625 
Q 55.078125 64.0625 55.078125 55.328125 
Q 55.078125 49.078125 51.53125 44.71875 
Q 48 40.375 41.703125 38.8125 
Q 48.828125 37.15625 52.796875 32.3125 
Q 56.78125 27.484375 56.78125 20.515625 
Q 56.78125 9.90625 50.3125 4.234375 
Q 43.84375 -1.421875 31.78125 -1.421875 
Q 19.734375 -1.421875 13.25 4.234375 
Q 6.78125 9.90625 6.78125 20.515625 
Q 6.78125 27.484375 10.78125 32.3125 
Q 14.796875 37.15625 21.921875 38.8125 
z
M 18.3125 54.390625 
Q 18.3125 48.734375 21.84375 45.5625 
Q 25.390625 42.390625 31.78125 42.390625 
Q 38.140625 42.390625 41.71875 45.5625 
Q 45.3125 48.734375 45.3125 54.390625 
Q 45.3125 60.0625 41.71875 63.234375 
Q 38.140625 66.40625 31.78125 66.40625 
Q 25.390625 66.40625 21.84375 63.234375 
Q 18.3125 60.0625 18.3125 54.390625 
z
" id="DejaVuSans-56"/>
      </defs>
      <g transform="translate(246.252317 322.182437)scale(0.1 -0.1)">
       <use xlink:href="#DejaVuSans-48"/>
       <use x="63.623047" xlink:href="#DejaVuSans-46"/>
       <use x="95.410156" xlink:href="#DejaVuSans-56"/>
      </g>
     </g>
    </g>
    <g id="xtick_6">
     <g id="line2d_6">
      <g>
       <use style="stroke:#000000;stroke-width:0.8;" x="299.296667" xlink:href="#m98ef7a00dd" y="307.584"/>
      </g>
     </g>
     <g id="text_6">
      <!-- 1.0 -->
      <defs>
       <path d="M 12.40625 8.296875 
L 28.515625 8.296875 
L 28.515625 63.921875 
L 10.984375 60.40625 
L 10.984375 69.390625 
L 28.421875 72.90625 
L 38.28125 72.90625 
L 38.28125 8.296875 
L 54.390625 8.296875 
L 54.390625 0 
L 12.40625 0 
z
" id="DejaVuSans-49"/>
      </defs>
      <g transform="translate(291.345105 322.182437)scale(0.1 -0.1)">
       <use xlink:href="#DejaVuSans-49"/>
       <use x="63.623047" xlink:href="#DejaVuSans-46"/>
       <use x="95.410156" xlink:href="#DejaVuSans-48"/>
      </g>
     </g>
    </g>
    <g id="xtick_7">
     <g id="line2d_7">
      <g>
       <use style="stroke:#000000;stroke-width:0.8;" x="344.389455" xlink:href="#m98ef7a00dd" y="307.584"/>
      </g>
     </g>
     <g id="text_7">
      <!-- 1.2 -->
      <g transform="translate(336.437893 322.182437)scale(0.1 -0.1)">
       <use xlink:href="#DejaVuSans-49"/>
       <use x="63.623047" xlink:href="#DejaVuSans-46"/>
       <use x="95.410156" xlink:href="#DejaVuSans-50"/>
      </g>
     </g>
    </g>
    <g id="xtick_8">
     <g id="line2d_8">
      <g>
       <use style="stroke:#000000;stroke-width:0.8;" x="389.482243" xlink:href="#m98ef7a00dd" y="307.584"/>
      </g>
     </g>
     <g id="text_8">
      <!-- 1.4 -->
      <g transform="translate(381.53068 322.182437)scale(0.1 -0.1)">
       <use xlink:href="#DejaVuSans-49"/>
       <use x="63.623047" xlink:href="#DejaVuSans-46"/>
       <use x="95.410156" xlink:href="#DejaVuSans-52"/>
      </g>
     </g>
    </g>
    <g id="text_9">
     <!-- Time (min) -->
     <defs>
      <path d="M -0.296875 72.90625 
L 61.375 72.90625 
L 61.375 64.59375 
L 35.5 64.59375 
L 35.5 0 
L 25.59375 0 
L 25.59375 64.59375 
L -0.296875 64.59375 
z
" id="DejaVuSans-84"/>
      <path d="M 9.421875 54.6875 
L 18.40625 54.6875 
L 18.40625 0 
L 9.421875 0 
z
M 9.421875 75.984375 
L 18.40625 75.984375 
L 18.40625 64.59375 
L 9.421875 64.59375 
z
" id="DejaVuSans-105"/>
      <path d="M 52 44.1875 
Q 55.375 50.25 60.0625 53.125 
Q 64.75 56 71.09375 56 
Q 79.640625 56 84.28125 50.015625 
Q 88.921875 44.046875 88.921875 33.015625 
L 88.921875 0 
L 79.890625 0 
L 79.890625 32.71875 
Q 79.890625 40.578125 77.09375 44.375 
Q 74.3125 48.1875 68.609375 48.1875 
Q 61.625 48.1875 57.5625 43.546875 
Q 53.515625 38.921875 53.515625 30.90625 
L 53.515625 0 
L 44.484375 0 
L 44.484375 32.71875 
Q 44.484375 40.625 41.703125 44.40625 
Q 38.921875 48.1875 33.109375 48.1875 
Q 26.21875 48.1875 22.15625 43.53125 
Q 18.109375 38.875 18.109375 30.90625 
L 18.109375 0 
L 9.078125 0 
L 9.078125 54.6875 
L 18.109375 54.6875 
L 18.109375 46.1875 
Q 21.1875 51.21875 25.484375 53.609375 
Q 29.78125 56 35.6875 56 
Q 41.65625 56 45.828125 52.96875 
Q 50 49.953125 52 44.1875 
z
" id="DejaVuSans-109"/>
      <path d="M 56.203125 29.59375 
L 56.203125 25.203125 
L 14.890625 25.203125 
Q 15.484375 15.921875 20.484375 11.0625 
Q 25.484375 6.203125 34.421875 6.203125 
Q 39.59375 6.203125 44.453125 7.46875 
Q 49.3125 8.734375 54.109375 11.28125 
L 54.109375 2.78125 
Q 49.265625 0.734375 44.1875 -0.34375 
Q 39.109375 -1.421875 33.890625 -1.421875 
Q 20.796875 -1.421875 13.15625 6.1875 
Q 5.515625 13.8125 5.515625 26.8125 
Q 5.515625 40.234375 12.765625 48.109375 
Q 20.015625 56 32.328125 56 
Q 43.359375 56 49.78125 48.890625 
Q 56.203125 41.796875 56.203125 29.59375 
z
M 47.21875 32.234375 
Q 47.125 39.59375 43.09375 43.984375 
Q 39.0625 48.390625 32.421875 48.390625 
Q 24.90625 48.390625 20.390625 44.140625 
Q 15.875 39.890625 15.1875 32.171875 
z
" id="DejaVuSans-101"/>
      <path id="DejaVuSans-32"/>
      <path d="M 31 75.875 
Q 24.46875 64.65625 21.28125 53.65625 
Q 18.109375 42.671875 18.109375 31.390625 
Q 18.109375 20.125 21.3125 9.0625 
Q 24.515625 -2 31 -13.1875 
L 23.1875 -13.1875 
Q 15.875 -1.703125 12.234375 9.375 
Q 8.59375 20.453125 8.59375 31.390625 
Q 8.59375 42.28125 12.203125 53.3125 
Q 15.828125 64.359375 23.1875 75.875 
z
" id="DejaVuSans-40"/>
      <path d="M 54.890625 33.015625 
L 54.890625 0 
L 45.90625 0 
L 45.90625 32.71875 
Q 45.90625 40.484375 42.875 44.328125 
Q 39.84375 48.1875 33.796875 48.1875 
Q 26.515625 48.1875 22.3125 43.546875 
Q 18.109375 38.921875 18.109375 30.90625 
L 18.109375 0 
L 9.078125 0 
L 9.078125 54.6875 
L 18.109375 54.6875 
L 18.109375 46.1875 
Q 21.34375 51.125 25.703125 53.5625 
Q 30.078125 56 35.796875 56 
Q 45.21875 56 50.046875 50.171875 
Q 54.890625 44.34375 54.890625 33.015625 
z
" id="DejaVuSans-110"/>
      <path d="M 8.015625 75.875 
L 15.828125 75.875 
Q 23.140625 64.359375 26.78125 53.3125 
Q 30.421875 42.28125 30.421875 31.390625 
Q 30.421875 20.453125 26.78125 9.375 
Q 23.140625 -1.703125 15.828125 -13.1875 
L 8.015625 -13.1875 
Q 14.5 -2 17.703125 9.0625 
Q 20.90625 20.125 20.90625 31.390625 
Q 20.90625 42.671875 17.703125 53.65625 
Q 14.5 64.65625 8.015625 75.875 
z
" id="DejaVuSans-41"/>
     </defs>
     <g transform="translate(209.007656 335.860562)scale(0.1 -0.1)">
      <use xlink:href="#DejaVuSans-84"/>
      <use x="57.958984" xlink:href="#DejaVuSans-105"/>
      <use x="85.742188" xlink:href="#DejaVuSans-109"/>
      <use x="183.154297" xlink:href="#DejaVuSans-101"/>
      <use x="244.677734" xlink:href="#DejaVuSans-32"/>
      <use x="276.464844" xlink:href="#DejaVuSans-40"/>
      <use x="315.478516" xlink:href="#DejaVuSans-109"/>
      <use x="412.890625" xlink:href="#DejaVuSans-105"/>
      <use x="440.673828" xlink:href="#DejaVuSans-110"/>
      <use x="504.052734" xlink:href="#DejaVuSans-41"/>
     </g>
    </g>
    <g id="text_10">
     <!-- 1e6 -->
     <g transform="translate(395.841875 334.860562)scale(0.1 -0.1)">
      <use xlink:href="#DejaVuSans-49"/>
      <use x="63.623047" xlink:href="#DejaVuSans-101"/>
      <use x="125.146484" xlink:href="#DejaVuSans-54"/>
     </g>
    </g>
   </g>
   <g id="matplotlib.axis_2">
    <g id="ytick_1">
     <g id="line2d_9">
      <defs>
       <path d="M 0 0 
L -3.5 0 
" id="m83819dce90" style="stroke:#000000;stroke-width:0.8;"/>
      </defs>
      <g>
       <use style="stroke:#000000;stroke-width:0.8;" x="57.6" xlink:href="#m83819dce90" y="254.372964"/>
      </g>
     </g>
     <g id="text_11">
      <!-- −600 -->
      <defs>
       <path d="M 10.59375 35.5 
L 73.1875 35.5 
L 73.1875 27.203125 
L 10.59375 27.203125 
z
" id="DejaVuSans-8722"/>
      </defs>
      <g transform="translate(23.132812 258.172182)scale(0.1 -0.1)">
       <use xlink:href="#DejaVuSans-8722"/>
       <use x="83.789062" xlink:href="#DejaVuSans-54"/>
       <use x="147.412109" xlink:href="#DejaVuSans-48"/>
       <use x="211.035156" xlink:href="#DejaVuSans-48"/>
      </g>
     </g>
    </g>
    <g id="ytick_2">
     <g id="line2d_10">
      <g>
       <use style="stroke:#000000;stroke-width:0.8;" x="57.6" xlink:href="#m83819dce90" y="197.000117"/>
      </g>
     </g>
     <g id="text_12">
      <!-- −400 -->
      <g transform="translate(23.132812 200.799336)scale(0.1 -0.1)">
       <use xlink:href="#DejaVuSans-8722"/>
       <use x="83.789062" xlink:href="#DejaVuSans-52"/>
       <use x="147.412109" xlink:href="#DejaVuSans-48"/>
       <use x="211.035156" xlink:href="#DejaVuSans-48"/>
      </g>
     </g>
    </g>
    <g id="ytick_3">
     <g id="line2d_11">
      <g>
       <use style="stroke:#000000;stroke-width:0.8;" x="57.6" xlink:href="#m83819dce90" y="139.62727"/>
      </g>
     </g>
     <g id="text_13">
      <!-- −200 -->
      <g transform="translate(23.132812 143.426489)scale(0.1 -0.1)">
       <use xlink:href="#DejaVuSans-8722"/>
       <use x="83.789062" xlink:href="#DejaVuSans-50"/>
       <use x="147.412109" xlink:href="#DejaVuSans-48"/>
       <use x="211.035156" xlink:href="#DejaVuSans-48"/>
      </g>
     </g>
    </g>
    <g id="ytick_4">
     <g id="line2d_12">
      <g>
       <use style="stroke:#000000;stroke-width:0.8;" x="57.6" xlink:href="#m83819dce90" y="82.254423"/>
      </g>
     </g>
     <g id="text_14">
      <!-- 0 -->
      <g transform="translate(44.2375 86.053642)scale(0.1 -0.1)">
       <use xlink:href="#DejaVuSans-48"/>
      </g>
     </g>
    </g>
    <g id="text_15">
     <!-- Density -->
     <defs>
      <path d="M 19.671875 64.796875 
L 19.671875 8.109375 
L 31.59375 8.109375 
Q 46.6875 8.109375 53.6875 14.9375 
Q 60.6875 21.78125 60.6875 36.53125 
Q 60.6875 51.171875 53.6875 57.984375 
Q 46.6875 64.796875 31.59375 64.796875 
z
M 9.8125 72.90625 
L 30.078125 72.90625 
Q 51.265625 72.90625 61.171875 64.09375 
Q 71.09375 55.28125 71.09375 36.53125 
Q 71.09375 17.671875 61.125 8.828125 
Q 51.171875 0 30.078125 0 
L 9.8125 0 
z
" id="DejaVuSans-68"/>
      <path d="M 44.28125 53.078125 
L 44.28125 44.578125 
Q 40.484375 46.53125 36.375 47.5 
Q 32.28125 48.484375 27.875 48.484375 
Q 21.1875 48.484375 17.84375 46.4375 
Q 14.5 44.390625 14.5 40.28125 
Q 14.5 37.15625 16.890625 35.375 
Q 19.28125 33.59375 26.515625 31.984375 
L 29.59375 31.296875 
Q 39.15625 29.25 43.1875 25.515625 
Q 47.21875 21.78125 47.21875 15.09375 
Q 47.21875 7.46875 41.1875 3.015625 
Q 35.15625 -1.421875 24.609375 -1.421875 
Q 20.21875 -1.421875 15.453125 -0.5625 
Q 10.6875 0.296875 5.421875 2 
L 5.421875 11.28125 
Q 10.40625 8.6875 15.234375 7.390625 
Q 20.0625 6.109375 24.8125 6.109375 
Q 31.15625 6.109375 34.5625 8.28125 
Q 37.984375 10.453125 37.984375 14.40625 
Q 37.984375 18.0625 35.515625 20.015625 
Q 33.0625 21.96875 24.703125 23.78125 
L 21.578125 24.515625 
Q 13.234375 26.265625 9.515625 29.90625 
Q 5.8125 33.546875 5.8125 39.890625 
Q 5.8125 47.609375 11.28125 51.796875 
Q 16.75 56 26.8125 56 
Q 31.78125 56 36.171875 55.265625 
Q 40.578125 54.546875 44.28125 53.078125 
z
" id="DejaVuSans-115"/>
      <path d="M 18.3125 70.21875 
L 18.3125 54.6875 
L 36.8125 54.6875 
L 36.8125 47.703125 
L 18.3125 47.703125 
L 18.3125 18.015625 
Q 18.3125 11.328125 20.140625 9.421875 
Q 21.96875 7.515625 27.59375 7.515625 
L 36.8125 7.515625 
L 36.8125 0 
L 27.59375 0 
Q 17.1875 0 13.234375 3.875 
Q 9.28125 7.765625 9.28125 18.015625 
L 9.28125 47.703125 
L 2.6875 47.703125 
L 2.6875 54.6875 
L 9.28125 54.6875 
L 9.28125 70.21875 
z
" id="DejaVuSans-116"/>
      <path d="M 32.171875 -5.078125 
Q 28.375 -14.84375 24.75 -17.8125 
Q 21.140625 -20.796875 15.09375 -20.796875 
L 7.90625 -20.796875 
L 7.90625 -13.28125 
L 13.1875 -13.28125 
Q 16.890625 -13.28125 18.9375 -11.515625 
Q 21 -9.765625 23.484375 -3.21875 
L 25.09375 0.875 
L 2.984375 54.6875 
L 12.5 54.6875 
L 29.59375 11.921875 
L 46.6875 54.6875 
L 56.203125 54.6875 
z
" id="DejaVuSans-121"/>
     </defs>
     <g transform="translate(17.053125 193.536594)rotate(-90)scale(0.1 -0.1)">
      <use xlink:href="#DejaVuSans-68"/>
      <use x="77.001953" xlink:href="#DejaVuSans-101"/>
      <use x="138.525391" xlink:href="#DejaVuSans-110"/>
      <use x="201.904297" xlink:href="#DejaVuSans-115"/>
      <use x="254.003906" xlink:href="#DejaVuSans-105"/>
      <use x="281.787109" xlink:href="#DejaVuSans-116"/>
      <use x="320.996094" xlink:href="#DejaVuSans-121"/>
     </g>
    </g>
   </g>
   <g id="line2d_13">
    <path clip-path="url(#pef5e18ea6a)" d="M 73.832727 82.254423 
L 398.487273 82.254423 
L 398.487273 82.254423 
" style="fill:none;stroke:#1f77b4;stroke-linecap:square;stroke-width:1.5;"/>
   </g>
   <g id="line2d_14">
    <path clip-path="url(#pef5e18ea6a)" d="M 73.832727 82.254423 
L 398.487273 82.254423 
L 398.487273 82.254423 
" style="fill:none;stroke:#ff7f0e;stroke-linecap:square;stroke-width:1.5;"/>
   </g>
   <g id="line2d_15">
    <path clip-path="url(#pef5e18ea6a)" d="M 73.832727 79.385781 
L 75.009649 79.409841 
L 113.888651 80.132616 
L 159.261014 80.747364 
L 213.669972 81.254507 
L 265.116334 81.531284 
L 398.487273 81.531283 
L 398.487273 81.531283 
" style="fill:none;stroke:#2ca02c;stroke-linecap:square;stroke-width:1.5;"/>
   </g>
   <g id="line2d_16">
    <path clip-path="url(#pef5e18ea6a)" d="M 73.832727 53.568 
L 73.859783 295.488 
L 73.954478 294.97239 
L 73.968006 294.910506 
L 73.995061 295.273299 
L 74.008589 295.259713 
L 74.103284 294.49101 
L 74.13034 294.832586 
L 74.143868 295.077975 
L 74.184451 294.347534 
L 74.225035 294.819853 
L 74.319729 294.139947 
L 74.346785 294.534073 
L 74.468536 293.733771 
L 74.482063 293.893936 
L 74.495591 294.307302 
L 74.536175 293.496295 
L 74.590286 294.096486 
L 74.684981 293.206086 
L 74.712037 293.569932 
L 74.725564 293.931405 
L 74.766148 293.146914 
L 74.806731 293.416482 
L 74.914954 292.959224 
L 74.928482 293.117699 
L 74.94201 293.389312 
L 74.982593 292.718274 
L 75.023177 293.183614 
L 75.117872 292.262129 
L 75.144927 292.826682 
L 75.25315 292.149837 
L 75.293734 292.419999 
L 75.307261 292.462231 
L 75.415484 291.839593 
L 75.374901 292.481327 
L 75.429012 291.997947 
L 75.44254 292.145764 
L 75.469595 291.61551 
L 75.523707 291.94813 
L 75.550762 291.316591 
L 75.645457 291.600114 
L 75.658985 291.673507 
L 75.686041 291.469316 
L 75.767208 291.030157 
L 75.726624 291.664325 
L 75.780736 291.118474 
L 75.794264 291.570879 
L 75.834847 290.621555 
L 75.888958 291.188817 
L 75.983653 290.643778 
L 75.956598 291.204233 
L 75.997181 290.690366 
L 76.051292 290.296166 
L 76.091876 291.019858 
L 76.200099 290.112637 
L 76.213626 290.20512 
L 76.281266 289.971452 
L 76.308321 290.464036 
L 76.416544 289.743301 
L 76.430072 289.783073 
L 76.457128 289.934689 
L 76.484183 289.350419 
L 76.538295 289.887801 
L 76.619462 289.296472 
L 76.660045 289.492407 
L 76.673573 289.54897 
L 76.687101 289.151962 
L 76.700629 289.250658 
L 76.781796 288.902133 
L 76.741212 289.566752 
L 76.808851 289.235871 
L 76.822379 289.223593 
L 76.917074 288.38621 
L 76.930602 288.680998 
L 76.971185 288.99191 
L 76.998241 288.480301 
L 77.038824 288.629337 
L 77.052352 288.606334 
L 77.06588 288.154898 
L 77.092936 288.723467 
L 77.160575 288.623145 
L 77.201159 287.739521 
L 77.295853 287.986344 
L 77.322909 288.324653 
L 77.363493 287.750868 
L 77.404076 287.960514 
L 77.498771 287.225322 
L 77.458187 288.119082 
L 77.512299 287.497149 
L 77.525827 287.82921 
L 77.56641 287.247226 
L 77.606994 287.562137 
L 77.715216 286.776617 
L 77.728744 287.049986 
L 77.742272 287.269807 
L 77.796383 286.849826 
L 77.836967 287.049353 
L 77.850495 286.495283 
L 77.94519 286.625608 
L 77.972245 286.902139 
L 78.012829 286.432341 
L 78.039884 286.657548 
L 78.148107 286.008512 
L 78.107524 286.670111 
L 78.161635 286.134593 
L 78.188691 286.3519 
L 78.229274 285.934879 
L 78.269858 286.146896 
L 78.283385 285.514302 
L 78.337497 286.156571 
L 78.37808 285.733256 
L 78.391608 285.846837 
L 78.432192 285.265572 
L 78.486303 285.732323 
L 78.56747 284.921332 
L 78.594526 285.234094 
L 78.635109 285.020376 
L 78.689221 285.464018 
L 78.797443 284.611718 
L 78.810971 284.791267 
L 78.824499 285.234018 
L 78.865082 284.335385 
L 78.919194 284.841121 
L 79.013889 284.121744 
L 79.027416 284.354525 
L 79.040944 284.669447 
L 79.081528 283.865454 
L 79.122111 284.431783 
L 79.216806 283.694503 
L 79.25739 284.026869 
L 79.270918 284.218062 
L 79.297973 283.677547 
L 79.338557 284.095813 
L 79.446779 283.220366 
L 79.460307 283.458758 
L 79.473835 283.792514 
L 79.514419 283.162798 
L 79.555002 283.502372 
L 79.663225 282.83355 
L 79.676753 283.199104 
L 79.798503 282.427196 
L 79.703808 283.339523 
L 79.839087 282.850304 
L 79.852614 282.939613 
L 79.87967 282.451347 
L 79.920254 282.810007 
L 80.028476 282.142853 
L 80.055532 282.621717 
L 80.096116 281.981912 
L 80.136699 282.294184 
L 80.231394 281.494402 
L 80.19081 282.364549 
L 80.244922 281.769583 
L 80.285505 282.05656 
L 80.312561 281.570211 
L 80.353144 281.719681 
L 80.366672 281.689687 
L 80.447839 281.002812 
L 80.407256 281.801361 
L 80.474895 281.497196 
L 80.488423 281.649701 
L 80.529006 281.098335 
L 80.56959 281.397471 
L 80.677812 280.859284 
L 80.637229 281.410221 
L 80.69134 281.011073 
L 80.704868 281.305404 
L 80.745452 280.592434 
L 80.786035 280.788628 
L 80.799563 280.809264 
L 80.813091 280.361885 
L 80.840147 280.934544 
L 80.907786 280.626016 
L 80.921314 280.675244 
L 80.948369 280.415215 
L 81.029536 280.006209 
L 80.988953 280.663194 
L 81.056592 280.286347 
L 81.07012 280.544338 
L 81.110703 279.982605 
L 81.151287 280.17082 
L 81.245982 279.645425 
L 81.259509 279.889989 
L 81.273037 279.868116 
L 81.286565 280.006157 
L 81.394788 279.27675 
L 81.408316 279.482232 
L 81.421843 279.797101 
L 81.462427 279.160742 
L 81.503011 279.493567 
L 81.597705 278.690123 
L 81.624761 279.177278 
L 81.814151 278.193663 
L 81.651817 279.29672 
L 81.841206 278.64668 
L 81.854734 278.882312 
L 81.895318 278.282822 
L 81.935901 278.605034 
L 82.044124 278.026344 
L 82.00354 278.621111 
L 82.057652 278.17765 
L 82.07118 278.530094 
L 82.111763 277.724709 
L 82.152347 278.044053 
L 82.165874 278.049125 
L 82.179402 277.547285 
L 82.206458 278.09605 
L 82.274097 277.798788 
L 82.287625 277.870087 
L 82.314681 277.666318 
L 82.395848 277.223639 
L 82.355264 277.846996 
L 82.422903 277.475143 
L 82.436431 277.767591 
L 82.477015 277.159405 
L 82.517598 277.404513 
L 82.612293 276.884151 
L 82.625821 277.024329 
L 82.652877 277.222926 
L 82.761099 276.447834 
L 82.774627 276.67478 
L 82.788155 276.991363 
L 82.828738 276.384603 
L 82.869322 276.714891 
L 82.964017 275.955113 
L 82.991073 276.335871 
L 83.0046 276.340926 
L 83.018128 276.54792 
L 83.045184 276.019271 
L 83.099295 276.182675 
L 83.180462 275.447533 
L 83.207518 275.827846 
L 83.221046 276.125432 
L 83.261629 275.513573 
L 83.302213 275.834552 
L 83.410435 275.233817 
L 83.369852 275.84867 
L 83.423963 275.375676 
L 83.50513 275.592906 
L 83.478075 275.007222 
L 83.518658 275.296716 
L 83.532186 275.31966 
L 83.545714 274.766123 
L 83.640409 274.993264 
L 83.653936 275.08609 
L 83.680992 274.94629 
L 83.762159 274.490193 
L 83.721576 275.048726 
L 83.789215 274.688917 
L 83.802743 275.008376 
L 83.843326 274.372776 
L 83.88391 274.660457 
L 83.978605 274.167645 
L 83.951549 274.667971 
L 84.00566 274.282314 
L 84.019188 274.459562 
L 84.059772 273.959316 
L 84.100355 274.083581 
L 84.113883 274.083241 
L 84.19505 273.657944 
L 84.154466 274.204242 
L 84.222106 273.909003 
L 84.235633 273.957621 
L 84.262689 273.701386 
L 84.330328 273.268998 
L 84.3168 273.890123 
L 84.370912 273.575844 
L 84.38444 273.818385 
L 84.425023 273.284213 
L 84.465607 273.463202 
L 84.546774 272.762427 
L 84.573829 273.037346 
L 84.587357 273.381869 
L 84.627941 272.792485 
L 84.668524 273.086159 
L 84.776747 272.481856 
L 84.736163 273.094606 
L 84.790275 272.603303 
L 84.871442 272.811274 
L 84.844386 272.263485 
L 84.898497 272.607733 
L 84.912025 272.049773 
L 85.00672 272.217398 
L 85.020248 272.327857 
L 85.060831 271.785998 
L 85.101415 272.204411 
L 85.263749 271.551405 
L 85.169054 272.265017 
L 85.290805 271.569817 
L 85.31786 271.946466 
L 85.358444 271.375631 
L 85.3855 271.854949 
L 85.493722 270.913742 
L 85.50725 271.15248 
L 85.520778 271.435628 
L 85.574889 270.957683 
L 85.601945 271.220839 
L 85.69664 270.616182 
L 85.737223 270.834072 
L 85.750751 271.107208 
L 85.791335 270.529217 
L 85.831918 270.766415 
L 85.913085 270.119571 
L 85.940141 270.276122 
L 85.953669 270.651372 
L 86.00778 270.114368 
L 86.034836 270.359372 
L 86.143058 269.774169 
L 86.156586 269.861705 
L 86.183642 270.094511 
L 86.210698 269.571283 
L 86.264809 269.91849 
L 86.278337 269.38771 
L 86.332448 269.922154 
L 86.373032 269.468742 
L 86.400087 269.613915 
L 86.427143 269.089012 
L 86.481254 269.439759 
L 86.575949 268.927355 
L 86.535366 269.539344 
L 86.603005 269.21611 
L 86.616533 269.236 
L 86.724755 268.651746 
L 86.684172 269.243114 
L 86.738283 268.790294 
L 86.751811 269.158528 
L 86.792395 268.334494 
L 86.846506 268.724644 
L 86.860034 268.218376 
L 86.954729 268.416967 
L 86.968256 268.507974 
L 86.995312 268.366235 
L 87.090007 267.973136 
L 87.049423 268.56466 
L 87.103535 268.12014 
L 87.117063 268.411948 
L 87.157646 267.813009 
L 87.19823 268.08997 
L 87.292924 267.607887 
L 87.31998 267.724041 
L 87.333508 267.892915 
L 87.374091 267.407119 
L 87.414675 267.534276 
L 87.428203 267.526313 
L 87.50937 267.116338 
L 87.468786 267.639427 
L 87.536426 267.355771 
L 87.549953 267.40479 
L 87.563481 267.259618 
L 87.644648 266.767863 
L 87.604065 267.299642 
L 87.671704 266.964152 
L 87.69876 267.262497 
L 87.739343 266.748933 
L 87.766399 266.957451 
L 87.779927 266.922151 
L 87.874621 266.293587 
L 87.888149 266.506888 
L 87.901677 266.830972 
L 87.942261 266.273606 
L 87.982844 266.555686 
L 88.091067 265.967548 
L 88.104595 266.085296 
L 88.118122 266.476033 
L 88.158706 265.626847 
L 88.212817 266.078456 
L 88.226345 265.572281 
L 88.32104 265.708998 
L 88.375151 265.294553 
L 88.415735 265.923715 
L 88.523958 265.135396 
L 88.537485 265.25146 
L 88.578069 265.065824 
L 88.63218 265.437276 
L 88.740403 264.751212 
L 88.753931 264.878675 
L 88.767459 264.969271 
L 88.794514 264.900819 
L 88.808042 264.444051 
L 88.835098 264.941915 
L 88.902737 264.667429 
L 88.916265 264.737314 
L 88.943321 264.327265 
L 88.997432 264.603554 
L 89.105655 264.06451 
L 89.065071 264.617981 
L 89.119182 264.199898 
L 89.13271 264.317966 
L 89.159766 263.8442 
L 89.213877 264.283025 
L 89.3221 263.657084 
L 89.349156 263.896267 
L 89.389739 263.392132 
L 89.430323 263.691631 
L 89.592657 262.97833 
L 89.484434 263.80696 
L 89.63324 263.288478 
L 89.646768 263.463076 
L 89.673824 262.974001 
L 89.727935 263.128232 
L 89.82263 262.559473 
L 89.782046 263.298265 
L 89.836158 262.772021 
L 89.849686 263.074686 
L 89.890269 262.499978 
L 89.930853 262.8007 
L 90.039075 262.180445 
L 90.052603 262.374826 
L 90.066131 262.563806 
L 90.106714 262.136217 
L 90.147298 262.3216 
L 90.160826 262.299249 
L 90.174354 261.814362 
L 90.269048 262.001641 
L 90.296104 262.117491 
L 90.309632 261.750762 
L 90.363743 261.977265 
L 90.471966 261.414782 
L 90.431383 261.991103 
L 90.485494 261.544189 
L 90.499022 261.696134 
L 90.526077 261.277772 
L 90.580189 261.677402 
L 90.688411 261.032519 
L 90.701939 261.182073 
L 90.715467 261.259738 
L 90.742523 261.128203 
L 90.82369 260.733888 
L 90.783106 261.239028 
L 90.850745 261.152288 
L 90.891329 260.35957 
L 90.986024 260.591108 
L 91.013079 260.866804 
L 91.053663 260.377037 
L 91.080719 260.57957 
L 91.094247 260.541347 
L 91.188941 259.934249 
L 91.202469 260.139087 
L 91.215997 260.447782 
L 91.256581 259.913217 
L 91.297164 260.186054 
L 91.405387 259.507926 
L 91.418915 259.738803 
L 91.432442 259.928324 
L 91.486554 259.562953 
L 91.527137 259.72056 
L 91.540665 259.233455 
L 91.63536 259.359255 
L 91.662416 259.575874 
L 91.702999 259.197371 
L 91.730055 259.371372 
L 91.838278 258.80269 
L 91.797694 259.381332 
L 91.851805 258.915932 
L 91.892389 258.741378 
L 91.9465 259.089518 
L 92.054723 258.445721 
L 92.068251 258.551046 
L 92.081779 258.645179 
L 92.108834 258.568667 
L 92.122362 258.135132 
L 92.149418 258.608436 
L 92.217057 258.513413 
L 92.25764 257.808545 
L 92.365863 258.052037 
L 92.379391 258.288294 
L 92.419974 257.758439 
L 92.460558 257.976084 
L 92.555253 257.310512 
L 92.568781 257.539037 
L 92.582309 257.825854 
L 92.63642 257.357949 
L 92.663476 257.593553 
L 92.771698 256.880583 
L 92.785226 257.134637 
L 92.812282 257.349597 
L 92.852865 256.95281 
L 92.893449 257.161494 
L 92.988144 256.69091 
L 93.001671 256.746179 
L 93.055783 256.399668 
L 93.096366 256.998175 
L 93.204589 256.232396 
L 93.218117 256.316092 
L 93.245172 256.523502 
L 93.285756 256.119593 
L 93.312812 256.518488 
L 93.421034 255.899903 
L 93.434562 255.944537 
L 93.461618 256.058525 
L 93.488674 255.570844 
L 93.542785 256.007805 
L 93.623952 255.30988 
L 93.664535 255.693544 
L 93.678063 255.706195 
L 93.786286 255.173515 
L 93.745702 255.726928 
L 93.799814 255.299789 
L 93.813342 255.447071 
L 93.840397 255.047382 
L 93.894509 255.278388 
L 94.070371 254.523621 
L 94.097426 254.995825 
L 94.13801 254.295599 
L 94.178593 254.841953 
L 94.273288 254.206215 
L 94.313872 254.437651 
L 94.327399 254.630199 
L 94.367983 254.161391 
L 94.408566 254.318585 
L 94.503261 253.710077 
L 94.462678 254.449265 
L 94.516789 253.931091 
L 94.530317 254.209002 
L 94.5709 253.706839 
L 94.611484 253.974824 
L 94.719707 253.388897 
L 94.733234 253.667648 
L 94.936152 253.058338 
L 94.76029 253.849107 
L 94.963208 253.273286 
L 94.976736 253.374291 
L 95.017319 253.00632 
L 95.044375 253.179496 
L 95.152597 252.625588 
L 95.166125 252.734637 
L 95.193181 252.906948 
L 95.233764 252.565789 
L 95.274348 252.71542 
L 95.287876 252.199536 
L 95.341987 252.723173 
L 95.382571 252.379567 
L 95.396098 252.471262 
L 95.423154 252.394613 
L 95.504321 251.756939 
L 95.463738 252.429713 
L 95.531377 252.15971 
L 95.544905 252.348014 
L 95.585488 251.834734 
L 95.626072 252.105907 
L 95.734294 251.606842 
L 95.693711 252.116155 
L 95.747822 251.736339 
L 95.801934 251.404843 
L 95.828989 251.91481 
L 95.869573 251.166148 
L 95.95074 251.216828 
L 95.977795 251.446434 
L 96.018379 250.975278 
L 96.058962 251.187257 
L 96.086018 250.87629 
L 96.113074 251.096676 
L 96.126602 251.345836 
L 96.167185 250.823431 
L 96.207769 251.021597 
L 96.302464 250.563817 
L 96.315991 250.619462 
L 96.343047 250.905883 
L 96.383631 250.426533 
L 96.410686 250.659237 
L 96.518909 250.119214 
L 96.532437 250.201538 
L 96.559492 250.401647 
L 96.600076 250.010328 
L 96.640659 250.269609 
L 96.654187 249.724478 
L 96.748882 249.840211 
L 96.775938 249.950465 
L 96.802993 249.480918 
L 96.857105 249.892146 
L 96.938272 249.235472 
L 96.978855 249.592195 
L 96.992383 249.604535 
L 97.100606 249.085032 
L 97.060022 249.618496 
L 97.114134 249.207343 
L 97.195301 249.394294 
L 97.168245 248.883131 
L 97.208829 249.118378 
L 97.222356 249.14217 
L 97.235884 248.663889 
L 97.330579 248.863358 
L 97.344107 248.937851 
L 97.371163 248.806354 
L 97.45233 248.405894 
L 97.411746 248.905873 
L 97.479385 248.586008 
L 97.492913 248.858922 
L 97.533497 248.309906 
L 97.57408 248.547111 
L 97.682303 248.097868 
L 97.695831 248.223101 
L 97.709358 248.45239 
L 97.749942 247.875093 
L 97.790526 248.014969 
L 97.804053 248.030534 
L 97.88522 247.655681 
L 97.844637 248.142813 
L 97.912276 247.879302 
L 97.925804 247.916107 
L 97.95286 247.687635 
L 98.020499 247.298161 
L 98.006971 247.843485 
L 98.061082 247.577947 
L 98.07461 247.783128 
L 98.115194 247.327715 
L 98.155777 247.46664 
L 98.250472 247.021888 
L 98.264 247.238878 
L 98.277528 247.212548 
L 98.291055 247.320207 
L 98.399278 246.713526 
L 98.412806 246.87881 
L 98.426334 247.136227 
L 98.466917 246.601728 
L 98.507501 246.873767 
L 98.602196 246.208848 
L 98.561612 246.888782 
L 98.629251 246.596273 
L 98.683363 246.254222 
L 98.656307 246.683759 
L 98.737474 246.371252 
L 98.818641 245.76581 
L 98.778058 246.405351 
L 98.845697 246.146022 
L 98.859225 246.326286 
L 98.899808 245.829865 
L 98.940392 246.092672 
L 99.048614 245.605409 
L 99.008031 246.097556 
L 99.062142 245.731451 
L 99.07567 246.013046 
L 99.116253 245.353392 
L 99.156837 245.600349 
L 99.170365 245.602811 
L 99.183893 245.191887 
L 99.210948 245.64864 
L 99.278588 245.393995 
L 99.292115 245.44977 
L 99.319171 245.268929 
L 99.38681 244.90241 
L 99.373282 245.435864 
L 99.427394 245.107359 
L 99.440922 245.338984 
L 99.481505 244.843904 
L 99.522089 245.034272 
L 99.616783 244.589076 
L 99.630311 244.722302 
L 99.657367 244.873641 
L 99.76559 244.225465 
L 99.779117 244.40974 
L 99.792645 244.67073 
L 99.833229 244.156988 
L 99.873812 244.430617 
L 99.968507 243.801298 
L 99.995563 244.101737 
L 100.009091 244.111888 
L 100.022619 244.267888 
L 100.049674 243.828064 
L 100.103786 243.958385 
L 100.184953 243.344406 
L 100.212008 243.668344 
L 100.225536 243.902659 
L 100.26612 243.390947 
L 100.306703 243.656869 
L 100.414926 243.148472 
L 100.374342 243.660648 
L 100.428454 243.267864 
L 100.441981 243.583407 
L 100.482565 242.872258 
L 100.523148 243.201246 
L 100.536676 243.194402 
L 100.550204 242.757437 
L 100.644899 242.931839 
L 100.658427 243.004751 
L 100.685483 242.871709 
L 100.76665 242.487341 
L 100.726066 242.967594 
L 100.793705 242.661304 
L 100.807233 242.918803 
L 100.847817 242.391321 
L 100.8884 242.621595 
L 100.983095 242.19664 
L 101.010151 242.301497 
L 101.023678 242.444576 
L 101.064262 242.023027 
L 101.091318 242.230035 
L 101.19954 241.75488 
L 101.226596 241.969491 
L 101.240124 242.006278 
L 101.253652 241.863792 
L 101.334819 241.434756 
L 101.294235 241.925973 
L 101.361874 241.629142 
L 101.38893 241.869503 
L 101.415986 241.440478 
L 101.429514 241.433755 
L 101.443041 241.545279 
L 101.456569 241.598305 
L 101.470097 241.566791 
L 101.551264 240.976073 
L 101.57832 241.215038 
L 101.591848 241.491368 
L 101.632431 240.993212 
L 101.673015 241.240531 
L 101.781237 240.726313 
L 101.794765 240.829904 
L 101.808293 241.166752 
L 101.848876 240.428613 
L 101.902988 240.807218 
L 101.916516 240.365798 
L 102.01121 240.491902 
L 102.024738 240.580238 
L 102.065322 240.122733 
L 102.105905 240.45909 
L 102.268239 239.898165 
L 102.173545 240.508058 
L 102.295295 239.92701 
L 102.322351 240.226567 
L 102.362934 239.760383 
L 102.38999 240.033991 
L 102.498213 239.356906 
L 102.51174 239.553747 
L 102.525268 239.791395 
L 102.57938 239.384269 
L 102.606435 239.601997 
L 102.70113 239.079774 
L 102.741714 239.268286 
L 102.755241 239.486754 
L 102.795825 239.010023 
L 102.836408 239.195513 
L 102.917576 238.64732 
L 102.944631 238.786695 
L 102.958159 239.091985 
L 102.998743 238.636967 
L 103.039326 238.84305 
L 103.147549 238.342237 
L 103.161077 238.418489 
L 103.174604 238.762854 
L 103.215188 238.025393 
L 103.269299 238.440437 
L 103.363994 238.018484 
L 103.377522 238.075299 
L 103.404578 238.182807 
L 103.431633 237.746784 
L 103.472217 238.108203 
L 103.661607 237.502109 
L 103.688662 237.850211 
L 103.729246 237.322151 
L 103.769829 237.486206 
L 103.864524 236.981835 
L 103.905108 237.311431 
L 103.918635 237.371574 
L 103.945691 237.005994 
L 103.972747 237.217353 
L 104.094497 236.767091 
L 104.053914 237.243411 
L 104.108025 236.882 
L 104.121553 237.117762 
L 104.162136 236.620422 
L 104.20272 236.841787 
L 104.283887 236.346618 
L 104.310943 236.389868 
L 104.32447 236.705162 
L 104.378582 236.272505 
L 104.419165 236.352516 
L 104.432693 236.344745 
L 104.51386 235.998602 
L 104.473277 236.448494 
L 104.540916 236.206886 
L 104.554444 236.242821 
L 104.567972 236.106109 
L 104.649139 235.696275 
L 104.608555 236.155978 
L 104.676194 235.872578 
L 104.70325 236.103722 
L 104.730306 235.691363 
L 104.743833 235.6832 
L 104.757361 235.792482 
L 104.770889 235.846725 
L 104.784417 235.813831 
L 104.879112 235.294105 
L 104.89264 235.465016 
L 104.906167 235.733326 
L 104.946751 235.259567 
L 104.987334 235.495268 
L 105.095557 234.913459 
L 105.109085 235.105479 
L 105.122613 235.267563 
L 105.163196 234.941682 
L 105.217308 235.072375 
L 105.230836 234.64883 
L 105.32553 234.765275 
L 105.379642 234.411451 
L 105.420225 234.921358 
L 105.528448 234.263897 
L 105.541976 234.362168 
L 105.555504 234.509183 
L 105.582559 234.193895 
L 105.636671 234.501177 
L 105.744893 233.937652 
L 105.758421 234.034205 
L 105.771949 234.11045 
L 105.799005 234.034962 
L 105.812532 233.666692 
L 105.839588 234.078864 
L 105.907227 233.844227 
L 105.920755 233.897974 
L 105.934283 233.832814 
L 106.01545 233.414609 
L 106.056034 233.576255 
L 106.069561 233.778735 
L 106.110145 233.322431 
L 106.150728 233.499722 
L 106.245423 232.926624 
L 106.258951 233.120578 
L 106.272479 233.371194 
L 106.313062 232.959368 
L 106.353646 233.158387 
L 106.461869 232.670772 
L 106.475396 232.744912 
L 106.488924 233.069054 
L 106.529508 232.3714 
L 106.583619 232.764097 
L 106.678314 232.354119 
L 106.691842 232.406897 
L 106.745953 232.095333 
L 106.786537 232.613648 
L 106.894759 231.943651 
L 106.908287 232.019145 
L 106.935343 232.190717 
L 106.975926 231.849597 
L 107.002982 232.183672 
L 107.111205 231.638167 
L 107.124733 231.685906 
L 107.13826 231.774303 
L 107.178844 231.350633 
L 107.232955 231.717718 
L 107.314122 231.276969 
L 107.354706 231.432115 
L 107.368234 231.466433 
L 107.476456 230.991455 
L 107.435873 231.469624 
L 107.489984 231.099216 
L 107.503512 231.220256 
L 107.530568 230.864888 
L 107.584679 231.0683 
L 107.611735 230.59738 
L 107.733485 230.732491 
L 107.747013 230.717603 
L 107.82818 230.385012 
L 107.787597 230.817414 
L 107.855236 230.737446 
L 107.895819 230.075634 
L 107.990514 230.264518 
L 108.01757 230.478534 
L 108.044625 230.081281 
L 108.058153 230.077142 
L 108.071681 230.184023 
L 108.085209 230.236432 
L 108.098737 230.201325 
L 108.193432 229.677849 
L 108.152848 230.316438 
L 108.20696 229.865681 
L 108.220487 230.106589 
L 108.261071 229.662221 
L 108.301654 229.893098 
L 108.409877 229.328764 
L 108.423405 229.51313 
L 108.436933 229.669146 
L 108.477516 229.351945 
L 108.531628 229.479121 
L 108.545155 229.075773 
L 108.63985 229.177997 
L 108.666906 229.34215 
L 108.680434 229.033366 
L 108.734545 229.175203 
L 108.842768 228.692811 
L 108.856296 228.78784 
L 108.869824 228.930306 
L 108.896879 228.631512 
L 108.950991 228.784689 
L 108.964518 228.748376 
L 108.978046 228.310322 
L 109.032158 228.755476 
L 109.072741 228.468426 
L 109.086269 228.542418 
L 109.113325 228.465987 
L 109.126852 228.115212 
L 109.153908 228.506273 
L 109.221547 228.419907 
L 109.262131 227.826459 
L 109.370353 228.022576 
L 109.383881 228.211421 
L 109.424465 227.774315 
L 109.465048 227.944938 
L 109.559743 227.3825 
L 109.51916 228.0327 
L 109.573271 227.579214 
L 109.586799 227.802872 
L 109.627382 227.418538 
L 109.667966 227.614137 
L 109.776189 227.018599 
L 109.789716 227.222807 
L 109.816772 227.387781 
L 109.857356 227.066256 
L 109.897939 227.228323 
L 109.992634 226.82801 
L 110.006162 226.881014 
L 110.033217 227.115905 
L 110.073801 226.715849 
L 110.100857 226.903308 
L 110.209079 226.430118 
L 110.222607 226.504222 
L 110.249663 226.669191 
L 110.290246 226.339063 
L 110.317302 226.656945 
L 110.425525 226.130269 
L 110.439053 226.176188 
L 110.45258 226.263234 
L 110.493164 225.856937 
L 110.547275 226.206103 
L 110.628442 225.62391 
L 110.669026 225.942865 
L 110.682554 225.950542 
L 110.790776 225.500419 
L 110.750193 225.959708 
L 110.804304 225.604988 
L 110.885471 225.762192 
L 110.858415 225.321432 
L 110.898999 225.50909 
L 110.912527 225.532301 
L 110.926055 225.12352 
L 111.02075 225.294599 
L 111.034277 225.353572 
L 111.061333 225.230786 
L 111.1425 224.744287 
L 111.101917 225.324832 
L 111.169556 225.098154 
L 111.183084 225.181167 
L 111.223667 224.799335 
L 111.264251 224.996291 
L 111.372473 224.608468 
L 111.386001 224.712972 
L 111.399529 224.903428 
L 111.440112 224.41695 
L 111.480696 224.514436 
L 111.494224 224.532539 
L 111.575391 224.204584 
L 111.534807 224.635015 
L 111.602446 224.401551 
L 111.615974 224.428573 
L 111.629502 224.229152 
L 111.64303 224.225484 
L 111.724197 223.932834 
L 111.683613 224.411687 
L 111.751253 224.131947 
L 111.764781 224.303389 
L 111.805364 223.911923 
L 111.845948 224.022182 
L 111.940642 223.6355 
L 111.95417 223.831792 
L 112.089449 223.36585 
L 111.981226 223.887284 
L 112.102976 223.502698 
L 112.116504 223.722505 
L 112.157088 223.259716 
L 112.197671 223.486471 
L 112.292366 222.89477 
L 112.319422 223.259185 
L 112.508812 222.509157 
L 112.346477 223.314093 
L 112.535867 222.841143 
L 112.549395 222.987406 
L 112.589979 222.563309 
L 112.630562 222.782287 
L 112.738785 222.361929 
L 112.752313 222.468236 
L 112.76584 222.704041 
L 112.806424 222.144908 
L 112.847007 222.335893 
L 112.860535 222.341315 
L 112.874063 221.993575 
L 112.901119 222.388589 
L 112.968758 222.16289 
L 112.982286 222.205789 
L 113.009341 222.041791 
L 113.090508 221.720654 
L 113.049925 222.181873 
L 113.117564 221.904295 
L 113.131092 222.1024 
L 113.171675 221.673336 
L 113.212259 221.82765 
L 113.306954 221.43905 
L 113.320482 221.565523 
L 113.347537 221.68128 
L 113.45576 221.122775 
L 113.469288 221.277239 
L 113.482816 221.500857 
L 113.523399 221.052647 
L 113.563983 221.283746 
L 113.658678 220.713068 
L 113.685733 221.010791 
L 113.712789 221.133622 
L 113.726317 220.842823 
L 113.807484 220.499349 
L 113.7669 220.889779 
L 113.834539 220.834516 
L 114.037457 220.281016 
L 114.050985 220.390675 
L 114.064513 220.586033 
L 114.105096 220.145961 
L 114.14568 220.344685 
L 114.240375 219.784286 
L 114.199791 220.389482 
L 114.253902 219.968415 
L 114.26743 220.15453 
L 114.321542 219.818004 
L 114.348597 220.000234 
L 114.45682 219.544999 
L 114.483876 219.696417 
L 114.497403 219.916197 
L 114.537987 219.462326 
L 114.57857 219.651332 
L 114.673265 219.277822 
L 114.700321 219.37187 
L 114.713849 219.491654 
L 114.754432 219.128059 
L 114.781488 219.303299 
L 114.889711 218.882226 
L 114.916766 219.071668 
L 114.930294 219.09847 
L 114.943822 218.910271 
L 114.95735 218.899764 
L 115.024989 218.57502 
L 115.011461 219.020887 
L 115.065573 218.807234 
L 115.0791 218.969207 
L 115.106156 218.596477 
L 115.160267 218.70083 
L 115.241434 218.178666 
L 115.26849 218.398169 
L 115.282018 218.630332 
L 115.322601 218.196587 
L 115.363185 218.407582 
L 115.471408 217.960495 
L 115.484936 218.05058 
L 115.566103 218.188703 
L 115.539047 217.791928 
L 115.593158 218.021692 
L 115.606686 217.622052 
L 115.701381 217.743014 
L 115.714909 217.814953 
L 115.741964 217.738577 
L 115.823131 217.405532 
L 115.782548 217.769801 
L 115.850187 217.511956 
L 115.863715 217.743163 
L 115.904298 217.283306 
L 115.944882 217.492057 
L 116.053105 217.084469 
L 116.066632 217.188093 
L 116.08016 217.40924 
L 116.120744 216.874433 
L 116.161327 217.062548 
L 116.174855 217.061922 
L 116.188383 216.72939 
L 116.215439 217.103515 
L 116.283078 216.886895 
L 116.296606 216.929965 
L 116.323661 216.771527 
L 116.391301 216.464888 
L 116.377773 216.902587 
L 116.431884 216.634671 
L 116.445412 216.820174 
L 116.485995 216.41222 
L 116.526579 216.561288 
L 116.607746 216.074753 
L 116.634802 216.210473 
L 116.648329 216.468905 
L 116.688913 216.068252 
L 116.729496 216.246736 
L 116.837719 215.80804 
L 116.851247 215.877099 
L 116.878303 216.030996 
L 116.905358 215.648804 
L 116.95947 215.888132 
L 116.972998 215.500397 
L 117.067692 215.565638 
L 117.094748 215.646932 
L 117.121804 215.273567 
L 117.162387 215.577447 
L 117.351777 215.05594 
L 117.378833 215.34535 
L 117.419416 214.923202 
L 117.46 215.02914 
L 117.473527 215.021723 
L 117.554694 214.586595 
L 117.58175 214.930686 
L 117.703501 214.393321 
L 117.730556 214.62547 
L 117.744084 214.794436 
L 117.757612 214.37678 
L 117.825251 214.453793 
L 117.906418 214.124504 
L 117.947002 214.295117 
L 117.96053 214.42736 
L 117.987585 214.0746 
L 118.028169 214.281418 
L 118.136391 213.719439 
L 118.149919 213.877347 
L 118.163447 214.085636 
L 118.204031 213.692338 
L 118.244614 213.899301 
L 118.339309 213.415968 
L 118.379892 213.618494 
L 118.39342 213.76829 
L 118.420476 213.411439 
L 118.474587 213.511662 
L 118.569282 213.069786 
L 118.58281 213.210207 
L 118.596338 213.44088 
L 118.636921 213.024828 
L 118.677505 213.225937 
L 118.785728 212.791748 
L 118.799255 212.878499 
L 118.812783 213.14906 
L 118.853367 212.544702 
L 118.907478 212.843105 
L 118.921006 212.480444 
L 119.015701 212.578266 
L 119.029229 212.648883 
L 119.056284 212.572498 
L 119.150979 212.234485 
L 119.110396 212.700094 
L 119.164507 212.353721 
L 119.178035 212.563534 
L 119.218618 212.131591 
L 119.259202 212.332891 
L 119.367425 211.945618 
L 119.380952 212.038924 
L 119.39448 212.162434 
L 119.435064 211.819868 
L 119.475647 211.923539 
L 119.489175 211.910823 
L 119.502703 211.595729 
L 119.529759 211.9504 
L 119.597398 211.743071 
L 119.610926 211.785376 
L 119.624453 211.7213 
L 119.70562 211.355699 
L 119.746204 211.500789 
L 119.759732 211.671766 
L 119.800315 211.282289 
L 119.840899 211.424134 
L 119.922066 210.965492 
L 119.949122 211.084628 
L 119.962649 211.329172 
L 120.003233 210.947161 
L 120.043816 211.1185 
L 120.152039 210.69307 
L 120.165567 210.757663 
L 120.179095 211.0366 
L 120.219678 210.430081 
L 120.27379 210.76133 
L 120.368484 210.404076 
L 120.382012 210.453826 
L 120.436124 210.176271 
L 120.476707 210.619009 
L 120.58493 210.037332 
L 120.598458 210.104229 
L 120.625513 210.244399 
L 120.666097 209.958072 
L 120.693153 210.234474 
L 120.801375 209.740992 
L 120.828431 209.871294 
L 120.855487 209.845573 
L 120.869014 209.505493 
L 120.963709 209.632093 
L 120.990765 209.686292 
L 121.004293 209.428141 
L 121.058404 209.59073 
L 121.166627 209.180443 
L 121.180155 209.271457 
L 121.193682 209.369523 
L 121.220738 209.056569 
L 121.274849 209.339458 
L 121.383072 208.869818 
L 121.3966 208.980739 
L 121.410128 209.029274 
L 121.437184 208.920254 
L 121.518351 208.629315 
L 121.477767 209.006824 
L 121.545406 208.936069 
L 121.58599 208.356603 
L 121.680685 208.521532 
L 121.70774 208.694795 
L 121.734796 208.351778 
L 121.761852 208.442439 
L 121.775379 208.480301 
L 121.788907 208.449663 
L 121.883602 208.022355 
L 121.89713 208.157661 
L 121.910658 208.376048 
L 121.951241 207.97888 
L 121.991825 208.172035 
L 122.100048 207.687181 
L 122.113575 207.840811 
L 122.127103 207.972597 
L 122.167687 207.695411 
L 122.20827 207.816677 
L 122.221798 207.798937 
L 122.316493 207.45292 
L 122.330021 207.539587 
L 122.357076 207.667342 
L 122.370604 207.402233 
L 122.424716 207.525179 
L 122.532938 207.106942 
L 122.546466 207.18863 
L 122.559994 207.305913 
L 122.58705 207.039486 
L 122.641161 207.287745 
L 122.749384 206.814822 
L 122.762911 206.89712 
L 122.776439 206.957738 
L 122.803495 206.887761 
L 122.817023 206.589192 
L 122.844079 206.924542 
L 122.911718 206.848685 
L 122.952301 206.323539 
L 123.060524 206.49183 
L 123.074052 206.650365 
L 123.114635 206.27827 
L 123.155219 206.414109 
L 123.249914 205.941245 
L 123.263441 206.095538 
L 123.276969 206.300727 
L 123.317553 205.953437 
L 123.358136 206.117343 
L 123.466359 205.60413 
L 123.479887 205.776434 
L 123.506942 205.906572 
L 123.547526 205.638552 
L 123.58811 205.768382 
L 123.682804 205.42009 
L 123.696332 205.469689 
L 123.750444 205.204924 
L 123.791027 205.621553 
L 123.89925 205.064554 
L 123.912778 205.127866 
L 123.939833 205.264004 
L 123.980417 204.983751 
L 124.007472 205.250203 
L 124.115695 204.790641 
L 124.129223 204.83272 
L 124.142751 204.903675 
L 124.183334 204.551127 
L 124.237446 204.842877 
L 124.318613 204.332316 
L 124.359196 204.61256 
L 124.372724 204.616544 
L 124.480947 204.228069 
L 124.494475 204.316384 
L 124.508002 204.411503 
L 124.535058 204.114109 
L 124.589169 204.278379 
L 124.616225 203.892648 
L 124.737976 203.98621 
L 124.751503 203.971273 
L 124.83267 203.552685 
L 124.792087 204.052918 
L 124.859726 203.853885 
L 124.873254 203.916087 
L 124.913837 203.594819 
L 124.940893 203.7661 
L 124.954421 203.75501 
L 125.049116 203.418253 
L 125.076172 203.507962 
L 125.089699 203.545229 
L 125.103227 203.513063 
L 125.197922 203.081466 
L 125.157339 203.601856 
L 125.21145 203.231461 
L 125.224978 203.427122 
L 125.265561 203.055799 
L 125.306145 203.243594 
L 125.414367 202.813981 
L 125.427895 203.018462 
L 125.630813 202.54252 
L 125.454951 203.125183 
L 125.657868 202.694961 
L 125.671396 202.748823 
L 125.684924 202.497269 
L 125.739035 202.612209 
L 125.847258 202.205665 
L 125.860786 202.283822 
L 125.874314 202.397838 
L 125.90137 202.147369 
L 125.955481 202.270059 
L 126.198982 201.535508 
L 126.226038 201.821009 
L 126.239565 201.937529 
L 126.280149 201.578248 
L 126.320732 201.758273 
L 126.428955 201.396875 
L 126.442483 201.485504 
L 126.483066 201.236657 
L 126.52365 201.594501 
L 126.564234 201.062878 
L 126.645401 201.083543 
L 126.672456 201.239683 
L 126.71304 200.907148 
L 126.740095 201.21638 
L 126.861846 200.774498 
L 126.875374 200.855994 
L 126.888902 200.915264 
L 126.915957 200.583253 
L 126.970069 200.881413 
L 127.078291 200.467494 
L 127.091819 200.570561 
L 127.105347 200.614702 
L 127.118875 200.452103 
L 127.132403 200.477572 
L 127.21357 200.214589 
L 127.172986 200.60155 
L 127.240625 200.399536 
L 127.254153 200.406715 
L 127.348848 199.908544 
L 127.375904 200.170441 
L 127.430015 199.940705 
L 127.402959 200.266793 
L 127.484126 200.025087 
L 127.578821 199.716276 
L 127.592349 199.922017 
L 127.727627 199.518349 
L 127.741155 199.607994 
L 127.754683 199.774188 
L 127.795267 199.396939 
L 127.83585 199.559804 
L 127.930545 199.075442 
L 127.889961 199.599129 
L 127.944073 199.233468 
L 127.957601 199.393312 
L 128.011712 199.099814 
L 128.038768 199.251914 
L 128.14699 198.853497 
L 128.174046 198.983463 
L 128.187574 199.168519 
L 128.228157 198.781336 
L 128.268741 198.934188 
L 128.363436 198.607583 
L 128.390491 198.694283 
L 128.404019 198.842015 
L 128.444603 198.448495 
L 128.485186 198.518434 
L 128.498714 198.530279 
L 128.579881 198.255453 
L 128.539298 198.613247 
L 128.606937 198.416292 
L 128.620465 198.436284 
L 128.633992 198.27021 
L 128.64752 198.264459 
L 128.715159 197.97679 
L 128.701632 198.361239 
L 128.755743 198.178429 
L 128.769271 198.314237 
L 128.796327 197.99399 
L 128.850438 198.07775 
L 128.945133 197.753565 
L 128.958661 197.916109 
L 129.229217 197.276287 
L 128.985716 197.955108 
L 129.242745 197.376269 
L 129.256273 197.616201 
L 129.296856 197.123337 
L 129.350968 197.443796 
L 129.445663 196.94173 
L 129.472718 197.241201 
L 129.513302 196.780681 
L 129.621525 196.99125 
L 129.635052 196.987397 
L 129.743275 196.634737 
L 129.756803 196.720665 
L 129.770331 196.907208 
L 129.810914 196.45234 
L 129.851498 196.600559 
L 129.865026 196.602273 
L 129.878553 196.320382 
L 129.905609 196.638986 
L 129.973248 196.448215 
L 129.986776 196.481569 
L 130.013832 196.342617 
L 130.081471 196.070993 
L 130.067943 196.448654 
L 130.122054 196.22058 
L 130.135582 196.375898 
L 130.176166 196.029625 
L 130.216749 196.147341 
L 130.311444 195.819893 
L 130.324972 195.926251 
L 130.352028 196.015136 
L 130.46025 195.551301 
L 130.473778 195.674649 
L 130.487306 195.854317 
L 130.52789 195.484283 
L 130.568473 195.669165 
L 130.663168 195.20647 
L 130.690224 195.428286 
L 130.703751 195.425639 
L 130.717279 195.52614 
L 130.811974 195.005586 
L 130.83903 195.277333 
L 131.041947 194.80538 
L 131.055475 194.892218 
L 131.069003 195.047458 
L 131.109587 194.68636 
L 131.15017 194.768139 
L 131.163698 194.762784 
L 131.244865 194.386851 
L 131.271921 194.68142 
L 131.46131 194.158122 
L 131.474838 194.251034 
L 131.501894 194.456084 
L 131.528949 194.188133 
L 131.596589 193.962335 
L 131.569533 194.245959 
L 131.637172 194.107649 
L 131.6507 194.219379 
L 131.677756 193.917201 
L 131.718339 194.089694 
L 131.826562 193.605571 
L 131.84009 193.738266 
L 131.853618 193.914989 
L 131.894201 193.574135 
L 131.934785 193.74722 
L 132.029479 193.323467 
L 132.070063 193.498778 
L 132.083591 193.623031 
L 132.110646 193.317109 
L 132.164758 193.397323 
L 132.245925 192.966959 
L 132.27298 193.144078 
L 132.286508 193.328004 
L 132.327092 192.970631 
L 132.367675 193.140099 
L 132.475898 192.764322 
L 132.489426 192.837187 
L 132.502954 193.066501 
L 132.543537 192.54921 
L 132.597649 192.795173 
L 132.692343 192.487572 
L 132.705871 192.566185 
L 132.719399 192.622844 
L 132.746455 192.552529 
L 132.827622 192.27377 
L 132.787038 192.578294 
L 132.854677 192.361589 
L 132.868205 192.545546 
L 132.908789 192.168575 
L 132.949372 192.333751 
L 133.057595 192.002454 
L 133.071123 192.076124 
L 133.084651 192.179278 
L 133.125234 191.886012 
L 133.165818 191.965705 
L 133.179346 191.956447 
L 133.192873 191.690199 
L 133.219929 191.991051 
L 133.287568 191.808737 
L 133.301096 191.841452 
L 133.328152 191.704647 
L 133.395791 191.451759 
L 133.382263 191.804595 
L 133.436374 191.587377 
L 133.449902 191.733285 
L 133.490486 191.400415 
L 133.531069 191.515201 
L 133.612236 191.113313 
L 133.639292 191.220986 
L 133.65282 191.427389 
L 133.693403 191.097056 
L 133.733987 191.239828 
L 133.842209 190.870842 
L 133.855737 190.926226 
L 133.869265 191.162848 
L 133.909849 190.642004 
L 133.96396 190.916812 
L 134.058655 190.607025 
L 134.072183 190.652393 
L 134.085711 190.718317 
L 134.126294 190.408108 
L 134.166878 190.649645 
L 134.356267 190.20774 
L 134.383323 190.437732 
L 134.423906 190.07346 
L 134.450962 190.283914 
L 134.559185 189.804218 
L 134.572713 189.934302 
L 134.58624 190.082249 
L 134.640352 189.808145 
L 134.667408 189.95163 
L 134.762102 189.612192 
L 134.802686 189.69631 
L 134.816214 189.855086 
L 134.856797 189.505894 
L 134.897381 189.647529 
L 134.978548 189.282193 
L 135.005603 189.322111 
L 135.019131 189.537508 
L 135.073243 189.224716 
L 135.100298 189.356453 
L 135.208521 189.00776 
L 135.235577 189.154354 
L 135.249104 189.174188 
L 135.262632 189.066572 
L 135.343799 188.770954 
L 135.303216 189.11186 
L 135.370855 188.90354 
L 135.397911 189.049201 
L 135.411439 188.835989 
L 135.492606 188.553426 
L 135.46555 188.859163 
L 135.519661 188.762165 
L 135.533189 188.795511 
L 135.560245 188.590595 
L 135.641412 188.421578 
L 135.600828 188.763783 
L 135.668467 188.566363 
L 135.681995 188.5816 
L 135.790218 188.167144 
L 135.803746 188.293398 
L 135.817274 188.403363 
L 135.857857 188.163008 
L 135.898441 188.260561 
L 135.911968 188.245437 
L 136.006663 187.946837 
L 136.020191 188.021925 
L 136.033719 188.077662 
L 136.060775 188.009006 
L 136.15547 187.729071 
L 136.114886 188.105966 
L 136.168997 187.823338 
L 136.182525 187.990287 
L 136.223109 187.636502 
L 136.263692 187.795401 
L 136.371915 187.445717 
L 136.385443 187.659313 
L 136.439554 187.370924 
L 136.480138 187.438718 
L 136.493665 187.426008 
L 136.58836 187.174193 
L 136.534249 187.458008 
L 136.601888 187.283178 
L 136.615416 187.315472 
L 136.628944 187.258044 
L 136.710111 186.956018 
L 136.750694 187.070539 
L 136.764222 187.204919 
L 136.804806 186.887136 
L 136.845389 186.996534 
L 136.940084 186.591082 
L 136.953612 186.719936 
L 136.96714 186.893691 
L 137.007723 186.593085 
L 137.048307 186.729108 
L 137.156529 186.37125 
L 137.170057 186.424218 
L 137.183585 186.64567 
L 137.224169 186.154721 
L 137.27828 186.413479 
L 137.372975 186.113325 
L 137.386503 186.154491 
L 137.440614 185.92374 
L 137.481197 186.275246 
L 137.58942 185.794383 
L 137.602948 185.847608 
L 137.630004 185.958316 
L 137.670587 185.72193 
L 137.697643 185.942195 
L 137.805866 185.543891 
L 137.819393 185.581365 
L 137.832921 185.638508 
L 137.873505 185.335755 
L 137.927616 185.575451 
L 138.008783 185.256311 
L 138.049367 185.363168 
L 138.062894 185.383186 
L 138.171117 185.03935 
L 138.184645 185.11216 
L 138.198173 185.189786 
L 138.225228 184.93375 
L 138.27934 185.070455 
L 138.306395 184.743688 
L 138.428146 184.80823 
L 138.441674 184.797002 
L 138.522841 184.554452 
L 138.482257 184.86598 
L 138.549897 184.799872 
L 138.59048 184.330691 
L 138.685175 184.452419 
L 138.712231 184.58702 
L 138.725758 184.385616 
L 138.806925 184.11614 
L 138.77987 184.408188 
L 138.833981 184.249849 
L 138.847509 184.453927 
L 138.888092 184.010406 
L 138.928676 184.186384 
L 138.942204 184.175997 
L 139.036899 183.87375 
L 139.050426 183.970738 
L 139.063954 184.117399 
L 139.104538 183.734547 
L 139.145121 183.906757 
L 139.239816 183.527596 
L 139.2804 183.72727 
L 139.293928 183.783568 
L 139.320983 183.51849 
L 139.361567 183.687003 
L 139.469789 183.303745 
L 139.483317 183.397904 
L 139.496845 183.555794 
L 139.537429 183.216127 
L 139.578012 183.369006 
L 139.672707 182.927599 
L 139.699763 183.196358 
L 139.726818 183.221522 
L 139.90268 182.764437 
L 139.916208 182.966032 
L 139.956792 182.541073 
L 140.010903 182.794932 
L 140.119126 182.484608 
L 140.132653 182.557249 
L 140.173237 182.3404 
L 140.21382 182.644163 
L 140.254404 182.190672 
L 140.335571 182.20188 
L 140.362627 182.329811 
L 140.40321 182.048468 
L 140.443794 182.190041 
L 140.606128 181.752675 
L 140.633183 181.919892 
L 140.660239 182.002874 
L 140.768462 181.647447 
L 140.78199 181.730247 
L 140.795517 181.765492 
L 140.809045 181.624143 
L 140.822573 181.647976 
L 140.90374 181.420079 
L 140.863157 181.750519 
L 140.930796 181.573403 
L 140.944324 181.577383 
L 141.052546 181.223561 
L 141.066074 181.410417 
L 141.187825 180.976504 
L 141.09313 181.446001 
L 141.228408 181.176168 
L 141.241936 181.203481 
L 141.255464 181.002006 
L 141.323103 180.787189 
L 141.282519 181.144118 
L 141.363687 181.006455 
L 141.377214 181.008149 
L 141.485437 180.682329 
L 141.498965 180.75244 
L 141.580132 180.845798 
L 141.553076 180.547722 
L 141.59366 180.663808 
L 141.607188 180.678226 
L 141.620715 180.398347 
L 141.71541 180.501794 
L 141.728938 180.538191 
L 141.755994 180.444604 
L 141.837161 180.10236 
L 141.796577 180.507872 
L 141.864216 180.341106 
L 141.877744 180.388546 
L 141.9048 180.199996 
L 141.972439 180.004242 
L 141.945383 180.261154 
L 142.013023 180.136862 
L 142.026551 180.235782 
L 142.053606 179.967632 
L 142.09419 180.161026 
L 142.202412 179.68537 
L 142.21594 179.801434 
L 142.229468 179.95862 
L 142.270052 179.651915 
L 142.310635 179.800618 
L 142.418858 179.442251 
L 142.432386 179.604752 
L 142.635303 179.199199 
L 142.459441 179.68641 
L 142.662359 179.30658 
L 142.675887 179.364238 
L 142.689414 179.058938 
L 142.743526 179.236548 
L 142.851749 178.905279 
L 142.865276 178.967939 
L 142.878804 179.057713 
L 142.90586 178.852188 
L 142.959971 178.945887 
L 143.203472 178.329029 
L 143.230528 178.554341 
L 143.244056 178.646414 
L 143.284639 178.352482 
L 143.325223 178.493534 
L 143.433445 178.189904 
L 143.446973 178.260203 
L 143.460501 178.415185 
L 143.501085 178.032061 
L 143.541668 178.147017 
L 143.555196 178.149498 
L 143.636363 177.91271 
L 143.59578 178.180015 
L 143.663419 178.013075 
L 143.676947 178.038469 
L 143.704002 177.917877 
L 143.785169 177.686434 
L 143.744586 178.011021 
L 143.812225 177.809082 
L 143.825753 177.93975 
L 143.866336 177.642639 
L 143.90692 177.737022 
L 144.001615 177.454595 
L 144.015142 177.545754 
L 144.042198 177.614359 
L 144.150421 177.217057 
L 144.163949 177.318671 
L 144.177476 177.468844 
L 144.21806 177.153684 
L 144.258644 177.304464 
L 144.353338 176.895237 
L 144.380394 177.100916 
L 144.434505 176.909191 
L 144.40745 177.173752 
L 144.488617 176.971602 
L 144.569784 176.590157 
L 144.596839 176.786745 
L 144.610367 176.912946 
L 144.650951 176.605722 
L 144.691534 176.751372 
L 144.799757 176.433633 
L 144.813285 176.501367 
L 144.894452 176.583335 
L 144.867396 176.3036 
L 144.90798 176.418222 
L 144.921507 176.427348 
L 144.935035 176.161478 
L 145.02973 176.254206 
L 145.043258 176.290515 
L 145.070314 176.201026 
L 145.151481 175.958029 
L 145.110897 176.256798 
L 145.178536 176.059624 
L 145.192064 176.205556 
L 145.232648 175.890566 
L 145.273231 176.00968 
L 145.367926 175.736769 
L 145.394982 175.79992 
L 145.40851 175.878064 
L 145.449093 175.623144 
L 145.476149 175.738328 
L 145.584371 175.429556 
L 145.611427 175.556987 
L 145.624955 175.571506 
L 145.638483 175.436881 
L 145.665538 175.325292 
L 145.706122 175.500276 
L 145.800817 175.195751 
L 145.827873 175.257816 
L 145.8414 175.278631 
L 145.854928 175.25777 
L 145.936095 174.885637 
L 145.963151 175.03674 
L 145.976679 175.18963 
L 146.017262 174.885834 
L 146.057846 175.023852 
L 146.166068 174.700655 
L 146.179596 174.760745 
L 146.260763 174.840842 
L 146.233708 174.573485 
L 146.274291 174.712246 
L 146.287819 174.718365 
L 146.301347 174.44434 
L 146.396042 174.513305 
L 146.409569 174.558782 
L 146.436625 174.498635 
L 146.517792 174.257077 
L 146.477209 174.517058 
L 146.544848 174.328586 
L 146.558376 174.482634 
L 146.598959 174.162839 
L 146.639543 174.296325 
L 146.747765 174.002169 
L 146.761293 174.070208 
L 146.774821 174.215256 
L 146.815405 173.849066 
L 146.855988 173.963497 
L 146.869516 173.961442 
L 146.964211 173.733484 
L 146.910099 173.986524 
L 146.977739 173.826734 
L 146.991266 173.852404 
L 147.018322 173.737088 
L 147.085961 173.515233 
L 147.072433 173.815982 
L 147.126545 173.627957 
L 147.140073 173.750082 
L 147.180656 173.467931 
L 147.22124 173.558997 
L 147.302407 173.211268 
L 147.329462 173.304738 
L 147.34299 173.476326 
L 147.383574 173.194258 
L 147.424157 173.310713 
L 147.53238 172.992655 
L 147.545908 173.03886 
L 147.572963 173.136871 
L 147.600019 172.871707 
L 147.65413 173.024403 
L 147.748825 172.753215 
L 147.762353 172.789259 
L 147.775881 172.842363 
L 147.816464 172.578827 
L 147.857048 172.776564 
L 148.046438 172.393305 
L 148.059966 172.461206 
L 148.073493 172.581949 
L 148.114077 172.289486 
L 148.15466 172.351163 
L 148.168188 172.343219 
L 148.249355 172.035729 
L 148.276411 172.266561 
L 148.398161 171.87933 
L 148.425217 172.031598 
L 148.438745 172.140883 
L 148.452273 171.854017 
L 148.519912 171.895716 
L 148.601079 171.656776 
L 148.641662 171.768626 
L 148.65519 171.854102 
L 148.682246 171.609415 
L 148.72283 171.744185 
L 148.831052 171.34529 
L 148.84458 171.449357 
L 148.858108 171.588387 
L 148.898691 171.312119 
L 148.939275 171.446366 
L 149.03397 171.09922 
L 149.074553 171.232356 
L 149.088081 171.329755 
L 149.115137 171.082619 
L 149.169248 171.141115 
L 149.263943 170.82874 
L 149.277471 170.919663 
L 149.290999 171.073744 
L 149.331582 170.782638 
L 149.372166 170.912534 
L 149.480388 170.599587 
L 149.493916 170.656698 
L 149.507444 170.836342 
L 149.548028 170.421347 
L 149.588611 170.621398 
L 149.602139 170.610892 
L 149.696834 170.353992 
L 149.710362 170.41491 
L 149.723889 170.45947 
L 149.750945 170.400582 
L 149.84564 170.15884 
L 149.805056 170.477476 
L 149.859168 170.235519 
L 149.872696 170.374444 
L 149.913279 170.075266 
L 149.953863 170.203068 
L 150.062085 169.925203 
L 150.075613 169.983819 
L 150.089141 170.064284 
L 150.129724 169.82487 
L 150.170308 169.886022 
L 150.183836 169.875371 
L 150.278531 169.655868 
L 150.224419 169.89757 
L 150.292059 169.74502 
L 150.305586 169.770315 
L 150.319114 169.721311 
L 150.400281 169.46025 
L 150.440865 169.553967 
L 150.454393 169.665852 
L 150.494976 169.397182 
L 150.53556 169.483559 
L 150.616727 169.157533 
L 150.643782 169.237128 
L 150.65731 169.398741 
L 150.697894 169.131734 
L 150.738477 169.241683 
L 150.8467 168.934449 
L 150.860228 168.976788 
L 150.873755 169.162361 
L 150.914339 168.745524 
L 150.96845 168.957998 
L 151.063145 168.699821 
L 151.076673 168.733001 
L 151.130784 168.534305 
L 151.171368 168.825377 
L 151.279591 168.413989 
L 151.293118 168.45757 
L 151.320174 168.546161 
L 151.360758 168.347726 
L 151.387813 168.527281 
L 151.496036 168.174522 
L 151.523092 168.258723 
L 151.550147 168.234758 
L 151.644842 167.996652 
L 151.65837 168.073375 
L 151.671898 168.108447 
L 151.698954 167.92591 
L 151.753065 168.027077 
L 151.861288 167.731965 
L 151.874815 167.790954 
L 151.888343 167.85348 
L 151.915399 167.636269 
L 151.96951 167.817984 
L 152.077733 167.482877 
L 152.091261 167.555947 
L 152.104789 167.585589 
L 152.131844 167.505806 
L 152.213011 167.29558 
L 152.172428 167.558554 
L 152.240067 167.498797 
L 152.34829 167.101736 
L 152.375345 167.195899 
L 152.402401 167.305279 
L 152.415929 167.135388 
L 152.497096 166.902793 
L 152.47004 167.148667 
L 152.537679 167.090207 
L 152.727069 166.680249 
L 152.740597 166.75981 
L 152.754125 166.881942 
L 152.794708 166.558524 
L 152.835292 166.697312 
L 152.929987 166.373229 
L 152.97057 166.536124 
L 152.984098 166.582832 
L 153.011154 166.359897 
L 153.051737 166.495205 
L 153.15996 166.168005 
L 153.173488 166.244287 
L 153.187016 166.374775 
L 153.227599 166.088498 
L 153.268183 166.210773 
L 153.376405 165.919609 
L 153.389933 166.086172 
L 153.444044 165.852377 
L 153.484628 165.904102 
L 153.498156 165.890839 
L 153.592851 165.678668 
L 153.538739 165.909637 
L 153.606378 165.846553 
L 153.646962 165.48496 
L 153.755185 165.579276 
L 153.768712 165.68249 
L 153.809296 165.426434 
L 153.84988 165.508958 
L 153.944574 165.175851 
L 153.958102 165.276309 
L 153.97163 165.411774 
L 154.012214 165.170136 
L 154.052797 165.273402 
L 154.16102 164.910399 
L 154.188075 165.106288 
L 154.215131 165.017768 
L 154.296298 164.770877 
L 154.336882 164.910574 
L 154.350409 164.975561 
L 154.377465 164.746128 
L 154.418049 164.826195 
L 154.675078 164.400528 
L 154.485688 164.861258 
L 154.688605 164.465684 
L 154.702133 164.573019 
L 154.742717 164.291068 
L 154.7833 164.473514 
L 154.877995 164.072843 
L 154.905051 164.273584 
L 155.107968 163.899239 
L 155.121496 163.957174 
L 155.135024 164.071754 
L 155.175607 163.802403 
L 155.216191 163.906336 
L 155.310886 163.553227 
L 155.324414 163.661154 
L 155.337942 163.781141 
L 155.392053 163.558017 
L 155.419109 163.658152 
L 155.527331 163.286309 
L 155.554387 163.482547 
L 155.567915 163.520644 
L 155.59497 163.363178 
L 155.66261 163.192023 
L 155.635554 163.408422 
L 155.703193 163.299234 
L 155.716721 163.380792 
L 155.743777 163.155852 
L 155.797888 163.209217 
L 155.892583 162.904274 
L 155.851999 163.258751 
L 155.906111 163.001701 
L 155.919638 163.129873 
L 155.960222 162.874061 
L 156.000805 162.992107 
L 156.109028 162.685496 
L 156.122556 162.819835 
L 156.325474 162.464253 
L 156.149612 162.885282 
L 156.352529 162.561081 
L 156.366057 162.593905 
L 156.379585 162.423734 
L 156.433696 162.490714 
L 156.541919 162.199718 
L 156.555447 162.249409 
L 156.568975 162.322737 
L 156.59603 162.150395 
L 156.650142 162.222467 
L 156.893643 161.688034 
L 156.920698 161.873262 
L 156.934226 161.948005 
L 156.97481 161.701449 
L 157.015393 161.813659 
L 157.123616 161.553116 
L 157.137144 161.60958 
L 157.177727 161.436139 
L 157.218311 161.666925 
L 157.340061 161.304292 
L 157.367117 161.403104 
L 157.4077 161.174424 
L 157.434756 161.375004 
L 157.556507 161.05847 
L 157.570035 161.110127 
L 157.583562 161.146953 
L 157.610618 160.921145 
L 157.664729 161.109287 
L 157.772952 160.814035 
L 157.78648 160.879989 
L 157.800008 160.906787 
L 157.813536 160.796208 
L 157.827063 160.810611 
L 157.90823 160.620743 
L 157.867647 160.885406 
L 157.935286 160.738552 
L 157.948814 160.7408 
L 158.043509 160.392259 
L 158.070564 160.561042 
L 158.09762 160.620071 
L 158.178787 160.444408 
L 158.273482 160.221638 
L 158.28701 160.355551 
L 158.422288 160.06232 
L 158.435816 160.11937 
L 158.449344 160.227169 
L 158.489927 159.969202 
L 158.530511 160.06978 
L 158.625206 159.730707 
L 158.584622 160.085566 
L 158.652261 159.936291 
L 158.841651 159.543186 
L 158.855179 159.608208 
L 158.882235 159.744287 
L 158.90929 159.5534 
L 158.976929 159.381154 
L 158.949874 159.584557 
L 159.017513 159.478163 
L 159.031041 159.553881 
L 159.058097 159.339742 
L 159.09868 159.487436 
L 159.206903 159.098696 
L 159.220431 159.188632 
L 159.233958 159.310061 
L 159.274542 159.065851 
L 159.315125 159.177786 
L 159.40982 158.856237 
L 159.450404 158.981553 
L 159.463932 159.069162 
L 159.490987 158.852224 
L 159.545099 158.897425 
L 159.639793 158.664932 
L 159.653321 158.76928 
L 159.923878 158.295721 
L 159.680377 158.790684 
L 159.937406 158.359178 
L 159.950934 158.515023 
L 159.991517 158.182129 
L 160.045629 158.383985 
L 160.140323 158.03378 
L 160.167379 158.226273 
L 160.343241 157.859306 
L 160.370297 157.878917 
L 160.397352 158.010339 
L 160.437936 157.774626 
L 160.464991 157.950075 
L 160.573214 157.541715 
L 160.586742 157.633646 
L 160.60027 157.746643 
L 160.654381 157.533038 
L 160.681437 157.627762 
L 160.776132 157.339945 
L 160.816715 157.429837 
L 160.830243 157.530132 
L 160.870827 157.293402 
L 160.91141 157.364156 
L 161.006105 157.130286 
L 161.033161 157.19875 
L 161.046688 157.251075 
L 161.060216 157.049293 
L 161.114328 157.137404 
L 161.22255 156.867819 
L 161.249606 156.979554 
L 161.263134 156.981956 
L 161.357829 156.659827 
L 161.384884 156.799127 
L 161.425468 156.701216 
L 161.506635 156.498695 
L 161.466051 156.719463 
L 161.547218 156.641889 
L 161.560746 156.658004 
L 161.655441 156.385571 
L 161.668969 156.421425 
L 161.696025 156.495738 
L 161.736608 156.322101 
L 161.763664 156.477326 
L 161.871886 156.086687 
L 161.898942 156.237468 
L 162.291249 155.664419 
L 162.331833 155.750648 
L 162.345361 155.822245 
L 162.372416 155.618872 
L 162.413 155.723603 
L 162.521223 155.384289 
L 162.53475 155.469123 
L 162.548278 155.582439 
L 162.588862 155.352034 
L 162.629445 155.457327 
L 162.72414 155.162418 
L 162.764724 155.26811 
L 162.778252 155.347913 
L 162.805307 155.142243 
L 162.859419 155.184387 
L 162.940586 154.887252 
L 162.967641 154.995835 
L 162.981169 155.115012 
L 163.021753 154.873258 
L 163.062336 154.976065 
L 163.170559 154.708706 
L 163.184087 154.753415 
L 163.197614 154.901758 
L 163.238198 154.554061 
L 163.278781 154.715652 
L 163.292309 154.706537 
L 163.387004 154.486299 
L 163.400532 154.534085 
L 163.41406 154.569098 
L 163.441116 154.519298 
L 163.522283 154.321324 
L 163.481699 154.526453 
L 163.549338 154.371905 
L 163.562866 154.490222 
L 163.60345 154.235347 
L 163.644033 154.336358 
L 163.752256 154.096257 
L 163.765784 154.143324 
L 163.779311 154.208633 
L 163.819895 154.009286 
L 163.860478 154.054791 
L 163.874006 154.045839 
L 163.968701 153.855295 
L 163.91459 154.058674 
L 163.982229 153.926544 
L 163.995757 153.945966 
L 164.022812 153.852653 
L 164.090452 153.674913 
L 164.076924 153.907924 
L 164.131035 153.753473 
L 164.144563 153.847126 
L 164.185147 153.620346 
L 164.22573 153.689213 
L 164.306897 153.412286 
L 164.333953 153.474124 
L 164.347481 153.607303 
L 164.388064 153.38504 
L 164.428648 153.46916 
L 164.53687 153.207651 
L 164.550398 153.240203 
L 164.563926 153.392351 
L 164.604509 153.044438 
L 164.658621 153.214661 
L 164.753316 152.994121 
L 164.780371 153.060134 
L 164.807427 153.034637 
L 164.902122 152.809693 
L 164.91565 152.8656 
L 164.929178 152.985836 
L 164.969761 152.738244 
L 165.010345 152.841516 
L 165.118567 152.572314 
L 165.132095 152.637788 
L 165.145623 152.706183 
L 165.186206 152.521 
L 165.22679 152.576492 
L 165.240318 152.564699 
L 165.335013 152.359716 
L 165.34854 152.42043 
L 165.362068 152.447722 
L 165.389124 152.376598 
L 165.483819 152.209043 
L 165.443235 152.432108 
L 165.497347 152.25491 
L 165.510874 152.356492 
L 165.551458 152.120198 
L 165.592041 152.206073 
L 165.673209 151.954517 
L 165.700264 151.971193 
L 165.713792 152.109235 
L 165.767903 151.895889 
L 165.794959 151.976009 
L 165.903182 151.729493 
L 165.930237 151.817789 
L 165.943765 151.828887 
L 165.957293 151.759283 
L 166.03846 151.550395 
L 165.997877 151.77568 
L 166.079044 151.644911 
L 166.092571 151.719538 
L 166.133155 151.51984 
L 166.173738 151.563604 
L 166.268433 151.303757 
L 166.281961 151.375185 
L 166.295489 151.492487 
L 166.336072 151.264111 
L 166.376656 151.359221 
L 166.484879 151.06634 
L 166.498407 151.147247 
L 166.511934 151.216117 
L 166.552518 151.05442 
L 166.593101 151.109617 
L 166.606629 151.097126 
L 166.701324 150.883916 
L 166.714852 150.928243 
L 166.72838 150.96255 
L 166.755435 150.915001 
L 166.85013 150.710927 
L 166.809547 150.967014 
L 166.863658 150.770965 
L 166.877186 150.877197 
L 166.917769 150.639489 
L 166.958353 150.735663 
L 167.066576 150.485908 
L 167.080103 150.621472 
L 167.201854 150.284248 
L 167.242438 150.410272 
L 167.255965 150.411751 
L 167.337132 150.186177 
L 167.377716 150.267523 
L 167.391244 150.27427 
L 167.499466 150.039061 
L 167.512994 150.08503 
L 167.526522 150.120497 
L 167.553578 149.931331 
L 167.607689 150.02594 
L 167.756495 149.810607 
L 167.837662 149.752025 
L 167.918829 149.483552 
L 167.878246 149.808819 
L 167.959413 149.652516 
L 167.972941 149.641912 
L 168.067636 149.42922 
L 168.094691 149.490276 
L 168.121747 149.467332 
L 168.216442 149.230227 
L 168.175858 149.512333 
L 168.22997 149.301936 
L 168.243497 149.408993 
L 168.284081 149.17964 
L 168.324664 149.277652 
L 168.432887 149.018961 
L 168.446415 149.144272 
L 168.568165 148.827431 
L 168.473471 149.165352 
L 168.608749 148.955335 
L 168.622277 148.973722 
L 168.635805 148.8343 
L 168.798139 148.659428 
L 168.676388 148.893311 
L 168.811667 148.707221 
L 168.825194 148.801423 
L 168.865778 148.576184 
L 168.906361 148.657934 
L 169.001056 148.358807 
L 169.014584 148.446748 
L 169.028112 148.542096 
L 169.082223 148.356033 
L 169.109279 148.43377 
L 169.217502 148.196645 
L 169.258085 148.266495 
L 169.271613 148.277801 
L 169.35278 148.032814 
L 169.379836 148.09439 
L 169.406891 148.179939 
L 169.433947 147.994666 
L 169.569225 147.918091 
L 169.650392 147.741807 
L 169.609809 147.95255 
L 169.677448 147.824314 
L 169.690976 147.832205 
L 169.704504 147.733994 
L 169.718032 147.731928 
L 169.799199 147.548881 
L 169.758615 147.80614 
L 169.85331 147.597535 
L 169.934477 147.393728 
L 169.97506 147.512459 
L 169.988588 147.548295 
L 170.015644 147.370721 
L 170.056227 147.473912 
L 170.16445 147.19985 
L 170.177978 147.259364 
L 170.191506 147.358908 
L 170.232089 147.132349 
L 170.272673 147.223776 
L 170.367368 146.920945 
L 170.394423 147.085062 
L 170.421479 147.101011 
L 170.597341 146.769417 
L 170.610869 146.894285 
L 170.651452 146.618746 
L 170.705564 146.768828 
L 170.813786 146.545781 
L 170.827314 146.589811 
L 170.867898 146.44768 
L 170.908481 146.630392 
L 171.030232 146.32233 
L 171.04376 146.384374 
L 171.057287 146.399301 
L 171.070815 146.326026 
L 171.084343 146.317253 
L 171.16551 146.102992 
L 171.124927 146.369875 
L 171.192566 146.251335 
L 171.219621 146.183142 
L 171.300788 145.984343 
L 171.341372 146.082636 
L 171.3549 146.132624 
L 171.381955 145.951689 
L 171.422539 146.065913 
L 171.530762 145.759811 
L 171.544289 145.827251 
L 171.557817 145.927428 
L 171.598401 145.709166 
L 171.638984 145.80174 
L 171.747207 145.552147 
L 171.760735 145.667059 
L 171.787791 145.689735 
L 171.963652 145.347164 
L 171.97718 145.452825 
L 172.017764 145.224584 
L 172.071875 145.350773 
L 172.180098 145.119237 
L 172.193626 145.160854 
L 172.274793 145.20447 
L 172.247737 145.019589 
L 172.28832 145.089726 
L 172.301848 145.095617 
L 172.396543 144.904998 
L 172.410071 144.957036 
L 172.423599 144.978831 
L 172.450655 144.917019 
L 172.531822 144.677894 
L 172.491238 144.944927 
L 172.558877 144.824368 
L 172.572405 144.857331 
L 172.612989 144.676693 
L 172.640044 144.759795 
L 172.653572 144.750661 
L 172.761795 144.546467 
L 172.775323 144.588061 
L 172.78885 144.667894 
L 172.829434 144.441082 
L 172.85649 144.535301 
L 172.964712 144.307121 
L 172.991768 144.384114 
L 173.005296 144.391959 
L 173.018824 144.301404 
L 173.032351 144.295281 
L 173.113519 144.141384 
L 173.072935 144.363253 
L 173.140574 144.219785 
L 173.154102 144.290992 
L 173.194686 144.106413 
L 173.235269 144.142784 
L 173.329964 143.944058 
L 173.35702 144.005771 
L 173.370547 144.04125 
L 173.384075 143.848818 
L 173.438187 143.945224 
L 173.546409 143.712039 
L 173.559937 143.747911 
L 173.573465 143.803837 
L 173.627576 143.663818 
L 173.654632 143.716817 
L 174.060467 143.228344 
L 174.073995 143.261133 
L 174.087523 143.334826 
L 174.128106 143.138242 
L 174.155162 143.279554 
L 174.263385 142.935999 
L 174.276912 143.0093 
L 174.29044 143.098544 
L 174.344552 142.921044 
L 174.371607 142.994288 
L 174.47983 142.750124 
L 174.506886 142.820613 
L 174.520414 142.903089 
L 174.560997 142.70306 
L 174.601581 142.758545 
L 174.696275 142.560354 
L 174.723331 142.609847 
L 174.736859 142.651986 
L 174.750387 142.489338 
L 174.804498 142.552081 
L 174.912721 142.324364 
L 174.939776 142.410391 
L 174.98036 142.303828 
L 175.047999 142.135923 
L 175.007416 142.345496 
L 175.088583 142.245005 
L 175.10211 142.300338 
L 175.129166 142.12681 
L 175.16975 142.172556 
L 175.778502 141.422352 
L 175.79203 141.486691 
L 175.805558 141.572156 
L 175.846141 141.379607 
L 175.886725 141.525733 
L 175.98142 141.241542 
L 176.022003 141.303776 
L 176.035531 141.362304 
L 176.062587 141.19653 
L 176.10317 141.274084 
L 176.211393 140.988402 
L 176.224921 141.055796 
L 176.238449 141.145435 
L 176.279032 140.957512 
L 176.319616 141.036408 
L 176.414311 140.784002 
L 176.454894 140.867951 
L 176.468422 140.934542 
L 176.509005 140.759362 
L 176.549589 140.79386 
L 176.630756 140.545511 
L 176.657812 140.626776 
L 176.671339 140.723898 
L 176.711923 140.525938 
L 176.752507 140.60235 
L 176.860729 140.376093 
L 176.874257 140.409522 
L 176.887785 140.46282 
L 176.928368 140.282719 
L 176.968952 140.364377 
L 176.98248 140.365188 
L 177.077175 140.175091 
L 177.090702 140.208611 
L 177.10423 140.235885 
L 177.131286 140.19712 
L 177.212453 140.029365 
L 177.239509 140.063147 
L 177.253036 140.15831 
L 177.29362 139.948671 
L 177.334203 140.025909 
L 177.442426 139.815439 
L 177.455954 139.855372 
L 177.469482 139.947848 
L 177.510065 139.702723 
L 177.550649 139.775264 
L 177.564177 139.770056 
L 177.658872 139.603493 
L 177.672399 139.657769 
L 177.685927 139.672866 
L 177.712983 139.599106 
L 177.780622 139.448047 
L 177.767094 139.638189 
L 177.821206 139.503403 
L 177.834733 139.579496 
L 177.875317 139.390642 
L 177.9159 139.443876 
L 177.997067 139.21337 
L 178.024123 139.25675 
L 178.037651 139.363846 
L 178.091762 139.179787 
L 178.118818 139.243536 
L 178.227041 139.023238 
L 178.254096 139.10334 
L 178.281152 139.023875 
L 178.362319 138.851666 
L 178.321736 139.072385 
L 178.402903 138.94424 
L 178.41643 138.993515 
L 178.443486 138.829887 
L 178.48407 138.874014 
L 178.808738 138.460074 
L 178.822265 138.497141 
L 178.835793 138.60122 
L 178.876377 138.339511 
L 178.91696 138.440754 
L 178.930488 138.432421 
L 179.025183 138.25596 
L 179.038711 138.300691 
L 179.052239 138.321898 
L 179.079294 138.266212 
L 179.173989 138.115601 
L 179.133406 138.30496 
L 179.187517 138.152736 
L 179.201045 138.234387 
L 179.241628 138.039402 
L 179.282212 138.105255 
L 179.376907 137.922535 
L 179.403962 137.94953 
L 179.41749 137.994228 
L 179.458074 137.832553 
L 179.485129 137.895249 
L 179.660991 137.6095 
L 179.674519 137.632421 
L 179.688047 137.712971 
L 179.728631 137.53314 
L 179.782742 137.661768 
L 179.877437 137.37894 
L 179.904492 137.473952 
L 179.91802 137.492713 
L 179.945076 137.383321 
L 180.026243 137.270631 
L 179.985659 137.455211 
L 180.053299 137.334719 
L 180.066826 137.340286 
L 180.080354 137.256763 
L 180.093882 137.257337 
L 180.175049 137.122435 
L 180.134466 137.314635 
L 180.215633 137.17046 
L 180.22916 137.168183 
L 180.310327 136.950518 
L 180.337383 137.060193 
L 181.825445 135.496937 
L 181.852501 135.570366 
L 181.866029 135.667938 
L 181.906612 135.43499 
L 181.947196 135.503156 
L 182.488309 134.914692 
L 182.501837 134.95289 
L 182.515365 135.028008 
L 182.555948 134.843041 
L 182.596532 134.905089 
L 182.704755 134.709369 
L 182.718282 134.810913 
L 182.840033 134.534589 
L 182.880616 134.619064 
L 182.961783 134.563311 
L 183.04295 134.359827 
L 183.083534 134.414009 
L 183.097062 134.469386 
L 183.137645 134.310388 
L 183.178229 134.34228 
L 183.272924 134.127802 
L 183.286451 134.18225 
L 183.299979 134.267028 
L 183.340563 134.095002 
L 183.381146 134.158628 
L 183.489369 133.918188 
L 183.516425 134.030079 
L 183.854621 133.601329 
L 183.868148 133.648356 
L 183.881676 133.726655 
L 183.92226 133.542518 
L 183.962843 133.61084 
L 184.071066 133.405103 
L 184.084594 133.502771 
L 184.206344 133.236769 
L 184.246928 133.327407 
L 184.260456 133.329891 
L 184.273984 133.223529 
L 184.301039 133.308568 
L 185.126237 132.499932 
L 185.220932 132.303268 
L 185.180349 132.523341 
L 185.23446 132.357006 
L 185.247988 132.434451 
L 185.288571 132.260233 
L 185.329155 132.327664 
L 185.437377 132.116937 
L 185.464433 132.176871 
L 185.477961 132.224982 
L 185.505017 132.079429 
L 185.5456 132.10895 
L 189.252227 128.601117 
L 189.265755 128.63761 
L 189.279283 128.731756 
L 189.319867 128.514254 
L 189.373978 128.621187 
L 189.468673 128.395243 
L 189.495728 128.508804 
L 189.67159 128.234318 
L 189.685118 128.253995 
L 189.793341 128.267103 
L 189.901563 128.003194 
L 189.915091 128.055055 
L 189.928619 128.123008 
L 189.969203 127.976012 
L 190.009786 128.029339 
L 190.104481 127.824732 
L 190.145065 127.880795 
L 190.158592 127.93412 
L 190.199176 127.788513 
L 190.239759 127.814599 
L 190.334454 127.652881 
L 190.36151 127.692933 
L 190.375038 127.718646 
L 190.388566 127.583784 
L 190.442677 127.636958 
L 190.5509 127.44885 
L 190.577955 127.512383 
L 190.605011 127.428142 
L 190.686178 127.288737 
L 190.645594 127.487066 
L 190.726761 127.367513 
L 190.740289 127.398079 
L 190.767345 127.267392 
L 190.807929 127.294253 
L 191.416681 126.656745 
L 191.443737 126.723251 
L 191.457265 126.767514 
L 191.470792 126.617812 
L 191.524904 126.710634 
L 191.619599 126.479761 
L 191.660182 126.531963 
L 191.67371 126.566487 
L 191.700766 126.436741 
L 191.741349 126.495703 
L 191.849572 126.272146 
L 191.8631 126.318215 
L 191.876628 126.383702 
L 191.917211 126.230385 
L 191.957795 126.287502 
L 192.052489 126.082523 
L 192.093073 126.145128 
L 192.106601 126.185188 
L 192.133656 126.054787 
L 192.17424 126.083387 
L 192.850632 125.402559 
L 192.877687 125.433521 
L 192.891215 125.49929 
L 192.931799 125.338961 
L 192.972382 125.387511 
L 193.080605 125.228844 
L 193.094133 125.248558 
L 193.107661 125.283005 
L 193.148244 125.153575 
L 193.1753 125.196932 
L 193.351162 124.958735 
L 193.36469 124.972362 
L 193.378217 125.028313 
L 193.418801 124.891756 
L 193.472912 124.982274 
L 193.567607 124.752882 
L 193.608191 124.814279 
L 193.621718 124.836955 
L 193.635246 124.681476 
L 193.689358 124.742956 
L 193.784053 124.632819 
L 193.86522 124.514538 
L 193.824636 124.667468 
L 193.905803 124.548247 
L 193.919331 124.546857 
L 194.000498 124.367067 
L 194.041081 124.43298 
L 194.054609 124.46034 
L 194.081665 124.33704 
L 194.122248 124.363131 
L 194.582195 123.857562 
L 194.622778 123.928874 
L 194.649834 123.844059 
L 194.690418 123.878237 
L 194.879807 123.642264 
L 194.933919 123.574037 
L 194.98803 123.649859 
L 195.096253 123.45843 
L 195.10978 123.491635 
L 195.123308 123.500473 
L 195.150364 123.450934 
L 195.231531 123.32695 
L 195.190948 123.469476 
L 195.272115 123.36196 
L 195.285642 123.365248 
L 195.366809 123.191226 
L 195.407393 123.240578 
L 195.420921 123.277096 
L 195.447976 123.154732 
L 195.48856 123.181484 
L 196.097313 122.555807 
L 196.124368 122.616061 
L 196.137896 122.669514 
L 196.17848 122.517484 
L 196.205535 122.604487 
L 196.30023 122.407838 
L 196.340814 122.431846 
L 196.354341 122.471719 
L 196.394925 122.333226 
L 196.435508 122.389817 
L 196.530203 122.182753 
L 196.557259 122.28194 
L 196.733121 122.025544 
L 196.760177 122.045501 
L 196.787232 122.103668 
L 196.827816 121.971488 
L 196.854871 122.009367 
L 198.072377 120.964026 
L 198.153544 120.939113 
L 198.248239 120.739305 
L 198.288822 120.797566 
L 198.545851 120.495133 
L 198.559379 120.502825 
L 198.572907 120.579259 
L 198.61349 120.388718 
L 198.654074 120.477463 
L 198.897575 120.250845 
L 198.978742 120.130821 
L 198.938158 120.265152 
L 199.019325 120.174981 
L 199.127548 119.999685 
L 199.154604 120.041465 
L 199.168131 120.080145 
L 199.195187 119.966208 
L 199.235771 119.9824 
L 207.05486 113.529553 
L 207.081916 113.570766 
L 207.095444 113.594422 
L 207.108971 113.487771 
L 207.163083 113.546021 
L 207.257778 113.366568 
L 207.298361 113.399914 
L 207.311889 113.419131 
L 207.325417 113.305374 
L 207.379528 113.337465 
L 207.474223 113.245947 
L 207.514806 113.260011 
L 207.623029 113.078549 
L 207.690668 113.016256 
L 207.74478 113.079397 
L 207.839475 112.899348 
L 207.880058 112.952564 
L 208.137087 112.690362 
L 208.150615 112.707 
L 208.164143 112.759813 
L 208.204726 112.60786 
L 208.24531 112.652475 
L 208.664673 112.320577 
L 208.6782 112.346231 
L 208.786423 112.188095 
L 208.799951 112.207277 
L 208.840534 112.178277 
L 208.935229 112.075566 
L 208.962285 112.103304 
L 209.151675 111.909832 
L 209.205786 111.834246 
L 209.24637 111.88469 
L 209.503398 111.61974 
L 209.516926 111.632568 
L 209.530454 111.688206 
L 209.571038 111.534186 
L 209.611621 111.589057 
L 210.206846 111.121131 
L 210.301541 111.010351 
L 210.328596 111.038235 
L 210.802071 110.605344 
L 210.815599 110.631494 
L 210.829126 110.669933 
L 210.86971 110.563133 
L 210.910293 110.580694 
L 210.99146 110.525927 
L 211.099683 110.408282 
L 211.113211 110.421119 
L 211.221434 110.330093 
L 211.356712 110.20549 
L 211.573157 110.073356 
L 211.667852 109.958211 
L 211.694908 109.983338 
L 211.803131 109.874752 
L 211.843714 109.897929 
L 211.965465 109.748494 
L 212.073687 109.708547 
L 212.168382 109.553157 
L 212.208966 109.587525 
L 212.587745 109.291689 
L 212.723023 109.172489 
L 213.088275 108.887828 
L 213.521166 108.58789 
L 213.615861 108.480872 
L 213.642916 108.499177 
L 213.669972 108.405448 
L 213.724083 108.446086 
L 213.832306 108.317537 
L 213.859362 108.34296 
L 220.258028 103.61457 
L 220.271556 103.646137 
L 220.31214 103.555212 
L 220.352723 103.57048 
L 220.501529 103.44958 
L 221.096754 103.005201 
L 221.421422 102.795561 
L 221.43495 102.813013 
L 221.462006 102.744689 
L 221.502589 102.745584 
L 222.990651 101.666675 
L 223.004179 101.69792 
L 223.05829 101.61584 
L 223.085346 101.627885 
L 223.261208 101.441421 
L 223.288264 101.470878 
L 223.396486 101.388448 
L 223.639987 101.213055 
L 223.734682 101.188666 
L 223.910544 100.997733 
L 224.032295 100.969526 
L 224.181101 100.850873 
L 224.492241 100.596933 
L 224.505769 100.612493 
L 224.519297 100.63434 
L 224.55988 100.563166 
L 224.600464 100.565107 
L 224.74927 100.482005 
L 224.925132 100.297935 
L 225.033355 100.270217 
L 225.222744 100.111932 
L 225.330967 100.074221 
L 225.479773 99.935225 
L 225.615052 99.869368 
L 225.723274 99.758234 
L 225.75033 99.76856 
L 225.845025 99.703018 
L 225.993831 99.553966 
L 226.115581 99.538736 
L 226.291443 99.35313 
L 226.399666 99.327261 
L 226.616111 99.179155 
L 227.860672 98.331936 
L 227.955367 98.237506 
L 227.982423 98.248938 
L 228.577648 97.846813 
L 228.726454 97.727952 
L 229.943959 96.931771 
L 230.092765 96.81786 
L 232.121941 95.480212 
L 232.284275 95.362986 
L 232.338386 95.313131 
L 232.392498 95.322545 
L 232.554832 95.165656 
L 232.568359 95.175459 
L 232.757749 95.066851 
L 233.095945 94.845795 
L 233.177112 94.811431 
L 233.123001 94.811915 
L 233.19064 94.784004 
L 233.650586 94.472821 
L 233.758809 94.432715 
L 233.934671 94.288375 
L 234.421673 93.989171 
L 234.584007 93.865144 
L 234.786925 93.744675 
L 235.098065 93.539545 
L 235.273927 93.453201 
L 235.422733 93.34166 
L 236.937851 92.388193 
L 237.086657 92.283508 
L 237.478964 92.029829 
L 237.587187 91.974921 
L 237.749521 91.862755 
L 238.060661 91.675723 
L 238.858803 91.173308 
L 239.021137 91.083997 
L 239.224055 90.953784 
L 239.589307 90.72061 
L 239.765168 90.607473 
L 239.981614 90.456127 
L 240.116892 90.394136 
L 240.292754 90.277163 
L 240.455088 90.187917 
L 255.606265 81.362189 
L 256.864354 80.787311 
L 257.878941 80.787377 
L 264.237024 80.78882 
L 265.048695 80.789874 
L 266.672035 80.788875 
L 267.713678 80.788543 
L 268.498293 80.788925 
L 269.945771 80.789576 
L 274.748153 80.788652 
L 275.898019 80.787487 
L 276.547356 80.788872 
L 277.386081 80.788649 
L 280.281038 80.790822 
L 280.83568 80.787879 
L 281.64735 80.790944 
L 282.188463 80.788099 
L 288.39774 80.78882 
L 289.155299 80.789861 
L 289.466439 80.787927 
L 290.129303 80.789672 
L 291.52267 80.788337 
L 292.794287 80.789902 
L 293.240706 80.790919 
L 293.795347 80.787746 
L 294.552906 80.790152 
L 295.039908 80.787122 
L 295.743355 80.78939 
L 296.582081 80.787825 
L 297.258473 80.789428 
L 298.53009 80.790161 
L 299.301176 80.785779 
L 299.950512 80.790714 
L 300.626904 80.789101 
L 301.384463 80.789341 
L 301.979688 80.788616 
L 305.483398 80.788743 
L 306.349179 80.789378 
L 307.566684 80.789702 
L 308.28366 80.787173 
L 309.230608 80.789022 
L 309.974639 80.788433 
L 311.368006 80.790184 
L 312.017343 80.78748 
L 327.953134 80.78912 
L 328.588942 80.791036 
L 329.197695 80.789598 
L 335.799279 80.789183 
L 336.502726 80.789523 
L 337.04384 80.789493 
L 340.818106 80.790764 
L 341.345692 80.78799 
L 341.940917 80.791006 
L 342.955504 80.790554 
L 348.001387 80.788756 
L 348.853641 80.790481 
L 351.572736 80.788388 
L 352.276184 80.789468 
L 353.601912 80.790441 
L 354.021275 80.789347 
L 355.23878 80.791679 
L 355.644615 80.78898 
L 356.469813 80.787989 
L 357.065038 80.789925 
L 357.565568 80.789848 
L 363.193148 80.789456 
L 363.8019 80.78856 
L 364.735321 80.789139 
L 365.506408 80.78866 
L 367.007997 80.789784 
L 367.359721 80.787601 
L 370.254678 80.789359 
L 370.985181 80.787901 
L 374.028945 80.788963 
L 375.002949 80.790954 
L 376.112231 80.787399 
L 376.734512 80.789207 
L 377.478543 80.787383 
L 378.033184 80.790629 
L 378.533714 80.7896 
L 388.557841 80.789087 
L 389.24776 80.788784 
L 390.167653 80.78868 
L 391.723355 80.788827 
L 392.602664 80.786452 
L 393.549612 80.789722 
L 394.131309 80.785683 
L 394.685951 80.789091 
L 395.416454 80.787835 
L 396.661015 80.789769 
L 397.148017 80.788218 
L 397.743242 80.790329 
L 398.487273 80.789313 
L 398.487273 80.789313 
" style="fill:none;stroke:#d62728;stroke-linecap:square;stroke-width:1.5;"/>
   </g>
   <g id="line2d_17">
    <path clip-path="url(#pef5e18ea6a)" d="M 73.832727 82.254423 
L 398.487273 82.254423 
L 398.487273 82.254423 
" style="fill:none;stroke:#9467bd;stroke-linecap:square;stroke-width:1.5;"/>
   </g>
   <g id="patch_3">
    <path d="M 57.6 307.584 
L 57.6 41.472 
" style="fill:none;stroke:#000000;stroke-linecap:square;stroke-linejoin:miter;stroke-width:0.8;"/>
   </g>
   <g id="patch_4">
    <path d="M 414.72 307.584 
L 414.72 41.472 
" style="fill:none;stroke:#000000;stroke-linecap:square;stroke-linejoin:miter;stroke-width:0.8;"/>
   </g>
   <g id="patch_5">
    <path d="M 57.6 307.584 
L 414.72 307.584 
" style="fill:none;stroke:#000000;stroke-linecap:square;stroke-linejoin:miter;stroke-width:0.8;"/>
   </g>
   <g id="patch_6">
    <path d="M 57.6 41.472 
L 414.72 41.472 
" style="fill:none;stroke:#000000;stroke-linecap:square;stroke-linejoin:miter;stroke-width:0.8;"/>
   </g>
   <g id="legend_1">
    <g id="patch_7">
     <path d="M 356.516875 302.584 
L 407.72 302.584 
Q 409.72 302.584 409.72 300.584 
L 409.72 228.193375 
Q 409.72 226.193375 407.72 226.193375 
L 356.516875 226.193375 
Q 354.516875 226.193375 354.516875 228.193375 
L 354.516875 300.584 
Q 354.516875 302.584 356.516875 302.584 
z
" style="fill:#ffffff;opacity:0.8;stroke:#cccccc;stroke-linejoin:miter;"/>
    </g>
    <g id="line2d_18">
     <path d="M 358.516875 234.291812 
L 378.516875 234.291812 
" style="fill:none;stroke:#1f77b4;stroke-linecap:square;stroke-width:1.5;"/>
    </g>
    <g id="line2d_19"/>
    <g id="text_16">
     <!-- T+ -->
     <defs>
      <path d="M 46 62.703125 
L 46 35.5 
L 73.1875 35.5 
L 73.1875 27.203125 
L 46 27.203125 
L 46 0 
L 37.796875 0 
L 37.796875 27.203125 
L 10.59375 27.203125 
L 10.59375 35.5 
L 37.796875 35.5 
L 37.796875 62.703125 
z
" id="DejaVuSans-43"/>
     </defs>
     <g transform="translate(386.516875 237.791812)scale(0.1 -0.1)">
      <use xlink:href="#DejaVuSans-84"/>
      <use x="61.083984" xlink:href="#DejaVuSans-43"/>
     </g>
    </g>
    <g id="line2d_20">
     <path d="M 358.516875 248.969937 
L 378.516875 248.969937 
" style="fill:none;stroke:#ff7f0e;stroke-linecap:square;stroke-width:1.5;"/>
    </g>
    <g id="line2d_21"/>
    <g id="text_17">
     <!-- Tp -->
     <defs>
      <path d="M 18.109375 8.203125 
L 18.109375 -20.796875 
L 9.078125 -20.796875 
L 9.078125 54.6875 
L 18.109375 54.6875 
L 18.109375 46.390625 
Q 20.953125 51.265625 25.265625 53.625 
Q 29.59375 56 35.59375 56 
Q 45.5625 56 51.78125 48.09375 
Q 58.015625 40.1875 58.015625 27.296875 
Q 58.015625 14.40625 51.78125 6.484375 
Q 45.5625 -1.421875 35.59375 -1.421875 
Q 29.59375 -1.421875 25.265625 0.953125 
Q 20.953125 3.328125 18.109375 8.203125 
z
M 48.6875 27.296875 
Q 48.6875 37.203125 44.609375 42.84375 
Q 40.53125 48.484375 33.40625 48.484375 
Q 26.265625 48.484375 22.1875 42.84375 
Q 18.109375 37.203125 18.109375 27.296875 
Q 18.109375 17.390625 22.1875 11.75 
Q 26.265625 6.109375 33.40625 6.109375 
Q 40.53125 6.109375 44.609375 11.75 
Q 48.6875 17.390625 48.6875 27.296875 
z
" id="DejaVuSans-112"/>
     </defs>
     <g transform="translate(386.516875 252.469937)scale(0.1 -0.1)">
      <use xlink:href="#DejaVuSans-84"/>
      <use x="61.083984" xlink:href="#DejaVuSans-112"/>
     </g>
    </g>
    <g id="line2d_22">
     <path d="M 358.516875 263.648062 
L 378.516875 263.648062 
" style="fill:none;stroke:#2ca02c;stroke-linecap:square;stroke-width:1.5;"/>
    </g>
    <g id="line2d_23"/>
    <g id="text_18">
     <!-- T- -->
     <defs>
      <path d="M 4.890625 31.390625 
L 31.203125 31.390625 
L 31.203125 23.390625 
L 4.890625 23.390625 
z
" id="DejaVuSans-45"/>
     </defs>
     <g transform="translate(386.516875 267.148062)scale(0.1 -0.1)">
      <use xlink:href="#DejaVuSans-84"/>
      <use x="51.958984" xlink:href="#DejaVuSans-45"/>
     </g>
    </g>
    <g id="line2d_24">
     <path d="M 358.516875 278.326188 
L 378.516875 278.326188 
" style="fill:none;stroke:#d62728;stroke-linecap:square;stroke-width:1.5;"/>
    </g>
    <g id="line2d_25"/>
    <g id="text_19">
     <!-- O2 -->
     <defs>
      <path d="M 39.40625 66.21875 
Q 28.65625 66.21875 22.328125 58.203125 
Q 16.015625 50.203125 16.015625 36.375 
Q 16.015625 22.609375 22.328125 14.59375 
Q 28.65625 6.59375 39.40625 6.59375 
Q 50.140625 6.59375 56.421875 14.59375 
Q 62.703125 22.609375 62.703125 36.375 
Q 62.703125 50.203125 56.421875 58.203125 
Q 50.140625 66.21875 39.40625 66.21875 
z
M 39.40625 74.21875 
Q 54.734375 74.21875 63.90625 63.9375 
Q 73.09375 53.65625 73.09375 36.375 
Q 73.09375 19.140625 63.90625 8.859375 
Q 54.734375 -1.421875 39.40625 -1.421875 
Q 24.03125 -1.421875 14.8125 8.828125 
Q 5.609375 19.09375 5.609375 36.375 
Q 5.609375 53.65625 14.8125 63.9375 
Q 24.03125 74.21875 39.40625 74.21875 
z
" id="DejaVuSans-79"/>
     </defs>
     <g transform="translate(386.516875 281.826188)scale(0.1 -0.1)">
      <use xlink:href="#DejaVuSans-79"/>
      <use x="78.710938" xlink:href="#DejaVuSans-50"/>
     </g>
    </g>
    <g id="line2d_26">
     <path d="M 358.516875 293.004312 
L 378.516875 293.004312 
" style="fill:none;stroke:#9467bd;stroke-linecap:square;stroke-width:1.5;"/>
    </g>
    <g id="line2d_27"/>
    <g id="text_20">
     <!-- test -->
     <g transform="translate(386.516875 296.504312)scale(0.1 -0.1)">
      <use xlink:href="#DejaVuSans-116"/>
      <use x="39.208984" xlink:href="#DejaVuSans-101"/>
      <use x="100.732422" xlink:href="#DejaVuSans-115"/>
      <use x="152.832031" xlink:href="#DejaVuSans-116"/>
     </g>
    </g>
   </g>
  </g>
 </g>
 <defs>
  <clipPath id="pef5e18ea6a">
   <rect height="266.112" width="357.12" x="57.6" y="41.472"/>
  </clipPath>
 </defs>
</svg>
