<?xml version="1.0" encoding="utf-8" standalone="no"?>
<!DOCTYPE svg PUBLIC "-//W3C//DTD SVG 1.1//EN"
  "http://www.w3.org/Graphics/SVG/1.1/DTD/svg11.dtd">
<!-- Created with matplotlib (https://matplotlib.org/) -->
<svg height="345.6pt" version="1.1" viewBox="0 0 460.8 345.6" width="460.8pt" xmlns="http://www.w3.org/2000/svg" xmlns:xlink="http://www.w3.org/1999/xlink">
 <metadata>
  <rdf:RDF xmlns:cc="http://creativecommons.org/ns#" xmlns:dc="http://purl.org/dc/elements/1.1/" xmlns:rdf="http://www.w3.org/1999/02/22-rdf-syntax-ns#">
   <cc:Work>
    <dc:type rdf:resource="http://purl.org/dc/dcmitype/StillImage"/>
    <dc:date>2020-12-02T19:55:37.448201</dc:date>
    <dc:format>image/svg+xml</dc:format>
    <dc:creator>
     <cc:Agent>
      <dc:title>Matplotlib v3.3.2, https://matplotlib.org/</dc:title>
     </cc:Agent>
    </dc:creator>
   </cc:Work>
  </rdf:RDF>
 </metadata>
 <defs>
  <style type="text/css">*{stroke-linecap:butt;stroke-linejoin:round;}</style>
 </defs>
 <g id="figure_1">
  <g id="patch_1">
   <path d="M 0 345.6 
L 460.8 345.6 
L 460.8 0 
L 0 0 
z
" style="fill:#ffffff;"/>
  </g>
  <g id="axes_1">
   <g id="patch_2">
    <path d="M 57.17 303.53875 
L 413.08 303.53875 
L 413.08 10.8 
L 57.17 10.8 
z
" style="fill:#ffffff;"/>
   </g>
   <g id="matplotlib.axis_1">
    <g id="xtick_1">
     <g id="line2d_1">
      <defs>
       <path d="M 0 0 
L 0 3.5 
" id="mf138fcffef" style="stroke:#000000;stroke-width:0.8;"/>
      </defs>
      <g>
       <use style="stroke:#000000;stroke-width:0.8;" x="72.321312" xlink:href="#mf138fcffef" y="303.53875"/>
      </g>
     </g>
     <g id="text_1">
      <!-- 0.0 -->
      <g transform="translate(64.36975 318.137187)scale(0.1 -0.1)">
       <defs>
        <path d="M 31.78125 66.40625 
Q 24.171875 66.40625 20.328125 58.90625 
Q 16.5 51.421875 16.5 36.375 
Q 16.5 21.390625 20.328125 13.890625 
Q 24.171875 6.390625 31.78125 6.390625 
Q 39.453125 6.390625 43.28125 13.890625 
Q 47.125 21.390625 47.125 36.375 
Q 47.125 51.421875 43.28125 58.90625 
Q 39.453125 66.40625 31.78125 66.40625 
z
M 31.78125 74.21875 
Q 44.046875 74.21875 50.515625 64.515625 
Q 56.984375 54.828125 56.984375 36.375 
Q 56.984375 17.96875 50.515625 8.265625 
Q 44.046875 -1.421875 31.78125 -1.421875 
Q 19.53125 -1.421875 13.0625 8.265625 
Q 6.59375 17.96875 6.59375 36.375 
Q 6.59375 54.828125 13.0625 64.515625 
Q 19.53125 74.21875 31.78125 74.21875 
z
" id="DejaVuSans-48"/>
        <path d="M 10.6875 12.40625 
L 21 12.40625 
L 21 0 
L 10.6875 0 
z
" id="DejaVuSans-46"/>
       </defs>
       <use xlink:href="#DejaVuSans-48"/>
       <use x="63.623047" xlink:href="#DejaVuSans-46"/>
       <use x="95.410156" xlink:href="#DejaVuSans-48"/>
      </g>
     </g>
    </g>
    <g id="xtick_2">
     <g id="line2d_2">
      <g>
       <use style="stroke:#000000;stroke-width:0.8;" x="137.237504" xlink:href="#mf138fcffef" y="303.53875"/>
      </g>
     </g>
     <g id="text_2">
      <!-- 0.2 -->
      <g transform="translate(129.285942 318.137187)scale(0.1 -0.1)">
       <defs>
        <path d="M 19.1875 8.296875 
L 53.609375 8.296875 
L 53.609375 0 
L 7.328125 0 
L 7.328125 8.296875 
Q 12.9375 14.109375 22.625 23.890625 
Q 32.328125 33.6875 34.8125 36.53125 
Q 39.546875 41.84375 41.421875 45.53125 
Q 43.3125 49.21875 43.3125 52.78125 
Q 43.3125 58.59375 39.234375 62.25 
Q 35.15625 65.921875 28.609375 65.921875 
Q 23.96875 65.921875 18.8125 64.3125 
Q 13.671875 62.703125 7.8125 59.421875 
L 7.8125 69.390625 
Q 13.765625 71.78125 18.9375 73 
Q 24.125 74.21875 28.421875 74.21875 
Q 39.75 74.21875 46.484375 68.546875 
Q 53.21875 62.890625 53.21875 53.421875 
Q 53.21875 48.921875 51.53125 44.890625 
Q 49.859375 40.875 45.40625 35.40625 
Q 44.1875 33.984375 37.640625 27.21875 
Q 31.109375 20.453125 19.1875 8.296875 
z
" id="DejaVuSans-50"/>
       </defs>
       <use xlink:href="#DejaVuSans-48"/>
       <use x="63.623047" xlink:href="#DejaVuSans-46"/>
       <use x="95.410156" xlink:href="#DejaVuSans-50"/>
      </g>
     </g>
    </g>
    <g id="xtick_3">
     <g id="line2d_3">
      <g>
       <use style="stroke:#000000;stroke-width:0.8;" x="202.153696" xlink:href="#mf138fcffef" y="303.53875"/>
      </g>
     </g>
     <g id="text_3">
      <!-- 0.4 -->
      <g transform="translate(194.202134 318.137187)scale(0.1 -0.1)">
       <defs>
        <path d="M 37.796875 64.3125 
L 12.890625 25.390625 
L 37.796875 25.390625 
z
M 35.203125 72.90625 
L 47.609375 72.90625 
L 47.609375 25.390625 
L 58.015625 25.390625 
L 58.015625 17.1875 
L 47.609375 17.1875 
L 47.609375 0 
L 37.796875 0 
L 37.796875 17.1875 
L 4.890625 17.1875 
L 4.890625 26.703125 
z
" id="DejaVuSans-52"/>
       </defs>
       <use xlink:href="#DejaVuSans-48"/>
       <use x="63.623047" xlink:href="#DejaVuSans-46"/>
       <use x="95.410156" xlink:href="#DejaVuSans-52"/>
      </g>
     </g>
    </g>
    <g id="xtick_4">
     <g id="line2d_4">
      <g>
       <use style="stroke:#000000;stroke-width:0.8;" x="267.069888" xlink:href="#mf138fcffef" y="303.53875"/>
      </g>
     </g>
     <g id="text_4">
      <!-- 0.6 -->
      <g transform="translate(259.118326 318.137187)scale(0.1 -0.1)">
       <defs>
        <path d="M 33.015625 40.375 
Q 26.375 40.375 22.484375 35.828125 
Q 18.609375 31.296875 18.609375 23.390625 
Q 18.609375 15.53125 22.484375 10.953125 
Q 26.375 6.390625 33.015625 6.390625 
Q 39.65625 6.390625 43.53125 10.953125 
Q 47.40625 15.53125 47.40625 23.390625 
Q 47.40625 31.296875 43.53125 35.828125 
Q 39.65625 40.375 33.015625 40.375 
z
M 52.59375 71.296875 
L 52.59375 62.3125 
Q 48.875 64.0625 45.09375 64.984375 
Q 41.3125 65.921875 37.59375 65.921875 
Q 27.828125 65.921875 22.671875 59.328125 
Q 17.53125 52.734375 16.796875 39.40625 
Q 19.671875 43.65625 24.015625 45.921875 
Q 28.375 48.1875 33.59375 48.1875 
Q 44.578125 48.1875 50.953125 41.515625 
Q 57.328125 34.859375 57.328125 23.390625 
Q 57.328125 12.15625 50.6875 5.359375 
Q 44.046875 -1.421875 33.015625 -1.421875 
Q 20.359375 -1.421875 13.671875 8.265625 
Q 6.984375 17.96875 6.984375 36.375 
Q 6.984375 53.65625 15.1875 63.9375 
Q 23.390625 74.21875 37.203125 74.21875 
Q 40.921875 74.21875 44.703125 73.484375 
Q 48.484375 72.75 52.59375 71.296875 
z
" id="DejaVuSans-54"/>
       </defs>
       <use xlink:href="#DejaVuSans-48"/>
       <use x="63.623047" xlink:href="#DejaVuSans-46"/>
       <use x="95.410156" xlink:href="#DejaVuSans-54"/>
      </g>
     </g>
    </g>
    <g id="xtick_5">
     <g id="line2d_5">
      <g>
       <use style="stroke:#000000;stroke-width:0.8;" x="331.986081" xlink:href="#mf138fcffef" y="303.53875"/>
      </g>
     </g>
     <g id="text_5">
      <!-- 0.8 -->
      <g transform="translate(324.034518 318.137187)scale(0.1 -0.1)">
       <defs>
        <path d="M 31.78125 34.625 
Q 24.75 34.625 20.71875 30.859375 
Q 16.703125 27.09375 16.703125 20.515625 
Q 16.703125 13.921875 20.71875 10.15625 
Q 24.75 6.390625 31.78125 6.390625 
Q 38.8125 6.390625 42.859375 10.171875 
Q 46.921875 13.96875 46.921875 20.515625 
Q 46.921875 27.09375 42.890625 30.859375 
Q 38.875 34.625 31.78125 34.625 
z
M 21.921875 38.8125 
Q 15.578125 40.375 12.03125 44.71875 
Q 8.5 49.078125 8.5 55.328125 
Q 8.5 64.0625 14.71875 69.140625 
Q 20.953125 74.21875 31.78125 74.21875 
Q 42.671875 74.21875 48.875 69.140625 
Q 55.078125 64.0625 55.078125 55.328125 
Q 55.078125 49.078125 51.53125 44.71875 
Q 48 40.375 41.703125 38.8125 
Q 48.828125 37.15625 52.796875 32.3125 
Q 56.78125 27.484375 56.78125 20.515625 
Q 56.78125 9.90625 50.3125 4.234375 
Q 43.84375 -1.421875 31.78125 -1.421875 
Q 19.734375 -1.421875 13.25 4.234375 
Q 6.78125 9.90625 6.78125 20.515625 
Q 6.78125 27.484375 10.78125 32.3125 
Q 14.796875 37.15625 21.921875 38.8125 
z
M 18.3125 54.390625 
Q 18.3125 48.734375 21.84375 45.5625 
Q 25.390625 42.390625 31.78125 42.390625 
Q 38.140625 42.390625 41.71875 45.5625 
Q 45.3125 48.734375 45.3125 54.390625 
Q 45.3125 60.0625 41.71875 63.234375 
Q 38.140625 66.40625 31.78125 66.40625 
Q 25.390625 66.40625 21.84375 63.234375 
Q 18.3125 60.0625 18.3125 54.390625 
z
" id="DejaVuSans-56"/>
       </defs>
       <use xlink:href="#DejaVuSans-48"/>
       <use x="63.623047" xlink:href="#DejaVuSans-46"/>
       <use x="95.410156" xlink:href="#DejaVuSans-56"/>
      </g>
     </g>
    </g>
    <g id="xtick_6">
     <g id="line2d_6">
      <g>
       <use style="stroke:#000000;stroke-width:0.8;" x="396.902273" xlink:href="#mf138fcffef" y="303.53875"/>
      </g>
     </g>
     <g id="text_6">
      <!-- 1.0 -->
      <g transform="translate(388.95071 318.137187)scale(0.1 -0.1)">
       <defs>
        <path d="M 12.40625 8.296875 
L 28.515625 8.296875 
L 28.515625 63.921875 
L 10.984375 60.40625 
L 10.984375 69.390625 
L 28.421875 72.90625 
L 38.28125 72.90625 
L 38.28125 8.296875 
L 54.390625 8.296875 
L 54.390625 0 
L 12.40625 0 
z
" id="DejaVuSans-49"/>
       </defs>
       <use xlink:href="#DejaVuSans-49"/>
       <use x="63.623047" xlink:href="#DejaVuSans-46"/>
       <use x="95.410156" xlink:href="#DejaVuSans-48"/>
      </g>
     </g>
    </g>
    <g id="text_7">
     <!-- rho_Tpro -->
     <g transform="translate(213.198438 331.815312)scale(0.1 -0.1)">
      <defs>
       <path d="M 41.109375 46.296875 
Q 39.59375 47.171875 37.8125 47.578125 
Q 36.03125 48 33.890625 48 
Q 26.265625 48 22.1875 43.046875 
Q 18.109375 38.09375 18.109375 28.8125 
L 18.109375 0 
L 9.078125 0 
L 9.078125 54.6875 
L 18.109375 54.6875 
L 18.109375 46.1875 
Q 20.953125 51.171875 25.484375 53.578125 
Q 30.03125 56 36.53125 56 
Q 37.453125 56 38.578125 55.875 
Q 39.703125 55.765625 41.0625 55.515625 
z
" id="DejaVuSans-114"/>
       <path d="M 54.890625 33.015625 
L 54.890625 0 
L 45.90625 0 
L 45.90625 32.71875 
Q 45.90625 40.484375 42.875 44.328125 
Q 39.84375 48.1875 33.796875 48.1875 
Q 26.515625 48.1875 22.3125 43.546875 
Q 18.109375 38.921875 18.109375 30.90625 
L 18.109375 0 
L 9.078125 0 
L 9.078125 75.984375 
L 18.109375 75.984375 
L 18.109375 46.1875 
Q 21.34375 51.125 25.703125 53.5625 
Q 30.078125 56 35.796875 56 
Q 45.21875 56 50.046875 50.171875 
Q 54.890625 44.34375 54.890625 33.015625 
z
" id="DejaVuSans-104"/>
       <path d="M 30.609375 48.390625 
Q 23.390625 48.390625 19.1875 42.75 
Q 14.984375 37.109375 14.984375 27.296875 
Q 14.984375 17.484375 19.15625 11.84375 
Q 23.34375 6.203125 30.609375 6.203125 
Q 37.796875 6.203125 41.984375 11.859375 
Q 46.1875 17.53125 46.1875 27.296875 
Q 46.1875 37.015625 41.984375 42.703125 
Q 37.796875 48.390625 30.609375 48.390625 
z
M 30.609375 56 
Q 42.328125 56 49.015625 48.375 
Q 55.71875 40.765625 55.71875 27.296875 
Q 55.71875 13.875 49.015625 6.21875 
Q 42.328125 -1.421875 30.609375 -1.421875 
Q 18.84375 -1.421875 12.171875 6.21875 
Q 5.515625 13.875 5.515625 27.296875 
Q 5.515625 40.765625 12.171875 48.375 
Q 18.84375 56 30.609375 56 
z
" id="DejaVuSans-111"/>
       <path d="M 50.984375 -16.609375 
L 50.984375 -23.578125 
L -0.984375 -23.578125 
L -0.984375 -16.609375 
z
" id="DejaVuSans-95"/>
       <path d="M -0.296875 72.90625 
L 61.375 72.90625 
L 61.375 64.59375 
L 35.5 64.59375 
L 35.5 0 
L 25.59375 0 
L 25.59375 64.59375 
L -0.296875 64.59375 
z
" id="DejaVuSans-84"/>
       <path d="M 18.109375 8.203125 
L 18.109375 -20.796875 
L 9.078125 -20.796875 
L 9.078125 54.6875 
L 18.109375 54.6875 
L 18.109375 46.390625 
Q 20.953125 51.265625 25.265625 53.625 
Q 29.59375 56 35.59375 56 
Q 45.5625 56 51.78125 48.09375 
Q 58.015625 40.1875 58.015625 27.296875 
Q 58.015625 14.40625 51.78125 6.484375 
Q 45.5625 -1.421875 35.59375 -1.421875 
Q 29.59375 -1.421875 25.265625 0.953125 
Q 20.953125 3.328125 18.109375 8.203125 
z
M 48.6875 27.296875 
Q 48.6875 37.203125 44.609375 42.84375 
Q 40.53125 48.484375 33.40625 48.484375 
Q 26.265625 48.484375 22.1875 42.84375 
Q 18.109375 37.203125 18.109375 27.296875 
Q 18.109375 17.390625 22.1875 11.75 
Q 26.265625 6.109375 33.40625 6.109375 
Q 40.53125 6.109375 44.609375 11.75 
Q 48.6875 17.390625 48.6875 27.296875 
z
" id="DejaVuSans-112"/>
      </defs>
      <use xlink:href="#DejaVuSans-114"/>
      <use x="39.363281" xlink:href="#DejaVuSans-104"/>
      <use x="102.742188" xlink:href="#DejaVuSans-111"/>
      <use x="163.923828" xlink:href="#DejaVuSans-95"/>
      <use x="213.923828" xlink:href="#DejaVuSans-84"/>
      <use x="275.007812" xlink:href="#DejaVuSans-112"/>
      <use x="338.484375" xlink:href="#DejaVuSans-114"/>
      <use x="377.347656" xlink:href="#DejaVuSans-111"/>
     </g>
    </g>
    <g id="text_8">
     <!-- 1e6 -->
     <g transform="translate(394.201875 330.815312)scale(0.1 -0.1)">
      <defs>
       <path d="M 56.203125 29.59375 
L 56.203125 25.203125 
L 14.890625 25.203125 
Q 15.484375 15.921875 20.484375 11.0625 
Q 25.484375 6.203125 34.421875 6.203125 
Q 39.59375 6.203125 44.453125 7.46875 
Q 49.3125 8.734375 54.109375 11.28125 
L 54.109375 2.78125 
Q 49.265625 0.734375 44.1875 -0.34375 
Q 39.109375 -1.421875 33.890625 -1.421875 
Q 20.796875 -1.421875 13.15625 6.1875 
Q 5.515625 13.8125 5.515625 26.8125 
Q 5.515625 40.234375 12.765625 48.109375 
Q 20.015625 56 32.328125 56 
Q 43.359375 56 49.78125 48.890625 
Q 56.203125 41.796875 56.203125 29.59375 
z
M 47.21875 32.234375 
Q 47.125 39.59375 43.09375 43.984375 
Q 39.0625 48.390625 32.421875 48.390625 
Q 24.90625 48.390625 20.390625 44.140625 
Q 15.875 39.890625 15.1875 32.171875 
z
" id="DejaVuSans-101"/>
      </defs>
      <use xlink:href="#DejaVuSans-49"/>
      <use x="63.623047" xlink:href="#DejaVuSans-101"/>
      <use x="125.146484" xlink:href="#DejaVuSans-54"/>
     </g>
    </g>
   </g>
   <g id="matplotlib.axis_2">
    <g id="ytick_1">
     <g id="line2d_7">
      <defs>
       <path d="M 0 0 
L -3.5 0 
" id="mfd2aa10084" style="stroke:#000000;stroke-width:0.8;"/>
      </defs>
      <g>
       <use style="stroke:#000000;stroke-width:0.8;" x="57.17" xlink:href="#mfd2aa10084" y="290.25112"/>
      </g>
     </g>
     <g id="text_9">
      <!-- 0 -->
      <g style="fill:#d62728;" transform="translate(43.8075 294.050339)scale(0.1 -0.1)">
       <use xlink:href="#DejaVuSans-48"/>
      </g>
     </g>
    </g>
    <g id="ytick_2">
     <g id="line2d_8">
      <g>
       <use style="stroke:#000000;stroke-width:0.8;" x="57.17" xlink:href="#mfd2aa10084" y="254.973438"/>
      </g>
     </g>
     <g id="text_10">
      <!-- 200 -->
      <g style="fill:#d62728;" transform="translate(31.0825 258.772657)scale(0.1 -0.1)">
       <use xlink:href="#DejaVuSans-50"/>
       <use x="63.623047" xlink:href="#DejaVuSans-48"/>
       <use x="127.246094" xlink:href="#DejaVuSans-48"/>
      </g>
     </g>
    </g>
    <g id="ytick_3">
     <g id="line2d_9">
      <g>
       <use style="stroke:#000000;stroke-width:0.8;" x="57.17" xlink:href="#mfd2aa10084" y="219.695755"/>
      </g>
     </g>
     <g id="text_11">
      <!-- 400 -->
      <g style="fill:#d62728;" transform="translate(31.0825 223.494974)scale(0.1 -0.1)">
       <use xlink:href="#DejaVuSans-52"/>
       <use x="63.623047" xlink:href="#DejaVuSans-48"/>
       <use x="127.246094" xlink:href="#DejaVuSans-48"/>
      </g>
     </g>
    </g>
    <g id="ytick_4">
     <g id="line2d_10">
      <g>
       <use style="stroke:#000000;stroke-width:0.8;" x="57.17" xlink:href="#mfd2aa10084" y="184.418073"/>
      </g>
     </g>
     <g id="text_12">
      <!-- 600 -->
      <g style="fill:#d62728;" transform="translate(31.0825 188.217292)scale(0.1 -0.1)">
       <use xlink:href="#DejaVuSans-54"/>
       <use x="63.623047" xlink:href="#DejaVuSans-48"/>
       <use x="127.246094" xlink:href="#DejaVuSans-48"/>
      </g>
     </g>
    </g>
    <g id="ytick_5">
     <g id="line2d_11">
      <g>
       <use style="stroke:#000000;stroke-width:0.8;" x="57.17" xlink:href="#mfd2aa10084" y="149.140391"/>
      </g>
     </g>
     <g id="text_13">
      <!-- 800 -->
      <g style="fill:#d62728;" transform="translate(31.0825 152.93961)scale(0.1 -0.1)">
       <use xlink:href="#DejaVuSans-56"/>
       <use x="63.623047" xlink:href="#DejaVuSans-48"/>
       <use x="127.246094" xlink:href="#DejaVuSans-48"/>
      </g>
     </g>
    </g>
    <g id="ytick_6">
     <g id="line2d_12">
      <g>
       <use style="stroke:#000000;stroke-width:0.8;" x="57.17" xlink:href="#mfd2aa10084" y="113.862709"/>
      </g>
     </g>
     <g id="text_14">
      <!-- 1000 -->
      <g style="fill:#d62728;" transform="translate(24.72 117.661927)scale(0.1 -0.1)">
       <use xlink:href="#DejaVuSans-49"/>
       <use x="63.623047" xlink:href="#DejaVuSans-48"/>
       <use x="127.246094" xlink:href="#DejaVuSans-48"/>
       <use x="190.869141" xlink:href="#DejaVuSans-48"/>
      </g>
     </g>
    </g>
    <g id="ytick_7">
     <g id="line2d_13">
      <g>
       <use style="stroke:#000000;stroke-width:0.8;" x="57.17" xlink:href="#mfd2aa10084" y="78.585026"/>
      </g>
     </g>
     <g id="text_15">
      <!-- 1200 -->
      <g style="fill:#d62728;" transform="translate(24.72 82.384245)scale(0.1 -0.1)">
       <use xlink:href="#DejaVuSans-49"/>
       <use x="63.623047" xlink:href="#DejaVuSans-50"/>
       <use x="127.246094" xlink:href="#DejaVuSans-48"/>
       <use x="190.869141" xlink:href="#DejaVuSans-48"/>
      </g>
     </g>
    </g>
    <g id="ytick_8">
     <g id="line2d_14">
      <g>
       <use style="stroke:#000000;stroke-width:0.8;" x="57.17" xlink:href="#mfd2aa10084" y="43.307344"/>
      </g>
     </g>
     <g id="text_16">
      <!-- 1400 -->
      <g style="fill:#d62728;" transform="translate(24.72 47.106563)scale(0.1 -0.1)">
       <use xlink:href="#DejaVuSans-49"/>
       <use x="63.623047" xlink:href="#DejaVuSans-52"/>
       <use x="127.246094" xlink:href="#DejaVuSans-48"/>
       <use x="190.869141" xlink:href="#DejaVuSans-48"/>
      </g>
     </g>
    </g>
    <g id="text_17">
     <!-- Cell Eq -->
     <g style="fill:#d62728;" transform="translate(18.640312 174.438125)rotate(-90)scale(0.1 -0.1)">
      <defs>
       <path d="M 64.40625 67.28125 
L 64.40625 56.890625 
Q 59.421875 61.53125 53.78125 63.8125 
Q 48.140625 66.109375 41.796875 66.109375 
Q 29.296875 66.109375 22.65625 58.46875 
Q 16.015625 50.828125 16.015625 36.375 
Q 16.015625 21.96875 22.65625 14.328125 
Q 29.296875 6.6875 41.796875 6.6875 
Q 48.140625 6.6875 53.78125 8.984375 
Q 59.421875 11.28125 64.40625 15.921875 
L 64.40625 5.609375 
Q 59.234375 2.09375 53.4375 0.328125 
Q 47.65625 -1.421875 41.21875 -1.421875 
Q 24.65625 -1.421875 15.125 8.703125 
Q 5.609375 18.84375 5.609375 36.375 
Q 5.609375 53.953125 15.125 64.078125 
Q 24.65625 74.21875 41.21875 74.21875 
Q 47.75 74.21875 53.53125 72.484375 
Q 59.328125 70.75 64.40625 67.28125 
z
" id="DejaVuSans-67"/>
       <path d="M 9.421875 75.984375 
L 18.40625 75.984375 
L 18.40625 0 
L 9.421875 0 
z
" id="DejaVuSans-108"/>
       <path id="DejaVuSans-32"/>
       <path d="M 9.8125 72.90625 
L 55.90625 72.90625 
L 55.90625 64.59375 
L 19.671875 64.59375 
L 19.671875 43.015625 
L 54.390625 43.015625 
L 54.390625 34.71875 
L 19.671875 34.71875 
L 19.671875 8.296875 
L 56.78125 8.296875 
L 56.78125 0 
L 9.8125 0 
z
" id="DejaVuSans-69"/>
       <path d="M 14.796875 27.296875 
Q 14.796875 17.390625 18.875 11.75 
Q 22.953125 6.109375 30.078125 6.109375 
Q 37.203125 6.109375 41.296875 11.75 
Q 45.40625 17.390625 45.40625 27.296875 
Q 45.40625 37.203125 41.296875 42.84375 
Q 37.203125 48.484375 30.078125 48.484375 
Q 22.953125 48.484375 18.875 42.84375 
Q 14.796875 37.203125 14.796875 27.296875 
z
M 45.40625 8.203125 
Q 42.578125 3.328125 38.25 0.953125 
Q 33.9375 -1.421875 27.875 -1.421875 
Q 17.96875 -1.421875 11.734375 6.484375 
Q 5.515625 14.40625 5.515625 27.296875 
Q 5.515625 40.1875 11.734375 48.09375 
Q 17.96875 56 27.875 56 
Q 33.9375 56 38.25 53.625 
Q 42.578125 51.265625 45.40625 46.390625 
L 45.40625 54.6875 
L 54.390625 54.6875 
L 54.390625 -20.796875 
L 45.40625 -20.796875 
z
" id="DejaVuSans-113"/>
      </defs>
      <use xlink:href="#DejaVuSans-67"/>
      <use x="69.824219" xlink:href="#DejaVuSans-101"/>
      <use x="131.347656" xlink:href="#DejaVuSans-108"/>
      <use x="159.130859" xlink:href="#DejaVuSans-108"/>
      <use x="186.914062" xlink:href="#DejaVuSans-32"/>
      <use x="218.701172" xlink:href="#DejaVuSans-69"/>
      <use x="281.884766" xlink:href="#DejaVuSans-113"/>
     </g>
    </g>
   </g>
   <g id="line2d_15">
    <path clip-path="url(#paf839da051)" d="M 73.347727 290.232443 
L 73.710951 290.232319 
L 74.202711 290.232148 
L 74.868494 290.231911 
L 75.76988 290.231582 
L 76.990247 290.231117 
L 78.642471 290.230451 
L 80.879379 290.229475 
L 83.907875 290.227997 
L 88.008084 290.225642 
L 93.559258 290.221568 
L 101.074862 290.213402 
L 111.250058 290.190865 
L 125.026014 289.939365 
L 143.676952 220.729687 
L 168.928013 154.874527 
L 203.114823 106.213875 
L 249.399532 70.268762 
L 312.063295 43.719062 
L 396.902273 24.106307 
" style="fill:none;stroke:#1f77b4;stroke-linecap:square;stroke-width:1.5;"/>
    <defs>
     <path d="M 0 1.5 
C 0.397805 1.5 0.77937 1.341951 1.06066 1.06066 
C 1.341951 0.77937 1.5 0.397805 1.5 0 
C 1.5 -0.397805 1.341951 -0.77937 1.06066 -1.06066 
C 0.77937 -1.341951 0.397805 -1.5 0 -1.5 
C -0.397805 -1.5 -0.77937 -1.341951 -1.06066 -1.06066 
C -1.341951 -0.77937 -1.5 -0.397805 -1.5 0 
C -1.5 0.397805 -1.341951 0.77937 -1.06066 1.06066 
C -0.77937 1.341951 -0.397805 1.5 0 1.5 
z
" id="m2c0e2d93cb" style="stroke:#1f77b4;"/>
    </defs>
    <g clip-path="url(#paf839da051)">
     <use style="fill:#1f77b4;stroke:#1f77b4;" x="73.347727" xlink:href="#m2c0e2d93cb" y="290.232443"/>
     <use style="fill:#1f77b4;stroke:#1f77b4;" x="73.710951" xlink:href="#m2c0e2d93cb" y="290.232319"/>
     <use style="fill:#1f77b4;stroke:#1f77b4;" x="74.202711" xlink:href="#m2c0e2d93cb" y="290.232148"/>
     <use style="fill:#1f77b4;stroke:#1f77b4;" x="74.868494" xlink:href="#m2c0e2d93cb" y="290.231911"/>
     <use style="fill:#1f77b4;stroke:#1f77b4;" x="75.76988" xlink:href="#m2c0e2d93cb" y="290.231582"/>
     <use style="fill:#1f77b4;stroke:#1f77b4;" x="76.990247" xlink:href="#m2c0e2d93cb" y="290.231117"/>
     <use style="fill:#1f77b4;stroke:#1f77b4;" x="78.642471" xlink:href="#m2c0e2d93cb" y="290.230451"/>
     <use style="fill:#1f77b4;stroke:#1f77b4;" x="80.879379" xlink:href="#m2c0e2d93cb" y="290.229475"/>
     <use style="fill:#1f77b4;stroke:#1f77b4;" x="83.907875" xlink:href="#m2c0e2d93cb" y="290.227997"/>
     <use style="fill:#1f77b4;stroke:#1f77b4;" x="88.008084" xlink:href="#m2c0e2d93cb" y="290.225642"/>
     <use style="fill:#1f77b4;stroke:#1f77b4;" x="93.559258" xlink:href="#m2c0e2d93cb" y="290.221568"/>
     <use style="fill:#1f77b4;stroke:#1f77b4;" x="101.074862" xlink:href="#m2c0e2d93cb" y="290.213402"/>
     <use style="fill:#1f77b4;stroke:#1f77b4;" x="111.250058" xlink:href="#m2c0e2d93cb" y="290.190865"/>
     <use style="fill:#1f77b4;stroke:#1f77b4;" x="125.026014" xlink:href="#m2c0e2d93cb" y="289.939365"/>
     <use style="fill:#1f77b4;stroke:#1f77b4;" x="143.676952" xlink:href="#m2c0e2d93cb" y="220.729687"/>
     <use style="fill:#1f77b4;stroke:#1f77b4;" x="168.928013" xlink:href="#m2c0e2d93cb" y="154.874527"/>
     <use style="fill:#1f77b4;stroke:#1f77b4;" x="203.114823" xlink:href="#m2c0e2d93cb" y="106.213875"/>
     <use style="fill:#1f77b4;stroke:#1f77b4;" x="249.399532" xlink:href="#m2c0e2d93cb" y="70.268762"/>
     <use style="fill:#1f77b4;stroke:#1f77b4;" x="312.063295" xlink:href="#m2c0e2d93cb" y="43.719062"/>
     <use style="fill:#1f77b4;stroke:#1f77b4;" x="396.902273" xlink:href="#m2c0e2d93cb" y="24.106307"/>
    </g>
   </g>
   <g id="patch_3">
    <path d="M 57.17 303.53875 
L 57.17 10.8 
" style="fill:none;stroke:#000000;stroke-linecap:square;stroke-linejoin:miter;stroke-width:0.8;"/>
   </g>
   <g id="patch_4">
    <path d="M 413.08 303.53875 
L 413.08 10.8 
" style="fill:none;stroke:#000000;stroke-linecap:square;stroke-linejoin:miter;stroke-width:0.8;"/>
   </g>
   <g id="patch_5">
    <path d="M 57.17 303.53875 
L 413.08 303.53875 
" style="fill:none;stroke:#000000;stroke-linecap:square;stroke-linejoin:miter;stroke-width:0.8;"/>
   </g>
   <g id="patch_6">
    <path d="M 57.17 10.8 
L 413.08 10.8 
" style="fill:none;stroke:#000000;stroke-linecap:square;stroke-linejoin:miter;stroke-width:0.8;"/>
   </g>
   <g id="legend_1">
    <g id="patch_7">
     <path d="M 64.17 33.478125 
L 108.62625 33.478125 
Q 110.62625 33.478125 110.62625 31.478125 
L 110.62625 17.8 
Q 110.62625 15.8 108.62625 15.8 
L 64.17 15.8 
Q 62.17 15.8 62.17 17.8 
L 62.17 31.478125 
Q 62.17 33.478125 64.17 33.478125 
z
" style="fill:#ffffff;opacity:0.8;stroke:#cccccc;stroke-linejoin:miter;"/>
    </g>
    <g id="line2d_16">
     <path d="M 66.17 23.898438 
L 86.17 23.898438 
" style="fill:none;stroke:#1f77b4;stroke-linecap:square;stroke-width:1.5;"/>
    </g>
    <g id="line2d_17">
     <g>
      <use style="fill:#1f77b4;stroke:#1f77b4;" x="76.17" xlink:href="#m2c0e2d93cb" y="23.898438"/>
     </g>
    </g>
    <g id="text_18">
     <!-- Tp -->
     <g transform="translate(94.17 27.398438)scale(0.1 -0.1)">
      <use xlink:href="#DejaVuSans-84"/>
      <use x="61.083984" xlink:href="#DejaVuSans-112"/>
     </g>
    </g>
   </g>
  </g>
  <g id="axes_2">
   <g id="matplotlib.axis_3">
    <g id="ytick_9">
     <g id="line2d_18">
      <defs>
       <path d="M 0 0 
L 3.5 0 
" id="m6fb48643bd" style="stroke:#000000;stroke-width:0.8;"/>
      </defs>
      <g>
       <use style="stroke:#000000;stroke-width:0.8;" x="413.08" xlink:href="#m6fb48643bd" y="290.234449"/>
      </g>
     </g>
     <g id="text_19">
      <!-- 0.0 -->
      <g style="fill:#17becf;" transform="translate(420.08 294.033668)scale(0.1 -0.1)">
       <use xlink:href="#DejaVuSans-48"/>
       <use x="63.623047" xlink:href="#DejaVuSans-46"/>
       <use x="95.410156" xlink:href="#DejaVuSans-48"/>
      </g>
     </g>
    </g>
    <g id="ytick_10">
     <g id="line2d_19">
      <g>
       <use style="stroke:#000000;stroke-width:0.8;" x="413.08" xlink:href="#m6fb48643bd" y="230.084068"/>
      </g>
     </g>
     <g id="text_20">
      <!-- 0.2 -->
      <g style="fill:#17becf;" transform="translate(420.08 233.883287)scale(0.1 -0.1)">
       <use xlink:href="#DejaVuSans-48"/>
       <use x="63.623047" xlink:href="#DejaVuSans-46"/>
       <use x="95.410156" xlink:href="#DejaVuSans-50"/>
      </g>
     </g>
    </g>
    <g id="ytick_11">
     <g id="line2d_20">
      <g>
       <use style="stroke:#000000;stroke-width:0.8;" x="413.08" xlink:href="#m6fb48643bd" y="169.933686"/>
      </g>
     </g>
     <g id="text_21">
      <!-- 0.4 -->
      <g style="fill:#17becf;" transform="translate(420.08 173.732905)scale(0.1 -0.1)">
       <use xlink:href="#DejaVuSans-48"/>
       <use x="63.623047" xlink:href="#DejaVuSans-46"/>
       <use x="95.410156" xlink:href="#DejaVuSans-52"/>
      </g>
     </g>
    </g>
    <g id="ytick_12">
     <g id="line2d_21">
      <g>
       <use style="stroke:#000000;stroke-width:0.8;" x="413.08" xlink:href="#m6fb48643bd" y="109.783305"/>
      </g>
     </g>
     <g id="text_22">
      <!-- 0.6 -->
      <g style="fill:#17becf;" transform="translate(420.08 113.582524)scale(0.1 -0.1)">
       <use xlink:href="#DejaVuSans-48"/>
       <use x="63.623047" xlink:href="#DejaVuSans-46"/>
       <use x="95.410156" xlink:href="#DejaVuSans-54"/>
      </g>
     </g>
    </g>
    <g id="ytick_13">
     <g id="line2d_22">
      <g>
       <use style="stroke:#000000;stroke-width:0.8;" x="413.08" xlink:href="#m6fb48643bd" y="49.632923"/>
      </g>
     </g>
     <g id="text_23">
      <!-- 0.8 -->
      <g style="fill:#17becf;" transform="translate(420.08 53.432142)scale(0.1 -0.1)">
       <use xlink:href="#DejaVuSans-48"/>
       <use x="63.623047" xlink:href="#DejaVuSans-46"/>
       <use x="95.410156" xlink:href="#DejaVuSans-56"/>
      </g>
     </g>
    </g>
    <g id="text_24">
     <!-- Resource Eq -->
     <g style="fill:#17becf;" transform="translate(447.581563 188.019375)rotate(-90)scale(0.1 -0.1)">
      <defs>
       <path d="M 44.390625 34.1875 
Q 47.5625 33.109375 50.5625 29.59375 
Q 53.5625 26.078125 56.59375 19.921875 
L 66.609375 0 
L 56 0 
L 46.6875 18.703125 
Q 43.0625 26.03125 39.671875 28.421875 
Q 36.28125 30.8125 30.421875 30.8125 
L 19.671875 30.8125 
L 19.671875 0 
L 9.8125 0 
L 9.8125 72.90625 
L 32.078125 72.90625 
Q 44.578125 72.90625 50.734375 67.671875 
Q 56.890625 62.453125 56.890625 51.90625 
Q 56.890625 45.015625 53.6875 40.46875 
Q 50.484375 35.9375 44.390625 34.1875 
z
M 19.671875 64.796875 
L 19.671875 38.921875 
L 32.078125 38.921875 
Q 39.203125 38.921875 42.84375 42.21875 
Q 46.484375 45.515625 46.484375 51.90625 
Q 46.484375 58.296875 42.84375 61.546875 
Q 39.203125 64.796875 32.078125 64.796875 
z
" id="DejaVuSans-82"/>
       <path d="M 44.28125 53.078125 
L 44.28125 44.578125 
Q 40.484375 46.53125 36.375 47.5 
Q 32.28125 48.484375 27.875 48.484375 
Q 21.1875 48.484375 17.84375 46.4375 
Q 14.5 44.390625 14.5 40.28125 
Q 14.5 37.15625 16.890625 35.375 
Q 19.28125 33.59375 26.515625 31.984375 
L 29.59375 31.296875 
Q 39.15625 29.25 43.1875 25.515625 
Q 47.21875 21.78125 47.21875 15.09375 
Q 47.21875 7.46875 41.1875 3.015625 
Q 35.15625 -1.421875 24.609375 -1.421875 
Q 20.21875 -1.421875 15.453125 -0.5625 
Q 10.6875 0.296875 5.421875 2 
L 5.421875 11.28125 
Q 10.40625 8.6875 15.234375 7.390625 
Q 20.0625 6.109375 24.8125 6.109375 
Q 31.15625 6.109375 34.5625 8.28125 
Q 37.984375 10.453125 37.984375 14.40625 
Q 37.984375 18.0625 35.515625 20.015625 
Q 33.0625 21.96875 24.703125 23.78125 
L 21.578125 24.515625 
Q 13.234375 26.265625 9.515625 29.90625 
Q 5.8125 33.546875 5.8125 39.890625 
Q 5.8125 47.609375 11.28125 51.796875 
Q 16.75 56 26.8125 56 
Q 31.78125 56 36.171875 55.265625 
Q 40.578125 54.546875 44.28125 53.078125 
z
" id="DejaVuSans-115"/>
       <path d="M 8.5 21.578125 
L 8.5 54.6875 
L 17.484375 54.6875 
L 17.484375 21.921875 
Q 17.484375 14.15625 20.5 10.265625 
Q 23.53125 6.390625 29.59375 6.390625 
Q 36.859375 6.390625 41.078125 11.03125 
Q 45.3125 15.671875 45.3125 23.6875 
L 45.3125 54.6875 
L 54.296875 54.6875 
L 54.296875 0 
L 45.3125 0 
L 45.3125 8.40625 
Q 42.046875 3.421875 37.71875 1 
Q 33.40625 -1.421875 27.6875 -1.421875 
Q 18.265625 -1.421875 13.375 4.4375 
Q 8.5 10.296875 8.5 21.578125 
z
M 31.109375 56 
z
" id="DejaVuSans-117"/>
       <path d="M 48.78125 52.59375 
L 48.78125 44.1875 
Q 44.96875 46.296875 41.140625 47.34375 
Q 37.3125 48.390625 33.40625 48.390625 
Q 24.65625 48.390625 19.8125 42.84375 
Q 14.984375 37.3125 14.984375 27.296875 
Q 14.984375 17.28125 19.8125 11.734375 
Q 24.65625 6.203125 33.40625 6.203125 
Q 37.3125 6.203125 41.140625 7.25 
Q 44.96875 8.296875 48.78125 10.40625 
L 48.78125 2.09375 
Q 45.015625 0.34375 40.984375 -0.53125 
Q 36.96875 -1.421875 32.421875 -1.421875 
Q 20.0625 -1.421875 12.78125 6.34375 
Q 5.515625 14.109375 5.515625 27.296875 
Q 5.515625 40.671875 12.859375 48.328125 
Q 20.21875 56 33.015625 56 
Q 37.15625 56 41.109375 55.140625 
Q 45.0625 54.296875 48.78125 52.59375 
z
" id="DejaVuSans-99"/>
      </defs>
      <use xlink:href="#DejaVuSans-82"/>
      <use x="64.982422" xlink:href="#DejaVuSans-101"/>
      <use x="126.505859" xlink:href="#DejaVuSans-115"/>
      <use x="178.605469" xlink:href="#DejaVuSans-111"/>
      <use x="239.787109" xlink:href="#DejaVuSans-117"/>
      <use x="303.166016" xlink:href="#DejaVuSans-114"/>
      <use x="342.029297" xlink:href="#DejaVuSans-99"/>
      <use x="397.009766" xlink:href="#DejaVuSans-101"/>
      <use x="458.533203" xlink:href="#DejaVuSans-32"/>
      <use x="490.320312" xlink:href="#DejaVuSans-69"/>
      <use x="553.503906" xlink:href="#DejaVuSans-113"/>
     </g>
    </g>
   </g>
   <g id="line2d_23">
    <path clip-path="url(#paf839da051)" d="M 73.347727 24.107866 
L 73.710951 24.107651 
L 74.202711 24.107407 
L 74.868494 24.10714 
L 75.76988 24.10686 
L 76.990247 24.106577 
L 78.642471 24.106307 
L 80.879379 24.109776 
L 83.907875 24.109661 
L 88.008084 24.10971 
L 93.559258 24.110102 
L 101.074862 24.107498 
L 111.250058 24.11816 
L 125.026014 24.181952 
L 143.676952 81.24405 
L 168.928013 135.922929 
L 203.114823 176.231679 
L 249.399532 206.042549 
L 312.063295 227.964912 
L 396.902273 244.333101 
" style="fill:none;stroke:#17becf;stroke-linecap:square;stroke-width:1.5;"/>
    <defs>
     <path d="M 0 1.5 
C 0.397805 1.5 0.77937 1.341951 1.06066 1.06066 
C 1.341951 0.77937 1.5 0.397805 1.5 0 
C 1.5 -0.397805 1.341951 -0.77937 1.06066 -1.06066 
C 0.77937 -1.341951 0.397805 -1.5 0 -1.5 
C -0.397805 -1.5 -0.77937 -1.341951 -1.06066 -1.06066 
C -1.341951 -0.77937 -1.5 -0.397805 -1.5 0 
C -1.5 0.397805 -1.341951 0.77937 -1.06066 1.06066 
C -0.77937 1.341951 -0.397805 1.5 0 1.5 
z
" id="m1f165de92b" style="stroke:#17becf;"/>
    </defs>
    <g clip-path="url(#paf839da051)">
     <use style="fill:#17becf;stroke:#17becf;" x="73.347727" xlink:href="#m1f165de92b" y="24.107866"/>
     <use style="fill:#17becf;stroke:#17becf;" x="73.710951" xlink:href="#m1f165de92b" y="24.107651"/>
     <use style="fill:#17becf;stroke:#17becf;" x="74.202711" xlink:href="#m1f165de92b" y="24.107407"/>
     <use style="fill:#17becf;stroke:#17becf;" x="74.868494" xlink:href="#m1f165de92b" y="24.10714"/>
     <use style="fill:#17becf;stroke:#17becf;" x="75.76988" xlink:href="#m1f165de92b" y="24.10686"/>
     <use style="fill:#17becf;stroke:#17becf;" x="76.990247" xlink:href="#m1f165de92b" y="24.106577"/>
     <use style="fill:#17becf;stroke:#17becf;" x="78.642471" xlink:href="#m1f165de92b" y="24.106307"/>
     <use style="fill:#17becf;stroke:#17becf;" x="80.879379" xlink:href="#m1f165de92b" y="24.109776"/>
     <use style="fill:#17becf;stroke:#17becf;" x="83.907875" xlink:href="#m1f165de92b" y="24.109661"/>
     <use style="fill:#17becf;stroke:#17becf;" x="88.008084" xlink:href="#m1f165de92b" y="24.10971"/>
     <use style="fill:#17becf;stroke:#17becf;" x="93.559258" xlink:href="#m1f165de92b" y="24.110102"/>
     <use style="fill:#17becf;stroke:#17becf;" x="101.074862" xlink:href="#m1f165de92b" y="24.107498"/>
     <use style="fill:#17becf;stroke:#17becf;" x="111.250058" xlink:href="#m1f165de92b" y="24.11816"/>
     <use style="fill:#17becf;stroke:#17becf;" x="125.026014" xlink:href="#m1f165de92b" y="24.181952"/>
     <use style="fill:#17becf;stroke:#17becf;" x="143.676952" xlink:href="#m1f165de92b" y="81.24405"/>
     <use style="fill:#17becf;stroke:#17becf;" x="168.928013" xlink:href="#m1f165de92b" y="135.922929"/>
     <use style="fill:#17becf;stroke:#17becf;" x="203.114823" xlink:href="#m1f165de92b" y="176.231679"/>
     <use style="fill:#17becf;stroke:#17becf;" x="249.399532" xlink:href="#m1f165de92b" y="206.042549"/>
     <use style="fill:#17becf;stroke:#17becf;" x="312.063295" xlink:href="#m1f165de92b" y="227.964912"/>
     <use style="fill:#17becf;stroke:#17becf;" x="396.902273" xlink:href="#m1f165de92b" y="244.333101"/>
    </g>
   </g>
   <g id="line2d_24">
    <path clip-path="url(#paf839da051)" d="M 73.347727 290.232443 
L 73.710951 290.23243 
L 74.202711 290.232411 
L 74.868494 290.232386 
L 75.76988 290.232351 
L 76.990247 290.232301 
L 78.642471 290.232229 
L 80.879379 290.232124 
L 83.907875 290.231966 
L 88.008084 290.231713 
L 93.559258 290.231275 
L 101.074862 290.230398 
L 111.250058 290.227977 
L 125.026014 290.200961 
L 143.676952 282.76655 
L 168.928013 275.692496 
L 203.114823 270.46543 
L 249.399532 266.604273 
L 312.063295 263.752234 
L 396.902273 261.645625 
" style="fill:none;stroke:#ff7f0e;stroke-linecap:square;stroke-width:1.5;"/>
    <defs>
     <path d="M 0 1.5 
C 0.397805 1.5 0.77937 1.341951 1.06066 1.06066 
C 1.341951 0.77937 1.5 0.397805 1.5 0 
C 1.5 -0.397805 1.341951 -0.77937 1.06066 -1.06066 
C 0.77937 -1.341951 0.397805 -1.5 0 -1.5 
C -0.397805 -1.5 -0.77937 -1.341951 -1.06066 -1.06066 
C -1.341951 -0.77937 -1.5 -0.397805 -1.5 0 
C -1.5 0.397805 -1.341951 0.77937 -1.06066 1.06066 
C -0.77937 1.341951 -0.397805 1.5 0 1.5 
z
" id="m7933621279" style="stroke:#ff7f0e;"/>
    </defs>
    <g clip-path="url(#paf839da051)">
     <use style="fill:#ff7f0e;stroke:#ff7f0e;" x="73.347727" xlink:href="#m7933621279" y="290.232443"/>
     <use style="fill:#ff7f0e;stroke:#ff7f0e;" x="73.710951" xlink:href="#m7933621279" y="290.23243"/>
     <use style="fill:#ff7f0e;stroke:#ff7f0e;" x="74.202711" xlink:href="#m7933621279" y="290.232411"/>
     <use style="fill:#ff7f0e;stroke:#ff7f0e;" x="74.868494" xlink:href="#m7933621279" y="290.232386"/>
     <use style="fill:#ff7f0e;stroke:#ff7f0e;" x="75.76988" xlink:href="#m7933621279" y="290.232351"/>
     <use style="fill:#ff7f0e;stroke:#ff7f0e;" x="76.990247" xlink:href="#m7933621279" y="290.232301"/>
     <use style="fill:#ff7f0e;stroke:#ff7f0e;" x="78.642471" xlink:href="#m7933621279" y="290.232229"/>
     <use style="fill:#ff7f0e;stroke:#ff7f0e;" x="80.879379" xlink:href="#m7933621279" y="290.232124"/>
     <use style="fill:#ff7f0e;stroke:#ff7f0e;" x="83.907875" xlink:href="#m7933621279" y="290.231966"/>
     <use style="fill:#ff7f0e;stroke:#ff7f0e;" x="88.008084" xlink:href="#m7933621279" y="290.231713"/>
     <use style="fill:#ff7f0e;stroke:#ff7f0e;" x="93.559258" xlink:href="#m7933621279" y="290.231275"/>
     <use style="fill:#ff7f0e;stroke:#ff7f0e;" x="101.074862" xlink:href="#m7933621279" y="290.230398"/>
     <use style="fill:#ff7f0e;stroke:#ff7f0e;" x="111.250058" xlink:href="#m7933621279" y="290.227977"/>
     <use style="fill:#ff7f0e;stroke:#ff7f0e;" x="125.026014" xlink:href="#m7933621279" y="290.200961"/>
     <use style="fill:#ff7f0e;stroke:#ff7f0e;" x="143.676952" xlink:href="#m7933621279" y="282.76655"/>
     <use style="fill:#ff7f0e;stroke:#ff7f0e;" x="168.928013" xlink:href="#m7933621279" y="275.692496"/>
     <use style="fill:#ff7f0e;stroke:#ff7f0e;" x="203.114823" xlink:href="#m7933621279" y="270.46543"/>
     <use style="fill:#ff7f0e;stroke:#ff7f0e;" x="249.399532" xlink:href="#m7933621279" y="266.604273"/>
     <use style="fill:#ff7f0e;stroke:#ff7f0e;" x="312.063295" xlink:href="#m7933621279" y="263.752234"/>
     <use style="fill:#ff7f0e;stroke:#ff7f0e;" x="396.902273" xlink:href="#m7933621279" y="261.645625"/>
    </g>
   </g>
   <g id="patch_8">
    <path d="M 57.17 303.53875 
L 57.17 10.8 
" style="fill:none;stroke:#000000;stroke-linecap:square;stroke-linejoin:miter;stroke-width:0.8;"/>
   </g>
   <g id="patch_9">
    <path d="M 413.08 303.53875 
L 413.08 10.8 
" style="fill:none;stroke:#000000;stroke-linecap:square;stroke-linejoin:miter;stroke-width:0.8;"/>
   </g>
   <g id="patch_10">
    <path d="M 57.17 303.53875 
L 413.08 303.53875 
" style="fill:none;stroke:#000000;stroke-linecap:square;stroke-linejoin:miter;stroke-width:0.8;"/>
   </g>
   <g id="patch_11">
    <path d="M 57.17 10.8 
L 413.08 10.8 
" style="fill:none;stroke:#000000;stroke-linecap:square;stroke-linejoin:miter;stroke-width:0.8;"/>
   </g>
   <g id="legend_2">
    <g id="patch_12">
     <path d="M 354.876875 48.15625 
L 406.08 48.15625 
Q 408.08 48.15625 408.08 46.15625 
L 408.08 17.8 
Q 408.08 15.8 406.08 15.8 
L 354.876875 15.8 
Q 352.876875 15.8 352.876875 17.8 
L 352.876875 46.15625 
Q 352.876875 48.15625 354.876875 48.15625 
z
" style="fill:#ffffff;opacity:0.8;stroke:#cccccc;stroke-linejoin:miter;"/>
    </g>
    <g id="line2d_25">
     <path d="M 356.876875 23.898438 
L 376.876875 23.898438 
" style="fill:none;stroke:#17becf;stroke-linecap:square;stroke-width:1.5;"/>
    </g>
    <g id="line2d_26">
     <g>
      <use style="fill:#17becf;stroke:#17becf;" x="366.876875" xlink:href="#m1f165de92b" y="23.898438"/>
     </g>
    </g>
    <g id="text_25">
     <!-- o2 -->
     <g transform="translate(384.876875 27.398438)scale(0.1 -0.1)">
      <use xlink:href="#DejaVuSans-111"/>
      <use x="61.181641" xlink:href="#DejaVuSans-50"/>
     </g>
    </g>
    <g id="line2d_27">
     <path d="M 356.876875 38.576563 
L 376.876875 38.576563 
" style="fill:none;stroke:#ff7f0e;stroke-linecap:square;stroke-width:1.5;"/>
    </g>
    <g id="line2d_28">
     <g>
      <use style="fill:#ff7f0e;stroke:#ff7f0e;" x="366.876875" xlink:href="#m7933621279" y="38.576563"/>
     </g>
    </g>
    <g id="text_26">
     <!-- test -->
     <g transform="translate(384.876875 42.076563)scale(0.1 -0.1)">
      <defs>
       <path d="M 18.3125 70.21875 
L 18.3125 54.6875 
L 36.8125 54.6875 
L 36.8125 47.703125 
L 18.3125 47.703125 
L 18.3125 18.015625 
Q 18.3125 11.328125 20.140625 9.421875 
Q 21.96875 7.515625 27.59375 7.515625 
L 36.8125 7.515625 
L 36.8125 0 
L 27.59375 0 
Q 17.1875 0 13.234375 3.875 
Q 9.28125 7.765625 9.28125 18.015625 
L 9.28125 47.703125 
L 2.6875 47.703125 
L 2.6875 54.6875 
L 9.28125 54.6875 
L 9.28125 70.21875 
z
" id="DejaVuSans-116"/>
      </defs>
      <use xlink:href="#DejaVuSans-116"/>
      <use x="39.208984" xlink:href="#DejaVuSans-101"/>
      <use x="100.732422" xlink:href="#DejaVuSans-115"/>
      <use x="152.832031" xlink:href="#DejaVuSans-116"/>
     </g>
    </g>
   </g>
  </g>
 </g>
 <defs>
  <clipPath id="paf839da051">
   <rect height="292.73875" width="355.91" x="57.17" y="10.8"/>
  </clipPath>
 </defs>
</svg>
