<?xml version="1.0" encoding="utf-8" standalone="no"?>
<!DOCTYPE svg PUBLIC "-//W3C//DTD SVG 1.1//EN"
  "http://www.w3.org/Graphics/SVG/1.1/DTD/svg11.dtd">
<!-- Created with matplotlib (https://matplotlib.org/) -->
<svg height="345.6pt" version="1.1" viewBox="0 0 460.8 345.6" width="460.8pt" xmlns="http://www.w3.org/2000/svg" xmlns:xlink="http://www.w3.org/1999/xlink">
 <metadata>
  <rdf:RDF xmlns:cc="http://creativecommons.org/ns#" xmlns:dc="http://purl.org/dc/elements/1.1/" xmlns:rdf="http://www.w3.org/1999/02/22-rdf-syntax-ns#">
   <cc:Work>
    <dc:type rdf:resource="http://purl.org/dc/dcmitype/StillImage"/>
    <dc:date>2020-11-30T17:42:36.054675</dc:date>
    <dc:format>image/svg+xml</dc:format>
    <dc:creator>
     <cc:Agent>
      <dc:title>Matplotlib v3.3.2, https://matplotlib.org/</dc:title>
     </cc:Agent>
    </dc:creator>
   </cc:Work>
  </rdf:RDF>
 </metadata>
 <defs>
  <style type="text/css">*{stroke-linecap:butt;stroke-linejoin:round;}</style>
 </defs>
 <g id="figure_1">
  <g id="patch_1">
   <path d="M 0 345.6 
L 460.8 345.6 
L 460.8 0 
L 0 0 
z
" style="fill:#ffffff;"/>
  </g>
  <g id="axes_1">
   <g id="patch_2">
    <path d="M 47.72 303.64 
L 398.5 303.64 
L 398.5 10.8 
L 47.72 10.8 
z
" style="fill:#ffffff;"/>
   </g>
   <g id="matplotlib.axis_1">
    <g id="xtick_1">
     <g id="line2d_1">
      <defs>
       <path d="M 0 0 
L 0 3.5 
" id="mf138fcffef" style="stroke:#000000;stroke-width:0.8;"/>
      </defs>
      <g>
       <use style="stroke:#000000;stroke-width:0.8;" x="60.443425" xlink:href="#mf138fcffef" y="303.64"/>
      </g>
     </g>
     <g id="text_1">
      <!-- 0 -->
      <g transform="translate(57.262175 318.238437)scale(0.1 -0.1)">
       <defs>
        <path d="M 31.78125 66.40625 
Q 24.171875 66.40625 20.328125 58.90625 
Q 16.5 51.421875 16.5 36.375 
Q 16.5 21.390625 20.328125 13.890625 
Q 24.171875 6.390625 31.78125 6.390625 
Q 39.453125 6.390625 43.28125 13.890625 
Q 47.125 21.390625 47.125 36.375 
Q 47.125 51.421875 43.28125 58.90625 
Q 39.453125 66.40625 31.78125 66.40625 
z
M 31.78125 74.21875 
Q 44.046875 74.21875 50.515625 64.515625 
Q 56.984375 54.828125 56.984375 36.375 
Q 56.984375 17.96875 50.515625 8.265625 
Q 44.046875 -1.421875 31.78125 -1.421875 
Q 19.53125 -1.421875 13.0625 8.265625 
Q 6.59375 17.96875 6.59375 36.375 
Q 6.59375 54.828125 13.0625 64.515625 
Q 19.53125 74.21875 31.78125 74.21875 
z
" id="DejaVuSans-48"/>
       </defs>
       <use xlink:href="#DejaVuSans-48"/>
      </g>
     </g>
    </g>
    <g id="xtick_2">
     <g id="line2d_2">
      <g>
       <use style="stroke:#000000;stroke-width:0.8;" x="124.865831" xlink:href="#mf138fcffef" y="303.64"/>
      </g>
     </g>
     <g id="text_2">
      <!-- 200 -->
      <g transform="translate(115.322081 318.238437)scale(0.1 -0.1)">
       <defs>
        <path d="M 19.1875 8.296875 
L 53.609375 8.296875 
L 53.609375 0 
L 7.328125 0 
L 7.328125 8.296875 
Q 12.9375 14.109375 22.625 23.890625 
Q 32.328125 33.6875 34.8125 36.53125 
Q 39.546875 41.84375 41.421875 45.53125 
Q 43.3125 49.21875 43.3125 52.78125 
Q 43.3125 58.59375 39.234375 62.25 
Q 35.15625 65.921875 28.609375 65.921875 
Q 23.96875 65.921875 18.8125 64.3125 
Q 13.671875 62.703125 7.8125 59.421875 
L 7.8125 69.390625 
Q 13.765625 71.78125 18.9375 73 
Q 24.125 74.21875 28.421875 74.21875 
Q 39.75 74.21875 46.484375 68.546875 
Q 53.21875 62.890625 53.21875 53.421875 
Q 53.21875 48.921875 51.53125 44.890625 
Q 49.859375 40.875 45.40625 35.40625 
Q 44.1875 33.984375 37.640625 27.21875 
Q 31.109375 20.453125 19.1875 8.296875 
z
" id="DejaVuSans-50"/>
       </defs>
       <use xlink:href="#DejaVuSans-50"/>
       <use x="63.623047" xlink:href="#DejaVuSans-48"/>
       <use x="127.246094" xlink:href="#DejaVuSans-48"/>
      </g>
     </g>
    </g>
    <g id="xtick_3">
     <g id="line2d_3">
      <g>
       <use style="stroke:#000000;stroke-width:0.8;" x="189.288237" xlink:href="#mf138fcffef" y="303.64"/>
      </g>
     </g>
     <g id="text_3">
      <!-- 400 -->
      <g transform="translate(179.744487 318.238437)scale(0.1 -0.1)">
       <defs>
        <path d="M 37.796875 64.3125 
L 12.890625 25.390625 
L 37.796875 25.390625 
z
M 35.203125 72.90625 
L 47.609375 72.90625 
L 47.609375 25.390625 
L 58.015625 25.390625 
L 58.015625 17.1875 
L 47.609375 17.1875 
L 47.609375 0 
L 37.796875 0 
L 37.796875 17.1875 
L 4.890625 17.1875 
L 4.890625 26.703125 
z
" id="DejaVuSans-52"/>
       </defs>
       <use xlink:href="#DejaVuSans-52"/>
       <use x="63.623047" xlink:href="#DejaVuSans-48"/>
       <use x="127.246094" xlink:href="#DejaVuSans-48"/>
      </g>
     </g>
    </g>
    <g id="xtick_4">
     <g id="line2d_4">
      <g>
       <use style="stroke:#000000;stroke-width:0.8;" x="253.710643" xlink:href="#mf138fcffef" y="303.64"/>
      </g>
     </g>
     <g id="text_4">
      <!-- 600 -->
      <g transform="translate(244.166893 318.238437)scale(0.1 -0.1)">
       <defs>
        <path d="M 33.015625 40.375 
Q 26.375 40.375 22.484375 35.828125 
Q 18.609375 31.296875 18.609375 23.390625 
Q 18.609375 15.53125 22.484375 10.953125 
Q 26.375 6.390625 33.015625 6.390625 
Q 39.65625 6.390625 43.53125 10.953125 
Q 47.40625 15.53125 47.40625 23.390625 
Q 47.40625 31.296875 43.53125 35.828125 
Q 39.65625 40.375 33.015625 40.375 
z
M 52.59375 71.296875 
L 52.59375 62.3125 
Q 48.875 64.0625 45.09375 64.984375 
Q 41.3125 65.921875 37.59375 65.921875 
Q 27.828125 65.921875 22.671875 59.328125 
Q 17.53125 52.734375 16.796875 39.40625 
Q 19.671875 43.65625 24.015625 45.921875 
Q 28.375 48.1875 33.59375 48.1875 
Q 44.578125 48.1875 50.953125 41.515625 
Q 57.328125 34.859375 57.328125 23.390625 
Q 57.328125 12.15625 50.6875 5.359375 
Q 44.046875 -1.421875 33.015625 -1.421875 
Q 20.359375 -1.421875 13.671875 8.265625 
Q 6.984375 17.96875 6.984375 36.375 
Q 6.984375 53.65625 15.1875 63.9375 
Q 23.390625 74.21875 37.203125 74.21875 
Q 40.921875 74.21875 44.703125 73.484375 
Q 48.484375 72.75 52.59375 71.296875 
z
" id="DejaVuSans-54"/>
       </defs>
       <use xlink:href="#DejaVuSans-54"/>
       <use x="63.623047" xlink:href="#DejaVuSans-48"/>
       <use x="127.246094" xlink:href="#DejaVuSans-48"/>
      </g>
     </g>
    </g>
    <g id="xtick_5">
     <g id="line2d_5">
      <g>
       <use style="stroke:#000000;stroke-width:0.8;" x="318.133049" xlink:href="#mf138fcffef" y="303.64"/>
      </g>
     </g>
     <g id="text_5">
      <!-- 800 -->
      <g transform="translate(308.589299 318.238437)scale(0.1 -0.1)">
       <defs>
        <path d="M 31.78125 34.625 
Q 24.75 34.625 20.71875 30.859375 
Q 16.703125 27.09375 16.703125 20.515625 
Q 16.703125 13.921875 20.71875 10.15625 
Q 24.75 6.390625 31.78125 6.390625 
Q 38.8125 6.390625 42.859375 10.171875 
Q 46.921875 13.96875 46.921875 20.515625 
Q 46.921875 27.09375 42.890625 30.859375 
Q 38.875 34.625 31.78125 34.625 
z
M 21.921875 38.8125 
Q 15.578125 40.375 12.03125 44.71875 
Q 8.5 49.078125 8.5 55.328125 
Q 8.5 64.0625 14.71875 69.140625 
Q 20.953125 74.21875 31.78125 74.21875 
Q 42.671875 74.21875 48.875 69.140625 
Q 55.078125 64.0625 55.078125 55.328125 
Q 55.078125 49.078125 51.53125 44.71875 
Q 48 40.375 41.703125 38.8125 
Q 48.828125 37.15625 52.796875 32.3125 
Q 56.78125 27.484375 56.78125 20.515625 
Q 56.78125 9.90625 50.3125 4.234375 
Q 43.84375 -1.421875 31.78125 -1.421875 
Q 19.734375 -1.421875 13.25 4.234375 
Q 6.78125 9.90625 6.78125 20.515625 
Q 6.78125 27.484375 10.78125 32.3125 
Q 14.796875 37.15625 21.921875 38.8125 
z
M 18.3125 54.390625 
Q 18.3125 48.734375 21.84375 45.5625 
Q 25.390625 42.390625 31.78125 42.390625 
Q 38.140625 42.390625 41.71875 45.5625 
Q 45.3125 48.734375 45.3125 54.390625 
Q 45.3125 60.0625 41.71875 63.234375 
Q 38.140625 66.40625 31.78125 66.40625 
Q 25.390625 66.40625 21.84375 63.234375 
Q 18.3125 60.0625 18.3125 54.390625 
z
" id="DejaVuSans-56"/>
       </defs>
       <use xlink:href="#DejaVuSans-56"/>
       <use x="63.623047" xlink:href="#DejaVuSans-48"/>
       <use x="127.246094" xlink:href="#DejaVuSans-48"/>
      </g>
     </g>
    </g>
    <g id="xtick_6">
     <g id="line2d_6">
      <g>
       <use style="stroke:#000000;stroke-width:0.8;" x="382.555455" xlink:href="#mf138fcffef" y="303.64"/>
      </g>
     </g>
     <g id="text_6">
      <!-- 1000 -->
      <g transform="translate(369.830455 318.238437)scale(0.1 -0.1)">
       <defs>
        <path d="M 12.40625 8.296875 
L 28.515625 8.296875 
L 28.515625 63.921875 
L 10.984375 60.40625 
L 10.984375 69.390625 
L 28.421875 72.90625 
L 38.28125 72.90625 
L 38.28125 8.296875 
L 54.390625 8.296875 
L 54.390625 0 
L 12.40625 0 
z
" id="DejaVuSans-49"/>
       </defs>
       <use xlink:href="#DejaVuSans-49"/>
       <use x="63.623047" xlink:href="#DejaVuSans-48"/>
       <use x="127.246094" xlink:href="#DejaVuSans-48"/>
       <use x="190.869141" xlink:href="#DejaVuSans-48"/>
      </g>
     </g>
    </g>
    <g id="text_7">
     <!-- y0_Tpro -->
     <g transform="translate(203.238906 331.74)scale(0.1 -0.1)">
      <defs>
       <path d="M 32.171875 -5.078125 
Q 28.375 -14.84375 24.75 -17.8125 
Q 21.140625 -20.796875 15.09375 -20.796875 
L 7.90625 -20.796875 
L 7.90625 -13.28125 
L 13.1875 -13.28125 
Q 16.890625 -13.28125 18.9375 -11.515625 
Q 21 -9.765625 23.484375 -3.21875 
L 25.09375 0.875 
L 2.984375 54.6875 
L 12.5 54.6875 
L 29.59375 11.921875 
L 46.6875 54.6875 
L 56.203125 54.6875 
z
" id="DejaVuSans-121"/>
       <path d="M 50.984375 -16.609375 
L 50.984375 -23.578125 
L -0.984375 -23.578125 
L -0.984375 -16.609375 
z
" id="DejaVuSans-95"/>
       <path d="M -0.296875 72.90625 
L 61.375 72.90625 
L 61.375 64.59375 
L 35.5 64.59375 
L 35.5 0 
L 25.59375 0 
L 25.59375 64.59375 
L -0.296875 64.59375 
z
" id="DejaVuSans-84"/>
       <path d="M 18.109375 8.203125 
L 18.109375 -20.796875 
L 9.078125 -20.796875 
L 9.078125 54.6875 
L 18.109375 54.6875 
L 18.109375 46.390625 
Q 20.953125 51.265625 25.265625 53.625 
Q 29.59375 56 35.59375 56 
Q 45.5625 56 51.78125 48.09375 
Q 58.015625 40.1875 58.015625 27.296875 
Q 58.015625 14.40625 51.78125 6.484375 
Q 45.5625 -1.421875 35.59375 -1.421875 
Q 29.59375 -1.421875 25.265625 0.953125 
Q 20.953125 3.328125 18.109375 8.203125 
z
M 48.6875 27.296875 
Q 48.6875 37.203125 44.609375 42.84375 
Q 40.53125 48.484375 33.40625 48.484375 
Q 26.265625 48.484375 22.1875 42.84375 
Q 18.109375 37.203125 18.109375 27.296875 
Q 18.109375 17.390625 22.1875 11.75 
Q 26.265625 6.109375 33.40625 6.109375 
Q 40.53125 6.109375 44.609375 11.75 
Q 48.6875 17.390625 48.6875 27.296875 
z
" id="DejaVuSans-112"/>
       <path d="M 41.109375 46.296875 
Q 39.59375 47.171875 37.8125 47.578125 
Q 36.03125 48 33.890625 48 
Q 26.265625 48 22.1875 43.046875 
Q 18.109375 38.09375 18.109375 28.8125 
L 18.109375 0 
L 9.078125 0 
L 9.078125 54.6875 
L 18.109375 54.6875 
L 18.109375 46.1875 
Q 20.953125 51.171875 25.484375 53.578125 
Q 30.03125 56 36.53125 56 
Q 37.453125 56 38.578125 55.875 
Q 39.703125 55.765625 41.0625 55.515625 
z
" id="DejaVuSans-114"/>
       <path d="M 30.609375 48.390625 
Q 23.390625 48.390625 19.1875 42.75 
Q 14.984375 37.109375 14.984375 27.296875 
Q 14.984375 17.484375 19.15625 11.84375 
Q 23.34375 6.203125 30.609375 6.203125 
Q 37.796875 6.203125 41.984375 11.859375 
Q 46.1875 17.53125 46.1875 27.296875 
Q 46.1875 37.015625 41.984375 42.703125 
Q 37.796875 48.390625 30.609375 48.390625 
z
M 30.609375 56 
Q 42.328125 56 49.015625 48.375 
Q 55.71875 40.765625 55.71875 27.296875 
Q 55.71875 13.875 49.015625 6.21875 
Q 42.328125 -1.421875 30.609375 -1.421875 
Q 18.84375 -1.421875 12.171875 6.21875 
Q 5.515625 13.875 5.515625 27.296875 
Q 5.515625 40.765625 12.171875 48.375 
Q 18.84375 56 30.609375 56 
z
" id="DejaVuSans-111"/>
      </defs>
      <use xlink:href="#DejaVuSans-121"/>
      <use x="59.179688" xlink:href="#DejaVuSans-48"/>
      <use x="122.802734" xlink:href="#DejaVuSans-95"/>
      <use x="172.802734" xlink:href="#DejaVuSans-84"/>
      <use x="233.886719" xlink:href="#DejaVuSans-112"/>
      <use x="297.363281" xlink:href="#DejaVuSans-114"/>
      <use x="336.226562" xlink:href="#DejaVuSans-111"/>
     </g>
    </g>
   </g>
   <g id="matplotlib.axis_2">
    <g id="ytick_1">
     <g id="line2d_7">
      <defs>
       <path d="M 0 0 
L -3.5 0 
" id="mfd2aa10084" style="stroke:#000000;stroke-width:0.8;"/>
      </defs>
      <g>
       <use style="stroke:#000000;stroke-width:0.8;" x="47.72" xlink:href="#mfd2aa10084" y="290.329091"/>
      </g>
     </g>
     <g id="text_8">
      <!-- 0.0 -->
      <g style="fill:#1f77b4;" transform="translate(24.816875 294.12831)scale(0.1 -0.1)">
       <defs>
        <path d="M 10.6875 12.40625 
L 21 12.40625 
L 21 0 
L 10.6875 0 
z
" id="DejaVuSans-46"/>
       </defs>
       <use xlink:href="#DejaVuSans-48"/>
       <use x="63.623047" xlink:href="#DejaVuSans-46"/>
       <use x="95.410156" xlink:href="#DejaVuSans-48"/>
      </g>
     </g>
    </g>
    <g id="ytick_2">
     <g id="line2d_8">
      <g>
       <use style="stroke:#000000;stroke-width:0.8;" x="47.72" xlink:href="#mfd2aa10084" y="230.334382"/>
      </g>
     </g>
     <g id="text_9">
      <!-- 0.2 -->
      <g style="fill:#1f77b4;" transform="translate(24.816875 234.1336)scale(0.1 -0.1)">
       <use xlink:href="#DejaVuSans-48"/>
       <use x="63.623047" xlink:href="#DejaVuSans-46"/>
       <use x="95.410156" xlink:href="#DejaVuSans-50"/>
      </g>
     </g>
    </g>
    <g id="ytick_3">
     <g id="line2d_9">
      <g>
       <use style="stroke:#000000;stroke-width:0.8;" x="47.72" xlink:href="#mfd2aa10084" y="170.339672"/>
      </g>
     </g>
     <g id="text_10">
      <!-- 0.4 -->
      <g style="fill:#1f77b4;" transform="translate(24.816875 174.138891)scale(0.1 -0.1)">
       <use xlink:href="#DejaVuSans-48"/>
       <use x="63.623047" xlink:href="#DejaVuSans-46"/>
       <use x="95.410156" xlink:href="#DejaVuSans-52"/>
      </g>
     </g>
    </g>
    <g id="ytick_4">
     <g id="line2d_10">
      <g>
       <use style="stroke:#000000;stroke-width:0.8;" x="47.72" xlink:href="#mfd2aa10084" y="110.344963"/>
      </g>
     </g>
     <g id="text_11">
      <!-- 0.6 -->
      <g style="fill:#1f77b4;" transform="translate(24.816875 114.144182)scale(0.1 -0.1)">
       <use xlink:href="#DejaVuSans-48"/>
       <use x="63.623047" xlink:href="#DejaVuSans-46"/>
       <use x="95.410156" xlink:href="#DejaVuSans-54"/>
      </g>
     </g>
    </g>
    <g id="ytick_5">
     <g id="line2d_11">
      <g>
       <use style="stroke:#000000;stroke-width:0.8;" x="47.72" xlink:href="#mfd2aa10084" y="50.350254"/>
      </g>
     </g>
     <g id="text_12">
      <!-- 0.8 -->
      <g style="fill:#1f77b4;" transform="translate(24.816875 54.149473)scale(0.1 -0.1)">
       <use xlink:href="#DejaVuSans-48"/>
       <use x="63.623047" xlink:href="#DejaVuSans-46"/>
       <use x="95.410156" xlink:href="#DejaVuSans-56"/>
      </g>
     </g>
    </g>
    <g id="text_13">
     <!-- o2_eq/test_eq -->
     <g style="fill:#1f77b4;" transform="translate(18.459063 192.248125)rotate(-90)scale(0.1 -0.1)">
      <defs>
       <path d="M 56.203125 29.59375 
L 56.203125 25.203125 
L 14.890625 25.203125 
Q 15.484375 15.921875 20.484375 11.0625 
Q 25.484375 6.203125 34.421875 6.203125 
Q 39.59375 6.203125 44.453125 7.46875 
Q 49.3125 8.734375 54.109375 11.28125 
L 54.109375 2.78125 
Q 49.265625 0.734375 44.1875 -0.34375 
Q 39.109375 -1.421875 33.890625 -1.421875 
Q 20.796875 -1.421875 13.15625 6.1875 
Q 5.515625 13.8125 5.515625 26.8125 
Q 5.515625 40.234375 12.765625 48.109375 
Q 20.015625 56 32.328125 56 
Q 43.359375 56 49.78125 48.890625 
Q 56.203125 41.796875 56.203125 29.59375 
z
M 47.21875 32.234375 
Q 47.125 39.59375 43.09375 43.984375 
Q 39.0625 48.390625 32.421875 48.390625 
Q 24.90625 48.390625 20.390625 44.140625 
Q 15.875 39.890625 15.1875 32.171875 
z
" id="DejaVuSans-101"/>
       <path d="M 14.796875 27.296875 
Q 14.796875 17.390625 18.875 11.75 
Q 22.953125 6.109375 30.078125 6.109375 
Q 37.203125 6.109375 41.296875 11.75 
Q 45.40625 17.390625 45.40625 27.296875 
Q 45.40625 37.203125 41.296875 42.84375 
Q 37.203125 48.484375 30.078125 48.484375 
Q 22.953125 48.484375 18.875 42.84375 
Q 14.796875 37.203125 14.796875 27.296875 
z
M 45.40625 8.203125 
Q 42.578125 3.328125 38.25 0.953125 
Q 33.9375 -1.421875 27.875 -1.421875 
Q 17.96875 -1.421875 11.734375 6.484375 
Q 5.515625 14.40625 5.515625 27.296875 
Q 5.515625 40.1875 11.734375 48.09375 
Q 17.96875 56 27.875 56 
Q 33.9375 56 38.25 53.625 
Q 42.578125 51.265625 45.40625 46.390625 
L 45.40625 54.6875 
L 54.390625 54.6875 
L 54.390625 -20.796875 
L 45.40625 -20.796875 
z
" id="DejaVuSans-113"/>
       <path d="M 25.390625 72.90625 
L 33.6875 72.90625 
L 8.296875 -9.28125 
L 0 -9.28125 
z
" id="DejaVuSans-47"/>
       <path d="M 18.3125 70.21875 
L 18.3125 54.6875 
L 36.8125 54.6875 
L 36.8125 47.703125 
L 18.3125 47.703125 
L 18.3125 18.015625 
Q 18.3125 11.328125 20.140625 9.421875 
Q 21.96875 7.515625 27.59375 7.515625 
L 36.8125 7.515625 
L 36.8125 0 
L 27.59375 0 
Q 17.1875 0 13.234375 3.875 
Q 9.28125 7.765625 9.28125 18.015625 
L 9.28125 47.703125 
L 2.6875 47.703125 
L 2.6875 54.6875 
L 9.28125 54.6875 
L 9.28125 70.21875 
z
" id="DejaVuSans-116"/>
       <path d="M 44.28125 53.078125 
L 44.28125 44.578125 
Q 40.484375 46.53125 36.375 47.5 
Q 32.28125 48.484375 27.875 48.484375 
Q 21.1875 48.484375 17.84375 46.4375 
Q 14.5 44.390625 14.5 40.28125 
Q 14.5 37.15625 16.890625 35.375 
Q 19.28125 33.59375 26.515625 31.984375 
L 29.59375 31.296875 
Q 39.15625 29.25 43.1875 25.515625 
Q 47.21875 21.78125 47.21875 15.09375 
Q 47.21875 7.46875 41.1875 3.015625 
Q 35.15625 -1.421875 24.609375 -1.421875 
Q 20.21875 -1.421875 15.453125 -0.5625 
Q 10.6875 0.296875 5.421875 2 
L 5.421875 11.28125 
Q 10.40625 8.6875 15.234375 7.390625 
Q 20.0625 6.109375 24.8125 6.109375 
Q 31.15625 6.109375 34.5625 8.28125 
Q 37.984375 10.453125 37.984375 14.40625 
Q 37.984375 18.0625 35.515625 20.015625 
Q 33.0625 21.96875 24.703125 23.78125 
L 21.578125 24.515625 
Q 13.234375 26.265625 9.515625 29.90625 
Q 5.8125 33.546875 5.8125 39.890625 
Q 5.8125 47.609375 11.28125 51.796875 
Q 16.75 56 26.8125 56 
Q 31.78125 56 36.171875 55.265625 
Q 40.578125 54.546875 44.28125 53.078125 
z
" id="DejaVuSans-115"/>
      </defs>
      <use xlink:href="#DejaVuSans-111"/>
      <use x="61.181641" xlink:href="#DejaVuSans-50"/>
      <use x="124.804688" xlink:href="#DejaVuSans-95"/>
      <use x="174.804688" xlink:href="#DejaVuSans-101"/>
      <use x="236.328125" xlink:href="#DejaVuSans-113"/>
      <use x="299.804688" xlink:href="#DejaVuSans-47"/>
      <use x="333.496094" xlink:href="#DejaVuSans-116"/>
      <use x="372.705078" xlink:href="#DejaVuSans-101"/>
      <use x="434.228516" xlink:href="#DejaVuSans-115"/>
      <use x="486.328125" xlink:href="#DejaVuSans-116"/>
      <use x="525.537109" xlink:href="#DejaVuSans-95"/>
      <use x="575.537109" xlink:href="#DejaVuSans-101"/>
      <use x="637.060547" xlink:href="#DejaVuSans-113"/>
     </g>
    </g>
   </g>
   <g id="line2d_12">
    <path clip-path="url(#pb95b4acd67)" d="M 63.664545 24.873485 
L 64.548018 24.869431 
L 65.673805 24.869151 
L 67.108368 24.867025 
L 68.936395 24.890852 
L 71.265804 24.769664 
L 74.234112 24.769573 
L 78.016552 24.766617 
L 82.836421 24.773396 
L 88.97826 24.76182 
L 96.804652 24.747458 
L 106.777626 24.458686 
L 119.485939 24.436957 
L 135.679823 24.472487 
L 156.315285 24.468726 
L 182.610539 24.110909 
L 216.117922 24.761095 
L 258.815542 25.035473 
L 313.224052 24.704881 
L 382.555455 24.74931 
" style="fill:none;stroke:#1f77b4;stroke-linecap:square;stroke-width:1.5;"/>
    <defs>
     <path d="M 0 1.5 
C 0.397805 1.5 0.77937 1.341951 1.06066 1.06066 
C 1.341951 0.77937 1.5 0.397805 1.5 0 
C 1.5 -0.397805 1.341951 -0.77937 1.06066 -1.06066 
C 0.77937 -1.341951 0.397805 -1.5 0 -1.5 
C -0.397805 -1.5 -0.77937 -1.341951 -1.06066 -1.06066 
C -1.341951 -0.77937 -1.5 -0.397805 -1.5 0 
C -1.5 0.397805 -1.341951 0.77937 -1.06066 1.06066 
C -0.77937 1.341951 -0.397805 1.5 0 1.5 
z
" id="m2c0e2d93cb" style="stroke:#1f77b4;"/>
    </defs>
    <g clip-path="url(#pb95b4acd67)">
     <use style="fill:#1f77b4;stroke:#1f77b4;" x="63.664545" xlink:href="#m2c0e2d93cb" y="24.873485"/>
     <use style="fill:#1f77b4;stroke:#1f77b4;" x="64.548018" xlink:href="#m2c0e2d93cb" y="24.869431"/>
     <use style="fill:#1f77b4;stroke:#1f77b4;" x="65.673805" xlink:href="#m2c0e2d93cb" y="24.869151"/>
     <use style="fill:#1f77b4;stroke:#1f77b4;" x="67.108368" xlink:href="#m2c0e2d93cb" y="24.867025"/>
     <use style="fill:#1f77b4;stroke:#1f77b4;" x="68.936395" xlink:href="#m2c0e2d93cb" y="24.890852"/>
     <use style="fill:#1f77b4;stroke:#1f77b4;" x="71.265804" xlink:href="#m2c0e2d93cb" y="24.769664"/>
     <use style="fill:#1f77b4;stroke:#1f77b4;" x="74.234112" xlink:href="#m2c0e2d93cb" y="24.769573"/>
     <use style="fill:#1f77b4;stroke:#1f77b4;" x="78.016552" xlink:href="#m2c0e2d93cb" y="24.766617"/>
     <use style="fill:#1f77b4;stroke:#1f77b4;" x="82.836421" xlink:href="#m2c0e2d93cb" y="24.773396"/>
     <use style="fill:#1f77b4;stroke:#1f77b4;" x="88.97826" xlink:href="#m2c0e2d93cb" y="24.76182"/>
     <use style="fill:#1f77b4;stroke:#1f77b4;" x="96.804652" xlink:href="#m2c0e2d93cb" y="24.747458"/>
     <use style="fill:#1f77b4;stroke:#1f77b4;" x="106.777626" xlink:href="#m2c0e2d93cb" y="24.458686"/>
     <use style="fill:#1f77b4;stroke:#1f77b4;" x="119.485939" xlink:href="#m2c0e2d93cb" y="24.436957"/>
     <use style="fill:#1f77b4;stroke:#1f77b4;" x="135.679823" xlink:href="#m2c0e2d93cb" y="24.472487"/>
     <use style="fill:#1f77b4;stroke:#1f77b4;" x="156.315285" xlink:href="#m2c0e2d93cb" y="24.468726"/>
     <use style="fill:#1f77b4;stroke:#1f77b4;" x="182.610539" xlink:href="#m2c0e2d93cb" y="24.110909"/>
     <use style="fill:#1f77b4;stroke:#1f77b4;" x="216.117922" xlink:href="#m2c0e2d93cb" y="24.761095"/>
     <use style="fill:#1f77b4;stroke:#1f77b4;" x="258.815542" xlink:href="#m2c0e2d93cb" y="25.035473"/>
     <use style="fill:#1f77b4;stroke:#1f77b4;" x="313.224052" xlink:href="#m2c0e2d93cb" y="24.704881"/>
     <use style="fill:#1f77b4;stroke:#1f77b4;" x="382.555455" xlink:href="#m2c0e2d93cb" y="24.74931"/>
    </g>
   </g>
   <g id="line2d_13">
    <path clip-path="url(#pb95b4acd67)" d="M 63.664545 290.329091 
L 64.548018 290.329091 
L 65.673805 290.329091 
L 67.108368 290.329091 
L 68.936395 290.329091 
L 71.265804 290.329091 
L 74.234112 290.329091 
L 78.016552 290.329091 
L 82.836421 290.329091 
L 88.97826 290.329091 
L 96.804652 290.329091 
L 106.777626 290.329091 
L 119.485939 290.329091 
L 135.679823 290.329091 
L 156.315285 290.329091 
L 182.610539 290.329091 
L 216.117922 290.329091 
L 258.815542 290.329091 
L 313.224052 290.329091 
L 382.555455 290.329091 
" style="fill:none;stroke:#ff7f0e;stroke-linecap:square;stroke-width:1.5;"/>
    <defs>
     <path d="M 0 1.5 
C 0.397805 1.5 0.77937 1.341951 1.06066 1.06066 
C 1.341951 0.77937 1.5 0.397805 1.5 0 
C 1.5 -0.397805 1.341951 -0.77937 1.06066 -1.06066 
C 0.77937 -1.341951 0.397805 -1.5 0 -1.5 
C -0.397805 -1.5 -0.77937 -1.341951 -1.06066 -1.06066 
C -1.341951 -0.77937 -1.5 -0.397805 -1.5 0 
C -1.5 0.397805 -1.341951 0.77937 -1.06066 1.06066 
C -0.77937 1.341951 -0.397805 1.5 0 1.5 
z
" id="m7933621279" style="stroke:#ff7f0e;"/>
    </defs>
    <g clip-path="url(#pb95b4acd67)">
     <use style="fill:#ff7f0e;stroke:#ff7f0e;" x="63.664545" xlink:href="#m7933621279" y="290.329091"/>
     <use style="fill:#ff7f0e;stroke:#ff7f0e;" x="64.548018" xlink:href="#m7933621279" y="290.329091"/>
     <use style="fill:#ff7f0e;stroke:#ff7f0e;" x="65.673805" xlink:href="#m7933621279" y="290.329091"/>
     <use style="fill:#ff7f0e;stroke:#ff7f0e;" x="67.108368" xlink:href="#m7933621279" y="290.329091"/>
     <use style="fill:#ff7f0e;stroke:#ff7f0e;" x="68.936395" xlink:href="#m7933621279" y="290.329091"/>
     <use style="fill:#ff7f0e;stroke:#ff7f0e;" x="71.265804" xlink:href="#m7933621279" y="290.329091"/>
     <use style="fill:#ff7f0e;stroke:#ff7f0e;" x="74.234112" xlink:href="#m7933621279" y="290.329091"/>
     <use style="fill:#ff7f0e;stroke:#ff7f0e;" x="78.016552" xlink:href="#m7933621279" y="290.329091"/>
     <use style="fill:#ff7f0e;stroke:#ff7f0e;" x="82.836421" xlink:href="#m7933621279" y="290.329091"/>
     <use style="fill:#ff7f0e;stroke:#ff7f0e;" x="88.97826" xlink:href="#m7933621279" y="290.329091"/>
     <use style="fill:#ff7f0e;stroke:#ff7f0e;" x="96.804652" xlink:href="#m7933621279" y="290.329091"/>
     <use style="fill:#ff7f0e;stroke:#ff7f0e;" x="106.777626" xlink:href="#m7933621279" y="290.329091"/>
     <use style="fill:#ff7f0e;stroke:#ff7f0e;" x="119.485939" xlink:href="#m7933621279" y="290.329091"/>
     <use style="fill:#ff7f0e;stroke:#ff7f0e;" x="135.679823" xlink:href="#m7933621279" y="290.329091"/>
     <use style="fill:#ff7f0e;stroke:#ff7f0e;" x="156.315285" xlink:href="#m7933621279" y="290.329091"/>
     <use style="fill:#ff7f0e;stroke:#ff7f0e;" x="182.610539" xlink:href="#m7933621279" y="290.329091"/>
     <use style="fill:#ff7f0e;stroke:#ff7f0e;" x="216.117922" xlink:href="#m7933621279" y="290.329091"/>
     <use style="fill:#ff7f0e;stroke:#ff7f0e;" x="258.815542" xlink:href="#m7933621279" y="290.329091"/>
     <use style="fill:#ff7f0e;stroke:#ff7f0e;" x="313.224052" xlink:href="#m7933621279" y="290.329091"/>
     <use style="fill:#ff7f0e;stroke:#ff7f0e;" x="382.555455" xlink:href="#m7933621279" y="290.329091"/>
    </g>
   </g>
   <g id="patch_3">
    <path d="M 47.72 303.64 
L 47.72 10.8 
" style="fill:none;stroke:#000000;stroke-linecap:square;stroke-linejoin:miter;stroke-width:0.8;"/>
   </g>
   <g id="patch_4">
    <path d="M 398.5 303.64 
L 398.5 10.8 
" style="fill:none;stroke:#000000;stroke-linecap:square;stroke-linejoin:miter;stroke-width:0.8;"/>
   </g>
   <g id="patch_5">
    <path d="M 47.72 303.64 
L 398.5 303.64 
" style="fill:none;stroke:#000000;stroke-linecap:square;stroke-linejoin:miter;stroke-width:0.8;"/>
   </g>
   <g id="patch_6">
    <path d="M 47.72 10.8 
L 398.5 10.8 
" style="fill:none;stroke:#000000;stroke-linecap:square;stroke-linejoin:miter;stroke-width:0.8;"/>
   </g>
   <g id="legend_1">
    <g id="patch_7">
     <path d="M 340.296875 173.398125 
L 391.5 173.398125 
Q 393.5 173.398125 393.5 171.398125 
L 393.5 143.041875 
Q 393.5 141.041875 391.5 141.041875 
L 340.296875 141.041875 
Q 338.296875 141.041875 338.296875 143.041875 
L 338.296875 171.398125 
Q 338.296875 173.398125 340.296875 173.398125 
z
" style="fill:#ffffff;opacity:0.8;stroke:#cccccc;stroke-linejoin:miter;"/>
    </g>
    <g id="line2d_14">
     <path d="M 342.296875 149.140312 
L 362.296875 149.140312 
" style="fill:none;stroke:#1f77b4;stroke-linecap:square;stroke-width:1.5;"/>
    </g>
    <g id="line2d_15">
     <g>
      <use style="fill:#1f77b4;stroke:#1f77b4;" x="352.296875" xlink:href="#m2c0e2d93cb" y="149.140312"/>
     </g>
    </g>
    <g id="text_14">
     <!-- o2 -->
     <g transform="translate(370.296875 152.640312)scale(0.1 -0.1)">
      <use xlink:href="#DejaVuSans-111"/>
      <use x="61.181641" xlink:href="#DejaVuSans-50"/>
     </g>
    </g>
    <g id="line2d_16">
     <path d="M 342.296875 163.818437 
L 362.296875 163.818437 
" style="fill:none;stroke:#ff7f0e;stroke-linecap:square;stroke-width:1.5;"/>
    </g>
    <g id="line2d_17">
     <g>
      <use style="fill:#ff7f0e;stroke:#ff7f0e;" x="352.296875" xlink:href="#m7933621279" y="163.818437"/>
     </g>
    </g>
    <g id="text_15">
     <!-- test -->
     <g transform="translate(370.296875 167.318437)scale(0.1 -0.1)">
      <use xlink:href="#DejaVuSans-116"/>
      <use x="39.208984" xlink:href="#DejaVuSans-101"/>
      <use x="100.732422" xlink:href="#DejaVuSans-115"/>
      <use x="152.832031" xlink:href="#DejaVuSans-116"/>
     </g>
    </g>
   </g>
  </g>
  <g id="axes_2">
   <g id="matplotlib.axis_3">
    <g id="ytick_6">
     <g id="line2d_18">
      <defs>
       <path d="M 0 0 
L 3.5 0 
" id="m6fb48643bd" style="stroke:#000000;stroke-width:0.8;"/>
      </defs>
      <g>
       <use style="stroke:#000000;stroke-width:0.8;" x="398.5" xlink:href="#m6fb48643bd" y="263.707273"/>
      </g>
     </g>
     <g id="text_16">
      <!-- −0.04 -->
      <g style="fill:#d62728;" transform="translate(405.5 267.506491)scale(0.1 -0.1)">
       <defs>
        <path d="M 10.59375 35.5 
L 73.1875 35.5 
L 73.1875 27.203125 
L 10.59375 27.203125 
z
" id="DejaVuSans-8722"/>
       </defs>
       <use xlink:href="#DejaVuSans-8722"/>
       <use x="83.789062" xlink:href="#DejaVuSans-48"/>
       <use x="147.412109" xlink:href="#DejaVuSans-46"/>
       <use x="179.199219" xlink:href="#DejaVuSans-48"/>
       <use x="242.822266" xlink:href="#DejaVuSans-52"/>
      </g>
     </g>
    </g>
    <g id="ytick_7">
     <g id="line2d_19">
      <g>
       <use style="stroke:#000000;stroke-width:0.8;" x="398.5" xlink:href="#m6fb48643bd" y="210.463636"/>
      </g>
     </g>
     <g id="text_17">
      <!-- −0.02 -->
      <g style="fill:#d62728;" transform="translate(405.5 214.262855)scale(0.1 -0.1)">
       <use xlink:href="#DejaVuSans-8722"/>
       <use x="83.789062" xlink:href="#DejaVuSans-48"/>
       <use x="147.412109" xlink:href="#DejaVuSans-46"/>
       <use x="179.199219" xlink:href="#DejaVuSans-48"/>
       <use x="242.822266" xlink:href="#DejaVuSans-50"/>
      </g>
     </g>
    </g>
    <g id="ytick_8">
     <g id="line2d_20">
      <g>
       <use style="stroke:#000000;stroke-width:0.8;" x="398.5" xlink:href="#m6fb48643bd" y="157.22"/>
      </g>
     </g>
     <g id="text_18">
      <!-- 0.00 -->
      <g style="fill:#d62728;" transform="translate(405.5 161.019219)scale(0.1 -0.1)">
       <use xlink:href="#DejaVuSans-48"/>
       <use x="63.623047" xlink:href="#DejaVuSans-46"/>
       <use x="95.410156" xlink:href="#DejaVuSans-48"/>
       <use x="159.033203" xlink:href="#DejaVuSans-48"/>
      </g>
     </g>
    </g>
    <g id="ytick_9">
     <g id="line2d_21">
      <g>
       <use style="stroke:#000000;stroke-width:0.8;" x="398.5" xlink:href="#m6fb48643bd" y="103.976364"/>
      </g>
     </g>
     <g id="text_19">
      <!-- 0.02 -->
      <g style="fill:#d62728;" transform="translate(405.5 107.775582)scale(0.1 -0.1)">
       <use xlink:href="#DejaVuSans-48"/>
       <use x="63.623047" xlink:href="#DejaVuSans-46"/>
       <use x="95.410156" xlink:href="#DejaVuSans-48"/>
       <use x="159.033203" xlink:href="#DejaVuSans-50"/>
      </g>
     </g>
    </g>
    <g id="ytick_10">
     <g id="line2d_22">
      <g>
       <use style="stroke:#000000;stroke-width:0.8;" x="398.5" xlink:href="#m6fb48643bd" y="50.732727"/>
      </g>
     </g>
     <g id="text_20">
      <!-- 0.04 -->
      <g style="fill:#d62728;" transform="translate(405.5 54.531946)scale(0.1 -0.1)">
       <use xlink:href="#DejaVuSans-48"/>
       <use x="63.623047" xlink:href="#DejaVuSans-46"/>
       <use x="95.410156" xlink:href="#DejaVuSans-48"/>
       <use x="159.033203" xlink:href="#DejaVuSans-52"/>
      </g>
     </g>
    </g>
    <g id="text_21">
     <!-- Tpro_eq -->
     <g style="fill:#d62728;" transform="translate(447.465625 177.20125)rotate(-90)scale(0.1 -0.1)">
      <use xlink:href="#DejaVuSans-84"/>
      <use x="61.083984" xlink:href="#DejaVuSans-112"/>
      <use x="124.560547" xlink:href="#DejaVuSans-114"/>
      <use x="163.423828" xlink:href="#DejaVuSans-111"/>
      <use x="224.605469" xlink:href="#DejaVuSans-95"/>
      <use x="274.605469" xlink:href="#DejaVuSans-101"/>
      <use x="336.128906" xlink:href="#DejaVuSans-113"/>
     </g>
    </g>
   </g>
   <g id="line2d_23">
    <path clip-path="url(#pb95b4acd67)" d="M 63.664545 157.22 
L 64.548018 157.22 
L 65.673805 157.22 
L 67.108368 157.22 
L 68.936395 157.22 
L 71.265804 157.22 
L 74.234112 157.22 
L 78.016552 157.22 
L 82.836421 157.22 
L 88.97826 157.22 
L 96.804652 157.22 
L 106.777626 157.22 
L 119.485939 157.22 
L 135.679823 157.22 
L 156.315285 157.22 
L 182.610539 157.22 
L 216.117922 157.22 
L 258.815542 157.22 
L 313.224052 157.22 
L 382.555455 157.22 
" style="fill:none;stroke:#d62728;stroke-linecap:square;stroke-width:1.5;"/>
    <defs>
     <path d="M 0 1.5 
C 0.397805 1.5 0.77937 1.341951 1.06066 1.06066 
C 1.341951 0.77937 1.5 0.397805 1.5 0 
C 1.5 -0.397805 1.341951 -0.77937 1.06066 -1.06066 
C 0.77937 -1.341951 0.397805 -1.5 0 -1.5 
C -0.397805 -1.5 -0.77937 -1.341951 -1.06066 -1.06066 
C -1.341951 -0.77937 -1.5 -0.397805 -1.5 0 
C -1.5 0.397805 -1.341951 0.77937 -1.06066 1.06066 
C -0.77937 1.341951 -0.397805 1.5 0 1.5 
z
" id="m311bd19d27" style="stroke:#d62728;"/>
    </defs>
    <g clip-path="url(#pb95b4acd67)">
     <use style="fill:#d62728;stroke:#d62728;" x="63.664545" xlink:href="#m311bd19d27" y="157.22"/>
     <use style="fill:#d62728;stroke:#d62728;" x="64.548018" xlink:href="#m311bd19d27" y="157.22"/>
     <use style="fill:#d62728;stroke:#d62728;" x="65.673805" xlink:href="#m311bd19d27" y="157.22"/>
     <use style="fill:#d62728;stroke:#d62728;" x="67.108368" xlink:href="#m311bd19d27" y="157.22"/>
     <use style="fill:#d62728;stroke:#d62728;" x="68.936395" xlink:href="#m311bd19d27" y="157.22"/>
     <use style="fill:#d62728;stroke:#d62728;" x="71.265804" xlink:href="#m311bd19d27" y="157.22"/>
     <use style="fill:#d62728;stroke:#d62728;" x="74.234112" xlink:href="#m311bd19d27" y="157.22"/>
     <use style="fill:#d62728;stroke:#d62728;" x="78.016552" xlink:href="#m311bd19d27" y="157.22"/>
     <use style="fill:#d62728;stroke:#d62728;" x="82.836421" xlink:href="#m311bd19d27" y="157.22"/>
     <use style="fill:#d62728;stroke:#d62728;" x="88.97826" xlink:href="#m311bd19d27" y="157.22"/>
     <use style="fill:#d62728;stroke:#d62728;" x="96.804652" xlink:href="#m311bd19d27" y="157.22"/>
     <use style="fill:#d62728;stroke:#d62728;" x="106.777626" xlink:href="#m311bd19d27" y="157.22"/>
     <use style="fill:#d62728;stroke:#d62728;" x="119.485939" xlink:href="#m311bd19d27" y="157.22"/>
     <use style="fill:#d62728;stroke:#d62728;" x="135.679823" xlink:href="#m311bd19d27" y="157.22"/>
     <use style="fill:#d62728;stroke:#d62728;" x="156.315285" xlink:href="#m311bd19d27" y="157.22"/>
     <use style="fill:#d62728;stroke:#d62728;" x="182.610539" xlink:href="#m311bd19d27" y="157.22"/>
     <use style="fill:#d62728;stroke:#d62728;" x="216.117922" xlink:href="#m311bd19d27" y="157.22"/>
     <use style="fill:#d62728;stroke:#d62728;" x="258.815542" xlink:href="#m311bd19d27" y="157.22"/>
     <use style="fill:#d62728;stroke:#d62728;" x="313.224052" xlink:href="#m311bd19d27" y="157.22"/>
     <use style="fill:#d62728;stroke:#d62728;" x="382.555455" xlink:href="#m311bd19d27" y="157.22"/>
    </g>
   </g>
   <g id="patch_8">
    <path d="M 47.72 303.64 
L 47.72 10.8 
" style="fill:none;stroke:#000000;stroke-linecap:square;stroke-linejoin:miter;stroke-width:0.8;"/>
   </g>
   <g id="patch_9">
    <path d="M 398.5 303.64 
L 398.5 10.8 
" style="fill:none;stroke:#000000;stroke-linecap:square;stroke-linejoin:miter;stroke-width:0.8;"/>
   </g>
   <g id="patch_10">
    <path d="M 47.72 303.64 
L 398.5 303.64 
" style="fill:none;stroke:#000000;stroke-linecap:square;stroke-linejoin:miter;stroke-width:0.8;"/>
   </g>
   <g id="patch_11">
    <path d="M 47.72 10.8 
L 398.5 10.8 
" style="fill:none;stroke:#000000;stroke-linecap:square;stroke-linejoin:miter;stroke-width:0.8;"/>
   </g>
  </g>
 </g>
 <defs>
  <clipPath id="pb95b4acd67">
   <rect height="292.84" width="350.78" x="47.72" y="10.8"/>
  </clipPath>
 </defs>
</svg>
