<?xml version="1.0" encoding="utf-8" standalone="no"?>
<!DOCTYPE svg PUBLIC "-//W3C//DTD SVG 1.1//EN"
  "http://www.w3.org/Graphics/SVG/1.1/DTD/svg11.dtd">
<!-- Created with matplotlib (https://matplotlib.org/) -->
<svg height="345.6pt" version="1.1" viewBox="0 0 460.8 345.6" width="460.8pt" xmlns="http://www.w3.org/2000/svg" xmlns:xlink="http://www.w3.org/1999/xlink">
 <metadata>
  <rdf:RDF xmlns:cc="http://creativecommons.org/ns#" xmlns:dc="http://purl.org/dc/elements/1.1/" xmlns:rdf="http://www.w3.org/1999/02/22-rdf-syntax-ns#">
   <cc:Work>
    <dc:type rdf:resource="http://purl.org/dc/dcmitype/StillImage"/>
    <dc:date>2020-10-24T13:52:07.841787</dc:date>
    <dc:format>image/svg+xml</dc:format>
    <dc:creator>
     <cc:Agent>
      <dc:title>Matplotlib v3.3.2, https://matplotlib.org/</dc:title>
     </cc:Agent>
    </dc:creator>
   </cc:Work>
  </rdf:RDF>
 </metadata>
 <defs>
  <style type="text/css">*{stroke-linecap:butt;stroke-linejoin:round;}</style>
 </defs>
 <g id="figure_1">
  <g id="patch_1">
   <path d="M 0 345.6 
L 460.8 345.6 
L 460.8 0 
L 0 0 
z
" style="fill:#ffffff;"/>
  </g>
  <g id="axes_1">
   <g id="patch_2">
    <path d="M 57.6 307.584 
L 414.72 307.584 
L 414.72 41.472 
L 57.6 41.472 
z
" style="fill:#ffffff;"/>
   </g>
   <g id="matplotlib.axis_1">
    <g id="xtick_1">
     <g id="line2d_1">
      <defs>
       <path d="M 0 0 
L 0 3.5 
" id="me9fad165ed" style="stroke:#000000;stroke-width:0.8;"/>
      </defs>
      <g>
       <use style="stroke:#000000;stroke-width:0.8;" x="73.832727" xlink:href="#me9fad165ed" y="307.584"/>
      </g>
     </g>
     <g id="text_1">
      <!-- 0.0 -->
      <g transform="translate(65.881165 322.182437)scale(0.1 -0.1)">
       <defs>
        <path d="M 31.78125 66.40625 
Q 24.171875 66.40625 20.328125 58.90625 
Q 16.5 51.421875 16.5 36.375 
Q 16.5 21.390625 20.328125 13.890625 
Q 24.171875 6.390625 31.78125 6.390625 
Q 39.453125 6.390625 43.28125 13.890625 
Q 47.125 21.390625 47.125 36.375 
Q 47.125 51.421875 43.28125 58.90625 
Q 39.453125 66.40625 31.78125 66.40625 
z
M 31.78125 74.21875 
Q 44.046875 74.21875 50.515625 64.515625 
Q 56.984375 54.828125 56.984375 36.375 
Q 56.984375 17.96875 50.515625 8.265625 
Q 44.046875 -1.421875 31.78125 -1.421875 
Q 19.53125 -1.421875 13.0625 8.265625 
Q 6.59375 17.96875 6.59375 36.375 
Q 6.59375 54.828125 13.0625 64.515625 
Q 19.53125 74.21875 31.78125 74.21875 
z
" id="DejaVuSans-48"/>
        <path d="M 10.6875 12.40625 
L 21 12.40625 
L 21 0 
L 10.6875 0 
z
" id="DejaVuSans-46"/>
       </defs>
       <use xlink:href="#DejaVuSans-48"/>
       <use x="63.623047" xlink:href="#DejaVuSans-46"/>
       <use x="95.410156" xlink:href="#DejaVuSans-48"/>
      </g>
     </g>
    </g>
    <g id="xtick_2">
     <g id="line2d_2">
      <g>
       <use style="stroke:#000000;stroke-width:0.8;" x="118.925515" xlink:href="#me9fad165ed" y="307.584"/>
      </g>
     </g>
     <g id="text_2">
      <!-- 0.2 -->
      <g transform="translate(110.973953 322.182437)scale(0.1 -0.1)">
       <defs>
        <path d="M 19.1875 8.296875 
L 53.609375 8.296875 
L 53.609375 0 
L 7.328125 0 
L 7.328125 8.296875 
Q 12.9375 14.109375 22.625 23.890625 
Q 32.328125 33.6875 34.8125 36.53125 
Q 39.546875 41.84375 41.421875 45.53125 
Q 43.3125 49.21875 43.3125 52.78125 
Q 43.3125 58.59375 39.234375 62.25 
Q 35.15625 65.921875 28.609375 65.921875 
Q 23.96875 65.921875 18.8125 64.3125 
Q 13.671875 62.703125 7.8125 59.421875 
L 7.8125 69.390625 
Q 13.765625 71.78125 18.9375 73 
Q 24.125 74.21875 28.421875 74.21875 
Q 39.75 74.21875 46.484375 68.546875 
Q 53.21875 62.890625 53.21875 53.421875 
Q 53.21875 48.921875 51.53125 44.890625 
Q 49.859375 40.875 45.40625 35.40625 
Q 44.1875 33.984375 37.640625 27.21875 
Q 31.109375 20.453125 19.1875 8.296875 
z
" id="DejaVuSans-50"/>
       </defs>
       <use xlink:href="#DejaVuSans-48"/>
       <use x="63.623047" xlink:href="#DejaVuSans-46"/>
       <use x="95.410156" xlink:href="#DejaVuSans-50"/>
      </g>
     </g>
    </g>
    <g id="xtick_3">
     <g id="line2d_3">
      <g>
       <use style="stroke:#000000;stroke-width:0.8;" x="164.018303" xlink:href="#me9fad165ed" y="307.584"/>
      </g>
     </g>
     <g id="text_3">
      <!-- 0.4 -->
      <g transform="translate(156.066741 322.182437)scale(0.1 -0.1)">
       <defs>
        <path d="M 37.796875 64.3125 
L 12.890625 25.390625 
L 37.796875 25.390625 
z
M 35.203125 72.90625 
L 47.609375 72.90625 
L 47.609375 25.390625 
L 58.015625 25.390625 
L 58.015625 17.1875 
L 47.609375 17.1875 
L 47.609375 0 
L 37.796875 0 
L 37.796875 17.1875 
L 4.890625 17.1875 
L 4.890625 26.703125 
z
" id="DejaVuSans-52"/>
       </defs>
       <use xlink:href="#DejaVuSans-48"/>
       <use x="63.623047" xlink:href="#DejaVuSans-46"/>
       <use x="95.410156" xlink:href="#DejaVuSans-52"/>
      </g>
     </g>
    </g>
    <g id="xtick_4">
     <g id="line2d_4">
      <g>
       <use style="stroke:#000000;stroke-width:0.8;" x="209.111091" xlink:href="#me9fad165ed" y="307.584"/>
      </g>
     </g>
     <g id="text_4">
      <!-- 0.6 -->
      <g transform="translate(201.159529 322.182437)scale(0.1 -0.1)">
       <defs>
        <path d="M 33.015625 40.375 
Q 26.375 40.375 22.484375 35.828125 
Q 18.609375 31.296875 18.609375 23.390625 
Q 18.609375 15.53125 22.484375 10.953125 
Q 26.375 6.390625 33.015625 6.390625 
Q 39.65625 6.390625 43.53125 10.953125 
Q 47.40625 15.53125 47.40625 23.390625 
Q 47.40625 31.296875 43.53125 35.828125 
Q 39.65625 40.375 33.015625 40.375 
z
M 52.59375 71.296875 
L 52.59375 62.3125 
Q 48.875 64.0625 45.09375 64.984375 
Q 41.3125 65.921875 37.59375 65.921875 
Q 27.828125 65.921875 22.671875 59.328125 
Q 17.53125 52.734375 16.796875 39.40625 
Q 19.671875 43.65625 24.015625 45.921875 
Q 28.375 48.1875 33.59375 48.1875 
Q 44.578125 48.1875 50.953125 41.515625 
Q 57.328125 34.859375 57.328125 23.390625 
Q 57.328125 12.15625 50.6875 5.359375 
Q 44.046875 -1.421875 33.015625 -1.421875 
Q 20.359375 -1.421875 13.671875 8.265625 
Q 6.984375 17.96875 6.984375 36.375 
Q 6.984375 53.65625 15.1875 63.9375 
Q 23.390625 74.21875 37.203125 74.21875 
Q 40.921875 74.21875 44.703125 73.484375 
Q 48.484375 72.75 52.59375 71.296875 
z
" id="DejaVuSans-54"/>
       </defs>
       <use xlink:href="#DejaVuSans-48"/>
       <use x="63.623047" xlink:href="#DejaVuSans-46"/>
       <use x="95.410156" xlink:href="#DejaVuSans-54"/>
      </g>
     </g>
    </g>
    <g id="xtick_5">
     <g id="line2d_5">
      <g>
       <use style="stroke:#000000;stroke-width:0.8;" x="254.203879" xlink:href="#me9fad165ed" y="307.584"/>
      </g>
     </g>
     <g id="text_5">
      <!-- 0.8 -->
      <g transform="translate(246.252317 322.182437)scale(0.1 -0.1)">
       <defs>
        <path d="M 31.78125 34.625 
Q 24.75 34.625 20.71875 30.859375 
Q 16.703125 27.09375 16.703125 20.515625 
Q 16.703125 13.921875 20.71875 10.15625 
Q 24.75 6.390625 31.78125 6.390625 
Q 38.8125 6.390625 42.859375 10.171875 
Q 46.921875 13.96875 46.921875 20.515625 
Q 46.921875 27.09375 42.890625 30.859375 
Q 38.875 34.625 31.78125 34.625 
z
M 21.921875 38.8125 
Q 15.578125 40.375 12.03125 44.71875 
Q 8.5 49.078125 8.5 55.328125 
Q 8.5 64.0625 14.71875 69.140625 
Q 20.953125 74.21875 31.78125 74.21875 
Q 42.671875 74.21875 48.875 69.140625 
Q 55.078125 64.0625 55.078125 55.328125 
Q 55.078125 49.078125 51.53125 44.71875 
Q 48 40.375 41.703125 38.8125 
Q 48.828125 37.15625 52.796875 32.3125 
Q 56.78125 27.484375 56.78125 20.515625 
Q 56.78125 9.90625 50.3125 4.234375 
Q 43.84375 -1.421875 31.78125 -1.421875 
Q 19.734375 -1.421875 13.25 4.234375 
Q 6.78125 9.90625 6.78125 20.515625 
Q 6.78125 27.484375 10.78125 32.3125 
Q 14.796875 37.15625 21.921875 38.8125 
z
M 18.3125 54.390625 
Q 18.3125 48.734375 21.84375 45.5625 
Q 25.390625 42.390625 31.78125 42.390625 
Q 38.140625 42.390625 41.71875 45.5625 
Q 45.3125 48.734375 45.3125 54.390625 
Q 45.3125 60.0625 41.71875 63.234375 
Q 38.140625 66.40625 31.78125 66.40625 
Q 25.390625 66.40625 21.84375 63.234375 
Q 18.3125 60.0625 18.3125 54.390625 
z
" id="DejaVuSans-56"/>
       </defs>
       <use xlink:href="#DejaVuSans-48"/>
       <use x="63.623047" xlink:href="#DejaVuSans-46"/>
       <use x="95.410156" xlink:href="#DejaVuSans-56"/>
      </g>
     </g>
    </g>
    <g id="xtick_6">
     <g id="line2d_6">
      <g>
       <use style="stroke:#000000;stroke-width:0.8;" x="299.296667" xlink:href="#me9fad165ed" y="307.584"/>
      </g>
     </g>
     <g id="text_6">
      <!-- 1.0 -->
      <g transform="translate(291.345105 322.182437)scale(0.1 -0.1)">
       <defs>
        <path d="M 12.40625 8.296875 
L 28.515625 8.296875 
L 28.515625 63.921875 
L 10.984375 60.40625 
L 10.984375 69.390625 
L 28.421875 72.90625 
L 38.28125 72.90625 
L 38.28125 8.296875 
L 54.390625 8.296875 
L 54.390625 0 
L 12.40625 0 
z
" id="DejaVuSans-49"/>
       </defs>
       <use xlink:href="#DejaVuSans-49"/>
       <use x="63.623047" xlink:href="#DejaVuSans-46"/>
       <use x="95.410156" xlink:href="#DejaVuSans-48"/>
      </g>
     </g>
    </g>
    <g id="xtick_7">
     <g id="line2d_7">
      <g>
       <use style="stroke:#000000;stroke-width:0.8;" x="344.389455" xlink:href="#me9fad165ed" y="307.584"/>
      </g>
     </g>
     <g id="text_7">
      <!-- 1.2 -->
      <g transform="translate(336.437893 322.182437)scale(0.1 -0.1)">
       <use xlink:href="#DejaVuSans-49"/>
       <use x="63.623047" xlink:href="#DejaVuSans-46"/>
       <use x="95.410156" xlink:href="#DejaVuSans-50"/>
      </g>
     </g>
    </g>
    <g id="xtick_8">
     <g id="line2d_8">
      <g>
       <use style="stroke:#000000;stroke-width:0.8;" x="389.482243" xlink:href="#me9fad165ed" y="307.584"/>
      </g>
     </g>
     <g id="text_8">
      <!-- 1.4 -->
      <g transform="translate(381.53068 322.182437)scale(0.1 -0.1)">
       <use xlink:href="#DejaVuSans-49"/>
       <use x="63.623047" xlink:href="#DejaVuSans-46"/>
       <use x="95.410156" xlink:href="#DejaVuSans-52"/>
      </g>
     </g>
    </g>
    <g id="text_9">
     <!-- Time (min) -->
     <g transform="translate(209.007656 335.860562)scale(0.1 -0.1)">
      <defs>
       <path d="M -0.296875 72.90625 
L 61.375 72.90625 
L 61.375 64.59375 
L 35.5 64.59375 
L 35.5 0 
L 25.59375 0 
L 25.59375 64.59375 
L -0.296875 64.59375 
z
" id="DejaVuSans-84"/>
       <path d="M 9.421875 54.6875 
L 18.40625 54.6875 
L 18.40625 0 
L 9.421875 0 
z
M 9.421875 75.984375 
L 18.40625 75.984375 
L 18.40625 64.59375 
L 9.421875 64.59375 
z
" id="DejaVuSans-105"/>
       <path d="M 52 44.1875 
Q 55.375 50.25 60.0625 53.125 
Q 64.75 56 71.09375 56 
Q 79.640625 56 84.28125 50.015625 
Q 88.921875 44.046875 88.921875 33.015625 
L 88.921875 0 
L 79.890625 0 
L 79.890625 32.71875 
Q 79.890625 40.578125 77.09375 44.375 
Q 74.3125 48.1875 68.609375 48.1875 
Q 61.625 48.1875 57.5625 43.546875 
Q 53.515625 38.921875 53.515625 30.90625 
L 53.515625 0 
L 44.484375 0 
L 44.484375 32.71875 
Q 44.484375 40.625 41.703125 44.40625 
Q 38.921875 48.1875 33.109375 48.1875 
Q 26.21875 48.1875 22.15625 43.53125 
Q 18.109375 38.875 18.109375 30.90625 
L 18.109375 0 
L 9.078125 0 
L 9.078125 54.6875 
L 18.109375 54.6875 
L 18.109375 46.1875 
Q 21.1875 51.21875 25.484375 53.609375 
Q 29.78125 56 35.6875 56 
Q 41.65625 56 45.828125 52.96875 
Q 50 49.953125 52 44.1875 
z
" id="DejaVuSans-109"/>
       <path d="M 56.203125 29.59375 
L 56.203125 25.203125 
L 14.890625 25.203125 
Q 15.484375 15.921875 20.484375 11.0625 
Q 25.484375 6.203125 34.421875 6.203125 
Q 39.59375 6.203125 44.453125 7.46875 
Q 49.3125 8.734375 54.109375 11.28125 
L 54.109375 2.78125 
Q 49.265625 0.734375 44.1875 -0.34375 
Q 39.109375 -1.421875 33.890625 -1.421875 
Q 20.796875 -1.421875 13.15625 6.1875 
Q 5.515625 13.8125 5.515625 26.8125 
Q 5.515625 40.234375 12.765625 48.109375 
Q 20.015625 56 32.328125 56 
Q 43.359375 56 49.78125 48.890625 
Q 56.203125 41.796875 56.203125 29.59375 
z
M 47.21875 32.234375 
Q 47.125 39.59375 43.09375 43.984375 
Q 39.0625 48.390625 32.421875 48.390625 
Q 24.90625 48.390625 20.390625 44.140625 
Q 15.875 39.890625 15.1875 32.171875 
z
" id="DejaVuSans-101"/>
       <path id="DejaVuSans-32"/>
       <path d="M 31 75.875 
Q 24.46875 64.65625 21.28125 53.65625 
Q 18.109375 42.671875 18.109375 31.390625 
Q 18.109375 20.125 21.3125 9.0625 
Q 24.515625 -2 31 -13.1875 
L 23.1875 -13.1875 
Q 15.875 -1.703125 12.234375 9.375 
Q 8.59375 20.453125 8.59375 31.390625 
Q 8.59375 42.28125 12.203125 53.3125 
Q 15.828125 64.359375 23.1875 75.875 
z
" id="DejaVuSans-40"/>
       <path d="M 54.890625 33.015625 
L 54.890625 0 
L 45.90625 0 
L 45.90625 32.71875 
Q 45.90625 40.484375 42.875 44.328125 
Q 39.84375 48.1875 33.796875 48.1875 
Q 26.515625 48.1875 22.3125 43.546875 
Q 18.109375 38.921875 18.109375 30.90625 
L 18.109375 0 
L 9.078125 0 
L 9.078125 54.6875 
L 18.109375 54.6875 
L 18.109375 46.1875 
Q 21.34375 51.125 25.703125 53.5625 
Q 30.078125 56 35.796875 56 
Q 45.21875 56 50.046875 50.171875 
Q 54.890625 44.34375 54.890625 33.015625 
z
" id="DejaVuSans-110"/>
       <path d="M 8.015625 75.875 
L 15.828125 75.875 
Q 23.140625 64.359375 26.78125 53.3125 
Q 30.421875 42.28125 30.421875 31.390625 
Q 30.421875 20.453125 26.78125 9.375 
Q 23.140625 -1.703125 15.828125 -13.1875 
L 8.015625 -13.1875 
Q 14.5 -2 17.703125 9.0625 
Q 20.90625 20.125 20.90625 31.390625 
Q 20.90625 42.671875 17.703125 53.65625 
Q 14.5 64.65625 8.015625 75.875 
z
" id="DejaVuSans-41"/>
      </defs>
      <use xlink:href="#DejaVuSans-84"/>
      <use x="57.958984" xlink:href="#DejaVuSans-105"/>
      <use x="85.742188" xlink:href="#DejaVuSans-109"/>
      <use x="183.154297" xlink:href="#DejaVuSans-101"/>
      <use x="244.677734" xlink:href="#DejaVuSans-32"/>
      <use x="276.464844" xlink:href="#DejaVuSans-40"/>
      <use x="315.478516" xlink:href="#DejaVuSans-109"/>
      <use x="412.890625" xlink:href="#DejaVuSans-105"/>
      <use x="440.673828" xlink:href="#DejaVuSans-110"/>
      <use x="504.052734" xlink:href="#DejaVuSans-41"/>
     </g>
    </g>
    <g id="text_10">
     <!-- 1e6 -->
     <g transform="translate(395.841875 334.860562)scale(0.1 -0.1)">
      <use xlink:href="#DejaVuSans-49"/>
      <use x="63.623047" xlink:href="#DejaVuSans-101"/>
      <use x="125.146484" xlink:href="#DejaVuSans-54"/>
     </g>
    </g>
   </g>
   <g id="matplotlib.axis_2">
    <g id="ytick_1">
     <g id="line2d_9">
      <defs>
       <path d="M 0 0 
L -3.5 0 
" id="m6e5674eeae" style="stroke:#000000;stroke-width:0.8;"/>
      </defs>
      <g>
       <use style="stroke:#000000;stroke-width:0.8;" x="57.6" xlink:href="#m6e5674eeae" y="293.66186"/>
      </g>
     </g>
     <g id="text_11">
      <!-- 0 -->
      <g transform="translate(44.2375 297.461079)scale(0.1 -0.1)">
       <use xlink:href="#DejaVuSans-48"/>
      </g>
     </g>
    </g>
    <g id="ytick_2">
     <g id="line2d_10">
      <g>
       <use style="stroke:#000000;stroke-width:0.8;" x="57.6" xlink:href="#m6e5674eeae" y="245.643088"/>
      </g>
     </g>
     <g id="text_12">
      <!-- 20 -->
      <g transform="translate(37.875 249.442307)scale(0.1 -0.1)">
       <use xlink:href="#DejaVuSans-50"/>
       <use x="63.623047" xlink:href="#DejaVuSans-48"/>
      </g>
     </g>
    </g>
    <g id="ytick_3">
     <g id="line2d_11">
      <g>
       <use style="stroke:#000000;stroke-width:0.8;" x="57.6" xlink:href="#m6e5674eeae" y="197.624316"/>
      </g>
     </g>
     <g id="text_13">
      <!-- 40 -->
      <g transform="translate(37.875 201.423535)scale(0.1 -0.1)">
       <use xlink:href="#DejaVuSans-52"/>
       <use x="63.623047" xlink:href="#DejaVuSans-48"/>
      </g>
     </g>
    </g>
    <g id="ytick_4">
     <g id="line2d_12">
      <g>
       <use style="stroke:#000000;stroke-width:0.8;" x="57.6" xlink:href="#m6e5674eeae" y="149.605544"/>
      </g>
     </g>
     <g id="text_14">
      <!-- 60 -->
      <g transform="translate(37.875 153.404763)scale(0.1 -0.1)">
       <use xlink:href="#DejaVuSans-54"/>
       <use x="63.623047" xlink:href="#DejaVuSans-48"/>
      </g>
     </g>
    </g>
    <g id="ytick_5">
     <g id="line2d_13">
      <g>
       <use style="stroke:#000000;stroke-width:0.8;" x="57.6" xlink:href="#m6e5674eeae" y="101.586772"/>
      </g>
     </g>
     <g id="text_15">
      <!-- 80 -->
      <g transform="translate(37.875 105.385991)scale(0.1 -0.1)">
       <use xlink:href="#DejaVuSans-56"/>
       <use x="63.623047" xlink:href="#DejaVuSans-48"/>
      </g>
     </g>
    </g>
    <g id="ytick_6">
     <g id="line2d_14">
      <g>
       <use style="stroke:#000000;stroke-width:0.8;" x="57.6" xlink:href="#m6e5674eeae" y="53.568"/>
      </g>
     </g>
     <g id="text_16">
      <!-- 100 -->
      <g transform="translate(31.5125 57.367219)scale(0.1 -0.1)">
       <use xlink:href="#DejaVuSans-49"/>
       <use x="63.623047" xlink:href="#DejaVuSans-48"/>
       <use x="127.246094" xlink:href="#DejaVuSans-48"/>
      </g>
     </g>
    </g>
    <g id="text_17">
     <!-- Density -->
     <g transform="translate(25.432812 193.536594)rotate(-90)scale(0.1 -0.1)">
      <defs>
       <path d="M 19.671875 64.796875 
L 19.671875 8.109375 
L 31.59375 8.109375 
Q 46.6875 8.109375 53.6875 14.9375 
Q 60.6875 21.78125 60.6875 36.53125 
Q 60.6875 51.171875 53.6875 57.984375 
Q 46.6875 64.796875 31.59375 64.796875 
z
M 9.8125 72.90625 
L 30.078125 72.90625 
Q 51.265625 72.90625 61.171875 64.09375 
Q 71.09375 55.28125 71.09375 36.53125 
Q 71.09375 17.671875 61.125 8.828125 
Q 51.171875 0 30.078125 0 
L 9.8125 0 
z
" id="DejaVuSans-68"/>
       <path d="M 44.28125 53.078125 
L 44.28125 44.578125 
Q 40.484375 46.53125 36.375 47.5 
Q 32.28125 48.484375 27.875 48.484375 
Q 21.1875 48.484375 17.84375 46.4375 
Q 14.5 44.390625 14.5 40.28125 
Q 14.5 37.15625 16.890625 35.375 
Q 19.28125 33.59375 26.515625 31.984375 
L 29.59375 31.296875 
Q 39.15625 29.25 43.1875 25.515625 
Q 47.21875 21.78125 47.21875 15.09375 
Q 47.21875 7.46875 41.1875 3.015625 
Q 35.15625 -1.421875 24.609375 -1.421875 
Q 20.21875 -1.421875 15.453125 -0.5625 
Q 10.6875 0.296875 5.421875 2 
L 5.421875 11.28125 
Q 10.40625 8.6875 15.234375 7.390625 
Q 20.0625 6.109375 24.8125 6.109375 
Q 31.15625 6.109375 34.5625 8.28125 
Q 37.984375 10.453125 37.984375 14.40625 
Q 37.984375 18.0625 35.515625 20.015625 
Q 33.0625 21.96875 24.703125 23.78125 
L 21.578125 24.515625 
Q 13.234375 26.265625 9.515625 29.90625 
Q 5.8125 33.546875 5.8125 39.890625 
Q 5.8125 47.609375 11.28125 51.796875 
Q 16.75 56 26.8125 56 
Q 31.78125 56 36.171875 55.265625 
Q 40.578125 54.546875 44.28125 53.078125 
z
" id="DejaVuSans-115"/>
       <path d="M 18.3125 70.21875 
L 18.3125 54.6875 
L 36.8125 54.6875 
L 36.8125 47.703125 
L 18.3125 47.703125 
L 18.3125 18.015625 
Q 18.3125 11.328125 20.140625 9.421875 
Q 21.96875 7.515625 27.59375 7.515625 
L 36.8125 7.515625 
L 36.8125 0 
L 27.59375 0 
Q 17.1875 0 13.234375 3.875 
Q 9.28125 7.765625 9.28125 18.015625 
L 9.28125 47.703125 
L 2.6875 47.703125 
L 2.6875 54.6875 
L 9.28125 54.6875 
L 9.28125 70.21875 
z
" id="DejaVuSans-116"/>
       <path d="M 32.171875 -5.078125 
Q 28.375 -14.84375 24.75 -17.8125 
Q 21.140625 -20.796875 15.09375 -20.796875 
L 7.90625 -20.796875 
L 7.90625 -13.28125 
L 13.1875 -13.28125 
Q 16.890625 -13.28125 18.9375 -11.515625 
Q 21 -9.765625 23.484375 -3.21875 
L 25.09375 0.875 
L 2.984375 54.6875 
L 12.5 54.6875 
L 29.59375 11.921875 
L 46.6875 54.6875 
L 56.203125 54.6875 
z
" id="DejaVuSans-121"/>
      </defs>
      <use xlink:href="#DejaVuSans-68"/>
      <use x="77.001953" xlink:href="#DejaVuSans-101"/>
      <use x="138.525391" xlink:href="#DejaVuSans-110"/>
      <use x="201.904297" xlink:href="#DejaVuSans-115"/>
      <use x="254.003906" xlink:href="#DejaVuSans-105"/>
      <use x="281.787109" xlink:href="#DejaVuSans-116"/>
      <use x="320.996094" xlink:href="#DejaVuSans-121"/>
     </g>
    </g>
   </g>
   <g id="line2d_15">
    <path clip-path="url(#p99a7b80925)" d="M 73.832727 293.66186 
L 398.487273 293.66186 
L 398.487273 293.66186 
" style="fill:none;stroke:#1f77b4;stroke-linecap:square;stroke-width:1.5;"/>
   </g>
   <g id="line2d_16">
    <path clip-path="url(#p99a7b80925)" d="M 73.832727 293.66186 
L 398.487273 293.66186 
L 398.487273 293.66186 
" style="fill:none;stroke:#ff7f0e;stroke-linecap:square;stroke-width:1.5;"/>
   </g>
   <g id="line2d_17">
    <path clip-path="url(#p99a7b80925)" d="M 73.832727 269.652474 
L 73.846255 269.467608 
L 73.954478 269.487343 
L 82.206458 270.878551 
L 202.076616 270.878931 
L 228.171813 270.878989 
L 255.565681 270.878953 
L 294.945213 270.878948 
L 398.487273 270.878984 
L 398.487273 270.878984 
" style="fill:none;stroke:#2ca02c;stroke-linecap:square;stroke-width:1.5;"/>
   </g>
   <g id="line2d_18">
    <path clip-path="url(#p99a7b80925)" d="M 73.832727 53.568 
L 73.859783 295.488 
L 73.954478 295.317169 
L 81.949429 281.403018 
L 81.976485 281.426006 
L 82.125291 281.420033 
L 82.219986 281.3843 
L 82.233514 281.395196 
L 82.341736 281.394837 
L 82.477015 281.371683 
L 82.490543 281.390568 
L 82.625821 281.405712 
L 83.0046 281.391115 
L 83.139879 281.407856 
L 83.396908 281.396829 
L 83.532186 281.416121 
L 83.69452 281.380702 
L 83.924493 281.416344 
L 84.059772 281.396732 
L 84.303273 281.400972 
L 84.50619 281.390656 
L 84.830858 281.406173 
L 84.966137 281.387154 
L 85.453139 281.40056 
L 85.588417 281.416496 
L 85.601945 281.39144 
L 85.81839 281.389326 
L 85.953669 281.403646 
L 86.521838 281.387453 
L 86.670644 281.403896 
L 86.832978 281.373325 
L 86.981784 281.409724 
L 87.19823 281.384393 
L 87.441731 281.401234 
L 88.997432 281.39753 
L 89.13271 281.369094 
L 89.281516 281.402864 
L 90.052603 281.396067 
L 90.187881 281.415562 
L 90.350216 281.380866 
L 90.580189 281.416779 
L 90.715467 281.397411 
L 90.999552 281.385757 
L 91.148358 281.402511 
L 91.310692 281.370321 
L 91.32422 281.390096 
L 91.459498 281.405795 
L 91.82475 281.372442 
L 91.973556 281.408784 
L 92.217057 281.386297 
L 92.392919 281.392384 
L 92.595836 281.38767 
L 92.75817 281.415938 
L 92.893449 281.396089 
L 93.13695 281.401028 
L 93.353395 281.394524 
L 93.488674 281.372164 
L 93.502201 281.391259 
L 93.63748 281.408461 
L 93.880981 281.38585 
L 94.056843 281.392702 
L 94.25976 281.387719 
L 94.422094 281.416067 
L 94.557373 281.396269 
L 94.800874 281.401016 
L 95.017319 281.394719 
L 95.152597 281.371895 
L 95.166125 281.391102 
L 95.301404 281.408132 
L 95.558433 281.396949 
L 95.693711 281.416333 
L 95.788406 281.368738 
L 95.828989 281.400677 
L 96.613604 281.388793 
L 96.9518 281.387828 
L 97.087078 281.397145 
L 97.560552 281.405098 
L 97.655247 281.385315 
L 97.668775 281.400394 
L 97.95286 281.401589 
L 98.034027 281.381093 
L 98.061082 281.403652 
L 99.224476 281.405135 
L 99.319171 281.385218 
L 99.332699 281.400201 
L 99.616783 281.401737 
L 99.69795 281.381008 
L 99.725006 281.403668 
L 100.76665 281.403048 
L 100.847817 281.38074 
L 100.874872 281.40349 
L 101.673015 281.395503 
L 101.808293 281.370907 
L 101.821821 281.390493 
L 101.957099 281.406768 
L 102.214128 281.396338 
L 102.349406 281.415817 
L 102.51174 281.380776 
L 102.741714 281.416624 
L 102.876992 281.397131 
L 103.161077 281.385971 
L 103.309883 281.402742 
L 103.472217 281.370683 
L 103.485745 281.390345 
L 103.621023 281.406415 
L 103.932163 281.390206 
L 104.094497 281.403285 
L 104.175664 281.380823 
L 104.20272 281.403379 
L 104.852056 281.405053 
L 104.987334 281.391828 
L 105.366114 281.405288 
L 105.460809 281.384492 
L 105.487864 281.403662 
L 105.650198 281.37265 
L 105.799005 281.409016 
L 106.042506 281.386623 
L 106.218368 281.392155 
L 106.434813 281.40236 
L 107.32765 281.391374 
L 107.462929 281.408697 
L 107.70643 281.386175 
L 107.882291 281.392471 
L 108.085209 281.387683 
L 108.247543 281.415974 
L 108.382821 281.396138 
L 108.626322 281.401025 
L 108.842768 281.394577 
L 108.978046 281.37209 
L 108.991574 281.391216 
L 109.126852 281.408372 
L 109.370353 281.385729 
L 109.546215 281.392789 
L 109.749133 281.387733 
L 109.911467 281.416102 
L 110.046745 281.396318 
L 110.290246 281.401013 
L 110.506692 281.394772 
L 110.64197 281.371823 
L 110.655498 281.39106 
L 110.790776 281.408042 
L 111.047805 281.396908 
L 111.183084 281.416301 
L 111.277778 281.368721 
L 111.318362 281.400692 
L 112.021809 281.405215 
L 112.116504 281.38449 
L 112.14356 281.403209 
L 112.305894 281.371565 
L 112.4547 281.407707 
L 112.711729 281.396757 
L 112.847007 281.416181 
L 112.941702 281.368668 
L 112.982286 281.400742 
L 113.563983 281.404645 
L 113.658678 281.386336 
L 113.672205 281.401825 
L 114.078041 281.403923 
L 114.159208 281.381395 
L 114.186263 281.402899 
L 114.713849 281.405144 
L 114.808544 281.385192 
L 114.822072 281.400148 
L 115.106156 281.401777 
L 115.187323 281.380987 
L 115.214379 281.403671 
L 116.256022 281.403081 
L 116.337189 281.380749 
L 116.364245 281.403476 
L 117.094748 281.389557 
L 117.378833 281.392679 
L 117.527639 281.405302 
L 117.622334 281.384529 
L 117.649389 281.403842 
L 117.811723 281.373159 
L 117.96053 281.409557 
L 118.190503 281.392195 
L 118.46106 281.389135 
L 118.596338 281.403044 
L 119.245674 281.399684 
L 119.380952 281.417259 
L 119.475647 281.372861 
L 119.516231 281.398623 
L 119.881482 281.397454 
L 120.016761 281.416693 
L 120.111456 281.369033 
L 120.152039 281.400472 
L 121.761852 281.402344 
L 121.843019 281.380762 
L 121.870074 281.403665 
L 122.789967 281.399599 
L 122.925246 281.368644 
L 123.074052 281.398207 
L 123.750444 281.390484 
L 124.021 281.38134 
L 124.21039 281.389742 
L 124.575642 281.403647 
L 124.656809 281.381073 
L 124.683864 281.403145 
L 125.21145 281.405038 
L 125.306145 281.385467 
L 125.319673 281.400666 
L 125.603757 281.401368 
L 125.684924 281.381233 
L 125.71198 281.403617 
L 127.14593 281.396727 
L 127.281209 281.369675 
L 127.430015 281.404481 
L 127.876434 281.393263 
L 128.065823 281.396907 
L 128.485186 281.402884 
L 128.620465 281.384897 
L 132.259453 281.401962 
L 132.34062 281.380897 
L 132.367675 281.40368 
L 133.409319 281.403232 
L 133.490486 281.3808 
L 133.517541 281.403407 
L 134.248045 281.389853 
L 134.532129 281.392408 
L 134.680935 281.405293 
L 134.77563 281.3845 
L 134.802686 281.40371 
L 134.96502 281.372782 
L 135.113826 281.40916 
L 135.357327 281.386828 
L 135.533189 281.392012 
L 135.749634 281.402541 
L 136.520721 281.395938 
L 136.655999 281.415435 
L 136.818333 281.380923 
L 137.048307 281.416846 
L 137.061835 281.392295 
L 137.27828 281.388869 
L 137.413558 281.402142 
L 138.509313 281.403202 
L 139.036899 281.405005 
L 139.131594 281.385547 
L 139.145121 281.400798 
L 139.429206 281.401256 
L 139.510373 281.38131 
L 139.537429 281.403594 
L 140.971379 281.396585 
L 141.106658 281.369796 
L 141.255464 281.404755 
L 141.634243 281.390975 
L 141.769522 281.40786 
L 142.026551 281.396826 
L 142.161829 281.416236 
L 142.256524 281.36869 
L 142.297107 281.400719 
L 142.878804 281.404614 
L 142.973499 281.3864 
L 142.987027 281.401892 
L 143.392862 281.403878 
L 143.474029 281.381333 
L 143.501085 281.402943 
L 144.02867 281.405128 
L 144.123365 281.385235 
L 144.136893 281.400237 
L 144.420978 281.40171 
L 144.502145 281.381023 
L 144.5292 281.403666 
L 145.570844 281.403026 
L 145.652011 281.380735 
L 145.679066 281.403499 
L 146.477209 281.395467 
L 146.612487 281.370949 
L 146.626015 281.39052 
L 146.761293 281.406832 
L 147.018322 281.396367 
L 147.1536 281.415843 
L 147.315935 281.380768 
L 147.545908 281.416606 
L 147.681186 281.3971 
L 147.965271 281.385995 
L 148.114077 281.402766 
L 148.276411 281.370724 
L 148.289939 281.390372 
L 148.425217 281.40648 
L 148.736357 281.390258 
L 148.898691 281.403264 
L 148.979858 281.380814 
L 149.006914 281.40339 
L 149.723889 281.415673 
L 149.859168 281.395736 
L 150.102669 281.401041 
L 150.319114 281.394151 
L 150.454393 281.372703 
L 150.46792 281.391563 
L 150.603199 281.409075 
L 150.8467 281.386706 
L 151.022562 281.392098 
L 151.239007 281.402433 
L 152.131844 281.391403 
L 152.267123 281.408756 
L 152.510624 281.386257 
L 152.686486 281.392412 
L 152.889403 281.387674 
L 153.051737 281.415949 
L 153.187016 281.396105 
L 153.430517 281.401027 
L 153.646962 281.394541 
L 153.78224 281.37214 
L 153.795768 281.391245 
L 153.931047 281.408432 
L 154.174548 281.38581 
L 154.350409 281.392731 
L 154.553327 281.387723 
L 154.715661 281.416079 
L 154.850939 281.396285 
L 155.09444 281.401015 
L 155.310886 281.394736 
L 155.446164 281.371871 
L 155.459692 281.391088 
L 155.59497 281.408102 
L 155.851999 281.396935 
L 155.987278 281.416323 
L 156.081973 281.368732 
L 156.122556 281.400682 
L 156.907171 281.388813 
L 157.245366 281.387823 
L 157.380645 281.397106 
L 157.854119 281.405101 
L 157.948814 281.385307 
L 157.962342 281.400377 
L 158.246426 281.401602 
L 158.327593 281.381085 
L 158.354649 281.403654 
L 159.518043 281.405138 
L 159.612738 281.38521 
L 159.626266 281.400184 
L 159.91035 281.40175 
L 159.991517 281.381001 
L 160.018573 281.403669 
L 161.060216 281.403059 
L 161.141383 281.380743 
L 161.168439 281.403486 
L 161.966581 281.39552 
L 162.10186 281.370887 
L 162.115388 281.390479 
L 162.250666 281.406737 
L 162.507695 281.396325 
L 162.642973 281.415805 
L 162.805307 281.380779 
L 163.03528 281.416632 
L 163.170559 281.397145 
L 163.454643 281.38596 
L 163.60345 281.40273 
L 163.765784 281.370664 
L 163.779311 281.390332 
L 163.91459 281.406384 
L 164.22573 281.390181 
L 164.388064 281.403295 
L 164.469231 281.380828 
L 164.496287 281.403374 
L 165.145623 281.405049 
L 165.280901 281.391859 
L 165.659681 281.405287 
L 165.754376 281.384491 
L 165.781431 281.403653 
L 165.943765 281.372624 
L 166.092571 281.408988 
L 166.336072 281.386584 
L 166.511934 281.392183 
L 166.72838 281.402324 
L 167.621217 281.39136 
L 167.756495 281.408668 
L 167.999996 281.386136 
L 168.175858 281.392499 
L 168.378776 281.387687 
L 168.54111 281.415985 
L 168.676388 281.396154 
L 168.919889 281.401024 
L 169.136335 281.394594 
L 169.271613 281.372066 
L 169.285141 281.391202 
L 169.420419 281.408343 
L 169.66392 281.385689 
L 169.839782 281.392818 
L 170.0427 281.387738 
L 170.205034 281.416113 
L 170.340312 281.396334 
L 170.583813 281.401011 
L 170.800258 281.39479 
L 170.935537 281.3718 
L 170.949065 281.391046 
L 171.084343 281.408012 
L 171.341372 281.396895 
L 171.47665 281.416291 
L 171.571345 281.368716 
L 171.611929 281.400696 
L 172.315376 281.405212 
L 172.410071 281.384492 
L 172.437127 281.403199 
L 172.599461 281.371542 
L 172.748267 281.407677 
L 173.005296 281.396744 
L 173.140574 281.41617 
L 173.235269 281.368664 
L 173.275853 281.400746 
L 173.85755 281.404651 
L 173.952244 281.386324 
L 173.965772 281.401812 
L 174.371607 281.403932 
L 174.452774 281.381407 
L 174.47983 281.402891 
L 175.007416 281.405147 
L 175.10211 281.385184 
L 175.115638 281.400131 
L 175.399723 281.40179 
L 175.48089 281.38098 
L 175.507946 281.403672 
L 176.549589 281.403092 
L 176.630756 281.380752 
L 176.657812 281.403472 
L 177.388315 281.389578 
L 177.672399 281.39266 
L 177.821206 281.405302 
L 177.9159 281.384527 
L 177.942956 281.403833 
L 178.10529 281.373132 
L 178.254096 281.409529 
L 178.48407 281.392212 
L 178.754626 281.389124 
L 178.889905 281.403009 
L 179.539241 281.399675 
L 179.674519 281.417262 
L 179.769214 281.372835 
L 179.809798 281.398635 
L 180.175049 281.397441 
L 180.310327 281.416685 
L 180.405022 281.369024 
L 180.445606 281.400478 
L 182.055418 281.402356 
L 182.136585 281.380759 
L 182.163641 281.403663 
L 183.083534 281.399615 
L 183.218812 281.368648 
L 183.367618 281.398169 
L 184.04401 281.390505 
L 184.314567 281.38133 
L 184.503957 281.389756 
L 184.869208 281.403656 
L 184.950375 281.381081 
L 184.977431 281.403137 
L 185.505017 281.405042 
L 185.599712 281.385457 
L 185.613239 281.400649 
L 185.897324 281.401381 
L 185.978491 281.381224 
L 186.005547 281.403619 
L 187.371858 281.390964 
L 187.588303 281.389597 
L 187.723582 281.404448 
L 188.17 281.393244 
L 188.35939 281.396869 
L 188.778753 281.402914 
L 188.914031 281.384916 
L 193.067077 281.400632 
L 193.148244 281.381804 
L 193.1753 281.403412 
L 194.731001 281.400795 
L 194.812168 281.381666 
L 194.839224 281.403468 
L 196.394925 281.400955 
L 196.476092 281.381535 
L 196.503148 281.403518 
L 198.058849 281.401113 
L 198.140016 281.381413 
L 198.167072 281.40356 
L 199.601022 281.396408 
L 199.736301 281.369957 
L 199.885107 281.405095 
L 200.263886 281.391117 
L 200.399165 281.408163 
L 200.656193 281.396963 
L 200.791472 281.416344 
L 200.886167 281.368744 
L 200.92675 281.400672 
L 201.711365 281.38877 
L 202.049561 281.387834 
L 202.184839 281.397186 
L 202.658313 281.405094 
L 202.753008 281.385325 
L 202.766536 281.400412 
L 203.05062 281.401574 
L 203.131787 281.381101 
L 203.158843 281.40365 
L 204.322237 281.405131 
L 204.416932 281.385227 
L 204.43046 281.40022 
L 204.714544 281.401723 
L 204.795711 281.381016 
L 204.822767 281.403667 
L 205.86441 281.403037 
L 205.945577 281.380738 
L 205.972633 281.403495 
L 206.770775 281.395484 
L 206.906054 281.370929 
L 206.919582 281.390507 
L 207.05486 281.406801 
L 207.311889 281.396353 
L 207.447167 281.415831 
L 207.609501 281.380772 
L 207.839475 281.416615 
L 207.974753 281.397115 
L 208.258837 281.385983 
L 208.407644 281.402754 
L 208.569978 281.370704 
L 208.583506 281.390359 
L 208.718784 281.406449 
L 209.029924 281.390233 
L 209.192258 281.403274 
L 209.273425 281.380818 
L 209.300481 281.403385 
L 210.017456 281.415686 
L 210.152735 281.395753 
L 210.396236 281.40104 
L 210.612681 281.394168 
L 210.747959 281.372677 
L 210.761487 281.391549 
L 210.896766 281.409046 
L 211.140267 281.386666 
L 211.316128 281.392125 
L 211.532574 281.402397 
L 212.425411 281.391389 
L 212.560689 281.408727 
L 212.80419 281.386218 
L 212.980052 281.39244 
L 213.18297 281.387678 
L 213.345304 281.415961 
L 213.480582 281.396121 
L 213.724083 281.401026 
L 213.940529 281.394558 
L 214.075807 281.372116 
L 214.089335 281.391231 
L 214.224613 281.408403 
L 214.468114 281.385771 
L 214.643976 281.392759 
L 214.846894 281.387728 
L 215.009228 281.41609 
L 215.144506 281.396301 
L 215.388007 281.401014 
L 215.604453 281.394754 
L 215.739731 281.371848 
L 215.753259 281.391075 
L 215.888537 281.408073 
L 216.145566 281.396922 
L 216.280844 281.416313 
L 216.375539 281.368727 
L 216.416123 281.400687 
L 217.11957 281.405217 
L 217.214265 281.384489 
L 217.241321 281.403221 
L 217.403655 281.371589 
L 217.552461 281.407739 
L 217.80949 281.396772 
L 217.944768 281.416192 
L 218.039463 281.368672 
L 218.080047 281.400737 
L 218.661744 281.404639 
L 218.756438 281.38635 
L 218.769966 281.401839 
L 219.175801 281.403914 
L 219.256968 281.381382 
L 219.284024 281.402909 
L 219.81161 281.405141 
L 219.906305 281.385201 
L 219.919832 281.400167 
L 220.203917 281.401763 
L 220.285084 281.380994 
L 220.31214 281.40367 
L 221.353783 281.40307 
L 221.43495 281.380746 
L 221.462006 281.403481 
L 222.192509 281.389535 
L 222.476593 281.392699 
L 222.6254 281.405303 
L 222.720095 281.384532 
L 222.74715 281.403851 
L 222.909484 281.373188 
L 223.05829 281.409586 
L 223.288264 281.392178 
L 223.55882 281.389146 
L 223.694099 281.403081 
L 224.343435 281.399693 
L 224.478713 281.417256 
L 224.573408 281.372889 
L 224.613992 281.398611 
L 224.979243 281.397467 
L 225.114522 281.416702 
L 225.209216 281.369044 
L 225.2498 281.400466 
L 226.981363 281.404938 
L 227.076058 281.385703 
L 227.089586 281.401039 
L 227.37367 281.401041 
L 227.454837 281.381468 
L 227.481893 281.403542 
L 228.915844 281.39632 
L 229.051122 281.37004 
L 229.199928 281.405264 
L 229.578708 281.391188 
L 229.713986 281.408313 
L 229.957487 281.38565 
L 230.133349 281.392846 
L 230.336266 281.387743 
L 230.4986 281.416124 
L 230.633879 281.39635 
L 230.87738 281.40101 
L 231.093825 281.394807 
L 231.229104 281.371777 
L 231.242631 281.391032 
L 231.37791 281.407983 
L 231.634939 281.396881 
L 231.770217 281.41628 
L 231.864912 281.368711 
L 231.905495 281.400701 
L 232.608943 281.40521 
L 232.703638 281.384493 
L 232.730693 281.403188 
L 232.893028 281.37152 
L 233.041834 281.407647 
L 233.298863 281.396731 
L 233.434141 281.416159 
L 233.528836 281.36866 
L 233.569419 281.40075 
L 234.151116 281.404657 
L 234.245811 281.386312 
L 234.259339 281.401799 
L 234.665174 281.40394 
L 234.746341 281.381419 
L 234.773397 281.402882 
L 235.300982 281.40515 
L 235.395677 281.385176 
L 235.409205 281.400113 
L 235.69329 281.401803 
L 235.774457 281.380974 
L 235.801512 281.403673 
L 236.843156 281.403102 
L 236.924323 281.380755 
L 236.951378 281.403467 
L 237.681882 281.389598 
L 237.965966 281.392641 
L 238.114772 281.405301 
L 238.209467 281.384525 
L 238.236523 281.403824 
L 238.398857 281.373106 
L 238.547663 281.409502 
L 238.777636 281.392228 
L 239.048193 281.389114 
L 239.183471 281.402974 
L 239.832808 281.399667 
L 239.968086 281.417264 
L 240.062781 281.372809 
L 240.103364 281.398647 
L 240.468616 281.397428 
L 240.603894 281.416676 
L 240.698589 281.369015 
L 240.739173 281.400483 
L 242.348985 281.402368 
L 242.430152 281.380756 
L 242.457208 281.403662 
L 243.377101 281.39963 
L 243.512379 281.368651 
L 243.661185 281.39813 
L 244.324049 281.416032 
L 244.459328 281.396219 
L 244.702829 281.40102 
L 244.919274 281.394665 
L 245.054552 281.371969 
L 245.06808 281.391146 
L 245.203359 281.408224 
L 245.44686 281.385528 
L 245.622722 281.392934 
L 245.825639 281.387759 
L 245.987973 281.416157 
L 246.123251 281.396398 
L 246.366753 281.401005 
L 246.583198 281.39486 
L 246.718476 281.371706 
L 246.732004 281.39099 
L 246.867283 281.407892 
L 247.124311 281.396841 
L 247.25959 281.416248 
L 247.354285 281.368695 
L 247.394868 281.400715 
L 247.976565 281.404607 
L 248.07126 281.386414 
L 248.084788 281.401906 
L 248.490623 281.403869 
L 248.57179 281.381321 
L 248.598846 281.402952 
L 249.126431 281.405125 
L 249.221126 281.385245 
L 249.234654 281.400255 
L 249.518738 281.401696 
L 249.599905 281.381031 
L 249.626961 281.403664 
L 250.668605 281.403014 
L 250.749772 281.380733 
L 250.776827 281.403503 
L 251.57497 281.395448 
L 251.710248 281.370971 
L 251.723776 281.390534 
L 251.859054 281.406865 
L 252.116083 281.396382 
L 252.251361 281.415857 
L 252.413695 281.380765 
L 252.643669 281.416597 
L 252.778947 281.397084 
L 253.063032 281.386007 
L 253.211838 281.402778 
L 253.374172 281.370745 
L 253.3877 281.390386 
L 253.522978 281.406514 
L 253.780007 281.396226 
L 253.915285 281.415713 
L 254.077619 281.380809 
L 254.307593 281.416691 
L 254.442871 281.397249 
L 254.726955 281.38588 
L 254.875762 281.402647 
L 255.038096 281.370528 
L 255.051624 281.39024 
L 255.186902 281.406158 
L 255.51157 281.399725 
L 256.20149 281.388963 
L 256.336768 281.402471 
L 257.229605 281.391418 
L 257.364884 281.408786 
L 257.608385 281.3863 
L 257.784246 281.392382 
L 257.987164 281.38767 
L 258.149498 281.415937 
L 258.284776 281.396088 
L 258.528277 281.401028 
L 258.744723 281.394522 
L 258.880001 281.372166 
L 258.893529 281.39126 
L 259.028807 281.408463 
L 259.272308 281.385853 
L 259.44817 281.3927 
L 259.651088 281.387718 
L 259.813422 281.416067 
L 259.9487 281.396268 
L 260.192201 281.401016 
L 260.408647 281.394718 
L 260.543925 281.371896 
L 260.557453 281.391103 
L 260.692731 281.408134 
L 260.94976 281.39695 
L 261.085039 281.416334 
L 261.179733 281.368738 
L 261.220317 281.400677 
L 262.004931 281.388791 
L 262.343127 281.387829 
L 262.478406 281.397147 
L 262.95188 281.405098 
L 263.046575 281.385316 
L 263.060103 281.400395 
L 263.344187 281.401588 
L 263.425354 281.381093 
L 263.45241 281.403652 
L 264.615804 281.405135 
L 264.710499 281.385218 
L 264.724027 281.400202 
L 265.008111 281.401736 
L 265.089278 281.381009 
L 265.116334 281.403668 
L 266.157977 281.403047 
L 266.239144 281.38074 
L 266.2662 281.40349 
L 267.064342 281.395502 
L 267.199621 281.370908 
L 267.213148 281.390494 
L 267.348427 281.40677 
L 267.605456 281.396339 
L 267.740734 281.415818 
L 267.903068 281.380775 
L 268.133041 281.416623 
L 268.26832 281.397129 
L 268.552404 281.385972 
L 268.70121 281.402743 
L 268.863544 281.370685 
L 268.877072 281.390346 
L 269.012351 281.406417 
L 269.323491 281.390208 
L 269.485825 281.403284 
L 269.566992 281.380823 
L 269.594048 281.40338 
L 270.243384 281.405053 
L 270.378662 281.391826 
L 270.757442 281.405288 
L 270.852136 281.384492 
L 270.879192 281.403663 
L 271.041526 281.372651 
L 271.190332 281.409018 
L 271.433833 281.386626 
L 271.609695 281.392153 
L 271.826141 281.402362 
L 272.718978 281.391375 
L 272.854256 281.408699 
L 273.097757 281.386178 
L 273.273619 281.392469 
L 273.476537 281.387682 
L 273.638871 281.415973 
L 273.774149 281.396137 
L 274.01765 281.401026 
L 274.234096 281.394576 
L 274.369374 281.372092 
L 274.382902 281.391217 
L 274.51818 281.408374 
L 274.761681 281.385731 
L 274.937543 281.392787 
L 275.140461 281.387733 
L 275.302795 281.416101 
L 275.438073 281.396317 
L 275.681574 281.401013 
L 275.898019 281.394771 
L 276.033298 281.371825 
L 276.046826 281.391061 
L 276.182104 281.408044 
L 276.439133 281.396909 
L 276.574411 281.416302 
L 276.669106 281.368721 
L 276.70969 281.400691 
L 277.413137 281.405215 
L 277.507832 281.38449 
L 277.534888 281.40321 
L 277.697222 281.371566 
L 277.846028 281.407709 
L 278.103057 281.396758 
L 278.238335 281.416181 
L 278.33303 281.368668 
L 278.373613 281.400741 
L 278.95531 281.404645 
L 279.050005 281.386337 
L 279.063533 281.401826 
L 279.469368 281.403922 
L 279.550535 281.381394 
L 279.577591 281.4029 
L 280.105177 281.405144 
L 280.199871 281.385193 
L 280.213399 281.400149 
L 280.497484 281.401776 
L 280.578651 281.380988 
L 280.605706 281.403671 
L 281.64735 281.40308 
L 281.728517 281.380749 
L 281.755573 281.403477 
L 282.486076 281.389555 
L 282.77016 281.392681 
L 282.918966 281.405302 
L 283.013661 281.384529 
L 283.040717 281.403842 
L 283.203051 281.373161 
L 283.351857 281.409559 
L 283.58183 281.392194 
L 283.852387 281.389136 
L 283.987666 281.403046 
L 284.637002 281.399684 
L 284.77228 281.417259 
L 284.866975 281.372863 
L 284.907558 281.398623 
L 285.27281 281.397454 
L 285.408088 281.416694 
L 285.502783 281.369034 
L 285.543367 281.400471 
L 287.153179 281.402343 
L 287.234346 281.380762 
L 287.261402 281.403665 
L 288.181295 281.399598 
L 288.316573 281.368644 
L 288.465379 281.398209 
L 289.141771 281.390483 
L 289.412328 281.381341 
L 289.601718 281.389741 
L 289.966969 281.403646 
L 290.048136 281.381072 
L 290.075192 281.403145 
L 290.602778 281.405038 
L 290.697472 281.385467 
L 290.711 281.400667 
L 290.995085 281.401367 
L 291.076252 281.381233 
L 291.103307 281.403617 
L 292.537258 281.396725 
L 292.672537 281.369676 
L 292.821343 281.404484 
L 293.267761 281.393264 
L 293.457151 281.39691 
L 293.876514 281.402882 
L 294.011792 281.384895 
L 297.65078 281.401961 
L 297.731947 281.380898 
L 297.759003 281.40368 
L 298.800646 281.403231 
L 298.881813 281.3808 
L 298.908869 281.403407 
L 299.639372 281.389851 
L 299.923457 281.392409 
L 300.072263 281.405293 
L 300.166958 281.3845 
L 300.194014 281.403711 
L 300.356348 281.372783 
L 300.505154 281.409162 
L 300.748655 281.386831 
L 300.924517 281.392011 
L 301.140962 281.402544 
L 301.912049 281.395939 
L 302.047327 281.415436 
L 302.209661 281.380923 
L 302.439634 281.416846 
L 302.453162 281.392294 
L 302.669608 281.38887 
L 302.804886 281.402144 
L 303.900641 281.403203 
L 304.428226 281.405005 
L 304.522921 281.385547 
L 304.536449 281.400799 
L 304.820534 281.401255 
L 304.901701 281.381311 
L 304.928756 281.403594 
L 306.362707 281.396584 
L 306.497985 281.369798 
L 306.646791 281.404758 
L 307.025571 281.390976 
L 307.160849 281.407862 
L 307.417878 281.396827 
L 307.553157 281.416237 
L 307.647851 281.368691 
L 307.688435 281.400719 
L 308.270132 281.404613 
L 308.364827 281.386401 
L 308.378355 281.401893 
L 308.78419 281.403878 
L 308.865357 281.381333 
L 308.892412 281.402944 
L 309.419998 281.405128 
L 309.514693 281.385236 
L 309.528221 281.400238 
L 309.812305 281.401709 
L 309.893472 281.381024 
L 309.920528 281.403666 
L 310.962171 281.403025 
L 311.043338 281.380735 
L 311.070394 281.403499 
L 311.868536 281.395466 
L 312.003815 281.37095 
L 312.017343 281.390521 
L 312.152621 281.406835 
L 312.40965 281.396368 
L 312.544928 281.415844 
L 312.707262 281.380768 
L 312.937235 281.416605 
L 313.072514 281.397099 
L 313.356598 281.385995 
L 313.505405 281.402767 
L 313.667739 281.370725 
L 313.681266 281.390373 
L 313.816545 281.406483 
L 314.127685 281.39026 
L 314.290019 281.403263 
L 314.371186 281.380813 
L 314.398242 281.403391 
L 315.115217 281.415672 
L 315.250495 281.395735 
L 315.493996 281.401041 
L 315.710442 281.394149 
L 315.84572 281.372704 
L 315.859248 281.391564 
L 315.994526 281.409077 
L 316.238027 281.386709 
L 316.413889 281.392096 
L 316.630335 281.402435 
L 317.523172 281.391404 
L 317.65845 281.408758 
L 317.901951 281.38626 
L 318.077813 281.39241 
L 318.280731 281.387674 
L 318.443065 281.415949 
L 318.578343 281.396104 
L 318.821844 281.401027 
L 319.03829 281.39454 
L 319.173568 281.372142 
L 319.187096 281.391246 
L 319.322374 281.408434 
L 319.565875 281.385813 
L 319.741737 281.392729 
L 319.944655 281.387723 
L 320.106989 281.416078 
L 320.242267 281.396284 
L 320.485768 281.401015 
L 320.702214 281.394735 
L 320.837492 281.371873 
L 320.85102 281.391089 
L 320.986298 281.408105 
L 321.243327 281.396936 
L 321.378605 281.416324 
L 321.4733 281.368732 
L 321.513884 281.400682 
L 322.298498 281.388812 
L 322.636694 281.387824 
L 322.771972 281.397109 
L 323.245447 281.405101 
L 323.340142 281.385307 
L 323.353669 281.400378 
L 323.637754 281.401601 
L 323.718921 281.381086 
L 323.745977 281.403654 
L 324.909371 281.405138 
L 325.004065 281.38521 
L 325.017593 281.400185 
L 325.301678 281.401749 
L 325.382845 281.381002 
L 325.409901 281.403669 
L 326.451544 281.403058 
L 326.532711 281.380743 
L 326.559767 281.403486 
L 327.357909 281.395519 
L 327.493187 281.370888 
L 327.506715 281.39048 
L 327.641994 281.406739 
L 327.899022 281.396326 
L 328.034301 281.415806 
L 328.196635 281.380779 
L 328.426608 281.416631 
L 328.561886 281.397144 
L 328.845971 281.385961 
L 328.994777 281.402731 
L 329.157111 281.370665 
L 329.170639 281.390333 
L 329.305917 281.406386 
L 329.617058 281.390182 
L 329.779392 281.403294 
L 329.860559 281.380828 
L 329.887614 281.403374 
L 330.536951 281.405049 
L 330.672229 281.391857 
L 331.051008 281.405287 
L 331.145703 281.384491 
L 331.172759 281.403653 
L 331.335093 281.372626 
L 331.483899 281.40899 
L 331.7274 281.386586 
L 331.903262 281.392181 
L 332.119707 281.402327 
L 333.012545 281.391361 
L 333.147823 281.40867 
L 333.391324 281.386138 
L 333.567186 281.392497 
L 333.770103 281.387687 
L 333.932437 281.415984 
L 334.067716 281.396153 
L 334.311217 281.401025 
L 334.527662 281.394593 
L 334.662941 281.372068 
L 334.676468 281.391203 
L 334.811747 281.408345 
L 335.055248 281.385692 
L 335.23111 281.392816 
L 335.434027 281.387738 
L 335.596361 281.416112 
L 335.73164 281.396333 
L 335.975141 281.401011 
L 336.191586 281.394789 
L 336.326865 281.371801 
L 336.340392 281.391047 
L 336.475671 281.408014 
L 336.7327 281.396896 
L 336.867978 281.416292 
L 336.962673 281.368716 
L 337.003256 281.400696 
L 337.706704 281.405213 
L 337.801399 281.384492 
L 337.828454 281.403199 
L 337.990788 281.371544 
L 338.139595 281.407679 
L 338.396623 281.396745 
L 338.531902 281.41617 
L 338.626597 281.368664 
L 338.66718 281.400745 
L 339.248877 281.404651 
L 339.343572 281.386325 
L 339.3571 281.401813 
L 339.762935 281.403931 
L 339.844102 281.381406 
L 339.871158 281.402891 
L 340.398743 281.405147 
L 340.493438 281.385185 
L 340.506966 281.400132 
L 340.791051 281.401789 
L 340.872218 281.380981 
L 340.899273 281.403672 
L 341.940917 281.403091 
L 342.022084 281.380751 
L 342.049139 281.403472 
L 342.779642 281.389576 
L 343.063727 281.392662 
L 343.212533 281.405302 
L 343.307228 281.384527 
L 343.334284 281.403833 
L 343.496618 281.373134 
L 343.645424 281.409531 
L 343.875397 281.392211 
L 344.145954 281.389125 
L 344.281232 281.403011 
L 344.930568 281.399676 
L 345.065847 281.417261 
L 345.160542 281.372837 
L 345.201125 281.398634 
L 345.566377 281.397442 
L 345.701655 281.416685 
L 345.79635 281.369025 
L 345.836934 281.400477 
L 347.446746 281.402355 
L 347.527913 281.380759 
L 347.554969 281.403663 
L 348.474862 281.399614 
L 348.61014 281.368647 
L 348.758946 281.398171 
L 349.435338 281.390503 
L 349.705895 281.381331 
L 349.895284 281.389755 
L 350.260536 281.403655 
L 350.341703 281.381081 
L 350.368759 281.403138 
L 350.896344 281.405042 
L 350.991039 281.385458 
L 351.004567 281.400651 
L 351.288652 281.40138 
L 351.369819 281.381224 
L 351.396874 281.403619 
L 352.763186 281.390962 
L 352.979631 281.389597 
L 353.114909 281.40445 
L 353.561328 281.393245 
L 353.750718 281.396871 
L 354.170081 281.402912 
L 354.305359 281.384915 
L 358.458405 281.400631 
L 358.539572 281.381805 
L 358.566628 281.403412 
L 360.122329 281.400794 
L 360.203496 281.381667 
L 360.230551 281.403468 
L 361.786253 281.400954 
L 361.86742 281.381536 
L 361.894475 281.403517 
L 363.450176 281.401112 
L 363.531344 281.381414 
L 363.558399 281.40356 
L 364.99235 281.396407 
L 365.127628 281.369958 
L 365.276434 281.405098 
L 365.655214 281.391118 
L 365.790492 281.408165 
L 366.047521 281.396964 
L 366.182799 281.416345 
L 366.277494 281.368744 
L 366.318078 281.400672 
L 367.102692 281.388769 
L 367.440888 281.387834 
L 367.576167 281.397189 
L 368.049641 281.405094 
L 368.144336 281.385326 
L 368.157864 281.400413 
L 368.441948 281.401573 
L 368.523115 281.381102 
L 368.550171 281.40365 
L 369.713565 281.405131 
L 369.80826 281.385228 
L 369.821787 281.400221 
L 370.105872 281.401722 
L 370.187039 281.381017 
L 370.214095 281.403667 
L 371.255738 281.403036 
L 371.336905 281.380738 
L 371.363961 281.403495 
L 372.162103 281.395483 
L 372.297381 281.37093 
L 372.310909 281.390508 
L 372.446188 281.406803 
L 372.703217 281.396354 
L 372.838495 281.415832 
L 373.000829 281.380771 
L 373.230802 281.416614 
L 373.366081 281.397114 
L 373.650165 281.385984 
L 373.798971 281.402755 
L 373.961305 281.370706 
L 373.974833 281.39036 
L 374.110112 281.406451 
L 374.421252 281.390235 
L 374.583586 281.403273 
L 374.664753 281.380818 
L 374.691809 281.403385 
L 375.408784 281.415685 
L 375.544062 281.395752 
L 375.787563 281.40104 
L 376.004009 281.394167 
L 376.139287 281.372679 
L 376.152815 281.39155 
L 376.288093 281.409048 
L 376.531594 281.386669 
L 376.707456 281.392123 
L 376.923902 281.4024 
L 377.816739 281.39139 
L 377.952017 281.408729 
L 378.195518 281.386221 
L 378.37138 281.392439 
L 378.574298 281.387678 
L 378.736632 281.41596 
L 378.87191 281.39612 
L 379.115411 281.401027 
L 379.331856 281.394557 
L 379.467135 281.372117 
L 379.480663 281.391232 
L 379.615941 281.408405 
L 379.859442 281.385774 
L 380.035304 281.392757 
L 380.238221 281.387728 
L 380.400555 281.416089 
L 380.535834 281.3963 
L 380.779335 281.401014 
L 380.99578 281.394753 
L 381.131059 281.37185 
L 381.144586 281.391076 
L 381.279865 281.408075 
L 381.536894 281.396923 
L 381.672172 281.416313 
L 381.766867 281.368727 
L 381.80745 281.400686 
L 382.510898 281.405217 
L 382.605593 281.384489 
L 382.632648 281.403221 
L 382.794983 281.37159 
L 382.943789 281.407741 
L 383.200818 281.396773 
L 383.336096 281.416193 
L 383.430791 281.368673 
L 383.471374 281.400737 
L 384.053071 281.404638 
L 384.147766 281.386351 
L 384.161294 281.40184 
L 384.567129 281.403913 
L 384.648296 281.381381 
L 384.675352 281.402909 
L 385.202937 281.405141 
L 385.297632 281.385202 
L 385.31116 281.400168 
L 385.595245 281.401762 
L 385.676412 281.380995 
L 385.703467 281.40367 
L 386.745111 281.403069 
L 386.826278 281.380746 
L 386.853333 281.403482 
L 387.651476 281.395536 
L 387.786754 281.370868 
L 387.800282 281.390467 
L 387.93556 281.406708 
L 388.192589 281.396312 
L 388.327868 281.415793 
L 388.490202 281.380783 
L 388.720175 281.41664 
L 388.855453 281.397159 
L 389.139538 281.385949 
L 389.288344 281.40272 
L 389.450678 281.370646 
L 389.464206 281.39032 
L 389.599484 281.406354 
L 389.910624 281.390157 
L 390.072958 281.403305 
L 390.154126 281.380833 
L 390.181181 281.403369 
L 390.830517 281.405045 
L 390.965796 281.391888 
L 391.344575 281.405286 
L 391.43927 281.38449 
L 391.466326 281.403644 
L 391.62866 281.3726 
L 391.777466 281.408962 
L 392.020967 281.386547 
L 392.196829 281.392209 
L 392.399746 281.387647 
L 392.56208 281.415863 
L 392.697359 281.395987 
L 392.94086 281.401033 
L 393.157305 281.394415 
L 393.292584 281.372318 
L 393.306111 281.391347 
L 393.44139 281.408641 
L 393.684891 281.386099 
L 393.860753 281.392525 
L 394.06367 281.387691 
L 394.226004 281.415996 
L 394.361283 281.396169 
L 394.604784 281.401024 
L 394.821229 281.39461 
L 394.956507 281.372044 
L 394.970035 281.391189 
L 395.105314 281.408315 
L 395.348815 281.385652 
L 395.524677 281.392844 
L 395.727594 281.387743 
L 395.889928 281.416123 
L 396.025207 281.396349 
L 396.268708 281.40101 
L 396.485153 281.394806 
L 396.620431 281.371778 
L 396.633959 281.391033 
L 396.769238 281.407985 
L 397.026266 281.396882 
L 397.161545 281.416281 
L 397.25624 281.368711 
L 397.296823 281.4007 
L 398.000271 281.40521 
L 398.094965 281.384493 
L 398.122021 281.403189 
L 398.284355 281.371521 
L 398.433161 281.407649 
L 398.487273 281.387842 
L 398.487273 281.387842 
" style="fill:none;stroke:#d62728;stroke-linecap:square;stroke-width:1.5;"/>
   </g>
   <g id="line2d_19">
    <path clip-path="url(#p99a7b80925)" d="M 73.832727 293.66186 
L 398.487273 293.66186 
L 398.487273 293.66186 
" style="fill:none;stroke:#9467bd;stroke-linecap:square;stroke-width:1.5;"/>
   </g>
   <g id="patch_3">
    <path d="M 57.6 307.584 
L 57.6 41.472 
" style="fill:none;stroke:#000000;stroke-linecap:square;stroke-linejoin:miter;stroke-width:0.8;"/>
   </g>
   <g id="patch_4">
    <path d="M 414.72 307.584 
L 414.72 41.472 
" style="fill:none;stroke:#000000;stroke-linecap:square;stroke-linejoin:miter;stroke-width:0.8;"/>
   </g>
   <g id="patch_5">
    <path d="M 57.6 307.584 
L 414.72 307.584 
" style="fill:none;stroke:#000000;stroke-linecap:square;stroke-linejoin:miter;stroke-width:0.8;"/>
   </g>
   <g id="patch_6">
    <path d="M 57.6 41.472 
L 414.72 41.472 
" style="fill:none;stroke:#000000;stroke-linecap:square;stroke-linejoin:miter;stroke-width:0.8;"/>
   </g>
   <g id="legend_1">
    <g id="patch_7">
     <path d="M 356.516875 122.862625 
L 407.72 122.862625 
Q 409.72 122.862625 409.72 120.862625 
L 409.72 48.472 
Q 409.72 46.472 407.72 46.472 
L 356.516875 46.472 
Q 354.516875 46.472 354.516875 48.472 
L 354.516875 120.862625 
Q 354.516875 122.862625 356.516875 122.862625 
z
" style="fill:#ffffff;opacity:0.8;stroke:#cccccc;stroke-linejoin:miter;"/>
    </g>
    <g id="line2d_20">
     <path d="M 358.516875 54.570438 
L 378.516875 54.570438 
" style="fill:none;stroke:#1f77b4;stroke-linecap:square;stroke-width:1.5;"/>
    </g>
    <g id="line2d_21"/>
    <g id="text_18">
     <!-- T+ -->
     <g transform="translate(386.516875 58.070438)scale(0.1 -0.1)">
      <defs>
       <path d="M 46 62.703125 
L 46 35.5 
L 73.1875 35.5 
L 73.1875 27.203125 
L 46 27.203125 
L 46 0 
L 37.796875 0 
L 37.796875 27.203125 
L 10.59375 27.203125 
L 10.59375 35.5 
L 37.796875 35.5 
L 37.796875 62.703125 
z
" id="DejaVuSans-43"/>
      </defs>
      <use xlink:href="#DejaVuSans-84"/>
      <use x="61.083984" xlink:href="#DejaVuSans-43"/>
     </g>
    </g>
    <g id="line2d_22">
     <path d="M 358.516875 69.248563 
L 378.516875 69.248563 
" style="fill:none;stroke:#ff7f0e;stroke-linecap:square;stroke-width:1.5;"/>
    </g>
    <g id="line2d_23"/>
    <g id="text_19">
     <!-- Tp -->
     <g transform="translate(386.516875 72.748563)scale(0.1 -0.1)">
      <defs>
       <path d="M 18.109375 8.203125 
L 18.109375 -20.796875 
L 9.078125 -20.796875 
L 9.078125 54.6875 
L 18.109375 54.6875 
L 18.109375 46.390625 
Q 20.953125 51.265625 25.265625 53.625 
Q 29.59375 56 35.59375 56 
Q 45.5625 56 51.78125 48.09375 
Q 58.015625 40.1875 58.015625 27.296875 
Q 58.015625 14.40625 51.78125 6.484375 
Q 45.5625 -1.421875 35.59375 -1.421875 
Q 29.59375 -1.421875 25.265625 0.953125 
Q 20.953125 3.328125 18.109375 8.203125 
z
M 48.6875 27.296875 
Q 48.6875 37.203125 44.609375 42.84375 
Q 40.53125 48.484375 33.40625 48.484375 
Q 26.265625 48.484375 22.1875 42.84375 
Q 18.109375 37.203125 18.109375 27.296875 
Q 18.109375 17.390625 22.1875 11.75 
Q 26.265625 6.109375 33.40625 6.109375 
Q 40.53125 6.109375 44.609375 11.75 
Q 48.6875 17.390625 48.6875 27.296875 
z
" id="DejaVuSans-112"/>
      </defs>
      <use xlink:href="#DejaVuSans-84"/>
      <use x="61.083984" xlink:href="#DejaVuSans-112"/>
     </g>
    </g>
    <g id="line2d_24">
     <path d="M 358.516875 83.926688 
L 378.516875 83.926688 
" style="fill:none;stroke:#2ca02c;stroke-linecap:square;stroke-width:1.5;"/>
    </g>
    <g id="line2d_25"/>
    <g id="text_20">
     <!-- T- -->
     <g transform="translate(386.516875 87.426688)scale(0.1 -0.1)">
      <defs>
       <path d="M 4.890625 31.390625 
L 31.203125 31.390625 
L 31.203125 23.390625 
L 4.890625 23.390625 
z
" id="DejaVuSans-45"/>
      </defs>
      <use xlink:href="#DejaVuSans-84"/>
      <use x="51.958984" xlink:href="#DejaVuSans-45"/>
     </g>
    </g>
    <g id="line2d_26">
     <path d="M 358.516875 98.604813 
L 378.516875 98.604813 
" style="fill:none;stroke:#d62728;stroke-linecap:square;stroke-width:1.5;"/>
    </g>
    <g id="line2d_27"/>
    <g id="text_21">
     <!-- O2 -->
     <g transform="translate(386.516875 102.104813)scale(0.1 -0.1)">
      <defs>
       <path d="M 39.40625 66.21875 
Q 28.65625 66.21875 22.328125 58.203125 
Q 16.015625 50.203125 16.015625 36.375 
Q 16.015625 22.609375 22.328125 14.59375 
Q 28.65625 6.59375 39.40625 6.59375 
Q 50.140625 6.59375 56.421875 14.59375 
Q 62.703125 22.609375 62.703125 36.375 
Q 62.703125 50.203125 56.421875 58.203125 
Q 50.140625 66.21875 39.40625 66.21875 
z
M 39.40625 74.21875 
Q 54.734375 74.21875 63.90625 63.9375 
Q 73.09375 53.65625 73.09375 36.375 
Q 73.09375 19.140625 63.90625 8.859375 
Q 54.734375 -1.421875 39.40625 -1.421875 
Q 24.03125 -1.421875 14.8125 8.828125 
Q 5.609375 19.09375 5.609375 36.375 
Q 5.609375 53.65625 14.8125 63.9375 
Q 24.03125 74.21875 39.40625 74.21875 
z
" id="DejaVuSans-79"/>
      </defs>
      <use xlink:href="#DejaVuSans-79"/>
      <use x="78.710938" xlink:href="#DejaVuSans-50"/>
     </g>
    </g>
    <g id="line2d_28">
     <path d="M 358.516875 113.282938 
L 378.516875 113.282938 
" style="fill:none;stroke:#9467bd;stroke-linecap:square;stroke-width:1.5;"/>
    </g>
    <g id="line2d_29"/>
    <g id="text_22">
     <!-- test -->
     <g transform="translate(386.516875 116.782938)scale(0.1 -0.1)">
      <use xlink:href="#DejaVuSans-116"/>
      <use x="39.208984" xlink:href="#DejaVuSans-101"/>
      <use x="100.732422" xlink:href="#DejaVuSans-115"/>
      <use x="152.832031" xlink:href="#DejaVuSans-116"/>
     </g>
    </g>
   </g>
  </g>
 </g>
 <defs>
  <clipPath id="p99a7b80925">
   <rect height="266.112" width="357.12" x="57.6" y="41.472"/>
  </clipPath>
 </defs>
</svg>
