<?xml version="1.0" encoding="utf-8" standalone="no"?>
<!DOCTYPE svg PUBLIC "-//W3C//DTD SVG 1.1//EN"
  "http://www.w3.org/Graphics/SVG/1.1/DTD/svg11.dtd">
<!-- Created with matplotlib (https://matplotlib.org/) -->
<svg height="345.6pt" version="1.1" viewBox="0 0 460.8 345.6" width="460.8pt" xmlns="http://www.w3.org/2000/svg" xmlns:xlink="http://www.w3.org/1999/xlink">
 <metadata>
  <rdf:RDF xmlns:cc="http://creativecommons.org/ns#" xmlns:dc="http://purl.org/dc/elements/1.1/" xmlns:rdf="http://www.w3.org/1999/02/22-rdf-syntax-ns#">
   <cc:Work>
    <dc:type rdf:resource="http://purl.org/dc/dcmitype/StillImage"/>
    <dc:date>2020-10-24T13:52:56.581420</dc:date>
    <dc:format>image/svg+xml</dc:format>
    <dc:creator>
     <cc:Agent>
      <dc:title>Matplotlib v3.3.2, https://matplotlib.org/</dc:title>
     </cc:Agent>
    </dc:creator>
   </cc:Work>
  </rdf:RDF>
 </metadata>
 <defs>
  <style type="text/css">*{stroke-linecap:butt;stroke-linejoin:round;}</style>
 </defs>
 <g id="figure_1">
  <g id="patch_1">
   <path d="M 0 345.6 
L 460.8 345.6 
L 460.8 0 
L 0 0 
z
" style="fill:#ffffff;"/>
  </g>
  <g id="axes_1">
   <g id="patch_2">
    <path d="M 57.6 307.584 
L 414.72 307.584 
L 414.72 41.472 
L 57.6 41.472 
z
" style="fill:#ffffff;"/>
   </g>
   <g id="matplotlib.axis_1">
    <g id="xtick_1">
     <g id="line2d_1">
      <defs>
       <path d="M 0 0 
L 0 3.5 
" id="m4452835476" style="stroke:#000000;stroke-width:0.8;"/>
      </defs>
      <g>
       <use style="stroke:#000000;stroke-width:0.8;" x="73.832727" xlink:href="#m4452835476" y="307.584"/>
      </g>
     </g>
     <g id="text_1">
      <!-- 0.0 -->
      <g transform="translate(65.881165 322.182437)scale(0.1 -0.1)">
       <defs>
        <path d="M 31.78125 66.40625 
Q 24.171875 66.40625 20.328125 58.90625 
Q 16.5 51.421875 16.5 36.375 
Q 16.5 21.390625 20.328125 13.890625 
Q 24.171875 6.390625 31.78125 6.390625 
Q 39.453125 6.390625 43.28125 13.890625 
Q 47.125 21.390625 47.125 36.375 
Q 47.125 51.421875 43.28125 58.90625 
Q 39.453125 66.40625 31.78125 66.40625 
z
M 31.78125 74.21875 
Q 44.046875 74.21875 50.515625 64.515625 
Q 56.984375 54.828125 56.984375 36.375 
Q 56.984375 17.96875 50.515625 8.265625 
Q 44.046875 -1.421875 31.78125 -1.421875 
Q 19.53125 -1.421875 13.0625 8.265625 
Q 6.59375 17.96875 6.59375 36.375 
Q 6.59375 54.828125 13.0625 64.515625 
Q 19.53125 74.21875 31.78125 74.21875 
z
" id="DejaVuSans-48"/>
        <path d="M 10.6875 12.40625 
L 21 12.40625 
L 21 0 
L 10.6875 0 
z
" id="DejaVuSans-46"/>
       </defs>
       <use xlink:href="#DejaVuSans-48"/>
       <use x="63.623047" xlink:href="#DejaVuSans-46"/>
       <use x="95.410156" xlink:href="#DejaVuSans-48"/>
      </g>
     </g>
    </g>
    <g id="xtick_2">
     <g id="line2d_2">
      <g>
       <use style="stroke:#000000;stroke-width:0.8;" x="118.925515" xlink:href="#m4452835476" y="307.584"/>
      </g>
     </g>
     <g id="text_2">
      <!-- 0.2 -->
      <g transform="translate(110.973953 322.182437)scale(0.1 -0.1)">
       <defs>
        <path d="M 19.1875 8.296875 
L 53.609375 8.296875 
L 53.609375 0 
L 7.328125 0 
L 7.328125 8.296875 
Q 12.9375 14.109375 22.625 23.890625 
Q 32.328125 33.6875 34.8125 36.53125 
Q 39.546875 41.84375 41.421875 45.53125 
Q 43.3125 49.21875 43.3125 52.78125 
Q 43.3125 58.59375 39.234375 62.25 
Q 35.15625 65.921875 28.609375 65.921875 
Q 23.96875 65.921875 18.8125 64.3125 
Q 13.671875 62.703125 7.8125 59.421875 
L 7.8125 69.390625 
Q 13.765625 71.78125 18.9375 73 
Q 24.125 74.21875 28.421875 74.21875 
Q 39.75 74.21875 46.484375 68.546875 
Q 53.21875 62.890625 53.21875 53.421875 
Q 53.21875 48.921875 51.53125 44.890625 
Q 49.859375 40.875 45.40625 35.40625 
Q 44.1875 33.984375 37.640625 27.21875 
Q 31.109375 20.453125 19.1875 8.296875 
z
" id="DejaVuSans-50"/>
       </defs>
       <use xlink:href="#DejaVuSans-48"/>
       <use x="63.623047" xlink:href="#DejaVuSans-46"/>
       <use x="95.410156" xlink:href="#DejaVuSans-50"/>
      </g>
     </g>
    </g>
    <g id="xtick_3">
     <g id="line2d_3">
      <g>
       <use style="stroke:#000000;stroke-width:0.8;" x="164.018303" xlink:href="#m4452835476" y="307.584"/>
      </g>
     </g>
     <g id="text_3">
      <!-- 0.4 -->
      <g transform="translate(156.066741 322.182437)scale(0.1 -0.1)">
       <defs>
        <path d="M 37.796875 64.3125 
L 12.890625 25.390625 
L 37.796875 25.390625 
z
M 35.203125 72.90625 
L 47.609375 72.90625 
L 47.609375 25.390625 
L 58.015625 25.390625 
L 58.015625 17.1875 
L 47.609375 17.1875 
L 47.609375 0 
L 37.796875 0 
L 37.796875 17.1875 
L 4.890625 17.1875 
L 4.890625 26.703125 
z
" id="DejaVuSans-52"/>
       </defs>
       <use xlink:href="#DejaVuSans-48"/>
       <use x="63.623047" xlink:href="#DejaVuSans-46"/>
       <use x="95.410156" xlink:href="#DejaVuSans-52"/>
      </g>
     </g>
    </g>
    <g id="xtick_4">
     <g id="line2d_4">
      <g>
       <use style="stroke:#000000;stroke-width:0.8;" x="209.111091" xlink:href="#m4452835476" y="307.584"/>
      </g>
     </g>
     <g id="text_4">
      <!-- 0.6 -->
      <g transform="translate(201.159529 322.182437)scale(0.1 -0.1)">
       <defs>
        <path d="M 33.015625 40.375 
Q 26.375 40.375 22.484375 35.828125 
Q 18.609375 31.296875 18.609375 23.390625 
Q 18.609375 15.53125 22.484375 10.953125 
Q 26.375 6.390625 33.015625 6.390625 
Q 39.65625 6.390625 43.53125 10.953125 
Q 47.40625 15.53125 47.40625 23.390625 
Q 47.40625 31.296875 43.53125 35.828125 
Q 39.65625 40.375 33.015625 40.375 
z
M 52.59375 71.296875 
L 52.59375 62.3125 
Q 48.875 64.0625 45.09375 64.984375 
Q 41.3125 65.921875 37.59375 65.921875 
Q 27.828125 65.921875 22.671875 59.328125 
Q 17.53125 52.734375 16.796875 39.40625 
Q 19.671875 43.65625 24.015625 45.921875 
Q 28.375 48.1875 33.59375 48.1875 
Q 44.578125 48.1875 50.953125 41.515625 
Q 57.328125 34.859375 57.328125 23.390625 
Q 57.328125 12.15625 50.6875 5.359375 
Q 44.046875 -1.421875 33.015625 -1.421875 
Q 20.359375 -1.421875 13.671875 8.265625 
Q 6.984375 17.96875 6.984375 36.375 
Q 6.984375 53.65625 15.1875 63.9375 
Q 23.390625 74.21875 37.203125 74.21875 
Q 40.921875 74.21875 44.703125 73.484375 
Q 48.484375 72.75 52.59375 71.296875 
z
" id="DejaVuSans-54"/>
       </defs>
       <use xlink:href="#DejaVuSans-48"/>
       <use x="63.623047" xlink:href="#DejaVuSans-46"/>
       <use x="95.410156" xlink:href="#DejaVuSans-54"/>
      </g>
     </g>
    </g>
    <g id="xtick_5">
     <g id="line2d_5">
      <g>
       <use style="stroke:#000000;stroke-width:0.8;" x="254.203879" xlink:href="#m4452835476" y="307.584"/>
      </g>
     </g>
     <g id="text_5">
      <!-- 0.8 -->
      <g transform="translate(246.252317 322.182437)scale(0.1 -0.1)">
       <defs>
        <path d="M 31.78125 34.625 
Q 24.75 34.625 20.71875 30.859375 
Q 16.703125 27.09375 16.703125 20.515625 
Q 16.703125 13.921875 20.71875 10.15625 
Q 24.75 6.390625 31.78125 6.390625 
Q 38.8125 6.390625 42.859375 10.171875 
Q 46.921875 13.96875 46.921875 20.515625 
Q 46.921875 27.09375 42.890625 30.859375 
Q 38.875 34.625 31.78125 34.625 
z
M 21.921875 38.8125 
Q 15.578125 40.375 12.03125 44.71875 
Q 8.5 49.078125 8.5 55.328125 
Q 8.5 64.0625 14.71875 69.140625 
Q 20.953125 74.21875 31.78125 74.21875 
Q 42.671875 74.21875 48.875 69.140625 
Q 55.078125 64.0625 55.078125 55.328125 
Q 55.078125 49.078125 51.53125 44.71875 
Q 48 40.375 41.703125 38.8125 
Q 48.828125 37.15625 52.796875 32.3125 
Q 56.78125 27.484375 56.78125 20.515625 
Q 56.78125 9.90625 50.3125 4.234375 
Q 43.84375 -1.421875 31.78125 -1.421875 
Q 19.734375 -1.421875 13.25 4.234375 
Q 6.78125 9.90625 6.78125 20.515625 
Q 6.78125 27.484375 10.78125 32.3125 
Q 14.796875 37.15625 21.921875 38.8125 
z
M 18.3125 54.390625 
Q 18.3125 48.734375 21.84375 45.5625 
Q 25.390625 42.390625 31.78125 42.390625 
Q 38.140625 42.390625 41.71875 45.5625 
Q 45.3125 48.734375 45.3125 54.390625 
Q 45.3125 60.0625 41.71875 63.234375 
Q 38.140625 66.40625 31.78125 66.40625 
Q 25.390625 66.40625 21.84375 63.234375 
Q 18.3125 60.0625 18.3125 54.390625 
z
" id="DejaVuSans-56"/>
       </defs>
       <use xlink:href="#DejaVuSans-48"/>
       <use x="63.623047" xlink:href="#DejaVuSans-46"/>
       <use x="95.410156" xlink:href="#DejaVuSans-56"/>
      </g>
     </g>
    </g>
    <g id="xtick_6">
     <g id="line2d_6">
      <g>
       <use style="stroke:#000000;stroke-width:0.8;" x="299.296667" xlink:href="#m4452835476" y="307.584"/>
      </g>
     </g>
     <g id="text_6">
      <!-- 1.0 -->
      <g transform="translate(291.345105 322.182437)scale(0.1 -0.1)">
       <defs>
        <path d="M 12.40625 8.296875 
L 28.515625 8.296875 
L 28.515625 63.921875 
L 10.984375 60.40625 
L 10.984375 69.390625 
L 28.421875 72.90625 
L 38.28125 72.90625 
L 38.28125 8.296875 
L 54.390625 8.296875 
L 54.390625 0 
L 12.40625 0 
z
" id="DejaVuSans-49"/>
       </defs>
       <use xlink:href="#DejaVuSans-49"/>
       <use x="63.623047" xlink:href="#DejaVuSans-46"/>
       <use x="95.410156" xlink:href="#DejaVuSans-48"/>
      </g>
     </g>
    </g>
    <g id="xtick_7">
     <g id="line2d_7">
      <g>
       <use style="stroke:#000000;stroke-width:0.8;" x="344.389455" xlink:href="#m4452835476" y="307.584"/>
      </g>
     </g>
     <g id="text_7">
      <!-- 1.2 -->
      <g transform="translate(336.437893 322.182437)scale(0.1 -0.1)">
       <use xlink:href="#DejaVuSans-49"/>
       <use x="63.623047" xlink:href="#DejaVuSans-46"/>
       <use x="95.410156" xlink:href="#DejaVuSans-50"/>
      </g>
     </g>
    </g>
    <g id="xtick_8">
     <g id="line2d_8">
      <g>
       <use style="stroke:#000000;stroke-width:0.8;" x="389.482243" xlink:href="#m4452835476" y="307.584"/>
      </g>
     </g>
     <g id="text_8">
      <!-- 1.4 -->
      <g transform="translate(381.53068 322.182437)scale(0.1 -0.1)">
       <use xlink:href="#DejaVuSans-49"/>
       <use x="63.623047" xlink:href="#DejaVuSans-46"/>
       <use x="95.410156" xlink:href="#DejaVuSans-52"/>
      </g>
     </g>
    </g>
    <g id="text_9">
     <!-- Time (min) -->
     <g transform="translate(209.007656 335.860562)scale(0.1 -0.1)">
      <defs>
       <path d="M -0.296875 72.90625 
L 61.375 72.90625 
L 61.375 64.59375 
L 35.5 64.59375 
L 35.5 0 
L 25.59375 0 
L 25.59375 64.59375 
L -0.296875 64.59375 
z
" id="DejaVuSans-84"/>
       <path d="M 9.421875 54.6875 
L 18.40625 54.6875 
L 18.40625 0 
L 9.421875 0 
z
M 9.421875 75.984375 
L 18.40625 75.984375 
L 18.40625 64.59375 
L 9.421875 64.59375 
z
" id="DejaVuSans-105"/>
       <path d="M 52 44.1875 
Q 55.375 50.25 60.0625 53.125 
Q 64.75 56 71.09375 56 
Q 79.640625 56 84.28125 50.015625 
Q 88.921875 44.046875 88.921875 33.015625 
L 88.921875 0 
L 79.890625 0 
L 79.890625 32.71875 
Q 79.890625 40.578125 77.09375 44.375 
Q 74.3125 48.1875 68.609375 48.1875 
Q 61.625 48.1875 57.5625 43.546875 
Q 53.515625 38.921875 53.515625 30.90625 
L 53.515625 0 
L 44.484375 0 
L 44.484375 32.71875 
Q 44.484375 40.625 41.703125 44.40625 
Q 38.921875 48.1875 33.109375 48.1875 
Q 26.21875 48.1875 22.15625 43.53125 
Q 18.109375 38.875 18.109375 30.90625 
L 18.109375 0 
L 9.078125 0 
L 9.078125 54.6875 
L 18.109375 54.6875 
L 18.109375 46.1875 
Q 21.1875 51.21875 25.484375 53.609375 
Q 29.78125 56 35.6875 56 
Q 41.65625 56 45.828125 52.96875 
Q 50 49.953125 52 44.1875 
z
" id="DejaVuSans-109"/>
       <path d="M 56.203125 29.59375 
L 56.203125 25.203125 
L 14.890625 25.203125 
Q 15.484375 15.921875 20.484375 11.0625 
Q 25.484375 6.203125 34.421875 6.203125 
Q 39.59375 6.203125 44.453125 7.46875 
Q 49.3125 8.734375 54.109375 11.28125 
L 54.109375 2.78125 
Q 49.265625 0.734375 44.1875 -0.34375 
Q 39.109375 -1.421875 33.890625 -1.421875 
Q 20.796875 -1.421875 13.15625 6.1875 
Q 5.515625 13.8125 5.515625 26.8125 
Q 5.515625 40.234375 12.765625 48.109375 
Q 20.015625 56 32.328125 56 
Q 43.359375 56 49.78125 48.890625 
Q 56.203125 41.796875 56.203125 29.59375 
z
M 47.21875 32.234375 
Q 47.125 39.59375 43.09375 43.984375 
Q 39.0625 48.390625 32.421875 48.390625 
Q 24.90625 48.390625 20.390625 44.140625 
Q 15.875 39.890625 15.1875 32.171875 
z
" id="DejaVuSans-101"/>
       <path id="DejaVuSans-32"/>
       <path d="M 31 75.875 
Q 24.46875 64.65625 21.28125 53.65625 
Q 18.109375 42.671875 18.109375 31.390625 
Q 18.109375 20.125 21.3125 9.0625 
Q 24.515625 -2 31 -13.1875 
L 23.1875 -13.1875 
Q 15.875 -1.703125 12.234375 9.375 
Q 8.59375 20.453125 8.59375 31.390625 
Q 8.59375 42.28125 12.203125 53.3125 
Q 15.828125 64.359375 23.1875 75.875 
z
" id="DejaVuSans-40"/>
       <path d="M 54.890625 33.015625 
L 54.890625 0 
L 45.90625 0 
L 45.90625 32.71875 
Q 45.90625 40.484375 42.875 44.328125 
Q 39.84375 48.1875 33.796875 48.1875 
Q 26.515625 48.1875 22.3125 43.546875 
Q 18.109375 38.921875 18.109375 30.90625 
L 18.109375 0 
L 9.078125 0 
L 9.078125 54.6875 
L 18.109375 54.6875 
L 18.109375 46.1875 
Q 21.34375 51.125 25.703125 53.5625 
Q 30.078125 56 35.796875 56 
Q 45.21875 56 50.046875 50.171875 
Q 54.890625 44.34375 54.890625 33.015625 
z
" id="DejaVuSans-110"/>
       <path d="M 8.015625 75.875 
L 15.828125 75.875 
Q 23.140625 64.359375 26.78125 53.3125 
Q 30.421875 42.28125 30.421875 31.390625 
Q 30.421875 20.453125 26.78125 9.375 
Q 23.140625 -1.703125 15.828125 -13.1875 
L 8.015625 -13.1875 
Q 14.5 -2 17.703125 9.0625 
Q 20.90625 20.125 20.90625 31.390625 
Q 20.90625 42.671875 17.703125 53.65625 
Q 14.5 64.65625 8.015625 75.875 
z
" id="DejaVuSans-41"/>
      </defs>
      <use xlink:href="#DejaVuSans-84"/>
      <use x="57.958984" xlink:href="#DejaVuSans-105"/>
      <use x="85.742188" xlink:href="#DejaVuSans-109"/>
      <use x="183.154297" xlink:href="#DejaVuSans-101"/>
      <use x="244.677734" xlink:href="#DejaVuSans-32"/>
      <use x="276.464844" xlink:href="#DejaVuSans-40"/>
      <use x="315.478516" xlink:href="#DejaVuSans-109"/>
      <use x="412.890625" xlink:href="#DejaVuSans-105"/>
      <use x="440.673828" xlink:href="#DejaVuSans-110"/>
      <use x="504.052734" xlink:href="#DejaVuSans-41"/>
     </g>
    </g>
    <g id="text_10">
     <!-- 1e6 -->
     <g transform="translate(395.841875 334.860562)scale(0.1 -0.1)">
      <use xlink:href="#DejaVuSans-49"/>
      <use x="63.623047" xlink:href="#DejaVuSans-101"/>
      <use x="125.146484" xlink:href="#DejaVuSans-54"/>
     </g>
    </g>
   </g>
   <g id="matplotlib.axis_2">
    <g id="ytick_1">
     <g id="line2d_9">
      <defs>
       <path d="M 0 0 
L -3.5 0 
" id="m7d9cd3997d" style="stroke:#000000;stroke-width:0.8;"/>
      </defs>
      <g>
       <use style="stroke:#000000;stroke-width:0.8;" x="57.6" xlink:href="#m7d9cd3997d" y="301.354706"/>
      </g>
     </g>
     <g id="text_11">
      <!-- −300 -->
      <g transform="translate(23.132812 305.153924)scale(0.1 -0.1)">
       <defs>
        <path d="M 10.59375 35.5 
L 73.1875 35.5 
L 73.1875 27.203125 
L 10.59375 27.203125 
z
" id="DejaVuSans-8722"/>
        <path d="M 40.578125 39.3125 
Q 47.65625 37.796875 51.625 33 
Q 55.609375 28.21875 55.609375 21.1875 
Q 55.609375 10.40625 48.1875 4.484375 
Q 40.765625 -1.421875 27.09375 -1.421875 
Q 22.515625 -1.421875 17.65625 -0.515625 
Q 12.796875 0.390625 7.625 2.203125 
L 7.625 11.71875 
Q 11.71875 9.328125 16.59375 8.109375 
Q 21.484375 6.890625 26.8125 6.890625 
Q 36.078125 6.890625 40.9375 10.546875 
Q 45.796875 14.203125 45.796875 21.1875 
Q 45.796875 27.640625 41.28125 31.265625 
Q 36.765625 34.90625 28.71875 34.90625 
L 20.21875 34.90625 
L 20.21875 43.015625 
L 29.109375 43.015625 
Q 36.375 43.015625 40.234375 45.921875 
Q 44.09375 48.828125 44.09375 54.296875 
Q 44.09375 59.90625 40.109375 62.90625 
Q 36.140625 65.921875 28.71875 65.921875 
Q 24.65625 65.921875 20.015625 65.03125 
Q 15.375 64.15625 9.8125 62.3125 
L 9.8125 71.09375 
Q 15.4375 72.65625 20.34375 73.4375 
Q 25.25 74.21875 29.59375 74.21875 
Q 40.828125 74.21875 47.359375 69.109375 
Q 53.90625 64.015625 53.90625 55.328125 
Q 53.90625 49.265625 50.4375 45.09375 
Q 46.96875 40.921875 40.578125 39.3125 
z
" id="DejaVuSans-51"/>
       </defs>
       <use xlink:href="#DejaVuSans-8722"/>
       <use x="83.789062" xlink:href="#DejaVuSans-51"/>
       <use x="147.412109" xlink:href="#DejaVuSans-48"/>
       <use x="211.035156" xlink:href="#DejaVuSans-48"/>
      </g>
     </g>
    </g>
    <g id="ytick_2">
     <g id="line2d_10">
      <g>
       <use style="stroke:#000000;stroke-width:0.8;" x="57.6" xlink:href="#m7d9cd3997d" y="270.381367"/>
      </g>
     </g>
     <g id="text_12">
      <!-- −250 -->
      <g transform="translate(23.132812 274.180586)scale(0.1 -0.1)">
       <defs>
        <path d="M 10.796875 72.90625 
L 49.515625 72.90625 
L 49.515625 64.59375 
L 19.828125 64.59375 
L 19.828125 46.734375 
Q 21.96875 47.46875 24.109375 47.828125 
Q 26.265625 48.1875 28.421875 48.1875 
Q 40.625 48.1875 47.75 41.5 
Q 54.890625 34.8125 54.890625 23.390625 
Q 54.890625 11.625 47.5625 5.09375 
Q 40.234375 -1.421875 26.90625 -1.421875 
Q 22.3125 -1.421875 17.546875 -0.640625 
Q 12.796875 0.140625 7.71875 1.703125 
L 7.71875 11.625 
Q 12.109375 9.234375 16.796875 8.0625 
Q 21.484375 6.890625 26.703125 6.890625 
Q 35.15625 6.890625 40.078125 11.328125 
Q 45.015625 15.765625 45.015625 23.390625 
Q 45.015625 31 40.078125 35.4375 
Q 35.15625 39.890625 26.703125 39.890625 
Q 22.75 39.890625 18.8125 39.015625 
Q 14.890625 38.140625 10.796875 36.28125 
z
" id="DejaVuSans-53"/>
       </defs>
       <use xlink:href="#DejaVuSans-8722"/>
       <use x="83.789062" xlink:href="#DejaVuSans-50"/>
       <use x="147.412109" xlink:href="#DejaVuSans-53"/>
       <use x="211.035156" xlink:href="#DejaVuSans-48"/>
      </g>
     </g>
    </g>
    <g id="ytick_3">
     <g id="line2d_11">
      <g>
       <use style="stroke:#000000;stroke-width:0.8;" x="57.6" xlink:href="#m7d9cd3997d" y="239.408029"/>
      </g>
     </g>
     <g id="text_13">
      <!-- −200 -->
      <g transform="translate(23.132812 243.207248)scale(0.1 -0.1)">
       <use xlink:href="#DejaVuSans-8722"/>
       <use x="83.789062" xlink:href="#DejaVuSans-50"/>
       <use x="147.412109" xlink:href="#DejaVuSans-48"/>
       <use x="211.035156" xlink:href="#DejaVuSans-48"/>
      </g>
     </g>
    </g>
    <g id="ytick_4">
     <g id="line2d_12">
      <g>
       <use style="stroke:#000000;stroke-width:0.8;" x="57.6" xlink:href="#m7d9cd3997d" y="208.434691"/>
      </g>
     </g>
     <g id="text_14">
      <!-- −150 -->
      <g transform="translate(23.132812 212.23391)scale(0.1 -0.1)">
       <use xlink:href="#DejaVuSans-8722"/>
       <use x="83.789062" xlink:href="#DejaVuSans-49"/>
       <use x="147.412109" xlink:href="#DejaVuSans-53"/>
       <use x="211.035156" xlink:href="#DejaVuSans-48"/>
      </g>
     </g>
    </g>
    <g id="ytick_5">
     <g id="line2d_13">
      <g>
       <use style="stroke:#000000;stroke-width:0.8;" x="57.6" xlink:href="#m7d9cd3997d" y="177.461353"/>
      </g>
     </g>
     <g id="text_15">
      <!-- −100 -->
      <g transform="translate(23.132812 181.260572)scale(0.1 -0.1)">
       <use xlink:href="#DejaVuSans-8722"/>
       <use x="83.789062" xlink:href="#DejaVuSans-49"/>
       <use x="147.412109" xlink:href="#DejaVuSans-48"/>
       <use x="211.035156" xlink:href="#DejaVuSans-48"/>
      </g>
     </g>
    </g>
    <g id="ytick_6">
     <g id="line2d_14">
      <g>
       <use style="stroke:#000000;stroke-width:0.8;" x="57.6" xlink:href="#m7d9cd3997d" y="146.488015"/>
      </g>
     </g>
     <g id="text_16">
      <!-- −50 -->
      <g transform="translate(29.495313 150.287233)scale(0.1 -0.1)">
       <use xlink:href="#DejaVuSans-8722"/>
       <use x="83.789062" xlink:href="#DejaVuSans-53"/>
       <use x="147.412109" xlink:href="#DejaVuSans-48"/>
      </g>
     </g>
    </g>
    <g id="ytick_7">
     <g id="line2d_15">
      <g>
       <use style="stroke:#000000;stroke-width:0.8;" x="57.6" xlink:href="#m7d9cd3997d" y="115.514676"/>
      </g>
     </g>
     <g id="text_17">
      <!-- 0 -->
      <g transform="translate(44.2375 119.313895)scale(0.1 -0.1)">
       <use xlink:href="#DejaVuSans-48"/>
      </g>
     </g>
    </g>
    <g id="ytick_8">
     <g id="line2d_16">
      <g>
       <use style="stroke:#000000;stroke-width:0.8;" x="57.6" xlink:href="#m7d9cd3997d" y="84.541338"/>
      </g>
     </g>
     <g id="text_18">
      <!-- 50 -->
      <g transform="translate(37.875 88.340557)scale(0.1 -0.1)">
       <use xlink:href="#DejaVuSans-53"/>
       <use x="63.623047" xlink:href="#DejaVuSans-48"/>
      </g>
     </g>
    </g>
    <g id="ytick_9">
     <g id="line2d_17">
      <g>
       <use style="stroke:#000000;stroke-width:0.8;" x="57.6" xlink:href="#m7d9cd3997d" y="53.568"/>
      </g>
     </g>
     <g id="text_19">
      <!-- 100 -->
      <g transform="translate(31.5125 57.367219)scale(0.1 -0.1)">
       <use xlink:href="#DejaVuSans-49"/>
       <use x="63.623047" xlink:href="#DejaVuSans-48"/>
       <use x="127.246094" xlink:href="#DejaVuSans-48"/>
      </g>
     </g>
    </g>
    <g id="text_20">
     <!-- Density -->
     <g transform="translate(17.053125 193.536594)rotate(-90)scale(0.1 -0.1)">
      <defs>
       <path d="M 19.671875 64.796875 
L 19.671875 8.109375 
L 31.59375 8.109375 
Q 46.6875 8.109375 53.6875 14.9375 
Q 60.6875 21.78125 60.6875 36.53125 
Q 60.6875 51.171875 53.6875 57.984375 
Q 46.6875 64.796875 31.59375 64.796875 
z
M 9.8125 72.90625 
L 30.078125 72.90625 
Q 51.265625 72.90625 61.171875 64.09375 
Q 71.09375 55.28125 71.09375 36.53125 
Q 71.09375 17.671875 61.125 8.828125 
Q 51.171875 0 30.078125 0 
L 9.8125 0 
z
" id="DejaVuSans-68"/>
       <path d="M 44.28125 53.078125 
L 44.28125 44.578125 
Q 40.484375 46.53125 36.375 47.5 
Q 32.28125 48.484375 27.875 48.484375 
Q 21.1875 48.484375 17.84375 46.4375 
Q 14.5 44.390625 14.5 40.28125 
Q 14.5 37.15625 16.890625 35.375 
Q 19.28125 33.59375 26.515625 31.984375 
L 29.59375 31.296875 
Q 39.15625 29.25 43.1875 25.515625 
Q 47.21875 21.78125 47.21875 15.09375 
Q 47.21875 7.46875 41.1875 3.015625 
Q 35.15625 -1.421875 24.609375 -1.421875 
Q 20.21875 -1.421875 15.453125 -0.5625 
Q 10.6875 0.296875 5.421875 2 
L 5.421875 11.28125 
Q 10.40625 8.6875 15.234375 7.390625 
Q 20.0625 6.109375 24.8125 6.109375 
Q 31.15625 6.109375 34.5625 8.28125 
Q 37.984375 10.453125 37.984375 14.40625 
Q 37.984375 18.0625 35.515625 20.015625 
Q 33.0625 21.96875 24.703125 23.78125 
L 21.578125 24.515625 
Q 13.234375 26.265625 9.515625 29.90625 
Q 5.8125 33.546875 5.8125 39.890625 
Q 5.8125 47.609375 11.28125 51.796875 
Q 16.75 56 26.8125 56 
Q 31.78125 56 36.171875 55.265625 
Q 40.578125 54.546875 44.28125 53.078125 
z
" id="DejaVuSans-115"/>
       <path d="M 18.3125 70.21875 
L 18.3125 54.6875 
L 36.8125 54.6875 
L 36.8125 47.703125 
L 18.3125 47.703125 
L 18.3125 18.015625 
Q 18.3125 11.328125 20.140625 9.421875 
Q 21.96875 7.515625 27.59375 7.515625 
L 36.8125 7.515625 
L 36.8125 0 
L 27.59375 0 
Q 17.1875 0 13.234375 3.875 
Q 9.28125 7.765625 9.28125 18.015625 
L 9.28125 47.703125 
L 2.6875 47.703125 
L 2.6875 54.6875 
L 9.28125 54.6875 
L 9.28125 70.21875 
z
" id="DejaVuSans-116"/>
       <path d="M 32.171875 -5.078125 
Q 28.375 -14.84375 24.75 -17.8125 
Q 21.140625 -20.796875 15.09375 -20.796875 
L 7.90625 -20.796875 
L 7.90625 -13.28125 
L 13.1875 -13.28125 
Q 16.890625 -13.28125 18.9375 -11.515625 
Q 21 -9.765625 23.484375 -3.21875 
L 25.09375 0.875 
L 2.984375 54.6875 
L 12.5 54.6875 
L 29.59375 11.921875 
L 46.6875 54.6875 
L 56.203125 54.6875 
z
" id="DejaVuSans-121"/>
      </defs>
      <use xlink:href="#DejaVuSans-68"/>
      <use x="77.001953" xlink:href="#DejaVuSans-101"/>
      <use x="138.525391" xlink:href="#DejaVuSans-110"/>
      <use x="201.904297" xlink:href="#DejaVuSans-115"/>
      <use x="254.003906" xlink:href="#DejaVuSans-105"/>
      <use x="281.787109" xlink:href="#DejaVuSans-116"/>
      <use x="320.996094" xlink:href="#DejaVuSans-121"/>
     </g>
    </g>
   </g>
   <g id="line2d_18">
    <path clip-path="url(#pbd8d9593e8)" d="M 73.832727 115.514676 
L 398.487273 115.514676 
L 398.487273 115.514676 
" style="fill:none;stroke:#1f77b4;stroke-linecap:square;stroke-width:1.5;"/>
   </g>
   <g id="line2d_19">
    <path clip-path="url(#pbd8d9593e8)" d="M 73.832727 115.514676 
L 398.487273 115.514676 
L 398.487273 115.514676 
" style="fill:none;stroke:#ff7f0e;stroke-linecap:square;stroke-width:1.5;"/>
   </g>
   <g id="line2d_20">
    <path clip-path="url(#pbd8d9593e8)" d="M 73.832727 109.320009 
L 74.089756 109.325396 
L 100.049674 110.425679 
L 128.769271 111.41653 
L 160.91141 112.298534 
L 193.432329 112.976188 
L 398.487273 112.976202 
L 398.487273 112.976202 
" style="fill:none;stroke:#2ca02c;stroke-linecap:square;stroke-width:1.5;"/>
   </g>
   <g id="line2d_21">
    <path clip-path="url(#pbd8d9593e8)" d="M 73.832727 53.568 
L 73.886839 295.488 
L 73.954478 295.192574 
L 73.968006 295.394381 
L 74.008589 294.819426 
L 74.049173 295.21683 
L 74.143868 294.29886 
L 74.170923 294.706107 
L 74.197979 294.804381 
L 74.211507 294.334901 
L 74.25209 294.701276 
L 74.279146 294.481778 
L 74.373841 293.98389 
L 74.333257 294.49007 
L 74.387369 294.142705 
L 74.400896 294.385517 
L 74.44148 293.710481 
L 74.482063 294.109842 
L 74.590286 293.458508 
L 74.603814 293.645926 
L 74.617342 293.835539 
L 74.657925 293.334754 
L 74.698509 293.695385 
L 74.806731 293.010376 
L 74.820259 293.263147 
L 74.833787 293.23266 
L 74.847315 293.320963 
L 74.955538 292.657516 
L 74.969066 292.819926 
L 74.982593 293.072536 
L 75.023177 292.417638 
L 75.06376 292.683141 
L 75.158455 292.033579 
L 75.199039 292.387792 
L 75.212567 292.476295 
L 75.239622 292.022645 
L 75.280206 292.300932 
L 75.388428 291.661451 
L 75.401956 291.816945 
L 75.415484 292.088743 
L 75.456068 291.498012 
L 75.496651 291.756667 
L 75.604874 291.174854 
L 75.618402 291.527126 
L 75.672513 291.037845 
L 75.713097 291.147197 
L 75.726624 291.122843 
L 75.807791 290.700014 
L 75.767208 291.184223 
L 75.834847 291.065639 
L 75.875431 290.300045 
L 75.983653 290.527803 
L 75.997181 290.740377 
L 76.037765 290.219642 
L 76.078348 290.389619 
L 76.173043 289.720675 
L 76.186571 289.928915 
L 76.200099 290.219307 
L 76.240682 289.706304 
L 76.281266 289.939076 
L 76.389488 289.204898 
L 76.403016 289.438683 
L 76.416544 289.617432 
L 76.470655 289.232928 
L 76.497711 289.421633 
L 76.511239 289.395516 
L 76.605934 288.887052 
L 76.619462 288.96683 
L 76.646517 289.208565 
L 76.687101 288.762277 
L 76.714156 288.951963 
L 76.822379 288.348149 
L 76.835907 288.443202 
L 76.862963 288.620064 
L 76.903546 288.234803 
L 76.930602 288.586614 
L 77.038824 287.913503 
L 77.052352 287.987238 
L 77.06588 288.080752 
L 77.092936 288.018181 
L 77.187631 287.560329 
L 77.201159 287.878515 
L 77.241742 287.22135 
L 77.349965 287.37724 
L 77.363493 287.614254 
L 77.404076 287.062504 
L 77.44466 287.279339 
L 77.539354 286.564289 
L 77.552882 286.790012 
L 77.56641 287.05175 
L 77.620521 286.584912 
L 77.647577 286.802604 
L 77.7558 286.045373 
L 77.782855 286.462959 
L 77.796383 286.528563 
L 77.823439 286.201241 
L 77.891078 285.854484 
L 77.864023 286.31367 
L 77.931662 286.101006 
L 77.94519 286.267369 
L 77.972245 285.797219 
L 78.026357 285.920824 
L 78.121051 285.310594 
L 78.080468 286.039956 
L 78.134579 285.514139 
L 78.148107 285.787689 
L 78.188691 285.248026 
L 78.229274 285.508554 
L 78.337497 284.885307 
L 78.351025 285.179274 
L 78.472775 284.479444 
L 78.37808 285.306257 
L 78.513359 284.81228 
L 78.526886 284.893843 
L 78.553942 284.457507 
L 78.594526 284.742395 
L 78.702748 284.108035 
L 78.716276 284.25627 
L 78.729804 284.510594 
L 78.770388 283.946442 
L 78.810971 284.195017 
L 78.905666 283.460149 
L 78.932722 283.909216 
L 79.122111 282.936402 
L 78.959777 283.932923 
L 79.135639 283.190604 
L 79.162695 283.478788 
L 79.203278 282.979057 
L 79.243862 283.217481 
L 79.352085 282.698456 
L 79.365612 282.819702 
L 79.406196 282.443941 
L 79.446779 282.950256 
L 79.555002 282.198389 
L 79.56853 282.211278 
L 79.595586 282.423469 
L 79.636169 281.955947 
L 79.663225 282.378705 
L 79.784975 281.737861 
L 79.798503 281.84862 
L 79.812031 281.919724 
L 79.825559 281.89059 
L 79.920254 281.398693 
L 79.933781 281.475317 
L 79.960837 281.706066 
L 80.001421 281.271669 
L 80.028476 281.459811 
L 80.136699 280.87508 
L 80.150227 280.963965 
L 80.177283 281.135669 
L 80.217866 280.757984 
L 80.25845 280.942571 
L 80.271977 280.413678 
L 80.366672 280.519331 
L 80.3802 280.610049 
L 80.407256 280.549284 
L 80.488423 279.882179 
L 80.515478 280.239014 
L 80.529006 280.447407 
L 80.56959 279.915828 
L 80.610173 280.167248 
L 80.718396 279.619348 
L 80.731924 279.737915 
L 80.786035 279.392134 
L 80.813091 279.880551 
L 80.853674 279.138772 
L 80.948369 279.306279 
L 80.961897 279.364346 
L 80.988953 279.197052 
L 81.07012 278.776152 
L 81.029536 279.309039 
L 81.097175 278.962249 
L 81.110703 279.211228 
L 81.151287 278.669051 
L 81.19187 278.865526 
L 81.286565 278.385164 
L 81.313621 278.514828 
L 81.327149 278.704267 
L 81.367732 278.168456 
L 81.394788 278.410593 
L 81.503011 277.851949 
L 81.530066 278.080195 
L 81.543594 278.101453 
L 81.638289 277.429099 
L 81.665345 277.70583 
L 81.678872 277.715362 
L 81.6924 277.895174 
L 81.719456 277.439879 
L 81.773567 277.547307 
L 81.868262 277.078999 
L 81.88179 277.316023 
L 82.084707 276.580459 
L 81.908846 277.350999 
L 82.111763 276.833069 
L 82.125291 276.820187 
L 82.219986 276.125223 
L 82.179402 276.830444 
L 82.247042 276.520267 
L 82.436431 275.793743 
L 82.274097 276.557151 
L 82.463487 275.929355 
L 82.477015 276.196284 
L 82.517598 275.639622 
L 82.558182 275.866011 
L 82.666404 275.361814 
L 82.679932 275.479147 
L 82.69346 275.721985 
L 82.734044 275.101071 
L 82.774627 275.274646 
L 82.788155 275.275694 
L 82.869322 274.87792 
L 82.828738 275.334152 
L 82.896378 275.052973 
L 82.909905 275.092487 
L 82.936961 274.881536 
L 83.0046 274.486569 
L 82.991073 275.015604 
L 83.045184 274.701986 
L 83.058712 274.90875 
L 83.099295 274.427123 
L 83.139879 274.571826 
L 83.234574 274.095808 
L 83.248101 274.258644 
L 83.261629 274.254716 
L 83.275157 274.362931 
L 83.38338 273.703174 
L 83.396908 273.868344 
L 83.410435 274.114711 
L 83.451019 273.58674 
L 83.491602 273.836126 
L 83.586297 273.165389 
L 83.613353 273.485333 
L 83.626881 273.470931 
L 83.640409 273.60064 
L 83.735104 272.860672 
L 83.762159 273.241751 
L 83.965077 272.543736 
L 83.978605 272.656582 
L 83.992132 272.866024 
L 84.032716 272.3586 
L 84.073299 272.454915 
L 84.086827 272.442819 
L 84.167994 271.909942 
L 84.19505 272.321204 
L 84.3168 271.641415 
L 84.343856 271.904594 
L 84.357384 272.08659 
L 84.370912 271.577513 
L 84.425023 271.944338 
L 84.519718 271.234469 
L 84.546774 271.399296 
L 84.573829 271.58658 
L 84.587357 271.286885 
L 84.682052 270.972143 
L 84.641469 271.398434 
L 84.722636 271.022944 
L 84.736163 271.019317 
L 84.81733 270.638775 
L 84.776747 271.131453 
L 84.844386 270.855524 
L 84.857914 270.876795 
L 84.871442 270.699102 
L 84.952609 270.256998 
L 84.912025 270.795696 
L 84.979664 270.478426 
L 85.00672 270.667096 
L 85.020248 270.347938 
L 85.101415 269.923665 
L 85.074359 270.374424 
L 85.141998 270.218284 
L 85.155526 270.28285 
L 85.250221 269.710145 
L 85.263749 269.76632 
L 85.290805 269.941582 
L 85.331388 269.550559 
L 85.358444 269.912876 
L 85.466667 269.089086 
L 85.493722 269.422475 
L 85.520778 269.409059 
L 85.615473 268.964695 
L 85.629001 269.078002 
L 85.642528 269.15131 
L 85.669584 269.038847 
L 85.750751 268.633676 
L 85.710168 269.07751 
L 85.777807 268.760023 
L 85.791335 269.010186 
L 85.831918 268.478943 
L 85.872502 268.696682 
L 85.980724 268.225812 
L 85.994252 268.318219 
L 86.00778 268.456729 
L 86.048364 268.038454 
L 86.075419 268.216742 
L 86.251281 267.555073 
L 86.264809 267.610829 
L 86.278337 267.812084 
L 86.31892 267.386282 
L 86.373032 267.755766 
L 86.467726 267.037803 
L 86.494782 267.277978 
L 86.521838 267.389595 
L 86.616533 266.817194 
L 86.63006 266.833281 
L 86.657116 267.016387 
L 86.6977 266.593259 
L 86.724755 266.981591 
L 86.832978 266.152036 
L 86.860034 266.483016 
L 86.873562 266.532098 
L 86.887089 266.513866 
L 86.981784 266.0639 
L 86.995312 266.134095 
L 87.00884 266.220608 
L 87.049423 265.776587 
L 87.090007 266.098984 
L 87.279397 265.459275 
L 87.292924 265.568656 
L 87.306452 265.763711 
L 87.347036 265.260992 
L 87.387619 265.351363 
L 87.482314 264.84894 
L 87.522898 265.147532 
L 87.536426 265.184912 
L 87.63112 264.583917 
L 87.658176 264.834516 
L 87.671704 265.003435 
L 87.685232 264.531112 
L 87.739343 264.864458 
L 87.834038 264.19475 
L 87.874621 264.383564 
L 87.888149 264.519108 
L 87.901677 264.027094 
L 87.969316 264.280274 
L 88.064011 263.673477 
L 88.077539 263.842501 
L 88.091067 264.071772 
L 88.13165 263.604444 
L 88.185762 263.799638 
L 88.266929 263.257017 
L 88.293984 263.443484 
L 88.32104 263.619422 
L 88.334568 263.319049 
L 88.415735 262.913788 
L 88.388679 263.343826 
L 88.442791 263.210902 
L 88.456318 263.241782 
L 88.469846 263.159263 
L 88.564541 262.700397 
L 88.523958 263.19083 
L 88.591597 262.902997 
L 88.605125 262.918122 
L 88.713347 262.331317 
L 88.726875 262.497004 
L 88.740403 262.64609 
L 88.780986 262.294544 
L 88.82157 262.423066 
L 88.835098 262.398692 
L 88.929793 261.968562 
L 88.943321 262.076406 
L 88.956848 262.148227 
L 88.983904 262.03833 
L 89.078599 261.644969 
L 89.038015 262.161935 
L 89.092127 261.767461 
L 89.105655 261.993206 
L 89.146238 261.496034 
L 89.186822 261.704073 
L 89.295044 261.202822 
L 89.308572 261.495814 
L 89.362683 261.079609 
L 89.403267 261.16051 
L 89.416795 261.140796 
L 89.497962 260.775649 
L 89.457378 261.185577 
L 89.525017 260.928768 
L 89.538545 260.967934 
L 89.552073 260.875089 
L 89.63324 260.442195 
L 89.673824 260.601464 
L 89.687352 260.780421 
L 89.727935 260.337879 
L 89.768519 260.473953 
L 89.863213 259.901045 
L 89.876741 260.073016 
L 89.890269 260.312678 
L 89.930853 259.880146 
L 89.971436 260.064807 
L 90.079659 259.438927 
L 90.093187 259.630883 
L 90.106714 259.776557 
L 90.160826 259.449617 
L 90.187881 259.599121 
L 90.201409 259.576194 
L 90.296104 259.139663 
L 90.309632 259.204832 
L 90.363743 258.866848 
L 90.404327 259.339992 
L 90.51255 258.656696 
L 90.526077 258.731991 
L 90.553133 258.874425 
L 90.593717 258.548113 
L 90.620772 258.837257 
L 90.728995 258.261332 
L 90.742523 258.319196 
L 90.756051 258.393435 
L 90.783106 258.338087 
L 90.877801 257.943402 
L 90.891329 258.074653 
L 90.904857 258.13032 
L 90.931912 257.818018 
L 90.972496 257.964668 
L 90.986024 257.987689 
L 91.094247 257.4933 
L 91.107774 257.591767 
L 91.121302 257.691752 
L 91.148358 257.326443 
L 91.202469 257.509297 
L 91.310692 257.06283 
L 91.351275 257.110786 
L 91.364803 257.093361 
L 91.44597 256.743078 
L 91.405387 257.187297 
L 91.473026 257.081947 
L 91.581249 256.414294 
L 91.608304 256.576541 
L 91.63536 256.747641 
L 91.648888 256.465179 
L 91.730055 256.077169 
L 91.702999 256.486803 
L 91.75711 256.261696 
L 91.770638 256.537036 
L 91.811222 255.921468 
L 91.851805 256.149717 
L 91.865333 256.128214 
L 91.960028 255.701859 
L 91.973556 255.830271 
L 91.987084 256.027847 
L 92.027667 255.535198 
L 92.068251 255.877688 
L 92.162946 255.174885 
L 92.190001 255.483686 
L 92.392919 254.826952 
L 92.217057 255.510143 
L 92.406447 254.949216 
L 92.419974 255.160502 
L 92.460558 254.685348 
L 92.501141 254.883967 
L 92.595836 254.258202 
L 92.622892 254.627787 
L 92.649948 254.644145 
L 92.82581 253.98464 
L 92.839337 254.261923 
L 92.879921 253.660286 
L 92.934032 254.000454 
L 93.042255 253.554402 
L 93.055783 253.651373 
L 93.096366 253.335252 
L 93.13695 253.750418 
L 93.245172 253.108769 
L 93.2587 253.116533 
L 93.285756 253.286201 
L 93.32634 252.893577 
L 93.353395 253.239432 
L 93.475146 252.686601 
L 93.488674 252.77272 
L 93.502201 252.833833 
L 93.515729 252.809282 
L 93.610424 252.387417 
L 93.623952 252.44478 
L 93.651008 252.635233 
L 93.691591 252.265483 
L 93.718647 252.41618 
L 93.826869 251.91675 
L 93.840397 251.986972 
L 93.867453 252.124081 
L 93.908036 251.805671 
L 93.94862 251.952461 
L 93.962148 251.509852 
L 94.056843 251.584134 
L 94.070371 251.655806 
L 94.097426 251.601397 
L 94.192121 251.219181 
L 94.205649 251.462205 
L 94.340927 250.949054 
L 94.354455 251.041207 
L 94.367983 251.225153 
L 94.408566 250.780358 
L 94.44915 250.94669 
L 94.543845 250.359719 
L 94.503261 250.982671 
L 94.557373 250.538723 
L 94.5709 250.725258 
L 94.625012 250.360984 
L 94.652067 250.528226 
L 94.76029 249.908563 
L 94.787346 250.230226 
L 94.800874 250.283675 
L 94.827929 250.017843 
L 94.895569 249.735392 
L 94.868513 250.098404 
L 94.936152 249.91517 
L 94.94968 250.043763 
L 94.976736 249.668777 
L 95.017319 249.925035 
L 95.125542 249.256064 
L 95.13907 249.410848 
L 95.152597 249.623881 
L 95.193181 249.190147 
L 95.233764 249.38747 
L 95.341987 248.87289 
L 95.355515 249.096532 
L 95.558433 248.490902 
L 95.382571 249.195545 
L 95.585488 248.633611 
L 95.599016 248.707796 
L 95.612544 248.281903 
L 95.666655 248.519306 
L 95.774878 248.04215 
L 95.788406 248.12636 
L 95.801934 248.244728 
L 95.842517 247.845639 
L 95.883101 248.029602 
L 95.896628 248.040798 
L 95.991323 247.641532 
L 96.004851 247.735356 
L 96.018379 247.794091 
L 96.045435 247.696956 
L 96.126602 247.17812 
L 96.086018 247.727427 
L 96.153657 247.483073 
L 96.167185 247.596432 
L 96.207769 247.191078 
L 96.248352 247.372594 
L 96.356575 246.937566 
L 96.370103 247.030981 
L 96.383631 247.232938 
L 96.424214 246.710305 
L 96.464798 246.847335 
L 96.478325 246.848175 
L 96.559492 246.506249 
L 96.518909 246.888007 
L 96.586548 246.644253 
L 96.600076 246.674192 
L 96.627132 246.497952 
L 96.708299 246.167182 
L 96.667715 246.622066 
L 96.735354 246.331294 
L 96.748882 246.503239 
L 96.789466 246.092568 
L 96.830049 246.208003 
L 96.924744 245.800785 
L 96.9518 245.923074 
L 96.965327 246.011816 
L 96.978855 245.645427 
L 97.032967 245.814465 
L 97.141189 245.343226 
L 97.154717 245.40967 
L 97.181773 245.540421 
L 97.222356 245.231993 
L 97.249412 245.376184 
L 97.26294 245.373107 
L 97.357635 244.959905 
L 97.371163 245.012992 
L 97.38469 245.083258 
L 97.411746 245.032533 
L 97.492913 244.494635 
L 97.519969 244.760972 
L 97.533497 244.926349 
L 97.57408 244.498805 
L 97.614664 244.688753 
L 97.722886 244.232265 
L 97.736414 244.322299 
L 97.749942 244.558439 
L 97.790526 243.983151 
L 97.831109 244.197224 
L 97.844637 244.188807 
L 97.939332 243.823859 
L 97.95286 243.939517 
L 97.966387 243.98401 
L 97.993443 243.848218 
L 98.07461 243.501234 
L 98.034027 243.923362 
L 98.101666 243.639165 
L 98.115194 243.831042 
L 98.155777 243.396204 
L 98.196361 243.545574 
L 98.291055 243.149709 
L 98.318111 243.23616 
L 98.331639 243.337701 
L 98.372222 242.981104 
L 98.399278 243.133366 
L 98.507501 242.684432 
L 98.534557 242.856182 
L 98.548084 242.871353 
L 98.642779 242.33165 
L 98.669835 242.52995 
L 98.696891 242.677456 
L 98.791585 242.046622 
L 98.818641 242.30538 
L 98.832169 242.280377 
L 98.845697 242.335806 
L 98.940392 241.847178 
L 98.953919 241.889048 
L 98.980975 242.027927 
L 99.021559 241.699196 
L 99.048614 241.994062 
L 99.156837 241.375051 
L 99.170365 241.479025 
L 99.183893 241.734572 
L 99.224476 241.182855 
L 99.278588 241.507411 
L 99.373282 240.928884 
L 99.400338 241.245162 
L 99.5762 240.623458 
L 99.603256 240.662848 
L 99.630311 240.869763 
L 99.670895 240.500114 
L 99.69795 240.684995 
L 99.806173 240.091076 
L 99.819701 240.240391 
L 99.833229 240.427078 
L 99.873812 240.067516 
L 99.914396 240.224799 
L 100.009091 239.739309 
L 100.049674 239.889708 
L 100.063202 240.048744 
L 100.103786 239.660634 
L 100.144369 239.770464 
L 100.225536 239.277852 
L 100.252592 239.405803 
L 100.26612 239.632723 
L 100.306703 239.236997 
L 100.347287 239.390088 
L 100.455509 238.932013 
L 100.469037 238.99405 
L 100.496093 239.119104 
L 100.523148 238.751894 
L 100.563732 238.942558 
L 100.57726 238.946622 
L 100.671955 238.556684 
L 100.685483 238.606366 
L 100.69901 238.674826 
L 100.726066 238.624077 
L 100.820761 238.244766 
L 100.834289 238.335118 
L 100.847817 238.544701 
L 100.8884 238.110214 
L 100.928984 238.288354 
L 101.037206 237.846882 
L 101.050734 237.93284 
L 101.064262 238.152818 
L 101.104845 237.607088 
L 101.145429 237.815392 
L 101.158957 237.802038 
L 101.253652 237.447971 
L 101.267179 237.555709 
L 101.280707 237.600207 
L 101.307763 237.472253 
L 101.375402 237.176005 
L 101.361874 237.568821 
L 101.415986 237.264154 
L 101.429514 237.439958 
L 101.470097 237.030715 
L 101.510681 237.173996 
L 101.591848 236.724317 
L 101.618903 236.771274 
L 101.632431 237.011107 
L 101.686542 236.635458 
L 101.713598 236.774969 
L 101.821821 236.339887 
L 101.848876 236.500063 
L 101.862404 236.515684 
L 101.875932 236.381692 
L 101.957099 236.019742 
L 101.916516 236.432749 
L 101.997683 236.195736 
L 102.01121 236.320558 
L 102.038266 235.978698 
L 102.092377 236.046726 
L 102.187072 235.60791 
L 102.2006 235.725496 
L 102.214128 235.931074 
L 102.254712 235.524746 
L 102.295295 235.693332 
L 102.403518 235.244864 
L 102.417046 235.320376 
L 102.430573 235.558424 
L 102.471157 234.989946 
L 102.51174 235.248145 
L 102.525268 235.23054 
L 102.619963 234.861925 
L 102.633491 234.943534 
L 102.647019 235.000151 
L 102.674074 234.911321 
L 102.768769 234.566667 
L 102.728186 235.003164 
L 102.782297 234.665931 
L 102.795825 234.850035 
L 102.836408 234.436157 
L 102.876992 234.599085 
L 102.985215 234.201024 
L 102.998743 234.275821 
L 103.01227 234.381058 
L 103.052854 234.047175 
L 103.07991 234.179714 
L 103.255771 233.633821 
L 103.269299 233.66822 
L 103.282827 233.812423 
L 103.323411 233.490961 
L 103.377522 233.757583 
L 103.472217 233.186123 
L 103.499272 233.351885 
L 103.5128 233.423688 
L 103.539856 233.219667 
L 103.621023 232.979738 
L 103.580439 233.337373 
L 103.648079 233.097505 
L 103.661607 233.120471 
L 103.675134 232.972365 
L 103.688662 232.967611 
L 103.769829 232.679138 
L 103.729246 233.076157 
L 103.810413 232.801436 
L 103.823941 232.806418 
L 103.905108 232.357254 
L 103.932163 232.557894 
L 103.945691 232.550986 
L 103.959219 232.64149 
L 104.053914 232.073976 
L 104.080969 232.250835 
L 104.094497 232.455648 
L 104.135081 231.974281 
L 104.175664 232.113673 
L 104.419165 231.5032 
L 104.446221 231.612671 
L 104.473277 231.571697 
L 104.567972 231.229933 
L 104.581499 231.331427 
L 104.595027 231.375111 
L 104.622083 231.120612 
L 104.662666 231.228495 
L 104.676194 231.245953 
L 104.784417 230.823498 
L 104.797945 230.900198 
L 104.811473 230.980568 
L 104.838528 230.680323 
L 104.89264 230.913231 
L 105.000862 230.437047 
L 105.01439 230.533147 
L 105.027918 230.569691 
L 105.054974 230.454629 
L 105.136141 230.152855 
L 105.095557 230.517578 
L 105.163196 230.421217 
L 105.271419 229.860272 
L 105.312003 230.006234 
L 105.32553 230.122151 
L 105.352586 229.797791 
L 105.406697 229.861117 
L 105.501392 229.414119 
L 105.460809 229.925884 
L 105.51492 229.549185 
L 105.528448 229.730039 
L 105.569031 229.355887 
L 105.609615 229.515247 
L 105.717838 229.030227 
L 105.731365 229.159256 
L 105.744893 229.27182 
L 105.785477 228.995477 
L 105.82606 229.087755 
L 105.839588 229.064463 
L 105.934283 228.707968 
L 105.947811 228.783663 
L 105.974867 228.878281 
L 105.988394 228.633715 
L 106.042506 228.722765 
L 106.150728 228.293486 
L 106.164256 228.362005 
L 106.177784 228.459942 
L 106.20484 228.202766 
L 106.258951 228.403054 
L 106.367174 227.924747 
L 106.380702 227.995216 
L 106.394229 228.042654 
L 106.421285 227.963259 
L 106.51598 227.657226 
L 106.461869 227.980643 
L 106.529508 227.87972 
L 106.637731 227.390878 
L 106.678314 227.485937 
L 106.691842 227.620601 
L 106.732425 227.267922 
L 106.773009 227.368609 
L 106.867704 226.899861 
L 106.881232 227.031224 
L 106.894759 227.21004 
L 106.948871 226.873166 
L 106.975926 227.00521 
L 107.084149 226.492695 
L 107.111205 226.749164 
L 107.13826 226.623682 
L 107.219427 226.273515 
L 107.260011 226.451504 
L 107.273539 226.535258 
L 107.300594 226.221079 
L 107.341178 226.415702 
L 107.449401 225.892851 
L 107.462929 226.007141 
L 107.476456 226.181447 
L 107.51704 225.798226 
L 107.557623 225.957994 
L 107.665846 225.526484 
L 107.679374 225.731306 
L 107.801124 225.201625 
L 107.70643 225.75791 
L 107.841708 225.408979 
L 107.855236 225.433506 
L 107.936403 224.938558 
L 107.976986 225.172059 
L 107.990514 225.168468 
L 108.098737 224.769001 
L 108.112265 224.842006 
L 108.125793 224.919429 
L 108.152848 224.638533 
L 108.20696 224.760861 
L 108.382821 224.180952 
L 108.409877 224.461465 
L 108.450461 223.995186 
L 108.491044 224.29844 
L 108.585739 223.836641 
L 108.626322 223.970464 
L 108.63985 224.07592 
L 108.680434 223.766338 
L 108.707489 223.862948 
L 108.964518 223.192075 
L 108.978046 223.290839 
L 108.991574 223.440363 
L 109.032158 223.053204 
L 109.072741 223.310745 
L 109.167436 222.751547 
L 109.194492 222.970453 
L 109.248603 222.706216 
L 109.221547 222.997228 
L 109.289186 222.873605 
L 109.397409 222.423768 
L 109.410937 222.516941 
L 109.424465 222.675399 
L 109.465048 222.30205 
L 109.505632 222.448498 
L 109.600327 221.947182 
L 109.627382 222.215393 
L 109.816772 221.536133 
L 109.654438 222.232516 
L 109.843828 221.776404 
L 109.857356 221.871426 
L 109.897939 221.533472 
L 109.938523 221.673372 
L 110.046745 221.300114 
L 110.060273 221.372412 
L 110.073801 221.425791 
L 110.100857 221.131231 
L 110.127912 221.212793 
L 110.14144 221.42834 
L 110.182024 220.938011 
L 110.222607 221.132594 
L 110.236135 221.140642 
L 110.33083 220.727059 
L 110.344358 220.835028 
L 110.357886 220.987672 
L 110.398469 220.614924 
L 110.439053 220.880236 
L 110.533747 220.341771 
L 110.560803 220.500954 
L 110.587859 220.578747 
L 110.696081 220.158288 
L 110.709609 220.243724 
L 110.723137 220.276405 
L 110.736665 220.127002 
L 110.750193 220.142154 
L 110.83136 219.869501 
L 110.790776 220.23125 
L 110.858415 220.019671 
L 110.871943 220.01973 
L 110.966638 219.533845 
L 110.993694 219.74984 
L 111.047805 219.521922 
L 111.02075 219.823498 
L 111.101917 219.570347 
L 111.183084 219.118294 
L 111.210139 219.325144 
L 111.223667 219.460507 
L 111.264251 219.107536 
L 111.304834 219.252049 
L 111.413057 218.863429 
L 111.426585 218.932412 
L 111.440112 219.007475 
L 111.480696 218.695582 
L 111.507752 218.993781 
L 111.629502 218.494699 
L 111.64303 218.581568 
L 111.656558 218.61609 
L 111.683613 218.508383 
L 111.764781 218.211596 
L 111.724197 218.554675 
L 111.791836 218.312949 
L 111.805364 218.468425 
L 111.845948 218.107971 
L 111.886531 218.222977 
L 111.994754 217.883881 
L 112.008282 217.951635 
L 112.021809 218.075199 
L 112.062393 217.707816 
L 112.089449 217.858569 
L 112.197671 217.473266 
L 112.224727 217.600431 
L 112.238255 217.611874 
L 112.33295 217.163739 
L 112.373533 217.318447 
L 112.387061 217.431556 
L 112.427644 217.132413 
L 112.468228 217.184392 
L 112.562923 216.852521 
L 112.589979 216.954866 
L 112.603506 217.009639 
L 112.617034 216.69443 
L 112.671146 216.849214 
L 112.779368 216.45817 
L 112.792896 216.517206 
L 112.806424 216.607622 
L 112.847007 216.293826 
L 112.887591 216.43114 
L 112.901119 216.434286 
L 112.995814 216.104721 
L 113.009341 216.166821 
L 113.022869 216.211668 
L 113.049925 216.139175 
L 113.131092 215.844957 
L 113.158148 215.910322 
L 113.171675 216.074972 
L 113.212259 215.710123 
L 113.252843 215.84086 
L 113.361065 215.478987 
L 113.374593 215.54778 
L 113.388121 215.702982 
L 113.428704 215.286051 
L 113.469288 215.397183 
L 113.482816 215.390599 
L 113.577511 215.105849 
L 113.523399 215.401511 
L 113.591038 215.201918 
L 113.604566 215.224939 
L 113.631622 215.09052 
L 113.699261 214.822491 
L 113.685733 215.156379 
L 113.739845 214.929818 
L 113.753372 215.05858 
L 113.793956 214.735557 
L 113.834539 214.819856 
L 113.929234 214.487268 
L 113.95629 214.570939 
L 113.969818 214.636874 
L 114.010401 214.357606 
L 114.037457 214.46998 
L 114.14568 214.087206 
L 114.172735 214.227785 
L 114.186263 214.228152 
L 114.280958 213.780969 
L 114.321542 213.948419 
L 114.335069 214.030773 
L 114.362125 213.746787 
L 114.402709 213.820527 
L 114.727377 213.102981 
L 114.740905 213.167419 
L 114.754432 213.347147 
L 114.795016 212.894168 
L 114.835599 213.06146 
L 114.849127 213.048989 
L 114.943822 212.744291 
L 114.95735 212.824465 
L 114.970878 212.85866 
L 114.997933 212.757145 
L 115.092628 212.504262 
L 115.052045 212.824171 
L 115.106156 212.56373 
L 115.119684 212.704189 
L 115.160267 212.367098 
L 115.200851 212.476181 
L 115.295546 212.155416 
L 115.322601 212.208263 
L 115.336129 212.283805 
L 115.376713 212.002982 
L 115.403768 212.111978 
L 115.57963 211.605721 
L 115.606686 211.799569 
L 115.64727 211.469729 
L 115.701381 211.698269 
L 115.796076 211.202983 
L 115.823131 211.379903 
L 115.836659 211.364982 
L 115.850187 211.407186 
L 115.944882 211.013794 
L 115.971938 211.130053 
L 115.985465 211.138289 
L 116.093688 210.759282 
L 116.107216 210.814059 
L 116.120744 211.005928 
L 116.161327 210.538528 
L 116.201911 210.74322 
L 116.215439 210.727405 
L 116.310134 210.413552 
L 116.337189 210.514687 
L 116.607746 209.94902 
L 116.621274 210.00041 
L 116.634802 210.108209 
L 116.675385 209.805911 
L 116.702441 209.949973 
L 116.810663 209.474965 
L 116.824191 209.583807 
L 116.837719 209.717741 
L 116.89183 209.438555 
L 116.918886 209.551084 
L 117.108276 209.076878 
L 117.121804 209.136568 
L 117.135332 209.181541 
L 117.162387 208.91256 
L 117.216499 209.105613 
L 117.324721 208.714257 
L 117.338249 208.799717 
L 117.351777 208.817768 
L 117.365305 208.703563 
L 117.378833 208.697831 
L 117.46 208.44782 
L 117.419416 208.769074 
L 117.500583 208.537163 
L 117.514111 208.54201 
L 117.595278 208.167551 
L 117.622334 208.313036 
L 117.662917 208.185018 
L 117.825251 207.83175 
L 117.852307 208.057089 
L 117.89289 207.724078 
L 117.933474 207.849068 
L 118.041697 207.465733 
L 118.055224 207.550255 
L 118.068752 207.636612 
L 118.109336 207.385836 
L 118.149919 207.449369 
L 118.163447 207.429949 
L 118.258142 207.136143 
L 118.27167 207.210521 
L 118.285198 207.243956 
L 118.312253 207.146835 
L 118.406948 206.898407 
L 118.366365 207.205476 
L 118.420476 206.957281 
L 118.434004 207.087462 
L 118.474587 206.767232 
L 118.515171 206.871432 
L 118.596338 206.5263 
L 118.623394 206.534027 
L 118.636921 206.711147 
L 118.691033 206.420496 
L 118.718088 206.517553 
L 118.826311 206.170839 
L 118.866895 206.255686 
L 118.880422 206.271386 
L 118.961589 205.912727 
L 118.988645 205.994687 
L 119.015701 206.107523 
L 119.029229 205.922006 
L 119.191563 205.519472 
L 119.218618 205.758558 
L 119.259202 205.452568 
L 119.299785 205.565644 
L 119.408008 205.1538 
L 119.421536 205.257112 
L 119.435064 205.343411 
L 119.489175 205.122172 
L 119.516231 205.186319 
L 119.529759 205.166122 
L 119.624453 204.863268 
L 119.651509 204.957771 
L 119.922066 204.406667 
L 119.935594 204.45731 
L 119.949122 204.556638 
L 119.989705 204.249683 
L 120.030289 204.403527 
L 120.124983 203.953655 
L 120.152039 204.175866 
L 120.327901 203.675478 
L 120.354957 203.697577 
L 120.382012 203.850547 
L 120.422596 203.556932 
L 120.449651 203.65885 
L 120.544346 203.419484 
L 120.639041 203.203878 
L 120.58493 203.478217 
L 120.652569 203.284522 
L 120.666097 203.302054 
L 120.693153 203.188641 
L 120.77432 202.871574 
L 120.733736 203.24931 
L 120.801375 203.070304 
L 120.828431 202.972771 
L 120.909598 202.680424 
L 120.950181 202.80714 
L 120.963709 202.87512 
L 120.990765 202.621149 
L 121.031348 202.689711 
L 121.288377 202.132603 
L 121.301905 202.198351 
L 121.315433 202.308577 
L 121.356017 201.99329 
L 121.3966 202.174553 
L 121.491295 201.711752 
L 121.518351 201.909275 
L 121.721268 201.430046 
L 121.734796 201.490745 
L 121.748324 201.610094 
L 121.788907 201.306752 
L 121.829491 201.404588 
L 121.924186 200.990748 
L 121.951241 201.218328 
L 122.140631 200.72787 
L 122.154159 200.737644 
L 122.167687 200.908785 
L 122.20827 200.505175 
L 122.262382 200.69802 
L 122.370604 200.395292 
L 122.384132 200.44828 
L 122.39766 200.472353 
L 122.411188 200.443543 
L 122.505883 200.076668 
L 122.465299 200.471825 
L 122.51941 200.176529 
L 122.532938 200.304915 
L 122.573522 200.026924 
L 122.614105 200.130553 
L 122.722328 199.765924 
L 122.749384 199.865448 
L 122.762911 199.963756 
L 122.803495 199.699911 
L 122.844079 199.741799 
L 122.938773 199.450292 
L 122.965829 199.537344 
L 122.979357 199.575019 
L 123.01994 199.370641 
L 123.033468 199.415595 
L 123.046996 199.433209 
L 123.060524 199.284778 
L 123.074052 199.30491 
L 123.114635 199.38755 
L 123.20933 199.018599 
L 123.249914 199.105544 
L 123.276969 199.040119 
L 123.371664 198.757986 
L 123.39872 198.837597 
L 123.669277 198.311344 
L 123.682804 198.35275 
L 123.696332 198.452696 
L 123.736916 198.174629 
L 123.777499 198.248436 
L 123.872194 197.863132 
L 123.831611 198.259076 
L 123.89925 198.081978 
L 124.088639 197.510852 
L 124.129223 197.701584 
L 124.169806 197.484799 
L 124.196862 197.572833 
L 124.21039 197.55403 
L 124.305085 197.264824 
L 124.332141 197.32744 
L 124.345668 197.402542 
L 124.386252 197.138307 
L 124.413308 197.232298 
L 124.52153 196.894414 
L 124.548586 197.002557 
L 124.562114 197.001993 
L 124.656809 196.605513 
L 124.697392 196.744854 
L 124.71092 196.820895 
L 124.737976 196.578882 
L 124.778559 196.629286 
L 125.590229 195.184628 
L 125.630813 195.25872 
L 125.644341 195.337861 
L 125.684924 195.089969 
L 125.71198 195.24369 
L 125.820203 194.78799 
L 125.83373 194.877372 
L 125.847258 194.996376 
L 125.887842 194.735213 
L 125.928425 194.829751 
L 126.036648 194.48028 
L 126.063704 194.572251 
L 126.077231 194.66283 
L 126.117815 194.410779 
L 126.144871 194.474497 
L 127.971128 191.408047 
L 128.011712 191.528665 
L 128.02524 191.598791 
L 128.052296 191.371225 
L 128.092879 191.41886 
L 128.769271 190.227452 
L 128.796327 190.285398 
L 128.809854 190.39785 
L 128.850438 190.12082 
L 128.891021 190.201043 
L 128.999244 189.933425 
L 129.012772 189.961669 
L 129.0263 190.019672 
L 129.066883 189.794558 
L 129.093939 189.870218 
L 129.283329 189.433409 
L 129.323912 189.571094 
L 129.33744 189.321764 
L 129.391551 189.491338 
L 129.486246 189.088909 
L 129.52683 189.198544 
L 129.540358 189.23575 
L 129.553885 188.961384 
L 129.594469 189.167084 
L 129.716219 188.771658 
L 129.729747 188.837649 
L 129.743275 188.942007 
L 129.783859 188.675421 
L 129.824442 188.768724 
L 129.919137 188.406998 
L 129.95972 188.530335 
L 129.973248 188.576915 
L 130.000304 188.363776 
L 130.02736 188.429084 
L 130.64964 187.325542 
L 130.676696 187.430622 
L 130.690224 187.497226 
L 130.703751 187.258398 
L 130.757863 187.401133 
L 130.852558 187.022592 
L 130.893141 187.103032 
L 130.906669 187.156259 
L 130.920197 186.904367 
L 130.974308 186.986006 
L 130.987836 186.996005 
L 131.082531 186.668843 
L 131.109587 186.844826 
L 131.217809 186.465671 
L 131.258393 186.557615 
L 131.271921 186.554879 
L 131.366615 186.291734 
L 131.393671 186.335981 
L 131.420727 186.310152 
L 131.515422 186.027403 
L 131.528949 186.085101 
L 131.542477 186.20057 
L 131.583061 185.94023 
L 131.623644 186.02498 
L 131.731867 185.720038 
L 131.745395 185.761066 
L 131.758923 185.890938 
L 131.799506 185.546919 
L 131.84009 185.671765 
L 131.853618 185.65648 
L 131.948312 185.405389 
L 131.975368 185.478167 
L 132.164758 185.070774 
L 132.178286 185.109148 
L 132.191813 185.160093 
L 132.218869 184.980161 
L 132.27298 185.094001 
L 132.381203 184.759488 
L 132.394731 184.804024 
L 132.408259 184.824286 
L 132.435315 184.757296 
L 132.530009 184.542316 
L 132.475898 184.765282 
L 132.557065 184.616574 
L 132.746455 184.223362 
L 132.77351 184.283741 
L 132.800566 184.073448 
L 132.84115 184.199951 
L 133.030539 183.755404 
L 133.044067 183.817105 
L 133.057595 183.912165 
L 133.098178 183.662679 
L 133.138762 183.714484 
L 133.15229 183.709205 
L 133.233457 183.415164 
L 133.27404 183.517107 
L 133.287568 183.55867 
L 133.314624 183.357967 
L 133.34168 183.417103 
L 133.801626 182.726965 
L 133.896321 182.494444 
L 133.923377 182.567877 
L 134.599768 181.405477 
L 134.640352 181.480533 
L 134.65388 181.536542 
L 134.680935 181.337643 
L 134.721519 181.378649 
L 135.181465 180.526438 
L 135.222049 180.632335 
L 135.235577 180.654558 
L 135.249104 180.511526 
L 135.411439 180.249385 
L 135.303216 180.547497 
L 135.424966 180.297075 
L 135.438494 180.387783 
L 135.479078 180.14609 
L 135.519661 180.21502 
L 135.627884 179.935594 
L 135.641412 180.05626 
L 135.844329 179.628813 
L 135.857857 179.752437 
L 135.898441 179.445983 
L 135.939024 179.590336 
L 136.047247 179.343867 
L 136.344859 178.86239 
L 136.08783 179.375739 
L 136.358387 178.91999 
L 136.371915 179.006531 
L 136.412498 178.729814 
L 136.453082 178.843113 
L 136.547777 178.538429 
L 136.58836 178.627369 
L 136.601888 178.664834 
L 136.628944 178.476213 
L 136.669527 178.566678 
L 136.77775 178.232801 
L 136.791278 178.289771 
L 136.804806 178.382193 
L 136.845389 178.146235 
L 136.885973 178.219349 
L 136.994195 177.930819 
L 137.021251 177.995583 
L 137.034779 178.039833 
L 137.061835 177.853228 
L 137.08889 177.897446 
L 139.145121 174.762704 
L 139.172177 174.886298 
L 139.185705 174.929902 
L 139.226288 174.725962 
L 139.253344 174.79748 
L 139.361567 174.561334 
L 139.59154 174.223277 
L 139.40215 174.588451 
L 139.605068 174.27493 
L 139.618596 174.281196 
L 139.632123 174.20437 
L 139.645651 174.189316 
L 139.726818 173.996056 
L 139.686235 174.221873 
L 139.753874 174.054242 
L 139.767402 174.125459 
L 139.807985 173.918442 
L 139.835041 173.96733 
L 140.443794 172.950294 
L 140.497905 173.043395 
L 140.5926 172.782458 
L 140.619656 172.851934 
L 140.660239 172.732505 
L 140.809045 172.460894 
L 140.700823 172.793993 
L 140.822573 172.501272 
L 140.836101 172.613024 
L 140.876684 172.330693 
L 140.917268 172.424199 
L 140.930796 172.435455 
L 140.944324 172.306778 
L 141.228408 171.87179 
L 140.984907 172.339317 
L 141.268992 171.920401 
L 141.282519 171.966666 
L 141.323103 171.787363 
L 141.350159 171.879056 
L 141.458381 171.534731 
L 141.471909 171.59218 
L 141.485437 171.672711 
L 141.526021 171.471109 
L 141.566604 171.529647 
L 141.661299 171.241342 
L 141.701882 171.308912 
L 141.71541 171.364359 
L 141.755994 171.183183 
L 141.783049 171.213861 
L 142.973499 169.436015 
L 143.000555 169.505376 
L 143.014083 169.543784 
L 143.02761 169.357207 
L 143.081722 169.460498 
L 143.176417 169.145909 
L 143.217 169.206091 
L 143.230528 169.237338 
L 143.257584 169.072137 
L 143.298167 169.134817 
L 143.40639 168.837287 
L 143.419918 168.886166 
L 143.433445 168.960827 
L 143.474029 168.758452 
L 143.514613 168.816306 
L 143.609307 168.532741 
L 143.649891 168.604115 
L 143.663419 168.642713 
L 143.690474 168.477284 
L 143.71753 168.509838 
L 143.744586 168.476592 
L 143.839281 168.254985 
L 143.852808 168.288511 
L 143.866336 168.37183 
L 143.90692 168.163072 
L 143.947503 168.216811 
L 144.055726 167.965549 
L 144.069254 167.994296 
L 144.082782 168.083624 
L 144.123365 167.823185 
L 144.163949 167.894204 
L 144.326283 167.656718 
L 144.420978 167.47791 
L 144.380394 167.667849 
L 144.434505 167.503929 
L 144.448033 167.572738 
L 144.488617 167.373746 
L 144.5292 167.414024 
L 144.623895 167.199305 
L 144.650951 167.214804 
L 144.664479 167.249119 
L 144.705062 167.080374 
L 144.732118 167.126322 
L 144.90798 166.776673 
L 144.921507 166.793877 
L 144.935035 166.865384 
L 144.975619 166.673739 
L 145.02973 166.769673 
L 145.124425 166.46305 
L 145.165009 166.529706 
L 145.178536 166.546805 
L 145.273231 166.293862 
L 145.300287 166.342083 
L 145.34087 166.251174 
L 145.381454 166.285915 
L 145.489677 165.940482 
L 145.53026 166.032302 
L 145.557316 165.866381 
L 145.597899 165.936506 
L 145.611427 165.959859 
L 145.638483 165.806928 
L 145.665538 165.847201 
L 146.139013 165.079489 
L 146.152541 165.130272 
L 146.166068 165.194045 
L 146.22018 165.022338 
L 146.247235 165.069395 
L 146.490737 164.622192 
L 146.53132 164.668889 
L 146.544848 164.69733 
L 146.558376 164.520525 
L 146.598959 164.624693 
L 146.788349 164.238097 
L 146.815405 164.346298 
L 146.84246 164.263334 
L 146.923627 164.030182 
L 146.964211 164.082331 
L 146.977739 164.116422 
L 147.004794 163.962891 
L 147.03185 163.989315 
L 147.058906 163.958964 
L 147.1536 163.741844 
L 147.180656 163.848883 
L 147.302407 163.560045 
L 147.315935 163.590789 
L 147.329462 163.64758 
L 147.370046 163.448857 
L 147.397102 163.527811 
L 147.586491 163.178926 
L 147.627075 163.216594 
L 147.640603 163.107987 
L 147.681186 163.122915 
L 147.72177 163.030806 
L 147.857048 162.802492 
L 147.762353 163.071181 
L 147.884104 162.813528 
L 147.911159 162.863746 
L 147.924687 162.707079 
L 147.938215 162.725756 
L 147.965271 162.778374 
L 148.168188 162.410418 
L 148.181716 162.500052 
L 148.2223 162.256965 
L 148.262883 162.354602 
L 148.425217 162.135673 
L 148.519912 161.898292 
L 148.546968 162.009731 
L 148.736357 161.606464 
L 148.763413 161.693107 
L 148.817524 161.552936 
L 148.831052 161.571577 
L 148.858108 161.559941 
L 148.952803 161.358258 
L 148.979858 161.391994 
L 150.237947 159.631982 
L 150.278531 159.671909 
L 150.292059 159.702172 
L 150.319114 159.560487 
L 150.34617 159.580046 
L 150.373226 159.553012 
L 150.46792 159.332412 
L 150.494976 159.434464 
L 150.684366 159.063231 
L 150.724949 159.138616 
L 150.765533 158.99512 
L 150.779061 159.011218 
L 150.806116 158.985849 
L 150.900811 158.794627 
L 150.927867 158.831006 
L 151.009034 158.735623 
L 151.117257 158.506926 
L 151.144312 158.553291 
L 151.387813 158.212509 
L 151.46898 157.992779 
L 151.509564 158.09831 
L 151.685426 157.785268 
L 152.415929 156.810902 
L 152.429457 156.843567 
L 152.442985 156.899152 
L 152.483568 156.730548 
L 152.524152 156.765253 
L 152.618846 156.514981 
L 152.65943 156.5715 
L 152.672958 156.597045 
L 152.700013 156.463472 
L 152.727069 156.485948 
L 154.499216 154.133557 
L 154.512743 154.156726 
L 154.526271 154.227295 
L 154.566855 154.02766 
L 154.607438 154.078409 
L 154.620966 154.091046 
L 154.648022 153.970489 
L 154.675078 153.996271 
L 154.945634 153.612654 
L 154.959162 153.622264 
L 154.97269 153.657133 
L 155.013273 153.511732 
L 155.040329 153.578943 
L 155.148552 153.299436 
L 155.189135 153.341115 
L 155.28383 153.197525 
L 155.432636 152.990857 
L 155.730249 152.583172 
L 155.743777 152.612368 
L 155.757304 152.660214 
L 155.797888 152.506521 
L 155.824944 152.543251 
L 155.919638 152.427336 
L 156.014333 152.245934 
L 156.041389 152.261875 
L 156.433696 151.763773 
L 156.514863 151.577794 
L 156.555447 151.619987 
L 156.623086 151.541476 
L 156.812476 151.242419 
L 156.839531 151.272288 
L 157.434756 150.524482 
L 157.515923 150.3244 
L 157.556507 150.404021 
L 157.745896 150.074221 
L 157.772952 150.146942 
L 157.800008 150.067408 
L 157.881175 149.87898 
L 157.921758 149.914918 
L 157.935286 149.925975 
L 157.962342 149.813795 
L 157.989397 149.833265 
L 158.462872 149.162062 
L 158.4764 149.192568 
L 158.489927 149.231849 
L 158.544039 149.09803 
L 158.557567 149.121266 
L 158.59815 149.05935 
L 158.746956 148.860166 
L 158.976929 148.566734 
L 158.990457 148.587882 
L 159.031041 148.528131 
L 159.179847 148.262065 
L 159.220431 148.31711 
L 159.247486 148.203469 
L 159.274542 148.234967 
L 159.382765 148.112651 
L 159.477459 147.936384 
L 159.518043 147.942849 
L 167.621217 138.263428 
L 167.634745 138.276976 
L 167.648273 138.299489 
L 167.688856 138.189712 
L 167.702384 138.203644 
L 167.945885 137.954091 
L 168.094691 137.765525 
L 169.082223 136.624798 
L 169.095751 136.647424 
L 169.136335 136.540271 
L 169.16339 136.548602 
L 169.988588 135.594095 
L 170.137395 135.378039 
L 170.16445 135.398715 
L 170.313256 135.237458 
L 171.3549 134.059606 
L 171.503706 133.843109 
L 171.517234 133.857055 
L 171.625457 133.78318 
L 171.801318 133.527442 
L 171.896013 133.460733 
L 172.139514 133.191561 
L 172.301848 132.966666 
L 172.342432 132.987953 
L 172.369488 132.921757 
L 172.572405 132.681454 
L 172.721211 132.539978 
L 172.870017 132.328735 
L 172.883545 132.334906 
L 173.018824 132.195301 
L 173.384075 131.764663 
L 173.397603 131.776028 
L 173.492298 131.692596 
L 176.035531 128.910101 
L 176.197865 128.712868 
L 176.468422 128.443364 
L 176.630756 128.238095 
L 176.738979 128.167466 
L 176.941896 127.92842 
L 177.023063 127.847496 
L 177.388315 127.455995 
L 181.987779 122.605898 
L 182.082474 122.515596 
L 182.339503 122.239742 
L 182.488309 122.09009 
L 183.191757 121.363915 
L 186.600771 117.91623 
L 187.060718 117.463168 
L 187.980611 116.546825 
L 189.333394 115.217201 
L 191.727821 112.894413 
L 192.147184 112.489475 
L 192.512436 112.348318 
L 192.810048 112.351291 
L 194.568667 112.351709 
L 194.825696 112.345058 
L 195.218003 112.352424 
L 195.502088 112.340804 
L 195.732061 112.350351 
L 196.056729 112.3484 
L 196.327286 112.350712 
L 196.624898 112.348016 
L 197.30129 112.352996 
L 197.61243 112.342905 
L 197.882987 112.352062 
L 198.194127 112.348124 
L 198.478212 112.348566 
L 199.127548 112.352677 
L 199.898635 112.349432 
L 200.61561 112.349794 
L 201.007917 112.350487 
L 201.413752 112.351687 
L 201.61667 112.348248 
L 201.941338 112.354038 
L 202.266006 112.344034 
L 202.590674 112.351641 
L 202.793592 112.351087 
L 204.443988 112.354298 
L 204.687489 112.348618 
L 209.787483 112.35205 
L 209.976873 112.348432 
L 211.18085 112.351898 
L 211.356712 112.348443 
L 212.046632 112.350553 
L 212.398355 112.355891 
L 212.601273 112.349417 
L 212.99358 112.352828 
L 213.196498 112.348132 
L 213.453527 112.354626 
L 213.656444 112.349948 
L 213.899945 112.353753 
L 214.887477 112.349018 
L 215.550341 112.350643 
L 216.267317 112.351396 
L 216.889597 112.351626 
L 217.092515 112.351168 
L 218.797022 112.352068 
L 219.054051 112.344395 
L 219.405775 112.347493 
L 219.825138 112.353643 
L 220.285084 112.348123 
L 220.528585 112.354385 
L 220.975004 112.351991 
L 222.219565 112.349858 
L 222.598344 112.34552 
L 222.93654 112.350809 
L 223.207097 112.350379 
L 238.723525 112.352151 
L 238.926443 112.349096 
L 239.724585 112.351509 
L 240.008669 112.3451 
L 240.387449 112.353949 
L 241.104424 112.351124 
L 242.227235 112.350507 
L 242.524847 112.347524 
L 243.147127 112.351997 
L 243.363573 112.351675 
L 246.042084 112.352053 
L 246.231474 112.348721 
L 248.707068 112.351972 
L 248.869402 112.353096 
L 256.607325 112.35055 
L 256.945521 112.350035 
L 257.905997 112.349024 
L 271.041526 112.350619 
L 271.312083 112.35099 
L 271.772029 112.351244 
L 272.056114 112.353237 
L 330.793979 112.350011 
L 331.037481 112.350028 
L 331.362149 112.347482 
L 331.632705 112.351165 
L 332.146763 112.343553 
L 332.430848 112.352803 
L 332.931378 112.346056 
L 333.486019 112.346655 
L 337.747287 112.349487 
L 338.315456 112.344956 
L 338.66718 112.348072 
L 339.465323 112.34293 
L 339.735879 112.351336 
L 340.209354 112.351519 
L 346.48627 112.350516 
L 346.79741 112.346128 
L 347.29794 112.35281 
L 348.907752 112.348555 
L 349.178309 112.345679 
L 349.638256 112.352935 
L 350.071146 112.346141 
L 350.490509 112.354252 
L 351.004567 112.344956 
L 351.369819 112.356777 
L 351.61332 112.346379 
L 353.872468 112.352001 
L 354.04833 112.348668 
L 354.670611 112.348156 
L 355.144085 112.351905 
L 355.319947 112.353509 
L 355.590504 112.34729 
L 355.86106 112.352029 
L 356.063978 112.34945 
L 356.848592 112.351048 
L 357.146205 112.34533 
L 357.700846 112.35309 
L 357.971403 112.347337 
L 358.241959 112.351236 
L 358.769545 112.34964 
L 359.8653 112.353742 
L 360.108801 112.346895 
L 360.392885 112.350435 
L 360.704026 112.346815 
L 361.191028 112.351974 
L 361.36689 112.351888 
L 361.637446 112.34875 
L 361.908003 112.351382 
L 362.137976 112.344121 
L 362.462644 112.35193 
L 362.80084 112.349859 
L 363.111981 112.3512 
L 363.869539 112.350956 
L 364.207735 112.350971 
L 364.654154 112.348161 
L 365.317018 112.355139 
L 365.655214 112.349242 
L 365.912243 112.351719 
L 366.263966 112.34643 
L 366.899775 112.351994 
L 367.089164 112.347632 
L 367.589694 112.351237 
L 368.063169 112.347538 
L 368.92895 112.352696 
L 369.199507 112.348765 
L 369.659453 112.350783 
L 369.997649 112.348367 
L 370.376429 112.351937 
L 370.755208 112.349628 
L 372.473243 112.351466 
L 372.797911 112.347619 
L 373.163163 112.352031 
L 373.339025 112.348774 
L 375.002949 112.349289 
L 375.476423 112.351377 
L 377.478543 112.351257 
L 377.722044 112.349155 
L 380.414083 112.350459 
L 380.711696 112.352674 
L 380.968725 112.345504 
L 381.536894 112.351971 
L 381.726283 112.347724 
L 382.213286 112.353122 
L 388.246701 112.348581 
L 388.517257 112.351466 
L 388.720175 112.350622 
L 389.856513 112.351284 
L 390.181181 112.350539 
L 391.75041 112.353663 
L 392.156245 112.352985 
L 393.06261 112.346606 
L 393.427862 112.351054 
L 398.487273 112.351224 
L 398.487273 112.351224 
" style="fill:none;stroke:#d62728;stroke-linecap:square;stroke-width:1.5;"/>
   </g>
   <g id="line2d_22">
    <path clip-path="url(#pbd8d9593e8)" d="M 73.832727 115.514676 
L 398.487273 115.514676 
L 398.487273 115.514676 
" style="fill:none;stroke:#9467bd;stroke-linecap:square;stroke-width:1.5;"/>
   </g>
   <g id="patch_3">
    <path d="M 57.6 307.584 
L 57.6 41.472 
" style="fill:none;stroke:#000000;stroke-linecap:square;stroke-linejoin:miter;stroke-width:0.8;"/>
   </g>
   <g id="patch_4">
    <path d="M 414.72 307.584 
L 414.72 41.472 
" style="fill:none;stroke:#000000;stroke-linecap:square;stroke-linejoin:miter;stroke-width:0.8;"/>
   </g>
   <g id="patch_5">
    <path d="M 57.6 307.584 
L 414.72 307.584 
" style="fill:none;stroke:#000000;stroke-linecap:square;stroke-linejoin:miter;stroke-width:0.8;"/>
   </g>
   <g id="patch_6">
    <path d="M 57.6 41.472 
L 414.72 41.472 
" style="fill:none;stroke:#000000;stroke-linecap:square;stroke-linejoin:miter;stroke-width:0.8;"/>
   </g>
   <g id="legend_1">
    <g id="patch_7">
     <path d="M 356.516875 302.584 
L 407.72 302.584 
Q 409.72 302.584 409.72 300.584 
L 409.72 228.193375 
Q 409.72 226.193375 407.72 226.193375 
L 356.516875 226.193375 
Q 354.516875 226.193375 354.516875 228.193375 
L 354.516875 300.584 
Q 354.516875 302.584 356.516875 302.584 
z
" style="fill:#ffffff;opacity:0.8;stroke:#cccccc;stroke-linejoin:miter;"/>
    </g>
    <g id="line2d_23">
     <path d="M 358.516875 234.291812 
L 378.516875 234.291812 
" style="fill:none;stroke:#1f77b4;stroke-linecap:square;stroke-width:1.5;"/>
    </g>
    <g id="line2d_24"/>
    <g id="text_21">
     <!-- T+ -->
     <g transform="translate(386.516875 237.791812)scale(0.1 -0.1)">
      <defs>
       <path d="M 46 62.703125 
L 46 35.5 
L 73.1875 35.5 
L 73.1875 27.203125 
L 46 27.203125 
L 46 0 
L 37.796875 0 
L 37.796875 27.203125 
L 10.59375 27.203125 
L 10.59375 35.5 
L 37.796875 35.5 
L 37.796875 62.703125 
z
" id="DejaVuSans-43"/>
      </defs>
      <use xlink:href="#DejaVuSans-84"/>
      <use x="61.083984" xlink:href="#DejaVuSans-43"/>
     </g>
    </g>
    <g id="line2d_25">
     <path d="M 358.516875 248.969937 
L 378.516875 248.969937 
" style="fill:none;stroke:#ff7f0e;stroke-linecap:square;stroke-width:1.5;"/>
    </g>
    <g id="line2d_26"/>
    <g id="text_22">
     <!-- Tp -->
     <g transform="translate(386.516875 252.469937)scale(0.1 -0.1)">
      <defs>
       <path d="M 18.109375 8.203125 
L 18.109375 -20.796875 
L 9.078125 -20.796875 
L 9.078125 54.6875 
L 18.109375 54.6875 
L 18.109375 46.390625 
Q 20.953125 51.265625 25.265625 53.625 
Q 29.59375 56 35.59375 56 
Q 45.5625 56 51.78125 48.09375 
Q 58.015625 40.1875 58.015625 27.296875 
Q 58.015625 14.40625 51.78125 6.484375 
Q 45.5625 -1.421875 35.59375 -1.421875 
Q 29.59375 -1.421875 25.265625 0.953125 
Q 20.953125 3.328125 18.109375 8.203125 
z
M 48.6875 27.296875 
Q 48.6875 37.203125 44.609375 42.84375 
Q 40.53125 48.484375 33.40625 48.484375 
Q 26.265625 48.484375 22.1875 42.84375 
Q 18.109375 37.203125 18.109375 27.296875 
Q 18.109375 17.390625 22.1875 11.75 
Q 26.265625 6.109375 33.40625 6.109375 
Q 40.53125 6.109375 44.609375 11.75 
Q 48.6875 17.390625 48.6875 27.296875 
z
" id="DejaVuSans-112"/>
      </defs>
      <use xlink:href="#DejaVuSans-84"/>
      <use x="61.083984" xlink:href="#DejaVuSans-112"/>
     </g>
    </g>
    <g id="line2d_27">
     <path d="M 358.516875 263.648062 
L 378.516875 263.648062 
" style="fill:none;stroke:#2ca02c;stroke-linecap:square;stroke-width:1.5;"/>
    </g>
    <g id="line2d_28"/>
    <g id="text_23">
     <!-- T- -->
     <g transform="translate(386.516875 267.148062)scale(0.1 -0.1)">
      <defs>
       <path d="M 4.890625 31.390625 
L 31.203125 31.390625 
L 31.203125 23.390625 
L 4.890625 23.390625 
z
" id="DejaVuSans-45"/>
      </defs>
      <use xlink:href="#DejaVuSans-84"/>
      <use x="51.958984" xlink:href="#DejaVuSans-45"/>
     </g>
    </g>
    <g id="line2d_29">
     <path d="M 358.516875 278.326188 
L 378.516875 278.326188 
" style="fill:none;stroke:#d62728;stroke-linecap:square;stroke-width:1.5;"/>
    </g>
    <g id="line2d_30"/>
    <g id="text_24">
     <!-- O2 -->
     <g transform="translate(386.516875 281.826188)scale(0.1 -0.1)">
      <defs>
       <path d="M 39.40625 66.21875 
Q 28.65625 66.21875 22.328125 58.203125 
Q 16.015625 50.203125 16.015625 36.375 
Q 16.015625 22.609375 22.328125 14.59375 
Q 28.65625 6.59375 39.40625 6.59375 
Q 50.140625 6.59375 56.421875 14.59375 
Q 62.703125 22.609375 62.703125 36.375 
Q 62.703125 50.203125 56.421875 58.203125 
Q 50.140625 66.21875 39.40625 66.21875 
z
M 39.40625 74.21875 
Q 54.734375 74.21875 63.90625 63.9375 
Q 73.09375 53.65625 73.09375 36.375 
Q 73.09375 19.140625 63.90625 8.859375 
Q 54.734375 -1.421875 39.40625 -1.421875 
Q 24.03125 -1.421875 14.8125 8.828125 
Q 5.609375 19.09375 5.609375 36.375 
Q 5.609375 53.65625 14.8125 63.9375 
Q 24.03125 74.21875 39.40625 74.21875 
z
" id="DejaVuSans-79"/>
      </defs>
      <use xlink:href="#DejaVuSans-79"/>
      <use x="78.710938" xlink:href="#DejaVuSans-50"/>
     </g>
    </g>
    <g id="line2d_31">
     <path d="M 358.516875 293.004312 
L 378.516875 293.004312 
" style="fill:none;stroke:#9467bd;stroke-linecap:square;stroke-width:1.5;"/>
    </g>
    <g id="line2d_32"/>
    <g id="text_25">
     <!-- test -->
     <g transform="translate(386.516875 296.504312)scale(0.1 -0.1)">
      <use xlink:href="#DejaVuSans-116"/>
      <use x="39.208984" xlink:href="#DejaVuSans-101"/>
      <use x="100.732422" xlink:href="#DejaVuSans-115"/>
      <use x="152.832031" xlink:href="#DejaVuSans-116"/>
     </g>
    </g>
   </g>
  </g>
 </g>
 <defs>
  <clipPath id="pbd8d9593e8">
   <rect height="266.112" width="357.12" x="57.6" y="41.472"/>
  </clipPath>
 </defs>
</svg>
