<?xml version="1.0" encoding="utf-8" standalone="no"?>
<!DOCTYPE svg PUBLIC "-//W3C//DTD SVG 1.1//EN"
  "http://www.w3.org/Graphics/SVG/1.1/DTD/svg11.dtd">
<!-- Created with matplotlib (https://matplotlib.org/) -->
<svg height="345.6pt" version="1.1" viewBox="0 0 460.8 345.6" width="460.8pt" xmlns="http://www.w3.org/2000/svg" xmlns:xlink="http://www.w3.org/1999/xlink">
 <metadata>
  <rdf:RDF xmlns:cc="http://creativecommons.org/ns#" xmlns:dc="http://purl.org/dc/elements/1.1/" xmlns:rdf="http://www.w3.org/1999/02/22-rdf-syntax-ns#">
   <cc:Work>
    <dc:type rdf:resource="http://purl.org/dc/dcmitype/StillImage"/>
    <dc:date>2020-10-24T13:54:15.315538</dc:date>
    <dc:format>image/svg+xml</dc:format>
    <dc:creator>
     <cc:Agent>
      <dc:title>Matplotlib v3.3.2, https://matplotlib.org/</dc:title>
     </cc:Agent>
    </dc:creator>
   </cc:Work>
  </rdf:RDF>
 </metadata>
 <defs>
  <style type="text/css">*{stroke-linecap:butt;stroke-linejoin:round;}</style>
 </defs>
 <g id="figure_1">
  <g id="patch_1">
   <path d="M 0 345.6 
L 460.8 345.6 
L 460.8 0 
L 0 0 
z
" style="fill:#ffffff;"/>
  </g>
  <g id="axes_1">
   <g id="patch_2">
    <path d="M 57.6 307.584 
L 414.72 307.584 
L 414.72 41.472 
L 57.6 41.472 
z
" style="fill:#ffffff;"/>
   </g>
   <g id="matplotlib.axis_1">
    <g id="xtick_1">
     <g id="line2d_1">
      <defs>
       <path d="M 0 0 
L 0 3.5 
" id="m6d279afad0" style="stroke:#000000;stroke-width:0.8;"/>
      </defs>
      <g>
       <use style="stroke:#000000;stroke-width:0.8;" x="73.832727" xlink:href="#m6d279afad0" y="307.584"/>
      </g>
     </g>
     <g id="text_1">
      <!-- 0.0 -->
      <g transform="translate(65.881165 322.182437)scale(0.1 -0.1)">
       <defs>
        <path d="M 31.78125 66.40625 
Q 24.171875 66.40625 20.328125 58.90625 
Q 16.5 51.421875 16.5 36.375 
Q 16.5 21.390625 20.328125 13.890625 
Q 24.171875 6.390625 31.78125 6.390625 
Q 39.453125 6.390625 43.28125 13.890625 
Q 47.125 21.390625 47.125 36.375 
Q 47.125 51.421875 43.28125 58.90625 
Q 39.453125 66.40625 31.78125 66.40625 
z
M 31.78125 74.21875 
Q 44.046875 74.21875 50.515625 64.515625 
Q 56.984375 54.828125 56.984375 36.375 
Q 56.984375 17.96875 50.515625 8.265625 
Q 44.046875 -1.421875 31.78125 -1.421875 
Q 19.53125 -1.421875 13.0625 8.265625 
Q 6.59375 17.96875 6.59375 36.375 
Q 6.59375 54.828125 13.0625 64.515625 
Q 19.53125 74.21875 31.78125 74.21875 
z
" id="DejaVuSans-48"/>
        <path d="M 10.6875 12.40625 
L 21 12.40625 
L 21 0 
L 10.6875 0 
z
" id="DejaVuSans-46"/>
       </defs>
       <use xlink:href="#DejaVuSans-48"/>
       <use x="63.623047" xlink:href="#DejaVuSans-46"/>
       <use x="95.410156" xlink:href="#DejaVuSans-48"/>
      </g>
     </g>
    </g>
    <g id="xtick_2">
     <g id="line2d_2">
      <g>
       <use style="stroke:#000000;stroke-width:0.8;" x="118.925515" xlink:href="#m6d279afad0" y="307.584"/>
      </g>
     </g>
     <g id="text_2">
      <!-- 0.2 -->
      <g transform="translate(110.973953 322.182437)scale(0.1 -0.1)">
       <defs>
        <path d="M 19.1875 8.296875 
L 53.609375 8.296875 
L 53.609375 0 
L 7.328125 0 
L 7.328125 8.296875 
Q 12.9375 14.109375 22.625 23.890625 
Q 32.328125 33.6875 34.8125 36.53125 
Q 39.546875 41.84375 41.421875 45.53125 
Q 43.3125 49.21875 43.3125 52.78125 
Q 43.3125 58.59375 39.234375 62.25 
Q 35.15625 65.921875 28.609375 65.921875 
Q 23.96875 65.921875 18.8125 64.3125 
Q 13.671875 62.703125 7.8125 59.421875 
L 7.8125 69.390625 
Q 13.765625 71.78125 18.9375 73 
Q 24.125 74.21875 28.421875 74.21875 
Q 39.75 74.21875 46.484375 68.546875 
Q 53.21875 62.890625 53.21875 53.421875 
Q 53.21875 48.921875 51.53125 44.890625 
Q 49.859375 40.875 45.40625 35.40625 
Q 44.1875 33.984375 37.640625 27.21875 
Q 31.109375 20.453125 19.1875 8.296875 
z
" id="DejaVuSans-50"/>
       </defs>
       <use xlink:href="#DejaVuSans-48"/>
       <use x="63.623047" xlink:href="#DejaVuSans-46"/>
       <use x="95.410156" xlink:href="#DejaVuSans-50"/>
      </g>
     </g>
    </g>
    <g id="xtick_3">
     <g id="line2d_3">
      <g>
       <use style="stroke:#000000;stroke-width:0.8;" x="164.018303" xlink:href="#m6d279afad0" y="307.584"/>
      </g>
     </g>
     <g id="text_3">
      <!-- 0.4 -->
      <g transform="translate(156.066741 322.182437)scale(0.1 -0.1)">
       <defs>
        <path d="M 37.796875 64.3125 
L 12.890625 25.390625 
L 37.796875 25.390625 
z
M 35.203125 72.90625 
L 47.609375 72.90625 
L 47.609375 25.390625 
L 58.015625 25.390625 
L 58.015625 17.1875 
L 47.609375 17.1875 
L 47.609375 0 
L 37.796875 0 
L 37.796875 17.1875 
L 4.890625 17.1875 
L 4.890625 26.703125 
z
" id="DejaVuSans-52"/>
       </defs>
       <use xlink:href="#DejaVuSans-48"/>
       <use x="63.623047" xlink:href="#DejaVuSans-46"/>
       <use x="95.410156" xlink:href="#DejaVuSans-52"/>
      </g>
     </g>
    </g>
    <g id="xtick_4">
     <g id="line2d_4">
      <g>
       <use style="stroke:#000000;stroke-width:0.8;" x="209.111091" xlink:href="#m6d279afad0" y="307.584"/>
      </g>
     </g>
     <g id="text_4">
      <!-- 0.6 -->
      <g transform="translate(201.159529 322.182437)scale(0.1 -0.1)">
       <defs>
        <path d="M 33.015625 40.375 
Q 26.375 40.375 22.484375 35.828125 
Q 18.609375 31.296875 18.609375 23.390625 
Q 18.609375 15.53125 22.484375 10.953125 
Q 26.375 6.390625 33.015625 6.390625 
Q 39.65625 6.390625 43.53125 10.953125 
Q 47.40625 15.53125 47.40625 23.390625 
Q 47.40625 31.296875 43.53125 35.828125 
Q 39.65625 40.375 33.015625 40.375 
z
M 52.59375 71.296875 
L 52.59375 62.3125 
Q 48.875 64.0625 45.09375 64.984375 
Q 41.3125 65.921875 37.59375 65.921875 
Q 27.828125 65.921875 22.671875 59.328125 
Q 17.53125 52.734375 16.796875 39.40625 
Q 19.671875 43.65625 24.015625 45.921875 
Q 28.375 48.1875 33.59375 48.1875 
Q 44.578125 48.1875 50.953125 41.515625 
Q 57.328125 34.859375 57.328125 23.390625 
Q 57.328125 12.15625 50.6875 5.359375 
Q 44.046875 -1.421875 33.015625 -1.421875 
Q 20.359375 -1.421875 13.671875 8.265625 
Q 6.984375 17.96875 6.984375 36.375 
Q 6.984375 53.65625 15.1875 63.9375 
Q 23.390625 74.21875 37.203125 74.21875 
Q 40.921875 74.21875 44.703125 73.484375 
Q 48.484375 72.75 52.59375 71.296875 
z
" id="DejaVuSans-54"/>
       </defs>
       <use xlink:href="#DejaVuSans-48"/>
       <use x="63.623047" xlink:href="#DejaVuSans-46"/>
       <use x="95.410156" xlink:href="#DejaVuSans-54"/>
      </g>
     </g>
    </g>
    <g id="xtick_5">
     <g id="line2d_5">
      <g>
       <use style="stroke:#000000;stroke-width:0.8;" x="254.203879" xlink:href="#m6d279afad0" y="307.584"/>
      </g>
     </g>
     <g id="text_5">
      <!-- 0.8 -->
      <g transform="translate(246.252317 322.182437)scale(0.1 -0.1)">
       <defs>
        <path d="M 31.78125 34.625 
Q 24.75 34.625 20.71875 30.859375 
Q 16.703125 27.09375 16.703125 20.515625 
Q 16.703125 13.921875 20.71875 10.15625 
Q 24.75 6.390625 31.78125 6.390625 
Q 38.8125 6.390625 42.859375 10.171875 
Q 46.921875 13.96875 46.921875 20.515625 
Q 46.921875 27.09375 42.890625 30.859375 
Q 38.875 34.625 31.78125 34.625 
z
M 21.921875 38.8125 
Q 15.578125 40.375 12.03125 44.71875 
Q 8.5 49.078125 8.5 55.328125 
Q 8.5 64.0625 14.71875 69.140625 
Q 20.953125 74.21875 31.78125 74.21875 
Q 42.671875 74.21875 48.875 69.140625 
Q 55.078125 64.0625 55.078125 55.328125 
Q 55.078125 49.078125 51.53125 44.71875 
Q 48 40.375 41.703125 38.8125 
Q 48.828125 37.15625 52.796875 32.3125 
Q 56.78125 27.484375 56.78125 20.515625 
Q 56.78125 9.90625 50.3125 4.234375 
Q 43.84375 -1.421875 31.78125 -1.421875 
Q 19.734375 -1.421875 13.25 4.234375 
Q 6.78125 9.90625 6.78125 20.515625 
Q 6.78125 27.484375 10.78125 32.3125 
Q 14.796875 37.15625 21.921875 38.8125 
z
M 18.3125 54.390625 
Q 18.3125 48.734375 21.84375 45.5625 
Q 25.390625 42.390625 31.78125 42.390625 
Q 38.140625 42.390625 41.71875 45.5625 
Q 45.3125 48.734375 45.3125 54.390625 
Q 45.3125 60.0625 41.71875 63.234375 
Q 38.140625 66.40625 31.78125 66.40625 
Q 25.390625 66.40625 21.84375 63.234375 
Q 18.3125 60.0625 18.3125 54.390625 
z
" id="DejaVuSans-56"/>
       </defs>
       <use xlink:href="#DejaVuSans-48"/>
       <use x="63.623047" xlink:href="#DejaVuSans-46"/>
       <use x="95.410156" xlink:href="#DejaVuSans-56"/>
      </g>
     </g>
    </g>
    <g id="xtick_6">
     <g id="line2d_6">
      <g>
       <use style="stroke:#000000;stroke-width:0.8;" x="299.296667" xlink:href="#m6d279afad0" y="307.584"/>
      </g>
     </g>
     <g id="text_6">
      <!-- 1.0 -->
      <g transform="translate(291.345105 322.182437)scale(0.1 -0.1)">
       <defs>
        <path d="M 12.40625 8.296875 
L 28.515625 8.296875 
L 28.515625 63.921875 
L 10.984375 60.40625 
L 10.984375 69.390625 
L 28.421875 72.90625 
L 38.28125 72.90625 
L 38.28125 8.296875 
L 54.390625 8.296875 
L 54.390625 0 
L 12.40625 0 
z
" id="DejaVuSans-49"/>
       </defs>
       <use xlink:href="#DejaVuSans-49"/>
       <use x="63.623047" xlink:href="#DejaVuSans-46"/>
       <use x="95.410156" xlink:href="#DejaVuSans-48"/>
      </g>
     </g>
    </g>
    <g id="xtick_7">
     <g id="line2d_7">
      <g>
       <use style="stroke:#000000;stroke-width:0.8;" x="344.389455" xlink:href="#m6d279afad0" y="307.584"/>
      </g>
     </g>
     <g id="text_7">
      <!-- 1.2 -->
      <g transform="translate(336.437893 322.182437)scale(0.1 -0.1)">
       <use xlink:href="#DejaVuSans-49"/>
       <use x="63.623047" xlink:href="#DejaVuSans-46"/>
       <use x="95.410156" xlink:href="#DejaVuSans-50"/>
      </g>
     </g>
    </g>
    <g id="xtick_8">
     <g id="line2d_8">
      <g>
       <use style="stroke:#000000;stroke-width:0.8;" x="389.482243" xlink:href="#m6d279afad0" y="307.584"/>
      </g>
     </g>
     <g id="text_8">
      <!-- 1.4 -->
      <g transform="translate(381.53068 322.182437)scale(0.1 -0.1)">
       <use xlink:href="#DejaVuSans-49"/>
       <use x="63.623047" xlink:href="#DejaVuSans-46"/>
       <use x="95.410156" xlink:href="#DejaVuSans-52"/>
      </g>
     </g>
    </g>
    <g id="text_9">
     <!-- Time (min) -->
     <g transform="translate(209.007656 335.860562)scale(0.1 -0.1)">
      <defs>
       <path d="M -0.296875 72.90625 
L 61.375 72.90625 
L 61.375 64.59375 
L 35.5 64.59375 
L 35.5 0 
L 25.59375 0 
L 25.59375 64.59375 
L -0.296875 64.59375 
z
" id="DejaVuSans-84"/>
       <path d="M 9.421875 54.6875 
L 18.40625 54.6875 
L 18.40625 0 
L 9.421875 0 
z
M 9.421875 75.984375 
L 18.40625 75.984375 
L 18.40625 64.59375 
L 9.421875 64.59375 
z
" id="DejaVuSans-105"/>
       <path d="M 52 44.1875 
Q 55.375 50.25 60.0625 53.125 
Q 64.75 56 71.09375 56 
Q 79.640625 56 84.28125 50.015625 
Q 88.921875 44.046875 88.921875 33.015625 
L 88.921875 0 
L 79.890625 0 
L 79.890625 32.71875 
Q 79.890625 40.578125 77.09375 44.375 
Q 74.3125 48.1875 68.609375 48.1875 
Q 61.625 48.1875 57.5625 43.546875 
Q 53.515625 38.921875 53.515625 30.90625 
L 53.515625 0 
L 44.484375 0 
L 44.484375 32.71875 
Q 44.484375 40.625 41.703125 44.40625 
Q 38.921875 48.1875 33.109375 48.1875 
Q 26.21875 48.1875 22.15625 43.53125 
Q 18.109375 38.875 18.109375 30.90625 
L 18.109375 0 
L 9.078125 0 
L 9.078125 54.6875 
L 18.109375 54.6875 
L 18.109375 46.1875 
Q 21.1875 51.21875 25.484375 53.609375 
Q 29.78125 56 35.6875 56 
Q 41.65625 56 45.828125 52.96875 
Q 50 49.953125 52 44.1875 
z
" id="DejaVuSans-109"/>
       <path d="M 56.203125 29.59375 
L 56.203125 25.203125 
L 14.890625 25.203125 
Q 15.484375 15.921875 20.484375 11.0625 
Q 25.484375 6.203125 34.421875 6.203125 
Q 39.59375 6.203125 44.453125 7.46875 
Q 49.3125 8.734375 54.109375 11.28125 
L 54.109375 2.78125 
Q 49.265625 0.734375 44.1875 -0.34375 
Q 39.109375 -1.421875 33.890625 -1.421875 
Q 20.796875 -1.421875 13.15625 6.1875 
Q 5.515625 13.8125 5.515625 26.8125 
Q 5.515625 40.234375 12.765625 48.109375 
Q 20.015625 56 32.328125 56 
Q 43.359375 56 49.78125 48.890625 
Q 56.203125 41.796875 56.203125 29.59375 
z
M 47.21875 32.234375 
Q 47.125 39.59375 43.09375 43.984375 
Q 39.0625 48.390625 32.421875 48.390625 
Q 24.90625 48.390625 20.390625 44.140625 
Q 15.875 39.890625 15.1875 32.171875 
z
" id="DejaVuSans-101"/>
       <path id="DejaVuSans-32"/>
       <path d="M 31 75.875 
Q 24.46875 64.65625 21.28125 53.65625 
Q 18.109375 42.671875 18.109375 31.390625 
Q 18.109375 20.125 21.3125 9.0625 
Q 24.515625 -2 31 -13.1875 
L 23.1875 -13.1875 
Q 15.875 -1.703125 12.234375 9.375 
Q 8.59375 20.453125 8.59375 31.390625 
Q 8.59375 42.28125 12.203125 53.3125 
Q 15.828125 64.359375 23.1875 75.875 
z
" id="DejaVuSans-40"/>
       <path d="M 54.890625 33.015625 
L 54.890625 0 
L 45.90625 0 
L 45.90625 32.71875 
Q 45.90625 40.484375 42.875 44.328125 
Q 39.84375 48.1875 33.796875 48.1875 
Q 26.515625 48.1875 22.3125 43.546875 
Q 18.109375 38.921875 18.109375 30.90625 
L 18.109375 0 
L 9.078125 0 
L 9.078125 54.6875 
L 18.109375 54.6875 
L 18.109375 46.1875 
Q 21.34375 51.125 25.703125 53.5625 
Q 30.078125 56 35.796875 56 
Q 45.21875 56 50.046875 50.171875 
Q 54.890625 44.34375 54.890625 33.015625 
z
" id="DejaVuSans-110"/>
       <path d="M 8.015625 75.875 
L 15.828125 75.875 
Q 23.140625 64.359375 26.78125 53.3125 
Q 30.421875 42.28125 30.421875 31.390625 
Q 30.421875 20.453125 26.78125 9.375 
Q 23.140625 -1.703125 15.828125 -13.1875 
L 8.015625 -13.1875 
Q 14.5 -2 17.703125 9.0625 
Q 20.90625 20.125 20.90625 31.390625 
Q 20.90625 42.671875 17.703125 53.65625 
Q 14.5 64.65625 8.015625 75.875 
z
" id="DejaVuSans-41"/>
      </defs>
      <use xlink:href="#DejaVuSans-84"/>
      <use x="57.958984" xlink:href="#DejaVuSans-105"/>
      <use x="85.742188" xlink:href="#DejaVuSans-109"/>
      <use x="183.154297" xlink:href="#DejaVuSans-101"/>
      <use x="244.677734" xlink:href="#DejaVuSans-32"/>
      <use x="276.464844" xlink:href="#DejaVuSans-40"/>
      <use x="315.478516" xlink:href="#DejaVuSans-109"/>
      <use x="412.890625" xlink:href="#DejaVuSans-105"/>
      <use x="440.673828" xlink:href="#DejaVuSans-110"/>
      <use x="504.052734" xlink:href="#DejaVuSans-41"/>
     </g>
    </g>
    <g id="text_10">
     <!-- 1e6 -->
     <g transform="translate(395.841875 334.860562)scale(0.1 -0.1)">
      <use xlink:href="#DejaVuSans-49"/>
      <use x="63.623047" xlink:href="#DejaVuSans-101"/>
      <use x="125.146484" xlink:href="#DejaVuSans-54"/>
     </g>
    </g>
   </g>
   <g id="matplotlib.axis_2">
    <g id="ytick_1">
     <g id="line2d_9">
      <defs>
       <path d="M 0 0 
L -3.5 0 
" id="m48be03a4b2" style="stroke:#000000;stroke-width:0.8;"/>
      </defs>
      <g>
       <use style="stroke:#000000;stroke-width:0.8;" x="57.6" xlink:href="#m48be03a4b2" y="280.08549"/>
      </g>
     </g>
     <g id="text_11">
      <!-- −500 -->
      <g transform="translate(23.132812 283.884709)scale(0.1 -0.1)">
       <defs>
        <path d="M 10.59375 35.5 
L 73.1875 35.5 
L 73.1875 27.203125 
L 10.59375 27.203125 
z
" id="DejaVuSans-8722"/>
        <path d="M 10.796875 72.90625 
L 49.515625 72.90625 
L 49.515625 64.59375 
L 19.828125 64.59375 
L 19.828125 46.734375 
Q 21.96875 47.46875 24.109375 47.828125 
Q 26.265625 48.1875 28.421875 48.1875 
Q 40.625 48.1875 47.75 41.5 
Q 54.890625 34.8125 54.890625 23.390625 
Q 54.890625 11.625 47.5625 5.09375 
Q 40.234375 -1.421875 26.90625 -1.421875 
Q 22.3125 -1.421875 17.546875 -0.640625 
Q 12.796875 0.140625 7.71875 1.703125 
L 7.71875 11.625 
Q 12.109375 9.234375 16.796875 8.0625 
Q 21.484375 6.890625 26.703125 6.890625 
Q 35.15625 6.890625 40.078125 11.328125 
Q 45.015625 15.765625 45.015625 23.390625 
Q 45.015625 31 40.078125 35.4375 
Q 35.15625 39.890625 26.703125 39.890625 
Q 22.75 39.890625 18.8125 39.015625 
Q 14.890625 38.140625 10.796875 36.28125 
z
" id="DejaVuSans-53"/>
       </defs>
       <use xlink:href="#DejaVuSans-8722"/>
       <use x="83.789062" xlink:href="#DejaVuSans-53"/>
       <use x="147.412109" xlink:href="#DejaVuSans-48"/>
       <use x="211.035156" xlink:href="#DejaVuSans-48"/>
      </g>
     </g>
    </g>
    <g id="ytick_2">
     <g id="line2d_10">
      <g>
       <use style="stroke:#000000;stroke-width:0.8;" x="57.6" xlink:href="#m48be03a4b2" y="242.332575"/>
      </g>
     </g>
     <g id="text_12">
      <!-- −400 -->
      <g transform="translate(23.132812 246.131794)scale(0.1 -0.1)">
       <use xlink:href="#DejaVuSans-8722"/>
       <use x="83.789062" xlink:href="#DejaVuSans-52"/>
       <use x="147.412109" xlink:href="#DejaVuSans-48"/>
       <use x="211.035156" xlink:href="#DejaVuSans-48"/>
      </g>
     </g>
    </g>
    <g id="ytick_3">
     <g id="line2d_11">
      <g>
       <use style="stroke:#000000;stroke-width:0.8;" x="57.6" xlink:href="#m48be03a4b2" y="204.57966"/>
      </g>
     </g>
     <g id="text_13">
      <!-- −300 -->
      <g transform="translate(23.132812 208.378879)scale(0.1 -0.1)">
       <defs>
        <path d="M 40.578125 39.3125 
Q 47.65625 37.796875 51.625 33 
Q 55.609375 28.21875 55.609375 21.1875 
Q 55.609375 10.40625 48.1875 4.484375 
Q 40.765625 -1.421875 27.09375 -1.421875 
Q 22.515625 -1.421875 17.65625 -0.515625 
Q 12.796875 0.390625 7.625 2.203125 
L 7.625 11.71875 
Q 11.71875 9.328125 16.59375 8.109375 
Q 21.484375 6.890625 26.8125 6.890625 
Q 36.078125 6.890625 40.9375 10.546875 
Q 45.796875 14.203125 45.796875 21.1875 
Q 45.796875 27.640625 41.28125 31.265625 
Q 36.765625 34.90625 28.71875 34.90625 
L 20.21875 34.90625 
L 20.21875 43.015625 
L 29.109375 43.015625 
Q 36.375 43.015625 40.234375 45.921875 
Q 44.09375 48.828125 44.09375 54.296875 
Q 44.09375 59.90625 40.109375 62.90625 
Q 36.140625 65.921875 28.71875 65.921875 
Q 24.65625 65.921875 20.015625 65.03125 
Q 15.375 64.15625 9.8125 62.3125 
L 9.8125 71.09375 
Q 15.4375 72.65625 20.34375 73.4375 
Q 25.25 74.21875 29.59375 74.21875 
Q 40.828125 74.21875 47.359375 69.109375 
Q 53.90625 64.015625 53.90625 55.328125 
Q 53.90625 49.265625 50.4375 45.09375 
Q 46.96875 40.921875 40.578125 39.3125 
z
" id="DejaVuSans-51"/>
       </defs>
       <use xlink:href="#DejaVuSans-8722"/>
       <use x="83.789062" xlink:href="#DejaVuSans-51"/>
       <use x="147.412109" xlink:href="#DejaVuSans-48"/>
       <use x="211.035156" xlink:href="#DejaVuSans-48"/>
      </g>
     </g>
    </g>
    <g id="ytick_4">
     <g id="line2d_12">
      <g>
       <use style="stroke:#000000;stroke-width:0.8;" x="57.6" xlink:href="#m48be03a4b2" y="166.826745"/>
      </g>
     </g>
     <g id="text_14">
      <!-- −200 -->
      <g transform="translate(23.132812 170.625964)scale(0.1 -0.1)">
       <use xlink:href="#DejaVuSans-8722"/>
       <use x="83.789062" xlink:href="#DejaVuSans-50"/>
       <use x="147.412109" xlink:href="#DejaVuSans-48"/>
       <use x="211.035156" xlink:href="#DejaVuSans-48"/>
      </g>
     </g>
    </g>
    <g id="ytick_5">
     <g id="line2d_13">
      <g>
       <use style="stroke:#000000;stroke-width:0.8;" x="57.6" xlink:href="#m48be03a4b2" y="129.07383"/>
      </g>
     </g>
     <g id="text_15">
      <!-- −100 -->
      <g transform="translate(23.132812 132.873049)scale(0.1 -0.1)">
       <use xlink:href="#DejaVuSans-8722"/>
       <use x="83.789062" xlink:href="#DejaVuSans-49"/>
       <use x="147.412109" xlink:href="#DejaVuSans-48"/>
       <use x="211.035156" xlink:href="#DejaVuSans-48"/>
      </g>
     </g>
    </g>
    <g id="ytick_6">
     <g id="line2d_14">
      <g>
       <use style="stroke:#000000;stroke-width:0.8;" x="57.6" xlink:href="#m48be03a4b2" y="91.320915"/>
      </g>
     </g>
     <g id="text_16">
      <!-- 0 -->
      <g transform="translate(44.2375 95.120134)scale(0.1 -0.1)">
       <use xlink:href="#DejaVuSans-48"/>
      </g>
     </g>
    </g>
    <g id="ytick_7">
     <g id="line2d_15">
      <g>
       <use style="stroke:#000000;stroke-width:0.8;" x="57.6" xlink:href="#m48be03a4b2" y="53.568"/>
      </g>
     </g>
     <g id="text_17">
      <!-- 100 -->
      <g transform="translate(31.5125 57.367219)scale(0.1 -0.1)">
       <use xlink:href="#DejaVuSans-49"/>
       <use x="63.623047" xlink:href="#DejaVuSans-48"/>
       <use x="127.246094" xlink:href="#DejaVuSans-48"/>
      </g>
     </g>
    </g>
    <g id="text_18">
     <!-- Density -->
     <g transform="translate(17.053125 193.536594)rotate(-90)scale(0.1 -0.1)">
      <defs>
       <path d="M 19.671875 64.796875 
L 19.671875 8.109375 
L 31.59375 8.109375 
Q 46.6875 8.109375 53.6875 14.9375 
Q 60.6875 21.78125 60.6875 36.53125 
Q 60.6875 51.171875 53.6875 57.984375 
Q 46.6875 64.796875 31.59375 64.796875 
z
M 9.8125 72.90625 
L 30.078125 72.90625 
Q 51.265625 72.90625 61.171875 64.09375 
Q 71.09375 55.28125 71.09375 36.53125 
Q 71.09375 17.671875 61.125 8.828125 
Q 51.171875 0 30.078125 0 
L 9.8125 0 
z
" id="DejaVuSans-68"/>
       <path d="M 44.28125 53.078125 
L 44.28125 44.578125 
Q 40.484375 46.53125 36.375 47.5 
Q 32.28125 48.484375 27.875 48.484375 
Q 21.1875 48.484375 17.84375 46.4375 
Q 14.5 44.390625 14.5 40.28125 
Q 14.5 37.15625 16.890625 35.375 
Q 19.28125 33.59375 26.515625 31.984375 
L 29.59375 31.296875 
Q 39.15625 29.25 43.1875 25.515625 
Q 47.21875 21.78125 47.21875 15.09375 
Q 47.21875 7.46875 41.1875 3.015625 
Q 35.15625 -1.421875 24.609375 -1.421875 
Q 20.21875 -1.421875 15.453125 -0.5625 
Q 10.6875 0.296875 5.421875 2 
L 5.421875 11.28125 
Q 10.40625 8.6875 15.234375 7.390625 
Q 20.0625 6.109375 24.8125 6.109375 
Q 31.15625 6.109375 34.5625 8.28125 
Q 37.984375 10.453125 37.984375 14.40625 
Q 37.984375 18.0625 35.515625 20.015625 
Q 33.0625 21.96875 24.703125 23.78125 
L 21.578125 24.515625 
Q 13.234375 26.265625 9.515625 29.90625 
Q 5.8125 33.546875 5.8125 39.890625 
Q 5.8125 47.609375 11.28125 51.796875 
Q 16.75 56 26.8125 56 
Q 31.78125 56 36.171875 55.265625 
Q 40.578125 54.546875 44.28125 53.078125 
z
" id="DejaVuSans-115"/>
       <path d="M 18.3125 70.21875 
L 18.3125 54.6875 
L 36.8125 54.6875 
L 36.8125 47.703125 
L 18.3125 47.703125 
L 18.3125 18.015625 
Q 18.3125 11.328125 20.140625 9.421875 
Q 21.96875 7.515625 27.59375 7.515625 
L 36.8125 7.515625 
L 36.8125 0 
L 27.59375 0 
Q 17.1875 0 13.234375 3.875 
Q 9.28125 7.765625 9.28125 18.015625 
L 9.28125 47.703125 
L 2.6875 47.703125 
L 2.6875 54.6875 
L 9.28125 54.6875 
L 9.28125 70.21875 
z
" id="DejaVuSans-116"/>
       <path d="M 32.171875 -5.078125 
Q 28.375 -14.84375 24.75 -17.8125 
Q 21.140625 -20.796875 15.09375 -20.796875 
L 7.90625 -20.796875 
L 7.90625 -13.28125 
L 13.1875 -13.28125 
Q 16.890625 -13.28125 18.9375 -11.515625 
Q 21 -9.765625 23.484375 -3.21875 
L 25.09375 0.875 
L 2.984375 54.6875 
L 12.5 54.6875 
L 29.59375 11.921875 
L 46.6875 54.6875 
L 56.203125 54.6875 
z
" id="DejaVuSans-121"/>
      </defs>
      <use xlink:href="#DejaVuSans-68"/>
      <use x="77.001953" xlink:href="#DejaVuSans-101"/>
      <use x="138.525391" xlink:href="#DejaVuSans-110"/>
      <use x="201.904297" xlink:href="#DejaVuSans-115"/>
      <use x="254.003906" xlink:href="#DejaVuSans-105"/>
      <use x="281.787109" xlink:href="#DejaVuSans-116"/>
      <use x="320.996094" xlink:href="#DejaVuSans-121"/>
     </g>
    </g>
   </g>
   <g id="line2d_16">
    <path clip-path="url(#p7c499dd65d)" d="M 73.832727 91.320915 
L 398.487273 91.320915 
L 398.487273 91.320915 
" style="fill:none;stroke:#1f77b4;stroke-linecap:square;stroke-width:1.5;"/>
   </g>
   <g id="line2d_17">
    <path clip-path="url(#p7c499dd65d)" d="M 73.832727 91.320915 
L 398.487273 91.320915 
L 398.487273 91.320915 
" style="fill:none;stroke:#ff7f0e;stroke-linecap:square;stroke-width:1.5;"/>
   </g>
   <g id="line2d_18">
    <path clip-path="url(#p7c499dd65d)" d="M 73.832727 87.545624 
L 74.427952 87.559961 
L 108.031098 88.40173 
L 146.396042 89.135004 
L 181.568416 89.603562 
L 398.487273 89.603562 
L 398.487273 89.603562 
" style="fill:none;stroke:#2ca02c;stroke-linecap:square;stroke-width:1.5;"/>
   </g>
   <g id="line2d_19">
    <path clip-path="url(#p7c499dd65d)" d="M 73.832727 53.568 
L 73.859783 295.488 
L 73.954478 294.68058 
L 73.981533 295.156143 
L 74.0627 294.917891 
L 74.076228 294.875908 
L 74.157395 294.095151 
L 74.184451 294.307624 
L 74.197979 294.684389 
L 74.238562 294.050171 
L 74.279146 294.311488 
L 74.387369 293.593304 
L 74.400896 293.697775 
L 74.427952 293.912268 
L 74.455008 293.318887 
L 74.509119 293.65447 
L 74.603814 293.043254 
L 74.617342 293.126323 
L 74.63087 293.243344 
L 74.671453 292.651842 
L 74.712037 293.088345 
L 74.901426 292.224047 
L 74.914954 292.373366 
L 74.928482 292.639904 
L 74.969066 291.986578 
L 75.009649 292.119661 
L 75.023177 292.099821 
L 75.104344 291.411346 
L 75.1314 291.924383 
L 75.25315 291.052778 
L 75.280206 291.39002 
L 75.293734 291.630466 
L 75.307261 290.99108 
L 75.361373 291.437727 
L 75.456068 290.541203 
L 75.496651 290.788633 
L 75.510179 290.977111 
L 75.523707 290.314974 
L 75.591346 290.660468 
L 75.686041 289.837515 
L 75.699569 290.065814 
L 75.713097 290.374075 
L 75.75368 289.750554 
L 75.794264 290.050586 
L 75.888958 289.266874 
L 75.929542 289.565439 
L 75.94307 289.775964 
L 75.970125 289.222925 
L 76.024237 289.350851 
L 76.118932 288.655097 
L 76.132459 288.853893 
L 76.145987 289.195555 
L 76.186571 288.541813 
L 76.227154 288.830391 
L 76.335377 288.125623 
L 76.348905 288.253189 
L 76.362433 288.649482 
L 76.403016 287.726153 
L 76.4436 288.165349 
L 76.457128 288.14034 
L 76.551822 287.56222 
L 76.56535 287.699039 
L 76.578878 287.796905 
L 76.605934 287.660982 
L 76.700629 287.119678 
L 76.660045 287.828172 
L 76.714156 287.28831 
L 76.727684 287.595661 
L 76.768268 286.927026 
L 76.808851 287.208234 
L 76.917074 286.583492 
L 76.930602 286.712313 
L 76.94413 286.890055 
L 76.984713 286.353446 
L 77.011769 286.57912 
L 77.187631 285.736362 
L 77.201159 285.795956 
L 77.214686 286.035128 
L 77.25527 285.522219 
L 77.309381 285.97617 
L 77.404076 285.065312 
L 77.431132 285.34354 
L 77.44466 285.467719 
L 77.471715 285.141758 
L 77.552882 284.770427 
L 77.512299 285.345011 
L 77.579938 284.970953 
L 77.593466 285.013454 
L 77.606994 284.775412 
L 77.620521 284.771202 
L 77.701688 284.31995 
L 77.661105 284.96094 
L 77.728744 284.825346 
L 77.836967 283.832183 
L 77.864023 284.168469 
L 77.87755 284.162414 
L 77.891078 284.316691 
L 77.918134 283.780541 
L 77.958717 283.959877 
L 78.215746 282.980616 
L 78.026357 284.051631 
L 78.229274 283.125743 
L 78.242802 283.37477 
L 78.283385 282.718612 
L 78.323969 282.863326 
L 78.418664 282.199084 
L 78.459247 282.578728 
L 78.472775 282.630977 
L 78.553942 282.013515 
L 78.594526 282.202859 
L 78.608054 282.236063 
L 78.716276 281.571968 
L 78.729804 281.702617 
L 78.743332 281.840046 
L 78.770388 281.353896 
L 78.824499 281.754331 
L 78.932722 281.001495 
L 78.946249 281.163825 
L 78.959777 281.228655 
L 78.986833 281.047928 
L 79.068 280.574687 
L 79.027416 281.163391 
L 79.095056 281.025215 
L 79.203278 280.133924 
L 79.230334 280.342117 
L 79.25739 280.582663 
L 79.270918 280.20377 
L 79.352085 279.680751 
L 79.325029 280.22975 
L 79.37914 279.924412 
L 79.392668 280.300321 
L 79.433252 279.467052 
L 79.473835 279.778267 
L 79.487363 279.755278 
L 79.582058 279.174783 
L 79.595586 279.348439 
L 79.609113 279.615951 
L 79.649697 278.89985 
L 79.69028 279.195381 
L 79.784975 278.471688 
L 79.825559 278.832231 
L 79.839087 278.930248 
L 79.866142 278.435339 
L 79.906726 278.730037 
L 80.014949 278.001823 
L 80.028476 278.168851 
L 80.042004 278.456193 
L 80.082588 277.817429 
L 80.123171 278.08558 
L 80.231394 277.431815 
L 80.244922 277.800454 
L 80.299033 277.275343 
L 80.339617 277.387308 
L 80.353144 277.356142 
L 80.447839 276.879224 
L 80.393728 277.397278 
L 80.461367 277.251501 
L 80.501951 276.444669 
L 80.610173 276.646698 
L 80.623701 276.87393 
L 80.664285 276.3028 
L 80.704868 276.482364 
L 80.799563 275.735985 
L 80.813091 275.957762 
L 80.826619 276.258063 
L 80.867202 275.717007 
L 80.907786 275.944512 
L 81.016008 275.129816 
L 81.029536 275.378571 
L 81.043064 275.563132 
L 81.097175 275.140934 
L 81.124231 275.342887 
L 81.137759 275.312314 
L 81.232454 274.747988 
L 81.245982 274.817984 
L 81.273037 275.08321 
L 81.313621 274.576278 
L 81.340676 274.782328 
L 81.448899 274.115611 
L 81.462427 274.207497 
L 81.489483 274.393255 
L 81.530066 273.963579 
L 81.557122 274.338914 
L 81.665345 273.600898 
L 81.678872 273.664354 
L 81.6924 273.762442 
L 81.719456 273.699163 
L 81.814151 273.181882 
L 81.827679 273.505372 
L 81.962957 272.81536 
L 81.976485 272.941715 
L 81.990013 273.193139 
L 82.030596 272.593313 
L 82.07118 272.81975 
L 82.165874 272.030169 
L 82.179402 272.267619 
L 82.19293 272.534212 
L 82.247042 272.033256 
L 82.274097 272.254631 
L 82.38232 271.42102 
L 82.409376 271.854642 
L 82.422903 271.936512 
L 82.449959 271.583801 
L 82.517598 271.199823 
L 82.490543 271.683144 
L 82.558182 271.435862 
L 82.57171 271.61487 
L 82.598765 271.112932 
L 82.652877 271.227916 
L 82.747571 270.544415 
L 82.706988 271.333784 
L 82.761099 270.759494 
L 82.774627 271.043125 
L 82.815211 270.471435 
L 82.855794 270.731164 
L 82.964017 270.041829 
L 82.977545 270.339112 
L 83.180462 269.534191 
L 83.0046 270.482295 
L 83.207518 269.722254 
L 83.221046 269.825407 
L 83.234574 269.253804 
L 83.288685 269.570535 
L 83.396908 268.932005 
L 83.410435 269.043424 
L 83.423963 269.203459 
L 83.451019 268.814394 
L 83.50513 268.974255 
L 83.748631 267.770889 
L 83.762159 268.034744 
L 83.789215 268.341032 
L 83.829798 267.792763 
L 83.870382 268.038187 
L 83.978605 267.452795 
L 83.992132 267.577485 
L 84.032716 267.186969 
L 84.073299 267.696492 
L 84.19505 266.883269 
L 84.222106 267.100933 
L 84.262689 266.590658 
L 84.289745 267.033045 
L 84.411495 266.321491 
L 84.425023 266.435374 
L 84.438551 266.515619 
L 84.465607 266.012131 
L 84.519718 266.425144 
L 84.627941 265.762559 
L 84.641469 265.907946 
L 84.654996 265.966387 
L 84.668524 265.719755 
L 84.682052 265.750086 
L 84.763219 265.322893 
L 84.722636 265.913449 
L 84.790275 265.582655 
L 84.803803 265.586594 
L 84.898497 264.806197 
L 84.925553 265.17819 
L 84.979664 264.81324 
L 84.952609 265.307126 
L 85.033776 264.911334 
L 85.114943 264.184009 
L 85.141998 264.540029 
L 85.155526 264.768276 
L 85.19611 264.193223 
L 85.236693 264.447562 
L 85.344916 263.835353 
L 85.358444 263.95516 
L 85.412555 263.577363 
L 85.439611 264.084055 
L 85.561361 263.290074 
L 85.574889 263.440602 
L 85.588417 263.501974 
L 85.615473 263.329106 
L 85.69664 262.860614 
L 85.656056 263.422191 
L 85.723695 263.040407 
L 85.737223 263.303622 
L 85.777807 262.715983 
L 85.81839 262.919912 
L 85.926613 262.391042 
L 85.940141 262.508374 
L 85.953669 262.71685 
L 85.994252 262.120452 
L 86.021308 262.379102 
L 86.129531 261.769256 
L 86.156586 261.992646 
L 86.170114 262.015407 
L 86.264809 261.294963 
L 86.305392 261.56998 
L 86.31892 261.762167 
L 86.359504 261.277789 
L 86.400087 261.375428 
L 86.494782 260.85256 
L 86.50831 261.082971 
L 86.778867 260.012364 
L 86.535366 261.128575 
L 86.792395 260.151938 
L 86.805922 260.496118 
L 86.846506 259.755637 
L 86.900617 260.198843 
L 86.995312 259.414969 
L 87.022368 259.839451 
L 87.19823 259.011053 
L 87.225285 259.058982 
L 87.252341 259.341723 
L 87.292924 258.820123 
L 87.31998 259.201827 
L 87.428203 258.293246 
L 87.441731 258.494783 
L 87.455259 258.744839 
L 87.50937 258.266289 
L 87.536426 258.474635 
L 87.63112 257.827967 
L 87.671704 258.025629 
L 87.685232 258.244582 
L 87.725815 257.718862 
L 87.766399 257.870939 
L 87.861094 257.344924 
L 87.888149 257.496378 
L 87.901677 257.610399 
L 87.942261 257.156699 
L 87.969316 257.353916 
L 88.077539 256.747298 
L 88.104595 256.993455 
L 88.118122 256.997511 
L 88.212817 256.276495 
L 88.239873 256.583034 
L 88.253401 256.574302 
L 88.266929 256.714844 
L 88.293984 256.247809 
L 88.334568 256.384573 
L 88.361624 255.907831 
L 88.415735 256.256108 
L 88.51043 255.645296 
L 88.523958 255.723782 
L 88.551013 255.886571 
L 88.591597 255.49828 
L 88.618652 255.840224 
L 88.726875 254.966176 
L 88.753931 255.298436 
L 88.780986 255.23974 
L 88.875681 254.761816 
L 88.889209 254.902995 
L 88.902737 254.963817 
L 88.929793 254.799077 
L 88.997432 254.399161 
L 88.983904 254.930027 
L 89.038015 254.514248 
L 89.051543 254.753721 
L 89.092127 254.202321 
L 89.13271 254.396961 
L 89.227405 253.888397 
L 89.254461 253.990186 
L 89.267989 254.120715 
L 89.308572 253.662376 
L 89.335628 253.855423 
L 89.44385 253.282404 
L 89.470906 253.491318 
L 89.484434 253.51431 
L 89.497962 253.342747 
L 89.579129 252.852854 
L 89.538545 253.401962 
L 89.619712 253.085043 
L 89.63324 253.258413 
L 89.673824 252.798079 
L 89.714407 252.890523 
L 89.795574 252.227732 
L 89.82263 252.466207 
L 89.836158 252.727647 
L 89.876741 252.189091 
L 89.917325 252.414441 
L 90.025547 251.813561 
L 90.039075 251.911883 
L 90.052603 252.23825 
L 90.093187 251.466605 
L 90.13377 251.820862 
L 90.147298 251.799147 
L 90.241993 251.30398 
L 90.255521 251.408968 
L 90.269048 251.485661 
L 90.296104 251.372941 
L 90.377271 250.928502 
L 90.336688 251.385501 
L 90.404327 251.038276 
L 90.417855 251.298859 
L 90.458438 250.731506 
L 90.499022 250.952319 
L 90.607244 250.411158 
L 90.620772 250.515111 
L 90.6343 250.658731 
L 90.674884 250.214161 
L 90.701939 250.387415 
L 90.877801 249.662364 
L 90.891329 249.70822 
L 90.904857 249.896827 
L 90.94544 249.470335 
L 90.999552 249.828781 
L 91.094247 249.06193 
L 91.121302 249.281033 
L 91.148358 249.40844 
L 91.243053 248.786274 
L 91.270108 248.938585 
L 91.283636 248.972251 
L 91.297164 248.778795 
L 91.310692 248.775305 
L 91.391859 248.383571 
L 91.351275 248.914353 
L 91.432442 248.547524 
L 91.44597 248.558988 
L 91.527137 247.953397 
L 91.554193 248.217353 
L 91.567721 248.210368 
L 91.581249 248.337595 
L 91.608304 247.893437 
L 91.648888 248.02779 
L 91.905917 247.16197 
L 91.919445 247.27928 
L 91.932972 247.483695 
L 91.973556 246.932271 
L 92.014139 247.049342 
L 92.108834 246.481082 
L 92.149418 246.780828 
L 92.162946 246.825564 
L 92.176473 246.497934 
L 92.25764 246.15704 
L 92.217057 246.637452 
L 92.284696 246.411205 
L 92.298224 246.596222 
L 92.338807 246.099163 
L 92.365863 246.423491 
L 92.460558 245.71295 
L 92.501141 245.88073 
L 92.514669 246.025922 
L 92.528197 245.523363 
L 92.595836 245.761112 
L 92.690531 245.084479 
L 92.717587 245.491229 
L 92.82581 244.628238 
L 92.866393 245.029134 
L 92.879921 245.009532 
L 92.988144 244.52634 
L 93.001671 244.624461 
L 93.015199 244.660953 
L 93.028727 244.615962 
L 93.123422 244.03833 
L 93.13695 244.193396 
L 93.150478 244.451018 
L 93.191061 243.941307 
L 93.231645 244.150151 
L 93.339867 243.495332 
L 93.353395 243.672043 
L 93.366923 243.823241 
L 93.407507 243.460062 
L 93.44809 243.580483 
L 93.461618 243.551017 
L 93.556313 243.07228 
L 93.569841 243.170193 
L 93.583368 243.245038 
L 93.610424 243.136374 
L 93.705119 242.678954 
L 93.664535 243.246604 
L 93.718647 242.810386 
L 93.732175 243.043409 
L 93.772758 242.515021 
L 93.813342 242.724532 
L 93.921564 242.163679 
L 93.935092 242.461545 
L 94.056843 241.707279 
L 94.097426 241.982704 
L 94.110954 241.984684 
L 94.192121 241.480246 
L 94.232705 241.656302 
L 94.246232 241.670085 
L 94.354455 241.140877 
L 94.367983 241.241564 
L 94.381511 241.31954 
L 94.408566 240.90008 
L 94.44915 241.190328 
L 94.63854 240.350362 
L 94.652067 240.505995 
L 94.665595 240.728209 
L 94.706179 240.102721 
L 94.746762 240.445138 
L 94.841457 239.815362 
L 94.882041 240.052233 
L 94.895569 240.168708 
L 94.922624 239.746612 
L 94.963208 239.877224 
L 95.220237 239.029875 
L 95.030847 239.920873 
L 95.233764 239.143585 
L 95.247292 239.333955 
L 95.287876 238.813244 
L 95.328459 239.131105 
L 95.423154 238.379349 
L 95.45021 238.731664 
L 95.653127 237.989174 
L 95.666655 238.093721 
L 95.680183 238.299937 
L 95.720767 237.799577 
L 95.76135 237.977016 
L 95.856045 237.309003 
L 95.869573 237.50155 
L 95.883101 237.71062 
L 95.937212 237.29576 
L 95.964268 237.465486 
L 96.07249 236.933315 
L 96.086018 236.960984 
L 96.099546 237.260178 
L 96.140129 236.57897 
L 96.194241 236.928819 
L 96.302464 236.456931 
L 96.315991 236.551532 
L 96.329519 236.591947 
L 96.343047 236.546838 
L 96.437742 235.961878 
L 96.397158 236.618472 
L 96.45127 236.135469 
L 96.464798 236.361405 
L 96.505381 235.894142 
L 96.545965 236.089914 
L 96.654187 235.506458 
L 96.681243 235.687543 
L 96.694771 235.85614 
L 96.735354 235.426846 
L 96.775938 235.506028 
L 96.870633 235.044163 
L 96.88416 235.133535 
L 96.911216 235.266675 
L 96.938272 234.946932 
L 96.978855 235.056371 
L 97.087078 234.501405 
L 97.100606 234.585097 
L 97.114134 234.713153 
L 97.168245 234.391723 
L 97.195301 234.508407 
L 97.45233 233.670347 
L 97.465857 233.94384 
L 97.506441 233.335173 
L 97.560552 233.660373 
L 97.668775 233.158974 
L 97.682303 233.25523 
L 97.736414 232.93352 
L 97.76347 233.33715 
L 97.88522 232.648192 
L 97.898748 232.78385 
L 97.912276 232.816059 
L 97.939332 232.633122 
L 98.020499 232.15294 
L 97.979915 232.744987 
L 98.047554 232.477978 
L 98.061082 232.482454 
L 98.155777 231.882093 
L 98.196361 232.094037 
L 98.209888 232.20363 
L 98.236944 231.802298 
L 98.277528 232.05141 
L 98.38575 231.3655 
L 98.399278 231.513583 
L 98.412806 231.733244 
L 98.453389 231.249326 
L 98.493973 231.450157 
L 98.588668 230.798739 
L 98.615724 231.086291 
L 98.669835 230.786042 
L 98.642779 231.191406 
L 98.723946 230.851234 
L 98.818641 230.420889 
L 98.832169 230.653046 
L 98.967447 230.086074 
L 98.980975 230.185508 
L 98.994503 230.375835 
L 99.035086 229.900919 
L 99.07567 230.069594 
L 99.170365 229.433123 
L 99.129781 230.079413 
L 99.19742 229.789951 
L 99.38681 228.899232 
L 99.400338 229.09522 
L 99.427394 229.290843 
L 99.467977 228.888881 
L 99.495033 229.070252 
L 99.508561 229.048832 
L 99.616783 228.589208 
L 99.630311 228.680042 
L 99.643839 228.854896 
L 99.684423 228.350778 
L 99.711478 228.557127 
L 99.819701 228.045629 
L 99.846757 228.212268 
L 99.860284 228.228858 
L 99.968507 227.667483 
L 99.995563 227.837943 
L 100.009091 227.994031 
L 100.049674 227.582919 
L 100.090258 227.661081 
L 100.184953 227.214862 
L 100.212008 227.34829 
L 100.225536 227.425706 
L 100.239064 227.003241 
L 100.293175 227.208215 
L 100.401398 226.685167 
L 100.414926 226.762521 
L 100.428454 226.885231 
L 100.469037 226.464835 
L 100.509621 226.650293 
L 100.523148 226.656341 
L 100.617843 226.214111 
L 100.631371 226.29463 
L 100.644899 226.355162 
L 100.671955 226.261809 
L 100.753122 225.696077 
L 100.780177 225.990593 
L 100.793705 226.121091 
L 100.834289 225.682479 
L 100.874872 225.861526 
L 100.983095 225.373375 
L 100.996623 225.46498 
L 101.010151 225.680607 
L 101.050734 225.112016 
L 101.091318 225.268569 
L 101.104845 225.26138 
L 101.19954 224.876377 
L 101.145429 225.271546 
L 101.213068 225.003935 
L 101.226596 225.035732 
L 101.253652 224.859966 
L 101.334819 224.488851 
L 101.294235 224.958818 
L 101.361874 224.641788 
L 101.375402 224.821549 
L 101.415986 224.377914 
L 101.456569 224.497184 
L 101.551264 224.052756 
L 101.57832 224.159253 
L 101.591848 224.250899 
L 101.632431 223.874993 
L 101.659487 224.025262 
L 101.767709 223.514937 
L 101.794765 223.701576 
L 101.808293 223.703385 
L 101.902988 223.090393 
L 101.930043 223.342682 
L 101.957099 223.44629 
L 101.970627 223.160469 
L 102.051794 222.767847 
L 102.01121 223.167528 
L 102.092377 223.007927 
L 102.105905 223.040709 
L 102.2006 222.520587 
L 102.214128 222.57572 
L 102.241184 222.701601 
L 102.281767 222.374179 
L 102.308823 222.648301 
L 102.417046 221.913995 
L 102.444101 222.175451 
L 102.471157 222.128204 
L 102.565852 221.71841 
L 102.57938 221.824208 
L 102.592907 221.87058 
L 102.619963 221.738009 
L 102.70113 221.356246 
L 102.660547 221.783994 
L 102.728186 221.47618 
L 102.741714 221.673578 
L 102.782297 221.211338 
L 102.822881 221.361201 
L 102.917576 220.934705 
L 102.944631 220.998956 
L 102.958159 221.10259 
L 102.998743 220.726554 
L 103.025798 220.87096 
L 103.215188 220.190337 
L 103.255771 220.429665 
L 103.269299 219.999952 
L 103.323411 220.32414 
L 103.418105 219.656911 
L 103.445161 219.889286 
L 103.458689 219.871954 
L 103.472217 219.935227 
L 103.566912 219.405517 
L 103.593967 219.557316 
L 103.607495 219.569559 
L 103.715718 219.062516 
L 103.729246 219.134371 
L 103.742774 219.250912 
L 103.783357 218.851791 
L 103.823941 219.028756 
L 103.837468 219.028933 
L 103.932163 218.602404 
L 103.945691 218.673561 
L 103.959219 218.732981 
L 103.986275 218.646968 
L 104.067442 218.271818 
L 104.094497 218.341475 
L 104.108025 218.549568 
L 104.148609 218.085512 
L 104.189192 218.252413 
L 104.297415 217.784004 
L 104.310943 217.86781 
L 104.32447 217.980358 
L 104.365054 217.618875 
L 104.39211 217.745163 
L 104.581499 217.05782 
L 104.608555 217.249673 
L 104.622083 217.360599 
L 104.635611 216.944999 
L 104.689722 217.226829 
L 104.784417 216.594492 
L 104.825 216.763607 
L 104.838528 216.855438 
L 104.852056 216.411638 
L 104.906167 216.588524 
L 104.919695 216.602949 
L 105.01439 216.085207 
L 105.027918 216.214541 
L 105.041446 216.401515 
L 105.082029 215.971705 
L 105.122613 216.147584 
L 105.217308 215.584783 
L 105.257891 215.782872 
L 105.271419 215.889823 
L 105.298475 215.52829 
L 105.339058 215.622379 
L 105.663726 214.683419 
L 105.677254 214.763374 
L 105.690782 214.991152 
L 105.731365 214.412203 
L 105.771949 214.633498 
L 105.785477 214.61345 
L 105.880172 214.216754 
L 105.8937 214.312679 
L 105.907227 214.358808 
L 105.934283 214.235867 
L 106.028978 213.893517 
L 105.988394 214.315913 
L 106.042506 213.975362 
L 106.056034 214.153781 
L 106.096617 213.721678 
L 106.137201 213.864034 
L 106.218368 213.401378 
L 106.245423 213.40903 
L 106.258951 213.649088 
L 106.313062 213.259921 
L 106.340118 213.388503 
L 106.51598 212.742458 
L 106.529508 212.790831 
L 106.543036 212.966239 
L 106.583619 212.5699 
L 106.637731 212.845172 
L 106.732425 212.218295 
L 106.759481 212.422941 
L 106.773009 212.463627 
L 106.800065 212.221055 
L 106.881232 211.966572 
L 106.840648 212.374109 
L 106.908287 212.104491 
L 106.921815 212.115801 
L 107.030038 211.627973 
L 107.043566 211.693826 
L 107.057093 211.934799 
L 107.097677 211.343131 
L 107.13826 211.606889 
L 107.151788 211.583927 
L 107.246483 211.177986 
L 107.273539 211.300478 
L 107.747013 209.95589 
L 107.760541 210.090491 
L 107.774069 210.25461 
L 107.82818 209.902534 
L 107.855236 210.044127 
L 108.098737 209.232498 
L 108.125793 209.359848 
L 108.13932 209.444898 
L 108.179904 208.998396 
L 108.20696 209.32356 
L 108.32871 208.724702 
L 108.342238 208.845825 
L 108.355766 209.018417 
L 108.396349 208.615024 
L 108.436933 208.727896 
L 108.450461 208.733616 
L 108.531628 208.260686 
L 108.558683 208.422691 
L 108.585739 208.521919 
L 108.680434 207.918106 
L 108.707489 208.075708 
L 108.721017 208.286952 
L 108.761601 207.774033 
L 108.802184 207.920318 
L 109.262131 206.790578 
L 109.289186 206.866653 
L 109.302714 206.883097 
L 109.410937 206.41805 
L 109.424465 206.488289 
L 109.437993 206.573561 
L 109.465048 206.280421 
L 109.51916 206.484115 
L 109.627382 205.967022 
L 109.64091 206.049264 
L 109.654438 206.086751 
L 109.681494 205.977793 
L 109.762661 205.647929 
L 109.722077 206.00821 
L 109.803244 205.749881 
L 109.816772 205.770515 
L 109.897939 205.319382 
L 109.938523 205.430803 
L 109.95205 205.551969 
L 109.992634 205.198082 
L 110.01969 205.30407 
L 110.479636 204.007249 
L 110.52022 204.194116 
L 110.533747 204.258042 
L 110.560803 203.937467 
L 110.601387 204.108226 
L 110.709609 203.582018 
L 110.723137 203.684001 
L 110.736665 203.853444 
L 110.777248 203.447517 
L 110.817832 203.593648 
L 110.926055 203.132828 
L 110.939582 203.343941 
L 111.061333 202.752925 
L 111.101917 202.947617 
L 111.115444 202.952565 
L 111.196611 202.421132 
L 111.237195 202.668771 
L 111.250723 202.6566 
L 111.358945 202.228199 
L 111.372473 202.299139 
L 111.386001 202.360706 
L 111.413057 202.050727 
L 111.45364 202.240149 
L 111.64303 201.544293 
L 111.656558 201.657849 
L 111.670086 201.817221 
L 111.710669 201.336334 
L 111.751253 201.60076 
L 111.845948 201.102259 
L 111.886531 201.24713 
L 111.900059 201.337137 
L 111.927115 201.015103 
L 111.967698 201.201161 
L 112.075921 200.619838 
L 112.089449 200.734988 
L 112.102976 200.903675 
L 112.14356 200.517789 
L 112.184143 200.661672 
L 112.292366 200.191023 
L 112.319422 200.319744 
L 112.33295 200.422129 
L 112.360005 200.102166 
L 112.400589 200.164118 
L 112.414117 200.134055 
L 112.508812 199.765078 
L 112.535867 199.86946 
L 112.549395 199.916995 
L 112.657618 199.45217 
L 112.671146 199.530976 
L 112.684673 199.680213 
L 112.725257 199.294343 
L 112.76584 199.419474 
L 112.860535 198.889052 
L 112.887591 199.165948 
L 113.076981 198.408788 
L 113.090508 198.561041 
L 113.117564 198.716142 
L 113.158148 198.380223 
L 113.185203 198.517328 
L 113.198731 198.498997 
L 113.306954 198.10206 
L 113.320482 198.169402 
L 113.33401 198.20488 
L 113.347537 198.167467 
L 113.442232 197.691843 
L 113.401649 198.192575 
L 113.45576 197.817532 
L 113.469288 197.975167 
L 113.509871 197.632059 
L 113.550455 197.754956 
L 113.658678 197.287485 
L 113.685733 197.409529 
L 113.699261 197.536338 
L 113.739845 197.193025 
L 113.780428 197.252756 
L 113.875123 196.876262 
L 113.902179 196.967077 
L 113.915706 197.027714 
L 113.929234 196.703343 
L 113.983346 196.835859 
L 114.091568 196.398343 
L 114.118624 196.545163 
L 114.132152 196.534316 
L 114.226847 196.008814 
L 114.253902 196.244035 
L 114.605626 195.38023 
L 114.280958 196.278783 
L 114.619154 195.436955 
L 114.632682 195.562727 
L 114.673265 195.206489 
L 114.713849 195.302856 
L 114.808544 194.807307 
L 114.835599 195.074921 
L 115.024989 194.424158 
L 115.065573 194.671562 
L 115.106156 194.307112 
L 115.133212 194.421174 
L 115.14674 194.396252 
L 115.241434 194.025978 
L 115.26849 194.097527 
L 115.282018 194.197805 
L 115.322601 193.847949 
L 115.349657 193.973569 
L 115.45788 193.54285 
L 115.484936 193.672759 
L 115.498463 193.674077 
L 115.593158 193.178606 
L 115.633742 193.338921 
L 115.64727 193.437739 
L 115.674325 193.132071 
L 115.714909 193.194389 
L 116.391301 191.601267 
L 116.418356 191.675659 
L 116.431884 191.829696 
L 116.472468 191.456011 
L 116.513051 191.56532 
L 116.621274 191.180763 
L 116.634802 191.244277 
L 116.648329 191.378636 
L 116.688913 190.97491 
L 116.715969 191.12885 
L 116.905358 190.533803 
L 116.945942 190.727417 
L 116.95947 190.388516 
L 117.013581 190.618015 
L 117.108276 190.076918 
L 117.148859 190.22285 
L 117.162387 190.276285 
L 117.189443 189.989148 
L 117.230026 190.127854 
L 117.338249 189.647423 
L 117.351777 189.738264 
L 117.365305 189.880904 
L 117.405888 189.523245 
L 117.446472 189.649062 
L 117.541167 189.163928 
L 117.58175 189.328782 
L 117.595278 189.395859 
L 117.622334 189.108089 
L 117.649389 189.192792 
L 119.286258 185.713184 
L 119.299785 185.78658 
L 119.313313 185.913044 
L 119.353897 185.569261 
L 119.380952 185.802039 
L 119.489175 185.21438 
L 119.516231 185.417971 
L 119.719148 184.845906 
L 119.732676 184.911205 
L 119.746204 185.047465 
L 119.786787 184.701482 
L 119.827371 184.803236 
L 119.935594 184.445805 
L 119.949122 184.488977 
L 119.962649 184.562193 
L 120.003233 184.277305 
L 120.030289 184.368769 
L 120.20615 183.836173 
L 120.219678 183.862273 
L 120.233206 183.979373 
L 120.27379 183.685136 
L 120.327901 183.87272 
L 120.422596 183.368236 
L 120.463179 183.494455 
L 120.476707 183.543265 
L 120.490235 183.207996 
L 120.530818 183.447803 
L 120.652569 182.938499 
L 120.666097 183.023178 
L 120.679625 183.152973 
L 120.720208 182.818406 
L 120.760792 182.888626 
L 120.77432 182.884568 
L 120.855487 182.487412 
L 120.89607 182.623263 
L 120.909598 182.682829 
L 120.936654 182.412152 
L 120.963709 182.489047 
L 120.990765 182.42979 
L 121.08546 182.100893 
L 121.098988 182.157739 
L 121.112515 182.302621 
L 121.153099 181.957924 
L 121.193682 182.066127 
L 121.301905 181.667517 
L 121.315433 181.736708 
L 121.328961 181.814985 
L 121.369544 181.547676 
L 121.3966 181.620218 
L 122.952301 178.345038 
L 122.979357 178.471733 
L 122.992885 178.588321 
L 123.033468 178.250761 
L 123.060524 178.438565 
L 123.155219 178.008066 
L 123.195802 178.050596 
L 123.20933 178.136979 
L 123.249914 177.830924 
L 123.290497 177.953308 
L 123.385192 177.492214 
L 123.412248 177.702309 
L 123.58811 177.143168 
L 123.615165 177.17265 
L 123.642221 177.294428 
L 123.669277 177.043536 
L 123.89925 176.580212 
L 123.70986 177.084919 
L 123.912778 176.656732 
L 123.926305 176.665222 
L 123.939833 176.549283 
L 124.021 176.424979 
L 124.115695 176.163207 
L 124.142751 176.232455 
L 124.305085 175.895577 
L 124.39978 175.551932 
L 124.359196 175.920506 
L 124.413308 175.629685 
L 124.426835 175.754711 
L 124.467419 175.439531 
L 124.508002 175.538027 
L 124.616225 175.149968 
L 124.643281 175.237475 
L 124.656809 175.301338 
L 124.683864 175.049373 
L 124.71092 175.105796 
L 125.170866 174.186171 
L 125.265561 173.919753 
L 125.292617 174.001191 
L 125.482007 173.497117 
L 125.509062 173.585484 
L 125.536118 173.343193 
L 125.563174 173.41615 
L 125.590229 173.496754 
L 125.603757 173.323489 
L 125.766091 172.885888 
L 125.793147 173.093626 
L 125.83373 172.80201 
L 125.874314 172.891996 
L 125.982537 172.502069 
L 126.009592 172.589069 
L 126.02312 172.671684 
L 126.063704 172.413151 
L 126.090759 172.45478 
L 130.243805 164.513824 
L 130.257333 164.543923 
L 130.270861 164.621976 
L 130.311444 164.361448 
L 130.3385 164.511743 
L 130.446723 164.032302 
L 130.473778 164.20895 
L 130.663168 163.670052 
L 130.703751 163.826315 
L 130.744335 163.5613 
L 130.757863 163.598748 
L 130.771391 163.626032 
L 130.784918 163.601757 
L 130.879613 163.303903 
L 130.906669 163.345455 
L 130.920197 163.387015 
L 130.96078 163.158831 
L 130.974308 163.220364 
L 130.987836 163.224121 
L 131.014892 163.12232 
L 131.055475 163.154012 
L 131.163698 162.728654 
L 131.190754 162.891092 
L 131.231337 162.580337 
L 131.258393 162.687366 
L 131.285448 162.730058 
L 131.366615 162.506938 
L 131.447782 162.14969 
L 131.488366 162.353158 
L 131.610116 161.958082 
L 131.623644 162.002077 
L 131.637172 162.088529 
L 131.677756 161.821067 
L 131.704811 161.982518 
L 131.813034 161.505181 
L 131.84009 161.660341 
L 132.029479 161.156671 
L 132.056535 161.204325 
L 132.070063 161.301915 
L 132.110646 161.02913 
L 132.15123 161.08545 
L 132.259453 160.799305 
L 132.27298 160.816726 
L 132.286508 160.864221 
L 132.327092 160.638 
L 132.354147 160.698876 
L 132.543537 160.218508 
L 132.584121 160.324146 
L 132.597649 160.08677 
L 132.65176 160.225508 
L 132.746455 159.812334 
L 132.787038 159.90095 
L 132.800566 159.927567 
L 132.895261 159.587073 
L 132.922317 159.649815 
L 132.935844 159.648703 
L 133.044067 159.312237 
L 133.057595 159.341428 
L 133.071123 159.472784 
L 133.111706 159.11091 
L 133.15229 159.236693 
L 133.314624 158.925954 
L 133.409319 158.66795 
L 133.422847 158.697127 
L 133.436374 158.798672 
L 133.476958 158.528025 
L 133.517541 158.592044 
L 133.625764 158.274839 
L 133.639292 158.312527 
L 133.65282 158.363955 
L 133.693403 158.147929 
L 133.720459 158.197698 
L 133.96396 157.6279 
L 134.004544 157.661339 
L 134.018071 157.740291 
L 134.058655 157.493728 
L 134.085711 157.5546 
L 140.754934 145.661762 
L 140.768462 145.695195 
L 140.78199 145.799168 
L 140.822573 145.510638 
L 140.863157 145.584735 
L 140.876684 145.590251 
L 140.971379 145.279364 
L 141.011963 145.330118 
L 141.553076 144.312097 
L 141.566604 144.348547 
L 141.580132 144.409513 
L 141.620715 144.186155 
L 141.661299 144.27702 
L 141.755994 143.925676 
L 141.796577 143.987367 
L 141.810105 143.999908 
L 141.823633 143.878749 
L 141.985967 143.575714 
L 141.850689 143.898814 
L 141.999495 143.609588 
L 142.013023 143.675081 
L 142.053606 143.459352 
L 142.080662 143.514131 
L 142.175357 143.338779 
L 142.270052 143.10244 
L 142.297107 143.135869 
L 142.567664 142.622334 
L 142.581192 142.636041 
L 142.59472 142.684716 
L 142.635303 142.487942 
L 142.662359 142.580577 
L 142.770582 142.203534 
L 142.797637 142.318036 
L 142.987027 141.864201 
L 143.000555 141.917244 
L 143.230528 141.542547 
L 143.02761 141.957219 
L 143.244056 141.56515 
L 143.352278 141.245205 
L 143.365806 141.28525 
L 143.379334 141.350479 
L 143.419918 141.144012 
L 143.446973 141.193296 
L 143.541668 141.045102 
L 143.636363 140.796284 
L 143.663419 140.815857 
L 143.704002 140.631106 
L 143.758114 140.687642 
L 143.852808 140.417168 
L 143.879864 140.463445 
L 143.988087 140.233462 
L 144.136893 139.896989 
L 144.150421 139.946973 
L 144.163949 139.997556 
L 144.21806 139.818671 
L 144.231588 139.847049 
L 144.245116 139.852735 
L 144.272171 139.780958 
L 144.40745 139.55377 
L 144.650951 139.094678 
L 144.664479 139.124324 
L 144.705062 139.059057 
L 144.84034 138.808987 
L 145.422037 137.823318 
L 145.462621 137.861521 
L 145.584371 137.542783 
L 145.611427 137.567699 
L 145.638483 137.513703 
L 145.773761 137.286432 
L 146.166068 136.58445 
L 146.179596 136.615165 
L 146.22018 136.534896 
L 146.368986 136.268241 
L 146.598959 135.874152 
L 146.626015 135.900382 
L 146.653071 135.823514 
L 146.801877 135.506529 
L 146.828932 135.587597 
L 146.855988 135.524755 
L 146.964211 135.291785 
L 146.977739 135.305005 
L 147.085961 135.074995 
L 147.248295 134.802752 
L 147.126545 135.116613 
L 147.261823 134.825016 
L 147.275351 134.871644 
L 147.315935 134.686001 
L 147.34299 134.772016 
L 147.451213 134.426156 
L 147.491796 134.470494 
L 147.505324 134.475545 
L 147.518852 134.370778 
L 147.84352 133.88697 
L 147.857048 133.917829 
L 147.897631 133.760303 
L 147.911159 133.76886 
L 147.924687 133.791873 
L 147.951743 133.669474 
L 148.181716 133.289571 
L 148.195244 133.334492 
L 148.235827 133.169861 
L 148.262883 133.178335 
L 148.316994 133.074404 
L 149.196304 131.649652 
L 149.209832 131.663903 
L 149.223359 131.700457 
L 149.263943 131.525714 
L 149.290999 131.570551 
L 149.480388 131.183919 
L 149.507444 131.20791 
L 149.5345 131.090516 
L 149.561555 131.104197 
L 149.737417 130.839592 
L 149.84564 130.603485 
L 149.872696 130.611851 
L 149.940335 130.510193 
L 150.116197 130.101695 
L 150.143252 130.15345 
L 150.170308 130.143862 
L 150.278531 129.918522 
L 150.305586 129.92326 
L 151.15784 128.547766 
L 151.171368 128.574505 
L 151.211951 128.412638 
L 151.225479 128.471976 
L 151.428397 128.075694 
L 151.455452 128.084695 
L 151.46898 128.081812 
L 151.577203 127.856059 
L 151.590731 127.859182 
L 151.604259 127.889719 
L 151.644842 127.734492 
L 151.65837 127.745745 
L 151.685426 127.727241 
L 151.780121 127.480809 
L 151.820704 127.504208 
L 151.915399 127.334466 
L 152.077733 127.051237 
L 152.118316 127.042467 
L 152.226539 126.831398 
L 152.240067 126.838951 
L 152.253595 126.855702 
L 152.28065 126.747294 
L 152.510624 126.365964 
L 152.524152 126.379595 
L 152.537679 126.41067 
L 152.578263 126.247053 
L 152.591791 126.2978 
L 152.943514 125.687936 
L 152.97057 125.732888 
L 152.997626 125.621868 
L 153.146432 125.325707 
L 153.187016 125.352998 
L 153.214071 125.266344 
L 153.66049 124.559206 
L 153.674018 124.568723 
L 153.687545 124.620341 
L 153.728129 124.428992 
L 153.755185 124.492625 
L 153.944574 124.107228 
L 153.97163 124.120856 
L 153.985158 124.146621 
L 154.025741 124.005596 
L 154.039269 124.011694 
L 154.133964 123.901572 
L 154.296298 123.601935 
L 154.458632 123.332464 
L 154.47216 123.360889 
L 154.512743 123.19959 
L 154.539799 123.247801 
L 155.243247 122.091369 
L 155.256774 122.110249 
L 155.270302 122.141296 
L 155.310886 121.993752 
L 155.324414 122.012239 
L 155.554387 121.672476 
L 155.567915 121.690125 
L 155.716721 121.426914 
L 157.28595 119.02248 
L 157.299478 119.043444 
L 157.340061 118.912631 
L 157.380645 118.892701 
L 157.515923 118.681855 
L 157.745896 118.307884 
L 157.921758 118.044685 
L 157.962342 118.004725 
L 158.111148 117.775914 
L 158.273482 117.495018 
L 158.327593 117.449064 
L 158.4764 117.195924 
L 159.233958 116.088962 
L 159.247486 116.101039 
L 159.274542 116.001508 
L 160.113268 114.790481 
L 160.28913 114.488073 
L 160.41088 114.348459 
L 160.586742 114.05343 
L 160.694965 113.925024 
L 160.857299 113.64622 
L 162.426528 111.382817 
L 162.548278 111.189256 
L 162.561806 111.197493 
L 162.737668 110.869027 
L 162.751196 110.878644 
L 162.764724 110.892427 
L 162.805307 110.789398 
L 163.373476 109.989469 
L 163.562866 109.717389 
L 163.630505 109.618662 
L 164.306897 108.64603 
L 164.455703 108.397901 
L 164.604509 108.206699 
L 164.820955 107.894002 
L 165.050928 107.554841 
L 165.159151 107.432525 
L 165.335013 107.141508 
L 165.456763 106.999844 
L 165.619097 106.725494 
L 165.72732 106.623979 
L 165.997877 106.209206 
L 166.011404 106.224062 
L 166.051988 106.107947 
L 166.119627 106.031093 
L 167.580633 103.971395 
L 167.675328 103.865151 
L 167.972941 103.433873 
L 169.501586 101.305226 
L 169.718032 100.992957 
L 170.232089 100.289925 
L 170.678508 99.672105 
L 170.800258 99.510755 
L 171.422539 98.663632 
L 173.9793 95.202794 
L 178.60582 89.394181 
L 179.728631 89.391428 
L 180.202105 89.39277 
L 180.716163 89.390785 
L 181.149053 89.390776 
L 186.438437 89.392613 
L 186.993079 89.389855 
L 187.628887 89.391798 
L 188.575836 89.390001 
L 189.346922 89.394684 
L 189.915091 89.389758 
L 190.402093 89.391267 
L 192.647714 89.39204 
L 193.215883 89.393379 
L 193.635246 89.39136 
L 194.108721 89.392831 
L 194.609251 89.391129 
L 198.234711 89.390508 
L 198.654074 89.394478 
L 199.11402 89.390803 
L 205.688549 89.393099 
L 206.148495 89.389776 
L 206.621969 89.394487 
L 207.081916 89.390825 
L 215.239201 89.39337 
L 215.658564 89.39137 
L 216.132038 89.392821 
L 216.646096 89.390735 
L 217.078987 89.390829 
L 225.533885 89.393198 
L 225.993831 89.389761 
L 226.480833 89.391223 
L 229.024066 89.392285 
L 229.646347 89.391797 
L 230.593295 89.390001 
L 231.364382 89.394684 
L 231.932551 89.389758 
L 232.419553 89.391266 
L 234.665174 89.392041 
L 235.233343 89.393378 
L 235.652706 89.391361 
L 236.12618 89.39283 
L 236.62671 89.391128 
L 240.306282 89.391797 
L 240.833867 89.390993 
L 250.993273 89.390936 
L 251.453219 89.394506 
L 252.670724 89.389866 
L 253.130671 89.393581 
L 255.078679 89.39347 
L 255.498042 89.391255 
L 255.971516 89.392934 
L 256.444991 89.39319 
L 257.554273 89.393194 
L 258.01422 89.389762 
L 258.501222 89.391218 
L 261.085039 89.389986 
L 261.517929 89.391895 
L 262.370183 89.389804 
L 262.843657 89.394434 
L 263.303604 89.3907 
L 266.753202 89.394459 
L 267.213148 89.390757 
L 271.907308 89.392979 
L 272.380782 89.393148 
L 273.435953 89.394243 
L 273.855316 89.390301 
L 274.274679 89.394571 
L 274.748153 89.390782 
L 275.181044 89.390779 
L 280.619234 89.392516 
L 281.187403 89.392381 
L 281.850267 89.394082 
L 282.26963 89.39051 
L 282.688993 89.394478 
L 283.14894 89.390801 
L 289.574662 89.393189 
L 290.034608 89.389762 
L 290.521611 89.391213 
L 293.159539 89.391029 
L 293.619485 89.39454 
L 294.701712 89.393333 
L 296.000384 89.39462 
L 296.514442 89.390047 
L 297.33964 89.394281 
L 297.772531 89.393896 
L 304.522921 89.392587 
L 305.077562 89.389845 
L 305.699843 89.394659 
L 306.227429 89.391726 
L 306.741486 89.394466 
L 307.201433 89.390774 
L 312.436705 89.39382 
L 312.856068 89.390838 
L 313.288959 89.390721 
L 317.090281 89.393477 
L 317.509644 89.391247 
L 317.983118 89.392942 
L 318.456593 89.393183 
L 319.565875 89.393201 
L 320.025822 89.389761 
L 320.512824 89.391226 
L 323.056057 89.392282 
L 323.678338 89.3918 
L 324.625286 89.390002 
L 325.396373 89.394685 
L 325.964542 89.389758 
L 326.451544 89.391269 
L 328.697165 89.392039 
L 329.265334 89.39338 
L 329.684697 89.391358 
L 330.158171 89.392833 
L 330.658701 89.391131 
L 334.243578 89.39305 
L 335.204054 89.393417 
L 335.623417 89.391316 
L 336.096891 89.392874 
L 336.597421 89.391174 
L 339.587073 89.392631 
L 340.304048 89.39274 
L 340.818106 89.390809 
L 341.250997 89.390751 
L 345.79635 89.393066 
L 346.256296 89.389782 
L 346.729771 89.394473 
L 347.189717 89.390791 
L 353.169021 89.393441 
L 353.588384 89.391289 
L 354.061858 89.392901 
L 354.535332 89.393222 
L 355.685198 89.394663 
L 356.212784 89.391704 
L 356.726842 89.394475 
L 357.186788 89.390795 
L 363.314898 89.393359 
L 363.734261 89.391382 
L 364.207735 89.392809 
L 364.721793 89.390746 
L 365.154684 89.390817 
L 372.62205 89.392538 
L 373.190219 89.392359 
L 373.853083 89.394096 
L 374.272446 89.390492 
L 374.691809 89.394486 
L 375.151755 89.390822 
L 383.011428 89.393535 
L 383.430791 89.391179 
L 383.904265 89.393008 
L 384.377739 89.39312 
L 385.392327 89.392015 
L 386.163414 89.394055 
L 398.487273 89.394185 
L 398.487273 89.394185 
" style="fill:none;stroke:#d62728;stroke-linecap:square;stroke-width:1.5;"/>
   </g>
   <g id="line2d_20">
    <path clip-path="url(#p7c499dd65d)" d="M 73.832727 91.320915 
L 398.487273 91.320915 
L 398.487273 91.320915 
" style="fill:none;stroke:#9467bd;stroke-linecap:square;stroke-width:1.5;"/>
   </g>
   <g id="patch_3">
    <path d="M 57.6 307.584 
L 57.6 41.472 
" style="fill:none;stroke:#000000;stroke-linecap:square;stroke-linejoin:miter;stroke-width:0.8;"/>
   </g>
   <g id="patch_4">
    <path d="M 414.72 307.584 
L 414.72 41.472 
" style="fill:none;stroke:#000000;stroke-linecap:square;stroke-linejoin:miter;stroke-width:0.8;"/>
   </g>
   <g id="patch_5">
    <path d="M 57.6 307.584 
L 414.72 307.584 
" style="fill:none;stroke:#000000;stroke-linecap:square;stroke-linejoin:miter;stroke-width:0.8;"/>
   </g>
   <g id="patch_6">
    <path d="M 57.6 41.472 
L 414.72 41.472 
" style="fill:none;stroke:#000000;stroke-linecap:square;stroke-linejoin:miter;stroke-width:0.8;"/>
   </g>
   <g id="legend_1">
    <g id="patch_7">
     <path d="M 356.516875 302.584 
L 407.72 302.584 
Q 409.72 302.584 409.72 300.584 
L 409.72 228.193375 
Q 409.72 226.193375 407.72 226.193375 
L 356.516875 226.193375 
Q 354.516875 226.193375 354.516875 228.193375 
L 354.516875 300.584 
Q 354.516875 302.584 356.516875 302.584 
z
" style="fill:#ffffff;opacity:0.8;stroke:#cccccc;stroke-linejoin:miter;"/>
    </g>
    <g id="line2d_21">
     <path d="M 358.516875 234.291812 
L 378.516875 234.291812 
" style="fill:none;stroke:#1f77b4;stroke-linecap:square;stroke-width:1.5;"/>
    </g>
    <g id="line2d_22"/>
    <g id="text_19">
     <!-- T+ -->
     <g transform="translate(386.516875 237.791812)scale(0.1 -0.1)">
      <defs>
       <path d="M 46 62.703125 
L 46 35.5 
L 73.1875 35.5 
L 73.1875 27.203125 
L 46 27.203125 
L 46 0 
L 37.796875 0 
L 37.796875 27.203125 
L 10.59375 27.203125 
L 10.59375 35.5 
L 37.796875 35.5 
L 37.796875 62.703125 
z
" id="DejaVuSans-43"/>
      </defs>
      <use xlink:href="#DejaVuSans-84"/>
      <use x="61.083984" xlink:href="#DejaVuSans-43"/>
     </g>
    </g>
    <g id="line2d_23">
     <path d="M 358.516875 248.969937 
L 378.516875 248.969937 
" style="fill:none;stroke:#ff7f0e;stroke-linecap:square;stroke-width:1.5;"/>
    </g>
    <g id="line2d_24"/>
    <g id="text_20">
     <!-- Tp -->
     <g transform="translate(386.516875 252.469937)scale(0.1 -0.1)">
      <defs>
       <path d="M 18.109375 8.203125 
L 18.109375 -20.796875 
L 9.078125 -20.796875 
L 9.078125 54.6875 
L 18.109375 54.6875 
L 18.109375 46.390625 
Q 20.953125 51.265625 25.265625 53.625 
Q 29.59375 56 35.59375 56 
Q 45.5625 56 51.78125 48.09375 
Q 58.015625 40.1875 58.015625 27.296875 
Q 58.015625 14.40625 51.78125 6.484375 
Q 45.5625 -1.421875 35.59375 -1.421875 
Q 29.59375 -1.421875 25.265625 0.953125 
Q 20.953125 3.328125 18.109375 8.203125 
z
M 48.6875 27.296875 
Q 48.6875 37.203125 44.609375 42.84375 
Q 40.53125 48.484375 33.40625 48.484375 
Q 26.265625 48.484375 22.1875 42.84375 
Q 18.109375 37.203125 18.109375 27.296875 
Q 18.109375 17.390625 22.1875 11.75 
Q 26.265625 6.109375 33.40625 6.109375 
Q 40.53125 6.109375 44.609375 11.75 
Q 48.6875 17.390625 48.6875 27.296875 
z
" id="DejaVuSans-112"/>
      </defs>
      <use xlink:href="#DejaVuSans-84"/>
      <use x="61.083984" xlink:href="#DejaVuSans-112"/>
     </g>
    </g>
    <g id="line2d_25">
     <path d="M 358.516875 263.648062 
L 378.516875 263.648062 
" style="fill:none;stroke:#2ca02c;stroke-linecap:square;stroke-width:1.5;"/>
    </g>
    <g id="line2d_26"/>
    <g id="text_21">
     <!-- T- -->
     <g transform="translate(386.516875 267.148062)scale(0.1 -0.1)">
      <defs>
       <path d="M 4.890625 31.390625 
L 31.203125 31.390625 
L 31.203125 23.390625 
L 4.890625 23.390625 
z
" id="DejaVuSans-45"/>
      </defs>
      <use xlink:href="#DejaVuSans-84"/>
      <use x="51.958984" xlink:href="#DejaVuSans-45"/>
     </g>
    </g>
    <g id="line2d_27">
     <path d="M 358.516875 278.326188 
L 378.516875 278.326188 
" style="fill:none;stroke:#d62728;stroke-linecap:square;stroke-width:1.5;"/>
    </g>
    <g id="line2d_28"/>
    <g id="text_22">
     <!-- O2 -->
     <g transform="translate(386.516875 281.826188)scale(0.1 -0.1)">
      <defs>
       <path d="M 39.40625 66.21875 
Q 28.65625 66.21875 22.328125 58.203125 
Q 16.015625 50.203125 16.015625 36.375 
Q 16.015625 22.609375 22.328125 14.59375 
Q 28.65625 6.59375 39.40625 6.59375 
Q 50.140625 6.59375 56.421875 14.59375 
Q 62.703125 22.609375 62.703125 36.375 
Q 62.703125 50.203125 56.421875 58.203125 
Q 50.140625 66.21875 39.40625 66.21875 
z
M 39.40625 74.21875 
Q 54.734375 74.21875 63.90625 63.9375 
Q 73.09375 53.65625 73.09375 36.375 
Q 73.09375 19.140625 63.90625 8.859375 
Q 54.734375 -1.421875 39.40625 -1.421875 
Q 24.03125 -1.421875 14.8125 8.828125 
Q 5.609375 19.09375 5.609375 36.375 
Q 5.609375 53.65625 14.8125 63.9375 
Q 24.03125 74.21875 39.40625 74.21875 
z
" id="DejaVuSans-79"/>
      </defs>
      <use xlink:href="#DejaVuSans-79"/>
      <use x="78.710938" xlink:href="#DejaVuSans-50"/>
     </g>
    </g>
    <g id="line2d_29">
     <path d="M 358.516875 293.004312 
L 378.516875 293.004312 
" style="fill:none;stroke:#9467bd;stroke-linecap:square;stroke-width:1.5;"/>
    </g>
    <g id="line2d_30"/>
    <g id="text_23">
     <!-- test -->
     <g transform="translate(386.516875 296.504312)scale(0.1 -0.1)">
      <use xlink:href="#DejaVuSans-116"/>
      <use x="39.208984" xlink:href="#DejaVuSans-101"/>
      <use x="100.732422" xlink:href="#DejaVuSans-115"/>
      <use x="152.832031" xlink:href="#DejaVuSans-116"/>
     </g>
    </g>
   </g>
  </g>
 </g>
 <defs>
  <clipPath id="p7c499dd65d">
   <rect height="266.112" width="357.12" x="57.6" y="41.472"/>
  </clipPath>
 </defs>
</svg>
