<?xml version="1.0" encoding="utf-8" standalone="no"?>
<!DOCTYPE svg PUBLIC "-//W3C//DTD SVG 1.1//EN"
  "http://www.w3.org/Graphics/SVG/1.1/DTD/svg11.dtd">
<!-- Created with matplotlib (https://matplotlib.org/) -->
<svg height="345.6pt" version="1.1" viewBox="0 0 460.8 345.6" width="460.8pt" xmlns="http://www.w3.org/2000/svg" xmlns:xlink="http://www.w3.org/1999/xlink">
 <metadata>
  <rdf:RDF xmlns:cc="http://creativecommons.org/ns#" xmlns:dc="http://purl.org/dc/elements/1.1/" xmlns:rdf="http://www.w3.org/1999/02/22-rdf-syntax-ns#">
   <cc:Work>
    <dc:type rdf:resource="http://purl.org/dc/dcmitype/StillImage"/>
    <dc:date>2020-10-24T13:53:07.327693</dc:date>
    <dc:format>image/svg+xml</dc:format>
    <dc:creator>
     <cc:Agent>
      <dc:title>Matplotlib v3.3.2, https://matplotlib.org/</dc:title>
     </cc:Agent>
    </dc:creator>
   </cc:Work>
  </rdf:RDF>
 </metadata>
 <defs>
  <style type="text/css">*{stroke-linecap:butt;stroke-linejoin:round;}</style>
 </defs>
 <g id="figure_1">
  <g id="patch_1">
   <path d="M 0 345.6 
L 460.8 345.6 
L 460.8 0 
L 0 0 
z
" style="fill:#ffffff;"/>
  </g>
  <g id="axes_1">
   <g id="patch_2">
    <path d="M 57.6 307.584 
L 414.72 307.584 
L 414.72 41.472 
L 57.6 41.472 
z
" style="fill:#ffffff;"/>
   </g>
   <g id="matplotlib.axis_1">
    <g id="xtick_1">
     <g id="line2d_1">
      <defs>
       <path d="M 0 0 
L 0 3.5 
" id="me7fec7b30b" style="stroke:#000000;stroke-width:0.8;"/>
      </defs>
      <g>
       <use style="stroke:#000000;stroke-width:0.8;" x="73.832727" xlink:href="#me7fec7b30b" y="307.584"/>
      </g>
     </g>
     <g id="text_1">
      <!-- 0.0 -->
      <g transform="translate(65.881165 322.182437)scale(0.1 -0.1)">
       <defs>
        <path d="M 31.78125 66.40625 
Q 24.171875 66.40625 20.328125 58.90625 
Q 16.5 51.421875 16.5 36.375 
Q 16.5 21.390625 20.328125 13.890625 
Q 24.171875 6.390625 31.78125 6.390625 
Q 39.453125 6.390625 43.28125 13.890625 
Q 47.125 21.390625 47.125 36.375 
Q 47.125 51.421875 43.28125 58.90625 
Q 39.453125 66.40625 31.78125 66.40625 
z
M 31.78125 74.21875 
Q 44.046875 74.21875 50.515625 64.515625 
Q 56.984375 54.828125 56.984375 36.375 
Q 56.984375 17.96875 50.515625 8.265625 
Q 44.046875 -1.421875 31.78125 -1.421875 
Q 19.53125 -1.421875 13.0625 8.265625 
Q 6.59375 17.96875 6.59375 36.375 
Q 6.59375 54.828125 13.0625 64.515625 
Q 19.53125 74.21875 31.78125 74.21875 
z
" id="DejaVuSans-48"/>
        <path d="M 10.6875 12.40625 
L 21 12.40625 
L 21 0 
L 10.6875 0 
z
" id="DejaVuSans-46"/>
       </defs>
       <use xlink:href="#DejaVuSans-48"/>
       <use x="63.623047" xlink:href="#DejaVuSans-46"/>
       <use x="95.410156" xlink:href="#DejaVuSans-48"/>
      </g>
     </g>
    </g>
    <g id="xtick_2">
     <g id="line2d_2">
      <g>
       <use style="stroke:#000000;stroke-width:0.8;" x="118.925515" xlink:href="#me7fec7b30b" y="307.584"/>
      </g>
     </g>
     <g id="text_2">
      <!-- 0.2 -->
      <g transform="translate(110.973953 322.182437)scale(0.1 -0.1)">
       <defs>
        <path d="M 19.1875 8.296875 
L 53.609375 8.296875 
L 53.609375 0 
L 7.328125 0 
L 7.328125 8.296875 
Q 12.9375 14.109375 22.625 23.890625 
Q 32.328125 33.6875 34.8125 36.53125 
Q 39.546875 41.84375 41.421875 45.53125 
Q 43.3125 49.21875 43.3125 52.78125 
Q 43.3125 58.59375 39.234375 62.25 
Q 35.15625 65.921875 28.609375 65.921875 
Q 23.96875 65.921875 18.8125 64.3125 
Q 13.671875 62.703125 7.8125 59.421875 
L 7.8125 69.390625 
Q 13.765625 71.78125 18.9375 73 
Q 24.125 74.21875 28.421875 74.21875 
Q 39.75 74.21875 46.484375 68.546875 
Q 53.21875 62.890625 53.21875 53.421875 
Q 53.21875 48.921875 51.53125 44.890625 
Q 49.859375 40.875 45.40625 35.40625 
Q 44.1875 33.984375 37.640625 27.21875 
Q 31.109375 20.453125 19.1875 8.296875 
z
" id="DejaVuSans-50"/>
       </defs>
       <use xlink:href="#DejaVuSans-48"/>
       <use x="63.623047" xlink:href="#DejaVuSans-46"/>
       <use x="95.410156" xlink:href="#DejaVuSans-50"/>
      </g>
     </g>
    </g>
    <g id="xtick_3">
     <g id="line2d_3">
      <g>
       <use style="stroke:#000000;stroke-width:0.8;" x="164.018303" xlink:href="#me7fec7b30b" y="307.584"/>
      </g>
     </g>
     <g id="text_3">
      <!-- 0.4 -->
      <g transform="translate(156.066741 322.182437)scale(0.1 -0.1)">
       <defs>
        <path d="M 37.796875 64.3125 
L 12.890625 25.390625 
L 37.796875 25.390625 
z
M 35.203125 72.90625 
L 47.609375 72.90625 
L 47.609375 25.390625 
L 58.015625 25.390625 
L 58.015625 17.1875 
L 47.609375 17.1875 
L 47.609375 0 
L 37.796875 0 
L 37.796875 17.1875 
L 4.890625 17.1875 
L 4.890625 26.703125 
z
" id="DejaVuSans-52"/>
       </defs>
       <use xlink:href="#DejaVuSans-48"/>
       <use x="63.623047" xlink:href="#DejaVuSans-46"/>
       <use x="95.410156" xlink:href="#DejaVuSans-52"/>
      </g>
     </g>
    </g>
    <g id="xtick_4">
     <g id="line2d_4">
      <g>
       <use style="stroke:#000000;stroke-width:0.8;" x="209.111091" xlink:href="#me7fec7b30b" y="307.584"/>
      </g>
     </g>
     <g id="text_4">
      <!-- 0.6 -->
      <g transform="translate(201.159529 322.182437)scale(0.1 -0.1)">
       <defs>
        <path d="M 33.015625 40.375 
Q 26.375 40.375 22.484375 35.828125 
Q 18.609375 31.296875 18.609375 23.390625 
Q 18.609375 15.53125 22.484375 10.953125 
Q 26.375 6.390625 33.015625 6.390625 
Q 39.65625 6.390625 43.53125 10.953125 
Q 47.40625 15.53125 47.40625 23.390625 
Q 47.40625 31.296875 43.53125 35.828125 
Q 39.65625 40.375 33.015625 40.375 
z
M 52.59375 71.296875 
L 52.59375 62.3125 
Q 48.875 64.0625 45.09375 64.984375 
Q 41.3125 65.921875 37.59375 65.921875 
Q 27.828125 65.921875 22.671875 59.328125 
Q 17.53125 52.734375 16.796875 39.40625 
Q 19.671875 43.65625 24.015625 45.921875 
Q 28.375 48.1875 33.59375 48.1875 
Q 44.578125 48.1875 50.953125 41.515625 
Q 57.328125 34.859375 57.328125 23.390625 
Q 57.328125 12.15625 50.6875 5.359375 
Q 44.046875 -1.421875 33.015625 -1.421875 
Q 20.359375 -1.421875 13.671875 8.265625 
Q 6.984375 17.96875 6.984375 36.375 
Q 6.984375 53.65625 15.1875 63.9375 
Q 23.390625 74.21875 37.203125 74.21875 
Q 40.921875 74.21875 44.703125 73.484375 
Q 48.484375 72.75 52.59375 71.296875 
z
" id="DejaVuSans-54"/>
       </defs>
       <use xlink:href="#DejaVuSans-48"/>
       <use x="63.623047" xlink:href="#DejaVuSans-46"/>
       <use x="95.410156" xlink:href="#DejaVuSans-54"/>
      </g>
     </g>
    </g>
    <g id="xtick_5">
     <g id="line2d_5">
      <g>
       <use style="stroke:#000000;stroke-width:0.8;" x="254.203879" xlink:href="#me7fec7b30b" y="307.584"/>
      </g>
     </g>
     <g id="text_5">
      <!-- 0.8 -->
      <g transform="translate(246.252317 322.182437)scale(0.1 -0.1)">
       <defs>
        <path d="M 31.78125 34.625 
Q 24.75 34.625 20.71875 30.859375 
Q 16.703125 27.09375 16.703125 20.515625 
Q 16.703125 13.921875 20.71875 10.15625 
Q 24.75 6.390625 31.78125 6.390625 
Q 38.8125 6.390625 42.859375 10.171875 
Q 46.921875 13.96875 46.921875 20.515625 
Q 46.921875 27.09375 42.890625 30.859375 
Q 38.875 34.625 31.78125 34.625 
z
M 21.921875 38.8125 
Q 15.578125 40.375 12.03125 44.71875 
Q 8.5 49.078125 8.5 55.328125 
Q 8.5 64.0625 14.71875 69.140625 
Q 20.953125 74.21875 31.78125 74.21875 
Q 42.671875 74.21875 48.875 69.140625 
Q 55.078125 64.0625 55.078125 55.328125 
Q 55.078125 49.078125 51.53125 44.71875 
Q 48 40.375 41.703125 38.8125 
Q 48.828125 37.15625 52.796875 32.3125 
Q 56.78125 27.484375 56.78125 20.515625 
Q 56.78125 9.90625 50.3125 4.234375 
Q 43.84375 -1.421875 31.78125 -1.421875 
Q 19.734375 -1.421875 13.25 4.234375 
Q 6.78125 9.90625 6.78125 20.515625 
Q 6.78125 27.484375 10.78125 32.3125 
Q 14.796875 37.15625 21.921875 38.8125 
z
M 18.3125 54.390625 
Q 18.3125 48.734375 21.84375 45.5625 
Q 25.390625 42.390625 31.78125 42.390625 
Q 38.140625 42.390625 41.71875 45.5625 
Q 45.3125 48.734375 45.3125 54.390625 
Q 45.3125 60.0625 41.71875 63.234375 
Q 38.140625 66.40625 31.78125 66.40625 
Q 25.390625 66.40625 21.84375 63.234375 
Q 18.3125 60.0625 18.3125 54.390625 
z
" id="DejaVuSans-56"/>
       </defs>
       <use xlink:href="#DejaVuSans-48"/>
       <use x="63.623047" xlink:href="#DejaVuSans-46"/>
       <use x="95.410156" xlink:href="#DejaVuSans-56"/>
      </g>
     </g>
    </g>
    <g id="xtick_6">
     <g id="line2d_6">
      <g>
       <use style="stroke:#000000;stroke-width:0.8;" x="299.296667" xlink:href="#me7fec7b30b" y="307.584"/>
      </g>
     </g>
     <g id="text_6">
      <!-- 1.0 -->
      <g transform="translate(291.345105 322.182437)scale(0.1 -0.1)">
       <defs>
        <path d="M 12.40625 8.296875 
L 28.515625 8.296875 
L 28.515625 63.921875 
L 10.984375 60.40625 
L 10.984375 69.390625 
L 28.421875 72.90625 
L 38.28125 72.90625 
L 38.28125 8.296875 
L 54.390625 8.296875 
L 54.390625 0 
L 12.40625 0 
z
" id="DejaVuSans-49"/>
       </defs>
       <use xlink:href="#DejaVuSans-49"/>
       <use x="63.623047" xlink:href="#DejaVuSans-46"/>
       <use x="95.410156" xlink:href="#DejaVuSans-48"/>
      </g>
     </g>
    </g>
    <g id="xtick_7">
     <g id="line2d_7">
      <g>
       <use style="stroke:#000000;stroke-width:0.8;" x="344.389455" xlink:href="#me7fec7b30b" y="307.584"/>
      </g>
     </g>
     <g id="text_7">
      <!-- 1.2 -->
      <g transform="translate(336.437893 322.182437)scale(0.1 -0.1)">
       <use xlink:href="#DejaVuSans-49"/>
       <use x="63.623047" xlink:href="#DejaVuSans-46"/>
       <use x="95.410156" xlink:href="#DejaVuSans-50"/>
      </g>
     </g>
    </g>
    <g id="xtick_8">
     <g id="line2d_8">
      <g>
       <use style="stroke:#000000;stroke-width:0.8;" x="389.482243" xlink:href="#me7fec7b30b" y="307.584"/>
      </g>
     </g>
     <g id="text_8">
      <!-- 1.4 -->
      <g transform="translate(381.53068 322.182437)scale(0.1 -0.1)">
       <use xlink:href="#DejaVuSans-49"/>
       <use x="63.623047" xlink:href="#DejaVuSans-46"/>
       <use x="95.410156" xlink:href="#DejaVuSans-52"/>
      </g>
     </g>
    </g>
    <g id="text_9">
     <!-- Time (min) -->
     <g transform="translate(209.007656 335.860562)scale(0.1 -0.1)">
      <defs>
       <path d="M -0.296875 72.90625 
L 61.375 72.90625 
L 61.375 64.59375 
L 35.5 64.59375 
L 35.5 0 
L 25.59375 0 
L 25.59375 64.59375 
L -0.296875 64.59375 
z
" id="DejaVuSans-84"/>
       <path d="M 9.421875 54.6875 
L 18.40625 54.6875 
L 18.40625 0 
L 9.421875 0 
z
M 9.421875 75.984375 
L 18.40625 75.984375 
L 18.40625 64.59375 
L 9.421875 64.59375 
z
" id="DejaVuSans-105"/>
       <path d="M 52 44.1875 
Q 55.375 50.25 60.0625 53.125 
Q 64.75 56 71.09375 56 
Q 79.640625 56 84.28125 50.015625 
Q 88.921875 44.046875 88.921875 33.015625 
L 88.921875 0 
L 79.890625 0 
L 79.890625 32.71875 
Q 79.890625 40.578125 77.09375 44.375 
Q 74.3125 48.1875 68.609375 48.1875 
Q 61.625 48.1875 57.5625 43.546875 
Q 53.515625 38.921875 53.515625 30.90625 
L 53.515625 0 
L 44.484375 0 
L 44.484375 32.71875 
Q 44.484375 40.625 41.703125 44.40625 
Q 38.921875 48.1875 33.109375 48.1875 
Q 26.21875 48.1875 22.15625 43.53125 
Q 18.109375 38.875 18.109375 30.90625 
L 18.109375 0 
L 9.078125 0 
L 9.078125 54.6875 
L 18.109375 54.6875 
L 18.109375 46.1875 
Q 21.1875 51.21875 25.484375 53.609375 
Q 29.78125 56 35.6875 56 
Q 41.65625 56 45.828125 52.96875 
Q 50 49.953125 52 44.1875 
z
" id="DejaVuSans-109"/>
       <path d="M 56.203125 29.59375 
L 56.203125 25.203125 
L 14.890625 25.203125 
Q 15.484375 15.921875 20.484375 11.0625 
Q 25.484375 6.203125 34.421875 6.203125 
Q 39.59375 6.203125 44.453125 7.46875 
Q 49.3125 8.734375 54.109375 11.28125 
L 54.109375 2.78125 
Q 49.265625 0.734375 44.1875 -0.34375 
Q 39.109375 -1.421875 33.890625 -1.421875 
Q 20.796875 -1.421875 13.15625 6.1875 
Q 5.515625 13.8125 5.515625 26.8125 
Q 5.515625 40.234375 12.765625 48.109375 
Q 20.015625 56 32.328125 56 
Q 43.359375 56 49.78125 48.890625 
Q 56.203125 41.796875 56.203125 29.59375 
z
M 47.21875 32.234375 
Q 47.125 39.59375 43.09375 43.984375 
Q 39.0625 48.390625 32.421875 48.390625 
Q 24.90625 48.390625 20.390625 44.140625 
Q 15.875 39.890625 15.1875 32.171875 
z
" id="DejaVuSans-101"/>
       <path id="DejaVuSans-32"/>
       <path d="M 31 75.875 
Q 24.46875 64.65625 21.28125 53.65625 
Q 18.109375 42.671875 18.109375 31.390625 
Q 18.109375 20.125 21.3125 9.0625 
Q 24.515625 -2 31 -13.1875 
L 23.1875 -13.1875 
Q 15.875 -1.703125 12.234375 9.375 
Q 8.59375 20.453125 8.59375 31.390625 
Q 8.59375 42.28125 12.203125 53.3125 
Q 15.828125 64.359375 23.1875 75.875 
z
" id="DejaVuSans-40"/>
       <path d="M 54.890625 33.015625 
L 54.890625 0 
L 45.90625 0 
L 45.90625 32.71875 
Q 45.90625 40.484375 42.875 44.328125 
Q 39.84375 48.1875 33.796875 48.1875 
Q 26.515625 48.1875 22.3125 43.546875 
Q 18.109375 38.921875 18.109375 30.90625 
L 18.109375 0 
L 9.078125 0 
L 9.078125 54.6875 
L 18.109375 54.6875 
L 18.109375 46.1875 
Q 21.34375 51.125 25.703125 53.5625 
Q 30.078125 56 35.796875 56 
Q 45.21875 56 50.046875 50.171875 
Q 54.890625 44.34375 54.890625 33.015625 
z
" id="DejaVuSans-110"/>
       <path d="M 8.015625 75.875 
L 15.828125 75.875 
Q 23.140625 64.359375 26.78125 53.3125 
Q 30.421875 42.28125 30.421875 31.390625 
Q 30.421875 20.453125 26.78125 9.375 
Q 23.140625 -1.703125 15.828125 -13.1875 
L 8.015625 -13.1875 
Q 14.5 -2 17.703125 9.0625 
Q 20.90625 20.125 20.90625 31.390625 
Q 20.90625 42.671875 17.703125 53.65625 
Q 14.5 64.65625 8.015625 75.875 
z
" id="DejaVuSans-41"/>
      </defs>
      <use xlink:href="#DejaVuSans-84"/>
      <use x="57.958984" xlink:href="#DejaVuSans-105"/>
      <use x="85.742188" xlink:href="#DejaVuSans-109"/>
      <use x="183.154297" xlink:href="#DejaVuSans-101"/>
      <use x="244.677734" xlink:href="#DejaVuSans-32"/>
      <use x="276.464844" xlink:href="#DejaVuSans-40"/>
      <use x="315.478516" xlink:href="#DejaVuSans-109"/>
      <use x="412.890625" xlink:href="#DejaVuSans-105"/>
      <use x="440.673828" xlink:href="#DejaVuSans-110"/>
      <use x="504.052734" xlink:href="#DejaVuSans-41"/>
     </g>
    </g>
    <g id="text_10">
     <!-- 1e6 -->
     <g transform="translate(395.841875 334.860562)scale(0.1 -0.1)">
      <use xlink:href="#DejaVuSans-49"/>
      <use x="63.623047" xlink:href="#DejaVuSans-101"/>
      <use x="125.146484" xlink:href="#DejaVuSans-54"/>
     </g>
    </g>
   </g>
   <g id="matplotlib.axis_2">
    <g id="ytick_1">
     <g id="line2d_9">
      <defs>
       <path d="M 0 0 
L -3.5 0 
" id="m9ac3261ed7" style="stroke:#000000;stroke-width:0.8;"/>
      </defs>
      <g>
       <use style="stroke:#000000;stroke-width:0.8;" x="57.6" xlink:href="#m9ac3261ed7" y="295.190753"/>
      </g>
     </g>
     <g id="text_11">
      <!-- −200 -->
      <g transform="translate(23.132812 298.989972)scale(0.1 -0.1)">
       <defs>
        <path d="M 10.59375 35.5 
L 73.1875 35.5 
L 73.1875 27.203125 
L 10.59375 27.203125 
z
" id="DejaVuSans-8722"/>
       </defs>
       <use xlink:href="#DejaVuSans-8722"/>
       <use x="83.789062" xlink:href="#DejaVuSans-50"/>
       <use x="147.412109" xlink:href="#DejaVuSans-48"/>
       <use x="211.035156" xlink:href="#DejaVuSans-48"/>
      </g>
     </g>
    </g>
    <g id="ytick_2">
     <g id="line2d_10">
      <g>
       <use style="stroke:#000000;stroke-width:0.8;" x="57.6" xlink:href="#m9ac3261ed7" y="254.920294"/>
      </g>
     </g>
     <g id="text_12">
      <!-- −150 -->
      <g transform="translate(23.132812 258.719513)scale(0.1 -0.1)">
       <defs>
        <path d="M 10.796875 72.90625 
L 49.515625 72.90625 
L 49.515625 64.59375 
L 19.828125 64.59375 
L 19.828125 46.734375 
Q 21.96875 47.46875 24.109375 47.828125 
Q 26.265625 48.1875 28.421875 48.1875 
Q 40.625 48.1875 47.75 41.5 
Q 54.890625 34.8125 54.890625 23.390625 
Q 54.890625 11.625 47.5625 5.09375 
Q 40.234375 -1.421875 26.90625 -1.421875 
Q 22.3125 -1.421875 17.546875 -0.640625 
Q 12.796875 0.140625 7.71875 1.703125 
L 7.71875 11.625 
Q 12.109375 9.234375 16.796875 8.0625 
Q 21.484375 6.890625 26.703125 6.890625 
Q 35.15625 6.890625 40.078125 11.328125 
Q 45.015625 15.765625 45.015625 23.390625 
Q 45.015625 31 40.078125 35.4375 
Q 35.15625 39.890625 26.703125 39.890625 
Q 22.75 39.890625 18.8125 39.015625 
Q 14.890625 38.140625 10.796875 36.28125 
z
" id="DejaVuSans-53"/>
       </defs>
       <use xlink:href="#DejaVuSans-8722"/>
       <use x="83.789062" xlink:href="#DejaVuSans-49"/>
       <use x="147.412109" xlink:href="#DejaVuSans-53"/>
       <use x="211.035156" xlink:href="#DejaVuSans-48"/>
      </g>
     </g>
    </g>
    <g id="ytick_3">
     <g id="line2d_11">
      <g>
       <use style="stroke:#000000;stroke-width:0.8;" x="57.6" xlink:href="#m9ac3261ed7" y="214.649835"/>
      </g>
     </g>
     <g id="text_13">
      <!-- −100 -->
      <g transform="translate(23.132812 218.449054)scale(0.1 -0.1)">
       <use xlink:href="#DejaVuSans-8722"/>
       <use x="83.789062" xlink:href="#DejaVuSans-49"/>
       <use x="147.412109" xlink:href="#DejaVuSans-48"/>
       <use x="211.035156" xlink:href="#DejaVuSans-48"/>
      </g>
     </g>
    </g>
    <g id="ytick_4">
     <g id="line2d_12">
      <g>
       <use style="stroke:#000000;stroke-width:0.8;" x="57.6" xlink:href="#m9ac3261ed7" y="174.379377"/>
      </g>
     </g>
     <g id="text_14">
      <!-- −50 -->
      <g transform="translate(29.495313 178.178595)scale(0.1 -0.1)">
       <use xlink:href="#DejaVuSans-8722"/>
       <use x="83.789062" xlink:href="#DejaVuSans-53"/>
       <use x="147.412109" xlink:href="#DejaVuSans-48"/>
      </g>
     </g>
    </g>
    <g id="ytick_5">
     <g id="line2d_13">
      <g>
       <use style="stroke:#000000;stroke-width:0.8;" x="57.6" xlink:href="#m9ac3261ed7" y="134.108918"/>
      </g>
     </g>
     <g id="text_15">
      <!-- 0 -->
      <g transform="translate(44.2375 137.908136)scale(0.1 -0.1)">
       <use xlink:href="#DejaVuSans-48"/>
      </g>
     </g>
    </g>
    <g id="ytick_6">
     <g id="line2d_14">
      <g>
       <use style="stroke:#000000;stroke-width:0.8;" x="57.6" xlink:href="#m9ac3261ed7" y="93.838459"/>
      </g>
     </g>
     <g id="text_16">
      <!-- 50 -->
      <g transform="translate(37.875 97.637678)scale(0.1 -0.1)">
       <use xlink:href="#DejaVuSans-53"/>
       <use x="63.623047" xlink:href="#DejaVuSans-48"/>
      </g>
     </g>
    </g>
    <g id="ytick_7">
     <g id="line2d_15">
      <g>
       <use style="stroke:#000000;stroke-width:0.8;" x="57.6" xlink:href="#m9ac3261ed7" y="53.568"/>
      </g>
     </g>
     <g id="text_17">
      <!-- 100 -->
      <g transform="translate(31.5125 57.367219)scale(0.1 -0.1)">
       <use xlink:href="#DejaVuSans-49"/>
       <use x="63.623047" xlink:href="#DejaVuSans-48"/>
       <use x="127.246094" xlink:href="#DejaVuSans-48"/>
      </g>
     </g>
    </g>
    <g id="text_18">
     <!-- Density -->
     <g transform="translate(17.053125 193.536594)rotate(-90)scale(0.1 -0.1)">
      <defs>
       <path d="M 19.671875 64.796875 
L 19.671875 8.109375 
L 31.59375 8.109375 
Q 46.6875 8.109375 53.6875 14.9375 
Q 60.6875 21.78125 60.6875 36.53125 
Q 60.6875 51.171875 53.6875 57.984375 
Q 46.6875 64.796875 31.59375 64.796875 
z
M 9.8125 72.90625 
L 30.078125 72.90625 
Q 51.265625 72.90625 61.171875 64.09375 
Q 71.09375 55.28125 71.09375 36.53125 
Q 71.09375 17.671875 61.125 8.828125 
Q 51.171875 0 30.078125 0 
L 9.8125 0 
z
" id="DejaVuSans-68"/>
       <path d="M 44.28125 53.078125 
L 44.28125 44.578125 
Q 40.484375 46.53125 36.375 47.5 
Q 32.28125 48.484375 27.875 48.484375 
Q 21.1875 48.484375 17.84375 46.4375 
Q 14.5 44.390625 14.5 40.28125 
Q 14.5 37.15625 16.890625 35.375 
Q 19.28125 33.59375 26.515625 31.984375 
L 29.59375 31.296875 
Q 39.15625 29.25 43.1875 25.515625 
Q 47.21875 21.78125 47.21875 15.09375 
Q 47.21875 7.46875 41.1875 3.015625 
Q 35.15625 -1.421875 24.609375 -1.421875 
Q 20.21875 -1.421875 15.453125 -0.5625 
Q 10.6875 0.296875 5.421875 2 
L 5.421875 11.28125 
Q 10.40625 8.6875 15.234375 7.390625 
Q 20.0625 6.109375 24.8125 6.109375 
Q 31.15625 6.109375 34.5625 8.28125 
Q 37.984375 10.453125 37.984375 14.40625 
Q 37.984375 18.0625 35.515625 20.015625 
Q 33.0625 21.96875 24.703125 23.78125 
L 21.578125 24.515625 
Q 13.234375 26.265625 9.515625 29.90625 
Q 5.8125 33.546875 5.8125 39.890625 
Q 5.8125 47.609375 11.28125 51.796875 
Q 16.75 56 26.8125 56 
Q 31.78125 56 36.171875 55.265625 
Q 40.578125 54.546875 44.28125 53.078125 
z
" id="DejaVuSans-115"/>
       <path d="M 18.3125 70.21875 
L 18.3125 54.6875 
L 36.8125 54.6875 
L 36.8125 47.703125 
L 18.3125 47.703125 
L 18.3125 18.015625 
Q 18.3125 11.328125 20.140625 9.421875 
Q 21.96875 7.515625 27.59375 7.515625 
L 36.8125 7.515625 
L 36.8125 0 
L 27.59375 0 
Q 17.1875 0 13.234375 3.875 
Q 9.28125 7.765625 9.28125 18.015625 
L 9.28125 47.703125 
L 2.6875 47.703125 
L 2.6875 54.6875 
L 9.28125 54.6875 
L 9.28125 70.21875 
z
" id="DejaVuSans-116"/>
       <path d="M 32.171875 -5.078125 
Q 28.375 -14.84375 24.75 -17.8125 
Q 21.140625 -20.796875 15.09375 -20.796875 
L 7.90625 -20.796875 
L 7.90625 -13.28125 
L 13.1875 -13.28125 
Q 16.890625 -13.28125 18.9375 -11.515625 
Q 21 -9.765625 23.484375 -3.21875 
L 25.09375 0.875 
L 2.984375 54.6875 
L 12.5 54.6875 
L 29.59375 11.921875 
L 46.6875 54.6875 
L 56.203125 54.6875 
z
" id="DejaVuSans-121"/>
      </defs>
      <use xlink:href="#DejaVuSans-68"/>
      <use x="77.001953" xlink:href="#DejaVuSans-101"/>
      <use x="138.525391" xlink:href="#DejaVuSans-110"/>
      <use x="201.904297" xlink:href="#DejaVuSans-115"/>
      <use x="254.003906" xlink:href="#DejaVuSans-105"/>
      <use x="281.787109" xlink:href="#DejaVuSans-116"/>
      <use x="320.996094" xlink:href="#DejaVuSans-121"/>
     </g>
    </g>
   </g>
   <g id="line2d_16">
    <path clip-path="url(#p0d91445a6b)" d="M 73.832727 134.108918 
L 398.487273 134.108918 
L 398.487273 134.108918 
" style="fill:none;stroke:#1f77b4;stroke-linecap:square;stroke-width:1.5;"/>
   </g>
   <g id="line2d_17">
    <path clip-path="url(#p0d91445a6b)" d="M 73.832727 134.108918 
L 398.487273 134.108918 
L 398.487273 134.108918 
" style="fill:none;stroke:#ff7f0e;stroke-linecap:square;stroke-width:1.5;"/>
   </g>
   <g id="line2d_18">
    <path clip-path="url(#p0d91445a6b)" d="M 73.832727 126.054826 
L 74.035645 126.058079 
L 96.721826 127.323864 
L 121.491295 128.479758 
L 148.763413 129.526035 
L 179.092822 130.462868 
L 213.250609 131.290729 
L 231.215576 131.561363 
L 398.487273 131.561368 
L 398.487273 131.561368 
" style="fill:none;stroke:#2ca02c;stroke-linecap:square;stroke-width:1.5;"/>
   </g>
   <g id="line2d_19">
    <path clip-path="url(#p0d91445a6b)" d="M 73.832727 53.568 
L 73.859783 295.488 
L 73.954478 295.159516 
L 73.968006 295.430931 
L 74.008589 294.805985 
L 74.049173 295.310191 
L 74.143868 294.718355 
L 74.170923 294.859594 
L 74.197979 294.926688 
L 74.306202 294.417028 
L 74.265618 294.930716 
L 74.319729 294.533034 
L 74.333257 294.657696 
L 74.360313 294.263766 
L 74.414424 294.628054 
L 74.522647 294.045298 
L 74.536175 294.187067 
L 74.549703 294.249038 
L 74.576758 294.113368 
L 74.657925 293.753521 
L 74.617342 294.228143 
L 74.684981 294.146046 
L 74.725564 293.414746 
L 74.820259 293.635436 
L 74.847315 293.854595 
L 74.860843 293.541341 
L 74.94201 293.139305 
L 74.914954 293.589413 
L 74.969066 293.453212 
L 74.982593 293.509185 
L 75.009649 293.208469 
L 75.090816 292.972872 
L 75.050233 293.472999 
L 75.117872 293.194818 
L 75.1314 293.221661 
L 75.239622 292.622001 
L 75.25315 292.815904 
L 75.266678 292.983665 
L 75.307261 292.634913 
L 75.347845 292.792005 
L 75.361373 292.771094 
L 75.374901 292.332957 
L 75.469595 292.456627 
L 75.523707 292.084949 
L 75.56429 292.607247 
L 75.672513 291.926713 
L 75.686041 292.03023 
L 75.699569 292.18043 
L 75.726624 291.846991 
L 75.780736 292.167299 
L 75.888958 291.579376 
L 75.902486 291.68339 
L 75.916014 291.761037 
L 75.94307 291.676904 
L 75.956598 291.298907 
L 75.983653 291.726782 
L 76.051292 291.638776 
L 76.091876 290.974342 
L 76.200099 291.199975 
L 76.213626 291.40257 
L 76.25421 290.935866 
L 76.294793 291.110785 
L 76.389488 290.522677 
L 76.403016 290.719056 
L 76.416544 290.980687 
L 76.457128 290.543493 
L 76.497711 290.755305 
L 76.605934 290.117857 
L 76.619462 290.336682 
L 76.646517 290.500921 
L 76.687101 290.169177 
L 76.727684 290.335521 
L 76.822379 289.904291 
L 76.835907 289.970309 
L 76.890018 289.638358 
L 76.930602 290.170091 
L 77.038824 289.475852 
L 77.052352 289.558416 
L 77.079408 289.731902 
L 77.119992 289.383902 
L 77.147047 289.721421 
L 77.25527 289.149382 
L 77.268798 289.206624 
L 77.282326 289.296884 
L 77.322909 288.853385 
L 77.37702 289.226056 
L 77.458187 288.767678 
L 77.498771 288.933297 
L 77.512299 288.967041 
L 77.620521 288.472796 
L 77.634049 288.585145 
L 77.647577 288.707542 
L 77.674633 288.33394 
L 77.728744 288.547064 
L 77.7558 288.060287 
L 77.87755 288.191263 
L 77.891078 288.175325 
L 77.972245 287.651535 
L 77.931662 288.282471 
L 77.999301 288.036448 
L 78.012829 288.115931 
L 78.053412 287.714134 
L 78.080468 287.932726 
L 78.093996 287.92029 
L 78.188691 287.503338 
L 78.202218 287.509817 
L 78.25633 287.235546 
L 78.296913 287.747495 
L 78.405136 287.065047 
L 78.418664 287.115068 
L 78.445719 287.307151 
L 78.486303 286.918918 
L 78.513359 287.292376 
L 78.635109 286.755455 
L 78.662165 286.888949 
L 78.689221 286.449961 
L 78.743332 286.842211 
L 78.824499 286.396595 
L 78.865082 286.505176 
L 78.87861 286.549871 
L 78.892138 286.282479 
L 78.905666 286.339349 
L 78.986833 286.046146 
L 78.946249 286.546974 
L 79.013889 286.291744 
L 79.027416 286.286524 
L 79.122111 285.645512 
L 79.135639 285.859109 
L 79.176223 286.098253 
L 79.203278 285.700928 
L 79.243862 285.820994 
L 79.25739 285.796938 
L 79.270918 285.439206 
L 79.297973 285.844922 
L 79.365612 285.752941 
L 79.406196 285.131549 
L 79.514419 285.335352 
L 79.527946 285.527102 
L 79.56853 285.076702 
L 79.609113 285.248011 
L 79.703808 284.666004 
L 79.663225 285.338956 
L 79.717336 284.868229 
L 79.730864 285.101196 
L 79.771447 284.696163 
L 79.812031 284.901435 
L 79.920254 284.377891 
L 79.947309 284.576895 
L 79.960837 284.790892 
L 80.001421 284.331466 
L 80.042004 284.490217 
L 80.136699 284.071756 
L 80.150227 284.13521 
L 80.177283 284.365738 
L 80.217866 283.965339 
L 80.244922 284.152149 
L 80.353144 283.655596 
L 80.366672 283.735626 
L 80.393728 283.902846 
L 80.434311 283.564835 
L 80.474895 283.759958 
L 80.488423 283.278517 
L 80.583118 283.393109 
L 80.596645 283.48063 
L 80.637229 283.05448 
L 80.69134 283.404922 
L 80.772507 282.803053 
L 80.813091 283.139308 
L 80.826619 283.144847 
L 80.934841 282.677176 
L 80.894258 283.150476 
L 80.948369 282.786688 
L 81.029536 282.943435 
L 81.002481 282.489906 
L 81.043064 282.677295 
L 81.056592 282.699698 
L 81.07012 282.281494 
L 81.164815 282.457448 
L 81.178342 282.516593 
L 81.205398 282.382012 
L 81.286565 281.883439 
L 81.245982 282.484835 
L 81.313621 282.24912 
L 81.327149 282.327321 
L 81.367732 281.936112 
L 81.394788 282.149222 
L 81.408316 282.135768 
L 81.503011 281.731463 
L 81.530066 281.841976 
L 81.543594 282.033086 
L 81.584178 281.536111 
L 81.624761 281.62766 
L 81.638289 281.646143 
L 81.719456 281.304771 
L 81.678872 281.755563 
L 81.746512 281.511512 
L 81.760039 281.537869 
L 81.773567 281.327119 
L 81.787095 281.323167 
L 81.854734 280.96155 
L 81.841206 281.450994 
L 81.895318 281.224152 
L 81.908846 281.398472 
L 81.935901 280.994189 
L 81.990013 281.10545 
L 82.084707 280.704044 
L 82.098235 280.914606 
L 82.233514 280.427345 
L 82.125291 280.963469 
L 82.247042 280.565666 
L 82.260569 280.790231 
L 82.301153 280.310276 
L 82.341736 280.5422 
L 82.436431 279.937385 
L 82.395848 280.56279 
L 82.463487 280.297896 
L 82.652877 279.524808 
L 82.490543 280.349452 
L 82.679932 279.870082 
L 82.69346 280.010254 
L 82.734044 279.575793 
L 82.774627 279.799004 
L 82.88285 279.36437 
L 82.896378 279.474617 
L 82.909905 279.710247 
L 82.950489 279.141317 
L 82.991073 279.326797 
L 83.0046 279.331559 
L 83.018128 278.977701 
L 83.045184 279.386365 
L 83.112823 279.150237 
L 83.126351 279.192594 
L 83.153407 279.016095 
L 83.234574 278.684611 
L 83.19399 279.165578 
L 83.261629 278.876619 
L 83.275157 279.077244 
L 83.315741 278.636067 
L 83.356324 278.790442 
L 83.451019 278.384415 
L 83.464547 278.521531 
L 83.491602 278.635867 
L 83.599825 278.057224 
L 83.613353 278.215327 
L 83.626881 278.445851 
L 83.667464 277.978926 
L 83.708048 278.217443 
L 83.802743 277.636918 
L 83.829798 277.925512 
L 83.843326 277.921604 
L 83.856854 278.050832 
L 83.88391 277.658922 
L 83.938021 277.765804 
L 84.019188 277.210711 
L 84.046244 277.512888 
L 84.059772 277.70601 
L 84.100355 277.250082 
L 84.140939 277.481264 
L 84.249161 277.023973 
L 84.262689 277.130335 
L 84.276217 277.400649 
L 84.3168 276.777995 
L 84.357384 277.043264 
L 84.370912 277.038476 
L 84.38444 276.65529 
L 84.479135 276.808664 
L 84.492662 276.866687 
L 84.519718 276.732694 
L 84.600885 276.38513 
L 84.560302 276.830023 
L 84.627941 276.548002 
L 84.641469 276.769387 
L 84.682052 276.303111 
L 84.722636 276.49293 
L 84.81733 276.099764 
L 84.844386 276.204267 
L 84.857914 276.325354 
L 84.898497 275.94741 
L 84.925553 276.129864 
L 85.033776 275.685684 
L 85.060831 275.885796 
L 85.074359 275.911421 
L 85.087887 275.711347 
L 85.114943 275.54623 
L 85.128471 275.771343 
L 85.141998 275.755774 
L 85.155526 275.822066 
L 85.169054 275.362758 
L 85.223166 275.769736 
L 85.31786 275.113936 
L 85.344916 275.407166 
L 85.358444 275.390824 
L 85.371972 275.46321 
L 85.3855 274.946125 
L 85.480194 275.011942 
L 85.547834 274.829833 
L 85.574889 275.17631 
L 85.683112 274.448228 
L 85.710168 274.763312 
L 85.737223 274.766053 
L 85.750751 274.372153 
L 85.845446 274.487507 
L 85.858974 274.56 
L 85.886029 274.471842 
L 85.967197 274.124546 
L 85.926613 274.511519 
L 85.994252 274.241535 
L 86.00778 274.477114 
L 86.048364 274.001326 
L 86.088947 274.214344 
L 86.19717 273.80842 
L 86.210698 273.900407 
L 86.224225 274.032501 
L 86.264809 273.662836 
L 86.305392 273.765473 
L 86.31892 273.756246 
L 86.332448 273.421151 
L 86.359504 273.808314 
L 86.427143 273.582495 
L 86.440671 273.624154 
L 86.467726 273.4503 
L 86.535366 273.132821 
L 86.521838 273.582435 
L 86.575949 273.314922 
L 86.589477 273.500705 
L 86.63006 273.083549 
L 86.670644 273.230274 
L 86.751811 272.722979 
L 86.778867 272.870681 
L 86.792395 273.133184 
L 86.832978 272.713365 
L 86.873562 272.902055 
L 86.981784 272.442404 
L 86.995312 272.516452 
L 87.022368 272.672457 
L 87.049423 272.274927 
L 87.103535 272.520253 
L 87.117063 272.117922 
L 87.211757 272.187366 
L 87.225285 272.272128 
L 87.265869 271.88053 
L 87.306452 272.192228 
L 87.495842 271.65103 
L 87.522898 271.946199 
L 87.563481 271.487927 
L 87.590537 271.756893 
L 87.69876 271.155598 
L 87.712287 271.324035 
L 87.725815 271.515321 
L 87.779927 271.170003 
L 87.806982 271.355404 
L 87.901677 270.928006 
L 87.942261 271.044221 
L 87.955788 271.247635 
L 87.996372 270.807681 
L 88.036955 270.990067 
L 88.118122 270.528221 
L 88.145178 270.589252 
L 88.158706 270.865109 
L 88.212817 270.470377 
L 88.239873 270.641272 
L 88.348096 270.205798 
L 88.375151 270.398266 
L 88.388679 270.4235 
L 88.402207 270.282461 
L 88.483374 269.914828 
L 88.442791 270.353768 
L 88.51043 270.094789 
L 88.537485 270.278101 
L 88.551013 270.00616 
L 88.63218 269.65442 
L 88.605125 270.042149 
L 88.659236 269.929339 
L 88.672764 269.96807 
L 88.686292 269.896383 
L 88.780986 269.502466 
L 88.740403 269.938249 
L 88.808042 269.69276 
L 88.82157 269.712202 
L 88.929793 269.259412 
L 88.943321 269.350643 
L 88.956848 269.626778 
L 88.997432 269.004551 
L 89.051543 269.305951 
L 89.065071 268.93142 
L 89.159766 269.032872 
L 89.173294 269.104654 
L 89.200349 269.020398 
L 89.295044 268.673755 
L 89.254461 269.150719 
L 89.308572 268.794613 
L 89.3221 269.009934 
L 89.362683 268.562196 
L 89.403267 268.768135 
L 89.51149 268.33453 
L 89.525017 268.609948 
L 89.579129 268.245206 
L 89.619712 268.333193 
L 89.63324 268.319816 
L 89.646768 268.001792 
L 89.673824 268.367907 
L 89.741463 268.151152 
L 89.754991 268.192532 
L 89.768519 268.116622 
L 89.849686 267.739236 
L 89.890269 267.894394 
L 89.903797 268.06638 
L 89.94438 267.66708 
L 89.984964 267.807699 
L 90.079659 267.303688 
L 90.093187 267.4681 
L 90.106714 267.692816 
L 90.147298 267.308582 
L 90.187881 267.488872 
L 90.296104 267.042584 
L 90.309632 267.113687 
L 90.32316 267.39791 
L 90.363743 266.773901 
L 90.417855 267.107844 
L 90.51255 266.734502 
L 90.526077 266.792552 
L 90.580189 266.49971 
L 90.620772 266.952919 
L 90.728995 266.350715 
L 90.742523 266.422121 
L 90.769578 266.563928 
L 90.810162 266.270816 
L 90.837218 266.550734 
L 90.94544 266.035689 
L 90.972496 266.173422 
L 90.999552 266.141561 
L 91.013079 265.792284 
L 91.107774 265.92179 
L 91.121302 265.978985 
L 91.148358 265.704677 
L 91.202469 265.873732 
L 91.310692 265.446985 
L 91.32422 265.541212 
L 91.337748 265.640538 
L 91.364803 265.31366 
L 91.418915 265.49642 
L 91.44597 265.082557 
L 91.567721 265.17428 
L 91.581249 265.163077 
L 91.662416 264.861747 
L 91.621832 265.258588 
L 91.689471 265.18223 
L 91.730055 264.582185 
L 91.82475 264.752873 
L 91.851805 264.923296 
L 91.865333 264.665674 
L 91.9465 264.329524 
L 91.919445 264.700919 
L 91.973556 264.50729 
L 91.987084 264.7687 
L 92.027667 264.207794 
L 92.068251 264.43329 
L 92.081779 264.419319 
L 92.176473 264.049531 
L 92.190001 264.173153 
L 92.203529 264.361259 
L 92.244113 263.879629 
L 92.284696 264.094085 
L 92.379391 263.622513 
L 92.419974 263.884233 
L 92.433502 263.954791 
L 92.460558 263.621081 
L 92.501141 263.836513 
L 92.609364 263.366364 
L 92.622892 263.485738 
L 92.63642 263.688168 
L 92.677003 263.258315 
L 92.717587 263.456036 
L 92.82581 263.035942 
L 92.839337 263.294991 
L 92.893449 262.947329 
L 92.934032 263.037244 
L 92.94756 263.019397 
L 93.042255 262.717672 
L 92.988144 263.060488 
L 93.055783 262.979547 
L 93.096366 262.433042 
L 93.204589 262.605337 
L 93.218117 262.766593 
L 93.2587 262.383079 
L 93.299284 262.519619 
L 93.393979 262.020341 
L 93.353395 262.597728 
L 93.407507 262.191117 
L 93.421034 262.390738 
L 93.461618 262.034449 
L 93.502201 262.209287 
L 93.610424 261.679219 
L 93.623952 261.853605 
L 93.63748 261.986281 
L 93.691591 261.709285 
L 93.732175 261.837338 
L 93.826869 261.473891 
L 93.840397 261.52992 
L 93.867453 261.717449 
L 93.908036 261.383635 
L 93.935092 261.532591 
L 94.043315 261.101274 
L 94.056843 261.170434 
L 94.083898 261.306543 
L 94.124482 261.022291 
L 94.151538 261.288813 
L 94.25976 260.808112 
L 94.273288 260.858531 
L 94.286816 260.930571 
L 94.327399 260.562637 
L 94.381511 260.856001 
L 94.462678 260.328711 
L 94.503261 260.620662 
L 94.516789 260.623185 
L 94.625012 260.219637 
L 94.63854 260.311288 
L 94.652067 260.406778 
L 94.679123 260.095398 
L 94.733234 260.266239 
L 94.76029 259.869056 
L 94.882041 259.957294 
L 94.895569 259.941028 
L 94.976736 259.510828 
L 94.936152 260.027882 
L 95.003791 259.820826 
L 95.017319 259.880315 
L 95.044375 259.642601 
L 95.112014 259.3962 
L 95.084958 259.72533 
L 95.152597 259.574103 
L 95.166125 259.702006 
L 95.193181 259.36042 
L 95.233764 259.612564 
L 95.341987 259.016785 
L 95.355515 259.166595 
L 95.369043 259.370411 
L 95.409626 258.978556 
L 95.45021 259.174399 
L 95.558433 258.727197 
L 95.57196 258.940802 
L 95.774878 258.437664 
L 95.599016 259.042789 
L 95.801934 258.578801 
L 95.815461 258.652918 
L 95.828989 258.256874 
L 95.883101 258.497253 
L 95.991323 258.084959 
L 96.004851 258.167898 
L 96.018379 258.282553 
L 96.045435 258.016427 
L 96.099546 258.147156 
L 96.275408 257.558824 
L 96.288936 257.703 
L 96.302464 257.885872 
L 96.343047 257.382404 
L 96.383631 257.790547 
L 96.478325 257.324041 
L 96.518909 257.448047 
L 96.532437 257.597196 
L 96.57302 257.230798 
L 96.613604 257.361358 
L 96.708299 256.881269 
L 96.667715 257.42906 
L 96.721826 257.042271 
L 96.735354 257.231216 
L 96.775938 256.892717 
L 96.816521 257.05898 
L 96.924744 256.618743 
L 96.9518 256.779408 
L 96.965327 256.948919 
L 97.005911 256.572846 
L 97.046495 256.695986 
L 97.141189 256.343913 
L 97.154717 256.467778 
L 97.168245 256.46494 
L 97.181773 256.553752 
L 97.289996 256.057861 
L 97.303523 256.188561 
L 97.317051 256.383121 
L 97.357635 255.981277 
L 97.398218 256.178771 
L 97.492913 255.66051 
L 97.519969 255.935066 
L 97.57408 255.689416 
L 97.547024 256.025689 
L 97.628191 255.774248 
L 97.709358 255.292812 
L 97.736414 255.553689 
L 97.749942 255.712768 
L 97.790526 255.323987 
L 97.831109 255.514904 
L 97.939332 255.120815 
L 97.95286 255.209673 
L 98.034027 255.323783 
L 98.006971 254.961035 
L 98.047554 255.10687 
L 98.061082 255.121226 
L 98.07461 254.783873 
L 98.169305 254.915856 
L 98.182833 254.962134 
L 98.209888 254.845772 
L 98.291055 254.543433 
L 98.250472 254.927574 
L 98.318111 254.680583 
L 98.331639 254.867614 
L 98.372222 254.469725 
L 98.412806 254.623381 
L 98.507501 254.281231 
L 98.534557 254.374802 
L 98.548084 254.521797 
L 98.588668 254.12121 
L 98.615724 254.308655 
L 98.723946 253.911932 
L 98.751002 254.079695 
L 98.76453 254.098952 
L 98.859225 253.619637 
L 98.88628 253.815219 
L 98.913336 253.966155 
L 98.926864 253.719836 
L 99.008031 253.398631 
L 98.980975 253.744282 
L 99.048614 253.632185 
L 99.062142 253.690881 
L 99.07567 253.245758 
L 99.170365 253.302604 
L 99.19742 253.441801 
L 99.238004 253.145093 
L 99.26506 253.432542 
L 99.373282 252.88206 
L 99.38681 252.98498 
L 99.400338 253.232002 
L 99.440922 252.721069 
L 99.495033 253.045753 
L 99.589728 252.529885 
L 99.616783 252.838534 
L 99.738534 252.394162 
L 99.76559 252.574959 
L 99.779117 252.568145 
L 99.88734 252.205094 
L 99.900868 252.293829 
L 99.914396 252.477875 
L 99.954979 252.018107 
L 99.995563 252.159841 
L 100.009091 252.160323 
L 100.090258 251.876307 
L 100.049674 252.203169 
L 100.117313 252.004101 
L 100.130841 252.03664 
L 100.157897 251.887079 
L 100.225536 251.606078 
L 100.212008 251.993492 
L 100.26612 251.763223 
L 100.279647 251.919524 
L 100.320231 251.564744 
L 100.360814 251.681183 
L 100.455509 251.33991 
L 100.469037 251.454091 
L 100.496093 251.541316 
L 100.604315 251.061904 
L 100.617843 251.187523 
L 100.631371 251.371636 
L 100.671955 250.987692 
L 100.712538 251.177361 
L 100.807233 250.6958 
L 100.834289 250.926839 
L 100.847817 250.922175 
L 100.861344 251.023041 
L 100.956039 250.484605 
L 100.983095 250.765313 
L 101.253652 250.14722 
L 101.307763 250.217707 
L 101.38893 249.832871 
L 101.415986 250.137331 
L 101.537736 249.649944 
L 101.564792 249.848485 
L 101.57832 249.986619 
L 101.591848 249.615073 
L 101.659487 249.679514 
L 101.740654 249.377953 
L 101.781237 249.533097 
L 101.794765 249.641923 
L 101.821821 249.328203 
L 101.862404 249.509578 
L 101.970627 249.009881 
L 101.984155 249.144575 
L 101.997683 249.326047 
L 102.038266 248.969458 
L 102.07885 249.149268 
L 102.173545 248.706128 
L 102.214128 248.889228 
L 102.227656 249.013123 
L 102.254712 248.696231 
L 102.308823 248.778077 
L 102.38999 248.332275 
L 102.417046 248.517524 
L 102.430573 248.703561 
L 102.471157 248.333156 
L 102.51174 248.508131 
L 102.619963 248.116903 
L 102.633491 248.192599 
L 102.647019 248.426575 
L 102.687602 247.894501 
L 102.741714 248.143118 
L 102.836408 247.823317 
L 102.849936 247.905634 
L 102.863464 247.96319 
L 102.89052 247.887463 
L 102.985215 247.591642 
L 102.944631 247.99378 
L 102.998743 247.689535 
L 103.01227 247.870233 
L 103.052854 247.488601 
L 103.093437 247.656039 
L 103.20166 247.316416 
L 103.215188 247.389137 
L 103.228716 247.493565 
L 103.269299 247.188215 
L 103.309883 247.267608 
L 103.323411 247.256843 
L 103.404578 246.984309 
L 103.363994 247.295797 
L 103.431633 247.105603 
L 103.445161 247.137821 
L 103.458689 247.068846 
L 103.539856 246.741383 
L 103.580439 246.874292 
L 103.593967 247.018033 
L 103.634551 246.679463 
L 103.675134 246.790424 
L 103.756301 246.37336 
L 103.783357 246.490032 
L 103.796885 246.697826 
L 103.837468 246.352847 
L 103.878052 246.503345 
L 103.986275 246.117445 
L 103.999802 246.176684 
L 104.01333 246.417616 
L 104.053914 245.882641 
L 104.108025 246.159784 
L 104.20272 245.836893 
L 104.216248 245.887018 
L 104.229776 245.954057 
L 104.270359 245.631401 
L 104.310943 245.877619 
L 104.500332 245.419071 
L 104.527388 245.652373 
L 104.567972 245.278639 
L 104.595027 245.492764 
L 104.70325 244.994293 
L 104.716778 245.127701 
L 104.730306 245.280711 
L 104.784417 244.995164 
L 104.825 245.130136 
L 104.933223 244.800519 
L 104.946751 244.877543 
L 104.960279 245.037323 
L 105.000862 244.678476 
L 105.041446 244.819682 
L 105.122613 244.439248 
L 105.149669 244.484808 
L 105.163196 244.703904 
L 105.217308 244.379103 
L 105.244363 244.51542 
L 105.352586 244.14942 
L 105.366114 244.183719 
L 105.379642 244.42108 
L 105.420225 243.904902 
L 105.474337 244.193541 
L 105.569031 243.88002 
L 105.596087 243.963192 
L 105.609615 243.987823 
L 105.623143 243.959059 
L 105.717838 243.586576 
L 105.731365 243.697896 
L 105.744893 243.88738 
L 105.785477 243.530258 
L 105.82606 243.696307 
L 105.934283 243.269439 
L 105.947811 243.396487 
L 105.961339 243.509177 
L 106.001922 243.255485 
L 106.042506 243.356441 
L 106.056034 243.339571 
L 106.150728 243.029789 
L 106.164256 243.109304 
L 106.177784 243.165644 
L 106.20484 243.090361 
L 106.299535 242.803641 
L 106.258951 243.188242 
L 106.313062 242.898728 
L 106.32659 243.068926 
L 106.367174 242.703677 
L 106.407757 242.865185 
L 106.51598 242.502685 
L 106.529508 242.721743 
L 106.583619 242.421615 
L 106.624203 242.489624 
L 106.637731 242.475705 
L 106.732425 242.214693 
L 106.678314 242.509393 
L 106.745953 242.437046 
L 106.786537 241.964017 
L 106.894759 242.104195 
L 106.908287 242.23785 
L 106.948871 241.913891 
L 106.989454 242.020849 
L 107.084149 241.605242 
L 107.097677 241.734983 
L 107.111205 241.914105 
L 107.151788 241.599057 
L 107.192372 241.741068 
L 107.300594 241.286856 
L 107.314122 241.431985 
L 107.32765 241.542092 
L 107.381762 241.304865 
L 107.422345 241.406093 
L 107.51704 241.092229 
L 107.530568 241.140481 
L 107.584679 240.897648 
L 107.625263 241.254427 
L 107.733485 240.758601 
L 107.747013 240.815282 
L 107.774069 240.926299 
L 107.814652 240.68521 
L 107.841708 240.906482 
L 107.949931 240.491546 
L 107.963458 240.533663 
L 107.976986 240.591611 
L 108.01757 240.277438 
L 108.071681 240.518618 
L 108.152848 240.188345 
L 108.193432 240.29955 
L 108.20696 240.318979 
L 108.315182 239.961992 
L 108.32871 240.036933 
L 108.342238 240.115184 
L 108.369294 239.849169 
L 108.423405 239.989359 
L 108.450461 239.65328 
L 108.572211 239.713254 
L 108.585739 239.700891 
L 108.666906 239.332796 
L 108.626322 239.772268 
L 108.693962 239.591447 
L 108.707489 239.635851 
L 108.734545 239.43507 
L 108.802184 239.218729 
L 108.775129 239.501021 
L 108.842768 239.36885 
L 108.856296 239.474029 
L 108.883351 239.183955 
L 108.937463 239.259593 
L 109.032158 238.880172 
L 108.991574 239.333136 
L 109.045685 239.006712 
L 109.059213 239.175802 
L 109.099797 238.843576 
L 109.14038 239.003451 
L 109.248603 238.618633 
L 109.262131 238.799875 
L 109.465048 238.354739 
L 109.289186 238.879635 
L 109.478576 238.430711 
L 109.505632 238.522273 
L 109.51916 238.303293 
L 109.573271 238.402135 
L 109.681494 238.037745 
L 109.695022 238.105521 
L 109.708549 238.19983 
L 109.735605 237.971855 
L 109.789716 238.07815 
L 109.965578 237.568429 
L 109.979106 237.689002 
L 109.992634 237.84211 
L 110.033217 237.560575 
L 110.087329 237.700837 
L 110.100857 237.327577 
L 110.195551 237.399742 
L 110.222607 237.576803 
L 110.263191 237.264749 
L 110.290246 237.393482 
L 110.303774 237.369652 
L 110.398469 236.957636 
L 110.357886 237.42401 
L 110.411997 237.092383 
L 110.425525 237.250516 
L 110.466108 236.960554 
L 110.506692 237.096249 
L 110.614914 236.717028 
L 110.64197 236.849239 
L 110.655498 236.990207 
L 110.696081 236.672429 
L 110.736665 236.768863 
L 110.83136 236.465219 
L 110.844888 236.510221 
L 110.871943 236.655809 
L 110.912527 236.383858 
L 110.939582 236.501214 
L 111.047805 236.140838 
L 111.061333 236.194886 
L 111.088389 236.301434 
L 111.128972 236.067229 
L 111.169556 236.183807 
L 111.183084 235.855361 
L 111.277778 235.920251 
L 111.291306 235.97622 
L 111.33189 235.676036 
L 111.386001 235.901413 
L 111.467168 235.474058 
L 111.507752 235.700733 
L 111.521279 235.700946 
L 111.629502 235.363219 
L 111.64303 235.435634 
L 111.724197 235.526226 
L 111.697141 235.222644 
L 111.737725 235.337881 
L 111.751253 235.351171 
L 111.764781 235.066318 
L 111.859475 235.169581 
L 111.873003 235.205894 
L 111.900059 235.10551 
L 111.981226 234.754913 
L 111.940642 235.172059 
L 112.008282 234.998969 
L 112.021809 235.044078 
L 112.048865 234.848268 
L 112.116504 234.646021 
L 112.089449 234.912359 
L 112.157088 234.782825 
L 112.170616 234.882133 
L 112.197671 234.605158 
L 112.238255 234.802473 
L 112.346477 234.312188 
L 112.360005 234.430455 
L 112.373533 234.591447 
L 112.414117 234.273689 
L 112.4547 234.425913 
L 112.549395 234.011739 
L 112.576451 234.179657 
L 112.603506 234.300621 
L 112.617034 234.09159 
L 112.698201 233.814573 
L 112.671146 234.10647 
L 112.738785 234.007563 
L 112.752313 234.054371 
L 112.779368 233.795283 
L 112.819952 233.96323 
L 112.928174 233.581761 
L 112.941702 233.671332 
L 112.95523 233.820397 
L 112.995814 233.486643 
L 113.036397 233.634875 
L 113.131092 233.20532 
L 113.090508 233.641159 
L 113.158148 233.448836 
L 113.347537 232.884315 
L 113.185203 233.473181 
L 113.374593 233.115326 
L 113.388121 233.203617 
L 113.428704 232.903514 
L 113.469288 233.045692 
L 113.577511 232.731927 
L 113.591038 232.804002 
L 113.604566 232.958268 
L 113.64515 232.569186 
L 113.685733 232.680788 
L 113.699261 232.682223 
L 113.780428 232.436244 
L 113.739845 232.715331 
L 113.807484 232.54147 
L 113.821012 232.566408 
L 113.848067 232.438761 
L 113.929234 232.199954 
L 113.888651 232.535428 
L 113.95629 232.326116 
L 113.969818 232.457731 
L 114.010401 232.153178 
L 114.050985 232.24698 
L 114.14568 231.95322 
L 114.159208 232.048526 
L 114.186263 232.116592 
L 114.294486 231.70577 
L 114.308014 231.809134 
L 114.321542 231.962479 
L 114.362125 231.636974 
L 114.402709 231.790588 
L 114.497403 231.376782 
L 114.524459 231.571984 
L 114.551515 231.647094 
L 114.565043 231.439853 
L 114.64621 231.187752 
L 114.605626 231.47433 
L 114.686793 231.380213 
L 114.700321 231.399386 
L 114.713849 231.046809 
L 114.808544 231.109478 
L 114.835599 231.206987 
L 114.876183 230.991029 
L 114.903239 231.191612 
L 115.011461 230.699212 
L 115.038517 230.896489 
L 115.227907 230.434423 
L 115.241434 230.541781 
L 115.254962 230.685256 
L 115.295546 230.373982 
L 115.336129 230.62671 
L 115.430824 230.184985 
L 115.45788 230.281952 
L 115.484936 230.40243 
L 115.511991 230.137895 
L 115.552575 230.284133 
L 115.660797 229.856629 
L 115.674325 229.967903 
L 115.687853 230.11871 
L 115.728437 229.816013 
L 115.76902 229.961628 
L 115.863715 229.569646 
L 115.890771 229.718915 
L 115.917826 229.835525 
L 115.931354 229.638657 
L 116.012521 229.373541 
L 115.985465 229.652354 
L 116.053105 229.553949 
L 116.066632 229.598391 
L 116.161327 229.242428 
L 116.174855 229.274683 
L 116.201911 229.383408 
L 116.242494 229.139677 
L 116.26955 229.366491 
L 116.377773 228.854883 
L 116.404828 229.061706 
L 116.431884 229.056139 
L 116.526579 228.781052 
L 116.540107 228.849243 
L 116.553635 228.894761 
L 116.58069 228.827762 
L 116.661857 228.577236 
L 116.621274 228.849323 
L 116.688913 228.653243 
L 116.702441 228.808848 
L 116.743024 228.480229 
L 116.783608 228.614933 
L 116.89183 228.323017 
L 116.905358 228.380431 
L 116.918886 228.466289 
L 116.95947 228.20856 
L 117.000053 228.268156 
L 117.013581 228.259666 
L 117.094748 228.024032 
L 117.054165 228.289257 
L 117.121804 228.123405 
L 117.135332 228.148035 
L 117.162387 228.02381 
L 117.230026 227.795694 
L 117.216499 228.101749 
L 117.27061 227.913138 
L 117.284138 228.034614 
L 117.324721 227.747086 
L 117.365305 227.835955 
L 117.446472 227.476656 
L 117.473527 227.574455 
L 117.487055 227.74752 
L 117.527639 227.455229 
L 117.568222 227.575677 
L 117.676445 227.24437 
L 117.689973 227.292528 
L 117.717029 227.391116 
L 117.744084 227.117797 
L 117.798196 227.271984 
L 117.89289 226.990098 
L 117.906418 227.028378 
L 117.919946 227.082253 
L 117.96053 226.809761 
L 118.001113 227.010574 
L 118.190503 226.611577 
L 118.204031 226.68036 
L 118.217558 226.802974 
L 118.258142 226.488959 
L 118.298725 226.549457 
L 118.39342 226.236582 
L 118.434004 226.421311 
L 118.447532 226.446827 
L 118.46106 226.254644 
L 118.542227 226.072539 
L 118.501643 226.349648 
L 118.569282 226.227345 
L 118.58281 226.334296 
L 118.596338 226.041439 
L 118.650449 226.247094 
L 118.745144 225.833649 
L 118.785728 225.949037 
L 118.799255 226.033954 
L 118.812783 225.729624 
L 118.880422 225.886978 
L 118.975117 225.510485 
L 118.988645 225.615065 
L 119.002173 225.756703 
L 119.042756 225.46869 
L 119.08334 225.607301 
L 119.178035 225.245618 
L 119.218618 225.383535 
L 119.232146 225.479373 
L 119.259202 225.224594 
L 119.313313 225.283517 
L 119.408008 224.96377 
L 119.421536 225.054851 
L 119.435064 225.211894 
L 119.475647 224.910491 
L 119.516231 225.043496 
L 119.624453 224.718474 
L 119.637981 224.777325 
L 119.651509 224.9592 
L 119.692093 224.534629 
L 119.732676 224.736258 
L 119.746204 224.724506 
L 119.840899 224.457975 
L 119.854427 224.521113 
L 119.867954 224.566126 
L 119.89501 224.503122 
L 119.989705 224.253775 
L 119.949122 224.579745 
L 120.003233 224.331307 
L 120.016761 224.47257 
L 120.057344 224.16465 
L 120.097928 224.29396 
L 120.20615 223.982673 
L 120.219678 224.164472 
L 120.27379 223.908614 
L 120.314373 223.958695 
L 120.327901 223.947206 
L 120.422596 223.721847 
L 120.368484 223.972461 
L 120.436124 223.813695 
L 120.449651 223.838296 
L 120.463179 223.783374 
L 120.544346 223.514824 
L 120.58493 223.611759 
L 120.598458 223.723592 
L 120.639041 223.449063 
L 120.679625 223.53407 
L 120.77432 223.179009 
L 120.787847 223.285795 
L 120.801375 223.433618 
L 120.841959 223.167498 
L 120.882542 223.280491 
L 120.990765 222.960223 
L 121.004293 223.005459 
L 121.017821 223.19257 
L 121.058404 222.767338 
L 121.112515 222.979087 
L 121.20721 222.7106 
L 121.220738 222.747384 
L 121.274849 222.54028 
L 121.315433 222.834701 
L 121.423656 222.410902 
L 121.437184 222.456157 
L 121.464239 222.545023 
L 121.504823 222.341799 
L 121.531878 222.522569 
L 121.640101 222.156794 
L 121.667157 222.243641 
L 121.694212 222.216369 
L 121.788907 221.969696 
L 121.802435 222.048498 
L 121.815963 222.083723 
L 121.843019 221.894661 
L 121.89713 221.996914 
L 122.005353 221.690666 
L 122.01888 221.750803 
L 122.032408 221.814009 
L 122.059464 221.590175 
L 122.113575 221.701461 
L 122.289437 221.270512 
L 122.316493 221.50204 
L 122.357076 221.229066 
L 122.411188 221.3424 
L 122.492355 221.025723 
L 122.51941 221.124118 
L 122.546466 221.231688 
L 122.559994 221.057278 
L 122.641161 220.817045 
L 122.614105 221.069869 
L 122.668217 220.930188 
L 122.681744 221.101354 
L 122.722328 220.719885 
L 122.762911 220.861514 
L 122.776439 220.849305 
L 122.871134 220.584369 
L 122.884662 220.663799 
L 122.89819 220.786161 
L 122.938773 220.45761 
L 122.979357 220.591645 
L 123.074052 220.258849 
L 123.114635 220.424747 
L 123.128163 220.468823 
L 123.155219 220.241457 
L 123.195802 220.376367 
L 123.304025 220.041919 
L 123.317553 220.118487 
L 123.331081 220.250284 
L 123.371664 219.956282 
L 123.412248 220.079421 
L 123.52047 219.77821 
L 123.533998 219.947584 
L 123.58811 219.705561 
L 123.628693 219.757046 
L 123.642221 219.742426 
L 123.736916 219.522678 
L 123.682804 219.761394 
L 123.750444 219.693795 
L 123.791027 219.32271 
L 123.89925 219.41496 
L 123.912778 219.519306 
L 123.953361 219.256334 
L 123.993945 219.338806 
L 124.088639 218.987992 
L 124.048056 219.379495 
L 124.102167 219.098588 
L 124.115695 219.228217 
L 124.156279 218.983748 
L 124.196862 219.09131 
L 124.305085 218.717408 
L 124.318613 218.830405 
L 124.332141 218.915604 
L 124.386252 218.720825 
L 124.413308 218.812402 
L 124.426835 218.797685 
L 124.52153 218.537347 
L 124.535058 218.571416 
L 124.562114 218.690657 
L 124.602697 218.460391 
L 124.629753 218.553948 
L 124.737976 218.246028 
L 124.751503 218.288906 
L 124.778559 218.373739 
L 124.819143 218.176717 
L 124.846198 218.348086 
L 124.954421 218.007667 
L 124.967949 218.037841 
L 124.981477 218.082881 
L 125.008532 218.052652 
L 125.103227 217.814612 
L 125.116755 217.963557 
L 125.252033 217.645675 
L 125.265561 217.703571 
L 125.279089 217.818769 
L 125.319673 217.542846 
L 125.360256 217.646652 
L 125.454951 217.283175 
L 125.468479 217.392102 
L 125.482007 217.514818 
L 125.536118 217.283893 
L 125.563174 217.385818 
L 125.671396 217.001746 
L 125.698452 217.201058 
L 125.71198 217.238564 
L 125.739035 217.075928 
L 125.806675 216.899229 
L 125.779619 217.121719 
L 125.847258 217.007591 
L 125.860786 217.089752 
L 125.887842 216.858638 
L 125.928425 217.016905 
L 126.036648 216.600122 
L 126.050176 216.696476 
L 126.063704 216.8282 
L 126.104287 216.561685 
L 126.144871 216.682344 
L 126.253093 216.364647 
L 126.266621 216.502165 
L 126.469539 216.129167 
L 126.293677 216.565121 
L 126.496594 216.216485 
L 126.510122 216.262922 
L 126.52365 215.99988 
L 126.577761 216.146001 
L 126.685984 215.851541 
L 126.699512 215.903174 
L 126.71304 215.97638 
L 126.740095 215.796418 
L 126.794207 215.870428 
L 127.037708 215.315869 
L 127.051236 215.43673 
L 127.078291 215.577177 
L 127.118875 215.325077 
L 127.159458 215.437714 
L 127.267681 215.167981 
L 127.281209 215.225379 
L 127.321792 215.045189 
L 127.362376 215.279257 
L 127.484126 214.904707 
L 127.511182 215.004826 
L 127.551766 214.769844 
L 127.578821 214.973119 
L 127.700572 214.645143 
L 127.7141 214.697546 
L 127.727627 214.734422 
L 127.754683 214.502676 
L 127.808794 214.692251 
L 127.889961 214.371534 
L 127.930545 214.460797 
L 127.944073 214.474028 
L 127.957601 214.371414 
L 127.971128 214.378363 
L 128.052296 214.183899 
L 128.011712 214.45598 
L 128.079351 214.304286 
L 128.092879 214.305304 
L 128.187574 213.94581 
L 128.21463 214.118321 
L 128.241685 214.174352 
L 128.322852 213.992335 
L 128.404019 213.659004 
L 128.431075 213.8231 
L 128.444603 213.926296 
L 128.485186 213.662077 
L 128.52577 213.779046 
L 128.633992 213.497097 
L 128.64752 213.552416 
L 128.701632 213.378129 
L 128.728687 213.610476 
L 128.850438 213.244741 
L 128.863966 213.314366 
L 128.877494 213.342434 
L 128.904549 213.261913 
L 128.985716 213.046308 
L 128.945133 213.305221 
L 129.012772 213.129372 
L 129.0263 213.249853 
L 129.066883 212.9797 
L 129.107467 213.073105 
L 129.215689 212.829472 
L 129.229217 212.883445 
L 129.242745 212.97877 
L 129.283329 212.704724 
L 129.310384 212.823505 
L 129.418607 212.542134 
L 129.445663 212.644952 
L 129.45919 212.655345 
L 129.472718 212.540111 
L 129.499774 212.442314 
L 129.540358 212.585289 
L 129.64858 212.314954 
L 129.662108 212.363186 
L 129.675636 212.378648 
L 129.689164 212.359686 
L 129.770331 212.033583 
L 129.797386 212.158719 
L 129.810914 212.285681 
L 129.851498 212.02411 
L 129.892081 212.134436 
L 130.000304 211.847905 
L 130.013832 211.896621 
L 130.02736 211.96701 
L 130.067943 211.731334 
L 130.108527 211.841589 
L 130.122054 211.845353 
L 130.216749 211.606502 
L 130.230277 211.658721 
L 130.243805 211.694645 
L 130.270861 211.639702 
L 130.352028 211.425076 
L 130.311444 211.650697 
L 130.379083 211.482417 
L 130.392611 211.610016 
L 130.433195 211.335582 
L 130.473778 211.441531 
L 130.582001 211.180177 
L 130.595529 211.235319 
L 130.609057 211.354488 
L 130.64964 211.042727 
L 130.690224 211.130719 
L 130.703751 211.127658 
L 130.798446 210.923943 
L 130.744335 211.144518 
L 130.811974 211.000612 
L 130.825502 211.019761 
L 130.852558 210.918253 
L 130.920197 210.721601 
L 130.906669 210.976687 
L 130.96078 210.812547 
L 130.974308 210.912689 
L 131.014892 210.671081 
L 131.055475 210.740537 
L 131.15017 210.497996 
L 131.177226 210.567899 
L 131.190754 210.620097 
L 131.204281 210.414042 
L 131.258393 210.501908 
L 131.366615 210.222136 
L 131.393671 210.335349 
L 131.407199 210.337126 
L 131.501894 210.005082 
L 131.528949 210.14577 
L 131.569533 210.044092 
L 131.610116 210.06136 
L 131.731867 209.795155 
L 131.758923 209.982265 
L 131.799506 209.714229 
L 131.84009 209.823838 
L 131.948312 209.550845 
L 131.96184 209.603444 
L 131.975368 209.740938 
L 132.015952 209.401809 
L 132.056535 209.532086 
L 132.070063 209.524245 
L 132.164758 209.304914 
L 132.178286 209.370694 
L 132.191813 209.398305 
L 132.218869 209.320618 
L 132.286508 209.137071 
L 132.27298 209.380287 
L 132.327092 209.190774 
L 132.34062 209.299905 
L 132.381203 209.046832 
L 132.421787 209.13553 
L 132.516482 208.900612 
L 132.543537 208.948461 
L 132.557065 209.008038 
L 132.597649 208.796951 
L 132.624704 208.885952 
L 132.732927 208.621195 
L 132.759983 208.717696 
L 132.77351 208.728065 
L 132.787038 208.648453 
L 132.868205 208.423177 
L 132.827622 208.676078 
L 132.908789 208.529998 
L 132.922317 208.609153 
L 132.949372 208.398401 
L 133.003484 208.439668 
L 133.084651 208.134802 
L 133.111706 208.244279 
L 133.125234 208.364166 
L 133.165818 208.116253 
L 133.206401 208.219882 
L 133.314624 207.94284 
L 133.328152 207.988069 
L 133.34168 208.137884 
L 133.382263 207.783064 
L 133.422847 207.945775 
L 133.436374 207.935598 
L 133.531069 207.707308 
L 133.544597 207.755549 
L 133.558125 207.790828 
L 133.585181 207.73881 
L 133.679875 207.522322 
L 133.639292 207.795658 
L 133.693403 207.584664 
L 133.706931 207.699327 
L 133.747515 207.443386 
L 133.788098 207.544307 
L 133.896321 207.296979 
L 133.909849 207.343743 
L 133.923377 207.409106 
L 133.96396 207.203641 
L 133.991016 207.284419 
L 134.166878 206.948462 
L 134.193933 207.057624 
L 134.613296 206.41826 
L 134.626824 206.493494 
L 134.640352 206.602653 
L 134.680935 206.358217 
L 134.721519 206.433534 
L 134.735047 206.438276 
L 134.816214 206.15977 
L 134.843269 206.281261 
L 134.883853 206.183877 
L 134.924436 206.198836 
L 135.046187 205.938729 
L 135.073243 206.11622 
L 135.113826 205.862684 
L 135.15441 205.966352 
L 135.262632 205.687798 
L 135.27616 205.753986 
L 135.289688 205.822983 
L 135.330271 205.632522 
L 135.370855 205.687868 
L 135.384383 205.674925 
L 135.479078 205.46235 
L 135.492606 205.523588 
L 135.519661 205.544971 
L 135.533189 205.396107 
L 135.5873 205.471927 
L 135.695523 205.210652 
L 135.709051 205.257566 
L 135.722579 205.307946 
L 135.749634 205.123614 
L 135.803746 205.267229 
L 135.911968 204.972562 
L 135.925496 205.031027 
L 135.939024 205.053735 
L 135.96608 204.984107 
L 136.047247 204.797384 
L 136.006663 205.0217 
L 136.08783 204.87128 
L 136.101358 204.883829 
L 136.182525 204.616407 
L 136.209581 204.690749 
L 136.236637 204.778067 
L 136.250164 204.634789 
L 136.412498 204.351677 
L 136.439554 204.540733 
L 136.480138 204.305751 
L 136.520721 204.402011 
L 136.628944 204.100651 
L 136.642472 204.181582 
L 136.655999 204.251047 
L 136.696583 204.083214 
L 136.737166 204.138777 
L 136.750694 204.124969 
L 136.845389 203.904367 
L 136.858917 203.949581 
L 136.872445 203.983947 
L 136.899501 203.93348 
L 136.994195 203.722972 
L 136.953612 203.983794 
L 137.007723 203.783285 
L 137.021251 203.890197 
L 137.061835 203.647069 
L 137.102418 203.743243 
L 137.210641 203.484743 
L 137.224169 203.621492 
L 137.345919 203.274188 
L 137.386503 203.400662 
L 137.40003 203.401432 
L 137.481197 203.08573 
L 137.521781 203.257043 
L 137.535309 203.250852 
L 137.643532 203.013304 
L 137.657059 203.059734 
L 137.670587 203.094234 
L 137.697643 202.900435 
L 137.738226 203.034479 
L 137.927616 202.648315 
L 137.941144 202.719344 
L 137.954672 202.820978 
L 137.995255 202.534294 
L 138.035839 202.689469 
L 138.130534 202.399913 
L 138.171117 202.509193 
L 138.184645 202.561615 
L 138.211701 202.367624 
L 138.252284 202.427784 
L 138.509313 202.037358 
L 138.522841 202.08942 
L 138.536369 202.176474 
L 138.576952 201.937125 
L 138.617536 202.082494 
L 138.712231 201.736894 
L 138.739286 201.898695 
L 138.942204 201.556217 
L 138.955732 201.604208 
L 138.969259 201.698764 
L 139.009843 201.468579 
L 139.050426 201.549967 
L 139.145121 201.242396 
L 139.172177 201.426733 
L 139.361567 200.990003 
L 139.375095 201.087593 
L 139.40215 201.180064 
L 139.442734 200.989618 
L 139.483317 201.066336 
L 139.59154 200.849406 
L 139.605068 200.892848 
L 139.618596 200.909967 
L 139.632123 200.888507 
L 139.726818 200.621262 
L 139.686235 200.921141 
L 139.740346 200.700183 
L 139.753874 200.803886 
L 139.794457 200.5878 
L 139.835041 200.678481 
L 139.943264 200.409574 
L 139.970319 200.492975 
L 139.983847 200.569092 
L 140.024431 200.372892 
L 140.065014 200.408092 
L 140.159709 200.19544 
L 140.173237 200.237144 
L 140.200293 200.296996 
L 140.21382 200.154496 
L 140.267932 200.200852 
L 140.376154 199.945006 
L 140.389682 199.98363 
L 140.40321 200.042302 
L 140.430266 199.897161 
L 140.484377 199.947705 
L 140.795517 199.406827 
L 140.822573 199.507341 
L 140.836101 199.562031 
L 140.863157 199.408289 
L 140.917268 199.534709 
L 141.025491 199.220617 
L 141.039018 199.270911 
L 141.052546 199.405866 
L 141.09313 199.100915 
L 141.133713 199.22243 
L 141.147241 199.230154 
L 141.241936 198.970611 
L 141.255464 199.037793 
L 141.268992 199.132566 
L 141.309575 198.903058 
L 141.350159 199.067479 
L 141.444854 198.734734 
L 141.471909 198.831083 
L 141.498965 198.881287 
L 141.512493 198.748134 
L 141.566604 198.810676 
L 141.674827 198.497629 
L 141.701882 198.665402 
L 141.742466 198.442446 
L 141.783049 198.534796 
L 141.877744 198.234897 
L 141.9048 198.367567 
L 141.931856 198.414145 
L 142.013023 198.257625 
L 142.107718 198.059742 
L 142.121245 198.16659 
L 142.256524 197.90552 
L 142.270052 197.950953 
L 142.283579 198.037921 
L 142.324163 197.819692 
L 142.364746 197.896809 
L 142.459441 197.604019 
L 142.486497 197.767783 
L 142.675887 197.357421 
L 142.689414 197.447221 
L 142.71647 197.536957 
L 142.757054 197.351996 
L 142.797637 197.425302 
L 142.90586 197.213405 
L 142.919388 197.255146 
L 142.932916 197.335323 
L 142.973499 197.103387 
L 143.000555 197.19821 
L 143.108777 196.962474 
L 143.135833 197.038876 
L 143.149361 197.046488 
L 143.162889 196.955007 
L 143.176417 196.947547 
L 143.244056 196.77074 
L 143.230528 196.984431 
L 143.284639 196.864934 
L 143.298167 196.936409 
L 143.338751 196.749883 
L 143.379334 196.78348 
L 143.474029 196.578262 
L 143.501085 196.640492 
L 143.514613 196.675016 
L 143.52814 196.480679 
L 143.582252 196.57538 
L 143.690474 196.334171 
L 143.704002 196.370147 
L 143.71753 196.426132 
L 143.758114 196.232615 
L 143.798697 196.317375 
L 143.812225 196.319641 
L 143.90692 196.116058 
L 143.920448 196.153731 
L 143.933975 196.181403 
L 143.961031 196.137397 
L 144.042198 195.877988 
L 144.069254 196.013133 
L 144.082782 196.07227 
L 144.123365 195.870827 
L 144.163949 195.952824 
L 144.272171 195.728021 
L 144.285699 195.770144 
L 144.299227 195.868565 
L 144.339811 195.60773 
L 144.380394 195.67911 
L 144.393922 195.675501 
L 144.488617 195.498238 
L 144.434505 195.680195 
L 144.502145 195.556889 
L 144.515672 195.571425 
L 144.542728 195.4902 
L 144.623895 195.319362 
L 144.583312 195.53556 
L 144.650951 195.389609 
L 144.664479 195.471913 
L 144.705062 195.26794 
L 144.745646 195.322528 
L 144.84034 195.117689 
L 144.867396 195.166585 
L 144.880924 195.208587 
L 144.921507 195.035556 
L 144.948563 195.10455 
L 145.056786 194.86936 
L 145.083842 194.954979 
L 145.110897 194.865867 
L 145.192064 194.680342 
L 145.151481 194.924523 
L 145.232648 194.782558 
L 145.246176 194.835089 
L 145.273231 194.659528 
L 145.313815 194.704447 
L 145.922567 193.91972 
L 145.936095 193.983651 
L 145.949623 194.069127 
L 145.990207 193.871939 
L 146.03079 194.017506 
L 146.125485 193.726957 
L 146.166068 193.788321 
L 146.179596 193.8457 
L 146.206652 193.6769 
L 146.247235 193.754182 
L 146.355458 193.46092 
L 146.368986 193.528091 
L 146.382514 193.617749 
L 146.423097 193.426205 
L 146.463681 193.504323 
L 146.558376 193.245925 
L 146.598959 193.327956 
L 146.612487 193.394248 
L 146.653071 193.215388 
L 146.693654 193.248827 
L 146.774821 192.995567 
L 146.801877 193.074597 
L 146.815405 193.172232 
L 146.855988 192.97088 
L 146.896572 193.046053 
L 147.004794 192.812373 
L 147.018322 192.845289 
L 147.03185 192.965222 
L 147.072433 192.674659 
L 147.113017 192.802707 
L 147.126545 192.793332 
L 147.22124 192.599322 
L 147.248295 192.660558 
L 147.518852 192.31105 
L 147.53238 192.34307 
L 147.545908 192.410279 
L 147.586491 192.222689 
L 147.613547 192.312028 
L 147.72177 192.018781 
L 147.735297 192.086065 
L 147.748825 192.168482 
L 147.802937 191.99641 
L 147.829992 192.065599 
L 147.924687 191.834302 
L 147.965271 191.888348 
L 147.978799 191.963203 
L 148.019382 191.771747 
L 148.059966 191.823132 
L 148.141133 191.588216 
L 148.168188 191.629791 
L 148.181716 191.736427 
L 148.235827 191.548622 
L 148.262883 191.612044 
L 148.371106 191.384497 
L 148.398161 191.464128 
L 148.425217 191.38338 
L 148.506384 191.206178 
L 148.465801 191.428857 
L 148.546968 191.296842 
L 148.560495 191.345731 
L 148.587551 191.179503 
L 148.628135 191.22267 
L 149.088081 190.597354 
L 149.128665 190.701406 
L 149.142192 190.718872 
L 149.169248 190.573716 
L 149.196304 190.63954 
L 149.385693 190.345432 
L 149.399221 190.380015 
L 149.412749 190.420571 
L 149.439805 190.274549 
L 149.493916 190.380161 
L 149.602139 190.131558 
L 149.615667 190.173747 
L 149.629195 190.190931 
L 149.642722 190.144543 
L 149.65625 190.136348 
L 149.737417 189.977529 
L 149.696834 190.156923 
L 149.764473 190.041632 
L 149.778001 190.049408 
L 149.791529 189.995119 
L 149.872696 189.813081 
L 149.913279 189.87931 
L 149.926807 189.938933 
L 149.96739 189.769179 
L 150.007974 189.80081 
L 150.102669 189.573044 
L 150.116197 189.629928 
L 150.129724 189.721618 
L 150.170308 189.5341 
L 150.210892 189.602601 
L 150.319114 189.377783 
L 150.332642 189.408019 
L 150.34617 189.518391 
L 150.386753 189.246727 
L 150.427337 189.367582 
L 150.440865 189.356844 
L 150.53556 189.169779 
L 150.562615 189.225967 
L 151.03609 188.606557 
L 151.049617 188.667745 
L 151.063145 188.743473 
L 151.117257 188.580877 
L 151.144312 188.645999 
L 151.387813 188.270956 
L 151.414869 188.330335 
L 151.428397 188.368625 
L 151.46898 188.163991 
L 151.496036 188.312724 
L 151.617786 188.03716 
L 151.65837 188.106222 
L 151.901871 187.78471 
L 151.928927 187.826435 
L 151.955982 187.806754 
L 152.050677 187.597675 
L 152.010094 187.832975 
L 152.064205 187.654211 
L 152.077733 187.73759 
L 152.118316 187.549134 
L 152.1589 187.620596 
L 152.267123 187.389064 
L 152.28065 187.440592 
L 152.294178 187.490482 
L 152.334762 187.345585 
L 152.375345 187.382992 
L 152.821764 186.919106 
L 152.916459 186.761348 
L 152.929987 186.801321 
L 152.943514 186.817819 
L 152.957042 186.777023 
L 152.97057 186.765987 
L 153.051737 186.614378 
L 153.011154 186.781308 
L 153.092321 186.661868 
L 153.105849 186.670293 
L 153.187016 186.463051 
L 153.227599 186.51485 
L 153.241127 186.569342 
L 153.28171 186.407694 
L 153.322294 186.438138 
L 153.416989 186.21089 
L 153.376405 186.455457 
L 153.430517 186.272748 
L 153.444044 186.351846 
L 153.484628 186.18091 
L 153.525211 186.244217 
L 153.633434 185.997819 
L 153.66049 186.108432 
L 153.998686 185.660876 
L 154.012214 185.707561 
L 154.025741 185.78511 
L 154.066325 185.598545 
L 154.106908 185.665441 
L 154.215131 185.453166 
L 154.228659 185.549853 
L 154.431576 185.2495 
L 154.445104 185.34395 
L 154.485688 185.125091 
L 154.539799 185.232556 
L 154.648022 185.035048 
L 154.66155 185.06757 
L 154.715661 184.944445 
L 154.742717 185.088061 
L 154.864467 184.823495 
L 154.877995 184.869043 
L 154.891523 184.879978 
L 154.905051 184.824126 
L 154.918579 184.814228 
L 154.999746 184.624849 
L 154.959162 184.844864 
L 155.040329 184.744008 
L 155.135024 184.515024 
L 155.175607 184.581932 
L 155.189135 184.622127 
L 155.216191 184.474207 
L 155.256774 184.55916 
L 155.364997 184.292939 
L 155.378525 184.345419 
L 155.392053 184.422545 
L 155.432636 184.24499 
L 155.47322 184.310991 
L 155.581443 184.094298 
L 155.608498 184.153296 
L 155.622026 184.19962 
L 155.649082 184.052666 
L 155.689665 184.081164 
L 157.515923 182.162599 
L 157.556507 182.251406 
L 157.570035 182.285558 
L 157.59709 182.144999 
L 157.637674 182.171453 
L 158.679317 181.0691 
L 158.692845 181.117854 
L 158.706373 181.188195 
L 158.746956 181.022525 
L 158.78754 181.082948 
L 158.882235 180.854802 
L 158.922818 180.928513 
L 158.936346 180.972654 
L 158.963402 180.832305 
L 159.003985 180.861142 
L 159.680377 180.125772 
L 159.707433 180.159877 
L 159.72096 180.230242 
L 159.761544 180.058646 
L 159.802128 180.108559 
L 159.91035 179.931357 
L 159.923878 179.960468 
L 159.937406 180.021909 
L 159.977989 179.83643 
L 160.005045 179.906987 
L 160.194435 179.632602 
L 160.235018 179.721324 
L 160.248546 179.566005 
L 160.302657 179.670604 
L 160.397352 179.421969 
L 160.437936 179.488434 
L 160.451464 179.512938 
L 160.464991 179.342946 
L 160.519103 179.410944 
L 160.613798 179.292422 
L 160.654381 179.330224 
L 160.762604 179.082219 
L 160.78966 179.197926 
L 160.830243 179.000186 
L 160.884354 179.105379 
L 160.979049 178.866306 
L 161.006105 178.967424 
L 161.276662 178.62739 
L 161.29019 178.655678 
L 161.303717 178.728813 
L 161.344301 178.525721 
L 161.384884 178.582947 
L 161.547218 178.41781 
L 161.614858 178.290851 
L 161.60133 178.439019 
L 161.655441 178.319969 
L 161.668969 178.378499 
L 161.709552 178.222382 
L 161.750136 178.260274 
L 161.844831 178.096995 
L 161.871886 178.123292 
L 161.885414 178.153155 
L 161.925998 178.019678 
L 161.953053 178.06555 
L 162.128915 177.801065 
L 162.155971 177.894924 
L 162.196555 177.726908 
L 162.250666 177.824971 
L 162.345361 177.584713 
L 162.372416 177.668388 
L 162.413 177.570929 
L 162.453583 177.635995 
L 162.575334 177.406683 
L 162.60239 177.496908 
L 162.642973 177.33938 
L 162.670029 177.445203 
L 162.778252 177.17567 
L 162.805307 177.269118 
L 163.157031 176.894187 
L 163.184087 176.952617 
L 163.211142 176.829599 
L 163.251726 176.873165 
L 163.359948 176.641952 
L 163.373476 176.68835 
L 163.387004 176.748552 
L 163.427588 176.612427 
L 163.468171 176.657054 
L 163.657561 176.414023 
L 163.671089 176.438465 
L 163.711672 176.3226 
L 163.765784 176.402285 
L 163.874006 176.212446 
L 163.887534 176.250279 
L 163.928118 176.190902 
L 164.009285 176.068238 
L 163.968701 176.221863 
L 164.049868 176.100301 
L 164.063396 176.098293 
L 164.144563 175.915775 
L 164.185147 175.977574 
L 164.198674 176.004857 
L 164.22573 175.880502 
L 164.266314 175.904988 
L 164.72626 175.37706 
L 164.766843 175.445607 
L 164.793899 175.360351 
L 164.84801 175.377726 
L 164.956233 175.219219 
L 164.969761 175.241229 
L 164.983289 175.294136 
L 165.023872 175.146788 
L 165.064456 175.182045 
L 165.145623 175.008616 
L 165.186206 175.093769 
L 165.307957 174.857863 
L 165.34854 174.909924 
L 165.889654 174.349771 
L 165.903182 174.381573 
L 165.91671 174.434198 
L 165.957293 174.269432 
L 165.997877 174.314008 
L 166.173738 174.097007 
L 166.214322 174.144331 
L 166.22785 174.054584 
L 166.281961 174.073988 
L 166.390184 173.894934 
L 166.403712 173.916049 
L 166.41724 173.946 
L 166.444295 173.845559 
L 166.498407 173.904269 
L 166.606629 173.707624 
L 166.620157 173.730532 
L 166.633685 173.742887 
L 166.660741 173.70582 
L 166.755435 173.575363 
L 166.782491 173.605644 
L 166.796019 173.612704 
L 166.877186 173.446414 
L 166.917769 173.472506 
L 166.931297 173.515145 
L 166.971881 173.382405 
L 167.012464 173.404752 
L 167.107159 173.217996 
L 167.134215 173.319545 
L 167.323605 173.018646 
L 167.35066 173.100555 
L 167.404772 172.993509 
L 167.431827 173.025153 
L 168.027052 172.481378 
L 168.121747 172.341984 
L 168.148803 172.374406 
L 168.16233 172.386523 
L 168.270553 172.216711 
L 168.284081 172.237804 
L 168.297609 172.285768 
L 168.338192 172.146934 
L 168.378776 172.179877 
L 168.473471 171.983703 
L 168.500526 172.081083 
L 168.689916 171.78451 
L 168.703444 171.834968 
L 168.7305 171.876851 
L 168.771083 171.762073 
L 168.798139 171.802294 
L 169.04164 171.563825 
L 169.082223 171.574709 
L 169.176918 171.419765 
L 169.393364 171.267786 
L 169.488058 171.124035 
L 169.515114 171.159769 
L 169.54217 171.085404 
L 169.596281 171.09844 
L 169.704504 170.926596 
L 169.731559 170.973602 
L 169.826254 170.880198 
L 169.920949 170.74332 
L 169.948005 170.775331 
L 170.218562 170.499426 
L 170.232089 170.512575 
L 170.245617 170.551317 
L 170.286201 170.425423 
L 170.326784 170.446787 
L 170.421479 170.264391 
L 170.448535 170.356148 
L 170.637924 170.094864 
L 170.678508 170.174653 
L 170.719091 170.046537 
L 170.746147 170.076806 
L 173.140574 167.990173 
L 173.235269 167.853228 
L 173.262325 167.881475 
L 173.600521 167.541213 
L 173.614048 167.560337 
L 173.627576 167.609924 
L 173.66816 167.457138 
L 173.695215 167.509269 
L 173.884605 167.276099 
L 173.911661 167.319037 
L 173.925189 167.344331 
L 173.938717 167.228673 
L 173.992828 167.292028 
L 174.087523 167.098083 
L 174.128106 167.134295 
L 174.141634 167.154326 
L 174.16869 167.052437 
L 174.209273 167.090493 
L 174.317496 166.906447 
L 174.331024 166.936724 
L 174.344552 166.982802 
L 174.385135 166.858313 
L 174.425719 166.89364 
L 174.520414 166.718991 
L 174.560997 166.762459 
L 174.574525 166.786668 
L 174.601581 166.684685 
L 174.642164 166.697724 
L 175.494418 165.966105 
L 175.507946 165.993309 
L 175.535001 165.89584 
L 175.575585 165.925 
L 175.683807 165.737571 
L 175.697335 165.769668 
L 175.710863 165.813421 
L 175.751447 165.70084 
L 175.79203 165.730412 
L 175.98142 165.522911 
L 176.035531 165.44005 
L 176.089643 165.491778 
L 176.184337 165.335538 
L 176.211393 165.364481 
L 176.319616 165.257828 
L 176.360199 165.281756 
L 176.468422 165.071217 
L 176.522533 165.128842 
L 176.576645 165.058768 
L 177.198925 164.471744 
L 177.212453 164.513363 
L 177.334203 164.391961 
L 177.523593 164.264809 
L 177.618288 164.170605 
L 177.699455 164.065067 
L 177.740039 164.082296 
L 177.821206 164.023207 
L 177.9159 163.895218 
L 177.942956 163.910446 
L 178.051179 163.784506 
L 178.213513 163.645319 
L 178.091762 163.823867 
L 178.227041 163.664405 
L 178.240569 163.699628 
L 178.281152 163.576622 
L 178.308208 163.625425 
L 178.497597 163.410357 
L 178.565237 163.330685 
L 178.60582 163.402358 
L 178.714043 163.228213 
L 178.727571 163.241949 
L 178.768154 163.178406 
L 178.822265 163.215676 
L 178.930488 163.054844 
L 178.944016 163.071526 
L 178.9846 163.042706 
L 179.079294 162.935121 
L 179.10635 162.960681 
L 179.29574 162.759268 
L 179.309268 162.77321 
L 179.403962 162.708658 
L 179.579824 162.507887 
L 179.60688 162.567446 
L 179.647463 162.437637 
L 179.688047 162.476553 
L 179.863909 162.285468 
L 179.877437 162.29534 
L 179.931548 162.204521 
L 179.972132 162.279564 
L 180.080354 162.102018 
L 180.093882 162.112251 
L 180.134466 162.065598 
L 180.188577 162.091906 
L 180.2968 161.934002 
L 180.323855 161.950209 
L 180.946136 161.384759 
L 180.959664 161.409343 
L 180.973191 161.44522 
L 181.013775 161.340924 
L 181.054358 161.355157 
L 181.135525 161.296526 
L 181.243748 161.173454 
L 181.257276 161.185355 
L 181.365499 161.092271 
L 181.500777 160.963922 
L 181.717222 160.819378 
L 181.811917 160.701102 
L 181.838973 160.722971 
L 181.92014 160.664218 
L 182.028363 160.523135 
L 182.055418 160.551564 
L 182.434198 160.252295 
L 182.515365 160.126268 
L 182.555948 160.135363 
L 182.569476 160.160017 
L 182.61006 160.064476 
L 182.637115 160.083042 
L 183.92226 159.0392 
L 183.935788 159.067152 
L 183.976371 158.968152 
L 184.016955 158.981232 
L 184.11165 158.833159 
L 184.152233 158.866472 
L 184.246928 158.780391 
L 184.328095 158.658182 
L 184.382206 158.675106 
L 184.558068 158.517234 
L 184.571596 158.52793 
L 184.585124 158.551213 
L 184.625707 158.450989 
L 184.652763 158.475067 
L 184.842153 158.278781 
L 184.909792 158.220796 
L 184.950375 158.261934 
L 185.04507 158.100847 
L 185.085654 158.128415 
L 185.166821 158.080618 
L 185.275043 157.938468 
L 185.288571 157.953948 
L 185.302099 157.983725 
L 185.342683 157.884919 
L 185.383266 157.901814 
L 185.477961 157.755326 
L 185.518544 157.786259 
L 185.5456 157.737653 
L 185.599712 157.718436 
L 187.66947 156.099558 
L 187.682998 156.127452 
L 187.723582 156.033959 
L 187.764165 156.043228 
L 187.885916 155.935388 
L 187.899444 155.947456 
L 188.007666 155.798619 
L 188.034722 155.845549 
L 188.210584 155.641603 
L 188.23764 155.658518 
L 188.413501 155.552142 
L 188.521724 155.426433 
L 188.535252 155.441873 
L 188.697586 155.325685 
L 188.792281 155.189896 
L 188.832864 155.213302 
L 188.914031 155.149817 
L 190.104481 154.218125 
L 190.118009 154.247394 
L 190.158592 154.154651 
L 190.199176 154.169571 
L 190.239759 154.113046 
L 190.280343 154.112197 
L 191.470792 153.18654 
L 191.524904 153.131744 
L 191.579015 153.151994 
L 191.754877 152.954652 
L 191.8631 152.922819 
L 192.038962 152.730986 
L 192.052489 152.75255 
L 192.160712 152.710767 
L 192.309518 152.560692 
L 192.444797 152.488924 
L 192.607131 152.344283 
L 192.837104 152.167413 
L 192.945327 152.130984 
L 193.121189 151.931918 
L 193.1753 151.948876 
L 193.229411 151.902216 
L 193.405273 151.714743 
L 193.445857 151.741626 
L 194.622778 150.867197 
L 194.771585 150.712705 
L 194.893335 150.691272 
L 195.069197 150.501966 
L 195.17742 150.469034 
L 195.380337 150.30821 
L 195.48856 150.222582 
L 195.745589 150.052383 
L 196.124368 149.785174 
L 196.232591 149.67452 
L 196.246119 149.679469 
L 196.30023 149.622732 
L 196.340814 149.62296 
L 196.503148 149.48026 
L 197.179539 149.002664 
L 197.233651 148.944752 
L 197.274234 148.961855 
L 197.450096 148.795327 
L 197.558319 148.743939 
L 197.747709 148.586365 
L 197.80182 148.525844 
L 197.855931 148.539686 
L 198.018265 148.367351 
L 198.126488 148.335538 
L 198.721713 147.912209 
L 198.870519 147.781545 
L 199.371049 147.456373 
L 199.506327 147.356288 
L 199.695717 147.203561 
L 199.709245 147.223481 
L 199.749828 147.145162 
L 199.790412 147.15105 
L 199.939218 147.046968 
L 200.575026 146.595202 
L 200.669721 146.535097 
L 200.832055 146.399329 
L 201.332585 146.051434 
L 201.873699 145.68998 
L 201.954866 145.649622 
L 201.968394 145.622211 
L 202.374229 145.344696 
L 202.698897 145.10904 
L 202.92887 144.936768 
L 203.05062 144.879532 
L 203.212954 144.740709 
L 203.334705 144.680559 
L 204.024625 144.20399 
L 204.146375 144.111987 
L 219.541053 134.198622 
L 225.452717 130.684763 
L 226.020887 130.355166 
L 227.035474 129.997049 
L 227.319559 129.994023 
L 227.725394 129.99347 
L 228.280035 129.993973 
L 228.604703 129.989345 
L 229.348734 130.001104 
L 229.56518 129.985367 
L 229.822209 129.992331 
L 231.729634 129.995767 
L 231.905495 129.995952 
L 232.69011 129.99281 
L 233.38003 129.995425 
L 236.843156 129.997054 
L 237.00549 129.993795 
L 237.871271 129.996412 
L 238.033605 129.996294 
L 241.496731 129.994991 
L 241.767288 129.995628 
L 247.516619 129.995537 
L 247.854815 129.996667 
L 248.017149 129.995466 
L 252.724836 129.995454 
L 252.927753 129.989217 
L 253.550034 129.999083 
L 253.766479 129.988331 
L 254.064091 129.998234 
L 254.280537 129.989533 
L 254.632261 129.997375 
L 254.808122 129.994615 
L 255.065151 129.999302 
L 255.51157 129.994736 
L 256.999632 130.001047 
L 257.216077 129.985445 
L 257.473106 129.992253 
L 258.866473 129.996151 
L 259.042335 129.995931 
L 259.624032 129.997383 
L 259.799894 129.994464 
L 260.016339 129.996597 
L 260.178674 129.995708 
L 275.383962 129.995187 
L 275.586879 129.989139 
L 276.14152 129.997191 
L 276.303854 129.99296 
L 276.966718 130.001372 
L 277.196692 129.991674 
L 277.426665 129.990347 
L 278.008362 129.992123 
L 278.860616 129.991645 
L 279.090589 129.990479 
L 279.712869 129.996498 
L 280.132232 129.992029 
L 280.889791 129.994829 
L 281.106236 129.992374 
L 281.45796 129.99422 
L 282.14788 129.996563 
L 288.817103 129.996905 
L 288.979437 129.994523 
L 290.359276 129.995716 
L 290.535138 129.99595 
L 291.387392 129.994654 
L 291.617365 129.996837 
L 295.472799 129.997029 
L 295.635133 129.993931 
L 296.568553 129.996058 
L 296.798527 129.995116 
L 297.069083 129.995539 
L 300.004624 129.995855 
L 300.46457 129.99711 
L 300.626904 129.993482 
L 301.370935 129.995035 
L 301.587381 129.992154 
L 301.925577 130.001334 
L 302.169078 129.997162 
L 303.440694 129.991856 
L 303.914169 129.997345 
L 304.130614 129.991676 
L 320.309906 129.996601 
L 320.47224 129.995696 
L 334.013605 129.995131 
L 334.23005 129.992053 
L 334.568246 130.001301 
L 334.825275 129.995928 
L 335.406972 129.997383 
L 335.582834 129.994445 
L 335.799279 129.996612 
L 335.961613 129.995658 
L 346.29688 129.996497 
L 346.459214 129.996035 
L 353.885996 129.993852 
L 354.102442 129.997002 
L 354.264776 129.994067 
L 355.252308 129.997238 
L 355.42817 129.995154 
L 355.712254 129.994929 
L 355.996339 129.994731 
L 356.67273 129.994852 
L 356.889176 129.99235 
L 357.2409 129.994242 
L 357.930819 129.996575 
L 364.600043 129.996917 
L 364.762377 129.99447 
L 366.074577 129.994006 
L 366.750969 129.993852 
L 367.292082 129.996245 
L 367.467944 129.995914 
L 367.99553 129.997835 
L 368.211975 129.990086 
L 368.563699 129.997349 
L 368.739561 129.9948 
L 368.996589 129.999648 
L 369.415952 129.991942 
L 372.459716 129.995879 
L 372.919662 129.997067 
L 373.081996 129.993728 
L 373.947778 129.996432 
L 374.110112 129.996234 
L 378.087295 129.995327 
L 378.37138 129.99441 
L 378.709576 129.990488 
L 379.128939 129.999366 
L 379.345384 129.987921 
L 379.642997 129.998554 
L 379.859442 129.989084 
L 380.197638 129.99657 
L 381.956257 129.991353 
L 383.471374 129.995953 
L 384.242461 130.001195 
L 384.458906 129.985246 
L 384.715935 129.99248 
L 392.12919 129.995597 
L 392.318579 129.997462 
L 392.535025 129.990597 
L 392.954388 129.999303 
L 393.170833 129.988013 
L 393.468445 129.998482 
L 393.684891 129.989186 
L 394.036615 129.997382 
L 394.212476 129.994492 
L 394.428922 129.996574 
L 394.591256 129.995785 
L 398.487273 129.990909 
L 398.487273 129.990909 
" style="fill:none;stroke:#d62728;stroke-linecap:square;stroke-width:1.5;"/>
   </g>
   <g id="line2d_20">
    <path clip-path="url(#p0d91445a6b)" d="M 73.832727 134.108918 
L 398.487273 134.108918 
L 398.487273 134.108918 
" style="fill:none;stroke:#9467bd;stroke-linecap:square;stroke-width:1.5;"/>
   </g>
   <g id="patch_3">
    <path d="M 57.6 307.584 
L 57.6 41.472 
" style="fill:none;stroke:#000000;stroke-linecap:square;stroke-linejoin:miter;stroke-width:0.8;"/>
   </g>
   <g id="patch_4">
    <path d="M 414.72 307.584 
L 414.72 41.472 
" style="fill:none;stroke:#000000;stroke-linecap:square;stroke-linejoin:miter;stroke-width:0.8;"/>
   </g>
   <g id="patch_5">
    <path d="M 57.6 307.584 
L 414.72 307.584 
" style="fill:none;stroke:#000000;stroke-linecap:square;stroke-linejoin:miter;stroke-width:0.8;"/>
   </g>
   <g id="patch_6">
    <path d="M 57.6 41.472 
L 414.72 41.472 
" style="fill:none;stroke:#000000;stroke-linecap:square;stroke-linejoin:miter;stroke-width:0.8;"/>
   </g>
   <g id="legend_1">
    <g id="patch_7">
     <path d="M 356.516875 122.862625 
L 407.72 122.862625 
Q 409.72 122.862625 409.72 120.862625 
L 409.72 48.472 
Q 409.72 46.472 407.72 46.472 
L 356.516875 46.472 
Q 354.516875 46.472 354.516875 48.472 
L 354.516875 120.862625 
Q 354.516875 122.862625 356.516875 122.862625 
z
" style="fill:#ffffff;opacity:0.8;stroke:#cccccc;stroke-linejoin:miter;"/>
    </g>
    <g id="line2d_21">
     <path d="M 358.516875 54.570438 
L 378.516875 54.570438 
" style="fill:none;stroke:#1f77b4;stroke-linecap:square;stroke-width:1.5;"/>
    </g>
    <g id="line2d_22"/>
    <g id="text_19">
     <!-- T+ -->
     <g transform="translate(386.516875 58.070438)scale(0.1 -0.1)">
      <defs>
       <path d="M 46 62.703125 
L 46 35.5 
L 73.1875 35.5 
L 73.1875 27.203125 
L 46 27.203125 
L 46 0 
L 37.796875 0 
L 37.796875 27.203125 
L 10.59375 27.203125 
L 10.59375 35.5 
L 37.796875 35.5 
L 37.796875 62.703125 
z
" id="DejaVuSans-43"/>
      </defs>
      <use xlink:href="#DejaVuSans-84"/>
      <use x="61.083984" xlink:href="#DejaVuSans-43"/>
     </g>
    </g>
    <g id="line2d_23">
     <path d="M 358.516875 69.248563 
L 378.516875 69.248563 
" style="fill:none;stroke:#ff7f0e;stroke-linecap:square;stroke-width:1.5;"/>
    </g>
    <g id="line2d_24"/>
    <g id="text_20">
     <!-- Tp -->
     <g transform="translate(386.516875 72.748563)scale(0.1 -0.1)">
      <defs>
       <path d="M 18.109375 8.203125 
L 18.109375 -20.796875 
L 9.078125 -20.796875 
L 9.078125 54.6875 
L 18.109375 54.6875 
L 18.109375 46.390625 
Q 20.953125 51.265625 25.265625 53.625 
Q 29.59375 56 35.59375 56 
Q 45.5625 56 51.78125 48.09375 
Q 58.015625 40.1875 58.015625 27.296875 
Q 58.015625 14.40625 51.78125 6.484375 
Q 45.5625 -1.421875 35.59375 -1.421875 
Q 29.59375 -1.421875 25.265625 0.953125 
Q 20.953125 3.328125 18.109375 8.203125 
z
M 48.6875 27.296875 
Q 48.6875 37.203125 44.609375 42.84375 
Q 40.53125 48.484375 33.40625 48.484375 
Q 26.265625 48.484375 22.1875 42.84375 
Q 18.109375 37.203125 18.109375 27.296875 
Q 18.109375 17.390625 22.1875 11.75 
Q 26.265625 6.109375 33.40625 6.109375 
Q 40.53125 6.109375 44.609375 11.75 
Q 48.6875 17.390625 48.6875 27.296875 
z
" id="DejaVuSans-112"/>
      </defs>
      <use xlink:href="#DejaVuSans-84"/>
      <use x="61.083984" xlink:href="#DejaVuSans-112"/>
     </g>
    </g>
    <g id="line2d_25">
     <path d="M 358.516875 83.926688 
L 378.516875 83.926688 
" style="fill:none;stroke:#2ca02c;stroke-linecap:square;stroke-width:1.5;"/>
    </g>
    <g id="line2d_26"/>
    <g id="text_21">
     <!-- T- -->
     <g transform="translate(386.516875 87.426688)scale(0.1 -0.1)">
      <defs>
       <path d="M 4.890625 31.390625 
L 31.203125 31.390625 
L 31.203125 23.390625 
L 4.890625 23.390625 
z
" id="DejaVuSans-45"/>
      </defs>
      <use xlink:href="#DejaVuSans-84"/>
      <use x="51.958984" xlink:href="#DejaVuSans-45"/>
     </g>
    </g>
    <g id="line2d_27">
     <path d="M 358.516875 98.604813 
L 378.516875 98.604813 
" style="fill:none;stroke:#d62728;stroke-linecap:square;stroke-width:1.5;"/>
    </g>
    <g id="line2d_28"/>
    <g id="text_22">
     <!-- O2 -->
     <g transform="translate(386.516875 102.104813)scale(0.1 -0.1)">
      <defs>
       <path d="M 39.40625 66.21875 
Q 28.65625 66.21875 22.328125 58.203125 
Q 16.015625 50.203125 16.015625 36.375 
Q 16.015625 22.609375 22.328125 14.59375 
Q 28.65625 6.59375 39.40625 6.59375 
Q 50.140625 6.59375 56.421875 14.59375 
Q 62.703125 22.609375 62.703125 36.375 
Q 62.703125 50.203125 56.421875 58.203125 
Q 50.140625 66.21875 39.40625 66.21875 
z
M 39.40625 74.21875 
Q 54.734375 74.21875 63.90625 63.9375 
Q 73.09375 53.65625 73.09375 36.375 
Q 73.09375 19.140625 63.90625 8.859375 
Q 54.734375 -1.421875 39.40625 -1.421875 
Q 24.03125 -1.421875 14.8125 8.828125 
Q 5.609375 19.09375 5.609375 36.375 
Q 5.609375 53.65625 14.8125 63.9375 
Q 24.03125 74.21875 39.40625 74.21875 
z
" id="DejaVuSans-79"/>
      </defs>
      <use xlink:href="#DejaVuSans-79"/>
      <use x="78.710938" xlink:href="#DejaVuSans-50"/>
     </g>
    </g>
    <g id="line2d_29">
     <path d="M 358.516875 113.282938 
L 378.516875 113.282938 
" style="fill:none;stroke:#9467bd;stroke-linecap:square;stroke-width:1.5;"/>
    </g>
    <g id="line2d_30"/>
    <g id="text_23">
     <!-- test -->
     <g transform="translate(386.516875 116.782938)scale(0.1 -0.1)">
      <use xlink:href="#DejaVuSans-116"/>
      <use x="39.208984" xlink:href="#DejaVuSans-101"/>
      <use x="100.732422" xlink:href="#DejaVuSans-115"/>
      <use x="152.832031" xlink:href="#DejaVuSans-116"/>
     </g>
    </g>
   </g>
  </g>
 </g>
 <defs>
  <clipPath id="p0d91445a6b">
   <rect height="266.112" width="357.12" x="57.6" y="41.472"/>
  </clipPath>
 </defs>
</svg>
