<?xml version="1.0" encoding="utf-8" standalone="no"?>
<!DOCTYPE svg PUBLIC "-//W3C//DTD SVG 1.1//EN"
  "http://www.w3.org/Graphics/SVG/1.1/DTD/svg11.dtd">
<!-- Created with matplotlib (https://matplotlib.org/) -->
<svg height="345.6pt" version="1.1" viewBox="0 0 460.8 345.6" width="460.8pt" xmlns="http://www.w3.org/2000/svg" xmlns:xlink="http://www.w3.org/1999/xlink">
 <metadata>
  <rdf:RDF xmlns:cc="http://creativecommons.org/ns#" xmlns:dc="http://purl.org/dc/elements/1.1/" xmlns:rdf="http://www.w3.org/1999/02/22-rdf-syntax-ns#">
   <cc:Work>
    <dc:type rdf:resource="http://purl.org/dc/dcmitype/StillImage"/>
    <dc:date>2020-10-24T13:51:32.789435</dc:date>
    <dc:format>image/svg+xml</dc:format>
    <dc:creator>
     <cc:Agent>
      <dc:title>Matplotlib v3.3.2, https://matplotlib.org/</dc:title>
     </cc:Agent>
    </dc:creator>
   </cc:Work>
  </rdf:RDF>
 </metadata>
 <defs>
  <style type="text/css">*{stroke-linecap:butt;stroke-linejoin:round;}</style>
 </defs>
 <g id="figure_1">
  <g id="patch_1">
   <path d="M 0 345.6 
L 460.8 345.6 
L 460.8 0 
L 0 0 
z
" style="fill:#ffffff;"/>
  </g>
  <g id="axes_1">
   <g id="patch_2">
    <path d="M 57.6 307.584 
L 414.72 307.584 
L 414.72 41.472 
L 57.6 41.472 
z
" style="fill:#ffffff;"/>
   </g>
   <g id="matplotlib.axis_1">
    <g id="xtick_1">
     <g id="line2d_1">
      <defs>
       <path d="M 0 0 
L 0 3.5 
" id="m04640d2feb" style="stroke:#000000;stroke-width:0.8;"/>
      </defs>
      <g>
       <use style="stroke:#000000;stroke-width:0.8;" x="73.832727" xlink:href="#m04640d2feb" y="307.584"/>
      </g>
     </g>
     <g id="text_1">
      <!-- 0.0 -->
      <g transform="translate(65.881165 322.182437)scale(0.1 -0.1)">
       <defs>
        <path d="M 31.78125 66.40625 
Q 24.171875 66.40625 20.328125 58.90625 
Q 16.5 51.421875 16.5 36.375 
Q 16.5 21.390625 20.328125 13.890625 
Q 24.171875 6.390625 31.78125 6.390625 
Q 39.453125 6.390625 43.28125 13.890625 
Q 47.125 21.390625 47.125 36.375 
Q 47.125 51.421875 43.28125 58.90625 
Q 39.453125 66.40625 31.78125 66.40625 
z
M 31.78125 74.21875 
Q 44.046875 74.21875 50.515625 64.515625 
Q 56.984375 54.828125 56.984375 36.375 
Q 56.984375 17.96875 50.515625 8.265625 
Q 44.046875 -1.421875 31.78125 -1.421875 
Q 19.53125 -1.421875 13.0625 8.265625 
Q 6.59375 17.96875 6.59375 36.375 
Q 6.59375 54.828125 13.0625 64.515625 
Q 19.53125 74.21875 31.78125 74.21875 
z
" id="DejaVuSans-48"/>
        <path d="M 10.6875 12.40625 
L 21 12.40625 
L 21 0 
L 10.6875 0 
z
" id="DejaVuSans-46"/>
       </defs>
       <use xlink:href="#DejaVuSans-48"/>
       <use x="63.623047" xlink:href="#DejaVuSans-46"/>
       <use x="95.410156" xlink:href="#DejaVuSans-48"/>
      </g>
     </g>
    </g>
    <g id="xtick_2">
     <g id="line2d_2">
      <g>
       <use style="stroke:#000000;stroke-width:0.8;" x="118.925515" xlink:href="#m04640d2feb" y="307.584"/>
      </g>
     </g>
     <g id="text_2">
      <!-- 0.2 -->
      <g transform="translate(110.973953 322.182437)scale(0.1 -0.1)">
       <defs>
        <path d="M 19.1875 8.296875 
L 53.609375 8.296875 
L 53.609375 0 
L 7.328125 0 
L 7.328125 8.296875 
Q 12.9375 14.109375 22.625 23.890625 
Q 32.328125 33.6875 34.8125 36.53125 
Q 39.546875 41.84375 41.421875 45.53125 
Q 43.3125 49.21875 43.3125 52.78125 
Q 43.3125 58.59375 39.234375 62.25 
Q 35.15625 65.921875 28.609375 65.921875 
Q 23.96875 65.921875 18.8125 64.3125 
Q 13.671875 62.703125 7.8125 59.421875 
L 7.8125 69.390625 
Q 13.765625 71.78125 18.9375 73 
Q 24.125 74.21875 28.421875 74.21875 
Q 39.75 74.21875 46.484375 68.546875 
Q 53.21875 62.890625 53.21875 53.421875 
Q 53.21875 48.921875 51.53125 44.890625 
Q 49.859375 40.875 45.40625 35.40625 
Q 44.1875 33.984375 37.640625 27.21875 
Q 31.109375 20.453125 19.1875 8.296875 
z
" id="DejaVuSans-50"/>
       </defs>
       <use xlink:href="#DejaVuSans-48"/>
       <use x="63.623047" xlink:href="#DejaVuSans-46"/>
       <use x="95.410156" xlink:href="#DejaVuSans-50"/>
      </g>
     </g>
    </g>
    <g id="xtick_3">
     <g id="line2d_3">
      <g>
       <use style="stroke:#000000;stroke-width:0.8;" x="164.018303" xlink:href="#m04640d2feb" y="307.584"/>
      </g>
     </g>
     <g id="text_3">
      <!-- 0.4 -->
      <g transform="translate(156.066741 322.182437)scale(0.1 -0.1)">
       <defs>
        <path d="M 37.796875 64.3125 
L 12.890625 25.390625 
L 37.796875 25.390625 
z
M 35.203125 72.90625 
L 47.609375 72.90625 
L 47.609375 25.390625 
L 58.015625 25.390625 
L 58.015625 17.1875 
L 47.609375 17.1875 
L 47.609375 0 
L 37.796875 0 
L 37.796875 17.1875 
L 4.890625 17.1875 
L 4.890625 26.703125 
z
" id="DejaVuSans-52"/>
       </defs>
       <use xlink:href="#DejaVuSans-48"/>
       <use x="63.623047" xlink:href="#DejaVuSans-46"/>
       <use x="95.410156" xlink:href="#DejaVuSans-52"/>
      </g>
     </g>
    </g>
    <g id="xtick_4">
     <g id="line2d_4">
      <g>
       <use style="stroke:#000000;stroke-width:0.8;" x="209.111091" xlink:href="#m04640d2feb" y="307.584"/>
      </g>
     </g>
     <g id="text_4">
      <!-- 0.6 -->
      <g transform="translate(201.159529 322.182437)scale(0.1 -0.1)">
       <defs>
        <path d="M 33.015625 40.375 
Q 26.375 40.375 22.484375 35.828125 
Q 18.609375 31.296875 18.609375 23.390625 
Q 18.609375 15.53125 22.484375 10.953125 
Q 26.375 6.390625 33.015625 6.390625 
Q 39.65625 6.390625 43.53125 10.953125 
Q 47.40625 15.53125 47.40625 23.390625 
Q 47.40625 31.296875 43.53125 35.828125 
Q 39.65625 40.375 33.015625 40.375 
z
M 52.59375 71.296875 
L 52.59375 62.3125 
Q 48.875 64.0625 45.09375 64.984375 
Q 41.3125 65.921875 37.59375 65.921875 
Q 27.828125 65.921875 22.671875 59.328125 
Q 17.53125 52.734375 16.796875 39.40625 
Q 19.671875 43.65625 24.015625 45.921875 
Q 28.375 48.1875 33.59375 48.1875 
Q 44.578125 48.1875 50.953125 41.515625 
Q 57.328125 34.859375 57.328125 23.390625 
Q 57.328125 12.15625 50.6875 5.359375 
Q 44.046875 -1.421875 33.015625 -1.421875 
Q 20.359375 -1.421875 13.671875 8.265625 
Q 6.984375 17.96875 6.984375 36.375 
Q 6.984375 53.65625 15.1875 63.9375 
Q 23.390625 74.21875 37.203125 74.21875 
Q 40.921875 74.21875 44.703125 73.484375 
Q 48.484375 72.75 52.59375 71.296875 
z
" id="DejaVuSans-54"/>
       </defs>
       <use xlink:href="#DejaVuSans-48"/>
       <use x="63.623047" xlink:href="#DejaVuSans-46"/>
       <use x="95.410156" xlink:href="#DejaVuSans-54"/>
      </g>
     </g>
    </g>
    <g id="xtick_5">
     <g id="line2d_5">
      <g>
       <use style="stroke:#000000;stroke-width:0.8;" x="254.203879" xlink:href="#m04640d2feb" y="307.584"/>
      </g>
     </g>
     <g id="text_5">
      <!-- 0.8 -->
      <g transform="translate(246.252317 322.182437)scale(0.1 -0.1)">
       <defs>
        <path d="M 31.78125 34.625 
Q 24.75 34.625 20.71875 30.859375 
Q 16.703125 27.09375 16.703125 20.515625 
Q 16.703125 13.921875 20.71875 10.15625 
Q 24.75 6.390625 31.78125 6.390625 
Q 38.8125 6.390625 42.859375 10.171875 
Q 46.921875 13.96875 46.921875 20.515625 
Q 46.921875 27.09375 42.890625 30.859375 
Q 38.875 34.625 31.78125 34.625 
z
M 21.921875 38.8125 
Q 15.578125 40.375 12.03125 44.71875 
Q 8.5 49.078125 8.5 55.328125 
Q 8.5 64.0625 14.71875 69.140625 
Q 20.953125 74.21875 31.78125 74.21875 
Q 42.671875 74.21875 48.875 69.140625 
Q 55.078125 64.0625 55.078125 55.328125 
Q 55.078125 49.078125 51.53125 44.71875 
Q 48 40.375 41.703125 38.8125 
Q 48.828125 37.15625 52.796875 32.3125 
Q 56.78125 27.484375 56.78125 20.515625 
Q 56.78125 9.90625 50.3125 4.234375 
Q 43.84375 -1.421875 31.78125 -1.421875 
Q 19.734375 -1.421875 13.25 4.234375 
Q 6.78125 9.90625 6.78125 20.515625 
Q 6.78125 27.484375 10.78125 32.3125 
Q 14.796875 37.15625 21.921875 38.8125 
z
M 18.3125 54.390625 
Q 18.3125 48.734375 21.84375 45.5625 
Q 25.390625 42.390625 31.78125 42.390625 
Q 38.140625 42.390625 41.71875 45.5625 
Q 45.3125 48.734375 45.3125 54.390625 
Q 45.3125 60.0625 41.71875 63.234375 
Q 38.140625 66.40625 31.78125 66.40625 
Q 25.390625 66.40625 21.84375 63.234375 
Q 18.3125 60.0625 18.3125 54.390625 
z
" id="DejaVuSans-56"/>
       </defs>
       <use xlink:href="#DejaVuSans-48"/>
       <use x="63.623047" xlink:href="#DejaVuSans-46"/>
       <use x="95.410156" xlink:href="#DejaVuSans-56"/>
      </g>
     </g>
    </g>
    <g id="xtick_6">
     <g id="line2d_6">
      <g>
       <use style="stroke:#000000;stroke-width:0.8;" x="299.296667" xlink:href="#m04640d2feb" y="307.584"/>
      </g>
     </g>
     <g id="text_6">
      <!-- 1.0 -->
      <g transform="translate(291.345105 322.182437)scale(0.1 -0.1)">
       <defs>
        <path d="M 12.40625 8.296875 
L 28.515625 8.296875 
L 28.515625 63.921875 
L 10.984375 60.40625 
L 10.984375 69.390625 
L 28.421875 72.90625 
L 38.28125 72.90625 
L 38.28125 8.296875 
L 54.390625 8.296875 
L 54.390625 0 
L 12.40625 0 
z
" id="DejaVuSans-49"/>
       </defs>
       <use xlink:href="#DejaVuSans-49"/>
       <use x="63.623047" xlink:href="#DejaVuSans-46"/>
       <use x="95.410156" xlink:href="#DejaVuSans-48"/>
      </g>
     </g>
    </g>
    <g id="xtick_7">
     <g id="line2d_7">
      <g>
       <use style="stroke:#000000;stroke-width:0.8;" x="344.389455" xlink:href="#m04640d2feb" y="307.584"/>
      </g>
     </g>
     <g id="text_7">
      <!-- 1.2 -->
      <g transform="translate(336.437893 322.182437)scale(0.1 -0.1)">
       <use xlink:href="#DejaVuSans-49"/>
       <use x="63.623047" xlink:href="#DejaVuSans-46"/>
       <use x="95.410156" xlink:href="#DejaVuSans-50"/>
      </g>
     </g>
    </g>
    <g id="xtick_8">
     <g id="line2d_8">
      <g>
       <use style="stroke:#000000;stroke-width:0.8;" x="389.482243" xlink:href="#m04640d2feb" y="307.584"/>
      </g>
     </g>
     <g id="text_8">
      <!-- 1.4 -->
      <g transform="translate(381.53068 322.182437)scale(0.1 -0.1)">
       <use xlink:href="#DejaVuSans-49"/>
       <use x="63.623047" xlink:href="#DejaVuSans-46"/>
       <use x="95.410156" xlink:href="#DejaVuSans-52"/>
      </g>
     </g>
    </g>
    <g id="text_9">
     <!-- Time (min) -->
     <g transform="translate(209.007656 335.860562)scale(0.1 -0.1)">
      <defs>
       <path d="M -0.296875 72.90625 
L 61.375 72.90625 
L 61.375 64.59375 
L 35.5 64.59375 
L 35.5 0 
L 25.59375 0 
L 25.59375 64.59375 
L -0.296875 64.59375 
z
" id="DejaVuSans-84"/>
       <path d="M 9.421875 54.6875 
L 18.40625 54.6875 
L 18.40625 0 
L 9.421875 0 
z
M 9.421875 75.984375 
L 18.40625 75.984375 
L 18.40625 64.59375 
L 9.421875 64.59375 
z
" id="DejaVuSans-105"/>
       <path d="M 52 44.1875 
Q 55.375 50.25 60.0625 53.125 
Q 64.75 56 71.09375 56 
Q 79.640625 56 84.28125 50.015625 
Q 88.921875 44.046875 88.921875 33.015625 
L 88.921875 0 
L 79.890625 0 
L 79.890625 32.71875 
Q 79.890625 40.578125 77.09375 44.375 
Q 74.3125 48.1875 68.609375 48.1875 
Q 61.625 48.1875 57.5625 43.546875 
Q 53.515625 38.921875 53.515625 30.90625 
L 53.515625 0 
L 44.484375 0 
L 44.484375 32.71875 
Q 44.484375 40.625 41.703125 44.40625 
Q 38.921875 48.1875 33.109375 48.1875 
Q 26.21875 48.1875 22.15625 43.53125 
Q 18.109375 38.875 18.109375 30.90625 
L 18.109375 0 
L 9.078125 0 
L 9.078125 54.6875 
L 18.109375 54.6875 
L 18.109375 46.1875 
Q 21.1875 51.21875 25.484375 53.609375 
Q 29.78125 56 35.6875 56 
Q 41.65625 56 45.828125 52.96875 
Q 50 49.953125 52 44.1875 
z
" id="DejaVuSans-109"/>
       <path d="M 56.203125 29.59375 
L 56.203125 25.203125 
L 14.890625 25.203125 
Q 15.484375 15.921875 20.484375 11.0625 
Q 25.484375 6.203125 34.421875 6.203125 
Q 39.59375 6.203125 44.453125 7.46875 
Q 49.3125 8.734375 54.109375 11.28125 
L 54.109375 2.78125 
Q 49.265625 0.734375 44.1875 -0.34375 
Q 39.109375 -1.421875 33.890625 -1.421875 
Q 20.796875 -1.421875 13.15625 6.1875 
Q 5.515625 13.8125 5.515625 26.8125 
Q 5.515625 40.234375 12.765625 48.109375 
Q 20.015625 56 32.328125 56 
Q 43.359375 56 49.78125 48.890625 
Q 56.203125 41.796875 56.203125 29.59375 
z
M 47.21875 32.234375 
Q 47.125 39.59375 43.09375 43.984375 
Q 39.0625 48.390625 32.421875 48.390625 
Q 24.90625 48.390625 20.390625 44.140625 
Q 15.875 39.890625 15.1875 32.171875 
z
" id="DejaVuSans-101"/>
       <path id="DejaVuSans-32"/>
       <path d="M 31 75.875 
Q 24.46875 64.65625 21.28125 53.65625 
Q 18.109375 42.671875 18.109375 31.390625 
Q 18.109375 20.125 21.3125 9.0625 
Q 24.515625 -2 31 -13.1875 
L 23.1875 -13.1875 
Q 15.875 -1.703125 12.234375 9.375 
Q 8.59375 20.453125 8.59375 31.390625 
Q 8.59375 42.28125 12.203125 53.3125 
Q 15.828125 64.359375 23.1875 75.875 
z
" id="DejaVuSans-40"/>
       <path d="M 54.890625 33.015625 
L 54.890625 0 
L 45.90625 0 
L 45.90625 32.71875 
Q 45.90625 40.484375 42.875 44.328125 
Q 39.84375 48.1875 33.796875 48.1875 
Q 26.515625 48.1875 22.3125 43.546875 
Q 18.109375 38.921875 18.109375 30.90625 
L 18.109375 0 
L 9.078125 0 
L 9.078125 54.6875 
L 18.109375 54.6875 
L 18.109375 46.1875 
Q 21.34375 51.125 25.703125 53.5625 
Q 30.078125 56 35.796875 56 
Q 45.21875 56 50.046875 50.171875 
Q 54.890625 44.34375 54.890625 33.015625 
z
" id="DejaVuSans-110"/>
       <path d="M 8.015625 75.875 
L 15.828125 75.875 
Q 23.140625 64.359375 26.78125 53.3125 
Q 30.421875 42.28125 30.421875 31.390625 
Q 30.421875 20.453125 26.78125 9.375 
Q 23.140625 -1.703125 15.828125 -13.1875 
L 8.015625 -13.1875 
Q 14.5 -2 17.703125 9.0625 
Q 20.90625 20.125 20.90625 31.390625 
Q 20.90625 42.671875 17.703125 53.65625 
Q 14.5 64.65625 8.015625 75.875 
z
" id="DejaVuSans-41"/>
      </defs>
      <use xlink:href="#DejaVuSans-84"/>
      <use x="57.958984" xlink:href="#DejaVuSans-105"/>
      <use x="85.742188" xlink:href="#DejaVuSans-109"/>
      <use x="183.154297" xlink:href="#DejaVuSans-101"/>
      <use x="244.677734" xlink:href="#DejaVuSans-32"/>
      <use x="276.464844" xlink:href="#DejaVuSans-40"/>
      <use x="315.478516" xlink:href="#DejaVuSans-109"/>
      <use x="412.890625" xlink:href="#DejaVuSans-105"/>
      <use x="440.673828" xlink:href="#DejaVuSans-110"/>
      <use x="504.052734" xlink:href="#DejaVuSans-41"/>
     </g>
    </g>
    <g id="text_10">
     <!-- 1e6 -->
     <g transform="translate(395.841875 334.860562)scale(0.1 -0.1)">
      <use xlink:href="#DejaVuSans-49"/>
      <use x="63.623047" xlink:href="#DejaVuSans-101"/>
      <use x="125.146484" xlink:href="#DejaVuSans-54"/>
     </g>
    </g>
   </g>
   <g id="matplotlib.axis_2">
    <g id="ytick_1">
     <g id="line2d_9">
      <defs>
       <path d="M 0 0 
L -3.5 0 
" id="m00b8a98f6b" style="stroke:#000000;stroke-width:0.8;"/>
      </defs>
      <g>
       <use style="stroke:#000000;stroke-width:0.8;" x="57.6" xlink:href="#m00b8a98f6b" y="294.938139"/>
      </g>
     </g>
     <g id="text_11">
      <!-- −60 -->
      <g transform="translate(29.495313 298.737358)scale(0.1 -0.1)">
       <defs>
        <path d="M 10.59375 35.5 
L 73.1875 35.5 
L 73.1875 27.203125 
L 10.59375 27.203125 
z
" id="DejaVuSans-8722"/>
       </defs>
       <use xlink:href="#DejaVuSans-8722"/>
       <use x="83.789062" xlink:href="#DejaVuSans-54"/>
       <use x="147.412109" xlink:href="#DejaVuSans-48"/>
      </g>
     </g>
    </g>
    <g id="ytick_2">
     <g id="line2d_10">
      <g>
       <use style="stroke:#000000;stroke-width:0.8;" x="57.6" xlink:href="#m00b8a98f6b" y="264.766872"/>
      </g>
     </g>
     <g id="text_12">
      <!-- −40 -->
      <g transform="translate(29.495313 268.56609)scale(0.1 -0.1)">
       <use xlink:href="#DejaVuSans-8722"/>
       <use x="83.789062" xlink:href="#DejaVuSans-52"/>
       <use x="147.412109" xlink:href="#DejaVuSans-48"/>
      </g>
     </g>
    </g>
    <g id="ytick_3">
     <g id="line2d_11">
      <g>
       <use style="stroke:#000000;stroke-width:0.8;" x="57.6" xlink:href="#m00b8a98f6b" y="234.595604"/>
      </g>
     </g>
     <g id="text_13">
      <!-- −20 -->
      <g transform="translate(29.495313 238.394823)scale(0.1 -0.1)">
       <use xlink:href="#DejaVuSans-8722"/>
       <use x="83.789062" xlink:href="#DejaVuSans-50"/>
       <use x="147.412109" xlink:href="#DejaVuSans-48"/>
      </g>
     </g>
    </g>
    <g id="ytick_4">
     <g id="line2d_12">
      <g>
       <use style="stroke:#000000;stroke-width:0.8;" x="57.6" xlink:href="#m00b8a98f6b" y="204.424337"/>
      </g>
     </g>
     <g id="text_14">
      <!-- 0 -->
      <g transform="translate(44.2375 208.223556)scale(0.1 -0.1)">
       <use xlink:href="#DejaVuSans-48"/>
      </g>
     </g>
    </g>
    <g id="ytick_5">
     <g id="line2d_13">
      <g>
       <use style="stroke:#000000;stroke-width:0.8;" x="57.6" xlink:href="#m00b8a98f6b" y="174.253069"/>
      </g>
     </g>
     <g id="text_15">
      <!-- 20 -->
      <g transform="translate(37.875 178.052288)scale(0.1 -0.1)">
       <use xlink:href="#DejaVuSans-50"/>
       <use x="63.623047" xlink:href="#DejaVuSans-48"/>
      </g>
     </g>
    </g>
    <g id="ytick_6">
     <g id="line2d_14">
      <g>
       <use style="stroke:#000000;stroke-width:0.8;" x="57.6" xlink:href="#m00b8a98f6b" y="144.081802"/>
      </g>
     </g>
     <g id="text_16">
      <!-- 40 -->
      <g transform="translate(37.875 147.881021)scale(0.1 -0.1)">
       <use xlink:href="#DejaVuSans-52"/>
       <use x="63.623047" xlink:href="#DejaVuSans-48"/>
      </g>
     </g>
    </g>
    <g id="ytick_7">
     <g id="line2d_15">
      <g>
       <use style="stroke:#000000;stroke-width:0.8;" x="57.6" xlink:href="#m00b8a98f6b" y="113.910535"/>
      </g>
     </g>
     <g id="text_17">
      <!-- 60 -->
      <g transform="translate(37.875 117.709753)scale(0.1 -0.1)">
       <use xlink:href="#DejaVuSans-54"/>
       <use x="63.623047" xlink:href="#DejaVuSans-48"/>
      </g>
     </g>
    </g>
    <g id="ytick_8">
     <g id="line2d_16">
      <g>
       <use style="stroke:#000000;stroke-width:0.8;" x="57.6" xlink:href="#m00b8a98f6b" y="83.739267"/>
      </g>
     </g>
     <g id="text_18">
      <!-- 80 -->
      <g transform="translate(37.875 87.538486)scale(0.1 -0.1)">
       <use xlink:href="#DejaVuSans-56"/>
       <use x="63.623047" xlink:href="#DejaVuSans-48"/>
      </g>
     </g>
    </g>
    <g id="ytick_9">
     <g id="line2d_17">
      <g>
       <use style="stroke:#000000;stroke-width:0.8;" x="57.6" xlink:href="#m00b8a98f6b" y="53.568"/>
      </g>
     </g>
     <g id="text_19">
      <!-- 100 -->
      <g transform="translate(31.5125 57.367219)scale(0.1 -0.1)">
       <use xlink:href="#DejaVuSans-49"/>
       <use x="63.623047" xlink:href="#DejaVuSans-48"/>
       <use x="127.246094" xlink:href="#DejaVuSans-48"/>
      </g>
     </g>
    </g>
    <g id="text_20">
     <!-- Density -->
     <g transform="translate(23.415625 193.536594)rotate(-90)scale(0.1 -0.1)">
      <defs>
       <path d="M 19.671875 64.796875 
L 19.671875 8.109375 
L 31.59375 8.109375 
Q 46.6875 8.109375 53.6875 14.9375 
Q 60.6875 21.78125 60.6875 36.53125 
Q 60.6875 51.171875 53.6875 57.984375 
Q 46.6875 64.796875 31.59375 64.796875 
z
M 9.8125 72.90625 
L 30.078125 72.90625 
Q 51.265625 72.90625 61.171875 64.09375 
Q 71.09375 55.28125 71.09375 36.53125 
Q 71.09375 17.671875 61.125 8.828125 
Q 51.171875 0 30.078125 0 
L 9.8125 0 
z
" id="DejaVuSans-68"/>
       <path d="M 44.28125 53.078125 
L 44.28125 44.578125 
Q 40.484375 46.53125 36.375 47.5 
Q 32.28125 48.484375 27.875 48.484375 
Q 21.1875 48.484375 17.84375 46.4375 
Q 14.5 44.390625 14.5 40.28125 
Q 14.5 37.15625 16.890625 35.375 
Q 19.28125 33.59375 26.515625 31.984375 
L 29.59375 31.296875 
Q 39.15625 29.25 43.1875 25.515625 
Q 47.21875 21.78125 47.21875 15.09375 
Q 47.21875 7.46875 41.1875 3.015625 
Q 35.15625 -1.421875 24.609375 -1.421875 
Q 20.21875 -1.421875 15.453125 -0.5625 
Q 10.6875 0.296875 5.421875 2 
L 5.421875 11.28125 
Q 10.40625 8.6875 15.234375 7.390625 
Q 20.0625 6.109375 24.8125 6.109375 
Q 31.15625 6.109375 34.5625 8.28125 
Q 37.984375 10.453125 37.984375 14.40625 
Q 37.984375 18.0625 35.515625 20.015625 
Q 33.0625 21.96875 24.703125 23.78125 
L 21.578125 24.515625 
Q 13.234375 26.265625 9.515625 29.90625 
Q 5.8125 33.546875 5.8125 39.890625 
Q 5.8125 47.609375 11.28125 51.796875 
Q 16.75 56 26.8125 56 
Q 31.78125 56 36.171875 55.265625 
Q 40.578125 54.546875 44.28125 53.078125 
z
" id="DejaVuSans-115"/>
       <path d="M 18.3125 70.21875 
L 18.3125 54.6875 
L 36.8125 54.6875 
L 36.8125 47.703125 
L 18.3125 47.703125 
L 18.3125 18.015625 
Q 18.3125 11.328125 20.140625 9.421875 
Q 21.96875 7.515625 27.59375 7.515625 
L 36.8125 7.515625 
L 36.8125 0 
L 27.59375 0 
Q 17.1875 0 13.234375 3.875 
Q 9.28125 7.765625 9.28125 18.015625 
L 9.28125 47.703125 
L 2.6875 47.703125 
L 2.6875 54.6875 
L 9.28125 54.6875 
L 9.28125 70.21875 
z
" id="DejaVuSans-116"/>
       <path d="M 32.171875 -5.078125 
Q 28.375 -14.84375 24.75 -17.8125 
Q 21.140625 -20.796875 15.09375 -20.796875 
L 7.90625 -20.796875 
L 7.90625 -13.28125 
L 13.1875 -13.28125 
Q 16.890625 -13.28125 18.9375 -11.515625 
Q 21 -9.765625 23.484375 -3.21875 
L 25.09375 0.875 
L 2.984375 54.6875 
L 12.5 54.6875 
L 29.59375 11.921875 
L 46.6875 54.6875 
L 56.203125 54.6875 
z
" id="DejaVuSans-121"/>
      </defs>
      <use xlink:href="#DejaVuSans-68"/>
      <use x="77.001953" xlink:href="#DejaVuSans-101"/>
      <use x="138.525391" xlink:href="#DejaVuSans-110"/>
      <use x="201.904297" xlink:href="#DejaVuSans-115"/>
      <use x="254.003906" xlink:href="#DejaVuSans-105"/>
      <use x="281.787109" xlink:href="#DejaVuSans-116"/>
      <use x="320.996094" xlink:href="#DejaVuSans-121"/>
     </g>
    </g>
   </g>
   <g id="line2d_18">
    <path clip-path="url(#p8d70709d12)" d="M 73.832727 204.424337 
L 398.487273 204.424337 
L 398.487273 204.424337 
" style="fill:none;stroke:#1f77b4;stroke-linecap:square;stroke-width:1.5;"/>
   </g>
   <g id="line2d_19">
    <path clip-path="url(#p8d70709d12)" d="M 73.832727 204.424337 
L 398.487273 204.424337 
L 398.487273 204.424337 
" style="fill:none;stroke:#ff7f0e;stroke-linecap:square;stroke-width:1.5;"/>
   </g>
   <g id="line2d_20">
    <path clip-path="url(#p8d70709d12)" d="M 73.832727 189.338703 
L 73.954478 189.302262 
L 90.417855 191.067591 
L 107.949931 192.72152 
L 126.699512 194.264346 
L 146.84246 195.695959 
L 168.608749 197.01707 
L 192.282463 198.22798 
L 214.603393 199.15981 
L 281.539127 199.160799 
L 398.487273 199.160758 
L 398.487273 199.160758 
" style="fill:none;stroke:#2ca02c;stroke-linecap:square;stroke-width:1.5;"/>
   </g>
   <g id="line2d_21">
    <path clip-path="url(#p8d70709d12)" d="M 73.832727 53.568 
L 73.913894 295.488 
L 73.954478 295.180733 
L 73.995061 295.326331 
L 74.022117 295.067462 
L 74.076228 295.226598 
L 74.170923 294.966145 
L 74.184451 294.989674 
L 74.211507 295.052996 
L 74.238562 294.793975 
L 74.292674 295.00694 
L 74.306202 294.676045 
L 74.400896 294.729305 
L 74.468536 294.617146 
L 74.495591 294.823188 
L 74.603814 294.361384 
L 74.63087 294.55624 
L 74.657925 294.541462 
L 74.671453 294.292574 
L 74.766148 294.372906 
L 74.779676 294.4136 
L 74.806731 294.34036 
L 74.887899 294.11281 
L 74.847315 294.381772 
L 74.914954 294.201456 
L 74.928482 294.345854 
L 74.969066 294.042633 
L 75.009649 294.168947 
L 75.104344 293.919906 
L 75.1314 293.968929 
L 75.144927 294.048618 
L 75.185511 293.807083 
L 75.212567 293.917898 
L 75.320789 293.640904 
L 75.347845 293.751801 
L 75.361373 293.772381 
L 75.388428 293.647775 
L 75.456068 293.43557 
L 75.44254 293.725462 
L 75.496651 293.5677 
L 75.510179 293.678011 
L 75.550762 293.4202 
L 75.591346 293.497437 
L 75.672513 293.158034 
L 75.699569 293.275755 
L 75.713097 293.43442 
L 75.75368 293.153562 
L 75.794264 293.281293 
L 75.902486 292.978437 
L 75.916014 293.031404 
L 75.929542 293.22095 
L 75.970125 292.798521 
L 76.024237 293.009722 
L 76.118932 292.758736 
L 76.132459 292.810673 
L 76.145987 292.859917 
L 76.186571 292.600183 
L 76.227154 292.787447 
L 76.416544 292.452469 
L 76.430072 292.5117 
L 76.4436 292.623192 
L 76.484183 292.347876 
L 76.524767 292.375804 
L 76.619462 292.109554 
L 76.660045 292.287228 
L 76.673573 292.302986 
L 76.768268 291.976354 
L 76.795323 292.124275 
L 76.808851 292.213687 
L 76.822379 291.933434 
L 76.87649 292.14755 
L 76.971185 291.755705 
L 76.998241 291.863291 
L 77.025297 291.959016 
L 77.133519 291.636307 
L 77.147047 291.719318 
L 77.160575 291.745242 
L 77.174103 291.654116 
L 77.187631 291.653643 
L 77.268798 291.452493 
L 77.228214 291.730314 
L 77.295853 291.582871 
L 77.309381 291.593142 
L 77.322909 291.483803 
L 77.404076 291.249267 
L 77.363493 291.557279 
L 77.431132 291.387951 
L 77.458187 291.484199 
L 77.471715 291.306093 
L 77.552882 291.079706 
L 77.525827 291.328856 
L 77.579938 291.269911 
L 77.593466 291.27734 
L 77.606994 291.231537 
L 77.701688 290.974589 
L 77.661105 291.264536 
L 77.728744 291.102006 
L 77.742272 291.109482 
L 77.850495 290.789554 
L 77.864023 290.881464 
L 77.87755 290.970025 
L 77.918134 290.760073 
L 77.958717 290.839204 
L 77.972245 290.827487 
L 78.06694 290.590935 
L 78.080468 290.662593 
L 78.093996 290.702817 
L 78.121051 290.631893 
L 78.215746 290.429405 
L 78.175163 290.712457 
L 78.229274 290.49605 
L 78.242802 290.627983 
L 78.283385 290.342644 
L 78.323969 290.464152 
L 78.405136 290.18298 
L 78.432192 290.191134 
L 78.445719 290.365686 
L 78.499831 290.120149 
L 78.540414 290.163987 
L 78.553942 290.156602 
L 78.635109 289.951593 
L 78.594526 290.201015 
L 78.662165 290.057074 
L 78.675693 290.077486 
L 78.689221 290.00849 
L 78.770388 289.766384 
L 78.729804 290.015421 
L 78.810971 289.880269 
L 78.824499 289.98123 
L 78.865082 289.735335 
L 78.905666 289.808837 
L 79.000361 289.497447 
L 79.013889 289.594258 
L 79.027416 289.740319 
L 79.068 289.477274 
L 79.108583 289.598772 
L 79.216806 289.305129 
L 79.230334 289.355944 
L 79.243862 289.53346 
L 79.284445 289.134116 
L 79.338557 289.333651 
L 79.433252 289.090299 
L 79.446779 289.138382 
L 79.500891 288.938616 
L 79.541474 289.221481 
L 79.649697 288.834908 
L 79.663225 288.884689 
L 79.69028 288.966241 
L 79.730864 288.789604 
L 79.75792 288.95352 
L 79.866142 288.625163 
L 79.87967 288.670148 
L 79.893198 288.712508 
L 79.920254 288.674008 
L 80.014949 288.460524 
L 79.960837 288.683246 
L 80.028476 288.543744 
L 80.042004 288.574214 
L 80.06906 288.381864 
L 80.123171 288.496801 
L 80.231394 288.224984 
L 80.244922 288.285017 
L 80.25845 288.338571 
L 80.285505 288.117272 
L 80.339617 288.240654 
L 80.447839 287.994291 
L 80.488423 288.015419 
L 80.501951 288.010081 
L 80.583118 287.817099 
L 80.542534 288.08248 
L 80.610173 288.030048 
L 80.718396 287.632283 
L 80.745452 287.753559 
L 80.772507 287.841832 
L 80.786035 287.673419 
L 80.867202 287.457172 
L 80.840147 287.695813 
L 80.894258 287.57959 
L 80.907786 287.73803 
L 80.948369 287.389179 
L 80.988953 287.516774 
L 81.530066 286.814976 
L 81.543594 286.883346 
L 81.557122 287.007727 
L 81.597705 286.733736 
L 81.638289 286.850823 
L 81.732984 286.495839 
L 81.746512 286.610631 
L 81.787095 286.723043 
L 81.814151 286.514701 
L 81.841206 286.615323 
L 81.949429 286.353772 
L 81.962957 286.365404 
L 81.976485 286.536123 
L 82.017068 286.170227 
L 82.07118 286.382657 
L 82.179402 286.140963 
L 82.19293 286.198899 
L 82.206458 286.231858 
L 82.219986 286.21156 
L 82.314681 285.900202 
L 82.274097 286.264012 
L 82.328209 286.004413 
L 82.341736 286.134204 
L 82.38232 285.889695 
L 82.422903 286.0073 
L 82.531126 285.672885 
L 82.544654 285.776663 
L 82.558182 285.860868 
L 82.612293 285.681897 
L 82.639349 285.761559 
L 82.652877 285.748188 
L 82.747571 285.51195 
L 82.761099 285.558278 
L 82.788155 285.656291 
L 82.828738 285.467983 
L 82.855794 285.546752 
L 82.964017 285.263982 
L 82.977545 285.312112 
L 83.0046 285.389851 
L 83.045184 285.218667 
L 83.07224 285.374216 
L 83.180462 285.058357 
L 83.19399 285.100697 
L 83.207518 285.142459 
L 83.234574 285.105361 
L 83.329268 284.897507 
L 83.275157 285.110175 
L 83.342796 285.051621 
L 83.38338 284.731006 
L 83.491602 284.813925 
L 83.50513 284.921002 
L 83.545714 284.667731 
L 83.586297 284.763257 
L 83.680992 284.432647 
L 83.640409 284.799263 
L 83.69452 284.540634 
L 83.708048 284.658582 
L 83.762159 284.4434 
L 83.789215 284.546182 
L 83.897438 284.197082 
L 83.924493 284.390903 
L 83.938021 284.408174 
L 83.951549 284.321151 
L 84.032716 284.094004 
L 84.073299 284.218754 
L 84.086827 284.290033 
L 84.113883 284.069797 
L 84.154466 284.225035 
L 84.262689 283.856725 
L 84.276217 283.947046 
L 84.289745 284.075997 
L 84.330328 283.816054 
L 84.370912 283.940996 
L 84.479135 283.652184 
L 84.492662 283.795347 
L 84.614413 283.458438 
L 84.519718 283.840588 
L 84.654996 283.616662 
L 84.668524 283.647006 
L 84.69558 283.449762 
L 84.736163 283.580964 
L 84.844386 283.295438 
L 84.857914 283.360101 
L 84.871442 283.475704 
L 84.912025 283.214422 
L 84.952609 283.326491 
L 85.047304 282.986553 
L 85.060831 283.092994 
L 85.101415 283.200117 
L 85.128471 283.000018 
L 85.155526 283.096804 
L 85.263749 282.743791 
L 85.290805 282.933209 
L 85.304333 282.989488 
L 85.344916 282.763443 
L 85.3855 282.871179 
L 85.493722 282.634555 
L 85.50725 282.69081 
L 85.520778 282.803257 
L 85.561361 282.514185 
L 85.601945 282.579096 
L 85.615473 282.585144 
L 85.69664 282.391772 
L 85.656056 282.626214 
L 85.723695 282.488397 
L 85.737223 282.504031 
L 85.750751 282.400851 
L 85.764279 282.394754 
L 85.845446 282.215389 
L 85.804862 282.483889 
L 85.872502 282.319332 
L 85.886029 282.417227 
L 85.926613 282.187814 
L 85.967197 282.250703 
L 86.061891 282.022178 
L 86.075419 282.117646 
L 86.359504 281.735272 
L 86.102475 282.154378 
L 86.400087 281.800598 
L 86.413615 281.563172 
L 86.50831 281.621001 
L 86.521838 281.6613 
L 86.548893 281.623645 
L 86.63006 281.317661 
L 86.589477 281.626599 
L 86.657116 281.490714 
L 86.670644 281.577897 
L 86.711228 281.33416 
L 86.751811 281.450441 
L 86.860034 281.199024 
L 86.873562 281.255175 
L 86.927673 281.093417 
L 86.954729 281.319567 
L 87.076479 280.979632 
L 87.090007 281.05389 
L 87.103535 281.078587 
L 87.13059 280.993449 
L 87.211757 280.800113 
L 87.171174 281.054156 
L 87.238813 280.891843 
L 87.252341 281.004214 
L 87.292924 280.755756 
L 87.333508 280.842071 
L 87.428203 280.616113 
L 87.455259 280.67971 
L 87.468786 280.738929 
L 87.50937 280.533468 
L 87.536426 280.627735 
L 87.644648 280.36911 
L 87.671704 280.481657 
L 87.685232 280.488599 
L 87.779927 280.167795 
L 87.806982 280.312409 
L 87.847566 280.228393 
L 87.928733 280.023866 
L 87.901677 280.242992 
L 87.969316 280.173212 
L 87.982844 280.200188 
L 87.996372 279.918259 
L 88.091067 279.959296 
L 88.158706 279.861071 
L 88.185762 280.031343 
L 88.293984 279.677112 
L 88.307512 279.742169 
L 88.32104 279.899887 
L 88.361624 279.566429 
L 88.415735 279.761361 
L 88.51043 279.439637 
L 88.537485 279.635814 
L 88.659236 279.342933 
L 88.686292 279.452326 
L 88.699819 279.444798 
L 88.808042 279.215546 
L 88.82157 279.270099 
L 88.835098 279.375382 
L 88.875681 279.098161 
L 88.916265 279.16468 
L 88.929793 279.166505 
L 89.01096 278.980934 
L 88.970376 279.202623 
L 89.038015 279.070831 
L 89.051543 279.086802 
L 89.065071 278.991813 
L 89.078599 278.982115 
L 89.146238 278.796069 
L 89.13271 279.043081 
L 89.186822 278.905747 
L 89.200349 278.998242 
L 89.240933 278.779463 
L 89.281516 278.840189 
L 89.362683 278.54699 
L 89.389739 278.647907 
L 89.403267 278.779542 
L 89.44385 278.540474 
L 89.484434 278.644544 
L 89.592657 278.383975 
L 89.606185 278.427803 
L 89.687352 278.489861 
L 89.660296 278.282793 
L 89.714407 278.403906 
L 89.809102 278.184544 
L 89.82263 278.226339 
L 89.836158 278.265886 
L 89.876741 278.045628 
L 89.917325 278.198345 
L 90.106714 277.907213 
L 90.120242 277.954477 
L 90.13377 278.04684 
L 90.174354 277.815618 
L 90.214937 277.851304 
L 90.228465 277.842978 
L 90.309632 277.603905 
L 90.336688 277.800221 
L 90.458438 277.481668 
L 90.485494 277.602908 
L 90.499022 277.678066 
L 90.51255 277.439542 
L 90.566661 277.617579 
L 90.661356 277.28068 
L 90.688411 277.371701 
L 90.715467 277.448408 
L 90.728995 277.306454 
L 90.82369 277.166405 
L 90.783106 277.364259 
L 90.864273 277.182714 
L 90.877801 277.182403 
L 90.958968 277.007541 
L 90.918385 277.242654 
L 90.986024 277.113698 
L 90.999552 277.121178 
L 91.013079 277.028523 
L 91.094247 276.825584 
L 91.053663 277.089388 
L 91.121302 276.941944 
L 91.148358 277.020146 
L 91.161886 276.869486 
L 91.243053 276.673931 
L 91.215997 276.883818 
L 91.283636 276.835714 
L 91.473026 276.510618 
L 91.486554 276.570978 
L 91.500082 276.672188 
L 91.540665 276.433506 
L 91.581249 276.492771 
L 91.594776 276.488801 
L 91.675943 276.233751 
L 91.702999 276.409175 
L 91.82475 276.102264 
L 91.851805 276.224491 
L 91.865333 276.322846 
L 91.905917 276.083497 
L 91.9465 276.124348 
L 92.027667 275.936911 
L 92.068251 276.012735 
L 92.081779 276.087638 
L 92.108834 275.894979 
L 92.149418 275.994608 
L 92.25764 275.669829 
L 92.271168 275.754662 
L 92.284696 275.86422 
L 92.32528 275.653324 
L 92.365863 275.75434 
L 92.460558 275.486546 
L 92.501141 275.579923 
L 92.514669 275.663988 
L 92.555253 275.455998 
L 92.595836 275.513352 
L 92.677003 275.238372 
L 92.704059 275.326908 
L 92.717587 275.45121 
L 92.75817 275.224271 
L 92.798754 275.322808 
L 92.906977 275.070646 
L 92.920504 275.11147 
L 92.934032 275.260245 
L 92.974616 274.921553 
L 93.028727 275.085021 
L 93.123422 274.875635 
L 93.13695 274.914687 
L 93.191061 274.743318 
L 93.231645 274.977065 
L 93.339867 274.646596 
L 93.353395 274.687222 
L 93.380451 274.752156 
L 93.393979 274.608302 
L 93.44809 274.737009 
L 93.556313 274.447515 
L 93.583368 274.523606 
L 93.826869 274.16288 
L 93.867453 274.223169 
L 93.880981 274.317958 
L 93.921564 274.09504 
L 93.962148 274.17314 
L 94.043315 273.919636 
L 94.070371 273.963995 
L 94.083898 274.097718 
L 94.13801 273.887145 
L 94.165065 273.972052 
L 94.273288 273.728693 
L 94.286816 273.756147 
L 94.300344 273.905051 
L 94.340927 273.573204 
L 94.395039 273.747917 
L 94.489733 273.54141 
L 94.516789 273.600777 
L 94.543845 273.587332 
L 94.63854 273.359815 
L 94.652067 273.422959 
L 94.665595 273.541536 
L 94.706179 273.307981 
L 94.746762 273.411937 
L 94.854985 273.145402 
L 94.868513 273.218387 
L 94.882041 273.287659 
L 94.922624 273.117282 
L 94.963208 273.177793 
L 94.976736 273.166383 
L 95.07143 272.968484 
L 95.084958 273.023308 
L 95.112014 273.065646 
L 95.125542 272.921342 
L 95.179653 272.992602 
L 95.287876 272.751086 
L 95.301404 272.79667 
L 95.314931 272.852518 
L 95.341987 272.68841 
L 95.396098 272.826637 
L 95.504321 272.553787 
L 95.517849 272.60606 
L 95.531377 272.63295 
L 95.558433 272.578423 
L 95.6396 272.408268 
L 95.599016 272.608357 
L 95.666655 272.558845 
L 95.774878 272.256258 
L 95.815461 272.335108 
L 95.828989 272.412396 
L 95.869573 272.214148 
L 95.910156 272.26888 
L 96.004851 272.012272 
L 96.018379 272.088003 
L 96.031907 272.201847 
L 96.07249 271.990579 
L 96.113074 272.083214 
L 96.221296 271.797354 
L 96.234824 271.882889 
L 96.248352 271.95158 
L 96.302464 271.799317 
L 96.329519 271.862651 
L 96.343047 271.85123 
L 96.437742 271.648272 
L 96.45127 271.68561 
L 96.505381 271.522848 
L 96.545965 271.741456 
L 96.654187 271.425473 
L 96.667715 271.463594 
L 96.694771 271.526505 
L 96.735354 271.380879 
L 96.76241 271.509256 
L 96.870633 271.238902 
L 96.88416 271.272187 
L 96.897688 271.305356 
L 96.924744 271.273391 
L 97.019439 271.093697 
L 97.032967 271.221737 
L 97.141189 270.964514 
L 97.181773 271.011556 
L 97.195301 271.099649 
L 97.235884 270.886806 
L 97.276468 270.961885 
L 97.371163 270.683784 
L 97.38469 270.768287 
L 97.398218 270.872413 
L 97.45233 270.683385 
L 97.479385 270.765791 
L 97.587608 270.467989 
L 97.614664 270.627037 
L 97.628191 270.640197 
L 97.655247 270.512147 
L 97.722886 270.371817 
L 97.695831 270.557284 
L 97.76347 270.472873 
L 97.776998 270.531612 
L 97.804053 270.34698 
L 97.858165 270.390571 
L 97.95286 270.156747 
L 97.912276 270.435952 
L 97.966387 270.231589 
L 97.979915 270.337131 
L 98.020499 270.120005 
L 98.061082 270.219572 
L 98.169305 269.972232 
L 98.182833 270.090674 
L 98.38575 269.788355 
L 98.209888 270.12637 
L 98.399278 269.840485 
L 98.426334 269.881889 
L 98.439862 269.745313 
L 98.493973 269.810362 
L 98.602196 269.576076 
L 98.615724 269.619356 
L 98.629251 269.673772 
L 98.656307 269.52053 
L 98.710418 269.590668 
L 98.88628 269.261305 
L 98.899808 269.335758 
L 98.913336 269.432442 
L 98.953919 269.158625 
L 98.994503 269.359277 
L 99.089198 269.097285 
L 99.129781 269.169995 
L 99.143309 269.241671 
L 99.183893 269.051796 
L 99.224476 269.1048 
L 99.319171 268.84891 
L 99.278588 269.139171 
L 99.332699 268.929786 
L 99.346227 269.030247 
L 99.38681 268.835198 
L 99.427394 268.923655 
L 99.535616 268.677062 
L 99.562672 268.760313 
L 99.5762 268.841644 
L 99.616783 268.647955 
L 99.657367 268.696779 
L 99.752062 268.500771 
L 99.76559 268.535838 
L 99.792645 268.611753 
L 99.833229 268.456528 
L 99.860284 268.518545 
L 99.968507 268.284184 
L 99.982035 268.320509 
L 100.009091 268.380443 
L 100.049674 268.239132 
L 100.07673 268.302608 
L 100.090258 268.292113 
L 100.103786 268.092241 
L 100.19848 268.13366 
L 100.212008 268.165554 
L 100.239064 268.133242 
L 100.333759 267.959825 
L 100.347287 268.078091 
L 100.482565 267.839308 
L 100.496093 267.878514 
L 100.509621 267.961385 
L 100.550204 267.757137 
L 100.590788 267.83019 
L 100.685483 267.559566 
L 100.644899 267.850919 
L 100.69901 267.642844 
L 100.712538 267.73334 
L 100.76665 267.559641 
L 100.793705 267.638541 
L 100.901928 267.400712 
L 100.928984 267.473894 
L 100.942511 267.566499 
L 100.983095 267.357868 
L 101.023678 267.425522 
L 101.118373 267.231892 
L 101.145429 267.285731 
L 101.158957 267.350738 
L 101.19954 267.153311 
L 101.226596 267.23771 
L 101.334819 267.01118 
L 101.361874 267.10091 
L 101.375402 267.105775 
L 101.38893 267.002864 
L 101.402458 267.001731 
L 101.470097 266.832808 
L 101.429514 267.041152 
L 101.510681 266.947804 
L 101.524208 267.012235 
L 101.551264 266.834098 
L 101.605375 266.87127 
L 101.70007 266.686778 
L 101.713598 266.784717 
L 101.916516 266.48007 
L 101.930043 266.52147 
L 102.01121 266.571122 
L 101.984155 266.388249 
L 102.024738 266.469209 
L 102.038266 266.474395 
L 102.132961 266.290992 
L 102.146489 266.339581 
L 102.160017 266.365151 
L 102.187072 266.313144 
L 102.268239 266.077332 
L 102.227656 266.335534 
L 102.295295 266.22223 
L 102.308823 266.266842 
L 102.349406 266.083318 
L 102.38999 266.165288 
L 102.498213 265.966797 
L 102.51174 266.010284 
L 102.525268 266.098492 
L 102.565852 265.864174 
L 102.606435 265.916733 
L 102.619963 265.918371 
L 102.70113 265.758683 
L 102.660547 265.943961 
L 102.728186 265.829626 
L 102.741714 265.841682 
L 102.755241 265.762453 
L 102.768769 265.754533 
L 102.836408 265.593987 
L 102.822881 265.800494 
L 102.876992 265.681832 
L 102.89052 265.757809 
L 102.931103 265.574056 
L 102.971687 265.620658 
L 103.066382 265.43122 
L 103.093437 265.492898 
L 103.106965 265.531417 
L 103.120493 265.352598 
L 103.174604 265.441425 
L 103.282827 265.220323 
L 103.296355 265.254577 
L 103.377522 265.300465 
L 103.350466 265.131348 
L 103.39105 265.223573 
L 103.404578 265.227275 
L 103.499272 265.039377 
L 103.5128 265.071942 
L 103.526328 265.103132 
L 103.566912 264.918786 
L 103.607495 265.034807 
L 103.621023 265.039902 
L 103.715718 264.827089 
L 103.729246 264.860409 
L 103.769829 264.788048 
L 103.823941 264.900296 
L 103.932163 264.593224 
L 103.959219 264.709698 
L 104.148609 264.408355 
L 104.162136 264.473271 
L 104.175664 264.561589 
L 104.216248 264.359721 
L 104.256831 264.514886 
L 104.351526 264.227565 
L 104.39211 264.310623 
L 104.405638 264.362032 
L 104.432693 264.194418 
L 104.473277 264.286075 
L 104.581499 264.015879 
L 104.595027 264.082297 
L 104.608555 264.175359 
L 104.649139 263.979234 
L 104.689722 264.068669 
L 104.784417 263.817898 
L 104.825 263.916363 
L 104.838528 263.97452 
L 104.865584 263.805694 
L 104.919695 263.840375 
L 105.000862 263.594199 
L 105.027918 263.699738 
L 105.041446 263.78773 
L 105.082029 263.589052 
L 105.122613 263.675828 
L 105.230836 263.4603 
L 105.244363 263.499624 
L 105.257891 263.615399 
L 105.298475 263.339243 
L 105.339058 263.457271 
L 105.352586 263.450885 
L 105.447281 263.275597 
L 105.460809 263.321743 
L 105.474337 263.346767 
L 105.501392 263.296102 
L 105.582559 263.134236 
L 105.541976 263.31494 
L 105.609615 263.186507 
L 105.623143 263.279559 
L 105.663726 263.074134 
L 105.70431 263.1513 
L 105.812532 262.97154 
L 105.82606 263.000285 
L 105.839588 263.050741 
L 105.880172 262.886488 
L 105.907227 262.954301 
L 106.096617 262.669301 
L 106.137201 262.794215 
L 106.150728 262.602632 
L 106.20484 262.751488 
L 106.299535 262.465512 
L 106.32659 262.563681 
L 106.353646 262.598071 
L 106.448341 262.370868 
L 106.461869 262.37979 
L 106.488924 262.446815 
L 106.529508 262.284874 
L 106.556563 262.429306 
L 106.664786 262.103203 
L 106.691842 262.228433 
L 106.718898 262.233982 
L 106.813592 262.054953 
L 106.82712 262.085262 
L 106.840648 262.115723 
L 106.881232 261.940406 
L 106.921815 262.057337 
L 107.111205 261.806166 
L 107.124733 261.843674 
L 107.13826 261.915025 
L 107.178844 261.726732 
L 107.2059 261.825547 
L 107.314122 261.551894 
L 107.32765 261.619952 
L 107.341178 261.700673 
L 107.395289 261.541552 
L 107.422345 261.613974 
L 107.51704 261.407284 
L 107.557623 261.45776 
L 107.571151 261.536419 
L 107.611735 261.349197 
L 107.652318 261.411203 
L 107.733485 261.196324 
L 107.760541 261.229539 
L 107.774069 261.339277 
L 107.82818 261.162357 
L 107.855236 261.228842 
L 107.963458 261.022 
L 107.990514 261.101413 
L 108.004042 261.106617 
L 108.01757 261.035864 
L 108.098737 260.869644 
L 108.058153 261.072929 
L 108.13932 260.958591 
L 108.152848 261.012913 
L 108.179904 260.852391 
L 108.234015 260.88486 
L 108.32871 260.688372 
L 108.342238 260.739732 
L 108.355766 260.836192 
L 108.396349 260.642484 
L 108.436933 260.72327 
L 108.545155 260.495885 
L 108.558683 260.55484 
L 108.572211 260.610358 
L 108.612795 260.469177 
L 108.653378 260.514287 
L 108.666906 260.504409 
L 108.761601 260.334764 
L 108.775129 260.377871 
L 108.788656 260.402491 
L 108.815712 260.354045 
L 108.910407 260.20416 
L 108.869824 260.397532 
L 108.923935 260.246593 
L 108.937463 260.330605 
L 108.978046 260.138485 
L 109.01863 260.21197 
L 109.126852 260.015937 
L 109.14038 260.12701 
L 109.194492 259.960396 
L 109.221547 260.021653 
L 109.397409 259.75761 
L 109.410937 259.777556 
L 109.424465 259.853367 
L 109.465048 259.69007 
L 109.51916 259.818964 
L 109.613855 259.549328 
L 109.64091 259.637472 
L 109.654438 259.664317 
L 109.681494 259.562268 
L 109.762661 259.45427 
L 109.722077 259.628562 
L 109.789716 259.516028 
L 109.803244 259.524931 
L 109.816772 259.449297 
L 109.8303 259.448342 
L 109.911467 259.317675 
L 109.870883 259.50489 
L 109.95205 259.373242 
L 109.965578 259.373414 
L 110.046745 259.163887 
L 110.073801 259.266797 
L 110.182024 259.172974 
L 110.276718 258.994075 
L 110.236135 259.212337 
L 110.290246 259.047309 
L 110.303774 259.133828 
L 110.344358 258.94409 
L 110.384941 259.022903 
L 110.493164 258.816848 
L 110.506692 258.923092 
L 110.628442 258.656953 
L 110.669026 258.759987 
L 110.682554 258.767737 
L 110.696081 258.6553 
L 111.277778 258.137893 
L 110.736665 258.712313 
L 111.291306 258.156352 
L 111.304834 258.268822 
L 111.345418 258.011362 
L 111.399529 258.140696 
L 111.494224 257.971162 
L 111.521279 258.012284 
L 111.548335 258.001634 
L 111.64303 257.800654 
L 111.602446 258.034108 
L 111.656558 257.86133 
L 111.670086 257.94639 
L 111.710669 257.767216 
L 111.751253 257.843973 
L 111.859475 257.623339 
L 111.873003 257.68023 
L 111.886531 257.73263 
L 111.927115 257.597946 
L 111.967698 257.641997 
L 112.414117 257.249519 
L 112.508812 257.100165 
L 112.522339 257.139426 
L 112.535867 257.159544 
L 112.562923 257.116059 
L 112.64409 256.976519 
L 112.603506 257.132112 
L 112.671146 257.085461 
L 112.779368 256.847629 
L 112.819952 256.89978 
L 112.83348 256.959097 
L 112.874063 256.799223 
L 112.914647 256.840805 
L 113.009341 256.622931 
L 112.968758 256.864081 
L 113.022869 256.688264 
L 113.036397 256.768464 
L 113.076981 256.608387 
L 113.117564 256.67523 
L 113.225787 256.440823 
L 113.252843 256.558159 
L 114.172735 255.704479 
L 114.186263 255.735978 
L 114.199791 255.803509 
L 114.240375 255.633305 
L 114.280958 255.690159 
L 114.375653 255.461673 
L 114.335069 255.702176 
L 114.389181 255.528575 
L 114.402709 255.600041 
L 114.45682 255.455515 
L 114.483876 255.516565 
L 114.592098 255.274526 
L 114.619154 255.394009 
L 114.632682 255.407533 
L 114.659737 255.304978 
L 114.727377 255.191685 
L 114.700321 255.334407 
L 114.76796 255.260916 
L 114.781488 255.306192 
L 114.808544 255.161566 
L 114.849127 255.254522 
L 114.95735 254.997487 
L 114.970878 255.053809 
L 114.984406 255.133595 
L 115.024989 254.963318 
L 115.065573 255.035551 
L 115.173795 254.832884 
L 115.187323 254.919507 
L 115.390241 254.669235 
L 115.214379 254.948655 
L 115.417296 254.721505 
L 115.430824 254.746878 
L 115.444352 254.580277 
L 115.498463 254.671051 
L 115.606686 254.48274 
L 115.620214 254.514375 
L 115.633742 254.556075 
L 115.660797 254.438865 
L 115.714909 254.483947 
L 115.890771 254.211009 
L 115.904298 254.266367 
L 115.917826 254.338145 
L 115.95841 254.125525 
L 115.998993 254.278204 
L 116.093688 254.069057 
L 116.134272 254.115107 
L 116.147799 254.170317 
L 116.188383 254.01711 
L 116.215439 254.123407 
L 116.323661 253.850466 
L 116.337189 253.909402 
L 116.350717 253.98491 
L 116.391301 253.833492 
L 116.431884 253.895559 
L 116.540107 253.694827 
L 116.567162 253.755334 
L 116.58069 253.817294 
L 116.621274 253.661871 
L 116.661857 253.69853 
L 116.756552 253.5374 
L 116.783608 253.582895 
L 116.797136 253.614005 
L 116.810663 253.469611 
L 116.864775 253.534636 
L 116.972998 253.347561 
L 117.000053 253.419898 
L 117.094748 253.344157 
L 117.189443 253.183577 
L 117.202971 253.205847 
L 117.284138 253.195618 
L 117.257082 253.078927 
L 117.311193 253.175012 
L 117.405888 252.99263 
L 117.419416 253.017292 
L 117.46 252.957971 
L 117.514111 253.042683 
L 117.622334 252.802835 
L 117.635861 252.84188 
L 117.649389 252.941755 
L 117.689973 252.716732 
L 117.744084 252.822554 
L 117.838779 252.615681 
L 117.865835 252.737572 
L 117.987585 252.52872 
L 118.001113 252.559104 
L 118.041697 252.455467 
L 118.095808 252.558791 
L 118.204031 252.353352 
L 118.217558 252.397825 
L 118.231086 252.408178 
L 118.244614 252.359167 
L 118.258142 252.358132 
L 118.339309 252.228752 
L 118.298725 252.389002 
L 118.366365 252.292876 
L 118.406948 252.21522 
L 118.474587 252.081988 
L 118.434004 252.238742 
L 118.515171 252.160502 
L 118.528699 252.209571 
L 118.555754 252.071079 
L 118.609866 252.093993 
L 118.691033 251.887735 
L 118.718088 251.968067 
L 118.731616 252.040106 
L 118.7722 251.876844 
L 118.812783 251.942039 
L 118.921006 251.759188 
L 118.934534 251.7889 
L 119.015701 251.816426 
L 118.988645 251.682222 
L 119.029229 251.743016 
L 119.042756 251.74418 
L 119.137451 251.592409 
L 119.150979 251.625912 
L 119.164507 251.645405 
L 119.191563 251.60575 
L 119.27273 251.468124 
L 119.232146 251.613827 
L 119.299785 251.504823 
L 119.313313 251.579928 
L 119.353897 251.410417 
L 119.39448 251.469644 
L 119.502703 251.304224 
L 119.516231 251.336466 
L 119.529759 251.404157 
L 119.570342 251.216878 
L 119.610926 251.259879 
L 119.692093 251.223536 
L 119.786787 251.04541 
L 119.813843 251.11404 
L 119.827371 251.147275 
L 119.840899 250.990743 
L 119.89501 251.104939 
L 119.989705 250.867298 
L 120.030289 250.93991 
L 120.043816 250.96906 
L 120.057344 250.798405 
L 120.111456 250.874867 
L 120.20615 250.770317 
L 120.246734 250.813773 
L 120.354957 250.578393 
L 120.382012 250.699573 
L 120.422596 250.506641 
L 120.476707 250.623771 
L 120.571402 250.392802 
L 120.598458 250.499589 
L 121.153099 249.939382 
L 121.166627 250.007092 
L 121.261322 250.008316 
L 121.356017 249.785898 
L 121.3966 249.840248 
L 121.410128 249.878843 
L 121.437184 249.749301 
L 121.477767 249.81297 
L 121.58599 249.594103 
L 121.599518 249.643706 
L 121.613045 249.712155 
L 121.653629 249.561998 
L 121.694212 249.624495 
L 121.788907 249.428569 
L 121.829491 249.493355 
L 121.843019 249.538037 
L 121.870074 249.407591 
L 121.924186 249.428125 
L 122.01888 249.259088 
L 122.032408 249.300275 
L 122.045936 249.37626 
L 122.08652 249.219219 
L 122.127103 249.279088 
L 122.235326 249.102748 
L 122.248854 249.13033 
L 122.262382 249.217238 
L 122.302965 249.002455 
L 122.343549 249.092325 
L 122.505883 248.952155 
L 122.600577 248.819224 
L 122.559994 248.981977 
L 122.614105 248.853364 
L 122.627633 248.920339 
L 122.668217 248.762729 
L 122.7088 248.818581 
L 122.817023 248.664533 
L 122.830551 248.6888 
L 122.844079 248.726166 
L 122.884662 248.597683 
L 122.911718 248.645427 
L 123.08758 248.423334 
L 123.101107 248.436781 
L 123.114635 248.492739 
L 123.155219 248.363349 
L 123.20933 248.460134 
L 123.304025 248.237108 
L 123.344608 248.302393 
L 123.358136 248.328899 
L 123.371664 248.172859 
L 123.425775 248.239347 
L 123.52047 248.138028 
L 123.601637 248.023913 
L 123.561054 248.175978 
L 123.642221 248.064933 
L 123.655749 248.065648 
L 123.736916 247.890264 
L 123.763971 247.965874 
L 123.872194 247.885349 
L 123.966889 247.730451 
L 123.926305 247.91142 
L 123.980417 247.772818 
L 123.993945 247.840901 
L 124.034528 247.686717 
L 124.075112 247.745655 
L 124.183334 247.572892 
L 124.196862 247.608811 
L 124.21039 247.648513 
L 124.250973 247.527726 
L 124.291557 247.556683 
L 124.71092 247.229743 
L 124.724448 247.265317 
L 124.83267 247.079736 
L 124.846198 247.115215 
L 124.859726 247.126751 
L 124.886782 247.0797 
L 124.967949 246.960853 
L 124.927365 247.101879 
L 125.008532 247.002272 
L 125.02206 247.007456 
L 125.103227 246.838578 
L 125.130283 246.886027 
L 125.238506 246.827724 
L 125.3332 246.663743 
L 125.346728 246.703459 
L 125.360256 246.773514 
L 125.40084 246.626584 
L 125.441423 246.681831 
L 125.549646 246.493618 
L 125.563174 246.539436 
L 125.576701 246.579853 
L 125.617285 246.472878 
L 125.657868 246.502913 
L 126.253093 246.031802 
L 126.347788 245.911408 
L 126.374844 245.948489 
L 126.388372 245.958647 
L 126.469539 245.799016 
L 126.510122 245.833062 
L 126.52365 245.880755 
L 126.564234 245.748044 
L 126.604817 245.779647 
L 126.699512 245.599796 
L 126.71304 245.64627 
L 126.726568 245.711813 
L 126.767151 245.581994 
L 126.807735 245.627563 
L 126.915957 245.429676 
L 126.943013 245.521225 
L 127.037708 245.44809 
L 127.132403 245.306979 
L 127.159458 245.344417 
L 127.267681 245.242019 
L 127.308265 245.276376 
L 127.402959 245.107749 
L 127.538238 245.09861 
L 127.632933 244.88452 
L 127.659988 244.980358 
L 127.862906 244.759205 
L 127.876434 244.784235 
L 127.889961 244.837657 
L 127.930545 244.698182 
L 127.971128 244.740872 
L 128.065823 244.550743 
L 128.092879 244.658957 
L 128.282269 244.380357 
L 128.295797 244.436461 
L 128.322852 244.486155 
L 128.363436 244.371918 
L 128.404019 244.412176 
L 128.512242 244.274843 
L 128.52577 244.299216 
L 128.552825 244.291681 
L 128.64752 244.126271 
L 128.606937 244.307001 
L 128.661048 244.171241 
L 128.674576 244.232091 
L 128.715159 244.097537 
L 128.755743 244.148873 
L 128.863966 243.978668 
L 128.891021 244.026078 
L 128.904549 244.068588 
L 128.931605 243.952914 
L 128.985716 243.965127 
L 129.080411 243.830266 
L 129.107467 243.873531 
L 129.134522 243.79941 
L 129.188634 243.82377 
L 129.296856 243.661488 
L 129.310384 243.683803 
L 129.323912 243.716764 
L 129.350968 243.62574 
L 129.405079 243.652615 
L 129.729747 243.338413 
L 129.743275 243.359475 
L 129.783859 243.292841 
L 129.83797 243.365405 
L 129.946193 243.17101 
L 129.95972 243.19905 
L 129.973248 243.276915 
L 130.013832 243.093046 
L 130.054415 243.159933 
L 130.14911 243.065667 
L 130.230277 242.953555 
L 130.189694 243.094626 
L 130.257333 242.996937 
L 130.270861 243.046822 
L 130.311444 242.917912 
L 130.352028 242.945626 
L 130.446723 242.810095 
L 130.473778 242.844366 
L 130.487306 242.872853 
L 130.52789 242.759606 
L 130.554945 242.798736 
L 130.663168 242.639158 
L 130.690224 242.691919 
L 130.784918 242.628868 
L 130.879613 242.49081 
L 130.906669 242.521657 
L 131.069003 242.428845 
L 131.177226 242.273522 
L 131.190754 242.298275 
L 131.204281 242.347881 
L 131.244865 242.215296 
L 131.285448 242.256146 
L 131.380143 242.074179 
L 131.407199 242.169595 
L 131.596589 241.942824 
L 131.623644 241.977585 
L 131.637172 242.033144 
L 131.677756 241.897682 
L 131.718339 241.935248 
L 131.826562 241.801651 
L 131.84009 241.824882 
L 131.853618 241.868077 
L 131.894201 241.73132 
L 131.921257 241.782857 
L 132.083591 241.62089 
L 132.300036 241.499553 
L 132.394731 241.369701 
L 132.421787 241.404551 
L 132.435315 241.42289 
L 132.448842 241.305315 
L 132.502954 241.358032 
L 132.611176 241.205171 
L 132.638232 241.256874 
L 132.732927 241.183928 
L 132.827622 241.055012 
L 132.854677 241.091708 
L 133.125234 240.854537 
L 133.138762 240.871547 
L 133.15229 240.912457 
L 133.192873 240.79153 
L 133.219929 240.870721 
L 133.328152 240.654051 
L 133.34168 240.695753 
L 133.355207 240.747663 
L 133.409319 240.634677 
L 133.436374 240.675147 
L 133.531069 240.518796 
L 133.571653 240.554621 
L 133.585181 240.600216 
L 133.625764 240.478938 
L 133.666348 240.505192 
L 133.761042 240.375102 
L 133.788098 240.402951 
L 133.801626 240.425493 
L 133.815154 240.32598 
L 133.869265 240.358225 
L 133.977488 240.20853 
L 134.004544 240.257037 
L 134.099238 240.192445 
L 134.193933 240.06345 
L 134.220989 240.091571 
L 134.315684 240.044327 
L 134.410379 239.896021 
L 134.437434 239.943004 
L 134.545657 239.82943 
L 134.694463 239.662456 
L 134.58624 239.879738 
L 134.707991 239.702135 
L 134.721519 239.746908 
L 134.77563 239.642519 
L 134.802686 239.681321 
L 134.992076 239.484073 
L 135.005603 239.504464 
L 135.046187 239.431625 
L 135.100298 239.496453 
L 135.208521 239.330876 
L 135.235577 239.367346 
L 135.411439 239.166683 
L 135.424966 239.182125 
L 135.438494 239.234546 
L 135.479078 239.110505 
L 135.533189 239.188228 
L 135.627884 238.999309 
L 135.668467 239.053958 
L 135.736107 239.038666 
L 135.695523 238.938603 
L 135.749634 238.993767 
L 136.628944 238.361354 
L 136.723639 238.252535 
L 136.750694 238.290247 
L 136.845389 238.144944 
L 136.885973 238.173206 
L 136.899501 238.215177 
L 136.940084 238.099769 
L 136.980668 238.125173 
L 137.061835 237.979602 
L 137.102418 238.062593 
L 137.224169 237.876023 
L 137.264752 237.913981 
L 137.575892 237.615408 
L 137.602948 237.684164 
L 137.859977 237.467841 
L 137.90056 237.484097 
L 138.008783 237.307197 
L 138.035839 237.38294 
L 138.117006 237.320898 
L 138.306395 237.130484 
L 138.319923 237.149336 
L 138.360507 237.083144 
L 138.414618 237.139176 
L 138.522841 236.983852 
L 138.536369 237.007288 
L 138.576952 236.980822 
L 138.658119 236.880365 
L 138.617536 236.989097 
L 138.698703 236.918233 
L 138.888092 236.736233 
L 138.982787 236.72284 
L 138.942204 236.661686 
L 138.996315 236.701474 
L 139.145121 236.564042 
L 139.361567 236.448028 
L 139.456262 236.32985 
L 139.483317 236.360413 
L 140.037959 235.929146 
L 140.051486 235.957221 
L 140.146181 235.911263 
L 140.254404 235.779899 
L 140.267932 235.798542 
L 140.349099 235.774037 
L 140.308515 235.721749 
L 140.362627 235.753673 
L 140.538488 235.562937 
L 140.565544 235.637534 
L 140.606128 235.526095 
L 140.646711 235.551805 
L 140.727878 235.504175 
L 140.822573 235.387459 
L 140.849629 235.408733 
L 140.957851 235.324511 
L 140.998435 235.341809 
L 141.09313 235.208618 
L 141.309575 235.096912 
L 141.40427 234.985857 
L 141.431326 235.018513 
L 141.539548 234.914191 
L 141.580132 234.947132 
L 141.701882 234.80291 
L 141.71541 234.832575 
L 141.755994 234.708369 
L 141.810105 234.774858 
L 141.9048 234.619404 
L 141.931856 234.692906 
L 142.107718 234.491594 
L 142.134773 234.510105 
L 142.242996 234.462764 
L 142.337691 234.32222 
L 142.364746 234.400104 
L 142.554136 234.176754 
L 142.581192 234.237404 
L 142.662359 234.177117 
L 146.639543 231.521522 
L 146.734238 231.401914 
L 146.761293 231.435153 
L 146.937155 231.306086 
L 147.018322 231.193439 
L 147.058906 231.235126 
L 147.1536 231.159191 
L 147.288879 231.070767 
L 147.478269 230.953089 
L 147.491796 230.96992 
L 147.505324 230.900466 
L 147.559436 230.911013 
L 147.748825 230.73982 
L 147.789409 230.770571 
L 147.802937 230.680675 
L 147.857048 230.739971 
L 147.951743 230.585708 
L 147.992326 230.624819 
L 148.019382 230.52983 
L 148.087021 230.558091 
L 148.2223 230.466697 
L 148.384634 230.298824 
L 148.425217 230.341167 
L 148.452273 230.291683 
L 148.519912 230.272413 
L 148.601079 230.180398 
L 148.641662 230.233393 
L 148.763413 230.098593 
L 148.776941 230.106892 
L 148.790469 230.131618 
L 148.817524 230.055201 
L 148.858108 230.07734 
L 148.966331 229.9287 
L 148.993386 229.990955 
L 149.169248 229.802425 
L 149.196304 229.821501 
L 149.304526 229.775596 
L 149.385693 229.65316 
L 149.426277 229.717412 
L 149.615667 229.526184 
L 149.737417 229.497373 
L 149.832112 229.394171 
L 149.859168 229.412313 
L 151.617786 228.287697 
L 151.698954 228.177324 
L 151.739537 228.211897 
L 151.766593 228.166171 
L 151.834232 228.145656 
L 151.928927 228.053835 
L 151.955982 228.102366 
L 152.077733 227.974627 
L 152.091261 227.983197 
L 152.104789 228.005443 
L 152.145372 227.925116 
L 152.172428 227.952953 
L 152.28065 227.81232 
L 152.307706 227.86725 
L 152.524152 227.70881 
L 152.537679 227.734024 
L 152.578263 227.650597 
L 152.618846 227.660423 
L 152.713541 227.540282 
L 152.740597 227.598443 
L 152.929987 227.419166 
L 153.051737 227.387698 
L 153.146432 227.290194 
L 153.173488 227.30524 
L 153.633434 227.017565 
L 153.728129 226.926104 
L 153.755185 226.947186 
L 154.350409 226.579812 
L 154.431576 226.474887 
L 154.47216 226.49196 
L 154.485688 226.510863 
L 154.512743 226.441222 
L 154.566855 226.439004 
L 154.66155 226.327417 
L 154.688605 226.381035 
L 154.877995 226.195867 
L 154.905051 226.235253 
L 154.986218 226.178679 
L 168.744027 218.084236 
L 168.838722 218.032321 
L 168.974001 217.955766 
L 170.245617 217.242468 
L 170.259145 217.263466 
L 170.299729 217.191158 
L 170.340312 217.19943 
L 170.935537 216.866917 
L 171.084343 216.756494 
L 171.111399 216.775947 
L 172.410071 216.067975 
L 178.686987 212.736517 
L 178.822265 212.663827 
L 179.133406 212.516945 
L 179.336323 212.409343 
L 179.674519 212.219223 
L 179.877437 212.120943 
L 180.093882 212.00761 
L 180.391494 211.849176 
L 180.743218 211.67242 
L 182.204225 210.933501 
L 182.366559 210.860286 
L 183.61112 210.239628 
L 183.773454 210.150243 
L 184.11165 209.985431 
L 187.899444 208.125279 
L 188.224112 207.97442 
L 188.535252 207.818329 
L 203.185899 201.155023 
L 203.456456 201.036203 
L 204.362821 200.655669 
L 204.565738 200.568578 
L 205.133907 200.327002 
L 206.283773 199.837947 
L 206.459635 199.7671 
L 206.716664 199.656605 
L 207.230722 199.450887 
L 207.447167 199.3535 
L 207.893586 199.170827 
L 208.069448 199.087096 
L 208.407644 198.949747 
L 209.002868 198.699054 
L 209.273425 198.59179 
L 209.949817 198.314757 
L 210.166262 198.227983 
L 210.504458 198.087739 
L 210.950877 197.902847 
L 211.072627 197.861538 
L 211.248489 197.787014 
L 211.478463 197.699847 
L 212.033104 197.466623 
L 212.141326 197.433921 
L 212.317188 197.350965 
L 212.506578 197.287676 
L 212.655384 197.220029 
L 213.047692 197.065616 
L 213.724083 196.809211 
L 214.035224 196.75744 
L 214.170502 196.743221 
L 214.346364 196.741994 
L 214.454587 196.729928 
L 214.468114 196.743693 
L 214.643976 196.715619 
L 214.968644 196.721603 
L 215.347424 196.714123 
L 215.590925 196.722333 
L 215.726203 196.717047 
L 227.481893 196.72161 
L 227.603643 196.720294 
L 227.968895 196.719099 
L 228.131229 196.711756 
L 228.37473 196.722037 
L 228.510009 196.718251 
L 229.998071 196.711463 
L 230.133349 196.711076 
L 230.309211 196.718894 
L 230.68799 196.71157 
L 230.931491 196.722084 
L 231.06677 196.718541 
L 232.351914 196.716484 
L 232.81186 196.715278 
L 233.00125 196.717374 
L 234.868092 196.722592 
L 235.00337 196.71986 
L 236.491432 196.710122 
L 236.680822 196.710843 
L 237.411325 196.722056 
L 239.4405 196.719848 
L 239.562251 196.72018 
L 240.482144 196.715621 
L 240.658006 196.720379 
L 241.347925 196.721402 
L 242.348985 196.715874 
L 242.524847 196.722166 
L 244.418744 196.717173 
L 244.56755 196.709258 
L 244.973385 196.71664 
L 245.135719 196.715349 
L 245.44686 196.721316 
L 245.56861 196.722564 
L 246.529087 196.718486 
L 246.691421 196.719561 
L 246.853755 196.710588 
L 247.043144 196.716688 
L 247.205478 196.711788 
L 247.367812 196.728709 
L 247.557202 196.71436 
L 247.719536 196.727921 
L 247.88187 196.713566 
L 248.26065 196.719363 
L 248.477095 196.723519 
L 248.666485 196.718756 
L 249.099376 196.728699 
L 249.275237 196.707282 
L 249.505211 196.721601 
L 249.965157 196.707358 
L 250.086908 196.716813 
L 250.100435 196.703953 
L 250.276297 196.72796 
L 250.38452 196.71079 
L 250.398048 196.720397 
L 250.979745 196.720297 
L 251.142079 196.71103 
L 251.317941 196.718935 
L 251.710248 196.718666 
L 252.143139 196.728826 
L 252.264889 196.71884 
L 253.184782 196.72512 
L 253.293005 196.713707 
L 253.306533 196.721823 
L 255.051624 196.723389 
L 255.173374 196.721428 
L 255.498042 196.710627 
L 255.673904 196.721735 
L 255.809182 196.718412 
L 256.756131 196.718393 
L 256.931993 196.715117 
L 257.148438 196.708706 
L 257.405467 196.720151 
L 257.540745 196.71742 
L 257.703079 196.708961 
L 257.933053 196.73056 
L 258.108915 196.713581 
L 258.460638 196.71107 
L 258.785306 196.721123 
L 258.920585 196.715754 
L 269.878132 196.713611 
L 270.013411 196.711974 
L 270.189272 196.720672 
L 270.324551 196.717518 
L 270.838609 196.710201 
L 271.027998 196.710544 
L 272.01553 196.71119 
L 272.150809 196.710998 
L 272.326671 196.718948 
L 272.718978 196.718454 
L 273.097757 196.71768 
L 273.246563 196.710175 
L 273.922955 196.721677 
L 274.085289 196.709672 
L 274.32879 196.722538 
L 274.464069 196.719661 
L 276.371494 196.713865 
L 276.547356 196.710933 
L 277.101997 196.720888 
L 277.223747 196.721086 
L 299.422927 196.720286 
L 299.558205 196.714509 
L 315.22344 196.717941 
L 315.385774 196.722983 
L 315.548108 196.706893 
L 315.669858 196.717253 
L 315.683386 196.703299 
L 315.872776 196.715018 
L 316.170388 196.710445 
L 316.34625 196.722449 
L 316.481529 196.719838 
L 318.754205 196.720889 
L 319.051817 196.719253 
L 319.200624 196.697009 
L 319.376486 196.722154 
L 319.633514 196.712581 
L 319.795848 196.728804 
L 319.97171 196.705917 
L 320.1611 196.712504 
L 320.539879 196.719407 
L 320.97277 196.721606 
L 321.365077 196.715472 
L 321.527412 196.728262 
L 321.689746 196.69795 
L 321.865607 196.72039 
L 322.16322 196.7188 
L 322.298498 196.710291 
L 322.988418 196.720537 
L 323.123696 196.718456 
L 323.28603 196.708929 
L 323.529531 196.72171 
L 323.921839 196.713891 
L 324.084173 196.728247 
L 324.246507 196.70613 
L 324.503536 196.716352 
L 329.738808 196.718736 
L 329.901142 196.720679 
L 330.063476 196.708423 
L 330.198755 196.705427 
L 330.374617 196.727343 
L 330.482839 196.711531 
L 330.496367 196.721022 
L 331.213342 196.720238 
L 331.348621 196.713204 
L 332.593182 196.721362 
L 332.714932 196.721964 
L 332.958433 196.701824 
L 333.147823 196.71589 
L 333.458963 196.718046 
L 334.189466 196.71785 
L 334.3518 196.712531 
L 334.595301 196.721784 
L 334.717052 196.722145 
L 337.706704 196.721582 
L 337.828454 196.722031 
L 338.085483 196.712509 
L 338.247817 196.728893 
L 338.423679 196.705837 
L 338.613069 196.712431 
L 338.991848 196.719385 
L 339.424739 196.728331 
L 339.532962 196.710263 
L 339.54649 196.719793 
L 340.060547 196.719446 
L 340.209354 196.69679 
L 340.385215 196.722049 
L 340.642244 196.712506 
L 340.804578 196.728824 
L 340.98044 196.705635 
L 341.16983 196.71271 
L 341.548609 196.719271 
L 341.940917 196.711522 
L 342.969032 196.71613 
L 343.131366 196.713815 
L 343.388395 196.711494 
L 344.511206 196.712623 
L 344.67354 196.722573 
L 344.849401 196.710285 
L 345.052319 196.711458 
L 345.525793 196.716326 
L 345.688127 196.713913 
L 345.98574 196.725589 
L 346.134546 196.718513 
L 346.60802 196.720956 
L 347.10855 196.720366 
L 347.243828 196.712476 
L 348.082554 196.716425 
L 348.244888 196.713853 
L 348.542501 196.725588 
L 348.691307 196.71872 
L 349.164781 196.721036 
L 349.665311 196.720499 
L 349.80059 196.712951 
L 350.774594 196.71334 
L 351.207485 196.705189 
L 351.383346 196.72743 
L 351.491569 196.711439 
L 351.505097 196.720939 
L 352.222072 196.720327 
L 352.357351 196.713312 
L 353.601912 196.721547 
L 353.723662 196.721887 
L 353.980691 196.71261 
L 354.129497 196.717806 
L 354.291831 196.724134 
L 354.400054 196.71453 
L 354.413582 196.721837 
L 357.132677 196.718105 
L 357.281483 196.710094 
L 358.36371 196.722987 
L 358.498988 196.719975 
L 361.326306 196.720168 
L 361.623919 196.719197 
L 361.759197 196.710245 
L 362.30031 196.729893 
L 362.422061 196.718017 
L 362.922591 196.72327 
L 363.084925 196.708017 
L 363.761317 196.722847 
L 363.883067 196.720236 
L 364.18068 196.719131 
L 364.315958 196.710624 
L 364.951766 196.711057 
L 375.300561 196.724272 
L 375.408784 196.714411 
L 375.422312 196.721793 
L 377.857322 196.724363 
L 377.965545 196.714328 
L 377.979073 196.721905 
L 380.549362 196.722458 
L 380.68464 196.71938 
L 382.240341 196.710611 
L 382.389147 196.717457 
L 382.754399 196.72294 
L 382.930261 196.708977 
L 383.173762 196.72737 
L 383.336096 196.705575 
L 383.525486 196.723825 
L 383.68782 196.706376 
L 383.836626 196.713352 
L 383.99896 196.728472 
L 384.107183 196.710031 
L 384.12071 196.719455 
L 384.634768 196.719778 
L 384.783574 196.696665 
L 384.959436 196.721845 
L 385.270577 196.707154 
L 385.662884 196.722627 
L 385.798162 196.719979 
L 386.948028 196.714662 
L 387.110362 196.728569 
L 387.272696 196.697457 
L 387.448558 196.720256 
L 387.732643 196.718595 
L 389.599484 196.7228 
L 389.734763 196.720935 
L 391.236352 196.718563 
L 391.601604 196.723452 
L 391.777466 196.709835 
L 391.953328 196.722473 
L 392.088606 196.719207 
L 395.795233 196.714699 
L 395.957567 196.727691 
L 396.06579 196.71113 
L 396.079318 196.720704 
L 396.728654 196.721438 
L 396.850405 196.720344 
L 397.269767 196.723015 
L 397.432101 196.702072 
L 397.621491 196.721962 
L 397.75677 196.718107 
L 398.487273 196.71531 
L 398.487273 196.71531 
" style="fill:none;stroke:#d62728;stroke-linecap:square;stroke-width:1.5;"/>
   </g>
   <g id="line2d_22">
    <path clip-path="url(#p8d70709d12)" d="M 73.832727 204.424337 
L 398.487273 204.424337 
L 398.487273 204.424337 
" style="fill:none;stroke:#9467bd;stroke-linecap:square;stroke-width:1.5;"/>
   </g>
   <g id="patch_3">
    <path d="M 57.6 307.584 
L 57.6 41.472 
" style="fill:none;stroke:#000000;stroke-linecap:square;stroke-linejoin:miter;stroke-width:0.8;"/>
   </g>
   <g id="patch_4">
    <path d="M 414.72 307.584 
L 414.72 41.472 
" style="fill:none;stroke:#000000;stroke-linecap:square;stroke-linejoin:miter;stroke-width:0.8;"/>
   </g>
   <g id="patch_5">
    <path d="M 57.6 307.584 
L 414.72 307.584 
" style="fill:none;stroke:#000000;stroke-linecap:square;stroke-linejoin:miter;stroke-width:0.8;"/>
   </g>
   <g id="patch_6">
    <path d="M 57.6 41.472 
L 414.72 41.472 
" style="fill:none;stroke:#000000;stroke-linecap:square;stroke-linejoin:miter;stroke-width:0.8;"/>
   </g>
   <g id="legend_1">
    <g id="patch_7">
     <path d="M 356.516875 122.862625 
L 407.72 122.862625 
Q 409.72 122.862625 409.72 120.862625 
L 409.72 48.472 
Q 409.72 46.472 407.72 46.472 
L 356.516875 46.472 
Q 354.516875 46.472 354.516875 48.472 
L 354.516875 120.862625 
Q 354.516875 122.862625 356.516875 122.862625 
z
" style="fill:#ffffff;opacity:0.8;stroke:#cccccc;stroke-linejoin:miter;"/>
    </g>
    <g id="line2d_23">
     <path d="M 358.516875 54.570438 
L 378.516875 54.570438 
" style="fill:none;stroke:#1f77b4;stroke-linecap:square;stroke-width:1.5;"/>
    </g>
    <g id="line2d_24"/>
    <g id="text_21">
     <!-- T+ -->
     <g transform="translate(386.516875 58.070438)scale(0.1 -0.1)">
      <defs>
       <path d="M 46 62.703125 
L 46 35.5 
L 73.1875 35.5 
L 73.1875 27.203125 
L 46 27.203125 
L 46 0 
L 37.796875 0 
L 37.796875 27.203125 
L 10.59375 27.203125 
L 10.59375 35.5 
L 37.796875 35.5 
L 37.796875 62.703125 
z
" id="DejaVuSans-43"/>
      </defs>
      <use xlink:href="#DejaVuSans-84"/>
      <use x="61.083984" xlink:href="#DejaVuSans-43"/>
     </g>
    </g>
    <g id="line2d_25">
     <path d="M 358.516875 69.248563 
L 378.516875 69.248563 
" style="fill:none;stroke:#ff7f0e;stroke-linecap:square;stroke-width:1.5;"/>
    </g>
    <g id="line2d_26"/>
    <g id="text_22">
     <!-- Tp -->
     <g transform="translate(386.516875 72.748563)scale(0.1 -0.1)">
      <defs>
       <path d="M 18.109375 8.203125 
L 18.109375 -20.796875 
L 9.078125 -20.796875 
L 9.078125 54.6875 
L 18.109375 54.6875 
L 18.109375 46.390625 
Q 20.953125 51.265625 25.265625 53.625 
Q 29.59375 56 35.59375 56 
Q 45.5625 56 51.78125 48.09375 
Q 58.015625 40.1875 58.015625 27.296875 
Q 58.015625 14.40625 51.78125 6.484375 
Q 45.5625 -1.421875 35.59375 -1.421875 
Q 29.59375 -1.421875 25.265625 0.953125 
Q 20.953125 3.328125 18.109375 8.203125 
z
M 48.6875 27.296875 
Q 48.6875 37.203125 44.609375 42.84375 
Q 40.53125 48.484375 33.40625 48.484375 
Q 26.265625 48.484375 22.1875 42.84375 
Q 18.109375 37.203125 18.109375 27.296875 
Q 18.109375 17.390625 22.1875 11.75 
Q 26.265625 6.109375 33.40625 6.109375 
Q 40.53125 6.109375 44.609375 11.75 
Q 48.6875 17.390625 48.6875 27.296875 
z
" id="DejaVuSans-112"/>
      </defs>
      <use xlink:href="#DejaVuSans-84"/>
      <use x="61.083984" xlink:href="#DejaVuSans-112"/>
     </g>
    </g>
    <g id="line2d_27">
     <path d="M 358.516875 83.926688 
L 378.516875 83.926688 
" style="fill:none;stroke:#2ca02c;stroke-linecap:square;stroke-width:1.5;"/>
    </g>
    <g id="line2d_28"/>
    <g id="text_23">
     <!-- T- -->
     <g transform="translate(386.516875 87.426688)scale(0.1 -0.1)">
      <defs>
       <path d="M 4.890625 31.390625 
L 31.203125 31.390625 
L 31.203125 23.390625 
L 4.890625 23.390625 
z
" id="DejaVuSans-45"/>
      </defs>
      <use xlink:href="#DejaVuSans-84"/>
      <use x="51.958984" xlink:href="#DejaVuSans-45"/>
     </g>
    </g>
    <g id="line2d_29">
     <path d="M 358.516875 98.604813 
L 378.516875 98.604813 
" style="fill:none;stroke:#d62728;stroke-linecap:square;stroke-width:1.5;"/>
    </g>
    <g id="line2d_30"/>
    <g id="text_24">
     <!-- O2 -->
     <g transform="translate(386.516875 102.104813)scale(0.1 -0.1)">
      <defs>
       <path d="M 39.40625 66.21875 
Q 28.65625 66.21875 22.328125 58.203125 
Q 16.015625 50.203125 16.015625 36.375 
Q 16.015625 22.609375 22.328125 14.59375 
Q 28.65625 6.59375 39.40625 6.59375 
Q 50.140625 6.59375 56.421875 14.59375 
Q 62.703125 22.609375 62.703125 36.375 
Q 62.703125 50.203125 56.421875 58.203125 
Q 50.140625 66.21875 39.40625 66.21875 
z
M 39.40625 74.21875 
Q 54.734375 74.21875 63.90625 63.9375 
Q 73.09375 53.65625 73.09375 36.375 
Q 73.09375 19.140625 63.90625 8.859375 
Q 54.734375 -1.421875 39.40625 -1.421875 
Q 24.03125 -1.421875 14.8125 8.828125 
Q 5.609375 19.09375 5.609375 36.375 
Q 5.609375 53.65625 14.8125 63.9375 
Q 24.03125 74.21875 39.40625 74.21875 
z
" id="DejaVuSans-79"/>
      </defs>
      <use xlink:href="#DejaVuSans-79"/>
      <use x="78.710938" xlink:href="#DejaVuSans-50"/>
     </g>
    </g>
    <g id="line2d_31">
     <path d="M 358.516875 113.282938 
L 378.516875 113.282938 
" style="fill:none;stroke:#9467bd;stroke-linecap:square;stroke-width:1.5;"/>
    </g>
    <g id="line2d_32"/>
    <g id="text_25">
     <!-- test -->
     <g transform="translate(386.516875 116.782938)scale(0.1 -0.1)">
      <use xlink:href="#DejaVuSans-116"/>
      <use x="39.208984" xlink:href="#DejaVuSans-101"/>
      <use x="100.732422" xlink:href="#DejaVuSans-115"/>
      <use x="152.832031" xlink:href="#DejaVuSans-116"/>
     </g>
    </g>
   </g>
  </g>
 </g>
 <defs>
  <clipPath id="p8d70709d12">
   <rect height="266.112" width="357.12" x="57.6" y="41.472"/>
  </clipPath>
 </defs>
</svg>
