<?xml version="1.0" encoding="utf-8" standalone="no"?>
<!DOCTYPE svg PUBLIC "-//W3C//DTD SVG 1.1//EN"
  "http://www.w3.org/Graphics/SVG/1.1/DTD/svg11.dtd">
<!-- Created with matplotlib (https://matplotlib.org/) -->
<svg height="345.6pt" version="1.1" viewBox="0 0 460.8 345.6" width="460.8pt" xmlns="http://www.w3.org/2000/svg" xmlns:xlink="http://www.w3.org/1999/xlink">
 <metadata>
  <rdf:RDF xmlns:cc="http://creativecommons.org/ns#" xmlns:dc="http://purl.org/dc/elements/1.1/" xmlns:rdf="http://www.w3.org/1999/02/22-rdf-syntax-ns#">
   <cc:Work>
    <dc:type rdf:resource="http://purl.org/dc/dcmitype/StillImage"/>
    <dc:date>2020-10-24T13:53:52.985743</dc:date>
    <dc:format>image/svg+xml</dc:format>
    <dc:creator>
     <cc:Agent>
      <dc:title>Matplotlib v3.3.2, https://matplotlib.org/</dc:title>
     </cc:Agent>
    </dc:creator>
   </cc:Work>
  </rdf:RDF>
 </metadata>
 <defs>
  <style type="text/css">*{stroke-linecap:butt;stroke-linejoin:round;}</style>
 </defs>
 <g id="figure_1">
  <g id="patch_1">
   <path d="M 0 345.6 
L 460.8 345.6 
L 460.8 0 
L 0 0 
z
" style="fill:#ffffff;"/>
  </g>
  <g id="axes_1">
   <g id="patch_2">
    <path d="M 57.6 307.584 
L 414.72 307.584 
L 414.72 41.472 
L 57.6 41.472 
z
" style="fill:#ffffff;"/>
   </g>
   <g id="matplotlib.axis_1">
    <g id="xtick_1">
     <g id="line2d_1">
      <defs>
       <path d="M 0 0 
L 0 3.5 
" id="mc48e8085db" style="stroke:#000000;stroke-width:0.8;"/>
      </defs>
      <g>
       <use style="stroke:#000000;stroke-width:0.8;" x="73.832727" xlink:href="#mc48e8085db" y="307.584"/>
      </g>
     </g>
     <g id="text_1">
      <!-- 0.0 -->
      <g transform="translate(65.881165 322.182437)scale(0.1 -0.1)">
       <defs>
        <path d="M 31.78125 66.40625 
Q 24.171875 66.40625 20.328125 58.90625 
Q 16.5 51.421875 16.5 36.375 
Q 16.5 21.390625 20.328125 13.890625 
Q 24.171875 6.390625 31.78125 6.390625 
Q 39.453125 6.390625 43.28125 13.890625 
Q 47.125 21.390625 47.125 36.375 
Q 47.125 51.421875 43.28125 58.90625 
Q 39.453125 66.40625 31.78125 66.40625 
z
M 31.78125 74.21875 
Q 44.046875 74.21875 50.515625 64.515625 
Q 56.984375 54.828125 56.984375 36.375 
Q 56.984375 17.96875 50.515625 8.265625 
Q 44.046875 -1.421875 31.78125 -1.421875 
Q 19.53125 -1.421875 13.0625 8.265625 
Q 6.59375 17.96875 6.59375 36.375 
Q 6.59375 54.828125 13.0625 64.515625 
Q 19.53125 74.21875 31.78125 74.21875 
z
" id="DejaVuSans-48"/>
        <path d="M 10.6875 12.40625 
L 21 12.40625 
L 21 0 
L 10.6875 0 
z
" id="DejaVuSans-46"/>
       </defs>
       <use xlink:href="#DejaVuSans-48"/>
       <use x="63.623047" xlink:href="#DejaVuSans-46"/>
       <use x="95.410156" xlink:href="#DejaVuSans-48"/>
      </g>
     </g>
    </g>
    <g id="xtick_2">
     <g id="line2d_2">
      <g>
       <use style="stroke:#000000;stroke-width:0.8;" x="118.925515" xlink:href="#mc48e8085db" y="307.584"/>
      </g>
     </g>
     <g id="text_2">
      <!-- 0.2 -->
      <g transform="translate(110.973953 322.182437)scale(0.1 -0.1)">
       <defs>
        <path d="M 19.1875 8.296875 
L 53.609375 8.296875 
L 53.609375 0 
L 7.328125 0 
L 7.328125 8.296875 
Q 12.9375 14.109375 22.625 23.890625 
Q 32.328125 33.6875 34.8125 36.53125 
Q 39.546875 41.84375 41.421875 45.53125 
Q 43.3125 49.21875 43.3125 52.78125 
Q 43.3125 58.59375 39.234375 62.25 
Q 35.15625 65.921875 28.609375 65.921875 
Q 23.96875 65.921875 18.8125 64.3125 
Q 13.671875 62.703125 7.8125 59.421875 
L 7.8125 69.390625 
Q 13.765625 71.78125 18.9375 73 
Q 24.125 74.21875 28.421875 74.21875 
Q 39.75 74.21875 46.484375 68.546875 
Q 53.21875 62.890625 53.21875 53.421875 
Q 53.21875 48.921875 51.53125 44.890625 
Q 49.859375 40.875 45.40625 35.40625 
Q 44.1875 33.984375 37.640625 27.21875 
Q 31.109375 20.453125 19.1875 8.296875 
z
" id="DejaVuSans-50"/>
       </defs>
       <use xlink:href="#DejaVuSans-48"/>
       <use x="63.623047" xlink:href="#DejaVuSans-46"/>
       <use x="95.410156" xlink:href="#DejaVuSans-50"/>
      </g>
     </g>
    </g>
    <g id="xtick_3">
     <g id="line2d_3">
      <g>
       <use style="stroke:#000000;stroke-width:0.8;" x="164.018303" xlink:href="#mc48e8085db" y="307.584"/>
      </g>
     </g>
     <g id="text_3">
      <!-- 0.4 -->
      <g transform="translate(156.066741 322.182437)scale(0.1 -0.1)">
       <defs>
        <path d="M 37.796875 64.3125 
L 12.890625 25.390625 
L 37.796875 25.390625 
z
M 35.203125 72.90625 
L 47.609375 72.90625 
L 47.609375 25.390625 
L 58.015625 25.390625 
L 58.015625 17.1875 
L 47.609375 17.1875 
L 47.609375 0 
L 37.796875 0 
L 37.796875 17.1875 
L 4.890625 17.1875 
L 4.890625 26.703125 
z
" id="DejaVuSans-52"/>
       </defs>
       <use xlink:href="#DejaVuSans-48"/>
       <use x="63.623047" xlink:href="#DejaVuSans-46"/>
       <use x="95.410156" xlink:href="#DejaVuSans-52"/>
      </g>
     </g>
    </g>
    <g id="xtick_4">
     <g id="line2d_4">
      <g>
       <use style="stroke:#000000;stroke-width:0.8;" x="209.111091" xlink:href="#mc48e8085db" y="307.584"/>
      </g>
     </g>
     <g id="text_4">
      <!-- 0.6 -->
      <g transform="translate(201.159529 322.182437)scale(0.1 -0.1)">
       <defs>
        <path d="M 33.015625 40.375 
Q 26.375 40.375 22.484375 35.828125 
Q 18.609375 31.296875 18.609375 23.390625 
Q 18.609375 15.53125 22.484375 10.953125 
Q 26.375 6.390625 33.015625 6.390625 
Q 39.65625 6.390625 43.53125 10.953125 
Q 47.40625 15.53125 47.40625 23.390625 
Q 47.40625 31.296875 43.53125 35.828125 
Q 39.65625 40.375 33.015625 40.375 
z
M 52.59375 71.296875 
L 52.59375 62.3125 
Q 48.875 64.0625 45.09375 64.984375 
Q 41.3125 65.921875 37.59375 65.921875 
Q 27.828125 65.921875 22.671875 59.328125 
Q 17.53125 52.734375 16.796875 39.40625 
Q 19.671875 43.65625 24.015625 45.921875 
Q 28.375 48.1875 33.59375 48.1875 
Q 44.578125 48.1875 50.953125 41.515625 
Q 57.328125 34.859375 57.328125 23.390625 
Q 57.328125 12.15625 50.6875 5.359375 
Q 44.046875 -1.421875 33.015625 -1.421875 
Q 20.359375 -1.421875 13.671875 8.265625 
Q 6.984375 17.96875 6.984375 36.375 
Q 6.984375 53.65625 15.1875 63.9375 
Q 23.390625 74.21875 37.203125 74.21875 
Q 40.921875 74.21875 44.703125 73.484375 
Q 48.484375 72.75 52.59375 71.296875 
z
" id="DejaVuSans-54"/>
       </defs>
       <use xlink:href="#DejaVuSans-48"/>
       <use x="63.623047" xlink:href="#DejaVuSans-46"/>
       <use x="95.410156" xlink:href="#DejaVuSans-54"/>
      </g>
     </g>
    </g>
    <g id="xtick_5">
     <g id="line2d_5">
      <g>
       <use style="stroke:#000000;stroke-width:0.8;" x="254.203879" xlink:href="#mc48e8085db" y="307.584"/>
      </g>
     </g>
     <g id="text_5">
      <!-- 0.8 -->
      <g transform="translate(246.252317 322.182437)scale(0.1 -0.1)">
       <defs>
        <path d="M 31.78125 34.625 
Q 24.75 34.625 20.71875 30.859375 
Q 16.703125 27.09375 16.703125 20.515625 
Q 16.703125 13.921875 20.71875 10.15625 
Q 24.75 6.390625 31.78125 6.390625 
Q 38.8125 6.390625 42.859375 10.171875 
Q 46.921875 13.96875 46.921875 20.515625 
Q 46.921875 27.09375 42.890625 30.859375 
Q 38.875 34.625 31.78125 34.625 
z
M 21.921875 38.8125 
Q 15.578125 40.375 12.03125 44.71875 
Q 8.5 49.078125 8.5 55.328125 
Q 8.5 64.0625 14.71875 69.140625 
Q 20.953125 74.21875 31.78125 74.21875 
Q 42.671875 74.21875 48.875 69.140625 
Q 55.078125 64.0625 55.078125 55.328125 
Q 55.078125 49.078125 51.53125 44.71875 
Q 48 40.375 41.703125 38.8125 
Q 48.828125 37.15625 52.796875 32.3125 
Q 56.78125 27.484375 56.78125 20.515625 
Q 56.78125 9.90625 50.3125 4.234375 
Q 43.84375 -1.421875 31.78125 -1.421875 
Q 19.734375 -1.421875 13.25 4.234375 
Q 6.78125 9.90625 6.78125 20.515625 
Q 6.78125 27.484375 10.78125 32.3125 
Q 14.796875 37.15625 21.921875 38.8125 
z
M 18.3125 54.390625 
Q 18.3125 48.734375 21.84375 45.5625 
Q 25.390625 42.390625 31.78125 42.390625 
Q 38.140625 42.390625 41.71875 45.5625 
Q 45.3125 48.734375 45.3125 54.390625 
Q 45.3125 60.0625 41.71875 63.234375 
Q 38.140625 66.40625 31.78125 66.40625 
Q 25.390625 66.40625 21.84375 63.234375 
Q 18.3125 60.0625 18.3125 54.390625 
z
" id="DejaVuSans-56"/>
       </defs>
       <use xlink:href="#DejaVuSans-48"/>
       <use x="63.623047" xlink:href="#DejaVuSans-46"/>
       <use x="95.410156" xlink:href="#DejaVuSans-56"/>
      </g>
     </g>
    </g>
    <g id="xtick_6">
     <g id="line2d_6">
      <g>
       <use style="stroke:#000000;stroke-width:0.8;" x="299.296667" xlink:href="#mc48e8085db" y="307.584"/>
      </g>
     </g>
     <g id="text_6">
      <!-- 1.0 -->
      <g transform="translate(291.345105 322.182437)scale(0.1 -0.1)">
       <defs>
        <path d="M 12.40625 8.296875 
L 28.515625 8.296875 
L 28.515625 63.921875 
L 10.984375 60.40625 
L 10.984375 69.390625 
L 28.421875 72.90625 
L 38.28125 72.90625 
L 38.28125 8.296875 
L 54.390625 8.296875 
L 54.390625 0 
L 12.40625 0 
z
" id="DejaVuSans-49"/>
       </defs>
       <use xlink:href="#DejaVuSans-49"/>
       <use x="63.623047" xlink:href="#DejaVuSans-46"/>
       <use x="95.410156" xlink:href="#DejaVuSans-48"/>
      </g>
     </g>
    </g>
    <g id="xtick_7">
     <g id="line2d_7">
      <g>
       <use style="stroke:#000000;stroke-width:0.8;" x="344.389455" xlink:href="#mc48e8085db" y="307.584"/>
      </g>
     </g>
     <g id="text_7">
      <!-- 1.2 -->
      <g transform="translate(336.437893 322.182437)scale(0.1 -0.1)">
       <use xlink:href="#DejaVuSans-49"/>
       <use x="63.623047" xlink:href="#DejaVuSans-46"/>
       <use x="95.410156" xlink:href="#DejaVuSans-50"/>
      </g>
     </g>
    </g>
    <g id="xtick_8">
     <g id="line2d_8">
      <g>
       <use style="stroke:#000000;stroke-width:0.8;" x="389.482243" xlink:href="#mc48e8085db" y="307.584"/>
      </g>
     </g>
     <g id="text_8">
      <!-- 1.4 -->
      <g transform="translate(381.53068 322.182437)scale(0.1 -0.1)">
       <use xlink:href="#DejaVuSans-49"/>
       <use x="63.623047" xlink:href="#DejaVuSans-46"/>
       <use x="95.410156" xlink:href="#DejaVuSans-52"/>
      </g>
     </g>
    </g>
    <g id="text_9">
     <!-- Time (min) -->
     <g transform="translate(209.007656 335.860562)scale(0.1 -0.1)">
      <defs>
       <path d="M -0.296875 72.90625 
L 61.375 72.90625 
L 61.375 64.59375 
L 35.5 64.59375 
L 35.5 0 
L 25.59375 0 
L 25.59375 64.59375 
L -0.296875 64.59375 
z
" id="DejaVuSans-84"/>
       <path d="M 9.421875 54.6875 
L 18.40625 54.6875 
L 18.40625 0 
L 9.421875 0 
z
M 9.421875 75.984375 
L 18.40625 75.984375 
L 18.40625 64.59375 
L 9.421875 64.59375 
z
" id="DejaVuSans-105"/>
       <path d="M 52 44.1875 
Q 55.375 50.25 60.0625 53.125 
Q 64.75 56 71.09375 56 
Q 79.640625 56 84.28125 50.015625 
Q 88.921875 44.046875 88.921875 33.015625 
L 88.921875 0 
L 79.890625 0 
L 79.890625 32.71875 
Q 79.890625 40.578125 77.09375 44.375 
Q 74.3125 48.1875 68.609375 48.1875 
Q 61.625 48.1875 57.5625 43.546875 
Q 53.515625 38.921875 53.515625 30.90625 
L 53.515625 0 
L 44.484375 0 
L 44.484375 32.71875 
Q 44.484375 40.625 41.703125 44.40625 
Q 38.921875 48.1875 33.109375 48.1875 
Q 26.21875 48.1875 22.15625 43.53125 
Q 18.109375 38.875 18.109375 30.90625 
L 18.109375 0 
L 9.078125 0 
L 9.078125 54.6875 
L 18.109375 54.6875 
L 18.109375 46.1875 
Q 21.1875 51.21875 25.484375 53.609375 
Q 29.78125 56 35.6875 56 
Q 41.65625 56 45.828125 52.96875 
Q 50 49.953125 52 44.1875 
z
" id="DejaVuSans-109"/>
       <path d="M 56.203125 29.59375 
L 56.203125 25.203125 
L 14.890625 25.203125 
Q 15.484375 15.921875 20.484375 11.0625 
Q 25.484375 6.203125 34.421875 6.203125 
Q 39.59375 6.203125 44.453125 7.46875 
Q 49.3125 8.734375 54.109375 11.28125 
L 54.109375 2.78125 
Q 49.265625 0.734375 44.1875 -0.34375 
Q 39.109375 -1.421875 33.890625 -1.421875 
Q 20.796875 -1.421875 13.15625 6.1875 
Q 5.515625 13.8125 5.515625 26.8125 
Q 5.515625 40.234375 12.765625 48.109375 
Q 20.015625 56 32.328125 56 
Q 43.359375 56 49.78125 48.890625 
Q 56.203125 41.796875 56.203125 29.59375 
z
M 47.21875 32.234375 
Q 47.125 39.59375 43.09375 43.984375 
Q 39.0625 48.390625 32.421875 48.390625 
Q 24.90625 48.390625 20.390625 44.140625 
Q 15.875 39.890625 15.1875 32.171875 
z
" id="DejaVuSans-101"/>
       <path id="DejaVuSans-32"/>
       <path d="M 31 75.875 
Q 24.46875 64.65625 21.28125 53.65625 
Q 18.109375 42.671875 18.109375 31.390625 
Q 18.109375 20.125 21.3125 9.0625 
Q 24.515625 -2 31 -13.1875 
L 23.1875 -13.1875 
Q 15.875 -1.703125 12.234375 9.375 
Q 8.59375 20.453125 8.59375 31.390625 
Q 8.59375 42.28125 12.203125 53.3125 
Q 15.828125 64.359375 23.1875 75.875 
z
" id="DejaVuSans-40"/>
       <path d="M 54.890625 33.015625 
L 54.890625 0 
L 45.90625 0 
L 45.90625 32.71875 
Q 45.90625 40.484375 42.875 44.328125 
Q 39.84375 48.1875 33.796875 48.1875 
Q 26.515625 48.1875 22.3125 43.546875 
Q 18.109375 38.921875 18.109375 30.90625 
L 18.109375 0 
L 9.078125 0 
L 9.078125 54.6875 
L 18.109375 54.6875 
L 18.109375 46.1875 
Q 21.34375 51.125 25.703125 53.5625 
Q 30.078125 56 35.796875 56 
Q 45.21875 56 50.046875 50.171875 
Q 54.890625 44.34375 54.890625 33.015625 
z
" id="DejaVuSans-110"/>
       <path d="M 8.015625 75.875 
L 15.828125 75.875 
Q 23.140625 64.359375 26.78125 53.3125 
Q 30.421875 42.28125 30.421875 31.390625 
Q 30.421875 20.453125 26.78125 9.375 
Q 23.140625 -1.703125 15.828125 -13.1875 
L 8.015625 -13.1875 
Q 14.5 -2 17.703125 9.0625 
Q 20.90625 20.125 20.90625 31.390625 
Q 20.90625 42.671875 17.703125 53.65625 
Q 14.5 64.65625 8.015625 75.875 
z
" id="DejaVuSans-41"/>
      </defs>
      <use xlink:href="#DejaVuSans-84"/>
      <use x="57.958984" xlink:href="#DejaVuSans-105"/>
      <use x="85.742188" xlink:href="#DejaVuSans-109"/>
      <use x="183.154297" xlink:href="#DejaVuSans-101"/>
      <use x="244.677734" xlink:href="#DejaVuSans-32"/>
      <use x="276.464844" xlink:href="#DejaVuSans-40"/>
      <use x="315.478516" xlink:href="#DejaVuSans-109"/>
      <use x="412.890625" xlink:href="#DejaVuSans-105"/>
      <use x="440.673828" xlink:href="#DejaVuSans-110"/>
      <use x="504.052734" xlink:href="#DejaVuSans-41"/>
     </g>
    </g>
    <g id="text_10">
     <!-- 1e6 -->
     <g transform="translate(395.841875 334.860562)scale(0.1 -0.1)">
      <use xlink:href="#DejaVuSans-49"/>
      <use x="63.623047" xlink:href="#DejaVuSans-101"/>
      <use x="125.146484" xlink:href="#DejaVuSans-54"/>
     </g>
    </g>
   </g>
   <g id="matplotlib.axis_2">
    <g id="ytick_1">
     <g id="line2d_9">
      <defs>
       <path d="M 0 0 
L -3.5 0 
" id="mf1465a64f7" style="stroke:#000000;stroke-width:0.8;"/>
      </defs>
      <g>
       <use style="stroke:#000000;stroke-width:0.8;" x="57.6" xlink:href="#mf1465a64f7" y="295.488"/>
      </g>
     </g>
     <g id="text_11">
      <!-- 0 -->
      <g transform="translate(44.2375 299.287219)scale(0.1 -0.1)">
       <use xlink:href="#DejaVuSans-48"/>
      </g>
     </g>
    </g>
    <g id="ytick_2">
     <g id="line2d_10">
      <g>
       <use style="stroke:#000000;stroke-width:0.8;" x="57.6" xlink:href="#mf1465a64f7" y="247.104"/>
      </g>
     </g>
     <g id="text_12">
      <!-- 20 -->
      <g transform="translate(37.875 250.903219)scale(0.1 -0.1)">
       <use xlink:href="#DejaVuSans-50"/>
       <use x="63.623047" xlink:href="#DejaVuSans-48"/>
      </g>
     </g>
    </g>
    <g id="ytick_3">
     <g id="line2d_11">
      <g>
       <use style="stroke:#000000;stroke-width:0.8;" x="57.6" xlink:href="#mf1465a64f7" y="198.72"/>
      </g>
     </g>
     <g id="text_13">
      <!-- 40 -->
      <g transform="translate(37.875 202.519219)scale(0.1 -0.1)">
       <use xlink:href="#DejaVuSans-52"/>
       <use x="63.623047" xlink:href="#DejaVuSans-48"/>
      </g>
     </g>
    </g>
    <g id="ytick_4">
     <g id="line2d_12">
      <g>
       <use style="stroke:#000000;stroke-width:0.8;" x="57.6" xlink:href="#mf1465a64f7" y="150.336"/>
      </g>
     </g>
     <g id="text_14">
      <!-- 60 -->
      <g transform="translate(37.875 154.135219)scale(0.1 -0.1)">
       <use xlink:href="#DejaVuSans-54"/>
       <use x="63.623047" xlink:href="#DejaVuSans-48"/>
      </g>
     </g>
    </g>
    <g id="ytick_5">
     <g id="line2d_13">
      <g>
       <use style="stroke:#000000;stroke-width:0.8;" x="57.6" xlink:href="#mf1465a64f7" y="101.952"/>
      </g>
     </g>
     <g id="text_15">
      <!-- 80 -->
      <g transform="translate(37.875 105.751219)scale(0.1 -0.1)">
       <use xlink:href="#DejaVuSans-56"/>
       <use x="63.623047" xlink:href="#DejaVuSans-48"/>
      </g>
     </g>
    </g>
    <g id="ytick_6">
     <g id="line2d_14">
      <g>
       <use style="stroke:#000000;stroke-width:0.8;" x="57.6" xlink:href="#mf1465a64f7" y="53.568"/>
      </g>
     </g>
     <g id="text_16">
      <!-- 100 -->
      <g transform="translate(31.5125 57.367219)scale(0.1 -0.1)">
       <use xlink:href="#DejaVuSans-49"/>
       <use x="63.623047" xlink:href="#DejaVuSans-48"/>
       <use x="127.246094" xlink:href="#DejaVuSans-48"/>
      </g>
     </g>
    </g>
    <g id="text_17">
     <!-- Density -->
     <g transform="translate(25.432812 193.536594)rotate(-90)scale(0.1 -0.1)">
      <defs>
       <path d="M 19.671875 64.796875 
L 19.671875 8.109375 
L 31.59375 8.109375 
Q 46.6875 8.109375 53.6875 14.9375 
Q 60.6875 21.78125 60.6875 36.53125 
Q 60.6875 51.171875 53.6875 57.984375 
Q 46.6875 64.796875 31.59375 64.796875 
z
M 9.8125 72.90625 
L 30.078125 72.90625 
Q 51.265625 72.90625 61.171875 64.09375 
Q 71.09375 55.28125 71.09375 36.53125 
Q 71.09375 17.671875 61.125 8.828125 
Q 51.171875 0 30.078125 0 
L 9.8125 0 
z
" id="DejaVuSans-68"/>
       <path d="M 44.28125 53.078125 
L 44.28125 44.578125 
Q 40.484375 46.53125 36.375 47.5 
Q 32.28125 48.484375 27.875 48.484375 
Q 21.1875 48.484375 17.84375 46.4375 
Q 14.5 44.390625 14.5 40.28125 
Q 14.5 37.15625 16.890625 35.375 
Q 19.28125 33.59375 26.515625 31.984375 
L 29.59375 31.296875 
Q 39.15625 29.25 43.1875 25.515625 
Q 47.21875 21.78125 47.21875 15.09375 
Q 47.21875 7.46875 41.1875 3.015625 
Q 35.15625 -1.421875 24.609375 -1.421875 
Q 20.21875 -1.421875 15.453125 -0.5625 
Q 10.6875 0.296875 5.421875 2 
L 5.421875 11.28125 
Q 10.40625 8.6875 15.234375 7.390625 
Q 20.0625 6.109375 24.8125 6.109375 
Q 31.15625 6.109375 34.5625 8.28125 
Q 37.984375 10.453125 37.984375 14.40625 
Q 37.984375 18.0625 35.515625 20.015625 
Q 33.0625 21.96875 24.703125 23.78125 
L 21.578125 24.515625 
Q 13.234375 26.265625 9.515625 29.90625 
Q 5.8125 33.546875 5.8125 39.890625 
Q 5.8125 47.609375 11.28125 51.796875 
Q 16.75 56 26.8125 56 
Q 31.78125 56 36.171875 55.265625 
Q 40.578125 54.546875 44.28125 53.078125 
z
" id="DejaVuSans-115"/>
       <path d="M 18.3125 70.21875 
L 18.3125 54.6875 
L 36.8125 54.6875 
L 36.8125 47.703125 
L 18.3125 47.703125 
L 18.3125 18.015625 
Q 18.3125 11.328125 20.140625 9.421875 
Q 21.96875 7.515625 27.59375 7.515625 
L 36.8125 7.515625 
L 36.8125 0 
L 27.59375 0 
Q 17.1875 0 13.234375 3.875 
Q 9.28125 7.765625 9.28125 18.015625 
L 9.28125 47.703125 
L 2.6875 47.703125 
L 2.6875 54.6875 
L 9.28125 54.6875 
L 9.28125 70.21875 
z
" id="DejaVuSans-116"/>
       <path d="M 32.171875 -5.078125 
Q 28.375 -14.84375 24.75 -17.8125 
Q 21.140625 -20.796875 15.09375 -20.796875 
L 7.90625 -20.796875 
L 7.90625 -13.28125 
L 13.1875 -13.28125 
Q 16.890625 -13.28125 18.9375 -11.515625 
Q 21 -9.765625 23.484375 -3.21875 
L 25.09375 0.875 
L 2.984375 54.6875 
L 12.5 54.6875 
L 29.59375 11.921875 
L 46.6875 54.6875 
L 56.203125 54.6875 
z
" id="DejaVuSans-121"/>
      </defs>
      <use xlink:href="#DejaVuSans-68"/>
      <use x="77.001953" xlink:href="#DejaVuSans-101"/>
      <use x="138.525391" xlink:href="#DejaVuSans-110"/>
      <use x="201.904297" xlink:href="#DejaVuSans-115"/>
      <use x="254.003906" xlink:href="#DejaVuSans-105"/>
      <use x="281.787109" xlink:href="#DejaVuSans-116"/>
      <use x="320.996094" xlink:href="#DejaVuSans-121"/>
     </g>
    </g>
   </g>
   <g id="line2d_15">
    <path clip-path="url(#p11617a8425)" d="M 73.832727 295.488 
L 398.487273 295.488 
L 398.487273 295.488 
" style="fill:none;stroke:#1f77b4;stroke-linecap:square;stroke-width:1.5;"/>
   </g>
   <g id="line2d_16">
    <path clip-path="url(#p11617a8425)" d="M 73.832727 295.488 
L 398.487273 295.488 
L 398.487273 295.488 
" style="fill:none;stroke:#ff7f0e;stroke-linecap:square;stroke-width:1.5;"/>
   </g>
   <g id="line2d_17">
    <path clip-path="url(#p11617a8425)" d="M 73.832727 271.296 
L 73.968006 270.754463 
L 74.238562 270.70529 
L 84.330328 270.704319 
L 144.84034 270.704272 
L 235.422733 270.704336 
L 259.312892 270.704289 
L 398.487273 270.704333 
L 398.487273 270.704333 
" style="fill:none;stroke:#2ca02c;stroke-linecap:square;stroke-width:1.5;"/>
   </g>
   <g id="line2d_18">
    <path clip-path="url(#p11617a8425)" d="M 73.832727 53.568 
L 73.954478 281.842482 
L 74.13034 283.011958 
L 74.279146 283.131249 
L 74.346785 283.094897 
L 74.400896 283.128729 
L 74.56323 283.10222 
L 74.576758 283.126133 
L 74.766148 283.141776 
L 75.050233 283.119333 
L 75.199039 283.144478 
L 75.334317 283.103654 
L 75.550762 283.149372 
L 75.686041 283.115601 
L 75.888958 283.150937 
L 76.010709 283.126147 
L 76.145987 283.114241 
L 76.159515 283.132243 
L 76.294793 283.148697 
L 76.4436 283.118257 
L 76.605934 283.136973 
L 76.741212 283.118949 
L 76.917074 283.133625 
L 77.688161 283.135584 
L 77.87755 283.146087 
L 78.012829 283.115086 
L 78.215746 283.152 
L 78.283385 283.093316 
L 78.337497 283.135072 
L 78.472775 283.12331 
L 78.608054 283.142746 
L 79.75792 283.129305 
L 79.893198 283.145975 
L 80.109643 283.117437 
L 80.25845 283.138113 
L 80.339617 283.11476 
L 80.366672 283.134016 
L 81.367732 283.137818 
L 81.489483 283.123677 
L 81.732984 283.119645 
L 81.935901 283.144188 
L 82.057652 283.119317 
L 112.008282 283.12513 
L 112.130032 283.130415 
L 112.251783 283.137592 
L 112.400589 283.117287 
L 112.549395 283.144853 
L 112.698201 283.112937 
L 112.711729 283.132097 
L 112.914647 283.136752 
L 112.995814 283.118284 
L 113.022869 283.129743 
L 113.482816 283.120934 
L 113.685733 283.122576 
L 113.834539 283.142858 
L 113.983346 283.117108 
L 114.105096 283.121076 
L 114.280958 283.125174 
L 114.470348 283.152765 
L 114.483876 283.119608 
L 116.404828 283.133155 
L 116.526579 283.107666 
L 116.702441 283.123634 
L 120.571402 283.136578 
L 120.611985 283.153184 
L 120.679625 283.11713 
L 120.841959 283.141192 
L 122.330021 283.129078 
L 122.465299 283.113283 
L 122.600577 283.144911 
L 122.614105 283.132621 
L 122.884662 283.133972 
L 123.304025 283.135595 
L 123.439303 283.1113 
L 123.58811 283.149126 
L 123.601637 283.132401 
L 123.804555 283.118104 
L 123.953361 283.135825 
L 123.993945 283.152194 
L 124.061584 283.11781 
L 124.237446 283.138075 
L 124.359196 283.11056 
L 124.372724 283.128699 
L 124.52153 283.13674 
L 124.656809 283.118659 
L 125.170866 283.14596 
L 125.238506 283.096349 
L 125.292617 283.132024 
L 125.454951 283.10006 
L 125.590229 283.123053 
L 125.725508 283.145617 
L 125.955481 283.126573 
L 126.090759 283.150333 
L 126.239565 283.11415 
L 126.401899 283.129815 
L 126.550706 283.131911 
L 126.767151 283.139716 
L 127.118875 283.130792 
L 127.254153 283.148764 
L 127.389432 283.122317 
L 127.632933 283.118218 
L 127.83585 283.146666 
L 127.903489 283.095714 
L 127.957601 283.126129 
L 128.268741 283.117783 
L 128.417547 283.144839 
L 128.552825 283.105291 
L 128.769271 283.150145 
L 128.904549 283.115174 
L 129.107467 283.152068 
L 129.242745 283.111638 
L 129.391551 283.14726 
L 129.553885 283.124354 
L 129.702692 283.138904 
L 129.83797 283.113939 
L 130.081471 283.129551 
L 130.3385 283.132022 
L 130.46025 283.111177 
L 130.473778 283.125666 
L 130.609057 283.147295 
L 130.784918 283.135519 
L 130.920197 283.14474 
L 131.041947 283.12457 
L 132.759983 283.135869 
L 132.84115 283.110599 
L 132.868205 283.145525 
L 133.084651 283.115999 
L 133.246985 283.136403 
L 133.382263 283.111075 
L 133.531069 283.134025 
L 134.166878 283.130771 
L 134.315684 283.126222 
L 134.46449 283.14207 
L 134.599768 283.100544 
L 134.748575 283.136902 
L 134.883853 283.09709 
L 135.032659 283.155745 
L 135.167937 283.115214 
L 135.384383 283.136876 
L 135.533189 283.120857 
L 135.681995 283.146348 
L 135.817274 283.105106 
L 135.993135 283.122669 
L 137.535309 283.136529 
L 137.575892 283.153534 
L 137.657059 283.117953 
L 139.09101 283.140327 
L 139.469789 283.135055 
L 139.605068 283.117763 
L 139.78093 283.130224 
L 140.633183 283.133522 
L 140.754934 283.119579 
L 141.580132 283.129097 
L 141.728938 283.140182 
L 141.864216 283.102858 
L 142.013023 283.150531 
L 142.148301 283.116749 
L 142.52708 283.135331 
L 142.662359 283.113238 
L 142.892332 283.136941 
L 143.02761 283.104557 
L 143.176417 283.134303 
L 144.853868 283.136329 
L 144.975619 283.122049 
L 145.192064 283.142032 
L 146.869516 283.121837 
L 147.004794 283.154158 
L 147.140073 283.115968 
L 147.410629 283.136673 
L 147.545908 283.11062 
L 147.708242 283.136562 
L 147.857048 283.116774 
L 147.870576 283.139043 
L 149.65625 283.128214 
L 149.778001 283.140656 
L 150.062085 283.124769 
L 150.197364 283.148883 
L 150.359698 283.121933 
L 150.549087 283.134381 
L 151.320174 283.128817 
L 151.455452 283.11267 
L 151.604259 283.131877 
L 152.388873 283.136417 
L 152.591791 283.134141 
L 152.794708 283.118735 
L 152.929987 283.149978 
L 153.078793 283.119487 
L 153.227599 283.135386 
L 153.335822 283.108433 
L 153.268183 283.15615 
L 153.34935 283.128928 
L 153.592851 283.112098 
L 153.741657 283.147954 
L 153.890463 283.119053 
L 154.16102 283.137552 
L 154.242187 283.117736 
L 154.269242 283.127773 
L 154.499216 283.136478 
L 154.512743 283.095163 
L 154.539799 283.153875 
L 154.607438 283.137392 
L 154.756245 283.116321 
L 154.905051 283.144965 
L 155.053857 283.115105 
L 155.216191 283.133021 
L 155.337942 283.128811 
L 155.486748 283.13239 
L 155.649082 283.132813 
L 155.78436 283.115916 
L 156.704253 283.135123 
L 156.839531 283.094443 
L 156.97481 283.128627 
L 157.123616 283.12427 
L 157.326533 283.127622 
L 157.461812 283.145798 
L 157.678257 283.1191 
L 157.827063 283.139874 
L 157.948814 283.125512 
L 158.841651 283.120756 
L 158.976929 283.151414 
L 159.112208 283.116969 
L 159.490987 283.136413 
L 159.639793 283.118347 
L 159.7886 283.147206 
L 159.923878 283.114574 
L 160.424408 283.136649 
L 160.505575 283.116065 
L 160.532631 283.128216 
L 160.776132 283.131526 
L 160.924938 283.125306 
L 161.073744 283.142471 
L 161.209022 283.100617 
L 161.357829 283.136694 
L 161.493107 283.097187 
L 161.641913 283.155828 
L 161.777192 283.115295 
L 161.993637 283.137379 
L 162.142443 283.120052 
L 162.291249 283.146827 
L 162.426528 283.105801 
L 162.60239 283.123279 
L 165.754376 283.13578 
L 165.903182 283.131674 
L 166.03846 283.111759 
L 166.173738 283.144278 
L 166.363128 283.111047 
L 166.511934 283.15076 
L 166.660741 283.120303 
L 166.809547 283.146538 
L 166.823075 283.123846 
L 167.025992 283.121816 
L 167.174798 283.140012 
L 167.323605 283.11919 
L 167.472411 283.139336 
L 167.594161 283.125765 
L 168.135275 283.137073 
L 168.338192 283.140935 
L 168.473471 283.102681 
L 168.622277 283.150575 
L 168.757555 283.117179 
L 169.190446 283.145706 
L 169.325724 283.124679 
L 169.528642 283.122891 
L 169.66392 283.141176 
L 169.826254 283.125005 
L 170.015644 283.15308 
L 170.150922 283.115682 
L 170.35384 283.141242 
L 170.489118 283.116415 
L 171.124927 283.137505 
L 171.206094 283.117667 
L 171.233149 283.127326 
L 171.463122 283.136426 
L 171.530762 283.113068 
L 171.571345 283.14438 
L 171.720151 283.116167 
L 171.868958 283.141377 
L 172.28832 283.124249 
L 172.518294 283.135818 
L 172.558877 283.155113 
L 172.626516 283.111887 
L 172.78885 283.143805 
L 172.937657 283.112273 
L 172.951184 283.12857 
L 173.099991 283.137409 
L 173.235269 283.114742 
L 173.519354 283.131696 
L 173.654632 283.128916 
L 173.911661 283.132204 
L 174.046939 283.122202 
L 174.195745 283.140657 
L 174.344552 283.114952 
L 174.47983 283.13856 
L 181.974251 283.130004 
L 182.10953 283.141827 
L 182.23128 283.125369 
L 185.099182 283.130954 
L 185.23446 283.148877 
L 185.383266 283.117569 
L 185.5456 283.132534 
L 185.653823 283.114117 
L 185.667351 283.12702 
L 193.080605 283.13691 
L 193.121189 283.150126 
L 193.188828 283.121932 
L 193.36469 283.137308 
L 193.513496 283.120367 
L 193.662302 283.144526 
L 193.811108 283.116238 
L 193.932859 283.118256 
L 194.081665 283.14009 
L 194.203415 283.126457 
L 194.568667 283.139681 
L 195.015086 283.130895 
L 195.150364 283.117103 
L 195.312698 283.126737 
L 199.858051 283.119972 
L 199.979802 283.127363 
L 200.182719 283.134089 
L 200.290942 283.109693 
L 200.223303 283.154111 
L 200.30447 283.127763 
L 201.11614 283.126991 
L 201.251418 283.116788 
L 201.400224 283.141733 
L 201.467864 283.098052 
L 201.521975 283.12648 
L 201.995449 283.11911 
L 202.130728 283.142995 
L 202.658313 283.131342 
L 202.793592 283.133458 
L 202.942398 283.135594 
L 203.091204 283.115314 
L 203.104732 283.135115 
L 203.321177 283.127296 
L 203.456456 283.115496 
L 203.469983 283.135358 
L 203.727012 283.139337 
L 203.862291 283.122337 
L 204.065208 283.140588 
L 204.186959 283.110306 
L 204.349293 283.138988 
L 204.484571 283.120391 
L 206.134967 283.123521 
L 206.270246 283.153059 
L 206.405524 283.115227 
L 206.608441 283.137471 
L 206.74372 283.119182 
L 210.044512 283.136853 
L 210.085095 283.150518 
L 210.152735 283.121359 
L 210.328596 283.138299 
L 210.477403 283.11615 
L 210.49093 283.134501 
L 210.626209 283.14656 
L 210.639737 283.122055 
L 210.896766 283.117161 
L 211.045572 283.141385 
L 211.113211 283.098087 
L 211.167322 283.126891 
L 211.519046 283.119849 
L 211.654324 283.140766 
L 212.154854 283.13291 
L 212.263077 283.115064 
L 212.276605 283.127377 
L 213.331776 283.120712 
L 213.467054 283.150338 
L 213.480582 283.130417 
L 213.791723 283.125608 
L 213.913473 283.140656 
L 215.753259 283.135656 
L 215.861482 283.124804 
L 215.875009 283.130744 
L 215.983232 283.102016 
L 216.010288 283.138486 
L 216.280844 283.118894 
L 216.429651 283.143279 
L 216.578457 283.116382 
L 216.727263 283.144603 
L 216.876069 283.113694 
L 216.889597 283.129526 
L 217.092515 283.133779 
L 217.227793 283.128349 
L 217.471294 283.13592 
L 217.6201 283.117981 
L 217.768906 283.147562 
L 217.904185 283.122547 
L 218.161214 283.122253 
L 218.337076 283.136319 
L 218.729383 283.129925 
L 218.864661 283.147364 
L 219.026995 283.126313 
L 219.175801 283.142832 
L 219.256968 283.111258 
L 219.284024 283.135119 
L 219.81161 283.133247 
L 219.93336 283.113783 
L 220.095694 283.139756 
L 220.230973 283.112384 
L 220.460946 283.135304 
L 220.582696 283.121182 
L 220.893837 283.129188 
L 221.002059 283.143317 
L 221.015587 283.131622 
L 221.191449 283.142886 
L 221.326727 283.118173 
L 223.098874 283.123394 
L 223.234152 283.153669 
L 223.369431 283.115303 
L 223.572348 283.142054 
L 223.707627 283.117928 
L 231.810801 283.126799 
L 231.932551 283.131332 
L 232.054302 283.141117 
L 232.067829 283.125716 
L 232.203108 283.114416 
L 232.216636 283.134367 
L 232.406025 283.147673 
L 232.581887 283.133376 
L 232.838916 283.131261 
L 232.947139 283.101254 
L 232.974195 283.138748 
L 233.244751 283.117246 
L 233.38003 283.141274 
L 236.653766 283.136876 
L 236.69435 283.149857 
L 236.761989 283.122204 
L 236.937851 283.138785 
L 237.086657 283.115433 
L 237.100185 283.133911 
L 237.235463 283.146662 
L 237.248991 283.122983 
L 237.50602 283.116205 
L 237.654826 283.14212 
L 237.722465 283.097643 
L 237.776576 283.127614 
L 238.074189 283.126935 
L 238.209467 283.147222 
L 238.222995 283.134247 
L 238.371801 283.121819 
L 238.520607 283.142263 
L 238.655886 283.102704 
L 238.804692 283.151312 
L 238.93997 283.118278 
L 239.62989 283.123927 
L 239.846335 283.132561 
L 239.981614 283.139109 
L 239.995142 283.114196 
L 240.198059 283.154174 
L 240.333338 283.115386 
L 240.536255 283.141457 
L 240.685061 283.11403 
L 240.698589 283.130399 
L 240.833867 283.147989 
L 240.982674 283.116623 
L 241.13148 283.148756 
L 241.145008 283.126737 
L 241.32087 283.097986 
L 241.334397 283.122927 
L 241.469676 283.155863 
L 241.604954 283.115937 
L 241.875511 283.147288 
L 242.024317 283.117495 
L 242.186651 283.136828 
L 242.321929 283.113293 
L 242.484264 283.131113 
L 242.592486 283.102939 
L 242.619542 283.137479 
L 242.903626 283.138873 
L 243.580018 283.144223 
L 243.715297 283.116163 
L 243.918214 283.149948 
L 243.985853 283.09364 
L 244.039965 283.132017 
L 244.215827 283.121872 
L 244.486383 283.136008 
L 244.621662 283.144275 
L 244.635189 283.116649 
L 250.019268 283.135847 
L 250.059852 283.155706 
L 250.141019 283.114611 
L 250.370992 283.135027 
L 250.50627 283.110371 
L 250.668605 283.136265 
L 250.803883 283.117238 
L 250.952689 283.137602 
L 251.033856 283.116421 
L 251.060912 283.129217 
L 251.290885 283.136641 
L 251.304413 283.093907 
L 251.399108 283.145363 
L 251.547914 283.11582 
L 251.69672 283.141087 
L 252.494862 283.129755 
L 252.616613 283.144315 
L 252.792475 283.141008 
L 253.401227 283.134652 
L 253.50945 283.111688 
L 253.441811 283.153922 
L 253.522978 283.128422 
L 254.483454 283.129914 
L 254.618733 283.143207 
L 254.686372 283.097079 
L 254.740483 283.127919 
L 254.983984 283.132995 
L 255.186902 283.141625 
L 255.32218 283.120837 
L 255.755071 283.125935 
L 255.890349 283.150236 
L 255.957989 283.094766 
L 256.0121 283.135129 
L 256.147378 283.130555 
L 256.472046 283.137358 
L 256.607325 283.111277 
L 256.783187 283.123267 
L 257.026688 283.123377 
L 257.161966 283.154581 
L 257.297244 283.11548 
L 257.51369 283.133894 
L 257.648968 283.110441 
L 257.797774 283.145755 
L 257.960108 283.120709 
L 258.095387 283.149629 
L 258.230665 283.118673 
L 259.32642 283.13648 
L 259.434643 283.125248 
L 259.664616 283.136051 
L 259.705199 283.155118 
L 259.772838 283.112539 
L 259.935172 283.142964 
L 260.341008 283.1214 
L 260.476286 283.13673 
L 260.611564 283.100454 
L 260.625092 283.122319 
L 260.76037 283.154966 
L 260.895649 283.116981 
L 261.233845 283.134385 
L 261.369123 283.115537 
L 261.585568 283.143084 
L 261.666736 283.103363 
L 261.707319 283.131214 
L 261.923764 283.132251 
L 262.086098 283.131532 
L 262.234905 283.115431 
L 262.370183 283.140578 
L 263.26302 283.136884 
L 263.371243 283.123024 
L 263.547105 283.139244 
L 263.695911 283.11475 
L 263.709439 283.133306 
L 263.844717 283.146732 
L 263.858245 283.12391 
L 264.088218 283.128301 
L 265.738614 283.126927 
L 265.860365 283.140267 
L 266.07681 283.115358 
L 266.225616 283.1479 
L 266.360895 283.118045 
L 267.848957 283.131734 
L 267.984235 283.136456 
L 268.119513 283.128548 
L 268.376542 283.130008 
L 268.525349 283.126529 
L 268.674155 283.139615 
L 268.809433 283.109753 
L 268.971767 283.136199 
L 269.07999 283.12633 
L 269.309963 283.136235 
L 269.350547 283.15445 
L 269.418186 283.114218 
L 269.58052 283.147039 
L 269.742854 283.122453 
L 269.89166 283.144755 
L 270.026938 283.104884 
L 270.189272 283.144765 
L 270.2028 283.117698 
L 271.055054 283.140524 
L 271.190332 283.108253 
L 271.366194 283.122171 
L 272.380782 283.137708 
L 272.570172 283.137841 
L 272.651339 283.115569 
L 272.678394 283.132949 
L 273.503592 283.126304 
L 273.665926 283.13636 
L 288.600658 283.136556 
L 288.641241 283.152912 
L 288.70888 283.11747 
L 288.871214 283.140299 
L 289.08766 283.118552 
L 289.222938 283.138799 
L 289.534078 283.138001 
L 289.615245 283.115394 
L 289.642301 283.132691 
L 290.223998 283.133762 
L 290.359276 283.116824 
L 290.575722 283.146169 
L 290.58925 283.114292 
L 291.455031 283.12268 
L 291.779699 283.129525 
L 291.914978 283.134027 
L 292.307285 283.126781 
L 292.537258 283.138833 
L 292.686064 283.114689 
L 292.699592 283.132916 
L 292.834871 283.147989 
L 292.970149 283.118928 
L 293.795347 283.127913 
L 293.930625 283.148138 
L 294.092959 283.122891 
L 294.241766 283.141169 
L 294.322933 283.107139 
L 294.363516 283.127688 
L 294.539378 283.098974 
L 294.552906 283.123104 
L 294.688184 283.155707 
L 294.823462 283.116689 
L 295.161658 283.140439 
L 295.310465 283.117474 
L 295.459271 283.146764 
L 295.540438 283.113284 
L 295.581021 283.136448 
L 295.689244 283.127058 
L 296.013912 283.131676 
L 296.162718 283.111689 
L 296.311524 283.147866 
L 296.325052 283.134739 
L 296.473859 283.123242 
L 296.622665 283.143347 
L 296.744415 283.121587 
L 297.434335 283.123408 
L 297.637252 283.128738 
L 297.786059 283.139634 
L 297.921337 283.102595 
L 298.070143 283.150966 
L 298.205422 283.11525 
L 298.46245 283.136337 
L 298.543617 283.11119 
L 298.570673 283.146238 
L 298.733007 283.122288 
L 298.881813 283.145741 
L 299.017092 283.110792 
L 299.301176 283.134827 
L 299.409399 283.115893 
L 299.34176 283.152389 
L 299.422927 283.128963 
L 299.666428 283.127115 
L 299.788178 283.143293 
L 300.194014 283.119787 
L 300.329292 283.135566 
L 300.545737 283.122382 
L 300.694543 283.132253 
L 300.802766 283.098268 
L 300.816294 283.125548 
L 300.951572 283.1448 
L 300.9651 283.132313 
L 301.113906 283.122931 
L 301.262713 283.145745 
L 301.397991 283.115172 
L 301.84441 283.137153 
L 301.925577 283.116563 
L 301.952632 283.127896 
L 302.182605 283.138268 
L 302.331412 283.118285 
L 302.480218 283.145098 
L 302.629024 283.114463 
L 302.764302 283.133132 
L 303.075443 283.123693 
L 303.440694 283.131735 
L 303.5895 283.136209 
L 303.724779 283.110479 
L 303.887113 283.138119 
L 304.008863 283.127399 
L 304.184725 283.100356 
L 304.198253 283.122831 
L 304.333531 283.155224 
L 304.46881 283.117252 
L 304.874645 283.129426 
L 305.009923 283.113458 
L 305.145202 283.140248 
L 305.496925 283.131994 
L 305.645732 283.122861 
L 305.848649 283.134194 
L 305.983928 283.112824 
L 306.146262 283.141144 
L 306.159789 283.120283 
L 306.646791 283.125339 
L 306.78207 283.151469 
L 306.849709 283.093556 
L 306.90382 283.134778 
L 307.025571 283.114522 
L 307.039099 283.129059 
L 307.187905 283.141169 
L 307.323183 283.1121 
L 307.553157 283.130928 
L 307.674907 283.129493 
L 307.78313 283.110174 
L 307.810185 283.132503 
L 398.487273 283.123444 
L 398.487273 283.123444 
" style="fill:none;stroke:#d62728;stroke-linecap:square;stroke-width:1.5;"/>
   </g>
   <g id="line2d_19">
    <path clip-path="url(#p11617a8425)" d="M 73.832727 295.488 
L 398.487273 295.488 
L 398.487273 295.488 
" style="fill:none;stroke:#9467bd;stroke-linecap:square;stroke-width:1.5;"/>
   </g>
   <g id="patch_3">
    <path d="M 57.6 307.584 
L 57.6 41.472 
" style="fill:none;stroke:#000000;stroke-linecap:square;stroke-linejoin:miter;stroke-width:0.8;"/>
   </g>
   <g id="patch_4">
    <path d="M 414.72 307.584 
L 414.72 41.472 
" style="fill:none;stroke:#000000;stroke-linecap:square;stroke-linejoin:miter;stroke-width:0.8;"/>
   </g>
   <g id="patch_5">
    <path d="M 57.6 307.584 
L 414.72 307.584 
" style="fill:none;stroke:#000000;stroke-linecap:square;stroke-linejoin:miter;stroke-width:0.8;"/>
   </g>
   <g id="patch_6">
    <path d="M 57.6 41.472 
L 414.72 41.472 
" style="fill:none;stroke:#000000;stroke-linecap:square;stroke-linejoin:miter;stroke-width:0.8;"/>
   </g>
   <g id="legend_1">
    <g id="patch_7">
     <path d="M 356.516875 122.862625 
L 407.72 122.862625 
Q 409.72 122.862625 409.72 120.862625 
L 409.72 48.472 
Q 409.72 46.472 407.72 46.472 
L 356.516875 46.472 
Q 354.516875 46.472 354.516875 48.472 
L 354.516875 120.862625 
Q 354.516875 122.862625 356.516875 122.862625 
z
" style="fill:#ffffff;opacity:0.8;stroke:#cccccc;stroke-linejoin:miter;"/>
    </g>
    <g id="line2d_20">
     <path d="M 358.516875 54.570438 
L 378.516875 54.570438 
" style="fill:none;stroke:#1f77b4;stroke-linecap:square;stroke-width:1.5;"/>
    </g>
    <g id="line2d_21"/>
    <g id="text_18">
     <!-- T+ -->
     <g transform="translate(386.516875 58.070438)scale(0.1 -0.1)">
      <defs>
       <path d="M 46 62.703125 
L 46 35.5 
L 73.1875 35.5 
L 73.1875 27.203125 
L 46 27.203125 
L 46 0 
L 37.796875 0 
L 37.796875 27.203125 
L 10.59375 27.203125 
L 10.59375 35.5 
L 37.796875 35.5 
L 37.796875 62.703125 
z
" id="DejaVuSans-43"/>
      </defs>
      <use xlink:href="#DejaVuSans-84"/>
      <use x="61.083984" xlink:href="#DejaVuSans-43"/>
     </g>
    </g>
    <g id="line2d_22">
     <path d="M 358.516875 69.248563 
L 378.516875 69.248563 
" style="fill:none;stroke:#ff7f0e;stroke-linecap:square;stroke-width:1.5;"/>
    </g>
    <g id="line2d_23"/>
    <g id="text_19">
     <!-- Tp -->
     <g transform="translate(386.516875 72.748563)scale(0.1 -0.1)">
      <defs>
       <path d="M 18.109375 8.203125 
L 18.109375 -20.796875 
L 9.078125 -20.796875 
L 9.078125 54.6875 
L 18.109375 54.6875 
L 18.109375 46.390625 
Q 20.953125 51.265625 25.265625 53.625 
Q 29.59375 56 35.59375 56 
Q 45.5625 56 51.78125 48.09375 
Q 58.015625 40.1875 58.015625 27.296875 
Q 58.015625 14.40625 51.78125 6.484375 
Q 45.5625 -1.421875 35.59375 -1.421875 
Q 29.59375 -1.421875 25.265625 0.953125 
Q 20.953125 3.328125 18.109375 8.203125 
z
M 48.6875 27.296875 
Q 48.6875 37.203125 44.609375 42.84375 
Q 40.53125 48.484375 33.40625 48.484375 
Q 26.265625 48.484375 22.1875 42.84375 
Q 18.109375 37.203125 18.109375 27.296875 
Q 18.109375 17.390625 22.1875 11.75 
Q 26.265625 6.109375 33.40625 6.109375 
Q 40.53125 6.109375 44.609375 11.75 
Q 48.6875 17.390625 48.6875 27.296875 
z
" id="DejaVuSans-112"/>
      </defs>
      <use xlink:href="#DejaVuSans-84"/>
      <use x="61.083984" xlink:href="#DejaVuSans-112"/>
     </g>
    </g>
    <g id="line2d_24">
     <path d="M 358.516875 83.926688 
L 378.516875 83.926688 
" style="fill:none;stroke:#2ca02c;stroke-linecap:square;stroke-width:1.5;"/>
    </g>
    <g id="line2d_25"/>
    <g id="text_20">
     <!-- T- -->
     <g transform="translate(386.516875 87.426688)scale(0.1 -0.1)">
      <defs>
       <path d="M 4.890625 31.390625 
L 31.203125 31.390625 
L 31.203125 23.390625 
L 4.890625 23.390625 
z
" id="DejaVuSans-45"/>
      </defs>
      <use xlink:href="#DejaVuSans-84"/>
      <use x="51.958984" xlink:href="#DejaVuSans-45"/>
     </g>
    </g>
    <g id="line2d_26">
     <path d="M 358.516875 98.604813 
L 378.516875 98.604813 
" style="fill:none;stroke:#d62728;stroke-linecap:square;stroke-width:1.5;"/>
    </g>
    <g id="line2d_27"/>
    <g id="text_21">
     <!-- O2 -->
     <g transform="translate(386.516875 102.104813)scale(0.1 -0.1)">
      <defs>
       <path d="M 39.40625 66.21875 
Q 28.65625 66.21875 22.328125 58.203125 
Q 16.015625 50.203125 16.015625 36.375 
Q 16.015625 22.609375 22.328125 14.59375 
Q 28.65625 6.59375 39.40625 6.59375 
Q 50.140625 6.59375 56.421875 14.59375 
Q 62.703125 22.609375 62.703125 36.375 
Q 62.703125 50.203125 56.421875 58.203125 
Q 50.140625 66.21875 39.40625 66.21875 
z
M 39.40625 74.21875 
Q 54.734375 74.21875 63.90625 63.9375 
Q 73.09375 53.65625 73.09375 36.375 
Q 73.09375 19.140625 63.90625 8.859375 
Q 54.734375 -1.421875 39.40625 -1.421875 
Q 24.03125 -1.421875 14.8125 8.828125 
Q 5.609375 19.09375 5.609375 36.375 
Q 5.609375 53.65625 14.8125 63.9375 
Q 24.03125 74.21875 39.40625 74.21875 
z
" id="DejaVuSans-79"/>
      </defs>
      <use xlink:href="#DejaVuSans-79"/>
      <use x="78.710938" xlink:href="#DejaVuSans-50"/>
     </g>
    </g>
    <g id="line2d_28">
     <path d="M 358.516875 113.282938 
L 378.516875 113.282938 
" style="fill:none;stroke:#9467bd;stroke-linecap:square;stroke-width:1.5;"/>
    </g>
    <g id="line2d_29"/>
    <g id="text_22">
     <!-- test -->
     <g transform="translate(386.516875 116.782938)scale(0.1 -0.1)">
      <use xlink:href="#DejaVuSans-116"/>
      <use x="39.208984" xlink:href="#DejaVuSans-101"/>
      <use x="100.732422" xlink:href="#DejaVuSans-115"/>
      <use x="152.832031" xlink:href="#DejaVuSans-116"/>
     </g>
    </g>
   </g>
  </g>
 </g>
 <defs>
  <clipPath id="p11617a8425">
   <rect height="266.112" width="357.12" x="57.6" y="41.472"/>
  </clipPath>
 </defs>
</svg>
