<?xml version="1.0" encoding="utf-8" standalone="no"?>
<!DOCTYPE svg PUBLIC "-//W3C//DTD SVG 1.1//EN"
  "http://www.w3.org/Graphics/SVG/1.1/DTD/svg11.dtd">
<!-- Created with matplotlib (https://matplotlib.org/) -->
<svg height="345.6pt" version="1.1" viewBox="0 0 460.8 345.6" width="460.8pt" xmlns="http://www.w3.org/2000/svg" xmlns:xlink="http://www.w3.org/1999/xlink">
 <metadata>
  <rdf:RDF xmlns:cc="http://creativecommons.org/ns#" xmlns:dc="http://purl.org/dc/elements/1.1/" xmlns:rdf="http://www.w3.org/1999/02/22-rdf-syntax-ns#">
   <cc:Work>
    <dc:type rdf:resource="http://purl.org/dc/dcmitype/StillImage"/>
    <dc:date>2020-10-24T13:54:20.979651</dc:date>
    <dc:format>image/svg+xml</dc:format>
    <dc:creator>
     <cc:Agent>
      <dc:title>Matplotlib v3.3.2, https://matplotlib.org/</dc:title>
     </cc:Agent>
    </dc:creator>
   </cc:Work>
  </rdf:RDF>
 </metadata>
 <defs>
  <style type="text/css">*{stroke-linecap:butt;stroke-linejoin:round;}</style>
 </defs>
 <g id="figure_1">
  <g id="patch_1">
   <path d="M 0 345.6 
L 460.8 345.6 
L 460.8 0 
L 0 0 
z
" style="fill:#ffffff;"/>
  </g>
  <g id="axes_1">
   <g id="patch_2">
    <path d="M 57.6 307.584 
L 414.72 307.584 
L 414.72 41.472 
L 57.6 41.472 
z
" style="fill:#ffffff;"/>
   </g>
   <g id="matplotlib.axis_1">
    <g id="xtick_1">
     <g id="line2d_1">
      <defs>
       <path d="M 0 0 
L 0 3.5 
" id="mcacc6db38c" style="stroke:#000000;stroke-width:0.8;"/>
      </defs>
      <g>
       <use style="stroke:#000000;stroke-width:0.8;" x="73.832727" xlink:href="#mcacc6db38c" y="307.584"/>
      </g>
     </g>
     <g id="text_1">
      <!-- 0.0 -->
      <g transform="translate(65.881165 322.182437)scale(0.1 -0.1)">
       <defs>
        <path d="M 31.78125 66.40625 
Q 24.171875 66.40625 20.328125 58.90625 
Q 16.5 51.421875 16.5 36.375 
Q 16.5 21.390625 20.328125 13.890625 
Q 24.171875 6.390625 31.78125 6.390625 
Q 39.453125 6.390625 43.28125 13.890625 
Q 47.125 21.390625 47.125 36.375 
Q 47.125 51.421875 43.28125 58.90625 
Q 39.453125 66.40625 31.78125 66.40625 
z
M 31.78125 74.21875 
Q 44.046875 74.21875 50.515625 64.515625 
Q 56.984375 54.828125 56.984375 36.375 
Q 56.984375 17.96875 50.515625 8.265625 
Q 44.046875 -1.421875 31.78125 -1.421875 
Q 19.53125 -1.421875 13.0625 8.265625 
Q 6.59375 17.96875 6.59375 36.375 
Q 6.59375 54.828125 13.0625 64.515625 
Q 19.53125 74.21875 31.78125 74.21875 
z
" id="DejaVuSans-48"/>
        <path d="M 10.6875 12.40625 
L 21 12.40625 
L 21 0 
L 10.6875 0 
z
" id="DejaVuSans-46"/>
       </defs>
       <use xlink:href="#DejaVuSans-48"/>
       <use x="63.623047" xlink:href="#DejaVuSans-46"/>
       <use x="95.410156" xlink:href="#DejaVuSans-48"/>
      </g>
     </g>
    </g>
    <g id="xtick_2">
     <g id="line2d_2">
      <g>
       <use style="stroke:#000000;stroke-width:0.8;" x="118.925515" xlink:href="#mcacc6db38c" y="307.584"/>
      </g>
     </g>
     <g id="text_2">
      <!-- 0.2 -->
      <g transform="translate(110.973953 322.182437)scale(0.1 -0.1)">
       <defs>
        <path d="M 19.1875 8.296875 
L 53.609375 8.296875 
L 53.609375 0 
L 7.328125 0 
L 7.328125 8.296875 
Q 12.9375 14.109375 22.625 23.890625 
Q 32.328125 33.6875 34.8125 36.53125 
Q 39.546875 41.84375 41.421875 45.53125 
Q 43.3125 49.21875 43.3125 52.78125 
Q 43.3125 58.59375 39.234375 62.25 
Q 35.15625 65.921875 28.609375 65.921875 
Q 23.96875 65.921875 18.8125 64.3125 
Q 13.671875 62.703125 7.8125 59.421875 
L 7.8125 69.390625 
Q 13.765625 71.78125 18.9375 73 
Q 24.125 74.21875 28.421875 74.21875 
Q 39.75 74.21875 46.484375 68.546875 
Q 53.21875 62.890625 53.21875 53.421875 
Q 53.21875 48.921875 51.53125 44.890625 
Q 49.859375 40.875 45.40625 35.40625 
Q 44.1875 33.984375 37.640625 27.21875 
Q 31.109375 20.453125 19.1875 8.296875 
z
" id="DejaVuSans-50"/>
       </defs>
       <use xlink:href="#DejaVuSans-48"/>
       <use x="63.623047" xlink:href="#DejaVuSans-46"/>
       <use x="95.410156" xlink:href="#DejaVuSans-50"/>
      </g>
     </g>
    </g>
    <g id="xtick_3">
     <g id="line2d_3">
      <g>
       <use style="stroke:#000000;stroke-width:0.8;" x="164.018303" xlink:href="#mcacc6db38c" y="307.584"/>
      </g>
     </g>
     <g id="text_3">
      <!-- 0.4 -->
      <g transform="translate(156.066741 322.182437)scale(0.1 -0.1)">
       <defs>
        <path d="M 37.796875 64.3125 
L 12.890625 25.390625 
L 37.796875 25.390625 
z
M 35.203125 72.90625 
L 47.609375 72.90625 
L 47.609375 25.390625 
L 58.015625 25.390625 
L 58.015625 17.1875 
L 47.609375 17.1875 
L 47.609375 0 
L 37.796875 0 
L 37.796875 17.1875 
L 4.890625 17.1875 
L 4.890625 26.703125 
z
" id="DejaVuSans-52"/>
       </defs>
       <use xlink:href="#DejaVuSans-48"/>
       <use x="63.623047" xlink:href="#DejaVuSans-46"/>
       <use x="95.410156" xlink:href="#DejaVuSans-52"/>
      </g>
     </g>
    </g>
    <g id="xtick_4">
     <g id="line2d_4">
      <g>
       <use style="stroke:#000000;stroke-width:0.8;" x="209.111091" xlink:href="#mcacc6db38c" y="307.584"/>
      </g>
     </g>
     <g id="text_4">
      <!-- 0.6 -->
      <g transform="translate(201.159529 322.182437)scale(0.1 -0.1)">
       <defs>
        <path d="M 33.015625 40.375 
Q 26.375 40.375 22.484375 35.828125 
Q 18.609375 31.296875 18.609375 23.390625 
Q 18.609375 15.53125 22.484375 10.953125 
Q 26.375 6.390625 33.015625 6.390625 
Q 39.65625 6.390625 43.53125 10.953125 
Q 47.40625 15.53125 47.40625 23.390625 
Q 47.40625 31.296875 43.53125 35.828125 
Q 39.65625 40.375 33.015625 40.375 
z
M 52.59375 71.296875 
L 52.59375 62.3125 
Q 48.875 64.0625 45.09375 64.984375 
Q 41.3125 65.921875 37.59375 65.921875 
Q 27.828125 65.921875 22.671875 59.328125 
Q 17.53125 52.734375 16.796875 39.40625 
Q 19.671875 43.65625 24.015625 45.921875 
Q 28.375 48.1875 33.59375 48.1875 
Q 44.578125 48.1875 50.953125 41.515625 
Q 57.328125 34.859375 57.328125 23.390625 
Q 57.328125 12.15625 50.6875 5.359375 
Q 44.046875 -1.421875 33.015625 -1.421875 
Q 20.359375 -1.421875 13.671875 8.265625 
Q 6.984375 17.96875 6.984375 36.375 
Q 6.984375 53.65625 15.1875 63.9375 
Q 23.390625 74.21875 37.203125 74.21875 
Q 40.921875 74.21875 44.703125 73.484375 
Q 48.484375 72.75 52.59375 71.296875 
z
" id="DejaVuSans-54"/>
       </defs>
       <use xlink:href="#DejaVuSans-48"/>
       <use x="63.623047" xlink:href="#DejaVuSans-46"/>
       <use x="95.410156" xlink:href="#DejaVuSans-54"/>
      </g>
     </g>
    </g>
    <g id="xtick_5">
     <g id="line2d_5">
      <g>
       <use style="stroke:#000000;stroke-width:0.8;" x="254.203879" xlink:href="#mcacc6db38c" y="307.584"/>
      </g>
     </g>
     <g id="text_5">
      <!-- 0.8 -->
      <g transform="translate(246.252317 322.182437)scale(0.1 -0.1)">
       <defs>
        <path d="M 31.78125 34.625 
Q 24.75 34.625 20.71875 30.859375 
Q 16.703125 27.09375 16.703125 20.515625 
Q 16.703125 13.921875 20.71875 10.15625 
Q 24.75 6.390625 31.78125 6.390625 
Q 38.8125 6.390625 42.859375 10.171875 
Q 46.921875 13.96875 46.921875 20.515625 
Q 46.921875 27.09375 42.890625 30.859375 
Q 38.875 34.625 31.78125 34.625 
z
M 21.921875 38.8125 
Q 15.578125 40.375 12.03125 44.71875 
Q 8.5 49.078125 8.5 55.328125 
Q 8.5 64.0625 14.71875 69.140625 
Q 20.953125 74.21875 31.78125 74.21875 
Q 42.671875 74.21875 48.875 69.140625 
Q 55.078125 64.0625 55.078125 55.328125 
Q 55.078125 49.078125 51.53125 44.71875 
Q 48 40.375 41.703125 38.8125 
Q 48.828125 37.15625 52.796875 32.3125 
Q 56.78125 27.484375 56.78125 20.515625 
Q 56.78125 9.90625 50.3125 4.234375 
Q 43.84375 -1.421875 31.78125 -1.421875 
Q 19.734375 -1.421875 13.25 4.234375 
Q 6.78125 9.90625 6.78125 20.515625 
Q 6.78125 27.484375 10.78125 32.3125 
Q 14.796875 37.15625 21.921875 38.8125 
z
M 18.3125 54.390625 
Q 18.3125 48.734375 21.84375 45.5625 
Q 25.390625 42.390625 31.78125 42.390625 
Q 38.140625 42.390625 41.71875 45.5625 
Q 45.3125 48.734375 45.3125 54.390625 
Q 45.3125 60.0625 41.71875 63.234375 
Q 38.140625 66.40625 31.78125 66.40625 
Q 25.390625 66.40625 21.84375 63.234375 
Q 18.3125 60.0625 18.3125 54.390625 
z
" id="DejaVuSans-56"/>
       </defs>
       <use xlink:href="#DejaVuSans-48"/>
       <use x="63.623047" xlink:href="#DejaVuSans-46"/>
       <use x="95.410156" xlink:href="#DejaVuSans-56"/>
      </g>
     </g>
    </g>
    <g id="xtick_6">
     <g id="line2d_6">
      <g>
       <use style="stroke:#000000;stroke-width:0.8;" x="299.296667" xlink:href="#mcacc6db38c" y="307.584"/>
      </g>
     </g>
     <g id="text_6">
      <!-- 1.0 -->
      <g transform="translate(291.345105 322.182437)scale(0.1 -0.1)">
       <defs>
        <path d="M 12.40625 8.296875 
L 28.515625 8.296875 
L 28.515625 63.921875 
L 10.984375 60.40625 
L 10.984375 69.390625 
L 28.421875 72.90625 
L 38.28125 72.90625 
L 38.28125 8.296875 
L 54.390625 8.296875 
L 54.390625 0 
L 12.40625 0 
z
" id="DejaVuSans-49"/>
       </defs>
       <use xlink:href="#DejaVuSans-49"/>
       <use x="63.623047" xlink:href="#DejaVuSans-46"/>
       <use x="95.410156" xlink:href="#DejaVuSans-48"/>
      </g>
     </g>
    </g>
    <g id="xtick_7">
     <g id="line2d_7">
      <g>
       <use style="stroke:#000000;stroke-width:0.8;" x="344.389455" xlink:href="#mcacc6db38c" y="307.584"/>
      </g>
     </g>
     <g id="text_7">
      <!-- 1.2 -->
      <g transform="translate(336.437893 322.182437)scale(0.1 -0.1)">
       <use xlink:href="#DejaVuSans-49"/>
       <use x="63.623047" xlink:href="#DejaVuSans-46"/>
       <use x="95.410156" xlink:href="#DejaVuSans-50"/>
      </g>
     </g>
    </g>
    <g id="xtick_8">
     <g id="line2d_8">
      <g>
       <use style="stroke:#000000;stroke-width:0.8;" x="389.482243" xlink:href="#mcacc6db38c" y="307.584"/>
      </g>
     </g>
     <g id="text_8">
      <!-- 1.4 -->
      <g transform="translate(381.53068 322.182437)scale(0.1 -0.1)">
       <use xlink:href="#DejaVuSans-49"/>
       <use x="63.623047" xlink:href="#DejaVuSans-46"/>
       <use x="95.410156" xlink:href="#DejaVuSans-52"/>
      </g>
     </g>
    </g>
    <g id="text_9">
     <!-- Time (min) -->
     <g transform="translate(209.007656 335.860562)scale(0.1 -0.1)">
      <defs>
       <path d="M -0.296875 72.90625 
L 61.375 72.90625 
L 61.375 64.59375 
L 35.5 64.59375 
L 35.5 0 
L 25.59375 0 
L 25.59375 64.59375 
L -0.296875 64.59375 
z
" id="DejaVuSans-84"/>
       <path d="M 9.421875 54.6875 
L 18.40625 54.6875 
L 18.40625 0 
L 9.421875 0 
z
M 9.421875 75.984375 
L 18.40625 75.984375 
L 18.40625 64.59375 
L 9.421875 64.59375 
z
" id="DejaVuSans-105"/>
       <path d="M 52 44.1875 
Q 55.375 50.25 60.0625 53.125 
Q 64.75 56 71.09375 56 
Q 79.640625 56 84.28125 50.015625 
Q 88.921875 44.046875 88.921875 33.015625 
L 88.921875 0 
L 79.890625 0 
L 79.890625 32.71875 
Q 79.890625 40.578125 77.09375 44.375 
Q 74.3125 48.1875 68.609375 48.1875 
Q 61.625 48.1875 57.5625 43.546875 
Q 53.515625 38.921875 53.515625 30.90625 
L 53.515625 0 
L 44.484375 0 
L 44.484375 32.71875 
Q 44.484375 40.625 41.703125 44.40625 
Q 38.921875 48.1875 33.109375 48.1875 
Q 26.21875 48.1875 22.15625 43.53125 
Q 18.109375 38.875 18.109375 30.90625 
L 18.109375 0 
L 9.078125 0 
L 9.078125 54.6875 
L 18.109375 54.6875 
L 18.109375 46.1875 
Q 21.1875 51.21875 25.484375 53.609375 
Q 29.78125 56 35.6875 56 
Q 41.65625 56 45.828125 52.96875 
Q 50 49.953125 52 44.1875 
z
" id="DejaVuSans-109"/>
       <path d="M 56.203125 29.59375 
L 56.203125 25.203125 
L 14.890625 25.203125 
Q 15.484375 15.921875 20.484375 11.0625 
Q 25.484375 6.203125 34.421875 6.203125 
Q 39.59375 6.203125 44.453125 7.46875 
Q 49.3125 8.734375 54.109375 11.28125 
L 54.109375 2.78125 
Q 49.265625 0.734375 44.1875 -0.34375 
Q 39.109375 -1.421875 33.890625 -1.421875 
Q 20.796875 -1.421875 13.15625 6.1875 
Q 5.515625 13.8125 5.515625 26.8125 
Q 5.515625 40.234375 12.765625 48.109375 
Q 20.015625 56 32.328125 56 
Q 43.359375 56 49.78125 48.890625 
Q 56.203125 41.796875 56.203125 29.59375 
z
M 47.21875 32.234375 
Q 47.125 39.59375 43.09375 43.984375 
Q 39.0625 48.390625 32.421875 48.390625 
Q 24.90625 48.390625 20.390625 44.140625 
Q 15.875 39.890625 15.1875 32.171875 
z
" id="DejaVuSans-101"/>
       <path id="DejaVuSans-32"/>
       <path d="M 31 75.875 
Q 24.46875 64.65625 21.28125 53.65625 
Q 18.109375 42.671875 18.109375 31.390625 
Q 18.109375 20.125 21.3125 9.0625 
Q 24.515625 -2 31 -13.1875 
L 23.1875 -13.1875 
Q 15.875 -1.703125 12.234375 9.375 
Q 8.59375 20.453125 8.59375 31.390625 
Q 8.59375 42.28125 12.203125 53.3125 
Q 15.828125 64.359375 23.1875 75.875 
z
" id="DejaVuSans-40"/>
       <path d="M 54.890625 33.015625 
L 54.890625 0 
L 45.90625 0 
L 45.90625 32.71875 
Q 45.90625 40.484375 42.875 44.328125 
Q 39.84375 48.1875 33.796875 48.1875 
Q 26.515625 48.1875 22.3125 43.546875 
Q 18.109375 38.921875 18.109375 30.90625 
L 18.109375 0 
L 9.078125 0 
L 9.078125 54.6875 
L 18.109375 54.6875 
L 18.109375 46.1875 
Q 21.34375 51.125 25.703125 53.5625 
Q 30.078125 56 35.796875 56 
Q 45.21875 56 50.046875 50.171875 
Q 54.890625 44.34375 54.890625 33.015625 
z
" id="DejaVuSans-110"/>
       <path d="M 8.015625 75.875 
L 15.828125 75.875 
Q 23.140625 64.359375 26.78125 53.3125 
Q 30.421875 42.28125 30.421875 31.390625 
Q 30.421875 20.453125 26.78125 9.375 
Q 23.140625 -1.703125 15.828125 -13.1875 
L 8.015625 -13.1875 
Q 14.5 -2 17.703125 9.0625 
Q 20.90625 20.125 20.90625 31.390625 
Q 20.90625 42.671875 17.703125 53.65625 
Q 14.5 64.65625 8.015625 75.875 
z
" id="DejaVuSans-41"/>
      </defs>
      <use xlink:href="#DejaVuSans-84"/>
      <use x="57.958984" xlink:href="#DejaVuSans-105"/>
      <use x="85.742188" xlink:href="#DejaVuSans-109"/>
      <use x="183.154297" xlink:href="#DejaVuSans-101"/>
      <use x="244.677734" xlink:href="#DejaVuSans-32"/>
      <use x="276.464844" xlink:href="#DejaVuSans-40"/>
      <use x="315.478516" xlink:href="#DejaVuSans-109"/>
      <use x="412.890625" xlink:href="#DejaVuSans-105"/>
      <use x="440.673828" xlink:href="#DejaVuSans-110"/>
      <use x="504.052734" xlink:href="#DejaVuSans-41"/>
     </g>
    </g>
    <g id="text_10">
     <!-- 1e6 -->
     <g transform="translate(395.841875 334.860562)scale(0.1 -0.1)">
      <use xlink:href="#DejaVuSans-49"/>
      <use x="63.623047" xlink:href="#DejaVuSans-101"/>
      <use x="125.146484" xlink:href="#DejaVuSans-54"/>
     </g>
    </g>
   </g>
   <g id="matplotlib.axis_2">
    <g id="ytick_1">
     <g id="line2d_9">
      <defs>
       <path d="M 0 0 
L -3.5 0 
" id="mb828c77cc3" style="stroke:#000000;stroke-width:0.8;"/>
      </defs>
      <g>
       <use style="stroke:#000000;stroke-width:0.8;" x="57.6" xlink:href="#mb828c77cc3" y="307.1102"/>
      </g>
     </g>
     <g id="text_11">
      <!-- −100 -->
      <g transform="translate(23.132812 310.909419)scale(0.1 -0.1)">
       <defs>
        <path d="M 10.59375 35.5 
L 73.1875 35.5 
L 73.1875 27.203125 
L 10.59375 27.203125 
z
" id="DejaVuSans-8722"/>
       </defs>
       <use xlink:href="#DejaVuSans-8722"/>
       <use x="83.789062" xlink:href="#DejaVuSans-49"/>
       <use x="147.412109" xlink:href="#DejaVuSans-48"/>
       <use x="211.035156" xlink:href="#DejaVuSans-48"/>
      </g>
     </g>
    </g>
    <g id="ytick_2">
     <g id="line2d_10">
      <g>
       <use style="stroke:#000000;stroke-width:0.8;" x="57.6" xlink:href="#mb828c77cc3" y="275.417425"/>
      </g>
     </g>
     <g id="text_12">
      <!-- −75 -->
      <g transform="translate(29.495313 279.216644)scale(0.1 -0.1)">
       <defs>
        <path d="M 8.203125 72.90625 
L 55.078125 72.90625 
L 55.078125 68.703125 
L 28.609375 0 
L 18.3125 0 
L 43.21875 64.59375 
L 8.203125 64.59375 
z
" id="DejaVuSans-55"/>
        <path d="M 10.796875 72.90625 
L 49.515625 72.90625 
L 49.515625 64.59375 
L 19.828125 64.59375 
L 19.828125 46.734375 
Q 21.96875 47.46875 24.109375 47.828125 
Q 26.265625 48.1875 28.421875 48.1875 
Q 40.625 48.1875 47.75 41.5 
Q 54.890625 34.8125 54.890625 23.390625 
Q 54.890625 11.625 47.5625 5.09375 
Q 40.234375 -1.421875 26.90625 -1.421875 
Q 22.3125 -1.421875 17.546875 -0.640625 
Q 12.796875 0.140625 7.71875 1.703125 
L 7.71875 11.625 
Q 12.109375 9.234375 16.796875 8.0625 
Q 21.484375 6.890625 26.703125 6.890625 
Q 35.15625 6.890625 40.078125 11.328125 
Q 45.015625 15.765625 45.015625 23.390625 
Q 45.015625 31 40.078125 35.4375 
Q 35.15625 39.890625 26.703125 39.890625 
Q 22.75 39.890625 18.8125 39.015625 
Q 14.890625 38.140625 10.796875 36.28125 
z
" id="DejaVuSans-53"/>
       </defs>
       <use xlink:href="#DejaVuSans-8722"/>
       <use x="83.789062" xlink:href="#DejaVuSans-55"/>
       <use x="147.412109" xlink:href="#DejaVuSans-53"/>
      </g>
     </g>
    </g>
    <g id="ytick_3">
     <g id="line2d_11">
      <g>
       <use style="stroke:#000000;stroke-width:0.8;" x="57.6" xlink:href="#mb828c77cc3" y="243.72465"/>
      </g>
     </g>
     <g id="text_13">
      <!-- −50 -->
      <g transform="translate(29.495313 247.523869)scale(0.1 -0.1)">
       <use xlink:href="#DejaVuSans-8722"/>
       <use x="83.789062" xlink:href="#DejaVuSans-53"/>
       <use x="147.412109" xlink:href="#DejaVuSans-48"/>
      </g>
     </g>
    </g>
    <g id="ytick_4">
     <g id="line2d_12">
      <g>
       <use style="stroke:#000000;stroke-width:0.8;" x="57.6" xlink:href="#mb828c77cc3" y="212.031875"/>
      </g>
     </g>
     <g id="text_14">
      <!-- −25 -->
      <g transform="translate(29.495313 215.831094)scale(0.1 -0.1)">
       <use xlink:href="#DejaVuSans-8722"/>
       <use x="83.789062" xlink:href="#DejaVuSans-50"/>
       <use x="147.412109" xlink:href="#DejaVuSans-53"/>
      </g>
     </g>
    </g>
    <g id="ytick_5">
     <g id="line2d_13">
      <g>
       <use style="stroke:#000000;stroke-width:0.8;" x="57.6" xlink:href="#mb828c77cc3" y="180.3391"/>
      </g>
     </g>
     <g id="text_15">
      <!-- 0 -->
      <g transform="translate(44.2375 184.138319)scale(0.1 -0.1)">
       <use xlink:href="#DejaVuSans-48"/>
      </g>
     </g>
    </g>
    <g id="ytick_6">
     <g id="line2d_14">
      <g>
       <use style="stroke:#000000;stroke-width:0.8;" x="57.6" xlink:href="#mb828c77cc3" y="148.646325"/>
      </g>
     </g>
     <g id="text_16">
      <!-- 25 -->
      <g transform="translate(37.875 152.445544)scale(0.1 -0.1)">
       <use xlink:href="#DejaVuSans-50"/>
       <use x="63.623047" xlink:href="#DejaVuSans-53"/>
      </g>
     </g>
    </g>
    <g id="ytick_7">
     <g id="line2d_15">
      <g>
       <use style="stroke:#000000;stroke-width:0.8;" x="57.6" xlink:href="#mb828c77cc3" y="116.95355"/>
      </g>
     </g>
     <g id="text_17">
      <!-- 50 -->
      <g transform="translate(37.875 120.752769)scale(0.1 -0.1)">
       <use xlink:href="#DejaVuSans-53"/>
       <use x="63.623047" xlink:href="#DejaVuSans-48"/>
      </g>
     </g>
    </g>
    <g id="ytick_8">
     <g id="line2d_16">
      <g>
       <use style="stroke:#000000;stroke-width:0.8;" x="57.6" xlink:href="#mb828c77cc3" y="85.260775"/>
      </g>
     </g>
     <g id="text_18">
      <!-- 75 -->
      <g transform="translate(37.875 89.059994)scale(0.1 -0.1)">
       <use xlink:href="#DejaVuSans-55"/>
       <use x="63.623047" xlink:href="#DejaVuSans-53"/>
      </g>
     </g>
    </g>
    <g id="ytick_9">
     <g id="line2d_17">
      <g>
       <use style="stroke:#000000;stroke-width:0.8;" x="57.6" xlink:href="#mb828c77cc3" y="53.568"/>
      </g>
     </g>
     <g id="text_19">
      <!-- 100 -->
      <g transform="translate(31.5125 57.367219)scale(0.1 -0.1)">
       <use xlink:href="#DejaVuSans-49"/>
       <use x="63.623047" xlink:href="#DejaVuSans-48"/>
       <use x="127.246094" xlink:href="#DejaVuSans-48"/>
      </g>
     </g>
    </g>
    <g id="text_20">
     <!-- Density -->
     <g transform="translate(17.053125 193.536594)rotate(-90)scale(0.1 -0.1)">
      <defs>
       <path d="M 19.671875 64.796875 
L 19.671875 8.109375 
L 31.59375 8.109375 
Q 46.6875 8.109375 53.6875 14.9375 
Q 60.6875 21.78125 60.6875 36.53125 
Q 60.6875 51.171875 53.6875 57.984375 
Q 46.6875 64.796875 31.59375 64.796875 
z
M 9.8125 72.90625 
L 30.078125 72.90625 
Q 51.265625 72.90625 61.171875 64.09375 
Q 71.09375 55.28125 71.09375 36.53125 
Q 71.09375 17.671875 61.125 8.828125 
Q 51.171875 0 30.078125 0 
L 9.8125 0 
z
" id="DejaVuSans-68"/>
       <path d="M 44.28125 53.078125 
L 44.28125 44.578125 
Q 40.484375 46.53125 36.375 47.5 
Q 32.28125 48.484375 27.875 48.484375 
Q 21.1875 48.484375 17.84375 46.4375 
Q 14.5 44.390625 14.5 40.28125 
Q 14.5 37.15625 16.890625 35.375 
Q 19.28125 33.59375 26.515625 31.984375 
L 29.59375 31.296875 
Q 39.15625 29.25 43.1875 25.515625 
Q 47.21875 21.78125 47.21875 15.09375 
Q 47.21875 7.46875 41.1875 3.015625 
Q 35.15625 -1.421875 24.609375 -1.421875 
Q 20.21875 -1.421875 15.453125 -0.5625 
Q 10.6875 0.296875 5.421875 2 
L 5.421875 11.28125 
Q 10.40625 8.6875 15.234375 7.390625 
Q 20.0625 6.109375 24.8125 6.109375 
Q 31.15625 6.109375 34.5625 8.28125 
Q 37.984375 10.453125 37.984375 14.40625 
Q 37.984375 18.0625 35.515625 20.015625 
Q 33.0625 21.96875 24.703125 23.78125 
L 21.578125 24.515625 
Q 13.234375 26.265625 9.515625 29.90625 
Q 5.8125 33.546875 5.8125 39.890625 
Q 5.8125 47.609375 11.28125 51.796875 
Q 16.75 56 26.8125 56 
Q 31.78125 56 36.171875 55.265625 
Q 40.578125 54.546875 44.28125 53.078125 
z
" id="DejaVuSans-115"/>
       <path d="M 18.3125 70.21875 
L 18.3125 54.6875 
L 36.8125 54.6875 
L 36.8125 47.703125 
L 18.3125 47.703125 
L 18.3125 18.015625 
Q 18.3125 11.328125 20.140625 9.421875 
Q 21.96875 7.515625 27.59375 7.515625 
L 36.8125 7.515625 
L 36.8125 0 
L 27.59375 0 
Q 17.1875 0 13.234375 3.875 
Q 9.28125 7.765625 9.28125 18.015625 
L 9.28125 47.703125 
L 2.6875 47.703125 
L 2.6875 54.6875 
L 9.28125 54.6875 
L 9.28125 70.21875 
z
" id="DejaVuSans-116"/>
       <path d="M 32.171875 -5.078125 
Q 28.375 -14.84375 24.75 -17.8125 
Q 21.140625 -20.796875 15.09375 -20.796875 
L 7.90625 -20.796875 
L 7.90625 -13.28125 
L 13.1875 -13.28125 
Q 16.890625 -13.28125 18.9375 -11.515625 
Q 21 -9.765625 23.484375 -3.21875 
L 25.09375 0.875 
L 2.984375 54.6875 
L 12.5 54.6875 
L 29.59375 11.921875 
L 46.6875 54.6875 
L 56.203125 54.6875 
z
" id="DejaVuSans-121"/>
      </defs>
      <use xlink:href="#DejaVuSans-68"/>
      <use x="77.001953" xlink:href="#DejaVuSans-101"/>
      <use x="138.525391" xlink:href="#DejaVuSans-110"/>
      <use x="201.904297" xlink:href="#DejaVuSans-115"/>
      <use x="254.003906" xlink:href="#DejaVuSans-105"/>
      <use x="281.787109" xlink:href="#DejaVuSans-116"/>
      <use x="320.996094" xlink:href="#DejaVuSans-121"/>
     </g>
    </g>
   </g>
   <g id="line2d_18">
    <path clip-path="url(#pcc7b247f43)" d="M 73.832727 180.3391 
L 398.487273 180.3391 
L 398.487273 180.3391 
" style="fill:none;stroke:#1f77b4;stroke-linecap:square;stroke-width:1.5;"/>
   </g>
   <g id="line2d_19">
    <path clip-path="url(#pcc7b247f43)" d="M 73.832727 180.3391 
L 398.487273 180.3391 
L 398.487273 180.3391 
" style="fill:none;stroke:#ff7f0e;stroke-linecap:square;stroke-width:1.5;"/>
   </g>
   <g id="line2d_20">
    <path clip-path="url(#pcc7b247f43)" d="M 73.832727 167.66199 
L 73.954478 167.637421 
L 91.932972 169.247631 
L 111.196611 170.747111 
L 125.644341 171.680951 
L 246.610254 171.680939 
L 398.487273 171.68098 
L 398.487273 171.68098 
" style="fill:none;stroke:#2ca02c;stroke-linecap:square;stroke-width:1.5;"/>
   </g>
   <g id="line2d_21">
    <path clip-path="url(#pcc7b247f43)" d="M 73.832727 53.568 
L 73.859783 295.488 
L 73.954478 294.978164 
L 73.981533 295.193305 
L 74.022117 294.793648 
L 74.035645 294.788276 
L 74.049173 294.863609 
L 74.0627 295.047869 
L 74.103284 294.520469 
L 74.143868 294.816603 
L 74.25209 294.182146 
L 74.265618 294.239266 
L 74.279146 294.314519 
L 74.306202 294.002125 
L 74.360313 294.175206 
L 74.468536 293.574667 
L 74.495591 293.675831 
L 74.684981 292.911768 
L 74.725564 293.104995 
L 74.739092 292.719226 
L 74.793204 292.946984 
L 74.887899 292.287534 
L 74.928482 292.430763 
L 74.94201 292.482359 
L 75.036705 291.937598 
L 75.06376 292.03582 
L 75.077288 292.038545 
L 75.185511 291.502837 
L 75.199039 291.54889 
L 75.212567 291.768095 
L 75.25315 291.178898 
L 75.293734 291.398342 
L 75.307261 291.368392 
L 75.401956 290.917515 
L 75.429012 291.003627 
L 76.321849 288.23336 
L 76.348905 288.26361 
L 76.362433 288.457032 
L 76.416544 288.059326 
L 76.4436 288.154493 
L 76.619462 287.411816 
L 76.646517 287.625221 
L 76.673573 287.516844 
L 76.781796 287.06915 
L 76.795323 287.119383 
L 76.822379 287.069968 
L 76.917074 286.587049 
L 76.94413 286.836403 
L 77.06588 286.21176 
L 77.079408 286.286757 
L 77.092936 286.419053 
L 77.133519 285.974961 
L 77.160575 286.161342 
L 77.349965 285.425708 
L 77.37702 285.521 
L 77.404076 285.401386 
L 77.498771 285.006049 
L 77.458187 285.420459 
L 77.512299 285.072018 
L 77.525827 285.21486 
L 77.56641 284.806925 
L 77.606994 284.899518 
L 77.715216 284.404724 
L 77.728744 284.597061 
L 77.931662 283.818122 
L 77.958717 283.915996 
L 77.985773 283.614068 
L 78.026357 283.702222 
L 78.039884 283.694465 
L 78.148107 283.222603 
L 78.161635 283.275604 
L 78.175163 283.302615 
L 78.188691 283.260349 
L 78.283385 282.736477 
L 78.310441 282.991834 
L 78.432192 282.368059 
L 78.472775 282.441621 
L 78.635109 281.757595 
L 78.675693 281.883414 
L 78.689221 281.941578 
L 78.716276 281.625559 
L 78.743332 281.695867 
L 79.013889 280.81978 
L 79.040944 280.985436 
L 79.149167 280.437873 
L 79.162695 280.462432 
L 79.176223 280.495709 
L 79.203278 280.419527 
L 79.297973 280.019722 
L 79.325029 280.114623 
L 82.896378 270.182185 
L 82.909905 270.240175 
L 82.923433 270.414044 
L 82.964017 269.944605 
L 83.0046 270.074759 
L 83.018128 270.089938 
L 83.112823 269.583733 
L 83.153407 269.678341 
L 83.762159 267.879931 
L 83.789215 267.958086 
L 83.802743 268.04008 
L 83.843326 267.732976 
L 83.870382 267.768787 
L 86.075419 261.808264 
L 86.088947 261.852345 
L 86.102475 261.946249 
L 86.143058 261.617116 
L 86.170114 261.70014 
L 86.575949 260.488671 
L 86.616533 260.533873 
L 86.724755 260.149524 
L 86.738283 260.162827 
L 86.751811 260.21125 
L 86.778867 259.988487 
L 87.00884 259.340056 
L 87.049423 259.442415 
L 87.062951 259.161771 
L 87.103535 259.220375 
L 87.117063 259.294568 
L 87.157646 259.005058 
L 87.171174 259.036479 
L 87.184702 259.041367 
L 87.19823 259.003473 
L 87.279397 258.569705 
L 87.31998 258.754638 
L 87.50937 258.049212 
L 87.536426 258.130898 
L 87.563481 257.951953 
L 87.644648 257.631541 
L 87.604065 258.016035 
L 87.685232 257.725185 
L 87.69876 257.759329 
L 87.712287 257.574447 
L 87.874621 257.124505 
L 87.888149 257.151887 
L 87.901677 257.262075 
L 87.942261 256.932126 
L 87.969316 257.007455 
L 88.077539 256.63313 
L 88.226345 256.138145 
L 88.118122 256.70967 
L 88.266929 256.225983 
L 88.280457 256.220009 
L 88.375151 255.783054 
L 88.402207 255.866822 
L 88.415735 255.924189 
L 88.429263 255.657921 
L 88.483374 255.757143 
L 88.578069 255.26586 
L 88.618652 255.311524 
L 88.63218 255.35418 
L 88.645708 255.074948 
L 88.659236 255.119596 
L 88.686292 255.212244 
L 90.51255 250.491182 
L 90.607244 250.074637 
L 90.6343 250.231682 
L 90.82369 249.568122 
L 90.850745 249.709737 
L 90.877801 249.562393 
L 90.958968 249.181369 
L 90.999552 249.24216 
L 91.013079 249.272443 
L 91.026607 249.107563 
L 91.188941 248.636012 
L 91.202469 248.684315 
L 91.215997 248.773616 
L 91.256581 248.478147 
L 91.283636 248.539979 
L 91.391859 248.18927 
L 91.540665 247.710441 
L 91.554193 247.768923 
L 91.567721 247.840943 
L 91.621832 247.577425 
L 91.63536 247.618656 
L 91.662416 247.589729 
L 91.770638 247.217461 
L 91.797694 247.313622 
L 91.892389 246.866647 
L 91.932972 246.887177 
L 91.9465 246.924934 
L 91.960028 246.687539 
L 91.973556 246.711691 
L 92.32528 245.77219 
L 92.000612 246.779617 
L 92.365863 245.799532 
L 92.379391 245.844926 
L 92.419974 245.602501 
L 92.44703 245.617685 
L 92.460558 245.578159 
L 92.555253 245.188386 
L 92.595836 245.230676 
L 93.204589 243.611857 
L 93.245172 243.639251 
L 93.353395 243.24872 
L 93.380451 243.279942 
L 93.393979 243.297538 
L 93.407507 243.139227 
L 93.718647 242.382215 
L 93.745702 242.446445 
L 93.75923 242.308513 
L 93.921564 241.789102 
L 93.935092 241.842402 
L 93.94862 241.920603 
L 94.002731 241.656161 
L 94.016259 241.695746 
L 94.056843 241.571063 
L 94.205649 241.168494 
L 94.503261 240.382758 
L 94.516789 240.426094 
L 94.530317 240.501084 
L 94.5709 240.23397 
L 94.597956 240.280572 
L 94.706179 239.957517 
L 94.854985 239.49246 
L 94.868513 239.536408 
L 94.882041 239.591519 
L 94.936152 239.352438 
L 94.94968 239.432533 
L 95.233764 238.665727 
L 95.247292 238.705828 
L 95.274348 238.593951 
L 95.409626 238.259909 
L 98.006971 232.022928 
L 98.142249 231.673398 
L 99.76559 227.710896 
L 99.779117 227.737812 
L 99.792645 227.788403 
L 99.833229 227.561573 
L 99.846757 227.562859 
L 99.860284 227.588187 
L 99.88734 227.47149 
L 100.049674 227.065745 
L 100.103786 227.002849 
L 100.239064 226.678535 
L 101.713598 223.1544 
L 101.727126 223.17181 
L 101.740654 223.211473 
L 101.781237 222.997948 
L 101.808293 223.065269 
L 101.835349 222.947058 
L 101.916516 222.650956 
L 101.970627 222.664832 
L 102.132961 222.225855 
L 102.295295 221.829711 
L 102.308823 221.832266 
L 102.322351 221.858357 
L 102.349406 221.705751 
L 102.647019 221.008727 
L 102.660547 221.028307 
L 103.20166 219.790364 
L 103.323411 219.494851 
L 103.336938 219.506985 
L 103.5128 218.979648 
L 103.539856 219.03914 
L 103.566912 218.933742 
L 103.729246 218.489151 
L 103.756301 218.520927 
L 103.783357 218.412157 
L 104.026858 217.861174 
L 104.108025 217.677389 
L 104.121553 217.709809 
L 104.297415 217.161829 
L 104.310943 217.189301 
L 104.32447 217.215118 
L 104.365054 217.063414 
L 104.825 216.03203 
L 104.838528 216.082364 
L 104.879112 215.848617 
L 104.89264 215.870459 
L 104.906167 215.90155 
L 104.946751 215.72572 
L 105.217308 215.174527 
L 105.366114 214.793743 
L 106.096617 213.148677 
L 106.32659 212.612733 
L 106.340118 212.617049 
L 106.448341 212.384785 
L 106.597147 211.987515 
L 106.664786 211.876989 
L 106.908287 211.313596 
L 106.921815 211.32175 
L 107.111205 210.861325 
L 120.260262 182.871494 
L 120.950181 181.482814 
L 122.776439 177.819777 
L 123.696332 176.000349 
L 124.386252 174.645458 
L 124.940893 173.853657 
L 124.954421 173.861414 
L 125.089699 173.867307 
L 125.224978 173.846325 
L 125.238506 173.859916 
L 125.373784 173.876208 
L 125.387312 173.858963 
L 126.848318 173.856943 
L 127.051236 173.869366 
L 129.080411 173.863859 
L 129.269801 173.860565 
L 129.594469 173.858928 
L 129.756803 173.860125 
L 130.067943 173.864329 
L 130.663168 173.869856 
L 130.825502 173.869747 
L 131.731867 173.858262 
L 131.934785 173.869501 
L 132.77351 173.860516 
L 132.9629 173.867543 
L 133.531069 173.86339 
L 133.733987 173.863803 
L 133.923377 173.865217 
L 134.072183 173.868741 
L 135.005603 173.862646 
L 135.140882 173.869504 
L 135.15441 173.855678 
L 135.492606 173.865163 
L 135.641412 173.861906 
L 135.830801 173.871298 
L 136.114886 173.865702 
L 137.129474 173.866515 
L 137.291808 173.860613 
L 137.751754 173.864639 
L 137.914088 173.871386 
L 138.265812 173.862404 
L 138.455202 173.86731 
L 138.59048 173.849599 
L 138.766342 173.858919 
L 139.036899 173.862042 
L 139.266872 173.867087 
L 139.537429 173.859663 
L 139.672707 173.874513 
L 139.686235 173.859705 
L 140.28146 173.862208 
L 140.470849 173.868203 
L 141.417798 173.861586 
L 141.674827 173.855838 
L 141.877744 173.871003 
L 142.107718 173.864799 
L 142.391802 173.866587 
L 142.52708 173.852294 
L 142.743526 173.870138 
L 142.959971 173.859972 
L 143.176417 173.862638 
L 143.419918 173.858181 
L 143.663419 173.86589 
L 143.812225 173.855135 
L 144.015142 173.871101 
L 144.5292 173.8597 
L 144.664479 173.876001 
L 144.678006 173.859405 
L 145.584371 173.861707 
L 145.760233 173.86579 
L 146.774821 173.865783 
L 146.937155 173.861185 
L 147.505324 173.870414 
L 147.694714 173.865292 
L 147.897631 173.856705 
L 148.100549 173.867379 
L 148.235827 173.849365 
L 148.411689 173.858733 
L 148.668718 173.867914 
L 148.871636 173.856577 
L 149.128665 173.868226 
L 149.750945 173.864627 
L 150.183836 173.870218 
L 150.522032 173.861976 
L 151.063145 173.858289 
L 151.84776 173.859847 
L 151.983038 173.876249 
L 151.996566 173.859119 
L 153.241127 173.861522 
L 153.376405 173.867717 
L 153.525211 173.863014 
L 153.78224 173.868581 
L 164.996817 173.864554 
L 165.22679 173.876292 
L 165.375596 173.858791 
L 165.646153 173.86241 
L 165.84907 173.859885 
L 166.011404 173.859543 
L 166.484879 173.860183 
L 166.620157 173.876176 
L 166.768963 173.861341 
L 166.971881 173.869907 
L 167.242438 173.854227 
L 167.458883 173.86529 
L 167.648273 173.860622 
L 168.148803 173.86173 
L 168.405831 173.856556 
L 168.622277 173.859583 
L 169.149862 173.861057 
L 169.35278 173.870217 
L 169.569225 173.859452 
L 169.785671 173.863041 
L 169.988588 173.863719 
L 170.16445 173.861434 
L 170.529702 173.861153 
L 170.800258 173.864964 
L 171.003176 173.853922 
L 171.327844 173.866438 
L 171.463122 173.846731 
L 171.625457 173.862851 
L 171.828374 173.858615 
L 172.031292 173.872307 
L 172.234209 173.857322 
L 172.599461 173.865464 
L 172.748267 173.858365 
L 172.910601 173.860465 
L 173.221741 173.856822 
L 173.438187 173.866584 
L 173.573465 173.853825 
L 173.776383 173.866561 
L 173.911661 173.858516 
L 174.249857 173.858759 
L 174.736859 173.859033 
L 174.912721 173.861642 
L 175.332084 173.872509 
L 175.507946 173.869366 
L 178.578764 173.862493 
L 178.714043 173.869838 
L 178.862849 173.867563 
L 179.363379 173.868262 
L 179.498657 173.850412 
L 179.688047 173.865488 
L 180.526773 173.867349 
L 180.662051 173.858125 
L 180.91908 173.875956 
L 181.067886 173.860064 
L 181.446666 173.866394 
L 181.609 173.86835 
L 182.61006 173.86236 
L 182.867089 173.854635 
L 183.029423 173.864207 
L 183.218812 173.85373 
L 183.42173 173.866645 
L 183.557008 173.857565 
L 183.881676 173.870466 
L 184.04401 173.869001 
L 185.897324 173.862627 
L 186.032602 173.865688 
L 186.194936 173.870062 
L 186.600771 173.86148 
L 186.803689 173.865623 
L 186.938967 173.859477 
L 187.304219 173.86784 
L 187.453025 173.858469 
L 187.615359 173.863117 
L 187.818277 173.859592 
L 187.953555 173.867341 
L 188.102361 173.859638 
L 188.23764 173.876329 
L 188.251167 173.859619 
L 189.157532 173.861156 
L 189.292811 173.8735 
L 189.306339 173.857717 
L 202.712425 173.866797 
L 202.847703 173.855778 
L 203.104732 173.870642 
L 203.280594 173.871628 
L 203.578206 173.865606 
L 204.105792 173.86544 
L 204.24107 173.860167 
L 204.443988 173.872597 
L 204.646905 173.852213 
L 204.985101 173.870274 
L 205.133907 173.863277 
L 205.526215 173.863625 
L 205.729132 173.871647 
L 205.877938 173.856936 
L 206.0538 173.855371 
L 206.310829 173.866986 
L 206.446107 173.849453 
L 206.635497 173.869325 
L 207.514806 173.862204 
L 207.650085 173.871187 
L 207.663613 173.855464 
L 208.042392 173.870732 
L 208.448227 173.861279 
L 208.624089 173.86566 
L 209.516926 173.867819 
L 209.652205 173.853928 
L 209.949817 173.865105 
L 211.694908 173.868347 
L 212.357772 173.866867 
L 212.49305 173.854965 
L 212.736551 173.867875 
L 213.237081 173.859955 
L 213.561749 173.863484 
L 213.724083 173.861712 
L 221.81373 173.862898 
L 221.989591 173.865768 
L 223.220624 173.87441 
L 223.369431 173.861478 
L 225.601524 173.867112 
L 225.736802 173.848452 
L 225.885608 173.874211 
L 225.899136 173.856623 
L 226.602584 173.866895 
L 226.764918 173.862305 
L 227.454837 173.871321 
L 227.617171 173.863978 
L 227.833617 173.860301 
L 229.010538 173.858961 
L 229.172873 173.857325 
L 229.443429 173.864416 
L 229.632819 173.861585 
L 229.822209 173.867091 
L 230.146877 173.864041 
L 230.322739 173.865624 
L 230.512128 173.858791 
L 230.87738 173.868353 
L 231.080297 173.856698 
L 231.364382 173.867341 
L 231.49966 173.856563 
L 231.743161 173.863079 
L 232.203108 173.867224 
L 232.527776 173.86534 
L 232.676582 173.861998 
L 233.041834 173.865881 
L 233.177112 173.863374 
L 236.640238 173.866749 
L 236.775517 173.85629 
L 237.046073 173.866994 
L 237.208407 173.868648 
L 238.50708 173.86775 
L 238.655886 173.85901 
L 238.804692 173.860473 
L 239.237583 173.86409 
L 239.900447 173.867169 
L 240.035725 173.848861 
L 240.049253 173.860521 
L 240.184531 173.874753 
L 240.198059 173.858038 
L 256.079739 173.862406 
L 256.215017 173.861511 
L 256.417935 173.85802 
L 256.620853 173.87052 
L 257.01316 173.860419 
L 257.148438 173.875028 
L 257.161966 173.858065 
L 282.688993 173.862281 
L 282.824272 173.861963 
L 283.027189 173.857583 
L 283.230107 173.870547 
L 283.622414 173.860277 
L 283.757692 173.875238 
L 283.77122 173.858302 
L 287.559014 173.860239 
L 287.694293 173.870557 
L 287.870155 173.870712 
L 288.384212 173.857295 
L 288.641241 173.862395 
L 289.371744 173.857901 
L 289.561134 173.871042 
L 289.831691 173.858963 
L 290.08872 173.858937 
L 290.426916 173.868171 
L 291.076252 173.875401 
L 291.225058 173.861711 
L 293.605957 173.861124 
L 293.741236 173.868902 
L 293.890042 173.857458 
L 294.052376 173.864509 
L 294.21471 173.868664 
L 294.607017 173.862559 
L 295.932745 173.860762 
L 296.068023 173.874749 
L 296.203302 173.854669 
L 296.433275 173.864373 
L 296.609137 173.863535 
L 296.812054 173.858695 
L 297.0285 173.858219 
L 297.353168 173.858478 
L 297.799586 173.860648 
L 297.961921 173.857229 
L 298.448923 173.866764 
L 298.584201 173.853977 
L 298.800646 173.868969 
L 299.138842 173.859449 
L 299.368816 173.862742 
L 299.788178 173.866031 
L 299.936985 173.860194 
L 300.099319 173.861125 
L 300.369875 173.864489 
L 300.626904 173.860726 
L 302.263773 173.866688 
L 302.764302 173.867801 
L 302.899581 173.848635 
L 302.913109 173.860171 
L 303.048387 173.875011 
L 303.061915 173.858704 
L 304.428226 173.864021 
L 304.617616 173.859322 
L 304.996395 173.857198 
L 305.212841 173.864829 
L 305.361647 173.863409 
L 305.537509 173.864117 
L 306.186845 173.869246 
L 306.349179 173.863814 
L 306.538569 173.864692 
L 307.674907 173.857555 
L 307.931936 173.862803 
L 308.675967 173.867897 
L 309.731138 173.867324 
L 309.934056 173.856489 
L 310.150501 173.866839 
L 310.312835 173.858099 
L 310.610448 173.859241 
L 311.192145 173.868083 
L 311.327423 173.856694 
L 311.59798 173.865145 
L 311.746786 173.864036 
L 311.976759 173.871754 
L 312.328483 173.865984 
L 312.869596 173.86619 
L 313.004875 173.861497 
L 313.748906 173.869772 
L 313.897712 173.86244 
L 321.121576 173.867184 
L 321.256855 173.851321 
L 321.446245 173.864404 
L 322.109108 173.865971 
L 322.528471 173.847142 
L 322.677278 173.875032 
L 322.690805 173.857184 
L 323.78656 173.866771 
L 323.921839 173.855906 
L 324.111228 173.86627 
L 324.557647 173.862445 
L 324.868787 173.860349 
L 325.004065 173.875575 
L 325.139344 173.855193 
L 325.315206 173.853735 
L 325.531651 173.868258 
L 325.869847 173.862998 
L 327.168519 173.866524 
L 327.303798 173.85694 
L 327.560827 173.862136 
L 327.763744 173.857942 
L 327.926078 173.863046 
L 328.115468 173.856843 
L 328.656581 173.866024 
L 328.79186 173.852289 
L 329.062416 173.871989 
L 329.400612 173.857324 
L 329.590002 173.86448 
L 329.91467 173.861536 
L 330.361089 173.863433 
L 330.672229 173.859719 
L 331.348621 173.861068 
L 331.619177 173.865524 
L 331.889734 173.858836 
L 334.135355 173.871285 
L 334.270633 173.86124 
L 334.635885 173.863055 
L 334.784691 173.856393 
L 335.109359 173.873024 
L 335.325805 173.855886 
L 335.54225 173.864573 
L 335.691056 173.864083 
L 335.880446 173.865014 
L 336.056308 173.853105 
L 336.326865 173.871411 
L 336.746227 173.865381 
L 337.503786 173.864291 
L 337.760815 173.855931 
L 337.963733 173.866645 
L 338.139595 173.864206 
L 339.3571 173.866764 
L 339.492378 173.847146 
L 339.641184 173.868918 
L 339.654712 173.855371 
L 340.290521 173.866972 
L 340.47991 173.864796 
L 340.682828 173.863932 
L 340.872218 173.857643 
L 341.616249 173.863385 
L 341.79211 173.864693 
L 342.563197 173.869639 
L 342.698475 173.854409 
L 343.077255 173.866872 
L 343.212533 173.853789 
L 343.428979 173.860442 
L 343.767175 173.867973 
L 345.187597 173.86424 
L 345.336404 173.864151 
L 345.525793 173.865168 
L 345.674599 173.864029 
L 346.10749 173.867578 
L 346.256296 173.859735 
L 346.459214 173.866483 
L 346.594492 173.8559 
L 346.837993 173.876981 
L 346.9868 173.856046 
L 347.189717 173.868966 
L 348.61014 173.865901 
L 348.758946 173.860972 
L 349.043031 173.867622 
L 349.502977 173.867778 
L 350.057618 173.867316 
L 350.192897 173.850425 
L 350.382287 173.865058 
L 351.221012 173.861346 
L 353.250188 173.866258 
L 353.398994 173.860256 
L 353.534272 173.874189 
L 353.5478 173.859642 
L 356.469813 173.860743 
L 356.605091 173.867156 
L 356.767425 173.869491 
L 362.395005 173.859829 
L 362.530284 173.877135 
L 362.543811 173.860245 
L 363.287842 173.865417 
L 363.937179 173.861675 
L 364.153624 173.868135 
L 364.694737 173.867152 
L 364.830016 173.85075 
L 365.019406 173.864435 
L 365.628158 173.87106 
L 365.763437 173.848621 
L 365.952826 173.864537 
L 366.61569 173.86478 
L 366.818608 173.857021 
L 367.021525 173.867334 
L 367.156804 173.850128 
L 367.346193 173.864963 
L 368.076697 173.8648 
L 368.225503 173.863224 
L 368.401365 173.86486 
L 369.24009 173.86277 
L 369.42948 173.856107 
L 369.686509 173.866884 
L 369.821787 173.85318 
L 370.024705 173.872176 
L 370.200567 173.869464 
L 371.702157 173.857919 
L 371.850963 173.861703 
L 372.24327 173.848722 
L 372.405604 173.871789 
L 372.581466 173.869411 
L 374.150695 173.862099 
L 374.340085 173.867226 
L 374.475363 173.850278 
L 374.664753 173.864673 
L 375.341145 173.863055 
L 375.530534 173.85515 
L 375.733452 173.866464 
L 375.86873 173.859269 
L 376.261038 173.865436 
L 376.409844 173.862099 
L 376.626289 173.856017 
L 377.356792 173.868117 
L 377.505598 173.859353 
L 377.667933 173.86102 
L 377.924961 173.864646 
L 378.520186 173.865293 
L 378.68252 173.870238 
L 379.250689 173.861067 
L 379.791803 173.868889 
L 380.06236 173.855235 
L 380.251749 173.865124 
L 380.846974 173.856472 
L 384.323628 173.866752 
L 384.458906 173.854725 
L 384.634768 173.854773 
L 384.932381 173.858948 
L 386.00108 173.868358 
L 387.12389 173.862536 
L 387.380919 173.855884 
L 387.651476 173.869591 
L 387.81381 173.857658 
L 388.084367 173.870385 
L 388.43609 173.863386 
L 388.62548 173.866081 
L 390.032375 173.866734 
L 390.167653 173.855179 
L 390.370571 173.866195 
L 390.505849 173.85749 
L 390.668183 173.86061 
L 390.93874 173.864496 
L 391.141658 173.861534 
L 391.452798 173.861429 
L 391.588076 173.872987 
L 391.723355 173.855298 
L 391.926272 173.870782 
L 392.507969 173.862685 
L 392.643247 173.87033 
L 392.656775 173.855404 
L 392.994971 173.85801 
L 394.5642 173.867821 
L 394.713006 173.859715 
L 394.87534 173.857192 
L 395.118841 173.864048 
L 395.335287 173.862876 
L 395.538204 173.871049 
L 395.700538 173.86625 
L 396.079318 173.865464 
L 396.228124 173.863771 
L 396.403986 173.859867 
L 396.701598 173.868597 
L 396.863932 173.867089 
L 397.1886 173.858904 
L 397.783825 173.867933 
L 398.406106 173.864658 
L 398.487273 173.861698 
L 398.487273 173.861698 
" style="fill:none;stroke:#d62728;stroke-linecap:square;stroke-width:1.5;"/>
   </g>
   <g id="line2d_22">
    <path clip-path="url(#pcc7b247f43)" d="M 73.832727 180.3391 
L 398.487273 180.3391 
L 398.487273 180.3391 
" style="fill:none;stroke:#9467bd;stroke-linecap:square;stroke-width:1.5;"/>
   </g>
   <g id="patch_3">
    <path d="M 57.6 307.584 
L 57.6 41.472 
" style="fill:none;stroke:#000000;stroke-linecap:square;stroke-linejoin:miter;stroke-width:0.8;"/>
   </g>
   <g id="patch_4">
    <path d="M 414.72 307.584 
L 414.72 41.472 
" style="fill:none;stroke:#000000;stroke-linecap:square;stroke-linejoin:miter;stroke-width:0.8;"/>
   </g>
   <g id="patch_5">
    <path d="M 57.6 307.584 
L 414.72 307.584 
" style="fill:none;stroke:#000000;stroke-linecap:square;stroke-linejoin:miter;stroke-width:0.8;"/>
   </g>
   <g id="patch_6">
    <path d="M 57.6 41.472 
L 414.72 41.472 
" style="fill:none;stroke:#000000;stroke-linecap:square;stroke-linejoin:miter;stroke-width:0.8;"/>
   </g>
   <g id="legend_1">
    <g id="patch_7">
     <path d="M 356.516875 122.862625 
L 407.72 122.862625 
Q 409.72 122.862625 409.72 120.862625 
L 409.72 48.472 
Q 409.72 46.472 407.72 46.472 
L 356.516875 46.472 
Q 354.516875 46.472 354.516875 48.472 
L 354.516875 120.862625 
Q 354.516875 122.862625 356.516875 122.862625 
z
" style="fill:#ffffff;opacity:0.8;stroke:#cccccc;stroke-linejoin:miter;"/>
    </g>
    <g id="line2d_23">
     <path d="M 358.516875 54.570438 
L 378.516875 54.570438 
" style="fill:none;stroke:#1f77b4;stroke-linecap:square;stroke-width:1.5;"/>
    </g>
    <g id="line2d_24"/>
    <g id="text_21">
     <!-- T+ -->
     <g transform="translate(386.516875 58.070438)scale(0.1 -0.1)">
      <defs>
       <path d="M 46 62.703125 
L 46 35.5 
L 73.1875 35.5 
L 73.1875 27.203125 
L 46 27.203125 
L 46 0 
L 37.796875 0 
L 37.796875 27.203125 
L 10.59375 27.203125 
L 10.59375 35.5 
L 37.796875 35.5 
L 37.796875 62.703125 
z
" id="DejaVuSans-43"/>
      </defs>
      <use xlink:href="#DejaVuSans-84"/>
      <use x="61.083984" xlink:href="#DejaVuSans-43"/>
     </g>
    </g>
    <g id="line2d_25">
     <path d="M 358.516875 69.248563 
L 378.516875 69.248563 
" style="fill:none;stroke:#ff7f0e;stroke-linecap:square;stroke-width:1.5;"/>
    </g>
    <g id="line2d_26"/>
    <g id="text_22">
     <!-- Tp -->
     <g transform="translate(386.516875 72.748563)scale(0.1 -0.1)">
      <defs>
       <path d="M 18.109375 8.203125 
L 18.109375 -20.796875 
L 9.078125 -20.796875 
L 9.078125 54.6875 
L 18.109375 54.6875 
L 18.109375 46.390625 
Q 20.953125 51.265625 25.265625 53.625 
Q 29.59375 56 35.59375 56 
Q 45.5625 56 51.78125 48.09375 
Q 58.015625 40.1875 58.015625 27.296875 
Q 58.015625 14.40625 51.78125 6.484375 
Q 45.5625 -1.421875 35.59375 -1.421875 
Q 29.59375 -1.421875 25.265625 0.953125 
Q 20.953125 3.328125 18.109375 8.203125 
z
M 48.6875 27.296875 
Q 48.6875 37.203125 44.609375 42.84375 
Q 40.53125 48.484375 33.40625 48.484375 
Q 26.265625 48.484375 22.1875 42.84375 
Q 18.109375 37.203125 18.109375 27.296875 
Q 18.109375 17.390625 22.1875 11.75 
Q 26.265625 6.109375 33.40625 6.109375 
Q 40.53125 6.109375 44.609375 11.75 
Q 48.6875 17.390625 48.6875 27.296875 
z
" id="DejaVuSans-112"/>
      </defs>
      <use xlink:href="#DejaVuSans-84"/>
      <use x="61.083984" xlink:href="#DejaVuSans-112"/>
     </g>
    </g>
    <g id="line2d_27">
     <path d="M 358.516875 83.926688 
L 378.516875 83.926688 
" style="fill:none;stroke:#2ca02c;stroke-linecap:square;stroke-width:1.5;"/>
    </g>
    <g id="line2d_28"/>
    <g id="text_23">
     <!-- T- -->
     <g transform="translate(386.516875 87.426688)scale(0.1 -0.1)">
      <defs>
       <path d="M 4.890625 31.390625 
L 31.203125 31.390625 
L 31.203125 23.390625 
L 4.890625 23.390625 
z
" id="DejaVuSans-45"/>
      </defs>
      <use xlink:href="#DejaVuSans-84"/>
      <use x="51.958984" xlink:href="#DejaVuSans-45"/>
     </g>
    </g>
    <g id="line2d_29">
     <path d="M 358.516875 98.604813 
L 378.516875 98.604813 
" style="fill:none;stroke:#d62728;stroke-linecap:square;stroke-width:1.5;"/>
    </g>
    <g id="line2d_30"/>
    <g id="text_24">
     <!-- O2 -->
     <g transform="translate(386.516875 102.104813)scale(0.1 -0.1)">
      <defs>
       <path d="M 39.40625 66.21875 
Q 28.65625 66.21875 22.328125 58.203125 
Q 16.015625 50.203125 16.015625 36.375 
Q 16.015625 22.609375 22.328125 14.59375 
Q 28.65625 6.59375 39.40625 6.59375 
Q 50.140625 6.59375 56.421875 14.59375 
Q 62.703125 22.609375 62.703125 36.375 
Q 62.703125 50.203125 56.421875 58.203125 
Q 50.140625 66.21875 39.40625 66.21875 
z
M 39.40625 74.21875 
Q 54.734375 74.21875 63.90625 63.9375 
Q 73.09375 53.65625 73.09375 36.375 
Q 73.09375 19.140625 63.90625 8.859375 
Q 54.734375 -1.421875 39.40625 -1.421875 
Q 24.03125 -1.421875 14.8125 8.828125 
Q 5.609375 19.09375 5.609375 36.375 
Q 5.609375 53.65625 14.8125 63.9375 
Q 24.03125 74.21875 39.40625 74.21875 
z
" id="DejaVuSans-79"/>
      </defs>
      <use xlink:href="#DejaVuSans-79"/>
      <use x="78.710938" xlink:href="#DejaVuSans-50"/>
     </g>
    </g>
    <g id="line2d_31">
     <path d="M 358.516875 113.282938 
L 378.516875 113.282938 
" style="fill:none;stroke:#9467bd;stroke-linecap:square;stroke-width:1.5;"/>
    </g>
    <g id="line2d_32"/>
    <g id="text_25">
     <!-- test -->
     <g transform="translate(386.516875 116.782938)scale(0.1 -0.1)">
      <use xlink:href="#DejaVuSans-116"/>
      <use x="39.208984" xlink:href="#DejaVuSans-101"/>
      <use x="100.732422" xlink:href="#DejaVuSans-115"/>
      <use x="152.832031" xlink:href="#DejaVuSans-116"/>
     </g>
    </g>
   </g>
  </g>
 </g>
 <defs>
  <clipPath id="pcc7b247f43">
   <rect height="266.112" width="357.12" x="57.6" y="41.472"/>
  </clipPath>
 </defs>
</svg>
