<?xml version="1.0" encoding="utf-8" standalone="no"?>
<!DOCTYPE svg PUBLIC "-//W3C//DTD SVG 1.1//EN"
  "http://www.w3.org/Graphics/SVG/1.1/DTD/svg11.dtd">
<!-- Created with matplotlib (https://matplotlib.org/) -->
<svg height="345.6pt" version="1.1" viewBox="0 0 460.8 345.6" width="460.8pt" xmlns="http://www.w3.org/2000/svg" xmlns:xlink="http://www.w3.org/1999/xlink">
 <metadata>
  <rdf:RDF xmlns:cc="http://creativecommons.org/ns#" xmlns:dc="http://purl.org/dc/elements/1.1/" xmlns:rdf="http://www.w3.org/1999/02/22-rdf-syntax-ns#">
   <cc:Work>
    <dc:type rdf:resource="http://purl.org/dc/dcmitype/StillImage"/>
    <dc:date>2020-10-24T13:53:25.022632</dc:date>
    <dc:format>image/svg+xml</dc:format>
    <dc:creator>
     <cc:Agent>
      <dc:title>Matplotlib v3.3.2, https://matplotlib.org/</dc:title>
     </cc:Agent>
    </dc:creator>
   </cc:Work>
  </rdf:RDF>
 </metadata>
 <defs>
  <style type="text/css">*{stroke-linecap:butt;stroke-linejoin:round;}</style>
 </defs>
 <g id="figure_1">
  <g id="patch_1">
   <path d="M 0 345.6 
L 460.8 345.6 
L 460.8 0 
L 0 0 
z
" style="fill:#ffffff;"/>
  </g>
  <g id="axes_1">
   <g id="patch_2">
    <path d="M 57.6 307.584 
L 414.72 307.584 
L 414.72 41.472 
L 57.6 41.472 
z
" style="fill:#ffffff;"/>
   </g>
   <g id="matplotlib.axis_1">
    <g id="xtick_1">
     <g id="line2d_1">
      <defs>
       <path d="M 0 0 
L 0 3.5 
" id="mdd2c76be40" style="stroke:#000000;stroke-width:0.8;"/>
      </defs>
      <g>
       <use style="stroke:#000000;stroke-width:0.8;" x="73.832727" xlink:href="#mdd2c76be40" y="307.584"/>
      </g>
     </g>
     <g id="text_1">
      <!-- 0.0 -->
      <g transform="translate(65.881165 322.182437)scale(0.1 -0.1)">
       <defs>
        <path d="M 31.78125 66.40625 
Q 24.171875 66.40625 20.328125 58.90625 
Q 16.5 51.421875 16.5 36.375 
Q 16.5 21.390625 20.328125 13.890625 
Q 24.171875 6.390625 31.78125 6.390625 
Q 39.453125 6.390625 43.28125 13.890625 
Q 47.125 21.390625 47.125 36.375 
Q 47.125 51.421875 43.28125 58.90625 
Q 39.453125 66.40625 31.78125 66.40625 
z
M 31.78125 74.21875 
Q 44.046875 74.21875 50.515625 64.515625 
Q 56.984375 54.828125 56.984375 36.375 
Q 56.984375 17.96875 50.515625 8.265625 
Q 44.046875 -1.421875 31.78125 -1.421875 
Q 19.53125 -1.421875 13.0625 8.265625 
Q 6.59375 17.96875 6.59375 36.375 
Q 6.59375 54.828125 13.0625 64.515625 
Q 19.53125 74.21875 31.78125 74.21875 
z
" id="DejaVuSans-48"/>
        <path d="M 10.6875 12.40625 
L 21 12.40625 
L 21 0 
L 10.6875 0 
z
" id="DejaVuSans-46"/>
       </defs>
       <use xlink:href="#DejaVuSans-48"/>
       <use x="63.623047" xlink:href="#DejaVuSans-46"/>
       <use x="95.410156" xlink:href="#DejaVuSans-48"/>
      </g>
     </g>
    </g>
    <g id="xtick_2">
     <g id="line2d_2">
      <g>
       <use style="stroke:#000000;stroke-width:0.8;" x="118.925515" xlink:href="#mdd2c76be40" y="307.584"/>
      </g>
     </g>
     <g id="text_2">
      <!-- 0.2 -->
      <g transform="translate(110.973953 322.182437)scale(0.1 -0.1)">
       <defs>
        <path d="M 19.1875 8.296875 
L 53.609375 8.296875 
L 53.609375 0 
L 7.328125 0 
L 7.328125 8.296875 
Q 12.9375 14.109375 22.625 23.890625 
Q 32.328125 33.6875 34.8125 36.53125 
Q 39.546875 41.84375 41.421875 45.53125 
Q 43.3125 49.21875 43.3125 52.78125 
Q 43.3125 58.59375 39.234375 62.25 
Q 35.15625 65.921875 28.609375 65.921875 
Q 23.96875 65.921875 18.8125 64.3125 
Q 13.671875 62.703125 7.8125 59.421875 
L 7.8125 69.390625 
Q 13.765625 71.78125 18.9375 73 
Q 24.125 74.21875 28.421875 74.21875 
Q 39.75 74.21875 46.484375 68.546875 
Q 53.21875 62.890625 53.21875 53.421875 
Q 53.21875 48.921875 51.53125 44.890625 
Q 49.859375 40.875 45.40625 35.40625 
Q 44.1875 33.984375 37.640625 27.21875 
Q 31.109375 20.453125 19.1875 8.296875 
z
" id="DejaVuSans-50"/>
       </defs>
       <use xlink:href="#DejaVuSans-48"/>
       <use x="63.623047" xlink:href="#DejaVuSans-46"/>
       <use x="95.410156" xlink:href="#DejaVuSans-50"/>
      </g>
     </g>
    </g>
    <g id="xtick_3">
     <g id="line2d_3">
      <g>
       <use style="stroke:#000000;stroke-width:0.8;" x="164.018303" xlink:href="#mdd2c76be40" y="307.584"/>
      </g>
     </g>
     <g id="text_3">
      <!-- 0.4 -->
      <g transform="translate(156.066741 322.182437)scale(0.1 -0.1)">
       <defs>
        <path d="M 37.796875 64.3125 
L 12.890625 25.390625 
L 37.796875 25.390625 
z
M 35.203125 72.90625 
L 47.609375 72.90625 
L 47.609375 25.390625 
L 58.015625 25.390625 
L 58.015625 17.1875 
L 47.609375 17.1875 
L 47.609375 0 
L 37.796875 0 
L 37.796875 17.1875 
L 4.890625 17.1875 
L 4.890625 26.703125 
z
" id="DejaVuSans-52"/>
       </defs>
       <use xlink:href="#DejaVuSans-48"/>
       <use x="63.623047" xlink:href="#DejaVuSans-46"/>
       <use x="95.410156" xlink:href="#DejaVuSans-52"/>
      </g>
     </g>
    </g>
    <g id="xtick_4">
     <g id="line2d_4">
      <g>
       <use style="stroke:#000000;stroke-width:0.8;" x="209.111091" xlink:href="#mdd2c76be40" y="307.584"/>
      </g>
     </g>
     <g id="text_4">
      <!-- 0.6 -->
      <g transform="translate(201.159529 322.182437)scale(0.1 -0.1)">
       <defs>
        <path d="M 33.015625 40.375 
Q 26.375 40.375 22.484375 35.828125 
Q 18.609375 31.296875 18.609375 23.390625 
Q 18.609375 15.53125 22.484375 10.953125 
Q 26.375 6.390625 33.015625 6.390625 
Q 39.65625 6.390625 43.53125 10.953125 
Q 47.40625 15.53125 47.40625 23.390625 
Q 47.40625 31.296875 43.53125 35.828125 
Q 39.65625 40.375 33.015625 40.375 
z
M 52.59375 71.296875 
L 52.59375 62.3125 
Q 48.875 64.0625 45.09375 64.984375 
Q 41.3125 65.921875 37.59375 65.921875 
Q 27.828125 65.921875 22.671875 59.328125 
Q 17.53125 52.734375 16.796875 39.40625 
Q 19.671875 43.65625 24.015625 45.921875 
Q 28.375 48.1875 33.59375 48.1875 
Q 44.578125 48.1875 50.953125 41.515625 
Q 57.328125 34.859375 57.328125 23.390625 
Q 57.328125 12.15625 50.6875 5.359375 
Q 44.046875 -1.421875 33.015625 -1.421875 
Q 20.359375 -1.421875 13.671875 8.265625 
Q 6.984375 17.96875 6.984375 36.375 
Q 6.984375 53.65625 15.1875 63.9375 
Q 23.390625 74.21875 37.203125 74.21875 
Q 40.921875 74.21875 44.703125 73.484375 
Q 48.484375 72.75 52.59375 71.296875 
z
" id="DejaVuSans-54"/>
       </defs>
       <use xlink:href="#DejaVuSans-48"/>
       <use x="63.623047" xlink:href="#DejaVuSans-46"/>
       <use x="95.410156" xlink:href="#DejaVuSans-54"/>
      </g>
     </g>
    </g>
    <g id="xtick_5">
     <g id="line2d_5">
      <g>
       <use style="stroke:#000000;stroke-width:0.8;" x="254.203879" xlink:href="#mdd2c76be40" y="307.584"/>
      </g>
     </g>
     <g id="text_5">
      <!-- 0.8 -->
      <g transform="translate(246.252317 322.182437)scale(0.1 -0.1)">
       <defs>
        <path d="M 31.78125 34.625 
Q 24.75 34.625 20.71875 30.859375 
Q 16.703125 27.09375 16.703125 20.515625 
Q 16.703125 13.921875 20.71875 10.15625 
Q 24.75 6.390625 31.78125 6.390625 
Q 38.8125 6.390625 42.859375 10.171875 
Q 46.921875 13.96875 46.921875 20.515625 
Q 46.921875 27.09375 42.890625 30.859375 
Q 38.875 34.625 31.78125 34.625 
z
M 21.921875 38.8125 
Q 15.578125 40.375 12.03125 44.71875 
Q 8.5 49.078125 8.5 55.328125 
Q 8.5 64.0625 14.71875 69.140625 
Q 20.953125 74.21875 31.78125 74.21875 
Q 42.671875 74.21875 48.875 69.140625 
Q 55.078125 64.0625 55.078125 55.328125 
Q 55.078125 49.078125 51.53125 44.71875 
Q 48 40.375 41.703125 38.8125 
Q 48.828125 37.15625 52.796875 32.3125 
Q 56.78125 27.484375 56.78125 20.515625 
Q 56.78125 9.90625 50.3125 4.234375 
Q 43.84375 -1.421875 31.78125 -1.421875 
Q 19.734375 -1.421875 13.25 4.234375 
Q 6.78125 9.90625 6.78125 20.515625 
Q 6.78125 27.484375 10.78125 32.3125 
Q 14.796875 37.15625 21.921875 38.8125 
z
M 18.3125 54.390625 
Q 18.3125 48.734375 21.84375 45.5625 
Q 25.390625 42.390625 31.78125 42.390625 
Q 38.140625 42.390625 41.71875 45.5625 
Q 45.3125 48.734375 45.3125 54.390625 
Q 45.3125 60.0625 41.71875 63.234375 
Q 38.140625 66.40625 31.78125 66.40625 
Q 25.390625 66.40625 21.84375 63.234375 
Q 18.3125 60.0625 18.3125 54.390625 
z
" id="DejaVuSans-56"/>
       </defs>
       <use xlink:href="#DejaVuSans-48"/>
       <use x="63.623047" xlink:href="#DejaVuSans-46"/>
       <use x="95.410156" xlink:href="#DejaVuSans-56"/>
      </g>
     </g>
    </g>
    <g id="xtick_6">
     <g id="line2d_6">
      <g>
       <use style="stroke:#000000;stroke-width:0.8;" x="299.296667" xlink:href="#mdd2c76be40" y="307.584"/>
      </g>
     </g>
     <g id="text_6">
      <!-- 1.0 -->
      <g transform="translate(291.345105 322.182437)scale(0.1 -0.1)">
       <defs>
        <path d="M 12.40625 8.296875 
L 28.515625 8.296875 
L 28.515625 63.921875 
L 10.984375 60.40625 
L 10.984375 69.390625 
L 28.421875 72.90625 
L 38.28125 72.90625 
L 38.28125 8.296875 
L 54.390625 8.296875 
L 54.390625 0 
L 12.40625 0 
z
" id="DejaVuSans-49"/>
       </defs>
       <use xlink:href="#DejaVuSans-49"/>
       <use x="63.623047" xlink:href="#DejaVuSans-46"/>
       <use x="95.410156" xlink:href="#DejaVuSans-48"/>
      </g>
     </g>
    </g>
    <g id="xtick_7">
     <g id="line2d_7">
      <g>
       <use style="stroke:#000000;stroke-width:0.8;" x="344.389455" xlink:href="#mdd2c76be40" y="307.584"/>
      </g>
     </g>
     <g id="text_7">
      <!-- 1.2 -->
      <g transform="translate(336.437893 322.182437)scale(0.1 -0.1)">
       <use xlink:href="#DejaVuSans-49"/>
       <use x="63.623047" xlink:href="#DejaVuSans-46"/>
       <use x="95.410156" xlink:href="#DejaVuSans-50"/>
      </g>
     </g>
    </g>
    <g id="xtick_8">
     <g id="line2d_8">
      <g>
       <use style="stroke:#000000;stroke-width:0.8;" x="389.482243" xlink:href="#mdd2c76be40" y="307.584"/>
      </g>
     </g>
     <g id="text_8">
      <!-- 1.4 -->
      <g transform="translate(381.53068 322.182437)scale(0.1 -0.1)">
       <use xlink:href="#DejaVuSans-49"/>
       <use x="63.623047" xlink:href="#DejaVuSans-46"/>
       <use x="95.410156" xlink:href="#DejaVuSans-52"/>
      </g>
     </g>
    </g>
    <g id="text_9">
     <!-- Time (min) -->
     <g transform="translate(209.007656 335.860562)scale(0.1 -0.1)">
      <defs>
       <path d="M -0.296875 72.90625 
L 61.375 72.90625 
L 61.375 64.59375 
L 35.5 64.59375 
L 35.5 0 
L 25.59375 0 
L 25.59375 64.59375 
L -0.296875 64.59375 
z
" id="DejaVuSans-84"/>
       <path d="M 9.421875 54.6875 
L 18.40625 54.6875 
L 18.40625 0 
L 9.421875 0 
z
M 9.421875 75.984375 
L 18.40625 75.984375 
L 18.40625 64.59375 
L 9.421875 64.59375 
z
" id="DejaVuSans-105"/>
       <path d="M 52 44.1875 
Q 55.375 50.25 60.0625 53.125 
Q 64.75 56 71.09375 56 
Q 79.640625 56 84.28125 50.015625 
Q 88.921875 44.046875 88.921875 33.015625 
L 88.921875 0 
L 79.890625 0 
L 79.890625 32.71875 
Q 79.890625 40.578125 77.09375 44.375 
Q 74.3125 48.1875 68.609375 48.1875 
Q 61.625 48.1875 57.5625 43.546875 
Q 53.515625 38.921875 53.515625 30.90625 
L 53.515625 0 
L 44.484375 0 
L 44.484375 32.71875 
Q 44.484375 40.625 41.703125 44.40625 
Q 38.921875 48.1875 33.109375 48.1875 
Q 26.21875 48.1875 22.15625 43.53125 
Q 18.109375 38.875 18.109375 30.90625 
L 18.109375 0 
L 9.078125 0 
L 9.078125 54.6875 
L 18.109375 54.6875 
L 18.109375 46.1875 
Q 21.1875 51.21875 25.484375 53.609375 
Q 29.78125 56 35.6875 56 
Q 41.65625 56 45.828125 52.96875 
Q 50 49.953125 52 44.1875 
z
" id="DejaVuSans-109"/>
       <path d="M 56.203125 29.59375 
L 56.203125 25.203125 
L 14.890625 25.203125 
Q 15.484375 15.921875 20.484375 11.0625 
Q 25.484375 6.203125 34.421875 6.203125 
Q 39.59375 6.203125 44.453125 7.46875 
Q 49.3125 8.734375 54.109375 11.28125 
L 54.109375 2.78125 
Q 49.265625 0.734375 44.1875 -0.34375 
Q 39.109375 -1.421875 33.890625 -1.421875 
Q 20.796875 -1.421875 13.15625 6.1875 
Q 5.515625 13.8125 5.515625 26.8125 
Q 5.515625 40.234375 12.765625 48.109375 
Q 20.015625 56 32.328125 56 
Q 43.359375 56 49.78125 48.890625 
Q 56.203125 41.796875 56.203125 29.59375 
z
M 47.21875 32.234375 
Q 47.125 39.59375 43.09375 43.984375 
Q 39.0625 48.390625 32.421875 48.390625 
Q 24.90625 48.390625 20.390625 44.140625 
Q 15.875 39.890625 15.1875 32.171875 
z
" id="DejaVuSans-101"/>
       <path id="DejaVuSans-32"/>
       <path d="M 31 75.875 
Q 24.46875 64.65625 21.28125 53.65625 
Q 18.109375 42.671875 18.109375 31.390625 
Q 18.109375 20.125 21.3125 9.0625 
Q 24.515625 -2 31 -13.1875 
L 23.1875 -13.1875 
Q 15.875 -1.703125 12.234375 9.375 
Q 8.59375 20.453125 8.59375 31.390625 
Q 8.59375 42.28125 12.203125 53.3125 
Q 15.828125 64.359375 23.1875 75.875 
z
" id="DejaVuSans-40"/>
       <path d="M 54.890625 33.015625 
L 54.890625 0 
L 45.90625 0 
L 45.90625 32.71875 
Q 45.90625 40.484375 42.875 44.328125 
Q 39.84375 48.1875 33.796875 48.1875 
Q 26.515625 48.1875 22.3125 43.546875 
Q 18.109375 38.921875 18.109375 30.90625 
L 18.109375 0 
L 9.078125 0 
L 9.078125 54.6875 
L 18.109375 54.6875 
L 18.109375 46.1875 
Q 21.34375 51.125 25.703125 53.5625 
Q 30.078125 56 35.796875 56 
Q 45.21875 56 50.046875 50.171875 
Q 54.890625 44.34375 54.890625 33.015625 
z
" id="DejaVuSans-110"/>
       <path d="M 8.015625 75.875 
L 15.828125 75.875 
Q 23.140625 64.359375 26.78125 53.3125 
Q 30.421875 42.28125 30.421875 31.390625 
Q 30.421875 20.453125 26.78125 9.375 
Q 23.140625 -1.703125 15.828125 -13.1875 
L 8.015625 -13.1875 
Q 14.5 -2 17.703125 9.0625 
Q 20.90625 20.125 20.90625 31.390625 
Q 20.90625 42.671875 17.703125 53.65625 
Q 14.5 64.65625 8.015625 75.875 
z
" id="DejaVuSans-41"/>
      </defs>
      <use xlink:href="#DejaVuSans-84"/>
      <use x="57.958984" xlink:href="#DejaVuSans-105"/>
      <use x="85.742188" xlink:href="#DejaVuSans-109"/>
      <use x="183.154297" xlink:href="#DejaVuSans-101"/>
      <use x="244.677734" xlink:href="#DejaVuSans-32"/>
      <use x="276.464844" xlink:href="#DejaVuSans-40"/>
      <use x="315.478516" xlink:href="#DejaVuSans-109"/>
      <use x="412.890625" xlink:href="#DejaVuSans-105"/>
      <use x="440.673828" xlink:href="#DejaVuSans-110"/>
      <use x="504.052734" xlink:href="#DejaVuSans-41"/>
     </g>
    </g>
    <g id="text_10">
     <!-- 1e6 -->
     <g transform="translate(395.841875 334.860562)scale(0.1 -0.1)">
      <use xlink:href="#DejaVuSans-49"/>
      <use x="63.623047" xlink:href="#DejaVuSans-101"/>
      <use x="125.146484" xlink:href="#DejaVuSans-54"/>
     </g>
    </g>
   </g>
   <g id="matplotlib.axis_2">
    <g id="ytick_1">
     <g id="line2d_9">
      <defs>
       <path d="M 0 0 
L -3.5 0 
" id="m01e94f9c29" style="stroke:#000000;stroke-width:0.8;"/>
      </defs>
      <g>
       <use style="stroke:#000000;stroke-width:0.8;" x="57.6" xlink:href="#m01e94f9c29" y="295.488"/>
      </g>
     </g>
     <g id="text_11">
      <!-- 0 -->
      <g transform="translate(44.2375 299.287219)scale(0.1 -0.1)">
       <use xlink:href="#DejaVuSans-48"/>
      </g>
     </g>
    </g>
    <g id="ytick_2">
     <g id="line2d_10">
      <g>
       <use style="stroke:#000000;stroke-width:0.8;" x="57.6" xlink:href="#m01e94f9c29" y="250.526427"/>
      </g>
     </g>
     <g id="text_12">
      <!-- 20 -->
      <g transform="translate(37.875 254.325646)scale(0.1 -0.1)">
       <use xlink:href="#DejaVuSans-50"/>
       <use x="63.623047" xlink:href="#DejaVuSans-48"/>
      </g>
     </g>
    </g>
    <g id="ytick_3">
     <g id="line2d_11">
      <g>
       <use style="stroke:#000000;stroke-width:0.8;" x="57.6" xlink:href="#m01e94f9c29" y="205.564855"/>
      </g>
     </g>
     <g id="text_13">
      <!-- 40 -->
      <g transform="translate(37.875 209.364074)scale(0.1 -0.1)">
       <use xlink:href="#DejaVuSans-52"/>
       <use x="63.623047" xlink:href="#DejaVuSans-48"/>
      </g>
     </g>
    </g>
    <g id="ytick_4">
     <g id="line2d_12">
      <g>
       <use style="stroke:#000000;stroke-width:0.8;" x="57.6" xlink:href="#m01e94f9c29" y="160.603282"/>
      </g>
     </g>
     <g id="text_14">
      <!-- 60 -->
      <g transform="translate(37.875 164.402501)scale(0.1 -0.1)">
       <use xlink:href="#DejaVuSans-54"/>
       <use x="63.623047" xlink:href="#DejaVuSans-48"/>
      </g>
     </g>
    </g>
    <g id="ytick_5">
     <g id="line2d_13">
      <g>
       <use style="stroke:#000000;stroke-width:0.8;" x="57.6" xlink:href="#m01e94f9c29" y="115.64171"/>
      </g>
     </g>
     <g id="text_15">
      <!-- 80 -->
      <g transform="translate(37.875 119.440928)scale(0.1 -0.1)">
       <use xlink:href="#DejaVuSans-56"/>
       <use x="63.623047" xlink:href="#DejaVuSans-48"/>
      </g>
     </g>
    </g>
    <g id="ytick_6">
     <g id="line2d_14">
      <g>
       <use style="stroke:#000000;stroke-width:0.8;" x="57.6" xlink:href="#m01e94f9c29" y="70.680137"/>
      </g>
     </g>
     <g id="text_16">
      <!-- 100 -->
      <g transform="translate(31.5125 74.479356)scale(0.1 -0.1)">
       <use xlink:href="#DejaVuSans-49"/>
       <use x="63.623047" xlink:href="#DejaVuSans-48"/>
       <use x="127.246094" xlink:href="#DejaVuSans-48"/>
      </g>
     </g>
    </g>
    <g id="text_17">
     <!-- Density -->
     <g transform="translate(25.432812 193.536594)rotate(-90)scale(0.1 -0.1)">
      <defs>
       <path d="M 19.671875 64.796875 
L 19.671875 8.109375 
L 31.59375 8.109375 
Q 46.6875 8.109375 53.6875 14.9375 
Q 60.6875 21.78125 60.6875 36.53125 
Q 60.6875 51.171875 53.6875 57.984375 
Q 46.6875 64.796875 31.59375 64.796875 
z
M 9.8125 72.90625 
L 30.078125 72.90625 
Q 51.265625 72.90625 61.171875 64.09375 
Q 71.09375 55.28125 71.09375 36.53125 
Q 71.09375 17.671875 61.125 8.828125 
Q 51.171875 0 30.078125 0 
L 9.8125 0 
z
" id="DejaVuSans-68"/>
       <path d="M 44.28125 53.078125 
L 44.28125 44.578125 
Q 40.484375 46.53125 36.375 47.5 
Q 32.28125 48.484375 27.875 48.484375 
Q 21.1875 48.484375 17.84375 46.4375 
Q 14.5 44.390625 14.5 40.28125 
Q 14.5 37.15625 16.890625 35.375 
Q 19.28125 33.59375 26.515625 31.984375 
L 29.59375 31.296875 
Q 39.15625 29.25 43.1875 25.515625 
Q 47.21875 21.78125 47.21875 15.09375 
Q 47.21875 7.46875 41.1875 3.015625 
Q 35.15625 -1.421875 24.609375 -1.421875 
Q 20.21875 -1.421875 15.453125 -0.5625 
Q 10.6875 0.296875 5.421875 2 
L 5.421875 11.28125 
Q 10.40625 8.6875 15.234375 7.390625 
Q 20.0625 6.109375 24.8125 6.109375 
Q 31.15625 6.109375 34.5625 8.28125 
Q 37.984375 10.453125 37.984375 14.40625 
Q 37.984375 18.0625 35.515625 20.015625 
Q 33.0625 21.96875 24.703125 23.78125 
L 21.578125 24.515625 
Q 13.234375 26.265625 9.515625 29.90625 
Q 5.8125 33.546875 5.8125 39.890625 
Q 5.8125 47.609375 11.28125 51.796875 
Q 16.75 56 26.8125 56 
Q 31.78125 56 36.171875 55.265625 
Q 40.578125 54.546875 44.28125 53.078125 
z
" id="DejaVuSans-115"/>
       <path d="M 18.3125 70.21875 
L 18.3125 54.6875 
L 36.8125 54.6875 
L 36.8125 47.703125 
L 18.3125 47.703125 
L 18.3125 18.015625 
Q 18.3125 11.328125 20.140625 9.421875 
Q 21.96875 7.515625 27.59375 7.515625 
L 36.8125 7.515625 
L 36.8125 0 
L 27.59375 0 
Q 17.1875 0 13.234375 3.875 
Q 9.28125 7.765625 9.28125 18.015625 
L 9.28125 47.703125 
L 2.6875 47.703125 
L 2.6875 54.6875 
L 9.28125 54.6875 
L 9.28125 70.21875 
z
" id="DejaVuSans-116"/>
       <path d="M 32.171875 -5.078125 
Q 28.375 -14.84375 24.75 -17.8125 
Q 21.140625 -20.796875 15.09375 -20.796875 
L 7.90625 -20.796875 
L 7.90625 -13.28125 
L 13.1875 -13.28125 
Q 16.890625 -13.28125 18.9375 -11.515625 
Q 21 -9.765625 23.484375 -3.21875 
L 25.09375 0.875 
L 2.984375 54.6875 
L 12.5 54.6875 
L 29.59375 11.921875 
L 46.6875 54.6875 
L 56.203125 54.6875 
z
" id="DejaVuSans-121"/>
      </defs>
      <use xlink:href="#DejaVuSans-68"/>
      <use x="77.001953" xlink:href="#DejaVuSans-101"/>
      <use x="138.525391" xlink:href="#DejaVuSans-110"/>
      <use x="201.904297" xlink:href="#DejaVuSans-115"/>
      <use x="254.003906" xlink:href="#DejaVuSans-105"/>
      <use x="281.787109" xlink:href="#DejaVuSans-116"/>
      <use x="320.996094" xlink:href="#DejaVuSans-121"/>
     </g>
    </g>
   </g>
   <g id="line2d_15">
    <path clip-path="url(#p0034f09e32)" d="M 73.832727 295.488 
L 398.487273 295.488 
L 398.487273 295.488 
" style="fill:none;stroke:#1f77b4;stroke-linecap:square;stroke-width:1.5;"/>
   </g>
   <g id="line2d_16">
    <path clip-path="url(#p0034f09e32)" d="M 73.832727 295.488 
L 398.487273 295.488 
L 398.487273 295.488 
" style="fill:none;stroke:#ff7f0e;stroke-linecap:square;stroke-width:1.5;"/>
   </g>
   <g id="line2d_17">
    <path clip-path="url(#p0034f09e32)" d="M 73.832727 273.007214 
L 74.44148 249.489676 
L 74.684981 249.429048 
L 78.892138 249.42722 
L 257.148438 249.42723 
L 272.489005 249.427212 
L 377.24857 249.427219 
L 398.487273 249.427157 
L 398.487273 249.427157 
" style="fill:none;stroke:#2ca02c;stroke-linecap:square;stroke-width:1.5;"/>
   </g>
   <g id="line2d_18">
    <path clip-path="url(#p0034f09e32)" d="M 73.832727 70.680137 
L 73.846255 53.568 
L 73.913894 87.704429 
L 74.387369 282.591683 
L 74.56323 283.884233 
L 74.806731 284.001216 
L 76.037765 283.996973 
L 76.200099 283.984375 
L 76.403016 284.010293 
L 76.551822 283.996595 
L 76.673573 284.009293 
L 76.822379 283.993906 
L 76.94413 284.006344 
L 77.7558 283.995715 
L 77.87755 284.019926 
L 78.026357 283.993082 
L 78.148107 284.019341 
L 78.351025 283.995984 
L 78.594526 284.009713 
L 78.729804 283.993427 
L 78.973305 284.022685 
L 79.108583 283.993781 
L 79.297973 284.00591 
L 79.582058 284.014665 
L 79.717336 283.98205 
L 79.852614 284.021512 
L 79.987893 283.98184 
L 80.123171 284.027586 
L 80.136699 284.005474 
L 80.25845 283.983578 
L 80.271977 283.998344 
L 80.461367 284.008469 
L 80.610173 284.000668 
L 80.731924 284.017074 
L 80.745452 283.997591 
L 80.975425 283.991156 
L 81.124231 284.005246 
L 81.259509 283.998789 
L 81.394788 284.00867 
L 81.530066 283.991274 
L 81.665345 284.011077 
L 81.814151 283.999585 
L 81.935901 284.011609 
L 81.949429 283.998112 
L 82.138819 283.997245 
L 82.260569 284.006787 
L 82.57171 283.985448 
L 82.706988 284.012858 
L 82.842266 283.982721 
L 82.977545 284.017962 
L 83.112823 283.981626 
L 83.126351 284.003111 
L 83.315741 284.005681 
L 83.478075 284.005074 
L 83.667464 283.99699 
L 83.870382 283.996302 
L 84.113883 283.995347 
L 84.235633 284.015091 
L 84.425023 283.977897 
L 84.560302 284.023879 
L 84.69558 283.979003 
L 84.709108 284.004525 
L 85.358444 283.991992 
L 85.493722 284.022735 
L 85.642528 284.004432 
L 88.415735 284.001816 
L 88.551013 283.994565 
L 88.686292 284.003353 
L 88.82157 283.989174 
L 88.956848 284.008613 
L 89.092127 283.985079 
L 89.227405 284.013148 
L 89.362683 283.982539 
L 89.497962 284.018374 
L 89.63324 283.981574 
L 89.646768 284.002944 
L 89.836158 284.005839 
L 89.998492 284.005301 
L 90.187881 283.996941 
L 90.390799 283.996378 
L 90.6343 284.010402 
L 90.82369 284.004011 
L 90.94544 283.977743 
L 91.080719 284.023942 
L 91.229525 283.994218 
L 91.351275 284.021455 
L 91.364803 284.009119 
L 91.500082 283.993329 
L 91.63536 284.009566 
L 91.648888 283.992888 
L 92.474086 283.998452 
L 92.609364 284.001156 
L 92.731115 284.019068 
L 92.744643 284.001372 
L 92.879921 283.9954 
L 93.001671 284.023308 
L 93.150478 283.990281 
L 93.272228 284.025672 
L 93.285756 284.007153 
L 93.421034 283.985998 
L 93.542785 284.02327 
L 93.556313 284.008782 
L 93.691591 283.983312 
L 93.813342 284.019044 
L 93.826869 284.009068 
L 93.962148 283.982269 
L 94.097426 284.006825 
L 94.300344 283.998073 
L 94.435622 284.00892 
L 94.584428 284.002925 
L 94.76029 284.009599 
L 94.895569 283.993306 
L 95.084958 284.01523 
L 95.274348 283.993345 
L 95.409626 284.023192 
L 95.423154 284.006972 
L 95.544905 283.995837 
L 95.828989 283.997543 
L 96.802993 283.998081 
L 96.924744 283.990672 
L 97.046495 283.998339 
L 97.168245 284.01753 
L 97.181773 284.002681 
L 97.303523 283.992916 
L 97.993443 284.015211 
L 98.128721 283.991227 
L 98.264 284.020177 
L 98.399278 283.992522 
L 98.534557 284.023034 
L 98.548084 284.005559 
L 98.669835 283.994612 
L 98.872752 284.006307 
L 99.062142 283.991029 
L 99.183893 284.024515 
L 99.19742 284.013233 
L 99.373282 283.996153 
L 100.049674 283.990808 
L 100.171425 284.000051 
L 100.293175 284.015331 
L 100.306703 284.001099 
L 100.333759 284.018926 
L 100.428454 283.993735 
L 100.969567 283.993074 
L 101.916516 283.992863 
L 102.038266 284.006581 
L 102.931103 284.006106 
L 103.066382 283.987557 
L 103.188132 284.025032 
L 103.20166 284.008222 
L 103.336938 283.984225 
L 103.458689 284.021713 
L 103.472217 284.009291 
L 103.607495 283.9824 
L 103.742774 284.007903 
L 103.905108 284.011272 
L 104.108025 283.99256 
L 104.229776 284.004283 
L 104.51386 284.015635 
L 104.649139 283.991281 
L 104.784417 284.020427 
L 104.919695 283.992628 
L 105.054974 284.023124 
L 105.068501 284.005694 
L 105.190252 283.994732 
L 105.39317 284.006557 
L 105.582559 283.991025 
L 105.70431 284.024415 
L 105.717838 284.013284 
L 105.8937 283.996286 
L 106.51598 283.991308 
L 106.637731 284.000155 
L 106.813592 284.015773 
L 106.962399 283.996231 
L 107.084149 284.019537 
L 107.232955 283.993619 
L 107.354706 284.006152 
L 126.794207 283.99316 
L 126.915957 284.005372 
L 127.659988 283.995064 
L 128.106407 283.988146 
L 128.228157 284.009601 
L 129.283329 284.008693 
L 129.418607 283.9834 
L 129.553885 284.01581 
L 129.689164 283.981994 
L 129.824442 284.017514 
L 129.95972 283.982537 
L 130.094999 284.016301 
L 130.108527 283.999459 
L 130.582001 283.99963 
L 130.703751 284.012562 
L 130.717279 283.997771 
L 130.96078 283.992441 
L 131.082531 284.014642 
L 131.298976 284.003006 
L 131.583061 284.015171 
L 131.731867 283.998855 
L 131.853618 284.021278 
L 131.867145 284.002617 
L 132.002424 283.993309 
L 132.124174 284.024813 
L 132.137702 284.00559 
L 132.27298 283.988231 
L 132.394731 284.026914 
L 132.408259 284.00797 
L 132.543537 283.984537 
L 132.665288 284.023772 
L 132.678816 284.009067 
L 132.814094 283.982456 
L 132.949372 284.01698 
L 133.084651 283.982036 
L 133.219929 284.017318 
L 133.355207 283.983505 
L 133.490486 284.029456 
L 133.504014 284.008339 
L 133.639292 283.996291 
L 133.882793 284.009364 
L 134.018071 283.982731 
L 134.15335 284.007505 
L 134.356267 283.990527 
L 134.478018 284.013032 
L 134.789158 283.9912 
L 134.910909 284.012981 
L 135.452022 283.993634 
L 135.573773 284.00667 
L 149.642722 283.988509 
L 149.764473 284.023894 
L 149.913279 283.984942 
L 150.03503 284.020755 
L 150.048557 284.009138 
L 150.183836 283.982833 
L 150.319114 284.008122 
L 150.454393 283.982606 
L 150.46792 284.001389 
L 150.643782 284.014186 
L 150.900811 283.984244 
L 151.03609 284.01107 
L 151.171368 283.98179 
L 151.184896 284.006694 
L 151.428397 284.00309 
L 151.563675 283.992277 
L 151.685426 284.025525 
L 151.698954 284.005974 
L 151.834232 283.987549 
L 151.96951 284.010677 
L 152.104789 283.983905 
L 152.240067 284.01484 
L 152.375345 283.98204 
L 152.510624 284.021931 
L 152.645902 283.981932 
L 152.78118 284.027834 
L 152.794708 284.005704 
L 152.916459 283.983793 
L 152.929987 283.998153 
L 153.119376 284.01061 
L 153.268183 284.000676 
L 153.389933 284.01729 
L 153.403461 283.997645 
L 153.646962 283.993431 
L 153.768712 284.015089 
L 153.958102 283.978377 
L 154.093381 284.023162 
L 154.255715 284.000539 
L 154.431576 284.012976 
L 154.566855 283.980733 
L 154.580383 284.004726 
L 154.823884 284.004703 
L 154.959162 283.989571 
L 155.09444 284.008448 
L 155.229719 283.985264 
L 155.364997 284.01313 
L 155.500276 283.982624 
L 155.635554 284.016384 
L 155.770832 283.981753 
L 155.906111 284.025252 
L 156.041389 283.982639 
L 156.176667 284.029466 
L 156.190195 284.007374 
L 156.311946 283.985394 
L 156.325474 283.996995 
L 156.528391 283.996264 
L 156.771892 283.995329 
L 156.893643 284.015132 
L 157.083032 283.978028 
L 157.218311 284.023804 
L 157.353589 283.979238 
L 157.367117 284.004147 
L 158.084092 283.991791 
L 158.205843 284.02585 
L 158.219371 284.006141 
L 158.354649 283.987238 
L 158.489927 284.010925 
L 158.625206 283.983732 
L 158.760484 284.01498 
L 158.895762 283.981969 
L 159.031041 284.02217 
L 159.166319 283.981935 
L 159.301598 284.027976 
L 159.315125 284.005797 
L 159.436876 283.983844 
L 159.450404 283.998098 
L 159.639793 284.009285 
L 159.7886 284.000333 
L 159.91035 284.01783 
L 159.923878 283.997885 
L 160.153851 283.991253 
L 160.302657 284.005587 
L 160.437936 283.998043 
L 160.573214 284.008948 
L 160.708493 283.990623 
L 160.843771 284.011239 
L 160.992577 283.999245 
L 161.114328 284.011567 
L 161.127855 283.99848 
L 161.317245 283.996559 
L 161.438996 284.006514 
L 161.804247 283.991415 
L 161.925998 284.001632 
L 162.10186 284.010294 
L 162.250666 283.996055 
L 162.372416 284.008816 
L 162.575334 283.999391 
L 162.764724 284.005264 
L 162.954113 283.984441 
L 163.075864 284.020378 
L 163.089392 284.009046 
L 163.22467 283.982625 
L 163.359948 284.007823 
L 163.549338 283.992002 
L 163.752256 284.00708 
L 163.874006 283.979253 
L 164.009285 284.021225 
L 164.171619 284.007369 
L 164.401592 284.020125 
L 164.53687 283.992122 
L 164.672149 284.022862 
L 164.685676 284.005452 
L 164.807427 283.994485 
L 165.010345 284.011247 
L 165.145623 283.983507 
L 165.280901 284.014947 
L 165.41618 283.981736 
L 165.429707 284.004517 
L 165.632625 283.993441 
L 166.877186 284.005734 
L 166.998936 283.978262 
L 167.134215 284.02306 
L 167.283021 283.993567 
L 167.296549 284.010401 
L 169.97506 283.995004 
L 170.096811 284.020222 
L 170.245617 283.992685 
L 170.367368 284.004553 
L 170.66498 283.991609 
L 171.530762 284.011438 
L 171.66604 283.983379 
L 171.801318 284.015206 
L 171.936597 283.981688 
L 171.950125 284.004404 
L 172.139514 284.004395 
L 172.328904 283.989853 
L 172.450655 284.025627 
L 172.464182 284.007361 
L 172.599461 283.985691 
L 172.721211 284.022794 
L 172.734739 284.008864 
L 172.870017 283.983154 
L 172.991768 284.01846 
L 173.005296 284.008961 
L 173.140574 283.982284 
L 173.154102 284.002565 
L 173.343492 284.006004 
L 173.47877 283.997328 
L 173.614048 284.009188 
L 173.762855 284.002576 
L 173.938717 284.009642 
L 174.073995 283.993327 
L 174.263385 284.015293 
L 174.452774 283.993533 
L 174.588053 284.023119 
L 174.601581 284.007239 
L 174.723331 283.996101 
L 175.047999 284.000281 
L 175.183277 283.997444 
L 175.305028 284.022039 
L 175.453834 283.992064 
L 175.575585 284.025487 
L 175.589113 284.00627 
L 175.724391 283.987327 
L 175.846141 284.024783 
L 175.859669 284.008337 
L 175.994948 283.984073 
L 176.116698 284.020062 
L 176.130226 284.008951 
L 176.265504 283.98248 
L 176.400783 284.007936 
L 176.563117 284.011224 
L 176.766034 283.992616 
L 176.887785 284.0044 
L 177.171869 284.015744 
L 177.307148 283.991265 
L 177.442426 284.020543 
L 177.577705 283.992668 
L 177.712983 284.023126 
L 177.726511 284.005852 
L 177.848261 283.994844 
L 178.051179 284.007134 
L 178.240569 283.990997 
L 178.362319 284.023846 
L 178.375847 284.013429 
L 178.551709 283.996734 
L 179.119878 283.985503 
L 179.241628 284.022678 
L 179.255156 284.008867 
L 179.390435 283.983064 
L 179.512185 284.01834 
L 179.525713 284.008887 
L 179.660991 283.982267 
L 179.674519 284.002462 
L 179.863909 284.006094 
L 180.012715 284.006082 
L 184.301039 284.007096 
L 184.436318 283.986102 
L 184.571596 284.007386 
L 184.760986 283.990997 
L 184.882736 284.02374 
L 184.896264 284.013474 
L 185.072126 283.996869 
L 185.599712 284.003079 
L 185.829685 284.012395 
L 185.964963 283.990812 
L 185.978491 284.012439 
L 186.276103 284.004953 
L 186.397854 283.992501 
L 187.980611 283.998309 
L 188.156473 283.991063 
L 188.291751 284.009649 
L 188.427029 283.992155 
L 188.575836 283.998406 
L 188.873448 283.991052 
L 188.995198 284.001145 
L 189.130477 284.000091 
L 189.157532 284.021009 
L 189.265755 283.997529 
L 189.387506 284.018321 
L 189.536312 283.994573 
L 189.658062 284.00746 
L 190.036842 284.009438 
L 191.105541 283.99715 
L 191.281403 283.991008 
L 191.403153 284.023545 
L 191.416681 284.013578 
L 191.592543 283.997193 
L 191.998378 283.991628 
L 192.120129 284.002918 
L 192.350102 284.012492 
L 192.48538 283.990826 
L 192.498908 284.01227 
L 192.837104 284.017387 
L 192.972382 283.983535 
L 193.121189 284.003284 
L 193.36469 283.984436 
L 193.48644 284.017438 
L 193.702885 284.002255 
L 193.878747 284.022694 
L 194.014026 283.994026 
L 194.027554 284.005718 
L 196.597842 283.99128 
L 196.719593 283.999815 
L 196.841344 284.01263 
L 196.854871 283.997716 
L 197.098372 284.000604 
L 197.274234 284.023351 
L 197.423041 284.003565 
L 200.764416 283.988067 
L 200.886167 284.009386 
L 201.670781 284.006736 
L 201.806059 283.98644 
L 201.92781 284.025768 
L 201.941338 284.008771 
L 202.076616 283.983398 
L 202.198367 284.020691 
L 202.211895 284.009037 
L 202.347173 283.982127 
L 202.482451 284.017513 
L 202.61773 283.982656 
L 202.753008 284.016222 
L 202.766536 283.999791 
L 203.185899 284.000474 
L 203.361761 284.012598 
L 203.510567 283.996075 
L 203.632317 284.026515 
L 203.767596 283.9922 
L 205.066268 284.008021 
L 205.201546 283.984588 
L 205.323297 284.023401 
L 205.336825 284.009138 
L 205.472103 283.982487 
L 205.607382 284.017047 
L 205.74266 283.982121 
L 205.877938 284.017249 
L 206.013217 283.983684 
L 206.148495 284.029388 
L 206.162023 284.008525 
L 206.297301 283.996164 
L 206.540802 284.009358 
L 206.676081 283.982722 
L 206.797831 284.011161 
L 207.284833 283.98797 
L 207.406584 284.009236 
L 208.150615 283.995189 
L 208.434699 283.984599 
L 208.55645 284.000313 
L 208.6782 284.010467 
L 208.691728 283.992251 
L 209.232842 284.004721 
L 209.36812 283.992103 
L 209.489871 284.003109 
L 209.692788 283.995462 
L 210.044512 284.021638 
L 210.17979 283.992294 
L 210.315069 284.023534 
L 210.328596 284.006614 
L 210.450347 283.994798 
L 210.653264 284.010795 
L 210.788543 283.982083 
L 210.802071 284.006919 
L 211.045572 284.002887 
L 211.18085 283.992825 
L 211.302601 284.025168 
L 211.316128 284.005845 
L 211.451407 283.987841 
L 211.573157 284.026837 
L 211.586685 284.00814 
L 211.721964 283.984279 
L 211.843714 284.023244 
L 211.857242 284.00909 
L 211.99252 283.982352 
L 212.127799 284.017128 
L 212.263077 283.982107 
L 212.398355 284.017191 
L 212.533634 283.983745 
L 212.668912 284.029461 
L 212.68244 284.008614 
L 212.817718 283.996128 
L 213.061219 284.009328 
L 213.196498 283.982698 
L 213.331776 284.007277 
L 213.534694 283.990248 
L 213.656444 284.012716 
L 214.035224 284.000902 
L 214.156974 284.019276 
L 214.170502 284.001569 
L 214.30578 283.995254 
L 214.427531 284.024077 
L 214.441059 284.004409 
L 214.576337 283.990186 
L 214.698088 284.026583 
L 214.711615 284.007127 
L 214.846894 283.985869 
L 214.968644 284.025668 
L 214.982172 284.008823 
L 215.11745 283.983105 
L 215.252729 284.016149 
L 215.388007 283.981948 
L 215.523286 284.017538 
L 215.658564 283.982717 
L 215.793842 284.028951 
L 215.80737 284.007164 
L 215.929121 283.985349 
L 215.942649 283.997029 
L 216.145566 283.995058 
L 216.49729 283.993862 
L 216.61904 284.011972 
L 216.767847 283.988647 
L 216.889597 284.008574 
L 217.092515 283.991513 
L 217.214265 284.014929 
L 217.538933 283.995688 
L 217.660684 284.008492 
L 217.850073 283.981482 
L 217.99888 284.008356 
L 218.147686 284.003547 
L 218.377659 284.01474 
L 218.512937 283.98218 
L 218.648216 284.017225 
L 218.783494 283.982089 
L 218.918773 284.027504 
L 218.9323 284.005593 
L 219.054051 283.983867 
L 219.067579 283.998143 
L 219.256968 284.010635 
L 219.405775 284.000696 
L 219.527525 284.012351 
L 219.541053 283.99667 
L 219.784554 283.993603 
L 219.906305 284.015119 
L 220.095694 283.993683 
L 220.2445 284.008094 
L 220.366251 283.980918 
L 220.501529 284.01885 
L 220.515057 284.009752 
L 220.636808 283.985494 
L 220.650336 283.997655 
L 223.071818 283.995508 
L 223.193569 284.027441 
L 223.328847 283.9923 
L 225.290383 284.004204 
L 225.425662 283.990662 
L 225.547412 284.024405 
L 225.696219 283.98638 
L 225.817969 284.021803 
L 225.966775 283.983652 
L 225.980303 284.007231 
L 226.223804 284.002322 
L 226.345555 283.99175 
L 226.480833 284.023384 
L 226.616111 283.978534 
L 226.629639 284.006586 
L 227.184281 283.996905 
L 227.306031 284.009287 
L 227.454837 283.996747 
L 227.576588 284.006643 
L 227.941839 283.991435 
L 228.06359 284.001897 
L 228.239452 284.010375 
L 228.388258 283.996262 
L 228.510009 284.009064 
L 228.699398 283.982785 
L 228.834677 284.029471 
L 228.848204 284.007543 
L 228.969955 283.985641 
L 228.983483 283.996859 
L 229.1864 283.996409 
L 229.429901 283.995079 
L 229.551652 284.015176 
L 229.700458 283.99131 
L 229.822209 284.013907 
L 230.079238 283.98396 
L 230.214516 284.011445 
L 230.349794 283.981659 
L 230.363322 284.006327 
L 230.606823 284.003367 
L 230.742102 283.991804 
L 230.863852 284.025842 
L 230.87738 284.006216 
L 231.012658 283.987175 
L 231.147937 284.011108 
L 231.283215 283.983671 
L 231.418493 284.015148 
L 231.553772 283.981968 
L 231.68905 284.022574 
L 231.824328 283.982038 
L 231.959607 284.028198 
L 231.973135 284.006026 
L 232.094885 283.98407 
L 232.108413 283.997912 
L 232.297803 284.010839 
L 232.446609 284.000339 
L 232.568359 284.018036 
L 232.581887 283.997944 
L 232.825388 283.993081 
L 232.947139 284.01499 
L 233.136529 283.978518 
L 233.150056 284.006466 
L 233.704698 284.003708 
L 233.839976 283.996226 
L 234.638118 283.999213 
L 234.759869 284.010302 
L 234.773397 283.993335 
L 235.869152 284.000952 
L 235.990902 283.991183 
L 236.12618 284.022496 
L 236.261459 283.978064 
L 236.396737 284.023744 
L 236.532016 283.9795 
L 236.545543 284.003643 
L 237.31663 283.994081 
L 237.438381 284.007415 
L 238.195939 283.995185 
L 238.31769 284.023416 
L 238.466496 283.989964 
L 238.588247 284.024492 
L 238.737053 283.985959 
L 238.858803 284.022622 
L 238.872331 284.008932 
L 239.00761 283.983279 
L 239.12936 284.017073 
L 239.142888 284.008695 
L 239.278166 283.982434 
L 239.291694 284.002688 
L 239.481084 284.005924 
L 239.616362 283.997304 
L 239.751641 284.009219 
L 239.886919 283.989984 
L 240.022197 284.011386 
L 240.171003 283.998907 
L 240.292754 284.011505 
L 240.306282 283.998857 
L 240.495672 283.995877 
L 240.617422 284.006234 
L 241.104424 284.001088 
L 241.280286 284.010283 
L 241.429092 283.995796 
L 241.550843 284.008586 
L 241.75376 283.999114 
L 241.94315 284.006081 
L 242.13254 283.98421 
L 242.25429 284.019835 
L 242.267818 284.009036 
L 242.403096 283.982555 
L 242.538375 284.007621 
L 242.727765 283.992164 
L 242.930682 284.007326 
L 243.052433 283.979524 
L 243.187711 284.020769 
L 243.390629 283.981108 
L 243.525907 284.014748 
L 243.661185 283.980382 
L 243.688241 284.010655 
L 243.877631 283.983926 
L 244.012909 284.00429 
L 244.56755 284.019845 
L 244.716357 283.99457 
L 244.838107 284.023718 
L 244.986913 283.989553 
L 245.108664 284.024531 
L 245.25747 283.985716 
L 245.37922 284.022482 
L 245.392748 284.008937 
L 245.528027 283.983162 
L 245.649777 284.016914 
L 245.663305 284.008601 
L 245.798583 283.982407 
L 245.812111 284.002562 
L 246.001501 284.006035 
L 246.136779 283.997104 
L 246.272058 284.009286 
L 246.420864 284.002483 
L 246.596726 284.009696 
L 246.732004 283.993318 
L 246.934922 284.003711 
L 247.110784 283.993646 
L 247.246062 284.023017 
L 247.25959 284.007428 
L 247.38134 283.996285 
L 247.706008 284.000288 
L 247.841287 283.997403 
L 247.963037 284.022103 
L 248.111843 283.991937 
L 248.233594 284.024561 
L 248.3824 283.987463 
L 248.504151 284.024554 
L 248.517679 284.0084 
L 248.652957 283.984119 
L 248.774707 284.019732 
L 248.788235 284.009011 
L 248.923514 283.982522 
L 249.058792 284.007907 
L 249.248182 283.992335 
L 249.451099 284.007461 
L 249.586378 283.993962 
L 249.708128 284.020527 
L 249.721656 284.009362 
L 249.856934 283.993278 
L 250.019268 283.994747 
L 251.101495 284.001928 
L 251.236774 283.994401 
L 251.358524 284.023797 
L 251.50733 283.989434 
L 251.629081 284.025544 
L 251.642609 284.00756 
L 251.777887 283.985397 
L 251.899638 284.022304 
L 251.913165 284.008931 
L 252.048444 283.983012 
L 252.170194 284.017872 
L 252.183722 284.008831 
L 252.319001 283.982316 
L 252.332528 284.002212 
L 252.521918 284.006334 
L 252.657196 283.996589 
L 252.792475 284.009448 
L 252.941281 284.002226 
L 253.117143 284.009669 
L 253.252421 283.993357 
L 253.455339 284.003854 
L 253.631201 283.993728 
L 253.766479 284.02301 
L 253.780007 284.0075 
L 253.901757 283.996372 
L 254.226425 284.000548 
L 254.361704 283.996929 
L 254.483454 284.022391 
L 254.632261 283.991603 
L 254.754011 284.02558 
L 254.767539 284.006505 
L 254.902817 283.986973 
L 255.024568 284.024459 
L 255.038096 284.00847 
L 255.173374 283.983858 
L 255.295125 284.01951 
L 255.308652 284.008919 
L 255.443931 283.982424 
L 255.579209 284.00772 
L 255.768599 283.992438 
L 255.971516 284.007543 
L 256.106795 283.99393 
L 256.228545 284.020424 
L 256.242073 284.009379 
L 256.377351 283.993286 
L 256.539686 283.994753 
L 257.784246 284.00324 
L 257.905997 283.982085 
L 257.919525 284.000287 
L 258.108915 284.002654 
L 258.298304 283.985216 
L 258.420055 284.022183 
L 258.433583 284.008926 
L 258.568861 283.982927 
L 258.690612 284.01775 
L 258.704139 284.008748 
L 258.839418 283.982303 
L 258.852946 284.002111 
L 259.042335 284.006423 
L 259.191141 284.00576 
L 260.300424 284.00768 
L 260.422175 283.996608 
L 260.841537 284.010032 
L 260.990344 283.995319 
L 261.112094 284.008073 
L 261.355595 283.994269 
L 261.558513 284.008493 
L 261.693791 283.983788 
L 261.815542 284.0206 
L 261.82907 284.009243 
L 261.964348 283.982298 
L 262.099626 284.007465 
L 262.289016 283.992577 
L 262.437822 284.00831 
L 262.45135 283.99276 
L 264.656387 283.991551 
L 264.778138 284.002747 
L 264.967528 283.988264 
L 265.183973 284.002043 
L 265.305723 283.993293 
L 265.95506 283.996813 
L 269.675215 284.003243 
L 269.796965 283.993096 
L 269.932244 284.023332 
L 269.945771 284.006434 
L 270.067522 283.994554 
L 270.270439 284.008906 
L 270.459829 283.990999 
L 270.58158 284.022838 
L 270.595108 284.013733 
L 270.770969 283.997788 
L 271.176804 283.991497 
L 271.298555 284.002585 
L 271.474417 284.009231 
L 271.609695 283.982611 
L 271.731446 284.017367 
L 271.744974 284.008396 
L 271.880252 283.982249 
L 271.89378 284.001769 
L 272.08317 284.006947 
L 272.231976 284.005171 
L 272.746034 284.000819 
L 272.989535 283.991954 
L 273.124813 284.005505 
L 273.260091 283.987287 
L 273.381842 284.007007 
L 273.977067 284.007919 
L 274.82932 284.00064 
L 274.856376 284.020249 
L 274.964599 283.996999 
L 275.086349 284.009708 
L 275.235155 283.994026 
L 275.356906 284.00674 
L 276.046826 283.991773 
L 276.182104 284.021585 
L 276.317382 283.993191 
L 276.452661 284.023371 
L 276.466189 284.006534 
L 276.587939 283.994662 
L 276.790857 284.009121 
L 276.980246 283.991004 
L 277.115525 284.010109 
L 277.250803 283.991691 
L 277.386081 284.007781 
L 277.548415 284.005827 
L 279.063533 283.98413 
L 279.185284 284.016767 
L 279.442313 283.992409 
L 279.577591 284.022929 
L 279.712869 283.993418 
L 279.726397 284.00569 
L 280.822152 283.992124 
L 280.943902 284.003991 
L 281.241515 283.999239 
L 281.363265 283.980059 
L 281.444432 284.014309 
L 281.485016 283.996864 
L 281.606766 284.009603 
L 281.755573 283.993949 
L 281.877323 284.006625 
L 282.688993 283.995791 
L 282.810744 284.02697 
L 282.946022 283.992217 
L 284.637002 284.000791 
L 284.77228 283.999055 
L 284.894031 284.022695 
L 284.907558 284.004031 
L 285.042837 283.996217 
L 285.164587 284.024356 
L 285.178115 284.006917 
L 285.313394 283.986763 
L 285.435144 284.021741 
L 285.58395 283.983832 
L 285.705701 284.016461 
L 285.96273 283.992544 
L 286.098008 284.023077 
L 286.233286 283.993577 
L 286.246814 284.005491 
L 287.288458 283.993327 
L 287.410208 284.006096 
L 288.478907 283.996943 
L 288.641241 283.995859 
L 289.182355 284.003163 
L 289.358217 283.992477 
L 289.493495 284.023515 
L 289.507023 284.006881 
L 289.628773 283.995068 
L 289.845219 283.997035 
L 290.021081 283.99108 
L 290.156359 284.009835 
L 290.291637 283.991882 
L 290.426916 284.022554 
L 290.562194 283.993843 
L 290.724528 283.996735 
L 290.90039 283.984035 
L 291.02214 284.022705 
L 291.035668 284.009097 
L 291.170947 283.982264 
L 291.306225 284.017255 
L 291.441503 283.982194 
L 291.576782 284.017034 
L 291.71206 283.984001 
L 291.847338 284.029419 
L 291.860866 284.00888 
L 291.996145 283.995973 
L 292.239646 284.009273 
L 292.374924 283.982682 
L 292.510202 284.00704 
L 292.71312 283.989978 
L 292.834871 284.012392 
L 293.254233 283.98473 
L 293.389512 284.012034 
L 293.52479 283.980679 
L 293.538318 284.0072 
L 294.431155 284.016379 
L 294.566434 283.981952 
L 294.701712 284.017526 
L 294.83699 283.982894 
L 294.972269 284.029129 
L 294.985797 284.007468 
L 295.107547 283.985695 
L 295.121075 283.996828 
L 295.323992 283.995311 
L 295.675716 283.99336 
L 295.797467 284.011759 
L 295.946273 283.988226 
L 296.068023 284.008169 
L 296.325052 283.99569 
L 296.568553 284.009891 
L 296.71736 283.995414 
L 296.83911 284.008268 
L 297.042028 283.999464 
L 297.244945 283.996817 
L 297.420807 283.983955 
L 297.556085 284.015053 
L 297.691364 283.982106 
L 297.826642 284.017335 
L 297.961921 283.982187 
L 298.097199 284.027863 
L 298.110727 284.005919 
L 298.232477 283.98414 
L 298.246005 283.997899 
L 298.435395 284.010866 
L 298.584201 284.000357 
L 298.705952 284.012426 
L 298.719479 283.996988 
L 298.96298 283.993249 
L 299.084731 284.015022 
L 299.287649 284.005083 
L 300.329292 283.993019 
L 300.451042 284.005417 
L 301.073323 284.002969 
L 301.208601 283.997118 
L 301.330352 284.024275 
L 301.34388 284.005903 
L 301.479158 283.988122 
L 301.600909 284.023429 
L 301.749715 283.984656 
L 301.871465 284.018868 
L 302.087911 283.995173 
L 302.209661 284.015206 
L 302.358467 283.991293 
L 302.480218 284.013826 
L 302.737247 283.983896 
L 302.872525 284.011652 
L 303.007804 283.981638 
L 303.021331 284.00611 
L 303.264832 284.003544 
L 303.400111 283.991507 
L 303.521861 284.026021 
L 303.535389 284.00639 
L 303.670667 283.986923 
L 303.792418 284.02677 
L 303.805946 284.008397 
L 303.941224 283.983738 
L 304.076503 284.015224 
L 304.211781 283.982021 
L 304.347059 284.017377 
L 304.482338 283.982192 
L 304.617616 284.028029 
L 304.631144 284.006032 
L 304.752894 283.984204 
L 304.766422 283.997836 
L 304.955812 284.010922 
L 305.104618 284.000259 
L 305.226369 284.018363 
L 305.239897 283.998065 
L 305.46987 283.995027 
L 306.09215 283.999997 
L 306.240956 283.994956 
L 306.565624 283.992273 
L 307.039099 284.009916 
L 307.187905 284.003513 
L 307.363767 284.012209 
L 307.512573 283.995232 
L 307.634324 284.011971 
L 307.647851 284.000457 
L 307.837241 283.993436 
L 307.958992 284.005612 
L 309.78525 284.003644 
L 309.920528 283.991339 
L 310.042278 284.026124 
L 310.055806 284.006452 
L 310.191085 283.986811 
L 310.326363 284.011532 
L 310.461641 283.983452 
L 310.59692 284.015441 
L 310.732198 283.981912 
L 310.867476 284.023195 
L 311.002755 283.98216 
L 311.138033 284.028526 
L 311.151561 284.006344 
L 311.273312 283.984363 
L 311.286839 283.997679 
L 311.476229 284.011055 
L 311.625035 284.000004 
L 311.746786 284.01877 
L 311.760314 283.998253 
L 311.990287 283.995047 
L 312.544928 283.989843 
L 312.680207 284.011463 
L 312.829013 283.998807 
L 312.950763 284.01151 
L 312.964291 283.99904 
L 313.153681 283.995524 
L 313.275431 284.006102 
L 313.816545 283.998899 
L 313.938295 284.010276 
L 314.087102 283.995776 
L 314.208852 284.00863 
L 314.41177 283.998993 
L 314.601159 284.009801 
L 314.749965 284.001792 
L 314.925827 284.009124 
L 315.061106 283.982631 
L 315.196384 284.007646 
L 315.385774 283.992205 
L 315.588691 284.00746 
L 315.710442 283.979782 
L 315.84572 284.02042 
L 316.048638 283.981058 
L 316.183916 284.01487 
L 316.319195 283.980445 
L 316.34625 284.010518 
L 316.549168 283.991676 
L 316.670918 284.004325 
L 317.184976 284.001213 
L 317.414949 283.987376 
L 317.496116 284.023647 
L 317.5367 284.000468 
L 317.726089 284.008332 
L 317.874896 284.003516 
L 318.118397 283.998637 
L 318.632455 283.989123 
L 318.754205 284.009316 
L 319.173568 283.982097 
L 319.308846 284.013714 
L 319.444125 283.980503 
L 319.457653 284.003843 
L 319.66057 283.994234 
L 321.067465 284.009175 
L 321.189216 283.98668 
L 321.392133 284.015602 
L 321.540939 283.997731 
L 321.66269 284.023237 
L 321.797968 283.992615 
L 322.555527 284.000999 
L 322.690805 283.996055 
L 322.812556 284.022104 
L 322.826084 284.003999 
L 322.961362 283.990729 
L 323.096641 284.007196 
L 323.231919 283.986118 
L 323.367197 284.012077 
L 323.502476 283.983088 
L 323.637754 284.016501 
L 323.773032 283.981655 
L 323.78656 284.003793 
L 323.97595 284.005005 
L 324.151812 283.995246 
L 324.395313 284.003248 
L 324.625286 284.012392 
L 324.774092 283.99628 
L 324.895843 284.014879 
L 325.044649 284.004442 
L 325.179927 284.006366 
L 325.315206 283.996372 
L 325.450484 284.009544 
L 325.59929 284.002132 
L 325.775152 284.009715 
L 325.910431 283.993353 
L 326.113348 284.004073 
L 326.28921 283.993847 
L 326.438016 284.007685 
L 326.559767 283.99656 
L 326.97913 284.010168 
L 327.127936 283.995389 
L 327.249686 284.008177 
L 327.493187 283.994075 
L 327.696105 284.008536 
L 327.831383 283.983907 
L 327.953134 284.019178 
L 327.966662 284.008976 
L 328.10194 283.982471 
L 328.237218 284.007686 
L 328.426608 283.992514 
L 328.629526 284.007692 
L 328.764804 283.993847 
L 328.886555 284.020044 
L 328.900082 284.009462 
L 329.035361 283.993267 
L 329.197695 283.994727 
L 330.942786 283.997376 
L 331.10512 283.989257 
L 331.362149 284.008678 
L 331.497427 283.982363 
L 331.510955 284.001863 
L 331.700344 284.00666 
L 331.835623 283.995858 
L 331.970901 284.009698 
L 332.119707 284.001875 
L 332.295569 284.009677 
L 332.430848 283.993397 
L 332.633765 284.004215 
L 332.809627 283.993932 
L 332.985489 284.005404 
L 334.717052 284.003596 
L 334.838803 283.992605 
L 335.596361 284.00138 
L 335.73164 283.995389 
L 335.866918 284.002547 
L 336.002196 283.989888 
L 336.137475 284.007828 
L 336.272753 283.985604 
L 336.408032 284.008788 
L 336.597421 283.990963 
L 336.719172 284.022453 
L 336.7327 284.013761 
L 336.908561 283.997917 
L 337.314397 283.991512 
L 337.436147 284.002684 
L 337.612009 284.008969 
L 337.747287 283.982806 
L 337.869038 284.017155 
L 337.882566 284.008586 
L 338.017844 283.982355 
L 338.031372 284.001765 
L 338.220762 284.006747 
L 338.369568 284.005432 
L 338.937737 284.001565 
L 339.059487 283.992261 
L 339.194766 284.022766 
L 339.330044 283.994185 
L 339.343572 284.004997 
L 398.487273 284.013972 
L 398.487273 284.013972 
" style="fill:none;stroke:#d62728;stroke-linecap:square;stroke-width:1.5;"/>
   </g>
   <g id="line2d_19">
    <path clip-path="url(#p0034f09e32)" d="M 73.832727 295.488 
L 398.487273 295.488 
L 398.487273 295.488 
" style="fill:none;stroke:#9467bd;stroke-linecap:square;stroke-width:1.5;"/>
   </g>
   <g id="patch_3">
    <path d="M 57.6 307.584 
L 57.6 41.472 
" style="fill:none;stroke:#000000;stroke-linecap:square;stroke-linejoin:miter;stroke-width:0.8;"/>
   </g>
   <g id="patch_4">
    <path d="M 414.72 307.584 
L 414.72 41.472 
" style="fill:none;stroke:#000000;stroke-linecap:square;stroke-linejoin:miter;stroke-width:0.8;"/>
   </g>
   <g id="patch_5">
    <path d="M 57.6 307.584 
L 414.72 307.584 
" style="fill:none;stroke:#000000;stroke-linecap:square;stroke-linejoin:miter;stroke-width:0.8;"/>
   </g>
   <g id="patch_6">
    <path d="M 57.6 41.472 
L 414.72 41.472 
" style="fill:none;stroke:#000000;stroke-linecap:square;stroke-linejoin:miter;stroke-width:0.8;"/>
   </g>
   <g id="legend_1">
    <g id="patch_7">
     <path d="M 356.516875 122.862625 
L 407.72 122.862625 
Q 409.72 122.862625 409.72 120.862625 
L 409.72 48.472 
Q 409.72 46.472 407.72 46.472 
L 356.516875 46.472 
Q 354.516875 46.472 354.516875 48.472 
L 354.516875 120.862625 
Q 354.516875 122.862625 356.516875 122.862625 
z
" style="fill:#ffffff;opacity:0.8;stroke:#cccccc;stroke-linejoin:miter;"/>
    </g>
    <g id="line2d_20">
     <path d="M 358.516875 54.570438 
L 378.516875 54.570438 
" style="fill:none;stroke:#1f77b4;stroke-linecap:square;stroke-width:1.5;"/>
    </g>
    <g id="line2d_21"/>
    <g id="text_18">
     <!-- T+ -->
     <g transform="translate(386.516875 58.070438)scale(0.1 -0.1)">
      <defs>
       <path d="M 46 62.703125 
L 46 35.5 
L 73.1875 35.5 
L 73.1875 27.203125 
L 46 27.203125 
L 46 0 
L 37.796875 0 
L 37.796875 27.203125 
L 10.59375 27.203125 
L 10.59375 35.5 
L 37.796875 35.5 
L 37.796875 62.703125 
z
" id="DejaVuSans-43"/>
      </defs>
      <use xlink:href="#DejaVuSans-84"/>
      <use x="61.083984" xlink:href="#DejaVuSans-43"/>
     </g>
    </g>
    <g id="line2d_22">
     <path d="M 358.516875 69.248563 
L 378.516875 69.248563 
" style="fill:none;stroke:#ff7f0e;stroke-linecap:square;stroke-width:1.5;"/>
    </g>
    <g id="line2d_23"/>
    <g id="text_19">
     <!-- Tp -->
     <g transform="translate(386.516875 72.748563)scale(0.1 -0.1)">
      <defs>
       <path d="M 18.109375 8.203125 
L 18.109375 -20.796875 
L 9.078125 -20.796875 
L 9.078125 54.6875 
L 18.109375 54.6875 
L 18.109375 46.390625 
Q 20.953125 51.265625 25.265625 53.625 
Q 29.59375 56 35.59375 56 
Q 45.5625 56 51.78125 48.09375 
Q 58.015625 40.1875 58.015625 27.296875 
Q 58.015625 14.40625 51.78125 6.484375 
Q 45.5625 -1.421875 35.59375 -1.421875 
Q 29.59375 -1.421875 25.265625 0.953125 
Q 20.953125 3.328125 18.109375 8.203125 
z
M 48.6875 27.296875 
Q 48.6875 37.203125 44.609375 42.84375 
Q 40.53125 48.484375 33.40625 48.484375 
Q 26.265625 48.484375 22.1875 42.84375 
Q 18.109375 37.203125 18.109375 27.296875 
Q 18.109375 17.390625 22.1875 11.75 
Q 26.265625 6.109375 33.40625 6.109375 
Q 40.53125 6.109375 44.609375 11.75 
Q 48.6875 17.390625 48.6875 27.296875 
z
" id="DejaVuSans-112"/>
      </defs>
      <use xlink:href="#DejaVuSans-84"/>
      <use x="61.083984" xlink:href="#DejaVuSans-112"/>
     </g>
    </g>
    <g id="line2d_24">
     <path d="M 358.516875 83.926688 
L 378.516875 83.926688 
" style="fill:none;stroke:#2ca02c;stroke-linecap:square;stroke-width:1.5;"/>
    </g>
    <g id="line2d_25"/>
    <g id="text_20">
     <!-- T- -->
     <g transform="translate(386.516875 87.426688)scale(0.1 -0.1)">
      <defs>
       <path d="M 4.890625 31.390625 
L 31.203125 31.390625 
L 31.203125 23.390625 
L 4.890625 23.390625 
z
" id="DejaVuSans-45"/>
      </defs>
      <use xlink:href="#DejaVuSans-84"/>
      <use x="51.958984" xlink:href="#DejaVuSans-45"/>
     </g>
    </g>
    <g id="line2d_26">
     <path d="M 358.516875 98.604813 
L 378.516875 98.604813 
" style="fill:none;stroke:#d62728;stroke-linecap:square;stroke-width:1.5;"/>
    </g>
    <g id="line2d_27"/>
    <g id="text_21">
     <!-- O2 -->
     <g transform="translate(386.516875 102.104813)scale(0.1 -0.1)">
      <defs>
       <path d="M 39.40625 66.21875 
Q 28.65625 66.21875 22.328125 58.203125 
Q 16.015625 50.203125 16.015625 36.375 
Q 16.015625 22.609375 22.328125 14.59375 
Q 28.65625 6.59375 39.40625 6.59375 
Q 50.140625 6.59375 56.421875 14.59375 
Q 62.703125 22.609375 62.703125 36.375 
Q 62.703125 50.203125 56.421875 58.203125 
Q 50.140625 66.21875 39.40625 66.21875 
z
M 39.40625 74.21875 
Q 54.734375 74.21875 63.90625 63.9375 
Q 73.09375 53.65625 73.09375 36.375 
Q 73.09375 19.140625 63.90625 8.859375 
Q 54.734375 -1.421875 39.40625 -1.421875 
Q 24.03125 -1.421875 14.8125 8.828125 
Q 5.609375 19.09375 5.609375 36.375 
Q 5.609375 53.65625 14.8125 63.9375 
Q 24.03125 74.21875 39.40625 74.21875 
z
" id="DejaVuSans-79"/>
      </defs>
      <use xlink:href="#DejaVuSans-79"/>
      <use x="78.710938" xlink:href="#DejaVuSans-50"/>
     </g>
    </g>
    <g id="line2d_28">
     <path d="M 358.516875 113.282938 
L 378.516875 113.282938 
" style="fill:none;stroke:#9467bd;stroke-linecap:square;stroke-width:1.5;"/>
    </g>
    <g id="line2d_29"/>
    <g id="text_22">
     <!-- test -->
     <g transform="translate(386.516875 116.782938)scale(0.1 -0.1)">
      <use xlink:href="#DejaVuSans-116"/>
      <use x="39.208984" xlink:href="#DejaVuSans-101"/>
      <use x="100.732422" xlink:href="#DejaVuSans-115"/>
      <use x="152.832031" xlink:href="#DejaVuSans-116"/>
     </g>
    </g>
   </g>
  </g>
 </g>
 <defs>
  <clipPath id="p0034f09e32">
   <rect height="266.112" width="357.12" x="57.6" y="41.472"/>
  </clipPath>
 </defs>
</svg>
