<?xml version="1.0" encoding="utf-8" standalone="no"?>
<!DOCTYPE svg PUBLIC "-//W3C//DTD SVG 1.1//EN"
  "http://www.w3.org/Graphics/SVG/1.1/DTD/svg11.dtd">
<!-- Created with matplotlib (https://matplotlib.org/) -->
<svg height="345.6pt" version="1.1" viewBox="0 0 460.8 345.6" width="460.8pt" xmlns="http://www.w3.org/2000/svg" xmlns:xlink="http://www.w3.org/1999/xlink">
 <metadata>
  <rdf:RDF xmlns:cc="http://creativecommons.org/ns#" xmlns:dc="http://purl.org/dc/elements/1.1/" xmlns:rdf="http://www.w3.org/1999/02/22-rdf-syntax-ns#">
   <cc:Work>
    <dc:type rdf:resource="http://purl.org/dc/dcmitype/StillImage"/>
    <dc:date>2020-10-24T13:54:51.291682</dc:date>
    <dc:format>image/svg+xml</dc:format>
    <dc:creator>
     <cc:Agent>
      <dc:title>Matplotlib v3.3.2, https://matplotlib.org/</dc:title>
     </cc:Agent>
    </dc:creator>
   </cc:Work>
  </rdf:RDF>
 </metadata>
 <defs>
  <style type="text/css">*{stroke-linecap:butt;stroke-linejoin:round;}</style>
 </defs>
 <g id="figure_1">
  <g id="patch_1">
   <path d="M 0 345.6 
L 460.8 345.6 
L 460.8 0 
L 0 0 
z
" style="fill:#ffffff;"/>
  </g>
  <g id="axes_1">
   <g id="patch_2">
    <path d="M 57.6 307.584 
L 414.72 307.584 
L 414.72 41.472 
L 57.6 41.472 
z
" style="fill:#ffffff;"/>
   </g>
   <g id="matplotlib.axis_1">
    <g id="xtick_1">
     <g id="line2d_1">
      <defs>
       <path d="M 0 0 
L 0 3.5 
" id="m9dd1cf769b" style="stroke:#000000;stroke-width:0.8;"/>
      </defs>
      <g>
       <use style="stroke:#000000;stroke-width:0.8;" x="73.832727" xlink:href="#m9dd1cf769b" y="307.584"/>
      </g>
     </g>
     <g id="text_1">
      <!-- 0.0 -->
      <g transform="translate(65.881165 322.182437)scale(0.1 -0.1)">
       <defs>
        <path d="M 31.78125 66.40625 
Q 24.171875 66.40625 20.328125 58.90625 
Q 16.5 51.421875 16.5 36.375 
Q 16.5 21.390625 20.328125 13.890625 
Q 24.171875 6.390625 31.78125 6.390625 
Q 39.453125 6.390625 43.28125 13.890625 
Q 47.125 21.390625 47.125 36.375 
Q 47.125 51.421875 43.28125 58.90625 
Q 39.453125 66.40625 31.78125 66.40625 
z
M 31.78125 74.21875 
Q 44.046875 74.21875 50.515625 64.515625 
Q 56.984375 54.828125 56.984375 36.375 
Q 56.984375 17.96875 50.515625 8.265625 
Q 44.046875 -1.421875 31.78125 -1.421875 
Q 19.53125 -1.421875 13.0625 8.265625 
Q 6.59375 17.96875 6.59375 36.375 
Q 6.59375 54.828125 13.0625 64.515625 
Q 19.53125 74.21875 31.78125 74.21875 
z
" id="DejaVuSans-48"/>
        <path d="M 10.6875 12.40625 
L 21 12.40625 
L 21 0 
L 10.6875 0 
z
" id="DejaVuSans-46"/>
       </defs>
       <use xlink:href="#DejaVuSans-48"/>
       <use x="63.623047" xlink:href="#DejaVuSans-46"/>
       <use x="95.410156" xlink:href="#DejaVuSans-48"/>
      </g>
     </g>
    </g>
    <g id="xtick_2">
     <g id="line2d_2">
      <g>
       <use style="stroke:#000000;stroke-width:0.8;" x="118.925515" xlink:href="#m9dd1cf769b" y="307.584"/>
      </g>
     </g>
     <g id="text_2">
      <!-- 0.2 -->
      <g transform="translate(110.973953 322.182437)scale(0.1 -0.1)">
       <defs>
        <path d="M 19.1875 8.296875 
L 53.609375 8.296875 
L 53.609375 0 
L 7.328125 0 
L 7.328125 8.296875 
Q 12.9375 14.109375 22.625 23.890625 
Q 32.328125 33.6875 34.8125 36.53125 
Q 39.546875 41.84375 41.421875 45.53125 
Q 43.3125 49.21875 43.3125 52.78125 
Q 43.3125 58.59375 39.234375 62.25 
Q 35.15625 65.921875 28.609375 65.921875 
Q 23.96875 65.921875 18.8125 64.3125 
Q 13.671875 62.703125 7.8125 59.421875 
L 7.8125 69.390625 
Q 13.765625 71.78125 18.9375 73 
Q 24.125 74.21875 28.421875 74.21875 
Q 39.75 74.21875 46.484375 68.546875 
Q 53.21875 62.890625 53.21875 53.421875 
Q 53.21875 48.921875 51.53125 44.890625 
Q 49.859375 40.875 45.40625 35.40625 
Q 44.1875 33.984375 37.640625 27.21875 
Q 31.109375 20.453125 19.1875 8.296875 
z
" id="DejaVuSans-50"/>
       </defs>
       <use xlink:href="#DejaVuSans-48"/>
       <use x="63.623047" xlink:href="#DejaVuSans-46"/>
       <use x="95.410156" xlink:href="#DejaVuSans-50"/>
      </g>
     </g>
    </g>
    <g id="xtick_3">
     <g id="line2d_3">
      <g>
       <use style="stroke:#000000;stroke-width:0.8;" x="164.018303" xlink:href="#m9dd1cf769b" y="307.584"/>
      </g>
     </g>
     <g id="text_3">
      <!-- 0.4 -->
      <g transform="translate(156.066741 322.182437)scale(0.1 -0.1)">
       <defs>
        <path d="M 37.796875 64.3125 
L 12.890625 25.390625 
L 37.796875 25.390625 
z
M 35.203125 72.90625 
L 47.609375 72.90625 
L 47.609375 25.390625 
L 58.015625 25.390625 
L 58.015625 17.1875 
L 47.609375 17.1875 
L 47.609375 0 
L 37.796875 0 
L 37.796875 17.1875 
L 4.890625 17.1875 
L 4.890625 26.703125 
z
" id="DejaVuSans-52"/>
       </defs>
       <use xlink:href="#DejaVuSans-48"/>
       <use x="63.623047" xlink:href="#DejaVuSans-46"/>
       <use x="95.410156" xlink:href="#DejaVuSans-52"/>
      </g>
     </g>
    </g>
    <g id="xtick_4">
     <g id="line2d_4">
      <g>
       <use style="stroke:#000000;stroke-width:0.8;" x="209.111091" xlink:href="#m9dd1cf769b" y="307.584"/>
      </g>
     </g>
     <g id="text_4">
      <!-- 0.6 -->
      <g transform="translate(201.159529 322.182437)scale(0.1 -0.1)">
       <defs>
        <path d="M 33.015625 40.375 
Q 26.375 40.375 22.484375 35.828125 
Q 18.609375 31.296875 18.609375 23.390625 
Q 18.609375 15.53125 22.484375 10.953125 
Q 26.375 6.390625 33.015625 6.390625 
Q 39.65625 6.390625 43.53125 10.953125 
Q 47.40625 15.53125 47.40625 23.390625 
Q 47.40625 31.296875 43.53125 35.828125 
Q 39.65625 40.375 33.015625 40.375 
z
M 52.59375 71.296875 
L 52.59375 62.3125 
Q 48.875 64.0625 45.09375 64.984375 
Q 41.3125 65.921875 37.59375 65.921875 
Q 27.828125 65.921875 22.671875 59.328125 
Q 17.53125 52.734375 16.796875 39.40625 
Q 19.671875 43.65625 24.015625 45.921875 
Q 28.375 48.1875 33.59375 48.1875 
Q 44.578125 48.1875 50.953125 41.515625 
Q 57.328125 34.859375 57.328125 23.390625 
Q 57.328125 12.15625 50.6875 5.359375 
Q 44.046875 -1.421875 33.015625 -1.421875 
Q 20.359375 -1.421875 13.671875 8.265625 
Q 6.984375 17.96875 6.984375 36.375 
Q 6.984375 53.65625 15.1875 63.9375 
Q 23.390625 74.21875 37.203125 74.21875 
Q 40.921875 74.21875 44.703125 73.484375 
Q 48.484375 72.75 52.59375 71.296875 
z
" id="DejaVuSans-54"/>
       </defs>
       <use xlink:href="#DejaVuSans-48"/>
       <use x="63.623047" xlink:href="#DejaVuSans-46"/>
       <use x="95.410156" xlink:href="#DejaVuSans-54"/>
      </g>
     </g>
    </g>
    <g id="xtick_5">
     <g id="line2d_5">
      <g>
       <use style="stroke:#000000;stroke-width:0.8;" x="254.203879" xlink:href="#m9dd1cf769b" y="307.584"/>
      </g>
     </g>
     <g id="text_5">
      <!-- 0.8 -->
      <g transform="translate(246.252317 322.182437)scale(0.1 -0.1)">
       <defs>
        <path d="M 31.78125 34.625 
Q 24.75 34.625 20.71875 30.859375 
Q 16.703125 27.09375 16.703125 20.515625 
Q 16.703125 13.921875 20.71875 10.15625 
Q 24.75 6.390625 31.78125 6.390625 
Q 38.8125 6.390625 42.859375 10.171875 
Q 46.921875 13.96875 46.921875 20.515625 
Q 46.921875 27.09375 42.890625 30.859375 
Q 38.875 34.625 31.78125 34.625 
z
M 21.921875 38.8125 
Q 15.578125 40.375 12.03125 44.71875 
Q 8.5 49.078125 8.5 55.328125 
Q 8.5 64.0625 14.71875 69.140625 
Q 20.953125 74.21875 31.78125 74.21875 
Q 42.671875 74.21875 48.875 69.140625 
Q 55.078125 64.0625 55.078125 55.328125 
Q 55.078125 49.078125 51.53125 44.71875 
Q 48 40.375 41.703125 38.8125 
Q 48.828125 37.15625 52.796875 32.3125 
Q 56.78125 27.484375 56.78125 20.515625 
Q 56.78125 9.90625 50.3125 4.234375 
Q 43.84375 -1.421875 31.78125 -1.421875 
Q 19.734375 -1.421875 13.25 4.234375 
Q 6.78125 9.90625 6.78125 20.515625 
Q 6.78125 27.484375 10.78125 32.3125 
Q 14.796875 37.15625 21.921875 38.8125 
z
M 18.3125 54.390625 
Q 18.3125 48.734375 21.84375 45.5625 
Q 25.390625 42.390625 31.78125 42.390625 
Q 38.140625 42.390625 41.71875 45.5625 
Q 45.3125 48.734375 45.3125 54.390625 
Q 45.3125 60.0625 41.71875 63.234375 
Q 38.140625 66.40625 31.78125 66.40625 
Q 25.390625 66.40625 21.84375 63.234375 
Q 18.3125 60.0625 18.3125 54.390625 
z
" id="DejaVuSans-56"/>
       </defs>
       <use xlink:href="#DejaVuSans-48"/>
       <use x="63.623047" xlink:href="#DejaVuSans-46"/>
       <use x="95.410156" xlink:href="#DejaVuSans-56"/>
      </g>
     </g>
    </g>
    <g id="xtick_6">
     <g id="line2d_6">
      <g>
       <use style="stroke:#000000;stroke-width:0.8;" x="299.296667" xlink:href="#m9dd1cf769b" y="307.584"/>
      </g>
     </g>
     <g id="text_6">
      <!-- 1.0 -->
      <g transform="translate(291.345105 322.182437)scale(0.1 -0.1)">
       <defs>
        <path d="M 12.40625 8.296875 
L 28.515625 8.296875 
L 28.515625 63.921875 
L 10.984375 60.40625 
L 10.984375 69.390625 
L 28.421875 72.90625 
L 38.28125 72.90625 
L 38.28125 8.296875 
L 54.390625 8.296875 
L 54.390625 0 
L 12.40625 0 
z
" id="DejaVuSans-49"/>
       </defs>
       <use xlink:href="#DejaVuSans-49"/>
       <use x="63.623047" xlink:href="#DejaVuSans-46"/>
       <use x="95.410156" xlink:href="#DejaVuSans-48"/>
      </g>
     </g>
    </g>
    <g id="xtick_7">
     <g id="line2d_7">
      <g>
       <use style="stroke:#000000;stroke-width:0.8;" x="344.389455" xlink:href="#m9dd1cf769b" y="307.584"/>
      </g>
     </g>
     <g id="text_7">
      <!-- 1.2 -->
      <g transform="translate(336.437893 322.182437)scale(0.1 -0.1)">
       <use xlink:href="#DejaVuSans-49"/>
       <use x="63.623047" xlink:href="#DejaVuSans-46"/>
       <use x="95.410156" xlink:href="#DejaVuSans-50"/>
      </g>
     </g>
    </g>
    <g id="xtick_8">
     <g id="line2d_8">
      <g>
       <use style="stroke:#000000;stroke-width:0.8;" x="389.482243" xlink:href="#m9dd1cf769b" y="307.584"/>
      </g>
     </g>
     <g id="text_8">
      <!-- 1.4 -->
      <g transform="translate(381.53068 322.182437)scale(0.1 -0.1)">
       <use xlink:href="#DejaVuSans-49"/>
       <use x="63.623047" xlink:href="#DejaVuSans-46"/>
       <use x="95.410156" xlink:href="#DejaVuSans-52"/>
      </g>
     </g>
    </g>
    <g id="text_9">
     <!-- Time (min) -->
     <g transform="translate(209.007656 335.860562)scale(0.1 -0.1)">
      <defs>
       <path d="M -0.296875 72.90625 
L 61.375 72.90625 
L 61.375 64.59375 
L 35.5 64.59375 
L 35.5 0 
L 25.59375 0 
L 25.59375 64.59375 
L -0.296875 64.59375 
z
" id="DejaVuSans-84"/>
       <path d="M 9.421875 54.6875 
L 18.40625 54.6875 
L 18.40625 0 
L 9.421875 0 
z
M 9.421875 75.984375 
L 18.40625 75.984375 
L 18.40625 64.59375 
L 9.421875 64.59375 
z
" id="DejaVuSans-105"/>
       <path d="M 52 44.1875 
Q 55.375 50.25 60.0625 53.125 
Q 64.75 56 71.09375 56 
Q 79.640625 56 84.28125 50.015625 
Q 88.921875 44.046875 88.921875 33.015625 
L 88.921875 0 
L 79.890625 0 
L 79.890625 32.71875 
Q 79.890625 40.578125 77.09375 44.375 
Q 74.3125 48.1875 68.609375 48.1875 
Q 61.625 48.1875 57.5625 43.546875 
Q 53.515625 38.921875 53.515625 30.90625 
L 53.515625 0 
L 44.484375 0 
L 44.484375 32.71875 
Q 44.484375 40.625 41.703125 44.40625 
Q 38.921875 48.1875 33.109375 48.1875 
Q 26.21875 48.1875 22.15625 43.53125 
Q 18.109375 38.875 18.109375 30.90625 
L 18.109375 0 
L 9.078125 0 
L 9.078125 54.6875 
L 18.109375 54.6875 
L 18.109375 46.1875 
Q 21.1875 51.21875 25.484375 53.609375 
Q 29.78125 56 35.6875 56 
Q 41.65625 56 45.828125 52.96875 
Q 50 49.953125 52 44.1875 
z
" id="DejaVuSans-109"/>
       <path d="M 56.203125 29.59375 
L 56.203125 25.203125 
L 14.890625 25.203125 
Q 15.484375 15.921875 20.484375 11.0625 
Q 25.484375 6.203125 34.421875 6.203125 
Q 39.59375 6.203125 44.453125 7.46875 
Q 49.3125 8.734375 54.109375 11.28125 
L 54.109375 2.78125 
Q 49.265625 0.734375 44.1875 -0.34375 
Q 39.109375 -1.421875 33.890625 -1.421875 
Q 20.796875 -1.421875 13.15625 6.1875 
Q 5.515625 13.8125 5.515625 26.8125 
Q 5.515625 40.234375 12.765625 48.109375 
Q 20.015625 56 32.328125 56 
Q 43.359375 56 49.78125 48.890625 
Q 56.203125 41.796875 56.203125 29.59375 
z
M 47.21875 32.234375 
Q 47.125 39.59375 43.09375 43.984375 
Q 39.0625 48.390625 32.421875 48.390625 
Q 24.90625 48.390625 20.390625 44.140625 
Q 15.875 39.890625 15.1875 32.171875 
z
" id="DejaVuSans-101"/>
       <path id="DejaVuSans-32"/>
       <path d="M 31 75.875 
Q 24.46875 64.65625 21.28125 53.65625 
Q 18.109375 42.671875 18.109375 31.390625 
Q 18.109375 20.125 21.3125 9.0625 
Q 24.515625 -2 31 -13.1875 
L 23.1875 -13.1875 
Q 15.875 -1.703125 12.234375 9.375 
Q 8.59375 20.453125 8.59375 31.390625 
Q 8.59375 42.28125 12.203125 53.3125 
Q 15.828125 64.359375 23.1875 75.875 
z
" id="DejaVuSans-40"/>
       <path d="M 54.890625 33.015625 
L 54.890625 0 
L 45.90625 0 
L 45.90625 32.71875 
Q 45.90625 40.484375 42.875 44.328125 
Q 39.84375 48.1875 33.796875 48.1875 
Q 26.515625 48.1875 22.3125 43.546875 
Q 18.109375 38.921875 18.109375 30.90625 
L 18.109375 0 
L 9.078125 0 
L 9.078125 54.6875 
L 18.109375 54.6875 
L 18.109375 46.1875 
Q 21.34375 51.125 25.703125 53.5625 
Q 30.078125 56 35.796875 56 
Q 45.21875 56 50.046875 50.171875 
Q 54.890625 44.34375 54.890625 33.015625 
z
" id="DejaVuSans-110"/>
       <path d="M 8.015625 75.875 
L 15.828125 75.875 
Q 23.140625 64.359375 26.78125 53.3125 
Q 30.421875 42.28125 30.421875 31.390625 
Q 30.421875 20.453125 26.78125 9.375 
Q 23.140625 -1.703125 15.828125 -13.1875 
L 8.015625 -13.1875 
Q 14.5 -2 17.703125 9.0625 
Q 20.90625 20.125 20.90625 31.390625 
Q 20.90625 42.671875 17.703125 53.65625 
Q 14.5 64.65625 8.015625 75.875 
z
" id="DejaVuSans-41"/>
      </defs>
      <use xlink:href="#DejaVuSans-84"/>
      <use x="57.958984" xlink:href="#DejaVuSans-105"/>
      <use x="85.742188" xlink:href="#DejaVuSans-109"/>
      <use x="183.154297" xlink:href="#DejaVuSans-101"/>
      <use x="244.677734" xlink:href="#DejaVuSans-32"/>
      <use x="276.464844" xlink:href="#DejaVuSans-40"/>
      <use x="315.478516" xlink:href="#DejaVuSans-109"/>
      <use x="412.890625" xlink:href="#DejaVuSans-105"/>
      <use x="440.673828" xlink:href="#DejaVuSans-110"/>
      <use x="504.052734" xlink:href="#DejaVuSans-41"/>
     </g>
    </g>
    <g id="text_10">
     <!-- 1e6 -->
     <g transform="translate(395.841875 334.860562)scale(0.1 -0.1)">
      <use xlink:href="#DejaVuSans-49"/>
      <use x="63.623047" xlink:href="#DejaVuSans-101"/>
      <use x="125.146484" xlink:href="#DejaVuSans-54"/>
     </g>
    </g>
   </g>
   <g id="matplotlib.axis_2">
    <g id="ytick_1">
     <g id="line2d_9">
      <defs>
       <path d="M 0 0 
L -3.5 0 
" id="me61a1ec484" style="stroke:#000000;stroke-width:0.8;"/>
      </defs>
      <g>
       <use style="stroke:#000000;stroke-width:0.8;" x="57.6" xlink:href="#me61a1ec484" y="280.537289"/>
      </g>
     </g>
     <g id="text_11">
      <!-- 0 -->
      <g transform="translate(44.2375 284.336508)scale(0.1 -0.1)">
       <use xlink:href="#DejaVuSans-48"/>
      </g>
     </g>
    </g>
    <g id="ytick_2">
     <g id="line2d_10">
      <g>
       <use style="stroke:#000000;stroke-width:0.8;" x="57.6" xlink:href="#me61a1ec484" y="235.143431"/>
      </g>
     </g>
     <g id="text_12">
      <!-- 20 -->
      <g transform="translate(37.875 238.94265)scale(0.1 -0.1)">
       <use xlink:href="#DejaVuSans-50"/>
       <use x="63.623047" xlink:href="#DejaVuSans-48"/>
      </g>
     </g>
    </g>
    <g id="ytick_3">
     <g id="line2d_11">
      <g>
       <use style="stroke:#000000;stroke-width:0.8;" x="57.6" xlink:href="#me61a1ec484" y="189.749574"/>
      </g>
     </g>
     <g id="text_13">
      <!-- 40 -->
      <g transform="translate(37.875 193.548792)scale(0.1 -0.1)">
       <use xlink:href="#DejaVuSans-52"/>
       <use x="63.623047" xlink:href="#DejaVuSans-48"/>
      </g>
     </g>
    </g>
    <g id="ytick_4">
     <g id="line2d_12">
      <g>
       <use style="stroke:#000000;stroke-width:0.8;" x="57.6" xlink:href="#me61a1ec484" y="144.355716"/>
      </g>
     </g>
     <g id="text_14">
      <!-- 60 -->
      <g transform="translate(37.875 148.154934)scale(0.1 -0.1)">
       <use xlink:href="#DejaVuSans-54"/>
       <use x="63.623047" xlink:href="#DejaVuSans-48"/>
      </g>
     </g>
    </g>
    <g id="ytick_5">
     <g id="line2d_13">
      <g>
       <use style="stroke:#000000;stroke-width:0.8;" x="57.6" xlink:href="#me61a1ec484" y="98.961858"/>
      </g>
     </g>
     <g id="text_15">
      <!-- 80 -->
      <g transform="translate(37.875 102.761077)scale(0.1 -0.1)">
       <use xlink:href="#DejaVuSans-56"/>
       <use x="63.623047" xlink:href="#DejaVuSans-48"/>
      </g>
     </g>
    </g>
    <g id="ytick_6">
     <g id="line2d_14">
      <g>
       <use style="stroke:#000000;stroke-width:0.8;" x="57.6" xlink:href="#me61a1ec484" y="53.568"/>
      </g>
     </g>
     <g id="text_16">
      <!-- 100 -->
      <g transform="translate(31.5125 57.367219)scale(0.1 -0.1)">
       <use xlink:href="#DejaVuSans-49"/>
       <use x="63.623047" xlink:href="#DejaVuSans-48"/>
       <use x="127.246094" xlink:href="#DejaVuSans-48"/>
      </g>
     </g>
    </g>
    <g id="text_17">
     <!-- Density -->
     <g transform="translate(25.432812 193.536594)rotate(-90)scale(0.1 -0.1)">
      <defs>
       <path d="M 19.671875 64.796875 
L 19.671875 8.109375 
L 31.59375 8.109375 
Q 46.6875 8.109375 53.6875 14.9375 
Q 60.6875 21.78125 60.6875 36.53125 
Q 60.6875 51.171875 53.6875 57.984375 
Q 46.6875 64.796875 31.59375 64.796875 
z
M 9.8125 72.90625 
L 30.078125 72.90625 
Q 51.265625 72.90625 61.171875 64.09375 
Q 71.09375 55.28125 71.09375 36.53125 
Q 71.09375 17.671875 61.125 8.828125 
Q 51.171875 0 30.078125 0 
L 9.8125 0 
z
" id="DejaVuSans-68"/>
       <path d="M 44.28125 53.078125 
L 44.28125 44.578125 
Q 40.484375 46.53125 36.375 47.5 
Q 32.28125 48.484375 27.875 48.484375 
Q 21.1875 48.484375 17.84375 46.4375 
Q 14.5 44.390625 14.5 40.28125 
Q 14.5 37.15625 16.890625 35.375 
Q 19.28125 33.59375 26.515625 31.984375 
L 29.59375 31.296875 
Q 39.15625 29.25 43.1875 25.515625 
Q 47.21875 21.78125 47.21875 15.09375 
Q 47.21875 7.46875 41.1875 3.015625 
Q 35.15625 -1.421875 24.609375 -1.421875 
Q 20.21875 -1.421875 15.453125 -0.5625 
Q 10.6875 0.296875 5.421875 2 
L 5.421875 11.28125 
Q 10.40625 8.6875 15.234375 7.390625 
Q 20.0625 6.109375 24.8125 6.109375 
Q 31.15625 6.109375 34.5625 8.28125 
Q 37.984375 10.453125 37.984375 14.40625 
Q 37.984375 18.0625 35.515625 20.015625 
Q 33.0625 21.96875 24.703125 23.78125 
L 21.578125 24.515625 
Q 13.234375 26.265625 9.515625 29.90625 
Q 5.8125 33.546875 5.8125 39.890625 
Q 5.8125 47.609375 11.28125 51.796875 
Q 16.75 56 26.8125 56 
Q 31.78125 56 36.171875 55.265625 
Q 40.578125 54.546875 44.28125 53.078125 
z
" id="DejaVuSans-115"/>
       <path d="M 18.3125 70.21875 
L 18.3125 54.6875 
L 36.8125 54.6875 
L 36.8125 47.703125 
L 18.3125 47.703125 
L 18.3125 18.015625 
Q 18.3125 11.328125 20.140625 9.421875 
Q 21.96875 7.515625 27.59375 7.515625 
L 36.8125 7.515625 
L 36.8125 0 
L 27.59375 0 
Q 17.1875 0 13.234375 3.875 
Q 9.28125 7.765625 9.28125 18.015625 
L 9.28125 47.703125 
L 2.6875 47.703125 
L 2.6875 54.6875 
L 9.28125 54.6875 
L 9.28125 70.21875 
z
" id="DejaVuSans-116"/>
       <path d="M 32.171875 -5.078125 
Q 28.375 -14.84375 24.75 -17.8125 
Q 21.140625 -20.796875 15.09375 -20.796875 
L 7.90625 -20.796875 
L 7.90625 -13.28125 
L 13.1875 -13.28125 
Q 16.890625 -13.28125 18.9375 -11.515625 
Q 21 -9.765625 23.484375 -3.21875 
L 25.09375 0.875 
L 2.984375 54.6875 
L 12.5 54.6875 
L 29.59375 11.921875 
L 46.6875 54.6875 
L 56.203125 54.6875 
z
" id="DejaVuSans-121"/>
      </defs>
      <use xlink:href="#DejaVuSans-68"/>
      <use x="77.001953" xlink:href="#DejaVuSans-101"/>
      <use x="138.525391" xlink:href="#DejaVuSans-110"/>
      <use x="201.904297" xlink:href="#DejaVuSans-115"/>
      <use x="254.003906" xlink:href="#DejaVuSans-105"/>
      <use x="281.787109" xlink:href="#DejaVuSans-116"/>
      <use x="320.996094" xlink:href="#DejaVuSans-121"/>
     </g>
    </g>
   </g>
   <g id="line2d_15">
    <path clip-path="url(#p2629c9b3ba)" d="M 73.832727 280.537289 
L 398.487273 280.537289 
L 398.487273 280.537289 
" style="fill:none;stroke:#1f77b4;stroke-linecap:square;stroke-width:1.5;"/>
   </g>
   <g id="line2d_16">
    <path clip-path="url(#p2629c9b3ba)" d="M 73.832727 280.537289 
L 398.487273 280.537289 
L 398.487273 280.537289 
" style="fill:none;stroke:#ff7f0e;stroke-linecap:square;stroke-width:1.5;"/>
   </g>
   <g id="line2d_17">
    <path clip-path="url(#p2629c9b3ba)" d="M 73.832727 257.84036 
L 73.846255 257.688867 
L 73.954478 257.707503 
L 76.051292 257.956298 
L 398.487273 257.956295 
L 398.487273 257.956295 
" style="fill:none;stroke:#2ca02c;stroke-linecap:square;stroke-width:1.5;"/>
   </g>
   <g id="line2d_18">
    <path clip-path="url(#p2629c9b3ba)" d="M 73.832727 53.568 
L 73.859783 295.488 
L 73.954478 293.86771 
L 75.44254 268.946281 
L 75.456068 268.947912 
L 75.713097 268.933764 
L 75.821319 268.954855 
L 75.834847 268.933214 
L 76.024237 268.954357 
L 76.132459 268.93412 
L 76.145987 268.941411 
L 76.321849 268.954617 
L 76.4436 268.940679 
L 76.619462 268.95481 
L 76.741212 268.939941 
L 76.917074 268.954974 
L 77.038824 268.939199 
L 77.187631 268.945261 
L 77.336437 268.938454 
L 77.485243 268.945933 
L 77.634049 268.937709 
L 77.782855 268.946589 
L 77.918134 268.938688 
L 78.689221 268.927625 
L 78.797443 268.950361 
L 78.810971 268.940957 
L 79.054472 268.930262 
L 79.162695 268.95243 
L 79.176223 268.937542 
L 81.651817 268.953219 
L 81.760039 268.931191 
L 81.773567 268.944255 
L 82.152347 268.944922 
L 82.301153 268.938823 
L 82.449959 268.945602 
L 82.598765 268.938078 
L 82.747571 268.946266 
L 82.896378 268.937333 
L 83.045184 268.946914 
L 83.180462 268.939072 
L 83.721576 268.931239 
L 83.829798 268.953005 
L 83.843326 268.936397 
L 84.330328 268.955212 
L 84.452079 268.937705 
L 84.600885 268.946593 
L 84.736163 268.938692 
L 85.50725 268.927621 
L 85.615473 268.950358 
L 85.629001 268.940962 
L 85.872502 268.930258 
L 85.980724 268.952427 
L 85.994252 268.937546 
L 88.537485 268.950898 
L 88.645708 268.927578 
L 88.659236 268.947832 
L 89.078599 268.924176 
L 89.200349 268.949037 
L 89.308572 268.925672 
L 89.3221 268.949832 
L 89.538545 268.929476 
L 89.687352 268.952009 
L 89.836158 268.930151 
L 89.849686 268.945272 
L 90.620772 268.953715 
L 90.728995 268.932273 
L 90.742523 268.9432 
L 90.986024 268.952051 
L 91.094247 268.929147 
L 91.107774 268.946261 
L 95.436682 268.928157 
L 95.544905 268.950856 
L 95.558433 268.940217 
L 95.869573 268.934741 
L 96.004851 268.942842 
L 96.248352 268.952265 
L 96.356575 268.92948 
L 96.370103 268.945932 
L 99.954979 268.952669 
L 100.063202 268.930157 
L 100.07673 268.945266 
L 100.847817 268.953718 
L 100.956039 268.93228 
L 100.969567 268.943194 
L 101.213068 268.952055 
L 101.321291 268.929153 
L 101.334819 268.946255 
L 105.8937 268.925245 
L 106.01545 268.944936 
L 106.164256 268.938808 
L 106.313062 268.945616 
L 106.461869 268.938063 
L 106.610675 268.94628 
L 106.759481 268.937318 
L 106.908287 268.946927 
L 107.043566 268.939088 
L 107.584679 268.931226 
L 107.692902 268.952997 
L 107.70643 268.936413 
L 108.234015 268.942088 
L 108.409877 268.926399 
L 108.531628 268.942818 
L 108.707489 268.925974 
L 108.82924 268.943537 
L 109.005102 268.925589 
L 109.126852 268.944244 
L 109.275659 268.93955 
L 109.424465 268.944938 
L 109.573271 268.938806 
L 109.722077 268.945618 
L 109.870883 268.938061 
L 110.01969 268.946281 
L 110.168496 268.937316 
L 110.317302 268.946929 
L 110.45258 268.93909 
L 110.993694 268.931224 
L 111.101917 268.952996 
L 111.115444 268.936415 
L 111.670086 268.954279 
L 111.778308 268.933763 
L 111.791836 268.941753 
L 111.967698 268.954516 
L 112.075921 268.934515 
L 112.089449 268.941023 
L 112.26531 268.954723 
L 112.387061 268.940288 
L 112.562923 268.954901 
L 112.684673 268.939547 
L 112.83348 268.94494 
L 112.982286 268.938804 
L 113.131092 268.945619 
L 113.279898 268.938059 
L 113.428704 268.946283 
L 113.577511 268.937314 
L 113.726317 268.94693 
L 113.861595 268.939092 
L 114.402709 268.931222 
L 114.510931 268.952995 
L 114.524459 268.936417 
L 115.0791 268.95428 
L 115.187323 268.933765 
L 115.200851 268.941751 
L 115.376713 268.954516 
L 115.484936 268.934517 
L 115.498463 268.941021 
L 115.674325 268.954723 
L 115.796076 268.940286 
L 115.971938 268.954901 
L 116.093688 268.939545 
L 116.242494 268.944942 
L 116.391301 268.938802 
L 116.540107 268.945621 
L 116.688913 268.938057 
L 116.837719 268.946285 
L 116.986525 268.937311 
L 117.135332 268.946932 
L 117.27061 268.939094 
L 117.811723 268.93122 
L 117.919946 268.952994 
L 117.933474 268.936419 
L 118.488115 268.954281 
L 118.596338 268.933768 
L 118.609866 268.941749 
L 118.785728 268.954517 
L 118.89395 268.934519 
L 118.907478 268.941019 
L 119.08334 268.954724 
L 119.205091 268.940283 
L 119.380952 268.954901 
L 119.502703 268.939543 
L 119.651509 268.944944 
L 119.800315 268.9388 
L 119.949122 268.945623 
L 120.097928 268.938054 
L 120.246734 268.946287 
L 120.39554 268.937309 
L 120.544346 268.946934 
L 120.679625 268.939097 
L 121.220738 268.931218 
L 121.328961 268.952993 
L 121.342489 268.936422 
L 121.89713 268.954281 
L 122.005353 268.93377 
L 122.01888 268.941747 
L 122.194742 268.954518 
L 122.302965 268.934521 
L 122.316493 268.941017 
L 122.492355 268.954724 
L 122.614105 268.940281 
L 122.789967 268.954902 
L 122.911718 268.939541 
L 123.060524 268.944946 
L 123.20933 268.938797 
L 123.358136 268.945625 
L 123.506942 268.938052 
L 123.655749 268.946289 
L 123.804555 268.937307 
L 123.953361 268.946936 
L 124.088639 268.939099 
L 124.629753 268.931216 
L 124.737976 268.952992 
L 124.751503 268.936424 
L 125.306145 268.954282 
L 125.414367 268.933772 
L 125.427895 268.941744 
L 125.603757 268.954518 
L 125.71198 268.934523 
L 125.725508 268.941015 
L 125.90137 268.954725 
L 126.02312 268.940279 
L 126.198982 268.954902 
L 126.320732 268.939539 
L 126.469539 268.944948 
L 126.618345 268.938795 
L 126.767151 268.945627 
L 126.915957 268.93805 
L 127.064763 268.946291 
L 127.21357 268.937305 
L 127.362376 268.946938 
L 127.497654 268.939101 
L 128.038768 268.931214 
L 128.14699 268.952991 
L 128.160518 268.936426 
L 128.715159 268.954283 
L 128.823382 268.933774 
L 128.83691 268.941742 
L 129.012772 268.954519 
L 129.120995 268.934526 
L 129.134522 268.941013 
L 129.310384 268.954726 
L 129.432135 268.940277 
L 129.607997 268.954903 
L 129.729747 268.939537 
L 129.878553 268.94495 
L 130.02736 268.938793 
L 130.176166 268.945629 
L 130.324972 268.938048 
L 130.473778 268.946293 
L 130.622584 268.937303 
L 130.771391 268.94694 
L 130.906669 268.939103 
L 131.447782 268.931212 
L 131.556005 268.95299 
L 131.569533 268.936428 
L 132.124174 268.954284 
L 132.232397 268.933776 
L 132.245925 268.94174 
L 132.421787 268.954519 
L 132.530009 268.934528 
L 132.543537 268.941011 
L 132.719399 268.954726 
L 132.84115 268.940275 
L 133.017011 268.954903 
L 133.138762 268.939534 
L 133.287568 268.944952 
L 133.436374 268.938791 
L 133.585181 268.945631 
L 133.733987 268.938046 
L 133.882793 268.946295 
L 134.031599 268.937301 
L 134.180405 268.946942 
L 134.315684 268.939106 
L 134.856797 268.93121 
L 134.96502 268.952989 
L 134.978548 268.936431 
L 135.533189 268.954284 
L 135.641412 268.933778 
L 135.65494 268.941738 
L 135.830801 268.95452 
L 135.939024 268.93453 
L 135.952552 268.941008 
L 136.128414 268.954727 
L 136.250164 268.940273 
L 136.426026 268.954904 
L 136.547777 268.939532 
L 136.696583 268.944954 
L 136.845389 268.938789 
L 136.994195 268.945633 
L 137.143002 268.938044 
L 137.291808 268.946297 
L 137.440614 268.937298 
L 137.58942 268.946944 
L 137.724699 268.939108 
L 138.265812 268.931208 
L 138.374035 268.952988 
L 138.387563 268.936433 
L 138.942204 268.954285 
L 139.050426 268.933781 
L 139.063954 268.941736 
L 139.239816 268.954521 
L 139.348039 268.934532 
L 139.361567 268.941006 
L 139.537429 268.954727 
L 139.659179 268.940271 
L 139.835041 268.954904 
L 139.956792 268.93953 
L 140.105598 268.944956 
L 140.254404 268.938787 
L 140.40321 268.945635 
L 140.552016 268.938041 
L 140.700823 268.946299 
L 140.849629 268.937296 
L 140.998435 268.946945 
L 141.133713 268.93911 
L 141.674827 268.931206 
L 141.783049 268.952987 
L 141.796577 268.936435 
L 142.351219 268.954286 
L 142.459441 268.933783 
L 142.472969 268.941734 
L 142.648831 268.954521 
L 142.757054 268.934534 
L 142.770582 268.941004 
L 142.946443 268.954728 
L 143.068194 268.940268 
L 143.244056 268.954905 
L 143.365806 268.939528 
L 143.514613 268.944958 
L 143.663419 268.938784 
L 143.812225 268.945637 
L 143.961031 268.938039 
L 144.109837 268.946301 
L 144.258644 268.937294 
L 144.40745 268.946947 
L 144.542728 268.939112 
L 145.083842 268.931204 
L 145.192064 268.952985 
L 145.205592 268.936437 
L 145.760233 268.954287 
L 145.868456 268.933785 
L 145.881984 268.941732 
L 146.057846 268.954522 
L 146.166068 268.934537 
L 146.179596 268.941002 
L 146.355458 268.954728 
L 146.477209 268.940266 
L 146.653071 268.954905 
L 146.774821 268.939526 
L 146.923627 268.94496 
L 147.072433 268.938782 
L 147.22124 268.945639 
L 147.370046 268.938037 
L 147.518852 268.946302 
L 147.667658 268.937292 
L 147.816464 268.946949 
L 147.951743 268.939115 
L 148.492856 268.931202 
L 148.601079 268.952984 
L 148.614607 268.93644 
L 149.169248 268.954287 
L 149.277471 268.933787 
L 149.290999 268.94173 
L 149.466861 268.954523 
L 149.575083 268.934539 
L 149.588611 268.941 
L 149.764473 268.954729 
L 149.886223 268.940264 
L 150.062085 268.954906 
L 150.183836 268.939524 
L 150.332642 268.944962 
L 150.481448 268.93878 
L 150.630254 268.945641 
L 150.779061 268.938035 
L 150.927867 268.946304 
L 151.076673 268.93729 
L 151.225479 268.946951 
L 151.360758 268.939117 
L 151.901871 268.931201 
L 152.010094 268.952983 
L 152.023622 268.936442 
L 152.578263 268.954288 
L 152.686486 268.933789 
L 152.700013 268.941728 
L 152.875875 268.954523 
L 152.984098 268.934541 
L 152.997626 268.940998 
L 153.173488 268.95473 
L 153.295238 268.940262 
L 153.4711 268.954906 
L 153.592851 268.939521 
L 153.741657 268.944964 
L 153.890463 268.938778 
L 154.039269 268.945643 
L 154.188075 268.938033 
L 154.336882 268.946306 
L 154.485688 268.937287 
L 154.634494 268.946953 
L 154.769772 268.939119 
L 155.310886 268.931199 
L 155.419109 268.952982 
L 155.432636 268.936444 
L 155.987278 268.954289 
L 156.0955 268.933792 
L 156.109028 268.941725 
L 156.28489 268.954524 
L 156.393113 268.934543 
L 156.406641 268.940996 
L 156.582502 268.95473 
L 156.704253 268.94026 
L 156.880115 268.954907 
L 157.001865 268.939519 
L 157.150672 268.944966 
L 157.299478 268.938776 
L 157.448284 268.945645 
L 157.59709 268.93803 
L 157.745896 268.946308 
L 157.894703 268.937285 
L 158.043509 268.946955 
L 158.178787 268.939121 
L 158.719901 268.931197 
L 158.828123 268.952981 
L 158.841651 268.936446 
L 159.396292 268.954289 
L 159.504515 268.933794 
L 159.518043 268.941723 
L 159.693905 268.954525 
L 159.802128 268.934545 
L 159.815655 268.940994 
L 159.991517 268.954731 
L 160.113268 268.940258 
L 160.28913 268.954907 
L 160.41088 268.939517 
L 160.559686 268.944968 
L 160.708493 268.938773 
L 160.857299 268.945647 
L 161.006105 268.938028 
L 161.154911 268.94631 
L 161.303717 268.937283 
L 161.452524 268.946957 
L 161.587802 268.939123 
L 162.128915 268.931195 
L 162.237138 268.95298 
L 162.250666 268.936448 
L 162.805307 268.95429 
L 162.91353 268.933796 
L 162.927058 268.941721 
L 163.10292 268.954525 
L 163.211142 268.934548 
L 163.22467 268.940991 
L 163.400532 268.954731 
L 163.522283 268.940255 
L 163.698144 268.954908 
L 163.819895 268.939515 
L 163.968701 268.94497 
L 164.117507 268.938771 
L 164.266314 268.945649 
L 164.41512 268.938026 
L 164.563926 268.946312 
L 164.712732 268.937281 
L 164.861538 268.946958 
L 164.996817 268.939126 
L 165.53793 268.931193 
L 165.646153 268.952979 
L 165.659681 268.936451 
L 166.214322 268.954291 
L 166.322545 268.933798 
L 166.336072 268.941719 
L 166.511934 268.954526 
L 166.620157 268.93455 
L 166.633685 268.940989 
L 166.809547 268.954732 
L 166.931297 268.940253 
L 167.107159 268.954908 
L 167.22891 268.939513 
L 167.377716 268.944972 
L 167.526522 268.938769 
L 167.675328 268.945651 
L 167.824134 268.938024 
L 167.972941 268.946314 
L 168.121747 268.937279 
L 168.270553 268.94696 
L 168.405831 268.939128 
L 168.946945 268.931191 
L 169.055168 268.952978 
L 169.068695 268.936453 
L 169.623337 268.954292 
L 169.731559 268.9338 
L 169.745087 268.941717 
L 169.920949 268.954527 
L 170.029172 268.934552 
L 170.0427 268.940987 
L 170.218562 268.954732 
L 170.340312 268.940251 
L 170.516174 268.954909 
L 170.637924 268.939511 
L 170.786731 268.944974 
L 170.935537 268.938767 
L 171.084343 268.945653 
L 171.233149 268.938022 
L 171.381955 268.946316 
L 171.530762 268.937277 
L 171.679568 268.946962 
L 171.814846 268.93913 
L 172.35596 268.931189 
L 172.464182 268.952977 
L 172.47771 268.936455 
L 173.032351 268.954292 
L 173.140574 268.933802 
L 173.154102 268.941715 
L 173.329964 268.954527 
L 173.438187 268.934554 
L 173.451714 268.940985 
L 173.627576 268.954733 
L 173.749327 268.940249 
L 173.925189 268.954909 
L 174.046939 268.939508 
L 174.195745 268.944976 
L 174.344552 268.938765 
L 174.493358 268.945655 
L 174.642164 268.93802 
L 174.79097 268.946318 
L 174.939776 268.937274 
L 175.088583 268.946964 
L 175.223861 268.939132 
L 175.764974 268.931187 
L 175.873197 268.952976 
L 175.886725 268.936457 
L 176.441366 268.954293 
L 176.549589 268.933805 
L 176.563117 268.941713 
L 176.738979 268.954528 
L 176.847201 268.934556 
L 176.860729 268.940983 
L 177.036591 268.954733 
L 177.158342 268.940247 
L 177.334203 268.95491 
L 177.455954 268.939506 
L 177.60476 268.944978 
L 177.753566 268.938763 
L 177.902373 268.945657 
L 178.051179 268.938017 
L 178.199985 268.94632 
L 178.348791 268.937272 
L 178.497597 268.946966 
L 178.632876 268.939135 
L 179.173989 268.931185 
L 179.282212 268.952975 
L 179.29574 268.93646 
L 179.850381 268.954294 
L 179.958604 268.933807 
L 179.972132 268.941711 
L 180.147993 268.954529 
L 180.256216 268.934559 
L 180.269744 268.940981 
L 180.445606 268.954734 
L 180.567356 268.940245 
L 180.743218 268.95491 
L 180.864969 268.939504 
L 181.013775 268.94498 
L 181.162581 268.93876 
L 181.311387 268.945659 
L 181.460194 268.938015 
L 181.609 268.946322 
L 181.757806 268.93727 
L 181.906612 268.946968 
L 182.041891 268.939137 
L 182.583004 268.931183 
L 182.691227 268.952974 
L 182.704755 268.936462 
L 183.259396 268.954295 
L 183.367618 268.933809 
L 183.381146 268.941708 
L 183.557008 268.954529 
L 183.665231 268.934561 
L 183.678759 268.940979 
L 183.854621 268.954735 
L 183.976371 268.940243 
L 184.152233 268.95491 
L 184.273984 268.939502 
L 184.42279 268.944982 
L 184.571596 268.938758 
L 184.720402 268.945661 
L 184.869208 268.938013 
L 185.018015 268.946324 
L 185.166821 268.937268 
L 185.315627 268.94697 
L 185.450905 268.939139 
L 185.992019 268.931181 
L 186.100241 268.952973 
L 186.113769 268.936464 
L 186.668411 268.954295 
L 186.776633 268.933811 
L 186.790161 268.941706 
L 186.966023 268.95453 
L 187.074246 268.934563 
L 187.087774 268.940976 
L 187.263635 268.954735 
L 187.385386 268.94024 
L 187.561248 268.954911 
L 187.682998 268.9395 
L 187.831805 268.944984 
L 187.980611 268.938756 
L 188.129417 268.945663 
L 188.278223 268.938011 
L 188.427029 268.946325 
L 188.575836 268.937266 
L 188.724642 268.946971 
L 188.85992 268.939141 
L 189.401034 268.931179 
L 189.509256 268.952972 
L 189.522784 268.936466 
L 190.077425 268.954296 
L 190.185648 268.933813 
L 190.199176 268.941704 
L 190.375038 268.95453 
L 190.48326 268.934565 
L 190.496788 268.940974 
L 190.67265 268.954736 
L 190.794401 268.940238 
L 190.970263 268.954911 
L 191.092013 268.939498 
L 191.240819 268.944986 
L 191.389625 268.938754 
L 191.538432 268.945665 
L 191.687238 268.938009 
L 191.836044 268.946327 
L 191.98485 268.937264 
L 192.133656 268.946973 
L 192.268935 268.939143 
L 192.810048 268.931177 
L 192.918271 268.95297 
L 192.931799 268.936469 
L 193.48644 268.954297 
L 193.594663 268.933816 
L 193.608191 268.941702 
L 193.784053 268.954531 
L 193.892275 268.934567 
L 193.905803 268.940972 
L 194.081665 268.954736 
L 194.203415 268.940236 
L 194.379277 268.954912 
L 194.501028 268.939495 
L 194.649834 268.944988 
L 194.79864 268.938752 
L 194.947446 268.945667 
L 195.096253 268.938007 
L 195.245059 268.946329 
L 195.393865 268.937261 
L 195.542671 268.946975 
L 195.67795 268.939146 
L 196.219063 268.931175 
L 196.327286 268.952969 
L 196.340814 268.936471 
L 196.895455 268.954297 
L 197.003678 268.933818 
L 197.017205 268.9417 
L 197.193067 268.954532 
L 197.30129 268.93457 
L 197.314818 268.94097 
L 197.49068 268.954737 
L 197.61243 268.940234 
L 197.788292 268.954912 
L 197.910043 268.939493 
L 198.058849 268.94499 
L 198.207655 268.93875 
L 198.356461 268.945668 
L 198.505267 268.938004 
L 198.654074 268.946331 
L 198.80288 268.937259 
L 198.951686 268.946977 
L 199.086964 268.939148 
L 199.628078 268.931173 
L 199.736301 268.952968 
L 199.749828 268.936473 
L 200.30447 268.954298 
L 200.412692 268.93382 
L 200.42622 268.941698 
L 200.602082 268.954532 
L 200.710305 268.934572 
L 200.723833 268.940968 
L 200.899694 268.954737 
L 201.021445 268.940232 
L 201.197307 268.954913 
L 201.319057 268.939491 
L 201.467864 268.944992 
L 201.61667 268.938747 
L 201.765476 268.94567 
L 201.914282 268.938002 
L 202.063088 268.946333 
L 202.211895 268.937257 
L 202.360701 268.946979 
L 202.495979 268.93915 
L 203.037093 268.931171 
L 203.145315 268.952967 
L 203.158843 268.936475 
L 203.713484 268.954299 
L 203.821707 268.933822 
L 203.835235 268.941696 
L 204.011097 268.954533 
L 204.11932 268.934574 
L 204.132847 268.940966 
L 204.308709 268.954738 
L 204.43046 268.94023 
L 204.606322 268.954913 
L 204.728072 268.939489 
L 204.876878 268.944994 
L 205.025685 268.938745 
L 205.174491 268.945672 
L 205.323297 268.938 
L 205.472103 268.946335 
L 205.620909 268.937255 
L 205.769716 268.946981 
L 205.904994 268.939152 
L 206.446107 268.931169 
L 206.55433 268.952966 
L 206.567858 268.936477 
L 207.122499 268.9543 
L 207.230722 268.933824 
L 207.24425 268.941694 
L 207.420112 268.954534 
L 207.528334 268.934576 
L 207.541862 268.940964 
L 207.717724 268.954738 
L 207.839475 268.940227 
L 208.015336 268.954914 
L 208.137087 268.939487 
L 208.285893 268.944996 
L 208.434699 268.938743 
L 208.583506 268.945674 
L 208.732312 268.937998 
L 208.881118 268.946337 
L 209.029924 268.937253 
L 209.17873 268.946983 
L 209.314009 268.939154 
L 209.855122 268.931167 
L 209.963345 268.952965 
L 209.976873 268.93648 
L 210.531514 268.9543 
L 210.639737 268.933827 
L 210.653264 268.941691 
L 210.829126 268.954534 
L 210.937349 268.934578 
L 210.950877 268.940961 
L 211.126739 268.954739 
L 211.248489 268.940225 
L 211.424351 268.954914 
L 211.546102 268.939485 
L 211.694908 268.944998 
L 211.843714 268.938741 
L 211.99252 268.945676 
L 212.141326 268.937996 
L 212.290133 268.946339 
L 212.438939 268.937251 
L 212.587745 268.946984 
L 212.723023 268.939157 
L 213.264137 268.931166 
L 213.37236 268.952964 
L 213.385887 268.936482 
L 213.940529 268.954301 
L 214.048751 268.933829 
L 214.062279 268.941689 
L 214.238141 268.954535 
L 214.346364 268.934581 
L 214.359892 268.940959 
L 214.535754 268.95474 
L 214.657504 268.940223 
L 214.833366 268.954915 
L 214.955116 268.939482 
L 215.103923 268.945 
L 215.252729 268.938739 
L 215.401535 268.945678 
L 215.550341 268.937993 
L 215.699147 268.946341 
L 215.847954 268.937248 
L 215.99676 268.946986 
L 216.132038 268.939159 
L 216.673152 268.931164 
L 216.781374 268.952963 
L 216.794902 268.936484 
L 217.349544 268.954302 
L 217.457766 268.933831 
L 217.471294 268.941687 
L 217.647156 268.954536 
L 217.755379 268.934583 
L 217.768906 268.940957 
L 217.944768 268.95474 
L 218.066519 268.940221 
L 218.242381 268.954915 
L 218.364131 268.93948 
L 218.512937 268.945002 
L 218.661744 268.938737 
L 218.81055 268.94568 
L 218.959356 268.937991 
L 219.108162 268.946343 
L 219.256968 268.937246 
L 219.405775 268.946988 
L 219.541053 268.939161 
L 220.082166 268.931162 
L 220.190389 268.952962 
L 220.203917 268.936486 
L 220.758558 268.954303 
L 220.866781 268.933833 
L 220.880309 268.941685 
L 221.056171 268.954536 
L 221.164393 268.934585 
L 221.177921 268.940955 
L 221.353783 268.954741 
L 221.475534 268.940219 
L 221.651395 268.954916 
L 221.773146 268.939478 
L 221.921952 268.945004 
L 222.070758 268.938734 
L 222.219565 268.945682 
L 222.368371 268.937989 
L 222.517177 268.946345 
L 222.665983 268.937244 
L 222.814789 268.94699 
L 222.950068 268.939163 
L 223.491181 268.93116 
L 223.599404 268.952961 
L 223.612932 268.936489 
L 224.167573 268.954303 
L 224.275796 268.933835 
L 224.289324 268.941683 
L 224.465185 268.954537 
L 224.573408 268.934587 
L 224.586936 268.940953 
L 224.762798 268.954741 
L 224.884548 268.940217 
L 225.06041 268.954916 
L 225.182161 268.939476 
L 225.330967 268.945006 
L 225.479773 268.938732 
L 225.628579 268.945684 
L 225.777386 268.937987 
L 225.926192 268.946346 
L 226.074998 268.937242 
L 226.223804 268.946992 
L 226.359083 268.939166 
L 226.900196 268.931158 
L 227.008419 268.95296 
L 227.021947 268.936491 
L 227.576588 268.954304 
L 227.684811 268.933837 
L 227.698338 268.941681 
L 227.8742 268.954537 
L 227.982423 268.934589 
L 227.995951 268.940951 
L 228.171813 268.954742 
L 228.293563 268.940214 
L 228.469425 268.954917 
L 228.591176 268.939474 
L 228.739982 268.945008 
L 228.888788 268.93873 
L 229.037594 268.945686 
L 229.1864 268.937985 
L 229.335207 268.946348 
L 229.484013 268.93724 
L 229.632819 268.946994 
L 229.768097 268.939168 
L 230.309211 268.931156 
L 230.417433 268.952959 
L 230.430961 268.936493 
L 230.985603 268.954305 
L 231.093825 268.93384 
L 231.107353 268.941679 
L 231.283215 268.954538 
L 231.391438 268.934592 
L 231.404966 268.940949 
L 231.580827 268.954742 
L 231.702578 268.940212 
L 231.87844 268.954917 
L 232.00019 268.939472 
L 232.148997 268.94501 
L 232.297803 268.938728 
L 232.446609 268.945688 
L 232.595415 268.937983 
L 232.744221 268.94635 
L 232.893028 268.937237 
L 233.041834 268.946996 
L 233.177112 268.93917 
L 233.718226 268.931154 
L 233.826448 268.952958 
L 233.839976 268.936495 
L 234.394617 268.954305 
L 234.50284 268.933842 
L 234.516368 268.941677 
L 234.69223 268.954539 
L 234.800452 268.934594 
L 234.81398 268.940946 
L 234.989842 268.954743 
L 235.111593 268.94021 
L 235.287455 268.954917 
L 235.409205 268.939469 
L 235.558011 268.945012 
L 235.706817 268.938726 
L 235.855624 268.94569 
L 236.00443 268.93798 
L 236.153236 268.946352 
L 236.302042 268.937235 
L 236.450848 268.946998 
L 236.586127 268.939172 
L 237.12724 268.931152 
L 237.235463 268.952956 
L 237.248991 268.936498 
L 237.803632 268.954306 
L 237.911855 268.933844 
L 237.925383 268.941675 
L 238.101245 268.954539 
L 238.209467 268.934596 
L 238.222995 268.940944 
L 238.398857 268.954743 
L 238.520607 268.940208 
L 238.696469 268.954918 
L 238.81822 268.939467 
L 238.967026 268.945014 
L 239.115832 268.938723 
L 239.264638 268.945692 
L 239.413445 268.937978 
L 239.562251 268.946354 
L 239.711057 268.937233 
L 239.859863 268.946999 
L 239.995142 268.939174 
L 240.536255 268.93115 
L 240.644478 268.952955 
L 240.658006 268.9365 
L 241.212647 268.954307 
L 241.32087 268.933846 
L 241.334397 268.941672 
L 241.510259 268.95454 
L 241.618482 268.934598 
L 241.63201 268.940942 
L 241.807872 268.954744 
L 241.929622 268.940206 
L 242.105484 268.954918 
L 242.227235 268.939465 
L 242.376041 268.945016 
L 242.524847 268.938721 
L 242.673653 268.945694 
L 242.822459 268.937976 
L 242.971266 268.946356 
L 243.120072 268.937231 
L 243.268878 268.947001 
L 243.404156 268.939177 
L 243.94527 268.931148 
L 244.053493 268.952954 
L 244.06702 268.936502 
L 244.621662 268.954308 
L 244.729884 268.933848 
L 244.743412 268.94167 
L 244.919274 268.954541 
L 245.027497 268.934601 
L 245.041025 268.94094 
L 245.216886 268.954745 
L 245.338637 268.940204 
L 245.514499 268.954919 
L 245.636249 268.939463 
L 245.785056 268.945018 
L 245.933862 268.938719 
L 246.082668 268.945696 
L 246.231474 268.937974 
L 246.38028 268.946358 
L 246.529087 268.937229 
L 246.677893 268.947003 
L 246.813171 268.939179 
L 247.354285 268.931146 
L 247.462507 268.952953 
L 247.476035 268.936504 
L 248.030676 268.954308 
L 248.138899 268.933851 
L 248.152427 268.941668 
L 248.328289 268.954541 
L 248.436512 268.934603 
L 248.450039 268.940938 
L 248.625901 268.954745 
L 248.747652 268.940202 
L 248.923514 268.954919 
L 249.045264 268.939461 
L 249.19407 268.94502 
L 249.342877 268.938717 
L 249.491683 268.945698 
L 249.640489 268.937972 
L 249.789295 268.94636 
L 249.938101 268.937227 
L 250.086908 268.947005 
L 250.222186 268.939181 
L 250.763299 268.931144 
L 250.871522 268.952952 
L 250.88505 268.936507 
L 251.439691 268.954309 
L 251.547914 268.933853 
L 251.561442 268.941666 
L 251.737304 268.954542 
L 251.845526 268.934605 
L 251.859054 268.940936 
L 252.034916 268.954746 
L 252.156667 268.940199 
L 252.332528 268.95492 
L 252.454279 268.939459 
L 252.603085 268.945022 
L 252.751891 268.938715 
L 252.900698 268.9457 
L 253.049504 268.93797 
L 253.19831 268.946362 
L 253.347116 268.937224 
L 253.495922 268.947007 
L 253.631201 268.939183 
L 254.104675 268.92781 
L 254.212898 268.950539 
L 254.226425 268.940695 
L 254.469927 268.930487 
L 254.578149 268.952569 
L 254.591677 268.937274 
L 255.876822 268.951444 
L 255.985044 268.928277 
L 255.998572 268.947127 
L 256.688492 268.933204 
L 256.82377 268.941298 
L 256.999632 268.954648 
L 257.121382 268.940565 
L 257.297244 268.954837 
L 257.418995 268.939826 
L 257.567801 268.944681 
L 257.716607 268.939084 
L 257.865413 268.945366 
L 258.01422 268.938339 
L 258.163026 268.946036 
L 258.311832 268.937594 
L 258.460638 268.946689 
L 258.595917 268.938806 
L 259.272308 268.939454 
L 259.421115 268.945026 
L 259.569921 268.93871 
L 259.718727 268.945704 
L 259.867533 268.937965 
L 260.016339 268.946366 
L 260.165146 268.93722 
L 260.313952 268.947011 
L 260.44923 268.939188 
L 260.922705 268.927807 
L 261.030927 268.950536 
L 261.044455 268.9407 
L 261.287956 268.930483 
L 261.396179 268.952567 
L 261.409707 268.937279 
L 262.694851 268.951447 
L 262.803074 268.928281 
L 262.816602 268.947124 
L 263.506521 268.9332 
L 263.6418 268.941294 
L 263.817661 268.95465 
L 263.939412 268.940561 
L 264.115274 268.954838 
L 264.237024 268.939822 
L 264.385831 268.944685 
L 264.534637 268.939079 
L 264.683443 268.94537 
L 264.832249 268.938335 
L 264.981055 268.94604 
L 265.129862 268.937589 
L 265.278668 268.946693 
L 265.413946 268.93881 
L 266.090338 268.93945 
L 266.239144 268.94503 
L 266.38795 268.938706 
L 266.536757 268.945708 
L 266.685563 268.937961 
L 266.834369 268.946369 
L 266.983175 268.937216 
L 267.131981 268.947014 
L 267.26726 268.939192 
L 267.740734 268.927804 
L 267.848957 268.950533 
L 267.862485 268.940704 
L 268.105986 268.930479 
L 268.214208 268.952565 
L 268.227736 268.937283 
L 269.512881 268.95145 
L 269.621103 268.928284 
L 269.634631 268.94712 
L 270.324551 268.933196 
L 270.459829 268.94129 
L 270.635691 268.954651 
L 270.757442 268.940556 
L 270.933303 268.954839 
L 271.055054 268.939818 
L 271.20386 268.944689 
L 271.352666 268.939075 
L 271.501473 268.945374 
L 271.650279 268.93833 
L 271.799085 268.946043 
L 271.947891 268.937585 
L 272.096697 268.946697 
L 272.231976 268.938815 
L 272.908368 268.939446 
L 273.057174 268.945034 
L 273.20598 268.938702 
L 273.354786 268.945712 
L 273.503592 268.937956 
L 273.652399 268.946373 
L 273.801205 268.937211 
L 273.950011 268.947018 
L 274.085289 268.939197 
L 274.558764 268.927801 
L 274.666986 268.95053 
L 274.680514 268.940708 
L 274.924015 268.930475 
L 275.032238 268.952562 
L 275.045766 268.937288 
L 276.33091 268.951452 
L 276.439133 268.928288 
L 276.452661 268.947116 
L 277.14258 268.933191 
L 277.277859 268.941286 
L 277.453721 268.954652 
L 277.575471 268.940552 
L 277.751333 268.95484 
L 277.873083 268.939813 
L 278.02189 268.944693 
L 278.170696 268.939071 
L 278.319502 268.945378 
L 278.468308 268.938326 
L 278.617115 268.946047 
L 278.765921 268.937581 
L 278.914727 268.946701 
L 279.050005 268.938819 
L 279.726397 268.939441 
L 279.875203 268.945038 
L 280.024009 268.938697 
L 280.172816 268.945715 
L 280.321622 268.937952 
L 280.470428 268.946377 
L 280.619234 268.937207 
L 280.76804 268.947022 
L 280.903319 268.939201 
L 281.376793 268.927798 
L 281.485016 268.950527 
L 281.498544 268.940713 
L 281.742045 268.930472 
L 281.850267 268.95256 
L 281.863795 268.937292 
L 283.216579 268.948554 
L 283.351857 268.941088 
L 283.595358 268.93015 
L 283.703581 268.952358 
L 283.717109 268.937676 
L 288.641241 268.954056 
L 288.749464 268.933132 
L 288.762992 268.942366 
L 289.006493 268.952536 
L 289.114716 268.929927 
L 289.128243 268.945492 
L 290.196942 268.953915 
L 290.305165 268.932764 
L 290.318693 268.942723 
L 290.562194 268.952333 
L 290.670417 268.929591 
L 290.683945 268.945822 
L 292.943093 268.954752 
L 293.064844 268.940174 
L 293.240706 268.954925 
L 293.362456 268.939433 
L 293.511262 268.945046 
L 293.660069 268.938689 
L 293.808875 268.945723 
L 293.957681 268.937943 
L 294.106487 268.946385 
L 294.255293 268.937198 
L 294.4041 268.947029 
L 294.539378 268.93921 
L 295.012852 268.927792 
L 295.121075 268.950521 
L 295.134603 268.940722 
L 295.378104 268.930464 
L 295.486326 268.952555 
L 295.499854 268.937301 
L 296.852638 268.948561 
L 296.987916 268.941097 
L 297.231417 268.930143 
L 297.33964 268.952354 
L 297.353168 268.937685 
L 302.574913 268.95432 
L 302.683135 268.933886 
L 302.696663 268.941634 
L 302.872525 268.954551 
L 302.980748 268.934638 
L 302.994276 268.940904 
L 303.170138 268.954754 
L 303.291888 268.940167 
L 303.46775 268.954927 
L 303.5895 268.939426 
L 303.738307 268.945052 
L 303.887113 268.938682 
L 304.035919 268.945729 
L 304.184725 268.937937 
L 304.333531 268.94639 
L 304.482338 268.937192 
L 304.631144 268.947035 
L 304.766422 268.939217 
L 305.239897 268.927787 
L 305.348119 268.950517 
L 305.361647 268.940728 
L 305.605148 268.930458 
L 305.713371 268.952552 
L 305.726899 268.937308 
L 307.106738 268.955319 
L 307.228488 268.934609 
L 307.363767 268.942713 
L 307.607268 268.952339 
L 307.715491 268.929601 
L 307.729018 268.945813 
L 309.920528 268.955334 
L 310.042278 268.936075 
L 310.191085 268.94797 
L 310.326363 268.940356 
L 310.637503 268.934607 
L 310.772782 268.942711 
L 311.016283 268.952341 
L 311.124505 268.929603 
L 311.138033 268.945811 
L 313.329543 268.955334 
L 313.451293 268.936073 
L 313.600099 268.947972 
L 313.735378 268.940358 
L 314.046518 268.934605 
L 314.181796 268.942709 
L 314.425297 268.952342 
L 314.53352 268.929605 
L 314.547048 268.945809 
L 316.643863 268.950495 
L 316.752085 268.927107 
L 316.765613 268.948313 
L 317.090281 268.93144 
L 317.198504 268.953113 
L 317.212032 268.936168 
L 317.671978 268.945737 
L 317.820784 268.937928 
L 317.969591 268.946398 
L 318.118397 268.937183 
L 318.267203 268.947042 
L 318.402481 268.939226 
L 318.875956 268.927781 
L 318.984178 268.950511 
L 318.997706 268.940737 
L 319.241207 268.930451 
L 319.34943 268.952547 
L 319.362958 268.937317 
L 320.810436 268.955072 
L 320.932187 268.938671 
L 321.080993 268.945739 
L 321.229799 268.937926 
L 321.378605 268.9464 
L 321.527412 268.937181 
L 321.676218 268.947044 
L 321.811496 268.939228 
L 322.28497 268.927779 
L 322.393193 268.950509 
L 322.406721 268.940739 
L 322.650222 268.930449 
L 322.758445 268.952546 
L 322.771972 268.937319 
L 324.219451 268.955072 
L 324.341201 268.938669 
L 324.490008 268.945741 
L 324.638814 268.937924 
L 324.78762 268.946402 
L 324.936426 268.937179 
L 325.085232 268.947046 
L 325.220511 268.93923 
L 325.693985 268.927777 
L 325.802208 268.950508 
L 325.815736 268.940741 
L 326.059237 268.930447 
L 326.167459 268.952545 
L 326.180987 268.937321 
L 327.628466 268.955072 
L 327.750216 268.938667 
L 327.899022 268.945743 
L 328.047829 268.937922 
L 328.196635 268.946404 
L 328.345441 268.937177 
L 328.494247 268.947048 
L 328.629526 268.939232 
L 329.103 268.927776 
L 329.211223 268.950507 
L 329.22475 268.940743 
L 329.468251 268.930445 
L 329.576474 268.952544 
L 329.590002 268.937323 
L 331.037481 268.955073 
L 331.159231 268.938665 
L 331.308037 268.945745 
L 331.456843 268.937919 
L 331.60565 268.946406 
L 331.754456 268.937174 
L 331.903262 268.947049 
L 332.03854 268.939234 
L 332.512015 268.927774 
L 332.620237 268.950505 
L 332.633765 268.940746 
L 332.877266 268.930443 
L 332.985489 268.952543 
L 332.999017 268.937326 
L 334.446495 268.955073 
L 334.568246 268.938663 
L 334.717052 268.945747 
L 334.865858 268.937917 
L 335.014664 268.946407 
L 335.163471 268.937172 
L 335.312277 268.947051 
L 335.447555 268.939237 
L 335.921029 268.927773 
L 336.029252 268.950504 
L 336.04278 268.940748 
L 336.286281 268.930441 
L 336.394504 268.952541 
L 336.408032 268.937328 
L 337.85551 268.955074 
L 337.977261 268.93866 
L 338.126067 268.945749 
L 338.274873 268.937915 
L 338.423679 268.946409 
L 338.572485 268.93717 
L 338.721292 268.947053 
L 338.85657 268.939239 
L 339.330044 268.927771 
L 339.438267 268.950502 
L 339.451795 268.94075 
L 339.695296 268.93044 
L 339.803518 268.95254 
L 339.817046 268.93733 
L 341.264525 268.955074 
L 341.386275 268.938658 
L 341.535082 268.945751 
L 341.683888 268.937913 
L 341.832694 268.946411 
L 341.9815 268.937168 
L 342.130306 268.947055 
L 342.265585 268.939241 
L 342.739059 268.92777 
L 342.847282 268.950501 
L 342.86081 268.940752 
L 343.104311 268.930438 
L 343.212533 268.952539 
L 343.226061 268.937332 
L 344.67354 268.955074 
L 344.79529 268.938656 
L 344.944096 268.945753 
L 345.092903 268.937911 
L 345.241709 268.946413 
L 345.390515 268.937166 
L 345.539321 268.947057 
L 345.674599 268.939243 
L 346.148074 268.927768 
L 346.256296 268.950499 
L 346.269824 268.940754 
L 346.513325 268.930436 
L 346.621548 268.952538 
L 346.635076 268.937335 
L 348.082554 268.955075 
L 348.204305 268.938654 
L 348.353111 268.945755 
L 348.501917 268.937909 
L 348.650723 268.946415 
L 348.79953 268.937164 
L 348.948336 268.947059 
L 349.083614 268.939246 
L 349.557089 268.927767 
L 349.665311 268.950498 
L 349.678839 268.940757 
L 349.92234 268.930434 
L 350.030563 268.952537 
L 350.044091 268.937337 
L 351.491569 268.955075 
L 351.61332 268.938652 
L 351.762126 268.945756 
L 351.910932 268.937906 
L 352.059738 268.946417 
L 352.208544 268.937161 
L 352.357351 268.947061 
L 352.492629 268.939248 
L 352.966103 268.927765 
L 353.074326 268.950496 
L 353.087854 268.940759 
L 353.331355 268.930432 
L 353.439578 268.952536 
L 353.453105 268.937339 
L 354.900584 268.955075 
L 355.022334 268.93865 
L 355.171141 268.945758 
L 355.319947 268.937904 
L 355.468753 268.946419 
L 355.617559 268.937159 
L 355.766365 268.947062 
L 355.901644 268.93925 
L 356.375118 268.927763 
L 356.483341 268.950495 
L 356.496869 268.940761 
L 356.74037 268.93043 
L 356.848592 268.952535 
L 356.86212 268.937341 
L 358.309599 268.955076 
L 358.431349 268.938647 
L 358.580155 268.94576 
L 358.728962 268.937902 
L 358.877768 268.946421 
L 359.026574 268.937157 
L 359.17538 268.947064 
L 359.310659 268.939252 
L 359.784133 268.927762 
L 359.892356 268.950493 
L 359.905883 268.940763 
L 360.149384 268.930428 
L 360.257607 268.952533 
L 360.271135 268.937344 
L 361.718613 268.955076 
L 361.840364 268.938645 
L 361.98917 268.945762 
L 362.137976 268.9379 
L 362.286783 268.946423 
L 362.435589 268.937155 
L 362.584395 268.947066 
L 362.719673 268.939254 
L 363.193148 268.92776 
L 363.30137 268.950492 
L 363.314898 268.940765 
L 363.558399 268.930426 
L 363.666622 268.952532 
L 363.68015 268.937346 
L 365.127628 268.955077 
L 365.249379 268.938643 
L 365.398185 268.945764 
L 365.546991 268.937898 
L 365.695797 268.946425 
L 365.844604 268.937153 
L 365.99341 268.947068 
L 366.128688 268.939257 
L 366.602162 268.927759 
L 366.710385 268.95049 
L 366.723913 268.940768 
L 366.967414 268.930425 
L 367.075637 268.952531 
L 367.089164 268.937348 
L 368.536643 268.955077 
L 368.658393 268.938641 
L 368.8072 268.945766 
L 368.956006 268.937896 
L 369.104812 268.946427 
L 369.253618 268.937151 
L 369.402424 268.94707 
L 369.537703 268.939259 
L 370.011177 268.927757 
L 370.1194 268.950489 
L 370.132928 268.94077 
L 370.376429 268.930423 
L 370.484651 268.95253 
L 370.498179 268.93735 
L 372.013297 268.953936 
L 372.12152 268.932816 
L 372.135047 268.942673 
L 372.378549 268.952362 
L 372.486771 268.929638 
L 372.500299 268.945776 
L 374.461835 268.954565 
L 374.570058 268.934684 
L 374.583586 268.940859 
L 374.759448 268.954765 
L 374.881198 268.940122 
L 375.05706 268.954936 
L 375.178811 268.939381 
L 375.327617 268.945094 
L 375.476423 268.938636 
L 375.625229 268.94577 
L 375.774035 268.937891 
L 375.922842 268.94643 
L 376.071648 268.937146 
L 376.220454 268.947074 
L 376.355732 268.939263 
L 376.829207 268.927754 
L 376.937429 268.950486 
L 376.950957 268.940774 
L 377.194458 268.930419 
L 377.302681 268.952528 
L 377.316209 268.937355 
L 378.831326 268.953937 
L 378.939549 268.93282 
L 378.953077 268.942669 
L 379.196578 268.952365 
L 379.304801 268.929642 
L 379.318329 268.945772 
L 381.212226 268.9553 
L 381.333976 268.936771 
L 381.482782 268.947391 
L 381.618061 268.939646 
L 381.99684 268.939376 
L 382.145646 268.945098 
L 382.294453 268.938632 
L 382.443259 268.945774 
L 382.592065 268.937887 
L 382.740871 268.946434 
L 382.889677 268.937142 
L 383.038484 268.947077 
L 383.173762 268.939268 
L 383.647236 268.927751 
L 383.755459 268.950483 
L 383.768987 268.940778 
L 384.012488 268.930415 
L 384.12071 268.952525 
L 384.134238 268.937359 
L 385.649356 268.953939 
L 385.757579 268.932824 
L 385.771107 268.942665 
L 386.014608 268.952367 
L 386.12283 268.929646 
L 386.136358 268.945768 
L 388.030255 268.9553 
L 388.152006 268.936767 
L 388.300812 268.947395 
L 388.43609 268.939651 
L 388.81487 268.939372 
L 388.963676 268.945102 
L 389.112482 268.938628 
L 389.261288 268.945778 
L 389.410095 268.937882 
L 389.558901 268.946438 
L 389.707707 268.937137 
L 389.856513 268.947081 
L 389.991791 268.939272 
L 390.465266 268.927748 
L 390.573488 268.95048 
L 390.587016 268.940783 
L 390.830517 268.930411 
L 390.93874 268.952523 
L 390.952268 268.937364 
L 392.467386 268.953941 
L 392.575608 268.932829 
L 392.589136 268.942661 
L 392.832637 268.952369 
L 392.94086 268.92965 
L 392.954388 268.945765 
L 394.848285 268.9553 
L 394.970035 268.936762 
L 395.118841 268.947399 
L 395.25412 268.939655 
L 395.632899 268.939367 
L 395.781705 268.945106 
L 395.930512 268.938623 
L 396.079318 268.945782 
L 396.228124 268.937878 
L 396.37693 268.946442 
L 396.525736 268.937133 
L 396.674543 268.947085 
L 396.809821 268.939277 
L 397.283295 268.927745 
L 397.391518 268.950477 
L 397.405046 268.940787 
L 397.648547 268.930408 
L 397.75677 268.952521 
L 397.770297 268.937368 
L 398.487273 268.954991 
L 398.487273 268.954991 
" style="fill:none;stroke:#d62728;stroke-linecap:square;stroke-width:1.5;"/>
   </g>
   <g id="line2d_19">
    <path clip-path="url(#p2629c9b3ba)" d="M 73.832727 280.537289 
L 398.487273 280.537289 
L 398.487273 280.537289 
" style="fill:none;stroke:#9467bd;stroke-linecap:square;stroke-width:1.5;"/>
   </g>
   <g id="patch_3">
    <path d="M 57.6 307.584 
L 57.6 41.472 
" style="fill:none;stroke:#000000;stroke-linecap:square;stroke-linejoin:miter;stroke-width:0.8;"/>
   </g>
   <g id="patch_4">
    <path d="M 414.72 307.584 
L 414.72 41.472 
" style="fill:none;stroke:#000000;stroke-linecap:square;stroke-linejoin:miter;stroke-width:0.8;"/>
   </g>
   <g id="patch_5">
    <path d="M 57.6 307.584 
L 414.72 307.584 
" style="fill:none;stroke:#000000;stroke-linecap:square;stroke-linejoin:miter;stroke-width:0.8;"/>
   </g>
   <g id="patch_6">
    <path d="M 57.6 41.472 
L 414.72 41.472 
" style="fill:none;stroke:#000000;stroke-linecap:square;stroke-linejoin:miter;stroke-width:0.8;"/>
   </g>
   <g id="legend_1">
    <g id="patch_7">
     <path d="M 356.516875 122.862625 
L 407.72 122.862625 
Q 409.72 122.862625 409.72 120.862625 
L 409.72 48.472 
Q 409.72 46.472 407.72 46.472 
L 356.516875 46.472 
Q 354.516875 46.472 354.516875 48.472 
L 354.516875 120.862625 
Q 354.516875 122.862625 356.516875 122.862625 
z
" style="fill:#ffffff;opacity:0.8;stroke:#cccccc;stroke-linejoin:miter;"/>
    </g>
    <g id="line2d_20">
     <path d="M 358.516875 54.570438 
L 378.516875 54.570438 
" style="fill:none;stroke:#1f77b4;stroke-linecap:square;stroke-width:1.5;"/>
    </g>
    <g id="line2d_21"/>
    <g id="text_18">
     <!-- T+ -->
     <g transform="translate(386.516875 58.070438)scale(0.1 -0.1)">
      <defs>
       <path d="M 46 62.703125 
L 46 35.5 
L 73.1875 35.5 
L 73.1875 27.203125 
L 46 27.203125 
L 46 0 
L 37.796875 0 
L 37.796875 27.203125 
L 10.59375 27.203125 
L 10.59375 35.5 
L 37.796875 35.5 
L 37.796875 62.703125 
z
" id="DejaVuSans-43"/>
      </defs>
      <use xlink:href="#DejaVuSans-84"/>
      <use x="61.083984" xlink:href="#DejaVuSans-43"/>
     </g>
    </g>
    <g id="line2d_22">
     <path d="M 358.516875 69.248563 
L 378.516875 69.248563 
" style="fill:none;stroke:#ff7f0e;stroke-linecap:square;stroke-width:1.5;"/>
    </g>
    <g id="line2d_23"/>
    <g id="text_19">
     <!-- Tp -->
     <g transform="translate(386.516875 72.748563)scale(0.1 -0.1)">
      <defs>
       <path d="M 18.109375 8.203125 
L 18.109375 -20.796875 
L 9.078125 -20.796875 
L 9.078125 54.6875 
L 18.109375 54.6875 
L 18.109375 46.390625 
Q 20.953125 51.265625 25.265625 53.625 
Q 29.59375 56 35.59375 56 
Q 45.5625 56 51.78125 48.09375 
Q 58.015625 40.1875 58.015625 27.296875 
Q 58.015625 14.40625 51.78125 6.484375 
Q 45.5625 -1.421875 35.59375 -1.421875 
Q 29.59375 -1.421875 25.265625 0.953125 
Q 20.953125 3.328125 18.109375 8.203125 
z
M 48.6875 27.296875 
Q 48.6875 37.203125 44.609375 42.84375 
Q 40.53125 48.484375 33.40625 48.484375 
Q 26.265625 48.484375 22.1875 42.84375 
Q 18.109375 37.203125 18.109375 27.296875 
Q 18.109375 17.390625 22.1875 11.75 
Q 26.265625 6.109375 33.40625 6.109375 
Q 40.53125 6.109375 44.609375 11.75 
Q 48.6875 17.390625 48.6875 27.296875 
z
" id="DejaVuSans-112"/>
      </defs>
      <use xlink:href="#DejaVuSans-84"/>
      <use x="61.083984" xlink:href="#DejaVuSans-112"/>
     </g>
    </g>
    <g id="line2d_24">
     <path d="M 358.516875 83.926688 
L 378.516875 83.926688 
" style="fill:none;stroke:#2ca02c;stroke-linecap:square;stroke-width:1.5;"/>
    </g>
    <g id="line2d_25"/>
    <g id="text_20">
     <!-- T- -->
     <g transform="translate(386.516875 87.426688)scale(0.1 -0.1)">
      <defs>
       <path d="M 4.890625 31.390625 
L 31.203125 31.390625 
L 31.203125 23.390625 
L 4.890625 23.390625 
z
" id="DejaVuSans-45"/>
      </defs>
      <use xlink:href="#DejaVuSans-84"/>
      <use x="51.958984" xlink:href="#DejaVuSans-45"/>
     </g>
    </g>
    <g id="line2d_26">
     <path d="M 358.516875 98.604813 
L 378.516875 98.604813 
" style="fill:none;stroke:#d62728;stroke-linecap:square;stroke-width:1.5;"/>
    </g>
    <g id="line2d_27"/>
    <g id="text_21">
     <!-- O2 -->
     <g transform="translate(386.516875 102.104813)scale(0.1 -0.1)">
      <defs>
       <path d="M 39.40625 66.21875 
Q 28.65625 66.21875 22.328125 58.203125 
Q 16.015625 50.203125 16.015625 36.375 
Q 16.015625 22.609375 22.328125 14.59375 
Q 28.65625 6.59375 39.40625 6.59375 
Q 50.140625 6.59375 56.421875 14.59375 
Q 62.703125 22.609375 62.703125 36.375 
Q 62.703125 50.203125 56.421875 58.203125 
Q 50.140625 66.21875 39.40625 66.21875 
z
M 39.40625 74.21875 
Q 54.734375 74.21875 63.90625 63.9375 
Q 73.09375 53.65625 73.09375 36.375 
Q 73.09375 19.140625 63.90625 8.859375 
Q 54.734375 -1.421875 39.40625 -1.421875 
Q 24.03125 -1.421875 14.8125 8.828125 
Q 5.609375 19.09375 5.609375 36.375 
Q 5.609375 53.65625 14.8125 63.9375 
Q 24.03125 74.21875 39.40625 74.21875 
z
" id="DejaVuSans-79"/>
      </defs>
      <use xlink:href="#DejaVuSans-79"/>
      <use x="78.710938" xlink:href="#DejaVuSans-50"/>
     </g>
    </g>
    <g id="line2d_28">
     <path d="M 358.516875 113.282938 
L 378.516875 113.282938 
" style="fill:none;stroke:#9467bd;stroke-linecap:square;stroke-width:1.5;"/>
    </g>
    <g id="line2d_29"/>
    <g id="text_22">
     <!-- test -->
     <g transform="translate(386.516875 116.782938)scale(0.1 -0.1)">
      <use xlink:href="#DejaVuSans-116"/>
      <use x="39.208984" xlink:href="#DejaVuSans-101"/>
      <use x="100.732422" xlink:href="#DejaVuSans-115"/>
      <use x="152.832031" xlink:href="#DejaVuSans-116"/>
     </g>
    </g>
   </g>
  </g>
 </g>
 <defs>
  <clipPath id="p2629c9b3ba">
   <rect height="266.112" width="357.12" x="57.6" y="41.472"/>
  </clipPath>
 </defs>
</svg>
