<?xml version="1.0" encoding="utf-8" standalone="no"?>
<!DOCTYPE svg PUBLIC "-//W3C//DTD SVG 1.1//EN"
  "http://www.w3.org/Graphics/SVG/1.1/DTD/svg11.dtd">
<!-- Created with matplotlib (https://matplotlib.org/) -->
<svg height="345.6pt" version="1.1" viewBox="0 0 460.8 345.6" width="460.8pt" xmlns="http://www.w3.org/2000/svg" xmlns:xlink="http://www.w3.org/1999/xlink">
 <metadata>
  <rdf:RDF xmlns:cc="http://creativecommons.org/ns#" xmlns:dc="http://purl.org/dc/elements/1.1/" xmlns:rdf="http://www.w3.org/1999/02/22-rdf-syntax-ns#">
   <cc:Work>
    <dc:type rdf:resource="http://purl.org/dc/dcmitype/StillImage"/>
    <dc:date>2020-10-24T13:53:25.373726</dc:date>
    <dc:format>image/svg+xml</dc:format>
    <dc:creator>
     <cc:Agent>
      <dc:title>Matplotlib v3.3.2, https://matplotlib.org/</dc:title>
     </cc:Agent>
    </dc:creator>
   </cc:Work>
  </rdf:RDF>
 </metadata>
 <defs>
  <style type="text/css">*{stroke-linecap:butt;stroke-linejoin:round;}</style>
 </defs>
 <g id="figure_1">
  <g id="patch_1">
   <path d="M 0 345.6 
L 460.8 345.6 
L 460.8 0 
L 0 0 
z
" style="fill:#ffffff;"/>
  </g>
  <g id="axes_1">
   <g id="patch_2">
    <path d="M 57.6 307.584 
L 414.72 307.584 
L 414.72 41.472 
L 57.6 41.472 
z
" style="fill:#ffffff;"/>
   </g>
   <g id="matplotlib.axis_1">
    <g id="xtick_1">
     <g id="line2d_1">
      <defs>
       <path d="M 0 0 
L 0 3.5 
" id="m7d6a8ceabd" style="stroke:#000000;stroke-width:0.8;"/>
      </defs>
      <g>
       <use style="stroke:#000000;stroke-width:0.8;" x="73.832727" xlink:href="#m7d6a8ceabd" y="307.584"/>
      </g>
     </g>
     <g id="text_1">
      <!-- 0.0 -->
      <g transform="translate(65.881165 322.182437)scale(0.1 -0.1)">
       <defs>
        <path d="M 31.78125 66.40625 
Q 24.171875 66.40625 20.328125 58.90625 
Q 16.5 51.421875 16.5 36.375 
Q 16.5 21.390625 20.328125 13.890625 
Q 24.171875 6.390625 31.78125 6.390625 
Q 39.453125 6.390625 43.28125 13.890625 
Q 47.125 21.390625 47.125 36.375 
Q 47.125 51.421875 43.28125 58.90625 
Q 39.453125 66.40625 31.78125 66.40625 
z
M 31.78125 74.21875 
Q 44.046875 74.21875 50.515625 64.515625 
Q 56.984375 54.828125 56.984375 36.375 
Q 56.984375 17.96875 50.515625 8.265625 
Q 44.046875 -1.421875 31.78125 -1.421875 
Q 19.53125 -1.421875 13.0625 8.265625 
Q 6.59375 17.96875 6.59375 36.375 
Q 6.59375 54.828125 13.0625 64.515625 
Q 19.53125 74.21875 31.78125 74.21875 
z
" id="DejaVuSans-48"/>
        <path d="M 10.6875 12.40625 
L 21 12.40625 
L 21 0 
L 10.6875 0 
z
" id="DejaVuSans-46"/>
       </defs>
       <use xlink:href="#DejaVuSans-48"/>
       <use x="63.623047" xlink:href="#DejaVuSans-46"/>
       <use x="95.410156" xlink:href="#DejaVuSans-48"/>
      </g>
     </g>
    </g>
    <g id="xtick_2">
     <g id="line2d_2">
      <g>
       <use style="stroke:#000000;stroke-width:0.8;" x="118.925515" xlink:href="#m7d6a8ceabd" y="307.584"/>
      </g>
     </g>
     <g id="text_2">
      <!-- 0.2 -->
      <g transform="translate(110.973953 322.182437)scale(0.1 -0.1)">
       <defs>
        <path d="M 19.1875 8.296875 
L 53.609375 8.296875 
L 53.609375 0 
L 7.328125 0 
L 7.328125 8.296875 
Q 12.9375 14.109375 22.625 23.890625 
Q 32.328125 33.6875 34.8125 36.53125 
Q 39.546875 41.84375 41.421875 45.53125 
Q 43.3125 49.21875 43.3125 52.78125 
Q 43.3125 58.59375 39.234375 62.25 
Q 35.15625 65.921875 28.609375 65.921875 
Q 23.96875 65.921875 18.8125 64.3125 
Q 13.671875 62.703125 7.8125 59.421875 
L 7.8125 69.390625 
Q 13.765625 71.78125 18.9375 73 
Q 24.125 74.21875 28.421875 74.21875 
Q 39.75 74.21875 46.484375 68.546875 
Q 53.21875 62.890625 53.21875 53.421875 
Q 53.21875 48.921875 51.53125 44.890625 
Q 49.859375 40.875 45.40625 35.40625 
Q 44.1875 33.984375 37.640625 27.21875 
Q 31.109375 20.453125 19.1875 8.296875 
z
" id="DejaVuSans-50"/>
       </defs>
       <use xlink:href="#DejaVuSans-48"/>
       <use x="63.623047" xlink:href="#DejaVuSans-46"/>
       <use x="95.410156" xlink:href="#DejaVuSans-50"/>
      </g>
     </g>
    </g>
    <g id="xtick_3">
     <g id="line2d_3">
      <g>
       <use style="stroke:#000000;stroke-width:0.8;" x="164.018303" xlink:href="#m7d6a8ceabd" y="307.584"/>
      </g>
     </g>
     <g id="text_3">
      <!-- 0.4 -->
      <g transform="translate(156.066741 322.182437)scale(0.1 -0.1)">
       <defs>
        <path d="M 37.796875 64.3125 
L 12.890625 25.390625 
L 37.796875 25.390625 
z
M 35.203125 72.90625 
L 47.609375 72.90625 
L 47.609375 25.390625 
L 58.015625 25.390625 
L 58.015625 17.1875 
L 47.609375 17.1875 
L 47.609375 0 
L 37.796875 0 
L 37.796875 17.1875 
L 4.890625 17.1875 
L 4.890625 26.703125 
z
" id="DejaVuSans-52"/>
       </defs>
       <use xlink:href="#DejaVuSans-48"/>
       <use x="63.623047" xlink:href="#DejaVuSans-46"/>
       <use x="95.410156" xlink:href="#DejaVuSans-52"/>
      </g>
     </g>
    </g>
    <g id="xtick_4">
     <g id="line2d_4">
      <g>
       <use style="stroke:#000000;stroke-width:0.8;" x="209.111091" xlink:href="#m7d6a8ceabd" y="307.584"/>
      </g>
     </g>
     <g id="text_4">
      <!-- 0.6 -->
      <g transform="translate(201.159529 322.182437)scale(0.1 -0.1)">
       <defs>
        <path d="M 33.015625 40.375 
Q 26.375 40.375 22.484375 35.828125 
Q 18.609375 31.296875 18.609375 23.390625 
Q 18.609375 15.53125 22.484375 10.953125 
Q 26.375 6.390625 33.015625 6.390625 
Q 39.65625 6.390625 43.53125 10.953125 
Q 47.40625 15.53125 47.40625 23.390625 
Q 47.40625 31.296875 43.53125 35.828125 
Q 39.65625 40.375 33.015625 40.375 
z
M 52.59375 71.296875 
L 52.59375 62.3125 
Q 48.875 64.0625 45.09375 64.984375 
Q 41.3125 65.921875 37.59375 65.921875 
Q 27.828125 65.921875 22.671875 59.328125 
Q 17.53125 52.734375 16.796875 39.40625 
Q 19.671875 43.65625 24.015625 45.921875 
Q 28.375 48.1875 33.59375 48.1875 
Q 44.578125 48.1875 50.953125 41.515625 
Q 57.328125 34.859375 57.328125 23.390625 
Q 57.328125 12.15625 50.6875 5.359375 
Q 44.046875 -1.421875 33.015625 -1.421875 
Q 20.359375 -1.421875 13.671875 8.265625 
Q 6.984375 17.96875 6.984375 36.375 
Q 6.984375 53.65625 15.1875 63.9375 
Q 23.390625 74.21875 37.203125 74.21875 
Q 40.921875 74.21875 44.703125 73.484375 
Q 48.484375 72.75 52.59375 71.296875 
z
" id="DejaVuSans-54"/>
       </defs>
       <use xlink:href="#DejaVuSans-48"/>
       <use x="63.623047" xlink:href="#DejaVuSans-46"/>
       <use x="95.410156" xlink:href="#DejaVuSans-54"/>
      </g>
     </g>
    </g>
    <g id="xtick_5">
     <g id="line2d_5">
      <g>
       <use style="stroke:#000000;stroke-width:0.8;" x="254.203879" xlink:href="#m7d6a8ceabd" y="307.584"/>
      </g>
     </g>
     <g id="text_5">
      <!-- 0.8 -->
      <g transform="translate(246.252317 322.182437)scale(0.1 -0.1)">
       <defs>
        <path d="M 31.78125 34.625 
Q 24.75 34.625 20.71875 30.859375 
Q 16.703125 27.09375 16.703125 20.515625 
Q 16.703125 13.921875 20.71875 10.15625 
Q 24.75 6.390625 31.78125 6.390625 
Q 38.8125 6.390625 42.859375 10.171875 
Q 46.921875 13.96875 46.921875 20.515625 
Q 46.921875 27.09375 42.890625 30.859375 
Q 38.875 34.625 31.78125 34.625 
z
M 21.921875 38.8125 
Q 15.578125 40.375 12.03125 44.71875 
Q 8.5 49.078125 8.5 55.328125 
Q 8.5 64.0625 14.71875 69.140625 
Q 20.953125 74.21875 31.78125 74.21875 
Q 42.671875 74.21875 48.875 69.140625 
Q 55.078125 64.0625 55.078125 55.328125 
Q 55.078125 49.078125 51.53125 44.71875 
Q 48 40.375 41.703125 38.8125 
Q 48.828125 37.15625 52.796875 32.3125 
Q 56.78125 27.484375 56.78125 20.515625 
Q 56.78125 9.90625 50.3125 4.234375 
Q 43.84375 -1.421875 31.78125 -1.421875 
Q 19.734375 -1.421875 13.25 4.234375 
Q 6.78125 9.90625 6.78125 20.515625 
Q 6.78125 27.484375 10.78125 32.3125 
Q 14.796875 37.15625 21.921875 38.8125 
z
M 18.3125 54.390625 
Q 18.3125 48.734375 21.84375 45.5625 
Q 25.390625 42.390625 31.78125 42.390625 
Q 38.140625 42.390625 41.71875 45.5625 
Q 45.3125 48.734375 45.3125 54.390625 
Q 45.3125 60.0625 41.71875 63.234375 
Q 38.140625 66.40625 31.78125 66.40625 
Q 25.390625 66.40625 21.84375 63.234375 
Q 18.3125 60.0625 18.3125 54.390625 
z
" id="DejaVuSans-56"/>
       </defs>
       <use xlink:href="#DejaVuSans-48"/>
       <use x="63.623047" xlink:href="#DejaVuSans-46"/>
       <use x="95.410156" xlink:href="#DejaVuSans-56"/>
      </g>
     </g>
    </g>
    <g id="xtick_6">
     <g id="line2d_6">
      <g>
       <use style="stroke:#000000;stroke-width:0.8;" x="299.296667" xlink:href="#m7d6a8ceabd" y="307.584"/>
      </g>
     </g>
     <g id="text_6">
      <!-- 1.0 -->
      <g transform="translate(291.345105 322.182437)scale(0.1 -0.1)">
       <defs>
        <path d="M 12.40625 8.296875 
L 28.515625 8.296875 
L 28.515625 63.921875 
L 10.984375 60.40625 
L 10.984375 69.390625 
L 28.421875 72.90625 
L 38.28125 72.90625 
L 38.28125 8.296875 
L 54.390625 8.296875 
L 54.390625 0 
L 12.40625 0 
z
" id="DejaVuSans-49"/>
       </defs>
       <use xlink:href="#DejaVuSans-49"/>
       <use x="63.623047" xlink:href="#DejaVuSans-46"/>
       <use x="95.410156" xlink:href="#DejaVuSans-48"/>
      </g>
     </g>
    </g>
    <g id="xtick_7">
     <g id="line2d_7">
      <g>
       <use style="stroke:#000000;stroke-width:0.8;" x="344.389455" xlink:href="#m7d6a8ceabd" y="307.584"/>
      </g>
     </g>
     <g id="text_7">
      <!-- 1.2 -->
      <g transform="translate(336.437893 322.182437)scale(0.1 -0.1)">
       <use xlink:href="#DejaVuSans-49"/>
       <use x="63.623047" xlink:href="#DejaVuSans-46"/>
       <use x="95.410156" xlink:href="#DejaVuSans-50"/>
      </g>
     </g>
    </g>
    <g id="xtick_8">
     <g id="line2d_8">
      <g>
       <use style="stroke:#000000;stroke-width:0.8;" x="389.482243" xlink:href="#m7d6a8ceabd" y="307.584"/>
      </g>
     </g>
     <g id="text_8">
      <!-- 1.4 -->
      <g transform="translate(381.53068 322.182437)scale(0.1 -0.1)">
       <use xlink:href="#DejaVuSans-49"/>
       <use x="63.623047" xlink:href="#DejaVuSans-46"/>
       <use x="95.410156" xlink:href="#DejaVuSans-52"/>
      </g>
     </g>
    </g>
    <g id="text_9">
     <!-- Time (min) -->
     <g transform="translate(209.007656 335.860562)scale(0.1 -0.1)">
      <defs>
       <path d="M -0.296875 72.90625 
L 61.375 72.90625 
L 61.375 64.59375 
L 35.5 64.59375 
L 35.5 0 
L 25.59375 0 
L 25.59375 64.59375 
L -0.296875 64.59375 
z
" id="DejaVuSans-84"/>
       <path d="M 9.421875 54.6875 
L 18.40625 54.6875 
L 18.40625 0 
L 9.421875 0 
z
M 9.421875 75.984375 
L 18.40625 75.984375 
L 18.40625 64.59375 
L 9.421875 64.59375 
z
" id="DejaVuSans-105"/>
       <path d="M 52 44.1875 
Q 55.375 50.25 60.0625 53.125 
Q 64.75 56 71.09375 56 
Q 79.640625 56 84.28125 50.015625 
Q 88.921875 44.046875 88.921875 33.015625 
L 88.921875 0 
L 79.890625 0 
L 79.890625 32.71875 
Q 79.890625 40.578125 77.09375 44.375 
Q 74.3125 48.1875 68.609375 48.1875 
Q 61.625 48.1875 57.5625 43.546875 
Q 53.515625 38.921875 53.515625 30.90625 
L 53.515625 0 
L 44.484375 0 
L 44.484375 32.71875 
Q 44.484375 40.625 41.703125 44.40625 
Q 38.921875 48.1875 33.109375 48.1875 
Q 26.21875 48.1875 22.15625 43.53125 
Q 18.109375 38.875 18.109375 30.90625 
L 18.109375 0 
L 9.078125 0 
L 9.078125 54.6875 
L 18.109375 54.6875 
L 18.109375 46.1875 
Q 21.1875 51.21875 25.484375 53.609375 
Q 29.78125 56 35.6875 56 
Q 41.65625 56 45.828125 52.96875 
Q 50 49.953125 52 44.1875 
z
" id="DejaVuSans-109"/>
       <path d="M 56.203125 29.59375 
L 56.203125 25.203125 
L 14.890625 25.203125 
Q 15.484375 15.921875 20.484375 11.0625 
Q 25.484375 6.203125 34.421875 6.203125 
Q 39.59375 6.203125 44.453125 7.46875 
Q 49.3125 8.734375 54.109375 11.28125 
L 54.109375 2.78125 
Q 49.265625 0.734375 44.1875 -0.34375 
Q 39.109375 -1.421875 33.890625 -1.421875 
Q 20.796875 -1.421875 13.15625 6.1875 
Q 5.515625 13.8125 5.515625 26.8125 
Q 5.515625 40.234375 12.765625 48.109375 
Q 20.015625 56 32.328125 56 
Q 43.359375 56 49.78125 48.890625 
Q 56.203125 41.796875 56.203125 29.59375 
z
M 47.21875 32.234375 
Q 47.125 39.59375 43.09375 43.984375 
Q 39.0625 48.390625 32.421875 48.390625 
Q 24.90625 48.390625 20.390625 44.140625 
Q 15.875 39.890625 15.1875 32.171875 
z
" id="DejaVuSans-101"/>
       <path id="DejaVuSans-32"/>
       <path d="M 31 75.875 
Q 24.46875 64.65625 21.28125 53.65625 
Q 18.109375 42.671875 18.109375 31.390625 
Q 18.109375 20.125 21.3125 9.0625 
Q 24.515625 -2 31 -13.1875 
L 23.1875 -13.1875 
Q 15.875 -1.703125 12.234375 9.375 
Q 8.59375 20.453125 8.59375 31.390625 
Q 8.59375 42.28125 12.203125 53.3125 
Q 15.828125 64.359375 23.1875 75.875 
z
" id="DejaVuSans-40"/>
       <path d="M 54.890625 33.015625 
L 54.890625 0 
L 45.90625 0 
L 45.90625 32.71875 
Q 45.90625 40.484375 42.875 44.328125 
Q 39.84375 48.1875 33.796875 48.1875 
Q 26.515625 48.1875 22.3125 43.546875 
Q 18.109375 38.921875 18.109375 30.90625 
L 18.109375 0 
L 9.078125 0 
L 9.078125 54.6875 
L 18.109375 54.6875 
L 18.109375 46.1875 
Q 21.34375 51.125 25.703125 53.5625 
Q 30.078125 56 35.796875 56 
Q 45.21875 56 50.046875 50.171875 
Q 54.890625 44.34375 54.890625 33.015625 
z
" id="DejaVuSans-110"/>
       <path d="M 8.015625 75.875 
L 15.828125 75.875 
Q 23.140625 64.359375 26.78125 53.3125 
Q 30.421875 42.28125 30.421875 31.390625 
Q 30.421875 20.453125 26.78125 9.375 
Q 23.140625 -1.703125 15.828125 -13.1875 
L 8.015625 -13.1875 
Q 14.5 -2 17.703125 9.0625 
Q 20.90625 20.125 20.90625 31.390625 
Q 20.90625 42.671875 17.703125 53.65625 
Q 14.5 64.65625 8.015625 75.875 
z
" id="DejaVuSans-41"/>
      </defs>
      <use xlink:href="#DejaVuSans-84"/>
      <use x="57.958984" xlink:href="#DejaVuSans-105"/>
      <use x="85.742188" xlink:href="#DejaVuSans-109"/>
      <use x="183.154297" xlink:href="#DejaVuSans-101"/>
      <use x="244.677734" xlink:href="#DejaVuSans-32"/>
      <use x="276.464844" xlink:href="#DejaVuSans-40"/>
      <use x="315.478516" xlink:href="#DejaVuSans-109"/>
      <use x="412.890625" xlink:href="#DejaVuSans-105"/>
      <use x="440.673828" xlink:href="#DejaVuSans-110"/>
      <use x="504.052734" xlink:href="#DejaVuSans-41"/>
     </g>
    </g>
    <g id="text_10">
     <!-- 1e6 -->
     <g transform="translate(395.841875 334.860562)scale(0.1 -0.1)">
      <use xlink:href="#DejaVuSans-49"/>
      <use x="63.623047" xlink:href="#DejaVuSans-101"/>
      <use x="125.146484" xlink:href="#DejaVuSans-54"/>
     </g>
    </g>
   </g>
   <g id="matplotlib.axis_2">
    <g id="ytick_1">
     <g id="line2d_9">
      <defs>
       <path d="M 0 0 
L -3.5 0 
" id="mba77a5694d" style="stroke:#000000;stroke-width:0.8;"/>
      </defs>
      <g>
       <use style="stroke:#000000;stroke-width:0.8;" x="57.6" xlink:href="#mba77a5694d" y="295.488"/>
      </g>
     </g>
     <g id="text_11">
      <!-- 0 -->
      <g transform="translate(44.2375 299.287219)scale(0.1 -0.1)">
       <use xlink:href="#DejaVuSans-48"/>
      </g>
     </g>
    </g>
    <g id="ytick_2">
     <g id="line2d_10">
      <g>
       <use style="stroke:#000000;stroke-width:0.8;" x="57.6" xlink:href="#mba77a5694d" y="263.829184"/>
      </g>
     </g>
     <g id="text_12">
      <!-- 20 -->
      <g transform="translate(37.875 267.628402)scale(0.1 -0.1)">
       <use xlink:href="#DejaVuSans-50"/>
       <use x="63.623047" xlink:href="#DejaVuSans-48"/>
      </g>
     </g>
    </g>
    <g id="ytick_3">
     <g id="line2d_11">
      <g>
       <use style="stroke:#000000;stroke-width:0.8;" x="57.6" xlink:href="#mba77a5694d" y="232.170367"/>
      </g>
     </g>
     <g id="text_13">
      <!-- 40 -->
      <g transform="translate(37.875 235.969586)scale(0.1 -0.1)">
       <use xlink:href="#DejaVuSans-52"/>
       <use x="63.623047" xlink:href="#DejaVuSans-48"/>
      </g>
     </g>
    </g>
    <g id="ytick_4">
     <g id="line2d_12">
      <g>
       <use style="stroke:#000000;stroke-width:0.8;" x="57.6" xlink:href="#mba77a5694d" y="200.511551"/>
      </g>
     </g>
     <g id="text_14">
      <!-- 60 -->
      <g transform="translate(37.875 204.31077)scale(0.1 -0.1)">
       <use xlink:href="#DejaVuSans-54"/>
       <use x="63.623047" xlink:href="#DejaVuSans-48"/>
      </g>
     </g>
    </g>
    <g id="ytick_5">
     <g id="line2d_13">
      <g>
       <use style="stroke:#000000;stroke-width:0.8;" x="57.6" xlink:href="#mba77a5694d" y="168.852735"/>
      </g>
     </g>
     <g id="text_15">
      <!-- 80 -->
      <g transform="translate(37.875 172.651953)scale(0.1 -0.1)">
       <use xlink:href="#DejaVuSans-56"/>
       <use x="63.623047" xlink:href="#DejaVuSans-48"/>
      </g>
     </g>
    </g>
    <g id="ytick_6">
     <g id="line2d_14">
      <g>
       <use style="stroke:#000000;stroke-width:0.8;" x="57.6" xlink:href="#mba77a5694d" y="137.193918"/>
      </g>
     </g>
     <g id="text_16">
      <!-- 100 -->
      <g transform="translate(31.5125 140.993137)scale(0.1 -0.1)">
       <use xlink:href="#DejaVuSans-49"/>
       <use x="63.623047" xlink:href="#DejaVuSans-48"/>
       <use x="127.246094" xlink:href="#DejaVuSans-48"/>
      </g>
     </g>
    </g>
    <g id="ytick_7">
     <g id="line2d_15">
      <g>
       <use style="stroke:#000000;stroke-width:0.8;" x="57.6" xlink:href="#mba77a5694d" y="105.535102"/>
      </g>
     </g>
     <g id="text_17">
      <!-- 120 -->
      <g transform="translate(31.5125 109.334321)scale(0.1 -0.1)">
       <use xlink:href="#DejaVuSans-49"/>
       <use x="63.623047" xlink:href="#DejaVuSans-50"/>
       <use x="127.246094" xlink:href="#DejaVuSans-48"/>
      </g>
     </g>
    </g>
    <g id="ytick_8">
     <g id="line2d_16">
      <g>
       <use style="stroke:#000000;stroke-width:0.8;" x="57.6" xlink:href="#mba77a5694d" y="73.876286"/>
      </g>
     </g>
     <g id="text_18">
      <!-- 140 -->
      <g transform="translate(31.5125 77.675504)scale(0.1 -0.1)">
       <use xlink:href="#DejaVuSans-49"/>
       <use x="63.623047" xlink:href="#DejaVuSans-52"/>
       <use x="127.246094" xlink:href="#DejaVuSans-48"/>
      </g>
     </g>
    </g>
    <g id="ytick_9">
     <g id="line2d_17">
      <g>
       <use style="stroke:#000000;stroke-width:0.8;" x="57.6" xlink:href="#mba77a5694d" y="42.217469"/>
      </g>
     </g>
     <g id="text_19">
      <!-- 160 -->
      <g transform="translate(31.5125 46.016688)scale(0.1 -0.1)">
       <use xlink:href="#DejaVuSans-49"/>
       <use x="63.623047" xlink:href="#DejaVuSans-54"/>
       <use x="127.246094" xlink:href="#DejaVuSans-48"/>
      </g>
     </g>
    </g>
    <g id="text_20">
     <!-- Density -->
     <g transform="translate(25.432812 193.536594)rotate(-90)scale(0.1 -0.1)">
      <defs>
       <path d="M 19.671875 64.796875 
L 19.671875 8.109375 
L 31.59375 8.109375 
Q 46.6875 8.109375 53.6875 14.9375 
Q 60.6875 21.78125 60.6875 36.53125 
Q 60.6875 51.171875 53.6875 57.984375 
Q 46.6875 64.796875 31.59375 64.796875 
z
M 9.8125 72.90625 
L 30.078125 72.90625 
Q 51.265625 72.90625 61.171875 64.09375 
Q 71.09375 55.28125 71.09375 36.53125 
Q 71.09375 17.671875 61.125 8.828125 
Q 51.171875 0 30.078125 0 
L 9.8125 0 
z
" id="DejaVuSans-68"/>
       <path d="M 44.28125 53.078125 
L 44.28125 44.578125 
Q 40.484375 46.53125 36.375 47.5 
Q 32.28125 48.484375 27.875 48.484375 
Q 21.1875 48.484375 17.84375 46.4375 
Q 14.5 44.390625 14.5 40.28125 
Q 14.5 37.15625 16.890625 35.375 
Q 19.28125 33.59375 26.515625 31.984375 
L 29.59375 31.296875 
Q 39.15625 29.25 43.1875 25.515625 
Q 47.21875 21.78125 47.21875 15.09375 
Q 47.21875 7.46875 41.1875 3.015625 
Q 35.15625 -1.421875 24.609375 -1.421875 
Q 20.21875 -1.421875 15.453125 -0.5625 
Q 10.6875 0.296875 5.421875 2 
L 5.421875 11.28125 
Q 10.40625 8.6875 15.234375 7.390625 
Q 20.0625 6.109375 24.8125 6.109375 
Q 31.15625 6.109375 34.5625 8.28125 
Q 37.984375 10.453125 37.984375 14.40625 
Q 37.984375 18.0625 35.515625 20.015625 
Q 33.0625 21.96875 24.703125 23.78125 
L 21.578125 24.515625 
Q 13.234375 26.265625 9.515625 29.90625 
Q 5.8125 33.546875 5.8125 39.890625 
Q 5.8125 47.609375 11.28125 51.796875 
Q 16.75 56 26.8125 56 
Q 31.78125 56 36.171875 55.265625 
Q 40.578125 54.546875 44.28125 53.078125 
z
" id="DejaVuSans-115"/>
       <path d="M 18.3125 70.21875 
L 18.3125 54.6875 
L 36.8125 54.6875 
L 36.8125 47.703125 
L 18.3125 47.703125 
L 18.3125 18.015625 
Q 18.3125 11.328125 20.140625 9.421875 
Q 21.96875 7.515625 27.59375 7.515625 
L 36.8125 7.515625 
L 36.8125 0 
L 27.59375 0 
Q 17.1875 0 13.234375 3.875 
Q 9.28125 7.765625 9.28125 18.015625 
L 9.28125 47.703125 
L 2.6875 47.703125 
L 2.6875 54.6875 
L 9.28125 54.6875 
L 9.28125 70.21875 
z
" id="DejaVuSans-116"/>
       <path d="M 32.171875 -5.078125 
Q 28.375 -14.84375 24.75 -17.8125 
Q 21.140625 -20.796875 15.09375 -20.796875 
L 7.90625 -20.796875 
L 7.90625 -13.28125 
L 13.1875 -13.28125 
Q 16.890625 -13.28125 18.9375 -11.515625 
Q 21 -9.765625 23.484375 -3.21875 
L 25.09375 0.875 
L 2.984375 54.6875 
L 12.5 54.6875 
L 29.59375 11.921875 
L 46.6875 54.6875 
L 56.203125 54.6875 
z
" id="DejaVuSans-121"/>
      </defs>
      <use xlink:href="#DejaVuSans-68"/>
      <use x="77.001953" xlink:href="#DejaVuSans-101"/>
      <use x="138.525391" xlink:href="#DejaVuSans-110"/>
      <use x="201.904297" xlink:href="#DejaVuSans-115"/>
      <use x="254.003906" xlink:href="#DejaVuSans-105"/>
      <use x="281.787109" xlink:href="#DejaVuSans-116"/>
      <use x="320.996094" xlink:href="#DejaVuSans-121"/>
     </g>
    </g>
   </g>
   <g id="line2d_18">
    <path clip-path="url(#p3f016e9a78)" d="M 73.832727 295.488 
L 398.487273 295.488 
L 398.487273 295.488 
" style="fill:none;stroke:#1f77b4;stroke-linecap:square;stroke-width:1.5;"/>
   </g>
   <g id="line2d_19">
    <path clip-path="url(#p3f016e9a78)" d="M 73.832727 295.488 
L 398.487273 295.488 
L 398.487273 295.488 
" style="fill:none;stroke:#ff7f0e;stroke-linecap:square;stroke-width:1.5;"/>
   </g>
   <g id="line2d_20">
    <path clip-path="url(#p3f016e9a78)" d="M 73.832727 279.658592 
L 74.184451 271.489724 
L 75.293734 271.485897 
L 377.18093 271.485866 
L 398.487273 271.485873 
L 398.487273 271.485873 
" style="fill:none;stroke:#2ca02c;stroke-linecap:square;stroke-width:1.5;"/>
   </g>
   <g id="line2d_21">
    <path clip-path="url(#p3f016e9a78)" d="M 73.832727 137.193918 
L 73.846255 53.568 
L 73.927422 140.986907 
L 74.157395 287.092973 
L 74.306202 287.40443 
L 78.919194 287.392666 
L 79.054472 287.413811 
L 79.243862 287.388847 
L 79.37914 287.397359 
L 79.56853 287.402574 
L 79.744392 287.387439 
L 79.893198 287.415347 
L 79.906726 287.396375 
L 80.339617 287.393866 
L 80.488423 287.39866 
L 81.232454 287.401624 
L 81.421843 287.400834 
L 81.678872 287.401978 
L 81.962957 287.398555 
L 82.152347 287.399122 
L 82.328209 287.395078 
L 82.652877 287.398499 
L 82.828738 287.394211 
L 82.977545 287.405642 
L 83.153407 287.393881 
L 83.315741 287.400625 
L 83.464547 287.403863 
L 84.763219 287.405779 
L 84.912025 287.390497 
L 85.033776 287.395858 
L 85.344916 287.412649 
L 85.493722 287.39785 
L 85.804862 287.407269 
L 85.994252 287.393257 
L 86.129531 287.417867 
L 86.278337 287.393499 
L 86.427143 287.410304 
L 86.562421 287.399241 
L 88.158706 287.403952 
L 88.726875 287.398584 
L 88.916265 287.400476 
L 91.716527 287.403856 
L 91.851805 287.387314 
L 92.014139 287.39232 
L 92.203529 287.414727 
L 92.392919 287.394857 
L 94.543845 287.40496 
L 94.679123 287.3958 
L 95.084958 287.406123 
L 95.26082 287.394566 
L 98.101666 287.393154 
L 98.236944 287.403461 
L 98.76453 287.392614 
L 98.872752 287.403423 
L 98.88628 287.392887 
L 99.116253 287.407808 
L 99.26506 287.392973 
L 99.38681 287.395107 
L 99.670895 287.397837 
L 99.88734 287.395609 
L 100.157897 287.411826 
L 100.306703 287.393083 
L 100.441981 287.416427 
L 100.590788 287.393597 
L 100.604315 287.408331 
L 101.186012 287.396673 
L 101.321291 287.414327 
L 101.334819 287.398566 
L 101.510681 287.387307 
L 101.645959 287.403844 
L 102.498213 287.399801 
L 102.633491 287.39262 
L 102.647019 287.414426 
L 102.836408 287.393897 
L 103.648079 287.404847 
L 103.932163 287.398249 
L 104.108025 287.405013 
L 104.256831 287.389687 
L 104.365054 287.404547 
L 104.378582 287.394039 
L 104.70325 287.399449 
L 104.879112 287.396284 
L 105.366114 287.401831 
L 105.501392 287.385382 
L 105.51492 287.403253 
L 106.069561 287.40247 
L 106.299535 287.395842 
L 106.434813 287.401891 
L 106.800065 287.402655 
L 107.273539 287.407839 
L 107.449401 287.398813 
L 109.208019 287.392555 
L 109.343298 287.413981 
L 109.546215 287.398441 
L 109.735605 287.401408 
L 109.884411 287.397718 
L 110.195551 287.399594 
L 110.371413 287.392716 
L 110.506692 287.41174 
L 110.750193 287.393091 
L 110.885471 287.415323 
L 111.047805 287.407074 
L 112.292366 287.40594 
L 112.725257 287.405496 
L 112.874063 287.391617 
L 112.995814 287.397696 
L 113.306954 287.409702 
L 113.482816 287.38855 
L 113.64515 287.402893 
L 113.861595 287.395161 
L 114.023929 287.398179 
L 114.362125 287.383334 
L 114.470348 287.412274 
L 114.483876 287.397445 
L 114.740905 287.393001 
L 114.849127 287.404888 
L 114.862655 287.395227 
L 115.430824 287.405084 
L 115.566103 287.387537 
L 115.755492 287.405465 
L 115.998993 287.397031 
L 116.174855 287.408935 
L 116.364245 287.395296 
L 116.634802 287.407489 
L 116.783608 287.392803 
L 116.905358 287.395506 
L 117.135332 287.406779 
L 117.284138 287.39763 
L 117.473527 287.402207 
L 117.622334 287.396613 
L 117.838779 287.413994 
L 117.987585 287.386063 
L 118.122864 287.411488 
L 118.366365 287.390557 
L 118.501643 287.414978 
L 118.650449 287.386022 
L 118.799255 287.407703 
L 118.975117 287.396196 
L 119.408008 287.396583 
L 119.556814 287.399532 
L 120.530818 287.394667 
L 120.666097 287.416724 
L 120.814903 287.392622 
L 120.950181 287.410415 
L 121.274849 287.396141 
L 121.504823 287.406057 
L 121.694212 287.393662 
L 121.829491 287.417706 
L 121.978297 287.393125 
L 122.127103 287.405409 
L 122.262382 287.39828 
L 123.547526 287.399164 
L 123.845138 287.390623 
L 123.993945 287.405182 
L 124.237446 287.396867 
L 124.413308 287.413336 
L 124.562114 287.386676 
L 124.697392 287.411997 
L 124.940893 287.391512 
L 125.076172 287.403689 
L 125.224978 287.386267 
L 125.238506 287.405131 
L 127.389432 287.392492 
L 127.52471 287.410254 
L 127.849378 287.396119 
L 128.038768 287.405775 
L 128.174046 287.395394 
L 128.363436 287.418698 
L 128.512242 287.395197 
L 128.782799 287.41286 
L 128.931605 287.39754 
L 129.215689 287.395601 
L 130.717279 287.384073 
L 130.825502 287.406452 
L 130.83903 287.395785 
L 136.317804 287.405174 
L 136.453082 287.388967 
L 136.642472 287.404553 
L 136.96714 287.393865 
L 137.102418 287.404685 
L 137.251224 287.389633 
L 137.359447 287.404757 
L 137.372975 287.394008 
L 137.765282 287.40284 
L 138.049367 287.395983 
L 138.184645 287.414384 
L 138.198173 287.399098 
L 138.374035 287.386885 
L 138.509313 287.402968 
L 138.982787 287.402763 
L 139.172177 287.399995 
L 139.40215 287.401233 
L 139.753874 287.391985 
L 139.889152 287.414915 
L 140.037959 287.386002 
L 140.173237 287.408708 
L 140.660239 287.393184 
L 140.809045 287.408784 
L 140.984907 287.393549 
L 141.512493 287.40627 
L 141.701882 287.3958 
L 142.134773 287.402731 
L 142.378274 287.402379 
L 142.729998 287.401579 
L 142.865276 287.392884 
L 143.014083 287.405597 
L 143.162889 287.394416 
L 143.298167 287.401229 
L 143.866336 287.393008 
L 143.974559 287.404289 
L 143.988087 287.395225 
L 144.515672 287.403767 
L 144.705062 287.392849 
L 144.84034 287.40391 
L 145.02973 287.392747 
L 145.137953 287.407393 
L 145.151481 287.395804 
L 149.65625 287.39479 
L 149.791529 287.416701 
L 149.940335 287.392615 
L 150.075613 287.411992 
L 150.34617 287.389667 
L 150.53556 287.399692 
L 150.927867 287.400784 
L 151.076673 287.400466 
L 151.631314 287.4037 
L 151.766593 287.394255 
L 151.928927 287.391718 
L 152.226539 287.395623 
L 152.957042 287.406216 
L 153.105849 287.396547 
L 153.295238 287.399232 
L 153.646962 287.392595 
L 153.768712 287.39537 
L 153.998686 287.406956 
L 154.147492 287.397039 
L 154.336882 287.402846 
L 154.47216 287.393529 
L 154.620966 287.405421 
L 154.769772 287.39133 
L 154.905051 287.399724 
L 155.500276 287.404076 
L 155.635554 287.394631 
L 155.838471 287.396932 
L 156.190195 287.400606 
L 156.420168 287.400238 
L 156.934226 287.399933 
L 157.421228 287.398126 
L 157.637674 287.395284 
L 157.90823 287.412621 
L 158.057037 287.397858 
L 158.368177 287.407251 
L 158.557567 287.393261 
L 158.692845 287.417863 
L 158.841651 287.393494 
L 158.990457 287.405236 
L 159.125736 287.399056 
L 161.344301 287.390256 
L 161.452524 287.402562 
L 161.466051 287.395389 
L 161.777192 287.413352 
L 161.925998 287.397406 
L 162.210082 287.395715 
L 163.305837 287.396577 
L 163.454643 287.398545 
L 163.630505 287.38712 
L 163.765784 287.402935 
L 164.279841 287.40384 
L 164.41512 287.387307 
L 164.577454 287.392302 
L 164.766843 287.414734 
L 164.956233 287.394853 
L 167.107159 287.404949 
L 167.242438 287.395769 
L 167.648273 287.406109 
L 167.824134 287.394553 
L 170.949065 287.394139 
L 171.097871 287.40907 
L 171.260205 287.402888 
L 171.490178 287.388562 
L 171.638984 287.405938 
L 171.787791 287.396289 
L 171.97718 287.403059 
L 172.153042 287.388033 
L 172.328904 287.400761 
L 172.640044 287.408009 
L 172.775323 287.396887 
L 173.099991 287.403856 
L 173.316436 287.389783 
L 173.532881 287.396354 
L 173.85755 287.395594 
L 174.533941 287.393002 
L 174.655692 287.395124 
L 174.885665 287.407222 
L 175.034471 287.390395 
L 175.156222 287.395791 
L 175.345612 287.404801 
L 175.48089 287.395862 
L 175.710863 287.41604 
L 175.859669 287.393017 
L 176.008476 287.405539 
L 176.143754 287.398228 
L 178.673459 287.406101 
L 178.849321 287.397134 
L 180.22916 287.393052 
L 180.364439 287.397853 
L 180.540301 287.404709 
L 180.689107 287.38964 
L 180.79733 287.404997 
L 180.810857 287.393835 
L 181.203165 287.402744 
L 181.527833 287.393047 
L 181.663111 287.409397 
L 181.852501 287.389726 
L 181.960724 287.406166 
L 181.974251 287.393663 
L 182.501837 287.406469 
L 182.691227 287.391091 
L 182.826505 287.408465 
L 183.056478 287.383248 
L 183.164701 287.411423 
L 183.178229 287.397093 
L 183.435258 287.392938 
L 183.54348 287.403824 
L 183.557008 287.395127 
L 184.003427 287.402924 
L 184.2334 287.397413 
L 184.395734 287.399652 
L 184.720402 287.395658 
L 189.157532 287.405656 
L 189.306339 287.391399 
L 189.428089 287.397163 
L 189.739229 287.410419 
L 189.888036 287.399072 
L 190.158592 287.401044 
L 190.429149 287.389925 
L 190.564427 287.407462 
L 190.889096 287.394512 
L 191.024374 287.406701 
L 191.213764 287.386025 
L 191.36257 287.407689 
L 191.538432 287.396189 
L 192.011906 287.398062 
L 192.201296 287.399199 
L 192.431269 287.396786 
L 192.607131 287.408974 
L 192.79652 287.394908 
L 193.067077 287.407641 
L 193.215883 287.392658 
L 193.337634 287.395367 
L 193.567607 287.407014 
L 193.716413 287.397226 
L 193.905803 287.402634 
L 194.054609 287.396023 
L 194.230471 287.407597 
L 194.379277 287.38675 
L 194.4875 287.401507 
L 194.501028 287.395311 
L 194.852752 287.40454 
L 195.042141 287.392996 
L 195.17742 287.396443 
L 195.353282 287.404743 
L 195.502088 287.389225 
L 195.61031 287.404345 
L 195.623838 287.394372 
L 196.016146 287.403117 
L 196.259647 287.402274 
L 196.61137 287.401657 
L 196.746649 287.389313 
L 196.760177 287.402642 
L 197.233651 287.401973 
L 197.423041 287.400502 
L 197.666542 287.399125 
L 198.194127 287.39974 
L 198.383517 287.399558 
L 198.721713 287.404223 
L 198.911103 287.39311 
L 199.046381 287.395732 
L 199.222243 287.404443 
L 199.371049 287.388468 
L 199.479272 287.404775 
L 199.492799 287.394132 
L 199.898635 287.397477 
L 200.588554 287.400416 
L 200.859111 287.398264 
L 201.075556 287.395196 
L 201.346113 287.412849 
L 201.494919 287.397572 
L 201.684309 287.404847 
L 201.873699 287.391482 
L 202.008977 287.415062 
L 202.157783 287.385771 
L 202.293062 287.409038 
L 202.753008 287.399556 
L 203.185899 287.401123 
L 203.321177 287.385122 
L 203.334705 287.404167 
L 204.633377 287.405827 
L 204.782184 287.396236 
L 204.971573 287.403282 
L 205.147435 287.388375 
L 205.336825 287.405024 
L 205.607382 287.395289 
L 206.635497 287.403808 
L 206.811359 287.395453 
L 207.136027 287.403702 
L 207.271305 287.395954 
L 209.070508 287.394038 
L 209.205786 287.404615 
L 209.530454 287.393915 
L 209.665732 287.40472 
L 209.814539 287.389638 
L 209.922761 287.404736 
L 209.936289 287.394011 
L 210.301541 287.400362 
L 210.693848 287.398882 
L 210.842654 287.395228 
L 212.587745 287.402452 
L 212.723023 287.393342 
L 212.87183 287.40526 
L 213.020636 287.397842 
L 213.250609 287.404529 
L 213.385887 287.396032 
L 213.899945 287.406292 
L 219.635748 287.387677 
L 219.757498 287.395421 
L 220.028055 287.412771 
L 220.176861 287.392817 
L 220.31214 287.414589 
L 220.501529 287.388387 
L 220.636808 287.39776 
L 220.826197 287.401746 
L 221.015587 287.401704 
L 221.3132 287.405228 
L 221.556701 287.396886 
L 221.732562 287.408933 
L 221.921952 287.39524 
L 222.192509 287.407524 
L 222.341315 287.392748 
L 222.463066 287.395495 
L 222.693039 287.406759 
L 222.841845 287.397462 
L 223.031235 287.402387 
L 223.166513 287.393254 
L 223.315319 287.405568 
L 223.464126 287.392373 
L 223.599404 287.400266 
L 225.736802 287.401405 
L 225.885608 287.397769 
L 226.196749 287.397596 
L 226.494361 287.38352 
L 226.602584 287.411808 
L 226.616111 287.397204 
L 226.87314 287.392753 
L 226.981363 287.404271 
L 226.994891 287.395084 
L 227.400726 287.402089 
L 227.536004 287.393252 
L 227.684811 287.405332 
L 227.820089 287.398482 
L 229.605763 287.401873 
L 229.754569 287.397122 
L 229.984543 287.39811 
L 230.200988 287.395282 
L 230.471545 287.412605 
L 230.620351 287.397863 
L 230.904436 287.395583 
L 233.447669 287.392684 
L 233.555891 287.403294 
L 233.569419 287.394889 
L 233.894087 287.399006 
L 234.083477 287.400758 
L 234.719285 287.406162 
L 234.895147 287.397008 
L 235.179232 287.404085 
L 235.355094 287.384451 
L 235.368622 287.40355 
L 235.923263 287.4082 
L 236.099125 287.393744 
L 236.640238 287.396904 
L 237.032545 287.395182 
L 237.167824 287.406001 
L 237.357214 287.386429 
L 237.50602 287.406793 
L 237.654826 287.398208 
L 237.844216 287.401926 
L 237.979494 287.393098 
L 238.1283 287.405278 
L 238.263579 287.398298 
L 240.049253 287.401833 
L 240.184531 287.389048 
L 240.198059 287.402379 
L 240.549783 287.401009 
L 240.685061 287.39272 
L 240.82034 287.408179 
L 241.402037 287.395512 
L 241.537315 287.407533 
L 241.686121 287.392331 
L 241.794344 287.402775 
L 241.807872 287.395207 
L 242.200179 287.405668 
L 242.348985 287.393129 
L 242.484264 287.39541 
L 242.646598 287.40073 
L 243.038905 287.405916 
L 243.174183 287.390328 
L 243.417684 287.400457 
L 243.688241 287.398304 
L 243.837047 287.395612 
L 247.584258 287.398611 
L 247.800703 287.386688 
L 247.949509 287.406344 
L 248.098316 287.39819 
L 248.287705 287.401786 
L 248.422984 287.392988 
L 248.57179 287.405553 
L 248.707068 287.398181 
L 250.817411 287.407946 
L 250.952689 287.397324 
L 251.290885 287.38771 
L 251.453219 287.399023 
L 251.629081 287.392624 
L 251.764359 287.412764 
L 252.00786 287.393356 
L 252.143139 287.415758 
L 252.291945 287.393194 
L 252.305473 287.408295 
L 252.792475 287.393043 
L 252.927753 287.397867 
L 253.103615 287.404723 
L 253.252421 287.389642 
L 253.360644 287.404988 
L 253.374172 287.393836 
L 253.766479 287.402753 
L 254.091147 287.393286 
L 254.226425 287.40945 
L 254.415815 287.389711 
L 254.524038 287.406117 
L 254.537566 287.393647 
L 255.065151 287.406371 
L 255.254541 287.391154 
L 255.389819 287.408499 
L 255.619793 287.383268 
L 255.728015 287.411381 
L 255.741543 287.397073 
L 255.998572 287.392933 
L 256.106795 287.403793 
L 256.120323 287.395121 
L 256.566741 287.402912 
L 256.796714 287.39742 
L 256.959048 287.39966 
L 257.283717 287.395572 
L 259.394059 287.404018 
L 259.529337 287.386561 
L 259.678144 287.405312 
L 259.840478 287.403695 
L 260.286896 287.388689 
L 260.422175 287.406391 
L 260.909177 287.392552 
L 261.044455 287.41291 
L 261.247373 287.407858 
L 262.911296 287.398885 
L 263.100686 287.401391 
L 263.235965 287.392934 
L 263.371243 287.409812 
L 263.736494 287.392877 
L 263.844717 287.405629 
L 263.858245 287.395279 
L 264.548165 287.410365 
L 264.683443 287.399328 
L 265.982115 287.386839 
L 266.090338 287.40509 
L 266.225616 287.396566 
L 266.550284 287.40384 
L 266.739674 287.404377 
L 267.848957 287.397538 
L 268.065402 287.389319 
L 268.173625 287.404304 
L 268.187153 287.39438 
L 268.57946 287.403157 
L 268.822961 287.4023 
L 269.174685 287.401641 
L 269.309963 287.389328 
L 269.323491 287.402658 
L 269.796965 287.40196 
L 269.986355 287.400509 
L 270.229856 287.398293 
L 270.662747 287.407516 
L 270.811553 287.39237 
L 270.933303 287.395254 
L 271.285027 287.404291 
L 271.474417 287.393088 
L 271.609695 287.395807 
L 271.785557 287.40448 
L 271.934363 287.388517 
L 272.042586 287.404755 
L 272.056114 287.394134 
L 272.461949 287.39745 
L 273.151869 287.400426 
L 273.449481 287.411294 
L 273.584759 287.402111 
L 273.841788 287.387841 
L 274.01765 287.401577 
L 274.409957 287.411257 
L 274.558764 287.393224 
L 274.694042 287.416817 
L 274.842848 287.393429 
L 274.991654 287.405367 
L 275.126933 287.399191 
L 276.385021 287.392539 
L 276.5203 287.409357 
L 276.885551 287.39263 
L 276.993774 287.403687 
L 277.007302 287.392815 
L 277.237275 287.40777 
L 277.386081 287.392975 
L 277.507832 287.395122 
L 277.791916 287.397901 
L 278.008362 287.39561 
L 278.278919 287.412142 
L 278.427725 287.393021 
L 278.563003 287.416392 
L 278.711809 287.393693 
L 278.725337 287.408172 
L 279.347618 287.394213 
L 279.496424 287.399028 
L 282.323742 287.400567 
L 282.45902 287.385733 
L 282.472548 287.404707 
L 355.008807 287.403304 
L 355.144085 287.393992 
L 355.292891 287.404694 
L 355.441697 287.396864 
L 355.712254 287.40679 
L 355.86106 287.393398 
L 355.996339 287.405163 
L 356.23984 287.396804 
L 356.415702 287.40552 
L 356.564508 287.386963 
L 356.699786 287.410838 
L 356.902704 287.394812 
L 357.037982 287.416456 
L 357.186788 287.392673 
L 357.322067 287.399132 
L 357.538512 287.407508 
L 357.687318 287.392952 
L 357.809069 287.395135 
L 358.201376 287.404186 
L 358.566628 287.394378 
L 358.701906 287.406366 
L 358.904823 287.404233 
L 360.419941 287.40144 
L 360.555219 287.392819 
L 360.704026 287.405623 
L 360.852832 287.39461 
L 360.98811 287.401342 
L 361.556279 287.392995 
L 361.664502 287.40421 
L 361.67803 287.395207 
L 362.165032 287.401913 
L 362.435589 287.394133 
L 362.570867 287.405933 
L 362.80084 287.393685 
L 363.206675 287.399164 
L 363.558399 287.391582 
L 363.68015 287.397661 
L 363.99129 287.410011 
L 364.167152 287.388683 
L 364.329486 287.403034 
L 364.518876 287.394733 
L 364.654154 287.413764 
L 364.667682 287.398178 
L 364.884127 287.395418 
L 365.154684 287.412506 
L 365.30349 287.392856 
L 365.438768 287.414665 
L 365.628158 287.395937 
L 366.453356 287.3987 
L 366.723913 287.395062 
L 366.886247 287.401648 
L 367.495 287.400239 
L 367.630278 287.392596 
L 367.765556 287.412045 
L 368.036113 287.389616 
L 368.225503 287.399747 
L 368.61781 287.400623 
L 368.766616 287.400721 
L 369.443008 287.40647 
L 369.61887 287.391224 
L 369.902954 287.403927 
L 370.092344 287.396555 
L 370.24115 287.399572 
L 371.215155 287.39449 
L 371.350433 287.416912 
L 371.499239 287.392676 
L 371.634517 287.410255 
L 371.959186 287.396126 
L 372.189159 287.406265 
L 372.365021 287.395262 
L 373.163163 287.393243 
L 373.298441 287.396101 
L 373.474303 287.404586 
L 373.636637 287.402316 
L 374.164223 287.39555 
L 374.353613 287.404833 
L 374.488891 287.395821 
L 374.732392 287.401854 
L 374.86767 287.389124 
L 375.016477 287.405844 
L 375.165283 287.390626 
L 375.287033 287.395943 
L 375.598174 287.412234 
L 375.74698 287.397966 
L 376.017536 287.403927 
L 376.233982 287.395696 
L 376.829207 287.398609 
L 377.113291 287.393471 
L 377.55971 287.403772 
L 377.708516 287.407197 
L 378.790743 287.396353 
L 378.939549 287.394799 
L 380.49525 287.403594 
L 381.049892 287.408179 
L 381.225753 287.393714 
L 381.766867 287.396767 
L 382.159174 287.395382 
L 382.294453 287.406209 
L 382.483842 287.386521 
L 382.632648 287.406718 
L 382.781455 287.398295 
L 382.970844 287.401842 
L 383.106123 287.393051 
L 383.254929 287.405306 
L 383.390207 287.398222 
L 384.972964 287.397684 
L 385.270577 287.383674 
L 385.378799 287.407621 
L 385.392327 287.396011 
L 386.731583 287.388992 
L 386.826278 287.416792 
L 386.839806 287.402273 
L 386.975084 287.393265 
L 387.12389 287.405246 
L 387.272696 287.398375 
L 387.543253 287.405936 
L 387.692059 287.39409 
L 387.827338 287.406407 
L 388.016727 287.385666 
L 388.165534 287.405902 
L 388.300812 287.390191 
L 388.530785 287.399924 
L 389.274816 287.394319 
L 389.410095 287.413839 
L 389.423622 287.393009 
L 390.167653 287.401205 
L 390.357043 287.400381 
L 390.587016 287.399739 
L 390.762878 287.394321 
L 391.087546 287.398944 
L 391.263408 287.395889 
L 391.655715 287.404203 
L 391.804522 287.389602 
L 391.912744 287.40528 
L 391.926272 287.393819 
L 392.332107 287.398683 
L 392.724414 287.390898 
L 392.846165 287.395816 
L 393.035555 287.404753 
L 393.170833 287.395713 
L 393.373751 287.398429 
L 393.644307 287.395053 
L 393.779586 287.41346 
L 393.793114 287.397972 
L 394.009559 287.395502 
L 394.280116 287.412368 
L 394.428922 287.392934 
L 394.5642 287.415163 
L 394.75359 287.388055 
L 394.861813 287.404985 
L 394.87534 287.390334 
L 395.118841 287.403342 
L 395.348815 287.3942 
L 395.497621 287.398852 
L 398.487273 287.404781 
L 398.487273 287.404781 
" style="fill:none;stroke:#d62728;stroke-linecap:square;stroke-width:1.5;"/>
   </g>
   <g id="line2d_22">
    <path clip-path="url(#p3f016e9a78)" d="M 73.832727 295.488 
L 398.487273 295.488 
L 398.487273 295.488 
" style="fill:none;stroke:#9467bd;stroke-linecap:square;stroke-width:1.5;"/>
   </g>
   <g id="patch_3">
    <path d="M 57.6 307.584 
L 57.6 41.472 
" style="fill:none;stroke:#000000;stroke-linecap:square;stroke-linejoin:miter;stroke-width:0.8;"/>
   </g>
   <g id="patch_4">
    <path d="M 414.72 307.584 
L 414.72 41.472 
" style="fill:none;stroke:#000000;stroke-linecap:square;stroke-linejoin:miter;stroke-width:0.8;"/>
   </g>
   <g id="patch_5">
    <path d="M 57.6 307.584 
L 414.72 307.584 
" style="fill:none;stroke:#000000;stroke-linecap:square;stroke-linejoin:miter;stroke-width:0.8;"/>
   </g>
   <g id="patch_6">
    <path d="M 57.6 41.472 
L 414.72 41.472 
" style="fill:none;stroke:#000000;stroke-linecap:square;stroke-linejoin:miter;stroke-width:0.8;"/>
   </g>
   <g id="legend_1">
    <g id="patch_7">
     <path d="M 356.516875 122.862625 
L 407.72 122.862625 
Q 409.72 122.862625 409.72 120.862625 
L 409.72 48.472 
Q 409.72 46.472 407.72 46.472 
L 356.516875 46.472 
Q 354.516875 46.472 354.516875 48.472 
L 354.516875 120.862625 
Q 354.516875 122.862625 356.516875 122.862625 
z
" style="fill:#ffffff;opacity:0.8;stroke:#cccccc;stroke-linejoin:miter;"/>
    </g>
    <g id="line2d_23">
     <path d="M 358.516875 54.570438 
L 378.516875 54.570438 
" style="fill:none;stroke:#1f77b4;stroke-linecap:square;stroke-width:1.5;"/>
    </g>
    <g id="line2d_24"/>
    <g id="text_21">
     <!-- T+ -->
     <g transform="translate(386.516875 58.070438)scale(0.1 -0.1)">
      <defs>
       <path d="M 46 62.703125 
L 46 35.5 
L 73.1875 35.5 
L 73.1875 27.203125 
L 46 27.203125 
L 46 0 
L 37.796875 0 
L 37.796875 27.203125 
L 10.59375 27.203125 
L 10.59375 35.5 
L 37.796875 35.5 
L 37.796875 62.703125 
z
" id="DejaVuSans-43"/>
      </defs>
      <use xlink:href="#DejaVuSans-84"/>
      <use x="61.083984" xlink:href="#DejaVuSans-43"/>
     </g>
    </g>
    <g id="line2d_25">
     <path d="M 358.516875 69.248563 
L 378.516875 69.248563 
" style="fill:none;stroke:#ff7f0e;stroke-linecap:square;stroke-width:1.5;"/>
    </g>
    <g id="line2d_26"/>
    <g id="text_22">
     <!-- Tp -->
     <g transform="translate(386.516875 72.748563)scale(0.1 -0.1)">
      <defs>
       <path d="M 18.109375 8.203125 
L 18.109375 -20.796875 
L 9.078125 -20.796875 
L 9.078125 54.6875 
L 18.109375 54.6875 
L 18.109375 46.390625 
Q 20.953125 51.265625 25.265625 53.625 
Q 29.59375 56 35.59375 56 
Q 45.5625 56 51.78125 48.09375 
Q 58.015625 40.1875 58.015625 27.296875 
Q 58.015625 14.40625 51.78125 6.484375 
Q 45.5625 -1.421875 35.59375 -1.421875 
Q 29.59375 -1.421875 25.265625 0.953125 
Q 20.953125 3.328125 18.109375 8.203125 
z
M 48.6875 27.296875 
Q 48.6875 37.203125 44.609375 42.84375 
Q 40.53125 48.484375 33.40625 48.484375 
Q 26.265625 48.484375 22.1875 42.84375 
Q 18.109375 37.203125 18.109375 27.296875 
Q 18.109375 17.390625 22.1875 11.75 
Q 26.265625 6.109375 33.40625 6.109375 
Q 40.53125 6.109375 44.609375 11.75 
Q 48.6875 17.390625 48.6875 27.296875 
z
" id="DejaVuSans-112"/>
      </defs>
      <use xlink:href="#DejaVuSans-84"/>
      <use x="61.083984" xlink:href="#DejaVuSans-112"/>
     </g>
    </g>
    <g id="line2d_27">
     <path d="M 358.516875 83.926688 
L 378.516875 83.926688 
" style="fill:none;stroke:#2ca02c;stroke-linecap:square;stroke-width:1.5;"/>
    </g>
    <g id="line2d_28"/>
    <g id="text_23">
     <!-- T- -->
     <g transform="translate(386.516875 87.426688)scale(0.1 -0.1)">
      <defs>
       <path d="M 4.890625 31.390625 
L 31.203125 31.390625 
L 31.203125 23.390625 
L 4.890625 23.390625 
z
" id="DejaVuSans-45"/>
      </defs>
      <use xlink:href="#DejaVuSans-84"/>
      <use x="51.958984" xlink:href="#DejaVuSans-45"/>
     </g>
    </g>
    <g id="line2d_29">
     <path d="M 358.516875 98.604813 
L 378.516875 98.604813 
" style="fill:none;stroke:#d62728;stroke-linecap:square;stroke-width:1.5;"/>
    </g>
    <g id="line2d_30"/>
    <g id="text_24">
     <!-- O2 -->
     <g transform="translate(386.516875 102.104813)scale(0.1 -0.1)">
      <defs>
       <path d="M 39.40625 66.21875 
Q 28.65625 66.21875 22.328125 58.203125 
Q 16.015625 50.203125 16.015625 36.375 
Q 16.015625 22.609375 22.328125 14.59375 
Q 28.65625 6.59375 39.40625 6.59375 
Q 50.140625 6.59375 56.421875 14.59375 
Q 62.703125 22.609375 62.703125 36.375 
Q 62.703125 50.203125 56.421875 58.203125 
Q 50.140625 66.21875 39.40625 66.21875 
z
M 39.40625 74.21875 
Q 54.734375 74.21875 63.90625 63.9375 
Q 73.09375 53.65625 73.09375 36.375 
Q 73.09375 19.140625 63.90625 8.859375 
Q 54.734375 -1.421875 39.40625 -1.421875 
Q 24.03125 -1.421875 14.8125 8.828125 
Q 5.609375 19.09375 5.609375 36.375 
Q 5.609375 53.65625 14.8125 63.9375 
Q 24.03125 74.21875 39.40625 74.21875 
z
" id="DejaVuSans-79"/>
      </defs>
      <use xlink:href="#DejaVuSans-79"/>
      <use x="78.710938" xlink:href="#DejaVuSans-50"/>
     </g>
    </g>
    <g id="line2d_31">
     <path d="M 358.516875 113.282938 
L 378.516875 113.282938 
" style="fill:none;stroke:#9467bd;stroke-linecap:square;stroke-width:1.5;"/>
    </g>
    <g id="line2d_32"/>
    <g id="text_25">
     <!-- test -->
     <g transform="translate(386.516875 116.782938)scale(0.1 -0.1)">
      <use xlink:href="#DejaVuSans-116"/>
      <use x="39.208984" xlink:href="#DejaVuSans-101"/>
      <use x="100.732422" xlink:href="#DejaVuSans-115"/>
      <use x="152.832031" xlink:href="#DejaVuSans-116"/>
     </g>
    </g>
   </g>
  </g>
 </g>
 <defs>
  <clipPath id="p3f016e9a78">
   <rect height="266.112" width="357.12" x="57.6" y="41.472"/>
  </clipPath>
 </defs>
</svg>
