<?xml version="1.0" encoding="utf-8" standalone="no"?>
<!DOCTYPE svg PUBLIC "-//W3C//DTD SVG 1.1//EN"
  "http://www.w3.org/Graphics/SVG/1.1/DTD/svg11.dtd">
<!-- Created with matplotlib (https://matplotlib.org/) -->
<svg height="345.6pt" version="1.1" viewBox="0 0 460.8 345.6" width="460.8pt" xmlns="http://www.w3.org/2000/svg" xmlns:xlink="http://www.w3.org/1999/xlink">
 <metadata>
  <rdf:RDF xmlns:cc="http://creativecommons.org/ns#" xmlns:dc="http://purl.org/dc/elements/1.1/" xmlns:rdf="http://www.w3.org/1999/02/22-rdf-syntax-ns#">
   <cc:Work>
    <dc:type rdf:resource="http://purl.org/dc/dcmitype/StillImage"/>
    <dc:date>2020-10-24T13:52:37.830051</dc:date>
    <dc:format>image/svg+xml</dc:format>
    <dc:creator>
     <cc:Agent>
      <dc:title>Matplotlib v3.3.2, https://matplotlib.org/</dc:title>
     </cc:Agent>
    </dc:creator>
   </cc:Work>
  </rdf:RDF>
 </metadata>
 <defs>
  <style type="text/css">*{stroke-linecap:butt;stroke-linejoin:round;}</style>
 </defs>
 <g id="figure_1">
  <g id="patch_1">
   <path d="M 0 345.6 
L 460.8 345.6 
L 460.8 0 
L 0 0 
z
" style="fill:#ffffff;"/>
  </g>
  <g id="axes_1">
   <g id="patch_2">
    <path d="M 57.6 307.584 
L 414.72 307.584 
L 414.72 41.472 
L 57.6 41.472 
z
" style="fill:#ffffff;"/>
   </g>
   <g id="matplotlib.axis_1">
    <g id="xtick_1">
     <g id="line2d_1">
      <defs>
       <path d="M 0 0 
L 0 3.5 
" id="m800fc5915e" style="stroke:#000000;stroke-width:0.8;"/>
      </defs>
      <g>
       <use style="stroke:#000000;stroke-width:0.8;" x="73.832727" xlink:href="#m800fc5915e" y="307.584"/>
      </g>
     </g>
     <g id="text_1">
      <!-- 0.0 -->
      <g transform="translate(65.881165 322.182437)scale(0.1 -0.1)">
       <defs>
        <path d="M 31.78125 66.40625 
Q 24.171875 66.40625 20.328125 58.90625 
Q 16.5 51.421875 16.5 36.375 
Q 16.5 21.390625 20.328125 13.890625 
Q 24.171875 6.390625 31.78125 6.390625 
Q 39.453125 6.390625 43.28125 13.890625 
Q 47.125 21.390625 47.125 36.375 
Q 47.125 51.421875 43.28125 58.90625 
Q 39.453125 66.40625 31.78125 66.40625 
z
M 31.78125 74.21875 
Q 44.046875 74.21875 50.515625 64.515625 
Q 56.984375 54.828125 56.984375 36.375 
Q 56.984375 17.96875 50.515625 8.265625 
Q 44.046875 -1.421875 31.78125 -1.421875 
Q 19.53125 -1.421875 13.0625 8.265625 
Q 6.59375 17.96875 6.59375 36.375 
Q 6.59375 54.828125 13.0625 64.515625 
Q 19.53125 74.21875 31.78125 74.21875 
z
" id="DejaVuSans-48"/>
        <path d="M 10.6875 12.40625 
L 21 12.40625 
L 21 0 
L 10.6875 0 
z
" id="DejaVuSans-46"/>
       </defs>
       <use xlink:href="#DejaVuSans-48"/>
       <use x="63.623047" xlink:href="#DejaVuSans-46"/>
       <use x="95.410156" xlink:href="#DejaVuSans-48"/>
      </g>
     </g>
    </g>
    <g id="xtick_2">
     <g id="line2d_2">
      <g>
       <use style="stroke:#000000;stroke-width:0.8;" x="118.925515" xlink:href="#m800fc5915e" y="307.584"/>
      </g>
     </g>
     <g id="text_2">
      <!-- 0.2 -->
      <g transform="translate(110.973953 322.182437)scale(0.1 -0.1)">
       <defs>
        <path d="M 19.1875 8.296875 
L 53.609375 8.296875 
L 53.609375 0 
L 7.328125 0 
L 7.328125 8.296875 
Q 12.9375 14.109375 22.625 23.890625 
Q 32.328125 33.6875 34.8125 36.53125 
Q 39.546875 41.84375 41.421875 45.53125 
Q 43.3125 49.21875 43.3125 52.78125 
Q 43.3125 58.59375 39.234375 62.25 
Q 35.15625 65.921875 28.609375 65.921875 
Q 23.96875 65.921875 18.8125 64.3125 
Q 13.671875 62.703125 7.8125 59.421875 
L 7.8125 69.390625 
Q 13.765625 71.78125 18.9375 73 
Q 24.125 74.21875 28.421875 74.21875 
Q 39.75 74.21875 46.484375 68.546875 
Q 53.21875 62.890625 53.21875 53.421875 
Q 53.21875 48.921875 51.53125 44.890625 
Q 49.859375 40.875 45.40625 35.40625 
Q 44.1875 33.984375 37.640625 27.21875 
Q 31.109375 20.453125 19.1875 8.296875 
z
" id="DejaVuSans-50"/>
       </defs>
       <use xlink:href="#DejaVuSans-48"/>
       <use x="63.623047" xlink:href="#DejaVuSans-46"/>
       <use x="95.410156" xlink:href="#DejaVuSans-50"/>
      </g>
     </g>
    </g>
    <g id="xtick_3">
     <g id="line2d_3">
      <g>
       <use style="stroke:#000000;stroke-width:0.8;" x="164.018303" xlink:href="#m800fc5915e" y="307.584"/>
      </g>
     </g>
     <g id="text_3">
      <!-- 0.4 -->
      <g transform="translate(156.066741 322.182437)scale(0.1 -0.1)">
       <defs>
        <path d="M 37.796875 64.3125 
L 12.890625 25.390625 
L 37.796875 25.390625 
z
M 35.203125 72.90625 
L 47.609375 72.90625 
L 47.609375 25.390625 
L 58.015625 25.390625 
L 58.015625 17.1875 
L 47.609375 17.1875 
L 47.609375 0 
L 37.796875 0 
L 37.796875 17.1875 
L 4.890625 17.1875 
L 4.890625 26.703125 
z
" id="DejaVuSans-52"/>
       </defs>
       <use xlink:href="#DejaVuSans-48"/>
       <use x="63.623047" xlink:href="#DejaVuSans-46"/>
       <use x="95.410156" xlink:href="#DejaVuSans-52"/>
      </g>
     </g>
    </g>
    <g id="xtick_4">
     <g id="line2d_4">
      <g>
       <use style="stroke:#000000;stroke-width:0.8;" x="209.111091" xlink:href="#m800fc5915e" y="307.584"/>
      </g>
     </g>
     <g id="text_4">
      <!-- 0.6 -->
      <g transform="translate(201.159529 322.182437)scale(0.1 -0.1)">
       <defs>
        <path d="M 33.015625 40.375 
Q 26.375 40.375 22.484375 35.828125 
Q 18.609375 31.296875 18.609375 23.390625 
Q 18.609375 15.53125 22.484375 10.953125 
Q 26.375 6.390625 33.015625 6.390625 
Q 39.65625 6.390625 43.53125 10.953125 
Q 47.40625 15.53125 47.40625 23.390625 
Q 47.40625 31.296875 43.53125 35.828125 
Q 39.65625 40.375 33.015625 40.375 
z
M 52.59375 71.296875 
L 52.59375 62.3125 
Q 48.875 64.0625 45.09375 64.984375 
Q 41.3125 65.921875 37.59375 65.921875 
Q 27.828125 65.921875 22.671875 59.328125 
Q 17.53125 52.734375 16.796875 39.40625 
Q 19.671875 43.65625 24.015625 45.921875 
Q 28.375 48.1875 33.59375 48.1875 
Q 44.578125 48.1875 50.953125 41.515625 
Q 57.328125 34.859375 57.328125 23.390625 
Q 57.328125 12.15625 50.6875 5.359375 
Q 44.046875 -1.421875 33.015625 -1.421875 
Q 20.359375 -1.421875 13.671875 8.265625 
Q 6.984375 17.96875 6.984375 36.375 
Q 6.984375 53.65625 15.1875 63.9375 
Q 23.390625 74.21875 37.203125 74.21875 
Q 40.921875 74.21875 44.703125 73.484375 
Q 48.484375 72.75 52.59375 71.296875 
z
" id="DejaVuSans-54"/>
       </defs>
       <use xlink:href="#DejaVuSans-48"/>
       <use x="63.623047" xlink:href="#DejaVuSans-46"/>
       <use x="95.410156" xlink:href="#DejaVuSans-54"/>
      </g>
     </g>
    </g>
    <g id="xtick_5">
     <g id="line2d_5">
      <g>
       <use style="stroke:#000000;stroke-width:0.8;" x="254.203879" xlink:href="#m800fc5915e" y="307.584"/>
      </g>
     </g>
     <g id="text_5">
      <!-- 0.8 -->
      <g transform="translate(246.252317 322.182437)scale(0.1 -0.1)">
       <defs>
        <path d="M 31.78125 34.625 
Q 24.75 34.625 20.71875 30.859375 
Q 16.703125 27.09375 16.703125 20.515625 
Q 16.703125 13.921875 20.71875 10.15625 
Q 24.75 6.390625 31.78125 6.390625 
Q 38.8125 6.390625 42.859375 10.171875 
Q 46.921875 13.96875 46.921875 20.515625 
Q 46.921875 27.09375 42.890625 30.859375 
Q 38.875 34.625 31.78125 34.625 
z
M 21.921875 38.8125 
Q 15.578125 40.375 12.03125 44.71875 
Q 8.5 49.078125 8.5 55.328125 
Q 8.5 64.0625 14.71875 69.140625 
Q 20.953125 74.21875 31.78125 74.21875 
Q 42.671875 74.21875 48.875 69.140625 
Q 55.078125 64.0625 55.078125 55.328125 
Q 55.078125 49.078125 51.53125 44.71875 
Q 48 40.375 41.703125 38.8125 
Q 48.828125 37.15625 52.796875 32.3125 
Q 56.78125 27.484375 56.78125 20.515625 
Q 56.78125 9.90625 50.3125 4.234375 
Q 43.84375 -1.421875 31.78125 -1.421875 
Q 19.734375 -1.421875 13.25 4.234375 
Q 6.78125 9.90625 6.78125 20.515625 
Q 6.78125 27.484375 10.78125 32.3125 
Q 14.796875 37.15625 21.921875 38.8125 
z
M 18.3125 54.390625 
Q 18.3125 48.734375 21.84375 45.5625 
Q 25.390625 42.390625 31.78125 42.390625 
Q 38.140625 42.390625 41.71875 45.5625 
Q 45.3125 48.734375 45.3125 54.390625 
Q 45.3125 60.0625 41.71875 63.234375 
Q 38.140625 66.40625 31.78125 66.40625 
Q 25.390625 66.40625 21.84375 63.234375 
Q 18.3125 60.0625 18.3125 54.390625 
z
" id="DejaVuSans-56"/>
       </defs>
       <use xlink:href="#DejaVuSans-48"/>
       <use x="63.623047" xlink:href="#DejaVuSans-46"/>
       <use x="95.410156" xlink:href="#DejaVuSans-56"/>
      </g>
     </g>
    </g>
    <g id="xtick_6">
     <g id="line2d_6">
      <g>
       <use style="stroke:#000000;stroke-width:0.8;" x="299.296667" xlink:href="#m800fc5915e" y="307.584"/>
      </g>
     </g>
     <g id="text_6">
      <!-- 1.0 -->
      <g transform="translate(291.345105 322.182437)scale(0.1 -0.1)">
       <defs>
        <path d="M 12.40625 8.296875 
L 28.515625 8.296875 
L 28.515625 63.921875 
L 10.984375 60.40625 
L 10.984375 69.390625 
L 28.421875 72.90625 
L 38.28125 72.90625 
L 38.28125 8.296875 
L 54.390625 8.296875 
L 54.390625 0 
L 12.40625 0 
z
" id="DejaVuSans-49"/>
       </defs>
       <use xlink:href="#DejaVuSans-49"/>
       <use x="63.623047" xlink:href="#DejaVuSans-46"/>
       <use x="95.410156" xlink:href="#DejaVuSans-48"/>
      </g>
     </g>
    </g>
    <g id="xtick_7">
     <g id="line2d_7">
      <g>
       <use style="stroke:#000000;stroke-width:0.8;" x="344.389455" xlink:href="#m800fc5915e" y="307.584"/>
      </g>
     </g>
     <g id="text_7">
      <!-- 1.2 -->
      <g transform="translate(336.437893 322.182437)scale(0.1 -0.1)">
       <use xlink:href="#DejaVuSans-49"/>
       <use x="63.623047" xlink:href="#DejaVuSans-46"/>
       <use x="95.410156" xlink:href="#DejaVuSans-50"/>
      </g>
     </g>
    </g>
    <g id="xtick_8">
     <g id="line2d_8">
      <g>
       <use style="stroke:#000000;stroke-width:0.8;" x="389.482243" xlink:href="#m800fc5915e" y="307.584"/>
      </g>
     </g>
     <g id="text_8">
      <!-- 1.4 -->
      <g transform="translate(381.53068 322.182437)scale(0.1 -0.1)">
       <use xlink:href="#DejaVuSans-49"/>
       <use x="63.623047" xlink:href="#DejaVuSans-46"/>
       <use x="95.410156" xlink:href="#DejaVuSans-52"/>
      </g>
     </g>
    </g>
    <g id="text_9">
     <!-- Time (min) -->
     <g transform="translate(209.007656 335.860562)scale(0.1 -0.1)">
      <defs>
       <path d="M -0.296875 72.90625 
L 61.375 72.90625 
L 61.375 64.59375 
L 35.5 64.59375 
L 35.5 0 
L 25.59375 0 
L 25.59375 64.59375 
L -0.296875 64.59375 
z
" id="DejaVuSans-84"/>
       <path d="M 9.421875 54.6875 
L 18.40625 54.6875 
L 18.40625 0 
L 9.421875 0 
z
M 9.421875 75.984375 
L 18.40625 75.984375 
L 18.40625 64.59375 
L 9.421875 64.59375 
z
" id="DejaVuSans-105"/>
       <path d="M 52 44.1875 
Q 55.375 50.25 60.0625 53.125 
Q 64.75 56 71.09375 56 
Q 79.640625 56 84.28125 50.015625 
Q 88.921875 44.046875 88.921875 33.015625 
L 88.921875 0 
L 79.890625 0 
L 79.890625 32.71875 
Q 79.890625 40.578125 77.09375 44.375 
Q 74.3125 48.1875 68.609375 48.1875 
Q 61.625 48.1875 57.5625 43.546875 
Q 53.515625 38.921875 53.515625 30.90625 
L 53.515625 0 
L 44.484375 0 
L 44.484375 32.71875 
Q 44.484375 40.625 41.703125 44.40625 
Q 38.921875 48.1875 33.109375 48.1875 
Q 26.21875 48.1875 22.15625 43.53125 
Q 18.109375 38.875 18.109375 30.90625 
L 18.109375 0 
L 9.078125 0 
L 9.078125 54.6875 
L 18.109375 54.6875 
L 18.109375 46.1875 
Q 21.1875 51.21875 25.484375 53.609375 
Q 29.78125 56 35.6875 56 
Q 41.65625 56 45.828125 52.96875 
Q 50 49.953125 52 44.1875 
z
" id="DejaVuSans-109"/>
       <path d="M 56.203125 29.59375 
L 56.203125 25.203125 
L 14.890625 25.203125 
Q 15.484375 15.921875 20.484375 11.0625 
Q 25.484375 6.203125 34.421875 6.203125 
Q 39.59375 6.203125 44.453125 7.46875 
Q 49.3125 8.734375 54.109375 11.28125 
L 54.109375 2.78125 
Q 49.265625 0.734375 44.1875 -0.34375 
Q 39.109375 -1.421875 33.890625 -1.421875 
Q 20.796875 -1.421875 13.15625 6.1875 
Q 5.515625 13.8125 5.515625 26.8125 
Q 5.515625 40.234375 12.765625 48.109375 
Q 20.015625 56 32.328125 56 
Q 43.359375 56 49.78125 48.890625 
Q 56.203125 41.796875 56.203125 29.59375 
z
M 47.21875 32.234375 
Q 47.125 39.59375 43.09375 43.984375 
Q 39.0625 48.390625 32.421875 48.390625 
Q 24.90625 48.390625 20.390625 44.140625 
Q 15.875 39.890625 15.1875 32.171875 
z
" id="DejaVuSans-101"/>
       <path id="DejaVuSans-32"/>
       <path d="M 31 75.875 
Q 24.46875 64.65625 21.28125 53.65625 
Q 18.109375 42.671875 18.109375 31.390625 
Q 18.109375 20.125 21.3125 9.0625 
Q 24.515625 -2 31 -13.1875 
L 23.1875 -13.1875 
Q 15.875 -1.703125 12.234375 9.375 
Q 8.59375 20.453125 8.59375 31.390625 
Q 8.59375 42.28125 12.203125 53.3125 
Q 15.828125 64.359375 23.1875 75.875 
z
" id="DejaVuSans-40"/>
       <path d="M 54.890625 33.015625 
L 54.890625 0 
L 45.90625 0 
L 45.90625 32.71875 
Q 45.90625 40.484375 42.875 44.328125 
Q 39.84375 48.1875 33.796875 48.1875 
Q 26.515625 48.1875 22.3125 43.546875 
Q 18.109375 38.921875 18.109375 30.90625 
L 18.109375 0 
L 9.078125 0 
L 9.078125 54.6875 
L 18.109375 54.6875 
L 18.109375 46.1875 
Q 21.34375 51.125 25.703125 53.5625 
Q 30.078125 56 35.796875 56 
Q 45.21875 56 50.046875 50.171875 
Q 54.890625 44.34375 54.890625 33.015625 
z
" id="DejaVuSans-110"/>
       <path d="M 8.015625 75.875 
L 15.828125 75.875 
Q 23.140625 64.359375 26.78125 53.3125 
Q 30.421875 42.28125 30.421875 31.390625 
Q 30.421875 20.453125 26.78125 9.375 
Q 23.140625 -1.703125 15.828125 -13.1875 
L 8.015625 -13.1875 
Q 14.5 -2 17.703125 9.0625 
Q 20.90625 20.125 20.90625 31.390625 
Q 20.90625 42.671875 17.703125 53.65625 
Q 14.5 64.65625 8.015625 75.875 
z
" id="DejaVuSans-41"/>
      </defs>
      <use xlink:href="#DejaVuSans-84"/>
      <use x="57.958984" xlink:href="#DejaVuSans-105"/>
      <use x="85.742188" xlink:href="#DejaVuSans-109"/>
      <use x="183.154297" xlink:href="#DejaVuSans-101"/>
      <use x="244.677734" xlink:href="#DejaVuSans-32"/>
      <use x="276.464844" xlink:href="#DejaVuSans-40"/>
      <use x="315.478516" xlink:href="#DejaVuSans-109"/>
      <use x="412.890625" xlink:href="#DejaVuSans-105"/>
      <use x="440.673828" xlink:href="#DejaVuSans-110"/>
      <use x="504.052734" xlink:href="#DejaVuSans-41"/>
     </g>
    </g>
    <g id="text_10">
     <!-- 1e6 -->
     <g transform="translate(395.841875 334.860562)scale(0.1 -0.1)">
      <use xlink:href="#DejaVuSans-49"/>
      <use x="63.623047" xlink:href="#DejaVuSans-101"/>
      <use x="125.146484" xlink:href="#DejaVuSans-54"/>
     </g>
    </g>
   </g>
   <g id="matplotlib.axis_2">
    <g id="ytick_1">
     <g id="line2d_9">
      <defs>
       <path d="M 0 0 
L -3.5 0 
" id="mce62203d72" style="stroke:#000000;stroke-width:0.8;"/>
      </defs>
      <g>
       <use style="stroke:#000000;stroke-width:0.8;" x="57.6" xlink:href="#mce62203d72" y="294.846137"/>
      </g>
     </g>
     <g id="text_11">
      <!-- −100 -->
      <g transform="translate(23.132812 298.645355)scale(0.1 -0.1)">
       <defs>
        <path d="M 10.59375 35.5 
L 73.1875 35.5 
L 73.1875 27.203125 
L 10.59375 27.203125 
z
" id="DejaVuSans-8722"/>
       </defs>
       <use xlink:href="#DejaVuSans-8722"/>
       <use x="83.789062" xlink:href="#DejaVuSans-49"/>
       <use x="147.412109" xlink:href="#DejaVuSans-48"/>
       <use x="211.035156" xlink:href="#DejaVuSans-48"/>
      </g>
     </g>
    </g>
    <g id="ytick_2">
     <g id="line2d_10">
      <g>
       <use style="stroke:#000000;stroke-width:0.8;" x="57.6" xlink:href="#mce62203d72" y="264.686369"/>
      </g>
     </g>
     <g id="text_12">
      <!-- −75 -->
      <g transform="translate(29.495313 268.485588)scale(0.1 -0.1)">
       <defs>
        <path d="M 8.203125 72.90625 
L 55.078125 72.90625 
L 55.078125 68.703125 
L 28.609375 0 
L 18.3125 0 
L 43.21875 64.59375 
L 8.203125 64.59375 
z
" id="DejaVuSans-55"/>
        <path d="M 10.796875 72.90625 
L 49.515625 72.90625 
L 49.515625 64.59375 
L 19.828125 64.59375 
L 19.828125 46.734375 
Q 21.96875 47.46875 24.109375 47.828125 
Q 26.265625 48.1875 28.421875 48.1875 
Q 40.625 48.1875 47.75 41.5 
Q 54.890625 34.8125 54.890625 23.390625 
Q 54.890625 11.625 47.5625 5.09375 
Q 40.234375 -1.421875 26.90625 -1.421875 
Q 22.3125 -1.421875 17.546875 -0.640625 
Q 12.796875 0.140625 7.71875 1.703125 
L 7.71875 11.625 
Q 12.109375 9.234375 16.796875 8.0625 
Q 21.484375 6.890625 26.703125 6.890625 
Q 35.15625 6.890625 40.078125 11.328125 
Q 45.015625 15.765625 45.015625 23.390625 
Q 45.015625 31 40.078125 35.4375 
Q 35.15625 39.890625 26.703125 39.890625 
Q 22.75 39.890625 18.8125 39.015625 
Q 14.890625 38.140625 10.796875 36.28125 
z
" id="DejaVuSans-53"/>
       </defs>
       <use xlink:href="#DejaVuSans-8722"/>
       <use x="83.789062" xlink:href="#DejaVuSans-55"/>
       <use x="147.412109" xlink:href="#DejaVuSans-53"/>
      </g>
     </g>
    </g>
    <g id="ytick_3">
     <g id="line2d_11">
      <g>
       <use style="stroke:#000000;stroke-width:0.8;" x="57.6" xlink:href="#mce62203d72" y="234.526602"/>
      </g>
     </g>
     <g id="text_13">
      <!-- −50 -->
      <g transform="translate(29.495313 238.325821)scale(0.1 -0.1)">
       <use xlink:href="#DejaVuSans-8722"/>
       <use x="83.789062" xlink:href="#DejaVuSans-53"/>
       <use x="147.412109" xlink:href="#DejaVuSans-48"/>
      </g>
     </g>
    </g>
    <g id="ytick_4">
     <g id="line2d_12">
      <g>
       <use style="stroke:#000000;stroke-width:0.8;" x="57.6" xlink:href="#mce62203d72" y="204.366835"/>
      </g>
     </g>
     <g id="text_14">
      <!-- −25 -->
      <g transform="translate(29.495313 208.166054)scale(0.1 -0.1)">
       <use xlink:href="#DejaVuSans-8722"/>
       <use x="83.789062" xlink:href="#DejaVuSans-50"/>
       <use x="147.412109" xlink:href="#DejaVuSans-53"/>
      </g>
     </g>
    </g>
    <g id="ytick_5">
     <g id="line2d_13">
      <g>
       <use style="stroke:#000000;stroke-width:0.8;" x="57.6" xlink:href="#mce62203d72" y="174.207068"/>
      </g>
     </g>
     <g id="text_15">
      <!-- 0 -->
      <g transform="translate(44.2375 178.006287)scale(0.1 -0.1)">
       <use xlink:href="#DejaVuSans-48"/>
      </g>
     </g>
    </g>
    <g id="ytick_6">
     <g id="line2d_14">
      <g>
       <use style="stroke:#000000;stroke-width:0.8;" x="57.6" xlink:href="#mce62203d72" y="144.047301"/>
      </g>
     </g>
     <g id="text_16">
      <!-- 25 -->
      <g transform="translate(37.875 147.84652)scale(0.1 -0.1)">
       <use xlink:href="#DejaVuSans-50"/>
       <use x="63.623047" xlink:href="#DejaVuSans-53"/>
      </g>
     </g>
    </g>
    <g id="ytick_7">
     <g id="line2d_15">
      <g>
       <use style="stroke:#000000;stroke-width:0.8;" x="57.6" xlink:href="#mce62203d72" y="113.887534"/>
      </g>
     </g>
     <g id="text_17">
      <!-- 50 -->
      <g transform="translate(37.875 117.686753)scale(0.1 -0.1)">
       <use xlink:href="#DejaVuSans-53"/>
       <use x="63.623047" xlink:href="#DejaVuSans-48"/>
      </g>
     </g>
    </g>
    <g id="ytick_8">
     <g id="line2d_16">
      <g>
       <use style="stroke:#000000;stroke-width:0.8;" x="57.6" xlink:href="#mce62203d72" y="83.727767"/>
      </g>
     </g>
     <g id="text_18">
      <!-- 75 -->
      <g transform="translate(37.875 87.526986)scale(0.1 -0.1)">
       <use xlink:href="#DejaVuSans-55"/>
       <use x="63.623047" xlink:href="#DejaVuSans-53"/>
      </g>
     </g>
    </g>
    <g id="ytick_9">
     <g id="line2d_17">
      <g>
       <use style="stroke:#000000;stroke-width:0.8;" x="57.6" xlink:href="#mce62203d72" y="53.568"/>
      </g>
     </g>
     <g id="text_19">
      <!-- 100 -->
      <g transform="translate(31.5125 57.367219)scale(0.1 -0.1)">
       <use xlink:href="#DejaVuSans-49"/>
       <use x="63.623047" xlink:href="#DejaVuSans-48"/>
       <use x="127.246094" xlink:href="#DejaVuSans-48"/>
      </g>
     </g>
    </g>
    <g id="text_20">
     <!-- Density -->
     <g transform="translate(17.053125 193.536594)rotate(-90)scale(0.1 -0.1)">
      <defs>
       <path d="M 19.671875 64.796875 
L 19.671875 8.109375 
L 31.59375 8.109375 
Q 46.6875 8.109375 53.6875 14.9375 
Q 60.6875 21.78125 60.6875 36.53125 
Q 60.6875 51.171875 53.6875 57.984375 
Q 46.6875 64.796875 31.59375 64.796875 
z
M 9.8125 72.90625 
L 30.078125 72.90625 
Q 51.265625 72.90625 61.171875 64.09375 
Q 71.09375 55.28125 71.09375 36.53125 
Q 71.09375 17.671875 61.125 8.828125 
Q 51.171875 0 30.078125 0 
L 9.8125 0 
z
" id="DejaVuSans-68"/>
       <path d="M 44.28125 53.078125 
L 44.28125 44.578125 
Q 40.484375 46.53125 36.375 47.5 
Q 32.28125 48.484375 27.875 48.484375 
Q 21.1875 48.484375 17.84375 46.4375 
Q 14.5 44.390625 14.5 40.28125 
Q 14.5 37.15625 16.890625 35.375 
Q 19.28125 33.59375 26.515625 31.984375 
L 29.59375 31.296875 
Q 39.15625 29.25 43.1875 25.515625 
Q 47.21875 21.78125 47.21875 15.09375 
Q 47.21875 7.46875 41.1875 3.015625 
Q 35.15625 -1.421875 24.609375 -1.421875 
Q 20.21875 -1.421875 15.453125 -0.5625 
Q 10.6875 0.296875 5.421875 2 
L 5.421875 11.28125 
Q 10.40625 8.6875 15.234375 7.390625 
Q 20.0625 6.109375 24.8125 6.109375 
Q 31.15625 6.109375 34.5625 8.28125 
Q 37.984375 10.453125 37.984375 14.40625 
Q 37.984375 18.0625 35.515625 20.015625 
Q 33.0625 21.96875 24.703125 23.78125 
L 21.578125 24.515625 
Q 13.234375 26.265625 9.515625 29.90625 
Q 5.8125 33.546875 5.8125 39.890625 
Q 5.8125 47.609375 11.28125 51.796875 
Q 16.75 56 26.8125 56 
Q 31.78125 56 36.171875 55.265625 
Q 40.578125 54.546875 44.28125 53.078125 
z
" id="DejaVuSans-115"/>
       <path d="M 18.3125 70.21875 
L 18.3125 54.6875 
L 36.8125 54.6875 
L 36.8125 47.703125 
L 18.3125 47.703125 
L 18.3125 18.015625 
Q 18.3125 11.328125 20.140625 9.421875 
Q 21.96875 7.515625 27.59375 7.515625 
L 36.8125 7.515625 
L 36.8125 0 
L 27.59375 0 
Q 17.1875 0 13.234375 3.875 
Q 9.28125 7.765625 9.28125 18.015625 
L 9.28125 47.703125 
L 2.6875 47.703125 
L 2.6875 54.6875 
L 9.28125 54.6875 
L 9.28125 70.21875 
z
" id="DejaVuSans-116"/>
       <path d="M 32.171875 -5.078125 
Q 28.375 -14.84375 24.75 -17.8125 
Q 21.140625 -20.796875 15.09375 -20.796875 
L 7.90625 -20.796875 
L 7.90625 -13.28125 
L 13.1875 -13.28125 
Q 16.890625 -13.28125 18.9375 -11.515625 
Q 21 -9.765625 23.484375 -3.21875 
L 25.09375 0.875 
L 2.984375 54.6875 
L 12.5 54.6875 
L 29.59375 11.921875 
L 46.6875 54.6875 
L 56.203125 54.6875 
z
" id="DejaVuSans-121"/>
      </defs>
      <use xlink:href="#DejaVuSans-68"/>
      <use x="77.001953" xlink:href="#DejaVuSans-101"/>
      <use x="138.525391" xlink:href="#DejaVuSans-110"/>
      <use x="201.904297" xlink:href="#DejaVuSans-115"/>
      <use x="254.003906" xlink:href="#DejaVuSans-105"/>
      <use x="281.787109" xlink:href="#DejaVuSans-116"/>
      <use x="320.996094" xlink:href="#DejaVuSans-121"/>
     </g>
    </g>
   </g>
   <g id="line2d_18">
    <path clip-path="url(#p2c28b113f8)" d="M 73.832727 174.207068 
L 398.487273 174.207068 
L 398.487273 174.207068 
" style="fill:none;stroke:#1f77b4;stroke-linecap:square;stroke-width:1.5;"/>
   </g>
   <g id="line2d_19">
    <path clip-path="url(#p2c28b113f8)" d="M 73.832727 174.207068 
L 398.487273 174.207068 
L 398.487273 174.207068 
" style="fill:none;stroke:#ff7f0e;stroke-linecap:square;stroke-width:1.5;"/>
   </g>
   <g id="line2d_20">
    <path clip-path="url(#p2c28b113f8)" d="M 73.832727 162.143161 
L 73.954478 162.122202 
L 92.392919 163.690753 
L 112.184143 165.148583 
L 133.544597 166.496099 
L 156.731309 167.732927 
L 174.371607 168.483241 
L 277.386081 168.483249 
L 398.487273 168.483249 
L 398.487273 168.483249 
" style="fill:none;stroke:#2ca02c;stroke-linecap:square;stroke-width:1.5;"/>
   </g>
   <g id="line2d_21">
    <path clip-path="url(#p2c28b113f8)" d="M 73.832727 53.568 
L 73.859783 295.488 
L 73.954478 295.065826 
L 73.981533 295.325759 
L 74.022117 294.939587 
L 74.0627 295.253452 
L 74.184451 294.739651 
L 74.197979 294.873311 
L 74.211507 294.872183 
L 74.306202 294.443287 
L 74.346785 294.638337 
L 74.684981 293.752699 
L 74.698509 293.862441 
L 74.712037 294.06086 
L 74.75262 293.655551 
L 74.793204 293.833954 
L 74.887899 293.313119 
L 74.914954 293.530346 
L 74.928482 293.526629 
L 74.94201 293.649277 
L 74.969066 293.308602 
L 75.023177 293.377848 
L 75.104344 292.877687 
L 75.1314 293.095898 
L 75.144927 293.273163 
L 75.185511 292.873889 
L 75.226094 293.047302 
L 75.334317 292.617157 
L 75.347845 292.696077 
L 75.361373 292.79543 
L 75.401956 292.439582 
L 75.44254 292.594306 
L 75.456068 292.601508 
L 75.550762 292.247095 
L 75.56429 292.338844 
L 75.577818 292.388045 
L 75.604874 292.288051 
L 75.686041 291.96214 
L 75.645457 292.327004 
L 75.713097 292.067831 
L 75.726624 292.256576 
L 75.767208 291.84372 
L 75.807791 291.996907 
L 75.916014 291.614194 
L 75.929542 291.6973 
L 75.94307 291.862223 
L 75.983653 291.415588 
L 76.024237 291.515942 
L 76.037765 291.515895 
L 76.118932 291.208689 
L 76.078348 291.562412 
L 76.145987 291.342432 
L 76.159515 291.365512 
L 76.186571 291.197569 
L 76.25421 290.892713 
L 76.240682 291.283206 
L 76.294793 291.054627 
L 76.308321 291.198301 
L 76.348905 290.845351 
L 76.389488 290.934603 
L 76.484183 290.568614 
L 76.511239 290.68488 
L 76.524767 290.758153 
L 76.538295 290.422285 
L 76.592406 290.58347 
L 76.700629 290.156802 
L 76.714156 290.220414 
L 76.727684 290.333705 
L 76.768268 289.985157 
L 76.808851 290.160982 
L 76.822379 290.166642 
L 76.917074 289.80349 
L 76.930602 289.862 
L 76.94413 289.922242 
L 76.971185 289.863027 
L 77.06588 289.531872 
L 77.079408 289.605081 
L 77.092936 289.801424 
L 77.133519 289.39053 
L 77.174103 289.555704 
L 77.282326 289.150669 
L 77.295853 289.232491 
L 77.309381 289.429804 
L 77.349965 288.933356 
L 77.390548 289.10448 
L 77.404076 289.095711 
L 77.498771 288.774319 
L 77.512299 288.881918 
L 77.525827 288.918202 
L 77.552882 288.78537 
L 77.620521 288.499548 
L 77.606994 288.875866 
L 77.661105 288.605866 
L 77.674633 288.765606 
L 77.715216 288.389853 
L 77.7558 288.512474 
L 77.850495 288.151969 
L 77.87755 288.240335 
L 77.891078 288.325792 
L 77.931662 288.007594 
L 77.958717 288.144284 
L 78.06694 287.733557 
L 78.093996 287.892639 
L 78.107524 287.902587 
L 78.202218 287.423653 
L 78.242802 287.606242 
L 78.25633 287.716461 
L 78.283385 287.393902 
L 78.323969 287.489686 
L 78.351025 287.155696 
L 78.405136 287.404927 
L 78.499831 286.971707 
L 78.513359 287.014934 
L 78.540414 287.135194 
L 78.580998 286.848295 
L 78.608054 287.101522 
L 78.716276 286.483669 
L 78.743332 286.719877 
L 78.770388 286.697982 
L 78.865082 286.3581 
L 78.87861 286.443207 
L 78.892138 286.491829 
L 78.919194 286.397406 
L 79.013889 286.096089 
L 78.973305 286.486425 
L 79.027416 286.180416 
L 79.040944 286.351238 
L 79.081528 285.96491 
L 79.122111 286.111191 
L 79.230334 285.760753 
L 79.243862 285.817638 
L 79.25739 285.913138 
L 79.297973 285.598106 
L 79.325029 285.726694 
L 79.500891 285.199497 
L 79.514419 285.24271 
L 79.527946 285.397433 
L 79.56853 285.061809 
L 79.622641 285.326097 
L 79.717336 284.780674 
L 79.744392 284.964103 
L 79.771447 285.027882 
L 79.866142 284.592183 
L 79.893198 284.717228 
L 79.906726 284.735403 
L 79.920254 284.581277 
L 79.933781 284.583972 
L 80.014949 284.320903 
L 79.974365 284.697518 
L 80.055532 284.430322 
L 80.06906 284.433077 
L 80.150227 284.009079 
L 80.177283 284.22159 
L 80.231394 283.974553 
L 80.204338 284.280888 
L 80.285505 284.030228 
L 80.3802 283.70595 
L 80.393728 283.779572 
L 80.407256 283.962602 
L 80.447839 283.573094 
L 80.488423 283.730009 
L 80.596645 283.328768 
L 80.610173 283.417029 
L 80.623701 283.519702 
L 80.664285 283.221402 
L 80.704868 283.300126 
L 80.718396 283.282332 
L 80.813091 282.970689 
L 80.826619 283.071416 
L 80.840147 283.107642 
L 80.853674 283.075434 
L 80.934841 282.726839 
L 80.975425 282.8063 
L 80.988953 282.954082 
L 81.029536 282.595598 
L 81.07012 282.712812 
L 81.151287 282.304712 
L 81.178342 282.360978 
L 81.19187 282.5684 
L 81.245982 282.230399 
L 81.273037 282.356443 
L 81.38126 281.958326 
L 81.394788 281.995373 
L 81.408316 282.224618 
L 81.448899 281.700869 
L 81.503011 281.963665 
L 81.597705 281.624432 
L 81.624761 281.707332 
L 81.638289 281.717951 
L 81.651817 281.684873 
L 81.746512 281.306184 
L 81.760039 281.404071 
L 81.773567 281.585728 
L 81.814151 281.216677 
L 81.854734 281.369099 
L 81.962957 280.928979 
L 81.976485 281.042087 
L 81.990013 281.147257 
L 82.030596 280.877546 
L 82.07118 280.963302 
L 82.084707 280.94285 
L 82.179402 280.614628 
L 82.19293 280.694724 
L 82.206458 280.742209 
L 82.233514 280.650669 
L 82.328209 280.356841 
L 82.287625 280.730301 
L 82.341736 280.439147 
L 82.355264 280.598515 
L 82.395848 280.230779 
L 82.436431 280.370803 
L 82.544654 279.990151 
L 82.558182 280.200168 
L 82.612293 279.883432 
L 82.639349 279.99801 
L 82.747571 279.633065 
L 82.788155 279.735018 
L 82.801683 279.762039 
L 82.88285 279.370838 
L 82.909905 279.440943 
L 82.936961 279.59942 
L 82.964017 279.307284 
L 83.112823 278.937047 
L 83.0046 279.389505 
L 83.126351 279.054423 
L 83.139879 279.227258 
L 83.180462 278.89666 
L 83.221046 279.028515 
L 83.329268 278.559499 
L 83.342796 278.691808 
L 83.356324 278.795243 
L 83.410435 278.547904 
L 83.437491 278.644565 
L 83.451019 278.624502 
L 83.545714 278.290072 
L 83.559242 278.341171 
L 83.572769 278.398108 
L 83.599825 278.341951 
L 83.69452 277.997339 
L 83.653936 278.41291 
L 83.708048 278.09834 
L 83.721576 278.261142 
L 83.762159 277.899391 
L 83.802743 278.048209 
L 83.910965 277.65029 
L 83.924493 277.849597 
L 84.046244 277.341336 
L 83.951549 277.856758 
L 84.086827 277.535738 
L 84.100355 277.550713 
L 84.181522 277.203648 
L 84.222106 277.30704 
L 84.235633 277.319809 
L 84.343856 276.943355 
L 84.357384 277.012263 
L 84.370912 277.078546 
L 84.397967 276.804528 
L 84.452079 276.930077 
L 84.560302 276.586877 
L 84.600885 276.608377 
L 84.614413 276.594074 
L 84.69558 276.222129 
L 84.654996 276.659338 
L 84.722636 276.463603 
L 84.736163 276.48987 
L 84.749691 276.372604 
L 84.830858 276.054959 
L 84.871442 276.196904 
L 84.88497 276.289176 
L 84.912025 275.99853 
L 84.952609 276.088572 
L 85.209638 275.478467 
L 85.223166 275.565532 
L 85.236693 275.702755 
L 85.277277 275.340111 
L 85.31786 275.573803 
L 85.412555 275.049797 
L 85.439611 275.273435 
L 85.642528 274.7589 
L 85.656056 274.841348 
L 85.669584 274.989005 
L 85.710168 274.639261 
L 85.750751 274.771761 
L 85.845446 274.303211 
L 85.872502 274.567758 
L 86.075419 274.060013 
L 86.088947 274.258987 
L 86.129531 273.811415 
L 86.183642 274.047192 
L 86.291865 273.7072 
L 86.305392 273.774083 
L 86.31892 273.816486 
L 86.332448 273.7879 
L 86.427143 273.366602 
L 86.386559 273.82693 
L 86.440671 273.490604 
L 86.454199 273.640997 
L 86.494782 273.339663 
L 86.535366 273.462433 
L 86.643588 273.060982 
L 86.670644 273.181672 
L 86.684172 273.308808 
L 86.724755 272.99591 
L 86.765339 273.06866 
L 86.860034 272.746373 
L 86.887089 272.847395 
L 86.900617 272.912455 
L 86.941201 272.652658 
L 86.968256 272.748648 
L 87.076479 272.366035 
L 87.090007 272.416709 
L 87.103535 272.510429 
L 87.157646 272.275029 
L 87.184702 272.371636 
L 87.19823 272.35959 
L 87.292924 272.038038 
L 87.306452 272.083335 
L 87.31998 272.130856 
L 87.347036 272.080669 
L 87.441731 271.790354 
L 87.455259 271.965735 
L 87.590537 271.569825 
L 87.604065 271.630357 
L 87.617593 271.757264 
L 87.658176 271.432045 
L 87.69876 271.539684 
L 87.793454 271.101218 
L 87.752871 271.557031 
L 87.82051 271.36018 
L 88.0099 270.734382 
L 88.023428 270.868909 
L 88.050483 270.989247 
L 88.091067 270.725969 
L 88.118122 270.845214 
L 88.13165 270.827979 
L 88.226345 270.512756 
L 88.253401 270.581271 
L 88.266929 270.687893 
L 88.307512 270.361552 
L 88.334568 270.49236 
L 88.442791 270.125912 
L 88.469846 270.253468 
L 88.483374 270.260338 
L 88.578069 269.826954 
L 88.618652 269.988182 
L 88.63218 270.088963 
L 88.659236 269.810472 
L 88.699819 269.880547 
L 88.713347 269.855679 
L 88.808042 269.549861 
L 88.835098 269.648521 
L 88.848626 269.6959 
L 88.862153 269.384155 
L 88.916265 269.548955 
L 89.024488 269.185431 
L 89.038015 269.24452 
L 89.051543 269.324293 
L 89.092127 269.030597 
L 89.13271 269.150564 
L 89.146238 269.155447 
L 89.240933 268.851888 
L 89.254461 268.919655 
L 89.267989 268.957631 
L 89.295044 268.87773 
L 89.376211 268.49411 
L 89.335628 268.8966 
L 89.403267 268.708177 
L 89.416795 268.78086 
L 89.457378 268.486105 
L 89.484434 268.617251 
L 89.497962 268.605686 
L 89.606185 268.274779 
L 89.619712 268.338725 
L 89.63324 268.476235 
L 89.673824 268.100316 
L 89.714407 268.182687 
L 89.727935 268.181032 
L 89.809102 267.919591 
L 89.768519 268.205334 
L 89.836158 268.016606 
L 89.849686 268.033994 
L 89.876741 267.899266 
L 89.957908 267.648248 
L 89.917325 267.982957 
L 89.984964 267.761147 
L 89.998492 267.878946 
L 90.039075 267.579962 
L 90.079659 267.650846 
L 90.174354 267.340246 
L 90.201409 267.42393 
L 90.214937 267.483286 
L 90.228465 267.214971 
L 90.282576 267.32896 
L 90.390799 266.969174 
L 90.417855 267.104521 
L 90.431383 267.101327 
L 90.526077 266.673815 
L 90.553133 266.858074 
L 90.580189 266.913086 
L 90.661356 266.687493 
L 90.742523 266.290232 
L 90.769578 266.478226 
L 90.783106 266.587391 
L 90.82369 266.275998 
L 90.864273 266.40274 
L 90.972496 266.056369 
L 90.986024 266.118407 
L 90.999552 266.279821 
L 91.040135 265.867064 
L 91.080719 266.004388 
L 91.094247 265.995605 
L 91.188941 265.718131 
L 91.202469 265.799574 
L 91.215997 265.827268 
L 91.243053 265.720939 
L 91.32422 265.458061 
L 91.283636 265.770154 
L 91.351275 265.553255 
L 91.364803 265.684971 
L 91.405387 265.368805 
L 91.44597 265.46421 
L 91.540665 265.161115 
L 91.567721 265.220235 
L 91.581249 265.288569 
L 91.621832 265.026333 
L 91.648888 265.129471 
L 91.75711 264.785087 
L 91.784166 264.903741 
L 91.797694 264.910711 
L 91.892389 264.504144 
L 91.932972 264.646385 
L 91.9465 264.739824 
L 91.973556 264.476738 
L 92.014139 264.5437 
L 92.622892 263.355762 
L 92.63642 263.450871 
L 92.649948 263.575443 
L 92.690531 263.300473 
L 92.731115 263.507923 
L 92.82581 263.090718 
L 92.866393 263.160204 
L 92.879921 263.255995 
L 92.920504 262.990457 
L 92.94756 263.112239 
L 93.055783 262.668419 
L 93.069311 262.770925 
L 93.082838 262.901247 
L 93.123422 262.633709 
L 93.164005 262.739213 
L 93.2587 262.371643 
L 93.299284 262.472887 
L 93.312812 262.58092 
L 93.353395 262.299322 
L 93.393979 262.365989 
L 93.475146 261.998278 
L 93.502201 262.087 
L 93.515729 262.243343 
L 93.556313 261.952492 
L 93.596896 262.054202 
L 93.705119 261.705762 
L 93.732175 261.832441 
L 93.745702 261.829613 
L 93.840397 261.426327 
L 93.880981 261.577921 
L 93.894509 261.643834 
L 93.921564 261.392757 
L 93.962148 261.456757 
L 94.422094 260.517243 
L 94.435622 260.616813 
L 94.44915 260.732334 
L 94.503261 260.483874 
L 94.530317 260.586686 
L 94.625012 260.262406 
L 94.665595 260.319906 
L 94.679123 260.439117 
L 94.719707 260.143083 
L 94.76029 260.233321 
L 94.841457 259.896601 
L 94.868513 259.928039 
L 94.882041 260.093186 
L 94.936152 259.815538 
L 94.963208 259.90902 
L 95.07143 259.576418 
L 95.098486 259.685589 
L 95.112014 259.692899 
L 95.125542 259.592327 
L 95.206709 259.320454 
L 95.166125 259.623951 
L 95.247292 259.437998 
L 95.26082 259.521451 
L 95.287876 259.273971 
L 95.328459 259.337768 
L 95.653127 258.678295 
L 95.666655 258.729116 
L 95.680183 258.893125 
L 95.720767 258.484567 
L 95.76135 258.656245 
L 95.774878 258.640786 
L 95.869573 258.360652 
L 95.896628 258.452818 
L 96.086018 258.013722 
L 96.113074 258.130912 
L 96.126602 258.119272 
L 96.234824 257.793663 
L 96.248352 257.958217 
L 96.370103 257.51415 
L 96.410686 257.65579 
L 96.424214 257.649906 
L 96.505381 257.355007 
L 96.545965 257.451151 
L 96.559492 257.455336 
L 96.667715 257.148386 
L 96.681243 257.200942 
L 96.694771 257.235569 
L 96.708299 257.211847 
L 96.802993 256.851258 
L 96.816521 256.944962 
L 96.830049 257.077856 
L 96.870633 256.815318 
L 96.911216 256.907023 
L 97.019439 256.572353 
L 97.032967 256.610264 
L 97.046495 256.778805 
L 97.087078 256.370596 
L 97.127662 256.563352 
L 97.141189 256.547245 
L 97.235884 256.265748 
L 97.26294 256.339814 
L 97.289996 256.298073 
L 97.38469 255.997764 
L 97.344107 256.343097 
L 97.398218 256.078308 
L 97.411746 256.205691 
L 97.45233 255.913551 
L 97.492913 256.023437 
L 97.601136 255.687196 
L 97.614664 255.757106 
L 97.628191 255.831837 
L 97.668775 255.603058 
L 97.709358 255.65774 
L 97.722886 255.639047 
L 97.817581 255.378697 
L 97.831109 255.447177 
L 97.844637 255.474702 
L 97.871693 255.289731 
L 97.925804 255.365933 
L 98.034027 255.045814 
L 98.047554 255.096651 
L 98.061082 255.149831 
L 98.088138 254.933223 
L 98.128721 255.064288 
L 98.318111 254.559116 
L 98.331639 254.645179 
L 98.345167 254.763011 
L 98.38575 254.496754 
L 98.426334 254.573382 
L 98.439862 254.582168 
L 98.521029 254.261877 
L 98.548084 254.343921 
L 98.57514 254.432876 
L 98.588668 254.267407 
L 98.669835 254.017918 
L 98.696891 254.112933 
L 98.710418 254.265539 
L 98.751002 253.900524 
L 98.791585 254.016268 
L 98.953919 253.724082 
L 99.035086 253.542379 
L 98.994503 253.745728 
L 99.07567 253.598365 
L 99.089198 253.578761 
L 99.183893 253.308586 
L 99.210948 253.394556 
L 99.224476 253.418102 
L 99.238004 253.244542 
L 99.319171 253.168981 
L 99.359755 253.254758 
L 99.454449 252.895256 
L 99.508561 253.022678 
L 99.616783 252.66451 
L 99.630311 252.710716 
L 99.643839 252.740862 
L 99.670895 252.679266 
L 99.76559 252.444361 
L 99.711478 252.68212 
L 99.792645 252.514664 
L 99.806173 252.534053 
L 99.88734 252.231686 
L 99.927924 252.288325 
L 99.941451 252.379187 
L 99.982035 252.123921 
L 100.022619 252.185319 
L 100.117313 251.830602 
L 100.07673 252.203173 
L 100.130841 251.927034 
L 100.144369 252.040643 
L 100.19848 251.800874 
L 100.225536 251.88686 
L 100.333759 251.506442 
L 100.360814 251.678076 
L 100.38787 251.582864 
L 100.469037 251.321271 
L 100.509621 251.436587 
L 100.523148 251.490344 
L 100.550204 251.265899 
L 100.590788 251.391727 
L 100.69901 251.004959 
L 100.712538 251.081063 
L 100.726066 251.1988 
L 100.76665 250.923065 
L 100.807233 251.025116 
L 100.915456 250.700427 
L 100.928984 250.83935 
L 100.956039 250.851571 
L 101.131901 250.399901 
L 101.145429 250.529866 
L 101.186012 250.231133 
L 101.240124 250.377593 
L 101.348346 250.075109 
L 101.361874 250.122749 
L 101.375402 250.173724 
L 101.402458 249.973118 
L 101.443041 250.088376 
L 101.632431 249.601923 
L 101.645959 249.681827 
L 101.659487 249.790203 
L 101.70007 249.457588 
L 101.740654 249.659691 
L 101.835349 249.318017 
L 101.875932 249.400263 
L 101.88946 249.470719 
L 101.930043 249.245853 
L 101.957099 249.380703 
L 102.065322 248.962353 
L 102.07885 249.045171 
L 102.092377 249.159514 
L 102.132961 248.904583 
L 102.173545 248.998764 
L 102.281767 248.671926 
L 102.308823 248.759993 
L 102.322351 248.839748 
L 102.362934 248.612661 
L 102.38999 248.662311 
L 104.216248 245.794361 
L 104.256831 245.91861 
L 104.270359 245.979333 
L 104.297415 245.765708 
L 104.337998 245.809286 
L 105.01439 244.697351 
L 105.041446 244.759474 
L 105.054974 244.863308 
L 105.095557 244.605744 
L 105.136141 244.676222 
L 105.244363 244.41638 
L 105.257891 244.459986 
L 105.271419 244.543208 
L 105.312003 244.278516 
L 105.339058 244.377318 
L 105.501392 244.068773 
L 105.717838 243.826706 
L 105.799005 243.508356 
L 105.82606 243.60414 
L 105.839588 243.714625 
L 105.880172 243.467959 
L 105.920755 243.549731 
L 106.028978 243.254567 
L 106.042506 243.291812 
L 106.056034 243.350628 
L 106.096617 243.126347 
L 106.137201 243.21133 
L 106.150728 243.20946 
L 106.245423 242.961206 
L 106.272479 243.027873 
L 106.543036 242.567144 
L 106.556563 242.599654 
L 106.570091 242.675159 
L 106.610675 242.445512 
L 106.637731 242.593061 
L 106.745953 242.180915 
L 106.759481 242.257694 
L 106.773009 242.353184 
L 106.82712 242.139282 
L 106.854176 242.214344 
L 106.948871 241.920025 
L 106.989454 241.980178 
L 107.002982 242.065451 
L 107.043566 241.833992 
L 107.084149 241.883763 
L 107.178844 241.634265 
L 107.2059 241.683317 
L 107.219427 241.725724 
L 107.260011 241.524843 
L 107.287067 241.595211 
L 107.395289 241.308981 
L 107.422345 241.397186 
L 107.449401 241.293785 
L 107.530568 241.07 
L 107.489984 241.345449 
L 107.571151 241.17137 
L 107.584679 241.225806 
L 107.611735 241.025702 
L 107.652318 241.066659 
L 108.261071 240.054283 
L 108.288127 240.153017 
L 108.301654 240.230816 
L 108.342238 240.001181 
L 108.369294 240.131887 
L 108.463988 239.794679 
L 108.504572 239.851761 
L 108.5181 239.910236 
L 108.545155 239.718268 
L 108.585739 239.793968 
L 108.693962 239.445463 
L 108.707489 239.515657 
L 108.721017 239.610254 
L 108.761601 239.391194 
L 108.802184 239.467056 
L 108.896879 239.169433 
L 108.937463 239.241745 
L 108.950991 239.308649 
L 108.991574 239.103767 
L 109.01863 239.15274 
L 109.627382 238.136934 
L 109.654438 238.230026 
L 109.667966 238.326901 
L 109.708549 238.066288 
L 109.749133 238.107625 
L 109.992634 237.686348 
L 110.006162 237.723326 
L 110.01969 237.744039 
L 110.046745 237.698129 
L 110.14144 237.486806 
L 110.168496 237.556312 
L 110.411997 237.068738 
L 110.439053 237.136705 
L 110.466108 237.183477 
L 110.574331 236.891333 
L 110.587859 236.944615 
L 110.601387 236.954458 
L 110.614914 236.877855 
L 110.628442 236.869235 
L 110.709609 236.67944 
L 110.669026 236.903923 
L 110.750193 236.730161 
L 110.763721 236.730762 
L 110.844888 236.459979 
L 110.885471 236.540823 
L 110.898999 236.589443 
L 110.926055 236.401798 
L 110.966638 236.440425 
L 111.426585 235.645113 
L 111.467168 235.747708 
L 111.480696 235.76433 
L 111.494224 235.62901 
L 111.656558 235.397045 
L 111.534807 235.662698 
L 111.670086 235.437528 
L 111.683613 235.521502 
L 111.724197 235.295871 
L 111.764781 235.35685 
L 111.873003 235.101572 
L 111.886531 235.216211 
L 112.008282 234.862937 
L 112.048865 234.949749 
L 112.089449 234.81347 
L 112.130032 234.863586 
L 112.211199 234.605445 
L 112.251783 234.658691 
L 112.26531 234.719041 
L 112.305894 234.524682 
L 112.33295 234.572699 
L 112.941702 233.588394 
L 112.968758 233.671505 
L 112.982286 233.760383 
L 113.022869 233.513198 
L 113.049925 233.650081 
L 113.171675 233.348234 
L 113.185203 233.381086 
L 113.198731 233.445699 
L 113.239315 233.228429 
L 113.279898 233.3254 
L 113.374593 232.998088 
L 113.401649 233.136692 
L 113.604566 232.7678 
L 113.618094 232.794322 
L 113.631622 232.864142 
L 113.672205 232.657313 
L 113.712789 232.701253 
L 113.807484 232.410085 
L 113.834539 232.562101 
L 114.023929 232.110616 
L 114.064513 232.238579 
L 114.105096 232.076201 
L 114.132152 232.132309 
L 114.294486 231.902992 
L 114.389181 231.651563 
L 114.348597 231.915397 
L 114.402709 231.709595 
L 114.416236 231.794917 
L 114.45682 231.583873 
L 114.497403 231.650184 
L 114.605626 231.379175 
L 114.632682 231.440479 
L 114.64621 231.492066 
L 114.673265 231.317819 
L 114.713849 231.34047 
L 118.934534 225.701688 
L 118.948062 225.731121 
L 118.961589 225.800104 
L 119.002173 225.578669 
L 119.029229 225.652952 
L 119.218618 225.301673 
L 119.259202 225.394668 
L 119.27273 225.215491 
L 119.326841 225.321428 
L 119.421536 225.020149 
L 119.462119 225.085097 
L 119.475647 225.110558 
L 119.502703 224.956047 
L 119.543286 225.017568 
L 119.651509 224.74412 
L 119.665037 224.787957 
L 119.678565 224.858454 
L 119.719148 224.665034 
L 119.759732 224.72007 
L 119.854427 224.448421 
L 119.89501 224.52329 
L 119.908538 224.555256 
L 119.935594 224.400817 
L 119.962649 224.437318 
L 123.89925 219.34005 
L 123.926305 219.399549 
L 123.939833 219.444019 
L 123.980417 219.281913 
L 124.007472 219.359482 
L 124.102167 219.10022 
L 124.142751 219.130586 
L 124.156279 219.164229 
L 124.169806 219.008586 
L 124.223918 219.035376 
L 124.237446 219.043175 
L 124.250973 218.93883 
L 126.280149 216.403062 
L 126.293677 216.439654 
L 126.307205 216.495244 
L 126.347788 216.331104 
L 126.374844 216.422907 
L 126.483066 216.142955 
L 126.52365 216.186565 
L 126.537178 216.213294 
L 126.564234 216.0793 
L 126.591289 216.1022 
L 126.699512 215.953835 
L 126.740095 215.96765 
L 126.83479 215.756486 
L 126.970069 215.686585 
L 127.064763 215.423605 
L 127.105347 215.479849 
L 127.118875 215.483828 
L 127.132403 215.389909 
L 127.443543 215.033952 
L 127.457071 215.06801 
L 127.497654 214.889451 
L 127.52471 214.986613 
L 127.727627 214.667538 
L 127.741155 214.743259 
L 127.781739 214.532157 
L 127.822322 214.612906 
L 128.065823 214.297526 
L 128.201102 214.108638 
L 128.417547 213.88879 
L 128.512242 213.709081 
L 128.539298 213.737469 
L 128.552825 213.749738 
L 128.566353 213.656313 
L 128.579881 213.646377 
L 128.850438 213.364702 
L 128.945133 213.189783 
L 128.972188 213.214645 
L 129.378023 212.653529 
L 129.391551 212.676223 
L 129.405079 212.749122 
L 129.445663 212.546014 
L 129.486246 212.596448 
L 129.553885 212.525098 
L 129.743275 212.235426 
L 129.770331 212.263989 
L 129.797386 212.139571 
L 129.824442 212.17609 
L 129.932665 212.026989 
L 130.365556 211.546 
L 130.46025 211.375862 
L 130.487306 211.399348 
L 130.500834 211.409274 
L 130.609057 211.199933 
L 130.622584 211.220865 
L 130.636112 211.265584 
L 130.676696 211.114873 
L 130.703751 211.152738 
L 131.014892 210.776784 
L 131.109587 210.603129 
L 131.136642 210.637357 
L 131.380143 210.33146 
L 131.515422 210.1524 
L 132.029479 209.559499 
L 132.178286 209.304422 
L 132.232397 209.369146 
L 132.259453 209.253483 
L 132.27298 209.262551 
L 132.313564 209.237227 
L 132.394731 209.040849 
L 132.435315 209.130669 
L 132.624704 208.824274 
L 132.65176 208.892289 
L 132.678816 208.802078 
L 132.759983 208.630417 
L 132.800566 208.670996 
L 132.881733 208.558885 
L 137.318863 203.447759 
L 137.332391 203.497381 
L 137.372975 203.330729 
L 137.40003 203.374622 
L 137.575892 203.177655 
L 137.711171 203.024377 
L 138.022311 202.610536 
L 138.035839 202.634779 
L 138.049367 202.666627 
L 138.103478 202.549409 
L 138.117006 202.567965 
L 138.211701 202.478756 
L 138.319923 202.307262 
L 138.346979 202.323035 
L 141.918328 198.310083 
L 141.931856 198.326859 
L 141.945383 198.353233 
L 141.985967 198.222324 
L 142.013023 198.260138 
L 142.107718 198.162591 
L 142.21594 198.012448 
L 142.242996 198.035375 
L 142.391802 197.845201 
L 146.693654 193.227835 
L 146.707182 193.249529 
L 146.747765 193.151128 
L 146.774821 193.158583 
L 147.315935 192.56876 
L 147.613547 192.235775 
L 147.627075 192.245322 
L 147.640603 192.262663 
L 147.681186 192.172533 
L 147.708242 192.176909 
L 147.951743 191.922216 
L 148.100549 191.766036 
L 148.276411 191.568615 
L 148.289939 191.592197 
L 148.330522 191.479414 
L 148.357578 191.495042 
L 148.803997 191.052773 
L 148.952803 190.875617 
L 150.630254 189.142136 
L 150.900811 188.87204 
L 154.296298 185.459841 
L 154.458632 185.283513 
L 157.448284 182.356865 
L 157.610618 182.205366 
L 157.78648 182.017222 
L 157.97587 181.847065 
L 158.165259 181.667316 
L 158.895762 180.961137 
L 165.808487 174.486655 
L 173.248797 168.051496 
L 173.559937 168.043382 
L 173.830494 168.039674 
L 174.006356 168.039692 
L 174.858609 168.040239 
L 175.020943 168.051183 
L 175.183277 168.043061 
L 175.589113 168.048532 
L 175.751447 168.036606 
L 175.98142 168.047766 
L 176.116698 168.033764 
L 176.373727 168.045058 
L 176.522533 168.040171 
L 176.684867 168.051374 
L 176.847201 168.042897 
L 177.212453 168.037245 
L 178.037651 168.045153 
L 178.186457 168.04012 
L 178.348791 168.051507 
L 178.511125 168.042757 
L 178.876377 168.037346 
L 179.769214 168.042763 
L 180.080354 168.037765 
L 180.459134 168.048264 
L 180.594412 168.03603 
L 180.91908 168.044422 
L 181.135525 168.043964 
L 181.879556 168.044516 
L 182.055418 168.046064 
L 202.482451 168.047093 
L 202.61773 168.031806 
L 202.847703 168.047103 
L 203.158843 168.04866 
L 203.808179 168.046016 
L 204.065208 168.054171 
L 204.254598 168.047726 
L 206.202606 168.044181 
L 206.405524 168.036453 
L 206.716664 168.043323 
L 206.946637 168.047474 
L 211.194378 168.044472 
L 211.37024 168.046047 
L 398.487273 168.040076 
L 398.487273 168.040076 
" style="fill:none;stroke:#d62728;stroke-linecap:square;stroke-width:1.5;"/>
   </g>
   <g id="line2d_22">
    <path clip-path="url(#p2c28b113f8)" d="M 73.832727 174.207068 
L 398.487273 174.207068 
L 398.487273 174.207068 
" style="fill:none;stroke:#9467bd;stroke-linecap:square;stroke-width:1.5;"/>
   </g>
   <g id="patch_3">
    <path d="M 57.6 307.584 
L 57.6 41.472 
" style="fill:none;stroke:#000000;stroke-linecap:square;stroke-linejoin:miter;stroke-width:0.8;"/>
   </g>
   <g id="patch_4">
    <path d="M 414.72 307.584 
L 414.72 41.472 
" style="fill:none;stroke:#000000;stroke-linecap:square;stroke-linejoin:miter;stroke-width:0.8;"/>
   </g>
   <g id="patch_5">
    <path d="M 57.6 307.584 
L 414.72 307.584 
" style="fill:none;stroke:#000000;stroke-linecap:square;stroke-linejoin:miter;stroke-width:0.8;"/>
   </g>
   <g id="patch_6">
    <path d="M 57.6 41.472 
L 414.72 41.472 
" style="fill:none;stroke:#000000;stroke-linecap:square;stroke-linejoin:miter;stroke-width:0.8;"/>
   </g>
   <g id="legend_1">
    <g id="patch_7">
     <path d="M 356.516875 122.862625 
L 407.72 122.862625 
Q 409.72 122.862625 409.72 120.862625 
L 409.72 48.472 
Q 409.72 46.472 407.72 46.472 
L 356.516875 46.472 
Q 354.516875 46.472 354.516875 48.472 
L 354.516875 120.862625 
Q 354.516875 122.862625 356.516875 122.862625 
z
" style="fill:#ffffff;opacity:0.8;stroke:#cccccc;stroke-linejoin:miter;"/>
    </g>
    <g id="line2d_23">
     <path d="M 358.516875 54.570438 
L 378.516875 54.570438 
" style="fill:none;stroke:#1f77b4;stroke-linecap:square;stroke-width:1.5;"/>
    </g>
    <g id="line2d_24"/>
    <g id="text_21">
     <!-- T+ -->
     <g transform="translate(386.516875 58.070438)scale(0.1 -0.1)">
      <defs>
       <path d="M 46 62.703125 
L 46 35.5 
L 73.1875 35.5 
L 73.1875 27.203125 
L 46 27.203125 
L 46 0 
L 37.796875 0 
L 37.796875 27.203125 
L 10.59375 27.203125 
L 10.59375 35.5 
L 37.796875 35.5 
L 37.796875 62.703125 
z
" id="DejaVuSans-43"/>
      </defs>
      <use xlink:href="#DejaVuSans-84"/>
      <use x="61.083984" xlink:href="#DejaVuSans-43"/>
     </g>
    </g>
    <g id="line2d_25">
     <path d="M 358.516875 69.248563 
L 378.516875 69.248563 
" style="fill:none;stroke:#ff7f0e;stroke-linecap:square;stroke-width:1.5;"/>
    </g>
    <g id="line2d_26"/>
    <g id="text_22">
     <!-- Tp -->
     <g transform="translate(386.516875 72.748563)scale(0.1 -0.1)">
      <defs>
       <path d="M 18.109375 8.203125 
L 18.109375 -20.796875 
L 9.078125 -20.796875 
L 9.078125 54.6875 
L 18.109375 54.6875 
L 18.109375 46.390625 
Q 20.953125 51.265625 25.265625 53.625 
Q 29.59375 56 35.59375 56 
Q 45.5625 56 51.78125 48.09375 
Q 58.015625 40.1875 58.015625 27.296875 
Q 58.015625 14.40625 51.78125 6.484375 
Q 45.5625 -1.421875 35.59375 -1.421875 
Q 29.59375 -1.421875 25.265625 0.953125 
Q 20.953125 3.328125 18.109375 8.203125 
z
M 48.6875 27.296875 
Q 48.6875 37.203125 44.609375 42.84375 
Q 40.53125 48.484375 33.40625 48.484375 
Q 26.265625 48.484375 22.1875 42.84375 
Q 18.109375 37.203125 18.109375 27.296875 
Q 18.109375 17.390625 22.1875 11.75 
Q 26.265625 6.109375 33.40625 6.109375 
Q 40.53125 6.109375 44.609375 11.75 
Q 48.6875 17.390625 48.6875 27.296875 
z
" id="DejaVuSans-112"/>
      </defs>
      <use xlink:href="#DejaVuSans-84"/>
      <use x="61.083984" xlink:href="#DejaVuSans-112"/>
     </g>
    </g>
    <g id="line2d_27">
     <path d="M 358.516875 83.926688 
L 378.516875 83.926688 
" style="fill:none;stroke:#2ca02c;stroke-linecap:square;stroke-width:1.5;"/>
    </g>
    <g id="line2d_28"/>
    <g id="text_23">
     <!-- T- -->
     <g transform="translate(386.516875 87.426688)scale(0.1 -0.1)">
      <defs>
       <path d="M 4.890625 31.390625 
L 31.203125 31.390625 
L 31.203125 23.390625 
L 4.890625 23.390625 
z
" id="DejaVuSans-45"/>
      </defs>
      <use xlink:href="#DejaVuSans-84"/>
      <use x="51.958984" xlink:href="#DejaVuSans-45"/>
     </g>
    </g>
    <g id="line2d_29">
     <path d="M 358.516875 98.604813 
L 378.516875 98.604813 
" style="fill:none;stroke:#d62728;stroke-linecap:square;stroke-width:1.5;"/>
    </g>
    <g id="line2d_30"/>
    <g id="text_24">
     <!-- O2 -->
     <g transform="translate(386.516875 102.104813)scale(0.1 -0.1)">
      <defs>
       <path d="M 39.40625 66.21875 
Q 28.65625 66.21875 22.328125 58.203125 
Q 16.015625 50.203125 16.015625 36.375 
Q 16.015625 22.609375 22.328125 14.59375 
Q 28.65625 6.59375 39.40625 6.59375 
Q 50.140625 6.59375 56.421875 14.59375 
Q 62.703125 22.609375 62.703125 36.375 
Q 62.703125 50.203125 56.421875 58.203125 
Q 50.140625 66.21875 39.40625 66.21875 
z
M 39.40625 74.21875 
Q 54.734375 74.21875 63.90625 63.9375 
Q 73.09375 53.65625 73.09375 36.375 
Q 73.09375 19.140625 63.90625 8.859375 
Q 54.734375 -1.421875 39.40625 -1.421875 
Q 24.03125 -1.421875 14.8125 8.828125 
Q 5.609375 19.09375 5.609375 36.375 
Q 5.609375 53.65625 14.8125 63.9375 
Q 24.03125 74.21875 39.40625 74.21875 
z
" id="DejaVuSans-79"/>
      </defs>
      <use xlink:href="#DejaVuSans-79"/>
      <use x="78.710938" xlink:href="#DejaVuSans-50"/>
     </g>
    </g>
    <g id="line2d_31">
     <path d="M 358.516875 113.282938 
L 378.516875 113.282938 
" style="fill:none;stroke:#9467bd;stroke-linecap:square;stroke-width:1.5;"/>
    </g>
    <g id="line2d_32"/>
    <g id="text_25">
     <!-- test -->
     <g transform="translate(386.516875 116.782938)scale(0.1 -0.1)">
      <use xlink:href="#DejaVuSans-116"/>
      <use x="39.208984" xlink:href="#DejaVuSans-101"/>
      <use x="100.732422" xlink:href="#DejaVuSans-115"/>
      <use x="152.832031" xlink:href="#DejaVuSans-116"/>
     </g>
    </g>
   </g>
  </g>
 </g>
 <defs>
  <clipPath id="p2c28b113f8">
   <rect height="266.112" width="357.12" x="57.6" y="41.472"/>
  </clipPath>
 </defs>
</svg>
