<?xml version="1.0" encoding="utf-8" standalone="no"?>
<!DOCTYPE svg PUBLIC "-//W3C//DTD SVG 1.1//EN"
  "http://www.w3.org/Graphics/SVG/1.1/DTD/svg11.dtd">
<!-- Created with matplotlib (https://matplotlib.org/) -->
<svg height="345.6pt" version="1.1" viewBox="0 0 460.8 345.6" width="460.8pt" xmlns="http://www.w3.org/2000/svg" xmlns:xlink="http://www.w3.org/1999/xlink">
 <metadata>
  <rdf:RDF xmlns:cc="http://creativecommons.org/ns#" xmlns:dc="http://purl.org/dc/elements/1.1/" xmlns:rdf="http://www.w3.org/1999/02/22-rdf-syntax-ns#">
   <cc:Work>
    <dc:type rdf:resource="http://purl.org/dc/dcmitype/StillImage"/>
    <dc:date>2020-12-02T11:18:01.870752</dc:date>
    <dc:format>image/svg+xml</dc:format>
    <dc:creator>
     <cc:Agent>
      <dc:title>Matplotlib v3.3.2, https://matplotlib.org/</dc:title>
     </cc:Agent>
    </dc:creator>
   </cc:Work>
  </rdf:RDF>
 </metadata>
 <defs>
  <style type="text/css">*{stroke-linecap:butt;stroke-linejoin:round;}</style>
 </defs>
 <g id="figure_1">
  <g id="patch_1">
   <path d="M 0 345.6 
L 460.8 345.6 
L 460.8 0 
L 0 0 
z
" style="fill:#ffffff;"/>
  </g>
  <g id="axes_1">
   <g id="patch_2">
    <path d="M 47.81 303.64 
L 341.656 303.64 
L 341.656 21.72 
L 47.81 21.72 
z
" style="fill:#ffffff;"/>
   </g>
   <g id="matplotlib.axis_1">
    <g id="xtick_1">
     <g id="line2d_1">
      <defs>
       <path d="M 0 0 
L 0 3.5 
" id="mf138fcffef" style="stroke:#000000;stroke-width:0.8;"/>
      </defs>
      <g>
       <use style="stroke:#000000;stroke-width:0.8;" x="58.468326" xlink:href="#mf138fcffef" y="303.64"/>
      </g>
     </g>
     <g id="text_1">
      <!-- 0 -->
      <g transform="translate(55.287076 318.238437)scale(0.1 -0.1)">
       <defs>
        <path d="M 31.78125 66.40625 
Q 24.171875 66.40625 20.328125 58.90625 
Q 16.5 51.421875 16.5 36.375 
Q 16.5 21.390625 20.328125 13.890625 
Q 24.171875 6.390625 31.78125 6.390625 
Q 39.453125 6.390625 43.28125 13.890625 
Q 47.125 21.390625 47.125 36.375 
Q 47.125 51.421875 43.28125 58.90625 
Q 39.453125 66.40625 31.78125 66.40625 
z
M 31.78125 74.21875 
Q 44.046875 74.21875 50.515625 64.515625 
Q 56.984375 54.828125 56.984375 36.375 
Q 56.984375 17.96875 50.515625 8.265625 
Q 44.046875 -1.421875 31.78125 -1.421875 
Q 19.53125 -1.421875 13.0625 8.265625 
Q 6.59375 17.96875 6.59375 36.375 
Q 6.59375 54.828125 13.0625 64.515625 
Q 19.53125 74.21875 31.78125 74.21875 
z
" id="DejaVuSans-48"/>
       </defs>
       <use xlink:href="#DejaVuSans-48"/>
      </g>
     </g>
    </g>
    <g id="xtick_2">
     <g id="line2d_2">
      <g>
       <use style="stroke:#000000;stroke-width:0.8;" x="112.434534" xlink:href="#mf138fcffef" y="303.64"/>
      </g>
     </g>
     <g id="text_2">
      <!-- 200 -->
      <g transform="translate(102.890784 318.238437)scale(0.1 -0.1)">
       <defs>
        <path d="M 19.1875 8.296875 
L 53.609375 8.296875 
L 53.609375 0 
L 7.328125 0 
L 7.328125 8.296875 
Q 12.9375 14.109375 22.625 23.890625 
Q 32.328125 33.6875 34.8125 36.53125 
Q 39.546875 41.84375 41.421875 45.53125 
Q 43.3125 49.21875 43.3125 52.78125 
Q 43.3125 58.59375 39.234375 62.25 
Q 35.15625 65.921875 28.609375 65.921875 
Q 23.96875 65.921875 18.8125 64.3125 
Q 13.671875 62.703125 7.8125 59.421875 
L 7.8125 69.390625 
Q 13.765625 71.78125 18.9375 73 
Q 24.125 74.21875 28.421875 74.21875 
Q 39.75 74.21875 46.484375 68.546875 
Q 53.21875 62.890625 53.21875 53.421875 
Q 53.21875 48.921875 51.53125 44.890625 
Q 49.859375 40.875 45.40625 35.40625 
Q 44.1875 33.984375 37.640625 27.21875 
Q 31.109375 20.453125 19.1875 8.296875 
z
" id="DejaVuSans-50"/>
       </defs>
       <use xlink:href="#DejaVuSans-50"/>
       <use x="63.623047" xlink:href="#DejaVuSans-48"/>
       <use x="127.246094" xlink:href="#DejaVuSans-48"/>
      </g>
     </g>
    </g>
    <g id="xtick_3">
     <g id="line2d_3">
      <g>
       <use style="stroke:#000000;stroke-width:0.8;" x="166.400741" xlink:href="#mf138fcffef" y="303.64"/>
      </g>
     </g>
     <g id="text_3">
      <!-- 400 -->
      <g transform="translate(156.856991 318.238437)scale(0.1 -0.1)">
       <defs>
        <path d="M 37.796875 64.3125 
L 12.890625 25.390625 
L 37.796875 25.390625 
z
M 35.203125 72.90625 
L 47.609375 72.90625 
L 47.609375 25.390625 
L 58.015625 25.390625 
L 58.015625 17.1875 
L 47.609375 17.1875 
L 47.609375 0 
L 37.796875 0 
L 37.796875 17.1875 
L 4.890625 17.1875 
L 4.890625 26.703125 
z
" id="DejaVuSans-52"/>
       </defs>
       <use xlink:href="#DejaVuSans-52"/>
       <use x="63.623047" xlink:href="#DejaVuSans-48"/>
       <use x="127.246094" xlink:href="#DejaVuSans-48"/>
      </g>
     </g>
    </g>
    <g id="xtick_4">
     <g id="line2d_4">
      <g>
       <use style="stroke:#000000;stroke-width:0.8;" x="220.366949" xlink:href="#mf138fcffef" y="303.64"/>
      </g>
     </g>
     <g id="text_4">
      <!-- 600 -->
      <g transform="translate(210.823199 318.238437)scale(0.1 -0.1)">
       <defs>
        <path d="M 33.015625 40.375 
Q 26.375 40.375 22.484375 35.828125 
Q 18.609375 31.296875 18.609375 23.390625 
Q 18.609375 15.53125 22.484375 10.953125 
Q 26.375 6.390625 33.015625 6.390625 
Q 39.65625 6.390625 43.53125 10.953125 
Q 47.40625 15.53125 47.40625 23.390625 
Q 47.40625 31.296875 43.53125 35.828125 
Q 39.65625 40.375 33.015625 40.375 
z
M 52.59375 71.296875 
L 52.59375 62.3125 
Q 48.875 64.0625 45.09375 64.984375 
Q 41.3125 65.921875 37.59375 65.921875 
Q 27.828125 65.921875 22.671875 59.328125 
Q 17.53125 52.734375 16.796875 39.40625 
Q 19.671875 43.65625 24.015625 45.921875 
Q 28.375 48.1875 33.59375 48.1875 
Q 44.578125 48.1875 50.953125 41.515625 
Q 57.328125 34.859375 57.328125 23.390625 
Q 57.328125 12.15625 50.6875 5.359375 
Q 44.046875 -1.421875 33.015625 -1.421875 
Q 20.359375 -1.421875 13.671875 8.265625 
Q 6.984375 17.96875 6.984375 36.375 
Q 6.984375 53.65625 15.1875 63.9375 
Q 23.390625 74.21875 37.203125 74.21875 
Q 40.921875 74.21875 44.703125 73.484375 
Q 48.484375 72.75 52.59375 71.296875 
z
" id="DejaVuSans-54"/>
       </defs>
       <use xlink:href="#DejaVuSans-54"/>
       <use x="63.623047" xlink:href="#DejaVuSans-48"/>
       <use x="127.246094" xlink:href="#DejaVuSans-48"/>
      </g>
     </g>
    </g>
    <g id="xtick_5">
     <g id="line2d_5">
      <g>
       <use style="stroke:#000000;stroke-width:0.8;" x="274.333156" xlink:href="#mf138fcffef" y="303.64"/>
      </g>
     </g>
     <g id="text_5">
      <!-- 800 -->
      <g transform="translate(264.789406 318.238437)scale(0.1 -0.1)">
       <defs>
        <path d="M 31.78125 34.625 
Q 24.75 34.625 20.71875 30.859375 
Q 16.703125 27.09375 16.703125 20.515625 
Q 16.703125 13.921875 20.71875 10.15625 
Q 24.75 6.390625 31.78125 6.390625 
Q 38.8125 6.390625 42.859375 10.171875 
Q 46.921875 13.96875 46.921875 20.515625 
Q 46.921875 27.09375 42.890625 30.859375 
Q 38.875 34.625 31.78125 34.625 
z
M 21.921875 38.8125 
Q 15.578125 40.375 12.03125 44.71875 
Q 8.5 49.078125 8.5 55.328125 
Q 8.5 64.0625 14.71875 69.140625 
Q 20.953125 74.21875 31.78125 74.21875 
Q 42.671875 74.21875 48.875 69.140625 
Q 55.078125 64.0625 55.078125 55.328125 
Q 55.078125 49.078125 51.53125 44.71875 
Q 48 40.375 41.703125 38.8125 
Q 48.828125 37.15625 52.796875 32.3125 
Q 56.78125 27.484375 56.78125 20.515625 
Q 56.78125 9.90625 50.3125 4.234375 
Q 43.84375 -1.421875 31.78125 -1.421875 
Q 19.734375 -1.421875 13.25 4.234375 
Q 6.78125 9.90625 6.78125 20.515625 
Q 6.78125 27.484375 10.78125 32.3125 
Q 14.796875 37.15625 21.921875 38.8125 
z
M 18.3125 54.390625 
Q 18.3125 48.734375 21.84375 45.5625 
Q 25.390625 42.390625 31.78125 42.390625 
Q 38.140625 42.390625 41.71875 45.5625 
Q 45.3125 48.734375 45.3125 54.390625 
Q 45.3125 60.0625 41.71875 63.234375 
Q 38.140625 66.40625 31.78125 66.40625 
Q 25.390625 66.40625 21.84375 63.234375 
Q 18.3125 60.0625 18.3125 54.390625 
z
" id="DejaVuSans-56"/>
       </defs>
       <use xlink:href="#DejaVuSans-56"/>
       <use x="63.623047" xlink:href="#DejaVuSans-48"/>
       <use x="127.246094" xlink:href="#DejaVuSans-48"/>
      </g>
     </g>
    </g>
    <g id="xtick_6">
     <g id="line2d_6">
      <g>
       <use style="stroke:#000000;stroke-width:0.8;" x="328.299364" xlink:href="#mf138fcffef" y="303.64"/>
      </g>
     </g>
     <g id="text_6">
      <!-- 1000 -->
      <g transform="translate(315.574364 318.238437)scale(0.1 -0.1)">
       <defs>
        <path d="M 12.40625 8.296875 
L 28.515625 8.296875 
L 28.515625 63.921875 
L 10.984375 60.40625 
L 10.984375 69.390625 
L 28.421875 72.90625 
L 38.28125 72.90625 
L 38.28125 8.296875 
L 54.390625 8.296875 
L 54.390625 0 
L 12.40625 0 
z
" id="DejaVuSans-49"/>
       </defs>
       <use xlink:href="#DejaVuSans-49"/>
       <use x="63.623047" xlink:href="#DejaVuSans-48"/>
       <use x="127.246094" xlink:href="#DejaVuSans-48"/>
       <use x="190.869141" xlink:href="#DejaVuSans-48"/>
      </g>
     </g>
    </g>
    <g id="text_7">
     <!-- y0_Tpro -->
     <g transform="translate(174.861906 331.74)scale(0.1 -0.1)">
      <defs>
       <path d="M 32.171875 -5.078125 
Q 28.375 -14.84375 24.75 -17.8125 
Q 21.140625 -20.796875 15.09375 -20.796875 
L 7.90625 -20.796875 
L 7.90625 -13.28125 
L 13.1875 -13.28125 
Q 16.890625 -13.28125 18.9375 -11.515625 
Q 21 -9.765625 23.484375 -3.21875 
L 25.09375 0.875 
L 2.984375 54.6875 
L 12.5 54.6875 
L 29.59375 11.921875 
L 46.6875 54.6875 
L 56.203125 54.6875 
z
" id="DejaVuSans-121"/>
       <path d="M 50.984375 -16.609375 
L 50.984375 -23.578125 
L -0.984375 -23.578125 
L -0.984375 -16.609375 
z
" id="DejaVuSans-95"/>
       <path d="M -0.296875 72.90625 
L 61.375 72.90625 
L 61.375 64.59375 
L 35.5 64.59375 
L 35.5 0 
L 25.59375 0 
L 25.59375 64.59375 
L -0.296875 64.59375 
z
" id="DejaVuSans-84"/>
       <path d="M 18.109375 8.203125 
L 18.109375 -20.796875 
L 9.078125 -20.796875 
L 9.078125 54.6875 
L 18.109375 54.6875 
L 18.109375 46.390625 
Q 20.953125 51.265625 25.265625 53.625 
Q 29.59375 56 35.59375 56 
Q 45.5625 56 51.78125 48.09375 
Q 58.015625 40.1875 58.015625 27.296875 
Q 58.015625 14.40625 51.78125 6.484375 
Q 45.5625 -1.421875 35.59375 -1.421875 
Q 29.59375 -1.421875 25.265625 0.953125 
Q 20.953125 3.328125 18.109375 8.203125 
z
M 48.6875 27.296875 
Q 48.6875 37.203125 44.609375 42.84375 
Q 40.53125 48.484375 33.40625 48.484375 
Q 26.265625 48.484375 22.1875 42.84375 
Q 18.109375 37.203125 18.109375 27.296875 
Q 18.109375 17.390625 22.1875 11.75 
Q 26.265625 6.109375 33.40625 6.109375 
Q 40.53125 6.109375 44.609375 11.75 
Q 48.6875 17.390625 48.6875 27.296875 
z
" id="DejaVuSans-112"/>
       <path d="M 41.109375 46.296875 
Q 39.59375 47.171875 37.8125 47.578125 
Q 36.03125 48 33.890625 48 
Q 26.265625 48 22.1875 43.046875 
Q 18.109375 38.09375 18.109375 28.8125 
L 18.109375 0 
L 9.078125 0 
L 9.078125 54.6875 
L 18.109375 54.6875 
L 18.109375 46.1875 
Q 20.953125 51.171875 25.484375 53.578125 
Q 30.03125 56 36.53125 56 
Q 37.453125 56 38.578125 55.875 
Q 39.703125 55.765625 41.0625 55.515625 
z
" id="DejaVuSans-114"/>
       <path d="M 30.609375 48.390625 
Q 23.390625 48.390625 19.1875 42.75 
Q 14.984375 37.109375 14.984375 27.296875 
Q 14.984375 17.484375 19.15625 11.84375 
Q 23.34375 6.203125 30.609375 6.203125 
Q 37.796875 6.203125 41.984375 11.859375 
Q 46.1875 17.53125 46.1875 27.296875 
Q 46.1875 37.015625 41.984375 42.703125 
Q 37.796875 48.390625 30.609375 48.390625 
z
M 30.609375 56 
Q 42.328125 56 49.015625 48.375 
Q 55.71875 40.765625 55.71875 27.296875 
Q 55.71875 13.875 49.015625 6.21875 
Q 42.328125 -1.421875 30.609375 -1.421875 
Q 18.84375 -1.421875 12.171875 6.21875 
Q 5.515625 13.875 5.515625 27.296875 
Q 5.515625 40.765625 12.171875 48.375 
Q 18.84375 56 30.609375 56 
z
" id="DejaVuSans-111"/>
      </defs>
      <use xlink:href="#DejaVuSans-121"/>
      <use x="59.179688" xlink:href="#DejaVuSans-48"/>
      <use x="122.802734" xlink:href="#DejaVuSans-95"/>
      <use x="172.802734" xlink:href="#DejaVuSans-84"/>
      <use x="233.886719" xlink:href="#DejaVuSans-112"/>
      <use x="297.363281" xlink:href="#DejaVuSans-114"/>
      <use x="336.226562" xlink:href="#DejaVuSans-111"/>
     </g>
    </g>
   </g>
   <g id="matplotlib.axis_2">
    <g id="ytick_1">
     <g id="line2d_7">
      <defs>
       <path d="M 0 0 
L -3.5 0 
" id="mfd2aa10084" style="stroke:#000000;stroke-width:0.8;"/>
      </defs>
      <g>
       <use style="stroke:#000000;stroke-width:0.8;" x="47.81" xlink:href="#mfd2aa10084" y="291.845002"/>
      </g>
     </g>
     <g id="text_8">
      <!-- 6.2 -->
      <g style="fill:#1f77b4;" transform="translate(24.906875 295.644221)scale(0.1 -0.1)">
       <defs>
        <path d="M 10.6875 12.40625 
L 21 12.40625 
L 21 0 
L 10.6875 0 
z
" id="DejaVuSans-46"/>
       </defs>
       <use xlink:href="#DejaVuSans-54"/>
       <use x="63.623047" xlink:href="#DejaVuSans-46"/>
       <use x="95.410156" xlink:href="#DejaVuSans-50"/>
      </g>
     </g>
    </g>
    <g id="ytick_2">
     <g id="line2d_8">
      <g>
       <use style="stroke:#000000;stroke-width:0.8;" x="47.81" xlink:href="#mfd2aa10084" y="241.55539"/>
      </g>
     </g>
     <g id="text_9">
      <!-- 6.4 -->
      <g style="fill:#1f77b4;" transform="translate(24.906875 245.354609)scale(0.1 -0.1)">
       <use xlink:href="#DejaVuSans-54"/>
       <use x="63.623047" xlink:href="#DejaVuSans-46"/>
       <use x="95.410156" xlink:href="#DejaVuSans-52"/>
      </g>
     </g>
    </g>
    <g id="ytick_3">
     <g id="line2d_9">
      <g>
       <use style="stroke:#000000;stroke-width:0.8;" x="47.81" xlink:href="#mfd2aa10084" y="191.265779"/>
      </g>
     </g>
     <g id="text_10">
      <!-- 6.6 -->
      <g style="fill:#1f77b4;" transform="translate(24.906875 195.064997)scale(0.1 -0.1)">
       <use xlink:href="#DejaVuSans-54"/>
       <use x="63.623047" xlink:href="#DejaVuSans-46"/>
       <use x="95.410156" xlink:href="#DejaVuSans-54"/>
      </g>
     </g>
    </g>
    <g id="ytick_4">
     <g id="line2d_10">
      <g>
       <use style="stroke:#000000;stroke-width:0.8;" x="47.81" xlink:href="#mfd2aa10084" y="140.976167"/>
      </g>
     </g>
     <g id="text_11">
      <!-- 6.8 -->
      <g style="fill:#1f77b4;" transform="translate(24.906875 144.775386)scale(0.1 -0.1)">
       <use xlink:href="#DejaVuSans-54"/>
       <use x="63.623047" xlink:href="#DejaVuSans-46"/>
       <use x="95.410156" xlink:href="#DejaVuSans-56"/>
      </g>
     </g>
    </g>
    <g id="ytick_5">
     <g id="line2d_11">
      <g>
       <use style="stroke:#000000;stroke-width:0.8;" x="47.81" xlink:href="#mfd2aa10084" y="90.686555"/>
      </g>
     </g>
     <g id="text_12">
      <!-- 7.0 -->
      <g style="fill:#1f77b4;" transform="translate(24.906875 94.485774)scale(0.1 -0.1)">
       <defs>
        <path d="M 8.203125 72.90625 
L 55.078125 72.90625 
L 55.078125 68.703125 
L 28.609375 0 
L 18.3125 0 
L 43.21875 64.59375 
L 8.203125 64.59375 
z
" id="DejaVuSans-55"/>
       </defs>
       <use xlink:href="#DejaVuSans-55"/>
       <use x="63.623047" xlink:href="#DejaVuSans-46"/>
       <use x="95.410156" xlink:href="#DejaVuSans-48"/>
      </g>
     </g>
    </g>
    <g id="ytick_6">
     <g id="line2d_12">
      <g>
       <use style="stroke:#000000;stroke-width:0.8;" x="47.81" xlink:href="#mfd2aa10084" y="40.396944"/>
      </g>
     </g>
     <g id="text_13">
      <!-- 7.2 -->
      <g style="fill:#1f77b4;" transform="translate(24.906875 44.196163)scale(0.1 -0.1)">
       <use xlink:href="#DejaVuSans-55"/>
       <use x="63.623047" xlink:href="#DejaVuSans-46"/>
       <use x="95.410156" xlink:href="#DejaVuSans-50"/>
      </g>
     </g>
    </g>
    <g id="text_14">
     <!-- Tpro_eq -->
     <g style="fill:#1f77b4;" transform="translate(18.549062 182.66125)rotate(-90)scale(0.1 -0.1)">
      <defs>
       <path d="M 56.203125 29.59375 
L 56.203125 25.203125 
L 14.890625 25.203125 
Q 15.484375 15.921875 20.484375 11.0625 
Q 25.484375 6.203125 34.421875 6.203125 
Q 39.59375 6.203125 44.453125 7.46875 
Q 49.3125 8.734375 54.109375 11.28125 
L 54.109375 2.78125 
Q 49.265625 0.734375 44.1875 -0.34375 
Q 39.109375 -1.421875 33.890625 -1.421875 
Q 20.796875 -1.421875 13.15625 6.1875 
Q 5.515625 13.8125 5.515625 26.8125 
Q 5.515625 40.234375 12.765625 48.109375 
Q 20.015625 56 32.328125 56 
Q 43.359375 56 49.78125 48.890625 
Q 56.203125 41.796875 56.203125 29.59375 
z
M 47.21875 32.234375 
Q 47.125 39.59375 43.09375 43.984375 
Q 39.0625 48.390625 32.421875 48.390625 
Q 24.90625 48.390625 20.390625 44.140625 
Q 15.875 39.890625 15.1875 32.171875 
z
" id="DejaVuSans-101"/>
       <path d="M 14.796875 27.296875 
Q 14.796875 17.390625 18.875 11.75 
Q 22.953125 6.109375 30.078125 6.109375 
Q 37.203125 6.109375 41.296875 11.75 
Q 45.40625 17.390625 45.40625 27.296875 
Q 45.40625 37.203125 41.296875 42.84375 
Q 37.203125 48.484375 30.078125 48.484375 
Q 22.953125 48.484375 18.875 42.84375 
Q 14.796875 37.203125 14.796875 27.296875 
z
M 45.40625 8.203125 
Q 42.578125 3.328125 38.25 0.953125 
Q 33.9375 -1.421875 27.875 -1.421875 
Q 17.96875 -1.421875 11.734375 6.484375 
Q 5.515625 14.40625 5.515625 27.296875 
Q 5.515625 40.1875 11.734375 48.09375 
Q 17.96875 56 27.875 56 
Q 33.9375 56 38.25 53.625 
Q 42.578125 51.265625 45.40625 46.390625 
L 45.40625 54.6875 
L 54.390625 54.6875 
L 54.390625 -20.796875 
L 45.40625 -20.796875 
z
" id="DejaVuSans-113"/>
      </defs>
      <use xlink:href="#DejaVuSans-84"/>
      <use x="61.083984" xlink:href="#DejaVuSans-112"/>
      <use x="124.560547" xlink:href="#DejaVuSans-114"/>
      <use x="163.423828" xlink:href="#DejaVuSans-111"/>
      <use x="224.605469" xlink:href="#DejaVuSans-95"/>
      <use x="274.605469" xlink:href="#DejaVuSans-101"/>
      <use x="336.128906" xlink:href="#DejaVuSans-113"/>
     </g>
    </g>
    <g id="text_15">
     <!-- 1e−8+1.051628e−1 -->
     <g style="fill:#1f77b4;" transform="translate(47.81 18.72)scale(0.1 -0.1)">
      <defs>
       <path d="M 10.59375 35.5 
L 73.1875 35.5 
L 73.1875 27.203125 
L 10.59375 27.203125 
z
" id="DejaVuSans-8722"/>
       <path d="M 46 62.703125 
L 46 35.5 
L 73.1875 35.5 
L 73.1875 27.203125 
L 46 27.203125 
L 46 0 
L 37.796875 0 
L 37.796875 27.203125 
L 10.59375 27.203125 
L 10.59375 35.5 
L 37.796875 35.5 
L 37.796875 62.703125 
z
" id="DejaVuSans-43"/>
       <path d="M 10.796875 72.90625 
L 49.515625 72.90625 
L 49.515625 64.59375 
L 19.828125 64.59375 
L 19.828125 46.734375 
Q 21.96875 47.46875 24.109375 47.828125 
Q 26.265625 48.1875 28.421875 48.1875 
Q 40.625 48.1875 47.75 41.5 
Q 54.890625 34.8125 54.890625 23.390625 
Q 54.890625 11.625 47.5625 5.09375 
Q 40.234375 -1.421875 26.90625 -1.421875 
Q 22.3125 -1.421875 17.546875 -0.640625 
Q 12.796875 0.140625 7.71875 1.703125 
L 7.71875 11.625 
Q 12.109375 9.234375 16.796875 8.0625 
Q 21.484375 6.890625 26.703125 6.890625 
Q 35.15625 6.890625 40.078125 11.328125 
Q 45.015625 15.765625 45.015625 23.390625 
Q 45.015625 31 40.078125 35.4375 
Q 35.15625 39.890625 26.703125 39.890625 
Q 22.75 39.890625 18.8125 39.015625 
Q 14.890625 38.140625 10.796875 36.28125 
z
" id="DejaVuSans-53"/>
      </defs>
      <use xlink:href="#DejaVuSans-49"/>
      <use x="63.623047" xlink:href="#DejaVuSans-101"/>
      <use x="125.146484" xlink:href="#DejaVuSans-8722"/>
      <use x="208.935547" xlink:href="#DejaVuSans-56"/>
      <use x="272.558594" xlink:href="#DejaVuSans-43"/>
      <use x="356.347656" xlink:href="#DejaVuSans-49"/>
      <use x="419.970703" xlink:href="#DejaVuSans-46"/>
      <use x="451.757812" xlink:href="#DejaVuSans-48"/>
      <use x="515.380859" xlink:href="#DejaVuSans-53"/>
      <use x="579.003906" xlink:href="#DejaVuSans-49"/>
      <use x="642.626953" xlink:href="#DejaVuSans-54"/>
      <use x="706.25" xlink:href="#DejaVuSans-50"/>
      <use x="769.873047" xlink:href="#DejaVuSans-56"/>
      <use x="833.496094" xlink:href="#DejaVuSans-101"/>
      <use x="895.019531" xlink:href="#DejaVuSans-8722"/>
      <use x="978.808594" xlink:href="#DejaVuSans-49"/>
     </g>
    </g>
   </g>
   <g id="line2d_13">
    <path clip-path="url(#p678626cd38)" d="M 61.166636 110.707358 
L 61.906715 110.331931 
L 62.84978 109.738451 
L 64.051503 101.59273 
L 65.582828 38.283745 
L 67.534159 241.312376 
L 70.02069 290.825454 
L 73.189214 34.534545 
L 77.226785 245.334526 
L 82.371762 129.353281 
L 88.927876 189.678811 
L 97.282169 266.826528 
L 107.927835 129.593966 
L 121.493341 257.198856 
L 138.779526 132.720834 
L 160.806879 244.860137 
L 188.875784 74.074673 
L 224.643288 281.905126 
L 270.220923 58.423217 
L 328.299364 254.531987 
" style="fill:none;stroke:#1f77b4;stroke-linecap:square;stroke-width:1.5;"/>
    <defs>
     <path d="M 0 1.5 
C 0.397805 1.5 0.77937 1.341951 1.06066 1.06066 
C 1.341951 0.77937 1.5 0.397805 1.5 0 
C 1.5 -0.397805 1.341951 -0.77937 1.06066 -1.06066 
C 0.77937 -1.341951 0.397805 -1.5 0 -1.5 
C -0.397805 -1.5 -0.77937 -1.341951 -1.06066 -1.06066 
C -1.341951 -0.77937 -1.5 -0.397805 -1.5 0 
C -1.5 0.397805 -1.341951 0.77937 -1.06066 1.06066 
C -0.77937 1.341951 -0.397805 1.5 0 1.5 
z
" id="m2c0e2d93cb" style="stroke:#1f77b4;"/>
    </defs>
    <g clip-path="url(#p678626cd38)">
     <use style="fill:#1f77b4;stroke:#1f77b4;" x="61.166636" xlink:href="#m2c0e2d93cb" y="110.707358"/>
     <use style="fill:#1f77b4;stroke:#1f77b4;" x="61.906715" xlink:href="#m2c0e2d93cb" y="110.331931"/>
     <use style="fill:#1f77b4;stroke:#1f77b4;" x="62.84978" xlink:href="#m2c0e2d93cb" y="109.738451"/>
     <use style="fill:#1f77b4;stroke:#1f77b4;" x="64.051503" xlink:href="#m2c0e2d93cb" y="101.59273"/>
     <use style="fill:#1f77b4;stroke:#1f77b4;" x="65.582828" xlink:href="#m2c0e2d93cb" y="38.283745"/>
     <use style="fill:#1f77b4;stroke:#1f77b4;" x="67.534159" xlink:href="#m2c0e2d93cb" y="241.312376"/>
     <use style="fill:#1f77b4;stroke:#1f77b4;" x="70.02069" xlink:href="#m2c0e2d93cb" y="290.825454"/>
     <use style="fill:#1f77b4;stroke:#1f77b4;" x="73.189214" xlink:href="#m2c0e2d93cb" y="34.534545"/>
     <use style="fill:#1f77b4;stroke:#1f77b4;" x="77.226785" xlink:href="#m2c0e2d93cb" y="245.334526"/>
     <use style="fill:#1f77b4;stroke:#1f77b4;" x="82.371762" xlink:href="#m2c0e2d93cb" y="129.353281"/>
     <use style="fill:#1f77b4;stroke:#1f77b4;" x="88.927876" xlink:href="#m2c0e2d93cb" y="189.678811"/>
     <use style="fill:#1f77b4;stroke:#1f77b4;" x="97.282169" xlink:href="#m2c0e2d93cb" y="266.826528"/>
     <use style="fill:#1f77b4;stroke:#1f77b4;" x="107.927835" xlink:href="#m2c0e2d93cb" y="129.593966"/>
     <use style="fill:#1f77b4;stroke:#1f77b4;" x="121.493341" xlink:href="#m2c0e2d93cb" y="257.198856"/>
     <use style="fill:#1f77b4;stroke:#1f77b4;" x="138.779526" xlink:href="#m2c0e2d93cb" y="132.720834"/>
     <use style="fill:#1f77b4;stroke:#1f77b4;" x="160.806879" xlink:href="#m2c0e2d93cb" y="244.860137"/>
     <use style="fill:#1f77b4;stroke:#1f77b4;" x="188.875784" xlink:href="#m2c0e2d93cb" y="74.074673"/>
     <use style="fill:#1f77b4;stroke:#1f77b4;" x="224.643288" xlink:href="#m2c0e2d93cb" y="281.905126"/>
     <use style="fill:#1f77b4;stroke:#1f77b4;" x="270.220923" xlink:href="#m2c0e2d93cb" y="58.423217"/>
     <use style="fill:#1f77b4;stroke:#1f77b4;" x="328.299364" xlink:href="#m2c0e2d93cb" y="254.531987"/>
    </g>
   </g>
   <g id="patch_3">
    <path d="M 47.81 303.64 
L 47.81 21.72 
" style="fill:none;stroke:#000000;stroke-linecap:square;stroke-linejoin:miter;stroke-width:0.8;"/>
   </g>
   <g id="patch_4">
    <path d="M 341.656 303.64 
L 341.656 21.72 
" style="fill:none;stroke:#000000;stroke-linecap:square;stroke-linejoin:miter;stroke-width:0.8;"/>
   </g>
   <g id="patch_5">
    <path d="M 47.81 303.64 
L 341.656 303.64 
" style="fill:none;stroke:#000000;stroke-linecap:square;stroke-linejoin:miter;stroke-width:0.8;"/>
   </g>
   <g id="patch_6">
    <path d="M 47.81 21.72 
L 341.656 21.72 
" style="fill:none;stroke:#000000;stroke-linecap:square;stroke-linejoin:miter;stroke-width:0.8;"/>
   </g>
  </g>
  <g id="axes_2">
   <g id="matplotlib.axis_3">
    <g id="ytick_7">
     <g id="line2d_14">
      <defs>
       <path d="M 0 0 
L 3.5 0 
" id="m6fb48643bd" style="stroke:#000000;stroke-width:0.8;"/>
      </defs>
      <g>
       <use style="stroke:#000000;stroke-width:0.8;" x="341.656" xlink:href="#m6fb48643bd" y="302.332473"/>
      </g>
     </g>
     <g id="text_16">
      <!-- 0.8840 -->
      <g style="fill:#e377c2;" transform="translate(348.656 306.131692)scale(0.1 -0.1)">
       <use xlink:href="#DejaVuSans-48"/>
       <use x="63.623047" xlink:href="#DejaVuSans-46"/>
       <use x="95.410156" xlink:href="#DejaVuSans-56"/>
       <use x="159.033203" xlink:href="#DejaVuSans-56"/>
       <use x="222.65625" xlink:href="#DejaVuSans-52"/>
       <use x="286.279297" xlink:href="#DejaVuSans-48"/>
      </g>
     </g>
    </g>
    <g id="ytick_8">
     <g id="line2d_15">
      <g>
       <use style="stroke:#000000;stroke-width:0.8;" x="341.656" xlink:href="#m6fb48643bd" y="251.996195"/>
      </g>
     </g>
     <g id="text_17">
      <!-- 0.8845 -->
      <g style="fill:#e377c2;" transform="translate(348.656 255.795414)scale(0.1 -0.1)">
       <use xlink:href="#DejaVuSans-48"/>
       <use x="63.623047" xlink:href="#DejaVuSans-46"/>
       <use x="95.410156" xlink:href="#DejaVuSans-56"/>
       <use x="159.033203" xlink:href="#DejaVuSans-56"/>
       <use x="222.65625" xlink:href="#DejaVuSans-52"/>
       <use x="286.279297" xlink:href="#DejaVuSans-53"/>
      </g>
     </g>
    </g>
    <g id="ytick_9">
     <g id="line2d_16">
      <g>
       <use style="stroke:#000000;stroke-width:0.8;" x="341.656" xlink:href="#m6fb48643bd" y="201.659917"/>
      </g>
     </g>
     <g id="text_18">
      <!-- 0.8850 -->
      <g style="fill:#e377c2;" transform="translate(348.656 205.459135)scale(0.1 -0.1)">
       <use xlink:href="#DejaVuSans-48"/>
       <use x="63.623047" xlink:href="#DejaVuSans-46"/>
       <use x="95.410156" xlink:href="#DejaVuSans-56"/>
       <use x="159.033203" xlink:href="#DejaVuSans-56"/>
       <use x="222.65625" xlink:href="#DejaVuSans-53"/>
       <use x="286.279297" xlink:href="#DejaVuSans-48"/>
      </g>
     </g>
    </g>
    <g id="ytick_10">
     <g id="line2d_17">
      <g>
       <use style="stroke:#000000;stroke-width:0.8;" x="341.656" xlink:href="#m6fb48643bd" y="151.323638"/>
      </g>
     </g>
     <g id="text_19">
      <!-- 0.8855 -->
      <g style="fill:#e377c2;" transform="translate(348.656 155.122857)scale(0.1 -0.1)">
       <use xlink:href="#DejaVuSans-48"/>
       <use x="63.623047" xlink:href="#DejaVuSans-46"/>
       <use x="95.410156" xlink:href="#DejaVuSans-56"/>
       <use x="159.033203" xlink:href="#DejaVuSans-56"/>
       <use x="222.65625" xlink:href="#DejaVuSans-53"/>
       <use x="286.279297" xlink:href="#DejaVuSans-53"/>
      </g>
     </g>
    </g>
    <g id="ytick_11">
     <g id="line2d_18">
      <g>
       <use style="stroke:#000000;stroke-width:0.8;" x="341.656" xlink:href="#m6fb48643bd" y="100.98736"/>
      </g>
     </g>
     <g id="text_20">
      <!-- 0.8860 -->
      <g style="fill:#e377c2;" transform="translate(348.656 104.786579)scale(0.1 -0.1)">
       <use xlink:href="#DejaVuSans-48"/>
       <use x="63.623047" xlink:href="#DejaVuSans-46"/>
       <use x="95.410156" xlink:href="#DejaVuSans-56"/>
       <use x="159.033203" xlink:href="#DejaVuSans-56"/>
       <use x="222.65625" xlink:href="#DejaVuSans-54"/>
       <use x="286.279297" xlink:href="#DejaVuSans-48"/>
      </g>
     </g>
    </g>
    <g id="ytick_12">
     <g id="line2d_19">
      <g>
       <use style="stroke:#000000;stroke-width:0.8;" x="341.656" xlink:href="#m6fb48643bd" y="50.651082"/>
      </g>
     </g>
     <g id="text_21">
      <!-- 0.8865 -->
      <g style="fill:#e377c2;" transform="translate(348.656 54.450301)scale(0.1 -0.1)">
       <use xlink:href="#DejaVuSans-48"/>
       <use x="63.623047" xlink:href="#DejaVuSans-46"/>
       <use x="95.410156" xlink:href="#DejaVuSans-56"/>
       <use x="159.033203" xlink:href="#DejaVuSans-56"/>
       <use x="222.65625" xlink:href="#DejaVuSans-54"/>
       <use x="286.279297" xlink:href="#DejaVuSans-53"/>
      </g>
     </g>
    </g>
    <g id="text_22">
     <!-- o2_eq -->
     <g style="fill:#e377c2;" transform="translate(395.0685 177.671406)rotate(-90)scale(0.1 -0.1)">
      <use xlink:href="#DejaVuSans-111"/>
      <use x="61.181641" xlink:href="#DejaVuSans-50"/>
      <use x="124.804688" xlink:href="#DejaVuSans-95"/>
      <use x="174.804688" xlink:href="#DejaVuSans-101"/>
      <use x="236.328125" xlink:href="#DejaVuSans-113"/>
     </g>
    </g>
   </g>
   <g id="line2d_20">
    <path clip-path="url(#p678626cd38)" d="M 61.166636 214.754779 
L 61.906715 215.130014 
L 62.84978 215.723191 
L 64.051503 223.864892 
L 65.582828 287.159558 
L 67.534159 84.182598 
L 70.02069 34.534545 
L 73.189214 290.825455 
L 77.226785 80.027406 
L 82.371762 196.062806 
L 88.927876 135.754285 
L 97.282169 58.571087 
L 107.927835 195.874379 
L 121.493341 68.322472 
L 138.779526 192.645635 
L 160.806879 80.516642 
L 188.875784 251.217903 
L 224.643288 43.638032 
L 270.220923 266.939974 
L 328.299364 70.976865 
" style="fill:none;stroke:#e377c2;stroke-linecap:square;stroke-width:1.5;"/>
    <defs>
     <path d="M 0 1.5 
C 0.397805 1.5 0.77937 1.341951 1.06066 1.06066 
C 1.341951 0.77937 1.5 0.397805 1.5 0 
C 1.5 -0.397805 1.341951 -0.77937 1.06066 -1.06066 
C 0.77937 -1.341951 0.397805 -1.5 0 -1.5 
C -0.397805 -1.5 -0.77937 -1.341951 -1.06066 -1.06066 
C -1.341951 -0.77937 -1.5 -0.397805 -1.5 0 
C -1.5 0.397805 -1.341951 0.77937 -1.06066 1.06066 
C -0.77937 1.341951 -0.397805 1.5 0 1.5 
z
" id="m284e954a13" style="stroke:#e377c2;"/>
    </defs>
    <g clip-path="url(#p678626cd38)">
     <use style="fill:#e377c2;stroke:#e377c2;" x="61.166636" xlink:href="#m284e954a13" y="214.754779"/>
     <use style="fill:#e377c2;stroke:#e377c2;" x="61.906715" xlink:href="#m284e954a13" y="215.130014"/>
     <use style="fill:#e377c2;stroke:#e377c2;" x="62.84978" xlink:href="#m284e954a13" y="215.723191"/>
     <use style="fill:#e377c2;stroke:#e377c2;" x="64.051503" xlink:href="#m284e954a13" y="223.864892"/>
     <use style="fill:#e377c2;stroke:#e377c2;" x="65.582828" xlink:href="#m284e954a13" y="287.159558"/>
     <use style="fill:#e377c2;stroke:#e377c2;" x="67.534159" xlink:href="#m284e954a13" y="84.182598"/>
     <use style="fill:#e377c2;stroke:#e377c2;" x="70.02069" xlink:href="#m284e954a13" y="34.534545"/>
     <use style="fill:#e377c2;stroke:#e377c2;" x="73.189214" xlink:href="#m284e954a13" y="290.825455"/>
     <use style="fill:#e377c2;stroke:#e377c2;" x="77.226785" xlink:href="#m284e954a13" y="80.027406"/>
     <use style="fill:#e377c2;stroke:#e377c2;" x="82.371762" xlink:href="#m284e954a13" y="196.062806"/>
     <use style="fill:#e377c2;stroke:#e377c2;" x="88.927876" xlink:href="#m284e954a13" y="135.754285"/>
     <use style="fill:#e377c2;stroke:#e377c2;" x="97.282169" xlink:href="#m284e954a13" y="58.571087"/>
     <use style="fill:#e377c2;stroke:#e377c2;" x="107.927835" xlink:href="#m284e954a13" y="195.874379"/>
     <use style="fill:#e377c2;stroke:#e377c2;" x="121.493341" xlink:href="#m284e954a13" y="68.322472"/>
     <use style="fill:#e377c2;stroke:#e377c2;" x="138.779526" xlink:href="#m284e954a13" y="192.645635"/>
     <use style="fill:#e377c2;stroke:#e377c2;" x="160.806879" xlink:href="#m284e954a13" y="80.516642"/>
     <use style="fill:#e377c2;stroke:#e377c2;" x="188.875784" xlink:href="#m284e954a13" y="251.217903"/>
     <use style="fill:#e377c2;stroke:#e377c2;" x="224.643288" xlink:href="#m284e954a13" y="43.638032"/>
     <use style="fill:#e377c2;stroke:#e377c2;" x="270.220923" xlink:href="#m284e954a13" y="266.939974"/>
     <use style="fill:#e377c2;stroke:#e377c2;" x="328.299364" xlink:href="#m284e954a13" y="70.976865"/>
    </g>
   </g>
   <g id="patch_7">
    <path d="M 47.81 303.64 
L 47.81 21.72 
" style="fill:none;stroke:#000000;stroke-linecap:square;stroke-linejoin:miter;stroke-width:0.8;"/>
   </g>
   <g id="patch_8">
    <path d="M 341.656 303.64 
L 341.656 21.72 
" style="fill:none;stroke:#000000;stroke-linecap:square;stroke-linejoin:miter;stroke-width:0.8;"/>
   </g>
   <g id="patch_9">
    <path d="M 47.81 303.64 
L 341.656 303.64 
" style="fill:none;stroke:#000000;stroke-linecap:square;stroke-linejoin:miter;stroke-width:0.8;"/>
   </g>
   <g id="patch_10">
    <path d="M 47.81 21.72 
L 341.656 21.72 
" style="fill:none;stroke:#000000;stroke-linecap:square;stroke-linejoin:miter;stroke-width:0.8;"/>
   </g>
  </g>
  <g id="axes_3">
   <g id="matplotlib.axis_4">
    <g id="ytick_13">
     <g id="line2d_21">
      <g>
       <use style="stroke:#000000;stroke-width:0.8;" x="400.4252" xlink:href="#m6fb48643bd" y="277.026314"/>
      </g>
     </g>
     <g id="text_23">
      <!-- 7.0 -->
      <g style="fill:#ff7f0e;" transform="translate(407.4252 280.825534)scale(0.1 -0.1)">
       <use xlink:href="#DejaVuSans-55"/>
       <use x="63.623047" xlink:href="#DejaVuSans-46"/>
       <use x="95.410156" xlink:href="#DejaVuSans-48"/>
      </g>
     </g>
    </g>
    <g id="ytick_14">
     <g id="line2d_22">
      <g>
       <use style="stroke:#000000;stroke-width:0.8;" x="400.4252" xlink:href="#m6fb48643bd" y="229.075195"/>
      </g>
     </g>
     <g id="text_24">
      <!-- 7.5 -->
      <g style="fill:#ff7f0e;" transform="translate(407.4252 232.874416)scale(0.1 -0.1)">
       <use xlink:href="#DejaVuSans-55"/>
       <use x="63.623047" xlink:href="#DejaVuSans-46"/>
       <use x="95.410156" xlink:href="#DejaVuSans-53"/>
      </g>
     </g>
    </g>
    <g id="ytick_15">
     <g id="line2d_23">
      <g>
       <use style="stroke:#000000;stroke-width:0.8;" x="400.4252" xlink:href="#m6fb48643bd" y="181.124077"/>
      </g>
     </g>
     <g id="text_25">
      <!-- 8.0 -->
      <g style="fill:#ff7f0e;" transform="translate(407.4252 184.923297)scale(0.1 -0.1)">
       <use xlink:href="#DejaVuSans-56"/>
       <use x="63.623047" xlink:href="#DejaVuSans-46"/>
       <use x="95.410156" xlink:href="#DejaVuSans-48"/>
      </g>
     </g>
    </g>
    <g id="ytick_16">
     <g id="line2d_24">
      <g>
       <use style="stroke:#000000;stroke-width:0.8;" x="400.4252" xlink:href="#m6fb48643bd" y="133.172966"/>
      </g>
     </g>
     <g id="text_26">
      <!-- 8.5 -->
      <g style="fill:#ff7f0e;" transform="translate(407.4252 136.972186)scale(0.1 -0.1)">
       <use xlink:href="#DejaVuSans-56"/>
       <use x="63.623047" xlink:href="#DejaVuSans-46"/>
       <use x="95.410156" xlink:href="#DejaVuSans-53"/>
      </g>
     </g>
    </g>
    <g id="ytick_17">
     <g id="line2d_25">
      <g>
       <use style="stroke:#000000;stroke-width:0.8;" x="400.4252" xlink:href="#m6fb48643bd" y="85.22184"/>
      </g>
     </g>
     <g id="text_27">
      <!-- 9.0 -->
      <g style="fill:#ff7f0e;" transform="translate(407.4252 89.02106)scale(0.1 -0.1)">
       <defs>
        <path d="M 10.984375 1.515625 
L 10.984375 10.5 
Q 14.703125 8.734375 18.5 7.8125 
Q 22.3125 6.890625 25.984375 6.890625 
Q 35.75 6.890625 40.890625 13.453125 
Q 46.046875 20.015625 46.78125 33.40625 
Q 43.953125 29.203125 39.59375 26.953125 
Q 35.25 24.703125 29.984375 24.703125 
Q 19.046875 24.703125 12.671875 31.3125 
Q 6.296875 37.9375 6.296875 49.421875 
Q 6.296875 60.640625 12.9375 67.421875 
Q 19.578125 74.21875 30.609375 74.21875 
Q 43.265625 74.21875 49.921875 64.515625 
Q 56.59375 54.828125 56.59375 36.375 
Q 56.59375 19.140625 48.40625 8.859375 
Q 40.234375 -1.421875 26.421875 -1.421875 
Q 22.703125 -1.421875 18.890625 -0.6875 
Q 15.09375 0.046875 10.984375 1.515625 
z
M 30.609375 32.421875 
Q 37.25 32.421875 41.125 36.953125 
Q 45.015625 41.5 45.015625 49.421875 
Q 45.015625 57.28125 41.125 61.84375 
Q 37.25 66.40625 30.609375 66.40625 
Q 23.96875 66.40625 20.09375 61.84375 
Q 16.21875 57.28125 16.21875 49.421875 
Q 16.21875 41.5 20.09375 36.953125 
Q 23.96875 32.421875 30.609375 32.421875 
z
" id="DejaVuSans-57"/>
       </defs>
       <use xlink:href="#DejaVuSans-57"/>
       <use x="63.623047" xlink:href="#DejaVuSans-46"/>
       <use x="95.410156" xlink:href="#DejaVuSans-48"/>
      </g>
     </g>
    </g>
    <g id="ytick_18">
     <g id="line2d_26">
      <g>
       <use style="stroke:#000000;stroke-width:0.8;" x="400.4252" xlink:href="#m6fb48643bd" y="37.270721"/>
      </g>
     </g>
     <g id="text_28">
      <!-- 9.5 -->
      <g style="fill:#ff7f0e;" transform="translate(407.4252 41.069942)scale(0.1 -0.1)">
       <use xlink:href="#DejaVuSans-57"/>
       <use x="63.623047" xlink:href="#DejaVuSans-46"/>
       <use x="95.410156" xlink:href="#DejaVuSans-53"/>
      </g>
     </g>
    </g>
    <g id="text_29">
     <!-- test_eq -->
     <g style="fill:#ff7f0e;" transform="translate(434.648638 181.032344)rotate(-90)scale(0.1 -0.1)">
      <defs>
       <path d="M 18.3125 70.21875 
L 18.3125 54.6875 
L 36.8125 54.6875 
L 36.8125 47.703125 
L 18.3125 47.703125 
L 18.3125 18.015625 
Q 18.3125 11.328125 20.140625 9.421875 
Q 21.96875 7.515625 27.59375 7.515625 
L 36.8125 7.515625 
L 36.8125 0 
L 27.59375 0 
Q 17.1875 0 13.234375 3.875 
Q 9.28125 7.765625 9.28125 18.015625 
L 9.28125 47.703125 
L 2.6875 47.703125 
L 2.6875 54.6875 
L 9.28125 54.6875 
L 9.28125 70.21875 
z
" id="DejaVuSans-116"/>
       <path d="M 44.28125 53.078125 
L 44.28125 44.578125 
Q 40.484375 46.53125 36.375 47.5 
Q 32.28125 48.484375 27.875 48.484375 
Q 21.1875 48.484375 17.84375 46.4375 
Q 14.5 44.390625 14.5 40.28125 
Q 14.5 37.15625 16.890625 35.375 
Q 19.28125 33.59375 26.515625 31.984375 
L 29.59375 31.296875 
Q 39.15625 29.25 43.1875 25.515625 
Q 47.21875 21.78125 47.21875 15.09375 
Q 47.21875 7.46875 41.1875 3.015625 
Q 35.15625 -1.421875 24.609375 -1.421875 
Q 20.21875 -1.421875 15.453125 -0.5625 
Q 10.6875 0.296875 5.421875 2 
L 5.421875 11.28125 
Q 10.40625 8.6875 15.234375 7.390625 
Q 20.0625 6.109375 24.8125 6.109375 
Q 31.15625 6.109375 34.5625 8.28125 
Q 37.984375 10.453125 37.984375 14.40625 
Q 37.984375 18.0625 35.515625 20.015625 
Q 33.0625 21.96875 24.703125 23.78125 
L 21.578125 24.515625 
Q 13.234375 26.265625 9.515625 29.90625 
Q 5.8125 33.546875 5.8125 39.890625 
Q 5.8125 47.609375 11.28125 51.796875 
Q 16.75 56 26.8125 56 
Q 31.78125 56 36.171875 55.265625 
Q 40.578125 54.546875 44.28125 53.078125 
z
" id="DejaVuSans-115"/>
      </defs>
      <use xlink:href="#DejaVuSans-116"/>
      <use x="39.208984" xlink:href="#DejaVuSans-101"/>
      <use x="100.732422" xlink:href="#DejaVuSans-115"/>
      <use x="152.832031" xlink:href="#DejaVuSans-116"/>
      <use x="192.041016" xlink:href="#DejaVuSans-95"/>
      <use x="242.041016" xlink:href="#DejaVuSans-101"/>
      <use x="303.564453" xlink:href="#DejaVuSans-113"/>
     </g>
    </g>
    <g id="text_30">
     <!-- 1e−14+6.6252604e−6 -->
     <g style="fill:#ff7f0e;" transform="translate(224.682563 18.72)scale(0.1 -0.1)">
      <use xlink:href="#DejaVuSans-49"/>
      <use x="63.623047" xlink:href="#DejaVuSans-101"/>
      <use x="125.146484" xlink:href="#DejaVuSans-8722"/>
      <use x="208.935547" xlink:href="#DejaVuSans-49"/>
      <use x="272.558594" xlink:href="#DejaVuSans-52"/>
      <use x="336.181641" xlink:href="#DejaVuSans-43"/>
      <use x="419.970703" xlink:href="#DejaVuSans-54"/>
      <use x="483.59375" xlink:href="#DejaVuSans-46"/>
      <use x="515.380859" xlink:href="#DejaVuSans-54"/>
      <use x="579.003906" xlink:href="#DejaVuSans-50"/>
      <use x="642.626953" xlink:href="#DejaVuSans-53"/>
      <use x="706.25" xlink:href="#DejaVuSans-50"/>
      <use x="769.873047" xlink:href="#DejaVuSans-54"/>
      <use x="833.496094" xlink:href="#DejaVuSans-48"/>
      <use x="897.119141" xlink:href="#DejaVuSans-52"/>
      <use x="960.742188" xlink:href="#DejaVuSans-101"/>
      <use x="1022.265625" xlink:href="#DejaVuSans-8722"/>
      <use x="1106.054688" xlink:href="#DejaVuSans-54"/>
     </g>
    </g>
   </g>
   <g id="line2d_27">
    <path clip-path="url(#p678626cd38)" d="M 61.166636 216.494102 
L 61.906715 216.869827 
L 62.84978 217.463776 
L 64.051503 225.616035 
L 65.582828 288.645584 
L 67.534159 84.734734 
L 70.02069 34.534531 
L 73.189214 290.825447 
L 77.226785 79.381783 
L 82.371762 197.771339 
L 88.927876 137.323685 
L 97.282169 58.136414 
L 107.927835 197.075027 
L 121.493341 68.591133 
L 138.779526 194.253639 
L 160.806879 81.474266 
L 188.875784 251.408417 
L 224.643288 44.894524 
L 270.220923 266.913506 
L 328.299364 71.815109 
" style="fill:none;stroke:#ff7f0e;stroke-linecap:square;stroke-width:1.5;"/>
    <defs>
     <path d="M 0 1.5 
C 0.397805 1.5 0.77937 1.341951 1.06066 1.06066 
C 1.341951 0.77937 1.5 0.397805 1.5 0 
C 1.5 -0.397805 1.341951 -0.77937 1.06066 -1.06066 
C 0.77937 -1.341951 0.397805 -1.5 0 -1.5 
C -0.397805 -1.5 -0.77937 -1.341951 -1.06066 -1.06066 
C -1.341951 -0.77937 -1.5 -0.397805 -1.5 0 
C -1.5 0.397805 -1.341951 0.77937 -1.06066 1.06066 
C -0.77937 1.341951 -0.397805 1.5 0 1.5 
z
" id="m7933621279" style="stroke:#ff7f0e;"/>
    </defs>
    <g clip-path="url(#p678626cd38)">
     <use style="fill:#ff7f0e;stroke:#ff7f0e;" x="61.166636" xlink:href="#m7933621279" y="216.494102"/>
     <use style="fill:#ff7f0e;stroke:#ff7f0e;" x="61.906715" xlink:href="#m7933621279" y="216.869827"/>
     <use style="fill:#ff7f0e;stroke:#ff7f0e;" x="62.84978" xlink:href="#m7933621279" y="217.463776"/>
     <use style="fill:#ff7f0e;stroke:#ff7f0e;" x="64.051503" xlink:href="#m7933621279" y="225.616035"/>
     <use style="fill:#ff7f0e;stroke:#ff7f0e;" x="65.582828" xlink:href="#m7933621279" y="288.645584"/>
     <use style="fill:#ff7f0e;stroke:#ff7f0e;" x="67.534159" xlink:href="#m7933621279" y="84.734734"/>
     <use style="fill:#ff7f0e;stroke:#ff7f0e;" x="70.02069" xlink:href="#m7933621279" y="34.534531"/>
     <use style="fill:#ff7f0e;stroke:#ff7f0e;" x="73.189214" xlink:href="#m7933621279" y="290.825447"/>
     <use style="fill:#ff7f0e;stroke:#ff7f0e;" x="77.226785" xlink:href="#m7933621279" y="79.381783"/>
     <use style="fill:#ff7f0e;stroke:#ff7f0e;" x="82.371762" xlink:href="#m7933621279" y="197.771339"/>
     <use style="fill:#ff7f0e;stroke:#ff7f0e;" x="88.927876" xlink:href="#m7933621279" y="137.323685"/>
     <use style="fill:#ff7f0e;stroke:#ff7f0e;" x="97.282169" xlink:href="#m7933621279" y="58.136414"/>
     <use style="fill:#ff7f0e;stroke:#ff7f0e;" x="107.927835" xlink:href="#m7933621279" y="197.075027"/>
     <use style="fill:#ff7f0e;stroke:#ff7f0e;" x="121.493341" xlink:href="#m7933621279" y="68.591133"/>
     <use style="fill:#ff7f0e;stroke:#ff7f0e;" x="138.779526" xlink:href="#m7933621279" y="194.253639"/>
     <use style="fill:#ff7f0e;stroke:#ff7f0e;" x="160.806879" xlink:href="#m7933621279" y="81.474266"/>
     <use style="fill:#ff7f0e;stroke:#ff7f0e;" x="188.875784" xlink:href="#m7933621279" y="251.408417"/>
     <use style="fill:#ff7f0e;stroke:#ff7f0e;" x="224.643288" xlink:href="#m7933621279" y="44.894524"/>
     <use style="fill:#ff7f0e;stroke:#ff7f0e;" x="270.220923" xlink:href="#m7933621279" y="266.913506"/>
     <use style="fill:#ff7f0e;stroke:#ff7f0e;" x="328.299364" xlink:href="#m7933621279" y="71.815109"/>
    </g>
   </g>
   <g id="patch_11">
    <path d="M 47.81 303.639992 
L 47.81 21.719994 
" style="fill:none;stroke:#000000;stroke-linecap:square;stroke-linejoin:miter;stroke-width:0.8;"/>
   </g>
   <g id="patch_12">
    <path d="M 400.4252 303.639992 
L 400.4252 21.719994 
" style="fill:none;stroke:#000000;stroke-linecap:square;stroke-linejoin:miter;stroke-width:0.8;"/>
   </g>
   <g id="patch_13">
    <path d="M 47.81 303.64 
L 341.656 303.64 
" style="fill:none;stroke:#000000;stroke-linecap:square;stroke-linejoin:miter;stroke-width:0.8;"/>
   </g>
   <g id="patch_14">
    <path d="M 47.81 21.72 
L 341.656 21.72 
" style="fill:none;stroke:#000000;stroke-linecap:square;stroke-linejoin:miter;stroke-width:0.8;"/>
   </g>
  </g>
 </g>
 <defs>
  <clipPath id="p678626cd38">
   <rect height="281.92" width="293.846" x="47.81" y="21.72"/>
  </clipPath>
 </defs>
</svg>
