<?xml version="1.0" encoding="utf-8" standalone="no"?>
<!DOCTYPE svg PUBLIC "-//W3C//DTD SVG 1.1//EN"
  "http://www.w3.org/Graphics/SVG/1.1/DTD/svg11.dtd">
<!-- Created with matplotlib (https://matplotlib.org/) -->
<svg height="345.6pt" version="1.1" viewBox="0 0 460.8 345.6" width="460.8pt" xmlns="http://www.w3.org/2000/svg" xmlns:xlink="http://www.w3.org/1999/xlink">
 <metadata>
  <rdf:RDF xmlns:cc="http://creativecommons.org/ns#" xmlns:dc="http://purl.org/dc/elements/1.1/" xmlns:rdf="http://www.w3.org/1999/02/22-rdf-syntax-ns#">
   <cc:Work>
    <dc:type rdf:resource="http://purl.org/dc/dcmitype/StillImage"/>
    <dc:date>2020-10-07T15:21:15.338697</dc:date>
    <dc:format>image/svg+xml</dc:format>
    <dc:creator>
     <cc:Agent>
      <dc:title>Matplotlib v3.3.2, https://matplotlib.org/</dc:title>
     </cc:Agent>
    </dc:creator>
   </cc:Work>
  </rdf:RDF>
 </metadata>
 <defs>
  <style type="text/css">*{stroke-linecap:butt;stroke-linejoin:round;}</style>
 </defs>
 <g id="figure_1">
  <g id="patch_1">
   <path d="M 0 345.6 
L 460.8 345.6 
L 460.8 0 
L 0 0 
z
" style="fill:#ffffff;"/>
  </g>
  <g id="axes_1">
   <g id="patch_2">
    <path d="M 57.6 307.584 
L 414.72 307.584 
L 414.72 41.472 
L 57.6 41.472 
z
" style="fill:#ffffff;"/>
   </g>
   <g id="matplotlib.axis_1">
    <g id="xtick_1">
     <g id="line2d_1">
      <defs>
       <path d="M 0 0 
L 0 3.5 
" id="m1144806196" style="stroke:#000000;stroke-width:0.8;"/>
      </defs>
      <g>
       <use style="stroke:#000000;stroke-width:0.8;" x="73.832727" xlink:href="#m1144806196" y="307.584"/>
      </g>
     </g>
     <g id="text_1">
      <!-- 0 -->
      <g transform="translate(70.651477 322.182437)scale(0.1 -0.1)">
       <defs>
        <path d="M 31.78125 66.40625 
Q 24.171875 66.40625 20.328125 58.90625 
Q 16.5 51.421875 16.5 36.375 
Q 16.5 21.390625 20.328125 13.890625 
Q 24.171875 6.390625 31.78125 6.390625 
Q 39.453125 6.390625 43.28125 13.890625 
Q 47.125 21.390625 47.125 36.375 
Q 47.125 51.421875 43.28125 58.90625 
Q 39.453125 66.40625 31.78125 66.40625 
z
M 31.78125 74.21875 
Q 44.046875 74.21875 50.515625 64.515625 
Q 56.984375 54.828125 56.984375 36.375 
Q 56.984375 17.96875 50.515625 8.265625 
Q 44.046875 -1.421875 31.78125 -1.421875 
Q 19.53125 -1.421875 13.0625 8.265625 
Q 6.59375 17.96875 6.59375 36.375 
Q 6.59375 54.828125 13.0625 64.515625 
Q 19.53125 74.21875 31.78125 74.21875 
z
" id="DejaVuSans-48"/>
       </defs>
       <use xlink:href="#DejaVuSans-48"/>
      </g>
     </g>
    </g>
    <g id="xtick_2">
     <g id="line2d_2">
      <g>
       <use style="stroke:#000000;stroke-width:0.8;" x="138.828632" xlink:href="#m1144806196" y="307.584"/>
      </g>
     </g>
     <g id="text_2">
      <!-- 20 -->
      <g transform="translate(132.466132 322.182437)scale(0.1 -0.1)">
       <defs>
        <path d="M 19.1875 8.296875 
L 53.609375 8.296875 
L 53.609375 0 
L 7.328125 0 
L 7.328125 8.296875 
Q 12.9375 14.109375 22.625 23.890625 
Q 32.328125 33.6875 34.8125 36.53125 
Q 39.546875 41.84375 41.421875 45.53125 
Q 43.3125 49.21875 43.3125 52.78125 
Q 43.3125 58.59375 39.234375 62.25 
Q 35.15625 65.921875 28.609375 65.921875 
Q 23.96875 65.921875 18.8125 64.3125 
Q 13.671875 62.703125 7.8125 59.421875 
L 7.8125 69.390625 
Q 13.765625 71.78125 18.9375 73 
Q 24.125 74.21875 28.421875 74.21875 
Q 39.75 74.21875 46.484375 68.546875 
Q 53.21875 62.890625 53.21875 53.421875 
Q 53.21875 48.921875 51.53125 44.890625 
Q 49.859375 40.875 45.40625 35.40625 
Q 44.1875 33.984375 37.640625 27.21875 
Q 31.109375 20.453125 19.1875 8.296875 
z
" id="DejaVuSans-50"/>
       </defs>
       <use xlink:href="#DejaVuSans-50"/>
       <use x="63.623047" xlink:href="#DejaVuSans-48"/>
      </g>
     </g>
    </g>
    <g id="xtick_3">
     <g id="line2d_3">
      <g>
       <use style="stroke:#000000;stroke-width:0.8;" x="203.824537" xlink:href="#m1144806196" y="307.584"/>
      </g>
     </g>
     <g id="text_3">
      <!-- 40 -->
      <g transform="translate(197.462037 322.182437)scale(0.1 -0.1)">
       <defs>
        <path d="M 37.796875 64.3125 
L 12.890625 25.390625 
L 37.796875 25.390625 
z
M 35.203125 72.90625 
L 47.609375 72.90625 
L 47.609375 25.390625 
L 58.015625 25.390625 
L 58.015625 17.1875 
L 47.609375 17.1875 
L 47.609375 0 
L 37.796875 0 
L 37.796875 17.1875 
L 4.890625 17.1875 
L 4.890625 26.703125 
z
" id="DejaVuSans-52"/>
       </defs>
       <use xlink:href="#DejaVuSans-52"/>
       <use x="63.623047" xlink:href="#DejaVuSans-48"/>
      </g>
     </g>
    </g>
    <g id="xtick_4">
     <g id="line2d_4">
      <g>
       <use style="stroke:#000000;stroke-width:0.8;" x="268.820442" xlink:href="#m1144806196" y="307.584"/>
      </g>
     </g>
     <g id="text_4">
      <!-- 60 -->
      <g transform="translate(262.457942 322.182437)scale(0.1 -0.1)">
       <defs>
        <path d="M 33.015625 40.375 
Q 26.375 40.375 22.484375 35.828125 
Q 18.609375 31.296875 18.609375 23.390625 
Q 18.609375 15.53125 22.484375 10.953125 
Q 26.375 6.390625 33.015625 6.390625 
Q 39.65625 6.390625 43.53125 10.953125 
Q 47.40625 15.53125 47.40625 23.390625 
Q 47.40625 31.296875 43.53125 35.828125 
Q 39.65625 40.375 33.015625 40.375 
z
M 52.59375 71.296875 
L 52.59375 62.3125 
Q 48.875 64.0625 45.09375 64.984375 
Q 41.3125 65.921875 37.59375 65.921875 
Q 27.828125 65.921875 22.671875 59.328125 
Q 17.53125 52.734375 16.796875 39.40625 
Q 19.671875 43.65625 24.015625 45.921875 
Q 28.375 48.1875 33.59375 48.1875 
Q 44.578125 48.1875 50.953125 41.515625 
Q 57.328125 34.859375 57.328125 23.390625 
Q 57.328125 12.15625 50.6875 5.359375 
Q 44.046875 -1.421875 33.015625 -1.421875 
Q 20.359375 -1.421875 13.671875 8.265625 
Q 6.984375 17.96875 6.984375 36.375 
Q 6.984375 53.65625 15.1875 63.9375 
Q 23.390625 74.21875 37.203125 74.21875 
Q 40.921875 74.21875 44.703125 73.484375 
Q 48.484375 72.75 52.59375 71.296875 
z
" id="DejaVuSans-54"/>
       </defs>
       <use xlink:href="#DejaVuSans-54"/>
       <use x="63.623047" xlink:href="#DejaVuSans-48"/>
      </g>
     </g>
    </g>
    <g id="xtick_5">
     <g id="line2d_5">
      <g>
       <use style="stroke:#000000;stroke-width:0.8;" x="333.816347" xlink:href="#m1144806196" y="307.584"/>
      </g>
     </g>
     <g id="text_5">
      <!-- 80 -->
      <g transform="translate(327.453847 322.182437)scale(0.1 -0.1)">
       <defs>
        <path d="M 31.78125 34.625 
Q 24.75 34.625 20.71875 30.859375 
Q 16.703125 27.09375 16.703125 20.515625 
Q 16.703125 13.921875 20.71875 10.15625 
Q 24.75 6.390625 31.78125 6.390625 
Q 38.8125 6.390625 42.859375 10.171875 
Q 46.921875 13.96875 46.921875 20.515625 
Q 46.921875 27.09375 42.890625 30.859375 
Q 38.875 34.625 31.78125 34.625 
z
M 21.921875 38.8125 
Q 15.578125 40.375 12.03125 44.71875 
Q 8.5 49.078125 8.5 55.328125 
Q 8.5 64.0625 14.71875 69.140625 
Q 20.953125 74.21875 31.78125 74.21875 
Q 42.671875 74.21875 48.875 69.140625 
Q 55.078125 64.0625 55.078125 55.328125 
Q 55.078125 49.078125 51.53125 44.71875 
Q 48 40.375 41.703125 38.8125 
Q 48.828125 37.15625 52.796875 32.3125 
Q 56.78125 27.484375 56.78125 20.515625 
Q 56.78125 9.90625 50.3125 4.234375 
Q 43.84375 -1.421875 31.78125 -1.421875 
Q 19.734375 -1.421875 13.25 4.234375 
Q 6.78125 9.90625 6.78125 20.515625 
Q 6.78125 27.484375 10.78125 32.3125 
Q 14.796875 37.15625 21.921875 38.8125 
z
M 18.3125 54.390625 
Q 18.3125 48.734375 21.84375 45.5625 
Q 25.390625 42.390625 31.78125 42.390625 
Q 38.140625 42.390625 41.71875 45.5625 
Q 45.3125 48.734375 45.3125 54.390625 
Q 45.3125 60.0625 41.71875 63.234375 
Q 38.140625 66.40625 31.78125 66.40625 
Q 25.390625 66.40625 21.84375 63.234375 
Q 18.3125 60.0625 18.3125 54.390625 
z
" id="DejaVuSans-56"/>
       </defs>
       <use xlink:href="#DejaVuSans-56"/>
       <use x="63.623047" xlink:href="#DejaVuSans-48"/>
      </g>
     </g>
    </g>
    <g id="xtick_6">
     <g id="line2d_6">
      <g>
       <use style="stroke:#000000;stroke-width:0.8;" x="398.812252" xlink:href="#m1144806196" y="307.584"/>
      </g>
     </g>
     <g id="text_6">
      <!-- 100 -->
      <g transform="translate(389.268502 322.182437)scale(0.1 -0.1)">
       <defs>
        <path d="M 12.40625 8.296875 
L 28.515625 8.296875 
L 28.515625 63.921875 
L 10.984375 60.40625 
L 10.984375 69.390625 
L 28.421875 72.90625 
L 38.28125 72.90625 
L 38.28125 8.296875 
L 54.390625 8.296875 
L 54.390625 0 
L 12.40625 0 
z
" id="DejaVuSans-49"/>
       </defs>
       <use xlink:href="#DejaVuSans-49"/>
       <use x="63.623047" xlink:href="#DejaVuSans-48"/>
       <use x="127.246094" xlink:href="#DejaVuSans-48"/>
      </g>
     </g>
    </g>
    <g id="text_7">
     <!-- Time (days) -->
     <g transform="translate(206.633437 335.860562)scale(0.1 -0.1)">
      <defs>
       <path d="M -0.296875 72.90625 
L 61.375 72.90625 
L 61.375 64.59375 
L 35.5 64.59375 
L 35.5 0 
L 25.59375 0 
L 25.59375 64.59375 
L -0.296875 64.59375 
z
" id="DejaVuSans-84"/>
       <path d="M 9.421875 54.6875 
L 18.40625 54.6875 
L 18.40625 0 
L 9.421875 0 
z
M 9.421875 75.984375 
L 18.40625 75.984375 
L 18.40625 64.59375 
L 9.421875 64.59375 
z
" id="DejaVuSans-105"/>
       <path d="M 52 44.1875 
Q 55.375 50.25 60.0625 53.125 
Q 64.75 56 71.09375 56 
Q 79.640625 56 84.28125 50.015625 
Q 88.921875 44.046875 88.921875 33.015625 
L 88.921875 0 
L 79.890625 0 
L 79.890625 32.71875 
Q 79.890625 40.578125 77.09375 44.375 
Q 74.3125 48.1875 68.609375 48.1875 
Q 61.625 48.1875 57.5625 43.546875 
Q 53.515625 38.921875 53.515625 30.90625 
L 53.515625 0 
L 44.484375 0 
L 44.484375 32.71875 
Q 44.484375 40.625 41.703125 44.40625 
Q 38.921875 48.1875 33.109375 48.1875 
Q 26.21875 48.1875 22.15625 43.53125 
Q 18.109375 38.875 18.109375 30.90625 
L 18.109375 0 
L 9.078125 0 
L 9.078125 54.6875 
L 18.109375 54.6875 
L 18.109375 46.1875 
Q 21.1875 51.21875 25.484375 53.609375 
Q 29.78125 56 35.6875 56 
Q 41.65625 56 45.828125 52.96875 
Q 50 49.953125 52 44.1875 
z
" id="DejaVuSans-109"/>
       <path d="M 56.203125 29.59375 
L 56.203125 25.203125 
L 14.890625 25.203125 
Q 15.484375 15.921875 20.484375 11.0625 
Q 25.484375 6.203125 34.421875 6.203125 
Q 39.59375 6.203125 44.453125 7.46875 
Q 49.3125 8.734375 54.109375 11.28125 
L 54.109375 2.78125 
Q 49.265625 0.734375 44.1875 -0.34375 
Q 39.109375 -1.421875 33.890625 -1.421875 
Q 20.796875 -1.421875 13.15625 6.1875 
Q 5.515625 13.8125 5.515625 26.8125 
Q 5.515625 40.234375 12.765625 48.109375 
Q 20.015625 56 32.328125 56 
Q 43.359375 56 49.78125 48.890625 
Q 56.203125 41.796875 56.203125 29.59375 
z
M 47.21875 32.234375 
Q 47.125 39.59375 43.09375 43.984375 
Q 39.0625 48.390625 32.421875 48.390625 
Q 24.90625 48.390625 20.390625 44.140625 
Q 15.875 39.890625 15.1875 32.171875 
z
" id="DejaVuSans-101"/>
       <path id="DejaVuSans-32"/>
       <path d="M 31 75.875 
Q 24.46875 64.65625 21.28125 53.65625 
Q 18.109375 42.671875 18.109375 31.390625 
Q 18.109375 20.125 21.3125 9.0625 
Q 24.515625 -2 31 -13.1875 
L 23.1875 -13.1875 
Q 15.875 -1.703125 12.234375 9.375 
Q 8.59375 20.453125 8.59375 31.390625 
Q 8.59375 42.28125 12.203125 53.3125 
Q 15.828125 64.359375 23.1875 75.875 
z
" id="DejaVuSans-40"/>
       <path d="M 45.40625 46.390625 
L 45.40625 75.984375 
L 54.390625 75.984375 
L 54.390625 0 
L 45.40625 0 
L 45.40625 8.203125 
Q 42.578125 3.328125 38.25 0.953125 
Q 33.9375 -1.421875 27.875 -1.421875 
Q 17.96875 -1.421875 11.734375 6.484375 
Q 5.515625 14.40625 5.515625 27.296875 
Q 5.515625 40.1875 11.734375 48.09375 
Q 17.96875 56 27.875 56 
Q 33.9375 56 38.25 53.625 
Q 42.578125 51.265625 45.40625 46.390625 
z
M 14.796875 27.296875 
Q 14.796875 17.390625 18.875 11.75 
Q 22.953125 6.109375 30.078125 6.109375 
Q 37.203125 6.109375 41.296875 11.75 
Q 45.40625 17.390625 45.40625 27.296875 
Q 45.40625 37.203125 41.296875 42.84375 
Q 37.203125 48.484375 30.078125 48.484375 
Q 22.953125 48.484375 18.875 42.84375 
Q 14.796875 37.203125 14.796875 27.296875 
z
" id="DejaVuSans-100"/>
       <path d="M 34.28125 27.484375 
Q 23.390625 27.484375 19.1875 25 
Q 14.984375 22.515625 14.984375 16.5 
Q 14.984375 11.71875 18.140625 8.90625 
Q 21.296875 6.109375 26.703125 6.109375 
Q 34.1875 6.109375 38.703125 11.40625 
Q 43.21875 16.703125 43.21875 25.484375 
L 43.21875 27.484375 
z
M 52.203125 31.203125 
L 52.203125 0 
L 43.21875 0 
L 43.21875 8.296875 
Q 40.140625 3.328125 35.546875 0.953125 
Q 30.953125 -1.421875 24.3125 -1.421875 
Q 15.921875 -1.421875 10.953125 3.296875 
Q 6 8.015625 6 15.921875 
Q 6 25.140625 12.171875 29.828125 
Q 18.359375 34.515625 30.609375 34.515625 
L 43.21875 34.515625 
L 43.21875 35.40625 
Q 43.21875 41.609375 39.140625 45 
Q 35.0625 48.390625 27.6875 48.390625 
Q 23 48.390625 18.546875 47.265625 
Q 14.109375 46.140625 10.015625 43.890625 
L 10.015625 52.203125 
Q 14.9375 54.109375 19.578125 55.046875 
Q 24.21875 56 28.609375 56 
Q 40.484375 56 46.34375 49.84375 
Q 52.203125 43.703125 52.203125 31.203125 
z
" id="DejaVuSans-97"/>
       <path d="M 32.171875 -5.078125 
Q 28.375 -14.84375 24.75 -17.8125 
Q 21.140625 -20.796875 15.09375 -20.796875 
L 7.90625 -20.796875 
L 7.90625 -13.28125 
L 13.1875 -13.28125 
Q 16.890625 -13.28125 18.9375 -11.515625 
Q 21 -9.765625 23.484375 -3.21875 
L 25.09375 0.875 
L 2.984375 54.6875 
L 12.5 54.6875 
L 29.59375 11.921875 
L 46.6875 54.6875 
L 56.203125 54.6875 
z
" id="DejaVuSans-121"/>
       <path d="M 44.28125 53.078125 
L 44.28125 44.578125 
Q 40.484375 46.53125 36.375 47.5 
Q 32.28125 48.484375 27.875 48.484375 
Q 21.1875 48.484375 17.84375 46.4375 
Q 14.5 44.390625 14.5 40.28125 
Q 14.5 37.15625 16.890625 35.375 
Q 19.28125 33.59375 26.515625 31.984375 
L 29.59375 31.296875 
Q 39.15625 29.25 43.1875 25.515625 
Q 47.21875 21.78125 47.21875 15.09375 
Q 47.21875 7.46875 41.1875 3.015625 
Q 35.15625 -1.421875 24.609375 -1.421875 
Q 20.21875 -1.421875 15.453125 -0.5625 
Q 10.6875 0.296875 5.421875 2 
L 5.421875 11.28125 
Q 10.40625 8.6875 15.234375 7.390625 
Q 20.0625 6.109375 24.8125 6.109375 
Q 31.15625 6.109375 34.5625 8.28125 
Q 37.984375 10.453125 37.984375 14.40625 
Q 37.984375 18.0625 35.515625 20.015625 
Q 33.0625 21.96875 24.703125 23.78125 
L 21.578125 24.515625 
Q 13.234375 26.265625 9.515625 29.90625 
Q 5.8125 33.546875 5.8125 39.890625 
Q 5.8125 47.609375 11.28125 51.796875 
Q 16.75 56 26.8125 56 
Q 31.78125 56 36.171875 55.265625 
Q 40.578125 54.546875 44.28125 53.078125 
z
" id="DejaVuSans-115"/>
       <path d="M 8.015625 75.875 
L 15.828125 75.875 
Q 23.140625 64.359375 26.78125 53.3125 
Q 30.421875 42.28125 30.421875 31.390625 
Q 30.421875 20.453125 26.78125 9.375 
Q 23.140625 -1.703125 15.828125 -13.1875 
L 8.015625 -13.1875 
Q 14.5 -2 17.703125 9.0625 
Q 20.90625 20.125 20.90625 31.390625 
Q 20.90625 42.671875 17.703125 53.65625 
Q 14.5 64.65625 8.015625 75.875 
z
" id="DejaVuSans-41"/>
      </defs>
      <use xlink:href="#DejaVuSans-84"/>
      <use x="57.958984" xlink:href="#DejaVuSans-105"/>
      <use x="85.742188" xlink:href="#DejaVuSans-109"/>
      <use x="183.154297" xlink:href="#DejaVuSans-101"/>
      <use x="244.677734" xlink:href="#DejaVuSans-32"/>
      <use x="276.464844" xlink:href="#DejaVuSans-40"/>
      <use x="315.478516" xlink:href="#DejaVuSans-100"/>
      <use x="378.955078" xlink:href="#DejaVuSans-97"/>
      <use x="440.234375" xlink:href="#DejaVuSans-121"/>
      <use x="499.414062" xlink:href="#DejaVuSans-115"/>
      <use x="551.513672" xlink:href="#DejaVuSans-41"/>
     </g>
    </g>
   </g>
   <g id="matplotlib.axis_2">
    <g id="ytick_1">
     <g id="line2d_7">
      <defs>
       <path d="M 0 0 
L -3.5 0 
" id="mefd7e8afd5" style="stroke:#000000;stroke-width:0.8;"/>
      </defs>
      <g>
       <use style="stroke:#000000;stroke-width:0.8;" x="57.6" xlink:href="#mefd7e8afd5" y="286.844659"/>
      </g>
     </g>
     <g id="text_8">
      <!-- 0 -->
      <g transform="translate(44.2375 290.643878)scale(0.1 -0.1)">
       <use xlink:href="#DejaVuSans-48"/>
      </g>
     </g>
    </g>
    <g id="ytick_2">
     <g id="line2d_8">
      <g>
       <use style="stroke:#000000;stroke-width:0.8;" x="57.6" xlink:href="#mefd7e8afd5" y="247.225063"/>
      </g>
     </g>
     <g id="text_9">
      <!-- 500 -->
      <g transform="translate(31.5125 251.024281)scale(0.1 -0.1)">
       <defs>
        <path d="M 10.796875 72.90625 
L 49.515625 72.90625 
L 49.515625 64.59375 
L 19.828125 64.59375 
L 19.828125 46.734375 
Q 21.96875 47.46875 24.109375 47.828125 
Q 26.265625 48.1875 28.421875 48.1875 
Q 40.625 48.1875 47.75 41.5 
Q 54.890625 34.8125 54.890625 23.390625 
Q 54.890625 11.625 47.5625 5.09375 
Q 40.234375 -1.421875 26.90625 -1.421875 
Q 22.3125 -1.421875 17.546875 -0.640625 
Q 12.796875 0.140625 7.71875 1.703125 
L 7.71875 11.625 
Q 12.109375 9.234375 16.796875 8.0625 
Q 21.484375 6.890625 26.703125 6.890625 
Q 35.15625 6.890625 40.078125 11.328125 
Q 45.015625 15.765625 45.015625 23.390625 
Q 45.015625 31 40.078125 35.4375 
Q 35.15625 39.890625 26.703125 39.890625 
Q 22.75 39.890625 18.8125 39.015625 
Q 14.890625 38.140625 10.796875 36.28125 
z
" id="DejaVuSans-53"/>
       </defs>
       <use xlink:href="#DejaVuSans-53"/>
       <use x="63.623047" xlink:href="#DejaVuSans-48"/>
       <use x="127.246094" xlink:href="#DejaVuSans-48"/>
      </g>
     </g>
    </g>
    <g id="ytick_3">
     <g id="line2d_9">
      <g>
       <use style="stroke:#000000;stroke-width:0.8;" x="57.6" xlink:href="#mefd7e8afd5" y="207.605466"/>
      </g>
     </g>
     <g id="text_10">
      <!-- 1000 -->
      <g transform="translate(25.15 211.404685)scale(0.1 -0.1)">
       <use xlink:href="#DejaVuSans-49"/>
       <use x="63.623047" xlink:href="#DejaVuSans-48"/>
       <use x="127.246094" xlink:href="#DejaVuSans-48"/>
       <use x="190.869141" xlink:href="#DejaVuSans-48"/>
      </g>
     </g>
    </g>
    <g id="ytick_4">
     <g id="line2d_10">
      <g>
       <use style="stroke:#000000;stroke-width:0.8;" x="57.6" xlink:href="#mefd7e8afd5" y="167.985869"/>
      </g>
     </g>
     <g id="text_11">
      <!-- 1500 -->
      <g transform="translate(25.15 171.785088)scale(0.1 -0.1)">
       <use xlink:href="#DejaVuSans-49"/>
       <use x="63.623047" xlink:href="#DejaVuSans-53"/>
       <use x="127.246094" xlink:href="#DejaVuSans-48"/>
       <use x="190.869141" xlink:href="#DejaVuSans-48"/>
      </g>
     </g>
    </g>
    <g id="ytick_5">
     <g id="line2d_11">
      <g>
       <use style="stroke:#000000;stroke-width:0.8;" x="57.6" xlink:href="#mefd7e8afd5" y="128.366272"/>
      </g>
     </g>
     <g id="text_12">
      <!-- 2000 -->
      <g transform="translate(25.15 132.165491)scale(0.1 -0.1)">
       <use xlink:href="#DejaVuSans-50"/>
       <use x="63.623047" xlink:href="#DejaVuSans-48"/>
       <use x="127.246094" xlink:href="#DejaVuSans-48"/>
       <use x="190.869141" xlink:href="#DejaVuSans-48"/>
      </g>
     </g>
    </g>
    <g id="ytick_6">
     <g id="line2d_12">
      <g>
       <use style="stroke:#000000;stroke-width:0.8;" x="57.6" xlink:href="#mefd7e8afd5" y="88.746675"/>
      </g>
     </g>
     <g id="text_13">
      <!-- 2500 -->
      <g transform="translate(25.15 92.545894)scale(0.1 -0.1)">
       <use xlink:href="#DejaVuSans-50"/>
       <use x="63.623047" xlink:href="#DejaVuSans-53"/>
       <use x="127.246094" xlink:href="#DejaVuSans-48"/>
       <use x="190.869141" xlink:href="#DejaVuSans-48"/>
      </g>
     </g>
    </g>
    <g id="ytick_7">
     <g id="line2d_13">
      <g>
       <use style="stroke:#000000;stroke-width:0.8;" x="57.6" xlink:href="#mefd7e8afd5" y="49.127079"/>
      </g>
     </g>
     <g id="text_14">
      <!-- 3000 -->
      <g transform="translate(25.15 52.926297)scale(0.1 -0.1)">
       <defs>
        <path d="M 40.578125 39.3125 
Q 47.65625 37.796875 51.625 33 
Q 55.609375 28.21875 55.609375 21.1875 
Q 55.609375 10.40625 48.1875 4.484375 
Q 40.765625 -1.421875 27.09375 -1.421875 
Q 22.515625 -1.421875 17.65625 -0.515625 
Q 12.796875 0.390625 7.625 2.203125 
L 7.625 11.71875 
Q 11.71875 9.328125 16.59375 8.109375 
Q 21.484375 6.890625 26.8125 6.890625 
Q 36.078125 6.890625 40.9375 10.546875 
Q 45.796875 14.203125 45.796875 21.1875 
Q 45.796875 27.640625 41.28125 31.265625 
Q 36.765625 34.90625 28.71875 34.90625 
L 20.21875 34.90625 
L 20.21875 43.015625 
L 29.109375 43.015625 
Q 36.375 43.015625 40.234375 45.921875 
Q 44.09375 48.828125 44.09375 54.296875 
Q 44.09375 59.90625 40.109375 62.90625 
Q 36.140625 65.921875 28.71875 65.921875 
Q 24.65625 65.921875 20.015625 65.03125 
Q 15.375 64.15625 9.8125 62.3125 
L 9.8125 71.09375 
Q 15.4375 72.65625 20.34375 73.4375 
Q 25.25 74.21875 29.59375 74.21875 
Q 40.828125 74.21875 47.359375 69.109375 
Q 53.90625 64.015625 53.90625 55.328125 
Q 53.90625 49.265625 50.4375 45.09375 
Q 46.96875 40.921875 40.578125 39.3125 
z
" id="DejaVuSans-51"/>
       </defs>
       <use xlink:href="#DejaVuSans-51"/>
       <use x="63.623047" xlink:href="#DejaVuSans-48"/>
       <use x="127.246094" xlink:href="#DejaVuSans-48"/>
       <use x="190.869141" xlink:href="#DejaVuSans-48"/>
      </g>
     </g>
    </g>
    <g id="text_15">
     <!-- Density -->
     <g transform="translate(19.070312 193.536594)rotate(-90)scale(0.1 -0.1)">
      <defs>
       <path d="M 19.671875 64.796875 
L 19.671875 8.109375 
L 31.59375 8.109375 
Q 46.6875 8.109375 53.6875 14.9375 
Q 60.6875 21.78125 60.6875 36.53125 
Q 60.6875 51.171875 53.6875 57.984375 
Q 46.6875 64.796875 31.59375 64.796875 
z
M 9.8125 72.90625 
L 30.078125 72.90625 
Q 51.265625 72.90625 61.171875 64.09375 
Q 71.09375 55.28125 71.09375 36.53125 
Q 71.09375 17.671875 61.125 8.828125 
Q 51.171875 0 30.078125 0 
L 9.8125 0 
z
" id="DejaVuSans-68"/>
       <path d="M 54.890625 33.015625 
L 54.890625 0 
L 45.90625 0 
L 45.90625 32.71875 
Q 45.90625 40.484375 42.875 44.328125 
Q 39.84375 48.1875 33.796875 48.1875 
Q 26.515625 48.1875 22.3125 43.546875 
Q 18.109375 38.921875 18.109375 30.90625 
L 18.109375 0 
L 9.078125 0 
L 9.078125 54.6875 
L 18.109375 54.6875 
L 18.109375 46.1875 
Q 21.34375 51.125 25.703125 53.5625 
Q 30.078125 56 35.796875 56 
Q 45.21875 56 50.046875 50.171875 
Q 54.890625 44.34375 54.890625 33.015625 
z
" id="DejaVuSans-110"/>
       <path d="M 18.3125 70.21875 
L 18.3125 54.6875 
L 36.8125 54.6875 
L 36.8125 47.703125 
L 18.3125 47.703125 
L 18.3125 18.015625 
Q 18.3125 11.328125 20.140625 9.421875 
Q 21.96875 7.515625 27.59375 7.515625 
L 36.8125 7.515625 
L 36.8125 0 
L 27.59375 0 
Q 17.1875 0 13.234375 3.875 
Q 9.28125 7.765625 9.28125 18.015625 
L 9.28125 47.703125 
L 2.6875 47.703125 
L 2.6875 54.6875 
L 9.28125 54.6875 
L 9.28125 70.21875 
z
" id="DejaVuSans-116"/>
      </defs>
      <use xlink:href="#DejaVuSans-68"/>
      <use x="77.001953" xlink:href="#DejaVuSans-101"/>
      <use x="138.525391" xlink:href="#DejaVuSans-110"/>
      <use x="201.904297" xlink:href="#DejaVuSans-115"/>
      <use x="254.003906" xlink:href="#DejaVuSans-105"/>
      <use x="281.787109" xlink:href="#DejaVuSans-116"/>
      <use x="320.996094" xlink:href="#DejaVuSans-121"/>
     </g>
    </g>
   </g>
   <g id="line2d_14">
    <path clip-path="url(#pf7e359a5ed)" d="M 73.832727 286.052267 
L 74.482686 285.600079 
L 75.132645 284.865826 
L 75.782604 283.692574 
L 76.432563 281.778318 
L 77.082523 278.733301 
L 77.732482 274.108413 
L 78.382441 266.409617 
L 79.0324 255.629929 
L 80.007338 232.959478 
L 80.982277 206.120789 
L 81.632236 186.318835 
L 82.607174 145.384649 
L 83.582113 108.313019 
L 83.907093 87.795408 
L 84.232072 97.842369 
L 84.557052 97.397562 
L 84.882031 80.926842 
L 85.207011 79.484803 
L 85.85697 65.771391 
L 86.181949 93.744638 
L 86.831908 76.15894 
L 87.156888 64.126586 
L 87.481867 81.176135 
L 87.806847 133.156539 
L 88.131826 124.21979 
L 88.781785 113.291562 
L 89.106765 122.547753 
L 89.756724 108.659809 
L 90.081704 99.646284 
L 90.406683 122.145082 
L 90.731663 124.414432 
L 91.056642 119.903487 
L 91.381622 132.161089 
L 91.706601 118.696687 
L 92.031581 118.240872 
L 92.35656 109.857061 
L 92.68154 104.694797 
L 93.006519 116.100167 
L 93.331499 118.007538 
L 93.656478 116.700672 
L 93.981458 95.353837 
L 94.306437 110.82301 
L 94.631417 113.69071 
L 94.956396 104.076565 
L 95.281376 90.819429 
L 95.606355 85.255961 
L 95.931335 75.945597 
L 96.581294 85.384982 
L 96.906274 118.087965 
L 97.231253 103.4051 
L 97.556233 100.273077 
L 97.881212 103.745295 
L 98.206192 116.448913 
L 98.531171 107.909431 
L 98.856151 106.193607 
L 99.18113 121.694205 
L 99.831089 96.87897 
L 100.156069 130.486309 
L 100.481048 111.880748 
L 100.806028 112.493573 
L 101.131007 116.899224 
L 101.455987 124.22925 
L 102.105946 105.681724 
L 102.430925 108.730766 
L 102.755905 119.981249 
L 103.080885 136.684807 
L 103.405864 138.60784 
L 103.730844 142.192652 
L 104.380803 113.40083 
L 104.705782 114.629667 
L 105.030762 113.903266 
L 105.355741 96.140247 
L 105.680721 87.041601 
L 106.33068 82.932161 
L 106.655659 104.398582 
L 106.980639 113.289526 
L 107.305618 109.854636 
L 107.630598 96.526102 
L 107.955577 98.205646 
L 108.280557 135.121037 
L 108.605536 120.193355 
L 108.930516 117.73346 
L 109.255495 110.114243 
L 109.580475 108.341105 
L 109.905455 114.463029 
L 110.230434 100.819996 
L 110.555414 105.305836 
L 110.880393 98.785459 
L 111.205373 106.069079 
L 111.530352 105.87282 
L 111.855332 88.899942 
L 112.505291 117.761079 
L 112.83027 114.534749 
L 113.15525 99.404742 
L 113.480229 102.562121 
L 113.805209 101.141755 
L 114.130188 101.641215 
L 114.455168 108.470168 
L 115.105127 100.536819 
L 115.430106 110.142594 
L 115.755086 94.397349 
L 116.080066 96.486351 
L 116.405045 108.043547 
L 116.730025 112.337729 
L 117.055004 111.675823 
L 117.704963 104.135585 
L 118.029943 96.96286 
L 118.354922 93.859736 
L 118.679902 102.48936 
L 119.329861 99.524248 
L 119.97982 81.009088 
L 120.629779 100.668608 
L 120.954758 99.043558 
L 121.279738 130.308703 
L 121.604717 130.380868 
L 121.929697 126.577043 
L 122.254676 129.276379 
L 122.579656 141.402731 
L 122.904636 122.253976 
L 123.229615 117.561226 
L 123.554595 103.57359 
L 123.879574 107.252389 
L 124.204554 102.820237 
L 124.529533 92.47154 
L 125.179492 123.64775 
L 125.504472 121.328336 
L 126.154431 97.322097 
L 126.47941 102.025634 
L 126.80439 98.877392 
L 127.129369 92.9994 
L 127.454349 95.764609 
L 127.779328 93.639926 
L 128.104308 96.151349 
L 128.754267 109.853434 
L 129.079247 103.872234 
L 129.404226 100.615582 
L 129.729206 109.430505 
L 130.054185 127.269448 
L 130.379165 128.32158 
L 131.029124 104.596976 
L 131.354103 100.537615 
L 131.679083 114.752238 
L 132.004062 99.171687 
L 132.329042 93.148002 
L 132.654021 89.444268 
L 132.979001 90.869874 
L 133.30398 89.042984 
L 133.62896 90.673178 
L 133.953939 105.704842 
L 134.278919 99.37202 
L 134.603898 106.681777 
L 134.928878 127.275683 
L 135.253857 128.963371 
L 135.578837 116.63132 
L 135.903817 126.785581 
L 136.228796 108.768763 
L 136.553776 114.505429 
L 136.878755 94.724677 
L 137.203735 108.099598 
L 137.528714 113.839494 
L 137.853694 108.930776 
L 138.178673 107.303763 
L 138.503653 112.287194 
L 138.828632 98.903849 
L 139.153612 106.952032 
L 139.478591 96.308861 
L 139.803571 94.168907 
L 140.12855 96.059056 
L 140.45353 108.724519 
L 140.778509 96.103125 
L 141.103489 88.963704 
L 141.428468 89.327517 
L 141.753448 84.569424 
L 142.078428 83.688295 
L 142.403407 76.772788 
L 142.728387 101.385949 
L 143.053366 106.265881 
L 143.378346 106.458953 
L 144.028305 123.609293 
L 144.353284 122.95613 
L 144.678264 131.750191 
L 145.003243 125.849569 
L 145.328223 127.845022 
L 145.653202 143.768217 
L 146.303161 121.049969 
L 146.628141 107.574506 
L 147.2781 114.905745 
L 147.603079 112.45319 
L 147.928059 116.280306 
L 148.253038 116.854718 
L 148.578018 113.876935 
L 148.902998 118.188506 
L 149.227977 101.570901 
L 149.552957 108.185361 
L 150.202916 89.827495 
L 151.177854 75.432915 
L 151.827813 53.568 
L 152.152793 70.93183 
L 152.477772 73.778892 
L 152.802752 96.616117 
L 153.127731 92.243396 
L 153.77769 111.83059 
L 154.10267 109.350757 
L 154.427649 110.923108 
L 155.077609 88.134407 
L 155.402588 120.277857 
L 155.727568 101.786656 
L 156.052547 106.634555 
L 156.377527 101.584603 
L 156.702506 107.732193 
L 157.027486 126.771195 
L 157.352465 123.070165 
L 158.002424 99.249216 
L 158.327404 100.611396 
L 158.652383 108.920282 
L 158.977363 96.926963 
L 159.302342 102.340154 
L 159.627322 77.195719 
L 159.952301 83.415696 
L 160.277281 85.615435 
L 160.60226 86.399884 
L 160.92724 100.679515 
L 161.252219 100.4967 
L 161.577199 97.802952 
L 161.902179 97.895234 
L 162.227158 85.623591 
L 162.552138 95.212276 
L 162.877117 113.268004 
L 163.202097 95.6255 
L 163.527076 92.244045 
L 163.852056 98.33375 
L 164.502015 117.96957 
L 165.151974 97.35315 
L 165.476953 117.239338 
L 165.801933 118.659256 
L 166.126912 116.098838 
L 166.776871 101.529083 
L 167.101851 102.810969 
L 167.42683 121.762138 
L 167.75181 112.026495 
L 168.401769 122.640945 
L 169.051728 104.310181 
L 169.376708 103.817607 
L 169.701687 95.641974 
L 170.026667 103.173956 
L 170.351646 99.107688 
L 170.676626 115.301811 
L 171.001605 119.004964 
L 171.326585 104.781145 
L 171.651564 135.188463 
L 171.976544 123.482041 
L 172.301523 131.418778 
L 172.626503 117.494153 
L 172.951482 119.481122 
L 173.276462 111.337423 
L 173.601441 114.323915 
L 173.926421 111.45817 
L 174.2514 113.372906 
L 174.57638 111.578383 
L 174.90136 100.92639 
L 175.226339 111.124996 
L 175.876298 89.264004 
L 176.201278 96.995162 
L 176.526257 92.062982 
L 176.851237 92.435143 
L 177.176216 95.94279 
L 177.501196 91.047831 
L 177.826175 127.944384 
L 178.151155 125.735724 
L 178.476134 106.554002 
L 178.801114 115.872783 
L 179.451073 104.750688 
L 179.776052 109.674391 
L 180.101032 128.62374 
L 180.426011 114.270811 
L 180.750991 113.051419 
L 181.075971 107.582054 
L 181.72593 93.11045 
L 182.050909 95.017807 
L 182.700868 114.640769 
L 183.025848 113.982625 
L 183.350827 111.373375 
L 183.675807 97.447183 
L 184.000786 100.764754 
L 184.325766 100.190176 
L 184.650745 131.066201 
L 184.975725 104.183487 
L 185.300704 110.477593 
L 185.625684 96.817814 
L 185.950663 88.348086 
L 186.275643 83.965545 
L 186.600622 91.31185 
L 186.925602 92.086439 
L 187.250581 84.817179 
L 187.900541 105.153169 
L 188.22552 126.017204 
L 188.875479 97.983522 
L 189.200459 106.973029 
L 189.525438 92.938572 
L 189.850418 105.926139 
L 190.175397 110.596818 
L 190.500377 108.388024 
L 190.825356 118.813836 
L 191.150336 119.786966 
L 191.475315 103.187188 
L 191.800295 106.010265 
L 192.125274 95.963078 
L 192.450254 91.160835 
L 192.775233 83.80736 
L 193.100213 90.491717 
L 193.750172 76.856373 
L 194.075152 75.188445 
L 194.400131 82.215386 
L 194.725111 74.581915 
L 195.37507 72.452789 
L 195.700049 75.063843 
L 196.025029 75.175505 
L 196.350008 78.893124 
L 196.674988 85.058737 
L 196.999967 82.381715 
L 197.649926 102.308659 
L 197.974906 106.742896 
L 198.624865 81.381448 
L 198.949844 73.827423 
L 199.274824 62.114748 
L 199.599803 71.037758 
L 199.924783 69.336115 
L 200.249762 89.236337 
L 200.899722 86.97706 
L 201.224701 91.828095 
L 201.549681 86.199924 
L 201.87466 103.490577 
L 202.19964 104.832451 
L 202.524619 89.46612 
L 202.849599 101.606437 
L 203.174578 99.477521 
L 203.499558 88.864507 
L 203.824537 88.645261 
L 204.149517 84.286189 
L 204.474496 72.445018 
L 204.799476 84.211702 
L 205.124455 87.338083 
L 205.449435 110.536729 
L 205.774414 108.847184 
L 206.099394 113.494555 
L 206.749353 90.445535 
L 207.074333 99.777829 
L 207.724292 84.949458 
L 208.049271 88.302168 
L 208.374251 88.758032 
L 208.69923 77.739335 
L 209.02421 74.296676 
L 209.349189 76.554556 
L 209.674169 85.358436 
L 209.999148 98.2071 
L 210.324128 101.427891 
L 210.649107 108.298133 
L 210.974087 89.669045 
L 211.299066 97.717795 
L 211.624046 98.097137 
L 211.949025 94.411097 
L 212.274005 76.749077 
L 212.923964 86.109696 
L 213.573923 107.040027 
L 214.223882 93.150023 
L 214.548862 92.684439 
L 214.873841 82.294693 
L 215.5238 68.298623 
L 215.84878 95.680445 
L 216.498739 100.499284 
L 216.823718 89.413604 
L 217.148698 120.505106 
L 217.473677 116.682394 
L 217.798657 103.68358 
L 218.123636 98.994337 
L 218.448616 91.149651 
L 218.773595 108.280122 
L 219.098575 114.388959 
L 219.423554 130.18446 
L 220.073514 120.694167 
L 220.398493 126.127582 
L 220.723473 111.970924 
L 221.048452 118.604981 
L 221.373432 118.536255 
L 222.34837 95.372092 
L 222.67335 79.116306 
L 222.998329 85.41199 
L 223.323309 69.691305 
L 223.648288 78.889143 
L 223.973268 79.158864 
L 224.298247 115.84884 
L 224.948206 88.700018 
L 225.273186 79.04913 
L 225.598165 88.181125 
L 226.248124 114.952598 
L 226.573104 104.310019 
L 226.898084 111.863045 
L 227.223063 112.651447 
L 227.548043 108.921386 
L 228.198002 82.314157 
L 228.522981 87.412928 
L 228.847961 77.333669 
L 229.17294 118.686705 
L 229.49792 123.093204 
L 229.822899 113.738922 
L 230.147879 127.064315 
L 230.472858 114.798601 
L 230.797838 114.456561 
L 231.122817 118.063507 
L 231.447797 105.766041 
L 231.772776 109.467435 
L 232.097756 96.173244 
L 232.422735 106.667112 
L 232.747715 105.569234 
L 233.072695 122.559598 
L 233.397674 117.962573 
L 233.722654 117.061039 
L 234.047633 122.785393 
L 234.372613 111.017571 
L 234.697592 105.534331 
L 235.022572 91.678862 
L 235.347551 86.542308 
L 235.99751 102.233612 
L 236.32249 106.239476 
L 236.647469 102.999256 
L 236.972449 95.453684 
L 237.297428 110.270462 
L 237.622408 97.254541 
L 237.947387 97.825025 
L 238.272367 96.512238 
L 238.597346 102.55762 
L 238.922326 100.443606 
L 239.247305 95.89725 
L 239.572285 105.443327 
L 239.897265 100.372228 
L 240.222244 99.415 
L 240.547224 113.3933 
L 240.872203 111.35427 
L 241.197183 122.912446 
L 241.847142 110.309264 
L 242.172121 103.073387 
L 242.497101 101.645923 
L 242.82208 113.883198 
L 243.14706 99.563449 
L 243.472039 96.569866 
L 243.797019 95.780486 
L 244.446978 75.094615 
L 244.771957 82.188313 
L 245.096937 96.914749 
L 245.421916 93.377429 
L 245.746896 79.057358 
L 246.396855 100.183521 
L 246.721835 89.869638 
L 247.046814 96.97833 
L 247.371794 101.011867 
L 247.696773 116.044746 
L 248.021753 110.804012 
L 248.671712 117.115188 
L 248.996691 117.923014 
L 249.321671 122.006458 
L 249.97163 109.113211 
L 250.621589 106.438313 
L 250.946568 136.028601 
L 251.271548 150.183078 
L 251.596527 145.625032 
L 251.921507 125.445272 
L 252.246486 115.918844 
L 252.571466 114.296092 
L 252.896446 113.413965 
L 253.221425 108.921005 
L 253.546405 109.072713 
L 253.871384 105.096808 
L 254.196364 107.923713 
L 254.846323 89.024598 
L 255.171302 103.483929 
L 255.496282 128.130842 
L 255.821261 118.21168 
L 256.146241 102.013675 
L 256.47122 96.084689 
L 256.7962 148.653585 
L 257.121179 147.177384 
L 257.446159 132.096927 
L 257.771138 123.803785 
L 258.096118 118.656443 
L 258.421097 98.881746 
L 258.746077 92.494606 
L 259.071057 89.457339 
L 259.396036 110.532379 
L 260.045995 103.428312 
L 260.370975 99.94438 
L 260.695954 92.421869 
L 261.020934 96.747746 
L 261.345913 98.966667 
L 261.670893 99.265892 
L 261.995872 113.650551 
L 262.320852 105.321729 
L 262.645831 103.10354 
L 262.970811 108.316169 
L 263.29579 116.536257 
L 263.62077 97.345842 
L 263.945749 104.996942 
L 264.270729 129.099581 
L 264.595708 115.020339 
L 264.920688 109.161922 
L 265.245667 95.141167 
L 265.570647 111.484722 
L 265.895627 101.535128 
L 266.220606 100.764457 
L 266.545586 91.08142 
L 266.870565 90.252907 
L 267.520524 102.824953 
L 267.845504 102.88699 
L 268.170483 85.171224 
L 268.495463 103.906443 
L 268.820442 95.266803 
L 269.145422 100.96896 
L 269.470401 97.715888 
L 269.795381 113.94261 
L 270.12036 122.071871 
L 270.44534 133.564799 
L 270.770319 140.155162 
L 271.095299 134.662772 
L 271.745258 103.98695 
L 272.070238 108.090901 
L 272.395217 103.111179 
L 272.720197 104.882475 
L 273.045176 99.46969 
L 273.370156 105.934707 
L 273.695135 98.368129 
L 274.020115 94.405314 
L 274.345094 95.705313 
L 274.670074 104.083531 
L 274.995053 106.988125 
L 275.320033 102.620158 
L 275.645012 90.303056 
L 275.969992 95.145362 
L 276.294971 96.318675 
L 276.619951 122.636281 
L 276.94493 124.775497 
L 277.26991 113.706362 
L 277.594889 92.267751 
L 277.919869 81.322605 
L 278.244848 98.919471 
L 278.569828 92.286712 
L 278.894808 125.375009 
L 279.219787 129.238509 
L 279.544767 111.868339 
L 279.869746 110.886397 
L 280.194726 106.064733 
L 280.519705 110.378785 
L 280.844685 105.223744 
L 281.169664 103.423471 
L 281.494644 95.322902 
L 281.819623 95.184912 
L 282.469582 80.935926 
L 282.794562 84.297064 
L 283.119541 80.434053 
L 283.444521 70.887702 
L 283.7695 101.210462 
L 284.09448 98.101323 
L 284.419459 72.581986 
L 284.744439 67.942885 
L 285.069419 69.567076 
L 285.394398 75.653916 
L 285.719378 73.185127 
L 286.044357 91.070116 
L 286.369337 97.847613 
L 286.694316 86.22167 
L 287.019296 91.682962 
L 287.669255 126.790876 
L 288.969173 77.040021 
L 289.294152 74.016381 
L 289.619132 81.587686 
L 289.944111 79.553524 
L 290.269091 74.564956 
L 290.59407 120.526076 
L 290.91905 111.653918 
L 291.244029 108.562698 
L 291.569009 120.420309 
L 291.893989 125.723807 
L 292.218968 121.703132 
L 292.543948 113.471891 
L 292.868927 113.755166 
L 293.193907 125.315743 
L 293.518886 132.758432 
L 293.843866 136.10958 
L 294.168845 129.659686 
L 294.493825 117.413715 
L 294.818804 112.784782 
L 295.143784 95.699077 
L 295.468763 93.445974 
L 295.793743 100.301981 
L 296.118722 98.587414 
L 296.443702 104.520028 
L 296.768681 95.218214 
L 297.093661 90.135785 
L 297.41864 111.159494 
L 297.74362 110.164389 
L 298.0686 98.683407 
L 298.718559 113.662757 
L 299.043538 111.202014 
L 299.368518 113.150025 
L 299.693497 111.382177 
L 300.018477 106.451591 
L 300.343456 104.148853 
L 300.668436 94.957282 
L 300.993415 82.279378 
L 301.318395 114.740391 
L 301.643374 105.012971 
L 301.968354 110.505948 
L 302.618313 104.018806 
L 302.943292 115.984833 
L 303.268272 117.190444 
L 303.593251 124.397013 
L 303.918231 124.609583 
L 304.24321 107.956198 
L 304.56819 120.106481 
L 304.89317 107.19053 
L 305.218149 103.554917 
L 306.193088 120.233005 
L 306.843047 155.598113 
L 307.168026 147.026427 
L 307.493006 133.243174 
L 308.142965 127.006189 
L 308.467944 120.657503 
L 308.792924 119.95214 
L 309.117903 115.865972 
L 309.442883 114.582945 
L 309.767862 120.56245 
L 310.092842 118.61303 
L 310.417821 124.037898 
L 310.742801 124.758029 
L 311.067781 116.007183 
L 311.39276 126.695804 
L 311.71774 122.695437 
L 312.042719 121.119759 
L 312.367699 109.119116 
L 313.017658 123.112669 
L 313.342637 120.825629 
L 313.667617 106.511853 
L 313.992596 103.714674 
L 314.317576 95.777897 
L 314.642555 90.979851 
L 314.967535 103.956228 
L 315.292514 90.165612 
L 315.942473 107.111056 
L 316.267453 106.681853 
L 316.592432 108.826339 
L 316.917412 92.367283 
L 317.242391 105.475936 
L 317.567371 88.193169 
L 317.892351 102.4874 
L 318.21733 103.162765 
L 318.54231 92.787212 
L 318.867289 155.54081 
L 319.192269 148.006665 
L 319.517248 143.40332 
L 319.842228 133.789501 
L 320.167207 118.061758 
L 320.492187 114.830589 
L 320.817166 95.633749 
L 321.142146 89.503347 
L 321.467125 81.145504 
L 322.442064 100.344572 
L 322.767043 84.978515 
L 323.092023 79.408688 
L 323.417002 101.111647 
L 323.741982 105.996388 
L 324.066962 104.222391 
L 324.391941 100.736162 
L 324.716921 101.641928 
L 325.0419 93.727233 
L 325.36688 76.59321 
L 325.691859 94.623121 
L 326.016839 87.952685 
L 326.341818 87.870489 
L 326.666798 81.140959 
L 326.991777 95.444756 
L 327.316757 83.444466 
L 327.966716 102.807177 
L 328.291695 89.824276 
L 328.616675 102.198901 
L 328.941654 104.007637 
L 329.266634 103.384645 
L 329.591613 104.120589 
L 329.916593 115.039214 
L 330.566552 87.511759 
L 330.891532 97.167321 
L 331.216511 82.016305 
L 331.541491 99.896485 
L 331.86647 104.204845 
L 332.19145 102.935669 
L 332.516429 103.493124 
L 332.841409 125.532417 
L 333.166388 129.111597 
L 333.816347 108.701357 
L 334.141327 111.930368 
L 334.466306 105.64632 
L 334.791286 106.102887 
L 335.116265 93.598181 
L 335.766224 115.093254 
L 336.091204 120.251251 
L 336.416183 123.270963 
L 336.741163 102.478259 
L 337.066143 105.343658 
L 337.391122 115.705144 
L 337.716102 114.77205 
L 338.041081 104.225913 
L 338.366061 86.939258 
L 338.69104 148.298344 
L 339.340999 121.021614 
L 339.665979 134.274963 
L 339.990958 116.045877 
L 340.315938 117.450538 
L 340.640917 111.246499 
L 341.290876 91.278287 
L 341.615856 83.275156 
L 341.940835 97.418601 
L 342.265815 101.334121 
L 342.590794 113.887783 
L 342.915774 108.228291 
L 343.240753 109.577313 
L 343.565733 113.644719 
L 343.890713 111.139108 
L 344.215692 114.033056 
L 344.540672 109.003294 
L 344.865651 101.899204 
L 345.190631 97.381041 
L 345.51561 107.53003 
L 345.84059 121.392177 
L 346.165569 118.964863 
L 346.490549 125.964572 
L 346.815528 123.227337 
L 347.465487 107.424128 
L 347.790467 119.731824 
L 348.765405 78.00621 
L 349.090385 91.543937 
L 349.415364 83.67847 
L 349.740344 101.861917 
L 350.065324 96.896294 
L 350.390303 89.817262 
L 350.715283 89.956284 
L 351.040262 88.930032 
L 351.365242 87.093168 
L 351.690221 82.59127 
L 352.015201 93.839061 
L 352.66516 82.267508 
L 352.990139 82.625431 
L 353.315119 84.7761 
L 353.640098 95.210102 
L 353.965078 93.330393 
L 354.290057 82.495355 
L 354.615037 105.50761 
L 354.940016 107.214044 
L 355.264996 93.586737 
L 355.589975 74.082697 
L 355.914955 84.250187 
L 356.239934 83.458625 
L 356.564914 81.835507 
L 356.889894 85.714821 
L 357.214873 74.853129 
L 357.539853 71.11354 
L 357.864832 83.772431 
L 358.189812 79.610998 
L 358.514791 82.086607 
L 358.839771 80.109543 
L 359.16475 103.863815 
L 359.48973 114.220326 
L 359.814709 107.492804 
L 360.139689 95.963 
L 360.464668 90.931004 
L 360.789648 80.540553 
L 361.114627 99.540592 
L 361.439607 102.612568 
L 361.764586 99.40154 
L 362.089566 98.766905 
L 362.414545 85.239008 
L 362.739525 76.983082 
L 363.064505 76.794426 
L 363.714464 71.617177 
L 364.039443 91.038311 
L 364.689402 84.226578 
L 365.014382 86.707507 
L 365.339361 83.139236 
L 365.664341 83.4181 
L 365.98932 70.731017 
L 366.3143 87.952701 
L 366.639279 90.254047 
L 366.964259 80.01656 
L 367.289238 103.472014 
L 367.614218 90.706812 
L 367.939197 106.415498 
L 368.264177 95.957851 
L 368.589156 95.454738 
L 368.914136 92.566914 
L 369.239115 94.213365 
L 369.564095 95.055532 
L 369.889075 87.795597 
L 370.214054 93.335636 
L 370.539034 107.300757 
L 371.188993 114.368927 
L 371.513972 109.230988 
L 371.838952 111.573556 
L 372.163931 96.477336 
L 372.488911 109.482056 
L 372.81389 105.408578 
L 373.13887 111.482568 
L 373.463849 109.128442 
L 373.788829 114.907462 
L 374.113808 104.547519 
L 374.438788 98.777863 
L 374.763767 98.724976 
L 375.088747 119.731135 
L 375.413726 120.350936 
L 376.713645 96.427881 
L 377.038624 95.900533 
L 377.363604 98.448039 
L 377.688583 88.806948 
L 378.013563 99.929167 
L 378.338542 95.025711 
L 378.663522 106.081835 
L 378.988501 100.058258 
L 379.96344 60.195374 
L 380.288419 60.684112 
L 380.613399 70.527094 
L 381.263358 105.491898 
L 381.588337 97.977113 
L 381.913317 106.952533 
L 382.563276 90.393038 
L 382.888256 96.273929 
L 383.213235 87.783964 
L 383.538215 88.416966 
L 383.863194 90.392305 
L 384.188174 76.135215 
L 384.513153 77.772513 
L 385.163112 112.454277 
L 385.488092 106.216271 
L 385.813071 97.715848 
L 386.46303 120.480385 
L 387.112989 90.410441 
L 387.437969 83.206765 
L 387.762948 71.63686 
L 388.087928 74.512952 
L 388.412907 75.491347 
L 388.737887 93.336676 
L 389.387846 69.501776 
L 389.712826 86.212414 
L 390.037805 87.583398 
L 390.362785 90.975843 
L 390.687764 91.76119 
L 391.012744 88.474872 
L 391.337723 77.152435 
L 391.662703 78.136338 
L 391.987682 77.936706 
L 392.312662 77.510736 
L 392.637641 66.237353 
L 392.962621 63.820946 
L 393.2876 55.203013 
L 393.61258 71.746653 
L 393.937559 78.351255 
L 394.262539 80.678554 
L 394.587518 75.487897 
L 394.912498 67.869137 
L 395.237477 76.036119 
L 395.562457 76.648492 
L 396.212416 102.779845 
L 396.537396 89.942138 
L 396.862375 98.708809 
L 397.187355 101.858216 
L 397.512334 103.623731 
L 397.837314 106.816997 
L 398.162293 106.050415 
L 398.487273 99.29743 
L 398.487273 99.29743 
" style="fill:none;stroke:#1f77b4;stroke-linecap:square;stroke-width:1.5;"/>
   </g>
   <g id="line2d_15">
    <path clip-path="url(#pf7e359a5ed)" d="M 73.832727 286.844659 
L 78.057461 287.05246 
L 87.156888 287.7783 
L 89.431744 287.742037 
L 91.056642 287.773574 
L 92.031581 287.802443 
L 93.981458 287.900394 
L 94.956396 287.903463 
L 96.256314 287.988073 
L 101.455987 288.018324 
L 102.755905 288.062548 
L 103.730844 288.012328 
L 104.705782 288.124342 
L 120.304799 288.572299 
L 121.929697 288.481329 
L 123.229615 288.535484 
L 124.204554 288.617445 
L 124.854513 288.6194 
L 125.504472 288.567368 
L 126.47941 288.674544 
L 128.429287 288.713685 
L 130.379165 288.645452 
L 131.354103 288.795311 
L 131.679083 288.738595 
L 132.654021 288.871702 
L 134.603898 288.848054 
L 135.253857 288.763094 
L 135.578837 288.831722 
L 135.903817 288.786585 
L 136.228796 288.882568 
L 136.553776 288.859928 
L 136.878755 288.961049 
L 137.528714 288.881959 
L 140.12855 289.02633 
L 140.45353 288.974252 
L 141.428468 289.094511 
L 142.403407 289.168589 
L 143.053366 289.036086 
L 144.353284 288.981091 
L 145.003243 288.98059 
L 146.303161 289.042208 
L 146.95312 289.10777 
L 148.902998 289.110929 
L 149.227977 289.206061 
L 149.877936 289.243337 
L 151.827813 289.509219 
L 152.802752 289.3208 
L 153.452711 289.301203 
L 154.10267 289.263783 
L 154.752629 289.326013 
L 155.077609 289.401241 
L 155.402588 289.230622 
L 155.727568 289.344053 
L 157.352465 289.25953 
L 158.002424 289.41534 
L 159.302342 289.4328 
L 159.627322 289.580607 
L 161.902179 289.521241 
L 162.227158 289.599547 
L 163.202097 289.56563 
L 163.852056 289.566708 
L 164.826994 289.531708 
L 165.151974 289.602345 
L 165.801933 289.477106 
L 167.75181 289.567923 
L 168.726749 289.577322 
L 169.701687 289.716341 
L 171.001605 289.599508 
L 171.326585 289.702553 
L 171.651564 289.514732 
L 171.976544 289.606639 
L 172.301523 289.560629 
L 172.951482 289.654292 
L 173.601441 289.692333 
L 176.851237 289.906028 
L 177.501196 289.921438 
L 177.826175 289.680231 
L 178.151155 289.704419 
L 178.476134 289.845497 
L 179.126093 289.836011 
L 179.776052 289.847319 
L 180.101032 289.703541 
L 180.750991 289.83446 
L 182.050909 289.993634 
L 183.025848 289.872347 
L 184.325766 290.00124 
L 184.650745 289.778172 
L 184.975725 289.984 
L 185.300704 289.945935 
L 186.275643 290.157735 
L 186.925602 290.115251 
L 187.250581 290.173841 
L 188.5505 290.025432 
L 188.875479 290.13436 
L 189.200459 290.078776 
L 189.525438 290.193011 
L 190.175397 290.062416 
L 190.825356 290.014121 
L 191.150336 290.017266 
L 191.475315 290.151043 
L 192.125274 290.221007 
L 194.075152 290.414456 
L 194.725111 290.423489 
L 196.999967 290.419925 
L 197.974906 290.266513 
L 198.949844 290.508392 
L 199.274824 290.589263 
L 200.574742 290.454693 
L 201.549681 290.489036 
L 202.19964 290.348576 
L 202.524619 290.433786 
L 203.174578 290.378901 
L 203.824537 290.479033 
L 204.799476 290.528042 
L 205.124455 290.511972 
L 205.449435 290.33864 
L 209.674169 290.63768 
L 210.324128 290.520151 
L 210.649107 290.468232 
L 210.974087 290.632089 
L 211.624046 290.58064 
L 212.923964 290.710574 
L 213.573923 290.554782 
L 215.5238 290.921461 
L 215.84878 290.728663 
L 216.823718 290.799289 
L 217.148698 290.544161 
L 218.773595 290.690035 
L 219.748534 290.546935 
L 221.048452 290.63681 
L 221.698411 290.714911 
L 223.323309 291.111707 
L 223.973268 291.052715 
L 224.298247 290.746668 
L 225.273186 291.097385 
L 226.248124 290.793336 
L 226.573104 290.895139 
L 227.223063 290.832257 
L 227.873022 290.986303 
L 228.198002 291.128135 
L 228.522981 291.093101 
L 228.847961 291.185188 
L 229.17294 290.830497 
L 229.49792 290.799768 
L 229.822899 290.901399 
L 230.147879 290.775391 
L 230.472858 290.9024 
L 231.772776 290.983693 
L 232.097756 291.118947 
L 233.072695 290.875066 
L 233.722654 290.945831 
L 234.047633 290.893283 
L 235.347551 291.271382 
L 236.32249 291.112169 
L 236.972449 291.235818 
L 237.297428 291.105528 
L 237.622408 291.240493 
L 240.222244 291.300459 
L 240.547224 291.165824 
L 240.872203 291.197076 
L 241.197183 291.087124 
L 242.497101 291.352507 
L 242.82208 291.231254 
L 243.472039 291.418042 
L 244.121998 291.527176 
L 244.446978 291.634573 
L 245.421916 291.474502 
L 245.746896 291.620046 
L 246.396855 291.422935 
L 246.721835 291.540639 
L 248.346732 291.32833 
L 249.321671 291.269872 
L 250.296609 291.445915 
L 250.621589 291.460924 
L 251.271548 290.962914 
L 251.596527 291.02979 
L 251.921507 291.280706 
L 252.571466 291.428969 
L 254.521343 291.628024 
L 254.846323 291.736009 
L 255.171302 291.610047 
L 255.496282 291.351722 
L 256.47122 291.733397 
L 256.7962 291.153821 
L 257.121179 291.171033 
L 257.771138 291.473882 
L 258.096118 291.542907 
L 258.421097 291.770345 
L 259.071057 291.895335 
L 259.396036 291.677921 
L 261.020934 291.870283 
L 263.29579 291.681239 
L 263.62077 291.916501 
L 263.945749 291.781887 
L 264.270729 291.502892 
L 265.245667 291.911608 
L 265.570647 291.719195 
L 266.545586 291.961191 
L 267.195545 291.935571 
L 267.845504 291.869952 
L 268.170483 292.068489 
L 268.495463 291.87093 
L 268.820442 291.980565 
L 270.44534 291.575867 
L 270.770319 291.500868 
L 271.095299 291.578104 
L 271.745258 291.966455 
L 272.395217 291.994281 
L 273.370156 291.980745 
L 274.020115 292.132866 
L 275.320033 292.06788 
L 275.645012 292.217902 
L 276.294971 292.155975 
L 276.619951 291.881615 
L 276.94493 291.866875 
L 277.919869 292.402215 
L 278.244848 292.170323 
L 278.569828 292.261214 
L 278.894808 291.864211 
L 279.219787 291.821173 
L 279.544767 292.044708 
L 281.819623 292.26241 
L 282.469582 292.456981 
L 283.119541 292.474945 
L 283.444521 292.591538 
L 283.7695 292.245567 
L 284.09448 292.288991 
L 284.419459 292.588411 
L 285.069419 292.640514 
L 286.369337 292.355194 
L 286.694316 292.499832 
L 287.019296 292.446507 
L 287.669255 292.017303 
L 288.969173 292.669979 
L 289.294152 292.712216 
L 289.619132 292.617762 
L 290.269091 292.715251 
L 290.59407 292.165361 
L 291.244029 292.335404 
L 291.893989 292.126593 
L 292.868927 292.296641 
L 293.518886 292.065736 
L 293.843866 292.028621 
L 294.818804 292.356101 
L 295.143784 292.579905 
L 295.468763 292.613239 
L 296.118722 292.563181 
L 296.443702 292.488407 
L 297.093661 292.673909 
L 297.41864 292.416125 
L 297.74362 292.430901 
L 298.0686 292.585246 
L 298.718559 292.394707 
L 300.668436 292.685572 
L 300.993415 292.851587 
L 301.318395 292.47103 
L 301.643374 292.605766 
L 301.968354 292.540292 
L 302.618313 292.630422 
L 302.943292 292.472943 
L 303.268272 292.490913 
L 303.918231 292.398513 
L 304.24321 292.639426 
L 304.56819 292.484815 
L 305.218149 292.724104 
L 306.518067 292.192708 
L 306.843047 291.983088 
L 308.142965 292.467758 
L 309.117903 292.650506 
L 309.442883 292.678451 
L 309.767862 292.590085 
L 310.092842 292.629873 
L 310.742801 292.53574 
L 311.067781 292.666438 
L 311.39276 292.520769 
L 312.367699 292.778169 
L 313.017658 292.562637 
L 313.342637 292.604629 
L 313.667617 292.814292 
L 315.292514 293.068591 
L 315.942473 292.851624 
L 316.917412 293.109916 
L 317.242391 292.942749 
L 317.567371 293.182526 
L 317.892351 292.994239 
L 318.21733 292.990057 
L 318.54231 293.141245 
L 318.867289 292.29435 
L 320.492187 292.982758 
L 320.817166 293.265054 
L 321.467125 293.477654 
L 322.442064 293.234937 
L 322.767043 293.456439 
L 323.092023 293.533967 
L 323.417002 293.248036 
L 324.066962 293.201823 
L 325.0419 293.384269 
L 325.36688 293.621517 
L 325.691859 293.388106 
L 326.666798 293.601426 
L 326.991777 293.402176 
L 327.316757 293.583129 
L 327.966716 293.325742 
L 328.291695 293.514815 
L 328.616675 293.340101 
L 329.916593 293.17601 
L 330.566552 293.59822 
L 330.891532 293.45305 
L 331.216511 293.672555 
L 331.541491 293.429257 
L 332.19145 293.392358 
L 332.516429 293.390021 
L 332.841409 293.06788 
L 333.166388 293.010524 
L 333.816347 293.343088 
L 334.141327 293.301544 
L 335.116265 293.603468 
L 336.091204 293.212528 
L 336.416183 293.179061 
L 336.741163 293.508142 
L 337.716102 293.364345 
L 338.366061 293.794786 
L 338.69104 292.854703 
L 339.340999 293.327803 
L 339.665979 293.132972 
L 339.990958 293.444445 
L 340.315938 293.43095 
L 341.290876 293.859563 
L 341.615856 293.988073 
L 341.940835 293.778102 
L 342.265815 293.721889 
L 342.590794 293.52911 
L 343.240753 293.620258 
L 344.215692 293.526338 
L 345.190631 293.813007 
L 345.84059 293.450075 
L 346.165569 293.505602 
L 346.490549 293.385472 
L 347.140508 293.573085 
L 347.465487 293.694659 
L 347.790467 293.50259 
L 348.765405 294.156435 
L 349.090385 293.933759 
L 349.415364 294.062169 
L 349.740344 293.767042 
L 351.040262 294.00197 
L 351.690221 294.107398 
L 352.015201 293.948758 
L 352.66516 294.134442 
L 353.965078 293.928252 
L 354.290057 294.097837 
L 354.615037 293.760116 
L 354.940016 293.745429 
L 355.589975 294.260683 
L 355.914955 294.11834 
L 357.214873 294.281219 
L 357.539853 294.338151 
L 357.864832 294.155273 
L 358.514791 294.199771 
L 358.839771 294.239733 
L 359.48973 293.895141 
L 360.789648 294.467355 
L 361.114627 294.181503 
L 361.764586 294.178563 
L 362.089566 294.194351 
L 362.739525 294.552209 
L 363.714464 294.63052 
L 364.039443 294.343796 
L 365.339361 294.490065 
L 365.664341 294.496848 
L 365.98932 294.690231 
L 366.3143 294.427928 
L 366.639279 294.402251 
L 366.964259 294.56756 
L 367.289238 294.209453 
L 367.614218 294.425535 
L 367.939197 294.16862 
L 368.264177 294.358887 
L 370.214054 294.438644 
L 370.539034 294.217407 
L 371.188993 294.125012 
L 371.513972 294.207858 
L 371.838952 294.170181 
L 372.163931 294.422011 
L 372.488911 294.204338 
L 372.81389 294.281763 
L 373.13887 294.185632 
L 373.463849 294.231089 
L 373.788829 294.132597 
L 374.438788 294.41757 
L 374.763767 294.421963 
L 375.088747 294.079144 
L 375.413726 294.066211 
L 377.038624 294.52351 
L 377.363604 294.481968 
L 377.688583 294.637133 
L 378.013563 294.446708 
L 378.338542 294.539554 
L 378.663522 294.369367 
L 379.313481 294.689625 
L 380.288419 295.095319 
L 380.613399 294.951248 
L 381.263358 294.399916 
L 381.588337 294.532877 
L 381.913317 294.400774 
L 382.563276 294.696266 
L 382.888256 294.615118 
L 383.213235 294.761676 
L 383.863194 294.732515 
L 384.188174 294.977444 
L 384.513153 294.949143 
L 385.163112 294.360719 
L 385.813071 294.629003 
L 386.46303 294.236482 
L 387.112989 294.778374 
L 388.087928 295.064819 
L 388.412907 295.062051 
L 388.737887 294.778486 
L 389.387846 295.182188 
L 389.712826 294.909695 
L 391.012744 294.898728 
L 391.337723 295.091134 
L 392.312662 295.09439 
L 392.637641 295.290504 
L 393.2876 295.488 
L 393.61258 295.204237 
L 394.262539 295.075881 
L 394.912498 295.294738 
L 395.887437 294.881517 
L 396.212416 294.673276 
L 396.537396 294.904426 
L 397.187355 294.707393 
L 398.162293 294.641769 
L 398.487273 294.764711 
L 398.487273 294.764711 
" style="fill:none;stroke:#ff7f0e;stroke-linecap:square;stroke-width:1.5;"/>
   </g>
   <g id="patch_3">
    <path d="M 57.6 307.584 
L 57.6 41.472 
" style="fill:none;stroke:#000000;stroke-linecap:square;stroke-linejoin:miter;stroke-width:0.8;"/>
   </g>
   <g id="patch_4">
    <path d="M 414.72 307.584 
L 414.72 41.472 
" style="fill:none;stroke:#000000;stroke-linecap:square;stroke-linejoin:miter;stroke-width:0.8;"/>
   </g>
   <g id="patch_5">
    <path d="M 57.6 307.584 
L 414.72 307.584 
" style="fill:none;stroke:#000000;stroke-linecap:square;stroke-linejoin:miter;stroke-width:0.8;"/>
   </g>
   <g id="patch_6">
    <path d="M 57.6 41.472 
L 414.72 41.472 
" style="fill:none;stroke:#000000;stroke-linecap:square;stroke-linejoin:miter;stroke-width:0.8;"/>
   </g>
  </g>
 </g>
 <defs>
  <clipPath id="pf7e359a5ed">
   <rect height="266.112" width="357.12" x="57.6" y="41.472"/>
  </clipPath>
 </defs>
</svg>
