<?xml version="1.0" encoding="utf-8" standalone="no"?>
<!DOCTYPE svg PUBLIC "-//W3C//DTD SVG 1.1//EN"
  "http://www.w3.org/Graphics/SVG/1.1/DTD/svg11.dtd">
<!-- Created with matplotlib (https://matplotlib.org/) -->
<svg height="345.6pt" version="1.1" viewBox="0 0 460.8 345.6" width="460.8pt" xmlns="http://www.w3.org/2000/svg" xmlns:xlink="http://www.w3.org/1999/xlink">
 <metadata>
  <rdf:RDF xmlns:cc="http://creativecommons.org/ns#" xmlns:dc="http://purl.org/dc/elements/1.1/" xmlns:rdf="http://www.w3.org/1999/02/22-rdf-syntax-ns#">
   <cc:Work>
    <dc:type rdf:resource="http://purl.org/dc/dcmitype/StillImage"/>
    <dc:date>2020-10-07T15:21:38.894316</dc:date>
    <dc:format>image/svg+xml</dc:format>
    <dc:creator>
     <cc:Agent>
      <dc:title>Matplotlib v3.3.2, https://matplotlib.org/</dc:title>
     </cc:Agent>
    </dc:creator>
   </cc:Work>
  </rdf:RDF>
 </metadata>
 <defs>
  <style type="text/css">*{stroke-linecap:butt;stroke-linejoin:round;}</style>
 </defs>
 <g id="figure_1">
  <g id="patch_1">
   <path d="M 0 345.6 
L 460.8 345.6 
L 460.8 0 
L 0 0 
z
" style="fill:#ffffff;"/>
  </g>
  <g id="axes_1">
   <g id="patch_2">
    <path d="M 57.6 307.584 
L 414.72 307.584 
L 414.72 41.472 
L 57.6 41.472 
z
" style="fill:#ffffff;"/>
   </g>
   <g id="matplotlib.axis_1">
    <g id="xtick_1">
     <g id="line2d_1">
      <defs>
       <path d="M 0 0 
L 0 3.5 
" id="me0b5d6cdf2" style="stroke:#000000;stroke-width:0.8;"/>
      </defs>
      <g>
       <use style="stroke:#000000;stroke-width:0.8;" x="73.832727" xlink:href="#me0b5d6cdf2" y="307.584"/>
      </g>
     </g>
     <g id="text_1">
      <!-- 0 -->
      <g transform="translate(70.651477 322.182437)scale(0.1 -0.1)">
       <defs>
        <path d="M 31.78125 66.40625 
Q 24.171875 66.40625 20.328125 58.90625 
Q 16.5 51.421875 16.5 36.375 
Q 16.5 21.390625 20.328125 13.890625 
Q 24.171875 6.390625 31.78125 6.390625 
Q 39.453125 6.390625 43.28125 13.890625 
Q 47.125 21.390625 47.125 36.375 
Q 47.125 51.421875 43.28125 58.90625 
Q 39.453125 66.40625 31.78125 66.40625 
z
M 31.78125 74.21875 
Q 44.046875 74.21875 50.515625 64.515625 
Q 56.984375 54.828125 56.984375 36.375 
Q 56.984375 17.96875 50.515625 8.265625 
Q 44.046875 -1.421875 31.78125 -1.421875 
Q 19.53125 -1.421875 13.0625 8.265625 
Q 6.59375 17.96875 6.59375 36.375 
Q 6.59375 54.828125 13.0625 64.515625 
Q 19.53125 74.21875 31.78125 74.21875 
z
" id="DejaVuSans-48"/>
       </defs>
       <use xlink:href="#DejaVuSans-48"/>
      </g>
     </g>
    </g>
    <g id="xtick_2">
     <g id="line2d_2">
      <g>
       <use style="stroke:#000000;stroke-width:0.8;" x="138.828632" xlink:href="#me0b5d6cdf2" y="307.584"/>
      </g>
     </g>
     <g id="text_2">
      <!-- 20 -->
      <g transform="translate(132.466132 322.182437)scale(0.1 -0.1)">
       <defs>
        <path d="M 19.1875 8.296875 
L 53.609375 8.296875 
L 53.609375 0 
L 7.328125 0 
L 7.328125 8.296875 
Q 12.9375 14.109375 22.625 23.890625 
Q 32.328125 33.6875 34.8125 36.53125 
Q 39.546875 41.84375 41.421875 45.53125 
Q 43.3125 49.21875 43.3125 52.78125 
Q 43.3125 58.59375 39.234375 62.25 
Q 35.15625 65.921875 28.609375 65.921875 
Q 23.96875 65.921875 18.8125 64.3125 
Q 13.671875 62.703125 7.8125 59.421875 
L 7.8125 69.390625 
Q 13.765625 71.78125 18.9375 73 
Q 24.125 74.21875 28.421875 74.21875 
Q 39.75 74.21875 46.484375 68.546875 
Q 53.21875 62.890625 53.21875 53.421875 
Q 53.21875 48.921875 51.53125 44.890625 
Q 49.859375 40.875 45.40625 35.40625 
Q 44.1875 33.984375 37.640625 27.21875 
Q 31.109375 20.453125 19.1875 8.296875 
z
" id="DejaVuSans-50"/>
       </defs>
       <use xlink:href="#DejaVuSans-50"/>
       <use x="63.623047" xlink:href="#DejaVuSans-48"/>
      </g>
     </g>
    </g>
    <g id="xtick_3">
     <g id="line2d_3">
      <g>
       <use style="stroke:#000000;stroke-width:0.8;" x="203.824537" xlink:href="#me0b5d6cdf2" y="307.584"/>
      </g>
     </g>
     <g id="text_3">
      <!-- 40 -->
      <g transform="translate(197.462037 322.182437)scale(0.1 -0.1)">
       <defs>
        <path d="M 37.796875 64.3125 
L 12.890625 25.390625 
L 37.796875 25.390625 
z
M 35.203125 72.90625 
L 47.609375 72.90625 
L 47.609375 25.390625 
L 58.015625 25.390625 
L 58.015625 17.1875 
L 47.609375 17.1875 
L 47.609375 0 
L 37.796875 0 
L 37.796875 17.1875 
L 4.890625 17.1875 
L 4.890625 26.703125 
z
" id="DejaVuSans-52"/>
       </defs>
       <use xlink:href="#DejaVuSans-52"/>
       <use x="63.623047" xlink:href="#DejaVuSans-48"/>
      </g>
     </g>
    </g>
    <g id="xtick_4">
     <g id="line2d_4">
      <g>
       <use style="stroke:#000000;stroke-width:0.8;" x="268.820442" xlink:href="#me0b5d6cdf2" y="307.584"/>
      </g>
     </g>
     <g id="text_4">
      <!-- 60 -->
      <g transform="translate(262.457942 322.182437)scale(0.1 -0.1)">
       <defs>
        <path d="M 33.015625 40.375 
Q 26.375 40.375 22.484375 35.828125 
Q 18.609375 31.296875 18.609375 23.390625 
Q 18.609375 15.53125 22.484375 10.953125 
Q 26.375 6.390625 33.015625 6.390625 
Q 39.65625 6.390625 43.53125 10.953125 
Q 47.40625 15.53125 47.40625 23.390625 
Q 47.40625 31.296875 43.53125 35.828125 
Q 39.65625 40.375 33.015625 40.375 
z
M 52.59375 71.296875 
L 52.59375 62.3125 
Q 48.875 64.0625 45.09375 64.984375 
Q 41.3125 65.921875 37.59375 65.921875 
Q 27.828125 65.921875 22.671875 59.328125 
Q 17.53125 52.734375 16.796875 39.40625 
Q 19.671875 43.65625 24.015625 45.921875 
Q 28.375 48.1875 33.59375 48.1875 
Q 44.578125 48.1875 50.953125 41.515625 
Q 57.328125 34.859375 57.328125 23.390625 
Q 57.328125 12.15625 50.6875 5.359375 
Q 44.046875 -1.421875 33.015625 -1.421875 
Q 20.359375 -1.421875 13.671875 8.265625 
Q 6.984375 17.96875 6.984375 36.375 
Q 6.984375 53.65625 15.1875 63.9375 
Q 23.390625 74.21875 37.203125 74.21875 
Q 40.921875 74.21875 44.703125 73.484375 
Q 48.484375 72.75 52.59375 71.296875 
z
" id="DejaVuSans-54"/>
       </defs>
       <use xlink:href="#DejaVuSans-54"/>
       <use x="63.623047" xlink:href="#DejaVuSans-48"/>
      </g>
     </g>
    </g>
    <g id="xtick_5">
     <g id="line2d_5">
      <g>
       <use style="stroke:#000000;stroke-width:0.8;" x="333.816347" xlink:href="#me0b5d6cdf2" y="307.584"/>
      </g>
     </g>
     <g id="text_5">
      <!-- 80 -->
      <g transform="translate(327.453847 322.182437)scale(0.1 -0.1)">
       <defs>
        <path d="M 31.78125 34.625 
Q 24.75 34.625 20.71875 30.859375 
Q 16.703125 27.09375 16.703125 20.515625 
Q 16.703125 13.921875 20.71875 10.15625 
Q 24.75 6.390625 31.78125 6.390625 
Q 38.8125 6.390625 42.859375 10.171875 
Q 46.921875 13.96875 46.921875 20.515625 
Q 46.921875 27.09375 42.890625 30.859375 
Q 38.875 34.625 31.78125 34.625 
z
M 21.921875 38.8125 
Q 15.578125 40.375 12.03125 44.71875 
Q 8.5 49.078125 8.5 55.328125 
Q 8.5 64.0625 14.71875 69.140625 
Q 20.953125 74.21875 31.78125 74.21875 
Q 42.671875 74.21875 48.875 69.140625 
Q 55.078125 64.0625 55.078125 55.328125 
Q 55.078125 49.078125 51.53125 44.71875 
Q 48 40.375 41.703125 38.8125 
Q 48.828125 37.15625 52.796875 32.3125 
Q 56.78125 27.484375 56.78125 20.515625 
Q 56.78125 9.90625 50.3125 4.234375 
Q 43.84375 -1.421875 31.78125 -1.421875 
Q 19.734375 -1.421875 13.25 4.234375 
Q 6.78125 9.90625 6.78125 20.515625 
Q 6.78125 27.484375 10.78125 32.3125 
Q 14.796875 37.15625 21.921875 38.8125 
z
M 18.3125 54.390625 
Q 18.3125 48.734375 21.84375 45.5625 
Q 25.390625 42.390625 31.78125 42.390625 
Q 38.140625 42.390625 41.71875 45.5625 
Q 45.3125 48.734375 45.3125 54.390625 
Q 45.3125 60.0625 41.71875 63.234375 
Q 38.140625 66.40625 31.78125 66.40625 
Q 25.390625 66.40625 21.84375 63.234375 
Q 18.3125 60.0625 18.3125 54.390625 
z
" id="DejaVuSans-56"/>
       </defs>
       <use xlink:href="#DejaVuSans-56"/>
       <use x="63.623047" xlink:href="#DejaVuSans-48"/>
      </g>
     </g>
    </g>
    <g id="xtick_6">
     <g id="line2d_6">
      <g>
       <use style="stroke:#000000;stroke-width:0.8;" x="398.812252" xlink:href="#me0b5d6cdf2" y="307.584"/>
      </g>
     </g>
     <g id="text_6">
      <!-- 100 -->
      <g transform="translate(389.268502 322.182437)scale(0.1 -0.1)">
       <defs>
        <path d="M 12.40625 8.296875 
L 28.515625 8.296875 
L 28.515625 63.921875 
L 10.984375 60.40625 
L 10.984375 69.390625 
L 28.421875 72.90625 
L 38.28125 72.90625 
L 38.28125 8.296875 
L 54.390625 8.296875 
L 54.390625 0 
L 12.40625 0 
z
" id="DejaVuSans-49"/>
       </defs>
       <use xlink:href="#DejaVuSans-49"/>
       <use x="63.623047" xlink:href="#DejaVuSans-48"/>
       <use x="127.246094" xlink:href="#DejaVuSans-48"/>
      </g>
     </g>
    </g>
    <g id="text_7">
     <!-- Time (days) -->
     <g transform="translate(206.633437 335.860562)scale(0.1 -0.1)">
      <defs>
       <path d="M -0.296875 72.90625 
L 61.375 72.90625 
L 61.375 64.59375 
L 35.5 64.59375 
L 35.5 0 
L 25.59375 0 
L 25.59375 64.59375 
L -0.296875 64.59375 
z
" id="DejaVuSans-84"/>
       <path d="M 9.421875 54.6875 
L 18.40625 54.6875 
L 18.40625 0 
L 9.421875 0 
z
M 9.421875 75.984375 
L 18.40625 75.984375 
L 18.40625 64.59375 
L 9.421875 64.59375 
z
" id="DejaVuSans-105"/>
       <path d="M 52 44.1875 
Q 55.375 50.25 60.0625 53.125 
Q 64.75 56 71.09375 56 
Q 79.640625 56 84.28125 50.015625 
Q 88.921875 44.046875 88.921875 33.015625 
L 88.921875 0 
L 79.890625 0 
L 79.890625 32.71875 
Q 79.890625 40.578125 77.09375 44.375 
Q 74.3125 48.1875 68.609375 48.1875 
Q 61.625 48.1875 57.5625 43.546875 
Q 53.515625 38.921875 53.515625 30.90625 
L 53.515625 0 
L 44.484375 0 
L 44.484375 32.71875 
Q 44.484375 40.625 41.703125 44.40625 
Q 38.921875 48.1875 33.109375 48.1875 
Q 26.21875 48.1875 22.15625 43.53125 
Q 18.109375 38.875 18.109375 30.90625 
L 18.109375 0 
L 9.078125 0 
L 9.078125 54.6875 
L 18.109375 54.6875 
L 18.109375 46.1875 
Q 21.1875 51.21875 25.484375 53.609375 
Q 29.78125 56 35.6875 56 
Q 41.65625 56 45.828125 52.96875 
Q 50 49.953125 52 44.1875 
z
" id="DejaVuSans-109"/>
       <path d="M 56.203125 29.59375 
L 56.203125 25.203125 
L 14.890625 25.203125 
Q 15.484375 15.921875 20.484375 11.0625 
Q 25.484375 6.203125 34.421875 6.203125 
Q 39.59375 6.203125 44.453125 7.46875 
Q 49.3125 8.734375 54.109375 11.28125 
L 54.109375 2.78125 
Q 49.265625 0.734375 44.1875 -0.34375 
Q 39.109375 -1.421875 33.890625 -1.421875 
Q 20.796875 -1.421875 13.15625 6.1875 
Q 5.515625 13.8125 5.515625 26.8125 
Q 5.515625 40.234375 12.765625 48.109375 
Q 20.015625 56 32.328125 56 
Q 43.359375 56 49.78125 48.890625 
Q 56.203125 41.796875 56.203125 29.59375 
z
M 47.21875 32.234375 
Q 47.125 39.59375 43.09375 43.984375 
Q 39.0625 48.390625 32.421875 48.390625 
Q 24.90625 48.390625 20.390625 44.140625 
Q 15.875 39.890625 15.1875 32.171875 
z
" id="DejaVuSans-101"/>
       <path id="DejaVuSans-32"/>
       <path d="M 31 75.875 
Q 24.46875 64.65625 21.28125 53.65625 
Q 18.109375 42.671875 18.109375 31.390625 
Q 18.109375 20.125 21.3125 9.0625 
Q 24.515625 -2 31 -13.1875 
L 23.1875 -13.1875 
Q 15.875 -1.703125 12.234375 9.375 
Q 8.59375 20.453125 8.59375 31.390625 
Q 8.59375 42.28125 12.203125 53.3125 
Q 15.828125 64.359375 23.1875 75.875 
z
" id="DejaVuSans-40"/>
       <path d="M 45.40625 46.390625 
L 45.40625 75.984375 
L 54.390625 75.984375 
L 54.390625 0 
L 45.40625 0 
L 45.40625 8.203125 
Q 42.578125 3.328125 38.25 0.953125 
Q 33.9375 -1.421875 27.875 -1.421875 
Q 17.96875 -1.421875 11.734375 6.484375 
Q 5.515625 14.40625 5.515625 27.296875 
Q 5.515625 40.1875 11.734375 48.09375 
Q 17.96875 56 27.875 56 
Q 33.9375 56 38.25 53.625 
Q 42.578125 51.265625 45.40625 46.390625 
z
M 14.796875 27.296875 
Q 14.796875 17.390625 18.875 11.75 
Q 22.953125 6.109375 30.078125 6.109375 
Q 37.203125 6.109375 41.296875 11.75 
Q 45.40625 17.390625 45.40625 27.296875 
Q 45.40625 37.203125 41.296875 42.84375 
Q 37.203125 48.484375 30.078125 48.484375 
Q 22.953125 48.484375 18.875 42.84375 
Q 14.796875 37.203125 14.796875 27.296875 
z
" id="DejaVuSans-100"/>
       <path d="M 34.28125 27.484375 
Q 23.390625 27.484375 19.1875 25 
Q 14.984375 22.515625 14.984375 16.5 
Q 14.984375 11.71875 18.140625 8.90625 
Q 21.296875 6.109375 26.703125 6.109375 
Q 34.1875 6.109375 38.703125 11.40625 
Q 43.21875 16.703125 43.21875 25.484375 
L 43.21875 27.484375 
z
M 52.203125 31.203125 
L 52.203125 0 
L 43.21875 0 
L 43.21875 8.296875 
Q 40.140625 3.328125 35.546875 0.953125 
Q 30.953125 -1.421875 24.3125 -1.421875 
Q 15.921875 -1.421875 10.953125 3.296875 
Q 6 8.015625 6 15.921875 
Q 6 25.140625 12.171875 29.828125 
Q 18.359375 34.515625 30.609375 34.515625 
L 43.21875 34.515625 
L 43.21875 35.40625 
Q 43.21875 41.609375 39.140625 45 
Q 35.0625 48.390625 27.6875 48.390625 
Q 23 48.390625 18.546875 47.265625 
Q 14.109375 46.140625 10.015625 43.890625 
L 10.015625 52.203125 
Q 14.9375 54.109375 19.578125 55.046875 
Q 24.21875 56 28.609375 56 
Q 40.484375 56 46.34375 49.84375 
Q 52.203125 43.703125 52.203125 31.203125 
z
" id="DejaVuSans-97"/>
       <path d="M 32.171875 -5.078125 
Q 28.375 -14.84375 24.75 -17.8125 
Q 21.140625 -20.796875 15.09375 -20.796875 
L 7.90625 -20.796875 
L 7.90625 -13.28125 
L 13.1875 -13.28125 
Q 16.890625 -13.28125 18.9375 -11.515625 
Q 21 -9.765625 23.484375 -3.21875 
L 25.09375 0.875 
L 2.984375 54.6875 
L 12.5 54.6875 
L 29.59375 11.921875 
L 46.6875 54.6875 
L 56.203125 54.6875 
z
" id="DejaVuSans-121"/>
       <path d="M 44.28125 53.078125 
L 44.28125 44.578125 
Q 40.484375 46.53125 36.375 47.5 
Q 32.28125 48.484375 27.875 48.484375 
Q 21.1875 48.484375 17.84375 46.4375 
Q 14.5 44.390625 14.5 40.28125 
Q 14.5 37.15625 16.890625 35.375 
Q 19.28125 33.59375 26.515625 31.984375 
L 29.59375 31.296875 
Q 39.15625 29.25 43.1875 25.515625 
Q 47.21875 21.78125 47.21875 15.09375 
Q 47.21875 7.46875 41.1875 3.015625 
Q 35.15625 -1.421875 24.609375 -1.421875 
Q 20.21875 -1.421875 15.453125 -0.5625 
Q 10.6875 0.296875 5.421875 2 
L 5.421875 11.28125 
Q 10.40625 8.6875 15.234375 7.390625 
Q 20.0625 6.109375 24.8125 6.109375 
Q 31.15625 6.109375 34.5625 8.28125 
Q 37.984375 10.453125 37.984375 14.40625 
Q 37.984375 18.0625 35.515625 20.015625 
Q 33.0625 21.96875 24.703125 23.78125 
L 21.578125 24.515625 
Q 13.234375 26.265625 9.515625 29.90625 
Q 5.8125 33.546875 5.8125 39.890625 
Q 5.8125 47.609375 11.28125 51.796875 
Q 16.75 56 26.8125 56 
Q 31.78125 56 36.171875 55.265625 
Q 40.578125 54.546875 44.28125 53.078125 
z
" id="DejaVuSans-115"/>
       <path d="M 8.015625 75.875 
L 15.828125 75.875 
Q 23.140625 64.359375 26.78125 53.3125 
Q 30.421875 42.28125 30.421875 31.390625 
Q 30.421875 20.453125 26.78125 9.375 
Q 23.140625 -1.703125 15.828125 -13.1875 
L 8.015625 -13.1875 
Q 14.5 -2 17.703125 9.0625 
Q 20.90625 20.125 20.90625 31.390625 
Q 20.90625 42.671875 17.703125 53.65625 
Q 14.5 64.65625 8.015625 75.875 
z
" id="DejaVuSans-41"/>
      </defs>
      <use xlink:href="#DejaVuSans-84"/>
      <use x="57.958984" xlink:href="#DejaVuSans-105"/>
      <use x="85.742188" xlink:href="#DejaVuSans-109"/>
      <use x="183.154297" xlink:href="#DejaVuSans-101"/>
      <use x="244.677734" xlink:href="#DejaVuSans-32"/>
      <use x="276.464844" xlink:href="#DejaVuSans-40"/>
      <use x="315.478516" xlink:href="#DejaVuSans-100"/>
      <use x="378.955078" xlink:href="#DejaVuSans-97"/>
      <use x="440.234375" xlink:href="#DejaVuSans-121"/>
      <use x="499.414062" xlink:href="#DejaVuSans-115"/>
      <use x="551.513672" xlink:href="#DejaVuSans-41"/>
     </g>
    </g>
   </g>
   <g id="matplotlib.axis_2">
    <g id="ytick_1">
     <g id="line2d_7">
      <defs>
       <path d="M 0 0 
L -3.5 0 
" id="m2a7af6aad9" style="stroke:#000000;stroke-width:0.8;"/>
      </defs>
      <g>
       <use style="stroke:#000000;stroke-width:0.8;" x="57.6" xlink:href="#m2a7af6aad9" y="288.293538"/>
      </g>
     </g>
     <g id="text_8">
      <!-- 0 -->
      <g transform="translate(44.2375 292.092757)scale(0.1 -0.1)">
       <use xlink:href="#DejaVuSans-48"/>
      </g>
     </g>
    </g>
    <g id="ytick_2">
     <g id="line2d_8">
      <g>
       <use style="stroke:#000000;stroke-width:0.8;" x="57.6" xlink:href="#m2a7af6aad9" y="253.88347"/>
      </g>
     </g>
     <g id="text_9">
      <!-- 500 -->
      <g transform="translate(31.5125 257.682688)scale(0.1 -0.1)">
       <defs>
        <path d="M 10.796875 72.90625 
L 49.515625 72.90625 
L 49.515625 64.59375 
L 19.828125 64.59375 
L 19.828125 46.734375 
Q 21.96875 47.46875 24.109375 47.828125 
Q 26.265625 48.1875 28.421875 48.1875 
Q 40.625 48.1875 47.75 41.5 
Q 54.890625 34.8125 54.890625 23.390625 
Q 54.890625 11.625 47.5625 5.09375 
Q 40.234375 -1.421875 26.90625 -1.421875 
Q 22.3125 -1.421875 17.546875 -0.640625 
Q 12.796875 0.140625 7.71875 1.703125 
L 7.71875 11.625 
Q 12.109375 9.234375 16.796875 8.0625 
Q 21.484375 6.890625 26.703125 6.890625 
Q 35.15625 6.890625 40.078125 11.328125 
Q 45.015625 15.765625 45.015625 23.390625 
Q 45.015625 31 40.078125 35.4375 
Q 35.15625 39.890625 26.703125 39.890625 
Q 22.75 39.890625 18.8125 39.015625 
Q 14.890625 38.140625 10.796875 36.28125 
z
" id="DejaVuSans-53"/>
       </defs>
       <use xlink:href="#DejaVuSans-53"/>
       <use x="63.623047" xlink:href="#DejaVuSans-48"/>
       <use x="127.246094" xlink:href="#DejaVuSans-48"/>
      </g>
     </g>
    </g>
    <g id="ytick_3">
     <g id="line2d_9">
      <g>
       <use style="stroke:#000000;stroke-width:0.8;" x="57.6" xlink:href="#m2a7af6aad9" y="219.473401"/>
      </g>
     </g>
     <g id="text_10">
      <!-- 1000 -->
      <g transform="translate(25.15 223.27262)scale(0.1 -0.1)">
       <use xlink:href="#DejaVuSans-49"/>
       <use x="63.623047" xlink:href="#DejaVuSans-48"/>
       <use x="127.246094" xlink:href="#DejaVuSans-48"/>
       <use x="190.869141" xlink:href="#DejaVuSans-48"/>
      </g>
     </g>
    </g>
    <g id="ytick_4">
     <g id="line2d_10">
      <g>
       <use style="stroke:#000000;stroke-width:0.8;" x="57.6" xlink:href="#m2a7af6aad9" y="185.063333"/>
      </g>
     </g>
     <g id="text_11">
      <!-- 1500 -->
      <g transform="translate(25.15 188.862552)scale(0.1 -0.1)">
       <use xlink:href="#DejaVuSans-49"/>
       <use x="63.623047" xlink:href="#DejaVuSans-53"/>
       <use x="127.246094" xlink:href="#DejaVuSans-48"/>
       <use x="190.869141" xlink:href="#DejaVuSans-48"/>
      </g>
     </g>
    </g>
    <g id="ytick_5">
     <g id="line2d_11">
      <g>
       <use style="stroke:#000000;stroke-width:0.8;" x="57.6" xlink:href="#m2a7af6aad9" y="150.653265"/>
      </g>
     </g>
     <g id="text_12">
      <!-- 2000 -->
      <g transform="translate(25.15 154.452484)scale(0.1 -0.1)">
       <use xlink:href="#DejaVuSans-50"/>
       <use x="63.623047" xlink:href="#DejaVuSans-48"/>
       <use x="127.246094" xlink:href="#DejaVuSans-48"/>
       <use x="190.869141" xlink:href="#DejaVuSans-48"/>
      </g>
     </g>
    </g>
    <g id="ytick_6">
     <g id="line2d_12">
      <g>
       <use style="stroke:#000000;stroke-width:0.8;" x="57.6" xlink:href="#m2a7af6aad9" y="116.243197"/>
      </g>
     </g>
     <g id="text_13">
      <!-- 2500 -->
      <g transform="translate(25.15 120.042415)scale(0.1 -0.1)">
       <use xlink:href="#DejaVuSans-50"/>
       <use x="63.623047" xlink:href="#DejaVuSans-53"/>
       <use x="127.246094" xlink:href="#DejaVuSans-48"/>
       <use x="190.869141" xlink:href="#DejaVuSans-48"/>
      </g>
     </g>
    </g>
    <g id="ytick_7">
     <g id="line2d_13">
      <g>
       <use style="stroke:#000000;stroke-width:0.8;" x="57.6" xlink:href="#m2a7af6aad9" y="81.833128"/>
      </g>
     </g>
     <g id="text_14">
      <!-- 3000 -->
      <g transform="translate(25.15 85.632347)scale(0.1 -0.1)">
       <defs>
        <path d="M 40.578125 39.3125 
Q 47.65625 37.796875 51.625 33 
Q 55.609375 28.21875 55.609375 21.1875 
Q 55.609375 10.40625 48.1875 4.484375 
Q 40.765625 -1.421875 27.09375 -1.421875 
Q 22.515625 -1.421875 17.65625 -0.515625 
Q 12.796875 0.390625 7.625 2.203125 
L 7.625 11.71875 
Q 11.71875 9.328125 16.59375 8.109375 
Q 21.484375 6.890625 26.8125 6.890625 
Q 36.078125 6.890625 40.9375 10.546875 
Q 45.796875 14.203125 45.796875 21.1875 
Q 45.796875 27.640625 41.28125 31.265625 
Q 36.765625 34.90625 28.71875 34.90625 
L 20.21875 34.90625 
L 20.21875 43.015625 
L 29.109375 43.015625 
Q 36.375 43.015625 40.234375 45.921875 
Q 44.09375 48.828125 44.09375 54.296875 
Q 44.09375 59.90625 40.109375 62.90625 
Q 36.140625 65.921875 28.71875 65.921875 
Q 24.65625 65.921875 20.015625 65.03125 
Q 15.375 64.15625 9.8125 62.3125 
L 9.8125 71.09375 
Q 15.4375 72.65625 20.34375 73.4375 
Q 25.25 74.21875 29.59375 74.21875 
Q 40.828125 74.21875 47.359375 69.109375 
Q 53.90625 64.015625 53.90625 55.328125 
Q 53.90625 49.265625 50.4375 45.09375 
Q 46.96875 40.921875 40.578125 39.3125 
z
" id="DejaVuSans-51"/>
       </defs>
       <use xlink:href="#DejaVuSans-51"/>
       <use x="63.623047" xlink:href="#DejaVuSans-48"/>
       <use x="127.246094" xlink:href="#DejaVuSans-48"/>
       <use x="190.869141" xlink:href="#DejaVuSans-48"/>
      </g>
     </g>
    </g>
    <g id="ytick_8">
     <g id="line2d_14">
      <g>
       <use style="stroke:#000000;stroke-width:0.8;" x="57.6" xlink:href="#m2a7af6aad9" y="47.42306"/>
      </g>
     </g>
     <g id="text_15">
      <!-- 3500 -->
      <g transform="translate(25.15 51.222279)scale(0.1 -0.1)">
       <use xlink:href="#DejaVuSans-51"/>
       <use x="63.623047" xlink:href="#DejaVuSans-53"/>
       <use x="127.246094" xlink:href="#DejaVuSans-48"/>
       <use x="190.869141" xlink:href="#DejaVuSans-48"/>
      </g>
     </g>
    </g>
    <g id="text_16">
     <!-- Density -->
     <g transform="translate(19.070312 193.536594)rotate(-90)scale(0.1 -0.1)">
      <defs>
       <path d="M 19.671875 64.796875 
L 19.671875 8.109375 
L 31.59375 8.109375 
Q 46.6875 8.109375 53.6875 14.9375 
Q 60.6875 21.78125 60.6875 36.53125 
Q 60.6875 51.171875 53.6875 57.984375 
Q 46.6875 64.796875 31.59375 64.796875 
z
M 9.8125 72.90625 
L 30.078125 72.90625 
Q 51.265625 72.90625 61.171875 64.09375 
Q 71.09375 55.28125 71.09375 36.53125 
Q 71.09375 17.671875 61.125 8.828125 
Q 51.171875 0 30.078125 0 
L 9.8125 0 
z
" id="DejaVuSans-68"/>
       <path d="M 54.890625 33.015625 
L 54.890625 0 
L 45.90625 0 
L 45.90625 32.71875 
Q 45.90625 40.484375 42.875 44.328125 
Q 39.84375 48.1875 33.796875 48.1875 
Q 26.515625 48.1875 22.3125 43.546875 
Q 18.109375 38.921875 18.109375 30.90625 
L 18.109375 0 
L 9.078125 0 
L 9.078125 54.6875 
L 18.109375 54.6875 
L 18.109375 46.1875 
Q 21.34375 51.125 25.703125 53.5625 
Q 30.078125 56 35.796875 56 
Q 45.21875 56 50.046875 50.171875 
Q 54.890625 44.34375 54.890625 33.015625 
z
" id="DejaVuSans-110"/>
       <path d="M 18.3125 70.21875 
L 18.3125 54.6875 
L 36.8125 54.6875 
L 36.8125 47.703125 
L 18.3125 47.703125 
L 18.3125 18.015625 
Q 18.3125 11.328125 20.140625 9.421875 
Q 21.96875 7.515625 27.59375 7.515625 
L 36.8125 7.515625 
L 36.8125 0 
L 27.59375 0 
Q 17.1875 0 13.234375 3.875 
Q 9.28125 7.765625 9.28125 18.015625 
L 9.28125 47.703125 
L 2.6875 47.703125 
L 2.6875 54.6875 
L 9.28125 54.6875 
L 9.28125 70.21875 
z
" id="DejaVuSans-116"/>
      </defs>
      <use xlink:href="#DejaVuSans-68"/>
      <use x="77.001953" xlink:href="#DejaVuSans-101"/>
      <use x="138.525391" xlink:href="#DejaVuSans-110"/>
      <use x="201.904297" xlink:href="#DejaVuSans-115"/>
      <use x="254.003906" xlink:href="#DejaVuSans-105"/>
      <use x="281.787109" xlink:href="#DejaVuSans-116"/>
      <use x="320.996094" xlink:href="#DejaVuSans-121"/>
     </g>
    </g>
   </g>
   <g id="line2d_15">
    <path clip-path="url(#p514fe89c64)" d="M 73.832727 287.605337 
L 74.482686 287.208994 
L 75.132645 286.568821 
L 75.782604 285.538581 
L 76.432563 283.910333 
L 77.082523 281.292088 
L 77.732482 277.072463 
L 78.382441 270.546543 
L 79.0324 260.999823 
L 79.682359 246.583739 
L 80.332318 229.788002 
L 80.657297 228.111297 
L 80.982277 218.897817 
L 81.632236 194.269593 
L 81.957215 195.726273 
L 82.282195 189.918479 
L 82.932154 169.474784 
L 83.257133 156.015262 
L 83.582113 160.097202 
L 83.907093 149.940049 
L 84.232072 147.948135 
L 85.207011 117.749516 
L 85.53199 133.480396 
L 85.85697 125.001264 
L 86.181949 125.774233 
L 86.506929 126.149224 
L 86.831908 129.642891 
L 87.156888 115.363523 
L 87.481867 130.611876 
L 87.806847 139.397435 
L 88.131826 144.46823 
L 89.106765 107.163739 
L 89.431744 114.651493 
L 89.756724 117.475285 
L 90.081704 109.535739 
L 90.406683 106.198256 
L 90.731663 99.733319 
L 91.056642 84.630256 
L 91.381622 79.595265 
L 91.706601 82.166015 
L 92.031581 105.336374 
L 92.35656 95.468155 
L 92.68154 121.786004 
L 93.006519 114.25156 
L 93.331499 100.808823 
L 93.656478 102.642441 
L 93.981458 107.248595 
L 94.306437 122.31479 
L 94.631417 106.486797 
L 94.956396 114.637294 
L 95.606355 94.37134 
L 95.931335 94.431266 
L 96.256314 101.192223 
L 96.581294 115.658628 
L 96.906274 111.931036 
L 97.231253 105.765417 
L 97.556233 93.588146 
L 97.881212 89.444694 
L 98.206192 69.487887 
L 98.531171 103.647196 
L 98.856151 107.797097 
L 99.18113 114.053713 
L 99.50611 115.673916 
L 99.831089 101.629669 
L 100.156069 93.826469 
L 100.481048 98.70752 
L 100.806028 94.179502 
L 101.131007 108.630584 
L 101.455987 94.746525 
L 101.780966 88.880872 
L 102.105946 123.095987 
L 102.430925 121.454926 
L 103.080885 114.42177 
L 103.405864 114.945279 
L 103.730844 117.382533 
L 104.055823 122.159806 
L 104.380803 122.435092 
L 104.705782 123.773353 
L 105.355741 109.447955 
L 105.680721 105.951921 
L 106.0057 121.430836 
L 106.655659 113.201237 
L 106.980639 106.442264 
L 107.305618 109.761987 
L 107.630598 100.801493 
L 107.955577 103.027219 
L 108.280557 98.204915 
L 108.930516 104.426399 
L 109.255495 104.899322 
L 109.580475 107.521035 
L 109.905455 102.111506 
L 110.230434 105.396575 
L 110.555414 124.308264 
L 110.880393 113.287132 
L 111.205373 113.017943 
L 111.855332 102.41635 
L 112.180311 117.822958 
L 112.505291 118.97009 
L 112.83027 113.36277 
L 113.15525 110.986114 
L 113.480229 99.355915 
L 113.805209 121.355278 
L 114.130188 135.403017 
L 114.455168 137.709076 
L 114.780147 126.829197 
L 115.105127 126.058141 
L 115.430106 121.916568 
L 115.755086 128.570187 
L 116.080066 125.251604 
L 116.405045 131.978302 
L 117.055004 154.842874 
L 117.379984 147.312548 
L 117.704963 147.832444 
L 118.029943 145.250452 
L 118.354922 134.693803 
L 118.679902 175.876893 
L 119.004881 167.502018 
L 119.329861 155.292983 
L 119.97982 165.411958 
L 120.954758 141.472231 
L 121.279738 140.055877 
L 121.604717 134.450426 
L 121.929697 143.441215 
L 122.254676 132.128971 
L 122.904636 117.29286 
L 123.229615 106.703883 
L 123.554595 121.42994 
L 123.879574 122.175648 
L 124.204554 127.785947 
L 124.529533 119.763842 
L 124.854513 107.448776 
L 125.179492 108.111348 
L 125.504472 106.877617 
L 125.829451 108.642499 
L 126.154431 105.476107 
L 126.47941 103.84844 
L 126.80439 106.077019 
L 127.129369 111.756714 
L 127.454349 103.466002 
L 127.779328 111.295282 
L 128.104308 96.584289 
L 128.429287 117.663763 
L 128.754267 115.611508 
L 129.079247 111.302113 
L 129.404226 111.301723 
L 129.729206 101.413875 
L 130.054185 123.812333 
L 130.379165 108.230752 
L 130.704144 102.821583 
L 131.029124 106.71845 
L 131.354103 161.851172 
L 132.004062 137.739171 
L 132.329042 166.499765 
L 132.654021 152.740914 
L 132.979001 146.151928 
L 133.30398 146.984024 
L 133.62896 141.396058 
L 133.953939 121.173384 
L 134.278919 117.46709 
L 134.603898 136.554595 
L 134.928878 141.423439 
L 135.253857 141.175328 
L 135.903817 114.5819 
L 136.228796 116.531976 
L 136.553776 103.922059 
L 136.878755 103.740862 
L 137.203735 99.422673 
L 137.853694 117.202117 
L 138.178673 125.336706 
L 138.503653 113.969097 
L 138.828632 113.709231 
L 139.153612 112.30914 
L 139.478591 118.000995 
L 139.803571 113.043875 
L 140.45353 98.443299 
L 140.778509 100.923051 
L 141.103489 101.665064 
L 141.428468 113.854468 
L 141.753448 106.032471 
L 142.078428 106.260756 
L 142.403407 93.984745 
L 142.728387 96.920369 
L 143.053366 108.184842 
L 143.378346 106.104362 
L 143.703325 98.144782 
L 144.028305 107.661563 
L 144.353284 105.243142 
L 144.678264 107.321412 
L 145.003243 119.52282 
L 145.328223 107.820818 
L 145.653202 114.070083 
L 145.978182 111.930302 
L 146.303161 108.631766 
L 146.628141 119.270405 
L 146.95312 107.618552 
L 147.2781 113.368117 
L 147.928059 134.937094 
L 148.253038 134.219025 
L 148.578018 119.396598 
L 148.902998 126.242994 
L 149.227977 124.019572 
L 149.552957 116.760074 
L 149.877936 121.127523 
L 150.202916 108.351922 
L 150.527895 108.138227 
L 150.852875 108.589313 
L 151.177854 105.102333 
L 151.502834 106.014037 
L 151.827813 117.601623 
L 152.152793 107.656276 
L 152.477772 108.870054 
L 152.802752 130.93318 
L 153.127731 115.644923 
L 153.77769 123.014452 
L 154.10267 121.381721 
L 154.427649 117.29092 
L 155.077609 115.86523 
L 155.402588 109.989128 
L 155.727568 107.932412 
L 156.052547 96.387911 
L 156.377527 101.771479 
L 156.702506 101.861477 
L 157.027486 99.236275 
L 157.352465 104.661746 
L 157.677445 99.489839 
L 158.002424 88.591655 
L 158.327404 95.927736 
L 158.652383 93.905016 
L 159.627322 114.099934 
L 159.952301 116.349816 
L 160.277281 121.327709 
L 160.60226 129.137865 
L 160.92724 123.868545 
L 161.252219 111.403074 
L 161.577199 111.236048 
L 161.902179 116.554855 
L 162.227158 119.085471 
L 162.877117 97.566674 
L 163.202097 105.413215 
L 163.527076 99.453017 
L 163.852056 99.930591 
L 164.177035 93.620406 
L 164.502015 97.908579 
L 164.826994 93.547288 
L 165.151974 90.819264 
L 165.476953 91.777479 
L 165.801933 94.252162 
L 166.451892 91.823588 
L 166.776871 125.337052 
L 167.101851 115.08847 
L 167.42683 108.475874 
L 167.75181 116.896729 
L 168.07679 113.995045 
L 168.401769 117.89247 
L 168.726749 115.69218 
L 169.051728 138.355076 
L 169.376708 127.653813 
L 169.701687 124.268569 
L 170.351646 107.508477 
L 171.001605 128.62635 
L 171.326585 116.050387 
L 171.651564 126.663334 
L 171.976544 125.098499 
L 172.301523 145.313848 
L 172.626503 149.506946 
L 172.951482 144.906892 
L 173.276462 133.932467 
L 173.601441 137.718532 
L 173.926421 130.919611 
L 174.2514 130.199854 
L 174.57638 126.35939 
L 174.90136 109.445021 
L 175.226339 107.207359 
L 175.876298 92.112173 
L 176.201278 107.942995 
L 176.526257 107.162938 
L 176.851237 109.680048 
L 177.176216 116.150711 
L 177.501196 110.547704 
L 177.826175 99.472121 
L 178.476134 124.226393 
L 178.801114 114.118517 
L 179.126093 112.49908 
L 179.451073 107.661294 
L 179.776052 109.658341 
L 180.426011 101.063227 
L 180.750991 112.313303 
L 181.075971 107.45296 
L 181.72593 91.444457 
L 182.050909 94.182265 
L 182.700868 83.321915 
L 183.025848 85.600242 
L 183.350827 103.960919 
L 183.675807 115.495807 
L 184.000786 116.375874 
L 184.325766 129.770073 
L 184.650745 120.962341 
L 184.975725 150.525573 
L 185.300704 141.092199 
L 185.625684 119.229821 
L 185.950663 107.703577 
L 186.275643 101.010484 
L 186.600622 97.597927 
L 186.925602 100.138421 
L 187.250581 93.517322 
L 188.22552 101.120664 
L 188.5505 100.221312 
L 188.875479 81.935377 
L 189.200459 128.498237 
L 189.525438 124.242895 
L 189.850418 142.967981 
L 190.175397 132.939689 
L 190.500377 130.837567 
L 190.825356 126.875818 
L 191.150336 121.546132 
L 191.475315 121.481239 
L 191.800295 103.371772 
L 192.125274 111.138916 
L 192.775233 113.415513 
L 193.100213 107.862063 
L 193.425192 111.011055 
L 193.750172 108.082535 
L 194.075152 95.426007 
L 194.725111 116.93122 
L 195.05009 120.008559 
L 195.37507 121.794045 
L 195.700049 135.340545 
L 196.025029 126.494526 
L 196.350008 125.394806 
L 196.674988 121.792995 
L 197.324947 92.114314 
L 197.649926 84.720033 
L 197.974906 93.379651 
L 198.299885 107.533997 
L 198.624865 97.924462 
L 198.949844 97.675206 
L 199.274824 110.772291 
L 199.599803 158.882931 
L 199.924783 148.594433 
L 200.249762 154.791795 
L 200.574742 144.728417 
L 201.224701 131.402833 
L 201.549681 136.395911 
L 202.19964 118.271435 
L 202.524619 124.677722 
L 202.849599 118.483529 
L 203.174578 114.455689 
L 203.499558 94.614994 
L 203.824537 94.031481 
L 204.149517 84.243229 
L 204.799476 71.944771 
L 205.124455 73.601846 
L 205.449435 77.293367 
L 205.774414 91.136688 
L 206.099394 74.413852 
L 206.424373 76.886558 
L 206.749353 99.137001 
L 207.074333 91.87496 
L 207.399312 123.749537 
L 207.724292 118.736571 
L 208.049271 116.359775 
L 208.374251 116.101634 
L 208.69923 108.945517 
L 209.02421 95.488968 
L 209.349189 103.044611 
L 209.999148 138.529939 
L 210.324128 131.499391 
L 210.649107 114.852659 
L 210.974087 116.445211 
L 211.299066 100.654403 
L 211.624046 102.462344 
L 211.949025 98.306217 
L 212.274005 103.022627 
L 212.598984 99.386392 
L 212.923964 101.928905 
L 213.248943 102.32949 
L 213.573923 107.856754 
L 213.898903 98.097369 
L 214.223882 93.029628 
L 214.548862 109.352386 
L 214.873841 107.904454 
L 215.5238 122.389121 
L 215.84878 114.095586 
L 216.173759 118.773819 
L 216.498739 129.202299 
L 216.823718 115.887549 
L 217.148698 116.399538 
L 217.798657 127.841996 
L 218.123636 124.983159 
L 218.448616 108.310952 
L 219.098575 122.596195 
L 219.423554 128.72788 
L 219.748534 147.752278 
L 220.073514 144.055243 
L 220.398493 138.421741 
L 220.723473 126.480334 
L 221.048452 121.89522 
L 221.373432 113.759593 
L 221.698411 109.106637 
L 222.023391 114.262289 
L 222.34837 110.191305 
L 222.67335 111.170405 
L 222.998329 111.178605 
L 223.323309 86.49968 
L 223.648288 71.069224 
L 223.973268 90.819861 
L 224.298247 89.103965 
L 224.623227 86.282083 
L 224.948206 94.901209 
L 225.273186 91.08163 
L 226.248124 112.736568 
L 226.898084 98.787122 
L 227.223063 130.104398 
L 227.873022 114.60827 
L 228.198002 116.359241 
L 228.847961 140.846996 
L 229.17294 123.96859 
L 229.822899 110.245031 
L 230.147879 114.89625 
L 230.472858 125.468824 
L 231.122817 112.141706 
L 231.772776 122.1679 
L 232.097756 115.711914 
L 232.422735 102.264391 
L 232.747715 116.507774 
L 233.072695 111.909979 
L 233.397674 116.132464 
L 233.722654 99.91768 
L 234.047633 101.448022 
L 234.372613 84.14299 
L 235.347551 99.393646 
L 235.672531 123.735562 
L 235.99751 113.830198 
L 236.32249 114.364556 
L 236.647469 119.226337 
L 237.297428 100.209004 
L 237.622408 97.169351 
L 237.947387 98.500775 
L 238.272367 106.92918 
L 238.597346 103.289807 
L 238.922326 163.102396 
L 239.247305 177.498756 
L 239.572285 185.360011 
L 239.897265 182.715901 
L 240.222244 168.579472 
L 240.547224 159.739637 
L 240.872203 158.144047 
L 241.197183 153.389304 
L 241.522162 139.121227 
L 241.847142 133.802266 
L 242.497101 111.931369 
L 242.82208 109.175171 
L 243.14706 119.11036 
L 243.472039 121.752365 
L 243.797019 120.774818 
L 244.771957 102.525875 
L 245.096937 105.890609 
L 245.421916 106.076521 
L 245.746896 100.215741 
L 246.071876 107.491659 
L 246.396855 109.931022 
L 246.721835 105.785623 
L 247.046814 111.824404 
L 247.371794 108.995679 
L 247.696773 92.647811 
L 248.021753 98.441627 
L 248.346732 96.164258 
L 248.671712 96.15451 
L 248.996691 96.304702 
L 249.321671 132.394593 
L 249.64665 125.263641 
L 249.97163 134.37812 
L 250.296609 133.289252 
L 250.621589 129.681484 
L 250.946568 133.762773 
L 251.271548 119.64835 
L 251.596527 125.40366 
L 251.921507 114.50518 
L 252.246486 127.638698 
L 252.571466 129.720741 
L 252.896446 129.780993 
L 253.221425 118.704162 
L 253.546405 114.183801 
L 253.871384 106.358903 
L 254.196364 128.559116 
L 254.521343 115.684661 
L 254.846323 161.523828 
L 255.171302 142.672412 
L 255.496282 135.862298 
L 255.821261 135.595891 
L 256.146241 136.851203 
L 256.47122 132.534679 
L 256.7962 114.055502 
L 257.446159 104.899935 
L 257.771138 112.477542 
L 258.096118 99.118217 
L 258.421097 102.629659 
L 258.746077 110.803523 
L 259.071057 102.429156 
L 259.721016 124.426221 
L 260.045995 130.563231 
L 260.370975 119.122222 
L 260.695954 128.015308 
L 261.020934 123.961878 
L 261.345913 129.011218 
L 261.670893 108.717469 
L 261.995872 105.354934 
L 262.320852 103.549656 
L 262.645831 78.932568 
L 262.970811 96.930717 
L 263.62077 105.967594 
L 264.270729 87.438619 
L 264.595708 82.151939 
L 264.920688 93.303573 
L 265.245667 99.757941 
L 265.570647 97.385677 
L 265.895627 104.913005 
L 266.220606 99.583586 
L 266.870565 93.578359 
L 267.195545 106.749383 
L 267.520524 112.164751 
L 267.845504 121.200439 
L 268.170483 112.514025 
L 268.495463 113.806859 
L 268.820442 121.391673 
L 269.145422 107.555899 
L 269.470401 99.809852 
L 269.795381 108.525267 
L 270.12036 133.6335 
L 270.770319 116.251689 
L 271.095299 94.811618 
L 271.420278 97.208576 
L 271.745258 102.996432 
L 272.070238 101.640718 
L 272.395217 91.85506 
L 273.045176 109.380934 
L 273.370156 113.024444 
L 273.695135 113.607211 
L 274.020115 104.665939 
L 274.345094 109.640674 
L 274.670074 87.7121 
L 274.995053 93.206385 
L 275.320033 90.478785 
L 275.645012 90.044301 
L 275.969992 99.255832 
L 276.294971 78.346648 
L 276.619951 70.520679 
L 276.94493 80.685407 
L 277.26991 85.659293 
L 277.594889 71.745652 
L 277.919869 76.389622 
L 278.244848 69.602122 
L 278.569828 77.029314 
L 278.894808 72.205351 
L 279.219787 85.592673 
L 279.544767 77.911833 
L 279.869746 84.670441 
L 280.194726 76.428361 
L 280.519705 75.221014 
L 280.844685 94.117754 
L 281.494644 119.912169 
L 281.819623 132.285834 
L 282.144603 140.357926 
L 282.794562 115.98004 
L 283.119541 118.173604 
L 283.444521 130.988802 
L 283.7695 115.350231 
L 284.419459 125.22935 
L 284.744439 120.918667 
L 285.069419 108.640831 
L 285.394398 115.740356 
L 285.719378 106.090773 
L 286.044357 119.170418 
L 286.369337 106.772929 
L 286.694316 123.448023 
L 287.019296 128.906608 
L 287.344275 125.761907 
L 287.669255 116.326045 
L 287.994234 117.653316 
L 288.319214 103.16202 
L 288.644193 96.952016 
L 288.969173 113.391336 
L 289.294152 110.932955 
L 289.619132 117.933952 
L 289.944111 117.442823 
L 290.269091 125.735081 
L 290.91905 112.413299 
L 291.244029 114.040009 
L 291.569009 124.508882 
L 292.218968 136.468683 
L 292.543948 137.378278 
L 292.868927 147.308589 
L 293.193907 139.231027 
L 294.493825 120.642427 
L 294.818804 123.400728 
L 295.468763 106.959031 
L 295.793743 122.120194 
L 296.118722 131.321257 
L 296.443702 144.940472 
L 296.768681 131.01242 
L 297.093661 111.81451 
L 297.41864 107.31658 
L 297.74362 92.132208 
L 298.0686 97.212496 
L 298.393579 95.213926 
L 299.043538 101.408819 
L 299.693497 86.731734 
L 300.018477 103.064019 
L 300.343456 112.36798 
L 300.668436 115.72546 
L 300.993415 105.570142 
L 301.318395 119.052422 
L 301.643374 127.080741 
L 301.968354 125.504333 
L 302.293333 160.862677 
L 302.943292 145.783723 
L 303.593251 135.704937 
L 303.918231 125.469061 
L 304.24321 125.663526 
L 304.56819 139.793079 
L 304.89317 146.376782 
L 305.218149 158.149792 
L 305.868108 128.835502 
L 306.193088 119.322343 
L 306.518067 118.548287 
L 306.843047 114.093196 
L 307.168026 122.639682 
L 307.493006 152.99415 
L 307.817985 148.388723 
L 308.142965 134.73371 
L 308.467944 126.902508 
L 308.792924 127.980963 
L 309.117903 118.797765 
L 309.442883 118.980919 
L 309.767862 115.350066 
L 310.092842 101.154897 
L 310.417821 106.500591 
L 310.742801 105.916916 
L 311.067781 91.682674 
L 311.39276 101.638513 
L 311.71774 97.061868 
L 312.042719 84.666666 
L 312.367699 67.606161 
L 312.692678 73.458691 
L 313.017658 70.792489 
L 313.342637 75.182758 
L 313.992596 61.084327 
L 314.317576 59.389155 
L 314.642555 53.568 
L 315.292514 70.689017 
L 315.617494 75.515084 
L 315.942473 73.780537 
L 316.267453 70.713931 
L 316.592432 81.43717 
L 316.917412 74.962367 
L 317.567371 90.745901 
L 317.892351 114.559246 
L 318.21733 105.113849 
L 318.54231 119.202202 
L 318.867289 105.941053 
L 319.192269 101.675557 
L 319.517248 107.353328 
L 319.842228 91.233026 
L 320.167207 91.546557 
L 320.492187 124.515193 
L 320.817166 130.05217 
L 321.142146 120.071416 
L 321.467125 116.611945 
L 321.792105 115.930034 
L 322.117084 114.109324 
L 322.442064 110.703302 
L 322.767043 104.717257 
L 323.092023 126.605207 
L 323.741982 96.307983 
L 324.066962 105.507114 
L 324.391941 108.077415 
L 324.716921 108.585494 
L 325.0419 95.51106 
L 325.36688 103.518266 
L 325.691859 121.986246 
L 326.016839 127.211208 
L 326.341818 130.243445 
L 326.666798 124.728625 
L 326.991777 106.277996 
L 327.316757 94.866977 
L 327.641736 110.042567 
L 327.966716 107.988746 
L 328.291695 100.905907 
L 328.616675 105.036225 
L 328.941654 98.975479 
L 329.266634 126.87757 
L 329.591613 123.942609 
L 329.916593 111.860113 
L 330.241572 127.191868 
L 330.566552 117.235028 
L 330.891532 151.117394 
L 331.216511 148.727725 
L 331.541491 132.939076 
L 331.86647 132.713749 
L 332.19145 136.724889 
L 332.516429 131.442165 
L 332.841409 122.037624 
L 333.166388 138.885262 
L 333.816347 121.628229 
L 334.141327 110.195875 
L 334.466306 107.229474 
L 334.791286 116.507478 
L 335.116265 130.325881 
L 336.091204 119.944293 
L 336.416183 112.514428 
L 336.741163 97.429525 
L 337.066143 113.671185 
L 337.391122 108.04369 
L 337.716102 110.108754 
L 338.041081 109.393991 
L 338.366061 103.801026 
L 338.69104 117.610043 
L 339.340999 94.699603 
L 339.665979 113.926608 
L 339.990958 109.013235 
L 340.315938 116.155955 
L 340.640917 110.887024 
L 340.965897 100.106776 
L 341.615856 87.343712 
L 341.940835 102.28818 
L 342.265815 99.787586 
L 342.915774 85.383469 
L 343.565733 129.369498 
L 343.890713 118.173239 
L 344.215692 115.511142 
L 344.540672 120.982388 
L 345.51561 85.859541 
L 345.84059 87.96037 
L 346.165569 104.207526 
L 346.490549 104.723006 
L 346.815528 138.435181 
L 347.140508 131.325888 
L 347.465487 138.801864 
L 347.790467 125.574724 
L 348.115446 126.997179 
L 348.440426 129.611811 
L 348.765405 119.112542 
L 349.090385 139.060577 
L 349.740344 125.379734 
L 350.065324 104.788553 
L 350.390303 106.091704 
L 350.715283 111.243717 
L 351.365242 124.820112 
L 352.015201 121.165443 
L 352.34018 117.966199 
L 352.66516 105.668035 
L 352.990139 118.381112 
L 353.315119 115.124111 
L 353.640098 115.549507 
L 353.965078 109.153472 
L 354.290057 108.744972 
L 354.615037 109.487164 
L 354.940016 113.914394 
L 355.264996 120.151785 
L 355.589975 129.717316 
L 355.914955 116.982341 
L 356.239934 119.40221 
L 356.564914 112.332745 
L 356.889894 94.580491 
L 357.214873 113.420557 
L 357.539853 120.415561 
L 357.864832 131.234357 
L 358.189812 110.599124 
L 358.514791 109.44403 
L 358.839771 93.32466 
L 359.814709 126.659425 
L 360.139689 122.730223 
L 360.464668 126.047555 
L 360.789648 122.919224 
L 361.114627 121.043633 
L 361.439607 128.061301 
L 361.764586 125.188222 
L 362.414545 94.024509 
L 362.739525 140.517344 
L 363.064505 120.556744 
L 363.389484 132.217705 
L 363.714464 136.888116 
L 364.039443 133.131899 
L 365.014382 115.126402 
L 365.339361 113.066303 
L 365.664341 123.177864 
L 365.98932 159.38659 
L 366.3143 151.854422 
L 366.639279 139.083322 
L 366.964259 132.298575 
L 367.289238 133.606439 
L 367.614218 124.750652 
L 367.939197 122.921246 
L 368.264177 113.056116 
L 368.589156 152.208889 
L 368.914136 151.287939 
L 369.239115 153.912315 
L 369.564095 146.480995 
L 369.889075 131.957208 
L 370.214054 124.184569 
L 370.539034 113.008296 
L 370.864013 117.16073 
L 371.188993 112.035644 
L 371.513972 141.50783 
L 371.838952 131.612226 
L 372.488911 121.219825 
L 372.81389 125.110762 
L 373.13887 108.226475 
L 373.463849 102.023814 
L 374.113808 119.256606 
L 374.438788 109.057157 
L 374.763767 113.936921 
L 375.088747 116.463823 
L 375.413726 113.393733 
L 375.738706 119.459541 
L 376.063686 103.891012 
L 376.388665 100.696855 
L 376.713645 92.31185 
L 377.038624 92.947124 
L 377.363604 98.533808 
L 378.013563 103.346457 
L 378.338542 133.160373 
L 378.663522 126.911315 
L 378.988501 126.900517 
L 379.313481 117.963214 
L 379.63846 123.916392 
L 379.96344 125.510364 
L 380.288419 122.443299 
L 380.613399 122.268928 
L 380.938378 116.621681 
L 381.263358 136.62558 
L 381.588337 137.794772 
L 382.238296 116.06809 
L 382.563276 112.408315 
L 383.213235 88.174607 
L 383.538215 89.330592 
L 383.863194 94.589822 
L 384.188174 95.254189 
L 384.513153 97.664227 
L 384.838133 96.389272 
L 385.163112 123.809333 
L 385.488092 115.906793 
L 385.813071 113.847812 
L 386.138051 122.744717 
L 386.46303 152.915714 
L 386.78801 134.513375 
L 387.112989 130.876296 
L 387.437969 137.585903 
L 387.762948 137.780677 
L 388.087928 131.338113 
L 388.412907 122.583421 
L 388.737887 133.244867 
L 389.062867 120.74993 
L 389.387846 137.531578 
L 389.712826 122.652243 
L 390.037805 118.314133 
L 390.362785 117.191938 
L 390.687764 111.054781 
L 391.012744 97.993269 
L 391.662703 132.449173 
L 392.312662 98.516112 
L 392.637641 102.255593 
L 392.962621 102.333116 
L 393.2876 94.850526 
L 393.61258 96.651436 
L 393.937559 91.700012 
L 394.262539 90.8719 
L 394.587518 101.299067 
L 394.912498 105.729382 
L 395.237477 115.008302 
L 395.562457 111.175944 
L 395.887437 98.491342 
L 396.212416 102.989118 
L 396.537396 95.39352 
L 396.862375 100.86694 
L 397.187355 95.346507 
L 397.512334 112.40557 
L 397.837314 108.166615 
L 398.162293 116.569563 
L 398.487273 119.733031 
L 398.487273 119.733031 
" style="fill:none;stroke:#1f77b4;stroke-linecap:square;stroke-width:1.5;"/>
   </g>
   <g id="line2d_16">
    <path clip-path="url(#p514fe89c64)" d="M 73.832727 288.293538 
L 78.382441 288.499246 
L 85.85697 289.026598 
L 91.056642 289.218603 
L 92.35656 289.224495 
L 93.006519 289.200363 
L 93.981458 289.235184 
L 94.956396 289.230492 
L 96.256314 289.286159 
L 97.231253 289.294122 
L 98.531171 289.32628 
L 101.455987 289.409257 
L 102.430925 289.360852 
L 105.680721 289.452175 
L 106.655659 289.45465 
L 108.930516 289.526113 
L 116.730025 289.567566 
L 117.379984 289.564883 
L 122.254676 289.734905 
L 123.879574 289.800475 
L 124.529533 289.824428 
L 125.504472 289.887301 
L 131.029124 289.990139 
L 131.354103 289.765323 
L 132.004062 289.892843 
L 132.329042 289.766818 
L 133.30398 289.878179 
L 134.928878 289.936805 
L 135.578837 290.02453 
L 136.878755 290.144173 
L 137.853694 290.115896 
L 138.503653 290.143128 
L 144.678264 290.26726 
L 145.003243 290.21451 
L 145.653202 290.248428 
L 147.603079 290.23772 
L 148.253038 290.200871 
L 148.902998 290.252391 
L 152.477772 290.41121 
L 152.802752 290.310981 
L 153.452711 290.381638 
L 155.077609 290.434097 
L 157.027486 290.54828 
L 157.677445 290.555623 
L 158.327404 290.585461 
L 159.302342 290.546931 
L 160.92724 290.484139 
L 161.577199 290.566578 
L 162.227158 290.533646 
L 162.877117 290.661678 
L 163.527076 290.655969 
L 166.451892 290.747756 
L 166.776871 290.575444 
L 167.42683 290.683632 
L 168.401769 290.64951 
L 168.726749 290.668989 
L 169.051728 290.539298 
L 170.351646 290.74977 
L 171.001605 290.641937 
L 171.326585 290.7215 
L 172.626503 290.547261 
L 176.201278 290.870203 
L 178.151155 290.864335 
L 178.476134 290.804301 
L 179.451073 290.919455 
L 181.075971 290.951097 
L 182.700868 291.12655 
L 183.350827 291.017751 
L 184.325766 290.864105 
L 184.650745 290.924039 
L 184.975725 290.724646 
L 186.925602 291.100885 
L 187.900541 291.135539 
L 188.5505 291.139351 
L 188.875479 291.256511 
L 189.200459 290.976613 
L 189.525438 291.01508 
L 189.850418 290.883393 
L 190.825356 291.015568 
L 192.450254 291.151552 
L 193.750172 291.210803 
L 194.075152 291.301357 
L 195.700049 291.060589 
L 197.649926 291.444418 
L 198.624865 291.372682 
L 199.274824 291.303601 
L 199.599803 290.948021 
L 199.924783 291.040365 
L 200.249762 290.997319 
L 201.224701 291.203955 
L 201.87466 291.234743 
L 202.19964 291.318673 
L 202.849599 291.331997 
L 203.824537 291.526097 
L 204.799476 291.69688 
L 206.424373 291.672062 
L 206.749353 291.537595 
L 207.074333 291.596259 
L 207.399312 291.373794 
L 209.349189 291.581918 
L 209.999148 291.315599 
L 211.949025 291.663771 
L 212.923964 291.656346 
L 214.873841 291.619241 
L 215.5238 291.519887 
L 216.173759 291.564777 
L 216.498739 291.483575 
L 217.148698 291.600557 
L 218.123636 291.550409 
L 218.448616 291.690745 
L 220.073514 291.445139 
L 222.34837 291.77684 
L 222.998329 291.779546 
L 223.648288 292.016453 
L 223.973268 291.87209 
L 225.273186 291.883505 
L 226.248124 291.752187 
L 226.898084 291.875826 
L 227.223063 291.611965 
L 228.198002 291.743059 
L 228.847961 291.538829 
L 229.49792 291.763219 
L 230.147879 291.788299 
L 230.472858 291.707683 
L 231.447797 291.788891 
L 232.097756 291.814462 
L 232.422735 291.934939 
L 232.747715 291.820754 
L 234.697592 292.073967 
L 235.99751 291.88357 
L 236.972449 291.929967 
L 237.622408 292.05302 
L 238.597346 292.032321 
L 238.922326 291.51185 
L 239.572285 291.288543 
L 239.897265 291.325962 
L 240.547224 291.593042 
L 241.197183 291.661591 
L 241.847142 291.87182 
L 242.82208 292.116291 
L 243.472039 292.017696 
L 244.121998 292.059786 
L 245.746896 292.215957 
L 246.396855 292.142474 
L 248.346732 292.314972 
L 248.996691 292.325797 
L 249.321671 292.029911 
L 249.64665 292.106864 
L 250.296609 292.042176 
L 251.921507 292.248354 
L 252.571466 292.10619 
L 252.896446 292.108843 
L 253.871384 292.353626 
L 254.196364 292.150793 
L 254.521343 292.283063 
L 254.846323 291.842692 
L 255.171302 292.057414 
L 255.821261 292.146103 
L 256.47122 292.192236 
L 256.7962 292.383831 
L 258.421097 292.532076 
L 258.746077 292.458213 
L 259.071057 292.543316 
L 260.045995 292.279333 
L 260.370975 292.404037 
L 260.695954 292.32186 
L 262.320852 292.600162 
L 262.645831 292.833377 
L 263.29579 292.626379 
L 263.62077 292.597467 
L 264.595708 292.843419 
L 265.245667 292.678528 
L 266.870565 292.780179 
L 267.845504 292.529495 
L 268.495463 292.618387 
L 268.820442 292.537894 
L 269.470401 292.772258 
L 269.795381 292.694605 
L 270.12036 292.43372 
L 270.770319 292.630186 
L 271.095299 292.847032 
L 272.070238 292.804863 
L 272.395217 292.908399 
L 273.370156 292.717181 
L 274.345094 292.77203 
L 274.670074 292.998374 
L 275.320033 292.986257 
L 276.294971 293.111937 
L 276.619951 293.190509 
L 277.26991 293.061264 
L 277.594889 293.199228 
L 277.919869 293.158258 
L 278.244848 293.231295 
L 279.219787 293.085967 
L 279.544767 293.164945 
L 279.869746 293.108496 
L 280.519705 293.189467 
L 281.494644 292.761599 
L 282.144603 292.542247 
L 282.794562 292.803039 
L 283.119541 292.789019 
L 283.444521 292.633333 
L 283.7695 292.813777 
L 284.744439 292.77318 
L 285.069419 292.913759 
L 285.394398 292.845652 
L 285.719378 292.926527 
L 286.044357 292.79432 
L 286.369337 292.932794 
L 287.019296 292.706957 
L 287.994234 292.85964 
L 288.644193 293.09005 
L 288.969173 292.905577 
L 289.619132 292.860946 
L 291.569009 292.82155 
L 292.868927 292.556761 
L 293.843866 292.789048 
L 294.493825 292.906974 
L 294.818804 292.877086 
L 295.468763 293.077527 
L 296.443702 292.653862 
L 297.74362 293.28911 
L 298.718559 293.25517 
L 299.368518 293.300906 
L 299.693497 293.384521 
L 300.343456 293.12324 
L 300.668436 293.093721 
L 300.993415 293.217094 
L 301.643374 292.984653 
L 301.968354 293.027799 
L 302.293333 292.706454 
L 303.268272 293.017162 
L 304.24321 293.221618 
L 304.89317 292.977699 
L 305.218149 292.825166 
L 305.868108 293.235146 
L 306.518067 293.383604 
L 306.843047 293.441076 
L 307.168026 293.338743 
L 307.493006 292.925588 
L 307.817985 292.997546 
L 308.467944 293.295757 
L 308.792924 293.27864 
L 309.442883 293.402329 
L 309.767862 293.455334 
L 310.092842 293.631799 
L 310.742801 293.586262 
L 311.067781 293.757775 
L 311.39276 293.671899 
L 312.042719 293.882661 
L 312.367699 294.074556 
L 313.017658 294.030433 
L 313.342637 293.98754 
L 314.642555 294.231324 
L 315.292514 294.020061 
L 315.942473 293.989139 
L 316.267453 294.033715 
L 316.592432 293.918311 
L 316.917412 293.996099 
L 317.567371 293.829717 
L 317.892351 293.55008 
L 318.21733 293.678824 
L 318.54231 293.503813 
L 319.192269 293.737619 
L 319.517248 293.680437 
L 319.842228 293.879491 
L 320.167207 293.886622 
L 320.492187 293.537922 
L 320.817166 293.480148 
L 321.467125 293.683423 
L 322.442064 293.785107 
L 322.767043 293.866003 
L 323.092023 293.580724 
L 323.741982 293.986306 
L 324.391941 293.845104 
L 324.716921 293.844583 
L 325.0419 293.985037 
L 325.36688 293.895532 
L 325.691859 293.665439 
L 326.341818 293.546015 
L 326.666798 293.624332 
L 327.316757 294.02102 
L 327.641736 293.826275 
L 328.941654 293.97378 
L 329.266634 293.59167 
L 329.591613 293.638901 
L 329.916593 293.802846 
L 330.241572 293.629862 
L 330.566552 293.77136 
L 330.891532 293.449911 
L 331.216511 293.487712 
L 331.541491 293.726702 
L 332.841409 293.906879 
L 333.166388 293.674811 
L 334.466306 294.139862 
L 335.441245 293.908282 
L 336.416183 294.129919 
L 336.741163 294.337143 
L 337.066143 294.111285 
L 337.716102 294.174501 
L 338.366061 294.271101 
L 338.69104 294.082695 
L 339.340999 294.405738 
L 339.665979 294.171526 
L 339.990958 294.246631 
L 340.315938 294.152358 
L 341.290876 294.464568 
L 341.615856 294.565277 
L 341.940835 294.378961 
L 342.590794 294.516943 
L 342.915774 294.607068 
L 343.565733 294.031812 
L 343.890713 294.200778 
L 344.215692 294.240888 
L 344.540672 294.150539 
L 345.51561 294.654713 
L 345.84059 294.644148 
L 346.165569 294.42346 
L 346.490549 294.424296 
L 346.815528 293.941927 
L 347.140508 294.059959 
L 347.465487 293.952625 
L 347.790467 294.162209 
L 348.440426 294.103851 
L 348.765405 294.265693 
L 349.090385 293.998455 
L 349.740344 294.226222 
L 350.065324 294.529711 
L 350.715283 294.448966 
L 351.365242 294.238364 
L 352.34018 294.348337 
L 352.66516 294.5319 
L 352.990139 294.351709 
L 354.615037 294.512421 
L 355.264996 294.37216 
L 355.589975 294.230719 
L 355.914955 294.427534 
L 356.239934 294.395433 
L 356.564914 294.5067 
L 356.889894 294.766528 
L 357.214873 294.506732 
L 357.864832 294.249942 
L 358.189812 294.565712 
L 358.514791 294.584481 
L 358.839771 294.821997 
L 359.814709 294.352472 
L 360.139689 294.428806 
L 360.789648 294.437225 
L 361.114627 294.477021 
L 361.439607 294.367084 
L 361.764586 294.419996 
L 362.414545 294.894225 
L 362.739525 294.257907 
L 363.064505 294.585022 
L 363.714464 294.34392 
L 365.339361 294.746304 
L 365.664341 294.590446 
L 365.98932 294.061525 
L 366.964259 294.552998 
L 367.289238 294.501888 
L 368.264177 294.849443 
L 368.589156 294.067044 
L 369.564095 294.201749 
L 370.214054 294.588413 
L 370.539034 294.757606 
L 370.864013 294.690754 
L 371.188993 294.774357 
L 371.513972 294.357605 
L 372.163931 294.636487 
L 372.488911 294.711317 
L 372.81389 294.622467 
L 373.13887 294.892599 
L 373.463849 294.991303 
L 374.113808 294.734203 
L 374.438788 294.8988 
L 375.088747 294.800619 
L 375.413726 294.850246 
L 375.738706 294.765209 
L 376.063686 295.002721 
L 377.038624 295.12897 
L 378.013563 295.000066 
L 378.338542 294.556978 
L 379.313481 294.817221 
L 379.96344 294.709441 
L 380.938378 294.876596 
L 381.263358 294.544976 
L 381.588337 294.532837 
L 382.238296 294.902204 
L 382.563276 294.966966 
L 383.213235 295.345872 
L 384.838133 295.257718 
L 385.163112 294.831331 
L 385.813071 295.004211 
L 386.138051 294.835325 
L 386.46303 294.332928 
L 386.78801 294.67002 
L 387.112989 294.736043 
L 387.762948 294.63087 
L 388.412907 294.9012 
L 388.737887 294.677409 
L 389.062867 294.895594 
L 389.387846 294.623977 
L 389.712826 294.879249 
L 390.687764 295.085824 
L 391.012744 295.294119 
L 391.662703 294.774532 
L 392.312662 295.335324 
L 392.962621 295.288839 
L 393.2876 295.410142 
L 393.937559 295.471005 
L 394.262539 295.488 
L 395.237477 295.130164 
L 395.562457 295.199693 
L 395.887437 295.399778 
L 396.212416 295.336723 
L 396.537396 295.462265 
L 396.862375 295.385789 
L 397.187355 295.477038 
L 397.512334 295.210309 
L 397.837314 295.278653 
L 398.487273 295.103695 
L 398.487273 295.103695 
" style="fill:none;stroke:#ff7f0e;stroke-linecap:square;stroke-width:1.5;"/>
   </g>
   <g id="patch_3">
    <path d="M 57.6 307.584 
L 57.6 41.472 
" style="fill:none;stroke:#000000;stroke-linecap:square;stroke-linejoin:miter;stroke-width:0.8;"/>
   </g>
   <g id="patch_4">
    <path d="M 414.72 307.584 
L 414.72 41.472 
" style="fill:none;stroke:#000000;stroke-linecap:square;stroke-linejoin:miter;stroke-width:0.8;"/>
   </g>
   <g id="patch_5">
    <path d="M 57.6 307.584 
L 414.72 307.584 
" style="fill:none;stroke:#000000;stroke-linecap:square;stroke-linejoin:miter;stroke-width:0.8;"/>
   </g>
   <g id="patch_6">
    <path d="M 57.6 41.472 
L 414.72 41.472 
" style="fill:none;stroke:#000000;stroke-linecap:square;stroke-linejoin:miter;stroke-width:0.8;"/>
   </g>
  </g>
 </g>
 <defs>
  <clipPath id="p514fe89c64">
   <rect height="266.112" width="357.12" x="57.6" y="41.472"/>
  </clipPath>
 </defs>
</svg>
