<?xml version="1.0" encoding="utf-8" standalone="no"?>
<!DOCTYPE svg PUBLIC "-//W3C//DTD SVG 1.1//EN"
  "http://www.w3.org/Graphics/SVG/1.1/DTD/svg11.dtd">
<!-- Created with matplotlib (https://matplotlib.org/) -->
<svg height="345.6pt" version="1.1" viewBox="0 0 460.8 345.6" width="460.8pt" xmlns="http://www.w3.org/2000/svg" xmlns:xlink="http://www.w3.org/1999/xlink">
 <metadata>
  <rdf:RDF xmlns:cc="http://creativecommons.org/ns#" xmlns:dc="http://purl.org/dc/elements/1.1/" xmlns:rdf="http://www.w3.org/1999/02/22-rdf-syntax-ns#">
   <cc:Work>
    <dc:type rdf:resource="http://purl.org/dc/dcmitype/StillImage"/>
    <dc:date>2020-10-07T15:20:53.421252</dc:date>
    <dc:format>image/svg+xml</dc:format>
    <dc:creator>
     <cc:Agent>
      <dc:title>Matplotlib v3.3.2, https://matplotlib.org/</dc:title>
     </cc:Agent>
    </dc:creator>
   </cc:Work>
  </rdf:RDF>
 </metadata>
 <defs>
  <style type="text/css">*{stroke-linecap:butt;stroke-linejoin:round;}</style>
 </defs>
 <g id="figure_1">
  <g id="patch_1">
   <path d="M 0 345.6 
L 460.8 345.6 
L 460.8 0 
L 0 0 
z
" style="fill:#ffffff;"/>
  </g>
  <g id="axes_1">
   <g id="patch_2">
    <path d="M 57.6 307.584 
L 414.72 307.584 
L 414.72 41.472 
L 57.6 41.472 
z
" style="fill:#ffffff;"/>
   </g>
   <g id="matplotlib.axis_1">
    <g id="xtick_1">
     <g id="line2d_1">
      <defs>
       <path d="M 0 0 
L 0 3.5 
" id="m60daf9ac36" style="stroke:#000000;stroke-width:0.8;"/>
      </defs>
      <g>
       <use style="stroke:#000000;stroke-width:0.8;" x="73.832727" xlink:href="#m60daf9ac36" y="307.584"/>
      </g>
     </g>
     <g id="text_1">
      <!-- 0 -->
      <g transform="translate(70.651477 322.182437)scale(0.1 -0.1)">
       <defs>
        <path d="M 31.78125 66.40625 
Q 24.171875 66.40625 20.328125 58.90625 
Q 16.5 51.421875 16.5 36.375 
Q 16.5 21.390625 20.328125 13.890625 
Q 24.171875 6.390625 31.78125 6.390625 
Q 39.453125 6.390625 43.28125 13.890625 
Q 47.125 21.390625 47.125 36.375 
Q 47.125 51.421875 43.28125 58.90625 
Q 39.453125 66.40625 31.78125 66.40625 
z
M 31.78125 74.21875 
Q 44.046875 74.21875 50.515625 64.515625 
Q 56.984375 54.828125 56.984375 36.375 
Q 56.984375 17.96875 50.515625 8.265625 
Q 44.046875 -1.421875 31.78125 -1.421875 
Q 19.53125 -1.421875 13.0625 8.265625 
Q 6.59375 17.96875 6.59375 36.375 
Q 6.59375 54.828125 13.0625 64.515625 
Q 19.53125 74.21875 31.78125 74.21875 
z
" id="DejaVuSans-48"/>
       </defs>
       <use xlink:href="#DejaVuSans-48"/>
      </g>
     </g>
    </g>
    <g id="xtick_2">
     <g id="line2d_2">
      <g>
       <use style="stroke:#000000;stroke-width:0.8;" x="138.828632" xlink:href="#m60daf9ac36" y="307.584"/>
      </g>
     </g>
     <g id="text_2">
      <!-- 20 -->
      <g transform="translate(132.466132 322.182437)scale(0.1 -0.1)">
       <defs>
        <path d="M 19.1875 8.296875 
L 53.609375 8.296875 
L 53.609375 0 
L 7.328125 0 
L 7.328125 8.296875 
Q 12.9375 14.109375 22.625 23.890625 
Q 32.328125 33.6875 34.8125 36.53125 
Q 39.546875 41.84375 41.421875 45.53125 
Q 43.3125 49.21875 43.3125 52.78125 
Q 43.3125 58.59375 39.234375 62.25 
Q 35.15625 65.921875 28.609375 65.921875 
Q 23.96875 65.921875 18.8125 64.3125 
Q 13.671875 62.703125 7.8125 59.421875 
L 7.8125 69.390625 
Q 13.765625 71.78125 18.9375 73 
Q 24.125 74.21875 28.421875 74.21875 
Q 39.75 74.21875 46.484375 68.546875 
Q 53.21875 62.890625 53.21875 53.421875 
Q 53.21875 48.921875 51.53125 44.890625 
Q 49.859375 40.875 45.40625 35.40625 
Q 44.1875 33.984375 37.640625 27.21875 
Q 31.109375 20.453125 19.1875 8.296875 
z
" id="DejaVuSans-50"/>
       </defs>
       <use xlink:href="#DejaVuSans-50"/>
       <use x="63.623047" xlink:href="#DejaVuSans-48"/>
      </g>
     </g>
    </g>
    <g id="xtick_3">
     <g id="line2d_3">
      <g>
       <use style="stroke:#000000;stroke-width:0.8;" x="203.824537" xlink:href="#m60daf9ac36" y="307.584"/>
      </g>
     </g>
     <g id="text_3">
      <!-- 40 -->
      <g transform="translate(197.462037 322.182437)scale(0.1 -0.1)">
       <defs>
        <path d="M 37.796875 64.3125 
L 12.890625 25.390625 
L 37.796875 25.390625 
z
M 35.203125 72.90625 
L 47.609375 72.90625 
L 47.609375 25.390625 
L 58.015625 25.390625 
L 58.015625 17.1875 
L 47.609375 17.1875 
L 47.609375 0 
L 37.796875 0 
L 37.796875 17.1875 
L 4.890625 17.1875 
L 4.890625 26.703125 
z
" id="DejaVuSans-52"/>
       </defs>
       <use xlink:href="#DejaVuSans-52"/>
       <use x="63.623047" xlink:href="#DejaVuSans-48"/>
      </g>
     </g>
    </g>
    <g id="xtick_4">
     <g id="line2d_4">
      <g>
       <use style="stroke:#000000;stroke-width:0.8;" x="268.820442" xlink:href="#m60daf9ac36" y="307.584"/>
      </g>
     </g>
     <g id="text_4">
      <!-- 60 -->
      <g transform="translate(262.457942 322.182437)scale(0.1 -0.1)">
       <defs>
        <path d="M 33.015625 40.375 
Q 26.375 40.375 22.484375 35.828125 
Q 18.609375 31.296875 18.609375 23.390625 
Q 18.609375 15.53125 22.484375 10.953125 
Q 26.375 6.390625 33.015625 6.390625 
Q 39.65625 6.390625 43.53125 10.953125 
Q 47.40625 15.53125 47.40625 23.390625 
Q 47.40625 31.296875 43.53125 35.828125 
Q 39.65625 40.375 33.015625 40.375 
z
M 52.59375 71.296875 
L 52.59375 62.3125 
Q 48.875 64.0625 45.09375 64.984375 
Q 41.3125 65.921875 37.59375 65.921875 
Q 27.828125 65.921875 22.671875 59.328125 
Q 17.53125 52.734375 16.796875 39.40625 
Q 19.671875 43.65625 24.015625 45.921875 
Q 28.375 48.1875 33.59375 48.1875 
Q 44.578125 48.1875 50.953125 41.515625 
Q 57.328125 34.859375 57.328125 23.390625 
Q 57.328125 12.15625 50.6875 5.359375 
Q 44.046875 -1.421875 33.015625 -1.421875 
Q 20.359375 -1.421875 13.671875 8.265625 
Q 6.984375 17.96875 6.984375 36.375 
Q 6.984375 53.65625 15.1875 63.9375 
Q 23.390625 74.21875 37.203125 74.21875 
Q 40.921875 74.21875 44.703125 73.484375 
Q 48.484375 72.75 52.59375 71.296875 
z
" id="DejaVuSans-54"/>
       </defs>
       <use xlink:href="#DejaVuSans-54"/>
       <use x="63.623047" xlink:href="#DejaVuSans-48"/>
      </g>
     </g>
    </g>
    <g id="xtick_5">
     <g id="line2d_5">
      <g>
       <use style="stroke:#000000;stroke-width:0.8;" x="333.816347" xlink:href="#m60daf9ac36" y="307.584"/>
      </g>
     </g>
     <g id="text_5">
      <!-- 80 -->
      <g transform="translate(327.453847 322.182437)scale(0.1 -0.1)">
       <defs>
        <path d="M 31.78125 34.625 
Q 24.75 34.625 20.71875 30.859375 
Q 16.703125 27.09375 16.703125 20.515625 
Q 16.703125 13.921875 20.71875 10.15625 
Q 24.75 6.390625 31.78125 6.390625 
Q 38.8125 6.390625 42.859375 10.171875 
Q 46.921875 13.96875 46.921875 20.515625 
Q 46.921875 27.09375 42.890625 30.859375 
Q 38.875 34.625 31.78125 34.625 
z
M 21.921875 38.8125 
Q 15.578125 40.375 12.03125 44.71875 
Q 8.5 49.078125 8.5 55.328125 
Q 8.5 64.0625 14.71875 69.140625 
Q 20.953125 74.21875 31.78125 74.21875 
Q 42.671875 74.21875 48.875 69.140625 
Q 55.078125 64.0625 55.078125 55.328125 
Q 55.078125 49.078125 51.53125 44.71875 
Q 48 40.375 41.703125 38.8125 
Q 48.828125 37.15625 52.796875 32.3125 
Q 56.78125 27.484375 56.78125 20.515625 
Q 56.78125 9.90625 50.3125 4.234375 
Q 43.84375 -1.421875 31.78125 -1.421875 
Q 19.734375 -1.421875 13.25 4.234375 
Q 6.78125 9.90625 6.78125 20.515625 
Q 6.78125 27.484375 10.78125 32.3125 
Q 14.796875 37.15625 21.921875 38.8125 
z
M 18.3125 54.390625 
Q 18.3125 48.734375 21.84375 45.5625 
Q 25.390625 42.390625 31.78125 42.390625 
Q 38.140625 42.390625 41.71875 45.5625 
Q 45.3125 48.734375 45.3125 54.390625 
Q 45.3125 60.0625 41.71875 63.234375 
Q 38.140625 66.40625 31.78125 66.40625 
Q 25.390625 66.40625 21.84375 63.234375 
Q 18.3125 60.0625 18.3125 54.390625 
z
" id="DejaVuSans-56"/>
       </defs>
       <use xlink:href="#DejaVuSans-56"/>
       <use x="63.623047" xlink:href="#DejaVuSans-48"/>
      </g>
     </g>
    </g>
    <g id="xtick_6">
     <g id="line2d_6">
      <g>
       <use style="stroke:#000000;stroke-width:0.8;" x="398.812252" xlink:href="#m60daf9ac36" y="307.584"/>
      </g>
     </g>
     <g id="text_6">
      <!-- 100 -->
      <g transform="translate(389.268502 322.182437)scale(0.1 -0.1)">
       <defs>
        <path d="M 12.40625 8.296875 
L 28.515625 8.296875 
L 28.515625 63.921875 
L 10.984375 60.40625 
L 10.984375 69.390625 
L 28.421875 72.90625 
L 38.28125 72.90625 
L 38.28125 8.296875 
L 54.390625 8.296875 
L 54.390625 0 
L 12.40625 0 
z
" id="DejaVuSans-49"/>
       </defs>
       <use xlink:href="#DejaVuSans-49"/>
       <use x="63.623047" xlink:href="#DejaVuSans-48"/>
       <use x="127.246094" xlink:href="#DejaVuSans-48"/>
      </g>
     </g>
    </g>
    <g id="text_7">
     <!-- Time (days) -->
     <g transform="translate(206.633437 335.860562)scale(0.1 -0.1)">
      <defs>
       <path d="M -0.296875 72.90625 
L 61.375 72.90625 
L 61.375 64.59375 
L 35.5 64.59375 
L 35.5 0 
L 25.59375 0 
L 25.59375 64.59375 
L -0.296875 64.59375 
z
" id="DejaVuSans-84"/>
       <path d="M 9.421875 54.6875 
L 18.40625 54.6875 
L 18.40625 0 
L 9.421875 0 
z
M 9.421875 75.984375 
L 18.40625 75.984375 
L 18.40625 64.59375 
L 9.421875 64.59375 
z
" id="DejaVuSans-105"/>
       <path d="M 52 44.1875 
Q 55.375 50.25 60.0625 53.125 
Q 64.75 56 71.09375 56 
Q 79.640625 56 84.28125 50.015625 
Q 88.921875 44.046875 88.921875 33.015625 
L 88.921875 0 
L 79.890625 0 
L 79.890625 32.71875 
Q 79.890625 40.578125 77.09375 44.375 
Q 74.3125 48.1875 68.609375 48.1875 
Q 61.625 48.1875 57.5625 43.546875 
Q 53.515625 38.921875 53.515625 30.90625 
L 53.515625 0 
L 44.484375 0 
L 44.484375 32.71875 
Q 44.484375 40.625 41.703125 44.40625 
Q 38.921875 48.1875 33.109375 48.1875 
Q 26.21875 48.1875 22.15625 43.53125 
Q 18.109375 38.875 18.109375 30.90625 
L 18.109375 0 
L 9.078125 0 
L 9.078125 54.6875 
L 18.109375 54.6875 
L 18.109375 46.1875 
Q 21.1875 51.21875 25.484375 53.609375 
Q 29.78125 56 35.6875 56 
Q 41.65625 56 45.828125 52.96875 
Q 50 49.953125 52 44.1875 
z
" id="DejaVuSans-109"/>
       <path d="M 56.203125 29.59375 
L 56.203125 25.203125 
L 14.890625 25.203125 
Q 15.484375 15.921875 20.484375 11.0625 
Q 25.484375 6.203125 34.421875 6.203125 
Q 39.59375 6.203125 44.453125 7.46875 
Q 49.3125 8.734375 54.109375 11.28125 
L 54.109375 2.78125 
Q 49.265625 0.734375 44.1875 -0.34375 
Q 39.109375 -1.421875 33.890625 -1.421875 
Q 20.796875 -1.421875 13.15625 6.1875 
Q 5.515625 13.8125 5.515625 26.8125 
Q 5.515625 40.234375 12.765625 48.109375 
Q 20.015625 56 32.328125 56 
Q 43.359375 56 49.78125 48.890625 
Q 56.203125 41.796875 56.203125 29.59375 
z
M 47.21875 32.234375 
Q 47.125 39.59375 43.09375 43.984375 
Q 39.0625 48.390625 32.421875 48.390625 
Q 24.90625 48.390625 20.390625 44.140625 
Q 15.875 39.890625 15.1875 32.171875 
z
" id="DejaVuSans-101"/>
       <path id="DejaVuSans-32"/>
       <path d="M 31 75.875 
Q 24.46875 64.65625 21.28125 53.65625 
Q 18.109375 42.671875 18.109375 31.390625 
Q 18.109375 20.125 21.3125 9.0625 
Q 24.515625 -2 31 -13.1875 
L 23.1875 -13.1875 
Q 15.875 -1.703125 12.234375 9.375 
Q 8.59375 20.453125 8.59375 31.390625 
Q 8.59375 42.28125 12.203125 53.3125 
Q 15.828125 64.359375 23.1875 75.875 
z
" id="DejaVuSans-40"/>
       <path d="M 45.40625 46.390625 
L 45.40625 75.984375 
L 54.390625 75.984375 
L 54.390625 0 
L 45.40625 0 
L 45.40625 8.203125 
Q 42.578125 3.328125 38.25 0.953125 
Q 33.9375 -1.421875 27.875 -1.421875 
Q 17.96875 -1.421875 11.734375 6.484375 
Q 5.515625 14.40625 5.515625 27.296875 
Q 5.515625 40.1875 11.734375 48.09375 
Q 17.96875 56 27.875 56 
Q 33.9375 56 38.25 53.625 
Q 42.578125 51.265625 45.40625 46.390625 
z
M 14.796875 27.296875 
Q 14.796875 17.390625 18.875 11.75 
Q 22.953125 6.109375 30.078125 6.109375 
Q 37.203125 6.109375 41.296875 11.75 
Q 45.40625 17.390625 45.40625 27.296875 
Q 45.40625 37.203125 41.296875 42.84375 
Q 37.203125 48.484375 30.078125 48.484375 
Q 22.953125 48.484375 18.875 42.84375 
Q 14.796875 37.203125 14.796875 27.296875 
z
" id="DejaVuSans-100"/>
       <path d="M 34.28125 27.484375 
Q 23.390625 27.484375 19.1875 25 
Q 14.984375 22.515625 14.984375 16.5 
Q 14.984375 11.71875 18.140625 8.90625 
Q 21.296875 6.109375 26.703125 6.109375 
Q 34.1875 6.109375 38.703125 11.40625 
Q 43.21875 16.703125 43.21875 25.484375 
L 43.21875 27.484375 
z
M 52.203125 31.203125 
L 52.203125 0 
L 43.21875 0 
L 43.21875 8.296875 
Q 40.140625 3.328125 35.546875 0.953125 
Q 30.953125 -1.421875 24.3125 -1.421875 
Q 15.921875 -1.421875 10.953125 3.296875 
Q 6 8.015625 6 15.921875 
Q 6 25.140625 12.171875 29.828125 
Q 18.359375 34.515625 30.609375 34.515625 
L 43.21875 34.515625 
L 43.21875 35.40625 
Q 43.21875 41.609375 39.140625 45 
Q 35.0625 48.390625 27.6875 48.390625 
Q 23 48.390625 18.546875 47.265625 
Q 14.109375 46.140625 10.015625 43.890625 
L 10.015625 52.203125 
Q 14.9375 54.109375 19.578125 55.046875 
Q 24.21875 56 28.609375 56 
Q 40.484375 56 46.34375 49.84375 
Q 52.203125 43.703125 52.203125 31.203125 
z
" id="DejaVuSans-97"/>
       <path d="M 32.171875 -5.078125 
Q 28.375 -14.84375 24.75 -17.8125 
Q 21.140625 -20.796875 15.09375 -20.796875 
L 7.90625 -20.796875 
L 7.90625 -13.28125 
L 13.1875 -13.28125 
Q 16.890625 -13.28125 18.9375 -11.515625 
Q 21 -9.765625 23.484375 -3.21875 
L 25.09375 0.875 
L 2.984375 54.6875 
L 12.5 54.6875 
L 29.59375 11.921875 
L 46.6875 54.6875 
L 56.203125 54.6875 
z
" id="DejaVuSans-121"/>
       <path d="M 44.28125 53.078125 
L 44.28125 44.578125 
Q 40.484375 46.53125 36.375 47.5 
Q 32.28125 48.484375 27.875 48.484375 
Q 21.1875 48.484375 17.84375 46.4375 
Q 14.5 44.390625 14.5 40.28125 
Q 14.5 37.15625 16.890625 35.375 
Q 19.28125 33.59375 26.515625 31.984375 
L 29.59375 31.296875 
Q 39.15625 29.25 43.1875 25.515625 
Q 47.21875 21.78125 47.21875 15.09375 
Q 47.21875 7.46875 41.1875 3.015625 
Q 35.15625 -1.421875 24.609375 -1.421875 
Q 20.21875 -1.421875 15.453125 -0.5625 
Q 10.6875 0.296875 5.421875 2 
L 5.421875 11.28125 
Q 10.40625 8.6875 15.234375 7.390625 
Q 20.0625 6.109375 24.8125 6.109375 
Q 31.15625 6.109375 34.5625 8.28125 
Q 37.984375 10.453125 37.984375 14.40625 
Q 37.984375 18.0625 35.515625 20.015625 
Q 33.0625 21.96875 24.703125 23.78125 
L 21.578125 24.515625 
Q 13.234375 26.265625 9.515625 29.90625 
Q 5.8125 33.546875 5.8125 39.890625 
Q 5.8125 47.609375 11.28125 51.796875 
Q 16.75 56 26.8125 56 
Q 31.78125 56 36.171875 55.265625 
Q 40.578125 54.546875 44.28125 53.078125 
z
" id="DejaVuSans-115"/>
       <path d="M 8.015625 75.875 
L 15.828125 75.875 
Q 23.140625 64.359375 26.78125 53.3125 
Q 30.421875 42.28125 30.421875 31.390625 
Q 30.421875 20.453125 26.78125 9.375 
Q 23.140625 -1.703125 15.828125 -13.1875 
L 8.015625 -13.1875 
Q 14.5 -2 17.703125 9.0625 
Q 20.90625 20.125 20.90625 31.390625 
Q 20.90625 42.671875 17.703125 53.65625 
Q 14.5 64.65625 8.015625 75.875 
z
" id="DejaVuSans-41"/>
      </defs>
      <use xlink:href="#DejaVuSans-84"/>
      <use x="57.958984" xlink:href="#DejaVuSans-105"/>
      <use x="85.742188" xlink:href="#DejaVuSans-109"/>
      <use x="183.154297" xlink:href="#DejaVuSans-101"/>
      <use x="244.677734" xlink:href="#DejaVuSans-32"/>
      <use x="276.464844" xlink:href="#DejaVuSans-40"/>
      <use x="315.478516" xlink:href="#DejaVuSans-100"/>
      <use x="378.955078" xlink:href="#DejaVuSans-97"/>
      <use x="440.234375" xlink:href="#DejaVuSans-121"/>
      <use x="499.414062" xlink:href="#DejaVuSans-115"/>
      <use x="551.513672" xlink:href="#DejaVuSans-41"/>
     </g>
    </g>
   </g>
   <g id="matplotlib.axis_2">
    <g id="ytick_1">
     <g id="line2d_7">
      <defs>
       <path d="M 0 0 
L -3.5 0 
" id="m346105c6fb" style="stroke:#000000;stroke-width:0.8;"/>
      </defs>
      <g>
       <use style="stroke:#000000;stroke-width:0.8;" x="57.6" xlink:href="#m346105c6fb" y="286.810546"/>
      </g>
     </g>
     <g id="text_8">
      <!-- 0 -->
      <g transform="translate(44.2375 290.609765)scale(0.1 -0.1)">
       <use xlink:href="#DejaVuSans-48"/>
      </g>
     </g>
    </g>
    <g id="ytick_2">
     <g id="line2d_8">
      <g>
       <use style="stroke:#000000;stroke-width:0.8;" x="57.6" xlink:href="#m346105c6fb" y="241.392729"/>
      </g>
     </g>
     <g id="text_9">
      <!-- 500 -->
      <g transform="translate(31.5125 245.191948)scale(0.1 -0.1)">
       <defs>
        <path d="M 10.796875 72.90625 
L 49.515625 72.90625 
L 49.515625 64.59375 
L 19.828125 64.59375 
L 19.828125 46.734375 
Q 21.96875 47.46875 24.109375 47.828125 
Q 26.265625 48.1875 28.421875 48.1875 
Q 40.625 48.1875 47.75 41.5 
Q 54.890625 34.8125 54.890625 23.390625 
Q 54.890625 11.625 47.5625 5.09375 
Q 40.234375 -1.421875 26.90625 -1.421875 
Q 22.3125 -1.421875 17.546875 -0.640625 
Q 12.796875 0.140625 7.71875 1.703125 
L 7.71875 11.625 
Q 12.109375 9.234375 16.796875 8.0625 
Q 21.484375 6.890625 26.703125 6.890625 
Q 35.15625 6.890625 40.078125 11.328125 
Q 45.015625 15.765625 45.015625 23.390625 
Q 45.015625 31 40.078125 35.4375 
Q 35.15625 39.890625 26.703125 39.890625 
Q 22.75 39.890625 18.8125 39.015625 
Q 14.890625 38.140625 10.796875 36.28125 
z
" id="DejaVuSans-53"/>
       </defs>
       <use xlink:href="#DejaVuSans-53"/>
       <use x="63.623047" xlink:href="#DejaVuSans-48"/>
       <use x="127.246094" xlink:href="#DejaVuSans-48"/>
      </g>
     </g>
    </g>
    <g id="ytick_3">
     <g id="line2d_9">
      <g>
       <use style="stroke:#000000;stroke-width:0.8;" x="57.6" xlink:href="#m346105c6fb" y="195.974912"/>
      </g>
     </g>
     <g id="text_10">
      <!-- 1000 -->
      <g transform="translate(25.15 199.77413)scale(0.1 -0.1)">
       <use xlink:href="#DejaVuSans-49"/>
       <use x="63.623047" xlink:href="#DejaVuSans-48"/>
       <use x="127.246094" xlink:href="#DejaVuSans-48"/>
       <use x="190.869141" xlink:href="#DejaVuSans-48"/>
      </g>
     </g>
    </g>
    <g id="ytick_4">
     <g id="line2d_10">
      <g>
       <use style="stroke:#000000;stroke-width:0.8;" x="57.6" xlink:href="#m346105c6fb" y="150.557094"/>
      </g>
     </g>
     <g id="text_11">
      <!-- 1500 -->
      <g transform="translate(25.15 154.356313)scale(0.1 -0.1)">
       <use xlink:href="#DejaVuSans-49"/>
       <use x="63.623047" xlink:href="#DejaVuSans-53"/>
       <use x="127.246094" xlink:href="#DejaVuSans-48"/>
       <use x="190.869141" xlink:href="#DejaVuSans-48"/>
      </g>
     </g>
    </g>
    <g id="ytick_5">
     <g id="line2d_11">
      <g>
       <use style="stroke:#000000;stroke-width:0.8;" x="57.6" xlink:href="#m346105c6fb" y="105.139277"/>
      </g>
     </g>
     <g id="text_12">
      <!-- 2000 -->
      <g transform="translate(25.15 108.938496)scale(0.1 -0.1)">
       <use xlink:href="#DejaVuSans-50"/>
       <use x="63.623047" xlink:href="#DejaVuSans-48"/>
       <use x="127.246094" xlink:href="#DejaVuSans-48"/>
       <use x="190.869141" xlink:href="#DejaVuSans-48"/>
      </g>
     </g>
    </g>
    <g id="ytick_6">
     <g id="line2d_12">
      <g>
       <use style="stroke:#000000;stroke-width:0.8;" x="57.6" xlink:href="#m346105c6fb" y="59.72146"/>
      </g>
     </g>
     <g id="text_13">
      <!-- 2500 -->
      <g transform="translate(25.15 63.520679)scale(0.1 -0.1)">
       <use xlink:href="#DejaVuSans-50"/>
       <use x="63.623047" xlink:href="#DejaVuSans-53"/>
       <use x="127.246094" xlink:href="#DejaVuSans-48"/>
       <use x="190.869141" xlink:href="#DejaVuSans-48"/>
      </g>
     </g>
    </g>
    <g id="text_14">
     <!-- Density -->
     <g transform="translate(19.070312 193.536594)rotate(-90)scale(0.1 -0.1)">
      <defs>
       <path d="M 19.671875 64.796875 
L 19.671875 8.109375 
L 31.59375 8.109375 
Q 46.6875 8.109375 53.6875 14.9375 
Q 60.6875 21.78125 60.6875 36.53125 
Q 60.6875 51.171875 53.6875 57.984375 
Q 46.6875 64.796875 31.59375 64.796875 
z
M 9.8125 72.90625 
L 30.078125 72.90625 
Q 51.265625 72.90625 61.171875 64.09375 
Q 71.09375 55.28125 71.09375 36.53125 
Q 71.09375 17.671875 61.125 8.828125 
Q 51.171875 0 30.078125 0 
L 9.8125 0 
z
" id="DejaVuSans-68"/>
       <path d="M 54.890625 33.015625 
L 54.890625 0 
L 45.90625 0 
L 45.90625 32.71875 
Q 45.90625 40.484375 42.875 44.328125 
Q 39.84375 48.1875 33.796875 48.1875 
Q 26.515625 48.1875 22.3125 43.546875 
Q 18.109375 38.921875 18.109375 30.90625 
L 18.109375 0 
L 9.078125 0 
L 9.078125 54.6875 
L 18.109375 54.6875 
L 18.109375 46.1875 
Q 21.34375 51.125 25.703125 53.5625 
Q 30.078125 56 35.796875 56 
Q 45.21875 56 50.046875 50.171875 
Q 54.890625 44.34375 54.890625 33.015625 
z
" id="DejaVuSans-110"/>
       <path d="M 18.3125 70.21875 
L 18.3125 54.6875 
L 36.8125 54.6875 
L 36.8125 47.703125 
L 18.3125 47.703125 
L 18.3125 18.015625 
Q 18.3125 11.328125 20.140625 9.421875 
Q 21.96875 7.515625 27.59375 7.515625 
L 36.8125 7.515625 
L 36.8125 0 
L 27.59375 0 
Q 17.1875 0 13.234375 3.875 
Q 9.28125 7.765625 9.28125 18.015625 
L 9.28125 47.703125 
L 2.6875 47.703125 
L 2.6875 54.6875 
L 9.28125 54.6875 
L 9.28125 70.21875 
z
" id="DejaVuSans-116"/>
      </defs>
      <use xlink:href="#DejaVuSans-68"/>
      <use x="77.001953" xlink:href="#DejaVuSans-101"/>
      <use x="138.525391" xlink:href="#DejaVuSans-110"/>
      <use x="201.904297" xlink:href="#DejaVuSans-115"/>
      <use x="254.003906" xlink:href="#DejaVuSans-105"/>
      <use x="281.787109" xlink:href="#DejaVuSans-116"/>
      <use x="320.996094" xlink:href="#DejaVuSans-121"/>
     </g>
    </g>
   </g>
   <g id="line2d_13">
    <path clip-path="url(#pfd4c181eb3)" d="M 73.832727 285.90219 
L 74.482686 285.382362 
L 75.132645 284.546949 
L 75.782604 283.192603 
L 76.432563 280.992254 
L 77.082523 277.54168 
L 77.732482 272.227748 
L 78.382441 263.961698 
L 79.357379 243.446208 
L 80.007338 221.725655 
L 80.982277 189.000385 
L 81.307256 187.469446 
L 81.632236 177.161648 
L 81.957215 173.964984 
L 82.282195 163.928309 
L 82.607174 163.41518 
L 82.932154 152.881158 
L 83.257133 150.464835 
L 83.907093 125.903514 
L 84.232072 127.259105 
L 84.557052 125.520842 
L 84.882031 130.38205 
L 85.207011 126.518026 
L 85.53199 120.91403 
L 85.85697 129.741897 
L 86.181949 129.780866 
L 86.506929 126.654185 
L 86.831908 156.989321 
L 87.806847 121.72111 
L 88.131826 115.351184 
L 88.781785 139.959601 
L 89.106765 132.0491 
L 89.431744 135.625468 
L 89.756724 133.735515 
L 90.081704 122.233995 
L 90.406683 118.480584 
L 90.731663 135.509556 
L 91.056642 130.224805 
L 91.381622 132.598234 
L 91.706601 122.26449 
L 92.031581 136.76007 
L 92.35656 124.995315 
L 92.68154 121.868019 
L 93.006519 120.151526 
L 93.331499 120.098281 
L 93.656478 120.749994 
L 94.306437 125.997697 
L 94.956396 122.866481 
L 95.281376 115.496674 
L 95.606355 128.692238 
L 95.931335 128.5423 
L 96.256314 142.566947 
L 96.581294 141.805992 
L 96.906274 148.147273 
L 97.231253 150.39856 
L 97.556233 139.435249 
L 97.881212 137.193461 
L 98.206192 126.206997 
L 98.531171 125.696901 
L 98.856151 136.752545 
L 99.18113 135.864709 
L 99.50611 133.590045 
L 99.831089 134.490349 
L 100.156069 131.946612 
L 100.481048 127.942446 
L 100.806028 140.484931 
L 101.131007 129.275098 
L 101.455987 109.215772 
L 101.780966 99.274324 
L 102.105946 105.137922 
L 102.430925 118.245657 
L 102.755905 120.345492 
L 103.730844 100.616227 
L 104.055823 98.050451 
L 104.380803 94.393154 
L 104.705782 95.826173 
L 105.030762 96.151419 
L 105.355741 88.085365 
L 105.680721 97.814377 
L 106.0057 90.417916 
L 106.33068 97.101962 
L 106.655659 111.242943 
L 106.980639 114.575037 
L 107.305618 103.480693 
L 107.630598 103.895364 
L 108.280557 120.659285 
L 108.605536 107.740124 
L 108.930516 104.535234 
L 109.255495 106.550045 
L 109.580475 104.654063 
L 109.905455 116.60316 
L 110.230434 123.918779 
L 110.555414 122.127025 
L 110.880393 123.902777 
L 111.205373 128.745211 
L 111.530352 123.826247 
L 111.855332 121.71898 
L 112.180311 131.484305 
L 112.505291 120.710761 
L 112.83027 104.962456 
L 113.15525 98.386323 
L 113.480229 99.374593 
L 114.130188 119.799527 
L 114.780147 110.753663 
L 115.105127 95.68304 
L 115.430106 86.394944 
L 115.755086 106.233662 
L 116.080066 101.929714 
L 116.405045 110.010723 
L 116.730025 107.861183 
L 117.055004 104.781357 
L 117.379984 125.420846 
L 118.029943 121.591236 
L 118.354922 114.979041 
L 118.679902 111.791136 
L 119.004881 102.993467 
L 119.329861 108.722898 
L 119.65484 110.668869 
L 119.97982 103.72622 
L 120.304799 91.339086 
L 120.629779 88.157883 
L 120.954758 103.980744 
L 121.279738 125.749236 
L 121.604717 129.105289 
L 121.929697 117.3933 
L 122.254676 123.186066 
L 122.579656 120.095934 
L 122.904636 110.08046 
L 123.229615 107.113088 
L 123.554595 117.4036 
L 123.879574 109.514999 
L 124.204554 120.519709 
L 124.529533 136.378043 
L 124.854513 124.50963 
L 125.179492 117.715721 
L 125.504472 104.665854 
L 125.829451 114.833984 
L 126.47941 119.349842 
L 126.80439 108.259252 
L 127.129369 104.890623 
L 127.454349 114.247183 
L 127.779328 118.176855 
L 128.104308 114.705569 
L 128.429287 108.964904 
L 128.754267 113.246326 
L 129.079247 107.69198 
L 129.404226 105.881371 
L 129.729206 113.383328 
L 130.054185 153.904338 
L 130.704144 129.426469 
L 131.029124 129.54477 
L 131.354103 125.74764 
L 131.679083 113.195563 
L 132.004062 94.768927 
L 132.329042 90.005207 
L 132.654021 96.621305 
L 132.979001 92.13303 
L 133.30398 97.022915 
L 133.62896 96.738344 
L 133.953939 148.092937 
L 134.278919 147.502185 
L 134.603898 149.359066 
L 135.253857 126.346786 
L 135.578837 148.300217 
L 135.903817 139.048853 
L 136.228796 139.415282 
L 136.553776 127.535439 
L 136.878755 121.843043 
L 137.203735 109.54287 
L 137.528714 105.122972 
L 137.853694 112.4439 
L 138.178673 105.064423 
L 138.503653 111.925459 
L 138.828632 108.559719 
L 139.153612 113.110834 
L 139.478591 112.919947 
L 139.803571 99.554397 
L 140.45353 108.125169 
L 140.778509 110.232021 
L 141.428468 118.096258 
L 141.753448 114.393361 
L 142.403407 95.887994 
L 142.728387 103.746974 
L 143.053366 92.376834 
L 143.378346 101.180335 
L 143.703325 154.686585 
L 144.353284 124.474097 
L 144.678264 119.473511 
L 145.003243 122.105814 
L 145.328223 116.424704 
L 145.653202 103.282697 
L 145.978182 109.766021 
L 146.303161 110.304371 
L 146.628141 96.733857 
L 146.95312 108.16398 
L 147.2781 102.349772 
L 147.603079 130.660252 
L 147.928059 120.941361 
L 148.578018 137.474093 
L 148.902998 145.41784 
L 149.227977 146.949995 
L 149.552957 129.292433 
L 149.877936 134.527771 
L 150.202916 134.72853 
L 150.527895 129.584013 
L 150.852875 118.89079 
L 151.177854 99.223115 
L 151.502834 96.708964 
L 151.827813 108.690332 
L 152.152793 107.666305 
L 152.477772 119.970724 
L 152.802752 126.630472 
L 153.127731 124.896114 
L 153.452711 120.567706 
L 153.77769 125.237039 
L 154.427649 100.318226 
L 154.752629 99.986752 
L 155.077609 107.706585 
L 155.727568 98.313819 
L 156.052547 89.968109 
L 156.702506 111.288128 
L 157.027486 90.967348 
L 157.352465 126.660775 
L 157.677445 135.534313 
L 158.002424 122.873928 
L 158.327404 120.400893 
L 158.652383 121.469194 
L 158.977363 148.248927 
L 159.627322 137.24668 
L 160.60226 115.632518 
L 160.92724 136.106266 
L 161.252219 119.814909 
L 161.577199 118.98881 
L 161.902179 135.147168 
L 162.227158 132.63817 
L 162.552138 133.191499 
L 162.877117 123.123439 
L 163.202097 53.568 
L 163.527076 56.063004 
L 164.502015 109.550031 
L 164.826994 129.449507 
L 165.151974 129.770014 
L 165.476953 144.216615 
L 165.801933 129.827556 
L 166.126912 121.631687 
L 166.451892 126.082015 
L 166.776871 108.057018 
L 167.101851 105.859942 
L 167.42683 118.547849 
L 168.07679 104.43568 
L 168.401769 111.321891 
L 168.726749 127.593102 
L 169.051728 115.140115 
L 169.376708 111.233348 
L 169.701687 115.323168 
L 170.026667 108.590596 
L 170.351646 119.107374 
L 170.676626 108.482599 
L 171.001605 106.419252 
L 171.326585 109.531454 
L 171.651564 109.483745 
L 171.976544 97.21591 
L 172.301523 102.5769 
L 172.626503 115.692963 
L 173.276462 98.554574 
L 173.601441 111.547575 
L 174.2514 95.671202 
L 174.57638 109.159694 
L 174.90136 101.117839 
L 175.226339 102.223236 
L 175.551319 104.715549 
L 175.876298 126.980482 
L 176.201278 116.271629 
L 176.851237 105.369709 
L 177.176216 104.126377 
L 177.501196 115.614159 
L 177.826175 134.280735 
L 178.151155 130.583319 
L 178.476134 124.090095 
L 178.801114 132.402729 
L 179.126093 136.343105 
L 179.451073 131.563802 
L 179.776052 131.413724 
L 180.101032 129.170283 
L 180.426011 135.80066 
L 180.750991 138.308331 
L 181.075971 142.8973 
L 181.72593 120.820426 
L 182.050909 132.517588 
L 182.375889 130.561499 
L 183.025848 109.224172 
L 183.350827 104.935155 
L 183.675807 116.725233 
L 184.000786 118.485095 
L 184.325766 122.124954 
L 184.650745 113.024194 
L 184.975725 109.643805 
L 185.300704 104.696681 
L 185.625684 106.624727 
L 186.275643 97.792935 
L 186.925602 120.363121 
L 187.250581 118.066026 
L 187.575561 107.09541 
L 187.900541 120.108071 
L 188.22552 124.09422 
L 188.5505 115.289269 
L 188.875479 113.647613 
L 189.200459 101.236923 
L 189.850418 129.020425 
L 190.500377 112.002787 
L 190.825356 108.640109 
L 191.150336 97.334237 
L 191.475315 97.543694 
L 191.800295 103.724037 
L 192.125274 107.731122 
L 192.450254 105.794006 
L 192.775233 125.672677 
L 193.100213 128.742741 
L 193.425192 111.002988 
L 193.750172 117.349263 
L 194.075152 130.518733 
L 194.400131 120.817568 
L 194.725111 133.809942 
L 195.05009 133.271404 
L 195.37507 121.576815 
L 195.700049 115.542971 
L 196.350008 125.924394 
L 196.674988 113.112941 
L 196.999967 105.573642 
L 197.324947 106.657475 
L 197.649926 100.987306 
L 197.974906 119.309561 
L 198.299885 116.079653 
L 198.624865 103.02273 
L 199.924783 121.380115 
L 200.249762 116.567538 
L 200.574742 106.095599 
L 200.899722 100.998832 
L 201.224701 101.793421 
L 201.87466 113.75411 
L 202.524619 92.399001 
L 202.849599 90.290749 
L 203.174578 89.890816 
L 203.499558 117.00819 
L 203.824537 124.313298 
L 204.149517 116.922089 
L 204.474496 115.994403 
L 204.799476 111.94027 
L 205.124455 113.782843 
L 205.774414 94.969486 
L 206.099394 80.118668 
L 206.424373 92.16752 
L 206.749353 110.137428 
L 207.074333 93.594377 
L 207.399312 105.170966 
L 207.724292 123.871248 
L 208.049271 113.900286 
L 208.374251 99.734022 
L 208.69923 108.573858 
L 209.02421 110.461974 
L 209.674169 101.852584 
L 209.999148 102.650611 
L 210.324128 100.135315 
L 210.649107 104.391061 
L 210.974087 106.579214 
L 211.299066 119.286425 
L 211.624046 107.966262 
L 211.949025 102.05383 
L 212.274005 87.45093 
L 212.598984 92.319393 
L 212.923964 117.734523 
L 213.248943 117.599706 
L 213.573923 110.042716 
L 213.898903 112.656986 
L 214.548862 106.403467 
L 214.873841 114.217803 
L 215.198821 108.003404 
L 215.5238 111.760673 
L 215.84878 113.729916 
L 216.173759 119.349047 
L 216.498739 121.859256 
L 216.823718 120.070116 
L 217.148698 111.775402 
L 217.798657 136.867606 
L 218.123636 124.252192 
L 218.448616 125.959849 
L 218.773595 148.656716 
L 219.423554 141.595816 
L 219.748534 142.145498 
L 220.073514 141.814045 
L 220.723473 118.370307 
L 221.048452 104.326685 
L 221.373432 97.106582 
L 221.698411 86.80975 
L 222.34837 110.962744 
L 222.67335 108.004076 
L 222.998329 95.323445 
L 223.323309 97.457396 
L 223.648288 118.594337 
L 223.973268 121.822486 
L 224.298247 129.163158 
L 224.623227 112.58681 
L 224.948206 116.759396 
L 225.273186 111.416119 
L 225.598165 100.112129 
L 225.923145 99.208825 
L 226.248124 92.408095 
L 226.898084 107.445379 
L 227.223063 120.670329 
L 227.548043 121.508344 
L 227.873022 114.832048 
L 228.198002 112.14417 
L 228.522981 100.687949 
L 228.847961 111.262334 
L 229.17294 106.108315 
L 229.49792 104.09046 
L 229.822899 93.649322 
L 230.147879 103.46951 
L 230.472858 128.149997 
L 230.797838 125.813011 
L 231.122817 110.71288 
L 231.447797 102.958521 
L 231.772776 104.271261 
L 232.097756 98.158251 
L 232.422735 113.946868 
L 232.747715 115.884083 
L 233.072695 109.304333 
L 233.722654 82.889723 
L 234.047633 93.168142 
L 234.372613 96.339741 
L 234.697592 114.981535 
L 235.022572 117.769119 
L 235.99751 88.968614 
L 236.32249 85.538891 
L 236.647469 80.568351 
L 236.972449 83.124076 
L 237.297428 100.680131 
L 237.622408 104.387163 
L 237.947387 145.361603 
L 238.272367 127.131864 
L 238.597346 121.753153 
L 238.922326 131.53678 
L 239.247305 124.801664 
L 239.572285 112.85359 
L 239.897265 107.109615 
L 240.222244 113.156673 
L 240.547224 107.885073 
L 240.872203 109.276685 
L 241.197183 102.979724 
L 241.522162 94.332488 
L 241.847142 89.7432 
L 242.172121 109.257953 
L 242.497101 99.141281 
L 242.82208 113.639901 
L 243.14706 111.873567 
L 243.472039 104.678813 
L 243.797019 107.475352 
L 244.121998 101.987485 
L 244.446978 116.369984 
L 244.771957 139.47967 
L 245.096937 129.271241 
L 245.421916 113.520118 
L 245.746896 112.66518 
L 246.071876 104.157723 
L 246.396855 107.791424 
L 246.721835 103.459544 
L 247.046814 82.358307 
L 247.371794 72.646996 
L 247.696773 91.414585 
L 248.346732 119.680582 
L 248.671712 120.932569 
L 249.64665 140.290197 
L 249.97163 137.784586 
L 250.296609 131.648766 
L 250.621589 119.647063 
L 250.946568 114.28395 
L 251.271548 123.044691 
L 251.596527 120.162319 
L 251.921507 118.828224 
L 252.246486 120.111363 
L 252.571466 111.769434 
L 253.221425 105.382703 
L 253.546405 123.190135 
L 254.196364 134.397243 
L 254.521343 142.936098 
L 255.171302 127.362238 
L 255.496282 111.868221 
L 255.821261 110.811706 
L 256.146241 125.990802 
L 256.47122 121.251293 
L 256.7962 113.057739 
L 257.121179 98.818285 
L 257.446159 110.391798 
L 257.771138 114.224478 
L 258.096118 123.800474 
L 258.421097 115.817008 
L 258.746077 125.046961 
L 259.071057 115.533274 
L 259.396036 124.693951 
L 259.721016 120.120107 
L 260.045995 111.388927 
L 260.695954 100.712886 
L 261.020934 92.359592 
L 261.345913 95.280043 
L 261.670893 108.047964 
L 261.995872 98.626183 
L 262.320852 92.814961 
L 262.645831 107.004947 
L 262.970811 109.555635 
L 263.29579 106.341883 
L 263.62077 109.284492 
L 263.945749 105.129459 
L 264.270729 105.013757 
L 264.595708 99.920523 
L 265.245667 116.445031 
L 265.570647 110.930676 
L 265.895627 113.482478 
L 266.220606 102.437566 
L 266.545586 111.93041 
L 266.870565 96.287465 
L 267.195545 95.823757 
L 267.520524 104.78389 
L 267.845504 107.964969 
L 268.170483 107.646813 
L 268.495463 105.658434 
L 268.820442 106.799323 
L 269.145422 126.865241 
L 269.470401 124.70032 
L 269.795381 131.926633 
L 270.12036 118.626369 
L 270.44534 112.978691 
L 270.770319 112.546359 
L 271.420278 108.601286 
L 271.745258 103.214329 
L 272.070238 107.196172 
L 272.720197 121.07497 
L 273.045176 124.611273 
L 273.370156 125.126127 
L 273.695135 123.426154 
L 274.020115 126.611144 
L 274.345094 125.950018 
L 274.670074 118.168342 
L 274.995053 117.913086 
L 275.320033 108.68598 
L 275.645012 120.302892 
L 275.969992 120.326479 
L 276.619951 107.943329 
L 276.94493 118.963244 
L 277.26991 113.024656 
L 277.594889 110.203461 
L 277.919869 129.743054 
L 278.244848 134.522162 
L 278.569828 131.766125 
L 278.894808 140.380074 
L 279.219787 127.774243 
L 279.544767 124.953185 
L 279.869746 134.403714 
L 280.519705 118.907952 
L 280.844685 110.755971 
L 281.169664 120.180409 
L 281.819623 115.739148 
L 282.144603 127.594084 
L 282.794562 113.501244 
L 283.119541 114.211149 
L 283.7695 92.778252 
L 284.09448 98.037356 
L 284.419459 98.247542 
L 284.744439 95.076557 
L 285.069419 94.464751 
L 285.394398 106.252153 
L 285.719378 91.874496 
L 286.369337 129.795075 
L 286.694316 140.946404 
L 287.344275 122.387382 
L 287.669255 123.040497 
L 287.994234 103.183888 
L 288.319214 101.208501 
L 288.644193 107.160385 
L 288.969173 110.652369 
L 289.294152 131.945734 
L 289.619132 125.968985 
L 289.944111 125.771532 
L 290.269091 124.960578 
L 290.59407 116.084399 
L 290.91905 124.091046 
L 291.244029 120.347082 
L 292.218968 102.850975 
L 292.543948 100.055197 
L 292.868927 94.356921 
L 293.193907 104.527218 
L 293.518886 100.015925 
L 293.843866 117.511461 
L 294.493825 105.849014 
L 294.818804 104.461912 
L 295.143784 105.434147 
L 296.118722 142.060552 
L 296.443702 152.594036 
L 297.41864 118.517229 
L 297.74362 124.137315 
L 298.0686 111.599013 
L 298.393579 132.11024 
L 298.718559 125.006099 
L 299.043538 131.156375 
L 299.368518 123.258232 
L 299.693497 123.621983 
L 300.018477 116.957473 
L 300.343456 126.322529 
L 300.668436 123.654485 
L 300.993415 110.984234 
L 301.318395 125.695766 
L 301.643374 116.684125 
L 301.968354 122.296793 
L 302.618313 109.375904 
L 302.943292 129.693553 
L 303.268272 118.045492 
L 303.593251 112.995291 
L 304.56819 88.301119 
L 304.89317 79.006939 
L 305.218149 103.276596 
L 305.543129 110.162899 
L 306.193088 102.894606 
L 306.518067 122.135142 
L 306.843047 112.880489 
L 307.168026 96.31004 
L 307.493006 102.679971 
L 307.817985 97.671143 
L 308.467944 109.72047 
L 308.792924 106.293059 
L 309.117903 106.021421 
L 309.442883 103.22136 
L 309.767862 103.696286 
L 310.092842 98.826061 
L 310.417821 111.035146 
L 310.742801 112.158027 
L 311.067781 114.942535 
L 311.71774 90.955863 
L 312.042719 92.117549 
L 312.367699 98.343607 
L 312.692678 96.004351 
L 313.017658 97.433311 
L 313.667617 85.528045 
L 313.992596 77.001718 
L 314.317576 98.51411 
L 314.642555 103.011721 
L 314.967535 105.792642 
L 315.292514 109.678307 
L 315.617494 119.312312 
L 315.942473 104.230476 
L 316.267453 106.345593 
L 316.592432 123.07927 
L 317.242391 101.912338 
L 317.567371 112.142503 
L 317.892351 104.375431 
L 318.21733 113.080886 
L 318.54231 125.912172 
L 318.867289 123.269248 
L 319.192269 125.696248 
L 319.517248 134.954247 
L 319.842228 148.958474 
L 320.167207 133.327173 
L 320.492187 137.752817 
L 320.817166 144.135746 
L 321.142146 138.560944 
L 321.467125 136.628841 
L 321.792105 136.578509 
L 322.117084 125.037518 
L 322.442064 141.232835 
L 322.767043 141.600897 
L 323.092023 142.518802 
L 323.417002 145.450906 
L 323.741982 136.994235 
L 324.066962 124.770809 
L 324.391941 130.065449 
L 324.716921 127.462613 
L 325.0419 116.341911 
L 325.36688 112.015424 
L 325.691859 105.773238 
L 326.341818 121.070442 
L 326.666798 131.916759 
L 326.991777 121.326428 
L 327.641736 115.098943 
L 327.966716 114.685505 
L 328.291695 128.203097 
L 328.616675 124.092959 
L 328.941654 108.802092 
L 329.266634 102.947874 
L 329.591613 100.000655 
L 329.916593 94.961099 
L 330.241572 95.526362 
L 330.891532 86.103117 
L 331.216511 92.253441 
L 331.541491 106.27584 
L 331.86647 106.070201 
L 332.19145 102.956586 
L 332.516429 85.386806 
L 333.166388 96.795531 
L 333.491368 99.40903 
L 333.816347 95.725993 
L 334.141327 95.418556 
L 334.466306 99.082926 
L 335.116265 119.380654 
L 335.441245 118.497945 
L 335.766224 116.155194 
L 336.091204 109.407212 
L 336.416183 94.800181 
L 336.741163 97.365027 
L 337.066143 105.647143 
L 337.391122 117.011093 
L 338.366061 131.350721 
L 338.69104 125.320523 
L 339.01602 114.839586 
L 339.340999 111.28376 
L 339.665979 110.943344 
L 339.990958 114.821441 
L 340.315938 108.799335 
L 340.640917 112.546406 
L 340.965897 110.023145 
L 341.290876 130.722484 
L 341.615856 113.755616 
L 341.940835 117.789409 
L 342.265815 118.916776 
L 342.590794 114.357746 
L 343.240753 94.054982 
L 343.565733 95.100998 
L 343.890713 96.630945 
L 344.215692 96.272352 
L 344.865651 85.111006 
L 345.190631 90.392114 
L 345.51561 114.086934 
L 345.84059 92.95267 
L 346.165569 106.50584 
L 346.815528 82.383268 
L 347.140508 77.675089 
L 347.465487 84.998938 
L 347.790467 76.421233 
L 348.115446 79.695395 
L 348.765405 97.175042 
L 349.090385 91.399634 
L 349.740344 115.316947 
L 350.065324 110.129811 
L 350.390303 123.335092 
L 350.715283 121.117274 
L 351.040262 116.246778 
L 351.365242 117.315137 
L 351.690221 117.308913 
L 352.015201 119.294536 
L 352.34018 137.949944 
L 352.66516 144.738411 
L 352.990139 136.143624 
L 353.315119 155.344042 
L 353.640098 154.853964 
L 353.965078 144.612629 
L 354.290057 129.80736 
L 354.615037 128.036151 
L 354.940016 133.941574 
L 355.264996 136.222506 
L 355.589975 142.957305 
L 355.914955 130.6488 
L 356.239934 126.870266 
L 356.564914 120.575963 
L 356.889894 131.103529 
L 357.214873 130.087444 
L 357.539853 117.5302 
L 358.189812 108.342787 
L 358.514791 118.071878 
L 359.16475 97.541172 
L 359.48973 93.530426 
L 360.139689 109.325943 
L 360.464668 116.72685 
L 360.789648 107.247581 
L 361.114627 109.165275 
L 361.439607 114.029198 
L 361.764586 110.339895 
L 362.089566 96.325229 
L 362.414545 103.485107 
L 362.739525 101.024874 
L 363.064505 95.590282 
L 363.389484 97.955595 
L 363.714464 101.887369 
L 364.039443 102.639753 
L 364.364423 99.356368 
L 364.689402 103.812731 
L 365.014382 103.429398 
L 365.339361 100.39492 
L 365.98932 114.600993 
L 366.3143 110.900174 
L 366.639279 101.162999 
L 366.964259 115.867212 
L 367.289238 120.331109 
L 367.614218 114.208696 
L 367.939197 120.315756 
L 368.264177 107.646406 
L 368.589156 108.852021 
L 368.914136 109.327386 
L 369.239115 126.585916 
L 369.564095 126.540393 
L 369.889075 139.091977 
L 370.214054 114.281334 
L 370.539034 128.11505 
L 370.864013 125.667316 
L 371.188993 117.53299 
L 371.513972 113.69628 
L 371.838952 101.674263 
L 372.163931 110.436781 
L 372.81389 91.493011 
L 373.463849 104.143493 
L 373.788829 104.576025 
L 374.113808 111.989921 
L 374.438788 109.789002 
L 374.763767 106.687039 
L 375.413726 95.47588 
L 375.738706 104.542805 
L 376.063686 96.346482 
L 376.388665 97.533783 
L 376.713645 76.026089 
L 377.038624 77.717946 
L 377.363604 90.031811 
L 377.688583 84.900511 
L 378.013563 98.661246 
L 378.338542 102.984634 
L 378.988501 108.351276 
L 379.313481 100.354858 
L 379.63846 97.855719 
L 379.96344 97.675796 
L 380.288419 102.078635 
L 380.613399 104.356751 
L 380.938378 98.589167 
L 381.263358 102.504998 
L 381.588337 98.546235 
L 381.913317 93.037184 
L 382.563276 89.698456 
L 382.888256 107.496378 
L 383.213235 98.548813 
L 383.538215 97.688353 
L 384.188174 110.703615 
L 384.513153 101.110487 
L 384.838133 115.131928 
L 385.163112 111.51082 
L 385.488092 101.461195 
L 385.813071 98.933899 
L 386.138051 103.552152 
L 386.46303 104.762623 
L 386.78801 99.562593 
L 387.112989 96.317444 
L 387.437969 99.855396 
L 387.762948 94.180527 
L 388.087928 116.091654 
L 388.412907 118.472801 
L 388.737887 122.312439 
L 389.387846 98.396158 
L 389.712826 99.071857 
L 390.037805 103.207398 
L 390.362785 104.742983 
L 391.012744 91.095086 
L 391.337723 87.994776 
L 391.662703 102.454197 
L 391.987682 97.103737 
L 392.312662 100.87798 
L 392.637641 103.157215 
L 392.962621 109.841129 
L 393.2876 105.329898 
L 393.61258 97.905922 
L 394.262539 87.840948 
L 394.912498 114.857344 
L 395.237477 107.333455 
L 395.562457 109.727133 
L 395.887437 97.501072 
L 396.212416 96.450825 
L 396.537396 97.867152 
L 397.187355 107.723807 
L 397.512334 105.421867 
L 397.837314 104.001891 
L 398.162293 108.592466 
L 398.487273 91.701618 
L 398.487273 91.701618 
" style="fill:none;stroke:#1f77b4;stroke-linecap:square;stroke-width:1.5;"/>
   </g>
   <g id="line2d_14">
    <path clip-path="url(#pfd4c181eb3)" d="M 73.832727 286.810546 
L 77.732482 287.01735 
L 85.85697 287.661206 
L 124.204554 288.721698 
L 124.529533 288.654064 
L 125.504472 288.835318 
L 126.47941 288.793708 
L 127.129369 288.883206 
L 128.104308 288.864102 
L 129.404226 288.945973 
L 129.729206 288.919874 
L 130.054185 288.723325 
L 131.029124 288.889498 
L 131.679083 288.992238 
L 132.329042 289.127002 
L 133.62896 289.129796 
L 133.953939 288.8798 
L 134.928878 288.979223 
L 135.253857 289.047803 
L 135.578837 288.929395 
L 137.528714 289.225811 
L 138.503653 289.217167 
L 140.778509 289.288393 
L 141.753448 289.290739 
L 143.053366 289.454616 
L 143.378346 289.409022 
L 143.703325 289.097113 
L 144.678264 289.358275 
L 145.328223 289.396783 
L 145.653202 289.4859 
L 146.303161 289.460286 
L 146.628141 289.552987 
L 147.603079 289.361607 
L 147.928059 289.435143 
L 149.227977 289.304603 
L 149.552957 289.439324 
L 150.527895 289.468732 
L 151.502834 289.715497 
L 152.477772 289.588762 
L 153.127731 289.574094 
L 156.052547 289.887961 
L 156.702506 289.75902 
L 157.027486 289.907214 
L 157.352465 289.672523 
L 157.677445 289.612467 
L 158.327404 289.74311 
L 158.652383 289.741919 
L 158.977363 289.55242 
L 160.60226 289.858675 
L 160.92724 289.709875 
L 161.252219 289.845436 
L 161.577199 289.860282 
L 161.902179 289.748641 
L 162.877117 289.870884 
L 163.202097 290.129106 
L 163.852056 290.006827 
L 165.476953 289.560051 
L 166.126912 289.751495 
L 166.451892 289.726112 
L 167.101851 289.888479 
L 167.42683 289.80245 
L 168.401769 289.878973 
L 168.726749 289.767292 
L 169.376708 289.897706 
L 170.351646 289.861084 
L 171.001605 289.972866 
L 171.651564 289.967894 
L 171.976544 290.064314 
L 172.951482 290.028424 
L 173.276462 290.090373 
L 173.601441 289.992567 
L 174.2514 290.127628 
L 174.57638 290.039677 
L 175.226339 290.104905 
L 175.551319 290.096276 
L 175.876298 289.928586 
L 176.851237 290.12077 
L 177.501196 290.056384 
L 177.826175 289.908448 
L 178.801114 289.95382 
L 179.776052 289.979737 
L 180.426011 289.964583 
L 181.40095 290.013259 
L 181.72593 290.121131 
L 182.375889 290.057401 
L 183.350827 290.288735 
L 184.000786 290.195386 
L 184.650745 290.259458 
L 186.275643 290.431008 
L 187.250581 290.287915 
L 187.575561 290.390864 
L 188.22552 290.261502 
L 189.200459 290.484796 
L 189.850418 290.26539 
L 191.475315 290.584137 
L 193.100213 290.350177 
L 193.425192 290.51881 
L 195.05009 290.350326 
L 195.700049 290.532664 
L 196.350008 290.453492 
L 196.999967 290.657315 
L 200.249762 290.643683 
L 200.899722 290.80424 
L 202.524619 290.934014 
L 203.174578 290.977176 
L 203.499558 290.73444 
L 203.824537 290.677382 
L 204.799476 290.822607 
L 205.449435 290.912257 
L 206.099394 291.149476 
L 206.749353 290.895392 
L 207.074333 291.056268 
L 207.724292 290.780751 
L 208.374251 291.034455 
L 209.02421 290.946209 
L 210.324128 291.068217 
L 211.624046 291.03206 
L 212.598984 291.202444 
L 212.923964 290.967203 
L 217.473677 291.023728 
L 217.798657 290.880036 
L 218.123636 291.026875 
L 218.448616 291.013925 
L 218.773595 290.749789 
L 220.723473 291.138053 
L 221.373432 291.37468 
L 221.698411 291.47549 
L 222.34837 291.244597 
L 223.323309 291.414213 
L 223.648288 291.198462 
L 224.298247 291.104768 
L 224.623227 291.295035 
L 225.273186 291.32487 
L 225.923145 291.468358 
L 226.248124 291.538387 
L 227.548043 291.266318 
L 228.522981 291.519859 
L 228.847961 291.418514 
L 229.822899 291.612552 
L 230.147879 291.519164 
L 230.472858 291.260636 
L 230.797838 291.295629 
L 231.447797 291.566531 
L 233.072695 291.542463 
L 233.722654 291.840109 
L 235.022572 291.502437 
L 236.32249 291.898118 
L 236.972449 291.943054 
L 237.297428 291.764186 
L 237.622408 291.727271 
L 237.947387 291.315944 
L 238.272367 291.555729 
L 238.597346 291.629435 
L 238.922326 291.518639 
L 240.547224 291.834718 
L 241.197183 291.903525 
L 241.847142 292.071683 
L 242.172121 291.859869 
L 242.497101 291.987218 
L 242.82208 291.821647 
L 244.121998 291.985621 
L 244.771957 291.539229 
L 246.071876 292.017117 
L 246.721835 292.044004 
L 247.371794 292.364726 
L 248.346732 291.853042 
L 248.996691 291.779482 
L 249.97163 291.652802 
L 250.946568 291.986397 
L 251.271548 291.890533 
L 253.221425 292.155904 
L 253.546405 291.95166 
L 254.846323 291.831593 
L 255.821261 292.163563 
L 256.146241 291.983088 
L 256.7962 292.169385 
L 257.121179 292.35369 
L 258.096118 292.067216 
L 258.421097 292.184593 
L 258.746077 292.071973 
L 259.071057 292.207098 
L 259.396036 292.103112 
L 261.345913 292.518338 
L 261.670893 292.365797 
L 262.320852 292.573062 
L 262.645831 292.402848 
L 263.62077 292.402693 
L 264.595708 292.545719 
L 265.245667 292.342072 
L 266.220606 292.550106 
L 266.545586 292.405901 
L 266.870565 292.618007 
L 267.195545 292.634104 
L 267.845504 292.467644 
L 268.820442 292.501308 
L 269.145422 292.249325 
L 269.470401 292.28956 
L 269.795381 292.197953 
L 270.44534 292.479938 
L 271.420278 292.558291 
L 271.745258 292.635125 
L 274.020115 292.370182 
L 274.995053 292.515313 
L 275.320033 292.655241 
L 275.645012 292.502811 
L 276.294971 292.595538 
L 276.619951 292.689307 
L 276.94493 292.547618 
L 277.594889 292.68539 
L 277.919869 292.418818 
L 278.894808 292.289664 
L 279.219787 292.489951 
L 279.544767 292.543271 
L 279.869746 292.40482 
L 280.844685 292.778604 
L 281.169664 292.635579 
L 281.819623 292.69474 
L 282.144603 292.537379 
L 282.794562 292.73952 
L 283.119541 292.724979 
L 283.7695 293.039161 
L 284.419459 292.979915 
L 285.069419 293.044588 
L 285.394398 292.881945 
L 285.719378 293.084192 
L 286.694316 292.417129 
L 287.994234 292.911052 
L 288.644193 292.891374 
L 288.969173 292.83004 
L 289.294152 292.529716 
L 289.944111 292.637999 
L 290.269091 292.657584 
L 290.59407 292.797982 
L 290.91905 292.686866 
L 293.518886 293.130865 
L 293.843866 292.88818 
L 294.818804 293.102556 
L 295.143784 293.096635 
L 296.443702 292.375323 
L 297.41864 292.954059 
L 297.74362 292.875177 
L 298.0686 293.076114 
L 298.393579 292.768455 
L 298.718559 292.886812 
L 299.043538 292.788626 
L 299.368518 292.922575 
L 300.668436 292.960745 
L 300.993415 293.150617 
L 301.318395 292.933165 
L 301.643374 293.045584 
L 301.968354 292.958303 
L 302.618313 293.167096 
L 302.943292 292.873298 
L 303.593251 293.147315 
L 304.89317 293.674612 
L 305.218149 293.306877 
L 305.543129 293.205174 
L 306.193088 293.331269 
L 306.518067 293.067531 
L 307.168026 293.467325 
L 307.493006 293.387747 
L 307.817985 293.470208 
L 308.467944 293.306987 
L 309.442883 293.433564 
L 310.417821 293.354876 
L 311.067781 293.306674 
L 311.71774 293.692906 
L 313.342637 293.705053 
L 313.992596 293.925935 
L 314.317576 293.631325 
L 315.617494 293.350843 
L 315.942473 293.590279 
L 316.267453 293.566756 
L 316.592432 293.319992 
L 317.242391 293.680455 
L 317.567371 293.527264 
L 317.892351 293.658292 
L 318.54231 293.319266 
L 319.192269 293.334109 
L 319.842228 292.954308 
L 320.167207 293.242096 
L 320.817166 293.072929 
L 321.467125 293.211417 
L 321.792105 293.215974 
L 322.117084 293.420911 
L 322.442064 293.125055 
L 323.417002 293.069664 
L 324.066962 293.450466 
L 324.391941 293.370535 
L 324.716921 293.416936 
L 325.0419 293.613261 
L 326.016839 293.688784 
L 326.666798 293.359123 
L 327.316757 293.612722 
L 327.966716 293.685003 
L 328.291695 293.492002 
L 328.616675 293.566243 
L 328.941654 293.833193 
L 329.916593 294.062814 
L 330.566552 294.169275 
L 330.891532 294.236748 
L 331.216511 294.159093 
L 331.541491 293.940063 
L 332.19145 294.007244 
L 332.516429 294.294653 
L 333.491368 294.108108 
L 334.141327 294.169149 
L 334.791286 293.949485 
L 335.116265 293.787933 
L 335.766224 293.853395 
L 336.091204 293.98006 
L 336.416183 294.226927 
L 337.066143 294.070778 
L 337.716102 293.796081 
L 338.366061 293.649725 
L 339.665979 294.045269 
L 339.990958 293.975825 
L 340.315938 294.086472 
L 340.965897 294.078494 
L 341.290876 293.72108 
L 341.615856 294.030549 
L 342.265815 293.963227 
L 342.915774 294.237644 
L 343.240753 294.411112 
L 344.215692 294.425381 
L 344.865651 294.616707 
L 345.190631 294.528694 
L 345.51561 294.135698 
L 345.84059 294.503612 
L 346.165569 294.276456 
L 347.140508 294.789887 
L 347.465487 294.682667 
L 347.790467 294.827471 
L 348.440426 294.680778 
L 348.765405 294.494486 
L 349.090385 294.59962 
L 349.740344 294.205718 
L 350.065324 294.307664 
L 350.390303 294.08412 
L 351.690221 294.223587 
L 352.015201 294.199374 
L 352.34018 293.839249 
L 352.66516 293.693174 
L 352.990139 293.873372 
L 353.315119 293.509978 
L 353.640098 293.533245 
L 354.615037 294.084573 
L 355.589975 293.761429 
L 355.914955 294.016049 
L 356.564914 294.219531 
L 356.889894 294.031985 
L 357.214873 294.053154 
L 357.539853 294.296985 
L 358.189812 294.482934 
L 358.514791 294.311888 
L 359.16475 294.693851 
L 359.48973 294.77061 
L 360.139689 294.471174 
L 360.464668 294.360068 
L 360.789648 294.544273 
L 361.764586 294.51092 
L 362.089566 294.76966 
L 362.414545 294.64762 
L 363.389484 294.764411 
L 364.039443 294.696069 
L 364.364423 294.765503 
L 365.014382 294.714756 
L 365.339361 294.782097 
L 365.98932 294.526627 
L 366.639279 294.778719 
L 366.964259 294.51854 
L 367.289238 294.45299 
L 367.614218 294.576083 
L 367.939197 294.460979 
L 368.264177 294.704781 
L 368.914136 294.68886 
L 369.239115 294.387054 
L 369.564095 294.401422 
L 369.889075 294.164548 
L 370.214054 294.482705 
L 370.539034 294.231988 
L 370.864013 294.27069 
L 371.838952 294.738984 
L 372.163931 294.596955 
L 372.81389 294.94917 
L 374.113808 294.617016 
L 375.088747 294.837222 
L 375.413726 294.958356 
L 375.738706 294.809127 
L 376.063686 294.958015 
L 376.388665 294.942892 
L 376.713645 295.317818 
L 377.038624 295.301943 
L 377.363604 295.097663 
L 377.688583 295.186319 
L 378.013563 294.954114 
L 378.988501 294.803596 
L 379.63846 295.010702 
L 380.288419 294.960282 
L 380.613399 294.906343 
L 380.938378 295.021354 
L 381.263358 294.957833 
L 382.563276 295.216745 
L 382.888256 294.913941 
L 383.213235 295.084799 
L 383.538215 295.110196 
L 384.188174 294.862156 
L 384.513153 295.052759 
L 384.838133 294.801231 
L 385.163112 294.880477 
L 385.488092 295.078541 
L 385.813071 295.137245 
L 386.46303 295.057504 
L 387.112989 295.215725 
L 387.437969 295.153733 
L 387.762948 295.258476 
L 388.087928 294.845519 
L 388.737887 294.707373 
L 389.387846 295.172971 
L 390.687764 295.225289 
L 391.337723 295.387136 
L 391.662703 295.122166 
L 391.987682 295.232765 
L 393.2876 295.10994 
L 394.262539 295.462212 
L 394.912498 294.960086 
L 395.237477 295.106149 
L 395.562457 295.07442 
L 395.887437 295.320633 
L 396.537396 295.335093 
L 397.187355 295.154889 
L 397.837314 295.239085 
L 398.162293 295.161505 
L 398.487273 295.488 
L 398.487273 295.488 
" style="fill:none;stroke:#ff7f0e;stroke-linecap:square;stroke-width:1.5;"/>
   </g>
   <g id="patch_3">
    <path d="M 57.6 307.584 
L 57.6 41.472 
" style="fill:none;stroke:#000000;stroke-linecap:square;stroke-linejoin:miter;stroke-width:0.8;"/>
   </g>
   <g id="patch_4">
    <path d="M 414.72 307.584 
L 414.72 41.472 
" style="fill:none;stroke:#000000;stroke-linecap:square;stroke-linejoin:miter;stroke-width:0.8;"/>
   </g>
   <g id="patch_5">
    <path d="M 57.6 307.584 
L 414.72 307.584 
" style="fill:none;stroke:#000000;stroke-linecap:square;stroke-linejoin:miter;stroke-width:0.8;"/>
   </g>
   <g id="patch_6">
    <path d="M 57.6 41.472 
L 414.72 41.472 
" style="fill:none;stroke:#000000;stroke-linecap:square;stroke-linejoin:miter;stroke-width:0.8;"/>
   </g>
  </g>
 </g>
 <defs>
  <clipPath id="pfd4c181eb3">
   <rect height="266.112" width="357.12" x="57.6" y="41.472"/>
  </clipPath>
 </defs>
</svg>
