<?xml version="1.0" encoding="utf-8" standalone="no"?>
<!DOCTYPE svg PUBLIC "-//W3C//DTD SVG 1.1//EN"
  "http://www.w3.org/Graphics/SVG/1.1/DTD/svg11.dtd">
<!-- Created with matplotlib (https://matplotlib.org/) -->
<svg height="345.6pt" version="1.1" viewBox="0 0 460.8 345.6" width="460.8pt" xmlns="http://www.w3.org/2000/svg" xmlns:xlink="http://www.w3.org/1999/xlink">
 <metadata>
  <rdf:RDF xmlns:cc="http://creativecommons.org/ns#" xmlns:dc="http://purl.org/dc/elements/1.1/" xmlns:rdf="http://www.w3.org/1999/02/22-rdf-syntax-ns#">
   <cc:Work>
    <dc:type rdf:resource="http://purl.org/dc/dcmitype/StillImage"/>
    <dc:date>2020-10-07T15:21:52.535462</dc:date>
    <dc:format>image/svg+xml</dc:format>
    <dc:creator>
     <cc:Agent>
      <dc:title>Matplotlib v3.3.2, https://matplotlib.org/</dc:title>
     </cc:Agent>
    </dc:creator>
   </cc:Work>
  </rdf:RDF>
 </metadata>
 <defs>
  <style type="text/css">*{stroke-linecap:butt;stroke-linejoin:round;}</style>
 </defs>
 <g id="figure_1">
  <g id="patch_1">
   <path d="M 0 345.6 
L 460.8 345.6 
L 460.8 0 
L 0 0 
z
" style="fill:#ffffff;"/>
  </g>
  <g id="axes_1">
   <g id="patch_2">
    <path d="M 57.6 307.584 
L 414.72 307.584 
L 414.72 41.472 
L 57.6 41.472 
z
" style="fill:#ffffff;"/>
   </g>
   <g id="matplotlib.axis_1">
    <g id="xtick_1">
     <g id="line2d_1">
      <defs>
       <path d="M 0 0 
L 0 3.5 
" id="m39184d58dd" style="stroke:#000000;stroke-width:0.8;"/>
      </defs>
      <g>
       <use style="stroke:#000000;stroke-width:0.8;" x="73.832727" xlink:href="#m39184d58dd" y="307.584"/>
      </g>
     </g>
     <g id="text_1">
      <!-- 0 -->
      <g transform="translate(70.651477 322.182437)scale(0.1 -0.1)">
       <defs>
        <path d="M 31.78125 66.40625 
Q 24.171875 66.40625 20.328125 58.90625 
Q 16.5 51.421875 16.5 36.375 
Q 16.5 21.390625 20.328125 13.890625 
Q 24.171875 6.390625 31.78125 6.390625 
Q 39.453125 6.390625 43.28125 13.890625 
Q 47.125 21.390625 47.125 36.375 
Q 47.125 51.421875 43.28125 58.90625 
Q 39.453125 66.40625 31.78125 66.40625 
z
M 31.78125 74.21875 
Q 44.046875 74.21875 50.515625 64.515625 
Q 56.984375 54.828125 56.984375 36.375 
Q 56.984375 17.96875 50.515625 8.265625 
Q 44.046875 -1.421875 31.78125 -1.421875 
Q 19.53125 -1.421875 13.0625 8.265625 
Q 6.59375 17.96875 6.59375 36.375 
Q 6.59375 54.828125 13.0625 64.515625 
Q 19.53125 74.21875 31.78125 74.21875 
z
" id="DejaVuSans-48"/>
       </defs>
       <use xlink:href="#DejaVuSans-48"/>
      </g>
     </g>
    </g>
    <g id="xtick_2">
     <g id="line2d_2">
      <g>
       <use style="stroke:#000000;stroke-width:0.8;" x="138.828632" xlink:href="#m39184d58dd" y="307.584"/>
      </g>
     </g>
     <g id="text_2">
      <!-- 20 -->
      <g transform="translate(132.466132 322.182437)scale(0.1 -0.1)">
       <defs>
        <path d="M 19.1875 8.296875 
L 53.609375 8.296875 
L 53.609375 0 
L 7.328125 0 
L 7.328125 8.296875 
Q 12.9375 14.109375 22.625 23.890625 
Q 32.328125 33.6875 34.8125 36.53125 
Q 39.546875 41.84375 41.421875 45.53125 
Q 43.3125 49.21875 43.3125 52.78125 
Q 43.3125 58.59375 39.234375 62.25 
Q 35.15625 65.921875 28.609375 65.921875 
Q 23.96875 65.921875 18.8125 64.3125 
Q 13.671875 62.703125 7.8125 59.421875 
L 7.8125 69.390625 
Q 13.765625 71.78125 18.9375 73 
Q 24.125 74.21875 28.421875 74.21875 
Q 39.75 74.21875 46.484375 68.546875 
Q 53.21875 62.890625 53.21875 53.421875 
Q 53.21875 48.921875 51.53125 44.890625 
Q 49.859375 40.875 45.40625 35.40625 
Q 44.1875 33.984375 37.640625 27.21875 
Q 31.109375 20.453125 19.1875 8.296875 
z
" id="DejaVuSans-50"/>
       </defs>
       <use xlink:href="#DejaVuSans-50"/>
       <use x="63.623047" xlink:href="#DejaVuSans-48"/>
      </g>
     </g>
    </g>
    <g id="xtick_3">
     <g id="line2d_3">
      <g>
       <use style="stroke:#000000;stroke-width:0.8;" x="203.824537" xlink:href="#m39184d58dd" y="307.584"/>
      </g>
     </g>
     <g id="text_3">
      <!-- 40 -->
      <g transform="translate(197.462037 322.182437)scale(0.1 -0.1)">
       <defs>
        <path d="M 37.796875 64.3125 
L 12.890625 25.390625 
L 37.796875 25.390625 
z
M 35.203125 72.90625 
L 47.609375 72.90625 
L 47.609375 25.390625 
L 58.015625 25.390625 
L 58.015625 17.1875 
L 47.609375 17.1875 
L 47.609375 0 
L 37.796875 0 
L 37.796875 17.1875 
L 4.890625 17.1875 
L 4.890625 26.703125 
z
" id="DejaVuSans-52"/>
       </defs>
       <use xlink:href="#DejaVuSans-52"/>
       <use x="63.623047" xlink:href="#DejaVuSans-48"/>
      </g>
     </g>
    </g>
    <g id="xtick_4">
     <g id="line2d_4">
      <g>
       <use style="stroke:#000000;stroke-width:0.8;" x="268.820442" xlink:href="#m39184d58dd" y="307.584"/>
      </g>
     </g>
     <g id="text_4">
      <!-- 60 -->
      <g transform="translate(262.457942 322.182437)scale(0.1 -0.1)">
       <defs>
        <path d="M 33.015625 40.375 
Q 26.375 40.375 22.484375 35.828125 
Q 18.609375 31.296875 18.609375 23.390625 
Q 18.609375 15.53125 22.484375 10.953125 
Q 26.375 6.390625 33.015625 6.390625 
Q 39.65625 6.390625 43.53125 10.953125 
Q 47.40625 15.53125 47.40625 23.390625 
Q 47.40625 31.296875 43.53125 35.828125 
Q 39.65625 40.375 33.015625 40.375 
z
M 52.59375 71.296875 
L 52.59375 62.3125 
Q 48.875 64.0625 45.09375 64.984375 
Q 41.3125 65.921875 37.59375 65.921875 
Q 27.828125 65.921875 22.671875 59.328125 
Q 17.53125 52.734375 16.796875 39.40625 
Q 19.671875 43.65625 24.015625 45.921875 
Q 28.375 48.1875 33.59375 48.1875 
Q 44.578125 48.1875 50.953125 41.515625 
Q 57.328125 34.859375 57.328125 23.390625 
Q 57.328125 12.15625 50.6875 5.359375 
Q 44.046875 -1.421875 33.015625 -1.421875 
Q 20.359375 -1.421875 13.671875 8.265625 
Q 6.984375 17.96875 6.984375 36.375 
Q 6.984375 53.65625 15.1875 63.9375 
Q 23.390625 74.21875 37.203125 74.21875 
Q 40.921875 74.21875 44.703125 73.484375 
Q 48.484375 72.75 52.59375 71.296875 
z
" id="DejaVuSans-54"/>
       </defs>
       <use xlink:href="#DejaVuSans-54"/>
       <use x="63.623047" xlink:href="#DejaVuSans-48"/>
      </g>
     </g>
    </g>
    <g id="xtick_5">
     <g id="line2d_5">
      <g>
       <use style="stroke:#000000;stroke-width:0.8;" x="333.816347" xlink:href="#m39184d58dd" y="307.584"/>
      </g>
     </g>
     <g id="text_5">
      <!-- 80 -->
      <g transform="translate(327.453847 322.182437)scale(0.1 -0.1)">
       <defs>
        <path d="M 31.78125 34.625 
Q 24.75 34.625 20.71875 30.859375 
Q 16.703125 27.09375 16.703125 20.515625 
Q 16.703125 13.921875 20.71875 10.15625 
Q 24.75 6.390625 31.78125 6.390625 
Q 38.8125 6.390625 42.859375 10.171875 
Q 46.921875 13.96875 46.921875 20.515625 
Q 46.921875 27.09375 42.890625 30.859375 
Q 38.875 34.625 31.78125 34.625 
z
M 21.921875 38.8125 
Q 15.578125 40.375 12.03125 44.71875 
Q 8.5 49.078125 8.5 55.328125 
Q 8.5 64.0625 14.71875 69.140625 
Q 20.953125 74.21875 31.78125 74.21875 
Q 42.671875 74.21875 48.875 69.140625 
Q 55.078125 64.0625 55.078125 55.328125 
Q 55.078125 49.078125 51.53125 44.71875 
Q 48 40.375 41.703125 38.8125 
Q 48.828125 37.15625 52.796875 32.3125 
Q 56.78125 27.484375 56.78125 20.515625 
Q 56.78125 9.90625 50.3125 4.234375 
Q 43.84375 -1.421875 31.78125 -1.421875 
Q 19.734375 -1.421875 13.25 4.234375 
Q 6.78125 9.90625 6.78125 20.515625 
Q 6.78125 27.484375 10.78125 32.3125 
Q 14.796875 37.15625 21.921875 38.8125 
z
M 18.3125 54.390625 
Q 18.3125 48.734375 21.84375 45.5625 
Q 25.390625 42.390625 31.78125 42.390625 
Q 38.140625 42.390625 41.71875 45.5625 
Q 45.3125 48.734375 45.3125 54.390625 
Q 45.3125 60.0625 41.71875 63.234375 
Q 38.140625 66.40625 31.78125 66.40625 
Q 25.390625 66.40625 21.84375 63.234375 
Q 18.3125 60.0625 18.3125 54.390625 
z
" id="DejaVuSans-56"/>
       </defs>
       <use xlink:href="#DejaVuSans-56"/>
       <use x="63.623047" xlink:href="#DejaVuSans-48"/>
      </g>
     </g>
    </g>
    <g id="xtick_6">
     <g id="line2d_6">
      <g>
       <use style="stroke:#000000;stroke-width:0.8;" x="398.812252" xlink:href="#m39184d58dd" y="307.584"/>
      </g>
     </g>
     <g id="text_6">
      <!-- 100 -->
      <g transform="translate(389.268502 322.182437)scale(0.1 -0.1)">
       <defs>
        <path d="M 12.40625 8.296875 
L 28.515625 8.296875 
L 28.515625 63.921875 
L 10.984375 60.40625 
L 10.984375 69.390625 
L 28.421875 72.90625 
L 38.28125 72.90625 
L 38.28125 8.296875 
L 54.390625 8.296875 
L 54.390625 0 
L 12.40625 0 
z
" id="DejaVuSans-49"/>
       </defs>
       <use xlink:href="#DejaVuSans-49"/>
       <use x="63.623047" xlink:href="#DejaVuSans-48"/>
       <use x="127.246094" xlink:href="#DejaVuSans-48"/>
      </g>
     </g>
    </g>
    <g id="text_7">
     <!-- Time (days) -->
     <g transform="translate(206.633437 335.860562)scale(0.1 -0.1)">
      <defs>
       <path d="M -0.296875 72.90625 
L 61.375 72.90625 
L 61.375 64.59375 
L 35.5 64.59375 
L 35.5 0 
L 25.59375 0 
L 25.59375 64.59375 
L -0.296875 64.59375 
z
" id="DejaVuSans-84"/>
       <path d="M 9.421875 54.6875 
L 18.40625 54.6875 
L 18.40625 0 
L 9.421875 0 
z
M 9.421875 75.984375 
L 18.40625 75.984375 
L 18.40625 64.59375 
L 9.421875 64.59375 
z
" id="DejaVuSans-105"/>
       <path d="M 52 44.1875 
Q 55.375 50.25 60.0625 53.125 
Q 64.75 56 71.09375 56 
Q 79.640625 56 84.28125 50.015625 
Q 88.921875 44.046875 88.921875 33.015625 
L 88.921875 0 
L 79.890625 0 
L 79.890625 32.71875 
Q 79.890625 40.578125 77.09375 44.375 
Q 74.3125 48.1875 68.609375 48.1875 
Q 61.625 48.1875 57.5625 43.546875 
Q 53.515625 38.921875 53.515625 30.90625 
L 53.515625 0 
L 44.484375 0 
L 44.484375 32.71875 
Q 44.484375 40.625 41.703125 44.40625 
Q 38.921875 48.1875 33.109375 48.1875 
Q 26.21875 48.1875 22.15625 43.53125 
Q 18.109375 38.875 18.109375 30.90625 
L 18.109375 0 
L 9.078125 0 
L 9.078125 54.6875 
L 18.109375 54.6875 
L 18.109375 46.1875 
Q 21.1875 51.21875 25.484375 53.609375 
Q 29.78125 56 35.6875 56 
Q 41.65625 56 45.828125 52.96875 
Q 50 49.953125 52 44.1875 
z
" id="DejaVuSans-109"/>
       <path d="M 56.203125 29.59375 
L 56.203125 25.203125 
L 14.890625 25.203125 
Q 15.484375 15.921875 20.484375 11.0625 
Q 25.484375 6.203125 34.421875 6.203125 
Q 39.59375 6.203125 44.453125 7.46875 
Q 49.3125 8.734375 54.109375 11.28125 
L 54.109375 2.78125 
Q 49.265625 0.734375 44.1875 -0.34375 
Q 39.109375 -1.421875 33.890625 -1.421875 
Q 20.796875 -1.421875 13.15625 6.1875 
Q 5.515625 13.8125 5.515625 26.8125 
Q 5.515625 40.234375 12.765625 48.109375 
Q 20.015625 56 32.328125 56 
Q 43.359375 56 49.78125 48.890625 
Q 56.203125 41.796875 56.203125 29.59375 
z
M 47.21875 32.234375 
Q 47.125 39.59375 43.09375 43.984375 
Q 39.0625 48.390625 32.421875 48.390625 
Q 24.90625 48.390625 20.390625 44.140625 
Q 15.875 39.890625 15.1875 32.171875 
z
" id="DejaVuSans-101"/>
       <path id="DejaVuSans-32"/>
       <path d="M 31 75.875 
Q 24.46875 64.65625 21.28125 53.65625 
Q 18.109375 42.671875 18.109375 31.390625 
Q 18.109375 20.125 21.3125 9.0625 
Q 24.515625 -2 31 -13.1875 
L 23.1875 -13.1875 
Q 15.875 -1.703125 12.234375 9.375 
Q 8.59375 20.453125 8.59375 31.390625 
Q 8.59375 42.28125 12.203125 53.3125 
Q 15.828125 64.359375 23.1875 75.875 
z
" id="DejaVuSans-40"/>
       <path d="M 45.40625 46.390625 
L 45.40625 75.984375 
L 54.390625 75.984375 
L 54.390625 0 
L 45.40625 0 
L 45.40625 8.203125 
Q 42.578125 3.328125 38.25 0.953125 
Q 33.9375 -1.421875 27.875 -1.421875 
Q 17.96875 -1.421875 11.734375 6.484375 
Q 5.515625 14.40625 5.515625 27.296875 
Q 5.515625 40.1875 11.734375 48.09375 
Q 17.96875 56 27.875 56 
Q 33.9375 56 38.25 53.625 
Q 42.578125 51.265625 45.40625 46.390625 
z
M 14.796875 27.296875 
Q 14.796875 17.390625 18.875 11.75 
Q 22.953125 6.109375 30.078125 6.109375 
Q 37.203125 6.109375 41.296875 11.75 
Q 45.40625 17.390625 45.40625 27.296875 
Q 45.40625 37.203125 41.296875 42.84375 
Q 37.203125 48.484375 30.078125 48.484375 
Q 22.953125 48.484375 18.875 42.84375 
Q 14.796875 37.203125 14.796875 27.296875 
z
" id="DejaVuSans-100"/>
       <path d="M 34.28125 27.484375 
Q 23.390625 27.484375 19.1875 25 
Q 14.984375 22.515625 14.984375 16.5 
Q 14.984375 11.71875 18.140625 8.90625 
Q 21.296875 6.109375 26.703125 6.109375 
Q 34.1875 6.109375 38.703125 11.40625 
Q 43.21875 16.703125 43.21875 25.484375 
L 43.21875 27.484375 
z
M 52.203125 31.203125 
L 52.203125 0 
L 43.21875 0 
L 43.21875 8.296875 
Q 40.140625 3.328125 35.546875 0.953125 
Q 30.953125 -1.421875 24.3125 -1.421875 
Q 15.921875 -1.421875 10.953125 3.296875 
Q 6 8.015625 6 15.921875 
Q 6 25.140625 12.171875 29.828125 
Q 18.359375 34.515625 30.609375 34.515625 
L 43.21875 34.515625 
L 43.21875 35.40625 
Q 43.21875 41.609375 39.140625 45 
Q 35.0625 48.390625 27.6875 48.390625 
Q 23 48.390625 18.546875 47.265625 
Q 14.109375 46.140625 10.015625 43.890625 
L 10.015625 52.203125 
Q 14.9375 54.109375 19.578125 55.046875 
Q 24.21875 56 28.609375 56 
Q 40.484375 56 46.34375 49.84375 
Q 52.203125 43.703125 52.203125 31.203125 
z
" id="DejaVuSans-97"/>
       <path d="M 32.171875 -5.078125 
Q 28.375 -14.84375 24.75 -17.8125 
Q 21.140625 -20.796875 15.09375 -20.796875 
L 7.90625 -20.796875 
L 7.90625 -13.28125 
L 13.1875 -13.28125 
Q 16.890625 -13.28125 18.9375 -11.515625 
Q 21 -9.765625 23.484375 -3.21875 
L 25.09375 0.875 
L 2.984375 54.6875 
L 12.5 54.6875 
L 29.59375 11.921875 
L 46.6875 54.6875 
L 56.203125 54.6875 
z
" id="DejaVuSans-121"/>
       <path d="M 44.28125 53.078125 
L 44.28125 44.578125 
Q 40.484375 46.53125 36.375 47.5 
Q 32.28125 48.484375 27.875 48.484375 
Q 21.1875 48.484375 17.84375 46.4375 
Q 14.5 44.390625 14.5 40.28125 
Q 14.5 37.15625 16.890625 35.375 
Q 19.28125 33.59375 26.515625 31.984375 
L 29.59375 31.296875 
Q 39.15625 29.25 43.1875 25.515625 
Q 47.21875 21.78125 47.21875 15.09375 
Q 47.21875 7.46875 41.1875 3.015625 
Q 35.15625 -1.421875 24.609375 -1.421875 
Q 20.21875 -1.421875 15.453125 -0.5625 
Q 10.6875 0.296875 5.421875 2 
L 5.421875 11.28125 
Q 10.40625 8.6875 15.234375 7.390625 
Q 20.0625 6.109375 24.8125 6.109375 
Q 31.15625 6.109375 34.5625 8.28125 
Q 37.984375 10.453125 37.984375 14.40625 
Q 37.984375 18.0625 35.515625 20.015625 
Q 33.0625 21.96875 24.703125 23.78125 
L 21.578125 24.515625 
Q 13.234375 26.265625 9.515625 29.90625 
Q 5.8125 33.546875 5.8125 39.890625 
Q 5.8125 47.609375 11.28125 51.796875 
Q 16.75 56 26.8125 56 
Q 31.78125 56 36.171875 55.265625 
Q 40.578125 54.546875 44.28125 53.078125 
z
" id="DejaVuSans-115"/>
       <path d="M 8.015625 75.875 
L 15.828125 75.875 
Q 23.140625 64.359375 26.78125 53.3125 
Q 30.421875 42.28125 30.421875 31.390625 
Q 30.421875 20.453125 26.78125 9.375 
Q 23.140625 -1.703125 15.828125 -13.1875 
L 8.015625 -13.1875 
Q 14.5 -2 17.703125 9.0625 
Q 20.90625 20.125 20.90625 31.390625 
Q 20.90625 42.671875 17.703125 53.65625 
Q 14.5 64.65625 8.015625 75.875 
z
" id="DejaVuSans-41"/>
      </defs>
      <use xlink:href="#DejaVuSans-84"/>
      <use x="57.958984" xlink:href="#DejaVuSans-105"/>
      <use x="85.742188" xlink:href="#DejaVuSans-109"/>
      <use x="183.154297" xlink:href="#DejaVuSans-101"/>
      <use x="244.677734" xlink:href="#DejaVuSans-32"/>
      <use x="276.464844" xlink:href="#DejaVuSans-40"/>
      <use x="315.478516" xlink:href="#DejaVuSans-100"/>
      <use x="378.955078" xlink:href="#DejaVuSans-97"/>
      <use x="440.234375" xlink:href="#DejaVuSans-121"/>
      <use x="499.414062" xlink:href="#DejaVuSans-115"/>
      <use x="551.513672" xlink:href="#DejaVuSans-41"/>
     </g>
    </g>
   </g>
   <g id="matplotlib.axis_2">
    <g id="ytick_1">
     <g id="line2d_7">
      <defs>
       <path d="M 0 0 
L -3.5 0 
" id="mf73aa152ab" style="stroke:#000000;stroke-width:0.8;"/>
      </defs>
      <g>
       <use style="stroke:#000000;stroke-width:0.8;" x="57.6" xlink:href="#mf73aa152ab" y="290.887781"/>
      </g>
     </g>
     <g id="text_8">
      <!-- 0 -->
      <g transform="translate(44.2375 294.686999)scale(0.1 -0.1)">
       <use xlink:href="#DejaVuSans-48"/>
      </g>
     </g>
    </g>
    <g id="ytick_2">
     <g id="line2d_8">
      <g>
       <use style="stroke:#000000;stroke-width:0.8;" x="57.6" xlink:href="#mf73aa152ab" y="240.652012"/>
      </g>
     </g>
     <g id="text_9">
      <!-- 1000 -->
      <g transform="translate(25.15 244.451231)scale(0.1 -0.1)">
       <use xlink:href="#DejaVuSans-49"/>
       <use x="63.623047" xlink:href="#DejaVuSans-48"/>
       <use x="127.246094" xlink:href="#DejaVuSans-48"/>
       <use x="190.869141" xlink:href="#DejaVuSans-48"/>
      </g>
     </g>
    </g>
    <g id="ytick_3">
     <g id="line2d_9">
      <g>
       <use style="stroke:#000000;stroke-width:0.8;" x="57.6" xlink:href="#mf73aa152ab" y="190.416243"/>
      </g>
     </g>
     <g id="text_10">
      <!-- 2000 -->
      <g transform="translate(25.15 194.215462)scale(0.1 -0.1)">
       <use xlink:href="#DejaVuSans-50"/>
       <use x="63.623047" xlink:href="#DejaVuSans-48"/>
       <use x="127.246094" xlink:href="#DejaVuSans-48"/>
       <use x="190.869141" xlink:href="#DejaVuSans-48"/>
      </g>
     </g>
    </g>
    <g id="ytick_4">
     <g id="line2d_10">
      <g>
       <use style="stroke:#000000;stroke-width:0.8;" x="57.6" xlink:href="#mf73aa152ab" y="140.180474"/>
      </g>
     </g>
     <g id="text_11">
      <!-- 3000 -->
      <g transform="translate(25.15 143.979693)scale(0.1 -0.1)">
       <defs>
        <path d="M 40.578125 39.3125 
Q 47.65625 37.796875 51.625 33 
Q 55.609375 28.21875 55.609375 21.1875 
Q 55.609375 10.40625 48.1875 4.484375 
Q 40.765625 -1.421875 27.09375 -1.421875 
Q 22.515625 -1.421875 17.65625 -0.515625 
Q 12.796875 0.390625 7.625 2.203125 
L 7.625 11.71875 
Q 11.71875 9.328125 16.59375 8.109375 
Q 21.484375 6.890625 26.8125 6.890625 
Q 36.078125 6.890625 40.9375 10.546875 
Q 45.796875 14.203125 45.796875 21.1875 
Q 45.796875 27.640625 41.28125 31.265625 
Q 36.765625 34.90625 28.71875 34.90625 
L 20.21875 34.90625 
L 20.21875 43.015625 
L 29.109375 43.015625 
Q 36.375 43.015625 40.234375 45.921875 
Q 44.09375 48.828125 44.09375 54.296875 
Q 44.09375 59.90625 40.109375 62.90625 
Q 36.140625 65.921875 28.71875 65.921875 
Q 24.65625 65.921875 20.015625 65.03125 
Q 15.375 64.15625 9.8125 62.3125 
L 9.8125 71.09375 
Q 15.4375 72.65625 20.34375 73.4375 
Q 25.25 74.21875 29.59375 74.21875 
Q 40.828125 74.21875 47.359375 69.109375 
Q 53.90625 64.015625 53.90625 55.328125 
Q 53.90625 49.265625 50.4375 45.09375 
Q 46.96875 40.921875 40.578125 39.3125 
z
" id="DejaVuSans-51"/>
       </defs>
       <use xlink:href="#DejaVuSans-51"/>
       <use x="63.623047" xlink:href="#DejaVuSans-48"/>
       <use x="127.246094" xlink:href="#DejaVuSans-48"/>
       <use x="190.869141" xlink:href="#DejaVuSans-48"/>
      </g>
     </g>
    </g>
    <g id="ytick_5">
     <g id="line2d_11">
      <g>
       <use style="stroke:#000000;stroke-width:0.8;" x="57.6" xlink:href="#mf73aa152ab" y="89.944706"/>
      </g>
     </g>
     <g id="text_12">
      <!-- 4000 -->
      <g transform="translate(25.15 93.743924)scale(0.1 -0.1)">
       <use xlink:href="#DejaVuSans-52"/>
       <use x="63.623047" xlink:href="#DejaVuSans-48"/>
       <use x="127.246094" xlink:href="#DejaVuSans-48"/>
       <use x="190.869141" xlink:href="#DejaVuSans-48"/>
      </g>
     </g>
    </g>
    <g id="text_13">
     <!-- Density -->
     <g transform="translate(19.070312 193.536594)rotate(-90)scale(0.1 -0.1)">
      <defs>
       <path d="M 19.671875 64.796875 
L 19.671875 8.109375 
L 31.59375 8.109375 
Q 46.6875 8.109375 53.6875 14.9375 
Q 60.6875 21.78125 60.6875 36.53125 
Q 60.6875 51.171875 53.6875 57.984375 
Q 46.6875 64.796875 31.59375 64.796875 
z
M 9.8125 72.90625 
L 30.078125 72.90625 
Q 51.265625 72.90625 61.171875 64.09375 
Q 71.09375 55.28125 71.09375 36.53125 
Q 71.09375 17.671875 61.125 8.828125 
Q 51.171875 0 30.078125 0 
L 9.8125 0 
z
" id="DejaVuSans-68"/>
       <path d="M 54.890625 33.015625 
L 54.890625 0 
L 45.90625 0 
L 45.90625 32.71875 
Q 45.90625 40.484375 42.875 44.328125 
Q 39.84375 48.1875 33.796875 48.1875 
Q 26.515625 48.1875 22.3125 43.546875 
Q 18.109375 38.921875 18.109375 30.90625 
L 18.109375 0 
L 9.078125 0 
L 9.078125 54.6875 
L 18.109375 54.6875 
L 18.109375 46.1875 
Q 21.34375 51.125 25.703125 53.5625 
Q 30.078125 56 35.796875 56 
Q 45.21875 56 50.046875 50.171875 
Q 54.890625 44.34375 54.890625 33.015625 
z
" id="DejaVuSans-110"/>
       <path d="M 18.3125 70.21875 
L 18.3125 54.6875 
L 36.8125 54.6875 
L 36.8125 47.703125 
L 18.3125 47.703125 
L 18.3125 18.015625 
Q 18.3125 11.328125 20.140625 9.421875 
Q 21.96875 7.515625 27.59375 7.515625 
L 36.8125 7.515625 
L 36.8125 0 
L 27.59375 0 
Q 17.1875 0 13.234375 3.875 
Q 9.28125 7.765625 9.28125 18.015625 
L 9.28125 47.703125 
L 2.6875 47.703125 
L 2.6875 54.6875 
L 9.28125 54.6875 
L 9.28125 70.21875 
z
" id="DejaVuSans-116"/>
      </defs>
      <use xlink:href="#DejaVuSans-68"/>
      <use x="77.001953" xlink:href="#DejaVuSans-101"/>
      <use x="138.525391" xlink:href="#DejaVuSans-110"/>
      <use x="201.904297" xlink:href="#DejaVuSans-115"/>
      <use x="254.003906" xlink:href="#DejaVuSans-105"/>
      <use x="281.787109" xlink:href="#DejaVuSans-116"/>
      <use x="320.996094" xlink:href="#DejaVuSans-121"/>
     </g>
    </g>
   </g>
   <g id="line2d_12">
    <path clip-path="url(#p8b0ab0a322)" d="M 73.832727 290.385423 
L 74.807666 289.893044 
L 75.457625 289.298849 
L 76.107584 288.341115 
L 76.757543 286.811822 
L 77.407502 284.337229 
L 78.057461 280.394816 
L 78.70742 274.451333 
L 79.357379 265.565277 
L 80.007338 252.302875 
L 80.657297 234.942905 
L 81.957215 178.403533 
L 83.257133 141.399797 
L 83.582113 124.093976 
L 83.907093 137.077861 
L 84.232072 133.350275 
L 84.557052 151.1 
L 84.882031 139.271611 
L 85.53199 125.689758 
L 85.85697 122.931951 
L 86.181949 122.607856 
L 86.506929 119.114035 
L 86.831908 112.397984 
L 87.156888 112.210188 
L 87.481867 110.592373 
L 87.806847 103.305446 
L 88.131826 112.446221 
L 88.781785 106.868342 
L 89.106765 99.180583 
L 89.431744 96.249064 
L 89.756724 98.207651 
L 90.081704 89.572902 
L 90.406683 108.061811 
L 90.731663 100.587761 
L 91.056642 115.76829 
L 91.381622 107.012553 
L 91.706601 119.708398 
L 92.031581 111.98288 
L 92.35656 107.580069 
L 92.68154 97.171292 
L 93.006519 97.270439 
L 93.331499 91.126421 
L 93.656478 81.511856 
L 93.981458 86.709919 
L 94.306437 103.852607 
L 94.631417 109.166427 
L 94.956396 102.053336 
L 95.281376 98.229688 
L 95.606355 96.321228 
L 95.931335 96.618308 
L 96.256314 93.688149 
L 96.581294 86.79871 
L 96.906274 93.272269 
L 97.231253 88.724071 
L 97.556233 94.361272 
L 97.881212 85.983107 
L 98.531171 83.05927 
L 98.856151 80.634786 
L 99.18113 80.650784 
L 99.50611 91.721984 
L 99.831089 87.154953 
L 100.156069 96.602081 
L 100.481048 88.435351 
L 100.806028 87.814452 
L 101.131007 79.900608 
L 101.780966 71.024544 
L 102.105946 63.477864 
L 102.430925 63.942814 
L 102.755905 66.02088 
L 103.080885 79.630749 
L 103.405864 84.070116 
L 103.730844 76.869628 
L 104.055823 79.883841 
L 104.380803 87.094403 
L 104.705782 87.465413 
L 105.030762 93.065781 
L 105.355741 92.29401 
L 105.680721 90.204787 
L 106.0057 83.150151 
L 106.33068 87.809651 
L 106.655659 90.131499 
L 106.980639 82.749673 
L 107.630598 89.365254 
L 107.955577 86.321238 
L 108.280557 81.842703 
L 108.605536 82.738925 
L 108.930516 78.073763 
L 109.255495 75.365143 
L 109.580475 74.67918 
L 109.905455 77.302906 
L 110.230434 87.101353 
L 110.555414 87.679886 
L 110.880393 76.239277 
L 111.205373 73.043262 
L 111.855332 61.682158 
L 112.180311 71.79275 
L 112.505291 68.108998 
L 113.15525 96.50467 
L 113.805209 89.498922 
L 114.130188 81.672445 
L 114.455168 78.675658 
L 114.780147 87.784628 
L 115.105127 76.904109 
L 115.430106 112.805001 
L 116.080066 100.024408 
L 116.405045 90.055613 
L 116.730025 83.849404 
L 117.055004 97.127363 
L 117.379984 96.882551 
L 117.704963 95.622192 
L 118.029943 99.527097 
L 118.354922 93.647131 
L 118.679902 97.152058 
L 119.004881 101.971856 
L 119.329861 86.428292 
L 119.65484 92.304237 
L 119.97982 93.957706 
L 120.629779 88.948915 
L 120.954758 92.256785 
L 121.279738 98.768559 
L 121.604717 90.4754 
L 121.929697 89.944921 
L 122.254676 81.607268 
L 122.579656 84.128509 
L 122.904636 81.419797 
L 123.554595 102.338452 
L 123.879574 106.808267 
L 124.204554 101.123035 
L 124.529533 119.686424 
L 124.854513 119.055671 
L 125.179492 125.088372 
L 125.504472 116.506265 
L 125.829451 115.147271 
L 126.47941 103.970839 
L 126.80439 104.42695 
L 127.129369 117.067059 
L 127.779328 100.743963 
L 128.104308 110.484007 
L 128.754267 98.124016 
L 129.079247 97.954122 
L 129.404226 103.79798 
L 129.729206 91.407094 
L 130.054185 112.610953 
L 130.379165 107.254211 
L 130.704144 128.38702 
L 131.029124 119.584409 
L 131.354103 123.339683 
L 132.004062 106.007713 
L 132.329042 103.966011 
L 132.654021 105.008319 
L 132.979001 99.208733 
L 133.30398 96.100713 
L 133.62896 85.313323 
L 134.278919 83.807475 
L 134.603898 81.173634 
L 134.928878 92.123542 
L 135.253857 92.26354 
L 135.578837 95.408152 
L 136.228796 110.35238 
L 136.553776 111.171747 
L 136.878755 112.75364 
L 137.203735 102.413323 
L 137.528714 108.01214 
L 137.853694 102.850151 
L 138.178673 95.516059 
L 138.828632 101.751923 
L 139.153612 102.922043 
L 139.478591 99.44375 
L 139.803571 103.671235 
L 140.12855 100.347747 
L 140.45353 113.454975 
L 141.103489 103.926531 
L 141.428468 100.541435 
L 141.753448 91.544369 
L 142.078428 92.807471 
L 142.403407 85.945427 
L 142.728387 92.694756 
L 143.378346 80.019943 
L 143.703325 90.039134 
L 144.028305 96.167348 
L 144.678264 74.177457 
L 145.003243 90.281409 
L 145.328223 83.188231 
L 145.653202 81.869334 
L 146.303161 74.209249 
L 146.628141 65.532349 
L 146.95312 65.235491 
L 147.928059 96.975243 
L 148.253038 100.427944 
L 148.578018 96.430185 
L 148.902998 84.541658 
L 149.227977 81.818194 
L 149.552957 85.885143 
L 149.877936 84.581876 
L 150.202916 94.690428 
L 150.527895 94.245545 
L 150.852875 102.425422 
L 151.177854 88.414066 
L 151.502834 96.107026 
L 151.827813 87.644165 
L 152.152793 96.103847 
L 152.477772 94.743429 
L 152.802752 84.194234 
L 153.127731 96.798835 
L 153.452711 98.492135 
L 153.77769 109.760058 
L 154.427649 90.90213 
L 154.752629 93.828816 
L 155.077609 91.329192 
L 155.727568 113.405422 
L 156.052547 117.825049 
L 156.377527 113.427441 
L 156.702506 120.697079 
L 157.027486 119.309892 
L 157.352465 119.759012 
L 158.002424 111.646906 
L 158.327404 102.645095 
L 158.977363 95.134133 
L 159.302342 92.879559 
L 159.627322 86.247656 
L 159.952301 94.091558 
L 160.277281 93.801853 
L 160.60226 91.734548 
L 160.92724 93.078846 
L 161.252219 81.952426 
L 161.577199 82.298089 
L 162.227158 98.376885 
L 162.552138 100.232813 
L 162.877117 83.767722 
L 163.202097 90.427202 
L 163.527076 93.868955 
L 163.852056 100.772048 
L 164.177035 102.308401 
L 164.502015 100.504919 
L 164.826994 104.367331 
L 165.151974 121.865098 
L 165.801933 115.130155 
L 166.126912 111.04128 
L 166.451892 100.739649 
L 166.776871 95.782355 
L 167.101851 86.981913 
L 167.42683 94.70647 
L 168.07679 117.329582 
L 168.401769 110.821156 
L 168.726749 99.459279 
L 169.051728 106.700738 
L 169.376708 137.493865 
L 169.701687 129.302575 
L 170.026667 126.549832 
L 170.351646 113.42725 
L 170.676626 107.594317 
L 171.001605 96.228494 
L 171.326585 91.316172 
L 171.651564 94.665593 
L 171.976544 101.743933 
L 172.301523 111.712825 
L 172.626503 102.391772 
L 172.951482 111.750661 
L 173.276462 98.940461 
L 173.601441 103.391978 
L 173.926421 92.645388 
L 174.2514 86.672868 
L 174.57638 90.245775 
L 174.90136 99.768927 
L 175.226339 104.968138 
L 175.551319 107.116103 
L 175.876298 99.245301 
L 176.201278 101.688196 
L 176.526257 98.127514 
L 177.176216 87.048778 
L 177.501196 96.396592 
L 177.826175 95.51254 
L 178.151155 101.312627 
L 178.476134 100.012056 
L 178.801114 98.132703 
L 179.126093 100.186498 
L 179.451073 96.482779 
L 179.776052 85.346976 
L 180.101032 82.495527 
L 180.426011 78.478599 
L 181.075971 94.375898 
L 181.40095 86.490235 
L 181.72593 83.863447 
L 182.050909 82.157915 
L 182.375889 88.386713 
L 182.700868 79.22449 
L 183.025848 90.54142 
L 183.350827 92.799073 
L 183.675807 82.110467 
L 184.000786 81.54071 
L 184.325766 101.351887 
L 184.650745 105.386516 
L 184.975725 95.169205 
L 185.300704 97.831763 
L 185.625684 101.576396 
L 186.275643 98.78498 
L 186.600622 91.773428 
L 186.925602 79.902953 
L 187.575561 67.335345 
L 187.900541 72.491478 
L 188.22552 73.193664 
L 188.5505 76.249388 
L 189.200459 87.35726 
L 189.525438 87.733427 
L 189.850418 96.183774 
L 190.175397 94.572319 
L 190.500377 87.252773 
L 190.825356 74.589788 
L 191.150336 77.484557 
L 191.475315 85.727608 
L 191.800295 87.065178 
L 192.450254 101.690557 
L 192.775233 115.544655 
L 193.100213 108.474613 
L 193.425192 98.108049 
L 194.075152 104.282149 
L 194.400131 102.602881 
L 194.725111 108.152182 
L 195.05009 100.734115 
L 195.37507 99.810072 
L 195.700049 93.129267 
L 196.025029 89.238848 
L 196.350008 130.65335 
L 196.674988 124.465032 
L 197.324947 116.353746 
L 197.649926 115.848527 
L 197.974906 103.019882 
L 198.299885 103.790539 
L 198.949844 94.549854 
L 199.274824 101.8447 
L 199.599803 114.117801 
L 199.924783 104.014292 
L 200.249762 90.422176 
L 200.574742 83.850086 
L 200.899722 86.493001 
L 201.224701 88.210253 
L 201.549681 81.676335 
L 202.19964 92.691286 
L 202.524619 94.567724 
L 202.849599 87.66212 
L 203.174578 90.864547 
L 203.499558 90.501514 
L 203.824537 88.750596 
L 204.474496 79.022816 
L 204.799476 78.650024 
L 205.124455 81.408671 
L 205.449435 73.150963 
L 205.774414 79.255329 
L 206.099394 83.169193 
L 206.424373 95.687584 
L 207.074333 91.194174 
L 207.399312 82.401494 
L 207.724292 90.816429 
L 208.049271 92.550488 
L 208.374251 87.871348 
L 208.69923 91.915912 
L 209.349189 77.004545 
L 210.649107 112.313905 
L 210.974087 100.752882 
L 211.299066 113.325552 
L 211.624046 113.799801 
L 211.949025 104.346998 
L 212.274005 98.535248 
L 212.598984 89.939123 
L 212.923964 85.193017 
L 213.248943 90.677461 
L 214.223882 63.826487 
L 214.548862 60.288654 
L 214.873841 81.481397 
L 215.5238 102.990904 
L 215.84878 94.258602 
L 216.173759 94.565595 
L 216.498739 100.239754 
L 216.823718 100.197022 
L 217.148698 96.609552 
L 217.473677 87.328861 
L 217.798657 86.073122 
L 218.123636 80.272107 
L 218.448616 82.699609 
L 218.773595 86.668174 
L 219.098575 85.281776 
L 219.423554 84.815766 
L 219.748534 79.17332 
L 220.398493 89.490296 
L 220.723473 90.184333 
L 221.373432 83.212281 
L 221.698411 72.965883 
L 222.34837 77.781401 
L 222.67335 81.285496 
L 222.998329 82.459123 
L 223.323309 103.730374 
L 223.648288 101.751775 
L 223.973268 108.347178 
L 224.298247 110.180193 
L 224.623227 120.089713 
L 225.273186 111.151685 
L 225.598165 109.078677 
L 226.573104 98.797587 
L 226.898084 102.993942 
L 227.223063 104.188393 
L 227.548043 110.339271 
L 227.873022 103.507887 
L 228.198002 115.029893 
L 228.522981 112.524901 
L 228.847961 117.064085 
L 229.17294 109.870094 
L 229.49792 114.563665 
L 230.472858 87.667121 
L 230.797838 90.724525 
L 231.122817 80.797032 
L 231.447797 84.863409 
L 231.772776 80.893253 
L 232.097756 74.689148 
L 232.422735 73.324149 
L 232.747715 73.421472 
L 233.397674 80.861555 
L 234.047633 74.8777 
L 234.372613 82.015605 
L 234.697592 93.373707 
L 235.022572 82.08783 
L 235.347551 75.960378 
L 235.672531 80.047901 
L 235.99751 77.73618 
L 236.32249 76.930786 
L 236.972449 87.247814 
L 237.297428 89.399678 
L 237.622408 96.425166 
L 237.947387 98.073607 
L 238.272367 91.907047 
L 238.597346 93.606953 
L 238.922326 104.003627 
L 239.247305 100.903285 
L 239.572285 94.545795 
L 239.897265 109.747878 
L 240.222244 98.429819 
L 240.547224 101.534295 
L 241.197183 94.539432 
L 241.847142 78.697278 
L 242.172121 79.23504 
L 242.82208 73.749557 
L 243.14706 75.193109 
L 243.797019 79.083693 
L 244.121998 86.010616 
L 244.771957 108.567404 
L 245.096937 99.3874 
L 245.421916 100.955353 
L 245.746896 98.741961 
L 246.071876 86.206599 
L 246.396855 85.991704 
L 246.721835 88.451032 
L 247.046814 81.139741 
L 247.371794 92.861703 
L 247.696773 84.487037 
L 248.021753 88.762356 
L 248.346732 102.575282 
L 248.671712 101.716378 
L 248.996691 92.301283 
L 249.321671 94.796779 
L 249.64665 89.204269 
L 249.97163 91.60678 
L 250.296609 91.771128 
L 250.621589 88.82517 
L 250.946568 90.198899 
L 251.271548 86.735246 
L 251.596527 84.468332 
L 251.921507 84.429313 
L 252.246486 88.494715 
L 252.571466 77.145859 
L 252.896446 74.651988 
L 253.546405 64.74477 
L 253.871384 54.830012 
L 254.196364 53.568 
L 254.521343 59.527669 
L 255.496282 88.970663 
L 255.821261 85.735702 
L 256.146241 87.880655 
L 256.47122 100.319321 
L 256.7962 97.795717 
L 257.121179 93.744021 
L 257.446159 100.55686 
L 258.421097 78.167258 
L 259.071057 83.651726 
L 259.721016 72.106082 
L 260.370975 91.225669 
L 260.695954 76.793462 
L 261.020934 82.966184 
L 261.345913 74.611082 
L 261.670893 78.069718 
L 261.995872 79.402367 
L 262.645831 76.872944 
L 262.970811 76.009903 
L 263.29579 82.970476 
L 263.945749 58.234883 
L 264.270729 56.878905 
L 265.245667 85.909589 
L 265.570647 80.130947 
L 265.895627 84.027588 
L 266.220606 78.534128 
L 266.545586 105.601938 
L 267.195545 95.452894 
L 267.520524 95.617199 
L 267.845504 94.769507 
L 268.170483 97.549642 
L 268.495463 98.61134 
L 268.820442 91.866613 
L 269.145422 89.781325 
L 269.470401 80.307216 
L 270.12036 95.344954 
L 271.095299 69.806926 
L 271.420278 75.634179 
L 272.070238 98.347214 
L 272.395217 90.683828 
L 272.720197 111.045783 
L 273.045176 109.7828 
L 273.370156 99.993286 
L 273.695135 94.905448 
L 274.020115 91.767883 
L 274.670074 106.469277 
L 274.995053 108.438651 
L 275.645012 84.493273 
L 275.969992 81.618025 
L 276.294971 76.261653 
L 276.619951 84.622277 
L 276.94493 87.483681 
L 277.26991 80.399067 
L 277.594889 78.566377 
L 277.919869 71.307701 
L 278.244848 69.210276 
L 278.894808 94.500984 
L 279.219787 91.556245 
L 279.544767 83.910857 
L 279.869746 71.51976 
L 280.194726 105.315766 
L 280.519705 99.510295 
L 280.844685 85.046937 
L 281.169664 85.782381 
L 281.494644 84.171463 
L 281.819623 81.443373 
L 282.144603 92.948769 
L 282.469582 89.12014 
L 282.794562 107.177102 
L 283.119541 98.050189 
L 283.444521 95.35928 
L 283.7695 101.430058 
L 284.09448 102.293337 
L 284.419459 94.900472 
L 284.744439 98.587278 
L 285.069419 93.302109 
L 285.394398 100.169427 
L 285.719378 89.176927 
L 286.044357 88.796127 
L 286.369337 94.027716 
L 286.694316 90.939846 
L 287.019296 81.950095 
L 287.344275 88.923116 
L 287.669255 85.06813 
L 287.994234 85.333724 
L 288.319214 69.305922 
L 288.644193 67.910105 
L 289.619132 90.273651 
L 289.944111 74.349669 
L 290.269091 78.777627 
L 290.59407 73.333712 
L 290.91905 84.695344 
L 291.244029 86.487212 
L 291.569009 79.935913 
L 291.893989 77.087604 
L 292.218968 80.052597 
L 292.543948 74.183013 
L 292.868927 85.189733 
L 293.193907 81.833969 
L 293.518886 85.713316 
L 293.843866 80.237506 
L 294.493825 95.592969 
L 294.818804 99.089528 
L 295.143784 94.304394 
L 295.468763 93.568087 
L 295.793743 96.505233 
L 296.118722 92.235451 
L 296.443702 92.058871 
L 296.768681 101.038978 
L 297.093661 98.800814 
L 297.41864 84.392955 
L 297.74362 92.39116 
L 298.0686 95.585803 
L 298.393579 95.403723 
L 298.718559 86.382988 
L 299.043538 83.173137 
L 299.368518 88.909934 
L 299.693497 84.685777 
L 300.018477 90.781722 
L 300.343456 91.9178 
L 300.668436 100.880616 
L 300.993415 92.62636 
L 301.318395 103.809118 
L 301.643374 95.814631 
L 302.293333 88.068862 
L 302.618313 96.80327 
L 302.943292 88.907295 
L 303.268272 102.217865 
L 303.593251 99.634868 
L 303.918231 102.85529 
L 304.24321 98.989946 
L 304.56819 99.356168 
L 305.218149 86.423442 
L 305.543129 94.125976 
L 305.868108 92.658729 
L 306.193088 94.270095 
L 306.518067 90.892866 
L 306.843047 102.786893 
L 307.168026 103.193851 
L 307.493006 93.993267 
L 307.817985 89.645409 
L 308.142965 82.665346 
L 308.467944 83.533557 
L 308.792924 80.52591 
L 309.117903 82.560492 
L 309.442883 86.067898 
L 309.767862 82.850403 
L 310.092842 95.64977 
L 310.417821 100.523683 
L 310.742801 100.255154 
L 311.067781 91.640016 
L 311.39276 96.794245 
L 311.71774 94.193807 
L 312.042719 92.542115 
L 312.367699 89.883695 
L 312.692678 86.286807 
L 313.017658 78.675291 
L 313.342637 78.934469 
L 313.667617 85.436607 
L 313.992596 99.357343 
L 314.317576 86.308396 
L 314.642555 88.642848 
L 315.292514 95.536349 
L 315.942473 85.623859 
L 316.267453 84.700274 
L 316.592432 89.540742 
L 316.917412 87.106927 
L 317.242391 80.678687 
L 317.567371 68.726062 
L 317.892351 75.821704 
L 318.21733 72.455693 
L 318.54231 72.807092 
L 318.867289 64.412078 
L 319.192269 78.016771 
L 319.517248 79.701215 
L 319.842228 86.451165 
L 320.167207 85.74246 
L 320.492187 82.46017 
L 320.817166 88.211469 
L 321.142146 84.757144 
L 321.792105 95.287773 
L 322.117084 92.542804 
L 322.442064 96.147226 
L 322.767043 108.215388 
L 323.092023 100.019653 
L 323.417002 96.282529 
L 323.741982 98.200519 
L 324.716921 82.365803 
L 325.0419 90.402733 
L 325.36688 84.618344 
L 326.016839 69.077612 
L 326.341818 64.464544 
L 326.666798 65.140031 
L 326.991777 75.248256 
L 327.316757 78.016482 
L 327.641736 68.321779 
L 327.966716 91.543487 
L 328.291695 132.706394 
L 328.616675 123.72577 
L 329.591613 82.973035 
L 329.916593 80.970317 
L 330.241572 68.636634 
L 330.566552 74.223173 
L 330.891532 69.148992 
L 331.216511 68.259286 
L 331.541491 68.349652 
L 332.19145 83.997316 
L 332.516429 71.239804 
L 332.841409 76.307393 
L 333.166388 75.9401 
L 333.491368 73.272809 
L 333.816347 78.034584 
L 334.141327 81.119881 
L 334.466306 81.075682 
L 334.791286 99.700576 
L 335.116265 103.290433 
L 335.441245 95.63427 
L 335.766224 93.960735 
L 336.091204 98.074114 
L 336.741163 83.560025 
L 337.066143 83.827208 
L 337.391122 92.793671 
L 337.716102 82.437665 
L 338.041081 79.019215 
L 338.366061 85.94 
L 338.69104 88.853744 
L 339.01602 100.171634 
L 339.340999 85.514364 
L 339.990958 89.172389 
L 340.640917 91.134305 
L 340.965897 108.822723 
L 341.290876 111.612899 
L 341.615856 115.826275 
L 341.940835 110.320579 
L 342.590794 102.384961 
L 342.915774 94.338817 
L 343.240753 109.317948 
L 343.565733 107.952454 
L 344.540672 86.874308 
L 344.865651 84.536371 
L 345.190631 93.746162 
L 345.51561 81.456304 
L 345.84059 78.029798 
L 346.165569 83.103036 
L 346.815528 103.200408 
L 347.140508 93.397172 
L 347.465487 89.758196 
L 347.790467 90.511521 
L 348.115446 86.830408 
L 348.440426 88.0166 
L 348.765405 90.494122 
L 349.090385 90.501248 
L 349.415364 92.531457 
L 349.740344 93.651492 
L 350.715283 74.553032 
L 351.040262 84.983679 
L 351.365242 99.136749 
L 351.690221 102.771221 
L 352.015201 124.889268 
L 352.34018 111.344291 
L 352.66516 106.479152 
L 352.990139 94.841095 
L 353.315119 99.720583 
L 353.640098 94.321061 
L 353.965078 94.91472 
L 354.290057 98.474095 
L 354.615037 90.866491 
L 354.940016 91.341544 
L 355.264996 80.679824 
L 355.589975 80.099245 
L 355.914955 97.11651 
L 356.239934 102.660701 
L 356.564914 101.333434 
L 356.889894 109.193739 
L 357.214873 94.712582 
L 357.539853 87.637147 
L 357.864832 96.899696 
L 358.189812 89.3122 
L 358.514791 90.705925 
L 358.839771 99.700421 
L 359.16475 103.452845 
L 359.48973 93.6214 
L 359.814709 92.651171 
L 360.139689 90.763802 
L 360.464668 88.000485 
L 360.789648 89.503091 
L 361.114627 106.248647 
L 361.439607 102.462158 
L 361.764586 108.029083 
L 362.414545 100.50928 
L 362.739525 105.545324 
L 363.064505 98.547337 
L 363.389484 97.740705 
L 363.714464 93.587119 
L 364.039443 96.774977 
L 364.364423 80.809234 
L 364.689402 79.685282 
L 365.014382 76.444106 
L 365.339361 90.263499 
L 365.98932 80.690788 
L 366.3143 70.748822 
L 366.639279 76.593499 
L 367.289238 72.266048 
L 367.614218 76.46474 
L 367.939197 71.27742 
L 368.264177 72.305662 
L 368.914136 70.353016 
L 369.239115 72.307148 
L 369.564095 73.482213 
L 370.214054 92.828907 
L 370.539034 87.746251 
L 370.864013 94.711866 
L 371.188993 94.483378 
L 371.513972 88.306456 
L 371.838952 90.598357 
L 372.163931 107.180977 
L 372.488911 91.408162 
L 372.81389 86.421871 
L 373.463849 84.05431 
L 373.788829 91.311012 
L 374.113808 85.898078 
L 374.438788 93.906115 
L 374.763767 85.295843 
L 375.088747 91.640711 
L 375.413726 90.377601 
L 375.738706 87.629112 
L 376.063686 88.852493 
L 376.388665 82.409892 
L 376.713645 83.264835 
L 377.038624 86.016424 
L 377.363604 82.018954 
L 377.688583 88.057195 
L 378.013563 90.187928 
L 378.338542 99.171178 
L 378.663522 94.10334 
L 378.988501 83.721657 
L 379.313481 88.896847 
L 379.63846 89.983788 
L 379.96344 92.169718 
L 380.288419 91.607156 
L 380.613399 82.530895 
L 380.938378 76.989683 
L 381.263358 81.990719 
L 381.588337 74.106617 
L 382.238296 81.147766 
L 382.563276 80.918154 
L 382.888256 90.151329 
L 383.213235 81.647105 
L 383.538215 80.710574 
L 383.863194 87.662432 
L 384.188174 92.064037 
L 384.513153 92.878825 
L 384.838133 94.785082 
L 385.163112 97.852447 
L 385.488092 89.740176 
L 385.813071 87.457665 
L 386.46303 80.708331 
L 386.78801 81.58444 
L 387.112989 90.807463 
L 387.762948 84.301717 
L 388.087928 85.778449 
L 388.412907 73.236747 
L 388.737887 72.380364 
L 389.062867 73.873868 
L 389.712826 63.785093 
L 390.037805 68.214721 
L 390.362785 67.536731 
L 390.687764 63.34722 
L 391.012744 84.888404 
L 391.337723 84.934168 
L 391.662703 79.956721 
L 391.987682 68.813856 
L 392.312662 74.68975 
L 392.637641 86.167797 
L 392.962621 89.982919 
L 393.2876 90.5406 
L 393.61258 86.078869 
L 393.937559 70.523259 
L 394.262539 71.783826 
L 394.587518 66.130028 
L 395.237477 72.359157 
L 395.562457 81.782509 
L 395.887437 82.13362 
L 396.212416 88.649266 
L 396.537396 87.780756 
L 396.862375 94.820476 
L 397.512334 101.334499 
L 397.837314 96.874738 
L 398.162293 94.043627 
L 398.487273 87.002575 
L 398.487273 87.002575 
" style="fill:none;stroke:#1f77b4;stroke-linecap:square;stroke-width:1.5;"/>
   </g>
   <g id="line2d_13">
    <path clip-path="url(#p8b0ab0a322)" d="M 73.832727 290.887781 
L 79.0324 291.080147 
L 86.831908 291.516663 
L 134.278919 292.243247 
L 135.903817 292.20864 
L 137.528714 292.218394 
L 140.12855 292.271869 
L 141.103489 292.277074 
L 147.2781 292.448671 
L 148.578018 292.400794 
L 149.552957 292.44842 
L 153.452711 292.460399 
L 154.10267 292.464766 
L 155.077609 292.508639 
L 156.702506 292.428615 
L 164.826994 292.60429 
L 165.476953 292.560246 
L 169.051728 292.638596 
L 169.376708 292.535136 
L 171.651564 292.741334 
L 172.951482 292.690658 
L 174.2514 292.81116 
L 176.851237 292.8187 
L 177.826175 292.822952 
L 179.126093 292.821664 
L 182.700868 292.959185 
L 183.350827 292.912709 
L 184.000786 292.970143 
L 184.650745 292.868173 
L 185.300704 292.909001 
L 186.600622 292.955339 
L 187.575561 293.074811 
L 190.175397 293.005723 
L 191.475315 293.062217 
L 192.450254 293.005191 
L 193.100213 292.981264 
L 193.750172 293.02464 
L 195.37507 293.045686 
L 196.025029 293.102897 
L 196.350008 292.917462 
L 198.949844 293.137238 
L 199.924783 293.100342 
L 200.899722 293.196442 
L 204.149517 293.250204 
L 205.449435 293.320052 
L 207.074333 293.25348 
L 207.724292 293.262286 
L 212.274005 293.270588 
L 214.548862 293.494195 
L 215.198821 293.337212 
L 215.84878 293.331625 
L 221.373432 293.461124 
L 222.023391 293.509678 
L 223.648288 293.400309 
L 224.948206 293.339046 
L 227.223063 293.417828 
L 228.847961 293.36802 
L 231.122817 293.603985 
L 232.097756 293.650753 
L 239.572285 293.623964 
L 239.897265 293.543244 
L 240.547224 293.600011 
L 244.446978 293.657152 
L 244.771957 293.60035 
L 245.421916 293.651596 
L 248.021753 293.758496 
L 248.671712 293.684714 
L 249.64665 293.774279 
L 251.596527 293.825053 
L 253.546405 293.950701 
L 254.196364 294.020811 
L 257.446159 293.779777 
L 258.746077 293.923118 
L 260.370975 293.889636 
L 260.695954 293.982198 
L 261.670893 293.99032 
L 263.62077 294.058511 
L 264.270729 294.151457 
L 265.570647 294.023006 
L 268.495463 293.930877 
L 269.795381 294.009807 
L 270.44534 294.032669 
L 271.095299 294.146207 
L 273.370156 293.983284 
L 274.345094 293.99638 
L 274.995053 293.946748 
L 275.969992 294.14053 
L 276.619951 294.128918 
L 277.594889 294.175782 
L 278.244848 294.244104 
L 279.219787 294.118227 
L 279.869746 294.258621 
L 280.194726 294.030171 
L 281.819623 294.209273 
L 282.794562 294.044866 
L 283.444521 294.139522 
L 284.09448 294.097577 
L 285.069419 294.168512 
L 285.394398 294.12538 
L 286.044357 294.218784 
L 286.694316 294.214258 
L 287.344275 294.231778 
L 288.644193 294.305827 
L 289.619132 294.171157 
L 289.944111 294.279457 
L 291.569009 294.270031 
L 292.543948 294.319315 
L 293.193907 294.275725 
L 295.793743 294.206609 
L 296.443702 294.241275 
L 297.093661 294.203564 
L 297.41864 294.304189 
L 298.393579 294.243103 
L 299.043538 294.335948 
L 300.668436 294.230478 
L 300.993415 294.294354 
L 301.318395 294.217929 
L 302.293333 294.342971 
L 302.618313 294.285797 
L 302.943292 294.34662 
L 303.593251 294.272018 
L 304.56819 294.279429 
L 305.543129 294.330143 
L 306.843047 294.28499 
L 307.817985 294.387746 
L 308.792924 294.459902 
L 312.367699 294.437263 
L 313.667617 294.485217 
L 313.992596 294.387714 
L 314.642555 294.448256 
L 315.617494 294.441977 
L 316.592432 294.469372 
L 319.517248 294.587272 
L 320.167207 294.547188 
L 321.142146 294.566739 
L 323.092023 294.472651 
L 326.666798 294.752806 
L 327.316757 294.668801 
L 327.641736 294.74238 
L 327.966716 294.57003 
L 328.291695 294.247599 
L 330.566552 294.736677 
L 331.541491 294.793847 
L 332.19145 294.68187 
L 332.516429 294.782176 
L 334.141327 294.732857 
L 334.466306 294.739766 
L 334.791286 294.585774 
L 335.441245 294.627624 
L 338.366061 294.738978 
L 342.265815 294.618771 
L 342.915774 294.730511 
L 343.240753 294.604946 
L 344.215692 294.744731 
L 344.865651 294.815233 
L 345.190631 294.743114 
L 345.84059 294.875295 
L 347.465487 294.793566 
L 350.390303 294.888963 
L 350.715283 294.931838 
L 352.34018 294.646865 
L 353.965078 294.806551 
L 354.615037 294.845383 
L 356.564914 294.778926 
L 356.889894 294.712143 
L 357.539853 294.901414 
L 357.864832 294.823094 
L 358.514791 294.882526 
L 359.16475 294.776712 
L 359.814709 294.87999 
L 360.789648 294.916166 
L 361.114627 294.771387 
L 362.414545 294.836594 
L 363.064505 294.862248 
L 364.689402 295.042609 
L 365.014382 295.071435 
L 365.339361 294.961063 
L 367.289238 295.131912 
L 368.264177 295.143324 
L 369.889075 295.08528 
L 370.214054 294.990025 
L 370.864013 294.97808 
L 371.838952 295.02998 
L 372.163931 294.882008 
L 372.81389 295.074974 
L 377.363604 295.166684 
L 378.663522 295.076601 
L 378.988501 295.162595 
L 379.96344 295.111039 
L 380.613399 295.200553 
L 381.588337 295.276585 
L 382.888256 295.142227 
L 383.538215 295.223182 
L 384.513153 295.136395 
L 385.488092 295.174378 
L 390.687764 295.462694 
L 391.012744 295.296105 
L 391.662703 295.349759 
L 391.987682 295.449645 
L 393.61258 295.301967 
L 393.937559 295.44127 
L 396.537396 295.322212 
L 397.512334 295.203878 
L 398.487273 295.35808 
L 398.487273 295.35808 
" style="fill:none;stroke:#ff7f0e;stroke-linecap:square;stroke-width:1.5;"/>
   </g>
   <g id="patch_3">
    <path d="M 57.6 307.584 
L 57.6 41.472 
" style="fill:none;stroke:#000000;stroke-linecap:square;stroke-linejoin:miter;stroke-width:0.8;"/>
   </g>
   <g id="patch_4">
    <path d="M 414.72 307.584 
L 414.72 41.472 
" style="fill:none;stroke:#000000;stroke-linecap:square;stroke-linejoin:miter;stroke-width:0.8;"/>
   </g>
   <g id="patch_5">
    <path d="M 57.6 307.584 
L 414.72 307.584 
" style="fill:none;stroke:#000000;stroke-linecap:square;stroke-linejoin:miter;stroke-width:0.8;"/>
   </g>
   <g id="patch_6">
    <path d="M 57.6 41.472 
L 414.72 41.472 
" style="fill:none;stroke:#000000;stroke-linecap:square;stroke-linejoin:miter;stroke-width:0.8;"/>
   </g>
  </g>
 </g>
 <defs>
  <clipPath id="p8b0ab0a322">
   <rect height="266.112" width="357.12" x="57.6" y="41.472"/>
  </clipPath>
 </defs>
</svg>
