<?xml version="1.0" encoding="utf-8" standalone="no"?>
<!DOCTYPE svg PUBLIC "-//W3C//DTD SVG 1.1//EN"
  "http://www.w3.org/Graphics/SVG/1.1/DTD/svg11.dtd">
<!-- Created with matplotlib (https://matplotlib.org/) -->
<svg height="345.6pt" version="1.1" viewBox="0 0 460.8 345.6" width="460.8pt" xmlns="http://www.w3.org/2000/svg" xmlns:xlink="http://www.w3.org/1999/xlink">
 <metadata>
  <rdf:RDF xmlns:cc="http://creativecommons.org/ns#" xmlns:dc="http://purl.org/dc/elements/1.1/" xmlns:rdf="http://www.w3.org/1999/02/22-rdf-syntax-ns#">
   <cc:Work>
    <dc:type rdf:resource="http://purl.org/dc/dcmitype/StillImage"/>
    <dc:date>2020-10-07T15:22:33.731666</dc:date>
    <dc:format>image/svg+xml</dc:format>
    <dc:creator>
     <cc:Agent>
      <dc:title>Matplotlib v3.3.2, https://matplotlib.org/</dc:title>
     </cc:Agent>
    </dc:creator>
   </cc:Work>
  </rdf:RDF>
 </metadata>
 <defs>
  <style type="text/css">*{stroke-linecap:butt;stroke-linejoin:round;}</style>
 </defs>
 <g id="figure_1">
  <g id="patch_1">
   <path d="M 0 345.6 
L 460.8 345.6 
L 460.8 0 
L 0 0 
z
" style="fill:#ffffff;"/>
  </g>
  <g id="axes_1">
   <g id="patch_2">
    <path d="M 57.6 307.584 
L 414.72 307.584 
L 414.72 41.472 
L 57.6 41.472 
z
" style="fill:#ffffff;"/>
   </g>
   <g id="matplotlib.axis_1">
    <g id="xtick_1">
     <g id="line2d_1">
      <defs>
       <path d="M 0 0 
L 0 3.5 
" id="m05bc14e5c3" style="stroke:#000000;stroke-width:0.8;"/>
      </defs>
      <g>
       <use style="stroke:#000000;stroke-width:0.8;" x="73.832727" xlink:href="#m05bc14e5c3" y="307.584"/>
      </g>
     </g>
     <g id="text_1">
      <!-- 0 -->
      <g transform="translate(70.651477 322.182437)scale(0.1 -0.1)">
       <defs>
        <path d="M 31.78125 66.40625 
Q 24.171875 66.40625 20.328125 58.90625 
Q 16.5 51.421875 16.5 36.375 
Q 16.5 21.390625 20.328125 13.890625 
Q 24.171875 6.390625 31.78125 6.390625 
Q 39.453125 6.390625 43.28125 13.890625 
Q 47.125 21.390625 47.125 36.375 
Q 47.125 51.421875 43.28125 58.90625 
Q 39.453125 66.40625 31.78125 66.40625 
z
M 31.78125 74.21875 
Q 44.046875 74.21875 50.515625 64.515625 
Q 56.984375 54.828125 56.984375 36.375 
Q 56.984375 17.96875 50.515625 8.265625 
Q 44.046875 -1.421875 31.78125 -1.421875 
Q 19.53125 -1.421875 13.0625 8.265625 
Q 6.59375 17.96875 6.59375 36.375 
Q 6.59375 54.828125 13.0625 64.515625 
Q 19.53125 74.21875 31.78125 74.21875 
z
" id="DejaVuSans-48"/>
       </defs>
       <use xlink:href="#DejaVuSans-48"/>
      </g>
     </g>
    </g>
    <g id="xtick_2">
     <g id="line2d_2">
      <g>
       <use style="stroke:#000000;stroke-width:0.8;" x="138.828632" xlink:href="#m05bc14e5c3" y="307.584"/>
      </g>
     </g>
     <g id="text_2">
      <!-- 20 -->
      <g transform="translate(132.466132 322.182437)scale(0.1 -0.1)">
       <defs>
        <path d="M 19.1875 8.296875 
L 53.609375 8.296875 
L 53.609375 0 
L 7.328125 0 
L 7.328125 8.296875 
Q 12.9375 14.109375 22.625 23.890625 
Q 32.328125 33.6875 34.8125 36.53125 
Q 39.546875 41.84375 41.421875 45.53125 
Q 43.3125 49.21875 43.3125 52.78125 
Q 43.3125 58.59375 39.234375 62.25 
Q 35.15625 65.921875 28.609375 65.921875 
Q 23.96875 65.921875 18.8125 64.3125 
Q 13.671875 62.703125 7.8125 59.421875 
L 7.8125 69.390625 
Q 13.765625 71.78125 18.9375 73 
Q 24.125 74.21875 28.421875 74.21875 
Q 39.75 74.21875 46.484375 68.546875 
Q 53.21875 62.890625 53.21875 53.421875 
Q 53.21875 48.921875 51.53125 44.890625 
Q 49.859375 40.875 45.40625 35.40625 
Q 44.1875 33.984375 37.640625 27.21875 
Q 31.109375 20.453125 19.1875 8.296875 
z
" id="DejaVuSans-50"/>
       </defs>
       <use xlink:href="#DejaVuSans-50"/>
       <use x="63.623047" xlink:href="#DejaVuSans-48"/>
      </g>
     </g>
    </g>
    <g id="xtick_3">
     <g id="line2d_3">
      <g>
       <use style="stroke:#000000;stroke-width:0.8;" x="203.824537" xlink:href="#m05bc14e5c3" y="307.584"/>
      </g>
     </g>
     <g id="text_3">
      <!-- 40 -->
      <g transform="translate(197.462037 322.182437)scale(0.1 -0.1)">
       <defs>
        <path d="M 37.796875 64.3125 
L 12.890625 25.390625 
L 37.796875 25.390625 
z
M 35.203125 72.90625 
L 47.609375 72.90625 
L 47.609375 25.390625 
L 58.015625 25.390625 
L 58.015625 17.1875 
L 47.609375 17.1875 
L 47.609375 0 
L 37.796875 0 
L 37.796875 17.1875 
L 4.890625 17.1875 
L 4.890625 26.703125 
z
" id="DejaVuSans-52"/>
       </defs>
       <use xlink:href="#DejaVuSans-52"/>
       <use x="63.623047" xlink:href="#DejaVuSans-48"/>
      </g>
     </g>
    </g>
    <g id="xtick_4">
     <g id="line2d_4">
      <g>
       <use style="stroke:#000000;stroke-width:0.8;" x="268.820442" xlink:href="#m05bc14e5c3" y="307.584"/>
      </g>
     </g>
     <g id="text_4">
      <!-- 60 -->
      <g transform="translate(262.457942 322.182437)scale(0.1 -0.1)">
       <defs>
        <path d="M 33.015625 40.375 
Q 26.375 40.375 22.484375 35.828125 
Q 18.609375 31.296875 18.609375 23.390625 
Q 18.609375 15.53125 22.484375 10.953125 
Q 26.375 6.390625 33.015625 6.390625 
Q 39.65625 6.390625 43.53125 10.953125 
Q 47.40625 15.53125 47.40625 23.390625 
Q 47.40625 31.296875 43.53125 35.828125 
Q 39.65625 40.375 33.015625 40.375 
z
M 52.59375 71.296875 
L 52.59375 62.3125 
Q 48.875 64.0625 45.09375 64.984375 
Q 41.3125 65.921875 37.59375 65.921875 
Q 27.828125 65.921875 22.671875 59.328125 
Q 17.53125 52.734375 16.796875 39.40625 
Q 19.671875 43.65625 24.015625 45.921875 
Q 28.375 48.1875 33.59375 48.1875 
Q 44.578125 48.1875 50.953125 41.515625 
Q 57.328125 34.859375 57.328125 23.390625 
Q 57.328125 12.15625 50.6875 5.359375 
Q 44.046875 -1.421875 33.015625 -1.421875 
Q 20.359375 -1.421875 13.671875 8.265625 
Q 6.984375 17.96875 6.984375 36.375 
Q 6.984375 53.65625 15.1875 63.9375 
Q 23.390625 74.21875 37.203125 74.21875 
Q 40.921875 74.21875 44.703125 73.484375 
Q 48.484375 72.75 52.59375 71.296875 
z
" id="DejaVuSans-54"/>
       </defs>
       <use xlink:href="#DejaVuSans-54"/>
       <use x="63.623047" xlink:href="#DejaVuSans-48"/>
      </g>
     </g>
    </g>
    <g id="xtick_5">
     <g id="line2d_5">
      <g>
       <use style="stroke:#000000;stroke-width:0.8;" x="333.816347" xlink:href="#m05bc14e5c3" y="307.584"/>
      </g>
     </g>
     <g id="text_5">
      <!-- 80 -->
      <g transform="translate(327.453847 322.182437)scale(0.1 -0.1)">
       <defs>
        <path d="M 31.78125 34.625 
Q 24.75 34.625 20.71875 30.859375 
Q 16.703125 27.09375 16.703125 20.515625 
Q 16.703125 13.921875 20.71875 10.15625 
Q 24.75 6.390625 31.78125 6.390625 
Q 38.8125 6.390625 42.859375 10.171875 
Q 46.921875 13.96875 46.921875 20.515625 
Q 46.921875 27.09375 42.890625 30.859375 
Q 38.875 34.625 31.78125 34.625 
z
M 21.921875 38.8125 
Q 15.578125 40.375 12.03125 44.71875 
Q 8.5 49.078125 8.5 55.328125 
Q 8.5 64.0625 14.71875 69.140625 
Q 20.953125 74.21875 31.78125 74.21875 
Q 42.671875 74.21875 48.875 69.140625 
Q 55.078125 64.0625 55.078125 55.328125 
Q 55.078125 49.078125 51.53125 44.71875 
Q 48 40.375 41.703125 38.8125 
Q 48.828125 37.15625 52.796875 32.3125 
Q 56.78125 27.484375 56.78125 20.515625 
Q 56.78125 9.90625 50.3125 4.234375 
Q 43.84375 -1.421875 31.78125 -1.421875 
Q 19.734375 -1.421875 13.25 4.234375 
Q 6.78125 9.90625 6.78125 20.515625 
Q 6.78125 27.484375 10.78125 32.3125 
Q 14.796875 37.15625 21.921875 38.8125 
z
M 18.3125 54.390625 
Q 18.3125 48.734375 21.84375 45.5625 
Q 25.390625 42.390625 31.78125 42.390625 
Q 38.140625 42.390625 41.71875 45.5625 
Q 45.3125 48.734375 45.3125 54.390625 
Q 45.3125 60.0625 41.71875 63.234375 
Q 38.140625 66.40625 31.78125 66.40625 
Q 25.390625 66.40625 21.84375 63.234375 
Q 18.3125 60.0625 18.3125 54.390625 
z
" id="DejaVuSans-56"/>
       </defs>
       <use xlink:href="#DejaVuSans-56"/>
       <use x="63.623047" xlink:href="#DejaVuSans-48"/>
      </g>
     </g>
    </g>
    <g id="xtick_6">
     <g id="line2d_6">
      <g>
       <use style="stroke:#000000;stroke-width:0.8;" x="398.812252" xlink:href="#m05bc14e5c3" y="307.584"/>
      </g>
     </g>
     <g id="text_6">
      <!-- 100 -->
      <g transform="translate(389.268502 322.182437)scale(0.1 -0.1)">
       <defs>
        <path d="M 12.40625 8.296875 
L 28.515625 8.296875 
L 28.515625 63.921875 
L 10.984375 60.40625 
L 10.984375 69.390625 
L 28.421875 72.90625 
L 38.28125 72.90625 
L 38.28125 8.296875 
L 54.390625 8.296875 
L 54.390625 0 
L 12.40625 0 
z
" id="DejaVuSans-49"/>
       </defs>
       <use xlink:href="#DejaVuSans-49"/>
       <use x="63.623047" xlink:href="#DejaVuSans-48"/>
       <use x="127.246094" xlink:href="#DejaVuSans-48"/>
      </g>
     </g>
    </g>
    <g id="text_7">
     <!-- Time (days) -->
     <g transform="translate(206.633437 335.860562)scale(0.1 -0.1)">
      <defs>
       <path d="M -0.296875 72.90625 
L 61.375 72.90625 
L 61.375 64.59375 
L 35.5 64.59375 
L 35.5 0 
L 25.59375 0 
L 25.59375 64.59375 
L -0.296875 64.59375 
z
" id="DejaVuSans-84"/>
       <path d="M 9.421875 54.6875 
L 18.40625 54.6875 
L 18.40625 0 
L 9.421875 0 
z
M 9.421875 75.984375 
L 18.40625 75.984375 
L 18.40625 64.59375 
L 9.421875 64.59375 
z
" id="DejaVuSans-105"/>
       <path d="M 52 44.1875 
Q 55.375 50.25 60.0625 53.125 
Q 64.75 56 71.09375 56 
Q 79.640625 56 84.28125 50.015625 
Q 88.921875 44.046875 88.921875 33.015625 
L 88.921875 0 
L 79.890625 0 
L 79.890625 32.71875 
Q 79.890625 40.578125 77.09375 44.375 
Q 74.3125 48.1875 68.609375 48.1875 
Q 61.625 48.1875 57.5625 43.546875 
Q 53.515625 38.921875 53.515625 30.90625 
L 53.515625 0 
L 44.484375 0 
L 44.484375 32.71875 
Q 44.484375 40.625 41.703125 44.40625 
Q 38.921875 48.1875 33.109375 48.1875 
Q 26.21875 48.1875 22.15625 43.53125 
Q 18.109375 38.875 18.109375 30.90625 
L 18.109375 0 
L 9.078125 0 
L 9.078125 54.6875 
L 18.109375 54.6875 
L 18.109375 46.1875 
Q 21.1875 51.21875 25.484375 53.609375 
Q 29.78125 56 35.6875 56 
Q 41.65625 56 45.828125 52.96875 
Q 50 49.953125 52 44.1875 
z
" id="DejaVuSans-109"/>
       <path d="M 56.203125 29.59375 
L 56.203125 25.203125 
L 14.890625 25.203125 
Q 15.484375 15.921875 20.484375 11.0625 
Q 25.484375 6.203125 34.421875 6.203125 
Q 39.59375 6.203125 44.453125 7.46875 
Q 49.3125 8.734375 54.109375 11.28125 
L 54.109375 2.78125 
Q 49.265625 0.734375 44.1875 -0.34375 
Q 39.109375 -1.421875 33.890625 -1.421875 
Q 20.796875 -1.421875 13.15625 6.1875 
Q 5.515625 13.8125 5.515625 26.8125 
Q 5.515625 40.234375 12.765625 48.109375 
Q 20.015625 56 32.328125 56 
Q 43.359375 56 49.78125 48.890625 
Q 56.203125 41.796875 56.203125 29.59375 
z
M 47.21875 32.234375 
Q 47.125 39.59375 43.09375 43.984375 
Q 39.0625 48.390625 32.421875 48.390625 
Q 24.90625 48.390625 20.390625 44.140625 
Q 15.875 39.890625 15.1875 32.171875 
z
" id="DejaVuSans-101"/>
       <path id="DejaVuSans-32"/>
       <path d="M 31 75.875 
Q 24.46875 64.65625 21.28125 53.65625 
Q 18.109375 42.671875 18.109375 31.390625 
Q 18.109375 20.125 21.3125 9.0625 
Q 24.515625 -2 31 -13.1875 
L 23.1875 -13.1875 
Q 15.875 -1.703125 12.234375 9.375 
Q 8.59375 20.453125 8.59375 31.390625 
Q 8.59375 42.28125 12.203125 53.3125 
Q 15.828125 64.359375 23.1875 75.875 
z
" id="DejaVuSans-40"/>
       <path d="M 45.40625 46.390625 
L 45.40625 75.984375 
L 54.390625 75.984375 
L 54.390625 0 
L 45.40625 0 
L 45.40625 8.203125 
Q 42.578125 3.328125 38.25 0.953125 
Q 33.9375 -1.421875 27.875 -1.421875 
Q 17.96875 -1.421875 11.734375 6.484375 
Q 5.515625 14.40625 5.515625 27.296875 
Q 5.515625 40.1875 11.734375 48.09375 
Q 17.96875 56 27.875 56 
Q 33.9375 56 38.25 53.625 
Q 42.578125 51.265625 45.40625 46.390625 
z
M 14.796875 27.296875 
Q 14.796875 17.390625 18.875 11.75 
Q 22.953125 6.109375 30.078125 6.109375 
Q 37.203125 6.109375 41.296875 11.75 
Q 45.40625 17.390625 45.40625 27.296875 
Q 45.40625 37.203125 41.296875 42.84375 
Q 37.203125 48.484375 30.078125 48.484375 
Q 22.953125 48.484375 18.875 42.84375 
Q 14.796875 37.203125 14.796875 27.296875 
z
" id="DejaVuSans-100"/>
       <path d="M 34.28125 27.484375 
Q 23.390625 27.484375 19.1875 25 
Q 14.984375 22.515625 14.984375 16.5 
Q 14.984375 11.71875 18.140625 8.90625 
Q 21.296875 6.109375 26.703125 6.109375 
Q 34.1875 6.109375 38.703125 11.40625 
Q 43.21875 16.703125 43.21875 25.484375 
L 43.21875 27.484375 
z
M 52.203125 31.203125 
L 52.203125 0 
L 43.21875 0 
L 43.21875 8.296875 
Q 40.140625 3.328125 35.546875 0.953125 
Q 30.953125 -1.421875 24.3125 -1.421875 
Q 15.921875 -1.421875 10.953125 3.296875 
Q 6 8.015625 6 15.921875 
Q 6 25.140625 12.171875 29.828125 
Q 18.359375 34.515625 30.609375 34.515625 
L 43.21875 34.515625 
L 43.21875 35.40625 
Q 43.21875 41.609375 39.140625 45 
Q 35.0625 48.390625 27.6875 48.390625 
Q 23 48.390625 18.546875 47.265625 
Q 14.109375 46.140625 10.015625 43.890625 
L 10.015625 52.203125 
Q 14.9375 54.109375 19.578125 55.046875 
Q 24.21875 56 28.609375 56 
Q 40.484375 56 46.34375 49.84375 
Q 52.203125 43.703125 52.203125 31.203125 
z
" id="DejaVuSans-97"/>
       <path d="M 32.171875 -5.078125 
Q 28.375 -14.84375 24.75 -17.8125 
Q 21.140625 -20.796875 15.09375 -20.796875 
L 7.90625 -20.796875 
L 7.90625 -13.28125 
L 13.1875 -13.28125 
Q 16.890625 -13.28125 18.9375 -11.515625 
Q 21 -9.765625 23.484375 -3.21875 
L 25.09375 0.875 
L 2.984375 54.6875 
L 12.5 54.6875 
L 29.59375 11.921875 
L 46.6875 54.6875 
L 56.203125 54.6875 
z
" id="DejaVuSans-121"/>
       <path d="M 44.28125 53.078125 
L 44.28125 44.578125 
Q 40.484375 46.53125 36.375 47.5 
Q 32.28125 48.484375 27.875 48.484375 
Q 21.1875 48.484375 17.84375 46.4375 
Q 14.5 44.390625 14.5 40.28125 
Q 14.5 37.15625 16.890625 35.375 
Q 19.28125 33.59375 26.515625 31.984375 
L 29.59375 31.296875 
Q 39.15625 29.25 43.1875 25.515625 
Q 47.21875 21.78125 47.21875 15.09375 
Q 47.21875 7.46875 41.1875 3.015625 
Q 35.15625 -1.421875 24.609375 -1.421875 
Q 20.21875 -1.421875 15.453125 -0.5625 
Q 10.6875 0.296875 5.421875 2 
L 5.421875 11.28125 
Q 10.40625 8.6875 15.234375 7.390625 
Q 20.0625 6.109375 24.8125 6.109375 
Q 31.15625 6.109375 34.5625 8.28125 
Q 37.984375 10.453125 37.984375 14.40625 
Q 37.984375 18.0625 35.515625 20.015625 
Q 33.0625 21.96875 24.703125 23.78125 
L 21.578125 24.515625 
Q 13.234375 26.265625 9.515625 29.90625 
Q 5.8125 33.546875 5.8125 39.890625 
Q 5.8125 47.609375 11.28125 51.796875 
Q 16.75 56 26.8125 56 
Q 31.78125 56 36.171875 55.265625 
Q 40.578125 54.546875 44.28125 53.078125 
z
" id="DejaVuSans-115"/>
       <path d="M 8.015625 75.875 
L 15.828125 75.875 
Q 23.140625 64.359375 26.78125 53.3125 
Q 30.421875 42.28125 30.421875 31.390625 
Q 30.421875 20.453125 26.78125 9.375 
Q 23.140625 -1.703125 15.828125 -13.1875 
L 8.015625 -13.1875 
Q 14.5 -2 17.703125 9.0625 
Q 20.90625 20.125 20.90625 31.390625 
Q 20.90625 42.671875 17.703125 53.65625 
Q 14.5 64.65625 8.015625 75.875 
z
" id="DejaVuSans-41"/>
      </defs>
      <use xlink:href="#DejaVuSans-84"/>
      <use x="57.958984" xlink:href="#DejaVuSans-105"/>
      <use x="85.742188" xlink:href="#DejaVuSans-109"/>
      <use x="183.154297" xlink:href="#DejaVuSans-101"/>
      <use x="244.677734" xlink:href="#DejaVuSans-32"/>
      <use x="276.464844" xlink:href="#DejaVuSans-40"/>
      <use x="315.478516" xlink:href="#DejaVuSans-100"/>
      <use x="378.955078" xlink:href="#DejaVuSans-97"/>
      <use x="440.234375" xlink:href="#DejaVuSans-121"/>
      <use x="499.414062" xlink:href="#DejaVuSans-115"/>
      <use x="551.513672" xlink:href="#DejaVuSans-41"/>
     </g>
    </g>
   </g>
   <g id="matplotlib.axis_2">
    <g id="ytick_1">
     <g id="line2d_7">
      <defs>
       <path d="M 0 0 
L -3.5 0 
" id="mf45fd8f13b" style="stroke:#000000;stroke-width:0.8;"/>
      </defs>
      <g>
       <use style="stroke:#000000;stroke-width:0.8;" x="57.6" xlink:href="#mf45fd8f13b" y="288.767714"/>
      </g>
     </g>
     <g id="text_8">
      <!-- 0 -->
      <g transform="translate(44.2375 292.566933)scale(0.1 -0.1)">
       <use xlink:href="#DejaVuSans-48"/>
      </g>
     </g>
    </g>
    <g id="ytick_2">
     <g id="line2d_8">
      <g>
       <use style="stroke:#000000;stroke-width:0.8;" x="57.6" xlink:href="#mf45fd8f13b" y="257.951912"/>
      </g>
     </g>
     <g id="text_9">
      <!-- 500 -->
      <g transform="translate(31.5125 261.751131)scale(0.1 -0.1)">
       <defs>
        <path d="M 10.796875 72.90625 
L 49.515625 72.90625 
L 49.515625 64.59375 
L 19.828125 64.59375 
L 19.828125 46.734375 
Q 21.96875 47.46875 24.109375 47.828125 
Q 26.265625 48.1875 28.421875 48.1875 
Q 40.625 48.1875 47.75 41.5 
Q 54.890625 34.8125 54.890625 23.390625 
Q 54.890625 11.625 47.5625 5.09375 
Q 40.234375 -1.421875 26.90625 -1.421875 
Q 22.3125 -1.421875 17.546875 -0.640625 
Q 12.796875 0.140625 7.71875 1.703125 
L 7.71875 11.625 
Q 12.109375 9.234375 16.796875 8.0625 
Q 21.484375 6.890625 26.703125 6.890625 
Q 35.15625 6.890625 40.078125 11.328125 
Q 45.015625 15.765625 45.015625 23.390625 
Q 45.015625 31 40.078125 35.4375 
Q 35.15625 39.890625 26.703125 39.890625 
Q 22.75 39.890625 18.8125 39.015625 
Q 14.890625 38.140625 10.796875 36.28125 
z
" id="DejaVuSans-53"/>
       </defs>
       <use xlink:href="#DejaVuSans-53"/>
       <use x="63.623047" xlink:href="#DejaVuSans-48"/>
       <use x="127.246094" xlink:href="#DejaVuSans-48"/>
      </g>
     </g>
    </g>
    <g id="ytick_3">
     <g id="line2d_9">
      <g>
       <use style="stroke:#000000;stroke-width:0.8;" x="57.6" xlink:href="#mf45fd8f13b" y="227.13611"/>
      </g>
     </g>
     <g id="text_10">
      <!-- 1000 -->
      <g transform="translate(25.15 230.935328)scale(0.1 -0.1)">
       <use xlink:href="#DejaVuSans-49"/>
       <use x="63.623047" xlink:href="#DejaVuSans-48"/>
       <use x="127.246094" xlink:href="#DejaVuSans-48"/>
       <use x="190.869141" xlink:href="#DejaVuSans-48"/>
      </g>
     </g>
    </g>
    <g id="ytick_4">
     <g id="line2d_10">
      <g>
       <use style="stroke:#000000;stroke-width:0.8;" x="57.6" xlink:href="#mf45fd8f13b" y="196.320307"/>
      </g>
     </g>
     <g id="text_11">
      <!-- 1500 -->
      <g transform="translate(25.15 200.119526)scale(0.1 -0.1)">
       <use xlink:href="#DejaVuSans-49"/>
       <use x="63.623047" xlink:href="#DejaVuSans-53"/>
       <use x="127.246094" xlink:href="#DejaVuSans-48"/>
       <use x="190.869141" xlink:href="#DejaVuSans-48"/>
      </g>
     </g>
    </g>
    <g id="ytick_5">
     <g id="line2d_11">
      <g>
       <use style="stroke:#000000;stroke-width:0.8;" x="57.6" xlink:href="#mf45fd8f13b" y="165.504505"/>
      </g>
     </g>
     <g id="text_12">
      <!-- 2000 -->
      <g transform="translate(25.15 169.303724)scale(0.1 -0.1)">
       <use xlink:href="#DejaVuSans-50"/>
       <use x="63.623047" xlink:href="#DejaVuSans-48"/>
       <use x="127.246094" xlink:href="#DejaVuSans-48"/>
       <use x="190.869141" xlink:href="#DejaVuSans-48"/>
      </g>
     </g>
    </g>
    <g id="ytick_6">
     <g id="line2d_12">
      <g>
       <use style="stroke:#000000;stroke-width:0.8;" x="57.6" xlink:href="#mf45fd8f13b" y="134.688703"/>
      </g>
     </g>
     <g id="text_13">
      <!-- 2500 -->
      <g transform="translate(25.15 138.487921)scale(0.1 -0.1)">
       <use xlink:href="#DejaVuSans-50"/>
       <use x="63.623047" xlink:href="#DejaVuSans-53"/>
       <use x="127.246094" xlink:href="#DejaVuSans-48"/>
       <use x="190.869141" xlink:href="#DejaVuSans-48"/>
      </g>
     </g>
    </g>
    <g id="ytick_7">
     <g id="line2d_13">
      <g>
       <use style="stroke:#000000;stroke-width:0.8;" x="57.6" xlink:href="#mf45fd8f13b" y="103.8729"/>
      </g>
     </g>
     <g id="text_14">
      <!-- 3000 -->
      <g transform="translate(25.15 107.672119)scale(0.1 -0.1)">
       <defs>
        <path d="M 40.578125 39.3125 
Q 47.65625 37.796875 51.625 33 
Q 55.609375 28.21875 55.609375 21.1875 
Q 55.609375 10.40625 48.1875 4.484375 
Q 40.765625 -1.421875 27.09375 -1.421875 
Q 22.515625 -1.421875 17.65625 -0.515625 
Q 12.796875 0.390625 7.625 2.203125 
L 7.625 11.71875 
Q 11.71875 9.328125 16.59375 8.109375 
Q 21.484375 6.890625 26.8125 6.890625 
Q 36.078125 6.890625 40.9375 10.546875 
Q 45.796875 14.203125 45.796875 21.1875 
Q 45.796875 27.640625 41.28125 31.265625 
Q 36.765625 34.90625 28.71875 34.90625 
L 20.21875 34.90625 
L 20.21875 43.015625 
L 29.109375 43.015625 
Q 36.375 43.015625 40.234375 45.921875 
Q 44.09375 48.828125 44.09375 54.296875 
Q 44.09375 59.90625 40.109375 62.90625 
Q 36.140625 65.921875 28.71875 65.921875 
Q 24.65625 65.921875 20.015625 65.03125 
Q 15.375 64.15625 9.8125 62.3125 
L 9.8125 71.09375 
Q 15.4375 72.65625 20.34375 73.4375 
Q 25.25 74.21875 29.59375 74.21875 
Q 40.828125 74.21875 47.359375 69.109375 
Q 53.90625 64.015625 53.90625 55.328125 
Q 53.90625 49.265625 50.4375 45.09375 
Q 46.96875 40.921875 40.578125 39.3125 
z
" id="DejaVuSans-51"/>
       </defs>
       <use xlink:href="#DejaVuSans-51"/>
       <use x="63.623047" xlink:href="#DejaVuSans-48"/>
       <use x="127.246094" xlink:href="#DejaVuSans-48"/>
       <use x="190.869141" xlink:href="#DejaVuSans-48"/>
      </g>
     </g>
    </g>
    <g id="ytick_8">
     <g id="line2d_14">
      <g>
       <use style="stroke:#000000;stroke-width:0.8;" x="57.6" xlink:href="#mf45fd8f13b" y="73.057098"/>
      </g>
     </g>
     <g id="text_15">
      <!-- 3500 -->
      <g transform="translate(25.15 76.856317)scale(0.1 -0.1)">
       <use xlink:href="#DejaVuSans-51"/>
       <use x="63.623047" xlink:href="#DejaVuSans-53"/>
       <use x="127.246094" xlink:href="#DejaVuSans-48"/>
       <use x="190.869141" xlink:href="#DejaVuSans-48"/>
      </g>
     </g>
    </g>
    <g id="ytick_9">
     <g id="line2d_15">
      <g>
       <use style="stroke:#000000;stroke-width:0.8;" x="57.6" xlink:href="#mf45fd8f13b" y="42.241295"/>
      </g>
     </g>
     <g id="text_16">
      <!-- 4000 -->
      <g transform="translate(25.15 46.040514)scale(0.1 -0.1)">
       <use xlink:href="#DejaVuSans-52"/>
       <use x="63.623047" xlink:href="#DejaVuSans-48"/>
       <use x="127.246094" xlink:href="#DejaVuSans-48"/>
       <use x="190.869141" xlink:href="#DejaVuSans-48"/>
      </g>
     </g>
    </g>
    <g id="text_17">
     <!-- Density -->
     <g transform="translate(19.070312 193.536594)rotate(-90)scale(0.1 -0.1)">
      <defs>
       <path d="M 19.671875 64.796875 
L 19.671875 8.109375 
L 31.59375 8.109375 
Q 46.6875 8.109375 53.6875 14.9375 
Q 60.6875 21.78125 60.6875 36.53125 
Q 60.6875 51.171875 53.6875 57.984375 
Q 46.6875 64.796875 31.59375 64.796875 
z
M 9.8125 72.90625 
L 30.078125 72.90625 
Q 51.265625 72.90625 61.171875 64.09375 
Q 71.09375 55.28125 71.09375 36.53125 
Q 71.09375 17.671875 61.125 8.828125 
Q 51.171875 0 30.078125 0 
L 9.8125 0 
z
" id="DejaVuSans-68"/>
       <path d="M 54.890625 33.015625 
L 54.890625 0 
L 45.90625 0 
L 45.90625 32.71875 
Q 45.90625 40.484375 42.875 44.328125 
Q 39.84375 48.1875 33.796875 48.1875 
Q 26.515625 48.1875 22.3125 43.546875 
Q 18.109375 38.921875 18.109375 30.90625 
L 18.109375 0 
L 9.078125 0 
L 9.078125 54.6875 
L 18.109375 54.6875 
L 18.109375 46.1875 
Q 21.34375 51.125 25.703125 53.5625 
Q 30.078125 56 35.796875 56 
Q 45.21875 56 50.046875 50.171875 
Q 54.890625 44.34375 54.890625 33.015625 
z
" id="DejaVuSans-110"/>
       <path d="M 18.3125 70.21875 
L 18.3125 54.6875 
L 36.8125 54.6875 
L 36.8125 47.703125 
L 18.3125 47.703125 
L 18.3125 18.015625 
Q 18.3125 11.328125 20.140625 9.421875 
Q 21.96875 7.515625 27.59375 7.515625 
L 36.8125 7.515625 
L 36.8125 0 
L 27.59375 0 
Q 17.1875 0 13.234375 3.875 
Q 9.28125 7.765625 9.28125 18.015625 
L 9.28125 47.703125 
L 2.6875 47.703125 
L 2.6875 54.6875 
L 9.28125 54.6875 
L 9.28125 70.21875 
z
" id="DejaVuSans-116"/>
      </defs>
      <use xlink:href="#DejaVuSans-68"/>
      <use x="77.001953" xlink:href="#DejaVuSans-101"/>
      <use x="138.525391" xlink:href="#DejaVuSans-110"/>
      <use x="201.904297" xlink:href="#DejaVuSans-115"/>
      <use x="254.003906" xlink:href="#DejaVuSans-105"/>
      <use x="281.787109" xlink:href="#DejaVuSans-116"/>
      <use x="320.996094" xlink:href="#DejaVuSans-121"/>
     </g>
    </g>
   </g>
   <g id="line2d_16">
    <path clip-path="url(#p92be3b3633)" d="M 73.832727 288.151398 
L 74.482686 287.796589 
L 75.132645 287.224137 
L 75.782604 286.30339 
L 76.432563 284.83797 
L 77.082523 282.467464 
L 77.732482 278.73663 
L 78.382441 273.520082 
L 78.70742 270.017159 
L 79.357379 259.667841 
L 79.682359 253.52388 
L 80.982277 219.238193 
L 81.957215 181.379703 
L 82.282195 173.69801 
L 82.607174 160.458036 
L 82.932154 155.744265 
L 83.257133 142.131431 
L 83.582113 137.657068 
L 83.907093 136.626952 
L 84.232072 120.510807 
L 84.557052 133.976591 
L 85.207011 119.621065 
L 85.85697 132.050132 
L 86.181949 125.614756 
L 86.506929 124.657209 
L 86.831908 119.201452 
L 87.156888 126.840365 
L 87.481867 123.007662 
L 87.806847 129.709407 
L 88.456806 116.751861 
L 88.781785 125.182219 
L 89.106765 105.626471 
L 89.431744 98.992478 
L 89.756724 88.754718 
L 90.081704 84.673803 
L 90.406683 101.450046 
L 90.731663 98.720667 
L 91.056642 91.427811 
L 91.381622 92.680181 
L 91.706601 96.900528 
L 92.031581 103.198907 
L 92.35656 99.940448 
L 92.68154 102.54596 
L 93.006519 101.872727 
L 93.331499 100.696238 
L 93.656478 122.347576 
L 94.306437 110.815104 
L 94.631417 116.909573 
L 94.956396 112.458224 
L 95.281376 120.866843 
L 95.931335 100.040715 
L 96.256314 114.613722 
L 96.581294 102.247559 
L 96.906274 106.059664 
L 97.231253 120.365494 
L 97.556233 119.410394 
L 97.881212 114.663303 
L 98.206192 116.088928 
L 98.531171 121.272143 
L 99.18113 110.603827 
L 99.50611 97.745446 
L 99.831089 99.076885 
L 100.481048 83.821668 
L 100.806028 96.562461 
L 101.131007 86.109518 
L 101.455987 87.649809 
L 101.780966 97.367299 
L 102.105946 98.536896 
L 102.430925 110.661389 
L 102.755905 109.952377 
L 103.080885 117.317292 
L 103.405864 109.926416 
L 103.730844 87.044328 
L 104.055823 81.56289 
L 104.380803 80.71212 
L 104.705782 83.905893 
L 105.030762 93.24818 
L 105.355741 95.540304 
L 105.680721 102.359995 
L 106.33068 130.802307 
L 106.655659 124.056881 
L 106.980639 125.996428 
L 107.630598 111.684305 
L 107.955577 112.311036 
L 108.280557 139.216653 
L 108.930516 118.528031 
L 109.255495 112.318091 
L 109.580475 122.994304 
L 109.905455 118.395555 
L 110.555414 124.900517 
L 110.880393 115.74096 
L 111.530352 80.103729 
L 111.855332 83.521654 
L 112.505291 121.023951 
L 112.83027 119.518553 
L 113.15525 106.971151 
L 113.480229 106.979266 
L 113.805209 105.417086 
L 114.130188 100.231956 
L 114.455168 113.1029 
L 114.780147 111.837396 
L 115.105127 107.490481 
L 115.430106 109.980288 
L 115.755086 115.11951 
L 116.080066 112.450764 
L 116.405045 96.010317 
L 116.730025 107.627782 
L 117.055004 112.695801 
L 117.379984 123.291201 
L 117.704963 108.518656 
L 118.029943 124.81845 
L 118.354922 107.226975 
L 118.679902 123.680535 
L 119.329861 132.108309 
L 119.65484 122.080932 
L 119.97982 116.367728 
L 120.304799 119.330334 
L 120.629779 118.319577 
L 120.954758 130.355312 
L 121.279738 133.685207 
L 121.929697 130.534379 
L 122.254676 128.743636 
L 122.579656 112.90223 
L 123.229615 121.94252 
L 123.554595 123.875535 
L 123.879574 124.245761 
L 124.204554 120.348256 
L 124.529533 121.444813 
L 124.854513 136.365478 
L 125.179492 121.518872 
L 125.504472 133.553245 
L 125.829451 123.617678 
L 126.154431 118.417358 
L 126.80439 112.977126 
L 127.129369 116.221805 
L 127.454349 103.084366 
L 127.779328 114.638478 
L 128.104308 109.863403 
L 128.429287 115.906849 
L 128.754267 99.198615 
L 129.079247 118.392034 
L 129.404226 113.643166 
L 129.729206 106.400325 
L 130.054185 113.330349 
L 130.379165 109.240037 
L 130.704144 97.317527 
L 131.029124 94.605835 
L 131.354103 95.515048 
L 131.679083 84.95909 
L 132.004062 103.502497 
L 132.329042 101.180891 
L 132.654021 93.199344 
L 132.979001 101.025828 
L 133.30398 91.290095 
L 133.62896 110.38984 
L 133.953939 116.992297 
L 134.278919 106.875779 
L 134.603898 124.939471 
L 134.928878 120.839395 
L 135.253857 142.115283 
L 135.578837 132.129447 
L 135.903817 108.024833 
L 136.228796 103.777512 
L 136.553776 109.877312 
L 136.878755 102.795476 
L 137.203735 87.809888 
L 137.528714 101.375499 
L 137.853694 97.93231 
L 138.178673 109.644256 
L 138.503653 108.924752 
L 138.828632 99.647534 
L 139.153612 102.429612 
L 139.803571 119.101953 
L 140.12855 112.157497 
L 140.45353 115.174631 
L 140.778509 126.205684 
L 141.753448 142.614694 
L 142.403407 116.317004 
L 142.728387 123.828051 
L 143.053366 119.285786 
L 143.378346 113.07154 
L 143.703325 116.283186 
L 144.028305 131.939501 
L 144.353284 130.569454 
L 144.678264 133.938575 
L 145.328223 122.732951 
L 145.653202 115.092349 
L 145.978182 117.654239 
L 146.303161 118.948555 
L 146.628141 105.98038 
L 146.95312 114.374886 
L 147.2781 118.865741 
L 147.603079 124.947125 
L 147.928059 118.322957 
L 148.253038 106.240346 
L 148.902998 129.637398 
L 149.227977 125.806902 
L 149.552957 117.506292 
L 149.877936 112.953585 
L 150.202916 121.715784 
L 150.527895 117.34168 
L 150.852875 116.148007 
L 151.177854 116.609571 
L 151.502834 122.26798 
L 151.827813 112.203405 
L 152.477772 98.960475 
L 152.802752 101.030171 
L 153.127731 94.860994 
L 153.452711 101.14112 
L 153.77769 96.988105 
L 154.10267 104.66693 
L 154.752629 90.10692 
L 155.402588 104.985965 
L 155.727568 95.792247 
L 156.052547 112.26502 
L 156.377527 104.235731 
L 156.702506 105.747486 
L 157.027486 112.518894 
L 157.352465 122.584767 
L 158.002424 103.012588 
L 158.652383 98.554623 
L 158.977363 102.195775 
L 159.302342 125.568472 
L 159.627322 126.303996 
L 160.277281 105.433969 
L 160.60226 105.225922 
L 160.92724 104.743624 
L 161.252219 115.154072 
L 161.577199 100.711409 
L 161.902179 59.310333 
L 162.227158 53.568 
L 162.552138 92.927821 
L 162.877117 99.631724 
L 163.202097 100.294948 
L 163.527076 125.91457 
L 163.852056 126.937744 
L 164.177035 120.979217 
L 164.502015 119.445372 
L 164.826994 110.973082 
L 165.151974 99.02583 
L 165.476953 105.136335 
L 165.801933 100.798214 
L 166.126912 102.091418 
L 166.451892 90.673605 
L 166.776871 106.639857 
L 167.101851 101.82515 
L 167.42683 107.341337 
L 167.75181 106.148679 
L 168.07679 118.322342 
L 168.401769 101.256707 
L 168.726749 109.939073 
L 169.051728 129.600026 
L 169.376708 137.566387 
L 169.701687 125.77769 
L 170.026667 119.783112 
L 170.351646 123.688493 
L 171.001605 91.075291 
L 171.326585 93.013191 
L 171.976544 101.980251 
L 172.301523 103.751281 
L 172.951482 93.906683 
L 173.276462 81.436751 
L 173.926421 93.823619 
L 174.2514 103.875346 
L 174.57638 92.967077 
L 174.90136 100.414835 
L 175.551319 129.065461 
L 175.876298 124.665654 
L 176.201278 123.629255 
L 176.526257 119.965052 
L 176.851237 175.252145 
L 177.176216 165.151451 
L 177.501196 166.820737 
L 177.826175 161.106757 
L 178.476134 126.724693 
L 178.801114 126.385664 
L 179.126093 131.772083 
L 179.451073 129.454174 
L 179.776052 117.946858 
L 180.101032 121.920267 
L 180.426011 107.609857 
L 180.750991 100.308519 
L 181.075971 102.223623 
L 181.40095 94.383267 
L 181.72593 123.882628 
L 182.050909 124.201601 
L 182.375889 116.897634 
L 182.700868 121.680043 
L 183.025848 137.800256 
L 183.350827 133.805264 
L 183.675807 151.892778 
L 184.325766 129.583705 
L 184.650745 123.320378 
L 184.975725 129.551217 
L 185.300704 121.388605 
L 185.625684 117.596914 
L 185.950663 118.904538 
L 186.275643 114.606861 
L 186.600622 100.201137 
L 186.925602 106.477087 
L 187.250581 101.34243 
L 187.575561 109.3993 
L 187.900541 107.079282 
L 188.22552 124.624825 
L 188.5505 120.521553 
L 188.875479 125.313068 
L 189.200459 123.254235 
L 189.850418 95.52415 
L 190.175397 108.083918 
L 190.500377 105.970914 
L 190.825356 104.596431 
L 191.150336 99.309294 
L 191.475315 90.324658 
L 191.800295 94.220496 
L 192.125274 101.932309 
L 192.450254 114.631149 
L 192.775233 104.322457 
L 193.100213 104.675991 
L 193.425192 107.693705 
L 194.075152 118.183984 
L 194.400131 133.255259 
L 194.725111 114.090997 
L 195.05009 118.788373 
L 195.37507 120.075918 
L 195.700049 127.518556 
L 196.025029 121.069559 
L 196.350008 123.027783 
L 196.674988 133.442466 
L 196.999967 121.195318 
L 197.324947 123.268363 
L 197.649926 109.237225 
L 198.299885 96.521761 
L 198.624865 101.953297 
L 199.274824 89.059746 
L 199.599803 89.468544 
L 199.924783 98.671304 
L 200.249762 98.867005 
L 200.574742 131.916305 
L 200.899722 130.586809 
L 201.224701 120.381501 
L 201.549681 118.557608 
L 201.87466 120.881644 
L 202.19964 110.701906 
L 202.524619 113.606053 
L 202.849599 104.425628 
L 203.174578 90.190295 
L 203.824537 119.044662 
L 204.149517 113.313767 
L 204.474496 99.576685 
L 204.799476 99.794203 
L 205.124455 104.954041 
L 205.449435 104.467193 
L 205.774414 109.663185 
L 206.424373 92.349741 
L 206.749353 110.5388 
L 207.074333 111.309163 
L 207.399312 111.571478 
L 207.724292 117.338747 
L 208.049271 98.159567 
L 208.374251 92.259532 
L 208.69923 95.370815 
L 209.02421 94.704343 
L 209.674169 87.269597 
L 210.649107 110.801258 
L 210.974087 106.782865 
L 211.299066 126.499122 
L 211.624046 119.811776 
L 211.949025 116.16843 
L 212.598984 135.184714 
L 212.923964 131.173312 
L 213.248943 130.746453 
L 213.573923 118.648059 
L 213.898903 128.074313 
L 214.223882 121.839458 
L 214.548862 132.873008 
L 214.873841 125.182115 
L 215.5238 140.390548 
L 215.84878 127.280179 
L 216.173759 131.295427 
L 216.498739 141.369531 
L 216.823718 131.133952 
L 217.148698 127.02244 
L 217.798657 109.731076 
L 218.123636 115.051333 
L 218.773595 92.860591 
L 219.098575 96.959699 
L 219.423554 97.436767 
L 219.748534 86.618512 
L 220.073514 88.321672 
L 220.398493 75.891242 
L 220.723473 82.928613 
L 221.373432 111.302619 
L 222.34837 90.793963 
L 222.67335 93.070585 
L 223.648288 107.866874 
L 223.973268 97.551765 
L 224.623227 107.40834 
L 225.273186 99.731755 
L 225.598165 101.014721 
L 225.923145 96.061911 
L 226.248124 98.34121 
L 226.573104 120.071401 
L 226.898084 119.700576 
L 227.223063 107.394269 
L 227.548043 111.593164 
L 227.873022 122.992962 
L 228.198002 115.458727 
L 228.522981 117.337647 
L 228.847961 99.295596 
L 229.17294 103.688775 
L 229.49792 102.718605 
L 229.822899 106.027905 
L 230.147879 117.86744 
L 230.472858 123.98102 
L 230.797838 123.393012 
L 231.122817 119.703304 
L 231.447797 114.354838 
L 231.772776 111.197272 
L 232.097756 114.485448 
L 232.422735 128.7755 
L 232.747715 131.846323 
L 233.072695 118.762133 
L 233.397674 121.38674 
L 233.722654 125.45225 
L 234.047633 121.300506 
L 234.372613 103.277618 
L 234.697592 98.753996 
L 235.022572 106.02705 
L 235.347551 98.062018 
L 235.672531 86.916746 
L 235.99751 79.883813 
L 236.32249 78.74449 
L 236.647469 80.458042 
L 236.972449 95.800362 
L 237.297428 88.606341 
L 237.622408 86.002196 
L 237.947387 116.233346 
L 238.272367 106.27027 
L 238.597346 88.935955 
L 238.922326 96.116425 
L 239.247305 88.105407 
L 239.572285 100.436971 
L 239.897265 99.082891 
L 240.222244 100.470852 
L 240.547224 81.866786 
L 240.872203 103.468089 
L 241.197183 109.25911 
L 241.522162 105.200379 
L 241.847142 105.093136 
L 242.172121 105.645969 
L 242.497101 89.016482 
L 242.82208 101.177782 
L 243.14706 98.103854 
L 243.472039 106.191737 
L 243.797019 90.896708 
L 244.121998 96.099904 
L 244.446978 96.36785 
L 244.771957 96.473825 
L 245.096937 111.720057 
L 245.421916 102.242204 
L 245.746896 105.246675 
L 246.071876 106.939553 
L 246.721835 98.254809 
L 247.046814 110.836153 
L 247.371794 127.882175 
L 247.696773 130.059396 
L 248.021753 117.115222 
L 248.346732 99.482064 
L 248.996691 92.672083 
L 249.64665 112.214868 
L 249.97163 117.89896 
L 250.296609 96.41279 
L 250.621589 84.528023 
L 250.946568 83.697706 
L 251.271548 88.790085 
L 251.596527 78.123545 
L 251.921507 86.399446 
L 252.246486 88.610266 
L 252.571466 81.35584 
L 252.896446 80.02643 
L 253.546405 97.944901 
L 253.871384 99.405877 
L 254.196364 99.747339 
L 254.521343 89.78833 
L 254.846323 85.89654 
L 255.171302 85.742895 
L 255.496282 85.875735 
L 255.821261 118.709809 
L 256.146241 130.095417 
L 256.47122 116.519611 
L 256.7962 115.699645 
L 257.121179 110.003687 
L 257.446159 109.314268 
L 257.771138 111.572418 
L 258.096118 122.026271 
L 258.746077 104.636639 
L 259.071057 118.993574 
L 259.396036 107.223123 
L 259.721016 133.858346 
L 260.045995 129.047979 
L 260.695954 111.958703 
L 261.020934 119.307699 
L 261.670893 87.71716 
L 261.995872 91.63161 
L 262.320852 91.390391 
L 262.645831 93.181209 
L 263.29579 77.081842 
L 263.62077 99.195244 
L 263.945749 91.495268 
L 264.595708 119.271175 
L 264.920688 133.169926 
L 265.245667 120.191146 
L 265.570647 119.142818 
L 265.895627 111.674969 
L 266.220606 113.255753 
L 266.545586 128.308627 
L 266.870565 128.217795 
L 267.195545 118.317095 
L 267.520524 104.127136 
L 267.845504 105.831615 
L 268.170483 121.810201 
L 268.495463 128.601792 
L 268.820442 120.46168 
L 269.470401 124.888087 
L 269.795381 135.87416 
L 270.12036 125.908643 
L 270.44534 131.769381 
L 270.770319 130.580201 
L 271.095299 131.834156 
L 271.420278 114.026805 
L 272.070238 96.641453 
L 272.395217 105.857882 
L 272.720197 95.731 
L 273.045176 108.456837 
L 273.370156 115.366283 
L 274.020115 105.560216 
L 274.345094 101.191622 
L 274.670074 105.309577 
L 274.995053 98.42791 
L 275.320033 118.058318 
L 275.645012 122.335184 
L 275.969992 119.27792 
L 276.294971 108.401454 
L 276.619951 106.094264 
L 276.94493 128.124971 
L 277.26991 130.315334 
L 277.594889 115.371775 
L 277.919869 122.882197 
L 278.244848 126.987492 
L 278.569828 126.57097 
L 278.894808 136.519319 
L 279.219787 134.945188 
L 279.544767 122.984727 
L 279.869746 117.590765 
L 280.194726 123.589117 
L 280.519705 115.868328 
L 280.844685 126.96946 
L 281.169664 129.167874 
L 281.819623 113.464585 
L 282.144603 115.66624 
L 282.469582 121.004317 
L 283.119541 103.234295 
L 283.444521 112.846733 
L 283.7695 101.570612 
L 284.09448 102.945422 
L 284.419459 95.989931 
L 284.744439 92.521775 
L 285.069419 84.850456 
L 285.394398 80.261282 
L 285.719378 99.234542 
L 286.044357 102.981869 
L 286.369337 115.676874 
L 286.694316 103.397142 
L 287.344275 95.189715 
L 287.669255 106.000935 
L 288.319214 97.009868 
L 288.644193 112.525016 
L 288.969173 113.595935 
L 289.294152 131.822337 
L 289.619132 118.34583 
L 289.944111 137.93335 
L 290.269091 134.885686 
L 290.91905 123.24854 
L 291.244029 127.842108 
L 291.569009 112.627272 
L 291.893989 113.583939 
L 292.218968 107.061611 
L 292.868927 115.201093 
L 293.518886 99.373458 
L 294.168845 116.919275 
L 294.493825 107.197694 
L 294.818804 109.597214 
L 295.143784 104.51172 
L 295.468763 105.376412 
L 295.793743 100.908257 
L 296.118722 107.907898 
L 296.443702 90.116172 
L 296.768681 84.470212 
L 297.093661 104.205268 
L 297.41864 103.455987 
L 297.74362 127.130318 
L 298.718559 118.945808 
L 299.043538 126.892139 
L 299.368518 129.190939 
L 299.693497 117.041863 
L 300.018477 128.133111 
L 300.343456 124.795475 
L 300.668436 105.321758 
L 300.993415 96.873188 
L 301.318395 94.926945 
L 301.643374 111.497615 
L 301.968354 108.245719 
L 302.618313 92.619002 
L 302.943292 102.30847 
L 303.268272 93.132215 
L 303.593251 91.699333 
L 303.918231 102.370834 
L 304.24321 103.674986 
L 304.89317 77.094639 
L 305.218149 88.16026 
L 305.543129 90.833289 
L 305.868108 86.875052 
L 306.193088 90.605107 
L 306.518067 87.005214 
L 306.843047 87.944813 
L 307.168026 100.065403 
L 307.493006 105.828955 
L 307.817985 106.645596 
L 308.142965 102.312163 
L 308.467944 94.389476 
L 308.792924 113.919845 
L 309.117903 108.189409 
L 309.442883 95.397956 
L 309.767862 103.277676 
L 310.092842 106.475639 
L 310.417821 116.643692 
L 310.742801 121.994888 
L 311.067781 123.740085 
L 311.39276 134.037257 
L 311.71774 134.188527 
L 312.367699 109.032839 
L 312.692678 113.125444 
L 313.017658 122.147952 
L 313.342637 104.960827 
L 313.667617 108.00869 
L 313.992596 100.714433 
L 314.317576 117.751803 
L 314.642555 125.757867 
L 314.967535 139.696601 
L 315.292514 126.778624 
L 315.617494 143.792933 
L 315.942473 129.217733 
L 316.267453 121.097006 
L 316.592432 124.188086 
L 316.917412 120.585246 
L 317.242391 112.972522 
L 317.567371 97.812469 
L 317.892351 95.722851 
L 318.21733 87.839784 
L 318.54231 102.930192 
L 318.867289 97.279265 
L 319.192269 82.101335 
L 319.517248 101.086776 
L 319.842228 100.999885 
L 320.167207 95.450889 
L 320.492187 82.703591 
L 320.817166 82.334483 
L 321.142146 83.411843 
L 321.467125 83.545584 
L 321.792105 87.513729 
L 322.117084 73.535081 
L 322.442064 75.909431 
L 322.767043 74.773924 
L 323.092023 80.380945 
L 323.417002 82.605601 
L 323.741982 102.323505 
L 324.066962 93.061362 
L 324.391941 94.167973 
L 324.716921 87.496908 
L 325.0419 89.576689 
L 325.36688 122.890976 
L 325.691859 121.383483 
L 326.016839 122.292635 
L 326.341818 128.532842 
L 326.666798 123.682127 
L 326.991777 130.042955 
L 327.316757 116.755287 
L 327.641736 111.750253 
L 327.966716 99.550513 
L 328.291695 110.034312 
L 328.616675 105.1237 
L 328.941654 82.480391 
L 329.266634 84.696693 
L 329.591613 105.185517 
L 329.916593 115.575097 
L 330.566552 91.229447 
L 330.891532 92.172527 
L 331.216511 75.501958 
L 331.541491 77.114991 
L 331.86647 83.895679 
L 332.19145 86.745731 
L 332.516429 72.287119 
L 333.166388 100.712308 
L 333.491368 104.356632 
L 333.816347 145.448201 
L 334.141327 136.509007 
L 334.466306 135.919956 
L 334.791286 116.74055 
L 335.116265 109.48048 
L 335.441245 107.418308 
L 335.766224 109.475579 
L 336.091204 92.560216 
L 336.416183 83.644896 
L 336.741163 84.826253 
L 337.066143 98.202052 
L 337.716102 79.488589 
L 338.041081 67.253121 
L 338.366061 67.897488 
L 338.69104 61.713615 
L 339.01602 85.61564 
L 339.340999 94.121627 
L 339.665979 90.187614 
L 339.990958 90.635956 
L 340.315938 98.818798 
L 340.640917 96.753281 
L 340.965897 96.876121 
L 341.290876 108.859795 
L 341.615856 94.407692 
L 341.940835 114.834064 
L 342.265815 113.708207 
L 342.590794 115.879367 
L 342.915774 98.618372 
L 343.240753 127.269075 
L 343.565733 125.70128 
L 344.215692 106.336872 
L 344.540672 98.972465 
L 344.865651 102.14078 
L 345.51561 85.89755 
L 345.84059 90.521058 
L 346.165569 81.304694 
L 346.490549 97.15864 
L 346.815528 95.651802 
L 347.140508 96.558754 
L 347.465487 95.735748 
L 347.790467 117.719362 
L 348.115446 109.451164 
L 348.440426 109.256558 
L 348.765405 109.996304 
L 349.090385 115.295073 
L 349.415364 130.551476 
L 350.065324 121.151898 
L 350.390303 129.144367 
L 350.715283 123.361348 
L 351.040262 109.883725 
L 351.365242 104.076659 
L 351.690221 109.762487 
L 352.015201 96.838804 
L 352.34018 101.333168 
L 352.66516 97.103127 
L 352.990139 112.307667 
L 353.315119 99.966999 
L 353.640098 118.552643 
L 353.965078 106.535406 
L 354.290057 104.632279 
L 354.615037 101.628896 
L 354.940016 102.745516 
L 355.589975 106.952486 
L 355.914955 102.453238 
L 356.564914 82.834394 
L 356.889894 83.805088 
L 357.214873 90.613925 
L 357.539853 88.70605 
L 357.864832 91.173943 
L 358.189812 88.562069 
L 358.514791 78.511053 
L 358.839771 106.188832 
L 359.16475 96.970932 
L 359.48973 93.877685 
L 359.814709 83.907217 
L 360.139689 106.024876 
L 360.464668 114.153266 
L 360.789648 113.086847 
L 361.114627 125.692825 
L 361.439607 120.615704 
L 361.764586 133.166616 
L 362.089566 141.32915 
L 362.414545 125.090832 
L 362.739525 123.820957 
L 363.064505 148.486468 
L 363.389484 136.587327 
L 363.714464 136.75479 
L 364.039443 127.882232 
L 364.364423 124.620528 
L 364.689402 113.438161 
L 365.014382 110.395648 
L 365.339361 123.749605 
L 365.664341 113.56071 
L 365.98932 111.330026 
L 366.3143 106.016592 
L 366.639279 117.371214 
L 366.964259 105.190471 
L 367.289238 116.076936 
L 367.614218 102.433274 
L 367.939197 112.683034 
L 368.264177 109.208638 
L 368.589156 97.579266 
L 368.914136 120.658923 
L 369.564095 104.996735 
L 369.889075 101.292019 
L 370.214054 101.248117 
L 370.864013 117.767898 
L 371.188993 109.596793 
L 371.513972 118.393491 
L 371.838952 134.482752 
L 372.163931 135.772603 
L 372.488911 127.25115 
L 372.81389 128.77176 
L 373.463849 104.970402 
L 373.788829 106.745233 
L 374.113808 103.578026 
L 374.438788 89.735778 
L 374.763767 95.16782 
L 375.088747 106.32855 
L 375.413726 122.799897 
L 375.738706 120.745949 
L 376.063686 108.72947 
L 376.388665 107.766356 
L 376.713645 119.281816 
L 377.038624 115.044633 
L 377.363604 119.241842 
L 377.688583 119.383582 
L 378.013563 115.988753 
L 378.338542 115.321262 
L 379.313481 91.917441 
L 379.63846 83.024367 
L 379.96344 99.627333 
L 380.288419 143.945915 
L 380.938378 129.346231 
L 381.263358 126.140808 
L 381.588337 116.001537 
L 381.913317 124.428728 
L 382.238296 120.055123 
L 382.563276 123.835435 
L 382.888256 125.114141 
L 383.213235 128.445927 
L 383.538215 133.805539 
L 383.863194 143.213951 
L 384.838133 132.933578 
L 385.163112 124.530846 
L 385.488092 123.489815 
L 385.813071 135.505618 
L 386.138051 127.896626 
L 387.112989 91.809697 
L 387.437969 103.595128 
L 387.762948 104.789519 
L 388.087928 109.502424 
L 388.412907 102.494386 
L 388.737887 109.893711 
L 389.062867 99.107623 
L 389.387846 101.967158 
L 389.712826 88.318085 
L 390.037805 97.710209 
L 390.362785 94.588136 
L 390.687764 85.112655 
L 391.012744 101.578728 
L 391.662703 94.075892 
L 391.987682 93.036439 
L 392.312662 89.937281 
L 392.637641 82.605596 
L 392.962621 86.990626 
L 393.2876 70.737207 
L 393.61258 85.957103 
L 394.587518 66.786668 
L 394.912498 77.093467 
L 395.237477 79.033117 
L 395.562457 95.376344 
L 395.887437 86.076696 
L 396.212416 105.019448 
L 396.537396 112.917126 
L 396.862375 109.124939 
L 397.512334 86.269302 
L 397.837314 83.695815 
L 398.162293 92.465743 
L 398.487273 113.424345 
L 398.487273 113.424345 
" style="fill:none;stroke:#1f77b4;stroke-linecap:square;stroke-width:1.5;"/>
   </g>
   <g id="line2d_17">
    <path clip-path="url(#p92be3b3633)" d="M 73.832727 288.767714 
L 78.70742 288.971322 
L 85.53199 289.438136 
L 88.131826 289.493547 
L 92.35656 289.605965 
L 99.18113 289.716648 
L 100.806028 289.777863 
L 102.105946 289.798697 
L 103.405864 289.799575 
L 104.380803 289.880771 
L 110.880393 289.924837 
L 111.855332 290.027418 
L 112.83027 289.953016 
L 114.130188 290.029803 
L 115.105127 290.028487 
L 121.929697 290.082634 
L 128.104308 290.269853 
L 129.404226 290.277712 
L 131.679083 290.419164 
L 132.329042 290.373238 
L 133.30398 290.424885 
L 133.953939 290.344349 
L 134.603898 290.327211 
L 138.178673 290.462591 
L 140.778509 290.43641 
L 142.078428 290.445557 
L 142.728387 290.483584 
L 143.703325 290.530841 
L 144.353284 290.487171 
L 145.328223 290.538322 
L 146.628141 290.634474 
L 147.928059 290.601295 
L 148.578018 290.618106 
L 149.227977 290.590196 
L 150.527895 290.656502 
L 157.027486 290.785985 
L 157.677445 290.800836 
L 158.652383 290.883724 
L 161.252219 290.850723 
L 162.227158 291.08913 
L 162.552138 290.922335 
L 164.502015 290.82899 
L 165.801933 290.945414 
L 169.051728 290.855285 
L 169.701687 290.886177 
L 171.651564 291.074049 
L 172.626503 291.076864 
L 173.926421 291.126938 
L 174.57638 291.138945 
L 176.526257 291.025968 
L 176.851237 290.733038 
L 178.801114 291.085678 
L 179.451073 291.083111 
L 180.750991 291.274273 
L 182.700868 291.190246 
L 183.025848 291.099849 
L 183.350827 291.131375 
L 183.675807 291.02032 
L 184.650745 291.228779 
L 185.300704 291.253252 
L 187.900541 291.377255 
L 188.22552 291.270019 
L 191.800295 291.514207 
L 192.775233 291.470235 
L 194.075152 291.404584 
L 194.400131 291.30916 
L 194.725111 291.437734 
L 196.674988 291.341295 
L 197.649926 291.513347 
L 199.274824 291.67691 
L 200.249762 291.642126 
L 200.574742 291.429174 
L 202.524619 291.582007 
L 203.174578 291.746314 
L 204.149517 291.615664 
L 204.799476 291.712471 
L 205.774414 291.654537 
L 206.424373 291.779701 
L 207.074333 291.66573 
L 208.049271 291.771934 
L 208.69923 291.784474 
L 210.324128 291.7456 
L 211.624046 291.644959 
L 212.274005 291.615623 
L 212.923964 291.584557 
L 217.473677 291.76753 
L 218.773595 291.980043 
L 219.423554 291.963232 
L 220.398493 292.129901 
L 221.698411 291.960193 
L 222.67335 292.056019 
L 223.648288 291.97347 
L 224.298247 292.025367 
L 224.948206 292.030599 
L 226.248124 292.092916 
L 226.573104 291.938873 
L 229.822899 292.03671 
L 230.472858 291.914758 
L 234.047633 292.001391 
L 234.697592 292.187433 
L 235.022572 292.138891 
L 236.647469 292.357512 
L 236.972449 292.252551 
L 237.622408 292.340146 
L 237.947387 292.112674 
L 239.247305 292.345766 
L 239.897265 292.272861 
L 240.222244 292.268791 
L 240.547224 292.414283 
L 241.197183 292.221022 
L 242.82208 292.306394 
L 244.446978 292.363701 
L 244.771957 292.363167 
L 245.096937 292.248397 
L 245.746896 292.315143 
L 247.046814 292.312055 
L 247.696773 292.155773 
L 248.671712 292.454898 
L 248.996691 292.48624 
L 249.97163 292.297573 
L 250.621589 292.574612 
L 253.221425 292.587981 
L 253.871384 292.508248 
L 254.521343 292.596712 
L 255.496282 292.639251 
L 255.821261 292.376371 
L 256.146241 292.277477 
L 256.7962 292.413072 
L 257.446159 292.474303 
L 258.421097 292.457304 
L 258.746077 292.527259 
L 259.071057 292.408147 
L 259.396036 292.517214 
L 259.721016 292.30045 
L 261.345913 292.617151 
L 261.670893 292.736917 
L 262.645831 292.715332 
L 263.29579 292.856015 
L 263.62077 292.660873 
L 263.945749 292.726551 
L 264.920688 292.374816 
L 265.570647 292.511536 
L 266.220606 292.568938 
L 266.545586 292.435907 
L 267.195545 292.536329 
L 267.520524 292.669385 
L 267.845504 292.661672 
L 268.495463 292.462308 
L 269.145422 292.527925 
L 271.095299 292.478058 
L 271.745258 292.734387 
L 272.070238 292.820116 
L 272.395217 292.739741 
L 272.720197 292.835539 
L 273.370156 292.64783 
L 274.995053 292.823254 
L 275.320033 292.635958 
L 275.969992 292.631133 
L 276.619951 292.762898 
L 276.94493 292.571438 
L 277.26991 292.559387 
L 277.594889 292.709972 
L 278.244848 292.614801 
L 281.494644 292.718221 
L 282.144603 292.795867 
L 282.469582 292.75184 
L 283.119541 292.936549 
L 283.444521 292.848755 
L 283.7695 292.959767 
L 284.419459 293.023231 
L 285.394398 293.176008 
L 285.719378 292.999281 
L 286.694316 292.984004 
L 287.344275 293.069173 
L 287.669255 292.981883 
L 288.319214 293.056152 
L 288.644193 292.909566 
L 288.969173 292.899396 
L 289.294152 292.724706 
L 289.619132 292.867608 
L 289.944111 292.688678 
L 293.518886 293.120629 
L 294.168845 292.963336 
L 294.493825 293.068371 
L 295.468763 293.108869 
L 296.768681 293.332392 
L 297.093661 293.150885 
L 297.41864 293.164176 
L 297.74362 292.935517 
L 298.718559 293.034874 
L 299.368518 292.930282 
L 299.693497 293.061208 
L 300.018477 292.93479 
L 300.343456 292.984635 
L 300.993415 293.277649 
L 301.318395 293.303248 
L 301.643374 293.136369 
L 303.593251 293.364533 
L 303.918231 293.220594 
L 304.24321 293.211592 
L 304.89317 293.482641 
L 305.543129 293.363234 
L 306.518067 293.424 
L 307.168026 293.306504 
L 307.817985 293.254254 
L 308.467944 293.378659 
L 308.792924 293.19126 
L 309.767862 293.316192 
L 311.067781 293.112508 
L 311.71774 292.999187 
L 312.367699 293.280304 
L 313.017658 293.162367 
L 313.342637 293.351086 
L 314.642555 293.149893 
L 314.967535 293.000106 
L 315.292514 293.156751 
L 315.617494 292.969922 
L 316.267453 293.238284 
L 316.917412 293.225733 
L 318.21733 293.592973 
L 318.54231 293.452103 
L 319.192269 293.670478 
L 319.517248 293.486149 
L 320.167207 293.553278 
L 320.492187 293.685043 
L 321.792105 293.639333 
L 322.117084 293.782015 
L 323.417002 293.703063 
L 323.741982 293.517398 
L 324.391941 293.608687 
L 325.0419 293.657772 
L 325.36688 293.310295 
L 326.016839 293.313229 
L 326.341818 293.25377 
L 326.666798 293.315749 
L 326.991777 293.250309 
L 327.966716 293.605217 
L 328.291695 293.497377 
L 328.616675 293.550114 
L 328.941654 293.773238 
L 329.266634 293.758358 
L 329.916593 293.439297 
L 330.566552 293.714042 
L 330.891532 293.710217 
L 331.216511 293.883572 
L 332.841409 293.830442 
L 333.491368 293.667125 
L 333.816347 293.22225 
L 336.741163 293.94601 
L 337.066143 293.808446 
L 338.69104 294.212068 
L 339.01602 293.974329 
L 339.340999 293.892782 
L 339.990958 293.937562 
L 340.640917 293.86685 
L 340.965897 293.868714 
L 341.290876 293.738768 
L 341.615856 293.907622 
L 341.940835 293.693837 
L 342.590794 293.697679 
L 342.915774 293.907396 
L 343.240753 293.605474 
L 343.565733 293.612192 
L 344.540672 293.931477 
L 344.865651 293.901103 
L 345.51561 294.094516 
L 345.84059 294.04668 
L 346.165569 294.155749 
L 346.490549 293.981746 
L 347.465487 294.004852 
L 347.790467 293.759233 
L 348.440426 293.876877 
L 349.090385 293.820096 
L 349.415364 293.645851 
L 350.065324 293.802663 
L 350.390303 293.707342 
L 352.34018 294.094613 
L 352.66516 294.133025 
L 352.990139 293.958314 
L 353.315119 294.111175 
L 353.640098 293.897209 
L 354.290057 294.086026 
L 354.940016 294.108734 
L 355.914955 294.133205 
L 356.564914 294.373132 
L 358.189812 294.339935 
L 358.514791 294.462039 
L 358.839771 294.144002 
L 359.814709 294.420059 
L 360.139689 294.164663 
L 361.114627 293.941958 
L 361.439607 294.011104 
L 362.089566 293.68926 
L 362.414545 293.914864 
L 362.739525 293.922502 
L 363.064505 293.593128 
L 363.389484 293.75709 
L 363.714464 293.753337 
L 364.689402 294.070697 
L 365.014382 294.11545 
L 365.339361 293.949848 
L 365.98932 294.124375 
L 366.3143 294.195164 
L 366.639279 294.064245 
L 366.964259 294.224232 
L 367.289238 294.098703 
L 367.614218 294.273522 
L 367.939197 294.157991 
L 368.589156 294.353952 
L 368.914136 294.073183 
L 369.889075 294.324646 
L 370.539034 294.243753 
L 370.864013 294.144732 
L 371.188993 294.256237 
L 372.163931 293.924154 
L 372.488911 294.045068 
L 372.81389 294.030563 
L 373.463849 294.352307 
L 374.113808 294.375778 
L 374.438788 294.549702 
L 375.088747 294.348346 
L 375.413726 294.142332 
L 375.738706 294.173191 
L 376.063686 294.339202 
L 376.388665 294.358837 
L 376.713645 294.217156 
L 377.363604 294.23743 
L 378.338542 294.307539 
L 379.63846 294.737951 
L 379.96344 294.540766 
L 380.288419 294.134444 
L 381.588337 294.554255 
L 381.913317 294.442483 
L 382.238296 294.509219 
L 384.188174 294.274538 
L 385.488092 294.534903 
L 385.813071 294.3628 
L 386.78801 294.80364 
L 387.112989 295.000788 
L 387.437969 294.851473 
L 388.737887 294.791976 
L 389.062867 294.94459 
L 389.387846 294.913019 
L 389.712826 295.102091 
L 390.037805 294.991448 
L 390.687764 295.161937 
L 391.012744 294.947901 
L 393.2876 295.409742 
L 393.61258 295.223537 
L 394.587518 295.488 
L 395.562457 295.139775 
L 395.887437 295.271217 
L 396.212416 294.980559 
L 396.537396 294.876494 
L 396.862375 294.913695 
L 397.512334 295.238786 
L 397.837314 295.28666 
L 398.162293 295.179023 
L 398.487273 294.876286 
L 398.487273 294.876286 
" style="fill:none;stroke:#ff7f0e;stroke-linecap:square;stroke-width:1.5;"/>
   </g>
   <g id="patch_3">
    <path d="M 57.6 307.584 
L 57.6 41.472 
" style="fill:none;stroke:#000000;stroke-linecap:square;stroke-linejoin:miter;stroke-width:0.8;"/>
   </g>
   <g id="patch_4">
    <path d="M 414.72 307.584 
L 414.72 41.472 
" style="fill:none;stroke:#000000;stroke-linecap:square;stroke-linejoin:miter;stroke-width:0.8;"/>
   </g>
   <g id="patch_5">
    <path d="M 57.6 307.584 
L 414.72 307.584 
" style="fill:none;stroke:#000000;stroke-linecap:square;stroke-linejoin:miter;stroke-width:0.8;"/>
   </g>
   <g id="patch_6">
    <path d="M 57.6 41.472 
L 414.72 41.472 
" style="fill:none;stroke:#000000;stroke-linecap:square;stroke-linejoin:miter;stroke-width:0.8;"/>
   </g>
  </g>
 </g>
 <defs>
  <clipPath id="p92be3b3633">
   <rect height="266.112" width="357.12" x="57.6" y="41.472"/>
  </clipPath>
 </defs>
</svg>
