<?xml version="1.0" encoding="utf-8" standalone="no"?>
<!DOCTYPE svg PUBLIC "-//W3C//DTD SVG 1.1//EN"
  "http://www.w3.org/Graphics/SVG/1.1/DTD/svg11.dtd">
<!-- Created with matplotlib (https://matplotlib.org/) -->
<svg height="345.6pt" version="1.1" viewBox="0 0 460.8 345.6" width="460.8pt" xmlns="http://www.w3.org/2000/svg" xmlns:xlink="http://www.w3.org/1999/xlink">
 <metadata>
  <rdf:RDF xmlns:cc="http://creativecommons.org/ns#" xmlns:dc="http://purl.org/dc/elements/1.1/" xmlns:rdf="http://www.w3.org/1999/02/22-rdf-syntax-ns#">
   <cc:Work>
    <dc:type rdf:resource="http://purl.org/dc/dcmitype/StillImage"/>
    <dc:date>2020-10-07T15:22:12.640079</dc:date>
    <dc:format>image/svg+xml</dc:format>
    <dc:creator>
     <cc:Agent>
      <dc:title>Matplotlib v3.3.2, https://matplotlib.org/</dc:title>
     </cc:Agent>
    </dc:creator>
   </cc:Work>
  </rdf:RDF>
 </metadata>
 <defs>
  <style type="text/css">*{stroke-linecap:butt;stroke-linejoin:round;}</style>
 </defs>
 <g id="figure_1">
  <g id="patch_1">
   <path d="M 0 345.6 
L 460.8 345.6 
L 460.8 0 
L 0 0 
z
" style="fill:#ffffff;"/>
  </g>
  <g id="axes_1">
   <g id="patch_2">
    <path d="M 57.6 307.584 
L 414.72 307.584 
L 414.72 41.472 
L 57.6 41.472 
z
" style="fill:#ffffff;"/>
   </g>
   <g id="matplotlib.axis_1">
    <g id="xtick_1">
     <g id="line2d_1">
      <defs>
       <path d="M 0 0 
L 0 3.5 
" id="m1644f73021" style="stroke:#000000;stroke-width:0.8;"/>
      </defs>
      <g>
       <use style="stroke:#000000;stroke-width:0.8;" x="73.832727" xlink:href="#m1644f73021" y="307.584"/>
      </g>
     </g>
     <g id="text_1">
      <!-- 0 -->
      <g transform="translate(70.651477 322.182437)scale(0.1 -0.1)">
       <defs>
        <path d="M 31.78125 66.40625 
Q 24.171875 66.40625 20.328125 58.90625 
Q 16.5 51.421875 16.5 36.375 
Q 16.5 21.390625 20.328125 13.890625 
Q 24.171875 6.390625 31.78125 6.390625 
Q 39.453125 6.390625 43.28125 13.890625 
Q 47.125 21.390625 47.125 36.375 
Q 47.125 51.421875 43.28125 58.90625 
Q 39.453125 66.40625 31.78125 66.40625 
z
M 31.78125 74.21875 
Q 44.046875 74.21875 50.515625 64.515625 
Q 56.984375 54.828125 56.984375 36.375 
Q 56.984375 17.96875 50.515625 8.265625 
Q 44.046875 -1.421875 31.78125 -1.421875 
Q 19.53125 -1.421875 13.0625 8.265625 
Q 6.59375 17.96875 6.59375 36.375 
Q 6.59375 54.828125 13.0625 64.515625 
Q 19.53125 74.21875 31.78125 74.21875 
z
" id="DejaVuSans-48"/>
       </defs>
       <use xlink:href="#DejaVuSans-48"/>
      </g>
     </g>
    </g>
    <g id="xtick_2">
     <g id="line2d_2">
      <g>
       <use style="stroke:#000000;stroke-width:0.8;" x="138.828632" xlink:href="#m1644f73021" y="307.584"/>
      </g>
     </g>
     <g id="text_2">
      <!-- 20 -->
      <g transform="translate(132.466132 322.182437)scale(0.1 -0.1)">
       <defs>
        <path d="M 19.1875 8.296875 
L 53.609375 8.296875 
L 53.609375 0 
L 7.328125 0 
L 7.328125 8.296875 
Q 12.9375 14.109375 22.625 23.890625 
Q 32.328125 33.6875 34.8125 36.53125 
Q 39.546875 41.84375 41.421875 45.53125 
Q 43.3125 49.21875 43.3125 52.78125 
Q 43.3125 58.59375 39.234375 62.25 
Q 35.15625 65.921875 28.609375 65.921875 
Q 23.96875 65.921875 18.8125 64.3125 
Q 13.671875 62.703125 7.8125 59.421875 
L 7.8125 69.390625 
Q 13.765625 71.78125 18.9375 73 
Q 24.125 74.21875 28.421875 74.21875 
Q 39.75 74.21875 46.484375 68.546875 
Q 53.21875 62.890625 53.21875 53.421875 
Q 53.21875 48.921875 51.53125 44.890625 
Q 49.859375 40.875 45.40625 35.40625 
Q 44.1875 33.984375 37.640625 27.21875 
Q 31.109375 20.453125 19.1875 8.296875 
z
" id="DejaVuSans-50"/>
       </defs>
       <use xlink:href="#DejaVuSans-50"/>
       <use x="63.623047" xlink:href="#DejaVuSans-48"/>
      </g>
     </g>
    </g>
    <g id="xtick_3">
     <g id="line2d_3">
      <g>
       <use style="stroke:#000000;stroke-width:0.8;" x="203.824537" xlink:href="#m1644f73021" y="307.584"/>
      </g>
     </g>
     <g id="text_3">
      <!-- 40 -->
      <g transform="translate(197.462037 322.182437)scale(0.1 -0.1)">
       <defs>
        <path d="M 37.796875 64.3125 
L 12.890625 25.390625 
L 37.796875 25.390625 
z
M 35.203125 72.90625 
L 47.609375 72.90625 
L 47.609375 25.390625 
L 58.015625 25.390625 
L 58.015625 17.1875 
L 47.609375 17.1875 
L 47.609375 0 
L 37.796875 0 
L 37.796875 17.1875 
L 4.890625 17.1875 
L 4.890625 26.703125 
z
" id="DejaVuSans-52"/>
       </defs>
       <use xlink:href="#DejaVuSans-52"/>
       <use x="63.623047" xlink:href="#DejaVuSans-48"/>
      </g>
     </g>
    </g>
    <g id="xtick_4">
     <g id="line2d_4">
      <g>
       <use style="stroke:#000000;stroke-width:0.8;" x="268.820442" xlink:href="#m1644f73021" y="307.584"/>
      </g>
     </g>
     <g id="text_4">
      <!-- 60 -->
      <g transform="translate(262.457942 322.182437)scale(0.1 -0.1)">
       <defs>
        <path d="M 33.015625 40.375 
Q 26.375 40.375 22.484375 35.828125 
Q 18.609375 31.296875 18.609375 23.390625 
Q 18.609375 15.53125 22.484375 10.953125 
Q 26.375 6.390625 33.015625 6.390625 
Q 39.65625 6.390625 43.53125 10.953125 
Q 47.40625 15.53125 47.40625 23.390625 
Q 47.40625 31.296875 43.53125 35.828125 
Q 39.65625 40.375 33.015625 40.375 
z
M 52.59375 71.296875 
L 52.59375 62.3125 
Q 48.875 64.0625 45.09375 64.984375 
Q 41.3125 65.921875 37.59375 65.921875 
Q 27.828125 65.921875 22.671875 59.328125 
Q 17.53125 52.734375 16.796875 39.40625 
Q 19.671875 43.65625 24.015625 45.921875 
Q 28.375 48.1875 33.59375 48.1875 
Q 44.578125 48.1875 50.953125 41.515625 
Q 57.328125 34.859375 57.328125 23.390625 
Q 57.328125 12.15625 50.6875 5.359375 
Q 44.046875 -1.421875 33.015625 -1.421875 
Q 20.359375 -1.421875 13.671875 8.265625 
Q 6.984375 17.96875 6.984375 36.375 
Q 6.984375 53.65625 15.1875 63.9375 
Q 23.390625 74.21875 37.203125 74.21875 
Q 40.921875 74.21875 44.703125 73.484375 
Q 48.484375 72.75 52.59375 71.296875 
z
" id="DejaVuSans-54"/>
       </defs>
       <use xlink:href="#DejaVuSans-54"/>
       <use x="63.623047" xlink:href="#DejaVuSans-48"/>
      </g>
     </g>
    </g>
    <g id="xtick_5">
     <g id="line2d_5">
      <g>
       <use style="stroke:#000000;stroke-width:0.8;" x="333.816347" xlink:href="#m1644f73021" y="307.584"/>
      </g>
     </g>
     <g id="text_5">
      <!-- 80 -->
      <g transform="translate(327.453847 322.182437)scale(0.1 -0.1)">
       <defs>
        <path d="M 31.78125 34.625 
Q 24.75 34.625 20.71875 30.859375 
Q 16.703125 27.09375 16.703125 20.515625 
Q 16.703125 13.921875 20.71875 10.15625 
Q 24.75 6.390625 31.78125 6.390625 
Q 38.8125 6.390625 42.859375 10.171875 
Q 46.921875 13.96875 46.921875 20.515625 
Q 46.921875 27.09375 42.890625 30.859375 
Q 38.875 34.625 31.78125 34.625 
z
M 21.921875 38.8125 
Q 15.578125 40.375 12.03125 44.71875 
Q 8.5 49.078125 8.5 55.328125 
Q 8.5 64.0625 14.71875 69.140625 
Q 20.953125 74.21875 31.78125 74.21875 
Q 42.671875 74.21875 48.875 69.140625 
Q 55.078125 64.0625 55.078125 55.328125 
Q 55.078125 49.078125 51.53125 44.71875 
Q 48 40.375 41.703125 38.8125 
Q 48.828125 37.15625 52.796875 32.3125 
Q 56.78125 27.484375 56.78125 20.515625 
Q 56.78125 9.90625 50.3125 4.234375 
Q 43.84375 -1.421875 31.78125 -1.421875 
Q 19.734375 -1.421875 13.25 4.234375 
Q 6.78125 9.90625 6.78125 20.515625 
Q 6.78125 27.484375 10.78125 32.3125 
Q 14.796875 37.15625 21.921875 38.8125 
z
M 18.3125 54.390625 
Q 18.3125 48.734375 21.84375 45.5625 
Q 25.390625 42.390625 31.78125 42.390625 
Q 38.140625 42.390625 41.71875 45.5625 
Q 45.3125 48.734375 45.3125 54.390625 
Q 45.3125 60.0625 41.71875 63.234375 
Q 38.140625 66.40625 31.78125 66.40625 
Q 25.390625 66.40625 21.84375 63.234375 
Q 18.3125 60.0625 18.3125 54.390625 
z
" id="DejaVuSans-56"/>
       </defs>
       <use xlink:href="#DejaVuSans-56"/>
       <use x="63.623047" xlink:href="#DejaVuSans-48"/>
      </g>
     </g>
    </g>
    <g id="xtick_6">
     <g id="line2d_6">
      <g>
       <use style="stroke:#000000;stroke-width:0.8;" x="398.812252" xlink:href="#m1644f73021" y="307.584"/>
      </g>
     </g>
     <g id="text_6">
      <!-- 100 -->
      <g transform="translate(389.268502 322.182437)scale(0.1 -0.1)">
       <defs>
        <path d="M 12.40625 8.296875 
L 28.515625 8.296875 
L 28.515625 63.921875 
L 10.984375 60.40625 
L 10.984375 69.390625 
L 28.421875 72.90625 
L 38.28125 72.90625 
L 38.28125 8.296875 
L 54.390625 8.296875 
L 54.390625 0 
L 12.40625 0 
z
" id="DejaVuSans-49"/>
       </defs>
       <use xlink:href="#DejaVuSans-49"/>
       <use x="63.623047" xlink:href="#DejaVuSans-48"/>
       <use x="127.246094" xlink:href="#DejaVuSans-48"/>
      </g>
     </g>
    </g>
    <g id="text_7">
     <!-- Time (days) -->
     <g transform="translate(206.633437 335.860562)scale(0.1 -0.1)">
      <defs>
       <path d="M -0.296875 72.90625 
L 61.375 72.90625 
L 61.375 64.59375 
L 35.5 64.59375 
L 35.5 0 
L 25.59375 0 
L 25.59375 64.59375 
L -0.296875 64.59375 
z
" id="DejaVuSans-84"/>
       <path d="M 9.421875 54.6875 
L 18.40625 54.6875 
L 18.40625 0 
L 9.421875 0 
z
M 9.421875 75.984375 
L 18.40625 75.984375 
L 18.40625 64.59375 
L 9.421875 64.59375 
z
" id="DejaVuSans-105"/>
       <path d="M 52 44.1875 
Q 55.375 50.25 60.0625 53.125 
Q 64.75 56 71.09375 56 
Q 79.640625 56 84.28125 50.015625 
Q 88.921875 44.046875 88.921875 33.015625 
L 88.921875 0 
L 79.890625 0 
L 79.890625 32.71875 
Q 79.890625 40.578125 77.09375 44.375 
Q 74.3125 48.1875 68.609375 48.1875 
Q 61.625 48.1875 57.5625 43.546875 
Q 53.515625 38.921875 53.515625 30.90625 
L 53.515625 0 
L 44.484375 0 
L 44.484375 32.71875 
Q 44.484375 40.625 41.703125 44.40625 
Q 38.921875 48.1875 33.109375 48.1875 
Q 26.21875 48.1875 22.15625 43.53125 
Q 18.109375 38.875 18.109375 30.90625 
L 18.109375 0 
L 9.078125 0 
L 9.078125 54.6875 
L 18.109375 54.6875 
L 18.109375 46.1875 
Q 21.1875 51.21875 25.484375 53.609375 
Q 29.78125 56 35.6875 56 
Q 41.65625 56 45.828125 52.96875 
Q 50 49.953125 52 44.1875 
z
" id="DejaVuSans-109"/>
       <path d="M 56.203125 29.59375 
L 56.203125 25.203125 
L 14.890625 25.203125 
Q 15.484375 15.921875 20.484375 11.0625 
Q 25.484375 6.203125 34.421875 6.203125 
Q 39.59375 6.203125 44.453125 7.46875 
Q 49.3125 8.734375 54.109375 11.28125 
L 54.109375 2.78125 
Q 49.265625 0.734375 44.1875 -0.34375 
Q 39.109375 -1.421875 33.890625 -1.421875 
Q 20.796875 -1.421875 13.15625 6.1875 
Q 5.515625 13.8125 5.515625 26.8125 
Q 5.515625 40.234375 12.765625 48.109375 
Q 20.015625 56 32.328125 56 
Q 43.359375 56 49.78125 48.890625 
Q 56.203125 41.796875 56.203125 29.59375 
z
M 47.21875 32.234375 
Q 47.125 39.59375 43.09375 43.984375 
Q 39.0625 48.390625 32.421875 48.390625 
Q 24.90625 48.390625 20.390625 44.140625 
Q 15.875 39.890625 15.1875 32.171875 
z
" id="DejaVuSans-101"/>
       <path id="DejaVuSans-32"/>
       <path d="M 31 75.875 
Q 24.46875 64.65625 21.28125 53.65625 
Q 18.109375 42.671875 18.109375 31.390625 
Q 18.109375 20.125 21.3125 9.0625 
Q 24.515625 -2 31 -13.1875 
L 23.1875 -13.1875 
Q 15.875 -1.703125 12.234375 9.375 
Q 8.59375 20.453125 8.59375 31.390625 
Q 8.59375 42.28125 12.203125 53.3125 
Q 15.828125 64.359375 23.1875 75.875 
z
" id="DejaVuSans-40"/>
       <path d="M 45.40625 46.390625 
L 45.40625 75.984375 
L 54.390625 75.984375 
L 54.390625 0 
L 45.40625 0 
L 45.40625 8.203125 
Q 42.578125 3.328125 38.25 0.953125 
Q 33.9375 -1.421875 27.875 -1.421875 
Q 17.96875 -1.421875 11.734375 6.484375 
Q 5.515625 14.40625 5.515625 27.296875 
Q 5.515625 40.1875 11.734375 48.09375 
Q 17.96875 56 27.875 56 
Q 33.9375 56 38.25 53.625 
Q 42.578125 51.265625 45.40625 46.390625 
z
M 14.796875 27.296875 
Q 14.796875 17.390625 18.875 11.75 
Q 22.953125 6.109375 30.078125 6.109375 
Q 37.203125 6.109375 41.296875 11.75 
Q 45.40625 17.390625 45.40625 27.296875 
Q 45.40625 37.203125 41.296875 42.84375 
Q 37.203125 48.484375 30.078125 48.484375 
Q 22.953125 48.484375 18.875 42.84375 
Q 14.796875 37.203125 14.796875 27.296875 
z
" id="DejaVuSans-100"/>
       <path d="M 34.28125 27.484375 
Q 23.390625 27.484375 19.1875 25 
Q 14.984375 22.515625 14.984375 16.5 
Q 14.984375 11.71875 18.140625 8.90625 
Q 21.296875 6.109375 26.703125 6.109375 
Q 34.1875 6.109375 38.703125 11.40625 
Q 43.21875 16.703125 43.21875 25.484375 
L 43.21875 27.484375 
z
M 52.203125 31.203125 
L 52.203125 0 
L 43.21875 0 
L 43.21875 8.296875 
Q 40.140625 3.328125 35.546875 0.953125 
Q 30.953125 -1.421875 24.3125 -1.421875 
Q 15.921875 -1.421875 10.953125 3.296875 
Q 6 8.015625 6 15.921875 
Q 6 25.140625 12.171875 29.828125 
Q 18.359375 34.515625 30.609375 34.515625 
L 43.21875 34.515625 
L 43.21875 35.40625 
Q 43.21875 41.609375 39.140625 45 
Q 35.0625 48.390625 27.6875 48.390625 
Q 23 48.390625 18.546875 47.265625 
Q 14.109375 46.140625 10.015625 43.890625 
L 10.015625 52.203125 
Q 14.9375 54.109375 19.578125 55.046875 
Q 24.21875 56 28.609375 56 
Q 40.484375 56 46.34375 49.84375 
Q 52.203125 43.703125 52.203125 31.203125 
z
" id="DejaVuSans-97"/>
       <path d="M 32.171875 -5.078125 
Q 28.375 -14.84375 24.75 -17.8125 
Q 21.140625 -20.796875 15.09375 -20.796875 
L 7.90625 -20.796875 
L 7.90625 -13.28125 
L 13.1875 -13.28125 
Q 16.890625 -13.28125 18.9375 -11.515625 
Q 21 -9.765625 23.484375 -3.21875 
L 25.09375 0.875 
L 2.984375 54.6875 
L 12.5 54.6875 
L 29.59375 11.921875 
L 46.6875 54.6875 
L 56.203125 54.6875 
z
" id="DejaVuSans-121"/>
       <path d="M 44.28125 53.078125 
L 44.28125 44.578125 
Q 40.484375 46.53125 36.375 47.5 
Q 32.28125 48.484375 27.875 48.484375 
Q 21.1875 48.484375 17.84375 46.4375 
Q 14.5 44.390625 14.5 40.28125 
Q 14.5 37.15625 16.890625 35.375 
Q 19.28125 33.59375 26.515625 31.984375 
L 29.59375 31.296875 
Q 39.15625 29.25 43.1875 25.515625 
Q 47.21875 21.78125 47.21875 15.09375 
Q 47.21875 7.46875 41.1875 3.015625 
Q 35.15625 -1.421875 24.609375 -1.421875 
Q 20.21875 -1.421875 15.453125 -0.5625 
Q 10.6875 0.296875 5.421875 2 
L 5.421875 11.28125 
Q 10.40625 8.6875 15.234375 7.390625 
Q 20.0625 6.109375 24.8125 6.109375 
Q 31.15625 6.109375 34.5625 8.28125 
Q 37.984375 10.453125 37.984375 14.40625 
Q 37.984375 18.0625 35.515625 20.015625 
Q 33.0625 21.96875 24.703125 23.78125 
L 21.578125 24.515625 
Q 13.234375 26.265625 9.515625 29.90625 
Q 5.8125 33.546875 5.8125 39.890625 
Q 5.8125 47.609375 11.28125 51.796875 
Q 16.75 56 26.8125 56 
Q 31.78125 56 36.171875 55.265625 
Q 40.578125 54.546875 44.28125 53.078125 
z
" id="DejaVuSans-115"/>
       <path d="M 8.015625 75.875 
L 15.828125 75.875 
Q 23.140625 64.359375 26.78125 53.3125 
Q 30.421875 42.28125 30.421875 31.390625 
Q 30.421875 20.453125 26.78125 9.375 
Q 23.140625 -1.703125 15.828125 -13.1875 
L 8.015625 -13.1875 
Q 14.5 -2 17.703125 9.0625 
Q 20.90625 20.125 20.90625 31.390625 
Q 20.90625 42.671875 17.703125 53.65625 
Q 14.5 64.65625 8.015625 75.875 
z
" id="DejaVuSans-41"/>
      </defs>
      <use xlink:href="#DejaVuSans-84"/>
      <use x="57.958984" xlink:href="#DejaVuSans-105"/>
      <use x="85.742188" xlink:href="#DejaVuSans-109"/>
      <use x="183.154297" xlink:href="#DejaVuSans-101"/>
      <use x="244.677734" xlink:href="#DejaVuSans-32"/>
      <use x="276.464844" xlink:href="#DejaVuSans-40"/>
      <use x="315.478516" xlink:href="#DejaVuSans-100"/>
      <use x="378.955078" xlink:href="#DejaVuSans-97"/>
      <use x="440.234375" xlink:href="#DejaVuSans-121"/>
      <use x="499.414062" xlink:href="#DejaVuSans-115"/>
      <use x="551.513672" xlink:href="#DejaVuSans-41"/>
     </g>
    </g>
   </g>
   <g id="matplotlib.axis_2">
    <g id="ytick_1">
     <g id="line2d_7">
      <defs>
       <path d="M 0 0 
L -3.5 0 
" id="m58581d39a5" style="stroke:#000000;stroke-width:0.8;"/>
      </defs>
      <g>
       <use style="stroke:#000000;stroke-width:0.8;" x="57.6" xlink:href="#m58581d39a5" y="289.616583"/>
      </g>
     </g>
     <g id="text_8">
      <!-- 0 -->
      <g transform="translate(44.2375 293.415802)scale(0.1 -0.1)">
       <use xlink:href="#DejaVuSans-48"/>
      </g>
     </g>
    </g>
    <g id="ytick_2">
     <g id="line2d_8">
      <g>
       <use style="stroke:#000000;stroke-width:0.8;" x="57.6" xlink:href="#m58581d39a5" y="230.894207"/>
      </g>
     </g>
     <g id="text_9">
      <!-- 1000 -->
      <g transform="translate(25.15 234.693426)scale(0.1 -0.1)">
       <use xlink:href="#DejaVuSans-49"/>
       <use x="63.623047" xlink:href="#DejaVuSans-48"/>
       <use x="127.246094" xlink:href="#DejaVuSans-48"/>
       <use x="190.869141" xlink:href="#DejaVuSans-48"/>
      </g>
     </g>
    </g>
    <g id="ytick_3">
     <g id="line2d_9">
      <g>
       <use style="stroke:#000000;stroke-width:0.8;" x="57.6" xlink:href="#m58581d39a5" y="172.171831"/>
      </g>
     </g>
     <g id="text_10">
      <!-- 2000 -->
      <g transform="translate(25.15 175.97105)scale(0.1 -0.1)">
       <use xlink:href="#DejaVuSans-50"/>
       <use x="63.623047" xlink:href="#DejaVuSans-48"/>
       <use x="127.246094" xlink:href="#DejaVuSans-48"/>
       <use x="190.869141" xlink:href="#DejaVuSans-48"/>
      </g>
     </g>
    </g>
    <g id="ytick_4">
     <g id="line2d_10">
      <g>
       <use style="stroke:#000000;stroke-width:0.8;" x="57.6" xlink:href="#m58581d39a5" y="113.449455"/>
      </g>
     </g>
     <g id="text_11">
      <!-- 3000 -->
      <g transform="translate(25.15 117.248673)scale(0.1 -0.1)">
       <defs>
        <path d="M 40.578125 39.3125 
Q 47.65625 37.796875 51.625 33 
Q 55.609375 28.21875 55.609375 21.1875 
Q 55.609375 10.40625 48.1875 4.484375 
Q 40.765625 -1.421875 27.09375 -1.421875 
Q 22.515625 -1.421875 17.65625 -0.515625 
Q 12.796875 0.390625 7.625 2.203125 
L 7.625 11.71875 
Q 11.71875 9.328125 16.59375 8.109375 
Q 21.484375 6.890625 26.8125 6.890625 
Q 36.078125 6.890625 40.9375 10.546875 
Q 45.796875 14.203125 45.796875 21.1875 
Q 45.796875 27.640625 41.28125 31.265625 
Q 36.765625 34.90625 28.71875 34.90625 
L 20.21875 34.90625 
L 20.21875 43.015625 
L 29.109375 43.015625 
Q 36.375 43.015625 40.234375 45.921875 
Q 44.09375 48.828125 44.09375 54.296875 
Q 44.09375 59.90625 40.109375 62.90625 
Q 36.140625 65.921875 28.71875 65.921875 
Q 24.65625 65.921875 20.015625 65.03125 
Q 15.375 64.15625 9.8125 62.3125 
L 9.8125 71.09375 
Q 15.4375 72.65625 20.34375 73.4375 
Q 25.25 74.21875 29.59375 74.21875 
Q 40.828125 74.21875 47.359375 69.109375 
Q 53.90625 64.015625 53.90625 55.328125 
Q 53.90625 49.265625 50.4375 45.09375 
Q 46.96875 40.921875 40.578125 39.3125 
z
" id="DejaVuSans-51"/>
       </defs>
       <use xlink:href="#DejaVuSans-51"/>
       <use x="63.623047" xlink:href="#DejaVuSans-48"/>
       <use x="127.246094" xlink:href="#DejaVuSans-48"/>
       <use x="190.869141" xlink:href="#DejaVuSans-48"/>
      </g>
     </g>
    </g>
    <g id="ytick_5">
     <g id="line2d_11">
      <g>
       <use style="stroke:#000000;stroke-width:0.8;" x="57.6" xlink:href="#m58581d39a5" y="54.727078"/>
      </g>
     </g>
     <g id="text_12">
      <!-- 4000 -->
      <g transform="translate(25.15 58.526297)scale(0.1 -0.1)">
       <use xlink:href="#DejaVuSans-52"/>
       <use x="63.623047" xlink:href="#DejaVuSans-48"/>
       <use x="127.246094" xlink:href="#DejaVuSans-48"/>
       <use x="190.869141" xlink:href="#DejaVuSans-48"/>
      </g>
     </g>
    </g>
    <g id="text_13">
     <!-- Density -->
     <g transform="translate(19.070312 193.536594)rotate(-90)scale(0.1 -0.1)">
      <defs>
       <path d="M 19.671875 64.796875 
L 19.671875 8.109375 
L 31.59375 8.109375 
Q 46.6875 8.109375 53.6875 14.9375 
Q 60.6875 21.78125 60.6875 36.53125 
Q 60.6875 51.171875 53.6875 57.984375 
Q 46.6875 64.796875 31.59375 64.796875 
z
M 9.8125 72.90625 
L 30.078125 72.90625 
Q 51.265625 72.90625 61.171875 64.09375 
Q 71.09375 55.28125 71.09375 36.53125 
Q 71.09375 17.671875 61.125 8.828125 
Q 51.171875 0 30.078125 0 
L 9.8125 0 
z
" id="DejaVuSans-68"/>
       <path d="M 54.890625 33.015625 
L 54.890625 0 
L 45.90625 0 
L 45.90625 32.71875 
Q 45.90625 40.484375 42.875 44.328125 
Q 39.84375 48.1875 33.796875 48.1875 
Q 26.515625 48.1875 22.3125 43.546875 
Q 18.109375 38.921875 18.109375 30.90625 
L 18.109375 0 
L 9.078125 0 
L 9.078125 54.6875 
L 18.109375 54.6875 
L 18.109375 46.1875 
Q 21.34375 51.125 25.703125 53.5625 
Q 30.078125 56 35.796875 56 
Q 45.21875 56 50.046875 50.171875 
Q 54.890625 44.34375 54.890625 33.015625 
z
" id="DejaVuSans-110"/>
       <path d="M 18.3125 70.21875 
L 18.3125 54.6875 
L 36.8125 54.6875 
L 36.8125 47.703125 
L 18.3125 47.703125 
L 18.3125 18.015625 
Q 18.3125 11.328125 20.140625 9.421875 
Q 21.96875 7.515625 27.59375 7.515625 
L 36.8125 7.515625 
L 36.8125 0 
L 27.59375 0 
Q 17.1875 0 13.234375 3.875 
Q 9.28125 7.765625 9.28125 18.015625 
L 9.28125 47.703125 
L 2.6875 47.703125 
L 2.6875 54.6875 
L 9.28125 54.6875 
L 9.28125 70.21875 
z
" id="DejaVuSans-116"/>
      </defs>
      <use xlink:href="#DejaVuSans-68"/>
      <use x="77.001953" xlink:href="#DejaVuSans-101"/>
      <use x="138.525391" xlink:href="#DejaVuSans-110"/>
      <use x="201.904297" xlink:href="#DejaVuSans-115"/>
      <use x="254.003906" xlink:href="#DejaVuSans-105"/>
      <use x="281.787109" xlink:href="#DejaVuSans-116"/>
      <use x="320.996094" xlink:href="#DejaVuSans-121"/>
     </g>
    </g>
   </g>
   <g id="line2d_12">
    <path clip-path="url(#p713c03e3f8)" d="M 73.832727 289.029359 
L 74.482686 288.690928 
L 75.132645 288.145909 
L 75.782604 287.279146 
L 76.432563 285.868031 
L 77.082523 283.620304 
L 77.732482 280.159578 
L 78.382441 274.67143 
L 79.0324 266.269762 
L 79.682359 255.748146 
L 80.982277 220.511974 
L 81.632236 193.757105 
L 81.957215 201.022878 
L 82.282195 203.742912 
L 82.607174 190.131506 
L 82.932154 182.659937 
L 83.257133 168.357727 
L 83.582113 147.196912 
L 84.232072 140.507417 
L 84.557052 129.7813 
L 84.882031 133.174285 
L 85.207011 131.232871 
L 85.85697 121.87487 
L 86.181949 117.596763 
L 86.506929 131.824331 
L 86.831908 133.922152 
L 87.481867 113.069118 
L 87.806847 134.880747 
L 88.131826 133.041076 
L 89.106765 104.925608 
L 89.431744 136.583232 
L 89.756724 130.690452 
L 90.081704 128.822896 
L 90.406683 139.418335 
L 90.731663 130.896656 
L 91.056642 141.88848 
L 91.381622 137.715844 
L 92.031581 122.44128 
L 92.35656 126.044177 
L 92.68154 114.54691 
L 93.006519 116.651369 
L 93.331499 100.410474 
L 93.656478 103.396065 
L 94.306437 77.72839 
L 94.631417 79.338475 
L 94.956396 92.156012 
L 95.281376 91.015798 
L 95.606355 75.478066 
L 95.931335 81.227591 
L 96.581294 95.427542 
L 96.906274 97.723006 
L 97.556233 91.828618 
L 97.881212 120.282783 
L 98.206192 112.060675 
L 98.531171 145.651942 
L 98.856151 150.015211 
L 99.18113 139.047055 
L 99.50611 120.396726 
L 99.831089 123.266425 
L 100.806028 97.271605 
L 101.131007 97.179495 
L 101.455987 100.0186 
L 101.780966 99.079607 
L 102.105946 100.802302 
L 102.430925 104.91696 
L 102.755905 98.334709 
L 103.080885 88.469616 
L 103.405864 90.331427 
L 104.380803 128.118633 
L 104.705782 136.208631 
L 105.030762 114.728914 
L 105.355741 113.012706 
L 105.680721 108.905645 
L 106.0057 101.550039 
L 106.655659 107.046236 
L 107.305618 85.221457 
L 107.630598 97.319877 
L 107.955577 97.882062 
L 108.280557 86.37616 
L 108.605536 111.734255 
L 108.930516 104.835775 
L 109.255495 123.79862 
L 109.580475 116.170399 
L 109.905455 101.706008 
L 110.230434 107.813668 
L 110.555414 93.295136 
L 110.880393 85.973713 
L 111.205373 96.891436 
L 111.530352 97.271908 
L 111.855332 93.942347 
L 112.180311 120.072186 
L 112.505291 125.031616 
L 112.83027 126.40456 
L 113.15525 121.651931 
L 113.480229 129.680639 
L 113.805209 126.369632 
L 114.455168 104.10202 
L 114.780147 111.260568 
L 115.105127 115.235839 
L 115.430106 104.168374 
L 115.755086 102.003385 
L 116.080066 106.617827 
L 116.405045 116.522199 
L 116.730025 116.124879 
L 117.055004 124.605896 
L 117.379984 110.64453 
L 117.704963 116.733104 
L 118.029943 120.07031 
L 118.354922 129.117147 
L 118.679902 127.43876 
L 119.004881 142.476124 
L 119.329861 140.828612 
L 119.97982 107.116194 
L 120.304799 115.595747 
L 120.629779 101.425283 
L 120.954758 97.483375 
L 121.279738 106.440753 
L 121.604717 111.425835 
L 121.929697 107.509362 
L 122.254676 105.266613 
L 122.579656 113.871373 
L 123.554595 83.788624 
L 123.879574 88.244342 
L 124.204554 97.974364 
L 124.529533 88.859746 
L 124.854513 83.802324 
L 125.179492 85.758104 
L 125.504472 91.103756 
L 125.829451 112.706551 
L 126.154431 118.661554 
L 126.47941 120.849938 
L 126.80439 125.485203 
L 127.129369 125.374694 
L 127.454349 119.360224 
L 127.779328 124.582318 
L 128.104308 143.346632 
L 128.429287 141.653615 
L 129.404226 92.699057 
L 129.729206 86.027045 
L 130.054185 87.718317 
L 130.379165 98.991075 
L 130.704144 100.942545 
L 131.029124 101.300911 
L 131.354103 96.271456 
L 131.679083 98.960731 
L 132.004062 127.935306 
L 132.329042 121.447195 
L 132.654021 127.65056 
L 132.979001 119.061696 
L 133.30398 120.57635 
L 133.62896 105.65238 
L 133.953939 105.301667 
L 134.278919 95.291528 
L 134.603898 97.355297 
L 134.928878 84.910098 
L 135.253857 88.392063 
L 135.578837 81.407098 
L 135.903817 69.949132 
L 136.228796 70.382834 
L 136.553776 84.794782 
L 136.878755 80.543685 
L 137.203735 85.173384 
L 137.528714 86.742713 
L 137.853694 95.851293 
L 138.178673 114.471166 
L 138.503653 152.794794 
L 138.828632 148.629831 
L 140.12855 103.469171 
L 140.45353 98.288269 
L 140.778509 111.564737 
L 141.103489 112.537769 
L 141.753448 110.344145 
L 142.078428 112.766608 
L 142.403407 105.357481 
L 142.728387 93.419801 
L 143.053366 99.067844 
L 143.378346 94.166016 
L 143.703325 83.275838 
L 144.353284 99.982495 
L 144.678264 104.991046 
L 145.003243 92.160841 
L 145.328223 94.629605 
L 145.653202 98.025595 
L 145.978182 98.158146 
L 146.303161 97.54152 
L 146.628141 111.405686 
L 146.95312 103.803378 
L 147.2781 129.229717 
L 147.928059 105.393603 
L 148.253038 109.27504 
L 148.578018 116.063856 
L 148.902998 109.132967 
L 149.227977 115.662686 
L 149.552957 112.755267 
L 149.877936 117.580679 
L 150.202916 111.514971 
L 150.852875 107.464673 
L 151.177854 103.97271 
L 151.502834 96.678787 
L 151.827813 96.293981 
L 152.477772 84.51318 
L 152.802752 78.051145 
L 153.127731 94.923249 
L 153.452711 100.367342 
L 153.77769 116.378611 
L 154.10267 118.044182 
L 154.427649 112.341201 
L 154.752629 112.323398 
L 155.077609 100.077182 
L 155.727568 107.637383 
L 156.052547 102.471122 
L 156.377527 102.464959 
L 156.702506 94.619618 
L 157.027486 93.947579 
L 157.677445 108.191773 
L 158.327404 86.180122 
L 158.977363 103.193402 
L 159.627322 99.748314 
L 159.952301 96.557662 
L 160.277281 102.120614 
L 160.60226 92.310455 
L 160.92724 100.330567 
L 161.252219 101.508179 
L 161.577199 89.544926 
L 161.902179 89.870411 
L 162.227158 89.907213 
L 162.552138 80.928545 
L 162.877117 100.158386 
L 163.202097 106.892859 
L 163.852056 99.296882 
L 164.177035 92.936238 
L 164.502015 95.238557 
L 164.826994 99.525223 
L 165.151974 105.959767 
L 165.476953 125.820707 
L 165.801933 124.505869 
L 166.451892 110.59696 
L 166.776871 137.388144 
L 167.101851 129.168705 
L 167.42683 116.463662 
L 167.75181 118.740845 
L 168.07679 115.173085 
L 168.401769 104.457418 
L 168.726749 109.07592 
L 169.051728 94.29813 
L 169.376708 96.708083 
L 169.701687 123.117949 
L 170.026667 126.3419 
L 170.351646 116.507913 
L 170.676626 114.199717 
L 171.001605 115.616482 
L 171.326585 103.259897 
L 171.651564 98.893046 
L 172.301523 109.576009 
L 172.626503 97.959288 
L 172.951482 97.97439 
L 173.276462 95.996493 
L 173.926421 106.763536 
L 174.2514 118.287068 
L 174.57638 108.16026 
L 174.90136 114.752079 
L 175.226339 110.474117 
L 175.551319 101.352874 
L 175.876298 110.744064 
L 176.201278 93.444935 
L 176.851237 110.246163 
L 177.176216 95.17405 
L 177.501196 111.415567 
L 178.151155 99.123626 
L 178.476134 103.574509 
L 178.801114 110.340841 
L 179.126093 91.000821 
L 179.451073 101.031161 
L 179.776052 98.699985 
L 180.101032 104.905625 
L 180.426011 117.564721 
L 180.750991 103.145568 
L 181.075971 94.231068 
L 181.40095 99.740546 
L 181.72593 95.043009 
L 182.050909 106.886347 
L 182.375889 95.772043 
L 183.025848 90.630364 
L 183.350827 102.779829 
L 183.675807 120.048635 
L 184.000786 116.617609 
L 184.325766 96.180902 
L 184.650745 87.997633 
L 184.975725 75.767671 
L 185.625684 117.994486 
L 185.950663 140.59098 
L 186.275643 146.325776 
L 186.600622 131.937448 
L 186.925602 146.133193 
L 187.250581 131.330465 
L 187.575561 131.22361 
L 187.900541 118.325415 
L 188.22552 116.588582 
L 188.875479 92.509696 
L 189.200459 101.611582 
L 189.525438 95.799966 
L 189.850418 123.860383 
L 190.175397 121.387915 
L 190.500377 116.508046 
L 191.150336 122.215052 
L 191.800295 104.539493 
L 192.125274 104.747349 
L 192.450254 107.745409 
L 192.775233 98.883632 
L 193.100213 105.559832 
L 193.425192 102.378296 
L 193.750172 108.073668 
L 194.075152 99.067722 
L 194.725111 97.164407 
L 195.05009 99.960399 
L 196.025029 79.701329 
L 196.350008 67.248617 
L 196.674988 97.451069 
L 196.999967 98.800661 
L 197.324947 105.407345 
L 197.649926 109.613446 
L 197.974906 99.009751 
L 198.299885 123.362628 
L 198.624865 128.697579 
L 198.949844 127.818632 
L 199.274824 122.489014 
L 199.599803 113.590029 
L 199.924783 116.653361 
L 200.249762 118.177898 
L 200.574742 104.561548 
L 200.899722 101.708022 
L 201.224701 100.416914 
L 201.549681 95.901632 
L 201.87466 97.414862 
L 202.19964 101.204151 
L 202.524619 95.785989 
L 202.849599 94.879762 
L 203.174578 90.653683 
L 203.824537 100.465209 
L 204.149517 125.984972 
L 204.474496 123.888556 
L 205.124455 103.985355 
L 205.449435 105.053648 
L 206.099394 117.497396 
L 206.424373 118.746613 
L 206.749353 108.052074 
L 207.074333 111.487778 
L 207.399312 112.996482 
L 207.724292 101.250576 
L 208.049271 100.584516 
L 209.02421 89.239708 
L 209.349189 100.088227 
L 209.674169 105.075693 
L 209.999148 92.649889 
L 210.324128 85.324899 
L 210.649107 83.791131 
L 211.949025 63.617179 
L 212.274005 85.997348 
L 212.598984 83.402254 
L 212.923964 83.129138 
L 213.573923 105.065617 
L 213.898903 102.533934 
L 214.223882 91.114245 
L 214.548862 102.395785 
L 214.873841 94.779225 
L 215.198821 90.890581 
L 215.5238 102.945072 
L 215.84878 94.511109 
L 216.173759 110.348077 
L 216.498739 114.946742 
L 216.823718 91.163873 
L 217.148698 120.157539 
L 217.473677 118.426977 
L 217.798657 123.702599 
L 218.123636 123.18419 
L 218.448616 116.758981 
L 218.773595 117.992174 
L 219.098575 122.959829 
L 219.423554 121.414541 
L 219.748534 144.448628 
L 220.073514 136.678463 
L 220.398493 121.813592 
L 220.723473 129.188593 
L 221.048452 153.208702 
L 221.373432 138.501131 
L 221.698411 130.146696 
L 222.023391 130.65935 
L 222.34837 121.081544 
L 222.998329 110.501545 
L 223.323309 110.420718 
L 223.648288 101.345391 
L 223.973268 113.972873 
L 224.298247 105.935228 
L 224.623227 100.811239 
L 224.948206 92.119404 
L 225.273186 139.706881 
L 225.598165 137.084074 
L 225.923145 130.806988 
L 226.248124 131.494968 
L 226.573104 116.85258 
L 226.898084 115.453163 
L 227.223063 100.890735 
L 227.548043 96.477743 
L 227.873022 94.356951 
L 228.198002 98.704293 
L 228.522981 92.160961 
L 228.847961 119.452256 
L 229.17294 115.848718 
L 229.49792 116.487909 
L 230.147879 97.080086 
L 230.472858 103.90928 
L 230.797838 116.654684 
L 231.122817 98.361667 
L 231.447797 95.266817 
L 231.772776 104.863085 
L 232.097756 89.161343 
L 233.072695 128.867609 
L 233.397674 122.579499 
L 233.722654 118.538745 
L 234.047633 106.579072 
L 234.697592 125.652547 
L 235.022572 125.017938 
L 235.347551 123.825434 
L 235.672531 117.869939 
L 235.99751 100.281236 
L 236.32249 122.062937 
L 236.972449 129.676132 
L 237.297428 139.674694 
L 237.622408 141.06248 
L 237.947387 132.511113 
L 238.597346 110.170879 
L 238.922326 105.628493 
L 239.247305 102.761188 
L 239.572285 136.267475 
L 239.897265 124.362096 
L 240.222244 124.112578 
L 240.547224 129.683752 
L 240.872203 118.727266 
L 241.197183 127.00135 
L 241.522162 125.275898 
L 241.847142 116.99913 
L 242.172121 114.424472 
L 242.497101 117.608308 
L 242.82208 128.91854 
L 243.14706 123.114633 
L 243.472039 131.734226 
L 244.121998 106.047198 
L 244.446978 102.372971 
L 244.771957 96.895326 
L 245.096937 94.022469 
L 245.421916 86.445952 
L 245.746896 101.173861 
L 246.396855 110.636165 
L 247.046814 88.52369 
L 247.371794 95.256177 
L 247.696773 97.844068 
L 248.021753 124.25551 
L 248.346732 117.39611 
L 248.671712 121.442794 
L 248.996691 109.424601 
L 249.321671 135.604225 
L 249.64665 134.204516 
L 249.97163 124.225985 
L 250.296609 139.279913 
L 250.621589 122.470067 
L 250.946568 131.343109 
L 251.596527 111.693984 
L 251.921507 138.16816 
L 252.246486 127.01052 
L 252.571466 108.124883 
L 252.896446 99.422126 
L 253.221425 106.632833 
L 253.546405 97.963876 
L 253.871384 98.328648 
L 254.196364 100.331926 
L 254.521343 94.391112 
L 254.846323 97.47931 
L 255.171302 90.034822 
L 255.496282 100.023903 
L 256.47122 113.628493 
L 256.7962 98.238511 
L 257.121179 92.088203 
L 257.446159 93.352722 
L 257.771138 101.515526 
L 258.096118 87.022004 
L 258.421097 79.106874 
L 258.746077 98.094921 
L 259.071057 101.258476 
L 259.396036 109.255698 
L 259.721016 110.463584 
L 260.045995 109.29747 
L 260.370975 119.772802 
L 260.695954 122.869089 
L 261.020934 116.43514 
L 261.670893 130.481848 
L 261.995872 113.877513 
L 262.320852 114.078 
L 262.970811 97.356462 
L 263.29579 103.984179 
L 263.62077 89.378172 
L 263.945749 102.647339 
L 264.270729 94.956624 
L 264.595708 95.787585 
L 265.245667 78.973578 
L 265.895627 86.529054 
L 266.220606 88.050318 
L 266.545586 78.325012 
L 266.870565 119.782787 
L 267.845504 79.211055 
L 268.170483 76.190318 
L 268.495463 75.28727 
L 268.820442 72.718197 
L 269.145422 85.984509 
L 269.795381 75.328798 
L 270.12036 83.851868 
L 270.44534 86.241846 
L 270.770319 83.763874 
L 271.095299 82.449027 
L 271.420278 88.586968 
L 271.745258 87.734566 
L 272.070238 94.996437 
L 272.395217 92.13875 
L 273.045176 53.568 
L 273.370156 57.262583 
L 273.695135 70.293711 
L 274.020115 64.873255 
L 274.345094 69.858164 
L 274.995053 85.293678 
L 275.320033 86.730548 
L 275.645012 82.882069 
L 275.969992 95.474871 
L 276.294971 87.502184 
L 276.619951 73.576285 
L 277.26991 95.422852 
L 277.919869 120.537771 
L 278.244848 124.245912 
L 278.569828 131.063532 
L 278.894808 120.704786 
L 279.219787 125.722328 
L 279.869746 107.870468 
L 280.194726 122.900445 
L 280.519705 127.63818 
L 280.844685 118.577243 
L 281.169664 120.030259 
L 281.494644 125.235062 
L 281.819623 128.412235 
L 282.144603 127.528248 
L 282.469582 118.701231 
L 282.794562 119.430218 
L 283.119541 117.508478 
L 283.444521 110.47511 
L 283.7695 99.558579 
L 284.09448 104.582105 
L 284.419459 91.229793 
L 285.069419 123.71954 
L 285.394398 112.309308 
L 285.719378 114.114767 
L 286.044357 108.337775 
L 286.369337 122.1178 
L 286.694316 107.052191 
L 287.019296 110.77303 
L 287.344275 106.935556 
L 287.669255 105.251119 
L 288.319214 78.673745 
L 288.644193 76.407932 
L 288.969173 73.330664 
L 289.294152 55.996882 
L 289.619132 68.506912 
L 289.944111 61.413232 
L 290.269091 68.63602 
L 290.59407 66.845482 
L 291.244029 82.802389 
L 291.569009 69.313225 
L 291.893989 89.822649 
L 292.218968 101.244604 
L 292.543948 104.341258 
L 292.868927 114.148614 
L 293.518886 98.85407 
L 294.168845 110.456143 
L 294.493825 108.99207 
L 294.818804 102.552935 
L 295.143784 99.82469 
L 295.468763 111.586832 
L 295.793743 112.321537 
L 296.118722 104.550037 
L 296.443702 110.961659 
L 296.768681 114.588679 
L 297.093661 110.754251 
L 297.41864 83.276203 
L 297.74362 103.806119 
L 298.0686 116.569907 
L 298.718559 97.186967 
L 299.043538 82.917861 
L 299.368518 96.355708 
L 299.693497 93.530864 
L 300.343456 108.019737 
L 300.668436 104.3388 
L 300.993415 98.009399 
L 301.318395 97.411403 
L 301.643374 99.078412 
L 301.968354 104.801374 
L 302.293333 107.707568 
L 302.618313 105.497119 
L 302.943292 93.268082 
L 303.268272 85.52808 
L 303.593251 84.779855 
L 303.918231 100.783956 
L 304.56819 123.463618 
L 304.89317 117.970446 
L 305.218149 118.113733 
L 305.868108 105.82322 
L 306.193088 107.295865 
L 306.518067 93.330706 
L 306.843047 111.538784 
L 307.168026 110.776067 
L 307.493006 92.670536 
L 307.817985 89.195025 
L 308.142965 90.137388 
L 308.792924 77.575563 
L 309.117903 94.770987 
L 309.442883 118.834265 
L 309.767862 119.522082 
L 310.092842 116.227525 
L 310.417821 123.914326 
L 310.742801 116.053682 
L 311.067781 104.705556 
L 311.39276 111.131116 
L 311.71774 100.482357 
L 312.367699 93.566114 
L 312.692678 95.546718 
L 313.017658 95.128705 
L 313.342637 90.581564 
L 313.667617 110.507269 
L 313.992596 108.520692 
L 314.317576 120.898165 
L 314.642555 115.491549 
L 314.967535 105.519108 
L 315.292514 106.692486 
L 315.617494 91.588833 
L 315.942473 99.866313 
L 316.267453 99.533099 
L 316.592432 108.397046 
L 316.917412 105.457763 
L 317.242391 107.452513 
L 318.21733 77.999535 
L 318.54231 84.189861 
L 318.867289 84.412073 
L 319.192269 85.216036 
L 319.517248 73.277313 
L 319.842228 92.701046 
L 320.167207 79.849454 
L 320.492187 87.793055 
L 320.817166 80.995235 
L 321.142146 80.005729 
L 321.467125 92.06107 
L 321.792105 93.998626 
L 322.117084 94.786458 
L 322.442064 113.35252 
L 322.767043 114.123982 
L 323.092023 122.537138 
L 323.417002 126.074586 
L 324.066962 109.516681 
L 324.391941 120.435625 
L 324.716921 112.843596 
L 325.0419 101.370327 
L 325.36688 112.373702 
L 325.691859 106.194258 
L 326.016839 137.838803 
L 326.341818 124.956961 
L 326.666798 121.213224 
L 326.991777 112.527065 
L 327.316757 113.330991 
L 327.641736 108.695551 
L 327.966716 112.712071 
L 328.291695 97.546361 
L 328.616675 100.459629 
L 328.941654 88.84498 
L 329.266634 93.877488 
L 329.591613 94.240776 
L 329.916593 89.463522 
L 330.241572 100.021797 
L 330.891532 86.788509 
L 331.216511 91.73178 
L 331.541491 93.146653 
L 331.86647 114.834762 
L 332.19145 112.765826 
L 332.516429 105.773039 
L 332.841409 122.413242 
L 333.166388 120.586977 
L 333.491368 122.450557 
L 334.141327 115.584273 
L 334.466306 126.223586 
L 334.791286 116.553523 
L 335.116265 117.551573 
L 335.441245 111.813933 
L 335.766224 116.80365 
L 336.091204 110.249006 
L 336.416183 110.993478 
L 336.741163 97.936701 
L 337.066143 108.871115 
L 337.391122 124.077008 
L 337.716102 123.306895 
L 338.041081 122.195634 
L 338.366061 104.898759 
L 338.69104 108.083693 
L 339.01602 133.783844 
L 339.665979 111.88097 
L 340.315938 88.123547 
L 340.640917 91.075318 
L 340.965897 89.369009 
L 341.290876 97.089304 
L 341.615856 92.169365 
L 341.940835 89.156377 
L 342.265815 94.954242 
L 342.590794 82.69977 
L 342.915774 81.372486 
L 343.240753 87.841038 
L 343.565733 97.80308 
L 343.890713 91.955611 
L 344.215692 93.718259 
L 344.540672 101.632407 
L 344.865651 106.254851 
L 345.190631 105.048528 
L 345.51561 87.900573 
L 345.84059 95.888727 
L 346.165569 84.094635 
L 346.490549 79.024008 
L 346.815528 76.289898 
L 347.140508 72.065856 
L 347.465487 104.117618 
L 347.790467 102.371791 
L 348.115446 105.822857 
L 348.440426 114.573606 
L 348.765405 116.55615 
L 349.090385 121.04849 
L 349.415364 115.283047 
L 349.740344 123.725313 
L 350.065324 127.009817 
L 350.390303 125.113421 
L 350.715283 127.369159 
L 351.040262 118.175886 
L 351.365242 113.985045 
L 351.690221 120.771114 
L 352.015201 123.577079 
L 352.34018 114.41692 
L 352.990139 103.258564 
L 353.315119 110.866223 
L 354.615037 91.816053 
L 354.940016 107.256123 
L 355.264996 102.117716 
L 355.589975 108.838835 
L 355.914955 112.008912 
L 356.239934 117.047329 
L 356.564914 114.905133 
L 356.889894 110.996095 
L 357.214873 99.072001 
L 357.864832 130.553365 
L 358.189812 119.831502 
L 358.514791 115.965053 
L 358.839771 122.067702 
L 359.48973 105.347921 
L 359.814709 120.737301 
L 360.464668 103.503848 
L 360.789648 109.534974 
L 361.114627 83.493911 
L 361.439607 78.57643 
L 361.764586 96.471783 
L 362.089566 88.415594 
L 362.739525 125.954614 
L 363.064505 123.929983 
L 363.714464 105.49266 
L 364.039443 114.335354 
L 364.364423 103.364766 
L 364.689402 116.811652 
L 365.014382 138.987203 
L 365.339361 138.144984 
L 365.664341 131.643494 
L 366.964259 93.040669 
L 367.289238 86.396628 
L 367.614218 98.72596 
L 367.939197 99.466848 
L 368.589156 119.815509 
L 369.239115 113.454055 
L 369.564095 113.47482 
L 369.889075 116.930988 
L 370.214054 117.47027 
L 370.539034 106.852093 
L 370.864013 135.976468 
L 371.188993 141.045986 
L 371.513972 139.353315 
L 371.838952 143.377584 
L 372.163931 131.469828 
L 372.488911 126.406312 
L 372.81389 126.965072 
L 373.13887 114.790468 
L 373.463849 123.392006 
L 373.788829 124.485781 
L 374.113808 108.488381 
L 374.438788 102.492325 
L 374.763767 114.067259 
L 375.413726 96.321426 
L 375.738706 93.191437 
L 376.388665 98.966305 
L 377.038624 136.314523 
L 377.363604 129.587081 
L 377.688583 127.915823 
L 378.013563 114.743957 
L 378.338542 114.340803 
L 378.663522 105.061847 
L 378.988501 121.9972 
L 379.63846 114.030232 
L 380.288419 86.912594 
L 380.613399 96.869366 
L 380.938378 97.367838 
L 381.263358 113.594685 
L 381.588337 111.312475 
L 381.913317 106.023671 
L 382.563276 78.198689 
L 382.888256 108.617295 
L 383.213235 115.850478 
L 383.538215 105.298213 
L 383.863194 112.373075 
L 384.188174 109.352711 
L 384.513153 102.748272 
L 385.163112 69.574133 
L 385.488092 64.488932 
L 385.813071 70.910543 
L 386.138051 68.300162 
L 386.78801 67.019352 
L 387.112989 74.533045 
L 387.437969 69.201007 
L 387.762948 61.141395 
L 388.087928 68.359644 
L 388.412907 87.376203 
L 388.737887 83.43535 
L 389.387846 104.477406 
L 389.712826 121.000533 
L 390.037805 119.334782 
L 390.362785 125.886228 
L 390.687764 108.533566 
L 391.012744 99.593008 
L 391.337723 108.486654 
L 391.662703 102.316038 
L 391.987682 103.360572 
L 392.312662 100.872041 
L 392.637641 116.080955 
L 392.962621 108.191043 
L 393.2876 134.880911 
L 393.61258 143.873961 
L 393.937559 131.231317 
L 394.587518 140.792188 
L 394.912498 134.561133 
L 395.237477 134.355243 
L 395.562457 133.880436 
L 395.887437 135.576234 
L 396.862375 98.573587 
L 397.187355 104.568803 
L 397.512334 108.069352 
L 397.837314 104.998427 
L 398.487273 88.563978 
L 398.487273 88.563978 
" style="fill:none;stroke:#1f77b4;stroke-linecap:square;stroke-width:1.5;"/>
   </g>
   <g id="line2d_13">
    <path clip-path="url(#p713c03e3f8)" d="M 73.832727 289.616583 
L 78.70742 289.814937 
L 86.181949 290.30264 
L 87.806847 290.301339 
L 98.206192 290.51391 
L 98.856151 290.440136 
L 101.455987 290.597063 
L 104.380803 290.582555 
L 105.355741 290.623726 
L 108.930516 290.704261 
L 109.580475 290.688323 
L 110.880393 290.784786 
L 113.480229 290.716505 
L 117.704963 290.823685 
L 120.304799 290.872579 
L 121.279738 290.917929 
L 122.904636 290.958093 
L 124.204554 290.990366 
L 125.504472 291.032987 
L 126.47941 290.952566 
L 128.754267 290.981484 
L 130.054185 291.122735 
L 131.029124 291.096539 
L 131.679083 291.110702 
L 132.004062 291.015061 
L 136.228796 291.270893 
L 137.203735 291.243912 
L 138.178673 291.158059 
L 138.503653 291.023883 
L 139.478591 291.14948 
L 141.103489 291.218453 
L 146.95312 291.350414 
L 147.2781 291.251122 
L 148.253038 291.347349 
L 149.877936 291.335969 
L 152.802752 291.544245 
L 154.10267 291.405276 
L 156.702506 291.547135 
L 165.151974 291.633196 
L 165.801933 291.562048 
L 166.451892 291.636173 
L 166.776871 291.511145 
L 168.401769 291.699395 
L 170.351646 291.690979 
L 173.926421 291.796276 
L 174.57638 291.801329 
L 175.226339 291.799733 
L 176.201278 291.901406 
L 176.851237 291.823826 
L 177.176216 291.903319 
L 177.501196 291.826214 
L 178.476134 291.882606 
L 178.801114 291.855353 
L 179.126093 291.957107 
L 180.426011 291.842651 
L 181.075971 291.974155 
L 182.375889 291.983773 
L 183.350827 291.956135 
L 184.000786 291.904724 
L 184.975725 292.132161 
L 186.275643 291.769825 
L 186.600622 291.861394 
L 186.925602 291.779402 
L 187.900541 291.9613 
L 189.525438 292.109114 
L 189.850418 291.95394 
L 196.350008 292.355863 
L 196.674988 292.205131 
L 198.299885 292.08503 
L 199.274824 292.107695 
L 199.924783 292.155819 
L 200.574742 292.239857 
L 203.174578 292.350526 
L 203.824537 292.301283 
L 204.149517 292.152402 
L 209.349189 292.387598 
L 209.999148 292.440469 
L 211.624046 292.606804 
L 211.949025 292.639256 
L 212.274005 292.516701 
L 213.248943 292.484755 
L 213.898903 292.443954 
L 214.223882 292.519861 
L 214.548862 292.458042 
L 215.198821 292.537551 
L 215.5238 292.456695 
L 215.84878 292.513887 
L 216.498739 292.384045 
L 216.823718 292.540061 
L 217.148698 292.373166 
L 219.423554 292.406404 
L 219.748534 292.252132 
L 220.723473 292.3802 
L 221.048452 292.204739 
L 221.698411 292.390113 
L 222.34837 292.467394 
L 223.648288 292.622521 
L 223.973268 292.543786 
L 224.948206 292.708832 
L 225.273186 292.418368 
L 226.898084 292.628679 
L 227.548043 292.775052 
L 228.522981 292.821814 
L 228.847961 292.632166 
L 230.472858 292.770008 
L 230.797838 292.680442 
L 231.447797 292.844232 
L 231.772776 292.780122 
L 232.097756 292.894996 
L 233.072695 292.624758 
L 234.372613 292.747627 
L 235.022572 292.693599 
L 235.672531 292.760676 
L 235.99751 292.897467 
L 236.32249 292.737184 
L 237.947387 292.687039 
L 238.922326 292.909461 
L 239.247305 292.936517 
L 239.572285 292.683778 
L 240.222244 292.786271 
L 240.547224 292.745879 
L 240.872203 292.837257 
L 241.522162 292.79071 
L 242.172121 292.879247 
L 243.797019 292.87415 
L 244.446978 293.01537 
L 245.421916 293.148847 
L 246.071876 293.014342 
L 246.396855 292.978548 
L 247.046814 293.15526 
L 247.696773 293.100335 
L 248.021753 292.905611 
L 248.996691 293.030903 
L 249.321671 292.820273 
L 251.596527 293.0374 
L 251.921507 292.82401 
L 253.221425 293.100167 
L 253.871384 293.177247 
L 254.846323 293.201106 
L 255.171302 293.263001 
L 256.47122 293.118141 
L 257.121179 293.300024 
L 258.096118 293.357082 
L 258.421097 293.422925 
L 258.746077 293.281595 
L 261.670893 293.045797 
L 261.995872 293.198061 
L 262.645831 293.280228 
L 262.970811 293.353286 
L 263.29579 293.30802 
L 263.62077 293.431882 
L 263.945749 293.336747 
L 265.245667 293.545118 
L 266.220606 293.495215 
L 266.545586 293.578027 
L 266.870565 293.246486 
L 267.845504 293.603802 
L 268.820442 293.672802 
L 269.145422 293.575606 
L 269.795381 293.671574 
L 270.44534 293.589035 
L 271.745258 293.606781 
L 272.395217 293.584822 
L 273.045176 293.890848 
L 276.294971 293.665282 
L 276.619951 293.75854 
L 278.569828 293.286437 
L 278.894808 293.389575 
L 279.219787 293.346051 
L 279.869746 293.476644 
L 280.519705 293.313852 
L 281.169664 293.398748 
L 282.144603 293.339808 
L 282.794562 293.43626 
L 283.444521 293.516621 
L 283.7695 293.619221 
L 284.09448 293.581952 
L 284.419459 293.702691 
L 285.069419 293.424593 
L 285.719378 293.528383 
L 286.044357 293.585662 
L 286.369337 293.462428 
L 286.694316 293.603817 
L 287.344275 293.61867 
L 287.994234 293.760325 
L 288.644193 293.908442 
L 288.969173 293.920316 
L 289.294152 294.070664 
L 289.619132 293.97194 
L 290.269091 293.976152 
L 290.91905 293.949294 
L 291.244029 293.876761 
L 291.569009 293.999222 
L 292.218968 293.741698 
L 293.193907 293.697913 
L 293.518886 293.781347 
L 294.493825 293.701461 
L 295.143784 293.800698 
L 295.793743 293.706571 
L 296.118722 293.783056 
L 296.768681 293.701412 
L 297.093661 293.741181 
L 297.41864 293.998187 
L 298.0686 293.693737 
L 299.043538 294.015176 
L 299.368518 293.866776 
L 300.018477 293.838976 
L 300.668436 293.81152 
L 301.318395 293.879121 
L 302.618313 293.825831 
L 303.268272 294.021149 
L 303.593251 294.025693 
L 304.56819 293.669691 
L 305.868108 293.868874 
L 306.193088 293.858904 
L 306.518067 293.996008 
L 306.843047 293.830386 
L 307.168026 293.839231 
L 307.817985 294.006737 
L 308.467944 294.064501 
L 308.792924 294.123768 
L 309.767862 293.746951 
L 310.092842 293.783454 
L 310.417821 293.704826 
L 311.71774 293.954736 
L 313.342637 294.062914 
L 313.667617 293.869413 
L 313.992596 293.895752 
L 314.317576 293.775768 
L 315.942473 293.988445 
L 317.567371 294.043464 
L 318.21733 294.233695 
L 319.192269 294.181741 
L 319.517248 294.296845 
L 319.842228 294.125186 
L 320.167207 294.246122 
L 320.492187 294.178272 
L 321.142146 294.260957 
L 321.792105 294.141873 
L 322.117084 294.140278 
L 322.442064 293.957826 
L 323.092023 293.864688 
L 323.417002 293.83818 
L 324.066962 294.020662 
L 324.391941 293.915322 
L 325.0419 294.113481 
L 325.36688 294.00725 
L 325.691859 294.074117 
L 326.016839 293.739982 
L 326.666798 293.920237 
L 327.316757 294.015888 
L 329.266634 294.235913 
L 331.541491 294.274094 
L 331.86647 294.064497 
L 332.516429 294.17805 
L 332.841409 294.023984 
L 334.141327 294.119257 
L 334.466306 294.013482 
L 335.116265 294.121826 
L 335.441245 294.187885 
L 335.766224 294.135342 
L 336.741163 294.338855 
L 337.716102 294.077057 
L 338.041081 294.089451 
L 338.366061 294.280479 
L 338.69104 294.246034 
L 339.01602 293.993873 
L 340.315938 294.506834 
L 341.615856 294.481904 
L 342.915774 294.604383 
L 343.890713 294.512236 
L 345.190631 294.387796 
L 345.51561 294.568152 
L 345.84059 294.493199 
L 346.490549 294.684965 
L 347.140508 294.759918 
L 347.465487 294.41677 
L 348.115446 294.406481 
L 348.765405 294.28979 
L 349.090385 294.241783 
L 349.415364 294.313254 
L 350.065324 294.181231 
L 354.615037 294.624574 
L 354.940016 294.469242 
L 355.264996 294.530386 
L 356.239934 294.37984 
L 356.889894 294.456323 
L 357.214873 294.596626 
L 357.864832 294.268353 
L 358.514791 294.444236 
L 358.839771 294.377088 
L 359.48973 294.573255 
L 359.814709 294.400976 
L 360.464668 294.609386 
L 360.789648 294.54099 
L 361.114627 294.823893 
L 361.439607 294.882121 
L 361.764586 294.684049 
L 362.089566 294.779097 
L 362.739525 294.358078 
L 363.389484 294.497136 
L 363.714464 294.598962 
L 364.039443 294.4891 
L 364.364423 294.613746 
L 365.339361 294.225841 
L 366.3143 294.545807 
L 366.964259 294.781952 
L 367.289238 294.846823 
L 367.614218 294.719195 
L 368.264177 294.64086 
L 368.589156 294.508584 
L 369.564095 294.605513 
L 370.214054 294.56646 
L 370.539034 294.696377 
L 370.864013 294.362904 
L 371.513972 294.316503 
L 371.838952 294.274542 
L 372.488911 294.482946 
L 372.81389 294.479645 
L 373.13887 294.629605 
L 373.788829 294.520955 
L 374.438788 294.793526 
L 374.763767 294.664711 
L 375.738706 294.921316 
L 376.388665 294.87319 
L 377.038624 294.442169 
L 378.663522 294.855472 
L 378.988501 294.654579 
L 379.96344 294.938315 
L 380.288419 295.086925 
L 381.263358 294.803963 
L 381.913317 294.900161 
L 382.563276 295.218426 
L 382.888256 294.883214 
L 383.213235 294.799665 
L 383.538215 294.932249 
L 383.863194 294.849713 
L 384.513153 294.986031 
L 385.163112 295.371268 
L 385.813071 295.349348 
L 386.78801 295.410719 
L 387.112989 295.33425 
L 387.762948 295.488 
L 388.087928 295.407406 
L 388.412907 295.198038 
L 388.737887 295.245615 
L 389.387846 295.0131 
L 389.712826 294.813724 
L 390.687764 294.973179 
L 391.012744 295.087432 
L 391.337723 294.984618 
L 391.987682 295.061136 
L 392.312662 295.099903 
L 392.637641 294.923251 
L 392.962621 295.025495 
L 393.2876 294.711711 
L 393.61258 294.588709 
L 393.937559 294.772001 
L 394.912498 294.730766 
L 395.887437 294.714079 
L 396.862375 295.205406 
L 397.512334 295.10407 
L 398.162293 295.25884 
L 398.487273 295.353121 
L 398.487273 295.353121 
" style="fill:none;stroke:#ff7f0e;stroke-linecap:square;stroke-width:1.5;"/>
   </g>
   <g id="patch_3">
    <path d="M 57.6 307.584 
L 57.6 41.472 
" style="fill:none;stroke:#000000;stroke-linecap:square;stroke-linejoin:miter;stroke-width:0.8;"/>
   </g>
   <g id="patch_4">
    <path d="M 414.72 307.584 
L 414.72 41.472 
" style="fill:none;stroke:#000000;stroke-linecap:square;stroke-linejoin:miter;stroke-width:0.8;"/>
   </g>
   <g id="patch_5">
    <path d="M 57.6 307.584 
L 414.72 307.584 
" style="fill:none;stroke:#000000;stroke-linecap:square;stroke-linejoin:miter;stroke-width:0.8;"/>
   </g>
   <g id="patch_6">
    <path d="M 57.6 41.472 
L 414.72 41.472 
" style="fill:none;stroke:#000000;stroke-linecap:square;stroke-linejoin:miter;stroke-width:0.8;"/>
   </g>
  </g>
 </g>
 <defs>
  <clipPath id="p713c03e3f8">
   <rect height="266.112" width="357.12" x="57.6" y="41.472"/>
  </clipPath>
 </defs>
</svg>
