<?xml version="1.0" encoding="utf-8" standalone="no"?>
<!DOCTYPE svg PUBLIC "-//W3C//DTD SVG 1.1//EN"
  "http://www.w3.org/Graphics/SVG/1.1/DTD/svg11.dtd">
<!-- Created with matplotlib (https://matplotlib.org/) -->
<svg height="345.6pt" version="1.1" viewBox="0 0 460.8 345.6" width="460.8pt" xmlns="http://www.w3.org/2000/svg" xmlns:xlink="http://www.w3.org/1999/xlink">
 <metadata>
  <rdf:RDF xmlns:cc="http://creativecommons.org/ns#" xmlns:dc="http://purl.org/dc/elements/1.1/" xmlns:rdf="http://www.w3.org/1999/02/22-rdf-syntax-ns#">
   <cc:Work>
    <dc:type rdf:resource="http://purl.org/dc/dcmitype/StillImage"/>
    <dc:date>2020-10-07T15:22:41.775789</dc:date>
    <dc:format>image/svg+xml</dc:format>
    <dc:creator>
     <cc:Agent>
      <dc:title>Matplotlib v3.3.2, https://matplotlib.org/</dc:title>
     </cc:Agent>
    </dc:creator>
   </cc:Work>
  </rdf:RDF>
 </metadata>
 <defs>
  <style type="text/css">*{stroke-linecap:butt;stroke-linejoin:round;}</style>
 </defs>
 <g id="figure_1">
  <g id="patch_1">
   <path d="M 0 345.6 
L 460.8 345.6 
L 460.8 0 
L 0 0 
z
" style="fill:#ffffff;"/>
  </g>
  <g id="axes_1">
   <g id="patch_2">
    <path d="M 57.6 307.584 
L 414.72 307.584 
L 414.72 41.472 
L 57.6 41.472 
z
" style="fill:#ffffff;"/>
   </g>
   <g id="matplotlib.axis_1">
    <g id="xtick_1">
     <g id="line2d_1">
      <defs>
       <path d="M 0 0 
L 0 3.5 
" id="mf1115824e7" style="stroke:#000000;stroke-width:0.8;"/>
      </defs>
      <g>
       <use style="stroke:#000000;stroke-width:0.8;" x="73.832727" xlink:href="#mf1115824e7" y="307.584"/>
      </g>
     </g>
     <g id="text_1">
      <!-- 0 -->
      <g transform="translate(70.651477 322.182437)scale(0.1 -0.1)">
       <defs>
        <path d="M 31.78125 66.40625 
Q 24.171875 66.40625 20.328125 58.90625 
Q 16.5 51.421875 16.5 36.375 
Q 16.5 21.390625 20.328125 13.890625 
Q 24.171875 6.390625 31.78125 6.390625 
Q 39.453125 6.390625 43.28125 13.890625 
Q 47.125 21.390625 47.125 36.375 
Q 47.125 51.421875 43.28125 58.90625 
Q 39.453125 66.40625 31.78125 66.40625 
z
M 31.78125 74.21875 
Q 44.046875 74.21875 50.515625 64.515625 
Q 56.984375 54.828125 56.984375 36.375 
Q 56.984375 17.96875 50.515625 8.265625 
Q 44.046875 -1.421875 31.78125 -1.421875 
Q 19.53125 -1.421875 13.0625 8.265625 
Q 6.59375 17.96875 6.59375 36.375 
Q 6.59375 54.828125 13.0625 64.515625 
Q 19.53125 74.21875 31.78125 74.21875 
z
" id="DejaVuSans-48"/>
       </defs>
       <use xlink:href="#DejaVuSans-48"/>
      </g>
     </g>
    </g>
    <g id="xtick_2">
     <g id="line2d_2">
      <g>
       <use style="stroke:#000000;stroke-width:0.8;" x="138.828632" xlink:href="#mf1115824e7" y="307.584"/>
      </g>
     </g>
     <g id="text_2">
      <!-- 20 -->
      <g transform="translate(132.466132 322.182437)scale(0.1 -0.1)">
       <defs>
        <path d="M 19.1875 8.296875 
L 53.609375 8.296875 
L 53.609375 0 
L 7.328125 0 
L 7.328125 8.296875 
Q 12.9375 14.109375 22.625 23.890625 
Q 32.328125 33.6875 34.8125 36.53125 
Q 39.546875 41.84375 41.421875 45.53125 
Q 43.3125 49.21875 43.3125 52.78125 
Q 43.3125 58.59375 39.234375 62.25 
Q 35.15625 65.921875 28.609375 65.921875 
Q 23.96875 65.921875 18.8125 64.3125 
Q 13.671875 62.703125 7.8125 59.421875 
L 7.8125 69.390625 
Q 13.765625 71.78125 18.9375 73 
Q 24.125 74.21875 28.421875 74.21875 
Q 39.75 74.21875 46.484375 68.546875 
Q 53.21875 62.890625 53.21875 53.421875 
Q 53.21875 48.921875 51.53125 44.890625 
Q 49.859375 40.875 45.40625 35.40625 
Q 44.1875 33.984375 37.640625 27.21875 
Q 31.109375 20.453125 19.1875 8.296875 
z
" id="DejaVuSans-50"/>
       </defs>
       <use xlink:href="#DejaVuSans-50"/>
       <use x="63.623047" xlink:href="#DejaVuSans-48"/>
      </g>
     </g>
    </g>
    <g id="xtick_3">
     <g id="line2d_3">
      <g>
       <use style="stroke:#000000;stroke-width:0.8;" x="203.824537" xlink:href="#mf1115824e7" y="307.584"/>
      </g>
     </g>
     <g id="text_3">
      <!-- 40 -->
      <g transform="translate(197.462037 322.182437)scale(0.1 -0.1)">
       <defs>
        <path d="M 37.796875 64.3125 
L 12.890625 25.390625 
L 37.796875 25.390625 
z
M 35.203125 72.90625 
L 47.609375 72.90625 
L 47.609375 25.390625 
L 58.015625 25.390625 
L 58.015625 17.1875 
L 47.609375 17.1875 
L 47.609375 0 
L 37.796875 0 
L 37.796875 17.1875 
L 4.890625 17.1875 
L 4.890625 26.703125 
z
" id="DejaVuSans-52"/>
       </defs>
       <use xlink:href="#DejaVuSans-52"/>
       <use x="63.623047" xlink:href="#DejaVuSans-48"/>
      </g>
     </g>
    </g>
    <g id="xtick_4">
     <g id="line2d_4">
      <g>
       <use style="stroke:#000000;stroke-width:0.8;" x="268.820442" xlink:href="#mf1115824e7" y="307.584"/>
      </g>
     </g>
     <g id="text_4">
      <!-- 60 -->
      <g transform="translate(262.457942 322.182437)scale(0.1 -0.1)">
       <defs>
        <path d="M 33.015625 40.375 
Q 26.375 40.375 22.484375 35.828125 
Q 18.609375 31.296875 18.609375 23.390625 
Q 18.609375 15.53125 22.484375 10.953125 
Q 26.375 6.390625 33.015625 6.390625 
Q 39.65625 6.390625 43.53125 10.953125 
Q 47.40625 15.53125 47.40625 23.390625 
Q 47.40625 31.296875 43.53125 35.828125 
Q 39.65625 40.375 33.015625 40.375 
z
M 52.59375 71.296875 
L 52.59375 62.3125 
Q 48.875 64.0625 45.09375 64.984375 
Q 41.3125 65.921875 37.59375 65.921875 
Q 27.828125 65.921875 22.671875 59.328125 
Q 17.53125 52.734375 16.796875 39.40625 
Q 19.671875 43.65625 24.015625 45.921875 
Q 28.375 48.1875 33.59375 48.1875 
Q 44.578125 48.1875 50.953125 41.515625 
Q 57.328125 34.859375 57.328125 23.390625 
Q 57.328125 12.15625 50.6875 5.359375 
Q 44.046875 -1.421875 33.015625 -1.421875 
Q 20.359375 -1.421875 13.671875 8.265625 
Q 6.984375 17.96875 6.984375 36.375 
Q 6.984375 53.65625 15.1875 63.9375 
Q 23.390625 74.21875 37.203125 74.21875 
Q 40.921875 74.21875 44.703125 73.484375 
Q 48.484375 72.75 52.59375 71.296875 
z
" id="DejaVuSans-54"/>
       </defs>
       <use xlink:href="#DejaVuSans-54"/>
       <use x="63.623047" xlink:href="#DejaVuSans-48"/>
      </g>
     </g>
    </g>
    <g id="xtick_5">
     <g id="line2d_5">
      <g>
       <use style="stroke:#000000;stroke-width:0.8;" x="333.816347" xlink:href="#mf1115824e7" y="307.584"/>
      </g>
     </g>
     <g id="text_5">
      <!-- 80 -->
      <g transform="translate(327.453847 322.182437)scale(0.1 -0.1)">
       <defs>
        <path d="M 31.78125 34.625 
Q 24.75 34.625 20.71875 30.859375 
Q 16.703125 27.09375 16.703125 20.515625 
Q 16.703125 13.921875 20.71875 10.15625 
Q 24.75 6.390625 31.78125 6.390625 
Q 38.8125 6.390625 42.859375 10.171875 
Q 46.921875 13.96875 46.921875 20.515625 
Q 46.921875 27.09375 42.890625 30.859375 
Q 38.875 34.625 31.78125 34.625 
z
M 21.921875 38.8125 
Q 15.578125 40.375 12.03125 44.71875 
Q 8.5 49.078125 8.5 55.328125 
Q 8.5 64.0625 14.71875 69.140625 
Q 20.953125 74.21875 31.78125 74.21875 
Q 42.671875 74.21875 48.875 69.140625 
Q 55.078125 64.0625 55.078125 55.328125 
Q 55.078125 49.078125 51.53125 44.71875 
Q 48 40.375 41.703125 38.8125 
Q 48.828125 37.15625 52.796875 32.3125 
Q 56.78125 27.484375 56.78125 20.515625 
Q 56.78125 9.90625 50.3125 4.234375 
Q 43.84375 -1.421875 31.78125 -1.421875 
Q 19.734375 -1.421875 13.25 4.234375 
Q 6.78125 9.90625 6.78125 20.515625 
Q 6.78125 27.484375 10.78125 32.3125 
Q 14.796875 37.15625 21.921875 38.8125 
z
M 18.3125 54.390625 
Q 18.3125 48.734375 21.84375 45.5625 
Q 25.390625 42.390625 31.78125 42.390625 
Q 38.140625 42.390625 41.71875 45.5625 
Q 45.3125 48.734375 45.3125 54.390625 
Q 45.3125 60.0625 41.71875 63.234375 
Q 38.140625 66.40625 31.78125 66.40625 
Q 25.390625 66.40625 21.84375 63.234375 
Q 18.3125 60.0625 18.3125 54.390625 
z
" id="DejaVuSans-56"/>
       </defs>
       <use xlink:href="#DejaVuSans-56"/>
       <use x="63.623047" xlink:href="#DejaVuSans-48"/>
      </g>
     </g>
    </g>
    <g id="xtick_6">
     <g id="line2d_6">
      <g>
       <use style="stroke:#000000;stroke-width:0.8;" x="398.812252" xlink:href="#mf1115824e7" y="307.584"/>
      </g>
     </g>
     <g id="text_6">
      <!-- 100 -->
      <g transform="translate(389.268502 322.182437)scale(0.1 -0.1)">
       <defs>
        <path d="M 12.40625 8.296875 
L 28.515625 8.296875 
L 28.515625 63.921875 
L 10.984375 60.40625 
L 10.984375 69.390625 
L 28.421875 72.90625 
L 38.28125 72.90625 
L 38.28125 8.296875 
L 54.390625 8.296875 
L 54.390625 0 
L 12.40625 0 
z
" id="DejaVuSans-49"/>
       </defs>
       <use xlink:href="#DejaVuSans-49"/>
       <use x="63.623047" xlink:href="#DejaVuSans-48"/>
       <use x="127.246094" xlink:href="#DejaVuSans-48"/>
      </g>
     </g>
    </g>
    <g id="text_7">
     <!-- Time (days) -->
     <g transform="translate(206.633437 335.860562)scale(0.1 -0.1)">
      <defs>
       <path d="M -0.296875 72.90625 
L 61.375 72.90625 
L 61.375 64.59375 
L 35.5 64.59375 
L 35.5 0 
L 25.59375 0 
L 25.59375 64.59375 
L -0.296875 64.59375 
z
" id="DejaVuSans-84"/>
       <path d="M 9.421875 54.6875 
L 18.40625 54.6875 
L 18.40625 0 
L 9.421875 0 
z
M 9.421875 75.984375 
L 18.40625 75.984375 
L 18.40625 64.59375 
L 9.421875 64.59375 
z
" id="DejaVuSans-105"/>
       <path d="M 52 44.1875 
Q 55.375 50.25 60.0625 53.125 
Q 64.75 56 71.09375 56 
Q 79.640625 56 84.28125 50.015625 
Q 88.921875 44.046875 88.921875 33.015625 
L 88.921875 0 
L 79.890625 0 
L 79.890625 32.71875 
Q 79.890625 40.578125 77.09375 44.375 
Q 74.3125 48.1875 68.609375 48.1875 
Q 61.625 48.1875 57.5625 43.546875 
Q 53.515625 38.921875 53.515625 30.90625 
L 53.515625 0 
L 44.484375 0 
L 44.484375 32.71875 
Q 44.484375 40.625 41.703125 44.40625 
Q 38.921875 48.1875 33.109375 48.1875 
Q 26.21875 48.1875 22.15625 43.53125 
Q 18.109375 38.875 18.109375 30.90625 
L 18.109375 0 
L 9.078125 0 
L 9.078125 54.6875 
L 18.109375 54.6875 
L 18.109375 46.1875 
Q 21.1875 51.21875 25.484375 53.609375 
Q 29.78125 56 35.6875 56 
Q 41.65625 56 45.828125 52.96875 
Q 50 49.953125 52 44.1875 
z
" id="DejaVuSans-109"/>
       <path d="M 56.203125 29.59375 
L 56.203125 25.203125 
L 14.890625 25.203125 
Q 15.484375 15.921875 20.484375 11.0625 
Q 25.484375 6.203125 34.421875 6.203125 
Q 39.59375 6.203125 44.453125 7.46875 
Q 49.3125 8.734375 54.109375 11.28125 
L 54.109375 2.78125 
Q 49.265625 0.734375 44.1875 -0.34375 
Q 39.109375 -1.421875 33.890625 -1.421875 
Q 20.796875 -1.421875 13.15625 6.1875 
Q 5.515625 13.8125 5.515625 26.8125 
Q 5.515625 40.234375 12.765625 48.109375 
Q 20.015625 56 32.328125 56 
Q 43.359375 56 49.78125 48.890625 
Q 56.203125 41.796875 56.203125 29.59375 
z
M 47.21875 32.234375 
Q 47.125 39.59375 43.09375 43.984375 
Q 39.0625 48.390625 32.421875 48.390625 
Q 24.90625 48.390625 20.390625 44.140625 
Q 15.875 39.890625 15.1875 32.171875 
z
" id="DejaVuSans-101"/>
       <path id="DejaVuSans-32"/>
       <path d="M 31 75.875 
Q 24.46875 64.65625 21.28125 53.65625 
Q 18.109375 42.671875 18.109375 31.390625 
Q 18.109375 20.125 21.3125 9.0625 
Q 24.515625 -2 31 -13.1875 
L 23.1875 -13.1875 
Q 15.875 -1.703125 12.234375 9.375 
Q 8.59375 20.453125 8.59375 31.390625 
Q 8.59375 42.28125 12.203125 53.3125 
Q 15.828125 64.359375 23.1875 75.875 
z
" id="DejaVuSans-40"/>
       <path d="M 45.40625 46.390625 
L 45.40625 75.984375 
L 54.390625 75.984375 
L 54.390625 0 
L 45.40625 0 
L 45.40625 8.203125 
Q 42.578125 3.328125 38.25 0.953125 
Q 33.9375 -1.421875 27.875 -1.421875 
Q 17.96875 -1.421875 11.734375 6.484375 
Q 5.515625 14.40625 5.515625 27.296875 
Q 5.515625 40.1875 11.734375 48.09375 
Q 17.96875 56 27.875 56 
Q 33.9375 56 38.25 53.625 
Q 42.578125 51.265625 45.40625 46.390625 
z
M 14.796875 27.296875 
Q 14.796875 17.390625 18.875 11.75 
Q 22.953125 6.109375 30.078125 6.109375 
Q 37.203125 6.109375 41.296875 11.75 
Q 45.40625 17.390625 45.40625 27.296875 
Q 45.40625 37.203125 41.296875 42.84375 
Q 37.203125 48.484375 30.078125 48.484375 
Q 22.953125 48.484375 18.875 42.84375 
Q 14.796875 37.203125 14.796875 27.296875 
z
" id="DejaVuSans-100"/>
       <path d="M 34.28125 27.484375 
Q 23.390625 27.484375 19.1875 25 
Q 14.984375 22.515625 14.984375 16.5 
Q 14.984375 11.71875 18.140625 8.90625 
Q 21.296875 6.109375 26.703125 6.109375 
Q 34.1875 6.109375 38.703125 11.40625 
Q 43.21875 16.703125 43.21875 25.484375 
L 43.21875 27.484375 
z
M 52.203125 31.203125 
L 52.203125 0 
L 43.21875 0 
L 43.21875 8.296875 
Q 40.140625 3.328125 35.546875 0.953125 
Q 30.953125 -1.421875 24.3125 -1.421875 
Q 15.921875 -1.421875 10.953125 3.296875 
Q 6 8.015625 6 15.921875 
Q 6 25.140625 12.171875 29.828125 
Q 18.359375 34.515625 30.609375 34.515625 
L 43.21875 34.515625 
L 43.21875 35.40625 
Q 43.21875 41.609375 39.140625 45 
Q 35.0625 48.390625 27.6875 48.390625 
Q 23 48.390625 18.546875 47.265625 
Q 14.109375 46.140625 10.015625 43.890625 
L 10.015625 52.203125 
Q 14.9375 54.109375 19.578125 55.046875 
Q 24.21875 56 28.609375 56 
Q 40.484375 56 46.34375 49.84375 
Q 52.203125 43.703125 52.203125 31.203125 
z
" id="DejaVuSans-97"/>
       <path d="M 32.171875 -5.078125 
Q 28.375 -14.84375 24.75 -17.8125 
Q 21.140625 -20.796875 15.09375 -20.796875 
L 7.90625 -20.796875 
L 7.90625 -13.28125 
L 13.1875 -13.28125 
Q 16.890625 -13.28125 18.9375 -11.515625 
Q 21 -9.765625 23.484375 -3.21875 
L 25.09375 0.875 
L 2.984375 54.6875 
L 12.5 54.6875 
L 29.59375 11.921875 
L 46.6875 54.6875 
L 56.203125 54.6875 
z
" id="DejaVuSans-121"/>
       <path d="M 44.28125 53.078125 
L 44.28125 44.578125 
Q 40.484375 46.53125 36.375 47.5 
Q 32.28125 48.484375 27.875 48.484375 
Q 21.1875 48.484375 17.84375 46.4375 
Q 14.5 44.390625 14.5 40.28125 
Q 14.5 37.15625 16.890625 35.375 
Q 19.28125 33.59375 26.515625 31.984375 
L 29.59375 31.296875 
Q 39.15625 29.25 43.1875 25.515625 
Q 47.21875 21.78125 47.21875 15.09375 
Q 47.21875 7.46875 41.1875 3.015625 
Q 35.15625 -1.421875 24.609375 -1.421875 
Q 20.21875 -1.421875 15.453125 -0.5625 
Q 10.6875 0.296875 5.421875 2 
L 5.421875 11.28125 
Q 10.40625 8.6875 15.234375 7.390625 
Q 20.0625 6.109375 24.8125 6.109375 
Q 31.15625 6.109375 34.5625 8.28125 
Q 37.984375 10.453125 37.984375 14.40625 
Q 37.984375 18.0625 35.515625 20.015625 
Q 33.0625 21.96875 24.703125 23.78125 
L 21.578125 24.515625 
Q 13.234375 26.265625 9.515625 29.90625 
Q 5.8125 33.546875 5.8125 39.890625 
Q 5.8125 47.609375 11.28125 51.796875 
Q 16.75 56 26.8125 56 
Q 31.78125 56 36.171875 55.265625 
Q 40.578125 54.546875 44.28125 53.078125 
z
" id="DejaVuSans-115"/>
       <path d="M 8.015625 75.875 
L 15.828125 75.875 
Q 23.140625 64.359375 26.78125 53.3125 
Q 30.421875 42.28125 30.421875 31.390625 
Q 30.421875 20.453125 26.78125 9.375 
Q 23.140625 -1.703125 15.828125 -13.1875 
L 8.015625 -13.1875 
Q 14.5 -2 17.703125 9.0625 
Q 20.90625 20.125 20.90625 31.390625 
Q 20.90625 42.671875 17.703125 53.65625 
Q 14.5 64.65625 8.015625 75.875 
z
" id="DejaVuSans-41"/>
      </defs>
      <use xlink:href="#DejaVuSans-84"/>
      <use x="57.958984" xlink:href="#DejaVuSans-105"/>
      <use x="85.742188" xlink:href="#DejaVuSans-109"/>
      <use x="183.154297" xlink:href="#DejaVuSans-101"/>
      <use x="244.677734" xlink:href="#DejaVuSans-32"/>
      <use x="276.464844" xlink:href="#DejaVuSans-40"/>
      <use x="315.478516" xlink:href="#DejaVuSans-100"/>
      <use x="378.955078" xlink:href="#DejaVuSans-97"/>
      <use x="440.234375" xlink:href="#DejaVuSans-121"/>
      <use x="499.414062" xlink:href="#DejaVuSans-115"/>
      <use x="551.513672" xlink:href="#DejaVuSans-41"/>
     </g>
    </g>
   </g>
   <g id="matplotlib.axis_2">
    <g id="ytick_1">
     <g id="line2d_7">
      <defs>
       <path d="M 0 0 
L -3.5 0 
" id="m8545fa2a3c" style="stroke:#000000;stroke-width:0.8;"/>
      </defs>
      <g>
       <use style="stroke:#000000;stroke-width:0.8;" x="57.6" xlink:href="#m8545fa2a3c" y="292.670873"/>
      </g>
     </g>
     <g id="text_8">
      <!-- 0 -->
      <g transform="translate(44.2375 296.470092)scale(0.1 -0.1)">
       <use xlink:href="#DejaVuSans-48"/>
      </g>
     </g>
    </g>
    <g id="ytick_2">
     <g id="line2d_8">
      <g>
       <use style="stroke:#000000;stroke-width:0.8;" x="57.6" xlink:href="#m8545fa2a3c" y="259.32335"/>
      </g>
     </g>
     <g id="text_9">
      <!-- 1000 -->
      <g transform="translate(25.15 263.122568)scale(0.1 -0.1)">
       <use xlink:href="#DejaVuSans-49"/>
       <use x="63.623047" xlink:href="#DejaVuSans-48"/>
       <use x="127.246094" xlink:href="#DejaVuSans-48"/>
       <use x="190.869141" xlink:href="#DejaVuSans-48"/>
      </g>
     </g>
    </g>
    <g id="ytick_3">
     <g id="line2d_9">
      <g>
       <use style="stroke:#000000;stroke-width:0.8;" x="57.6" xlink:href="#m8545fa2a3c" y="225.975826"/>
      </g>
     </g>
     <g id="text_10">
      <!-- 2000 -->
      <g transform="translate(25.15 229.775045)scale(0.1 -0.1)">
       <use xlink:href="#DejaVuSans-50"/>
       <use x="63.623047" xlink:href="#DejaVuSans-48"/>
       <use x="127.246094" xlink:href="#DejaVuSans-48"/>
       <use x="190.869141" xlink:href="#DejaVuSans-48"/>
      </g>
     </g>
    </g>
    <g id="ytick_4">
     <g id="line2d_10">
      <g>
       <use style="stroke:#000000;stroke-width:0.8;" x="57.6" xlink:href="#m8545fa2a3c" y="192.628303"/>
      </g>
     </g>
     <g id="text_11">
      <!-- 3000 -->
      <g transform="translate(25.15 196.427522)scale(0.1 -0.1)">
       <defs>
        <path d="M 40.578125 39.3125 
Q 47.65625 37.796875 51.625 33 
Q 55.609375 28.21875 55.609375 21.1875 
Q 55.609375 10.40625 48.1875 4.484375 
Q 40.765625 -1.421875 27.09375 -1.421875 
Q 22.515625 -1.421875 17.65625 -0.515625 
Q 12.796875 0.390625 7.625 2.203125 
L 7.625 11.71875 
Q 11.71875 9.328125 16.59375 8.109375 
Q 21.484375 6.890625 26.8125 6.890625 
Q 36.078125 6.890625 40.9375 10.546875 
Q 45.796875 14.203125 45.796875 21.1875 
Q 45.796875 27.640625 41.28125 31.265625 
Q 36.765625 34.90625 28.71875 34.90625 
L 20.21875 34.90625 
L 20.21875 43.015625 
L 29.109375 43.015625 
Q 36.375 43.015625 40.234375 45.921875 
Q 44.09375 48.828125 44.09375 54.296875 
Q 44.09375 59.90625 40.109375 62.90625 
Q 36.140625 65.921875 28.71875 65.921875 
Q 24.65625 65.921875 20.015625 65.03125 
Q 15.375 64.15625 9.8125 62.3125 
L 9.8125 71.09375 
Q 15.4375 72.65625 20.34375 73.4375 
Q 25.25 74.21875 29.59375 74.21875 
Q 40.828125 74.21875 47.359375 69.109375 
Q 53.90625 64.015625 53.90625 55.328125 
Q 53.90625 49.265625 50.4375 45.09375 
Q 46.96875 40.921875 40.578125 39.3125 
z
" id="DejaVuSans-51"/>
       </defs>
       <use xlink:href="#DejaVuSans-51"/>
       <use x="63.623047" xlink:href="#DejaVuSans-48"/>
       <use x="127.246094" xlink:href="#DejaVuSans-48"/>
       <use x="190.869141" xlink:href="#DejaVuSans-48"/>
      </g>
     </g>
    </g>
    <g id="ytick_5">
     <g id="line2d_11">
      <g>
       <use style="stroke:#000000;stroke-width:0.8;" x="57.6" xlink:href="#m8545fa2a3c" y="159.28078"/>
      </g>
     </g>
     <g id="text_12">
      <!-- 4000 -->
      <g transform="translate(25.15 163.079999)scale(0.1 -0.1)">
       <use xlink:href="#DejaVuSans-52"/>
       <use x="63.623047" xlink:href="#DejaVuSans-48"/>
       <use x="127.246094" xlink:href="#DejaVuSans-48"/>
       <use x="190.869141" xlink:href="#DejaVuSans-48"/>
      </g>
     </g>
    </g>
    <g id="ytick_6">
     <g id="line2d_12">
      <g>
       <use style="stroke:#000000;stroke-width:0.8;" x="57.6" xlink:href="#m8545fa2a3c" y="125.933257"/>
      </g>
     </g>
     <g id="text_13">
      <!-- 5000 -->
      <g transform="translate(25.15 129.732475)scale(0.1 -0.1)">
       <defs>
        <path d="M 10.796875 72.90625 
L 49.515625 72.90625 
L 49.515625 64.59375 
L 19.828125 64.59375 
L 19.828125 46.734375 
Q 21.96875 47.46875 24.109375 47.828125 
Q 26.265625 48.1875 28.421875 48.1875 
Q 40.625 48.1875 47.75 41.5 
Q 54.890625 34.8125 54.890625 23.390625 
Q 54.890625 11.625 47.5625 5.09375 
Q 40.234375 -1.421875 26.90625 -1.421875 
Q 22.3125 -1.421875 17.546875 -0.640625 
Q 12.796875 0.140625 7.71875 1.703125 
L 7.71875 11.625 
Q 12.109375 9.234375 16.796875 8.0625 
Q 21.484375 6.890625 26.703125 6.890625 
Q 35.15625 6.890625 40.078125 11.328125 
Q 45.015625 15.765625 45.015625 23.390625 
Q 45.015625 31 40.078125 35.4375 
Q 35.15625 39.890625 26.703125 39.890625 
Q 22.75 39.890625 18.8125 39.015625 
Q 14.890625 38.140625 10.796875 36.28125 
z
" id="DejaVuSans-53"/>
       </defs>
       <use xlink:href="#DejaVuSans-53"/>
       <use x="63.623047" xlink:href="#DejaVuSans-48"/>
       <use x="127.246094" xlink:href="#DejaVuSans-48"/>
       <use x="190.869141" xlink:href="#DejaVuSans-48"/>
      </g>
     </g>
    </g>
    <g id="ytick_7">
     <g id="line2d_13">
      <g>
       <use style="stroke:#000000;stroke-width:0.8;" x="57.6" xlink:href="#m8545fa2a3c" y="92.585733"/>
      </g>
     </g>
     <g id="text_14">
      <!-- 6000 -->
      <g transform="translate(25.15 96.384952)scale(0.1 -0.1)">
       <use xlink:href="#DejaVuSans-54"/>
       <use x="63.623047" xlink:href="#DejaVuSans-48"/>
       <use x="127.246094" xlink:href="#DejaVuSans-48"/>
       <use x="190.869141" xlink:href="#DejaVuSans-48"/>
      </g>
     </g>
    </g>
    <g id="ytick_8">
     <g id="line2d_14">
      <g>
       <use style="stroke:#000000;stroke-width:0.8;" x="57.6" xlink:href="#m8545fa2a3c" y="59.23821"/>
      </g>
     </g>
     <g id="text_15">
      <!-- 7000 -->
      <g transform="translate(25.15 63.037429)scale(0.1 -0.1)">
       <defs>
        <path d="M 8.203125 72.90625 
L 55.078125 72.90625 
L 55.078125 68.703125 
L 28.609375 0 
L 18.3125 0 
L 43.21875 64.59375 
L 8.203125 64.59375 
z
" id="DejaVuSans-55"/>
       </defs>
       <use xlink:href="#DejaVuSans-55"/>
       <use x="63.623047" xlink:href="#DejaVuSans-48"/>
       <use x="127.246094" xlink:href="#DejaVuSans-48"/>
       <use x="190.869141" xlink:href="#DejaVuSans-48"/>
      </g>
     </g>
    </g>
    <g id="text_16">
     <!-- Density -->
     <g transform="translate(19.070312 193.536594)rotate(-90)scale(0.1 -0.1)">
      <defs>
       <path d="M 19.671875 64.796875 
L 19.671875 8.109375 
L 31.59375 8.109375 
Q 46.6875 8.109375 53.6875 14.9375 
Q 60.6875 21.78125 60.6875 36.53125 
Q 60.6875 51.171875 53.6875 57.984375 
Q 46.6875 64.796875 31.59375 64.796875 
z
M 9.8125 72.90625 
L 30.078125 72.90625 
Q 51.265625 72.90625 61.171875 64.09375 
Q 71.09375 55.28125 71.09375 36.53125 
Q 71.09375 17.671875 61.125 8.828125 
Q 51.171875 0 30.078125 0 
L 9.8125 0 
z
" id="DejaVuSans-68"/>
       <path d="M 54.890625 33.015625 
L 54.890625 0 
L 45.90625 0 
L 45.90625 32.71875 
Q 45.90625 40.484375 42.875 44.328125 
Q 39.84375 48.1875 33.796875 48.1875 
Q 26.515625 48.1875 22.3125 43.546875 
Q 18.109375 38.921875 18.109375 30.90625 
L 18.109375 0 
L 9.078125 0 
L 9.078125 54.6875 
L 18.109375 54.6875 
L 18.109375 46.1875 
Q 21.34375 51.125 25.703125 53.5625 
Q 30.078125 56 35.796875 56 
Q 45.21875 56 50.046875 50.171875 
Q 54.890625 44.34375 54.890625 33.015625 
z
" id="DejaVuSans-110"/>
       <path d="M 18.3125 70.21875 
L 18.3125 54.6875 
L 36.8125 54.6875 
L 36.8125 47.703125 
L 18.3125 47.703125 
L 18.3125 18.015625 
Q 18.3125 11.328125 20.140625 9.421875 
Q 21.96875 7.515625 27.59375 7.515625 
L 36.8125 7.515625 
L 36.8125 0 
L 27.59375 0 
Q 17.1875 0 13.234375 3.875 
Q 9.28125 7.765625 9.28125 18.015625 
L 9.28125 47.703125 
L 2.6875 47.703125 
L 2.6875 54.6875 
L 9.28125 54.6875 
L 9.28125 70.21875 
z
" id="DejaVuSans-116"/>
      </defs>
      <use xlink:href="#DejaVuSans-68"/>
      <use x="77.001953" xlink:href="#DejaVuSans-101"/>
      <use x="138.525391" xlink:href="#DejaVuSans-110"/>
      <use x="201.904297" xlink:href="#DejaVuSans-115"/>
      <use x="254.003906" xlink:href="#DejaVuSans-105"/>
      <use x="281.787109" xlink:href="#DejaVuSans-116"/>
      <use x="320.996094" xlink:href="#DejaVuSans-121"/>
     </g>
    </g>
   </g>
   <g id="line2d_15">
    <path clip-path="url(#p432db64978)" d="M 73.832727 292.337398 
L 74.807666 292.008159 
L 75.457625 291.611847 
L 76.107584 290.972691 
L 76.757543 289.940971 
L 77.407502 288.290243 
L 78.057461 285.648406 
L 78.70742 281.500186 
L 79.357379 274.902955 
L 80.007338 265.324622 
L 80.657297 251.320109 
L 81.632236 222.423099 
L 83.257133 160.646794 
L 83.582113 153.416869 
L 84.232072 133.370923 
L 84.557052 130.535683 
L 84.882031 122.707444 
L 85.53199 102.177007 
L 85.85697 99.4599 
L 86.181949 94.402484 
L 86.506929 98.227361 
L 86.831908 95.623645 
L 87.156888 89.108289 
L 87.481867 96.026191 
L 87.806847 90.69996 
L 88.131826 90.06686 
L 88.456806 85.754865 
L 88.781785 83.61024 
L 89.106765 83.628567 
L 89.431744 90.974374 
L 89.756724 87.913325 
L 90.081704 86.01713 
L 90.406683 87.774066 
L 90.731663 83.626906 
L 91.056642 86.329139 
L 91.381622 79.71787 
L 91.706601 76.84662 
L 92.031581 76.060832 
L 92.35656 80.161598 
L 92.68154 87.658241 
L 93.006519 78.7399 
L 93.331499 80.022197 
L 93.656478 87.23531 
L 93.981458 88.876529 
L 94.306437 89.80742 
L 94.631417 88.038294 
L 94.956396 93.168948 
L 95.281376 79.371122 
L 95.606355 76.50991 
L 95.931335 72.365477 
L 96.256314 72.843712 
L 96.581294 74.914433 
L 96.906274 72.370609 
L 97.231253 74.554194 
L 97.556233 71.234203 
L 97.881212 62.57459 
L 98.206192 66.080191 
L 98.531171 71.718793 
L 99.18113 79.873002 
L 99.50611 69.341361 
L 99.831089 70.940448 
L 100.156069 87.746335 
L 100.481048 88.521974 
L 100.806028 86.602032 
L 101.131007 101.971153 
L 101.455987 103.391103 
L 101.780966 92.978325 
L 102.105946 95.260389 
L 102.430925 88.893663 
L 102.755905 87.57246 
L 103.080885 75.019992 
L 103.405864 79.163087 
L 103.730844 90.390454 
L 104.055823 88.703231 
L 104.380803 82.161015 
L 104.705782 79.437496 
L 105.030762 79.35887 
L 105.355741 76.890178 
L 105.680721 75.876016 
L 106.0057 82.022353 
L 106.33068 78.786737 
L 106.655659 86.928784 
L 106.980639 77.858671 
L 107.305618 90.723236 
L 107.630598 94.981018 
L 107.955577 90.695127 
L 108.280557 93.187313 
L 108.930516 86.147965 
L 109.255495 88.788458 
L 109.580475 94.264818 
L 109.905455 91.684405 
L 110.230434 87.943173 
L 110.555414 87.988801 
L 111.205373 77.932988 
L 111.530352 80.533182 
L 111.855332 72.891944 
L 112.180311 82.60082 
L 112.505291 81.872366 
L 112.83027 77.202229 
L 113.15525 74.821561 
L 113.480229 77.805891 
L 113.805209 78.184031 
L 114.130188 73.234488 
L 114.455168 73.018004 
L 115.105127 83.455384 
L 115.430106 77.622274 
L 115.755086 83.648122 
L 116.080066 86.763098 
L 116.405045 78.964303 
L 116.730025 87.341111 
L 117.055004 87.194679 
L 117.379984 82.734377 
L 117.704963 70.479676 
L 118.354922 89.34025 
L 118.679902 81.068719 
L 119.004881 85.614008 
L 119.329861 85.823896 
L 119.65484 93.811196 
L 119.97982 93.306266 
L 120.304799 97.966935 
L 120.629779 92.895679 
L 120.954758 84.739854 
L 121.279738 86.751731 
L 121.604717 83.896462 
L 121.929697 82.189264 
L 122.254676 84.449755 
L 122.579656 84.748384 
L 122.904636 85.952138 
L 123.229615 89.945533 
L 123.554595 82.487871 
L 123.879574 81.356185 
L 124.204554 80.776137 
L 124.529533 81.208244 
L 124.854513 78.58649 
L 125.179492 77.498608 
L 125.504472 86.685738 
L 125.829451 89.135127 
L 126.47941 71.790938 
L 126.80439 69.271255 
L 127.454349 86.326357 
L 127.779328 78.5909 
L 128.104308 74.997724 
L 128.429287 87.419737 
L 128.754267 81.595512 
L 129.079247 85.179162 
L 129.404226 97.415051 
L 129.729206 94.470969 
L 130.704144 76.353958 
L 131.029124 71.476892 
L 131.354103 73.736222 
L 131.679083 77.636251 
L 132.004062 74.717873 
L 132.329042 70.481025 
L 132.979001 75.775462 
L 133.30398 75.151893 
L 133.62896 72.885244 
L 133.953939 78.862744 
L 134.278919 79.19322 
L 134.603898 82.414337 
L 134.928878 81.878918 
L 135.253857 84.684055 
L 135.578837 92.05212 
L 135.903817 92.861657 
L 136.228796 92.393013 
L 136.553776 91.624172 
L 136.878755 86.303463 
L 137.203735 88.353186 
L 137.528714 79.601844 
L 137.853694 75.29648 
L 138.178673 87.88109 
L 138.503653 74.797966 
L 138.828632 86.661915 
L 139.153612 88.957891 
L 139.478591 82.637473 
L 139.803571 80.209826 
L 140.12855 91.245003 
L 140.45353 93.479781 
L 140.778509 90.507839 
L 141.103489 82.895749 
L 141.428468 88.053521 
L 141.753448 89.157809 
L 142.403407 80.449395 
L 142.728387 81.18534 
L 143.053366 83.379599 
L 143.378346 80.620531 
L 143.703325 88.520233 
L 144.353284 82.39187 
L 144.678264 84.991901 
L 145.003243 84.480781 
L 145.328223 80.985484 
L 145.653202 83.634156 
L 145.978182 89.529917 
L 146.303161 86.623484 
L 146.628141 81.879335 
L 147.2781 66.027469 
L 147.603079 58.860324 
L 147.928059 69.316268 
L 148.253038 65.972365 
L 148.578018 69.924692 
L 148.902998 63.318756 
L 149.227977 70.145675 
L 149.552957 69.218754 
L 150.202916 77.192162 
L 150.527895 74.188067 
L 150.852875 75.569715 
L 151.177854 79.911352 
L 151.502834 82.632023 
L 151.827813 86.383483 
L 152.152793 84.668409 
L 152.477772 87.826159 
L 152.802752 88.644302 
L 153.452711 101.747549 
L 154.10267 91.042178 
L 154.427649 94.643971 
L 154.752629 96.69166 
L 155.077609 111.113629 
L 155.402588 107.607286 
L 155.727568 97.364865 
L 156.052547 93.145133 
L 156.377527 96.725034 
L 156.702506 91.667678 
L 157.027486 93.186689 
L 157.352465 93.695012 
L 157.677445 85.583568 
L 158.002424 83.052409 
L 158.327404 98.787073 
L 158.652383 89.794626 
L 158.977363 92.715878 
L 159.302342 94.280323 
L 159.627322 90.867129 
L 159.952301 92.545426 
L 160.277281 84.400352 
L 160.60226 90.209748 
L 160.92724 87.457639 
L 161.252219 89.878814 
L 161.577199 84.286452 
L 161.902179 86.116279 
L 162.227158 77.963028 
L 162.552138 83.741793 
L 162.877117 79.326782 
L 163.202097 80.850608 
L 163.527076 72.638205 
L 163.852056 69.638848 
L 164.177035 68.305229 
L 164.502015 81.327351 
L 164.826994 82.778614 
L 165.476953 74.248613 
L 165.801933 79.90889 
L 166.126912 78.289472 
L 166.451892 78.932989 
L 166.776871 75.993253 
L 167.101851 88.492713 
L 167.42683 86.242247 
L 168.07679 86.887958 
L 168.401769 86.299202 
L 168.726749 84.03172 
L 169.051728 87.629267 
L 169.376708 88.935329 
L 169.701687 85.805061 
L 170.026667 84.365199 
L 170.351646 85.379712 
L 170.676626 85.769886 
L 171.001605 82.05246 
L 171.326585 86.524547 
L 171.651564 81.579466 
L 171.976544 85.156671 
L 172.301523 84.135583 
L 172.626503 87.056066 
L 173.276462 66.781804 
L 173.926421 96.295803 
L 174.57638 92.715554 
L 174.90136 87.079236 
L 175.226339 94.194876 
L 175.551319 96.375578 
L 175.876298 93.278099 
L 176.201278 85.94665 
L 176.851237 88.739888 
L 177.176216 77.71014 
L 177.501196 71.740061 
L 177.826175 73.280897 
L 178.151155 66.652413 
L 178.476134 67.323036 
L 178.801114 69.938601 
L 179.126093 67.053895 
L 179.451073 70.442916 
L 179.776052 81.805879 
L 180.426011 90.284756 
L 180.750991 86.921123 
L 181.075971 87.534164 
L 181.72593 76.316794 
L 182.050909 78.017687 
L 182.375889 71.946262 
L 182.700868 82.417315 
L 183.025848 74.326576 
L 183.350827 74.753254 
L 183.675807 72.963062 
L 184.000786 79.510189 
L 184.325766 72.734521 
L 184.650745 71.516358 
L 184.975725 71.681959 
L 185.300704 66.832925 
L 185.625684 76.019979 
L 185.950663 77.500647 
L 186.275643 82.136437 
L 186.600622 78.815339 
L 186.925602 91.159546 
L 187.250581 92.224873 
L 187.575561 94.200501 
L 187.900541 93.540495 
L 188.22552 96.533984 
L 188.5505 87.97705 
L 188.875479 90.482573 
L 189.200459 84.687369 
L 189.525438 69.304872 
L 189.850418 65.010443 
L 190.175397 68.046538 
L 190.500377 85.336944 
L 190.825356 85.801172 
L 191.150336 82.414633 
L 191.475315 80.606587 
L 191.800295 89.584716 
L 192.450254 77.945394 
L 192.775233 81.562547 
L 193.100213 83.587376 
L 193.425192 77.877518 
L 193.750172 76.288661 
L 194.075152 77.371865 
L 194.400131 83.372065 
L 194.725111 83.718298 
L 195.05009 86.160726 
L 195.37507 91.032582 
L 195.700049 87.459055 
L 196.025029 96.800669 
L 196.350008 92.653179 
L 196.674988 93.58987 
L 196.999967 101.736539 
L 197.324947 92.482583 
L 197.649926 102.117751 
L 197.974906 93.544355 
L 198.299885 100.039306 
L 198.624865 96.698461 
L 199.274824 86.636354 
L 199.924783 71.112521 
L 200.574742 68.084481 
L 200.899722 79.890468 
L 201.224701 80.927925 
L 201.549681 86.394319 
L 202.19964 80.356011 
L 202.524619 73.715102 
L 202.849599 73.249422 
L 203.174578 68.803604 
L 203.499558 72.407444 
L 203.824537 74.747919 
L 204.149517 80.687202 
L 204.799476 74.457206 
L 205.124455 90.546457 
L 205.449435 86.142897 
L 205.774414 76.609448 
L 206.099394 83.277896 
L 206.424373 77.273816 
L 206.749353 84.351935 
L 207.074333 79.673721 
L 207.399312 76.662905 
L 207.724292 71.345918 
L 208.049271 77.956486 
L 208.374251 90.388635 
L 208.69923 98.096315 
L 209.02421 98.567397 
L 209.349189 92.377672 
L 209.674169 80.28631 
L 209.999148 75.774556 
L 210.324128 81.031073 
L 210.649107 76.48406 
L 210.974087 69.800413 
L 211.299066 67.07822 
L 211.949025 74.635747 
L 212.274005 73.86538 
L 212.598984 75.613608 
L 212.923964 73.709954 
L 213.248943 76.113777 
L 213.573923 68.664393 
L 213.898903 77.160659 
L 214.223882 95.202685 
L 214.548862 95.054062 
L 214.873841 94.067916 
L 215.198821 93.622859 
L 215.5238 95.007768 
L 215.84878 97.523122 
L 216.173759 95.618846 
L 216.498739 90.036447 
L 217.148698 84.432071 
L 217.473677 89.174339 
L 217.798657 95.821746 
L 218.123636 94.280845 
L 218.448616 81.596963 
L 218.773595 75.854293 
L 219.098575 81.75275 
L 219.423554 78.259638 
L 219.748534 93.064233 
L 220.073514 85.087109 
L 220.398493 81.925242 
L 220.723473 86.417454 
L 221.048452 77.343489 
L 221.373432 84.571614 
L 221.698411 82.630932 
L 222.023391 89.56443 
L 222.34837 87.742132 
L 222.67335 78.700627 
L 222.998329 74.362435 
L 223.323309 67.326842 
L 223.648288 78.318755 
L 223.973268 74.746947 
L 224.298247 79.293717 
L 224.623227 88.152133 
L 224.948206 86.838521 
L 225.273186 81.850914 
L 225.598165 73.064231 
L 225.923145 71.144277 
L 226.248124 79.32331 
L 226.573104 79.056335 
L 227.223063 91.088932 
L 227.548043 82.112469 
L 227.873022 79.827447 
L 228.198002 79.607765 
L 228.522981 76.314523 
L 229.17294 80.787668 
L 229.49792 79.643686 
L 229.822899 87.162409 
L 230.147879 98.619671 
L 230.472858 96.129379 
L 230.797838 102.1471 
L 231.122817 98.114082 
L 231.447797 87.767747 
L 231.772776 84.782694 
L 232.097756 74.524766 
L 232.422735 76.705037 
L 232.747715 76.980603 
L 233.072695 81.467887 
L 233.397674 94.227199 
L 233.722654 90.782871 
L 234.047633 88.795081 
L 234.372613 96.320131 
L 235.022572 94.185626 
L 235.672531 69.425941 
L 235.99751 70.637425 
L 236.32249 78.979146 
L 236.647469 74.71339 
L 237.297428 84.879286 
L 237.622408 85.08173 
L 237.947387 85.953295 
L 238.272367 75.984059 
L 238.597346 79.723658 
L 238.922326 78.643892 
L 239.247305 88.02464 
L 239.572285 86.129404 
L 239.897265 82.657666 
L 240.222244 85.560098 
L 240.547224 89.553816 
L 240.872203 95.424277 
L 241.197183 96.50612 
L 241.522162 95.35218 
L 242.172121 79.557304 
L 242.497101 80.131066 
L 242.82208 78.011123 
L 243.14706 72.930613 
L 243.472039 89.22847 
L 243.797019 86.065322 
L 244.446978 73.969369 
L 244.771957 76.407465 
L 245.096937 88.549105 
L 245.421916 86.40665 
L 245.746896 82.198053 
L 246.071876 75.926909 
L 246.396855 75.135089 
L 246.721835 66.603729 
L 247.046814 63.703795 
L 247.371794 73.371844 
L 247.696773 79.438463 
L 248.021753 73.179344 
L 248.671712 83.814791 
L 249.321671 77.544017 
L 249.64665 89.47325 
L 249.97163 89.384902 
L 250.296609 88.242796 
L 250.621589 91.297347 
L 250.946568 86.476561 
L 251.271548 90.684615 
L 251.596527 88.327637 
L 251.921507 87.298178 
L 252.246486 85.121917 
L 252.571466 83.751462 
L 253.221425 89.783654 
L 253.546405 84.369046 
L 253.871384 82.49125 
L 254.196364 82.249443 
L 254.521343 70.815088 
L 254.846323 75.000223 
L 255.171302 74.634054 
L 255.496282 85.311184 
L 255.821261 78.47186 
L 256.146241 75.749911 
L 256.47122 75.783382 
L 256.7962 83.070625 
L 257.121179 81.776568 
L 257.446159 83.473497 
L 258.096118 81.892755 
L 258.421097 91.05467 
L 258.746077 85.531186 
L 259.071057 92.051488 
L 259.396036 93.111203 
L 259.721016 95.201375 
L 260.045995 91.869425 
L 260.370975 91.143468 
L 260.695954 94.397576 
L 261.020934 94.369266 
L 261.345913 91.396402 
L 261.670893 93.886133 
L 261.995872 93.253382 
L 262.320852 86.894456 
L 262.645831 77.536076 
L 262.970811 77.250396 
L 263.62077 70.58392 
L 263.945749 84.523024 
L 264.270729 93.446432 
L 264.920688 89.795102 
L 265.245667 84.790092 
L 265.570647 87.726524 
L 265.895627 95.067127 
L 266.220606 91.229056 
L 266.545586 95.211754 
L 266.870565 91.191654 
L 267.195545 83.234334 
L 267.520524 90.052057 
L 267.845504 86.903851 
L 268.170483 80.171372 
L 268.495463 81.762324 
L 268.820442 81.658423 
L 269.145422 84.745288 
L 269.470401 79.912802 
L 269.795381 83.008833 
L 270.12036 87.207236 
L 270.44534 93.357589 
L 270.770319 89.369201 
L 271.095299 83.818858 
L 271.420278 64.799374 
L 272.070238 71.613217 
L 272.395217 69.190422 
L 272.720197 75.64906 
L 273.045176 71.054369 
L 273.370156 76.838519 
L 273.695135 71.151445 
L 274.020115 81.67684 
L 274.345094 73.310495 
L 274.670074 75.189245 
L 274.995053 74.789982 
L 275.320033 78.30979 
L 275.645012 83.489235 
L 276.619951 60.034601 
L 276.94493 83.975634 
L 277.26991 88.261084 
L 277.594889 84.877054 
L 277.919869 96.728968 
L 278.244848 102.816398 
L 278.569828 94.498053 
L 278.894808 94.057219 
L 279.219787 96.402182 
L 279.869746 83.125429 
L 280.519705 76.408484 
L 280.844685 76.811627 
L 281.169664 71.944878 
L 281.494644 69.18422 
L 281.819623 74.02757 
L 282.469582 90.447859 
L 282.794562 95.284154 
L 283.119541 93.596671 
L 283.444521 99.727197 
L 283.7695 91.980231 
L 284.744439 79.336565 
L 285.069419 76.641796 
L 285.394398 71.191989 
L 285.719378 68.477471 
L 286.044357 73.408243 
L 286.369337 72.467393 
L 287.019296 87.909607 
L 287.344275 80.911503 
L 287.669255 89.275244 
L 287.994234 84.458391 
L 288.319214 91.556151 
L 288.969173 77.903683 
L 289.294152 87.540262 
L 290.269091 78.270288 
L 290.59407 72.79848 
L 290.91905 73.971356 
L 291.244029 82.82968 
L 291.569009 85.963091 
L 292.218968 82.714742 
L 292.543948 83.533993 
L 292.868927 83.861887 
L 293.193907 82.962022 
L 293.518886 78.151968 
L 294.168845 73.733751 
L 294.493825 83.271371 
L 294.818804 77.69528 
L 295.143784 79.519716 
L 296.118722 86.954985 
L 296.443702 84.300087 
L 297.093661 76.556538 
L 297.41864 82.615888 
L 297.74362 82.77924 
L 298.0686 80.872027 
L 298.393579 81.082832 
L 298.718559 82.234462 
L 299.043538 75.140016 
L 299.368518 71.521241 
L 299.693497 74.60056 
L 300.018477 70.256969 
L 300.668436 77.716685 
L 300.993415 87.550571 
L 301.318395 85.751772 
L 301.643374 77.377982 
L 301.968354 85.42504 
L 302.293333 76.903944 
L 302.943292 95.03542 
L 303.268272 88.706618 
L 303.593251 86.557852 
L 303.918231 76.970065 
L 304.24321 81.097257 
L 304.56819 79.352115 
L 305.218149 70.574813 
L 305.543129 81.435117 
L 305.868108 84.32078 
L 306.193088 84.59334 
L 306.518067 83.078674 
L 306.843047 79.15637 
L 307.168026 80.227745 
L 307.493006 72.21974 
L 307.817985 71.88302 
L 308.142965 77.805965 
L 308.467944 80.946061 
L 309.117903 73.109245 
L 309.442883 74.572934 
L 309.767862 71.475985 
L 310.092842 86.77381 
L 310.417821 94.173225 
L 310.742801 92.222192 
L 311.067781 83.927528 
L 311.39276 83.047135 
L 311.71774 89.042513 
L 312.042719 87.632604 
L 312.367699 93.813357 
L 312.692678 89.031687 
L 313.017658 86.726555 
L 313.667617 93.428674 
L 313.992596 100.386417 
L 314.317576 93.106639 
L 314.967535 95.234745 
L 315.292514 91.588971 
L 315.617494 92.368445 
L 315.942473 91.615911 
L 316.267453 85.673697 
L 316.917412 79.605251 
L 317.242391 88.315475 
L 317.567371 84.343612 
L 318.21733 63.932294 
L 318.54231 66.485071 
L 318.867289 63.563571 
L 319.192269 55.843522 
L 319.517248 53.568 
L 319.842228 60.638176 
L 320.167207 70.341453 
L 320.492187 67.556767 
L 320.817166 56.92013 
L 321.142146 67.632666 
L 321.467125 68.491424 
L 321.792105 70.859412 
L 322.117084 68.355956 
L 322.442064 67.24105 
L 322.767043 69.869566 
L 323.092023 75.896908 
L 323.417002 74.844218 
L 323.741982 83.210238 
L 324.066962 79.837167 
L 324.391941 83.970055 
L 325.0419 73.805773 
L 325.36688 72.243521 
L 325.691859 69.436737 
L 326.016839 77.502605 
L 326.341818 71.495426 
L 326.666798 61.015328 
L 326.991777 58.199141 
L 327.316757 67.87968 
L 327.966716 78.208906 
L 328.291695 77.681187 
L 328.941654 63.552573 
L 329.266634 55.309858 
L 329.591613 58.918573 
L 330.241572 76.345161 
L 330.566552 72.505124 
L 330.891532 73.516196 
L 331.216511 68.302852 
L 331.541491 67.766781 
L 331.86647 68.46113 
L 332.19145 69.944904 
L 332.516429 67.020392 
L 333.166388 78.381192 
L 334.141327 62.053428 
L 334.466306 63.388929 
L 334.791286 64.016226 
L 335.116265 65.673149 
L 335.441245 66.10836 
L 335.766224 70.825108 
L 336.091204 72.826241 
L 336.416183 71.813448 
L 336.741163 75.656708 
L 337.066143 81.544062 
L 337.391122 82.344535 
L 337.716102 81.29883 
L 338.041081 71.998171 
L 338.366061 97.90758 
L 338.69104 95.433811 
L 339.01602 91.531324 
L 339.340999 89.301716 
L 339.665979 91.882738 
L 339.990958 89.2376 
L 340.640917 75.557975 
L 340.965897 85.793787 
L 341.290876 83.682273 
L 341.615856 84.52252 
L 342.590794 80.875714 
L 342.915774 83.984154 
L 343.240753 77.48525 
L 343.565733 76.613745 
L 343.890713 83.313524 
L 344.215692 85.670059 
L 344.540672 79.223346 
L 344.865651 80.900994 
L 345.190631 86.356536 
L 345.51561 81.02923 
L 345.84059 87.387335 
L 346.165569 85.915442 
L 346.490549 85.277495 
L 346.815528 83.957247 
L 347.140508 81.969513 
L 347.790467 79.792209 
L 348.115446 85.208088 
L 348.440426 88.594753 
L 348.765405 90.27831 
L 349.090385 83.045809 
L 349.415364 83.115169 
L 349.740344 85.439958 
L 350.065324 78.611143 
L 350.390303 84.630162 
L 350.715283 78.033913 
L 351.365242 76.654979 
L 352.015201 66.328733 
L 352.34018 63.981976 
L 352.66516 70.267869 
L 352.990139 72.075776 
L 353.315119 65.553434 
L 353.640098 73.985101 
L 353.965078 72.56523 
L 354.290057 62.349596 
L 354.940016 75.988137 
L 355.264996 78.406869 
L 355.589975 85.224509 
L 355.914955 89.645164 
L 356.239934 77.85231 
L 356.564914 79.213497 
L 356.889894 88.427789 
L 357.539853 69.985831 
L 358.189812 82.401902 
L 358.514791 83.703647 
L 358.839771 86.312926 
L 359.16475 82.467848 
L 359.48973 84.72149 
L 360.139689 81.824335 
L 360.464668 78.551338 
L 360.789648 84.951687 
L 361.114627 81.085733 
L 361.439607 80.729946 
L 362.089566 96.544828 
L 362.414545 93.055171 
L 362.739525 84.619717 
L 363.389484 95.751533 
L 363.714464 95.208151 
L 364.039443 101.068816 
L 364.364423 101.655039 
L 365.014382 87.029293 
L 365.339361 86.485917 
L 365.664341 81.686667 
L 365.98932 80.62854 
L 366.3143 80.044648 
L 366.639279 83.026294 
L 366.964259 88.180606 
L 367.289238 84.867947 
L 367.614218 78.642316 
L 367.939197 75.614687 
L 368.914136 88.1335 
L 369.239115 90.096718 
L 369.564095 89.549071 
L 369.889075 90.561887 
L 370.214054 78.736014 
L 370.539034 81.019244 
L 370.864013 72.598561 
L 371.188993 75.697412 
L 371.513972 71.824258 
L 371.838952 63.299239 
L 372.163931 67.504534 
L 372.488911 57.983039 
L 372.81389 57.837785 
L 373.13887 62.620876 
L 373.463849 76.979218 
L 373.788829 75.190956 
L 374.113808 71.063016 
L 374.438788 70.715882 
L 374.763767 68.086894 
L 375.088747 71.250058 
L 375.413726 70.192801 
L 375.738706 66.28991 
L 376.063686 68.187247 
L 376.713645 81.525277 
L 377.363604 72.179559 
L 377.688583 69.893452 
L 378.013563 66.513248 
L 378.663522 89.875872 
L 378.988501 85.150843 
L 379.313481 84.209117 
L 379.96344 76.58377 
L 380.288419 81.099991 
L 380.613399 81.975483 
L 380.938378 79.795006 
L 381.263358 86.609699 
L 381.588337 89.698138 
L 381.913317 89.244418 
L 382.238296 83.988296 
L 382.563276 84.651452 
L 382.888256 84.038692 
L 383.213235 71.893119 
L 383.538215 77.672962 
L 383.863194 78.417953 
L 384.188174 79.599973 
L 384.513153 79.599542 
L 384.838133 71.541401 
L 385.163112 77.602995 
L 385.488092 78.952163 
L 385.813071 77.953991 
L 386.138051 84.2395 
L 386.46303 82.989544 
L 386.78801 85.123384 
L 387.112989 94.739621 
L 387.437969 86.468404 
L 387.762948 81.149027 
L 388.087928 99.629333 
L 388.412907 97.260743 
L 388.737887 93.093776 
L 389.062867 79.638921 
L 389.387846 73.165009 
L 389.712826 72.578835 
L 390.037805 72.715805 
L 390.362785 71.153087 
L 390.687764 77.070019 
L 391.012744 72.374249 
L 391.337723 72.569116 
L 391.662703 79.725113 
L 391.987682 91.721463 
L 392.312662 86.492658 
L 392.637641 86.091488 
L 392.962621 83.988342 
L 393.2876 89.504002 
L 393.61258 98.16629 
L 394.262539 84.904464 
L 394.587518 91.329081 
L 394.912498 105.883805 
L 395.237477 95.411277 
L 395.562457 92.53664 
L 395.887437 83.322363 
L 396.537396 89.983522 
L 396.862375 87.89756 
L 397.187355 80.526114 
L 397.512334 85.677273 
L 398.162293 73.25504 
L 398.487273 71.565966 
L 398.487273 71.565966 
" style="fill:none;stroke:#1f77b4;stroke-linecap:square;stroke-width:1.5;"/>
   </g>
   <g id="line2d_16">
    <path clip-path="url(#p432db64978)" d="M 73.832727 292.670873 
L 79.682359 292.834089 
L 87.806847 293.1873 
L 119.97982 293.467123 
L 123.554595 293.518728 
L 138.828632 293.641533 
L 146.628141 293.722015 
L 148.902998 293.780187 
L 153.452711 293.737137 
L 156.702506 293.791904 
L 163.202097 293.871428 
L 165.476953 293.904949 
L 169.051728 293.907302 
L 189.525438 294.103498 
L 191.475315 294.08586 
L 192.775233 294.094841 
L 199.599803 294.153784 
L 201.224701 294.155249 
L 202.524619 294.183986 
L 208.374251 294.176211 
L 209.349189 294.178422 
L 210.649107 294.239886 
L 212.598984 294.259658 
L 215.198821 294.224647 
L 222.67335 294.325962 
L 224.298247 294.338694 
L 225.273186 294.336409 
L 226.898084 294.329079 
L 228.198002 294.355268 
L 229.822899 294.343655 
L 230.797838 294.299896 
L 234.047633 294.35996 
L 235.022572 294.348886 
L 236.32249 294.382352 
L 238.922326 294.405284 
L 240.222244 294.389421 
L 242.497101 294.423461 
L 247.371794 294.466852 
L 248.996691 294.45882 
L 250.946568 294.453385 
L 253.221425 294.460673 
L 255.171302 294.52603 
L 256.146241 294.530071 
L 276.94493 294.641639 
L 279.219787 294.599131 
L 281.494644 294.723018 
L 284.419459 294.680564 
L 286.369337 294.74366 
L 287.669255 294.683808 
L 289.619132 294.717301 
L 294.168845 294.803448 
L 295.143784 294.787373 
L 298.718559 294.794339 
L 300.018477 294.855747 
L 303.593251 294.798899 
L 304.56819 294.833618 
L 305.868108 294.822325 
L 317.892351 294.963311 
L 319.192269 295.050973 
L 320.817166 295.05951 
L 321.792105 295.001164 
L 323.417002 294.998966 
L 324.391941 294.965855 
L 326.991777 295.101945 
L 328.291695 295.027445 
L 329.916593 295.081059 
L 330.891532 295.068813 
L 332.516429 295.109404 
L 333.816347 295.114899 
L 335.441245 295.129059 
L 337.716102 295.077583 
L 338.041081 295.099371 
L 338.366061 294.979961 
L 342.590794 295.099229 
L 344.540672 295.119467 
L 349.740344 295.124645 
L 351.040262 295.176807 
L 355.589975 295.167865 
L 356.889894 295.153927 
L 357.864832 295.216867 
L 359.48973 295.190954 
L 361.764586 295.186338 
L 362.414545 295.16798 
L 363.064505 295.191495 
L 364.364423 295.135487 
L 366.3143 295.261934 
L 369.889075 295.235127 
L 370.864013 295.327615 
L 372.163931 295.354906 
L 373.13887 295.387648 
L 373.788829 295.330084 
L 375.738706 295.387122 
L 381.913317 295.305349 
L 383.538215 295.370301 
L 396.862375 295.388408 
L 398.162293 295.479152 
L 398.487273 295.488 
L 398.487273 295.488 
" style="fill:none;stroke:#ff7f0e;stroke-linecap:square;stroke-width:1.5;"/>
   </g>
   <g id="patch_3">
    <path d="M 57.6 307.584 
L 57.6 41.472 
" style="fill:none;stroke:#000000;stroke-linecap:square;stroke-linejoin:miter;stroke-width:0.8;"/>
   </g>
   <g id="patch_4">
    <path d="M 414.72 307.584 
L 414.72 41.472 
" style="fill:none;stroke:#000000;stroke-linecap:square;stroke-linejoin:miter;stroke-width:0.8;"/>
   </g>
   <g id="patch_5">
    <path d="M 57.6 307.584 
L 414.72 307.584 
" style="fill:none;stroke:#000000;stroke-linecap:square;stroke-linejoin:miter;stroke-width:0.8;"/>
   </g>
   <g id="patch_6">
    <path d="M 57.6 41.472 
L 414.72 41.472 
" style="fill:none;stroke:#000000;stroke-linecap:square;stroke-linejoin:miter;stroke-width:0.8;"/>
   </g>
  </g>
 </g>
 <defs>
  <clipPath id="p432db64978">
   <rect height="266.112" width="357.12" x="57.6" y="41.472"/>
  </clipPath>
 </defs>
</svg>
