<?xml version="1.0" encoding="utf-8" standalone="no"?>
<!DOCTYPE svg PUBLIC "-//W3C//DTD SVG 1.1//EN"
  "http://www.w3.org/Graphics/SVG/1.1/DTD/svg11.dtd">
<!-- Created with matplotlib (https://matplotlib.org/) -->
<svg height="345.6pt" version="1.1" viewBox="0 0 460.8 345.6" width="460.8pt" xmlns="http://www.w3.org/2000/svg" xmlns:xlink="http://www.w3.org/1999/xlink">
 <metadata>
  <rdf:RDF xmlns:cc="http://creativecommons.org/ns#" xmlns:dc="http://purl.org/dc/elements/1.1/" xmlns:rdf="http://www.w3.org/1999/02/22-rdf-syntax-ns#">
   <cc:Work>
    <dc:type rdf:resource="http://purl.org/dc/dcmitype/StillImage"/>
    <dc:date>2020-10-07T15:23:21.313640</dc:date>
    <dc:format>image/svg+xml</dc:format>
    <dc:creator>
     <cc:Agent>
      <dc:title>Matplotlib v3.3.2, https://matplotlib.org/</dc:title>
     </cc:Agent>
    </dc:creator>
   </cc:Work>
  </rdf:RDF>
 </metadata>
 <defs>
  <style type="text/css">*{stroke-linecap:butt;stroke-linejoin:round;}</style>
 </defs>
 <g id="figure_1">
  <g id="patch_1">
   <path d="M 0 345.6 
L 460.8 345.6 
L 460.8 0 
L 0 0 
z
" style="fill:#ffffff;"/>
  </g>
  <g id="axes_1">
   <g id="patch_2">
    <path d="M 57.6 307.584 
L 414.72 307.584 
L 414.72 41.472 
L 57.6 41.472 
z
" style="fill:#ffffff;"/>
   </g>
   <g id="matplotlib.axis_1">
    <g id="xtick_1">
     <g id="line2d_1">
      <defs>
       <path d="M 0 0 
L 0 3.5 
" id="m0a572af33a" style="stroke:#000000;stroke-width:0.8;"/>
      </defs>
      <g>
       <use style="stroke:#000000;stroke-width:0.8;" x="73.832727" xlink:href="#m0a572af33a" y="307.584"/>
      </g>
     </g>
     <g id="text_1">
      <!-- 0 -->
      <g transform="translate(70.651477 322.182437)scale(0.1 -0.1)">
       <defs>
        <path d="M 31.78125 66.40625 
Q 24.171875 66.40625 20.328125 58.90625 
Q 16.5 51.421875 16.5 36.375 
Q 16.5 21.390625 20.328125 13.890625 
Q 24.171875 6.390625 31.78125 6.390625 
Q 39.453125 6.390625 43.28125 13.890625 
Q 47.125 21.390625 47.125 36.375 
Q 47.125 51.421875 43.28125 58.90625 
Q 39.453125 66.40625 31.78125 66.40625 
z
M 31.78125 74.21875 
Q 44.046875 74.21875 50.515625 64.515625 
Q 56.984375 54.828125 56.984375 36.375 
Q 56.984375 17.96875 50.515625 8.265625 
Q 44.046875 -1.421875 31.78125 -1.421875 
Q 19.53125 -1.421875 13.0625 8.265625 
Q 6.59375 17.96875 6.59375 36.375 
Q 6.59375 54.828125 13.0625 64.515625 
Q 19.53125 74.21875 31.78125 74.21875 
z
" id="DejaVuSans-48"/>
       </defs>
       <use xlink:href="#DejaVuSans-48"/>
      </g>
     </g>
    </g>
    <g id="xtick_2">
     <g id="line2d_2">
      <g>
       <use style="stroke:#000000;stroke-width:0.8;" x="138.828632" xlink:href="#m0a572af33a" y="307.584"/>
      </g>
     </g>
     <g id="text_2">
      <!-- 20 -->
      <g transform="translate(132.466132 322.182437)scale(0.1 -0.1)">
       <defs>
        <path d="M 19.1875 8.296875 
L 53.609375 8.296875 
L 53.609375 0 
L 7.328125 0 
L 7.328125 8.296875 
Q 12.9375 14.109375 22.625 23.890625 
Q 32.328125 33.6875 34.8125 36.53125 
Q 39.546875 41.84375 41.421875 45.53125 
Q 43.3125 49.21875 43.3125 52.78125 
Q 43.3125 58.59375 39.234375 62.25 
Q 35.15625 65.921875 28.609375 65.921875 
Q 23.96875 65.921875 18.8125 64.3125 
Q 13.671875 62.703125 7.8125 59.421875 
L 7.8125 69.390625 
Q 13.765625 71.78125 18.9375 73 
Q 24.125 74.21875 28.421875 74.21875 
Q 39.75 74.21875 46.484375 68.546875 
Q 53.21875 62.890625 53.21875 53.421875 
Q 53.21875 48.921875 51.53125 44.890625 
Q 49.859375 40.875 45.40625 35.40625 
Q 44.1875 33.984375 37.640625 27.21875 
Q 31.109375 20.453125 19.1875 8.296875 
z
" id="DejaVuSans-50"/>
       </defs>
       <use xlink:href="#DejaVuSans-50"/>
       <use x="63.623047" xlink:href="#DejaVuSans-48"/>
      </g>
     </g>
    </g>
    <g id="xtick_3">
     <g id="line2d_3">
      <g>
       <use style="stroke:#000000;stroke-width:0.8;" x="203.824537" xlink:href="#m0a572af33a" y="307.584"/>
      </g>
     </g>
     <g id="text_3">
      <!-- 40 -->
      <g transform="translate(197.462037 322.182437)scale(0.1 -0.1)">
       <defs>
        <path d="M 37.796875 64.3125 
L 12.890625 25.390625 
L 37.796875 25.390625 
z
M 35.203125 72.90625 
L 47.609375 72.90625 
L 47.609375 25.390625 
L 58.015625 25.390625 
L 58.015625 17.1875 
L 47.609375 17.1875 
L 47.609375 0 
L 37.796875 0 
L 37.796875 17.1875 
L 4.890625 17.1875 
L 4.890625 26.703125 
z
" id="DejaVuSans-52"/>
       </defs>
       <use xlink:href="#DejaVuSans-52"/>
       <use x="63.623047" xlink:href="#DejaVuSans-48"/>
      </g>
     </g>
    </g>
    <g id="xtick_4">
     <g id="line2d_4">
      <g>
       <use style="stroke:#000000;stroke-width:0.8;" x="268.820442" xlink:href="#m0a572af33a" y="307.584"/>
      </g>
     </g>
     <g id="text_4">
      <!-- 60 -->
      <g transform="translate(262.457942 322.182437)scale(0.1 -0.1)">
       <defs>
        <path d="M 33.015625 40.375 
Q 26.375 40.375 22.484375 35.828125 
Q 18.609375 31.296875 18.609375 23.390625 
Q 18.609375 15.53125 22.484375 10.953125 
Q 26.375 6.390625 33.015625 6.390625 
Q 39.65625 6.390625 43.53125 10.953125 
Q 47.40625 15.53125 47.40625 23.390625 
Q 47.40625 31.296875 43.53125 35.828125 
Q 39.65625 40.375 33.015625 40.375 
z
M 52.59375 71.296875 
L 52.59375 62.3125 
Q 48.875 64.0625 45.09375 64.984375 
Q 41.3125 65.921875 37.59375 65.921875 
Q 27.828125 65.921875 22.671875 59.328125 
Q 17.53125 52.734375 16.796875 39.40625 
Q 19.671875 43.65625 24.015625 45.921875 
Q 28.375 48.1875 33.59375 48.1875 
Q 44.578125 48.1875 50.953125 41.515625 
Q 57.328125 34.859375 57.328125 23.390625 
Q 57.328125 12.15625 50.6875 5.359375 
Q 44.046875 -1.421875 33.015625 -1.421875 
Q 20.359375 -1.421875 13.671875 8.265625 
Q 6.984375 17.96875 6.984375 36.375 
Q 6.984375 53.65625 15.1875 63.9375 
Q 23.390625 74.21875 37.203125 74.21875 
Q 40.921875 74.21875 44.703125 73.484375 
Q 48.484375 72.75 52.59375 71.296875 
z
" id="DejaVuSans-54"/>
       </defs>
       <use xlink:href="#DejaVuSans-54"/>
       <use x="63.623047" xlink:href="#DejaVuSans-48"/>
      </g>
     </g>
    </g>
    <g id="xtick_5">
     <g id="line2d_5">
      <g>
       <use style="stroke:#000000;stroke-width:0.8;" x="333.816347" xlink:href="#m0a572af33a" y="307.584"/>
      </g>
     </g>
     <g id="text_5">
      <!-- 80 -->
      <g transform="translate(327.453847 322.182437)scale(0.1 -0.1)">
       <defs>
        <path d="M 31.78125 34.625 
Q 24.75 34.625 20.71875 30.859375 
Q 16.703125 27.09375 16.703125 20.515625 
Q 16.703125 13.921875 20.71875 10.15625 
Q 24.75 6.390625 31.78125 6.390625 
Q 38.8125 6.390625 42.859375 10.171875 
Q 46.921875 13.96875 46.921875 20.515625 
Q 46.921875 27.09375 42.890625 30.859375 
Q 38.875 34.625 31.78125 34.625 
z
M 21.921875 38.8125 
Q 15.578125 40.375 12.03125 44.71875 
Q 8.5 49.078125 8.5 55.328125 
Q 8.5 64.0625 14.71875 69.140625 
Q 20.953125 74.21875 31.78125 74.21875 
Q 42.671875 74.21875 48.875 69.140625 
Q 55.078125 64.0625 55.078125 55.328125 
Q 55.078125 49.078125 51.53125 44.71875 
Q 48 40.375 41.703125 38.8125 
Q 48.828125 37.15625 52.796875 32.3125 
Q 56.78125 27.484375 56.78125 20.515625 
Q 56.78125 9.90625 50.3125 4.234375 
Q 43.84375 -1.421875 31.78125 -1.421875 
Q 19.734375 -1.421875 13.25 4.234375 
Q 6.78125 9.90625 6.78125 20.515625 
Q 6.78125 27.484375 10.78125 32.3125 
Q 14.796875 37.15625 21.921875 38.8125 
z
M 18.3125 54.390625 
Q 18.3125 48.734375 21.84375 45.5625 
Q 25.390625 42.390625 31.78125 42.390625 
Q 38.140625 42.390625 41.71875 45.5625 
Q 45.3125 48.734375 45.3125 54.390625 
Q 45.3125 60.0625 41.71875 63.234375 
Q 38.140625 66.40625 31.78125 66.40625 
Q 25.390625 66.40625 21.84375 63.234375 
Q 18.3125 60.0625 18.3125 54.390625 
z
" id="DejaVuSans-56"/>
       </defs>
       <use xlink:href="#DejaVuSans-56"/>
       <use x="63.623047" xlink:href="#DejaVuSans-48"/>
      </g>
     </g>
    </g>
    <g id="xtick_6">
     <g id="line2d_6">
      <g>
       <use style="stroke:#000000;stroke-width:0.8;" x="398.812252" xlink:href="#m0a572af33a" y="307.584"/>
      </g>
     </g>
     <g id="text_6">
      <!-- 100 -->
      <g transform="translate(389.268502 322.182437)scale(0.1 -0.1)">
       <defs>
        <path d="M 12.40625 8.296875 
L 28.515625 8.296875 
L 28.515625 63.921875 
L 10.984375 60.40625 
L 10.984375 69.390625 
L 28.421875 72.90625 
L 38.28125 72.90625 
L 38.28125 8.296875 
L 54.390625 8.296875 
L 54.390625 0 
L 12.40625 0 
z
" id="DejaVuSans-49"/>
       </defs>
       <use xlink:href="#DejaVuSans-49"/>
       <use x="63.623047" xlink:href="#DejaVuSans-48"/>
       <use x="127.246094" xlink:href="#DejaVuSans-48"/>
      </g>
     </g>
    </g>
    <g id="text_7">
     <!-- Time (days) -->
     <g transform="translate(206.633437 335.860562)scale(0.1 -0.1)">
      <defs>
       <path d="M -0.296875 72.90625 
L 61.375 72.90625 
L 61.375 64.59375 
L 35.5 64.59375 
L 35.5 0 
L 25.59375 0 
L 25.59375 64.59375 
L -0.296875 64.59375 
z
" id="DejaVuSans-84"/>
       <path d="M 9.421875 54.6875 
L 18.40625 54.6875 
L 18.40625 0 
L 9.421875 0 
z
M 9.421875 75.984375 
L 18.40625 75.984375 
L 18.40625 64.59375 
L 9.421875 64.59375 
z
" id="DejaVuSans-105"/>
       <path d="M 52 44.1875 
Q 55.375 50.25 60.0625 53.125 
Q 64.75 56 71.09375 56 
Q 79.640625 56 84.28125 50.015625 
Q 88.921875 44.046875 88.921875 33.015625 
L 88.921875 0 
L 79.890625 0 
L 79.890625 32.71875 
Q 79.890625 40.578125 77.09375 44.375 
Q 74.3125 48.1875 68.609375 48.1875 
Q 61.625 48.1875 57.5625 43.546875 
Q 53.515625 38.921875 53.515625 30.90625 
L 53.515625 0 
L 44.484375 0 
L 44.484375 32.71875 
Q 44.484375 40.625 41.703125 44.40625 
Q 38.921875 48.1875 33.109375 48.1875 
Q 26.21875 48.1875 22.15625 43.53125 
Q 18.109375 38.875 18.109375 30.90625 
L 18.109375 0 
L 9.078125 0 
L 9.078125 54.6875 
L 18.109375 54.6875 
L 18.109375 46.1875 
Q 21.1875 51.21875 25.484375 53.609375 
Q 29.78125 56 35.6875 56 
Q 41.65625 56 45.828125 52.96875 
Q 50 49.953125 52 44.1875 
z
" id="DejaVuSans-109"/>
       <path d="M 56.203125 29.59375 
L 56.203125 25.203125 
L 14.890625 25.203125 
Q 15.484375 15.921875 20.484375 11.0625 
Q 25.484375 6.203125 34.421875 6.203125 
Q 39.59375 6.203125 44.453125 7.46875 
Q 49.3125 8.734375 54.109375 11.28125 
L 54.109375 2.78125 
Q 49.265625 0.734375 44.1875 -0.34375 
Q 39.109375 -1.421875 33.890625 -1.421875 
Q 20.796875 -1.421875 13.15625 6.1875 
Q 5.515625 13.8125 5.515625 26.8125 
Q 5.515625 40.234375 12.765625 48.109375 
Q 20.015625 56 32.328125 56 
Q 43.359375 56 49.78125 48.890625 
Q 56.203125 41.796875 56.203125 29.59375 
z
M 47.21875 32.234375 
Q 47.125 39.59375 43.09375 43.984375 
Q 39.0625 48.390625 32.421875 48.390625 
Q 24.90625 48.390625 20.390625 44.140625 
Q 15.875 39.890625 15.1875 32.171875 
z
" id="DejaVuSans-101"/>
       <path id="DejaVuSans-32"/>
       <path d="M 31 75.875 
Q 24.46875 64.65625 21.28125 53.65625 
Q 18.109375 42.671875 18.109375 31.390625 
Q 18.109375 20.125 21.3125 9.0625 
Q 24.515625 -2 31 -13.1875 
L 23.1875 -13.1875 
Q 15.875 -1.703125 12.234375 9.375 
Q 8.59375 20.453125 8.59375 31.390625 
Q 8.59375 42.28125 12.203125 53.3125 
Q 15.828125 64.359375 23.1875 75.875 
z
" id="DejaVuSans-40"/>
       <path d="M 45.40625 46.390625 
L 45.40625 75.984375 
L 54.390625 75.984375 
L 54.390625 0 
L 45.40625 0 
L 45.40625 8.203125 
Q 42.578125 3.328125 38.25 0.953125 
Q 33.9375 -1.421875 27.875 -1.421875 
Q 17.96875 -1.421875 11.734375 6.484375 
Q 5.515625 14.40625 5.515625 27.296875 
Q 5.515625 40.1875 11.734375 48.09375 
Q 17.96875 56 27.875 56 
Q 33.9375 56 38.25 53.625 
Q 42.578125 51.265625 45.40625 46.390625 
z
M 14.796875 27.296875 
Q 14.796875 17.390625 18.875 11.75 
Q 22.953125 6.109375 30.078125 6.109375 
Q 37.203125 6.109375 41.296875 11.75 
Q 45.40625 17.390625 45.40625 27.296875 
Q 45.40625 37.203125 41.296875 42.84375 
Q 37.203125 48.484375 30.078125 48.484375 
Q 22.953125 48.484375 18.875 42.84375 
Q 14.796875 37.203125 14.796875 27.296875 
z
" id="DejaVuSans-100"/>
       <path d="M 34.28125 27.484375 
Q 23.390625 27.484375 19.1875 25 
Q 14.984375 22.515625 14.984375 16.5 
Q 14.984375 11.71875 18.140625 8.90625 
Q 21.296875 6.109375 26.703125 6.109375 
Q 34.1875 6.109375 38.703125 11.40625 
Q 43.21875 16.703125 43.21875 25.484375 
L 43.21875 27.484375 
z
M 52.203125 31.203125 
L 52.203125 0 
L 43.21875 0 
L 43.21875 8.296875 
Q 40.140625 3.328125 35.546875 0.953125 
Q 30.953125 -1.421875 24.3125 -1.421875 
Q 15.921875 -1.421875 10.953125 3.296875 
Q 6 8.015625 6 15.921875 
Q 6 25.140625 12.171875 29.828125 
Q 18.359375 34.515625 30.609375 34.515625 
L 43.21875 34.515625 
L 43.21875 35.40625 
Q 43.21875 41.609375 39.140625 45 
Q 35.0625 48.390625 27.6875 48.390625 
Q 23 48.390625 18.546875 47.265625 
Q 14.109375 46.140625 10.015625 43.890625 
L 10.015625 52.203125 
Q 14.9375 54.109375 19.578125 55.046875 
Q 24.21875 56 28.609375 56 
Q 40.484375 56 46.34375 49.84375 
Q 52.203125 43.703125 52.203125 31.203125 
z
" id="DejaVuSans-97"/>
       <path d="M 32.171875 -5.078125 
Q 28.375 -14.84375 24.75 -17.8125 
Q 21.140625 -20.796875 15.09375 -20.796875 
L 7.90625 -20.796875 
L 7.90625 -13.28125 
L 13.1875 -13.28125 
Q 16.890625 -13.28125 18.9375 -11.515625 
Q 21 -9.765625 23.484375 -3.21875 
L 25.09375 0.875 
L 2.984375 54.6875 
L 12.5 54.6875 
L 29.59375 11.921875 
L 46.6875 54.6875 
L 56.203125 54.6875 
z
" id="DejaVuSans-121"/>
       <path d="M 44.28125 53.078125 
L 44.28125 44.578125 
Q 40.484375 46.53125 36.375 47.5 
Q 32.28125 48.484375 27.875 48.484375 
Q 21.1875 48.484375 17.84375 46.4375 
Q 14.5 44.390625 14.5 40.28125 
Q 14.5 37.15625 16.890625 35.375 
Q 19.28125 33.59375 26.515625 31.984375 
L 29.59375 31.296875 
Q 39.15625 29.25 43.1875 25.515625 
Q 47.21875 21.78125 47.21875 15.09375 
Q 47.21875 7.46875 41.1875 3.015625 
Q 35.15625 -1.421875 24.609375 -1.421875 
Q 20.21875 -1.421875 15.453125 -0.5625 
Q 10.6875 0.296875 5.421875 2 
L 5.421875 11.28125 
Q 10.40625 8.6875 15.234375 7.390625 
Q 20.0625 6.109375 24.8125 6.109375 
Q 31.15625 6.109375 34.5625 8.28125 
Q 37.984375 10.453125 37.984375 14.40625 
Q 37.984375 18.0625 35.515625 20.015625 
Q 33.0625 21.96875 24.703125 23.78125 
L 21.578125 24.515625 
Q 13.234375 26.265625 9.515625 29.90625 
Q 5.8125 33.546875 5.8125 39.890625 
Q 5.8125 47.609375 11.28125 51.796875 
Q 16.75 56 26.8125 56 
Q 31.78125 56 36.171875 55.265625 
Q 40.578125 54.546875 44.28125 53.078125 
z
" id="DejaVuSans-115"/>
       <path d="M 8.015625 75.875 
L 15.828125 75.875 
Q 23.140625 64.359375 26.78125 53.3125 
Q 30.421875 42.28125 30.421875 31.390625 
Q 30.421875 20.453125 26.78125 9.375 
Q 23.140625 -1.703125 15.828125 -13.1875 
L 8.015625 -13.1875 
Q 14.5 -2 17.703125 9.0625 
Q 20.90625 20.125 20.90625 31.390625 
Q 20.90625 42.671875 17.703125 53.65625 
Q 14.5 64.65625 8.015625 75.875 
z
" id="DejaVuSans-41"/>
      </defs>
      <use xlink:href="#DejaVuSans-84"/>
      <use x="57.958984" xlink:href="#DejaVuSans-105"/>
      <use x="85.742188" xlink:href="#DejaVuSans-109"/>
      <use x="183.154297" xlink:href="#DejaVuSans-101"/>
      <use x="244.677734" xlink:href="#DejaVuSans-32"/>
      <use x="276.464844" xlink:href="#DejaVuSans-40"/>
      <use x="315.478516" xlink:href="#DejaVuSans-100"/>
      <use x="378.955078" xlink:href="#DejaVuSans-97"/>
      <use x="440.234375" xlink:href="#DejaVuSans-121"/>
      <use x="499.414062" xlink:href="#DejaVuSans-115"/>
      <use x="551.513672" xlink:href="#DejaVuSans-41"/>
     </g>
    </g>
   </g>
   <g id="matplotlib.axis_2">
    <g id="ytick_1">
     <g id="line2d_7">
      <defs>
       <path d="M 0 0 
L -3.5 0 
" id="m3dfaf843a7" style="stroke:#000000;stroke-width:0.8;"/>
      </defs>
      <g>
       <use style="stroke:#000000;stroke-width:0.8;" x="57.6" xlink:href="#m3dfaf843a7" y="290.172632"/>
      </g>
     </g>
     <g id="text_8">
      <!-- 0 -->
      <g transform="translate(44.2375 293.971851)scale(0.1 -0.1)">
       <use xlink:href="#DejaVuSans-48"/>
      </g>
     </g>
    </g>
    <g id="ytick_2">
     <g id="line2d_8">
      <g>
       <use style="stroke:#000000;stroke-width:0.8;" x="57.6" xlink:href="#m3dfaf843a7" y="234.785289"/>
      </g>
     </g>
     <g id="text_9">
      <!-- 1000 -->
      <g transform="translate(25.15 238.584507)scale(0.1 -0.1)">
       <use xlink:href="#DejaVuSans-49"/>
       <use x="63.623047" xlink:href="#DejaVuSans-48"/>
       <use x="127.246094" xlink:href="#DejaVuSans-48"/>
       <use x="190.869141" xlink:href="#DejaVuSans-48"/>
      </g>
     </g>
    </g>
    <g id="ytick_3">
     <g id="line2d_9">
      <g>
       <use style="stroke:#000000;stroke-width:0.8;" x="57.6" xlink:href="#m3dfaf843a7" y="179.397945"/>
      </g>
     </g>
     <g id="text_10">
      <!-- 2000 -->
      <g transform="translate(25.15 183.197164)scale(0.1 -0.1)">
       <use xlink:href="#DejaVuSans-50"/>
       <use x="63.623047" xlink:href="#DejaVuSans-48"/>
       <use x="127.246094" xlink:href="#DejaVuSans-48"/>
       <use x="190.869141" xlink:href="#DejaVuSans-48"/>
      </g>
     </g>
    </g>
    <g id="ytick_4">
     <g id="line2d_10">
      <g>
       <use style="stroke:#000000;stroke-width:0.8;" x="57.6" xlink:href="#m3dfaf843a7" y="124.010602"/>
      </g>
     </g>
     <g id="text_11">
      <!-- 3000 -->
      <g transform="translate(25.15 127.80982)scale(0.1 -0.1)">
       <defs>
        <path d="M 40.578125 39.3125 
Q 47.65625 37.796875 51.625 33 
Q 55.609375 28.21875 55.609375 21.1875 
Q 55.609375 10.40625 48.1875 4.484375 
Q 40.765625 -1.421875 27.09375 -1.421875 
Q 22.515625 -1.421875 17.65625 -0.515625 
Q 12.796875 0.390625 7.625 2.203125 
L 7.625 11.71875 
Q 11.71875 9.328125 16.59375 8.109375 
Q 21.484375 6.890625 26.8125 6.890625 
Q 36.078125 6.890625 40.9375 10.546875 
Q 45.796875 14.203125 45.796875 21.1875 
Q 45.796875 27.640625 41.28125 31.265625 
Q 36.765625 34.90625 28.71875 34.90625 
L 20.21875 34.90625 
L 20.21875 43.015625 
L 29.109375 43.015625 
Q 36.375 43.015625 40.234375 45.921875 
Q 44.09375 48.828125 44.09375 54.296875 
Q 44.09375 59.90625 40.109375 62.90625 
Q 36.140625 65.921875 28.71875 65.921875 
Q 24.65625 65.921875 20.015625 65.03125 
Q 15.375 64.15625 9.8125 62.3125 
L 9.8125 71.09375 
Q 15.4375 72.65625 20.34375 73.4375 
Q 25.25 74.21875 29.59375 74.21875 
Q 40.828125 74.21875 47.359375 69.109375 
Q 53.90625 64.015625 53.90625 55.328125 
Q 53.90625 49.265625 50.4375 45.09375 
Q 46.96875 40.921875 40.578125 39.3125 
z
" id="DejaVuSans-51"/>
       </defs>
       <use xlink:href="#DejaVuSans-51"/>
       <use x="63.623047" xlink:href="#DejaVuSans-48"/>
       <use x="127.246094" xlink:href="#DejaVuSans-48"/>
       <use x="190.869141" xlink:href="#DejaVuSans-48"/>
      </g>
     </g>
    </g>
    <g id="ytick_5">
     <g id="line2d_11">
      <g>
       <use style="stroke:#000000;stroke-width:0.8;" x="57.6" xlink:href="#m3dfaf843a7" y="68.623258"/>
      </g>
     </g>
     <g id="text_12">
      <!-- 4000 -->
      <g transform="translate(25.15 72.422477)scale(0.1 -0.1)">
       <use xlink:href="#DejaVuSans-52"/>
       <use x="63.623047" xlink:href="#DejaVuSans-48"/>
       <use x="127.246094" xlink:href="#DejaVuSans-48"/>
       <use x="190.869141" xlink:href="#DejaVuSans-48"/>
      </g>
     </g>
    </g>
    <g id="text_13">
     <!-- Density -->
     <g transform="translate(19.070312 193.536594)rotate(-90)scale(0.1 -0.1)">
      <defs>
       <path d="M 19.671875 64.796875 
L 19.671875 8.109375 
L 31.59375 8.109375 
Q 46.6875 8.109375 53.6875 14.9375 
Q 60.6875 21.78125 60.6875 36.53125 
Q 60.6875 51.171875 53.6875 57.984375 
Q 46.6875 64.796875 31.59375 64.796875 
z
M 9.8125 72.90625 
L 30.078125 72.90625 
Q 51.265625 72.90625 61.171875 64.09375 
Q 71.09375 55.28125 71.09375 36.53125 
Q 71.09375 17.671875 61.125 8.828125 
Q 51.171875 0 30.078125 0 
L 9.8125 0 
z
" id="DejaVuSans-68"/>
       <path d="M 54.890625 33.015625 
L 54.890625 0 
L 45.90625 0 
L 45.90625 32.71875 
Q 45.90625 40.484375 42.875 44.328125 
Q 39.84375 48.1875 33.796875 48.1875 
Q 26.515625 48.1875 22.3125 43.546875 
Q 18.109375 38.921875 18.109375 30.90625 
L 18.109375 0 
L 9.078125 0 
L 9.078125 54.6875 
L 18.109375 54.6875 
L 18.109375 46.1875 
Q 21.34375 51.125 25.703125 53.5625 
Q 30.078125 56 35.796875 56 
Q 45.21875 56 50.046875 50.171875 
Q 54.890625 44.34375 54.890625 33.015625 
z
" id="DejaVuSans-110"/>
       <path d="M 18.3125 70.21875 
L 18.3125 54.6875 
L 36.8125 54.6875 
L 36.8125 47.703125 
L 18.3125 47.703125 
L 18.3125 18.015625 
Q 18.3125 11.328125 20.140625 9.421875 
Q 21.96875 7.515625 27.59375 7.515625 
L 36.8125 7.515625 
L 36.8125 0 
L 27.59375 0 
Q 17.1875 0 13.234375 3.875 
Q 9.28125 7.765625 9.28125 18.015625 
L 9.28125 47.703125 
L 2.6875 47.703125 
L 2.6875 54.6875 
L 9.28125 54.6875 
L 9.28125 70.21875 
z
" id="DejaVuSans-116"/>
      </defs>
      <use xlink:href="#DejaVuSans-68"/>
      <use x="77.001953" xlink:href="#DejaVuSans-101"/>
      <use x="138.525391" xlink:href="#DejaVuSans-110"/>
      <use x="201.904297" xlink:href="#DejaVuSans-115"/>
      <use x="254.003906" xlink:href="#DejaVuSans-105"/>
      <use x="281.787109" xlink:href="#DejaVuSans-116"/>
      <use x="320.996094" xlink:href="#DejaVuSans-121"/>
     </g>
    </g>
   </g>
   <g id="line2d_12">
    <path clip-path="url(#p26cd9caa34)" d="M 73.832727 289.618759 
L 74.482686 289.299096 
L 75.132645 288.782799 
L 75.782604 287.952811 
L 76.432563 286.624162 
L 77.082523 284.492763 
L 77.732482 281.173864 
L 78.382441 276.122064 
L 79.0324 268.465117 
L 79.682359 256.818409 
L 80.657297 233.903158 
L 82.282195 173.432957 
L 82.607174 167.824037 
L 83.582113 137.822736 
L 83.907093 127.258558 
L 84.232072 124.130127 
L 84.557052 114.848811 
L 84.882031 109.237817 
L 85.207011 106.668544 
L 85.53199 98.798399 
L 85.85697 100.464624 
L 86.181949 81.281798 
L 86.506929 79.027431 
L 86.831908 60.050514 
L 87.156888 79.457883 
L 87.481867 77.256569 
L 87.806847 70.15789 
L 88.131826 70.41828 
L 88.456806 106.410366 
L 89.106765 118.195848 
L 89.431744 109.827321 
L 89.756724 105.54471 
L 90.081704 92.175652 
L 90.406683 107.617526 
L 90.731663 116.337595 
L 91.381622 100.215103 
L 91.706601 106.863409 
L 92.35656 132.867658 
L 92.68154 124.102667 
L 93.006519 110.803709 
L 93.331499 119.334687 
L 93.656478 114.458209 
L 93.981458 112.643072 
L 94.306437 108.55235 
L 94.631417 114.58697 
L 94.956396 104.037639 
L 95.281376 103.836787 
L 95.606355 99.852725 
L 95.931335 77.678816 
L 96.256314 72.49969 
L 96.581294 82.946669 
L 96.906274 98.356407 
L 97.231253 106.567631 
L 97.556233 93.869732 
L 97.881212 94.771365 
L 98.206192 94.812681 
L 98.531171 84.34521 
L 98.856151 92.113356 
L 99.18113 82.289702 
L 99.50611 88.169323 
L 99.831089 97.035872 
L 100.481048 69.23884 
L 100.806028 77.477105 
L 101.455987 101.906452 
L 101.780966 89.417049 
L 102.105946 106.447972 
L 102.430925 99.383267 
L 102.755905 99.442226 
L 103.405864 109.89907 
L 103.730844 111.491618 
L 104.055823 115.555513 
L 104.380803 106.039834 
L 104.705782 102.534573 
L 105.030762 102.290585 
L 105.355741 90.134069 
L 105.680721 90.514753 
L 106.0057 72.934854 
L 106.33068 65.988686 
L 106.655659 70.212552 
L 106.980639 107.004403 
L 107.305618 105.778256 
L 107.630598 90.371655 
L 107.955577 84.130331 
L 108.280557 94.191642 
L 108.605536 93.090579 
L 108.930516 96.471432 
L 109.255495 107.256475 
L 109.580475 111.107272 
L 109.905455 106.327803 
L 110.230434 104.110145 
L 110.555414 104.515918 
L 110.880393 90.800283 
L 111.530352 85.214071 
L 111.855332 100.018651 
L 112.180311 92.815542 
L 112.505291 81.553093 
L 112.83027 64.498518 
L 113.15525 54.578178 
L 113.480229 73.495553 
L 113.805209 70.586023 
L 114.130188 75.269853 
L 114.455168 98.123074 
L 114.780147 96.519729 
L 115.105127 104.571921 
L 115.430106 95.938968 
L 115.755086 118.534414 
L 116.080066 111.742916 
L 116.405045 114.223383 
L 116.730025 97.076155 
L 117.055004 107.619472 
L 117.379984 111.341397 
L 117.704963 129.260047 
L 118.029943 154.720301 
L 118.354922 148.287277 
L 118.679902 128.721414 
L 119.004881 120.2352 
L 119.65484 121.392678 
L 119.97982 116.872487 
L 120.304799 99.434602 
L 120.629779 97.740452 
L 120.954758 95.067341 
L 121.279738 98.507846 
L 121.604717 103.648465 
L 121.929697 93.006075 
L 122.254676 90.83006 
L 122.579656 102.136911 
L 122.904636 108.27947 
L 123.229615 108.283276 
L 123.554595 126.537047 
L 123.879574 126.588015 
L 124.204554 128.943666 
L 124.529533 122.462493 
L 124.854513 121.363865 
L 125.179492 108.195948 
L 125.504472 102.667553 
L 125.829451 107.716169 
L 126.154431 104.328991 
L 126.80439 85.738732 
L 127.129369 107.950472 
L 127.454349 102.931413 
L 127.779328 122.919743 
L 128.104308 110.824015 
L 128.429287 115.58309 
L 128.754267 113.766433 
L 129.079247 105.946656 
L 129.404226 115.507672 
L 129.729206 113.870148 
L 130.379165 94.19671 
L 130.704144 109.911548 
L 131.029124 99.076649 
L 131.354103 91.997229 
L 131.679083 96.811048 
L 132.004062 114.785566 
L 132.654021 100.557195 
L 132.979001 118.156624 
L 133.30398 108.660647 
L 133.62896 109.192462 
L 133.953939 126.057962 
L 134.278919 127.438392 
L 134.603898 126.269483 
L 134.928878 122.955708 
L 135.253857 131.564739 
L 135.903817 99.149241 
L 136.228796 98.387267 
L 136.553776 94.510328 
L 136.878755 95.756726 
L 137.203735 132.278213 
L 137.528714 131.397476 
L 137.853694 128.581739 
L 138.178673 129.270435 
L 138.503653 116.528735 
L 138.828632 121.564428 
L 139.153612 111.993145 
L 139.478591 112.531997 
L 139.803571 108.482567 
L 140.12855 119.382324 
L 140.45353 111.274329 
L 140.778509 93.005037 
L 141.103489 95.432926 
L 141.428468 98.748648 
L 141.753448 109.738103 
L 142.078428 129.992175 
L 142.403407 128.245445 
L 143.053366 112.33022 
L 143.378346 108.444733 
L 143.703325 99.377014 
L 144.028305 128.584034 
L 144.353284 127.97726 
L 144.678264 113.815765 
L 145.003243 107.070838 
L 145.328223 104.26685 
L 145.653202 118.718779 
L 145.978182 117.010127 
L 146.303161 106.635859 
L 146.628141 108.539314 
L 146.95312 129.208262 
L 147.2781 129.315752 
L 147.603079 140.000824 
L 148.253038 129.061542 
L 148.578018 116.591842 
L 148.902998 131.333271 
L 149.227977 128.323008 
L 149.552957 119.468553 
L 149.877936 121.334601 
L 150.202916 135.893588 
L 150.527895 134.450063 
L 150.852875 124.460621 
L 151.502834 112.570908 
L 152.152793 107.018067 
L 152.477772 94.423751 
L 152.802752 106.278728 
L 153.127731 98.910309 
L 153.452711 100.514132 
L 153.77769 90.530877 
L 154.10267 91.891397 
L 154.427649 99.259643 
L 154.752629 98.157398 
L 155.077609 88.450027 
L 155.402588 86.485193 
L 155.727568 102.276578 
L 156.052547 90.202823 
L 156.702506 109.888485 
L 157.352465 107.226826 
L 158.002424 96.705688 
L 158.327404 94.061525 
L 158.977363 82.463745 
L 159.302342 76.578163 
L 159.627322 82.839704 
L 159.952301 100.905835 
L 160.277281 101.609229 
L 160.60226 92.923994 
L 160.92724 115.37479 
L 161.252219 103.656313 
L 161.577199 96.69026 
L 161.902179 80.498307 
L 162.227158 72.39084 
L 162.552138 83.630786 
L 163.202097 91.067984 
L 163.527076 82.486255 
L 163.852056 115.380423 
L 164.177035 116.70882 
L 164.502015 99.797971 
L 164.826994 115.048164 
L 165.151974 122.283771 
L 165.476953 102.757952 
L 165.801933 102.240661 
L 166.126912 118.851738 
L 166.451892 118.349696 
L 166.776871 118.198216 
L 167.101851 94.669089 
L 167.42683 92.622791 
L 167.75181 89.310708 
L 168.07679 94.641868 
L 168.401769 93.095089 
L 168.726749 90.965199 
L 169.051728 94.618839 
L 169.376708 109.648472 
L 169.701687 112.898912 
L 170.026667 128.136793 
L 170.351646 136.504462 
L 170.676626 133.087176 
L 171.001605 127.389996 
L 171.326585 114.767884 
L 171.976544 100.479951 
L 172.301523 102.987706 
L 172.626503 102.488057 
L 172.951482 101.401573 
L 173.276462 96.531844 
L 173.601441 102.867904 
L 173.926421 104.311712 
L 174.2514 99.377171 
L 174.57638 91.971583 
L 174.90136 91.705412 
L 175.226339 86.451268 
L 175.551319 98.491936 
L 175.876298 94.738676 
L 176.201278 101.925778 
L 176.526257 116.923576 
L 177.176216 99.160387 
L 177.501196 118.020885 
L 177.826175 123.273393 
L 178.476134 113.918025 
L 178.801114 122.944361 
L 179.126093 102.65554 
L 179.451073 137.084051 
L 179.776052 130.510185 
L 180.101032 137.509501 
L 180.426011 121.713648 
L 180.750991 118.493671 
L 181.075971 119.673286 
L 181.40095 111.431989 
L 181.72593 113.923637 
L 182.050909 123.997178 
L 182.375889 122.476 
L 182.700868 117.740952 
L 183.025848 107.011152 
L 183.350827 102.903251 
L 183.675807 91.802499 
L 184.000786 114.150252 
L 184.325766 104.676301 
L 184.650745 117.546602 
L 185.625684 139.616633 
L 185.950663 135.047888 
L 186.275643 137.564482 
L 186.600622 127.413664 
L 186.925602 125.759992 
L 187.250581 139.659824 
L 187.575561 121.921982 
L 187.900541 129.07908 
L 188.22552 116.650117 
L 188.5505 116.806641 
L 188.875479 105.730226 
L 189.200459 117.518857 
L 189.525438 105.708573 
L 190.175397 100.625678 
L 190.500377 105.179162 
L 190.825356 84.642129 
L 191.150336 101.139555 
L 191.475315 89.490971 
L 191.800295 86.383631 
L 192.125274 88.161358 
L 192.775233 85.438447 
L 193.100213 87.912273 
L 193.425192 94.750991 
L 193.750172 98.327632 
L 194.075152 86.633476 
L 194.400131 86.766896 
L 195.05009 110.84346 
L 195.700049 109.110054 
L 196.025029 112.421066 
L 196.350008 118.067266 
L 196.674988 106.977019 
L 197.324947 101.740876 
L 197.649926 100.705098 
L 197.974906 89.542856 
L 198.299885 87.086983 
L 198.624865 100.081671 
L 198.949844 121.904836 
L 199.274824 111.551316 
L 199.599803 115.588437 
L 199.924783 110.595031 
L 200.249762 102.857516 
L 200.574742 102.543457 
L 200.899722 92.827998 
L 201.224701 127.220933 
L 201.549681 121.236679 
L 201.87466 134.971986 
L 202.19964 126.795189 
L 202.524619 107.027555 
L 202.849599 121.649348 
L 203.174578 121.458307 
L 203.499558 122.781779 
L 203.824537 109.881589 
L 204.149517 87.82838 
L 204.474496 76.732668 
L 204.799476 84.504018 
L 205.124455 74.455485 
L 205.449435 77.404584 
L 205.774414 105.870956 
L 206.099394 109.638043 
L 206.424373 96.635699 
L 206.749353 101.256337 
L 207.074333 101.211106 
L 207.399312 91.507526 
L 207.724292 104.831037 
L 208.049271 110.75674 
L 208.69923 134.433828 
L 209.02421 127.878785 
L 209.674169 118.959987 
L 209.999148 108.903959 
L 210.324128 91.330335 
L 210.649107 93.751506 
L 210.974087 109.127775 
L 211.624046 96.131239 
L 211.949025 100.763968 
L 212.598984 92.80396 
L 212.923964 82.714441 
L 213.248943 92.498102 
L 213.573923 98.394938 
L 213.898903 109.782219 
L 214.223882 101.784776 
L 214.548862 103.034827 
L 214.873841 106.750728 
L 215.198821 105.618726 
L 215.5238 101.228406 
L 215.84878 106.71581 
L 216.173759 94.006038 
L 216.498739 98.247351 
L 216.823718 109.490777 
L 217.148698 101.740862 
L 217.798657 76.363974 
L 218.123636 96.79118 
L 218.448616 104.097632 
L 218.773595 97.864045 
L 219.098575 106.368709 
L 219.423554 106.193853 
L 219.748534 98.229464 
L 220.073514 105.892813 
L 220.398493 95.10151 
L 220.723473 95.321127 
L 221.048452 94.12193 
L 221.373432 90.79645 
L 221.698411 109.262593 
L 222.023391 89.930398 
L 222.34837 95.146041 
L 222.67335 88.863678 
L 222.998329 71.823577 
L 223.323309 61.415177 
L 223.648288 77.202319 
L 223.973268 58.827389 
L 224.298247 78.127542 
L 224.623227 71.118827 
L 224.948206 88.088067 
L 225.273186 77.739062 
L 225.598165 78.310205 
L 225.923145 80.313154 
L 226.248124 74.021547 
L 226.573104 74.497841 
L 226.898084 76.215473 
L 227.223063 79.415054 
L 227.548043 73.753249 
L 227.873022 80.741318 
L 228.198002 94.722466 
L 228.522981 90.269704 
L 228.847961 125.285638 
L 229.822899 101.483414 
L 230.147879 96.189162 
L 230.472858 102.963755 
L 230.797838 89.471348 
L 231.122817 109.773259 
L 231.447797 108.047272 
L 231.772776 103.732923 
L 232.422735 124.657126 
L 232.747715 132.110232 
L 233.397674 109.448049 
L 233.722654 93.779852 
L 234.047633 104.732829 
L 234.697592 115.935914 
L 235.022572 128.592168 
L 235.347551 131.043951 
L 235.672531 116.074441 
L 235.99751 111.684578 
L 236.32249 97.001226 
L 236.647469 94.993819 
L 236.972449 91.101869 
L 237.297428 82.105981 
L 237.622408 95.392987 
L 237.947387 101.426887 
L 238.272367 112.832518 
L 238.597346 113.399662 
L 238.922326 114.59669 
L 239.247305 127.140281 
L 239.897265 101.402622 
L 240.222244 103.004614 
L 240.547224 99.644856 
L 240.872203 98.123325 
L 241.197183 132.114785 
L 241.522162 117.059925 
L 241.847142 107.648218 
L 242.497101 96.245799 
L 243.14706 71.13953 
L 243.472039 85.018488 
L 243.797019 84.105899 
L 244.121998 87.320132 
L 244.446978 75.283943 
L 244.771957 68.372824 
L 245.096937 83.522799 
L 245.421916 79.478601 
L 245.746896 85.520333 
L 246.071876 74.206829 
L 246.396855 73.393716 
L 246.721835 89.8213 
L 247.046814 87.821407 
L 247.371794 92.047641 
L 247.696773 88.235702 
L 248.021753 99.880565 
L 248.346732 103.870792 
L 248.671712 99.808761 
L 248.996691 99.64168 
L 249.321671 93.13019 
L 249.64665 89.478951 
L 249.97163 81.284325 
L 250.296609 87.877074 
L 250.621589 90.228398 
L 250.946568 77.608845 
L 251.271548 75.446882 
L 251.596527 94.818419 
L 251.921507 81.736719 
L 252.246486 85.147634 
L 252.571466 90.807068 
L 252.896446 85.420717 
L 253.221425 93.616885 
L 253.546405 105.033287 
L 254.196364 117.794534 
L 254.521343 115.119057 
L 254.846323 99.023495 
L 255.171302 101.777462 
L 255.496282 101.114675 
L 255.821261 100.073894 
L 256.146241 101.429254 
L 256.47122 101.196899 
L 256.7962 97.046881 
L 257.121179 90.975945 
L 257.446159 89.521399 
L 257.771138 84.121644 
L 258.096118 86.222987 
L 258.421097 110.966875 
L 259.071057 96.319504 
L 259.396036 95.266053 
L 260.370975 133.93272 
L 261.020934 106.809888 
L 261.345913 108.305098 
L 261.670893 99.448966 
L 261.995872 82.915319 
L 262.320852 83.111 
L 262.645831 81.661279 
L 263.29579 107.381514 
L 263.62077 141.851783 
L 263.945749 129.118794 
L 264.270729 121.087609 
L 264.595708 116.506752 
L 264.920688 115.954262 
L 265.245667 117.223521 
L 265.570647 105.399889 
L 266.220606 132.659595 
L 266.545586 123.030283 
L 266.870565 126.565838 
L 267.195545 127.680959 
L 267.845504 96.781606 
L 268.170483 103.320372 
L 268.495463 104.218956 
L 268.820442 113.361513 
L 269.145422 109.813238 
L 269.470401 118.240256 
L 269.795381 111.041927 
L 270.12036 108.136481 
L 270.44534 94.650626 
L 271.095299 82.845864 
L 271.420278 79.467438 
L 271.745258 84.978707 
L 272.070238 79.507295 
L 272.395217 84.693205 
L 272.720197 99.346902 
L 273.045176 104.59024 
L 273.370156 88.279465 
L 273.695135 88.841609 
L 274.020115 84.275508 
L 274.345094 110.581405 
L 274.995053 117.010669 
L 275.320033 134.763138 
L 275.969992 117.65003 
L 276.294971 120.895155 
L 276.619951 118.183483 
L 276.94493 105.238471 
L 277.594889 109.771201 
L 277.919869 97.71382 
L 278.244848 120.543416 
L 278.569828 106.275574 
L 278.894808 104.673151 
L 279.219787 122.272459 
L 279.544767 122.024878 
L 279.869746 112.001295 
L 280.194726 106.712119 
L 280.519705 98.604406 
L 280.844685 107.552469 
L 281.494644 111.79672 
L 281.819623 109.106847 
L 282.144603 103.611253 
L 282.469582 92.18979 
L 282.794562 98.040277 
L 283.119541 93.639904 
L 283.444521 94.676977 
L 283.7695 81.045862 
L 284.09448 93.404333 
L 284.419459 99.842563 
L 284.744439 92.394435 
L 285.069419 90.28834 
L 285.394398 86.678872 
L 286.044357 58.810275 
L 286.369337 94.854209 
L 286.694316 87.178574 
L 287.019296 85.003067 
L 287.344275 103.912499 
L 287.669255 86.868987 
L 287.994234 77.758089 
L 288.644193 68.821449 
L 288.969173 54.929472 
L 289.294152 53.568 
L 289.619132 85.228692 
L 289.944111 87.150209 
L 290.59407 97.631071 
L 290.91905 120.372353 
L 291.893989 105.351641 
L 292.218968 122.16698 
L 292.868927 110.717289 
L 293.193907 111.768457 
L 293.518886 117.03845 
L 293.843866 111.776583 
L 294.493825 96.833786 
L 294.818804 106.509935 
L 295.143784 108.523926 
L 295.468763 108.690157 
L 295.793743 109.198432 
L 296.118722 110.758553 
L 296.443702 105.142223 
L 296.768681 118.466597 
L 297.74362 79.86364 
L 298.0686 86.932821 
L 298.393579 77.413556 
L 298.718559 73.775595 
L 299.043538 61.16322 
L 299.368518 62.52315 
L 299.693497 80.124185 
L 300.018477 81.16416 
L 300.343456 88.700502 
L 300.993415 90.624137 
L 301.318395 97.629741 
L 301.643374 92.296938 
L 301.968354 97.98871 
L 302.293333 109.623038 
L 302.618313 107.596553 
L 302.943292 109.119661 
L 303.268272 98.033897 
L 303.593251 116.009309 
L 303.918231 106.053058 
L 304.24321 111.778131 
L 304.56819 108.081497 
L 304.89317 99.828596 
L 305.218149 119.503418 
L 305.868108 87.841369 
L 306.193088 88.0749 
L 306.518067 86.368788 
L 306.843047 90.224137 
L 307.168026 103.144271 
L 307.493006 99.033483 
L 307.817985 98.316778 
L 308.142965 98.390786 
L 308.792924 84.009294 
L 309.117903 97.769571 
L 309.442883 99.444153 
L 309.767862 104.046265 
L 310.092842 123.116997 
L 310.417821 128.313666 
L 310.742801 128.507154 
L 311.067781 140.441321 
L 311.39276 122.516532 
L 311.71774 122.186921 
L 312.042719 123.84716 
L 312.367699 119.126915 
L 313.017658 104.600524 
L 313.342637 91.158347 
L 313.667617 97.049577 
L 313.992596 96.82121 
L 314.317576 94.334326 
L 314.642555 84.052154 
L 314.967535 85.66617 
L 315.292514 96.26155 
L 315.617494 93.19985 
L 315.942473 100.560169 
L 316.267453 129.204696 
L 317.242391 116.127617 
L 317.567371 105.078963 
L 317.892351 105.494176 
L 318.54231 79.433654 
L 318.867289 101.864838 
L 319.192269 95.928981 
L 319.517248 104.343577 
L 319.842228 103.64606 
L 320.167207 102.486839 
L 320.492187 98.715006 
L 320.817166 100.211934 
L 321.142146 118.731838 
L 321.467125 116.739027 
L 322.117084 101.948877 
L 322.442064 121.397043 
L 322.767043 120.136975 
L 323.092023 144.174146 
L 323.741982 133.500491 
L 324.066962 129.188572 
L 324.716921 102.270129 
L 325.0419 95.165808 
L 325.36688 99.856548 
L 325.691859 110.105696 
L 326.016839 108.079167 
L 326.341818 101.506774 
L 326.666798 106.414126 
L 326.991777 95.495135 
L 327.316757 103.59485 
L 327.641736 92.867959 
L 327.966716 99.425892 
L 328.291695 99.258722 
L 328.616675 100.177812 
L 328.941654 97.294292 
L 329.266634 87.129379 
L 329.591613 108.32728 
L 329.916593 98.159976 
L 330.241572 115.407498 
L 330.566552 114.227214 
L 330.891532 118.565274 
L 331.541491 105.203744 
L 331.86647 105.446718 
L 332.19145 99.934023 
L 332.516429 98.803635 
L 332.841409 99.353571 
L 333.166388 89.139952 
L 333.491368 98.801462 
L 333.816347 80.202627 
L 334.141327 101.798454 
L 334.466306 99.638106 
L 334.791286 86.985222 
L 335.116265 89.141606 
L 335.441245 99.845451 
L 335.766224 101.491315 
L 336.091204 110.509072 
L 336.416183 103.538862 
L 336.741163 104.759605 
L 337.066143 95.836381 
L 337.391122 83.780576 
L 337.716102 83.259275 
L 338.366061 100.51139 
L 338.69104 94.178666 
L 339.01602 91.869029 
L 339.340999 104.468323 
L 339.665979 92.588955 
L 339.990958 94.947408 
L 340.315938 89.913985 
L 340.640917 94.88179 
L 340.965897 97.905615 
L 341.290876 121.021477 
L 341.615856 111.098332 
L 341.940835 107.389931 
L 342.265815 95.326499 
L 342.590794 88.915688 
L 342.915774 79.264006 
L 343.565733 90.791612 
L 343.890713 102.590419 
L 344.215692 88.406618 
L 344.540672 86.780979 
L 344.865651 76.000293 
L 345.190631 89.574805 
L 345.51561 87.622862 
L 345.84059 101.570225 
L 346.165569 102.595206 
L 346.815528 97.177556 
L 347.140508 108.686119 
L 347.465487 110.922542 
L 347.790467 110.655809 
L 348.115446 118.173673 
L 348.440426 120.762062 
L 348.765405 118.412453 
L 349.415364 90.986953 
L 349.740344 91.274456 
L 350.065324 88.2994 
L 350.390303 112.700241 
L 350.715283 113.527917 
L 351.040262 121.311008 
L 351.365242 111.106208 
L 351.690221 105.18425 
L 352.015201 101.940613 
L 352.34018 96.644162 
L 352.66516 88.195014 
L 352.990139 84.643186 
L 353.315119 84.587996 
L 353.640098 101.486745 
L 353.965078 94.032106 
L 354.290057 101.047567 
L 354.615037 97.106029 
L 354.940016 95.120912 
L 355.264996 99.805054 
L 355.589975 101.36945 
L 355.914955 120.565905 
L 356.239934 120.041747 
L 356.889894 99.254816 
L 357.214873 121.575382 
L 357.539853 132.858239 
L 358.189812 103.321059 
L 358.514791 109.319566 
L 358.839771 109.574865 
L 359.16475 101.848004 
L 359.814709 129.071926 
L 360.139689 128.529676 
L 360.464668 118.84844 
L 360.789648 117.32353 
L 361.114627 105.589101 
L 361.439607 108.134102 
L 361.764586 103.991524 
L 362.089566 104.584356 
L 362.414545 134.1653 
L 362.739525 134.601272 
L 363.064505 119.09894 
L 363.389484 123.726675 
L 363.714464 125.170032 
L 364.039443 125.070334 
L 364.364423 110.26253 
L 364.689402 102.687817 
L 365.014382 101.319351 
L 365.339361 94.8786 
L 365.664341 111.014845 
L 366.639279 92.342732 
L 366.964259 89.653642 
L 367.289238 83.632572 
L 367.614218 107.822699 
L 367.939197 91.112315 
L 368.264177 81.323286 
L 368.914136 83.171303 
L 369.239115 89.47675 
L 369.564095 88.522612 
L 369.889075 104.142179 
L 370.214054 101.178399 
L 370.539034 96.003655 
L 371.513972 70.600914 
L 371.838952 72.298735 
L 372.163931 94.592363 
L 372.488911 97.382263 
L 372.81389 108.990013 
L 373.13887 107.494234 
L 373.463849 95.392052 
L 373.788829 96.269018 
L 374.113808 110.058648 
L 374.438788 101.020592 
L 374.763767 103.07423 
L 375.088747 92.797239 
L 375.413726 86.670998 
L 375.738706 74.81946 
L 376.063686 68.56377 
L 376.388665 64.802664 
L 377.038624 100.316869 
L 377.363604 101.09893 
L 377.688583 97.561656 
L 378.013563 101.477105 
L 378.338542 88.055417 
L 378.663522 99.95341 
L 378.988501 95.471535 
L 379.96344 63.316907 
L 380.288419 89.571182 
L 380.613399 92.298957 
L 380.938378 82.421847 
L 381.263358 85.705053 
L 382.238296 64.89969 
L 382.563276 61.393125 
L 382.888256 67.237839 
L 383.213235 79.306197 
L 383.863194 92.944026 
L 384.188174 82.663603 
L 384.513153 116.954786 
L 384.838133 117.255387 
L 385.488092 118.404406 
L 385.813071 123.174411 
L 386.138051 123.612678 
L 386.46303 120.433906 
L 387.112989 91.310378 
L 387.437969 86.347283 
L 387.762948 84.860548 
L 388.087928 90.361158 
L 388.737887 95.39477 
L 389.062867 80.948972 
L 389.387846 90.713143 
L 389.712826 87.820779 
L 390.037805 148.34396 
L 390.362785 141.47671 
L 390.687764 124.484976 
L 391.012744 118.404267 
L 391.337723 121.882737 
L 391.662703 120.517453 
L 391.987682 129.880158 
L 392.312662 123.888647 
L 392.637641 114.565527 
L 392.962621 120.053351 
L 393.2876 118.987786 
L 393.61258 122.030284 
L 394.262539 114.21445 
L 394.587518 119.415323 
L 394.912498 111.513741 
L 395.562457 99.559009 
L 395.887437 123.72589 
L 396.212416 104.116398 
L 396.537396 97.631924 
L 396.862375 96.270833 
L 397.187355 108.403481 
L 397.837314 81.312251 
L 398.162293 113.222495 
L 398.487273 117.302677 
L 398.487273 117.302677 
" style="fill:none;stroke:#1f77b4;stroke-linecap:square;stroke-width:1.5;"/>
   </g>
   <g id="line2d_13">
    <path clip-path="url(#p26cd9caa34)" d="M 73.832727 290.172632 
L 78.70742 290.358641 
L 88.131826 290.922052 
L 89.106765 290.8659 
L 91.706601 290.92596 
L 93.331499 290.931161 
L 99.18113 291.088938 
L 104.055823 291.101731 
L 106.655659 291.238908 
L 107.305618 291.175888 
L 108.930516 291.21237 
L 110.555414 291.217757 
L 111.530352 291.281096 
L 112.505291 291.303593 
L 113.480229 291.333098 
L 115.430106 291.308345 
L 116.080066 291.280475 
L 119.97982 291.336754 
L 121.279738 291.395665 
L 125.179492 291.413886 
L 127.454349 291.467657 
L 128.104308 291.452955 
L 130.054185 291.502614 
L 131.354103 291.568634 
L 135.253857 291.508167 
L 136.553776 291.651398 
L 151.177854 291.820769 
L 154.10267 291.974624 
L 155.077609 292.006944 
L 156.377527 291.987247 
L 157.352465 291.969115 
L 159.627322 292.091675 
L 160.277281 292.028166 
L 160.60226 292.060615 
L 160.92724 291.974901 
L 162.227158 292.1676 
L 163.202097 292.111798 
L 163.527076 292.150943 
L 163.852056 291.989987 
L 166.776871 292.021195 
L 167.42683 292.132188 
L 169.051728 292.152231 
L 170.351646 291.986954 
L 176.201278 292.228232 
L 176.526257 292.164302 
L 177.176216 292.257883 
L 177.826175 292.162571 
L 179.126093 292.272176 
L 179.451073 292.113536 
L 181.72593 292.272114 
L 182.375889 292.239717 
L 184.325766 292.359065 
L 185.625684 292.201785 
L 190.825356 292.552249 
L 191.150336 292.476653 
L 192.125274 292.555406 
L 194.725111 292.547882 
L 195.37507 292.489928 
L 198.624865 292.588265 
L 198.949844 292.480958 
L 199.599803 292.527768 
L 200.899722 292.674695 
L 201.224701 292.487772 
L 202.524619 292.632184 
L 203.174578 292.560984 
L 204.149517 292.652628 
L 205.124455 292.733102 
L 205.449435 292.724233 
L 205.774414 292.584 
L 207.074333 292.627747 
L 207.399312 292.684151 
L 208.69923 292.46167 
L 210.649107 292.729302 
L 210.974087 292.634161 
L 212.274005 292.724598 
L 213.573923 292.735076 
L 214.223882 292.733589 
L 217.148698 292.782986 
L 217.798657 292.936274 
L 218.448616 292.769759 
L 219.098575 292.769421 
L 222.67335 292.935123 
L 223.323309 293.094329 
L 223.648288 293.013956 
L 223.973268 293.119409 
L 224.298247 293.018704 
L 226.898084 293.051547 
L 228.522981 292.986251 
L 228.847961 292.784627 
L 230.147879 292.984796 
L 230.472858 292.948572 
L 230.797838 293.034206 
L 231.122817 292.898737 
L 232.097756 292.865819 
L 232.747715 292.764795 
L 233.722654 293.02339 
L 235.347551 292.820734 
L 236.32249 293.058855 
L 237.947387 293.066599 
L 238.597346 293.002788 
L 240.222244 293.089558 
L 240.872203 293.132185 
L 241.197183 292.907822 
L 242.172121 293.123831 
L 243.797019 293.270721 
L 244.446978 293.327513 
L 244.771957 293.369703 
L 245.096937 293.280833 
L 246.396855 293.365027 
L 247.046814 293.288503 
L 248.996691 293.242981 
L 251.271548 293.423778 
L 251.596527 293.302366 
L 252.246486 293.371395 
L 254.521343 293.205395 
L 254.846323 293.318412 
L 256.47122 293.318985 
L 258.096118 293.436708 
L 258.421097 293.247721 
L 259.396036 293.371426 
L 260.370975 293.092958 
L 261.020934 293.302786 
L 261.670893 293.356763 
L 262.320852 293.482587 
L 262.970811 293.407949 
L 263.29579 293.332414 
L 263.62077 293.075949 
L 264.595708 293.290248 
L 265.895627 293.272055 
L 266.220606 293.190378 
L 266.870565 293.247585 
L 267.195545 293.243622 
L 267.845504 293.484915 
L 269.470401 293.337663 
L 271.420278 293.662992 
L 273.045176 293.489878 
L 273.370156 293.61465 
L 274.020115 293.646306 
L 274.345094 293.461669 
L 274.995053 293.417371 
L 275.320033 293.280078 
L 276.294971 293.412256 
L 277.919869 293.612907 
L 278.244848 293.451165 
L 278.894808 293.588747 
L 279.219787 293.453907 
L 279.869746 293.541625 
L 280.844685 293.587461 
L 282.144603 293.632201 
L 282.469582 293.724055 
L 283.119541 293.701817 
L 285.394398 293.782195 
L 286.044357 293.99093 
L 286.369337 293.73844 
L 287.019296 293.841245 
L 287.344275 293.701549 
L 287.994234 293.895977 
L 289.294152 294.083334 
L 289.619132 293.871045 
L 290.59407 293.774119 
L 290.91905 293.592113 
L 291.893989 293.732072 
L 292.218968 293.603026 
L 293.193907 293.714989 
L 293.843866 293.73263 
L 294.493825 293.866098 
L 295.143784 293.78576 
L 297.093661 293.833049 
L 297.74362 294.052388 
L 298.0686 294.000097 
L 299.368518 294.201245 
L 299.693497 294.075289 
L 301.968354 293.95476 
L 302.293333 293.851646 
L 303.268272 293.954556 
L 303.593251 293.812583 
L 303.918231 293.904466 
L 304.56819 293.901216 
L 304.89317 293.976224 
L 305.218149 293.809062 
L 306.193088 294.088447 
L 306.843047 294.083739 
L 307.168026 293.987034 
L 308.792924 294.15969 
L 309.442883 294.044521 
L 309.767862 294.00943 
L 310.417821 293.813509 
L 310.742801 293.823377 
L 311.067781 293.696366 
L 311.39276 293.870433 
L 312.692678 293.963896 
L 313.667617 294.117063 
L 315.942473 294.124896 
L 316.267453 293.88528 
L 318.21733 294.249232 
L 318.54231 294.350372 
L 318.867289 294.167031 
L 319.192269 294.224693 
L 319.517248 294.095188 
L 320.817166 294.146733 
L 321.142146 293.99213 
L 321.792105 294.070143 
L 322.117084 294.152638 
L 322.442064 293.973998 
L 322.767043 293.99113 
L 323.092023 293.803853 
L 324.716921 294.222592 
L 325.36688 294.250628 
L 325.691859 294.161635 
L 327.966716 294.295812 
L 329.916593 294.334554 
L 330.241572 294.177643 
L 332.841409 294.362228 
L 333.166388 294.459828 
L 333.491368 294.379173 
L 333.816347 294.546786 
L 334.141327 294.360586 
L 335.766224 294.3939 
L 336.091204 294.316514 
L 337.716102 294.586939 
L 338.366061 294.446863 
L 339.01602 294.536711 
L 339.340999 294.421963 
L 339.665979 294.539919 
L 340.965897 294.489414 
L 341.290876 294.286348 
L 342.915774 294.700736 
L 343.890713 294.503659 
L 344.540672 294.651067 
L 344.865651 294.754753 
L 345.190631 294.640929 
L 345.51561 294.663608 
L 345.84059 294.53247 
L 348.765405 294.410554 
L 349.415364 294.68273 
L 350.065324 294.714689 
L 350.390303 294.482593 
L 351.690221 294.568939 
L 353.315119 294.799755 
L 353.640098 294.642826 
L 353.965078 294.724569 
L 354.615037 294.709298 
L 355.589975 294.683811 
L 355.914955 294.48608 
L 356.239934 294.494687 
L 356.889894 294.711064 
L 357.539853 294.364376 
L 358.189812 294.681921 
L 358.839771 294.624192 
L 359.16475 294.707545 
L 359.814709 294.40399 
L 360.789648 294.544392 
L 361.114627 294.671039 
L 362.089566 294.699634 
L 362.414545 294.409396 
L 362.739525 294.419146 
L 363.064505 294.596582 
L 364.039443 294.543378 
L 364.689402 294.792182 
L 365.339361 294.87995 
L 365.664341 294.706135 
L 367.289238 294.985766 
L 367.614218 294.752279 
L 368.264177 295.021889 
L 369.564095 294.985723 
L 369.889075 294.850014 
L 370.864013 295.035734 
L 371.513972 295.202208 
L 371.838952 295.192842 
L 372.163931 294.975179 
L 373.463849 294.991251 
L 373.788829 294.992132 
L 374.113808 294.848611 
L 375.088747 295.039416 
L 376.388665 295.326663 
L 377.038624 294.972304 
L 378.013563 294.964817 
L 378.338542 295.104682 
L 378.663522 294.968123 
L 379.313481 295.150471 
L 379.96344 295.349529 
L 380.288419 295.096746 
L 380.613399 295.07469 
L 380.938378 295.183171 
L 381.588337 295.230651 
L 382.888256 295.357297 
L 383.863194 295.100715 
L 384.188174 295.213246 
L 384.513153 294.869771 
L 386.46303 294.855363 
L 387.437969 295.235381 
L 388.087928 295.20522 
L 388.737887 295.156313 
L 389.062867 295.309103 
L 389.387846 295.216734 
L 389.712826 295.251701 
L 390.037805 294.610339 
L 390.362785 294.701397 
L 390.687764 294.913421 
L 391.337723 294.950105 
L 391.662703 294.970295 
L 391.987682 294.866089 
L 392.962621 294.979982 
L 395.237477 295.156177 
L 395.562457 295.244333 
L 395.887437 294.987078 
L 396.212416 295.221314 
L 396.862375 295.312162 
L 397.187355 295.181979 
L 397.837314 295.488 
L 398.162293 295.1259 
L 398.487273 295.090097 
L 398.487273 295.090097 
" style="fill:none;stroke:#ff7f0e;stroke-linecap:square;stroke-width:1.5;"/>
   </g>
   <g id="patch_3">
    <path d="M 57.6 307.584 
L 57.6 41.472 
" style="fill:none;stroke:#000000;stroke-linecap:square;stroke-linejoin:miter;stroke-width:0.8;"/>
   </g>
   <g id="patch_4">
    <path d="M 414.72 307.584 
L 414.72 41.472 
" style="fill:none;stroke:#000000;stroke-linecap:square;stroke-linejoin:miter;stroke-width:0.8;"/>
   </g>
   <g id="patch_5">
    <path d="M 57.6 307.584 
L 414.72 307.584 
" style="fill:none;stroke:#000000;stroke-linecap:square;stroke-linejoin:miter;stroke-width:0.8;"/>
   </g>
   <g id="patch_6">
    <path d="M 57.6 41.472 
L 414.72 41.472 
" style="fill:none;stroke:#000000;stroke-linecap:square;stroke-linejoin:miter;stroke-width:0.8;"/>
   </g>
  </g>
 </g>
 <defs>
  <clipPath id="p26cd9caa34">
   <rect height="266.112" width="357.12" x="57.6" y="41.472"/>
  </clipPath>
 </defs>
</svg>
