<?xml version="1.0" encoding="utf-8" standalone="no"?>
<!DOCTYPE svg PUBLIC "-//W3C//DTD SVG 1.1//EN"
  "http://www.w3.org/Graphics/SVG/1.1/DTD/svg11.dtd">
<!-- Created with matplotlib (https://matplotlib.org/) -->
<svg height="345.6pt" version="1.1" viewBox="0 0 460.8 345.6" width="460.8pt" xmlns="http://www.w3.org/2000/svg" xmlns:xlink="http://www.w3.org/1999/xlink">
 <metadata>
  <rdf:RDF xmlns:cc="http://creativecommons.org/ns#" xmlns:dc="http://purl.org/dc/elements/1.1/" xmlns:rdf="http://www.w3.org/1999/02/22-rdf-syntax-ns#">
   <cc:Work>
    <dc:type rdf:resource="http://purl.org/dc/dcmitype/StillImage"/>
    <dc:date>2020-10-07T15:22:59.666877</dc:date>
    <dc:format>image/svg+xml</dc:format>
    <dc:creator>
     <cc:Agent>
      <dc:title>Matplotlib v3.3.2, https://matplotlib.org/</dc:title>
     </cc:Agent>
    </dc:creator>
   </cc:Work>
  </rdf:RDF>
 </metadata>
 <defs>
  <style type="text/css">*{stroke-linecap:butt;stroke-linejoin:round;}</style>
 </defs>
 <g id="figure_1">
  <g id="patch_1">
   <path d="M 0 345.6 
L 460.8 345.6 
L 460.8 0 
L 0 0 
z
" style="fill:#ffffff;"/>
  </g>
  <g id="axes_1">
   <g id="patch_2">
    <path d="M 57.6 307.584 
L 414.72 307.584 
L 414.72 41.472 
L 57.6 41.472 
z
" style="fill:#ffffff;"/>
   </g>
   <g id="matplotlib.axis_1">
    <g id="xtick_1">
     <g id="line2d_1">
      <defs>
       <path d="M 0 0 
L 0 3.5 
" id="m9bf010e855" style="stroke:#000000;stroke-width:0.8;"/>
      </defs>
      <g>
       <use style="stroke:#000000;stroke-width:0.8;" x="73.832727" xlink:href="#m9bf010e855" y="307.584"/>
      </g>
     </g>
     <g id="text_1">
      <!-- 0 -->
      <g transform="translate(70.651477 322.182437)scale(0.1 -0.1)">
       <defs>
        <path d="M 31.78125 66.40625 
Q 24.171875 66.40625 20.328125 58.90625 
Q 16.5 51.421875 16.5 36.375 
Q 16.5 21.390625 20.328125 13.890625 
Q 24.171875 6.390625 31.78125 6.390625 
Q 39.453125 6.390625 43.28125 13.890625 
Q 47.125 21.390625 47.125 36.375 
Q 47.125 51.421875 43.28125 58.90625 
Q 39.453125 66.40625 31.78125 66.40625 
z
M 31.78125 74.21875 
Q 44.046875 74.21875 50.515625 64.515625 
Q 56.984375 54.828125 56.984375 36.375 
Q 56.984375 17.96875 50.515625 8.265625 
Q 44.046875 -1.421875 31.78125 -1.421875 
Q 19.53125 -1.421875 13.0625 8.265625 
Q 6.59375 17.96875 6.59375 36.375 
Q 6.59375 54.828125 13.0625 64.515625 
Q 19.53125 74.21875 31.78125 74.21875 
z
" id="DejaVuSans-48"/>
       </defs>
       <use xlink:href="#DejaVuSans-48"/>
      </g>
     </g>
    </g>
    <g id="xtick_2">
     <g id="line2d_2">
      <g>
       <use style="stroke:#000000;stroke-width:0.8;" x="138.828632" xlink:href="#m9bf010e855" y="307.584"/>
      </g>
     </g>
     <g id="text_2">
      <!-- 20 -->
      <g transform="translate(132.466132 322.182437)scale(0.1 -0.1)">
       <defs>
        <path d="M 19.1875 8.296875 
L 53.609375 8.296875 
L 53.609375 0 
L 7.328125 0 
L 7.328125 8.296875 
Q 12.9375 14.109375 22.625 23.890625 
Q 32.328125 33.6875 34.8125 36.53125 
Q 39.546875 41.84375 41.421875 45.53125 
Q 43.3125 49.21875 43.3125 52.78125 
Q 43.3125 58.59375 39.234375 62.25 
Q 35.15625 65.921875 28.609375 65.921875 
Q 23.96875 65.921875 18.8125 64.3125 
Q 13.671875 62.703125 7.8125 59.421875 
L 7.8125 69.390625 
Q 13.765625 71.78125 18.9375 73 
Q 24.125 74.21875 28.421875 74.21875 
Q 39.75 74.21875 46.484375 68.546875 
Q 53.21875 62.890625 53.21875 53.421875 
Q 53.21875 48.921875 51.53125 44.890625 
Q 49.859375 40.875 45.40625 35.40625 
Q 44.1875 33.984375 37.640625 27.21875 
Q 31.109375 20.453125 19.1875 8.296875 
z
" id="DejaVuSans-50"/>
       </defs>
       <use xlink:href="#DejaVuSans-50"/>
       <use x="63.623047" xlink:href="#DejaVuSans-48"/>
      </g>
     </g>
    </g>
    <g id="xtick_3">
     <g id="line2d_3">
      <g>
       <use style="stroke:#000000;stroke-width:0.8;" x="203.824537" xlink:href="#m9bf010e855" y="307.584"/>
      </g>
     </g>
     <g id="text_3">
      <!-- 40 -->
      <g transform="translate(197.462037 322.182437)scale(0.1 -0.1)">
       <defs>
        <path d="M 37.796875 64.3125 
L 12.890625 25.390625 
L 37.796875 25.390625 
z
M 35.203125 72.90625 
L 47.609375 72.90625 
L 47.609375 25.390625 
L 58.015625 25.390625 
L 58.015625 17.1875 
L 47.609375 17.1875 
L 47.609375 0 
L 37.796875 0 
L 37.796875 17.1875 
L 4.890625 17.1875 
L 4.890625 26.703125 
z
" id="DejaVuSans-52"/>
       </defs>
       <use xlink:href="#DejaVuSans-52"/>
       <use x="63.623047" xlink:href="#DejaVuSans-48"/>
      </g>
     </g>
    </g>
    <g id="xtick_4">
     <g id="line2d_4">
      <g>
       <use style="stroke:#000000;stroke-width:0.8;" x="268.820442" xlink:href="#m9bf010e855" y="307.584"/>
      </g>
     </g>
     <g id="text_4">
      <!-- 60 -->
      <g transform="translate(262.457942 322.182437)scale(0.1 -0.1)">
       <defs>
        <path d="M 33.015625 40.375 
Q 26.375 40.375 22.484375 35.828125 
Q 18.609375 31.296875 18.609375 23.390625 
Q 18.609375 15.53125 22.484375 10.953125 
Q 26.375 6.390625 33.015625 6.390625 
Q 39.65625 6.390625 43.53125 10.953125 
Q 47.40625 15.53125 47.40625 23.390625 
Q 47.40625 31.296875 43.53125 35.828125 
Q 39.65625 40.375 33.015625 40.375 
z
M 52.59375 71.296875 
L 52.59375 62.3125 
Q 48.875 64.0625 45.09375 64.984375 
Q 41.3125 65.921875 37.59375 65.921875 
Q 27.828125 65.921875 22.671875 59.328125 
Q 17.53125 52.734375 16.796875 39.40625 
Q 19.671875 43.65625 24.015625 45.921875 
Q 28.375 48.1875 33.59375 48.1875 
Q 44.578125 48.1875 50.953125 41.515625 
Q 57.328125 34.859375 57.328125 23.390625 
Q 57.328125 12.15625 50.6875 5.359375 
Q 44.046875 -1.421875 33.015625 -1.421875 
Q 20.359375 -1.421875 13.671875 8.265625 
Q 6.984375 17.96875 6.984375 36.375 
Q 6.984375 53.65625 15.1875 63.9375 
Q 23.390625 74.21875 37.203125 74.21875 
Q 40.921875 74.21875 44.703125 73.484375 
Q 48.484375 72.75 52.59375 71.296875 
z
" id="DejaVuSans-54"/>
       </defs>
       <use xlink:href="#DejaVuSans-54"/>
       <use x="63.623047" xlink:href="#DejaVuSans-48"/>
      </g>
     </g>
    </g>
    <g id="xtick_5">
     <g id="line2d_5">
      <g>
       <use style="stroke:#000000;stroke-width:0.8;" x="333.816347" xlink:href="#m9bf010e855" y="307.584"/>
      </g>
     </g>
     <g id="text_5">
      <!-- 80 -->
      <g transform="translate(327.453847 322.182437)scale(0.1 -0.1)">
       <defs>
        <path d="M 31.78125 34.625 
Q 24.75 34.625 20.71875 30.859375 
Q 16.703125 27.09375 16.703125 20.515625 
Q 16.703125 13.921875 20.71875 10.15625 
Q 24.75 6.390625 31.78125 6.390625 
Q 38.8125 6.390625 42.859375 10.171875 
Q 46.921875 13.96875 46.921875 20.515625 
Q 46.921875 27.09375 42.890625 30.859375 
Q 38.875 34.625 31.78125 34.625 
z
M 21.921875 38.8125 
Q 15.578125 40.375 12.03125 44.71875 
Q 8.5 49.078125 8.5 55.328125 
Q 8.5 64.0625 14.71875 69.140625 
Q 20.953125 74.21875 31.78125 74.21875 
Q 42.671875 74.21875 48.875 69.140625 
Q 55.078125 64.0625 55.078125 55.328125 
Q 55.078125 49.078125 51.53125 44.71875 
Q 48 40.375 41.703125 38.8125 
Q 48.828125 37.15625 52.796875 32.3125 
Q 56.78125 27.484375 56.78125 20.515625 
Q 56.78125 9.90625 50.3125 4.234375 
Q 43.84375 -1.421875 31.78125 -1.421875 
Q 19.734375 -1.421875 13.25 4.234375 
Q 6.78125 9.90625 6.78125 20.515625 
Q 6.78125 27.484375 10.78125 32.3125 
Q 14.796875 37.15625 21.921875 38.8125 
z
M 18.3125 54.390625 
Q 18.3125 48.734375 21.84375 45.5625 
Q 25.390625 42.390625 31.78125 42.390625 
Q 38.140625 42.390625 41.71875 45.5625 
Q 45.3125 48.734375 45.3125 54.390625 
Q 45.3125 60.0625 41.71875 63.234375 
Q 38.140625 66.40625 31.78125 66.40625 
Q 25.390625 66.40625 21.84375 63.234375 
Q 18.3125 60.0625 18.3125 54.390625 
z
" id="DejaVuSans-56"/>
       </defs>
       <use xlink:href="#DejaVuSans-56"/>
       <use x="63.623047" xlink:href="#DejaVuSans-48"/>
      </g>
     </g>
    </g>
    <g id="xtick_6">
     <g id="line2d_6">
      <g>
       <use style="stroke:#000000;stroke-width:0.8;" x="398.812252" xlink:href="#m9bf010e855" y="307.584"/>
      </g>
     </g>
     <g id="text_6">
      <!-- 100 -->
      <g transform="translate(389.268502 322.182437)scale(0.1 -0.1)">
       <defs>
        <path d="M 12.40625 8.296875 
L 28.515625 8.296875 
L 28.515625 63.921875 
L 10.984375 60.40625 
L 10.984375 69.390625 
L 28.421875 72.90625 
L 38.28125 72.90625 
L 38.28125 8.296875 
L 54.390625 8.296875 
L 54.390625 0 
L 12.40625 0 
z
" id="DejaVuSans-49"/>
       </defs>
       <use xlink:href="#DejaVuSans-49"/>
       <use x="63.623047" xlink:href="#DejaVuSans-48"/>
       <use x="127.246094" xlink:href="#DejaVuSans-48"/>
      </g>
     </g>
    </g>
    <g id="text_7">
     <!-- Time (days) -->
     <g transform="translate(206.633437 335.860562)scale(0.1 -0.1)">
      <defs>
       <path d="M -0.296875 72.90625 
L 61.375 72.90625 
L 61.375 64.59375 
L 35.5 64.59375 
L 35.5 0 
L 25.59375 0 
L 25.59375 64.59375 
L -0.296875 64.59375 
z
" id="DejaVuSans-84"/>
       <path d="M 9.421875 54.6875 
L 18.40625 54.6875 
L 18.40625 0 
L 9.421875 0 
z
M 9.421875 75.984375 
L 18.40625 75.984375 
L 18.40625 64.59375 
L 9.421875 64.59375 
z
" id="DejaVuSans-105"/>
       <path d="M 52 44.1875 
Q 55.375 50.25 60.0625 53.125 
Q 64.75 56 71.09375 56 
Q 79.640625 56 84.28125 50.015625 
Q 88.921875 44.046875 88.921875 33.015625 
L 88.921875 0 
L 79.890625 0 
L 79.890625 32.71875 
Q 79.890625 40.578125 77.09375 44.375 
Q 74.3125 48.1875 68.609375 48.1875 
Q 61.625 48.1875 57.5625 43.546875 
Q 53.515625 38.921875 53.515625 30.90625 
L 53.515625 0 
L 44.484375 0 
L 44.484375 32.71875 
Q 44.484375 40.625 41.703125 44.40625 
Q 38.921875 48.1875 33.109375 48.1875 
Q 26.21875 48.1875 22.15625 43.53125 
Q 18.109375 38.875 18.109375 30.90625 
L 18.109375 0 
L 9.078125 0 
L 9.078125 54.6875 
L 18.109375 54.6875 
L 18.109375 46.1875 
Q 21.1875 51.21875 25.484375 53.609375 
Q 29.78125 56 35.6875 56 
Q 41.65625 56 45.828125 52.96875 
Q 50 49.953125 52 44.1875 
z
" id="DejaVuSans-109"/>
       <path d="M 56.203125 29.59375 
L 56.203125 25.203125 
L 14.890625 25.203125 
Q 15.484375 15.921875 20.484375 11.0625 
Q 25.484375 6.203125 34.421875 6.203125 
Q 39.59375 6.203125 44.453125 7.46875 
Q 49.3125 8.734375 54.109375 11.28125 
L 54.109375 2.78125 
Q 49.265625 0.734375 44.1875 -0.34375 
Q 39.109375 -1.421875 33.890625 -1.421875 
Q 20.796875 -1.421875 13.15625 6.1875 
Q 5.515625 13.8125 5.515625 26.8125 
Q 5.515625 40.234375 12.765625 48.109375 
Q 20.015625 56 32.328125 56 
Q 43.359375 56 49.78125 48.890625 
Q 56.203125 41.796875 56.203125 29.59375 
z
M 47.21875 32.234375 
Q 47.125 39.59375 43.09375 43.984375 
Q 39.0625 48.390625 32.421875 48.390625 
Q 24.90625 48.390625 20.390625 44.140625 
Q 15.875 39.890625 15.1875 32.171875 
z
" id="DejaVuSans-101"/>
       <path id="DejaVuSans-32"/>
       <path d="M 31 75.875 
Q 24.46875 64.65625 21.28125 53.65625 
Q 18.109375 42.671875 18.109375 31.390625 
Q 18.109375 20.125 21.3125 9.0625 
Q 24.515625 -2 31 -13.1875 
L 23.1875 -13.1875 
Q 15.875 -1.703125 12.234375 9.375 
Q 8.59375 20.453125 8.59375 31.390625 
Q 8.59375 42.28125 12.203125 53.3125 
Q 15.828125 64.359375 23.1875 75.875 
z
" id="DejaVuSans-40"/>
       <path d="M 45.40625 46.390625 
L 45.40625 75.984375 
L 54.390625 75.984375 
L 54.390625 0 
L 45.40625 0 
L 45.40625 8.203125 
Q 42.578125 3.328125 38.25 0.953125 
Q 33.9375 -1.421875 27.875 -1.421875 
Q 17.96875 -1.421875 11.734375 6.484375 
Q 5.515625 14.40625 5.515625 27.296875 
Q 5.515625 40.1875 11.734375 48.09375 
Q 17.96875 56 27.875 56 
Q 33.9375 56 38.25 53.625 
Q 42.578125 51.265625 45.40625 46.390625 
z
M 14.796875 27.296875 
Q 14.796875 17.390625 18.875 11.75 
Q 22.953125 6.109375 30.078125 6.109375 
Q 37.203125 6.109375 41.296875 11.75 
Q 45.40625 17.390625 45.40625 27.296875 
Q 45.40625 37.203125 41.296875 42.84375 
Q 37.203125 48.484375 30.078125 48.484375 
Q 22.953125 48.484375 18.875 42.84375 
Q 14.796875 37.203125 14.796875 27.296875 
z
" id="DejaVuSans-100"/>
       <path d="M 34.28125 27.484375 
Q 23.390625 27.484375 19.1875 25 
Q 14.984375 22.515625 14.984375 16.5 
Q 14.984375 11.71875 18.140625 8.90625 
Q 21.296875 6.109375 26.703125 6.109375 
Q 34.1875 6.109375 38.703125 11.40625 
Q 43.21875 16.703125 43.21875 25.484375 
L 43.21875 27.484375 
z
M 52.203125 31.203125 
L 52.203125 0 
L 43.21875 0 
L 43.21875 8.296875 
Q 40.140625 3.328125 35.546875 0.953125 
Q 30.953125 -1.421875 24.3125 -1.421875 
Q 15.921875 -1.421875 10.953125 3.296875 
Q 6 8.015625 6 15.921875 
Q 6 25.140625 12.171875 29.828125 
Q 18.359375 34.515625 30.609375 34.515625 
L 43.21875 34.515625 
L 43.21875 35.40625 
Q 43.21875 41.609375 39.140625 45 
Q 35.0625 48.390625 27.6875 48.390625 
Q 23 48.390625 18.546875 47.265625 
Q 14.109375 46.140625 10.015625 43.890625 
L 10.015625 52.203125 
Q 14.9375 54.109375 19.578125 55.046875 
Q 24.21875 56 28.609375 56 
Q 40.484375 56 46.34375 49.84375 
Q 52.203125 43.703125 52.203125 31.203125 
z
" id="DejaVuSans-97"/>
       <path d="M 32.171875 -5.078125 
Q 28.375 -14.84375 24.75 -17.8125 
Q 21.140625 -20.796875 15.09375 -20.796875 
L 7.90625 -20.796875 
L 7.90625 -13.28125 
L 13.1875 -13.28125 
Q 16.890625 -13.28125 18.9375 -11.515625 
Q 21 -9.765625 23.484375 -3.21875 
L 25.09375 0.875 
L 2.984375 54.6875 
L 12.5 54.6875 
L 29.59375 11.921875 
L 46.6875 54.6875 
L 56.203125 54.6875 
z
" id="DejaVuSans-121"/>
       <path d="M 44.28125 53.078125 
L 44.28125 44.578125 
Q 40.484375 46.53125 36.375 47.5 
Q 32.28125 48.484375 27.875 48.484375 
Q 21.1875 48.484375 17.84375 46.4375 
Q 14.5 44.390625 14.5 40.28125 
Q 14.5 37.15625 16.890625 35.375 
Q 19.28125 33.59375 26.515625 31.984375 
L 29.59375 31.296875 
Q 39.15625 29.25 43.1875 25.515625 
Q 47.21875 21.78125 47.21875 15.09375 
Q 47.21875 7.46875 41.1875 3.015625 
Q 35.15625 -1.421875 24.609375 -1.421875 
Q 20.21875 -1.421875 15.453125 -0.5625 
Q 10.6875 0.296875 5.421875 2 
L 5.421875 11.28125 
Q 10.40625 8.6875 15.234375 7.390625 
Q 20.0625 6.109375 24.8125 6.109375 
Q 31.15625 6.109375 34.5625 8.28125 
Q 37.984375 10.453125 37.984375 14.40625 
Q 37.984375 18.0625 35.515625 20.015625 
Q 33.0625 21.96875 24.703125 23.78125 
L 21.578125 24.515625 
Q 13.234375 26.265625 9.515625 29.90625 
Q 5.8125 33.546875 5.8125 39.890625 
Q 5.8125 47.609375 11.28125 51.796875 
Q 16.75 56 26.8125 56 
Q 31.78125 56 36.171875 55.265625 
Q 40.578125 54.546875 44.28125 53.078125 
z
" id="DejaVuSans-115"/>
       <path d="M 8.015625 75.875 
L 15.828125 75.875 
Q 23.140625 64.359375 26.78125 53.3125 
Q 30.421875 42.28125 30.421875 31.390625 
Q 30.421875 20.453125 26.78125 9.375 
Q 23.140625 -1.703125 15.828125 -13.1875 
L 8.015625 -13.1875 
Q 14.5 -2 17.703125 9.0625 
Q 20.90625 20.125 20.90625 31.390625 
Q 20.90625 42.671875 17.703125 53.65625 
Q 14.5 64.65625 8.015625 75.875 
z
" id="DejaVuSans-41"/>
      </defs>
      <use xlink:href="#DejaVuSans-84"/>
      <use x="57.958984" xlink:href="#DejaVuSans-105"/>
      <use x="85.742188" xlink:href="#DejaVuSans-109"/>
      <use x="183.154297" xlink:href="#DejaVuSans-101"/>
      <use x="244.677734" xlink:href="#DejaVuSans-32"/>
      <use x="276.464844" xlink:href="#DejaVuSans-40"/>
      <use x="315.478516" xlink:href="#DejaVuSans-100"/>
      <use x="378.955078" xlink:href="#DejaVuSans-97"/>
      <use x="440.234375" xlink:href="#DejaVuSans-121"/>
      <use x="499.414062" xlink:href="#DejaVuSans-115"/>
      <use x="551.513672" xlink:href="#DejaVuSans-41"/>
     </g>
    </g>
   </g>
   <g id="matplotlib.axis_2">
    <g id="ytick_1">
     <g id="line2d_7">
      <defs>
       <path d="M 0 0 
L -3.5 0 
" id="m6f848eed40" style="stroke:#000000;stroke-width:0.8;"/>
      </defs>
      <g>
       <use style="stroke:#000000;stroke-width:0.8;" x="57.6" xlink:href="#m6f848eed40" y="291.139538"/>
      </g>
     </g>
     <g id="text_8">
      <!-- 0 -->
      <g transform="translate(44.2375 294.938757)scale(0.1 -0.1)">
       <use xlink:href="#DejaVuSans-48"/>
      </g>
     </g>
    </g>
    <g id="ytick_2">
     <g id="line2d_8">
      <g>
       <use style="stroke:#000000;stroke-width:0.8;" x="57.6" xlink:href="#m6f848eed40" y="243.602632"/>
      </g>
     </g>
     <g id="text_9">
      <!-- 1000 -->
      <g transform="translate(25.15 247.401851)scale(0.1 -0.1)">
       <use xlink:href="#DejaVuSans-49"/>
       <use x="63.623047" xlink:href="#DejaVuSans-48"/>
       <use x="127.246094" xlink:href="#DejaVuSans-48"/>
       <use x="190.869141" xlink:href="#DejaVuSans-48"/>
      </g>
     </g>
    </g>
    <g id="ytick_3">
     <g id="line2d_9">
      <g>
       <use style="stroke:#000000;stroke-width:0.8;" x="57.6" xlink:href="#m6f848eed40" y="196.065726"/>
      </g>
     </g>
     <g id="text_10">
      <!-- 2000 -->
      <g transform="translate(25.15 199.864945)scale(0.1 -0.1)">
       <use xlink:href="#DejaVuSans-50"/>
       <use x="63.623047" xlink:href="#DejaVuSans-48"/>
       <use x="127.246094" xlink:href="#DejaVuSans-48"/>
       <use x="190.869141" xlink:href="#DejaVuSans-48"/>
      </g>
     </g>
    </g>
    <g id="ytick_4">
     <g id="line2d_10">
      <g>
       <use style="stroke:#000000;stroke-width:0.8;" x="57.6" xlink:href="#m6f848eed40" y="148.52882"/>
      </g>
     </g>
     <g id="text_11">
      <!-- 3000 -->
      <g transform="translate(25.15 152.328039)scale(0.1 -0.1)">
       <defs>
        <path d="M 40.578125 39.3125 
Q 47.65625 37.796875 51.625 33 
Q 55.609375 28.21875 55.609375 21.1875 
Q 55.609375 10.40625 48.1875 4.484375 
Q 40.765625 -1.421875 27.09375 -1.421875 
Q 22.515625 -1.421875 17.65625 -0.515625 
Q 12.796875 0.390625 7.625 2.203125 
L 7.625 11.71875 
Q 11.71875 9.328125 16.59375 8.109375 
Q 21.484375 6.890625 26.8125 6.890625 
Q 36.078125 6.890625 40.9375 10.546875 
Q 45.796875 14.203125 45.796875 21.1875 
Q 45.796875 27.640625 41.28125 31.265625 
Q 36.765625 34.90625 28.71875 34.90625 
L 20.21875 34.90625 
L 20.21875 43.015625 
L 29.109375 43.015625 
Q 36.375 43.015625 40.234375 45.921875 
Q 44.09375 48.828125 44.09375 54.296875 
Q 44.09375 59.90625 40.109375 62.90625 
Q 36.140625 65.921875 28.71875 65.921875 
Q 24.65625 65.921875 20.015625 65.03125 
Q 15.375 64.15625 9.8125 62.3125 
L 9.8125 71.09375 
Q 15.4375 72.65625 20.34375 73.4375 
Q 25.25 74.21875 29.59375 74.21875 
Q 40.828125 74.21875 47.359375 69.109375 
Q 53.90625 64.015625 53.90625 55.328125 
Q 53.90625 49.265625 50.4375 45.09375 
Q 46.96875 40.921875 40.578125 39.3125 
z
" id="DejaVuSans-51"/>
       </defs>
       <use xlink:href="#DejaVuSans-51"/>
       <use x="63.623047" xlink:href="#DejaVuSans-48"/>
       <use x="127.246094" xlink:href="#DejaVuSans-48"/>
       <use x="190.869141" xlink:href="#DejaVuSans-48"/>
      </g>
     </g>
    </g>
    <g id="ytick_5">
     <g id="line2d_11">
      <g>
       <use style="stroke:#000000;stroke-width:0.8;" x="57.6" xlink:href="#m6f848eed40" y="100.991914"/>
      </g>
     </g>
     <g id="text_12">
      <!-- 4000 -->
      <g transform="translate(25.15 104.791133)scale(0.1 -0.1)">
       <use xlink:href="#DejaVuSans-52"/>
       <use x="63.623047" xlink:href="#DejaVuSans-48"/>
       <use x="127.246094" xlink:href="#DejaVuSans-48"/>
       <use x="190.869141" xlink:href="#DejaVuSans-48"/>
      </g>
     </g>
    </g>
    <g id="ytick_6">
     <g id="line2d_12">
      <g>
       <use style="stroke:#000000;stroke-width:0.8;" x="57.6" xlink:href="#m6f848eed40" y="53.455008"/>
      </g>
     </g>
     <g id="text_13">
      <!-- 5000 -->
      <g transform="translate(25.15 57.254227)scale(0.1 -0.1)">
       <defs>
        <path d="M 10.796875 72.90625 
L 49.515625 72.90625 
L 49.515625 64.59375 
L 19.828125 64.59375 
L 19.828125 46.734375 
Q 21.96875 47.46875 24.109375 47.828125 
Q 26.265625 48.1875 28.421875 48.1875 
Q 40.625 48.1875 47.75 41.5 
Q 54.890625 34.8125 54.890625 23.390625 
Q 54.890625 11.625 47.5625 5.09375 
Q 40.234375 -1.421875 26.90625 -1.421875 
Q 22.3125 -1.421875 17.546875 -0.640625 
Q 12.796875 0.140625 7.71875 1.703125 
L 7.71875 11.625 
Q 12.109375 9.234375 16.796875 8.0625 
Q 21.484375 6.890625 26.703125 6.890625 
Q 35.15625 6.890625 40.078125 11.328125 
Q 45.015625 15.765625 45.015625 23.390625 
Q 45.015625 31 40.078125 35.4375 
Q 35.15625 39.890625 26.703125 39.890625 
Q 22.75 39.890625 18.8125 39.015625 
Q 14.890625 38.140625 10.796875 36.28125 
z
" id="DejaVuSans-53"/>
       </defs>
       <use xlink:href="#DejaVuSans-53"/>
       <use x="63.623047" xlink:href="#DejaVuSans-48"/>
       <use x="127.246094" xlink:href="#DejaVuSans-48"/>
       <use x="190.869141" xlink:href="#DejaVuSans-48"/>
      </g>
     </g>
    </g>
    <g id="text_14">
     <!-- Density -->
     <g transform="translate(19.070312 193.536594)rotate(-90)scale(0.1 -0.1)">
      <defs>
       <path d="M 19.671875 64.796875 
L 19.671875 8.109375 
L 31.59375 8.109375 
Q 46.6875 8.109375 53.6875 14.9375 
Q 60.6875 21.78125 60.6875 36.53125 
Q 60.6875 51.171875 53.6875 57.984375 
Q 46.6875 64.796875 31.59375 64.796875 
z
M 9.8125 72.90625 
L 30.078125 72.90625 
Q 51.265625 72.90625 61.171875 64.09375 
Q 71.09375 55.28125 71.09375 36.53125 
Q 71.09375 17.671875 61.125 8.828125 
Q 51.171875 0 30.078125 0 
L 9.8125 0 
z
" id="DejaVuSans-68"/>
       <path d="M 54.890625 33.015625 
L 54.890625 0 
L 45.90625 0 
L 45.90625 32.71875 
Q 45.90625 40.484375 42.875 44.328125 
Q 39.84375 48.1875 33.796875 48.1875 
Q 26.515625 48.1875 22.3125 43.546875 
Q 18.109375 38.921875 18.109375 30.90625 
L 18.109375 0 
L 9.078125 0 
L 9.078125 54.6875 
L 18.109375 54.6875 
L 18.109375 46.1875 
Q 21.34375 51.125 25.703125 53.5625 
Q 30.078125 56 35.796875 56 
Q 45.21875 56 50.046875 50.171875 
Q 54.890625 44.34375 54.890625 33.015625 
z
" id="DejaVuSans-110"/>
       <path d="M 18.3125 70.21875 
L 18.3125 54.6875 
L 36.8125 54.6875 
L 36.8125 47.703125 
L 18.3125 47.703125 
L 18.3125 18.015625 
Q 18.3125 11.328125 20.140625 9.421875 
Q 21.96875 7.515625 27.59375 7.515625 
L 36.8125 7.515625 
L 36.8125 0 
L 27.59375 0 
Q 17.1875 0 13.234375 3.875 
Q 9.28125 7.765625 9.28125 18.015625 
L 9.28125 47.703125 
L 2.6875 47.703125 
L 2.6875 54.6875 
L 9.28125 54.6875 
L 9.28125 70.21875 
z
" id="DejaVuSans-116"/>
      </defs>
      <use xlink:href="#DejaVuSans-68"/>
      <use x="77.001953" xlink:href="#DejaVuSans-101"/>
      <use x="138.525391" xlink:href="#DejaVuSans-110"/>
      <use x="201.904297" xlink:href="#DejaVuSans-115"/>
      <use x="254.003906" xlink:href="#DejaVuSans-105"/>
      <use x="281.787109" xlink:href="#DejaVuSans-116"/>
      <use x="320.996094" xlink:href="#DejaVuSans-121"/>
     </g>
    </g>
   </g>
   <g id="line2d_13">
    <path clip-path="url(#pbd1437d8f9)" d="M 73.832727 290.664169 
L 74.807666 290.197454 
L 75.457625 289.635084 
L 76.107584 288.724694 
L 76.757543 287.266324 
L 77.407502 284.974278 
L 78.057461 281.341857 
L 78.70742 275.531937 
L 79.357379 266.395925 
L 80.007338 253.379271 
L 80.657297 233.133867 
L 81.957215 185.918905 
L 82.607174 152.858718 
L 82.932154 143.325619 
L 83.257133 121.906631 
L 83.582113 131.136312 
L 83.907093 120.351027 
L 84.232072 129.57363 
L 84.557052 121.036119 
L 84.882031 125.366957 
L 85.207011 115.649614 
L 85.53199 117.411364 
L 85.85697 116.497086 
L 86.181949 107.117847 
L 86.506929 119.681919 
L 86.831908 117.591784 
L 87.156888 111.984953 
L 87.481867 109.515706 
L 87.806847 114.493199 
L 88.131826 108.498333 
L 88.456806 99.021592 
L 89.106765 118.109689 
L 89.431744 107.936034 
L 89.756724 119.561426 
L 90.081704 113.902934 
L 90.406683 119.764675 
L 90.731663 112.57414 
L 91.056642 111.066194 
L 91.381622 101.653637 
L 92.031581 110.351267 
L 92.35656 99.874981 
L 92.68154 99.195085 
L 93.006519 105.442445 
L 93.331499 108.918359 
L 93.656478 115.848742 
L 93.981458 103.477937 
L 94.306437 112.647982 
L 94.956396 107.731147 
L 95.281376 97.931407 
L 95.606355 92.76421 
L 95.931335 92.164226 
L 96.256314 97.497064 
L 96.906274 86.69791 
L 97.231253 101.553024 
L 97.556233 98.812938 
L 97.881212 101.069421 
L 98.206192 109.790293 
L 98.531171 111.095323 
L 98.856151 95.836018 
L 99.18113 85.816761 
L 99.50611 107.044755 
L 99.831089 118.6184 
L 100.156069 112.40004 
L 100.481048 112.897531 
L 100.806028 108.922258 
L 101.131007 114.125515 
L 101.780966 93.653528 
L 102.105946 96.219543 
L 102.430925 96.115862 
L 102.755905 93.219981 
L 103.080885 96.438382 
L 103.405864 94.877187 
L 103.730844 96.230317 
L 104.055823 87.150788 
L 104.380803 88.513019 
L 104.705782 113.002338 
L 105.030762 114.263553 
L 105.680721 94.820471 
L 106.0057 90.303953 
L 106.33068 88.464184 
L 106.655659 84.984565 
L 107.305618 105.461068 
L 107.630598 102.294823 
L 107.955577 110.810517 
L 108.280557 112.50498 
L 108.605536 105.057927 
L 108.930516 106.359926 
L 109.255495 97.06788 
L 109.580475 82.889258 
L 109.905455 88.586643 
L 110.230434 79.944516 
L 110.880393 117.40258 
L 111.205373 116.879374 
L 111.530352 111.311715 
L 111.855332 110.280961 
L 112.180311 111.202261 
L 112.505291 118.364451 
L 112.83027 108.517748 
L 113.15525 107.268639 
L 113.480229 98.61243 
L 113.805209 94.401889 
L 114.130188 92.751894 
L 114.455168 97.57212 
L 114.780147 91.168682 
L 115.105127 87.722568 
L 115.430106 72.855556 
L 115.755086 67.80125 
L 116.080066 95.313875 
L 116.405045 100.950684 
L 116.730025 84.261825 
L 117.055004 87.269035 
L 117.379984 79.036682 
L 117.704963 80.958905 
L 118.029943 107.990165 
L 118.354922 100.066778 
L 118.679902 98.575225 
L 119.004881 81.827516 
L 119.329861 90.840123 
L 119.65484 83.588634 
L 119.97982 81.133476 
L 120.304799 76.50979 
L 120.629779 76.169039 
L 120.954758 83.63163 
L 121.279738 80.461548 
L 121.604717 82.676455 
L 121.929697 71.711694 
L 122.254676 78.177966 
L 122.579656 74.774878 
L 122.904636 85.628861 
L 123.229615 84.76297 
L 123.554595 87.066545 
L 124.204554 96.174992 
L 124.529533 131.402739 
L 125.179492 120.301331 
L 125.504472 117.457017 
L 125.829451 125.22171 
L 126.154431 123.047468 
L 126.47941 119.707042 
L 127.129369 92.300775 
L 127.454349 91.263099 
L 128.429287 113.770807 
L 128.754267 100.976196 
L 129.404226 119.634261 
L 129.729206 109.142448 
L 130.054185 110.57293 
L 130.379165 107.417134 
L 130.704144 100.944625 
L 131.029124 108.566856 
L 131.354103 109.795723 
L 132.329042 77.064258 
L 132.654021 91.093945 
L 132.979001 89.686958 
L 133.30398 79.730416 
L 133.953939 89.678362 
L 134.278919 91.019176 
L 134.603898 83.9868 
L 134.928878 73.455364 
L 135.253857 78.617286 
L 135.578837 87.318274 
L 135.903817 83.489543 
L 136.228796 85.796966 
L 136.553776 78.587354 
L 136.878755 94.967155 
L 137.203735 103.565562 
L 137.528714 96.471616 
L 137.853694 85.775653 
L 138.178673 82.018863 
L 138.828632 71.550885 
L 139.153612 73.336854 
L 139.478591 77.486757 
L 139.803571 85.939065 
L 140.12855 75.065808 
L 140.45353 92.562251 
L 140.778509 119.957591 
L 141.103489 122.847044 
L 141.428468 121.734561 
L 142.403407 96.438149 
L 142.728387 98.84374 
L 143.053366 95.969797 
L 143.378346 96.138357 
L 143.703325 88.968333 
L 144.028305 91.933423 
L 144.353284 83.719826 
L 144.678264 95.533195 
L 145.003243 84.781755 
L 145.328223 70.262071 
L 145.653202 73.714904 
L 145.978182 95.634406 
L 146.303161 128.525528 
L 146.628141 121.775399 
L 147.2781 100.173847 
L 147.603079 96.66189 
L 147.928059 102.261173 
L 148.578018 87.836909 
L 148.902998 79.727465 
L 149.227977 91.355965 
L 149.552957 94.988933 
L 149.877936 95.503928 
L 150.202916 82.327085 
L 150.527895 76.907519 
L 150.852875 82.649593 
L 151.177854 78.564741 
L 151.502834 70.792006 
L 151.827813 67.793956 
L 152.477772 106.874024 
L 152.802752 101.292494 
L 153.127731 105.178483 
L 153.452711 104.405538 
L 153.77769 108.54558 
L 154.10267 104.242751 
L 154.427649 104.426152 
L 154.752629 110.281954 
L 155.077609 109.439705 
L 155.402588 117.428986 
L 155.727568 101.015958 
L 156.052547 101.648752 
L 156.377527 109.41366 
L 156.702506 96.346456 
L 157.027486 92.307183 
L 157.352465 105.203141 
L 157.677445 93.289748 
L 158.002424 90.676086 
L 158.327404 103.184844 
L 158.652383 99.868621 
L 158.977363 89.600061 
L 159.302342 86.879864 
L 159.627322 92.10269 
L 159.952301 92.294439 
L 160.277281 94.635093 
L 160.60226 101.5606 
L 160.92724 93.416304 
L 161.252219 99.596756 
L 161.902179 105.730432 
L 162.227158 116.521414 
L 162.552138 116.686357 
L 162.877117 116.458784 
L 163.202097 103.030849 
L 163.527076 113.348325 
L 163.852056 98.890058 
L 164.177035 89.644186 
L 164.502015 105.382538 
L 165.151974 115.002848 
L 165.476953 100.614911 
L 165.801933 96.574411 
L 166.126912 83.81937 
L 166.451892 85.460689 
L 166.776871 88.105557 
L 167.101851 77.482396 
L 167.42683 93.200058 
L 167.75181 94.488103 
L 168.07679 97.496953 
L 168.401769 102.609753 
L 168.726749 105.067132 
L 169.051728 103.232995 
L 169.701687 80.387209 
L 170.026667 86.745231 
L 170.351646 88.625265 
L 170.676626 76.632749 
L 171.001605 69.927272 
L 171.326585 71.558358 
L 171.651564 71.668461 
L 171.976544 58.969659 
L 172.301523 63.711639 
L 172.626503 63.308241 
L 172.951482 74.207753 
L 173.276462 67.783768 
L 173.601441 66.373584 
L 173.926421 61.15456 
L 174.2514 63.664656 
L 174.57638 63.407799 
L 174.90136 67.22229 
L 175.226339 63.726874 
L 175.551319 71.972626 
L 175.876298 72.119751 
L 176.851237 98.424736 
L 177.176216 107.101156 
L 177.501196 100.774297 
L 177.826175 84.458035 
L 178.151155 75.659817 
L 178.476134 82.531611 
L 178.801114 106.404185 
L 179.126093 91.619325 
L 179.451073 93.135792 
L 179.776052 85.224117 
L 180.101032 83.949324 
L 180.426011 77.596143 
L 180.750991 74.10576 
L 181.075971 79.10038 
L 181.72593 116.378737 
L 182.050909 101.27913 
L 182.375889 95.056775 
L 182.700868 126.117717 
L 183.675807 91.97125 
L 184.000786 90.365371 
L 184.325766 97.740728 
L 184.650745 92.264687 
L 185.300704 69.926828 
L 185.625684 71.080214 
L 185.950663 73.338836 
L 186.275643 72.779578 
L 186.600622 71.970921 
L 186.925602 81.535807 
L 187.250581 86.69835 
L 187.575561 72.07749 
L 187.900541 90.198454 
L 188.22552 89.440075 
L 188.5505 80.483758 
L 188.875479 76.752303 
L 189.525438 103.092298 
L 189.850418 99.695824 
L 190.175397 88.329269 
L 190.500377 91.328443 
L 190.825356 85.083632 
L 191.150336 95.647444 
L 192.125274 69.284706 
L 192.450254 66.455003 
L 192.775233 59.810833 
L 193.100213 58.455846 
L 193.425192 64.136611 
L 193.750172 83.059225 
L 194.075152 91.167487 
L 194.400131 81.559744 
L 195.05009 88.580064 
L 195.37507 78.230654 
L 195.700049 95.20848 
L 196.025029 97.166058 
L 196.350008 102.270306 
L 196.674988 110.981225 
L 196.999967 102.029539 
L 197.324947 96.72136 
L 197.649926 85.245386 
L 197.974906 87.716404 
L 198.299885 82.428159 
L 198.624865 90.465798 
L 198.949844 91.961577 
L 199.274824 80.84975 
L 199.599803 92.305993 
L 199.924783 85.497113 
L 200.249762 98.325447 
L 200.574742 90.734446 
L 200.899722 108.406994 
L 201.224701 104.506737 
L 201.549681 101.991992 
L 201.87466 91.479279 
L 202.19964 89.389059 
L 202.524619 100.189508 
L 202.849599 92.587415 
L 203.499558 110.585585 
L 203.824537 97.971889 
L 204.149517 106.342434 
L 204.474496 103.533723 
L 205.124455 85.796724 
L 205.449435 84.645343 
L 205.774414 79.197502 
L 206.099394 76.03253 
L 206.424373 76.822674 
L 206.749353 82.991141 
L 207.074333 115.530498 
L 207.399312 99.757065 
L 207.724292 105.299429 
L 208.049271 95.791158 
L 208.374251 97.43436 
L 208.69923 95.845682 
L 209.02421 93.060279 
L 209.349189 91.822033 
L 209.674169 89.012854 
L 209.999148 81.766338 
L 210.324128 85.897966 
L 210.649107 102.971216 
L 210.974087 98.840481 
L 211.299066 111.500975 
L 211.624046 106.188608 
L 211.949025 112.836546 
L 212.274005 116.825583 
L 213.248943 88.768214 
L 213.573923 85.018756 
L 213.898903 87.716643 
L 214.223882 97.217215 
L 214.548862 123.569213 
L 214.873841 115.679269 
L 215.198821 117.9986 
L 215.5238 125.516873 
L 215.84878 114.648768 
L 216.173759 118.545075 
L 216.823718 118.521819 
L 217.148698 108.475727 
L 217.473677 101.888209 
L 217.798657 106.93997 
L 218.123636 106.874254 
L 218.448616 113.537483 
L 218.773595 99.568044 
L 219.098575 99.663614 
L 219.423554 94.022283 
L 219.748534 93.033561 
L 220.073514 99.778592 
L 220.398493 89.675401 
L 220.723473 75.693869 
L 221.048452 78.343013 
L 221.373432 76.324736 
L 221.698411 73.427358 
L 222.023391 77.578907 
L 222.34837 75.62052 
L 222.67335 88.654063 
L 222.998329 80.950737 
L 223.323309 99.368273 
L 223.648288 100.616832 
L 223.973268 123.05364 
L 224.298247 117.522468 
L 224.623227 117.447715 
L 224.948206 114.568808 
L 225.273186 104.399294 
L 225.598165 88.49953 
L 225.923145 101.278182 
L 226.248124 91.962843 
L 226.573104 106.880246 
L 226.898084 100.997966 
L 227.223063 121.294737 
L 227.873022 104.371694 
L 228.198002 101.42746 
L 228.522981 89.027639 
L 228.847961 112.388513 
L 229.17294 111.426905 
L 229.49792 111.192444 
L 229.822899 98.30132 
L 230.147879 107.289259 
L 230.472858 105.382566 
L 230.797838 107.857004 
L 231.122817 95.542616 
L 231.447797 111.668422 
L 231.772776 109.219461 
L 232.097756 109.146722 
L 232.422735 113.661534 
L 232.747715 107.144331 
L 233.072695 104.771713 
L 233.397674 103.304072 
L 233.722654 116.921666 
L 234.047633 113.029145 
L 234.372613 96.056255 
L 234.697592 90.602176 
L 235.022572 120.69729 
L 235.347551 107.454919 
L 235.672531 101.317566 
L 235.99751 92.524703 
L 236.32249 93.148664 
L 236.647469 92.766412 
L 236.972449 91.425387 
L 237.622408 65.892539 
L 237.947387 72.802123 
L 238.272367 83.383241 
L 238.597346 75.732038 
L 238.922326 71.372902 
L 239.247305 64.301626 
L 239.897265 92.22938 
L 240.547224 72.077035 
L 240.872203 71.897965 
L 241.197183 72.121996 
L 241.522162 64.447068 
L 241.847142 69.566971 
L 242.172121 66.795981 
L 242.497101 71.914623 
L 242.82208 84.893218 
L 243.14706 70.568468 
L 243.472039 65.696253 
L 244.121998 103.057558 
L 244.771957 93.761597 
L 245.096937 96.860835 
L 245.421916 96.34016 
L 245.746896 99.844627 
L 246.071876 94.17977 
L 246.396855 100.67738 
L 246.721835 101.547405 
L 247.046814 92.615715 
L 247.371794 71.641386 
L 247.696773 85.201201 
L 248.021753 74.394649 
L 248.346732 73.510262 
L 248.671712 74.138216 
L 248.996691 73.547328 
L 249.321671 86.77105 
L 249.97163 67.565167 
L 250.296609 85.980218 
L 250.621589 81.20321 
L 251.271548 92.758564 
L 251.596527 113.595382 
L 251.921507 115.586699 
L 252.246486 123.429356 
L 252.896446 106.170752 
L 253.221425 96.95735 
L 253.546405 118.547051 
L 253.871384 115.238594 
L 254.196364 101.816792 
L 254.521343 103.270704 
L 254.846323 110.022242 
L 255.171302 103.622155 
L 255.496282 99.62229 
L 256.146241 77.85829 
L 256.47122 91.964403 
L 256.7962 88.034516 
L 257.121179 88.560289 
L 257.446159 100.264339 
L 257.771138 107.749913 
L 258.096118 97.57015 
L 258.421097 104.954771 
L 258.746077 93.942951 
L 259.396036 90.808648 
L 259.721016 84.667972 
L 260.045995 95.407285 
L 260.370975 100.590634 
L 261.020934 126.626117 
L 261.345913 136.788563 
L 261.670893 132.946324 
L 262.320852 117.935388 
L 262.645831 122.794229 
L 262.970811 109.288475 
L 263.29579 113.617312 
L 263.62077 112.313769 
L 263.945749 107.352401 
L 264.270729 110.915357 
L 264.595708 104.410993 
L 264.920688 95.184487 
L 265.245667 98.135697 
L 265.570647 94.488974 
L 265.895627 94.17087 
L 266.220606 84.056172 
L 266.545586 81.120405 
L 266.870565 89.199805 
L 267.195545 91.087229 
L 267.520524 88.167677 
L 267.845504 98.423055 
L 268.170483 113.459868 
L 268.495463 106.95786 
L 268.820442 108.48625 
L 269.145422 107.693788 
L 269.470401 115.14933 
L 269.795381 110.141019 
L 270.12036 109.547196 
L 270.44534 106.512472 
L 270.770319 110.210267 
L 271.095299 96.665276 
L 271.420278 104.228066 
L 272.720197 54.657827 
L 273.045176 68.887763 
L 273.370156 59.519345 
L 274.345094 106.565313 
L 274.670074 103.790555 
L 275.320033 80.510615 
L 275.645012 77.194857 
L 275.969992 65.960717 
L 276.294971 73.357833 
L 276.619951 69.973555 
L 276.94493 74.869592 
L 277.26991 72.983849 
L 277.594889 79.385326 
L 277.919869 76.495987 
L 278.244848 87.927152 
L 278.569828 79.854551 
L 278.894808 86.584787 
L 279.219787 79.963848 
L 279.544767 103.812009 
L 279.869746 86.852866 
L 280.194726 85.718665 
L 280.519705 75.712436 
L 280.844685 69.337483 
L 281.169664 68.868937 
L 281.494644 76.419457 
L 281.819623 70.636621 
L 282.144603 86.561482 
L 282.469582 89.40121 
L 282.794562 111.686067 
L 283.119541 105.513179 
L 283.444521 90.523985 
L 283.7695 93.721943 
L 284.09448 73.087183 
L 284.419459 75.763726 
L 284.744439 67.889752 
L 285.069419 55.447493 
L 285.394398 71.167454 
L 286.044357 81.878882 
L 286.369337 79.903905 
L 287.019296 69.512277 
L 287.994234 53.568 
L 288.319214 67.140681 
L 288.644193 70.913607 
L 288.969173 77.459787 
L 289.294152 92.471798 
L 289.619132 100.157573 
L 289.944111 102.590512 
L 290.269091 88.632934 
L 290.59407 84.568539 
L 290.91905 88.800538 
L 291.244029 74.289821 
L 291.569009 70.873552 
L 291.893989 55.56576 
L 292.868927 81.782436 
L 293.193907 97.393979 
L 293.518886 95.737235 
L 293.843866 92.822199 
L 294.168845 83.494678 
L 294.493825 94.900791 
L 294.818804 80.640926 
L 295.143784 73.237737 
L 295.468763 79.956704 
L 295.793743 102.387593 
L 296.118722 108.490839 
L 296.443702 105.453158 
L 296.768681 98.537865 
L 297.093661 86.094971 
L 297.41864 96.377066 
L 297.74362 90.43015 
L 298.0686 110.933997 
L 298.393579 102.235613 
L 298.718559 90.378298 
L 299.043538 87.429465 
L 299.368518 86.73537 
L 299.693497 81.519426 
L 300.018477 71.446331 
L 300.343456 78.575695 
L 300.993415 69.999772 
L 301.318395 95.057189 
L 301.643374 97.004087 
L 301.968354 91.736678 
L 302.293333 92.248328 
L 302.618313 93.691632 
L 302.943292 99.124879 
L 303.268272 106.903663 
L 303.593251 102.859638 
L 304.24321 89.828295 
L 304.56819 91.053408 
L 304.89317 87.07656 
L 305.218149 85.609188 
L 305.543129 79.755559 
L 305.868108 86.927006 
L 306.193088 91.378948 
L 306.843047 80.799935 
L 307.493006 89.761199 
L 307.817985 77.475491 
L 308.142965 73.077192 
L 308.467944 130.833235 
L 308.792924 114.70305 
L 310.092842 80.44542 
L 310.417821 77.305202 
L 310.742801 76.944815 
L 311.067781 82.061774 
L 311.39276 84.831389 
L 311.71774 104.829095 
L 312.042719 99.144833 
L 312.367699 121.053148 
L 312.692678 131.591461 
L 313.017658 126.293512 
L 313.342637 115.343836 
L 313.667617 108.905339 
L 313.992596 133.055882 
L 314.317576 125.64033 
L 314.642555 125.164245 
L 314.967535 111.48786 
L 315.617494 94.305156 
L 316.267453 68.522682 
L 316.592432 84.095516 
L 316.917412 92.9488 
L 317.242391 76.456199 
L 317.567371 75.173624 
L 317.892351 65.389931 
L 318.21733 67.122473 
L 318.54231 73.279809 
L 318.867289 65.541351 
L 319.842228 115.704954 
L 320.167207 96.216154 
L 320.492187 87.097522 
L 320.817166 86.552092 
L 321.142146 85.212289 
L 321.467125 86.949624 
L 321.792105 85.004869 
L 322.117084 79.080147 
L 322.442064 80.06539 
L 322.767043 68.564366 
L 323.092023 77.778696 
L 323.417002 65.736886 
L 324.066962 70.409412 
L 324.391941 80.571131 
L 324.716921 69.939288 
L 325.0419 72.307442 
L 325.36688 82.636126 
L 325.691859 83.974022 
L 326.016839 84.59304 
L 326.341818 114.684077 
L 326.666798 115.530179 
L 326.991777 111.578258 
L 327.316757 113.566046 
L 327.641736 123.29073 
L 327.966716 125.63935 
L 328.291695 119.281753 
L 328.616675 103.287121 
L 328.941654 103.259179 
L 329.266634 110.321786 
L 329.591613 123.78605 
L 329.916593 125.49212 
L 330.241572 106.88751 
L 330.566552 99.099736 
L 330.891532 108.173727 
L 331.216511 101.356994 
L 331.541491 99.710054 
L 331.86647 80.608072 
L 332.516429 102.003935 
L 332.841409 102.588935 
L 333.166388 99.607751 
L 333.491368 102.842514 
L 333.816347 122.789445 
L 334.141327 116.350852 
L 334.466306 140.00432 
L 334.791286 142.371518 
L 335.116265 140.74143 
L 335.441245 124.94879 
L 335.766224 123.586925 
L 336.416183 106.651949 
L 336.741163 100.248546 
L 337.066143 89.877001 
L 337.391122 87.711968 
L 337.716102 72.48866 
L 338.366061 67.442893 
L 338.69104 77.055465 
L 339.01602 81.689869 
L 339.340999 72.711293 
L 339.665979 53.673437 
L 339.990958 65.846648 
L 340.315938 71.465506 
L 340.965897 88.080872 
L 341.290876 88.893082 
L 341.615856 100.844352 
L 341.940835 119.740139 
L 342.265815 122.476386 
L 342.590794 121.716473 
L 342.915774 162.104124 
L 343.240753 145.721091 
L 343.565733 137.232304 
L 343.890713 123.094439 
L 344.215692 124.351674 
L 344.540672 131.254323 
L 344.865651 123.750972 
L 345.190631 108.800497 
L 345.51561 102.920442 
L 345.84059 119.450967 
L 346.165569 108.911325 
L 346.490549 103.167842 
L 346.815528 104.371548 
L 347.140508 92.634652 
L 347.465487 88.453855 
L 347.790467 76.319146 
L 348.115446 113.580409 
L 348.440426 110.497047 
L 348.765405 103.817719 
L 349.090385 111.592044 
L 349.415364 96.288291 
L 349.740344 95.003534 
L 350.065324 109.134428 
L 350.390303 115.059257 
L 351.040262 95.121954 
L 351.365242 111.469564 
L 351.690221 110.222697 
L 352.015201 96.259158 
L 352.34018 96.149696 
L 352.66516 106.011437 
L 352.990139 93.783915 
L 353.315119 88.509201 
L 353.640098 91.498135 
L 353.965078 117.560375 
L 354.290057 99.048926 
L 354.615037 108.852297 
L 354.940016 96.885984 
L 355.264996 77.567582 
L 355.589975 76.303715 
L 355.914955 85.534748 
L 356.239934 101.848113 
L 356.564914 100.835778 
L 356.889894 88.410168 
L 357.214873 87.926855 
L 357.539853 101.834863 
L 357.864832 94.636719 
L 358.189812 99.899789 
L 358.514791 93.975517 
L 358.839771 95.560548 
L 359.16475 94.542122 
L 359.48973 99.225793 
L 359.814709 88.747941 
L 360.139689 88.591344 
L 360.464668 72.511964 
L 360.789648 73.914121 
L 361.114627 82.401914 
L 361.439607 122.89362 
L 361.764586 112.648276 
L 362.089566 117.133276 
L 362.414545 111.089968 
L 362.739525 101.073663 
L 363.064505 105.850314 
L 363.389484 91.924946 
L 363.714464 88.381763 
L 364.039443 90.019708 
L 364.364423 103.959186 
L 364.689402 100.74681 
L 365.014382 113.302489 
L 365.98932 98.159738 
L 366.3143 100.098349 
L 366.639279 105.95412 
L 366.964259 99.803814 
L 367.289238 96.239586 
L 367.614218 102.928051 
L 367.939197 100.349896 
L 368.264177 100.22269 
L 368.589156 95.862094 
L 368.914136 104.879001 
L 369.239115 105.48077 
L 369.564095 92.879853 
L 369.889075 92.974078 
L 370.214054 95.01667 
L 370.864013 87.654788 
L 371.513972 95.20128 
L 371.838952 81.028009 
L 372.488911 78.590391 
L 372.81389 90.215433 
L 373.13887 73.264069 
L 373.463849 81.854401 
L 373.788829 83.604802 
L 374.113808 87.321592 
L 374.438788 82.590483 
L 374.763767 83.058843 
L 375.088747 96.807308 
L 375.413726 119.335977 
L 375.738706 111.019206 
L 376.063686 108.703833 
L 376.388665 102.322578 
L 376.713645 93.080136 
L 377.038624 90.800454 
L 377.363604 87.313134 
L 377.688583 93.518554 
L 378.013563 84.356433 
L 378.663522 96.036977 
L 379.313481 88.666838 
L 379.63846 76.16954 
L 379.96344 87.210111 
L 380.288419 88.311187 
L 380.613399 88.772259 
L 380.938378 82.682913 
L 381.263358 79.357558 
L 381.588337 77.507752 
L 381.913317 78.348169 
L 382.238296 75.230584 
L 382.563276 87.118219 
L 382.888256 79.467085 
L 383.213235 81.284859 
L 383.863194 69.482308 
L 384.513153 107.484853 
L 384.838133 104.670073 
L 385.163112 103.092384 
L 385.813071 76.051061 
L 386.46303 93.884893 
L 386.78801 93.434525 
L 387.112989 91.48375 
L 387.437969 81.333795 
L 388.087928 84.788999 
L 388.412907 69.51931 
L 388.737887 87.266732 
L 389.062867 72.407005 
L 389.387846 92.058796 
L 390.037805 99.324142 
L 390.362785 95.816495 
L 390.687764 108.478076 
L 391.012744 103.326772 
L 391.337723 100.656495 
L 391.987682 74.56252 
L 392.312662 75.055156 
L 392.637641 95.020453 
L 392.962621 93.04553 
L 393.2876 94.842047 
L 393.61258 130.54169 
L 393.937559 129.435282 
L 394.262539 111.983892 
L 394.587518 105.531529 
L 394.912498 102.484999 
L 395.237477 104.032234 
L 395.562457 109.154496 
L 395.887437 96.346834 
L 396.212416 100.885322 
L 396.537396 107.555717 
L 397.187355 75.102944 
L 397.512334 71.579396 
L 397.837314 102.561753 
L 398.162293 120.277344 
L 398.487273 117.346257 
L 398.487273 117.346257 
" style="fill:none;stroke:#1f77b4;stroke-linecap:square;stroke-width:1.5;"/>
   </g>
   <g id="line2d_14">
    <path clip-path="url(#pbd1437d8f9)" d="M 73.832727 291.139538 
L 79.0324 291.322752 
L 86.181949 291.737932 
L 88.131826 291.764186 
L 90.081704 291.783825 
L 93.656478 291.830033 
L 95.931335 291.894191 
L 101.131007 291.931415 
L 103.405864 291.997166 
L 115.105127 292.168895 
L 116.080066 292.164561 
L 118.679902 292.196403 
L 119.65484 292.245037 
L 124.204554 292.275901 
L 124.854513 292.212598 
L 128.104308 292.301067 
L 129.729206 292.29919 
L 132.004062 292.39038 
L 133.30398 292.423113 
L 136.228796 292.448934 
L 138.178673 292.488098 
L 140.12855 292.523996 
L 141.428468 292.405242 
L 143.703325 292.525275 
L 147.928059 292.551395 
L 150.527895 292.661917 
L 154.10267 292.619865 
L 165.801933 292.809476 
L 166.776871 292.851768 
L 167.42683 292.840599 
L 170.351646 292.892428 
L 171.976544 293.016113 
L 174.57638 293.030726 
L 183.675807 293.060961 
L 188.875479 293.198659 
L 189.850418 293.117449 
L 190.825356 293.192155 
L 191.475315 293.189212 
L 193.425192 293.307271 
L 194.075152 293.203418 
L 194.725111 293.237482 
L 197.324947 293.228028 
L 198.299885 293.294452 
L 198.949844 293.258038 
L 199.924783 293.30502 
L 200.899722 293.216878 
L 203.174578 293.279401 
L 204.149517 293.271985 
L 206.749353 293.416548 
L 207.074333 293.267872 
L 207.724292 293.327893 
L 208.69923 293.375594 
L 210.324128 293.444822 
L 211.299066 293.324986 
L 211.949025 293.31731 
L 212.598984 293.354699 
L 213.898903 293.462821 
L 215.5238 293.301846 
L 216.173759 293.335606 
L 219.098575 293.46422 
L 221.698411 293.617274 
L 223.648288 293.516453 
L 223.973268 293.402424 
L 226.898084 293.529439 
L 227.223063 293.414049 
L 228.522981 293.603958 
L 228.847961 293.481579 
L 232.097756 293.517704 
L 233.072695 293.55677 
L 234.697592 293.648157 
L 235.022572 293.482833 
L 235.99751 293.652988 
L 237.297428 293.748442 
L 237.947387 293.782888 
L 238.597346 293.780487 
L 239.572285 293.773934 
L 239.897265 293.706769 
L 240.872203 293.82634 
L 243.14706 293.852605 
L 243.797019 293.804355 
L 244.121998 293.692238 
L 245.421916 293.743617 
L 246.721835 293.727689 
L 248.346732 293.893548 
L 251.271548 293.812987 
L 251.921507 293.688074 
L 252.571466 293.694556 
L 253.221425 293.81284 
L 253.546405 293.69556 
L 257.121179 293.920395 
L 257.771138 293.822355 
L 258.746077 293.915516 
L 260.370975 293.905835 
L 261.345913 293.667636 
L 266.545586 294.059044 
L 268.170483 293.880493 
L 269.145422 293.927953 
L 269.795381 293.920148 
L 271.745258 294.072585 
L 272.720197 294.293376 
L 273.045176 294.217026 
L 273.370156 294.272938 
L 274.670074 294.024467 
L 275.969992 294.272369 
L 276.94493 294.225582 
L 277.919869 294.228392 
L 278.244848 294.163424 
L 279.219787 294.221291 
L 279.544767 294.077045 
L 280.194726 294.20094 
L 281.169664 294.317205 
L 283.119541 294.103148 
L 284.09448 294.316951 
L 284.744439 294.356236 
L 285.069419 294.43283 
L 285.719378 294.310447 
L 286.694316 294.347977 
L 288.319214 294.409523 
L 290.91905 294.302046 
L 291.893989 294.517617 
L 293.518886 294.268841 
L 295.468763 294.401757 
L 296.118722 294.216906 
L 297.74362 294.361644 
L 298.0686 294.229823 
L 300.018477 294.525507 
L 300.668436 294.501403 
L 300.993415 294.531942 
L 301.318395 294.373699 
L 303.593251 294.358551 
L 304.89317 294.485619 
L 308.142965 294.610824 
L 308.467944 294.206555 
L 309.442883 294.473888 
L 310.417821 294.625258 
L 311.39276 294.579028 
L 311.71774 294.424936 
L 312.042719 294.468356 
L 312.692678 294.234034 
L 313.667617 294.424852 
L 313.992596 294.271835 
L 316.592432 294.679215 
L 316.917412 294.626291 
L 317.567371 294.756539 
L 318.21733 294.817974 
L 320.167207 294.608372 
L 320.817166 294.685534 
L 326.016839 294.747137 
L 326.341818 294.521701 
L 328.291695 294.499842 
L 328.616675 294.629539 
L 329.266634 294.586198 
L 329.916593 294.473301 
L 330.566552 294.690242 
L 330.891532 294.627867 
L 331.86647 294.84631 
L 332.516429 294.66135 
L 333.491368 294.669063 
L 333.816347 294.512924 
L 334.141327 294.571516 
L 334.466306 294.370289 
L 335.116265 294.379528 
L 335.441245 294.521687 
L 336.091204 294.618151 
L 338.041081 294.952916 
L 338.69104 294.880627 
L 339.340999 294.926658 
L 339.665979 295.060002 
L 340.965897 294.829534 
L 341.615856 294.755669 
L 341.940835 294.604214 
L 342.590794 294.579081 
L 342.915774 294.240942 
L 343.890713 294.614037 
L 344.865651 294.59282 
L 345.51561 294.775187 
L 345.84059 294.644438 
L 346.490549 294.788286 
L 347.140508 294.879458 
L 347.790467 295.014232 
L 348.115446 294.728698 
L 349.740344 294.891698 
L 350.390303 294.723247 
L 351.040262 294.893926 
L 351.365242 294.744576 
L 352.990139 294.904509 
L 353.640098 294.930864 
L 353.965078 294.738729 
L 354.290057 294.877386 
L 354.615037 294.779174 
L 355.589975 295.041293 
L 356.564914 294.851553 
L 357.214873 294.96262 
L 357.539853 294.854128 
L 358.189812 294.870854 
L 359.16475 294.925528 
L 359.48973 294.893173 
L 360.464668 295.114286 
L 361.114627 295.044699 
L 361.439607 294.701748 
L 361.764586 294.794176 
L 362.414545 294.813329 
L 362.739525 294.900694 
L 363.064505 294.867901 
L 363.714464 295.015108 
L 364.689402 294.930948 
L 365.014382 294.827712 
L 366.3143 294.946619 
L 366.964259 294.959075 
L 368.589156 295.005284 
L 369.239115 294.919403 
L 369.889075 295.031497 
L 371.513972 295.021973 
L 372.163931 295.156859 
L 373.788829 295.145823 
L 375.088747 295.047233 
L 375.413726 294.857016 
L 377.038624 295.123644 
L 378.338542 295.142668 
L 378.988501 295.13472 
L 382.238296 295.302398 
L 382.563276 295.211272 
L 383.863194 295.365586 
L 384.513153 295.058089 
L 385.488092 295.245813 
L 385.813071 295.341929 
L 386.78801 295.210811 
L 389.062867 295.420537 
L 389.387846 295.266427 
L 391.012744 295.187464 
L 391.662703 295.346493 
L 392.312662 295.435088 
L 392.637641 295.267434 
L 393.2876 295.275826 
L 393.61258 294.947105 
L 393.937559 294.971272 
L 394.587518 295.189697 
L 395.237477 295.192868 
L 395.562457 295.150634 
L 395.887437 295.269451 
L 396.537396 295.179501 
L 397.187355 295.453354 
L 397.512334 295.488 
L 398.162293 295.085498 
L 398.487273 295.103444 
L 398.487273 295.103444 
" style="fill:none;stroke:#ff7f0e;stroke-linecap:square;stroke-width:1.5;"/>
   </g>
   <g id="patch_3">
    <path d="M 57.6 307.584 
L 57.6 41.472 
" style="fill:none;stroke:#000000;stroke-linecap:square;stroke-linejoin:miter;stroke-width:0.8;"/>
   </g>
   <g id="patch_4">
    <path d="M 414.72 307.584 
L 414.72 41.472 
" style="fill:none;stroke:#000000;stroke-linecap:square;stroke-linejoin:miter;stroke-width:0.8;"/>
   </g>
   <g id="patch_5">
    <path d="M 57.6 307.584 
L 414.72 307.584 
" style="fill:none;stroke:#000000;stroke-linecap:square;stroke-linejoin:miter;stroke-width:0.8;"/>
   </g>
   <g id="patch_6">
    <path d="M 57.6 41.472 
L 414.72 41.472 
" style="fill:none;stroke:#000000;stroke-linecap:square;stroke-linejoin:miter;stroke-width:0.8;"/>
   </g>
  </g>
 </g>
 <defs>
  <clipPath id="pbd1437d8f9">
   <rect height="266.112" width="357.12" x="57.6" y="41.472"/>
  </clipPath>
 </defs>
</svg>
