<?xml version="1.0" encoding="utf-8" standalone="no"?>
<!DOCTYPE svg PUBLIC "-//W3C//DTD SVG 1.1//EN"
  "http://www.w3.org/Graphics/SVG/1.1/DTD/svg11.dtd">
<!-- Created with matplotlib (https://matplotlib.org/) -->
<svg height="345.6pt" version="1.1" viewBox="0 0 460.8 345.6" width="460.8pt" xmlns="http://www.w3.org/2000/svg" xmlns:xlink="http://www.w3.org/1999/xlink">
 <metadata>
  <rdf:RDF xmlns:cc="http://creativecommons.org/ns#" xmlns:dc="http://purl.org/dc/elements/1.1/" xmlns:rdf="http://www.w3.org/1999/02/22-rdf-syntax-ns#">
   <cc:Work>
    <dc:type rdf:resource="http://purl.org/dc/dcmitype/StillImage"/>
    <dc:date>2020-10-19T19:32:04.567796</dc:date>
    <dc:format>image/svg+xml</dc:format>
    <dc:creator>
     <cc:Agent>
      <dc:title>Matplotlib v3.3.2, https://matplotlib.org/</dc:title>
     </cc:Agent>
    </dc:creator>
   </cc:Work>
  </rdf:RDF>
 </metadata>
 <defs>
  <style type="text/css">*{stroke-linecap:butt;stroke-linejoin:round;}</style>
 </defs>
 <g id="figure_1">
  <g id="patch_1">
   <path d="M 0 345.6 
L 460.8 345.6 
L 460.8 0 
L 0 0 
z
" style="fill:#ffffff;"/>
  </g>
  <g id="axes_1">
   <g id="patch_2">
    <path d="M 57.6 307.584 
L 414.72 307.584 
L 414.72 41.472 
L 57.6 41.472 
z
" style="fill:#ffffff;"/>
   </g>
   <g id="matplotlib.axis_1">
    <g id="xtick_1">
     <g id="line2d_1">
      <defs>
       <path d="M 0 0 
L 0 3.5 
" id="maf8e57e9db" style="stroke:#000000;stroke-width:0.8;"/>
      </defs>
      <g>
       <use style="stroke:#000000;stroke-width:0.8;" x="73.832727" xlink:href="#maf8e57e9db" y="307.584"/>
      </g>
     </g>
     <g id="text_1">
      <!-- 0.0 -->
      <g transform="translate(65.881165 322.182437)scale(0.1 -0.1)">
       <defs>
        <path d="M 31.78125 66.40625 
Q 24.171875 66.40625 20.328125 58.90625 
Q 16.5 51.421875 16.5 36.375 
Q 16.5 21.390625 20.328125 13.890625 
Q 24.171875 6.390625 31.78125 6.390625 
Q 39.453125 6.390625 43.28125 13.890625 
Q 47.125 21.390625 47.125 36.375 
Q 47.125 51.421875 43.28125 58.90625 
Q 39.453125 66.40625 31.78125 66.40625 
z
M 31.78125 74.21875 
Q 44.046875 74.21875 50.515625 64.515625 
Q 56.984375 54.828125 56.984375 36.375 
Q 56.984375 17.96875 50.515625 8.265625 
Q 44.046875 -1.421875 31.78125 -1.421875 
Q 19.53125 -1.421875 13.0625 8.265625 
Q 6.59375 17.96875 6.59375 36.375 
Q 6.59375 54.828125 13.0625 64.515625 
Q 19.53125 74.21875 31.78125 74.21875 
z
" id="DejaVuSans-48"/>
        <path d="M 10.6875 12.40625 
L 21 12.40625 
L 21 0 
L 10.6875 0 
z
" id="DejaVuSans-46"/>
       </defs>
       <use xlink:href="#DejaVuSans-48"/>
       <use x="63.623047" xlink:href="#DejaVuSans-46"/>
       <use x="95.410156" xlink:href="#DejaVuSans-48"/>
      </g>
     </g>
    </g>
    <g id="xtick_2">
     <g id="line2d_2">
      <g>
       <use style="stroke:#000000;stroke-width:0.8;" x="118.925515" xlink:href="#maf8e57e9db" y="307.584"/>
      </g>
     </g>
     <g id="text_2">
      <!-- 0.2 -->
      <g transform="translate(110.973953 322.182437)scale(0.1 -0.1)">
       <defs>
        <path d="M 19.1875 8.296875 
L 53.609375 8.296875 
L 53.609375 0 
L 7.328125 0 
L 7.328125 8.296875 
Q 12.9375 14.109375 22.625 23.890625 
Q 32.328125 33.6875 34.8125 36.53125 
Q 39.546875 41.84375 41.421875 45.53125 
Q 43.3125 49.21875 43.3125 52.78125 
Q 43.3125 58.59375 39.234375 62.25 
Q 35.15625 65.921875 28.609375 65.921875 
Q 23.96875 65.921875 18.8125 64.3125 
Q 13.671875 62.703125 7.8125 59.421875 
L 7.8125 69.390625 
Q 13.765625 71.78125 18.9375 73 
Q 24.125 74.21875 28.421875 74.21875 
Q 39.75 74.21875 46.484375 68.546875 
Q 53.21875 62.890625 53.21875 53.421875 
Q 53.21875 48.921875 51.53125 44.890625 
Q 49.859375 40.875 45.40625 35.40625 
Q 44.1875 33.984375 37.640625 27.21875 
Q 31.109375 20.453125 19.1875 8.296875 
z
" id="DejaVuSans-50"/>
       </defs>
       <use xlink:href="#DejaVuSans-48"/>
       <use x="63.623047" xlink:href="#DejaVuSans-46"/>
       <use x="95.410156" xlink:href="#DejaVuSans-50"/>
      </g>
     </g>
    </g>
    <g id="xtick_3">
     <g id="line2d_3">
      <g>
       <use style="stroke:#000000;stroke-width:0.8;" x="164.018303" xlink:href="#maf8e57e9db" y="307.584"/>
      </g>
     </g>
     <g id="text_3">
      <!-- 0.4 -->
      <g transform="translate(156.066741 322.182437)scale(0.1 -0.1)">
       <defs>
        <path d="M 37.796875 64.3125 
L 12.890625 25.390625 
L 37.796875 25.390625 
z
M 35.203125 72.90625 
L 47.609375 72.90625 
L 47.609375 25.390625 
L 58.015625 25.390625 
L 58.015625 17.1875 
L 47.609375 17.1875 
L 47.609375 0 
L 37.796875 0 
L 37.796875 17.1875 
L 4.890625 17.1875 
L 4.890625 26.703125 
z
" id="DejaVuSans-52"/>
       </defs>
       <use xlink:href="#DejaVuSans-48"/>
       <use x="63.623047" xlink:href="#DejaVuSans-46"/>
       <use x="95.410156" xlink:href="#DejaVuSans-52"/>
      </g>
     </g>
    </g>
    <g id="xtick_4">
     <g id="line2d_4">
      <g>
       <use style="stroke:#000000;stroke-width:0.8;" x="209.111091" xlink:href="#maf8e57e9db" y="307.584"/>
      </g>
     </g>
     <g id="text_4">
      <!-- 0.6 -->
      <g transform="translate(201.159529 322.182437)scale(0.1 -0.1)">
       <defs>
        <path d="M 33.015625 40.375 
Q 26.375 40.375 22.484375 35.828125 
Q 18.609375 31.296875 18.609375 23.390625 
Q 18.609375 15.53125 22.484375 10.953125 
Q 26.375 6.390625 33.015625 6.390625 
Q 39.65625 6.390625 43.53125 10.953125 
Q 47.40625 15.53125 47.40625 23.390625 
Q 47.40625 31.296875 43.53125 35.828125 
Q 39.65625 40.375 33.015625 40.375 
z
M 52.59375 71.296875 
L 52.59375 62.3125 
Q 48.875 64.0625 45.09375 64.984375 
Q 41.3125 65.921875 37.59375 65.921875 
Q 27.828125 65.921875 22.671875 59.328125 
Q 17.53125 52.734375 16.796875 39.40625 
Q 19.671875 43.65625 24.015625 45.921875 
Q 28.375 48.1875 33.59375 48.1875 
Q 44.578125 48.1875 50.953125 41.515625 
Q 57.328125 34.859375 57.328125 23.390625 
Q 57.328125 12.15625 50.6875 5.359375 
Q 44.046875 -1.421875 33.015625 -1.421875 
Q 20.359375 -1.421875 13.671875 8.265625 
Q 6.984375 17.96875 6.984375 36.375 
Q 6.984375 53.65625 15.1875 63.9375 
Q 23.390625 74.21875 37.203125 74.21875 
Q 40.921875 74.21875 44.703125 73.484375 
Q 48.484375 72.75 52.59375 71.296875 
z
" id="DejaVuSans-54"/>
       </defs>
       <use xlink:href="#DejaVuSans-48"/>
       <use x="63.623047" xlink:href="#DejaVuSans-46"/>
       <use x="95.410156" xlink:href="#DejaVuSans-54"/>
      </g>
     </g>
    </g>
    <g id="xtick_5">
     <g id="line2d_5">
      <g>
       <use style="stroke:#000000;stroke-width:0.8;" x="254.203879" xlink:href="#maf8e57e9db" y="307.584"/>
      </g>
     </g>
     <g id="text_5">
      <!-- 0.8 -->
      <g transform="translate(246.252317 322.182437)scale(0.1 -0.1)">
       <defs>
        <path d="M 31.78125 34.625 
Q 24.75 34.625 20.71875 30.859375 
Q 16.703125 27.09375 16.703125 20.515625 
Q 16.703125 13.921875 20.71875 10.15625 
Q 24.75 6.390625 31.78125 6.390625 
Q 38.8125 6.390625 42.859375 10.171875 
Q 46.921875 13.96875 46.921875 20.515625 
Q 46.921875 27.09375 42.890625 30.859375 
Q 38.875 34.625 31.78125 34.625 
z
M 21.921875 38.8125 
Q 15.578125 40.375 12.03125 44.71875 
Q 8.5 49.078125 8.5 55.328125 
Q 8.5 64.0625 14.71875 69.140625 
Q 20.953125 74.21875 31.78125 74.21875 
Q 42.671875 74.21875 48.875 69.140625 
Q 55.078125 64.0625 55.078125 55.328125 
Q 55.078125 49.078125 51.53125 44.71875 
Q 48 40.375 41.703125 38.8125 
Q 48.828125 37.15625 52.796875 32.3125 
Q 56.78125 27.484375 56.78125 20.515625 
Q 56.78125 9.90625 50.3125 4.234375 
Q 43.84375 -1.421875 31.78125 -1.421875 
Q 19.734375 -1.421875 13.25 4.234375 
Q 6.78125 9.90625 6.78125 20.515625 
Q 6.78125 27.484375 10.78125 32.3125 
Q 14.796875 37.15625 21.921875 38.8125 
z
M 18.3125 54.390625 
Q 18.3125 48.734375 21.84375 45.5625 
Q 25.390625 42.390625 31.78125 42.390625 
Q 38.140625 42.390625 41.71875 45.5625 
Q 45.3125 48.734375 45.3125 54.390625 
Q 45.3125 60.0625 41.71875 63.234375 
Q 38.140625 66.40625 31.78125 66.40625 
Q 25.390625 66.40625 21.84375 63.234375 
Q 18.3125 60.0625 18.3125 54.390625 
z
" id="DejaVuSans-56"/>
       </defs>
       <use xlink:href="#DejaVuSans-48"/>
       <use x="63.623047" xlink:href="#DejaVuSans-46"/>
       <use x="95.410156" xlink:href="#DejaVuSans-56"/>
      </g>
     </g>
    </g>
    <g id="xtick_6">
     <g id="line2d_6">
      <g>
       <use style="stroke:#000000;stroke-width:0.8;" x="299.296667" xlink:href="#maf8e57e9db" y="307.584"/>
      </g>
     </g>
     <g id="text_6">
      <!-- 1.0 -->
      <g transform="translate(291.345105 322.182437)scale(0.1 -0.1)">
       <defs>
        <path d="M 12.40625 8.296875 
L 28.515625 8.296875 
L 28.515625 63.921875 
L 10.984375 60.40625 
L 10.984375 69.390625 
L 28.421875 72.90625 
L 38.28125 72.90625 
L 38.28125 8.296875 
L 54.390625 8.296875 
L 54.390625 0 
L 12.40625 0 
z
" id="DejaVuSans-49"/>
       </defs>
       <use xlink:href="#DejaVuSans-49"/>
       <use x="63.623047" xlink:href="#DejaVuSans-46"/>
       <use x="95.410156" xlink:href="#DejaVuSans-48"/>
      </g>
     </g>
    </g>
    <g id="xtick_7">
     <g id="line2d_7">
      <g>
       <use style="stroke:#000000;stroke-width:0.8;" x="344.389455" xlink:href="#maf8e57e9db" y="307.584"/>
      </g>
     </g>
     <g id="text_7">
      <!-- 1.2 -->
      <g transform="translate(336.437893 322.182437)scale(0.1 -0.1)">
       <use xlink:href="#DejaVuSans-49"/>
       <use x="63.623047" xlink:href="#DejaVuSans-46"/>
       <use x="95.410156" xlink:href="#DejaVuSans-50"/>
      </g>
     </g>
    </g>
    <g id="xtick_8">
     <g id="line2d_8">
      <g>
       <use style="stroke:#000000;stroke-width:0.8;" x="389.482243" xlink:href="#maf8e57e9db" y="307.584"/>
      </g>
     </g>
     <g id="text_8">
      <!-- 1.4 -->
      <g transform="translate(381.53068 322.182437)scale(0.1 -0.1)">
       <use xlink:href="#DejaVuSans-49"/>
       <use x="63.623047" xlink:href="#DejaVuSans-46"/>
       <use x="95.410156" xlink:href="#DejaVuSans-52"/>
      </g>
     </g>
    </g>
    <g id="text_9">
     <!-- Time (min) -->
     <g transform="translate(209.007656 335.860562)scale(0.1 -0.1)">
      <defs>
       <path d="M -0.296875 72.90625 
L 61.375 72.90625 
L 61.375 64.59375 
L 35.5 64.59375 
L 35.5 0 
L 25.59375 0 
L 25.59375 64.59375 
L -0.296875 64.59375 
z
" id="DejaVuSans-84"/>
       <path d="M 9.421875 54.6875 
L 18.40625 54.6875 
L 18.40625 0 
L 9.421875 0 
z
M 9.421875 75.984375 
L 18.40625 75.984375 
L 18.40625 64.59375 
L 9.421875 64.59375 
z
" id="DejaVuSans-105"/>
       <path d="M 52 44.1875 
Q 55.375 50.25 60.0625 53.125 
Q 64.75 56 71.09375 56 
Q 79.640625 56 84.28125 50.015625 
Q 88.921875 44.046875 88.921875 33.015625 
L 88.921875 0 
L 79.890625 0 
L 79.890625 32.71875 
Q 79.890625 40.578125 77.09375 44.375 
Q 74.3125 48.1875 68.609375 48.1875 
Q 61.625 48.1875 57.5625 43.546875 
Q 53.515625 38.921875 53.515625 30.90625 
L 53.515625 0 
L 44.484375 0 
L 44.484375 32.71875 
Q 44.484375 40.625 41.703125 44.40625 
Q 38.921875 48.1875 33.109375 48.1875 
Q 26.21875 48.1875 22.15625 43.53125 
Q 18.109375 38.875 18.109375 30.90625 
L 18.109375 0 
L 9.078125 0 
L 9.078125 54.6875 
L 18.109375 54.6875 
L 18.109375 46.1875 
Q 21.1875 51.21875 25.484375 53.609375 
Q 29.78125 56 35.6875 56 
Q 41.65625 56 45.828125 52.96875 
Q 50 49.953125 52 44.1875 
z
" id="DejaVuSans-109"/>
       <path d="M 56.203125 29.59375 
L 56.203125 25.203125 
L 14.890625 25.203125 
Q 15.484375 15.921875 20.484375 11.0625 
Q 25.484375 6.203125 34.421875 6.203125 
Q 39.59375 6.203125 44.453125 7.46875 
Q 49.3125 8.734375 54.109375 11.28125 
L 54.109375 2.78125 
Q 49.265625 0.734375 44.1875 -0.34375 
Q 39.109375 -1.421875 33.890625 -1.421875 
Q 20.796875 -1.421875 13.15625 6.1875 
Q 5.515625 13.8125 5.515625 26.8125 
Q 5.515625 40.234375 12.765625 48.109375 
Q 20.015625 56 32.328125 56 
Q 43.359375 56 49.78125 48.890625 
Q 56.203125 41.796875 56.203125 29.59375 
z
M 47.21875 32.234375 
Q 47.125 39.59375 43.09375 43.984375 
Q 39.0625 48.390625 32.421875 48.390625 
Q 24.90625 48.390625 20.390625 44.140625 
Q 15.875 39.890625 15.1875 32.171875 
z
" id="DejaVuSans-101"/>
       <path id="DejaVuSans-32"/>
       <path d="M 31 75.875 
Q 24.46875 64.65625 21.28125 53.65625 
Q 18.109375 42.671875 18.109375 31.390625 
Q 18.109375 20.125 21.3125 9.0625 
Q 24.515625 -2 31 -13.1875 
L 23.1875 -13.1875 
Q 15.875 -1.703125 12.234375 9.375 
Q 8.59375 20.453125 8.59375 31.390625 
Q 8.59375 42.28125 12.203125 53.3125 
Q 15.828125 64.359375 23.1875 75.875 
z
" id="DejaVuSans-40"/>
       <path d="M 54.890625 33.015625 
L 54.890625 0 
L 45.90625 0 
L 45.90625 32.71875 
Q 45.90625 40.484375 42.875 44.328125 
Q 39.84375 48.1875 33.796875 48.1875 
Q 26.515625 48.1875 22.3125 43.546875 
Q 18.109375 38.921875 18.109375 30.90625 
L 18.109375 0 
L 9.078125 0 
L 9.078125 54.6875 
L 18.109375 54.6875 
L 18.109375 46.1875 
Q 21.34375 51.125 25.703125 53.5625 
Q 30.078125 56 35.796875 56 
Q 45.21875 56 50.046875 50.171875 
Q 54.890625 44.34375 54.890625 33.015625 
z
" id="DejaVuSans-110"/>
       <path d="M 8.015625 75.875 
L 15.828125 75.875 
Q 23.140625 64.359375 26.78125 53.3125 
Q 30.421875 42.28125 30.421875 31.390625 
Q 30.421875 20.453125 26.78125 9.375 
Q 23.140625 -1.703125 15.828125 -13.1875 
L 8.015625 -13.1875 
Q 14.5 -2 17.703125 9.0625 
Q 20.90625 20.125 20.90625 31.390625 
Q 20.90625 42.671875 17.703125 53.65625 
Q 14.5 64.65625 8.015625 75.875 
z
" id="DejaVuSans-41"/>
      </defs>
      <use xlink:href="#DejaVuSans-84"/>
      <use x="57.958984" xlink:href="#DejaVuSans-105"/>
      <use x="85.742188" xlink:href="#DejaVuSans-109"/>
      <use x="183.154297" xlink:href="#DejaVuSans-101"/>
      <use x="244.677734" xlink:href="#DejaVuSans-32"/>
      <use x="276.464844" xlink:href="#DejaVuSans-40"/>
      <use x="315.478516" xlink:href="#DejaVuSans-109"/>
      <use x="412.890625" xlink:href="#DejaVuSans-105"/>
      <use x="440.673828" xlink:href="#DejaVuSans-110"/>
      <use x="504.052734" xlink:href="#DejaVuSans-41"/>
     </g>
    </g>
    <g id="text_10">
     <!-- 1e6 -->
     <g transform="translate(395.841875 334.860562)scale(0.1 -0.1)">
      <use xlink:href="#DejaVuSans-49"/>
      <use x="63.623047" xlink:href="#DejaVuSans-101"/>
      <use x="125.146484" xlink:href="#DejaVuSans-54"/>
     </g>
    </g>
   </g>
   <g id="matplotlib.axis_2">
    <g id="ytick_1">
     <g id="line2d_9">
      <defs>
       <path d="M 0 0 
L -3.5 0 
" id="m96f11d5495" style="stroke:#000000;stroke-width:0.8;"/>
      </defs>
      <g>
       <use style="stroke:#000000;stroke-width:0.8;" x="57.6" xlink:href="#m96f11d5495" y="282.289293"/>
      </g>
     </g>
     <g id="text_11">
      <!-- 0 -->
      <g transform="translate(44.2375 286.088512)scale(0.1 -0.1)">
       <use xlink:href="#DejaVuSans-48"/>
      </g>
     </g>
    </g>
    <g id="ytick_2">
     <g id="line2d_10">
      <g>
       <use style="stroke:#000000;stroke-width:0.8;" x="57.6" xlink:href="#m96f11d5495" y="233.219768"/>
      </g>
     </g>
     <g id="text_12">
      <!-- 20000 -->
      <g transform="translate(18.7875 237.018987)scale(0.1 -0.1)">
       <use xlink:href="#DejaVuSans-50"/>
       <use x="63.623047" xlink:href="#DejaVuSans-48"/>
       <use x="127.246094" xlink:href="#DejaVuSans-48"/>
       <use x="190.869141" xlink:href="#DejaVuSans-48"/>
       <use x="254.492188" xlink:href="#DejaVuSans-48"/>
      </g>
     </g>
    </g>
    <g id="ytick_3">
     <g id="line2d_11">
      <g>
       <use style="stroke:#000000;stroke-width:0.8;" x="57.6" xlink:href="#m96f11d5495" y="184.150243"/>
      </g>
     </g>
     <g id="text_13">
      <!-- 40000 -->
      <g transform="translate(18.7875 187.949462)scale(0.1 -0.1)">
       <use xlink:href="#DejaVuSans-52"/>
       <use x="63.623047" xlink:href="#DejaVuSans-48"/>
       <use x="127.246094" xlink:href="#DejaVuSans-48"/>
       <use x="190.869141" xlink:href="#DejaVuSans-48"/>
       <use x="254.492188" xlink:href="#DejaVuSans-48"/>
      </g>
     </g>
    </g>
    <g id="ytick_4">
     <g id="line2d_12">
      <g>
       <use style="stroke:#000000;stroke-width:0.8;" x="57.6" xlink:href="#m96f11d5495" y="135.080718"/>
      </g>
     </g>
     <g id="text_14">
      <!-- 60000 -->
      <g transform="translate(18.7875 138.879937)scale(0.1 -0.1)">
       <use xlink:href="#DejaVuSans-54"/>
       <use x="63.623047" xlink:href="#DejaVuSans-48"/>
       <use x="127.246094" xlink:href="#DejaVuSans-48"/>
       <use x="190.869141" xlink:href="#DejaVuSans-48"/>
       <use x="254.492188" xlink:href="#DejaVuSans-48"/>
      </g>
     </g>
    </g>
    <g id="ytick_5">
     <g id="line2d_13">
      <g>
       <use style="stroke:#000000;stroke-width:0.8;" x="57.6" xlink:href="#m96f11d5495" y="86.011194"/>
      </g>
     </g>
     <g id="text_15">
      <!-- 80000 -->
      <g transform="translate(18.7875 89.810412)scale(0.1 -0.1)">
       <use xlink:href="#DejaVuSans-56"/>
       <use x="63.623047" xlink:href="#DejaVuSans-48"/>
       <use x="127.246094" xlink:href="#DejaVuSans-48"/>
       <use x="190.869141" xlink:href="#DejaVuSans-48"/>
       <use x="254.492188" xlink:href="#DejaVuSans-48"/>
      </g>
     </g>
    </g>
    <g id="text_16">
     <!-- Density -->
     <g transform="translate(12.707812 193.536594)rotate(-90)scale(0.1 -0.1)">
      <defs>
       <path d="M 19.671875 64.796875 
L 19.671875 8.109375 
L 31.59375 8.109375 
Q 46.6875 8.109375 53.6875 14.9375 
Q 60.6875 21.78125 60.6875 36.53125 
Q 60.6875 51.171875 53.6875 57.984375 
Q 46.6875 64.796875 31.59375 64.796875 
z
M 9.8125 72.90625 
L 30.078125 72.90625 
Q 51.265625 72.90625 61.171875 64.09375 
Q 71.09375 55.28125 71.09375 36.53125 
Q 71.09375 17.671875 61.125 8.828125 
Q 51.171875 0 30.078125 0 
L 9.8125 0 
z
" id="DejaVuSans-68"/>
       <path d="M 44.28125 53.078125 
L 44.28125 44.578125 
Q 40.484375 46.53125 36.375 47.5 
Q 32.28125 48.484375 27.875 48.484375 
Q 21.1875 48.484375 17.84375 46.4375 
Q 14.5 44.390625 14.5 40.28125 
Q 14.5 37.15625 16.890625 35.375 
Q 19.28125 33.59375 26.515625 31.984375 
L 29.59375 31.296875 
Q 39.15625 29.25 43.1875 25.515625 
Q 47.21875 21.78125 47.21875 15.09375 
Q 47.21875 7.46875 41.1875 3.015625 
Q 35.15625 -1.421875 24.609375 -1.421875 
Q 20.21875 -1.421875 15.453125 -0.5625 
Q 10.6875 0.296875 5.421875 2 
L 5.421875 11.28125 
Q 10.40625 8.6875 15.234375 7.390625 
Q 20.0625 6.109375 24.8125 6.109375 
Q 31.15625 6.109375 34.5625 8.28125 
Q 37.984375 10.453125 37.984375 14.40625 
Q 37.984375 18.0625 35.515625 20.015625 
Q 33.0625 21.96875 24.703125 23.78125 
L 21.578125 24.515625 
Q 13.234375 26.265625 9.515625 29.90625 
Q 5.8125 33.546875 5.8125 39.890625 
Q 5.8125 47.609375 11.28125 51.796875 
Q 16.75 56 26.8125 56 
Q 31.78125 56 36.171875 55.265625 
Q 40.578125 54.546875 44.28125 53.078125 
z
" id="DejaVuSans-115"/>
       <path d="M 18.3125 70.21875 
L 18.3125 54.6875 
L 36.8125 54.6875 
L 36.8125 47.703125 
L 18.3125 47.703125 
L 18.3125 18.015625 
Q 18.3125 11.328125 20.140625 9.421875 
Q 21.96875 7.515625 27.59375 7.515625 
L 36.8125 7.515625 
L 36.8125 0 
L 27.59375 0 
Q 17.1875 0 13.234375 3.875 
Q 9.28125 7.765625 9.28125 18.015625 
L 9.28125 47.703125 
L 2.6875 47.703125 
L 2.6875 54.6875 
L 9.28125 54.6875 
L 9.28125 70.21875 
z
" id="DejaVuSans-116"/>
       <path d="M 32.171875 -5.078125 
Q 28.375 -14.84375 24.75 -17.8125 
Q 21.140625 -20.796875 15.09375 -20.796875 
L 7.90625 -20.796875 
L 7.90625 -13.28125 
L 13.1875 -13.28125 
Q 16.890625 -13.28125 18.9375 -11.515625 
Q 21 -9.765625 23.484375 -3.21875 
L 25.09375 0.875 
L 2.984375 54.6875 
L 12.5 54.6875 
L 29.59375 11.921875 
L 46.6875 54.6875 
L 56.203125 54.6875 
z
" id="DejaVuSans-121"/>
      </defs>
      <use xlink:href="#DejaVuSans-68"/>
      <use x="77.001953" xlink:href="#DejaVuSans-101"/>
      <use x="138.525391" xlink:href="#DejaVuSans-110"/>
      <use x="201.904297" xlink:href="#DejaVuSans-115"/>
      <use x="254.003906" xlink:href="#DejaVuSans-105"/>
      <use x="281.787109" xlink:href="#DejaVuSans-116"/>
      <use x="320.996094" xlink:href="#DejaVuSans-121"/>
     </g>
    </g>
   </g>
   <g id="line2d_14">
    <path clip-path="url(#pc82c52832b)" d="M 73.832727 282.289293 
L 398.487273 282.289293 
L 398.487273 282.289293 
" style="fill:none;stroke:#1f77b4;stroke-linecap:square;stroke-width:1.5;"/>
   </g>
   <g id="line2d_15">
    <path clip-path="url(#pc82c52832b)" d="M 73.832727 282.289293 
L 398.487273 282.289293 
L 398.487273 282.289293 
" style="fill:none;stroke:#ff7f0e;stroke-linecap:square;stroke-width:1.5;"/>
   </g>
   <g id="line2d_16">
    <path clip-path="url(#pc82c52832b)" d="M 73.832727 282.264758 
L 74.860843 282.102547 
L 75.415484 281.789976 
L 75.997181 281.171731 
L 76.890018 280.23686 
L 77.471715 279.977874 
L 78.337497 279.868628 
L 81.178342 279.844917 
L 398.487273 279.844845 
L 398.487273 279.844845 
" style="fill:none;stroke:#2ca02c;stroke-linecap:square;stroke-width:1.5;"/>
   </g>
   <g id="line2d_17">
    <path clip-path="url(#pc82c52832b)" d="M 73.832727 282.043945 
L 73.886839 53.568 
L 73.954478 53.720982 
L 74.049173 55.207789 
L 74.089756 55.064642 
L 74.103284 54.882205 
L 74.143868 55.738246 
L 74.157395 55.67706 
L 74.184451 55.859843 
L 74.319729 57.42297 
L 74.617342 62.552295 
L 74.793204 67.523375 
L 74.820259 68.120913 
L 75.239622 87.847262 
L 75.726624 130.726289 
L 76.227154 191.125928 
L 76.835907 252.311848 
L 77.295853 276.670956 
L 77.688161 286.704941 
L 78.080468 291.436994 
L 78.459247 293.603051 
L 78.919194 294.71953 
L 79.527946 295.245547 
L 80.434311 295.423293 
L 80.529006 295.417842 
L 80.556062 295.438477 
L 84.073299 295.45074 
L 84.167994 295.467185 
L 84.181522 295.45382 
L 84.370912 295.457167 
L 84.519718 295.48372 
L 84.533246 295.463123 
L 84.654996 295.452551 
L 84.736163 295.472306 
L 84.763219 295.453962 
L 84.857914 295.443654 
L 84.88497 295.464208 
L 85.155526 295.45159 
L 85.250221 295.468044 
L 85.277277 295.444399 
L 86.954729 295.443915 
L 87.035896 295.475937 
L 87.062951 295.454 
L 87.387619 295.444219 
L 87.468786 295.476782 
L 87.495842 295.453103 
L 87.82051 295.444402 
L 87.901677 295.477555 
L 87.928733 295.452345 
L 88.32104 295.444296 
L 88.415735 295.466921 
L 88.429263 295.45989 
L 88.605125 295.449005 
L 89.146238 295.463884 
L 89.254461 295.435577 
L 89.267989 295.460741 
L 89.51149 295.461146 
L 89.660296 295.448797 
L 100.942511 295.449313 
L 101.037206 295.46637 
L 101.050734 295.450796 
L 101.294235 295.444617 
L 101.38893 295.481108 
L 101.402458 295.461715 
L 101.524208 295.455642 
L 101.632431 295.451924 
L 101.727126 295.444765 
L 101.740654 295.475024 
L 102.241184 295.458354 
L 102.335879 295.465594 
L 102.362934 295.443862 
L 102.538796 295.462955 
L 103.134021 295.460798 
L 103.255771 295.456778 
L 103.404578 295.463022 
L 104.581499 295.455833 
L 104.676194 295.446741 
L 104.70325 295.465468 
L 105.190252 295.446446 
L 105.284947 295.467991 
L 105.298475 295.446807 
L 106.177784 295.446148 
L 106.421285 295.448882 
L 106.502452 295.481156 
L 106.529508 295.445075 
L 107.178844 295.454222 
L 107.273539 295.443351 
L 107.287067 295.468831 
L 107.51704 295.477877 
L 107.625263 295.432415 
L 107.652318 295.458223 
L 107.801124 295.482628 
L 107.814652 295.463046 
L 107.936403 295.452877 
L 108.031098 295.465603 
L 108.044625 295.453853 
L 108.13932 295.443634 
L 108.166376 295.464643 
L 108.423405 295.431449 
L 108.531628 295.468048 
L 108.545155 295.456418 
L 108.721017 295.440225 
L 108.815712 295.477016 
L 108.842768 295.437886 
L 109.032158 295.464675 
L 109.235075 295.453753 
L 109.316242 295.472952 
L 109.343298 295.453043 
L 109.437993 295.444103 
L 109.465048 295.464754 
L 109.667966 295.453898 
L 109.749133 295.473072 
L 109.776189 295.452872 
L 109.870883 295.444268 
L 109.897939 295.464749 
L 110.087329 295.455246 
L 111.399529 295.455011 
L 111.521279 295.448435 
L 111.900059 295.452129 
L 111.981226 295.486838 
L 112.021809 295.445697 
L 114.199791 295.446466 
L 114.294486 295.467393 
L 114.308014 295.45672 
L 114.497403 295.454736 
L 114.64621 295.484191 
L 114.781488 295.450541 
L 114.876183 295.465625 
L 114.889711 295.455716 
L 114.984406 295.443083 
L 115.011461 295.46281 
L 116.513051 295.451632 
L 116.594218 295.486296 
L 116.621274 295.449957 
L 116.783608 295.433957 
L 116.89183 295.467584 
L 116.918886 295.446467 
L 117.202971 295.450111 
L 117.338249 295.453299 
L 117.514111 295.442338 
L 117.595278 295.473214 
L 117.622334 295.457369 
L 117.811723 295.452362 
L 117.906418 295.464598 
L 117.933474 295.44766 
L 118.176975 295.456876 
L 118.325781 295.470328 
L 118.609866 295.457214 
L 118.7722 295.463904 
L 118.921006 295.455316 
L 119.178035 295.448838 
L 119.259202 295.475336 
L 119.299785 295.446861 
L 119.678565 295.456651 
L 119.759732 295.478567 
L 119.800315 295.449349 
L 119.949122 295.428075 
L 120.057344 295.470834 
L 120.070872 295.46285 
L 120.219678 295.452176 
L 120.760792 295.447922 
L 120.855487 295.472133 
L 120.869014 295.458192 
L 120.963709 295.442928 
L 120.990765 295.460263 
L 121.220738 295.463986 
L 121.342489 295.450492 
L 121.477767 295.463188 
L 121.829491 295.44298 
L 121.937713 295.470852 
L 121.951241 295.443229 
L 122.248854 295.445629 
L 122.722328 295.461135 
L 123.114635 295.445356 
L 123.655749 295.461573 
L 123.885722 295.466713 
L 123.993945 295.443427 
L 124.007472 295.469243 
L 124.223918 295.449777 
L 124.318613 295.466485 
L 124.332141 295.437837 
L 124.535058 295.466284 
L 124.724448 295.444055 
L 124.819143 295.465071 
L 124.846198 295.446528 
L 125.224978 295.449198 
L 125.3332 295.460151 
L 125.346728 295.451264 
L 125.441423 295.445075 
L 125.468479 295.47127 
L 125.644341 295.443641 
L 125.914897 295.457973 
L 126.02312 295.445214 
L 126.117815 295.47317 
L 126.144871 295.44776 
L 126.307205 295.445462 
L 126.401899 295.479777 
L 126.415427 295.460655 
L 126.537178 295.457189 
L 126.685984 295.463992 
L 141.160769 295.44803 
L 141.255464 295.46793 
L 141.268992 295.456725 
L 141.431326 295.438483 
L 141.539548 295.477382 
L 141.553076 295.459809 
L 141.647771 295.439546 
L 141.674827 295.460075 
L 141.9048 295.46696 
L 142.067134 295.433728 
L 142.21594 295.449324 
L 142.364746 295.445457 
L 142.540608 295.487574 
L 142.554136 295.466555 
L 142.729998 295.433497 
L 142.838221 295.476266 
L 142.851749 295.458886 
L 142.959971 295.443843 
L 143.041138 295.476729 
L 143.068194 295.453435 
L 143.392862 295.457439 
L 143.514613 295.448997 
L 143.663419 295.444161 
L 143.839281 295.476211 
L 144.02867 295.446358 
L 144.813285 295.448925 
L 144.962091 295.428084 
L 145.070314 295.470808 
L 145.083842 295.461355 
L 145.232648 295.449 
L 152.185956 295.446967 
L 152.28065 295.474141 
L 152.294178 295.45903 
L 152.388873 295.443117 
L 152.415929 295.459148 
L 152.591791 295.450334 
L 152.916459 295.457614 
L 153.065265 295.48021 
L 153.200543 295.450397 
L 153.214071 295.470819 
L 153.430517 295.467007 
L 153.687545 295.443122 
L 153.795768 295.472327 
L 153.809296 295.456694 
L 153.958102 295.444092 
L 154.47216 295.447663 
L 154.648022 295.459712 
L 154.823884 295.442839 
L 155.202663 295.449732 
L 156.379585 295.461231 
L 156.623086 295.45093 
L 156.866587 295.444459 
L 156.961282 295.481453 
L 156.97481 295.461819 
L 157.09656 295.455342 
L 157.204783 295.452087 
L 157.299478 295.444697 
L 157.326533 295.465379 
L 157.502395 295.444099 
L 157.691785 295.465555 
L 157.881175 295.4434 
L 157.97587 295.474114 
L 158.002925 295.435873 
L 158.124676 295.465215 
L 158.138204 295.453655 
L 158.314066 295.443714 
L 158.40876 295.473597 
L 158.435816 295.43549 
L 158.557567 295.464666 
L 158.571094 295.453238 
L 158.746956 295.445115 
L 158.841651 295.473222 
L 158.868707 295.435148 
L 158.990457 295.464203 
L 159.003985 295.45293 
L 159.233958 295.44373 
L 159.382765 295.444702 
L 159.572154 295.460378 
L 159.693905 295.456915 
L 159.842711 295.464916 
L 160.694965 295.447648 
L 160.776132 295.480147 
L 160.803187 295.44757 
L 252.373112 295.442359 
L 252.454279 295.473255 
L 252.481335 295.45732 
L 252.670724 295.452386 
L 252.765419 295.464577 
L 252.792475 295.447666 
L 253.035976 295.456906 
L 253.19831 295.4643 
L 253.306533 295.444124 
L 253.414755 295.462631 
L 253.428283 295.450991 
L 253.536506 295.452764 
L 253.631201 295.463882 
L 253.644729 295.447313 
L 253.969397 295.452971 
L 254.064091 295.463523 
L 254.091147 295.442863 
L 254.267009 295.466002 
L 254.605205 295.44384 
L 254.713428 295.461051 
L 254.902817 295.449743 
L 254.997512 295.468485 
L 255.024568 295.446391 
L 255.268069 295.453733 
L 255.403347 295.462607 
L 256.052683 295.448212 
L 256.147378 295.471125 
L 256.160906 295.457837 
L 256.255601 295.442941 
L 256.282657 295.460613 
L 256.51263 295.463737 
L 256.63438 295.450899 
L 256.769659 295.464483 
L 257.067271 295.45278 
L 257.20255 295.46566 
L 257.418995 295.442244 
L 257.51369 295.470608 
L 257.527218 295.460826 
L 257.689552 295.440238 
L 257.838358 295.446782 
L 258.149498 295.460853 
L 258.392999 295.460124 
L 258.555333 295.439818 
L 258.663556 295.480317 
L 258.690612 295.440875 
L 258.974696 295.454484 
L 259.082919 295.449798 
L 259.177614 295.46647 
L 259.191141 295.437795 
L 259.394059 295.466256 
L 259.583449 295.44409 
L 259.678144 295.465075 
L 259.705199 295.446524 
L 260.083979 295.449253 
L 260.192201 295.460102 
L 260.205729 295.451247 
L 260.300424 295.445091 
L 260.32748 295.471235 
L 260.503342 295.443632 
L 260.773898 295.45795 
L 260.882121 295.445251 
L 260.976816 295.473134 
L 261.003872 295.447746 
L 261.166206 295.445478 
L 261.2609 295.479748 
L 261.274428 295.460637 
L 261.396179 295.457215 
L 261.544985 295.464018 
L 270.473357 295.452911 
L 270.568052 295.464252 
L 270.58158 295.45342 
L 270.770969 295.467963 
L 271.339139 295.454015 
L 271.487945 295.479753 
L 271.650279 295.46084 
L 271.812613 295.430064 
L 271.826141 295.449789 
L 272.272559 295.46411 
L 272.434893 295.46762 
L 272.610755 295.43309 
L 272.624283 295.450475 
L 272.948951 295.459508 
L 273.138341 295.466066 
L 273.300675 295.467485 
L 273.476537 295.432648 
L 273.598287 295.461041 
L 273.611815 295.442291 
L 274.098817 295.46354 
L 274.220568 295.451711 
L 274.301735 295.471513 
L 274.32879 295.45471 
L 274.423485 295.443344 
L 274.450541 295.463684 
L 274.856376 295.443485 
L 274.964599 295.466889 
L 275.086349 295.452162 
L 275.167516 295.472151 
L 275.194572 295.454213 
L 275.289267 295.443616 
L 275.316322 295.463971 
L 275.586879 295.447594 
L 275.681574 295.46833 
L 275.695102 295.457114 
L 275.870964 295.439869 
L 275.965659 295.477539 
L 275.992714 295.437642 
L 276.195632 295.456452 
L 276.385021 295.452939 
L 276.466189 295.48501 
L 276.493244 295.44803 
L 276.655578 295.434556 
L 276.669106 295.457511 
L 276.844968 295.459399 
L 276.953191 295.443397 
L 277.034358 295.475107 
L 277.061413 295.455051 
L 277.318442 295.449428 
L 277.399609 295.487571 
L 277.440193 295.445119 
L 278.901199 295.448115 
L 278.995894 295.474961 
L 279.009422 295.458032 
L 279.104117 295.442775 
L 279.117644 295.459438 
L 279.239395 295.448781 
L 279.388201 295.42831 
L 279.496424 295.470887 
L 279.509952 295.461696 
L 279.658758 295.449841 
L 281.065653 295.449396 
L 281.160348 295.467639 
L 281.173876 295.456615 
L 281.26857 295.443027 
L 281.295626 295.461846 
L 282.039657 295.452311 
L 282.174935 295.462077 
L 282.364325 295.450151 
L 282.445492 295.487456 
L 282.472548 295.451902 
L 282.607826 295.461324 
L 282.797216 295.450492 
L 282.891911 295.466249 
L 282.905439 295.43771 
L 283.108356 295.464214 
L 283.297746 295.445026 
L 283.378913 295.486443 
L 283.419496 295.444998 
L 284.231167 295.450885 
L 284.352917 295.450685 
L 284.488195 295.454393 
L 284.664057 295.45186 
L 284.785808 295.450461 
L 284.934614 295.428503 
L 285.056365 295.464745 
L 285.205171 295.457052 
L 285.4622 295.447022 
L 285.556895 295.471364 
L 285.58395 295.447135 
L 285.746284 295.446268 
L 285.840979 295.478296 
L 285.854507 295.459768 
L 285.976257 295.458434 
L 286.138592 295.46236 
L 286.327981 295.447267 
L 286.422676 295.470279 
L 286.449732 295.446992 
L 286.612066 295.446824 
L 286.706761 295.474784 
L 286.720288 295.459267 
L 286.814983 295.443117 
L 286.842039 295.458929 
L 287.004373 295.46149 
L 287.193763 295.448156 
L 287.288458 295.46885 
L 287.301985 295.454577 
L 287.39668 295.433421 
L 287.423736 295.465249 
L 287.77546 295.457639 
L 287.924266 295.480216 
L 288.059544 295.450438 
L 288.073072 295.470821 
L 288.289518 295.467021 
L 288.546546 295.44312 
L 288.654769 295.472268 
L 288.668297 295.456668 
L 288.817103 295.444054 
L 289.331161 295.447657 
L 289.507023 295.459748 
L 289.682885 295.442802 
L 290.061664 295.449759 
L 291.238586 295.461264 
L 291.482087 295.450902 
L 291.725588 295.444472 
L 291.820283 295.481433 
L 291.833811 295.461803 
L 291.955561 295.455369 
L 292.063784 295.452069 
L 292.158479 295.44471 
L 292.185534 295.465382 
L 292.361396 295.444088 
L 292.550786 295.465526 
L 292.740176 295.443435 
L 292.834871 295.474079 
L 292.861926 295.435855 
L 292.983677 295.465185 
L 292.997205 295.453629 
L 293.173066 295.44375 
L 293.267761 295.473561 
L 293.294817 295.435473 
L 293.416568 295.464636 
L 293.430095 295.453212 
L 293.605957 295.445155 
L 293.700652 295.473184 
L 293.727708 295.435132 
L 293.849458 295.464172 
L 293.862986 295.452904 
L 294.092959 295.443721 
L 294.241766 295.444748 
L 294.431155 295.460342 
L 294.552906 295.45694 
L 294.701712 295.464941 
L 295.553966 295.447676 
L 295.635133 295.480165 
L 295.662188 295.447527 
L 345.539321 295.456396 
L 345.647544 295.448406 
L 345.742239 295.467138 
L 345.755766 295.452466 
L 345.945156 295.46011 
L 346.134546 295.447317 
L 346.378047 295.460494 
L 346.60802 295.466685 
L 346.756826 295.462826 
L 346.946216 295.448828 
L 347.040911 295.466446 
L 347.054439 295.451127 
L 347.29794 295.444412 
L 347.392635 295.481225 
L 347.406163 295.462101 
L 347.527913 295.454931 
L 347.636136 295.452313 
L 347.730831 295.444602 
L 347.757886 295.465252 
L 347.933748 295.444193 
L 348.123138 295.465852 
L 348.312528 295.442928 
L 348.407222 295.474381 
L 348.434278 295.435878 
L 348.556029 295.46532 
L 348.569556 295.453811 
L 348.745418 295.444262 
L 348.840113 295.474032 
L 348.867169 295.435518 
L 348.988919 295.464869 
L 349.002447 295.453496 
L 349.178309 295.444766 
L 349.273004 295.47339 
L 349.30006 295.435116 
L 349.475921 295.478057 
L 349.665311 295.443864 
L 349.814117 295.444602 
L 349.989979 295.467884 
L 350.125258 295.456472 
L 350.274064 295.464546 
L 351.559208 295.44758 
L 351.640375 295.480696 
L 351.667431 295.446963 
L 353.5478 295.451005 
L 353.628967 295.432204 
L 353.574856 295.469362 
L 353.656023 295.457492 
L 353.804829 295.483686 
L 353.818357 295.463325 
L 353.940108 295.452312 
L 354.021275 295.472038 
L 354.04833 295.454216 
L 354.143025 295.443516 
L 354.170081 295.464073 
L 354.440637 295.45141 
L 354.535332 295.468354 
L 354.562388 295.444329 
L 356.172201 295.449277 
L 356.266895 295.466928 
L 356.280423 295.455775 
L 356.442757 295.438281 
L 356.55098 295.476126 
L 356.564508 295.458878 
L 356.67273 295.443964 
L 356.753897 295.476012 
L 356.780953 295.453905 
L 357.105621 295.444269 
L 357.186788 295.476854 
L 357.213844 295.453008 
L 357.538512 295.444452 
L 357.619679 295.477625 
L 357.646735 295.452251 
L 358.039042 295.444322 
L 358.133737 295.466947 
L 358.147265 295.459822 
L 358.323126 295.449032 
L 358.86424 295.463859 
L 358.972463 295.435621 
L 358.98599 295.460798 
L 359.229492 295.461095 
L 359.378298 295.448703 
L 398.487273 295.456699 
L 398.487273 295.456699 
" style="fill:none;stroke:#d62728;stroke-linecap:square;stroke-width:1.5;"/>
   </g>
   <g id="line2d_18">
    <path clip-path="url(#pc82c52832b)" d="M 73.832727 282.289293 
L 398.487273 282.289293 
L 398.487273 282.289293 
" style="fill:none;stroke:#9467bd;stroke-linecap:square;stroke-width:1.5;"/>
   </g>
   <g id="patch_3">
    <path d="M 57.6 307.584 
L 57.6 41.472 
" style="fill:none;stroke:#000000;stroke-linecap:square;stroke-linejoin:miter;stroke-width:0.8;"/>
   </g>
   <g id="patch_4">
    <path d="M 414.72 307.584 
L 414.72 41.472 
" style="fill:none;stroke:#000000;stroke-linecap:square;stroke-linejoin:miter;stroke-width:0.8;"/>
   </g>
   <g id="patch_5">
    <path d="M 57.6 307.584 
L 414.72 307.584 
" style="fill:none;stroke:#000000;stroke-linecap:square;stroke-linejoin:miter;stroke-width:0.8;"/>
   </g>
   <g id="patch_6">
    <path d="M 57.6 41.472 
L 414.72 41.472 
" style="fill:none;stroke:#000000;stroke-linecap:square;stroke-linejoin:miter;stroke-width:0.8;"/>
   </g>
   <g id="legend_1">
    <g id="patch_7">
     <path d="M 356.516875 122.862625 
L 407.72 122.862625 
Q 409.72 122.862625 409.72 120.862625 
L 409.72 48.472 
Q 409.72 46.472 407.72 46.472 
L 356.516875 46.472 
Q 354.516875 46.472 354.516875 48.472 
L 354.516875 120.862625 
Q 354.516875 122.862625 356.516875 122.862625 
z
" style="fill:#ffffff;opacity:0.8;stroke:#cccccc;stroke-linejoin:miter;"/>
    </g>
    <g id="line2d_19">
     <path d="M 358.516875 54.570438 
L 378.516875 54.570438 
" style="fill:none;stroke:#1f77b4;stroke-linecap:square;stroke-width:1.5;"/>
    </g>
    <g id="line2d_20"/>
    <g id="text_17">
     <!-- T+ -->
     <g transform="translate(386.516875 58.070438)scale(0.1 -0.1)">
      <defs>
       <path d="M 46 62.703125 
L 46 35.5 
L 73.1875 35.5 
L 73.1875 27.203125 
L 46 27.203125 
L 46 0 
L 37.796875 0 
L 37.796875 27.203125 
L 10.59375 27.203125 
L 10.59375 35.5 
L 37.796875 35.5 
L 37.796875 62.703125 
z
" id="DejaVuSans-43"/>
      </defs>
      <use xlink:href="#DejaVuSans-84"/>
      <use x="61.083984" xlink:href="#DejaVuSans-43"/>
     </g>
    </g>
    <g id="line2d_21">
     <path d="M 358.516875 69.248563 
L 378.516875 69.248563 
" style="fill:none;stroke:#ff7f0e;stroke-linecap:square;stroke-width:1.5;"/>
    </g>
    <g id="line2d_22"/>
    <g id="text_18">
     <!-- Tp -->
     <g transform="translate(386.516875 72.748563)scale(0.1 -0.1)">
      <defs>
       <path d="M 18.109375 8.203125 
L 18.109375 -20.796875 
L 9.078125 -20.796875 
L 9.078125 54.6875 
L 18.109375 54.6875 
L 18.109375 46.390625 
Q 20.953125 51.265625 25.265625 53.625 
Q 29.59375 56 35.59375 56 
Q 45.5625 56 51.78125 48.09375 
Q 58.015625 40.1875 58.015625 27.296875 
Q 58.015625 14.40625 51.78125 6.484375 
Q 45.5625 -1.421875 35.59375 -1.421875 
Q 29.59375 -1.421875 25.265625 0.953125 
Q 20.953125 3.328125 18.109375 8.203125 
z
M 48.6875 27.296875 
Q 48.6875 37.203125 44.609375 42.84375 
Q 40.53125 48.484375 33.40625 48.484375 
Q 26.265625 48.484375 22.1875 42.84375 
Q 18.109375 37.203125 18.109375 27.296875 
Q 18.109375 17.390625 22.1875 11.75 
Q 26.265625 6.109375 33.40625 6.109375 
Q 40.53125 6.109375 44.609375 11.75 
Q 48.6875 17.390625 48.6875 27.296875 
z
" id="DejaVuSans-112"/>
      </defs>
      <use xlink:href="#DejaVuSans-84"/>
      <use x="61.083984" xlink:href="#DejaVuSans-112"/>
     </g>
    </g>
    <g id="line2d_23">
     <path d="M 358.516875 83.926688 
L 378.516875 83.926688 
" style="fill:none;stroke:#2ca02c;stroke-linecap:square;stroke-width:1.5;"/>
    </g>
    <g id="line2d_24"/>
    <g id="text_19">
     <!-- T- -->
     <g transform="translate(386.516875 87.426688)scale(0.1 -0.1)">
      <defs>
       <path d="M 4.890625 31.390625 
L 31.203125 31.390625 
L 31.203125 23.390625 
L 4.890625 23.390625 
z
" id="DejaVuSans-45"/>
      </defs>
      <use xlink:href="#DejaVuSans-84"/>
      <use x="51.958984" xlink:href="#DejaVuSans-45"/>
     </g>
    </g>
    <g id="line2d_25">
     <path d="M 358.516875 98.604813 
L 378.516875 98.604813 
" style="fill:none;stroke:#d62728;stroke-linecap:square;stroke-width:1.5;"/>
    </g>
    <g id="line2d_26"/>
    <g id="text_20">
     <!-- O2 -->
     <g transform="translate(386.516875 102.104813)scale(0.1 -0.1)">
      <defs>
       <path d="M 39.40625 66.21875 
Q 28.65625 66.21875 22.328125 58.203125 
Q 16.015625 50.203125 16.015625 36.375 
Q 16.015625 22.609375 22.328125 14.59375 
Q 28.65625 6.59375 39.40625 6.59375 
Q 50.140625 6.59375 56.421875 14.59375 
Q 62.703125 22.609375 62.703125 36.375 
Q 62.703125 50.203125 56.421875 58.203125 
Q 50.140625 66.21875 39.40625 66.21875 
z
M 39.40625 74.21875 
Q 54.734375 74.21875 63.90625 63.9375 
Q 73.09375 53.65625 73.09375 36.375 
Q 73.09375 19.140625 63.90625 8.859375 
Q 54.734375 -1.421875 39.40625 -1.421875 
Q 24.03125 -1.421875 14.8125 8.828125 
Q 5.609375 19.09375 5.609375 36.375 
Q 5.609375 53.65625 14.8125 63.9375 
Q 24.03125 74.21875 39.40625 74.21875 
z
" id="DejaVuSans-79"/>
      </defs>
      <use xlink:href="#DejaVuSans-79"/>
      <use x="78.710938" xlink:href="#DejaVuSans-50"/>
     </g>
    </g>
    <g id="line2d_27">
     <path d="M 358.516875 113.282938 
L 378.516875 113.282938 
" style="fill:none;stroke:#9467bd;stroke-linecap:square;stroke-width:1.5;"/>
    </g>
    <g id="line2d_28"/>
    <g id="text_21">
     <!-- test -->
     <g transform="translate(386.516875 116.782938)scale(0.1 -0.1)">
      <use xlink:href="#DejaVuSans-116"/>
      <use x="39.208984" xlink:href="#DejaVuSans-101"/>
      <use x="100.732422" xlink:href="#DejaVuSans-115"/>
      <use x="152.832031" xlink:href="#DejaVuSans-116"/>
     </g>
    </g>
   </g>
  </g>
 </g>
 <defs>
  <clipPath id="pc82c52832b">
   <rect height="266.112" width="357.12" x="57.6" y="41.472"/>
  </clipPath>
 </defs>
</svg>
