<?xml version="1.0" encoding="utf-8" standalone="no"?>
<!DOCTYPE svg PUBLIC "-//W3C//DTD SVG 1.1//EN"
  "http://www.w3.org/Graphics/SVG/1.1/DTD/svg11.dtd">
<!-- Created with matplotlib (https://matplotlib.org/) -->
<svg height="648pt" version="1.1" viewBox="0 0 720 648" width="720pt" xmlns="http://www.w3.org/2000/svg" xmlns:xlink="http://www.w3.org/1999/xlink">
 <defs>
  <style type="text/css">
*{stroke-linecap:butt;stroke-linejoin:round;}
  </style>
 </defs>
 <g id="figure_1">
  <g id="patch_1">
   <path d="M 0 648 
L 720 648 
L 720 0 
L 0 0 
z
" style="fill:#ffffff;"/>
  </g>
  <g id="axes_1">
   <g id="patch_2">
    <path d="M 57.44 199.68 
L 358.163926 199.68 
L 358.163926 25.44 
L 57.44 25.44 
z
" style="fill:#ffffff;"/>
   </g>
   <g id="matplotlib.axis_1">
    <g id="xtick_1">
     <g id="line2d_1">
      <defs>
       <path d="M 0 0 
L 0 3.5 
" id="mf138fcffef" style="stroke:#000000;stroke-width:0.8;"/>
      </defs>
      <g>
       <use style="stroke:#000000;stroke-width:0.8;" x="71.109269" xlink:href="#mf138fcffef" y="199.68"/>
      </g>
     </g>
    </g>
    <g id="xtick_2">
     <g id="line2d_2">
      <g>
       <use style="stroke:#000000;stroke-width:0.8;" x="125.786347" xlink:href="#mf138fcffef" y="199.68"/>
      </g>
     </g>
    </g>
    <g id="xtick_3">
     <g id="line2d_3">
      <g>
       <use style="stroke:#000000;stroke-width:0.8;" x="180.463424" xlink:href="#mf138fcffef" y="199.68"/>
      </g>
     </g>
    </g>
    <g id="xtick_4">
     <g id="line2d_4">
      <g>
       <use style="stroke:#000000;stroke-width:0.8;" x="235.140502" xlink:href="#mf138fcffef" y="199.68"/>
      </g>
     </g>
    </g>
    <g id="xtick_5">
     <g id="line2d_5">
      <g>
       <use style="stroke:#000000;stroke-width:0.8;" x="289.817579" xlink:href="#mf138fcffef" y="199.68"/>
      </g>
     </g>
    </g>
    <g id="xtick_6">
     <g id="line2d_6">
      <g>
       <use style="stroke:#000000;stroke-width:0.8;" x="344.494656" xlink:href="#mf138fcffef" y="199.68"/>
      </g>
     </g>
    </g>
   </g>
   <g id="matplotlib.axis_2">
    <g id="ytick_1">
     <g id="line2d_7">
      <defs>
       <path d="M 0 0 
L -3.5 0 
" id="mfd2aa10084" style="stroke:#000000;stroke-width:0.8;"/>
      </defs>
      <g>
       <use style="stroke:#000000;stroke-width:0.8;" x="57.44" xlink:href="#mfd2aa10084" y="195.247354"/>
      </g>
     </g>
     <g id="text_1">
      <!-- 0 -->
      <defs>
       <path d="M 31.78125 66.40625 
Q 24.171875 66.40625 20.328125 58.90625 
Q 16.5 51.421875 16.5 36.375 
Q 16.5 21.390625 20.328125 13.890625 
Q 24.171875 6.390625 31.78125 6.390625 
Q 39.453125 6.390625 43.28125 13.890625 
Q 47.125 21.390625 47.125 36.375 
Q 47.125 51.421875 43.28125 58.90625 
Q 39.453125 66.40625 31.78125 66.40625 
z
M 31.78125 74.21875 
Q 44.046875 74.21875 50.515625 64.515625 
Q 56.984375 54.828125 56.984375 36.375 
Q 56.984375 17.96875 50.515625 8.265625 
Q 44.046875 -1.421875 31.78125 -1.421875 
Q 19.53125 -1.421875 13.0625 8.265625 
Q 6.59375 17.96875 6.59375 36.375 
Q 6.59375 54.828125 13.0625 64.515625 
Q 19.53125 74.21875 31.78125 74.21875 
z
" id="DejaVuSans-48"/>
      </defs>
      <g transform="translate(44.0775 199.046573)scale(0.1 -0.1)">
       <use xlink:href="#DejaVuSans-48"/>
      </g>
     </g>
    </g>
    <g id="ytick_2">
     <g id="line2d_8">
      <g>
       <use style="stroke:#000000;stroke-width:0.8;" x="57.44" xlink:href="#mfd2aa10084" y="155.129169"/>
      </g>
     </g>
     <g id="text_2">
      <!-- 2000 -->
      <defs>
       <path d="M 19.1875 8.296875 
L 53.609375 8.296875 
L 53.609375 0 
L 7.328125 0 
L 7.328125 8.296875 
Q 12.9375 14.109375 22.625 23.890625 
Q 32.328125 33.6875 34.8125 36.53125 
Q 39.546875 41.84375 41.421875 45.53125 
Q 43.3125 49.21875 43.3125 52.78125 
Q 43.3125 58.59375 39.234375 62.25 
Q 35.15625 65.921875 28.609375 65.921875 
Q 23.96875 65.921875 18.8125 64.3125 
Q 13.671875 62.703125 7.8125 59.421875 
L 7.8125 69.390625 
Q 13.765625 71.78125 18.9375 73 
Q 24.125 74.21875 28.421875 74.21875 
Q 39.75 74.21875 46.484375 68.546875 
Q 53.21875 62.890625 53.21875 53.421875 
Q 53.21875 48.921875 51.53125 44.890625 
Q 49.859375 40.875 45.40625 35.40625 
Q 44.1875 33.984375 37.640625 27.21875 
Q 31.109375 20.453125 19.1875 8.296875 
z
" id="DejaVuSans-50"/>
      </defs>
      <g transform="translate(24.99 158.928388)scale(0.1 -0.1)">
       <use xlink:href="#DejaVuSans-50"/>
       <use x="63.623047" xlink:href="#DejaVuSans-48"/>
       <use x="127.246094" xlink:href="#DejaVuSans-48"/>
       <use x="190.869141" xlink:href="#DejaVuSans-48"/>
      </g>
     </g>
    </g>
    <g id="ytick_3">
     <g id="line2d_9">
      <g>
       <use style="stroke:#000000;stroke-width:0.8;" x="57.44" xlink:href="#mfd2aa10084" y="115.010984"/>
      </g>
     </g>
     <g id="text_3">
      <!-- 4000 -->
      <defs>
       <path d="M 37.796875 64.3125 
L 12.890625 25.390625 
L 37.796875 25.390625 
z
M 35.203125 72.90625 
L 47.609375 72.90625 
L 47.609375 25.390625 
L 58.015625 25.390625 
L 58.015625 17.1875 
L 47.609375 17.1875 
L 47.609375 0 
L 37.796875 0 
L 37.796875 17.1875 
L 4.890625 17.1875 
L 4.890625 26.703125 
z
" id="DejaVuSans-52"/>
      </defs>
      <g transform="translate(24.99 118.810203)scale(0.1 -0.1)">
       <use xlink:href="#DejaVuSans-52"/>
       <use x="63.623047" xlink:href="#DejaVuSans-48"/>
       <use x="127.246094" xlink:href="#DejaVuSans-48"/>
       <use x="190.869141" xlink:href="#DejaVuSans-48"/>
      </g>
     </g>
    </g>
    <g id="ytick_4">
     <g id="line2d_10">
      <g>
       <use style="stroke:#000000;stroke-width:0.8;" x="57.44" xlink:href="#mfd2aa10084" y="74.8928"/>
      </g>
     </g>
     <g id="text_4">
      <!-- 6000 -->
      <defs>
       <path d="M 33.015625 40.375 
Q 26.375 40.375 22.484375 35.828125 
Q 18.609375 31.296875 18.609375 23.390625 
Q 18.609375 15.53125 22.484375 10.953125 
Q 26.375 6.390625 33.015625 6.390625 
Q 39.65625 6.390625 43.53125 10.953125 
Q 47.40625 15.53125 47.40625 23.390625 
Q 47.40625 31.296875 43.53125 35.828125 
Q 39.65625 40.375 33.015625 40.375 
z
M 52.59375 71.296875 
L 52.59375 62.3125 
Q 48.875 64.0625 45.09375 64.984375 
Q 41.3125 65.921875 37.59375 65.921875 
Q 27.828125 65.921875 22.671875 59.328125 
Q 17.53125 52.734375 16.796875 39.40625 
Q 19.671875 43.65625 24.015625 45.921875 
Q 28.375 48.1875 33.59375 48.1875 
Q 44.578125 48.1875 50.953125 41.515625 
Q 57.328125 34.859375 57.328125 23.390625 
Q 57.328125 12.15625 50.6875 5.359375 
Q 44.046875 -1.421875 33.015625 -1.421875 
Q 20.359375 -1.421875 13.671875 8.265625 
Q 6.984375 17.96875 6.984375 36.375 
Q 6.984375 53.65625 15.1875 63.9375 
Q 23.390625 74.21875 37.203125 74.21875 
Q 40.921875 74.21875 44.703125 73.484375 
Q 48.484375 72.75 52.59375 71.296875 
z
" id="DejaVuSans-54"/>
      </defs>
      <g transform="translate(24.99 78.692018)scale(0.1 -0.1)">
       <use xlink:href="#DejaVuSans-54"/>
       <use x="63.623047" xlink:href="#DejaVuSans-48"/>
       <use x="127.246094" xlink:href="#DejaVuSans-48"/>
       <use x="190.869141" xlink:href="#DejaVuSans-48"/>
      </g>
     </g>
    </g>
    <g id="ytick_5">
     <g id="line2d_11">
      <g>
       <use style="stroke:#000000;stroke-width:0.8;" x="57.44" xlink:href="#mfd2aa10084" y="34.774615"/>
      </g>
     </g>
     <g id="text_5">
      <!-- 8000 -->
      <defs>
       <path d="M 31.78125 34.625 
Q 24.75 34.625 20.71875 30.859375 
Q 16.703125 27.09375 16.703125 20.515625 
Q 16.703125 13.921875 20.71875 10.15625 
Q 24.75 6.390625 31.78125 6.390625 
Q 38.8125 6.390625 42.859375 10.171875 
Q 46.921875 13.96875 46.921875 20.515625 
Q 46.921875 27.09375 42.890625 30.859375 
Q 38.875 34.625 31.78125 34.625 
z
M 21.921875 38.8125 
Q 15.578125 40.375 12.03125 44.71875 
Q 8.5 49.078125 8.5 55.328125 
Q 8.5 64.0625 14.71875 69.140625 
Q 20.953125 74.21875 31.78125 74.21875 
Q 42.671875 74.21875 48.875 69.140625 
Q 55.078125 64.0625 55.078125 55.328125 
Q 55.078125 49.078125 51.53125 44.71875 
Q 48 40.375 41.703125 38.8125 
Q 48.828125 37.15625 52.796875 32.3125 
Q 56.78125 27.484375 56.78125 20.515625 
Q 56.78125 9.90625 50.3125 4.234375 
Q 43.84375 -1.421875 31.78125 -1.421875 
Q 19.734375 -1.421875 13.25 4.234375 
Q 6.78125 9.90625 6.78125 20.515625 
Q 6.78125 27.484375 10.78125 32.3125 
Q 14.796875 37.15625 21.921875 38.8125 
z
M 18.3125 54.390625 
Q 18.3125 48.734375 21.84375 45.5625 
Q 25.390625 42.390625 31.78125 42.390625 
Q 38.140625 42.390625 41.71875 45.5625 
Q 45.3125 48.734375 45.3125 54.390625 
Q 45.3125 60.0625 41.71875 63.234375 
Q 38.140625 66.40625 31.78125 66.40625 
Q 25.390625 66.40625 21.84375 63.234375 
Q 18.3125 60.0625 18.3125 54.390625 
z
" id="DejaVuSans-56"/>
      </defs>
      <g transform="translate(24.99 38.573833)scale(0.1 -0.1)">
       <use xlink:href="#DejaVuSans-56"/>
       <use x="63.623047" xlink:href="#DejaVuSans-48"/>
       <use x="127.246094" xlink:href="#DejaVuSans-48"/>
       <use x="190.869141" xlink:href="#DejaVuSans-48"/>
      </g>
     </g>
    </g>
    <g id="text_6">
     <!-- No of Cells -->
     <defs>
      <path d="M 9.8125 72.90625 
L 23.09375 72.90625 
L 55.421875 11.921875 
L 55.421875 72.90625 
L 64.984375 72.90625 
L 64.984375 0 
L 51.703125 0 
L 19.390625 60.984375 
L 19.390625 0 
L 9.8125 0 
z
" id="DejaVuSans-78"/>
      <path d="M 30.609375 48.390625 
Q 23.390625 48.390625 19.1875 42.75 
Q 14.984375 37.109375 14.984375 27.296875 
Q 14.984375 17.484375 19.15625 11.84375 
Q 23.34375 6.203125 30.609375 6.203125 
Q 37.796875 6.203125 41.984375 11.859375 
Q 46.1875 17.53125 46.1875 27.296875 
Q 46.1875 37.015625 41.984375 42.703125 
Q 37.796875 48.390625 30.609375 48.390625 
z
M 30.609375 56 
Q 42.328125 56 49.015625 48.375 
Q 55.71875 40.765625 55.71875 27.296875 
Q 55.71875 13.875 49.015625 6.21875 
Q 42.328125 -1.421875 30.609375 -1.421875 
Q 18.84375 -1.421875 12.171875 6.21875 
Q 5.515625 13.875 5.515625 27.296875 
Q 5.515625 40.765625 12.171875 48.375 
Q 18.84375 56 30.609375 56 
z
" id="DejaVuSans-111"/>
      <path id="DejaVuSans-32"/>
      <path d="M 37.109375 75.984375 
L 37.109375 68.5 
L 28.515625 68.5 
Q 23.6875 68.5 21.796875 66.546875 
Q 19.921875 64.59375 19.921875 59.515625 
L 19.921875 54.6875 
L 34.71875 54.6875 
L 34.71875 47.703125 
L 19.921875 47.703125 
L 19.921875 0 
L 10.890625 0 
L 10.890625 47.703125 
L 2.296875 47.703125 
L 2.296875 54.6875 
L 10.890625 54.6875 
L 10.890625 58.5 
Q 10.890625 67.625 15.140625 71.796875 
Q 19.390625 75.984375 28.609375 75.984375 
z
" id="DejaVuSans-102"/>
      <path d="M 64.40625 67.28125 
L 64.40625 56.890625 
Q 59.421875 61.53125 53.78125 63.8125 
Q 48.140625 66.109375 41.796875 66.109375 
Q 29.296875 66.109375 22.65625 58.46875 
Q 16.015625 50.828125 16.015625 36.375 
Q 16.015625 21.96875 22.65625 14.328125 
Q 29.296875 6.6875 41.796875 6.6875 
Q 48.140625 6.6875 53.78125 8.984375 
Q 59.421875 11.28125 64.40625 15.921875 
L 64.40625 5.609375 
Q 59.234375 2.09375 53.4375 0.328125 
Q 47.65625 -1.421875 41.21875 -1.421875 
Q 24.65625 -1.421875 15.125 8.703125 
Q 5.609375 18.84375 5.609375 36.375 
Q 5.609375 53.953125 15.125 64.078125 
Q 24.65625 74.21875 41.21875 74.21875 
Q 47.75 74.21875 53.53125 72.484375 
Q 59.328125 70.75 64.40625 67.28125 
z
" id="DejaVuSans-67"/>
      <path d="M 56.203125 29.59375 
L 56.203125 25.203125 
L 14.890625 25.203125 
Q 15.484375 15.921875 20.484375 11.0625 
Q 25.484375 6.203125 34.421875 6.203125 
Q 39.59375 6.203125 44.453125 7.46875 
Q 49.3125 8.734375 54.109375 11.28125 
L 54.109375 2.78125 
Q 49.265625 0.734375 44.1875 -0.34375 
Q 39.109375 -1.421875 33.890625 -1.421875 
Q 20.796875 -1.421875 13.15625 6.1875 
Q 5.515625 13.8125 5.515625 26.8125 
Q 5.515625 40.234375 12.765625 48.109375 
Q 20.015625 56 32.328125 56 
Q 43.359375 56 49.78125 48.890625 
Q 56.203125 41.796875 56.203125 29.59375 
z
M 47.21875 32.234375 
Q 47.125 39.59375 43.09375 43.984375 
Q 39.0625 48.390625 32.421875 48.390625 
Q 24.90625 48.390625 20.390625 44.140625 
Q 15.875 39.890625 15.1875 32.171875 
z
" id="DejaVuSans-101"/>
      <path d="M 9.421875 75.984375 
L 18.40625 75.984375 
L 18.40625 0 
L 9.421875 0 
z
" id="DejaVuSans-108"/>
      <path d="M 44.28125 53.078125 
L 44.28125 44.578125 
Q 40.484375 46.53125 36.375 47.5 
Q 32.28125 48.484375 27.875 48.484375 
Q 21.1875 48.484375 17.84375 46.4375 
Q 14.5 44.390625 14.5 40.28125 
Q 14.5 37.15625 16.890625 35.375 
Q 19.28125 33.59375 26.515625 31.984375 
L 29.59375 31.296875 
Q 39.15625 29.25 43.1875 25.515625 
Q 47.21875 21.78125 47.21875 15.09375 
Q 47.21875 7.46875 41.1875 3.015625 
Q 35.15625 -1.421875 24.609375 -1.421875 
Q 20.21875 -1.421875 15.453125 -0.5625 
Q 10.6875 0.296875 5.421875 2 
L 5.421875 11.28125 
Q 10.40625 8.6875 15.234375 7.390625 
Q 20.0625 6.109375 24.8125 6.109375 
Q 31.15625 6.109375 34.5625 8.28125 
Q 37.984375 10.453125 37.984375 14.40625 
Q 37.984375 18.0625 35.515625 20.015625 
Q 33.0625 21.96875 24.703125 23.78125 
L 21.578125 24.515625 
Q 13.234375 26.265625 9.515625 29.90625 
Q 5.8125 33.546875 5.8125 39.890625 
Q 5.8125 47.609375 11.28125 51.796875 
Q 16.75 56 26.8125 56 
Q 31.78125 56 36.171875 55.265625 
Q 40.578125 54.546875 44.28125 53.078125 
z
" id="DejaVuSans-115"/>
     </defs>
     <g transform="translate(18.910312 139.308437)rotate(-90)scale(0.1 -0.1)">
      <use xlink:href="#DejaVuSans-78"/>
      <use x="74.804688" xlink:href="#DejaVuSans-111"/>
      <use x="135.986328" xlink:href="#DejaVuSans-32"/>
      <use x="167.773438" xlink:href="#DejaVuSans-111"/>
      <use x="228.955078" xlink:href="#DejaVuSans-102"/>
      <use x="264.160156" xlink:href="#DejaVuSans-32"/>
      <use x="295.947266" xlink:href="#DejaVuSans-67"/>
      <use x="365.771484" xlink:href="#DejaVuSans-101"/>
      <use x="427.294922" xlink:href="#DejaVuSans-108"/>
      <use x="455.078125" xlink:href="#DejaVuSans-108"/>
      <use x="482.861328" xlink:href="#DejaVuSans-115"/>
     </g>
    </g>
   </g>
   <g id="line2d_12">
    <path clip-path="url(#p38abfc02d5)" d="M 71.109269 191.235536 
L 71.12066 191.76 
L 71.211789 191.293298 
L 71.667431 188.088507 
L 73.05714 177.396934 
L 73.478609 176.143039 
L 73.900079 175.536311 
L 74.378503 175.231512 
L 75.09614 175.067122 
L 76.884536 174.961599 
L 100.441243 174.184004 
L 132.939931 173.303665 
L 166.0993 172.629431 
L 201.138194 172.142247 
L 239.469103 171.835851 
L 283.096855 171.715341 
L 335.313464 171.801723 
L 344.494656 171.83621 
L 344.494656 171.83621 
" style="fill:none;stroke:#2ca02c;stroke-linecap:square;stroke-width:1.5;"/>
   </g>
   <g id="line2d_13">
    <path clip-path="url(#p38abfc02d5)" d="M 71.109269 163.152806 
L 71.12066 166.833307 
L 71.211789 163.620048 
L 71.747169 138.569561 
L 72.817928 87.192102 
L 73.250788 77.071657 
L 73.649475 72.320344 
L 74.036771 70.03312 
L 74.435458 68.878225 
L 74.868318 68.265571 
L 75.415089 67.886822 
L 76.349156 67.554159 
L 79.812037 66.692653 
L 95.110228 63.10791 
L 110.180598 59.804063 
L 125.125665 56.755145 
L 140.070733 53.933135 
L 155.141103 51.31399 
L 170.450684 48.879565 
L 186.101998 46.616718 
L 202.220344 44.512052 
L 218.931026 42.555578 
L 236.393518 40.736771 
L 254.778685 39.047853 
L 274.234612 37.48594 
L 295.057465 36.039652 
L 317.566196 34.702019 
L 342.159489 33.466546 
L 344.494656 33.36 
L 344.494656 33.36 
" style="fill:none;stroke:#1f77b4;stroke-linecap:square;stroke-width:1.5;"/>
   </g>
   <g id="line2d_14">
    <path clip-path="url(#p38abfc02d5)" d="M 71.109269 191.235536 
L 71.43961 187.738975 
L 71.861079 180.580704 
L 73.15966 156.260033 
L 73.569738 153.349344 
L 73.945643 152.076885 
L 74.321548 151.511474 
L 74.720235 151.293632 
L 75.255614 151.271018 
L 76.292201 151.495071 
L 82.990143 153.427646 
L 96.613848 157.210719 
L 110.043905 160.709886 
L 123.371442 163.953036 
L 136.710371 166.970057 
L 150.117646 169.774527 
L 163.695787 172.387233 
L 177.51314 174.819009 
L 191.649443 177.080595 
L 206.207215 179.183522 
L 221.277584 181.134598 
L 236.963071 182.93973 
L 253.400367 184.605876 
L 270.737557 186.137704 
L 289.145506 187.538713 
L 308.863428 188.813819 
L 330.176097 189.966108 
L 344.494656 190.626366 
L 344.494656 190.626366 
" style="fill:none;stroke:#d62728;stroke-linecap:square;stroke-width:1.5;"/>
   </g>
   <g id="patch_3">
    <path d="M 57.44 199.68 
L 57.44 25.44 
" style="fill:none;stroke:#000000;stroke-linecap:square;stroke-linejoin:miter;stroke-width:0.8;"/>
   </g>
   <g id="patch_4">
    <path d="M 358.163926 199.68 
L 358.163926 25.44 
" style="fill:none;stroke:#000000;stroke-linecap:square;stroke-linejoin:miter;stroke-width:0.8;"/>
   </g>
   <g id="patch_5">
    <path d="M 57.44 199.68 
L 358.163926 199.68 
" style="fill:none;stroke:#000000;stroke-linecap:square;stroke-linejoin:miter;stroke-width:0.8;"/>
   </g>
   <g id="patch_6">
    <path d="M 57.44 25.44 
L 358.163926 25.44 
" style="fill:none;stroke:#000000;stroke-linecap:square;stroke-linejoin:miter;stroke-width:0.8;"/>
   </g>
   <g id="text_7">
    <!-- o2-efficiency=Caseo2-Null_test-HE -->
    <defs>
     <path d="M 4.890625 31.390625 
L 31.203125 31.390625 
L 31.203125 23.390625 
L 4.890625 23.390625 
z
" id="DejaVuSans-45"/>
     <path d="M 9.421875 54.6875 
L 18.40625 54.6875 
L 18.40625 0 
L 9.421875 0 
z
M 9.421875 75.984375 
L 18.40625 75.984375 
L 18.40625 64.59375 
L 9.421875 64.59375 
z
" id="DejaVuSans-105"/>
     <path d="M 48.78125 52.59375 
L 48.78125 44.1875 
Q 44.96875 46.296875 41.140625 47.34375 
Q 37.3125 48.390625 33.40625 48.390625 
Q 24.65625 48.390625 19.8125 42.84375 
Q 14.984375 37.3125 14.984375 27.296875 
Q 14.984375 17.28125 19.8125 11.734375 
Q 24.65625 6.203125 33.40625 6.203125 
Q 37.3125 6.203125 41.140625 7.25 
Q 44.96875 8.296875 48.78125 10.40625 
L 48.78125 2.09375 
Q 45.015625 0.34375 40.984375 -0.53125 
Q 36.96875 -1.421875 32.421875 -1.421875 
Q 20.0625 -1.421875 12.78125 6.34375 
Q 5.515625 14.109375 5.515625 27.296875 
Q 5.515625 40.671875 12.859375 48.328125 
Q 20.21875 56 33.015625 56 
Q 37.15625 56 41.109375 55.140625 
Q 45.0625 54.296875 48.78125 52.59375 
z
" id="DejaVuSans-99"/>
     <path d="M 54.890625 33.015625 
L 54.890625 0 
L 45.90625 0 
L 45.90625 32.71875 
Q 45.90625 40.484375 42.875 44.328125 
Q 39.84375 48.1875 33.796875 48.1875 
Q 26.515625 48.1875 22.3125 43.546875 
Q 18.109375 38.921875 18.109375 30.90625 
L 18.109375 0 
L 9.078125 0 
L 9.078125 54.6875 
L 18.109375 54.6875 
L 18.109375 46.1875 
Q 21.34375 51.125 25.703125 53.5625 
Q 30.078125 56 35.796875 56 
Q 45.21875 56 50.046875 50.171875 
Q 54.890625 44.34375 54.890625 33.015625 
z
" id="DejaVuSans-110"/>
     <path d="M 32.171875 -5.078125 
Q 28.375 -14.84375 24.75 -17.8125 
Q 21.140625 -20.796875 15.09375 -20.796875 
L 7.90625 -20.796875 
L 7.90625 -13.28125 
L 13.1875 -13.28125 
Q 16.890625 -13.28125 18.9375 -11.515625 
Q 21 -9.765625 23.484375 -3.21875 
L 25.09375 0.875 
L 2.984375 54.6875 
L 12.5 54.6875 
L 29.59375 11.921875 
L 46.6875 54.6875 
L 56.203125 54.6875 
z
" id="DejaVuSans-121"/>
     <path d="M 10.59375 45.40625 
L 73.1875 45.40625 
L 73.1875 37.203125 
L 10.59375 37.203125 
z
M 10.59375 25.484375 
L 73.1875 25.484375 
L 73.1875 17.1875 
L 10.59375 17.1875 
z
" id="DejaVuSans-61"/>
     <path d="M 34.28125 27.484375 
Q 23.390625 27.484375 19.1875 25 
Q 14.984375 22.515625 14.984375 16.5 
Q 14.984375 11.71875 18.140625 8.90625 
Q 21.296875 6.109375 26.703125 6.109375 
Q 34.1875 6.109375 38.703125 11.40625 
Q 43.21875 16.703125 43.21875 25.484375 
L 43.21875 27.484375 
z
M 52.203125 31.203125 
L 52.203125 0 
L 43.21875 0 
L 43.21875 8.296875 
Q 40.140625 3.328125 35.546875 0.953125 
Q 30.953125 -1.421875 24.3125 -1.421875 
Q 15.921875 -1.421875 10.953125 3.296875 
Q 6 8.015625 6 15.921875 
Q 6 25.140625 12.171875 29.828125 
Q 18.359375 34.515625 30.609375 34.515625 
L 43.21875 34.515625 
L 43.21875 35.40625 
Q 43.21875 41.609375 39.140625 45 
Q 35.0625 48.390625 27.6875 48.390625 
Q 23 48.390625 18.546875 47.265625 
Q 14.109375 46.140625 10.015625 43.890625 
L 10.015625 52.203125 
Q 14.9375 54.109375 19.578125 55.046875 
Q 24.21875 56 28.609375 56 
Q 40.484375 56 46.34375 49.84375 
Q 52.203125 43.703125 52.203125 31.203125 
z
" id="DejaVuSans-97"/>
     <path d="M 8.5 21.578125 
L 8.5 54.6875 
L 17.484375 54.6875 
L 17.484375 21.921875 
Q 17.484375 14.15625 20.5 10.265625 
Q 23.53125 6.390625 29.59375 6.390625 
Q 36.859375 6.390625 41.078125 11.03125 
Q 45.3125 15.671875 45.3125 23.6875 
L 45.3125 54.6875 
L 54.296875 54.6875 
L 54.296875 0 
L 45.3125 0 
L 45.3125 8.40625 
Q 42.046875 3.421875 37.71875 1 
Q 33.40625 -1.421875 27.6875 -1.421875 
Q 18.265625 -1.421875 13.375 4.4375 
Q 8.5 10.296875 8.5 21.578125 
z
M 31.109375 56 
z
" id="DejaVuSans-117"/>
     <path d="M 50.984375 -16.609375 
L 50.984375 -23.578125 
L -0.984375 -23.578125 
L -0.984375 -16.609375 
z
" id="DejaVuSans-95"/>
     <path d="M 18.3125 70.21875 
L 18.3125 54.6875 
L 36.8125 54.6875 
L 36.8125 47.703125 
L 18.3125 47.703125 
L 18.3125 18.015625 
Q 18.3125 11.328125 20.140625 9.421875 
Q 21.96875 7.515625 27.59375 7.515625 
L 36.8125 7.515625 
L 36.8125 0 
L 27.59375 0 
Q 17.1875 0 13.234375 3.875 
Q 9.28125 7.765625 9.28125 18.015625 
L 9.28125 47.703125 
L 2.6875 47.703125 
L 2.6875 54.6875 
L 9.28125 54.6875 
L 9.28125 70.21875 
z
" id="DejaVuSans-116"/>
     <path d="M 9.8125 72.90625 
L 19.671875 72.90625 
L 19.671875 43.015625 
L 55.515625 43.015625 
L 55.515625 72.90625 
L 65.375 72.90625 
L 65.375 0 
L 55.515625 0 
L 55.515625 34.71875 
L 19.671875 34.71875 
L 19.671875 0 
L 9.8125 0 
z
" id="DejaVuSans-72"/>
     <path d="M 9.8125 72.90625 
L 55.90625 72.90625 
L 55.90625 64.59375 
L 19.671875 64.59375 
L 19.671875 43.015625 
L 54.390625 43.015625 
L 54.390625 34.71875 
L 19.671875 34.71875 
L 19.671875 8.296875 
L 56.78125 8.296875 
L 56.78125 0 
L 9.8125 0 
z
" id="DejaVuSans-69"/>
    </defs>
    <g transform="translate(103.274463 19.44)scale(0.12 -0.12)">
     <use xlink:href="#DejaVuSans-111"/>
     <use x="61.181641" xlink:href="#DejaVuSans-50"/>
     <use x="124.804688" xlink:href="#DejaVuSans-45"/>
     <use x="160.888672" xlink:href="#DejaVuSans-101"/>
     <use x="222.412109" xlink:href="#DejaVuSans-102"/>
     <use x="257.617188" xlink:href="#DejaVuSans-102"/>
     <use x="292.822266" xlink:href="#DejaVuSans-105"/>
     <use x="320.605469" xlink:href="#DejaVuSans-99"/>
     <use x="375.585938" xlink:href="#DejaVuSans-105"/>
     <use x="403.369141" xlink:href="#DejaVuSans-101"/>
     <use x="464.892578" xlink:href="#DejaVuSans-110"/>
     <use x="528.271484" xlink:href="#DejaVuSans-99"/>
     <use x="583.251953" xlink:href="#DejaVuSans-121"/>
     <use x="642.431641" xlink:href="#DejaVuSans-61"/>
     <use x="726.220703" xlink:href="#DejaVuSans-67"/>
     <use x="796.044922" xlink:href="#DejaVuSans-97"/>
     <use x="857.324219" xlink:href="#DejaVuSans-115"/>
     <use x="909.423828" xlink:href="#DejaVuSans-101"/>
     <use x="970.947266" xlink:href="#DejaVuSans-111"/>
     <use x="1032.128906" xlink:href="#DejaVuSans-50"/>
     <use x="1095.751953" xlink:href="#DejaVuSans-45"/>
     <use x="1131.835938" xlink:href="#DejaVuSans-78"/>
     <use x="1206.640625" xlink:href="#DejaVuSans-117"/>
     <use x="1270.019531" xlink:href="#DejaVuSans-108"/>
     <use x="1297.802734" xlink:href="#DejaVuSans-108"/>
     <use x="1325.585938" xlink:href="#DejaVuSans-95"/>
     <use x="1375.585938" xlink:href="#DejaVuSans-116"/>
     <use x="1414.794922" xlink:href="#DejaVuSans-101"/>
     <use x="1476.318359" xlink:href="#DejaVuSans-115"/>
     <use x="1528.417969" xlink:href="#DejaVuSans-116"/>
     <use x="1567.626953" xlink:href="#DejaVuSans-45"/>
     <use x="1603.710938" xlink:href="#DejaVuSans-72"/>
     <use x="1678.90625" xlink:href="#DejaVuSans-69"/>
    </g>
   </g>
   <g id="legend_1">
    <g id="patch_7">
     <path d="M 304.676426 136.077188 
L 351.163926 136.077188 
Q 353.163926 136.077188 353.163926 134.077188 
L 353.163926 91.042813 
Q 353.163926 89.042813 351.163926 89.042813 
L 304.676426 89.042813 
Q 302.676426 89.042813 302.676426 91.042813 
L 302.676426 134.077188 
Q 302.676426 136.077188 304.676426 136.077188 
z
" style="fill:#ffffff;opacity:0.8;stroke:#cccccc;stroke-linejoin:miter;"/>
    </g>
    <g id="line2d_15">
     <path d="M 306.676426 97.14125 
L 326.676426 97.14125 
" style="fill:none;stroke:#2ca02c;stroke-linecap:square;stroke-width:1.5;"/>
    </g>
    <g id="line2d_16"/>
    <g id="text_8">
     <!-- T+ -->
     <defs>
      <path d="M -0.296875 72.90625 
L 61.375 72.90625 
L 61.375 64.59375 
L 35.5 64.59375 
L 35.5 0 
L 25.59375 0 
L 25.59375 64.59375 
L -0.296875 64.59375 
z
" id="DejaVuSans-84"/>
      <path d="M 46 62.703125 
L 46 35.5 
L 73.1875 35.5 
L 73.1875 27.203125 
L 46 27.203125 
L 46 0 
L 37.796875 0 
L 37.796875 27.203125 
L 10.59375 27.203125 
L 10.59375 35.5 
L 37.796875 35.5 
L 37.796875 62.703125 
z
" id="DejaVuSans-43"/>
     </defs>
     <g transform="translate(334.676426 100.64125)scale(0.1 -0.1)">
      <use xlink:href="#DejaVuSans-84"/>
      <use x="61.083984" xlink:href="#DejaVuSans-43"/>
     </g>
    </g>
    <g id="line2d_17">
     <path d="M 306.676426 111.819375 
L 326.676426 111.819375 
" style="fill:none;stroke:#1f77b4;stroke-linecap:square;stroke-width:1.5;"/>
    </g>
    <g id="line2d_18"/>
    <g id="text_9">
     <!-- Tp -->
     <defs>
      <path d="M 18.109375 8.203125 
L 18.109375 -20.796875 
L 9.078125 -20.796875 
L 9.078125 54.6875 
L 18.109375 54.6875 
L 18.109375 46.390625 
Q 20.953125 51.265625 25.265625 53.625 
Q 29.59375 56 35.59375 56 
Q 45.5625 56 51.78125 48.09375 
Q 58.015625 40.1875 58.015625 27.296875 
Q 58.015625 14.40625 51.78125 6.484375 
Q 45.5625 -1.421875 35.59375 -1.421875 
Q 29.59375 -1.421875 25.265625 0.953125 
Q 20.953125 3.328125 18.109375 8.203125 
z
M 48.6875 27.296875 
Q 48.6875 37.203125 44.609375 42.84375 
Q 40.53125 48.484375 33.40625 48.484375 
Q 26.265625 48.484375 22.1875 42.84375 
Q 18.109375 37.203125 18.109375 27.296875 
Q 18.109375 17.390625 22.1875 11.75 
Q 26.265625 6.109375 33.40625 6.109375 
Q 40.53125 6.109375 44.609375 11.75 
Q 48.6875 17.390625 48.6875 27.296875 
z
" id="DejaVuSans-112"/>
     </defs>
     <g transform="translate(334.676426 115.319375)scale(0.1 -0.1)">
      <use xlink:href="#DejaVuSans-84"/>
      <use x="61.083984" xlink:href="#DejaVuSans-112"/>
     </g>
    </g>
    <g id="line2d_19">
     <path d="M 306.676426 126.4975 
L 326.676426 126.4975 
" style="fill:none;stroke:#d62728;stroke-linecap:square;stroke-width:1.5;"/>
    </g>
    <g id="line2d_20"/>
    <g id="text_10">
     <!-- T- -->
     <g transform="translate(334.676426 129.9975)scale(0.1 -0.1)">
      <use xlink:href="#DejaVuSans-84"/>
      <use x="60.943359" xlink:href="#DejaVuSans-45"/>
     </g>
    </g>
   </g>
  </g>
  <g id="axes_2">
   <g id="patch_8">
    <path d="M 407.225 199.68 
L 707.948926 199.68 
L 707.948926 25.44 
L 407.225 25.44 
z
" style="fill:#ffffff;"/>
   </g>
   <g id="matplotlib.axis_3">
    <g id="xtick_7">
     <g id="line2d_21">
      <g>
       <use style="stroke:#000000;stroke-width:0.8;" x="420.894269" xlink:href="#mf138fcffef" y="199.68"/>
      </g>
     </g>
    </g>
    <g id="xtick_8">
     <g id="line2d_22">
      <g>
       <use style="stroke:#000000;stroke-width:0.8;" x="475.571347" xlink:href="#mf138fcffef" y="199.68"/>
      </g>
     </g>
    </g>
    <g id="xtick_9">
     <g id="line2d_23">
      <g>
       <use style="stroke:#000000;stroke-width:0.8;" x="530.248424" xlink:href="#mf138fcffef" y="199.68"/>
      </g>
     </g>
    </g>
    <g id="xtick_10">
     <g id="line2d_24">
      <g>
       <use style="stroke:#000000;stroke-width:0.8;" x="584.925502" xlink:href="#mf138fcffef" y="199.68"/>
      </g>
     </g>
    </g>
    <g id="xtick_11">
     <g id="line2d_25">
      <g>
       <use style="stroke:#000000;stroke-width:0.8;" x="639.602579" xlink:href="#mf138fcffef" y="199.68"/>
      </g>
     </g>
    </g>
    <g id="xtick_12">
     <g id="line2d_26">
      <g>
       <use style="stroke:#000000;stroke-width:0.8;" x="694.279656" xlink:href="#mf138fcffef" y="199.68"/>
      </g>
     </g>
    </g>
   </g>
   <g id="matplotlib.axis_4">
    <g id="ytick_6">
     <g id="line2d_27">
      <g>
       <use style="stroke:#000000;stroke-width:0.8;" x="407.225" xlink:href="#mfd2aa10084" y="191.76"/>
      </g>
     </g>
     <g id="text_11">
      <!-- 0.0 -->
      <defs>
       <path d="M 10.6875 12.40625 
L 21 12.40625 
L 21 0 
L 10.6875 0 
z
" id="DejaVuSans-46"/>
      </defs>
      <g transform="translate(384.321875 195.559219)scale(0.1 -0.1)">
       <use xlink:href="#DejaVuSans-48"/>
       <use x="63.623047" xlink:href="#DejaVuSans-46"/>
       <use x="95.410156" xlink:href="#DejaVuSans-48"/>
      </g>
     </g>
    </g>
    <g id="ytick_7">
     <g id="line2d_28">
      <g>
       <use style="stroke:#000000;stroke-width:0.8;" x="407.225" xlink:href="#mfd2aa10084" y="162.198918"/>
      </g>
     </g>
     <g id="text_12">
      <!-- 0.2 -->
      <g transform="translate(384.321875 165.998137)scale(0.1 -0.1)">
       <use xlink:href="#DejaVuSans-48"/>
       <use x="63.623047" xlink:href="#DejaVuSans-46"/>
       <use x="95.410156" xlink:href="#DejaVuSans-50"/>
      </g>
     </g>
    </g>
    <g id="ytick_8">
     <g id="line2d_29">
      <g>
       <use style="stroke:#000000;stroke-width:0.8;" x="407.225" xlink:href="#mfd2aa10084" y="132.637837"/>
      </g>
     </g>
     <g id="text_13">
      <!-- 0.4 -->
      <g transform="translate(384.321875 136.437055)scale(0.1 -0.1)">
       <use xlink:href="#DejaVuSans-48"/>
       <use x="63.623047" xlink:href="#DejaVuSans-46"/>
       <use x="95.410156" xlink:href="#DejaVuSans-52"/>
      </g>
     </g>
    </g>
    <g id="ytick_9">
     <g id="line2d_30">
      <g>
       <use style="stroke:#000000;stroke-width:0.8;" x="407.225" xlink:href="#mfd2aa10084" y="103.076755"/>
      </g>
     </g>
     <g id="text_14">
      <!-- 0.6 -->
      <g transform="translate(384.321875 106.875974)scale(0.1 -0.1)">
       <use xlink:href="#DejaVuSans-48"/>
       <use x="63.623047" xlink:href="#DejaVuSans-46"/>
       <use x="95.410156" xlink:href="#DejaVuSans-54"/>
      </g>
     </g>
    </g>
    <g id="ytick_10">
     <g id="line2d_31">
      <g>
       <use style="stroke:#000000;stroke-width:0.8;" x="407.225" xlink:href="#mfd2aa10084" y="73.515673"/>
      </g>
     </g>
     <g id="text_15">
      <!-- 0.8 -->
      <g transform="translate(384.321875 77.314892)scale(0.1 -0.1)">
       <use xlink:href="#DejaVuSans-48"/>
       <use x="63.623047" xlink:href="#DejaVuSans-46"/>
       <use x="95.410156" xlink:href="#DejaVuSans-56"/>
      </g>
     </g>
    </g>
    <g id="ytick_11">
     <g id="line2d_32">
      <g>
       <use style="stroke:#000000;stroke-width:0.8;" x="407.225" xlink:href="#mfd2aa10084" y="43.954591"/>
      </g>
     </g>
     <g id="text_16">
      <!-- 1.0 -->
      <defs>
       <path d="M 12.40625 8.296875 
L 28.515625 8.296875 
L 28.515625 63.921875 
L 10.984375 60.40625 
L 10.984375 69.390625 
L 28.421875 72.90625 
L 38.28125 72.90625 
L 38.28125 8.296875 
L 54.390625 8.296875 
L 54.390625 0 
L 12.40625 0 
z
" id="DejaVuSans-49"/>
      </defs>
      <g transform="translate(384.321875 47.75381)scale(0.1 -0.1)">
       <use xlink:href="#DejaVuSans-49"/>
       <use x="63.623047" xlink:href="#DejaVuSans-46"/>
       <use x="95.410156" xlink:href="#DejaVuSans-48"/>
      </g>
     </g>
    </g>
    <g id="text_17">
     <!-- Resource (proportion) -->
     <defs>
      <path d="M 44.390625 34.1875 
Q 47.5625 33.109375 50.5625 29.59375 
Q 53.5625 26.078125 56.59375 19.921875 
L 66.609375 0 
L 56 0 
L 46.6875 18.703125 
Q 43.0625 26.03125 39.671875 28.421875 
Q 36.28125 30.8125 30.421875 30.8125 
L 19.671875 30.8125 
L 19.671875 0 
L 9.8125 0 
L 9.8125 72.90625 
L 32.078125 72.90625 
Q 44.578125 72.90625 50.734375 67.671875 
Q 56.890625 62.453125 56.890625 51.90625 
Q 56.890625 45.015625 53.6875 40.46875 
Q 50.484375 35.9375 44.390625 34.1875 
z
M 19.671875 64.796875 
L 19.671875 38.921875 
L 32.078125 38.921875 
Q 39.203125 38.921875 42.84375 42.21875 
Q 46.484375 45.515625 46.484375 51.90625 
Q 46.484375 58.296875 42.84375 61.546875 
Q 39.203125 64.796875 32.078125 64.796875 
z
" id="DejaVuSans-82"/>
      <path d="M 41.109375 46.296875 
Q 39.59375 47.171875 37.8125 47.578125 
Q 36.03125 48 33.890625 48 
Q 26.265625 48 22.1875 43.046875 
Q 18.109375 38.09375 18.109375 28.8125 
L 18.109375 0 
L 9.078125 0 
L 9.078125 54.6875 
L 18.109375 54.6875 
L 18.109375 46.1875 
Q 20.953125 51.171875 25.484375 53.578125 
Q 30.03125 56 36.53125 56 
Q 37.453125 56 38.578125 55.875 
Q 39.703125 55.765625 41.0625 55.515625 
z
" id="DejaVuSans-114"/>
      <path d="M 31 75.875 
Q 24.46875 64.65625 21.28125 53.65625 
Q 18.109375 42.671875 18.109375 31.390625 
Q 18.109375 20.125 21.3125 9.0625 
Q 24.515625 -2 31 -13.1875 
L 23.1875 -13.1875 
Q 15.875 -1.703125 12.234375 9.375 
Q 8.59375 20.453125 8.59375 31.390625 
Q 8.59375 42.28125 12.203125 53.3125 
Q 15.828125 64.359375 23.1875 75.875 
z
" id="DejaVuSans-40"/>
      <path d="M 8.015625 75.875 
L 15.828125 75.875 
Q 23.140625 64.359375 26.78125 53.3125 
Q 30.421875 42.28125 30.421875 31.390625 
Q 30.421875 20.453125 26.78125 9.375 
Q 23.140625 -1.703125 15.828125 -13.1875 
L 8.015625 -13.1875 
Q 14.5 -2 17.703125 9.0625 
Q 20.90625 20.125 20.90625 31.390625 
Q 20.90625 42.671875 17.703125 53.65625 
Q 14.5 64.65625 8.015625 75.875 
z
" id="DejaVuSans-41"/>
     </defs>
     <g transform="translate(378.242188 167.464687)rotate(-90)scale(0.1 -0.1)">
      <use xlink:href="#DejaVuSans-82"/>
      <use x="69.419922" xlink:href="#DejaVuSans-101"/>
      <use x="130.943359" xlink:href="#DejaVuSans-115"/>
      <use x="183.042969" xlink:href="#DejaVuSans-111"/>
      <use x="244.224609" xlink:href="#DejaVuSans-117"/>
      <use x="307.603516" xlink:href="#DejaVuSans-114"/>
      <use x="348.685547" xlink:href="#DejaVuSans-99"/>
      <use x="403.666016" xlink:href="#DejaVuSans-101"/>
      <use x="465.189453" xlink:href="#DejaVuSans-32"/>
      <use x="496.976562" xlink:href="#DejaVuSans-40"/>
      <use x="535.990234" xlink:href="#DejaVuSans-112"/>
      <use x="599.466797" xlink:href="#DejaVuSans-114"/>
      <use x="640.548828" xlink:href="#DejaVuSans-111"/>
      <use x="701.730469" xlink:href="#DejaVuSans-112"/>
      <use x="765.207031" xlink:href="#DejaVuSans-111"/>
      <use x="826.388672" xlink:href="#DejaVuSans-114"/>
      <use x="867.501953" xlink:href="#DejaVuSans-116"/>
      <use x="906.710938" xlink:href="#DejaVuSans-105"/>
      <use x="934.494141" xlink:href="#DejaVuSans-111"/>
      <use x="995.675781" xlink:href="#DejaVuSans-110"/>
      <use x="1059.054688" xlink:href="#DejaVuSans-41"/>
     </g>
    </g>
   </g>
   <g id="line2d_33">
    <path clip-path="url(#p6e432368d1)" d="M 420.894269 117.857296 
L 420.917051 33.36 
L 421.00818 33.881542 
L 421.497995 37.558281 
L 422.751012 47.562983 
L 423.172481 49.005564 
L 423.582559 49.697412 
L 424.038201 50.043142 
L 424.664709 50.216915 
L 425.986072 50.293506 
L 438.174504 50.430665 
L 475.594129 50.793207 
L 615.647184 51.597736 
L 679.847186 51.758447 
L 694.279656 51.783726 
L 694.279656 51.783726 
" style="fill:none;stroke:#17becf;stroke-linecap:square;stroke-width:1.5;"/>
   </g>
   <g id="line2d_34">
    <path clip-path="url(#p6e432368d1)" d="M 420.894269 191.76 
L 421.053744 166.699706 
L 422.261196 117.201454 
L 422.773794 102.071748 
L 423.195263 95.448166 
L 423.59395 92.30253 
L 423.992637 90.769421 
L 424.402715 90.007527 
L 424.88114 89.581255 
L 425.575994 89.289101 
L 427.193524 88.921675 
L 440.145157 86.441698 
L 456.958358 83.422801 
L 473.589303 80.662048 
L 490.220247 78.126601 
L 507.022057 75.79047 
L 524.142817 73.635386 
L 541.719219 71.648011 
L 559.933521 69.813495 
L 578.979369 68.120439 
L 599.061804 66.560565 
L 620.44282 65.125274 
L 643.464147 63.805733 
L 668.535866 62.594897 
L 694.279656 61.55555 
L 694.279656 61.55555 
" style="fill:none;stroke:#ff7f0e;stroke-linecap:square;stroke-width:1.5;"/>
   </g>
   <g id="patch_9">
    <path d="M 407.225 199.68 
L 407.225 25.44 
" style="fill:none;stroke:#000000;stroke-linecap:square;stroke-linejoin:miter;stroke-width:0.8;"/>
   </g>
   <g id="patch_10">
    <path d="M 707.948926 199.68 
L 707.948926 25.44 
" style="fill:none;stroke:#000000;stroke-linecap:square;stroke-linejoin:miter;stroke-width:0.8;"/>
   </g>
   <g id="patch_11">
    <path d="M 407.225 199.68 
L 707.948926 199.68 
" style="fill:none;stroke:#000000;stroke-linecap:square;stroke-linejoin:miter;stroke-width:0.8;"/>
   </g>
   <g id="patch_12">
    <path d="M 407.225 25.44 
L 707.948926 25.44 
" style="fill:none;stroke:#000000;stroke-linecap:square;stroke-linejoin:miter;stroke-width:0.8;"/>
   </g>
   <g id="legend_2">
    <g id="patch_13">
     <path d="M 649.745801 194.68 
L 700.948926 194.68 
Q 702.948926 194.68 702.948926 192.68 
L 702.948926 164.32375 
Q 702.948926 162.32375 700.948926 162.32375 
L 649.745801 162.32375 
Q 647.745801 162.32375 647.745801 164.32375 
L 647.745801 192.68 
Q 647.745801 194.68 649.745801 194.68 
z
" style="fill:#ffffff;opacity:0.8;stroke:#cccccc;stroke-linejoin:miter;"/>
    </g>
    <g id="line2d_35">
     <path d="M 651.745801 170.422187 
L 671.745801 170.422187 
" style="fill:none;stroke:#17becf;stroke-linecap:square;stroke-width:1.5;"/>
    </g>
    <g id="line2d_36"/>
    <g id="text_18">
     <!-- o2 -->
     <g transform="translate(679.745801 173.922187)scale(0.1 -0.1)">
      <use xlink:href="#DejaVuSans-111"/>
      <use x="61.181641" xlink:href="#DejaVuSans-50"/>
     </g>
    </g>
    <g id="line2d_37">
     <path d="M 651.745801 185.100312 
L 671.745801 185.100312 
" style="fill:none;stroke:#ff7f0e;stroke-linecap:square;stroke-width:1.5;"/>
    </g>
    <g id="line2d_38"/>
    <g id="text_19">
     <!-- test -->
     <g transform="translate(679.745801 188.600312)scale(0.1 -0.1)">
      <use xlink:href="#DejaVuSans-116"/>
      <use x="39.208984" xlink:href="#DejaVuSans-101"/>
      <use x="100.732422" xlink:href="#DejaVuSans-115"/>
      <use x="152.832031" xlink:href="#DejaVuSans-116"/>
     </g>
    </g>
   </g>
  </g>
  <g id="axes_3">
   <g id="patch_14">
    <path d="M 57.44 402.86 
L 358.163926 402.86 
L 358.163926 228.62 
L 57.44 228.62 
z
" style="fill:#ffffff;"/>
   </g>
   <g id="matplotlib.axis_5">
    <g id="xtick_13">
     <g id="line2d_39">
      <g>
       <use style="stroke:#000000;stroke-width:0.8;" x="71.109269" xlink:href="#mf138fcffef" y="402.86"/>
      </g>
     </g>
    </g>
    <g id="xtick_14">
     <g id="line2d_40">
      <g>
       <use style="stroke:#000000;stroke-width:0.8;" x="125.786347" xlink:href="#mf138fcffef" y="402.86"/>
      </g>
     </g>
    </g>
    <g id="xtick_15">
     <g id="line2d_41">
      <g>
       <use style="stroke:#000000;stroke-width:0.8;" x="180.463424" xlink:href="#mf138fcffef" y="402.86"/>
      </g>
     </g>
    </g>
    <g id="xtick_16">
     <g id="line2d_42">
      <g>
       <use style="stroke:#000000;stroke-width:0.8;" x="235.140502" xlink:href="#mf138fcffef" y="402.86"/>
      </g>
     </g>
    </g>
    <g id="xtick_17">
     <g id="line2d_43">
      <g>
       <use style="stroke:#000000;stroke-width:0.8;" x="289.817579" xlink:href="#mf138fcffef" y="402.86"/>
      </g>
     </g>
    </g>
    <g id="xtick_18">
     <g id="line2d_44">
      <g>
       <use style="stroke:#000000;stroke-width:0.8;" x="344.494656" xlink:href="#mf138fcffef" y="402.86"/>
      </g>
     </g>
    </g>
   </g>
   <g id="matplotlib.axis_6">
    <g id="ytick_12">
     <g id="line2d_45">
      <g>
       <use style="stroke:#000000;stroke-width:0.8;" x="57.44" xlink:href="#mfd2aa10084" y="398.438667"/>
      </g>
     </g>
     <g id="text_20">
      <!-- 0 -->
      <g transform="translate(44.0775 402.237886)scale(0.1 -0.1)">
       <use xlink:href="#DejaVuSans-48"/>
      </g>
     </g>
    </g>
    <g id="ytick_13">
     <g id="line2d_46">
      <g>
       <use style="stroke:#000000;stroke-width:0.8;" x="57.44" xlink:href="#mfd2aa10084" y="360.450837"/>
      </g>
     </g>
     <g id="text_21">
      <!-- 2000 -->
      <g transform="translate(24.99 364.250056)scale(0.1 -0.1)">
       <use xlink:href="#DejaVuSans-50"/>
       <use x="63.623047" xlink:href="#DejaVuSans-48"/>
       <use x="127.246094" xlink:href="#DejaVuSans-48"/>
       <use x="190.869141" xlink:href="#DejaVuSans-48"/>
      </g>
     </g>
    </g>
    <g id="ytick_14">
     <g id="line2d_47">
      <g>
       <use style="stroke:#000000;stroke-width:0.8;" x="57.44" xlink:href="#mfd2aa10084" y="322.463008"/>
      </g>
     </g>
     <g id="text_22">
      <!-- 4000 -->
      <g transform="translate(24.99 326.262227)scale(0.1 -0.1)">
       <use xlink:href="#DejaVuSans-52"/>
       <use x="63.623047" xlink:href="#DejaVuSans-48"/>
       <use x="127.246094" xlink:href="#DejaVuSans-48"/>
       <use x="190.869141" xlink:href="#DejaVuSans-48"/>
      </g>
     </g>
    </g>
    <g id="ytick_15">
     <g id="line2d_48">
      <g>
       <use style="stroke:#000000;stroke-width:0.8;" x="57.44" xlink:href="#mfd2aa10084" y="284.475178"/>
      </g>
     </g>
     <g id="text_23">
      <!-- 6000 -->
      <g transform="translate(24.99 288.274397)scale(0.1 -0.1)">
       <use xlink:href="#DejaVuSans-54"/>
       <use x="63.623047" xlink:href="#DejaVuSans-48"/>
       <use x="127.246094" xlink:href="#DejaVuSans-48"/>
       <use x="190.869141" xlink:href="#DejaVuSans-48"/>
      </g>
     </g>
    </g>
    <g id="ytick_16">
     <g id="line2d_49">
      <g>
       <use style="stroke:#000000;stroke-width:0.8;" x="57.44" xlink:href="#mfd2aa10084" y="246.487349"/>
      </g>
     </g>
     <g id="text_24">
      <!-- 8000 -->
      <g transform="translate(24.99 250.286567)scale(0.1 -0.1)">
       <use xlink:href="#DejaVuSans-56"/>
       <use x="63.623047" xlink:href="#DejaVuSans-48"/>
       <use x="127.246094" xlink:href="#DejaVuSans-48"/>
       <use x="190.869141" xlink:href="#DejaVuSans-48"/>
      </g>
     </g>
    </g>
    <g id="text_25">
     <!-- No of Cells -->
     <g transform="translate(18.910312 342.488438)rotate(-90)scale(0.1 -0.1)">
      <use xlink:href="#DejaVuSans-78"/>
      <use x="74.804688" xlink:href="#DejaVuSans-111"/>
      <use x="135.986328" xlink:href="#DejaVuSans-32"/>
      <use x="167.773438" xlink:href="#DejaVuSans-111"/>
      <use x="228.955078" xlink:href="#DejaVuSans-102"/>
      <use x="264.160156" xlink:href="#DejaVuSans-32"/>
      <use x="295.947266" xlink:href="#DejaVuSans-67"/>
      <use x="365.771484" xlink:href="#DejaVuSans-101"/>
      <use x="427.294922" xlink:href="#DejaVuSans-108"/>
      <use x="455.078125" xlink:href="#DejaVuSans-108"/>
      <use x="482.861328" xlink:href="#DejaVuSans-115"/>
     </g>
    </g>
   </g>
   <g id="line2d_50">
    <path clip-path="url(#pb8fab9096a)" d="M 71.109269 394.639884 
L 71.12066 394.94 
L 71.211789 394.475046 
L 71.678822 391.233357 
L 73.034358 381.061654 
L 73.49 379.550059 
L 73.934252 378.787579 
L 74.412676 378.38968 
L 75.050575 378.166025 
L 76.212463 378.03841 
L 81.611825 377.834661 
L 114.19025 376.81265 
L 146.666156 376.017061 
L 180.292558 375.417793 
L 216.311083 375.001681 
L 256.293696 374.766932 
L 302.609737 374.724012 
L 344.494656 374.837168 
L 344.494656 374.837168 
" style="fill:none;stroke:#2ca02c;stroke-linecap:square;stroke-width:1.5;"/>
   </g>
   <g id="line2d_51">
    <path clip-path="url(#pb8fab9096a)" d="M 71.109269 368.048403 
L 71.12066 370.141098 
L 71.211789 366.963098 
L 71.75856 341.954244 
L 72.783755 294.425619 
L 73.250788 282.806749 
L 73.683648 277.000282 
L 74.105118 274.066054 
L 74.526587 272.560007 
L 74.970838 271.744547 
L 75.483436 271.260283 
L 76.212463 270.902923 
L 77.727474 270.467669 
L 86.988404 268.242331 
L 102.184075 264.781255 
L 117.163316 261.596879 
L 132.085602 258.6517 
L 147.064843 255.921978 
L 162.21495 253.387387 
L 177.649833 251.031102 
L 193.494794 248.838166 
L 209.852353 246.799966 
L 226.870594 244.90504 
L 244.697599 243.145593 
L 263.527018 241.51289 
L 283.563888 240.001138 
L 305.092987 238.602546 
L 328.467438 237.310035 
L 344.494656 236.54 
L 344.494656 236.54 
" style="fill:none;stroke:#1f77b4;stroke-linecap:square;stroke-width:1.5;"/>
   </g>
   <g id="line2d_52">
    <path clip-path="url(#pb8fab9096a)" d="M 71.109269 394.639884 
L 71.451001 391.239465 
L 71.883861 384.401274 
L 73.148269 362.777734 
L 73.59252 359.431241 
L 74.002598 357.858048 
L 74.401285 357.121817 
L 74.811363 356.797383 
L 75.31257 356.691574 
L 76.109944 356.783111 
L 78.205898 357.325813 
L 93.891385 361.539264 
L 107.674565 364.999689 
L 121.343834 368.20247 
L 134.990321 371.171611 
L 148.716546 373.930332 
L 162.602246 376.493908 
L 176.738548 378.876996 
L 191.205192 381.089558 
L 206.116086 383.143938 
L 221.562361 385.046127 
L 237.657925 386.802605 
L 254.539473 388.419418 
L 272.377869 389.90242 
L 291.366763 391.255562 
L 311.756756 392.482875 
L 333.866799 393.587738 
L 344.494656 394.046188 
L 344.494656 394.046188 
" style="fill:none;stroke:#d62728;stroke-linecap:square;stroke-width:1.5;"/>
   </g>
   <g id="patch_15">
    <path d="M 57.44 402.86 
L 57.44 228.62 
" style="fill:none;stroke:#000000;stroke-linecap:square;stroke-linejoin:miter;stroke-width:0.8;"/>
   </g>
   <g id="patch_16">
    <path d="M 358.163926 402.86 
L 358.163926 228.62 
" style="fill:none;stroke:#000000;stroke-linecap:square;stroke-linejoin:miter;stroke-width:0.8;"/>
   </g>
   <g id="patch_17">
    <path d="M 57.44 402.86 
L 358.163926 402.86 
" style="fill:none;stroke:#000000;stroke-linecap:square;stroke-linejoin:miter;stroke-width:0.8;"/>
   </g>
   <g id="patch_18">
    <path d="M 57.44 228.62 
L 358.163926 228.62 
" style="fill:none;stroke:#000000;stroke-linecap:square;stroke-linejoin:miter;stroke-width:0.8;"/>
   </g>
   <g id="text_26">
    <!-- o2-efficiency=Caseo2-HE_test-HE -->
    <g transform="translate(106.596025 222.62)scale(0.12 -0.12)">
     <use xlink:href="#DejaVuSans-111"/>
     <use x="61.181641" xlink:href="#DejaVuSans-50"/>
     <use x="124.804688" xlink:href="#DejaVuSans-45"/>
     <use x="160.888672" xlink:href="#DejaVuSans-101"/>
     <use x="222.412109" xlink:href="#DejaVuSans-102"/>
     <use x="257.617188" xlink:href="#DejaVuSans-102"/>
     <use x="292.822266" xlink:href="#DejaVuSans-105"/>
     <use x="320.605469" xlink:href="#DejaVuSans-99"/>
     <use x="375.585938" xlink:href="#DejaVuSans-105"/>
     <use x="403.369141" xlink:href="#DejaVuSans-101"/>
     <use x="464.892578" xlink:href="#DejaVuSans-110"/>
     <use x="528.271484" xlink:href="#DejaVuSans-99"/>
     <use x="583.251953" xlink:href="#DejaVuSans-121"/>
     <use x="642.431641" xlink:href="#DejaVuSans-61"/>
     <use x="726.220703" xlink:href="#DejaVuSans-67"/>
     <use x="796.044922" xlink:href="#DejaVuSans-97"/>
     <use x="857.324219" xlink:href="#DejaVuSans-115"/>
     <use x="909.423828" xlink:href="#DejaVuSans-101"/>
     <use x="970.947266" xlink:href="#DejaVuSans-111"/>
     <use x="1032.128906" xlink:href="#DejaVuSans-50"/>
     <use x="1095.751953" xlink:href="#DejaVuSans-45"/>
     <use x="1131.835938" xlink:href="#DejaVuSans-72"/>
     <use x="1207.03125" xlink:href="#DejaVuSans-69"/>
     <use x="1270.214844" xlink:href="#DejaVuSans-95"/>
     <use x="1320.214844" xlink:href="#DejaVuSans-116"/>
     <use x="1359.423828" xlink:href="#DejaVuSans-101"/>
     <use x="1420.947266" xlink:href="#DejaVuSans-115"/>
     <use x="1473.046875" xlink:href="#DejaVuSans-116"/>
     <use x="1512.255859" xlink:href="#DejaVuSans-45"/>
     <use x="1548.339844" xlink:href="#DejaVuSans-72"/>
     <use x="1623.535156" xlink:href="#DejaVuSans-69"/>
    </g>
   </g>
   <g id="legend_3">
    <g id="patch_19">
     <path d="M 304.676426 339.257187 
L 351.163926 339.257187 
Q 353.163926 339.257187 353.163926 337.257187 
L 353.163926 294.222812 
Q 353.163926 292.222812 351.163926 292.222812 
L 304.676426 292.222812 
Q 302.676426 292.222812 302.676426 294.222812 
L 302.676426 337.257187 
Q 302.676426 339.257187 304.676426 339.257187 
z
" style="fill:#ffffff;opacity:0.8;stroke:#cccccc;stroke-linejoin:miter;"/>
    </g>
    <g id="line2d_53">
     <path d="M 306.676426 300.32125 
L 326.676426 300.32125 
" style="fill:none;stroke:#2ca02c;stroke-linecap:square;stroke-width:1.5;"/>
    </g>
    <g id="line2d_54"/>
    <g id="text_27">
     <!-- T+ -->
     <g transform="translate(334.676426 303.82125)scale(0.1 -0.1)">
      <use xlink:href="#DejaVuSans-84"/>
      <use x="61.083984" xlink:href="#DejaVuSans-43"/>
     </g>
    </g>
    <g id="line2d_55">
     <path d="M 306.676426 314.999375 
L 326.676426 314.999375 
" style="fill:none;stroke:#1f77b4;stroke-linecap:square;stroke-width:1.5;"/>
    </g>
    <g id="line2d_56"/>
    <g id="text_28">
     <!-- Tp -->
     <g transform="translate(334.676426 318.499375)scale(0.1 -0.1)">
      <use xlink:href="#DejaVuSans-84"/>
      <use x="61.083984" xlink:href="#DejaVuSans-112"/>
     </g>
    </g>
    <g id="line2d_57">
     <path d="M 306.676426 329.6775 
L 326.676426 329.6775 
" style="fill:none;stroke:#d62728;stroke-linecap:square;stroke-width:1.5;"/>
    </g>
    <g id="line2d_58"/>
    <g id="text_29">
     <!-- T- -->
     <g transform="translate(334.676426 333.1775)scale(0.1 -0.1)">
      <use xlink:href="#DejaVuSans-84"/>
      <use x="60.943359" xlink:href="#DejaVuSans-45"/>
     </g>
    </g>
   </g>
  </g>
  <g id="axes_4">
   <g id="patch_20">
    <path d="M 407.225 402.86 
L 707.948926 402.86 
L 707.948926 228.62 
L 407.225 228.62 
z
" style="fill:#ffffff;"/>
   </g>
   <g id="matplotlib.axis_7">
    <g id="xtick_19">
     <g id="line2d_59">
      <g>
       <use style="stroke:#000000;stroke-width:0.8;" x="420.894269" xlink:href="#mf138fcffef" y="402.86"/>
      </g>
     </g>
    </g>
    <g id="xtick_20">
     <g id="line2d_60">
      <g>
       <use style="stroke:#000000;stroke-width:0.8;" x="475.571347" xlink:href="#mf138fcffef" y="402.86"/>
      </g>
     </g>
    </g>
    <g id="xtick_21">
     <g id="line2d_61">
      <g>
       <use style="stroke:#000000;stroke-width:0.8;" x="530.248424" xlink:href="#mf138fcffef" y="402.86"/>
      </g>
     </g>
    </g>
    <g id="xtick_22">
     <g id="line2d_62">
      <g>
       <use style="stroke:#000000;stroke-width:0.8;" x="584.925502" xlink:href="#mf138fcffef" y="402.86"/>
      </g>
     </g>
    </g>
    <g id="xtick_23">
     <g id="line2d_63">
      <g>
       <use style="stroke:#000000;stroke-width:0.8;" x="639.602579" xlink:href="#mf138fcffef" y="402.86"/>
      </g>
     </g>
    </g>
    <g id="xtick_24">
     <g id="line2d_64">
      <g>
       <use style="stroke:#000000;stroke-width:0.8;" x="694.279656" xlink:href="#mf138fcffef" y="402.86"/>
      </g>
     </g>
    </g>
   </g>
   <g id="matplotlib.axis_8">
    <g id="ytick_17">
     <g id="line2d_65">
      <g>
       <use style="stroke:#000000;stroke-width:0.8;" x="407.225" xlink:href="#mfd2aa10084" y="394.94"/>
      </g>
     </g>
     <g id="text_30">
      <!-- 0.0 -->
      <g transform="translate(384.321875 398.739219)scale(0.1 -0.1)">
       <use xlink:href="#DejaVuSans-48"/>
       <use x="63.623047" xlink:href="#DejaVuSans-46"/>
       <use x="95.410156" xlink:href="#DejaVuSans-48"/>
      </g>
     </g>
    </g>
    <g id="ytick_18">
     <g id="line2d_66">
      <g>
       <use style="stroke:#000000;stroke-width:0.8;" x="407.225" xlink:href="#mfd2aa10084" y="365.340909"/>
      </g>
     </g>
     <g id="text_31">
      <!-- 0.2 -->
      <g transform="translate(384.321875 369.140128)scale(0.1 -0.1)">
       <use xlink:href="#DejaVuSans-48"/>
       <use x="63.623047" xlink:href="#DejaVuSans-46"/>
       <use x="95.410156" xlink:href="#DejaVuSans-50"/>
      </g>
     </g>
    </g>
    <g id="ytick_19">
     <g id="line2d_67">
      <g>
       <use style="stroke:#000000;stroke-width:0.8;" x="407.225" xlink:href="#mfd2aa10084" y="335.741818"/>
      </g>
     </g>
     <g id="text_32">
      <!-- 0.4 -->
      <g transform="translate(384.321875 339.541036)scale(0.1 -0.1)">
       <use xlink:href="#DejaVuSans-48"/>
       <use x="63.623047" xlink:href="#DejaVuSans-46"/>
       <use x="95.410156" xlink:href="#DejaVuSans-52"/>
      </g>
     </g>
    </g>
    <g id="ytick_20">
     <g id="line2d_68">
      <g>
       <use style="stroke:#000000;stroke-width:0.8;" x="407.225" xlink:href="#mfd2aa10084" y="306.142727"/>
      </g>
     </g>
     <g id="text_33">
      <!-- 0.6 -->
      <g transform="translate(384.321875 309.941945)scale(0.1 -0.1)">
       <use xlink:href="#DejaVuSans-48"/>
       <use x="63.623047" xlink:href="#DejaVuSans-46"/>
       <use x="95.410156" xlink:href="#DejaVuSans-54"/>
      </g>
     </g>
    </g>
    <g id="ytick_21">
     <g id="line2d_69">
      <g>
       <use style="stroke:#000000;stroke-width:0.8;" x="407.225" xlink:href="#mfd2aa10084" y="276.543635"/>
      </g>
     </g>
     <g id="text_34">
      <!-- 0.8 -->
      <g transform="translate(384.321875 280.342854)scale(0.1 -0.1)">
       <use xlink:href="#DejaVuSans-48"/>
       <use x="63.623047" xlink:href="#DejaVuSans-46"/>
       <use x="95.410156" xlink:href="#DejaVuSans-56"/>
      </g>
     </g>
    </g>
    <g id="ytick_22">
     <g id="line2d_70">
      <g>
       <use style="stroke:#000000;stroke-width:0.8;" x="407.225" xlink:href="#mfd2aa10084" y="246.944544"/>
      </g>
     </g>
     <g id="text_35">
      <!-- 1.0 -->
      <g transform="translate(384.321875 250.743763)scale(0.1 -0.1)">
       <use xlink:href="#DejaVuSans-49"/>
       <use x="63.623047" xlink:href="#DejaVuSans-46"/>
       <use x="95.410156" xlink:href="#DejaVuSans-48"/>
      </g>
     </g>
    </g>
    <g id="text_36">
     <!-- Resource (proportion) -->
     <g transform="translate(378.242188 370.644688)rotate(-90)scale(0.1 -0.1)">
      <use xlink:href="#DejaVuSans-82"/>
      <use x="69.419922" xlink:href="#DejaVuSans-101"/>
      <use x="130.943359" xlink:href="#DejaVuSans-115"/>
      <use x="183.042969" xlink:href="#DejaVuSans-111"/>
      <use x="244.224609" xlink:href="#DejaVuSans-117"/>
      <use x="307.603516" xlink:href="#DejaVuSans-114"/>
      <use x="348.685547" xlink:href="#DejaVuSans-99"/>
      <use x="403.666016" xlink:href="#DejaVuSans-101"/>
      <use x="465.189453" xlink:href="#DejaVuSans-32"/>
      <use x="496.976562" xlink:href="#DejaVuSans-40"/>
      <use x="535.990234" xlink:href="#DejaVuSans-112"/>
      <use x="599.466797" xlink:href="#DejaVuSans-114"/>
      <use x="640.548828" xlink:href="#DejaVuSans-111"/>
      <use x="701.730469" xlink:href="#DejaVuSans-112"/>
      <use x="765.207031" xlink:href="#DejaVuSans-111"/>
      <use x="826.388672" xlink:href="#DejaVuSans-114"/>
      <use x="867.501953" xlink:href="#DejaVuSans-116"/>
      <use x="906.710938" xlink:href="#DejaVuSans-105"/>
      <use x="934.494141" xlink:href="#DejaVuSans-111"/>
      <use x="995.675781" xlink:href="#DejaVuSans-110"/>
      <use x="1059.054688" xlink:href="#DejaVuSans-41"/>
     </g>
    </g>
   </g>
   <g id="line2d_71">
    <path clip-path="url(#p544c65f5e8)" d="M 420.894269 320.942272 
L 420.917051 236.54 
L 421.00818 237.081747 
L 421.509386 240.949544 
L 422.716839 250.739726 
L 423.183872 252.565786 
L 423.616732 253.450204 
L 424.072374 253.910137 
L 424.641927 254.159603 
L 425.564603 254.286514 
L 428.43515 254.352197 
L 463.143703 254.767791 
L 523.003711 255.325084 
L 604.859853 255.799673 
L 694.279656 256.060452 
L 694.279656 256.060452 
" style="fill:none;stroke:#17becf;stroke-linecap:square;stroke-width:1.5;"/>
   </g>
   <g id="line2d_72">
    <path clip-path="url(#p544c65f5e8)" d="M 420.894269 394.94 
L 421.053744 368.575689 
L 422.09033 324.944373 
L 422.694056 304.503698 
L 423.16109 295.555181 
L 423.59395 291.156942 
L 424.015419 288.948098 
L 424.436888 287.813715 
L 424.892531 287.183854 
L 425.450692 286.792195 
L 426.327804 286.478436 
L 428.708535 285.948591 
L 444.245938 282.83458 
L 460.557933 279.784587 
L 476.733235 276.986146 
L 492.931319 274.409528 
L 509.300269 272.031253 
L 525.988169 269.832095 
L 543.13171 267.798231 
L 560.878979 265.917854 
L 579.423621 264.178305 
L 598.947894 262.572224 
L 619.702401 261.090477 
L 641.98331 259.725525 
L 666.166526 258.470003 
L 692.776037 257.314973 
L 694.279656 257.255873 
L 694.279656 257.255873 
" style="fill:none;stroke:#ff7f0e;stroke-linecap:square;stroke-width:1.5;"/>
   </g>
   <g id="patch_21">
    <path d="M 407.225 402.86 
L 407.225 228.62 
" style="fill:none;stroke:#000000;stroke-linecap:square;stroke-linejoin:miter;stroke-width:0.8;"/>
   </g>
   <g id="patch_22">
    <path d="M 707.948926 402.86 
L 707.948926 228.62 
" style="fill:none;stroke:#000000;stroke-linecap:square;stroke-linejoin:miter;stroke-width:0.8;"/>
   </g>
   <g id="patch_23">
    <path d="M 407.225 402.86 
L 707.948926 402.86 
" style="fill:none;stroke:#000000;stroke-linecap:square;stroke-linejoin:miter;stroke-width:0.8;"/>
   </g>
   <g id="patch_24">
    <path d="M 407.225 228.62 
L 707.948926 228.62 
" style="fill:none;stroke:#000000;stroke-linecap:square;stroke-linejoin:miter;stroke-width:0.8;"/>
   </g>
   <g id="legend_4">
    <g id="patch_25">
     <path d="M 649.745801 397.86 
L 700.948926 397.86 
Q 702.948926 397.86 702.948926 395.86 
L 702.948926 367.50375 
Q 702.948926 365.50375 700.948926 365.50375 
L 649.745801 365.50375 
Q 647.745801 365.50375 647.745801 367.50375 
L 647.745801 395.86 
Q 647.745801 397.86 649.745801 397.86 
z
" style="fill:#ffffff;opacity:0.8;stroke:#cccccc;stroke-linejoin:miter;"/>
    </g>
    <g id="line2d_73">
     <path d="M 651.745801 373.602187 
L 671.745801 373.602187 
" style="fill:none;stroke:#17becf;stroke-linecap:square;stroke-width:1.5;"/>
    </g>
    <g id="line2d_74"/>
    <g id="text_37">
     <!-- o2 -->
     <g transform="translate(679.745801 377.102187)scale(0.1 -0.1)">
      <use xlink:href="#DejaVuSans-111"/>
      <use x="61.181641" xlink:href="#DejaVuSans-50"/>
     </g>
    </g>
    <g id="line2d_75">
     <path d="M 651.745801 388.280312 
L 671.745801 388.280312 
" style="fill:none;stroke:#ff7f0e;stroke-linecap:square;stroke-width:1.5;"/>
    </g>
    <g id="line2d_76"/>
    <g id="text_38">
     <!-- test -->
     <g transform="translate(679.745801 391.780312)scale(0.1 -0.1)">
      <use xlink:href="#DejaVuSans-116"/>
      <use x="39.208984" xlink:href="#DejaVuSans-101"/>
      <use x="100.732422" xlink:href="#DejaVuSans-115"/>
      <use x="152.832031" xlink:href="#DejaVuSans-116"/>
     </g>
    </g>
   </g>
  </g>
  <g id="axes_5">
   <g id="patch_26">
    <path d="M 57.44 606.04 
L 358.163926 606.04 
L 358.163926 431.8 
L 57.44 431.8 
z
" style="fill:#ffffff;"/>
   </g>
   <g id="matplotlib.axis_9">
    <g id="xtick_25">
     <g id="line2d_77">
      <g>
       <use style="stroke:#000000;stroke-width:0.8;" x="71.109269" xlink:href="#mf138fcffef" y="606.04"/>
      </g>
     </g>
     <g id="text_39">
      <!-- 0 -->
      <g transform="translate(67.928019 620.638437)scale(0.1 -0.1)">
       <use xlink:href="#DejaVuSans-48"/>
      </g>
     </g>
    </g>
    <g id="xtick_26">
     <g id="line2d_78">
      <g>
       <use style="stroke:#000000;stroke-width:0.8;" x="125.786347" xlink:href="#mf138fcffef" y="606.04"/>
      </g>
     </g>
     <g id="text_40">
      <!-- 200 -->
      <g transform="translate(116.242597 620.638437)scale(0.1 -0.1)">
       <use xlink:href="#DejaVuSans-50"/>
       <use x="63.623047" xlink:href="#DejaVuSans-48"/>
       <use x="127.246094" xlink:href="#DejaVuSans-48"/>
      </g>
     </g>
    </g>
    <g id="xtick_27">
     <g id="line2d_79">
      <g>
       <use style="stroke:#000000;stroke-width:0.8;" x="180.463424" xlink:href="#mf138fcffef" y="606.04"/>
      </g>
     </g>
     <g id="text_41">
      <!-- 400 -->
      <g transform="translate(170.919674 620.638437)scale(0.1 -0.1)">
       <use xlink:href="#DejaVuSans-52"/>
       <use x="63.623047" xlink:href="#DejaVuSans-48"/>
       <use x="127.246094" xlink:href="#DejaVuSans-48"/>
      </g>
     </g>
    </g>
    <g id="xtick_28">
     <g id="line2d_80">
      <g>
       <use style="stroke:#000000;stroke-width:0.8;" x="235.140502" xlink:href="#mf138fcffef" y="606.04"/>
      </g>
     </g>
     <g id="text_42">
      <!-- 600 -->
      <g transform="translate(225.596752 620.638437)scale(0.1 -0.1)">
       <use xlink:href="#DejaVuSans-54"/>
       <use x="63.623047" xlink:href="#DejaVuSans-48"/>
       <use x="127.246094" xlink:href="#DejaVuSans-48"/>
      </g>
     </g>
    </g>
    <g id="xtick_29">
     <g id="line2d_81">
      <g>
       <use style="stroke:#000000;stroke-width:0.8;" x="289.817579" xlink:href="#mf138fcffef" y="606.04"/>
      </g>
     </g>
     <g id="text_43">
      <!-- 800 -->
      <g transform="translate(280.273829 620.638437)scale(0.1 -0.1)">
       <use xlink:href="#DejaVuSans-56"/>
       <use x="63.623047" xlink:href="#DejaVuSans-48"/>
       <use x="127.246094" xlink:href="#DejaVuSans-48"/>
      </g>
     </g>
    </g>
    <g id="xtick_30">
     <g id="line2d_82">
      <g>
       <use style="stroke:#000000;stroke-width:0.8;" x="344.494656" xlink:href="#mf138fcffef" y="606.04"/>
      </g>
     </g>
     <g id="text_44">
      <!-- 1000 -->
      <g transform="translate(331.769656 620.638437)scale(0.1 -0.1)">
       <use xlink:href="#DejaVuSans-49"/>
       <use x="63.623047" xlink:href="#DejaVuSans-48"/>
       <use x="127.246094" xlink:href="#DejaVuSans-48"/>
       <use x="190.869141" xlink:href="#DejaVuSans-48"/>
      </g>
     </g>
    </g>
    <g id="text_45">
     <!-- Time (days) -->
     <defs>
      <path d="M 52 44.1875 
Q 55.375 50.25 60.0625 53.125 
Q 64.75 56 71.09375 56 
Q 79.640625 56 84.28125 50.015625 
Q 88.921875 44.046875 88.921875 33.015625 
L 88.921875 0 
L 79.890625 0 
L 79.890625 32.71875 
Q 79.890625 40.578125 77.09375 44.375 
Q 74.3125 48.1875 68.609375 48.1875 
Q 61.625 48.1875 57.5625 43.546875 
Q 53.515625 38.921875 53.515625 30.90625 
L 53.515625 0 
L 44.484375 0 
L 44.484375 32.71875 
Q 44.484375 40.625 41.703125 44.40625 
Q 38.921875 48.1875 33.109375 48.1875 
Q 26.21875 48.1875 22.15625 43.53125 
Q 18.109375 38.875 18.109375 30.90625 
L 18.109375 0 
L 9.078125 0 
L 9.078125 54.6875 
L 18.109375 54.6875 
L 18.109375 46.1875 
Q 21.1875 51.21875 25.484375 53.609375 
Q 29.78125 56 35.6875 56 
Q 41.65625 56 45.828125 52.96875 
Q 50 49.953125 52 44.1875 
z
" id="DejaVuSans-109"/>
      <path d="M 45.40625 46.390625 
L 45.40625 75.984375 
L 54.390625 75.984375 
L 54.390625 0 
L 45.40625 0 
L 45.40625 8.203125 
Q 42.578125 3.328125 38.25 0.953125 
Q 33.9375 -1.421875 27.875 -1.421875 
Q 17.96875 -1.421875 11.734375 6.484375 
Q 5.515625 14.40625 5.515625 27.296875 
Q 5.515625 40.1875 11.734375 48.09375 
Q 17.96875 56 27.875 56 
Q 33.9375 56 38.25 53.625 
Q 42.578125 51.265625 45.40625 46.390625 
z
M 14.796875 27.296875 
Q 14.796875 17.390625 18.875 11.75 
Q 22.953125 6.109375 30.078125 6.109375 
Q 37.203125 6.109375 41.296875 11.75 
Q 45.40625 17.390625 45.40625 27.296875 
Q 45.40625 37.203125 41.296875 42.84375 
Q 37.203125 48.484375 30.078125 48.484375 
Q 22.953125 48.484375 18.875 42.84375 
Q 14.796875 37.203125 14.796875 27.296875 
z
" id="DejaVuSans-100"/>
     </defs>
     <g transform="translate(178.121494 634.316562)scale(0.1 -0.1)">
      <use xlink:href="#DejaVuSans-84"/>
      <use x="61.037109" xlink:href="#DejaVuSans-105"/>
      <use x="88.820312" xlink:href="#DejaVuSans-109"/>
      <use x="186.232422" xlink:href="#DejaVuSans-101"/>
      <use x="247.755859" xlink:href="#DejaVuSans-32"/>
      <use x="279.542969" xlink:href="#DejaVuSans-40"/>
      <use x="318.556641" xlink:href="#DejaVuSans-100"/>
      <use x="382.033203" xlink:href="#DejaVuSans-97"/>
      <use x="443.3125" xlink:href="#DejaVuSans-121"/>
      <use x="502.492188" xlink:href="#DejaVuSans-115"/>
      <use x="554.591797" xlink:href="#DejaVuSans-41"/>
     </g>
    </g>
   </g>
   <g id="matplotlib.axis_10">
    <g id="ytick_23">
     <g id="line2d_83">
      <g>
       <use style="stroke:#000000;stroke-width:0.8;" x="57.44" xlink:href="#mfd2aa10084" y="601.215883"/>
      </g>
     </g>
     <g id="text_46">
      <!-- 0 -->
      <g transform="translate(44.0775 605.015102)scale(0.1 -0.1)">
       <use xlink:href="#DejaVuSans-48"/>
      </g>
     </g>
    </g>
    <g id="ytick_24">
     <g id="line2d_84">
      <g>
       <use style="stroke:#000000;stroke-width:0.8;" x="57.44" xlink:href="#mfd2aa10084" y="559.784632"/>
      </g>
     </g>
     <g id="text_47">
      <!-- 2000 -->
      <g transform="translate(24.99 563.58385)scale(0.1 -0.1)">
       <use xlink:href="#DejaVuSans-50"/>
       <use x="63.623047" xlink:href="#DejaVuSans-48"/>
       <use x="127.246094" xlink:href="#DejaVuSans-48"/>
       <use x="190.869141" xlink:href="#DejaVuSans-48"/>
      </g>
     </g>
    </g>
    <g id="ytick_25">
     <g id="line2d_85">
      <g>
       <use style="stroke:#000000;stroke-width:0.8;" x="57.44" xlink:href="#mfd2aa10084" y="518.35338"/>
      </g>
     </g>
     <g id="text_48">
      <!-- 4000 -->
      <g transform="translate(24.99 522.152599)scale(0.1 -0.1)">
       <use xlink:href="#DejaVuSans-52"/>
       <use x="63.623047" xlink:href="#DejaVuSans-48"/>
       <use x="127.246094" xlink:href="#DejaVuSans-48"/>
       <use x="190.869141" xlink:href="#DejaVuSans-48"/>
      </g>
     </g>
    </g>
    <g id="ytick_26">
     <g id="line2d_86">
      <g>
       <use style="stroke:#000000;stroke-width:0.8;" x="57.44" xlink:href="#mfd2aa10084" y="476.922128"/>
      </g>
     </g>
     <g id="text_49">
      <!-- 6000 -->
      <g transform="translate(24.99 480.721347)scale(0.1 -0.1)">
       <use xlink:href="#DejaVuSans-54"/>
       <use x="63.623047" xlink:href="#DejaVuSans-48"/>
       <use x="127.246094" xlink:href="#DejaVuSans-48"/>
       <use x="190.869141" xlink:href="#DejaVuSans-48"/>
      </g>
     </g>
    </g>
    <g id="ytick_27">
     <g id="line2d_87">
      <g>
       <use style="stroke:#000000;stroke-width:0.8;" x="57.44" xlink:href="#mfd2aa10084" y="435.490876"/>
      </g>
     </g>
     <g id="text_50">
      <!-- 8000 -->
      <g transform="translate(24.99 439.290095)scale(0.1 -0.1)">
       <use xlink:href="#DejaVuSans-56"/>
       <use x="63.623047" xlink:href="#DejaVuSans-48"/>
       <use x="127.246094" xlink:href="#DejaVuSans-48"/>
       <use x="190.869141" xlink:href="#DejaVuSans-48"/>
      </g>
     </g>
    </g>
    <g id="text_51">
     <!-- No of Cells -->
     <g transform="translate(18.910312 545.668437)rotate(-90)scale(0.1 -0.1)">
      <use xlink:href="#DejaVuSans-78"/>
      <use x="74.804688" xlink:href="#DejaVuSans-111"/>
      <use x="135.986328" xlink:href="#DejaVuSans-32"/>
      <use x="167.773438" xlink:href="#DejaVuSans-111"/>
      <use x="228.955078" xlink:href="#DejaVuSans-102"/>
      <use x="264.160156" xlink:href="#DejaVuSans-32"/>
      <use x="295.947266" xlink:href="#DejaVuSans-67"/>
      <use x="365.771484" xlink:href="#DejaVuSans-101"/>
      <use x="427.294922" xlink:href="#DejaVuSans-108"/>
      <use x="455.078125" xlink:href="#DejaVuSans-108"/>
      <use x="482.861328" xlink:href="#DejaVuSans-115"/>
     </g>
    </g>
   </g>
   <g id="line2d_88">
    <path clip-path="url(#pbe139c8a31)" d="M 71.109269 597.072758 
L 71.12066 598.12 
L 71.22318 597.640806 
L 71.667431 594.710715 
L 73.193833 583.453891 
L 73.59252 582.529108 
L 74.002598 582.094929 
L 74.526587 581.87253 
L 75.483436 581.752798 
L 80.336026 581.555301 
L 113.848518 580.396357 
L 146.449726 579.49144 
L 179.552139 578.796327 
L 214.397385 578.289598 
L 252.375172 577.963678 
L 295.387806 577.822441 
L 344.494656 577.878304 
L 344.494656 577.878304 
" style="fill:none;stroke:#2ca02c;stroke-linecap:square;stroke-width:1.5;"/>
   </g>
   <g id="line2d_89">
    <path clip-path="url(#pbe139c8a31)" d="M 71.109269 568.070882 
L 71.12066 575.53791 
L 71.22318 572.184057 
L 71.724386 549.946751 
L 72.94323 492.815736 
L 73.353308 484.733278 
L 73.740604 481.069281 
L 74.116509 479.398515 
L 74.515196 478.56565 
L 74.970838 478.116009 
L 75.64291 477.792325 
L 77.317396 477.312442 
L 90.998056 473.82859 
L 106.489895 470.096482 
L 121.640002 466.674908 
L 136.58507 463.527016 
L 151.495964 460.613338 
L 166.497987 457.908868 
L 181.693658 455.39633 
L 197.162715 453.06454 
L 213.05324 450.894866 
L 229.479146 448.877559 
L 246.577124 447.002999 
L 264.51804 445.261448 
L 283.484151 443.645989 
L 303.680496 442.151178 
L 325.403243 440.768839 
L 344.494656 439.72 
L 344.494656 439.72 
" style="fill:none;stroke:#1f77b4;stroke-linecap:square;stroke-width:1.5;"/>
   </g>
   <g id="line2d_90">
    <path clip-path="url(#pbe139c8a31)" d="M 71.109269 597.072758 
L 71.416828 593.644622 
L 71.804124 586.600927 
L 72.476196 569.114466 
L 73.022967 557.61774 
L 73.421654 553.352453 
L 73.797559 551.463884 
L 74.150682 550.689416 
L 74.515196 550.382794 
L 74.959447 550.311026 
L 75.722648 550.453587 
L 78.467893 551.317154 
L 92.592804 555.74231 
L 106.216509 559.777782 
L 119.566829 563.501048 
L 132.757674 566.949553 
L 145.902955 570.156369 
L 159.071018 573.13974 
L 172.352991 575.920477 
L 185.80583 578.509442 
L 199.520664 580.921922 
L 213.577229 583.168063 
L 228.066655 585.257206 
L 243.080069 587.196022 
L 258.731382 588.991482 
L 275.145896 590.648823 
L 292.460304 592.171625 
L 310.868254 593.565245 
L 330.597566 594.833384 
L 344.494656 595.603958 
L 344.494656 595.603958 
" style="fill:none;stroke:#d62728;stroke-linecap:square;stroke-width:1.5;"/>
   </g>
   <g id="patch_27">
    <path d="M 57.44 606.04 
L 57.44 431.8 
" style="fill:none;stroke:#000000;stroke-linecap:square;stroke-linejoin:miter;stroke-width:0.8;"/>
   </g>
   <g id="patch_28">
    <path d="M 358.163926 606.04 
L 358.163926 431.8 
" style="fill:none;stroke:#000000;stroke-linecap:square;stroke-linejoin:miter;stroke-width:0.8;"/>
   </g>
   <g id="patch_29">
    <path d="M 57.44 606.04 
L 358.163926 606.04 
" style="fill:none;stroke:#000000;stroke-linecap:square;stroke-linejoin:miter;stroke-width:0.8;"/>
   </g>
   <g id="patch_30">
    <path d="M 57.44 431.8 
L 358.163926 431.8 
" style="fill:none;stroke:#000000;stroke-linecap:square;stroke-linejoin:miter;stroke-width:0.8;"/>
   </g>
   <g id="text_52">
    <!-- o2-efficiency=Caseo2-LE-test-HE -->
    <defs>
     <path d="M 9.8125 72.90625 
L 19.671875 72.90625 
L 19.671875 8.296875 
L 55.171875 8.296875 
L 55.171875 0 
L 9.8125 0 
z
" id="DejaVuSans-76"/>
    </defs>
    <g transform="translate(108.6004 425.8)scale(0.12 -0.12)">
     <use xlink:href="#DejaVuSans-111"/>
     <use x="61.181641" xlink:href="#DejaVuSans-50"/>
     <use x="124.804688" xlink:href="#DejaVuSans-45"/>
     <use x="160.888672" xlink:href="#DejaVuSans-101"/>
     <use x="222.412109" xlink:href="#DejaVuSans-102"/>
     <use x="257.617188" xlink:href="#DejaVuSans-102"/>
     <use x="292.822266" xlink:href="#DejaVuSans-105"/>
     <use x="320.605469" xlink:href="#DejaVuSans-99"/>
     <use x="375.585938" xlink:href="#DejaVuSans-105"/>
     <use x="403.369141" xlink:href="#DejaVuSans-101"/>
     <use x="464.892578" xlink:href="#DejaVuSans-110"/>
     <use x="528.271484" xlink:href="#DejaVuSans-99"/>
     <use x="583.251953" xlink:href="#DejaVuSans-121"/>
     <use x="642.431641" xlink:href="#DejaVuSans-61"/>
     <use x="726.220703" xlink:href="#DejaVuSans-67"/>
     <use x="796.044922" xlink:href="#DejaVuSans-97"/>
     <use x="857.324219" xlink:href="#DejaVuSans-115"/>
     <use x="909.423828" xlink:href="#DejaVuSans-101"/>
     <use x="970.947266" xlink:href="#DejaVuSans-111"/>
     <use x="1032.128906" xlink:href="#DejaVuSans-50"/>
     <use x="1095.751953" xlink:href="#DejaVuSans-45"/>
     <use x="1131.835938" xlink:href="#DejaVuSans-76"/>
     <use x="1187.548828" xlink:href="#DejaVuSans-69"/>
     <use x="1250.732422" xlink:href="#DejaVuSans-45"/>
     <use x="1286.816406" xlink:href="#DejaVuSans-116"/>
     <use x="1326.025391" xlink:href="#DejaVuSans-101"/>
     <use x="1387.548828" xlink:href="#DejaVuSans-115"/>
     <use x="1439.648438" xlink:href="#DejaVuSans-116"/>
     <use x="1478.857422" xlink:href="#DejaVuSans-45"/>
     <use x="1514.941406" xlink:href="#DejaVuSans-72"/>
     <use x="1590.136719" xlink:href="#DejaVuSans-69"/>
    </g>
   </g>
   <g id="legend_5">
    <g id="patch_31">
     <path d="M 304.676426 542.437187 
L 351.163926 542.437187 
Q 353.163926 542.437187 353.163926 540.437187 
L 353.163926 497.402812 
Q 353.163926 495.402812 351.163926 495.402812 
L 304.676426 495.402812 
Q 302.676426 495.402812 302.676426 497.402812 
L 302.676426 540.437187 
Q 302.676426 542.437187 304.676426 542.437187 
z
" style="fill:#ffffff;opacity:0.8;stroke:#cccccc;stroke-linejoin:miter;"/>
    </g>
    <g id="line2d_91">
     <path d="M 306.676426 503.50125 
L 326.676426 503.50125 
" style="fill:none;stroke:#2ca02c;stroke-linecap:square;stroke-width:1.5;"/>
    </g>
    <g id="line2d_92"/>
    <g id="text_53">
     <!-- T+ -->
     <g transform="translate(334.676426 507.00125)scale(0.1 -0.1)">
      <use xlink:href="#DejaVuSans-84"/>
      <use x="61.083984" xlink:href="#DejaVuSans-43"/>
     </g>
    </g>
    <g id="line2d_93">
     <path d="M 306.676426 518.179375 
L 326.676426 518.179375 
" style="fill:none;stroke:#1f77b4;stroke-linecap:square;stroke-width:1.5;"/>
    </g>
    <g id="line2d_94"/>
    <g id="text_54">
     <!-- Tp -->
     <g transform="translate(334.676426 521.679375)scale(0.1 -0.1)">
      <use xlink:href="#DejaVuSans-84"/>
      <use x="61.083984" xlink:href="#DejaVuSans-112"/>
     </g>
    </g>
    <g id="line2d_95">
     <path d="M 306.676426 532.8575 
L 326.676426 532.8575 
" style="fill:none;stroke:#d62728;stroke-linecap:square;stroke-width:1.5;"/>
    </g>
    <g id="line2d_96"/>
    <g id="text_55">
     <!-- T- -->
     <g transform="translate(334.676426 536.3575)scale(0.1 -0.1)">
      <use xlink:href="#DejaVuSans-84"/>
      <use x="60.943359" xlink:href="#DejaVuSans-45"/>
     </g>
    </g>
   </g>
  </g>
  <g id="axes_6">
   <g id="patch_32">
    <path d="M 407.225 606.04 
L 707.948926 606.04 
L 707.948926 431.8 
L 407.225 431.8 
z
" style="fill:#ffffff;"/>
   </g>
   <g id="matplotlib.axis_11">
    <g id="xtick_31">
     <g id="line2d_97">
      <g>
       <use style="stroke:#000000;stroke-width:0.8;" x="420.894269" xlink:href="#mf138fcffef" y="606.04"/>
      </g>
     </g>
     <g id="text_56">
      <!-- 0 -->
      <g transform="translate(417.713019 620.638437)scale(0.1 -0.1)">
       <use xlink:href="#DejaVuSans-48"/>
      </g>
     </g>
    </g>
    <g id="xtick_32">
     <g id="line2d_98">
      <g>
       <use style="stroke:#000000;stroke-width:0.8;" x="475.571347" xlink:href="#mf138fcffef" y="606.04"/>
      </g>
     </g>
     <g id="text_57">
      <!-- 200 -->
      <g transform="translate(466.027597 620.638437)scale(0.1 -0.1)">
       <use xlink:href="#DejaVuSans-50"/>
       <use x="63.623047" xlink:href="#DejaVuSans-48"/>
       <use x="127.246094" xlink:href="#DejaVuSans-48"/>
      </g>
     </g>
    </g>
    <g id="xtick_33">
     <g id="line2d_99">
      <g>
       <use style="stroke:#000000;stroke-width:0.8;" x="530.248424" xlink:href="#mf138fcffef" y="606.04"/>
      </g>
     </g>
     <g id="text_58">
      <!-- 400 -->
      <g transform="translate(520.704674 620.638437)scale(0.1 -0.1)">
       <use xlink:href="#DejaVuSans-52"/>
       <use x="63.623047" xlink:href="#DejaVuSans-48"/>
       <use x="127.246094" xlink:href="#DejaVuSans-48"/>
      </g>
     </g>
    </g>
    <g id="xtick_34">
     <g id="line2d_100">
      <g>
       <use style="stroke:#000000;stroke-width:0.8;" x="584.925502" xlink:href="#mf138fcffef" y="606.04"/>
      </g>
     </g>
     <g id="text_59">
      <!-- 600 -->
      <g transform="translate(575.381752 620.638437)scale(0.1 -0.1)">
       <use xlink:href="#DejaVuSans-54"/>
       <use x="63.623047" xlink:href="#DejaVuSans-48"/>
       <use x="127.246094" xlink:href="#DejaVuSans-48"/>
      </g>
     </g>
    </g>
    <g id="xtick_35">
     <g id="line2d_101">
      <g>
       <use style="stroke:#000000;stroke-width:0.8;" x="639.602579" xlink:href="#mf138fcffef" y="606.04"/>
      </g>
     </g>
     <g id="text_60">
      <!-- 800 -->
      <g transform="translate(630.058829 620.638437)scale(0.1 -0.1)">
       <use xlink:href="#DejaVuSans-56"/>
       <use x="63.623047" xlink:href="#DejaVuSans-48"/>
       <use x="127.246094" xlink:href="#DejaVuSans-48"/>
      </g>
     </g>
    </g>
    <g id="xtick_36">
     <g id="line2d_102">
      <g>
       <use style="stroke:#000000;stroke-width:0.8;" x="694.279656" xlink:href="#mf138fcffef" y="606.04"/>
      </g>
     </g>
     <g id="text_61">
      <!-- 1000 -->
      <g transform="translate(681.554656 620.638437)scale(0.1 -0.1)">
       <use xlink:href="#DejaVuSans-49"/>
       <use x="63.623047" xlink:href="#DejaVuSans-48"/>
       <use x="127.246094" xlink:href="#DejaVuSans-48"/>
       <use x="190.869141" xlink:href="#DejaVuSans-48"/>
      </g>
     </g>
    </g>
    <g id="text_62">
     <!-- Time (days) -->
     <g transform="translate(527.906494 634.316562)scale(0.1 -0.1)">
      <use xlink:href="#DejaVuSans-84"/>
      <use x="61.037109" xlink:href="#DejaVuSans-105"/>
      <use x="88.820312" xlink:href="#DejaVuSans-109"/>
      <use x="186.232422" xlink:href="#DejaVuSans-101"/>
      <use x="247.755859" xlink:href="#DejaVuSans-32"/>
      <use x="279.542969" xlink:href="#DejaVuSans-40"/>
      <use x="318.556641" xlink:href="#DejaVuSans-100"/>
      <use x="382.033203" xlink:href="#DejaVuSans-97"/>
      <use x="443.3125" xlink:href="#DejaVuSans-121"/>
      <use x="502.492188" xlink:href="#DejaVuSans-115"/>
      <use x="554.591797" xlink:href="#DejaVuSans-41"/>
     </g>
    </g>
   </g>
   <g id="matplotlib.axis_12">
    <g id="ytick_28">
     <g id="line2d_103">
      <g>
       <use style="stroke:#000000;stroke-width:0.8;" x="407.225" xlink:href="#mfd2aa10084" y="598.12"/>
      </g>
     </g>
     <g id="text_63">
      <!-- 0.0 -->
      <g transform="translate(384.321875 601.919219)scale(0.1 -0.1)">
       <use xlink:href="#DejaVuSans-48"/>
       <use x="63.623047" xlink:href="#DejaVuSans-46"/>
       <use x="95.410156" xlink:href="#DejaVuSans-48"/>
      </g>
     </g>
    </g>
    <g id="ytick_29">
     <g id="line2d_104">
      <g>
       <use style="stroke:#000000;stroke-width:0.8;" x="407.225" xlink:href="#mfd2aa10084" y="568.65"/>
      </g>
     </g>
     <g id="text_64">
      <!-- 0.2 -->
      <g transform="translate(384.321875 572.449218)scale(0.1 -0.1)">
       <use xlink:href="#DejaVuSans-48"/>
       <use x="63.623047" xlink:href="#DejaVuSans-46"/>
       <use x="95.410156" xlink:href="#DejaVuSans-50"/>
      </g>
     </g>
    </g>
    <g id="ytick_30">
     <g id="line2d_105">
      <g>
       <use style="stroke:#000000;stroke-width:0.8;" x="407.225" xlink:href="#mfd2aa10084" y="539.179999"/>
      </g>
     </g>
     <g id="text_65">
      <!-- 0.4 -->
      <g transform="translate(384.321875 542.979218)scale(0.1 -0.1)">
       <use xlink:href="#DejaVuSans-48"/>
       <use x="63.623047" xlink:href="#DejaVuSans-46"/>
       <use x="95.410156" xlink:href="#DejaVuSans-52"/>
      </g>
     </g>
    </g>
    <g id="ytick_31">
     <g id="line2d_106">
      <g>
       <use style="stroke:#000000;stroke-width:0.8;" x="407.225" xlink:href="#mfd2aa10084" y="509.709999"/>
      </g>
     </g>
     <g id="text_66">
      <!-- 0.6 -->
      <g transform="translate(384.321875 513.509218)scale(0.1 -0.1)">
       <use xlink:href="#DejaVuSans-48"/>
       <use x="63.623047" xlink:href="#DejaVuSans-46"/>
       <use x="95.410156" xlink:href="#DejaVuSans-54"/>
      </g>
     </g>
    </g>
    <g id="ytick_32">
     <g id="line2d_107">
      <g>
       <use style="stroke:#000000;stroke-width:0.8;" x="407.225" xlink:href="#mfd2aa10084" y="480.239999"/>
      </g>
     </g>
     <g id="text_67">
      <!-- 0.8 -->
      <g transform="translate(384.321875 484.039218)scale(0.1 -0.1)">
       <use xlink:href="#DejaVuSans-48"/>
       <use x="63.623047" xlink:href="#DejaVuSans-46"/>
       <use x="95.410156" xlink:href="#DejaVuSans-56"/>
      </g>
     </g>
    </g>
    <g id="ytick_33">
     <g id="line2d_108">
      <g>
       <use style="stroke:#000000;stroke-width:0.8;" x="407.225" xlink:href="#mfd2aa10084" y="450.769999"/>
      </g>
     </g>
     <g id="text_68">
      <!-- 1.0 -->
      <g transform="translate(384.321875 454.569217)scale(0.1 -0.1)">
       <use xlink:href="#DejaVuSans-49"/>
       <use x="63.623047" xlink:href="#DejaVuSans-46"/>
       <use x="95.410156" xlink:href="#DejaVuSans-48"/>
      </g>
     </g>
    </g>
    <g id="text_69">
     <!-- Resource (proportion) -->
     <g transform="translate(378.242188 573.824687)rotate(-90)scale(0.1 -0.1)">
      <use xlink:href="#DejaVuSans-82"/>
      <use x="69.419922" xlink:href="#DejaVuSans-101"/>
      <use x="130.943359" xlink:href="#DejaVuSans-115"/>
      <use x="183.042969" xlink:href="#DejaVuSans-111"/>
      <use x="244.224609" xlink:href="#DejaVuSans-117"/>
      <use x="307.603516" xlink:href="#DejaVuSans-114"/>
      <use x="348.685547" xlink:href="#DejaVuSans-99"/>
      <use x="403.666016" xlink:href="#DejaVuSans-101"/>
      <use x="465.189453" xlink:href="#DejaVuSans-32"/>
      <use x="496.976562" xlink:href="#DejaVuSans-40"/>
      <use x="535.990234" xlink:href="#DejaVuSans-112"/>
      <use x="599.466797" xlink:href="#DejaVuSans-114"/>
      <use x="640.548828" xlink:href="#DejaVuSans-111"/>
      <use x="701.730469" xlink:href="#DejaVuSans-112"/>
      <use x="765.207031" xlink:href="#DejaVuSans-111"/>
      <use x="826.388672" xlink:href="#DejaVuSans-114"/>
      <use x="867.501953" xlink:href="#DejaVuSans-116"/>
      <use x="906.710938" xlink:href="#DejaVuSans-105"/>
      <use x="934.494141" xlink:href="#DejaVuSans-111"/>
      <use x="995.675781" xlink:href="#DejaVuSans-110"/>
      <use x="1059.054688" xlink:href="#DejaVuSans-41"/>
     </g>
    </g>
   </g>
   <g id="line2d_109">
    <path clip-path="url(#pd7e4b36174)" d="M 420.894269 524.444999 
L 420.917051 439.72 
L 421.00818 440.190508 
L 421.463822 443.34615 
L 422.933269 454.536922 
L 423.331956 455.546953 
L 423.742034 456.017844 
L 424.24324 456.24396 
L 425.108961 456.347561 
L 428.662971 456.40232 
L 593.537141 457.601062 
L 694.279656 457.880045 
L 694.279656 457.880045 
" style="fill:none;stroke:#17becf;stroke-linecap:square;stroke-width:1.5;"/>
   </g>
   <g id="line2d_110">
    <path clip-path="url(#pd7e4b36174)" d="M 420.894269 598.12 
L 421.053744 576.211187 
L 422.62571 517.569403 
L 423.047179 509.40797 
L 423.434475 505.69584 
L 423.81038 503.982002 
L 424.197676 503.151271 
L 424.641927 502.708506 
L 425.268436 502.421984 
L 426.703709 502.079453 
L 439.268046 499.585088 
L 456.810275 496.296619 
L 473.908252 493.316853 
L 490.812582 490.596189 
L 507.716912 488.100833 
L 524.792107 485.805538 
L 542.197644 483.691091 
L 560.081604 481.743494 
L 578.637638 479.947715 
L 598.059391 478.293322 
L 618.574686 476.771104 
L 640.468299 475.372229 
L 664.081962 474.089294 
L 689.882708 472.91377 
L 694.279656 472.733997 
L 694.279656 472.733997 
" style="fill:none;stroke:#ff7f0e;stroke-linecap:square;stroke-width:1.5;"/>
   </g>
   <g id="patch_33">
    <path d="M 407.225 606.04 
L 407.225 431.8 
" style="fill:none;stroke:#000000;stroke-linecap:square;stroke-linejoin:miter;stroke-width:0.8;"/>
   </g>
   <g id="patch_34">
    <path d="M 707.948926 606.04 
L 707.948926 431.8 
" style="fill:none;stroke:#000000;stroke-linecap:square;stroke-linejoin:miter;stroke-width:0.8;"/>
   </g>
   <g id="patch_35">
    <path d="M 407.225 606.04 
L 707.948926 606.04 
" style="fill:none;stroke:#000000;stroke-linecap:square;stroke-linejoin:miter;stroke-width:0.8;"/>
   </g>
   <g id="patch_36">
    <path d="M 407.225 431.8 
L 707.948926 431.8 
" style="fill:none;stroke:#000000;stroke-linecap:square;stroke-linejoin:miter;stroke-width:0.8;"/>
   </g>
   <g id="legend_6">
    <g id="patch_37">
     <path d="M 649.745801 601.04 
L 700.948926 601.04 
Q 702.948926 601.04 702.948926 599.04 
L 702.948926 570.68375 
Q 702.948926 568.68375 700.948926 568.68375 
L 649.745801 568.68375 
Q 647.745801 568.68375 647.745801 570.68375 
L 647.745801 599.04 
Q 647.745801 601.04 649.745801 601.04 
z
" style="fill:#ffffff;opacity:0.8;stroke:#cccccc;stroke-linejoin:miter;"/>
    </g>
    <g id="line2d_111">
     <path d="M 651.745801 576.782187 
L 671.745801 576.782187 
" style="fill:none;stroke:#17becf;stroke-linecap:square;stroke-width:1.5;"/>
    </g>
    <g id="line2d_112"/>
    <g id="text_70">
     <!-- o2 -->
     <g transform="translate(679.745801 580.282187)scale(0.1 -0.1)">
      <use xlink:href="#DejaVuSans-111"/>
      <use x="61.181641" xlink:href="#DejaVuSans-50"/>
     </g>
    </g>
    <g id="line2d_113">
     <path d="M 651.745801 591.460312 
L 671.745801 591.460312 
" style="fill:none;stroke:#ff7f0e;stroke-linecap:square;stroke-width:1.5;"/>
    </g>
    <g id="line2d_114"/>
    <g id="text_71">
     <!-- test -->
     <g transform="translate(679.745801 594.960312)scale(0.1 -0.1)">
      <use xlink:href="#DejaVuSans-116"/>
      <use x="39.208984" xlink:href="#DejaVuSans-101"/>
      <use x="100.732422" xlink:href="#DejaVuSans-115"/>
      <use x="152.832031" xlink:href="#DejaVuSans-116"/>
     </g>
    </g>
   </g>
  </g>
 </g>
 <defs>
  <clipPath id="p38abfc02d5">
   <rect height="174.24" width="300.723926" x="57.44" y="25.44"/>
  </clipPath>
  <clipPath id="p6e432368d1">
   <rect height="174.24" width="300.723926" x="407.225" y="25.44"/>
  </clipPath>
  <clipPath id="pb8fab9096a">
   <rect height="174.24" width="300.723926" x="57.44" y="228.62"/>
  </clipPath>
  <clipPath id="p544c65f5e8">
   <rect height="174.24" width="300.723926" x="407.225" y="228.62"/>
  </clipPath>
  <clipPath id="pbe139c8a31">
   <rect height="174.24" width="300.723926" x="57.44" y="431.8"/>
  </clipPath>
  <clipPath id="pd7e4b36174">
   <rect height="174.24" width="300.723926" x="407.225" y="431.8"/>
  </clipPath>
 </defs>
</svg>
