<?xml version="1.0" encoding="utf-8" standalone="no"?>
<!DOCTYPE svg PUBLIC "-//W3C//DTD SVG 1.1//EN"
  "http://www.w3.org/Graphics/SVG/1.1/DTD/svg11.dtd">
<!-- Created with matplotlib (https://matplotlib.org/) -->
<svg height="345.6pt" version="1.1" viewBox="0 0 460.8 345.6" width="460.8pt" xmlns="http://www.w3.org/2000/svg" xmlns:xlink="http://www.w3.org/1999/xlink">
 <metadata>
  <rdf:RDF xmlns:cc="http://creativecommons.org/ns#" xmlns:dc="http://purl.org/dc/elements/1.1/" xmlns:rdf="http://www.w3.org/1999/02/22-rdf-syntax-ns#">
   <cc:Work>
    <dc:type rdf:resource="http://purl.org/dc/dcmitype/StillImage"/>
    <dc:date>2020-10-03T18:09:26.992707</dc:date>
    <dc:format>image/svg+xml</dc:format>
    <dc:creator>
     <cc:Agent>
      <dc:title>Matplotlib v3.3.2, https://matplotlib.org/</dc:title>
     </cc:Agent>
    </dc:creator>
   </cc:Work>
  </rdf:RDF>
 </metadata>
 <defs>
  <style type="text/css">*{stroke-linecap:butt;stroke-linejoin:round;}</style>
 </defs>
 <g id="figure_1">
  <g id="patch_1">
   <path d="M 0 345.6 
L 460.8 345.6 
L 460.8 0 
L 0 0 
z
" style="fill:#ffffff;"/>
  </g>
  <g id="axes_1">
   <g id="patch_2">
    <path d="M 57.6 307.584 
L 414.72 307.584 
L 414.72 41.472 
L 57.6 41.472 
z
" style="fill:#ffffff;"/>
   </g>
   <g id="matplotlib.axis_1">
    <g id="xtick_1">
     <g id="line2d_1">
      <defs>
       <path d="M 0 0 
L 0 3.5 
" id="meb9371bbca" style="stroke:#000000;stroke-width:0.8;"/>
      </defs>
      <g>
       <use style="stroke:#000000;stroke-width:0.8;" x="73.832727" xlink:href="#meb9371bbca" y="307.584"/>
      </g>
     </g>
     <g id="text_1">
      <!-- 0 -->
      <g transform="translate(70.651477 322.182437)scale(0.1 -0.1)">
       <defs>
        <path d="M 31.78125 66.40625 
Q 24.171875 66.40625 20.328125 58.90625 
Q 16.5 51.421875 16.5 36.375 
Q 16.5 21.390625 20.328125 13.890625 
Q 24.171875 6.390625 31.78125 6.390625 
Q 39.453125 6.390625 43.28125 13.890625 
Q 47.125 21.390625 47.125 36.375 
Q 47.125 51.421875 43.28125 58.90625 
Q 39.453125 66.40625 31.78125 66.40625 
z
M 31.78125 74.21875 
Q 44.046875 74.21875 50.515625 64.515625 
Q 56.984375 54.828125 56.984375 36.375 
Q 56.984375 17.96875 50.515625 8.265625 
Q 44.046875 -1.421875 31.78125 -1.421875 
Q 19.53125 -1.421875 13.0625 8.265625 
Q 6.59375 17.96875 6.59375 36.375 
Q 6.59375 54.828125 13.0625 64.515625 
Q 19.53125 74.21875 31.78125 74.21875 
z
" id="DejaVuSans-48"/>
       </defs>
       <use xlink:href="#DejaVuSans-48"/>
      </g>
     </g>
    </g>
    <g id="xtick_2">
     <g id="line2d_2">
      <g>
       <use style="stroke:#000000;stroke-width:0.8;" x="138.828632" xlink:href="#meb9371bbca" y="307.584"/>
      </g>
     </g>
     <g id="text_2">
      <!-- 20 -->
      <g transform="translate(132.466132 322.182437)scale(0.1 -0.1)">
       <defs>
        <path d="M 19.1875 8.296875 
L 53.609375 8.296875 
L 53.609375 0 
L 7.328125 0 
L 7.328125 8.296875 
Q 12.9375 14.109375 22.625 23.890625 
Q 32.328125 33.6875 34.8125 36.53125 
Q 39.546875 41.84375 41.421875 45.53125 
Q 43.3125 49.21875 43.3125 52.78125 
Q 43.3125 58.59375 39.234375 62.25 
Q 35.15625 65.921875 28.609375 65.921875 
Q 23.96875 65.921875 18.8125 64.3125 
Q 13.671875 62.703125 7.8125 59.421875 
L 7.8125 69.390625 
Q 13.765625 71.78125 18.9375 73 
Q 24.125 74.21875 28.421875 74.21875 
Q 39.75 74.21875 46.484375 68.546875 
Q 53.21875 62.890625 53.21875 53.421875 
Q 53.21875 48.921875 51.53125 44.890625 
Q 49.859375 40.875 45.40625 35.40625 
Q 44.1875 33.984375 37.640625 27.21875 
Q 31.109375 20.453125 19.1875 8.296875 
z
" id="DejaVuSans-50"/>
       </defs>
       <use xlink:href="#DejaVuSans-50"/>
       <use x="63.623047" xlink:href="#DejaVuSans-48"/>
      </g>
     </g>
    </g>
    <g id="xtick_3">
     <g id="line2d_3">
      <g>
       <use style="stroke:#000000;stroke-width:0.8;" x="203.824537" xlink:href="#meb9371bbca" y="307.584"/>
      </g>
     </g>
     <g id="text_3">
      <!-- 40 -->
      <g transform="translate(197.462037 322.182437)scale(0.1 -0.1)">
       <defs>
        <path d="M 37.796875 64.3125 
L 12.890625 25.390625 
L 37.796875 25.390625 
z
M 35.203125 72.90625 
L 47.609375 72.90625 
L 47.609375 25.390625 
L 58.015625 25.390625 
L 58.015625 17.1875 
L 47.609375 17.1875 
L 47.609375 0 
L 37.796875 0 
L 37.796875 17.1875 
L 4.890625 17.1875 
L 4.890625 26.703125 
z
" id="DejaVuSans-52"/>
       </defs>
       <use xlink:href="#DejaVuSans-52"/>
       <use x="63.623047" xlink:href="#DejaVuSans-48"/>
      </g>
     </g>
    </g>
    <g id="xtick_4">
     <g id="line2d_4">
      <g>
       <use style="stroke:#000000;stroke-width:0.8;" x="268.820442" xlink:href="#meb9371bbca" y="307.584"/>
      </g>
     </g>
     <g id="text_4">
      <!-- 60 -->
      <g transform="translate(262.457942 322.182437)scale(0.1 -0.1)">
       <defs>
        <path d="M 33.015625 40.375 
Q 26.375 40.375 22.484375 35.828125 
Q 18.609375 31.296875 18.609375 23.390625 
Q 18.609375 15.53125 22.484375 10.953125 
Q 26.375 6.390625 33.015625 6.390625 
Q 39.65625 6.390625 43.53125 10.953125 
Q 47.40625 15.53125 47.40625 23.390625 
Q 47.40625 31.296875 43.53125 35.828125 
Q 39.65625 40.375 33.015625 40.375 
z
M 52.59375 71.296875 
L 52.59375 62.3125 
Q 48.875 64.0625 45.09375 64.984375 
Q 41.3125 65.921875 37.59375 65.921875 
Q 27.828125 65.921875 22.671875 59.328125 
Q 17.53125 52.734375 16.796875 39.40625 
Q 19.671875 43.65625 24.015625 45.921875 
Q 28.375 48.1875 33.59375 48.1875 
Q 44.578125 48.1875 50.953125 41.515625 
Q 57.328125 34.859375 57.328125 23.390625 
Q 57.328125 12.15625 50.6875 5.359375 
Q 44.046875 -1.421875 33.015625 -1.421875 
Q 20.359375 -1.421875 13.671875 8.265625 
Q 6.984375 17.96875 6.984375 36.375 
Q 6.984375 53.65625 15.1875 63.9375 
Q 23.390625 74.21875 37.203125 74.21875 
Q 40.921875 74.21875 44.703125 73.484375 
Q 48.484375 72.75 52.59375 71.296875 
z
" id="DejaVuSans-54"/>
       </defs>
       <use xlink:href="#DejaVuSans-54"/>
       <use x="63.623047" xlink:href="#DejaVuSans-48"/>
      </g>
     </g>
    </g>
    <g id="xtick_5">
     <g id="line2d_5">
      <g>
       <use style="stroke:#000000;stroke-width:0.8;" x="333.816347" xlink:href="#meb9371bbca" y="307.584"/>
      </g>
     </g>
     <g id="text_5">
      <!-- 80 -->
      <g transform="translate(327.453847 322.182437)scale(0.1 -0.1)">
       <defs>
        <path d="M 31.78125 34.625 
Q 24.75 34.625 20.71875 30.859375 
Q 16.703125 27.09375 16.703125 20.515625 
Q 16.703125 13.921875 20.71875 10.15625 
Q 24.75 6.390625 31.78125 6.390625 
Q 38.8125 6.390625 42.859375 10.171875 
Q 46.921875 13.96875 46.921875 20.515625 
Q 46.921875 27.09375 42.890625 30.859375 
Q 38.875 34.625 31.78125 34.625 
z
M 21.921875 38.8125 
Q 15.578125 40.375 12.03125 44.71875 
Q 8.5 49.078125 8.5 55.328125 
Q 8.5 64.0625 14.71875 69.140625 
Q 20.953125 74.21875 31.78125 74.21875 
Q 42.671875 74.21875 48.875 69.140625 
Q 55.078125 64.0625 55.078125 55.328125 
Q 55.078125 49.078125 51.53125 44.71875 
Q 48 40.375 41.703125 38.8125 
Q 48.828125 37.15625 52.796875 32.3125 
Q 56.78125 27.484375 56.78125 20.515625 
Q 56.78125 9.90625 50.3125 4.234375 
Q 43.84375 -1.421875 31.78125 -1.421875 
Q 19.734375 -1.421875 13.25 4.234375 
Q 6.78125 9.90625 6.78125 20.515625 
Q 6.78125 27.484375 10.78125 32.3125 
Q 14.796875 37.15625 21.921875 38.8125 
z
M 18.3125 54.390625 
Q 18.3125 48.734375 21.84375 45.5625 
Q 25.390625 42.390625 31.78125 42.390625 
Q 38.140625 42.390625 41.71875 45.5625 
Q 45.3125 48.734375 45.3125 54.390625 
Q 45.3125 60.0625 41.71875 63.234375 
Q 38.140625 66.40625 31.78125 66.40625 
Q 25.390625 66.40625 21.84375 63.234375 
Q 18.3125 60.0625 18.3125 54.390625 
z
" id="DejaVuSans-56"/>
       </defs>
       <use xlink:href="#DejaVuSans-56"/>
       <use x="63.623047" xlink:href="#DejaVuSans-48"/>
      </g>
     </g>
    </g>
    <g id="xtick_6">
     <g id="line2d_6">
      <g>
       <use style="stroke:#000000;stroke-width:0.8;" x="398.812252" xlink:href="#meb9371bbca" y="307.584"/>
      </g>
     </g>
     <g id="text_6">
      <!-- 100 -->
      <g transform="translate(389.268502 322.182437)scale(0.1 -0.1)">
       <defs>
        <path d="M 12.40625 8.296875 
L 28.515625 8.296875 
L 28.515625 63.921875 
L 10.984375 60.40625 
L 10.984375 69.390625 
L 28.421875 72.90625 
L 38.28125 72.90625 
L 38.28125 8.296875 
L 54.390625 8.296875 
L 54.390625 0 
L 12.40625 0 
z
" id="DejaVuSans-49"/>
       </defs>
       <use xlink:href="#DejaVuSans-49"/>
       <use x="63.623047" xlink:href="#DejaVuSans-48"/>
       <use x="127.246094" xlink:href="#DejaVuSans-48"/>
      </g>
     </g>
    </g>
    <g id="text_7">
     <!-- Time (days) -->
     <g transform="translate(206.633437 335.860562)scale(0.1 -0.1)">
      <defs>
       <path d="M -0.296875 72.90625 
L 61.375 72.90625 
L 61.375 64.59375 
L 35.5 64.59375 
L 35.5 0 
L 25.59375 0 
L 25.59375 64.59375 
L -0.296875 64.59375 
z
" id="DejaVuSans-84"/>
       <path d="M 9.421875 54.6875 
L 18.40625 54.6875 
L 18.40625 0 
L 9.421875 0 
z
M 9.421875 75.984375 
L 18.40625 75.984375 
L 18.40625 64.59375 
L 9.421875 64.59375 
z
" id="DejaVuSans-105"/>
       <path d="M 52 44.1875 
Q 55.375 50.25 60.0625 53.125 
Q 64.75 56 71.09375 56 
Q 79.640625 56 84.28125 50.015625 
Q 88.921875 44.046875 88.921875 33.015625 
L 88.921875 0 
L 79.890625 0 
L 79.890625 32.71875 
Q 79.890625 40.578125 77.09375 44.375 
Q 74.3125 48.1875 68.609375 48.1875 
Q 61.625 48.1875 57.5625 43.546875 
Q 53.515625 38.921875 53.515625 30.90625 
L 53.515625 0 
L 44.484375 0 
L 44.484375 32.71875 
Q 44.484375 40.625 41.703125 44.40625 
Q 38.921875 48.1875 33.109375 48.1875 
Q 26.21875 48.1875 22.15625 43.53125 
Q 18.109375 38.875 18.109375 30.90625 
L 18.109375 0 
L 9.078125 0 
L 9.078125 54.6875 
L 18.109375 54.6875 
L 18.109375 46.1875 
Q 21.1875 51.21875 25.484375 53.609375 
Q 29.78125 56 35.6875 56 
Q 41.65625 56 45.828125 52.96875 
Q 50 49.953125 52 44.1875 
z
" id="DejaVuSans-109"/>
       <path d="M 56.203125 29.59375 
L 56.203125 25.203125 
L 14.890625 25.203125 
Q 15.484375 15.921875 20.484375 11.0625 
Q 25.484375 6.203125 34.421875 6.203125 
Q 39.59375 6.203125 44.453125 7.46875 
Q 49.3125 8.734375 54.109375 11.28125 
L 54.109375 2.78125 
Q 49.265625 0.734375 44.1875 -0.34375 
Q 39.109375 -1.421875 33.890625 -1.421875 
Q 20.796875 -1.421875 13.15625 6.1875 
Q 5.515625 13.8125 5.515625 26.8125 
Q 5.515625 40.234375 12.765625 48.109375 
Q 20.015625 56 32.328125 56 
Q 43.359375 56 49.78125 48.890625 
Q 56.203125 41.796875 56.203125 29.59375 
z
M 47.21875 32.234375 
Q 47.125 39.59375 43.09375 43.984375 
Q 39.0625 48.390625 32.421875 48.390625 
Q 24.90625 48.390625 20.390625 44.140625 
Q 15.875 39.890625 15.1875 32.171875 
z
" id="DejaVuSans-101"/>
       <path id="DejaVuSans-32"/>
       <path d="M 31 75.875 
Q 24.46875 64.65625 21.28125 53.65625 
Q 18.109375 42.671875 18.109375 31.390625 
Q 18.109375 20.125 21.3125 9.0625 
Q 24.515625 -2 31 -13.1875 
L 23.1875 -13.1875 
Q 15.875 -1.703125 12.234375 9.375 
Q 8.59375 20.453125 8.59375 31.390625 
Q 8.59375 42.28125 12.203125 53.3125 
Q 15.828125 64.359375 23.1875 75.875 
z
" id="DejaVuSans-40"/>
       <path d="M 45.40625 46.390625 
L 45.40625 75.984375 
L 54.390625 75.984375 
L 54.390625 0 
L 45.40625 0 
L 45.40625 8.203125 
Q 42.578125 3.328125 38.25 0.953125 
Q 33.9375 -1.421875 27.875 -1.421875 
Q 17.96875 -1.421875 11.734375 6.484375 
Q 5.515625 14.40625 5.515625 27.296875 
Q 5.515625 40.1875 11.734375 48.09375 
Q 17.96875 56 27.875 56 
Q 33.9375 56 38.25 53.625 
Q 42.578125 51.265625 45.40625 46.390625 
z
M 14.796875 27.296875 
Q 14.796875 17.390625 18.875 11.75 
Q 22.953125 6.109375 30.078125 6.109375 
Q 37.203125 6.109375 41.296875 11.75 
Q 45.40625 17.390625 45.40625 27.296875 
Q 45.40625 37.203125 41.296875 42.84375 
Q 37.203125 48.484375 30.078125 48.484375 
Q 22.953125 48.484375 18.875 42.84375 
Q 14.796875 37.203125 14.796875 27.296875 
z
" id="DejaVuSans-100"/>
       <path d="M 34.28125 27.484375 
Q 23.390625 27.484375 19.1875 25 
Q 14.984375 22.515625 14.984375 16.5 
Q 14.984375 11.71875 18.140625 8.90625 
Q 21.296875 6.109375 26.703125 6.109375 
Q 34.1875 6.109375 38.703125 11.40625 
Q 43.21875 16.703125 43.21875 25.484375 
L 43.21875 27.484375 
z
M 52.203125 31.203125 
L 52.203125 0 
L 43.21875 0 
L 43.21875 8.296875 
Q 40.140625 3.328125 35.546875 0.953125 
Q 30.953125 -1.421875 24.3125 -1.421875 
Q 15.921875 -1.421875 10.953125 3.296875 
Q 6 8.015625 6 15.921875 
Q 6 25.140625 12.171875 29.828125 
Q 18.359375 34.515625 30.609375 34.515625 
L 43.21875 34.515625 
L 43.21875 35.40625 
Q 43.21875 41.609375 39.140625 45 
Q 35.0625 48.390625 27.6875 48.390625 
Q 23 48.390625 18.546875 47.265625 
Q 14.109375 46.140625 10.015625 43.890625 
L 10.015625 52.203125 
Q 14.9375 54.109375 19.578125 55.046875 
Q 24.21875 56 28.609375 56 
Q 40.484375 56 46.34375 49.84375 
Q 52.203125 43.703125 52.203125 31.203125 
z
" id="DejaVuSans-97"/>
       <path d="M 32.171875 -5.078125 
Q 28.375 -14.84375 24.75 -17.8125 
Q 21.140625 -20.796875 15.09375 -20.796875 
L 7.90625 -20.796875 
L 7.90625 -13.28125 
L 13.1875 -13.28125 
Q 16.890625 -13.28125 18.9375 -11.515625 
Q 21 -9.765625 23.484375 -3.21875 
L 25.09375 0.875 
L 2.984375 54.6875 
L 12.5 54.6875 
L 29.59375 11.921875 
L 46.6875 54.6875 
L 56.203125 54.6875 
z
" id="DejaVuSans-121"/>
       <path d="M 44.28125 53.078125 
L 44.28125 44.578125 
Q 40.484375 46.53125 36.375 47.5 
Q 32.28125 48.484375 27.875 48.484375 
Q 21.1875 48.484375 17.84375 46.4375 
Q 14.5 44.390625 14.5 40.28125 
Q 14.5 37.15625 16.890625 35.375 
Q 19.28125 33.59375 26.515625 31.984375 
L 29.59375 31.296875 
Q 39.15625 29.25 43.1875 25.515625 
Q 47.21875 21.78125 47.21875 15.09375 
Q 47.21875 7.46875 41.1875 3.015625 
Q 35.15625 -1.421875 24.609375 -1.421875 
Q 20.21875 -1.421875 15.453125 -0.5625 
Q 10.6875 0.296875 5.421875 2 
L 5.421875 11.28125 
Q 10.40625 8.6875 15.234375 7.390625 
Q 20.0625 6.109375 24.8125 6.109375 
Q 31.15625 6.109375 34.5625 8.28125 
Q 37.984375 10.453125 37.984375 14.40625 
Q 37.984375 18.0625 35.515625 20.015625 
Q 33.0625 21.96875 24.703125 23.78125 
L 21.578125 24.515625 
Q 13.234375 26.265625 9.515625 29.90625 
Q 5.8125 33.546875 5.8125 39.890625 
Q 5.8125 47.609375 11.28125 51.796875 
Q 16.75 56 26.8125 56 
Q 31.78125 56 36.171875 55.265625 
Q 40.578125 54.546875 44.28125 53.078125 
z
" id="DejaVuSans-115"/>
       <path d="M 8.015625 75.875 
L 15.828125 75.875 
Q 23.140625 64.359375 26.78125 53.3125 
Q 30.421875 42.28125 30.421875 31.390625 
Q 30.421875 20.453125 26.78125 9.375 
Q 23.140625 -1.703125 15.828125 -13.1875 
L 8.015625 -13.1875 
Q 14.5 -2 17.703125 9.0625 
Q 20.90625 20.125 20.90625 31.390625 
Q 20.90625 42.671875 17.703125 53.65625 
Q 14.5 64.65625 8.015625 75.875 
z
" id="DejaVuSans-41"/>
      </defs>
      <use xlink:href="#DejaVuSans-84"/>
      <use x="57.958984" xlink:href="#DejaVuSans-105"/>
      <use x="85.742188" xlink:href="#DejaVuSans-109"/>
      <use x="183.154297" xlink:href="#DejaVuSans-101"/>
      <use x="244.677734" xlink:href="#DejaVuSans-32"/>
      <use x="276.464844" xlink:href="#DejaVuSans-40"/>
      <use x="315.478516" xlink:href="#DejaVuSans-100"/>
      <use x="378.955078" xlink:href="#DejaVuSans-97"/>
      <use x="440.234375" xlink:href="#DejaVuSans-121"/>
      <use x="499.414062" xlink:href="#DejaVuSans-115"/>
      <use x="551.513672" xlink:href="#DejaVuSans-41"/>
     </g>
    </g>
   </g>
   <g id="matplotlib.axis_2">
    <g id="ytick_1">
     <g id="line2d_7">
      <defs>
       <path d="M 0 0 
L -3.5 0 
" id="m5f37ff0d7e" style="stroke:#000000;stroke-width:0.8;"/>
      </defs>
      <g>
       <use style="stroke:#000000;stroke-width:0.8;" x="57.6" xlink:href="#m5f37ff0d7e" y="287.782724"/>
      </g>
     </g>
     <g id="text_8">
      <!-- 0 -->
      <g transform="translate(44.2375 291.581943)scale(0.1 -0.1)">
       <use xlink:href="#DejaVuSans-48"/>
      </g>
     </g>
    </g>
    <g id="ytick_2">
     <g id="line2d_8">
      <g>
       <use style="stroke:#000000;stroke-width:0.8;" x="57.6" xlink:href="#m5f37ff0d7e" y="238.397761"/>
      </g>
     </g>
     <g id="text_9">
      <!-- 1000 -->
      <g transform="translate(25.15 242.196979)scale(0.1 -0.1)">
       <use xlink:href="#DejaVuSans-49"/>
       <use x="63.623047" xlink:href="#DejaVuSans-48"/>
       <use x="127.246094" xlink:href="#DejaVuSans-48"/>
       <use x="190.869141" xlink:href="#DejaVuSans-48"/>
      </g>
     </g>
    </g>
    <g id="ytick_3">
     <g id="line2d_9">
      <g>
       <use style="stroke:#000000;stroke-width:0.8;" x="57.6" xlink:href="#m5f37ff0d7e" y="189.012797"/>
      </g>
     </g>
     <g id="text_10">
      <!-- 2000 -->
      <g transform="translate(25.15 192.812016)scale(0.1 -0.1)">
       <use xlink:href="#DejaVuSans-50"/>
       <use x="63.623047" xlink:href="#DejaVuSans-48"/>
       <use x="127.246094" xlink:href="#DejaVuSans-48"/>
       <use x="190.869141" xlink:href="#DejaVuSans-48"/>
      </g>
     </g>
    </g>
    <g id="ytick_4">
     <g id="line2d_10">
      <g>
       <use style="stroke:#000000;stroke-width:0.8;" x="57.6" xlink:href="#m5f37ff0d7e" y="139.627834"/>
      </g>
     </g>
     <g id="text_11">
      <!-- 3000 -->
      <g transform="translate(25.15 143.427053)scale(0.1 -0.1)">
       <defs>
        <path d="M 40.578125 39.3125 
Q 47.65625 37.796875 51.625 33 
Q 55.609375 28.21875 55.609375 21.1875 
Q 55.609375 10.40625 48.1875 4.484375 
Q 40.765625 -1.421875 27.09375 -1.421875 
Q 22.515625 -1.421875 17.65625 -0.515625 
Q 12.796875 0.390625 7.625 2.203125 
L 7.625 11.71875 
Q 11.71875 9.328125 16.59375 8.109375 
Q 21.484375 6.890625 26.8125 6.890625 
Q 36.078125 6.890625 40.9375 10.546875 
Q 45.796875 14.203125 45.796875 21.1875 
Q 45.796875 27.640625 41.28125 31.265625 
Q 36.765625 34.90625 28.71875 34.90625 
L 20.21875 34.90625 
L 20.21875 43.015625 
L 29.109375 43.015625 
Q 36.375 43.015625 40.234375 45.921875 
Q 44.09375 48.828125 44.09375 54.296875 
Q 44.09375 59.90625 40.109375 62.90625 
Q 36.140625 65.921875 28.71875 65.921875 
Q 24.65625 65.921875 20.015625 65.03125 
Q 15.375 64.15625 9.8125 62.3125 
L 9.8125 71.09375 
Q 15.4375 72.65625 20.34375 73.4375 
Q 25.25 74.21875 29.59375 74.21875 
Q 40.828125 74.21875 47.359375 69.109375 
Q 53.90625 64.015625 53.90625 55.328125 
Q 53.90625 49.265625 50.4375 45.09375 
Q 46.96875 40.921875 40.578125 39.3125 
z
" id="DejaVuSans-51"/>
       </defs>
       <use xlink:href="#DejaVuSans-51"/>
       <use x="63.623047" xlink:href="#DejaVuSans-48"/>
       <use x="127.246094" xlink:href="#DejaVuSans-48"/>
       <use x="190.869141" xlink:href="#DejaVuSans-48"/>
      </g>
     </g>
    </g>
    <g id="ytick_5">
     <g id="line2d_11">
      <g>
       <use style="stroke:#000000;stroke-width:0.8;" x="57.6" xlink:href="#m5f37ff0d7e" y="90.242871"/>
      </g>
     </g>
     <g id="text_12">
      <!-- 4000 -->
      <g transform="translate(25.15 94.04209)scale(0.1 -0.1)">
       <use xlink:href="#DejaVuSans-52"/>
       <use x="63.623047" xlink:href="#DejaVuSans-48"/>
       <use x="127.246094" xlink:href="#DejaVuSans-48"/>
       <use x="190.869141" xlink:href="#DejaVuSans-48"/>
      </g>
     </g>
    </g>
    <g id="text_13">
     <!-- Density -->
     <g transform="translate(19.070312 193.536594)rotate(-90)scale(0.1 -0.1)">
      <defs>
       <path d="M 19.671875 64.796875 
L 19.671875 8.109375 
L 31.59375 8.109375 
Q 46.6875 8.109375 53.6875 14.9375 
Q 60.6875 21.78125 60.6875 36.53125 
Q 60.6875 51.171875 53.6875 57.984375 
Q 46.6875 64.796875 31.59375 64.796875 
z
M 9.8125 72.90625 
L 30.078125 72.90625 
Q 51.265625 72.90625 61.171875 64.09375 
Q 71.09375 55.28125 71.09375 36.53125 
Q 71.09375 17.671875 61.125 8.828125 
Q 51.171875 0 30.078125 0 
L 9.8125 0 
z
" id="DejaVuSans-68"/>
       <path d="M 54.890625 33.015625 
L 54.890625 0 
L 45.90625 0 
L 45.90625 32.71875 
Q 45.90625 40.484375 42.875 44.328125 
Q 39.84375 48.1875 33.796875 48.1875 
Q 26.515625 48.1875 22.3125 43.546875 
Q 18.109375 38.921875 18.109375 30.90625 
L 18.109375 0 
L 9.078125 0 
L 9.078125 54.6875 
L 18.109375 54.6875 
L 18.109375 46.1875 
Q 21.34375 51.125 25.703125 53.5625 
Q 30.078125 56 35.796875 56 
Q 45.21875 56 50.046875 50.171875 
Q 54.890625 44.34375 54.890625 33.015625 
z
" id="DejaVuSans-110"/>
       <path d="M 18.3125 70.21875 
L 18.3125 54.6875 
L 36.8125 54.6875 
L 36.8125 47.703125 
L 18.3125 47.703125 
L 18.3125 18.015625 
Q 18.3125 11.328125 20.140625 9.421875 
Q 21.96875 7.515625 27.59375 7.515625 
L 36.8125 7.515625 
L 36.8125 0 
L 27.59375 0 
Q 17.1875 0 13.234375 3.875 
Q 9.28125 7.765625 9.28125 18.015625 
L 9.28125 47.703125 
L 2.6875 47.703125 
L 2.6875 54.6875 
L 9.28125 54.6875 
L 9.28125 70.21875 
z
" id="DejaVuSans-116"/>
      </defs>
      <use xlink:href="#DejaVuSans-68"/>
      <use x="77.001953" xlink:href="#DejaVuSans-101"/>
      <use x="138.525391" xlink:href="#DejaVuSans-110"/>
      <use x="201.904297" xlink:href="#DejaVuSans-115"/>
      <use x="254.003906" xlink:href="#DejaVuSans-105"/>
      <use x="281.787109" xlink:href="#DejaVuSans-116"/>
      <use x="320.996094" xlink:href="#DejaVuSans-121"/>
     </g>
    </g>
   </g>
   <g id="line2d_12">
    <path clip-path="url(#p25c185b44a)" d="M 73.832727 287.288874 
L 75.132645 286.935922 
L 76.107584 286.495968 
L 77.082523 285.817438 
L 78.057461 284.773321 
L 78.70742 283.793942 
L 79.357379 282.488152 
L 80.007338 280.767224 
L 80.657297 278.51511 
L 81.632236 274.349485 
L 82.607174 267.947018 
L 83.582113 258.298288 
L 84.882031 240.528775 
L 85.85697 220.795076 
L 86.831908 195.682119 
L 87.156888 190.987402 
L 88.781785 151.433578 
L 90.081704 129.996757 
L 90.406683 128.984595 
L 90.731663 126.286417 
L 91.381622 110.861232 
L 91.706601 106.725857 
L 92.031581 118.394284 
L 92.35656 110.022266 
L 92.68154 105.150674 
L 93.006519 104.050906 
L 93.331499 98.193223 
L 93.656478 102.804441 
L 93.981458 101.870287 
L 94.306437 100.301344 
L 94.631417 96.306803 
L 94.956396 94.542425 
L 95.281376 88.113871 
L 95.606355 99.424541 
L 96.256314 90.625983 
L 96.581294 89.250893 
L 97.556233 69.632517 
L 97.881212 69.97314 
L 98.206192 68.078526 
L 98.531171 68.021881 
L 98.856151 67.449327 
L 99.18113 67.46268 
L 99.50611 74.472812 
L 99.831089 73.067662 
L 100.156069 68.384476 
L 100.481048 75.315613 
L 100.806028 72.227402 
L 101.455987 86.450084 
L 101.780966 95.866272 
L 102.105946 98.645618 
L 102.430925 94.314178 
L 102.755905 99.997206 
L 103.080885 94.024695 
L 103.405864 90.880709 
L 103.730844 96.570298 
L 104.055823 94.824382 
L 104.380803 98.399667 
L 104.705782 87.087794 
L 105.030762 94.747928 
L 105.355741 86.416004 
L 105.680721 94.217949 
L 106.0057 91.812926 
L 106.33068 99.914809 
L 106.655659 97.17704 
L 106.980639 96.725878 
L 107.305618 92.18482 
L 107.630598 94.144792 
L 108.280557 92.646629 
L 108.605536 99.268918 
L 108.930516 98.823816 
L 109.255495 105.071531 
L 109.580475 107.906627 
L 110.555414 92.490166 
L 110.880393 90.811461 
L 111.530352 98.122245 
L 112.180311 101.937842 
L 112.505291 101.273064 
L 112.83027 93.786632 
L 113.15525 98.996698 
L 113.480229 109.936347 
L 113.805209 103.380754 
L 114.130188 109.685324 
L 114.455168 101.129066 
L 114.780147 103.195293 
L 115.105127 101.198701 
L 115.430106 94.614681 
L 115.755086 95.277653 
L 116.080066 90.596188 
L 116.405045 90.773017 
L 116.730025 79.484867 
L 117.055004 81.613496 
L 117.379984 73.450463 
L 117.704963 82.843631 
L 118.029943 85.429682 
L 118.354922 95.663027 
L 118.679902 91.427071 
L 119.004881 99.434837 
L 119.329861 95.965833 
L 119.65484 99.643221 
L 119.97982 98.384893 
L 120.304799 108.947169 
L 120.954758 102.295248 
L 121.279738 101.505399 
L 121.604717 101.487142 
L 121.929697 97.396973 
L 122.254676 97.14607 
L 122.904636 94.727281 
L 123.554595 85.585333 
L 123.879574 84.372917 
L 124.204554 88.339444 
L 124.529533 82.726316 
L 125.179492 85.821224 
L 125.504472 84.29121 
L 125.829451 84.256673 
L 126.154431 82.441049 
L 126.47941 84.249993 
L 127.129369 98.055657 
L 128.429287 81.037087 
L 128.754267 79.389987 
L 129.079247 83.621315 
L 129.404226 78.014307 
L 129.729206 75.261913 
L 130.054185 80.918244 
L 130.379165 72.427917 
L 130.704144 77.2419 
L 131.354103 72.537162 
L 131.679083 91.246806 
L 132.004062 87.467336 
L 132.654021 74.978889 
L 132.979001 88.775987 
L 133.30398 83.049114 
L 133.62896 80.089176 
L 133.953939 73.188897 
L 134.603898 69.208109 
L 134.928878 68.78926 
L 135.253857 71.638344 
L 135.578837 64.800952 
L 135.903817 86.171584 
L 136.228796 79.96182 
L 136.553776 91.189486 
L 137.203735 74.121826 
L 137.528714 83.493867 
L 137.853694 83.759373 
L 138.178673 87.57944 
L 138.503653 81.125831 
L 138.828632 90.176316 
L 139.478591 83.631856 
L 139.803571 88.953424 
L 140.12855 89.882374 
L 140.45353 87.688958 
L 140.778509 99.033118 
L 141.103489 100.946608 
L 141.428468 103.899688 
L 141.753448 104.296646 
L 142.078428 99.24044 
L 142.403407 90.052161 
L 142.728387 92.69668 
L 143.053366 90.026851 
L 143.378346 89.529126 
L 143.703325 92.356859 
L 144.353284 90.90566 
L 144.678264 86.856096 
L 145.003243 87.192162 
L 145.328223 89.012827 
L 145.653202 82.627542 
L 145.978182 90.416706 
L 146.303161 94.529668 
L 146.628141 91.574238 
L 146.95312 86.262419 
L 147.2781 83.985288 
L 147.603079 79.091892 
L 147.928059 81.579254 
L 148.253038 87.492595 
L 148.578018 82.899819 
L 148.902998 81.473274 
L 149.227977 81.301884 
L 149.552957 82.456689 
L 149.877936 94.527539 
L 150.202916 97.278144 
L 150.527895 103.288648 
L 150.852875 97.163815 
L 151.502834 89.227122 
L 151.827813 96.236491 
L 152.152793 92.498836 
L 152.477772 90.34817 
L 152.802752 92.487733 
L 153.127731 90.148167 
L 153.452711 85.809869 
L 153.77769 85.809539 
L 154.10267 91.425735 
L 154.752629 85.710695 
L 155.077609 86.731065 
L 155.402588 86.205804 
L 155.727568 96.325568 
L 156.377527 93.734478 
L 156.702506 90.671417 
L 157.027486 85.715284 
L 157.352465 84.872704 
L 158.002424 94.790164 
L 158.327404 103.972078 
L 158.652383 98.971734 
L 158.977363 99.334893 
L 159.302342 94.691107 
L 159.627322 95.04427 
L 159.952301 90.11243 
L 160.277281 82.219722 
L 160.60226 82.077769 
L 160.92724 93.721971 
L 161.252219 93.248423 
L 161.577199 91.573709 
L 161.902179 95.786004 
L 162.227158 90.811258 
L 162.552138 97.511523 
L 162.877117 96.919416 
L 163.202097 94.981221 
L 163.527076 93.804161 
L 163.852056 90.28899 
L 164.177035 92.427527 
L 164.502015 90.528606 
L 164.826994 82.630878 
L 165.151974 81.759282 
L 165.801933 79.282817 
L 166.126912 75.327858 
L 166.451892 79.673876 
L 166.776871 79.737204 
L 167.101851 76.251037 
L 167.42683 82.337681 
L 167.75181 82.586368 
L 168.07679 81.002564 
L 168.401769 84.569959 
L 168.726749 89.957481 
L 169.051728 82.640208 
L 169.701687 92.503481 
L 170.026667 98.568734 
L 170.351646 97.674009 
L 170.676626 91.965425 
L 171.001605 95.44389 
L 171.326585 92.39219 
L 171.976544 96.894293 
L 172.626503 78.474276 
L 172.951482 80.376336 
L 173.276462 76.54917 
L 173.926421 64.25894 
L 174.2514 58.342786 
L 174.57638 73.848724 
L 174.90136 71.763134 
L 175.226339 74.736958 
L 175.551319 84.404257 
L 175.876298 85.777026 
L 176.201278 91.748768 
L 176.526257 89.982118 
L 176.851237 83.084843 
L 177.176216 85.705502 
L 177.501196 87.35557 
L 177.826175 82.108564 
L 178.151155 84.528942 
L 178.476134 85.194374 
L 178.801114 83.226318 
L 179.451073 86.137129 
L 179.776052 89.307461 
L 180.101032 90.517324 
L 180.426011 92.499211 
L 180.750991 96.109191 
L 181.075971 93.140951 
L 181.40095 86.370976 
L 182.050909 91.120121 
L 182.700868 81.730817 
L 183.025848 81.565259 
L 183.350827 85.666237 
L 183.675807 85.782809 
L 184.650745 65.684467 
L 184.975725 69.296961 
L 185.300704 77.339229 
L 185.625684 77.663322 
L 185.950663 74.727303 
L 186.925602 91.876271 
L 187.250581 91.301847 
L 187.575561 84.75083 
L 187.900541 89.498538 
L 188.22552 89.144796 
L 188.5505 90.149094 
L 188.875479 96.6685 
L 189.200459 91.60361 
L 189.525438 93.455976 
L 189.850418 97.606375 
L 190.175397 99.81834 
L 190.500377 100.789104 
L 190.825356 98.049555 
L 191.150336 93.538519 
L 191.475315 91.103369 
L 191.800295 86.596567 
L 192.125274 96.302329 
L 192.450254 95.475328 
L 192.775233 94.032738 
L 193.100213 93.247914 
L 193.425192 102.22924 
L 193.750172 99.725671 
L 194.075152 105.558707 
L 194.400131 105.568511 
L 195.37507 92.22306 
L 195.700049 95.303613 
L 196.025029 86.317628 
L 196.350008 91.889857 
L 196.999967 92.526974 
L 197.649926 98.853017 
L 198.624865 86.388867 
L 198.949844 79.997406 
L 199.274824 94.150078 
L 199.599803 93.407628 
L 199.924783 98.657855 
L 200.249762 91.501216 
L 200.574742 91.886465 
L 200.899722 85.032358 
L 201.224701 82.862161 
L 201.549681 75.14081 
L 201.87466 71.096765 
L 202.19964 80.97681 
L 202.524619 78.855503 
L 202.849599 79.366302 
L 203.174578 78.841096 
L 203.499558 73.733782 
L 203.824537 76.691106 
L 204.149517 85.056917 
L 204.799476 80.024851 
L 205.449435 95.234257 
L 205.774414 92.743952 
L 206.099394 100.65101 
L 206.424373 90.458009 
L 206.749353 87.418978 
L 207.074333 91.927131 
L 207.399312 90.660031 
L 207.724292 90.22931 
L 208.049271 94.188714 
L 208.69923 80.732423 
L 209.02421 86.165671 
L 209.349189 83.626413 
L 209.999148 85.505418 
L 210.324128 87.371981 
L 210.649107 81.782226 
L 210.974087 78.496153 
L 211.299066 79.11036 
L 211.624046 93.222098 
L 211.949025 87.212827 
L 212.274005 83.430942 
L 212.923964 86.722 
L 213.248943 87.340715 
L 213.573923 88.692404 
L 213.898903 84.569347 
L 214.223882 85.033594 
L 214.548862 86.733005 
L 214.873841 77.347733 
L 215.198821 74.518525 
L 215.5238 90.714898 
L 215.84878 100.962545 
L 216.173759 104.318123 
L 216.498739 105.920767 
L 216.823718 98.718457 
L 217.148698 94.007412 
L 217.473677 107.749569 
L 217.798657 105.701706 
L 218.123636 97.264386 
L 218.448616 94.141542 
L 218.773595 103.747659 
L 219.098575 100.471654 
L 219.423554 99.730036 
L 219.748534 98.067952 
L 220.073514 103.042917 
L 220.723473 107.604367 
L 221.048452 113.125819 
L 221.373432 114.459334 
L 221.698411 122.245495 
L 222.34837 107.719232 
L 222.67335 108.746395 
L 222.998329 103.362084 
L 223.648288 108.345957 
L 224.298247 98.935256 
L 224.623227 97.777981 
L 224.948206 103.14485 
L 225.273186 101.215715 
L 225.598165 96.937797 
L 225.923145 95.806173 
L 226.248124 89.397661 
L 226.573104 94.900832 
L 226.898084 89.000202 
L 227.223063 85.781145 
L 227.548043 91.837055 
L 227.873022 84.948584 
L 228.198002 82.635158 
L 228.522981 67.496125 
L 228.847961 62.993765 
L 229.17294 62.722896 
L 229.49792 64.169007 
L 229.822899 60.87698 
L 230.147879 75.0869 
L 230.472858 74.773668 
L 230.797838 75.310609 
L 231.122817 76.412552 
L 231.772776 70.942158 
L 232.097756 70.986619 
L 232.422735 73.731147 
L 233.072695 64.160247 
L 233.722654 57.193985 
L 234.047633 62.348593 
L 234.372613 76.225006 
L 234.697592 79.020325 
L 235.022572 78.626178 
L 235.347551 78.820506 
L 235.99751 66.114807 
L 236.32249 63.913076 
L 236.647469 69.993006 
L 236.972449 68.150095 
L 237.297428 72.529021 
L 238.272367 62.80382 
L 238.597346 64.068534 
L 238.922326 68.658683 
L 239.897265 55.824005 
L 240.222244 53.568 
L 241.197183 82.377409 
L 241.522162 82.452238 
L 241.847142 75.951412 
L 242.172121 76.635144 
L 242.497101 91.27413 
L 242.82208 98.121816 
L 243.14706 96.23118 
L 243.472039 90.408401 
L 243.797019 94.899185 
L 244.121998 90.914901 
L 244.446978 96.617806 
L 244.771957 91.697912 
L 245.096937 93.082213 
L 245.421916 88.494599 
L 245.746896 108.469888 
L 246.396855 110.449032 
L 246.721835 115.657417 
L 247.046814 118.042358 
L 247.371794 113.617079 
L 247.696773 113.356222 
L 248.021753 112.187056 
L 248.346732 108.442468 
L 248.671712 124.490354 
L 248.996691 120.229632 
L 249.321671 124.09876 
L 249.64665 111.3849 
L 249.97163 107.186249 
L 250.296609 105.041165 
L 250.621589 98.301746 
L 250.946568 95.077386 
L 251.271548 89.929631 
L 251.921507 83.280892 
L 252.246486 88.207364 
L 252.571466 90.418225 
L 253.221425 92.196016 
L 253.546405 83.705148 
L 253.871384 83.45788 
L 254.196364 98.664868 
L 254.521343 97.176221 
L 254.846323 94.725538 
L 255.171302 94.699968 
L 255.496282 93.652544 
L 255.821261 95.328067 
L 256.146241 90.861537 
L 256.47122 99.09408 
L 257.121179 90.232559 
L 257.446159 91.306501 
L 257.771138 88.078949 
L 258.096118 86.748271 
L 258.421097 80.129227 
L 258.746077 79.193377 
L 259.071057 77.505304 
L 259.396036 84.969253 
L 259.721016 85.316737 
L 260.045995 83.132993 
L 260.370975 88.430546 
L 260.695954 88.101965 
L 261.020934 76.350697 
L 261.345913 72.057157 
L 261.670893 69.387358 
L 261.995872 59.793477 
L 262.320852 76.425366 
L 262.645831 80.448439 
L 262.970811 93.611536 
L 263.29579 89.910188 
L 263.945749 77.398569 
L 264.595708 71.845169 
L 264.920688 66.910976 
L 265.245667 64.549608 
L 265.570647 67.303556 
L 265.895627 63.945792 
L 266.220606 75.311582 
L 266.545586 67.696453 
L 266.870565 65.879261 
L 267.195545 67.011692 
L 267.520524 85.342092 
L 267.845504 88.402907 
L 268.170483 87.99088 
L 268.495463 81.050868 
L 268.820442 84.186672 
L 269.145422 115.123964 
L 269.470401 128.094431 
L 269.795381 119.938799 
L 270.44534 132.228224 
L 270.770319 124.036008 
L 271.095299 125.715989 
L 271.745258 132.51526 
L 272.070238 129.851444 
L 272.720197 114.789632 
L 273.045176 112.122527 
L 273.695135 116.810414 
L 274.020115 111.875188 
L 274.345094 109.350761 
L 274.670074 105.898326 
L 275.320033 93.544565 
L 275.645012 113.331359 
L 275.969992 114.148218 
L 276.294971 116.858869 
L 276.619951 115.183845 
L 276.94493 124.96653 
L 277.26991 117.974595 
L 278.244848 104.294531 
L 278.569828 104.201896 
L 278.894808 96.089101 
L 279.219787 92.101983 
L 279.544767 99.755652 
L 279.869746 93.705321 
L 280.194726 91.39879 
L 280.519705 87.575993 
L 280.844685 89.543018 
L 281.169664 90.145512 
L 281.494644 91.171495 
L 281.819623 88.207924 
L 282.469582 72.076846 
L 282.794562 71.487689 
L 283.119541 73.758787 
L 283.444521 90.007731 
L 283.7695 93.686734 
L 284.09448 101.968012 
L 284.419459 104.671327 
L 284.744439 100.239443 
L 285.069419 99.677056 
L 285.394398 94.95601 
L 285.719378 93.29703 
L 286.044357 88.250896 
L 286.369337 97.656798 
L 287.019296 83.796207 
L 287.344275 80.214471 
L 287.669255 84.504123 
L 287.994234 91.186094 
L 288.319214 94.208579 
L 288.644193 101.129644 
L 288.969173 97.329985 
L 289.294152 91.537323 
L 289.619132 88.180067 
L 289.944111 79.509687 
L 290.269091 77.504102 
L 290.59407 89.398954 
L 290.91905 83.133344 
L 291.244029 82.195391 
L 291.569009 82.381438 
L 291.893989 80.132226 
L 292.218968 79.446133 
L 292.543948 89.254688 
L 292.868927 88.135481 
L 293.193907 95.558242 
L 293.518886 100.048403 
L 293.843866 99.243274 
L 294.168845 98.922454 
L 294.493825 98.780175 
L 294.818804 92.364414 
L 295.143784 80.527412 
L 295.468763 76.496485 
L 295.793743 78.618609 
L 296.443702 85.267926 
L 296.768681 84.913675 
L 297.093661 88.638266 
L 297.41864 87.489134 
L 297.74362 91.884211 
L 298.0686 91.806423 
L 298.393579 103.189882 
L 298.718559 98.40109 
L 299.043538 87.628516 
L 299.368518 92.636132 
L 299.693497 83.867393 
L 300.018477 86.010884 
L 300.343456 89.63932 
L 300.668436 89.260197 
L 300.993415 85.810222 
L 301.318395 99.476299 
L 301.968354 87.434064 
L 302.293333 75.044672 
L 302.618313 72.895013 
L 302.943292 79.884409 
L 303.268272 74.374434 
L 303.593251 74.173069 
L 303.918231 72.507378 
L 304.24321 81.799459 
L 304.56819 84.380515 
L 304.89317 92.117495 
L 305.218149 93.808597 
L 305.543129 89.66106 
L 305.868108 91.86912 
L 306.193088 91.656345 
L 306.518067 88.462168 
L 306.843047 90.534391 
L 307.168026 88.918648 
L 307.493006 82.255562 
L 307.817985 83.024568 
L 308.467944 78.478009 
L 308.792924 78.584791 
L 309.117903 70.088787 
L 309.767862 76.084967 
L 310.417821 69.95612 
L 311.39276 80.915563 
L 311.71774 87.729961 
L 312.042719 98.45327 
L 312.367699 96.168292 
L 312.692678 90.933768 
L 313.017658 93.879537 
L 313.342637 88.968058 
L 313.667617 99.829202 
L 313.992596 100.796324 
L 314.642555 90.426241 
L 314.967535 81.187642 
L 315.292514 80.335572 
L 315.617494 80.707894 
L 315.942473 70.791447 
L 316.267453 67.797422 
L 316.592432 67.514735 
L 316.917412 67.40855 
L 317.892351 80.796381 
L 318.21733 79.742944 
L 318.54231 78.274438 
L 318.867289 83.342254 
L 319.192269 83.776287 
L 319.517248 74.528988 
L 319.842228 70.711711 
L 320.167207 71.894584 
L 320.817166 65.710584 
L 321.142146 75.198739 
L 321.467125 77.322879 
L 321.792105 78.196979 
L 322.117084 81.895181 
L 322.442064 77.537867 
L 323.092023 84.417652 
L 323.417002 97.741023 
L 323.741982 95.709008 
L 324.066962 91.11275 
L 324.391941 90.770127 
L 324.716921 88.295344 
L 325.0419 82.735794 
L 325.36688 86.299639 
L 325.691859 79.278522 
L 326.341818 69.335884 
L 326.991777 83.57441 
L 327.316757 89.444059 
L 327.641736 87.806712 
L 327.966716 94.842036 
L 328.291695 91.202083 
L 328.616675 82.144056 
L 329.266634 75.274818 
L 329.916593 72.890373 
L 330.241572 75.016876 
L 330.566552 78.454123 
L 330.891532 83.803619 
L 331.216511 78.33891 
L 331.541491 81.554104 
L 331.86647 82.298379 
L 332.19145 85.246601 
L 332.516429 79.1337 
L 332.841409 83.998196 
L 333.166388 72.130314 
L 333.491368 83.770333 
L 333.816347 90.517487 
L 334.141327 86.054329 
L 334.466306 94.176931 
L 334.791286 89.825871 
L 335.116265 97.392727 
L 335.441245 100.295543 
L 335.766224 101.472783 
L 336.091204 96.969016 
L 336.416183 98.793148 
L 337.066143 86.478946 
L 337.391122 76.929328 
L 337.716102 82.722931 
L 338.041081 86.329249 
L 338.366061 78.747908 
L 338.69104 77.17672 
L 339.01602 74.272309 
L 339.340999 109.001089 
L 339.665979 103.718011 
L 339.990958 105.033242 
L 340.315938 115.174438 
L 340.640917 105.169658 
L 340.965897 101.756304 
L 341.290876 87.698015 
L 341.615856 92.883529 
L 342.265815 79.903805 
L 342.590794 77.567795 
L 342.915774 68.448628 
L 343.240753 65.251358 
L 343.565733 76.368553 
L 343.890713 75.507827 
L 344.215692 86.07314 
L 344.540672 84.175762 
L 344.865651 80.661242 
L 345.190631 69.071976 
L 345.51561 65.635523 
L 345.84059 91.240011 
L 346.165569 90.721623 
L 346.490549 84.801066 
L 346.815528 89.888061 
L 347.140508 87.827656 
L 347.465487 86.487451 
L 347.790467 87.435384 
L 348.440426 84.084052 
L 348.765405 84.948494 
L 349.090385 91.61328 
L 349.415364 93.347888 
L 349.740344 89.693192 
L 350.390303 72.449789 
L 350.715283 74.057735 
L 351.040262 77.776559 
L 351.365242 72.193534 
L 351.690221 83.286429 
L 352.015201 78.070217 
L 352.34018 74.914093 
L 352.66516 78.726259 
L 352.990139 72.753562 
L 353.315119 77.068623 
L 353.640098 89.963901 
L 353.965078 86.162603 
L 354.290057 87.737234 
L 354.615037 87.866319 
L 354.940016 86.42815 
L 355.264996 85.799266 
L 355.589975 89.118667 
L 355.914955 105.570183 
L 356.239934 100.408092 
L 356.564914 108.28808 
L 356.889894 110.577444 
L 357.214873 104.23079 
L 357.539853 106.594992 
L 357.864832 107.210443 
L 358.189812 104.092993 
L 358.839771 93.166992 
L 359.16475 87.648448 
L 359.48973 88.758172 
L 359.814709 84.821037 
L 360.464668 94.835293 
L 360.789648 91.733423 
L 361.114627 101.583256 
L 361.439607 118.78081 
L 362.089566 112.248686 
L 362.414545 106.560784 
L 362.739525 105.598173 
L 363.064505 101.750644 
L 363.389484 94.566029 
L 363.714464 92.084028 
L 364.039443 94.281868 
L 364.364423 97.943534 
L 364.689402 98.272641 
L 365.014382 97.06569 
L 365.339361 90.860187 
L 365.664341 92.680948 
L 365.98932 96.862611 
L 366.3143 97.568936 
L 366.639279 94.060839 
L 366.964259 88.958106 
L 367.289238 87.62579 
L 367.614218 84.583289 
L 367.939197 85.543911 
L 368.264177 91.870712 
L 368.589156 94.649493 
L 368.914136 89.028876 
L 369.239115 88.784954 
L 369.564095 93.212845 
L 369.889075 88.326829 
L 370.214054 88.779609 
L 370.539034 90.204851 
L 370.864013 83.918644 
L 371.188993 86.371242 
L 371.513972 86.874929 
L 371.838952 77.367038 
L 372.163931 78.800695 
L 372.488911 81.040192 
L 372.81389 112.063876 
L 373.13887 113.367005 
L 373.463849 105.026644 
L 373.788829 104.487453 
L 374.113808 95.980886 
L 374.438788 96.417173 
L 374.763767 96.321092 
L 375.088747 94.424437 
L 375.413726 86.894594 
L 375.738706 85.090345 
L 376.063686 80.620648 
L 376.388665 81.656339 
L 376.713645 93.207665 
L 377.363604 84.044805 
L 377.688583 81.356486 
L 378.013563 82.680736 
L 378.338542 88.247077 
L 378.663522 83.96097 
L 378.988501 87.841416 
L 379.313481 80.031945 
L 379.63846 80.022647 
L 379.96344 79.656042 
L 380.288419 84.576068 
L 380.613399 84.766991 
L 381.263358 95.743544 
L 381.588337 89.298173 
L 381.913317 89.685832 
L 382.238296 91.607684 
L 382.563276 92.445932 
L 382.888256 92.301058 
L 383.213235 93.117483 
L 383.538215 94.716078 
L 383.863194 89.312088 
L 384.188174 87.993352 
L 384.513153 79.623677 
L 384.838133 76.718112 
L 385.163112 68.926366 
L 385.813071 80.613149 
L 386.138051 72.604317 
L 386.46303 69.977916 
L 386.78801 64.590993 
L 387.112989 74.486759 
L 387.437969 75.000838 
L 388.087928 83.377318 
L 388.412907 79.994195 
L 388.737887 85.340525 
L 389.062867 103.623473 
L 389.387846 113.676564 
L 389.712826 108.971874 
L 390.037805 111.107764 
L 390.362785 102.55441 
L 391.012744 91.444189 
L 391.337723 88.014606 
L 391.987682 79.095148 
L 392.312662 66.950147 
L 392.637641 77.736187 
L 392.962621 81.060549 
L 393.2876 81.918666 
L 393.61258 79.087223 
L 393.937559 70.657785 
L 394.587518 84.233947 
L 394.912498 75.735869 
L 395.237477 88.172419 
L 395.887437 81.595202 
L 396.537396 65.594537 
L 397.187355 82.661422 
L 397.512334 81.360544 
L 398.162293 65.071371 
L 398.487273 66.60278 
L 398.487273 66.60278 
" style="fill:none;stroke:#1f77b4;stroke-linecap:square;stroke-width:1.5;"/>
   </g>
   <g id="line2d_13">
    <path clip-path="url(#p25c185b44a)" d="M 73.832727 287.782724 
L 79.0324 287.976164 
L 81.957215 288.296879 
L 83.907093 288.700344 
L 86.181949 289.421178 
L 88.781785 290.295665 
L 91.706601 290.877981 
L 92.031581 290.744136 
L 92.68154 290.907474 
L 96.906274 291.230126 
L 98.206192 291.411775 
L 100.806028 291.401797 
L 102.105946 291.105659 
L 102.430925 291.162211 
L 102.755905 291.081007 
L 103.405864 291.198622 
L 104.380803 291.124358 
L 104.705782 291.25367 
L 105.030762 291.165989 
L 105.355741 291.274119 
L 105.680721 291.185969 
L 106.0057 291.219618 
L 106.33068 291.12233 
L 107.955577 291.218768 
L 108.930516 291.16798 
L 109.580475 291.065461 
L 110.880393 291.295466 
L 112.505291 291.190236 
L 112.83027 291.287856 
L 114.130188 291.094279 
L 114.455168 291.208494 
L 115.105127 291.218596 
L 116.080066 291.362813 
L 116.405045 291.366357 
L 116.730025 291.510664 
L 117.055004 291.482897 
L 117.379984 291.588062 
L 118.354922 291.330357 
L 118.679902 291.388901 
L 119.004881 291.289734 
L 119.65484 291.294168 
L 119.97982 291.313814 
L 120.304799 291.18541 
L 122.254676 291.368764 
L 126.47941 291.580635 
L 127.129369 291.415097 
L 128.754267 291.665036 
L 129.079247 291.612912 
L 129.729206 291.729093 
L 130.054185 291.658541 
L 130.379165 291.770184 
L 131.029124 291.752135 
L 131.354103 291.784502 
L 131.679083 291.556227 
L 132.654021 291.781881 
L 132.979001 291.606614 
L 134.603898 291.888395 
L 135.578837 291.95702 
L 135.903817 291.679029 
L 136.228796 291.766945 
L 136.553776 291.619048 
L 137.203735 291.856811 
L 137.528714 291.735181 
L 140.45353 291.71753 
L 141.103489 291.558237 
L 141.753448 291.516615 
L 143.053366 291.733047 
L 145.978182 291.761264 
L 146.628141 291.751996 
L 147.603079 291.936123 
L 148.578018 291.888647 
L 149.552957 291.910629 
L 149.877936 291.74608 
L 150.852875 291.721126 
L 151.502834 291.840935 
L 151.827813 291.74685 
L 152.802752 291.815178 
L 153.77769 291.920204 
L 154.10267 291.846765 
L 155.402588 291.943768 
L 155.727568 291.803991 
L 157.677445 291.933767 
L 158.652383 291.812036 
L 159.627322 291.883295 
L 160.60226 292.084405 
L 160.92724 291.921247 
L 165.801933 292.193935 
L 166.126912 292.252862 
L 166.776871 292.198909 
L 167.101851 292.253352 
L 167.75181 292.167742 
L 168.401769 292.15045 
L 168.726749 292.073183 
L 169.051728 292.187571 
L 170.351646 291.985776 
L 170.676626 292.076154 
L 171.326585 292.080302 
L 171.976544 292.022827 
L 172.626503 292.308132 
L 173.276462 292.347116 
L 174.2514 292.635006 
L 174.57638 292.405659 
L 175.226339 292.403256 
L 175.551319 292.261707 
L 177.501196 292.246674 
L 178.151155 292.297194 
L 182.050909 292.245642 
L 183.025848 292.409007 
L 183.675807 292.34602 
L 184.650745 292.66639 
L 187.250581 292.314589 
L 187.575561 292.420972 
L 188.22552 292.356438 
L 191.150336 292.342462 
L 191.800295 292.464174 
L 192.125274 292.307872 
L 193.100213 292.369696 
L 193.425192 292.220399 
L 193.750172 292.265313 
L 194.400131 292.178442 
L 196.025029 292.489881 
L 196.674988 292.400918 
L 198.299885 292.464149 
L 198.949844 292.633863 
L 199.274824 292.406269 
L 199.599803 292.422682 
L 199.924783 292.326589 
L 200.249762 292.446624 
L 200.574742 292.441391 
L 201.87466 292.79606 
L 202.19964 292.642998 
L 203.824537 292.737475 
L 204.149517 292.606296 
L 204.799476 292.685654 
L 205.449435 292.444067 
L 205.774414 292.490501 
L 206.099394 292.365916 
L 206.749353 292.594058 
L 207.399312 292.553088 
L 208.374251 292.636763 
L 208.69923 292.733372 
L 209.02421 292.647939 
L 209.999148 292.667895 
L 210.324128 292.641442 
L 210.974087 292.79987 
L 211.299066 292.79511 
L 211.624046 292.567058 
L 212.274005 292.740451 
L 213.573923 292.66889 
L 214.223882 292.74043 
L 214.548862 292.717914 
L 215.198821 292.930666 
L 215.84878 292.491529 
L 216.498739 292.416916 
L 217.148698 292.63106 
L 217.473677 292.397084 
L 218.123636 292.590585 
L 218.448616 292.649782 
L 218.773595 292.489001 
L 219.748534 292.601702 
L 221.048452 292.339317 
L 221.373432 292.31341 
L 221.698411 292.172831 
L 222.34837 292.443814 
L 223.648288 292.452547 
L 224.623227 292.654856 
L 224.948206 292.566793 
L 228.198002 292.974693 
L 228.522981 293.224786 
L 229.17294 293.316103 
L 229.822899 293.351054 
L 230.147879 293.11332 
L 232.747715 293.262216 
L 233.722654 293.464976 
L 234.047633 293.377837 
L 234.372613 293.1442 
L 235.347551 293.110625 
L 235.99751 293.335205 
L 236.32249 293.377923 
L 236.647469 293.277739 
L 236.972449 293.319924 
L 237.297428 293.249677 
L 238.597346 293.413825 
L 238.922326 293.338169 
L 240.222244 293.608155 
L 241.197183 293.117244 
L 241.522162 293.120443 
L 241.847142 293.24088 
L 242.172121 293.234208 
L 242.82208 292.826847 
L 244.121998 292.973758 
L 244.446978 292.875757 
L 245.096937 292.950425 
L 245.421916 293.039226 
L 245.746896 292.667972 
L 248.021753 292.632875 
L 248.346732 292.708653 
L 248.671712 292.375141 
L 248.996691 292.462996 
L 249.321671 292.392177 
L 249.64665 292.638795 
L 251.921507 293.190464 
L 252.571466 293.066262 
L 253.221425 293.043941 
L 253.546405 293.202126 
L 253.871384 293.21235 
L 254.196364 292.932383 
L 256.146241 293.084861 
L 256.47122 292.935826 
L 257.771138 293.159277 
L 260.045995 293.283868 
L 260.695954 293.200493 
L 261.020934 293.421799 
L 261.995872 293.713901 
L 262.320852 293.416173 
L 262.645831 293.346296 
L 262.970811 293.101977 
L 265.895627 293.689036 
L 266.220606 293.484707 
L 266.870565 293.668373 
L 267.195545 293.652233 
L 267.520524 293.327058 
L 268.170483 293.285529 
L 268.495463 293.419934 
L 268.820442 293.365021 
L 269.145422 292.774523 
L 269.470401 292.51838 
L 269.795381 292.687761 
L 270.44534 292.444816 
L 270.770319 292.616838 
L 272.070238 292.514045 
L 273.045176 292.882908 
L 273.695135 292.798644 
L 275.320033 293.279964 
L 275.645012 292.892381 
L 276.619951 292.867795 
L 276.94493 292.673052 
L 277.594889 292.910408 
L 279.219787 293.362345 
L 279.544767 293.215045 
L 280.519705 293.470339 
L 281.494644 293.418255 
L 281.819623 293.480689 
L 282.469582 293.797999 
L 283.119541 293.778748 
L 283.444521 293.464739 
L 284.744439 293.273737 
L 285.719378 293.427586 
L 286.044357 293.529939 
L 286.369337 293.350228 
L 287.344275 293.71061 
L 288.969173 293.395971 
L 290.269091 293.813822 
L 290.59407 293.582544 
L 291.244029 293.732989 
L 292.218968 293.802269 
L 292.543948 293.607596 
L 292.868927 293.637089 
L 293.518886 293.392522 
L 294.818804 293.564875 
L 295.143784 293.806879 
L 295.468763 293.893328 
L 298.0686 293.618953 
L 298.393579 293.395085 
L 299.693497 293.793833 
L 300.668436 293.693694 
L 300.993415 293.768845 
L 301.318395 293.487161 
L 302.618313 294.041659 
L 302.943292 293.904786 
L 303.593251 294.031681 
L 303.918231 294.068223 
L 304.24321 293.881154 
L 304.56819 293.833011 
L 304.89317 293.671116 
L 305.218149 293.642658 
L 305.543129 293.732025 
L 306.193088 293.699445 
L 306.518067 293.770392 
L 307.168026 293.766449 
L 307.493006 293.907981 
L 308.142965 293.942038 
L 309.442883 294.084266 
L 309.767862 294.030938 
L 310.417821 294.162876 
L 311.71774 293.819075 
L 312.042719 293.606445 
L 313.342637 293.821906 
L 313.667617 293.593822 
L 313.992596 293.578604 
L 315.292514 294.023331 
L 315.617494 294.021514 
L 315.942473 294.230833 
L 316.917412 294.318354 
L 318.21733 294.089329 
L 318.54231 294.126474 
L 319.192269 294.013437 
L 319.842228 294.290071 
L 320.492187 294.349191 
L 320.817166 294.40206 
L 321.142146 294.211327 
L 322.117084 294.083729 
L 322.442064 294.178543 
L 323.092023 294.035754 
L 323.417002 293.741514 
L 325.691859 294.165466 
L 326.341818 294.378003 
L 327.316757 293.967989 
L 327.641736 294.008829 
L 327.966716 293.862617 
L 328.291695 293.943664 
L 328.941654 294.223777 
L 329.916593 294.357768 
L 332.19145 294.125316 
L 332.516429 294.255815 
L 332.841409 294.154325 
L 333.166388 294.411755 
L 333.816347 294.024453 
L 334.141327 294.126905 
L 334.466306 293.961168 
L 334.791286 294.062468 
L 335.441245 293.836453 
L 335.766224 293.818927 
L 336.091204 293.923192 
L 336.416183 293.88674 
L 337.391122 294.376431 
L 338.041081 294.184182 
L 338.69104 294.378913 
L 339.01602 294.445944 
L 339.340999 293.720637 
L 339.665979 293.845519 
L 339.990958 293.821756 
L 340.315938 293.589319 
L 340.640917 293.821726 
L 340.965897 293.904826 
L 341.290876 294.223245 
L 341.615856 294.110937 
L 343.240753 294.737409 
L 343.565733 294.502275 
L 343.890713 294.531938 
L 344.215692 294.29052 
L 344.865651 294.41712 
L 345.190631 294.674356 
L 345.51561 294.75493 
L 345.84059 294.198259 
L 346.165569 294.200676 
L 346.490549 294.337326 
L 346.815528 294.228821 
L 348.440426 294.384405 
L 348.765405 294.368252 
L 349.415364 294.183326 
L 349.740344 294.26814 
L 350.390303 294.660231 
L 352.015201 294.551229 
L 352.34018 294.624821 
L 352.66516 294.547863 
L 352.990139 294.683286 
L 353.315119 294.590449 
L 353.640098 294.305134 
L 353.965078 294.395314 
L 354.940016 294.402725 
L 355.589975 294.351213 
L 355.914955 293.967261 
L 356.239934 294.087278 
L 356.564914 293.906308 
L 356.889894 293.858025 
L 357.214873 294.009512 
L 357.864832 293.947368 
L 358.839771 294.292034 
L 359.16475 294.423904 
L 359.48973 294.401783 
L 359.814709 294.498007 
L 360.464668 294.279897 
L 360.789648 294.356334 
L 361.114627 294.127881 
L 361.439607 293.718511 
L 363.064505 294.140883 
L 363.714464 294.375566 
L 365.014382 294.280334 
L 365.339361 294.423331 
L 366.639279 294.36122 
L 367.289238 294.520093 
L 367.939197 294.57727 
L 368.589156 294.372797 
L 368.914136 294.508656 
L 371.513972 294.607019 
L 371.838952 294.831392 
L 372.488911 294.75654 
L 372.81389 294.030273 
L 373.13887 294.003356 
L 373.463849 294.210395 
L 373.788829 294.230333 
L 374.113808 294.437981 
L 375.088747 294.490676 
L 375.413726 294.674457 
L 376.388665 294.814536 
L 376.713645 294.539176 
L 377.688583 294.835668 
L 378.988501 294.700213 
L 379.313481 294.885361 
L 379.96344 294.906466 
L 381.263358 294.544647 
L 381.588337 294.700781 
L 384.188174 294.771013 
L 384.513153 294.975729 
L 384.838133 295.048528 
L 385.163112 295.240181 
L 385.813071 294.973396 
L 386.46303 295.233176 
L 386.78801 295.364749 
L 387.112989 295.138641 
L 387.437969 295.128641 
L 388.087928 294.924967 
L 388.412907 295.010291 
L 388.737887 294.887998 
L 389.387846 294.186332 
L 389.712826 294.309154 
L 390.037805 294.259426 
L 390.687764 294.618914 
L 392.312662 295.374329 
L 392.637641 295.120523 
L 393.2876 295.036072 
L 393.61258 295.106028 
L 393.937559 295.307771 
L 394.587518 294.988288 
L 394.912498 295.197951 
L 395.237477 294.900734 
L 395.887437 295.064482 
L 396.537396 295.45757 
L 397.187355 295.05466 
L 397.512334 295.088073 
L 398.162293 295.488 
L 398.487273 295.456125 
L 398.487273 295.456125 
" style="fill:none;stroke:#ff7f0e;stroke-linecap:square;stroke-width:1.5;"/>
   </g>
   <g id="patch_3">
    <path d="M 57.6 307.584 
L 57.6 41.472 
" style="fill:none;stroke:#000000;stroke-linecap:square;stroke-linejoin:miter;stroke-width:0.8;"/>
   </g>
   <g id="patch_4">
    <path d="M 414.72 307.584 
L 414.72 41.472 
" style="fill:none;stroke:#000000;stroke-linecap:square;stroke-linejoin:miter;stroke-width:0.8;"/>
   </g>
   <g id="patch_5">
    <path d="M 57.6 307.584 
L 414.72 307.584 
" style="fill:none;stroke:#000000;stroke-linecap:square;stroke-linejoin:miter;stroke-width:0.8;"/>
   </g>
   <g id="patch_6">
    <path d="M 57.6 41.472 
L 414.72 41.472 
" style="fill:none;stroke:#000000;stroke-linecap:square;stroke-linejoin:miter;stroke-width:0.8;"/>
   </g>
  </g>
 </g>
 <defs>
  <clipPath id="p25c185b44a">
   <rect height="266.112" width="357.12" x="57.6" y="41.472"/>
  </clipPath>
 </defs>
</svg>
