<?xml version="1.0" encoding="utf-8" standalone="no"?>
<!DOCTYPE svg PUBLIC "-//W3C//DTD SVG 1.1//EN"
  "http://www.w3.org/Graphics/SVG/1.1/DTD/svg11.dtd">
<!-- Created with matplotlib (https://matplotlib.org/) -->
<svg height="345.6pt" version="1.1" viewBox="0 0 460.8 345.6" width="460.8pt" xmlns="http://www.w3.org/2000/svg" xmlns:xlink="http://www.w3.org/1999/xlink">
 <metadata>
  <rdf:RDF xmlns:cc="http://creativecommons.org/ns#" xmlns:dc="http://purl.org/dc/elements/1.1/" xmlns:rdf="http://www.w3.org/1999/02/22-rdf-syntax-ns#">
   <cc:Work>
    <dc:type rdf:resource="http://purl.org/dc/dcmitype/StillImage"/>
    <dc:date>2020-10-03T18:09:17.521362</dc:date>
    <dc:format>image/svg+xml</dc:format>
    <dc:creator>
     <cc:Agent>
      <dc:title>Matplotlib v3.3.2, https://matplotlib.org/</dc:title>
     </cc:Agent>
    </dc:creator>
   </cc:Work>
  </rdf:RDF>
 </metadata>
 <defs>
  <style type="text/css">*{stroke-linecap:butt;stroke-linejoin:round;}</style>
 </defs>
 <g id="figure_1">
  <g id="patch_1">
   <path d="M 0 345.6 
L 460.8 345.6 
L 460.8 0 
L 0 0 
z
" style="fill:#ffffff;"/>
  </g>
  <g id="axes_1">
   <g id="patch_2">
    <path d="M 57.6 307.584 
L 414.72 307.584 
L 414.72 41.472 
L 57.6 41.472 
z
" style="fill:#ffffff;"/>
   </g>
   <g id="matplotlib.axis_1">
    <g id="xtick_1">
     <g id="line2d_1">
      <defs>
       <path d="M 0 0 
L 0 3.5 
" id="m3271afdfa6" style="stroke:#000000;stroke-width:0.8;"/>
      </defs>
      <g>
       <use style="stroke:#000000;stroke-width:0.8;" x="73.832727" xlink:href="#m3271afdfa6" y="307.584"/>
      </g>
     </g>
     <g id="text_1">
      <!-- 0 -->
      <g transform="translate(70.651477 322.182437)scale(0.1 -0.1)">
       <defs>
        <path d="M 31.78125 66.40625 
Q 24.171875 66.40625 20.328125 58.90625 
Q 16.5 51.421875 16.5 36.375 
Q 16.5 21.390625 20.328125 13.890625 
Q 24.171875 6.390625 31.78125 6.390625 
Q 39.453125 6.390625 43.28125 13.890625 
Q 47.125 21.390625 47.125 36.375 
Q 47.125 51.421875 43.28125 58.90625 
Q 39.453125 66.40625 31.78125 66.40625 
z
M 31.78125 74.21875 
Q 44.046875 74.21875 50.515625 64.515625 
Q 56.984375 54.828125 56.984375 36.375 
Q 56.984375 17.96875 50.515625 8.265625 
Q 44.046875 -1.421875 31.78125 -1.421875 
Q 19.53125 -1.421875 13.0625 8.265625 
Q 6.59375 17.96875 6.59375 36.375 
Q 6.59375 54.828125 13.0625 64.515625 
Q 19.53125 74.21875 31.78125 74.21875 
z
" id="DejaVuSans-48"/>
       </defs>
       <use xlink:href="#DejaVuSans-48"/>
      </g>
     </g>
    </g>
    <g id="xtick_2">
     <g id="line2d_2">
      <g>
       <use style="stroke:#000000;stroke-width:0.8;" x="138.828632" xlink:href="#m3271afdfa6" y="307.584"/>
      </g>
     </g>
     <g id="text_2">
      <!-- 20 -->
      <g transform="translate(132.466132 322.182437)scale(0.1 -0.1)">
       <defs>
        <path d="M 19.1875 8.296875 
L 53.609375 8.296875 
L 53.609375 0 
L 7.328125 0 
L 7.328125 8.296875 
Q 12.9375 14.109375 22.625 23.890625 
Q 32.328125 33.6875 34.8125 36.53125 
Q 39.546875 41.84375 41.421875 45.53125 
Q 43.3125 49.21875 43.3125 52.78125 
Q 43.3125 58.59375 39.234375 62.25 
Q 35.15625 65.921875 28.609375 65.921875 
Q 23.96875 65.921875 18.8125 64.3125 
Q 13.671875 62.703125 7.8125 59.421875 
L 7.8125 69.390625 
Q 13.765625 71.78125 18.9375 73 
Q 24.125 74.21875 28.421875 74.21875 
Q 39.75 74.21875 46.484375 68.546875 
Q 53.21875 62.890625 53.21875 53.421875 
Q 53.21875 48.921875 51.53125 44.890625 
Q 49.859375 40.875 45.40625 35.40625 
Q 44.1875 33.984375 37.640625 27.21875 
Q 31.109375 20.453125 19.1875 8.296875 
z
" id="DejaVuSans-50"/>
       </defs>
       <use xlink:href="#DejaVuSans-50"/>
       <use x="63.623047" xlink:href="#DejaVuSans-48"/>
      </g>
     </g>
    </g>
    <g id="xtick_3">
     <g id="line2d_3">
      <g>
       <use style="stroke:#000000;stroke-width:0.8;" x="203.824537" xlink:href="#m3271afdfa6" y="307.584"/>
      </g>
     </g>
     <g id="text_3">
      <!-- 40 -->
      <g transform="translate(197.462037 322.182437)scale(0.1 -0.1)">
       <defs>
        <path d="M 37.796875 64.3125 
L 12.890625 25.390625 
L 37.796875 25.390625 
z
M 35.203125 72.90625 
L 47.609375 72.90625 
L 47.609375 25.390625 
L 58.015625 25.390625 
L 58.015625 17.1875 
L 47.609375 17.1875 
L 47.609375 0 
L 37.796875 0 
L 37.796875 17.1875 
L 4.890625 17.1875 
L 4.890625 26.703125 
z
" id="DejaVuSans-52"/>
       </defs>
       <use xlink:href="#DejaVuSans-52"/>
       <use x="63.623047" xlink:href="#DejaVuSans-48"/>
      </g>
     </g>
    </g>
    <g id="xtick_4">
     <g id="line2d_4">
      <g>
       <use style="stroke:#000000;stroke-width:0.8;" x="268.820442" xlink:href="#m3271afdfa6" y="307.584"/>
      </g>
     </g>
     <g id="text_4">
      <!-- 60 -->
      <g transform="translate(262.457942 322.182437)scale(0.1 -0.1)">
       <defs>
        <path d="M 33.015625 40.375 
Q 26.375 40.375 22.484375 35.828125 
Q 18.609375 31.296875 18.609375 23.390625 
Q 18.609375 15.53125 22.484375 10.953125 
Q 26.375 6.390625 33.015625 6.390625 
Q 39.65625 6.390625 43.53125 10.953125 
Q 47.40625 15.53125 47.40625 23.390625 
Q 47.40625 31.296875 43.53125 35.828125 
Q 39.65625 40.375 33.015625 40.375 
z
M 52.59375 71.296875 
L 52.59375 62.3125 
Q 48.875 64.0625 45.09375 64.984375 
Q 41.3125 65.921875 37.59375 65.921875 
Q 27.828125 65.921875 22.671875 59.328125 
Q 17.53125 52.734375 16.796875 39.40625 
Q 19.671875 43.65625 24.015625 45.921875 
Q 28.375 48.1875 33.59375 48.1875 
Q 44.578125 48.1875 50.953125 41.515625 
Q 57.328125 34.859375 57.328125 23.390625 
Q 57.328125 12.15625 50.6875 5.359375 
Q 44.046875 -1.421875 33.015625 -1.421875 
Q 20.359375 -1.421875 13.671875 8.265625 
Q 6.984375 17.96875 6.984375 36.375 
Q 6.984375 53.65625 15.1875 63.9375 
Q 23.390625 74.21875 37.203125 74.21875 
Q 40.921875 74.21875 44.703125 73.484375 
Q 48.484375 72.75 52.59375 71.296875 
z
" id="DejaVuSans-54"/>
       </defs>
       <use xlink:href="#DejaVuSans-54"/>
       <use x="63.623047" xlink:href="#DejaVuSans-48"/>
      </g>
     </g>
    </g>
    <g id="xtick_5">
     <g id="line2d_5">
      <g>
       <use style="stroke:#000000;stroke-width:0.8;" x="333.816347" xlink:href="#m3271afdfa6" y="307.584"/>
      </g>
     </g>
     <g id="text_5">
      <!-- 80 -->
      <g transform="translate(327.453847 322.182437)scale(0.1 -0.1)">
       <defs>
        <path d="M 31.78125 34.625 
Q 24.75 34.625 20.71875 30.859375 
Q 16.703125 27.09375 16.703125 20.515625 
Q 16.703125 13.921875 20.71875 10.15625 
Q 24.75 6.390625 31.78125 6.390625 
Q 38.8125 6.390625 42.859375 10.171875 
Q 46.921875 13.96875 46.921875 20.515625 
Q 46.921875 27.09375 42.890625 30.859375 
Q 38.875 34.625 31.78125 34.625 
z
M 21.921875 38.8125 
Q 15.578125 40.375 12.03125 44.71875 
Q 8.5 49.078125 8.5 55.328125 
Q 8.5 64.0625 14.71875 69.140625 
Q 20.953125 74.21875 31.78125 74.21875 
Q 42.671875 74.21875 48.875 69.140625 
Q 55.078125 64.0625 55.078125 55.328125 
Q 55.078125 49.078125 51.53125 44.71875 
Q 48 40.375 41.703125 38.8125 
Q 48.828125 37.15625 52.796875 32.3125 
Q 56.78125 27.484375 56.78125 20.515625 
Q 56.78125 9.90625 50.3125 4.234375 
Q 43.84375 -1.421875 31.78125 -1.421875 
Q 19.734375 -1.421875 13.25 4.234375 
Q 6.78125 9.90625 6.78125 20.515625 
Q 6.78125 27.484375 10.78125 32.3125 
Q 14.796875 37.15625 21.921875 38.8125 
z
M 18.3125 54.390625 
Q 18.3125 48.734375 21.84375 45.5625 
Q 25.390625 42.390625 31.78125 42.390625 
Q 38.140625 42.390625 41.71875 45.5625 
Q 45.3125 48.734375 45.3125 54.390625 
Q 45.3125 60.0625 41.71875 63.234375 
Q 38.140625 66.40625 31.78125 66.40625 
Q 25.390625 66.40625 21.84375 63.234375 
Q 18.3125 60.0625 18.3125 54.390625 
z
" id="DejaVuSans-56"/>
       </defs>
       <use xlink:href="#DejaVuSans-56"/>
       <use x="63.623047" xlink:href="#DejaVuSans-48"/>
      </g>
     </g>
    </g>
    <g id="xtick_6">
     <g id="line2d_6">
      <g>
       <use style="stroke:#000000;stroke-width:0.8;" x="398.812252" xlink:href="#m3271afdfa6" y="307.584"/>
      </g>
     </g>
     <g id="text_6">
      <!-- 100 -->
      <g transform="translate(389.268502 322.182437)scale(0.1 -0.1)">
       <defs>
        <path d="M 12.40625 8.296875 
L 28.515625 8.296875 
L 28.515625 63.921875 
L 10.984375 60.40625 
L 10.984375 69.390625 
L 28.421875 72.90625 
L 38.28125 72.90625 
L 38.28125 8.296875 
L 54.390625 8.296875 
L 54.390625 0 
L 12.40625 0 
z
" id="DejaVuSans-49"/>
       </defs>
       <use xlink:href="#DejaVuSans-49"/>
       <use x="63.623047" xlink:href="#DejaVuSans-48"/>
       <use x="127.246094" xlink:href="#DejaVuSans-48"/>
      </g>
     </g>
    </g>
    <g id="text_7">
     <!-- Time (days) -->
     <g transform="translate(206.633437 335.860562)scale(0.1 -0.1)">
      <defs>
       <path d="M -0.296875 72.90625 
L 61.375 72.90625 
L 61.375 64.59375 
L 35.5 64.59375 
L 35.5 0 
L 25.59375 0 
L 25.59375 64.59375 
L -0.296875 64.59375 
z
" id="DejaVuSans-84"/>
       <path d="M 9.421875 54.6875 
L 18.40625 54.6875 
L 18.40625 0 
L 9.421875 0 
z
M 9.421875 75.984375 
L 18.40625 75.984375 
L 18.40625 64.59375 
L 9.421875 64.59375 
z
" id="DejaVuSans-105"/>
       <path d="M 52 44.1875 
Q 55.375 50.25 60.0625 53.125 
Q 64.75 56 71.09375 56 
Q 79.640625 56 84.28125 50.015625 
Q 88.921875 44.046875 88.921875 33.015625 
L 88.921875 0 
L 79.890625 0 
L 79.890625 32.71875 
Q 79.890625 40.578125 77.09375 44.375 
Q 74.3125 48.1875 68.609375 48.1875 
Q 61.625 48.1875 57.5625 43.546875 
Q 53.515625 38.921875 53.515625 30.90625 
L 53.515625 0 
L 44.484375 0 
L 44.484375 32.71875 
Q 44.484375 40.625 41.703125 44.40625 
Q 38.921875 48.1875 33.109375 48.1875 
Q 26.21875 48.1875 22.15625 43.53125 
Q 18.109375 38.875 18.109375 30.90625 
L 18.109375 0 
L 9.078125 0 
L 9.078125 54.6875 
L 18.109375 54.6875 
L 18.109375 46.1875 
Q 21.1875 51.21875 25.484375 53.609375 
Q 29.78125 56 35.6875 56 
Q 41.65625 56 45.828125 52.96875 
Q 50 49.953125 52 44.1875 
z
" id="DejaVuSans-109"/>
       <path d="M 56.203125 29.59375 
L 56.203125 25.203125 
L 14.890625 25.203125 
Q 15.484375 15.921875 20.484375 11.0625 
Q 25.484375 6.203125 34.421875 6.203125 
Q 39.59375 6.203125 44.453125 7.46875 
Q 49.3125 8.734375 54.109375 11.28125 
L 54.109375 2.78125 
Q 49.265625 0.734375 44.1875 -0.34375 
Q 39.109375 -1.421875 33.890625 -1.421875 
Q 20.796875 -1.421875 13.15625 6.1875 
Q 5.515625 13.8125 5.515625 26.8125 
Q 5.515625 40.234375 12.765625 48.109375 
Q 20.015625 56 32.328125 56 
Q 43.359375 56 49.78125 48.890625 
Q 56.203125 41.796875 56.203125 29.59375 
z
M 47.21875 32.234375 
Q 47.125 39.59375 43.09375 43.984375 
Q 39.0625 48.390625 32.421875 48.390625 
Q 24.90625 48.390625 20.390625 44.140625 
Q 15.875 39.890625 15.1875 32.171875 
z
" id="DejaVuSans-101"/>
       <path id="DejaVuSans-32"/>
       <path d="M 31 75.875 
Q 24.46875 64.65625 21.28125 53.65625 
Q 18.109375 42.671875 18.109375 31.390625 
Q 18.109375 20.125 21.3125 9.0625 
Q 24.515625 -2 31 -13.1875 
L 23.1875 -13.1875 
Q 15.875 -1.703125 12.234375 9.375 
Q 8.59375 20.453125 8.59375 31.390625 
Q 8.59375 42.28125 12.203125 53.3125 
Q 15.828125 64.359375 23.1875 75.875 
z
" id="DejaVuSans-40"/>
       <path d="M 45.40625 46.390625 
L 45.40625 75.984375 
L 54.390625 75.984375 
L 54.390625 0 
L 45.40625 0 
L 45.40625 8.203125 
Q 42.578125 3.328125 38.25 0.953125 
Q 33.9375 -1.421875 27.875 -1.421875 
Q 17.96875 -1.421875 11.734375 6.484375 
Q 5.515625 14.40625 5.515625 27.296875 
Q 5.515625 40.1875 11.734375 48.09375 
Q 17.96875 56 27.875 56 
Q 33.9375 56 38.25 53.625 
Q 42.578125 51.265625 45.40625 46.390625 
z
M 14.796875 27.296875 
Q 14.796875 17.390625 18.875 11.75 
Q 22.953125 6.109375 30.078125 6.109375 
Q 37.203125 6.109375 41.296875 11.75 
Q 45.40625 17.390625 45.40625 27.296875 
Q 45.40625 37.203125 41.296875 42.84375 
Q 37.203125 48.484375 30.078125 48.484375 
Q 22.953125 48.484375 18.875 42.84375 
Q 14.796875 37.203125 14.796875 27.296875 
z
" id="DejaVuSans-100"/>
       <path d="M 34.28125 27.484375 
Q 23.390625 27.484375 19.1875 25 
Q 14.984375 22.515625 14.984375 16.5 
Q 14.984375 11.71875 18.140625 8.90625 
Q 21.296875 6.109375 26.703125 6.109375 
Q 34.1875 6.109375 38.703125 11.40625 
Q 43.21875 16.703125 43.21875 25.484375 
L 43.21875 27.484375 
z
M 52.203125 31.203125 
L 52.203125 0 
L 43.21875 0 
L 43.21875 8.296875 
Q 40.140625 3.328125 35.546875 0.953125 
Q 30.953125 -1.421875 24.3125 -1.421875 
Q 15.921875 -1.421875 10.953125 3.296875 
Q 6 8.015625 6 15.921875 
Q 6 25.140625 12.171875 29.828125 
Q 18.359375 34.515625 30.609375 34.515625 
L 43.21875 34.515625 
L 43.21875 35.40625 
Q 43.21875 41.609375 39.140625 45 
Q 35.0625 48.390625 27.6875 48.390625 
Q 23 48.390625 18.546875 47.265625 
Q 14.109375 46.140625 10.015625 43.890625 
L 10.015625 52.203125 
Q 14.9375 54.109375 19.578125 55.046875 
Q 24.21875 56 28.609375 56 
Q 40.484375 56 46.34375 49.84375 
Q 52.203125 43.703125 52.203125 31.203125 
z
" id="DejaVuSans-97"/>
       <path d="M 32.171875 -5.078125 
Q 28.375 -14.84375 24.75 -17.8125 
Q 21.140625 -20.796875 15.09375 -20.796875 
L 7.90625 -20.796875 
L 7.90625 -13.28125 
L 13.1875 -13.28125 
Q 16.890625 -13.28125 18.9375 -11.515625 
Q 21 -9.765625 23.484375 -3.21875 
L 25.09375 0.875 
L 2.984375 54.6875 
L 12.5 54.6875 
L 29.59375 11.921875 
L 46.6875 54.6875 
L 56.203125 54.6875 
z
" id="DejaVuSans-121"/>
       <path d="M 44.28125 53.078125 
L 44.28125 44.578125 
Q 40.484375 46.53125 36.375 47.5 
Q 32.28125 48.484375 27.875 48.484375 
Q 21.1875 48.484375 17.84375 46.4375 
Q 14.5 44.390625 14.5 40.28125 
Q 14.5 37.15625 16.890625 35.375 
Q 19.28125 33.59375 26.515625 31.984375 
L 29.59375 31.296875 
Q 39.15625 29.25 43.1875 25.515625 
Q 47.21875 21.78125 47.21875 15.09375 
Q 47.21875 7.46875 41.1875 3.015625 
Q 35.15625 -1.421875 24.609375 -1.421875 
Q 20.21875 -1.421875 15.453125 -0.5625 
Q 10.6875 0.296875 5.421875 2 
L 5.421875 11.28125 
Q 10.40625 8.6875 15.234375 7.390625 
Q 20.0625 6.109375 24.8125 6.109375 
Q 31.15625 6.109375 34.5625 8.28125 
Q 37.984375 10.453125 37.984375 14.40625 
Q 37.984375 18.0625 35.515625 20.015625 
Q 33.0625 21.96875 24.703125 23.78125 
L 21.578125 24.515625 
Q 13.234375 26.265625 9.515625 29.90625 
Q 5.8125 33.546875 5.8125 39.890625 
Q 5.8125 47.609375 11.28125 51.796875 
Q 16.75 56 26.8125 56 
Q 31.78125 56 36.171875 55.265625 
Q 40.578125 54.546875 44.28125 53.078125 
z
" id="DejaVuSans-115"/>
       <path d="M 8.015625 75.875 
L 15.828125 75.875 
Q 23.140625 64.359375 26.78125 53.3125 
Q 30.421875 42.28125 30.421875 31.390625 
Q 30.421875 20.453125 26.78125 9.375 
Q 23.140625 -1.703125 15.828125 -13.1875 
L 8.015625 -13.1875 
Q 14.5 -2 17.703125 9.0625 
Q 20.90625 20.125 20.90625 31.390625 
Q 20.90625 42.671875 17.703125 53.65625 
Q 14.5 64.65625 8.015625 75.875 
z
" id="DejaVuSans-41"/>
      </defs>
      <use xlink:href="#DejaVuSans-84"/>
      <use x="57.958984" xlink:href="#DejaVuSans-105"/>
      <use x="85.742188" xlink:href="#DejaVuSans-109"/>
      <use x="183.154297" xlink:href="#DejaVuSans-101"/>
      <use x="244.677734" xlink:href="#DejaVuSans-32"/>
      <use x="276.464844" xlink:href="#DejaVuSans-40"/>
      <use x="315.478516" xlink:href="#DejaVuSans-100"/>
      <use x="378.955078" xlink:href="#DejaVuSans-97"/>
      <use x="440.234375" xlink:href="#DejaVuSans-121"/>
      <use x="499.414062" xlink:href="#DejaVuSans-115"/>
      <use x="551.513672" xlink:href="#DejaVuSans-41"/>
     </g>
    </g>
   </g>
   <g id="matplotlib.axis_2">
    <g id="ytick_1">
     <g id="line2d_7">
      <defs>
       <path d="M 0 0 
L -3.5 0 
" id="m1cc99ee702" style="stroke:#000000;stroke-width:0.8;"/>
      </defs>
      <g>
       <use style="stroke:#000000;stroke-width:0.8;" x="57.6" xlink:href="#m1cc99ee702" y="289.445521"/>
      </g>
     </g>
     <g id="text_8">
      <!-- 0 -->
      <g transform="translate(44.2375 293.244739)scale(0.1 -0.1)">
       <use xlink:href="#DejaVuSans-48"/>
      </g>
     </g>
    </g>
    <g id="ytick_2">
     <g id="line2d_8">
      <g>
       <use style="stroke:#000000;stroke-width:0.8;" x="57.6" xlink:href="#m1cc99ee702" y="242.136607"/>
      </g>
     </g>
     <g id="text_9">
      <!-- 1000 -->
      <g transform="translate(25.15 245.935826)scale(0.1 -0.1)">
       <use xlink:href="#DejaVuSans-49"/>
       <use x="63.623047" xlink:href="#DejaVuSans-48"/>
       <use x="127.246094" xlink:href="#DejaVuSans-48"/>
       <use x="190.869141" xlink:href="#DejaVuSans-48"/>
      </g>
     </g>
    </g>
    <g id="ytick_3">
     <g id="line2d_9">
      <g>
       <use style="stroke:#000000;stroke-width:0.8;" x="57.6" xlink:href="#m1cc99ee702" y="194.827693"/>
      </g>
     </g>
     <g id="text_10">
      <!-- 2000 -->
      <g transform="translate(25.15 198.626912)scale(0.1 -0.1)">
       <use xlink:href="#DejaVuSans-50"/>
       <use x="63.623047" xlink:href="#DejaVuSans-48"/>
       <use x="127.246094" xlink:href="#DejaVuSans-48"/>
       <use x="190.869141" xlink:href="#DejaVuSans-48"/>
      </g>
     </g>
    </g>
    <g id="ytick_4">
     <g id="line2d_10">
      <g>
       <use style="stroke:#000000;stroke-width:0.8;" x="57.6" xlink:href="#m1cc99ee702" y="147.51878"/>
      </g>
     </g>
     <g id="text_11">
      <!-- 3000 -->
      <g transform="translate(25.15 151.317998)scale(0.1 -0.1)">
       <defs>
        <path d="M 40.578125 39.3125 
Q 47.65625 37.796875 51.625 33 
Q 55.609375 28.21875 55.609375 21.1875 
Q 55.609375 10.40625 48.1875 4.484375 
Q 40.765625 -1.421875 27.09375 -1.421875 
Q 22.515625 -1.421875 17.65625 -0.515625 
Q 12.796875 0.390625 7.625 2.203125 
L 7.625 11.71875 
Q 11.71875 9.328125 16.59375 8.109375 
Q 21.484375 6.890625 26.8125 6.890625 
Q 36.078125 6.890625 40.9375 10.546875 
Q 45.796875 14.203125 45.796875 21.1875 
Q 45.796875 27.640625 41.28125 31.265625 
Q 36.765625 34.90625 28.71875 34.90625 
L 20.21875 34.90625 
L 20.21875 43.015625 
L 29.109375 43.015625 
Q 36.375 43.015625 40.234375 45.921875 
Q 44.09375 48.828125 44.09375 54.296875 
Q 44.09375 59.90625 40.109375 62.90625 
Q 36.140625 65.921875 28.71875 65.921875 
Q 24.65625 65.921875 20.015625 65.03125 
Q 15.375 64.15625 9.8125 62.3125 
L 9.8125 71.09375 
Q 15.4375 72.65625 20.34375 73.4375 
Q 25.25 74.21875 29.59375 74.21875 
Q 40.828125 74.21875 47.359375 69.109375 
Q 53.90625 64.015625 53.90625 55.328125 
Q 53.90625 49.265625 50.4375 45.09375 
Q 46.96875 40.921875 40.578125 39.3125 
z
" id="DejaVuSans-51"/>
       </defs>
       <use xlink:href="#DejaVuSans-51"/>
       <use x="63.623047" xlink:href="#DejaVuSans-48"/>
       <use x="127.246094" xlink:href="#DejaVuSans-48"/>
       <use x="190.869141" xlink:href="#DejaVuSans-48"/>
      </g>
     </g>
    </g>
    <g id="ytick_5">
     <g id="line2d_11">
      <g>
       <use style="stroke:#000000;stroke-width:0.8;" x="57.6" xlink:href="#m1cc99ee702" y="100.209866"/>
      </g>
     </g>
     <g id="text_12">
      <!-- 4000 -->
      <g transform="translate(25.15 104.009085)scale(0.1 -0.1)">
       <use xlink:href="#DejaVuSans-52"/>
       <use x="63.623047" xlink:href="#DejaVuSans-48"/>
       <use x="127.246094" xlink:href="#DejaVuSans-48"/>
       <use x="190.869141" xlink:href="#DejaVuSans-48"/>
      </g>
     </g>
    </g>
    <g id="ytick_6">
     <g id="line2d_12">
      <g>
       <use style="stroke:#000000;stroke-width:0.8;" x="57.6" xlink:href="#m1cc99ee702" y="52.900952"/>
      </g>
     </g>
     <g id="text_13">
      <!-- 5000 -->
      <g transform="translate(25.15 56.700171)scale(0.1 -0.1)">
       <defs>
        <path d="M 10.796875 72.90625 
L 49.515625 72.90625 
L 49.515625 64.59375 
L 19.828125 64.59375 
L 19.828125 46.734375 
Q 21.96875 47.46875 24.109375 47.828125 
Q 26.265625 48.1875 28.421875 48.1875 
Q 40.625 48.1875 47.75 41.5 
Q 54.890625 34.8125 54.890625 23.390625 
Q 54.890625 11.625 47.5625 5.09375 
Q 40.234375 -1.421875 26.90625 -1.421875 
Q 22.3125 -1.421875 17.546875 -0.640625 
Q 12.796875 0.140625 7.71875 1.703125 
L 7.71875 11.625 
Q 12.109375 9.234375 16.796875 8.0625 
Q 21.484375 6.890625 26.703125 6.890625 
Q 35.15625 6.890625 40.078125 11.328125 
Q 45.015625 15.765625 45.015625 23.390625 
Q 45.015625 31 40.078125 35.4375 
Q 35.15625 39.890625 26.703125 39.890625 
Q 22.75 39.890625 18.8125 39.015625 
Q 14.890625 38.140625 10.796875 36.28125 
z
" id="DejaVuSans-53"/>
       </defs>
       <use xlink:href="#DejaVuSans-53"/>
       <use x="63.623047" xlink:href="#DejaVuSans-48"/>
       <use x="127.246094" xlink:href="#DejaVuSans-48"/>
       <use x="190.869141" xlink:href="#DejaVuSans-48"/>
      </g>
     </g>
    </g>
    <g id="text_14">
     <!-- Density -->
     <g transform="translate(19.070312 193.536594)rotate(-90)scale(0.1 -0.1)">
      <defs>
       <path d="M 19.671875 64.796875 
L 19.671875 8.109375 
L 31.59375 8.109375 
Q 46.6875 8.109375 53.6875 14.9375 
Q 60.6875 21.78125 60.6875 36.53125 
Q 60.6875 51.171875 53.6875 57.984375 
Q 46.6875 64.796875 31.59375 64.796875 
z
M 9.8125 72.90625 
L 30.078125 72.90625 
Q 51.265625 72.90625 61.171875 64.09375 
Q 71.09375 55.28125 71.09375 36.53125 
Q 71.09375 17.671875 61.125 8.828125 
Q 51.171875 0 30.078125 0 
L 9.8125 0 
z
" id="DejaVuSans-68"/>
       <path d="M 54.890625 33.015625 
L 54.890625 0 
L 45.90625 0 
L 45.90625 32.71875 
Q 45.90625 40.484375 42.875 44.328125 
Q 39.84375 48.1875 33.796875 48.1875 
Q 26.515625 48.1875 22.3125 43.546875 
Q 18.109375 38.921875 18.109375 30.90625 
L 18.109375 0 
L 9.078125 0 
L 9.078125 54.6875 
L 18.109375 54.6875 
L 18.109375 46.1875 
Q 21.34375 51.125 25.703125 53.5625 
Q 30.078125 56 35.796875 56 
Q 45.21875 56 50.046875 50.171875 
Q 54.890625 44.34375 54.890625 33.015625 
z
" id="DejaVuSans-110"/>
       <path d="M 18.3125 70.21875 
L 18.3125 54.6875 
L 36.8125 54.6875 
L 36.8125 47.703125 
L 18.3125 47.703125 
L 18.3125 18.015625 
Q 18.3125 11.328125 20.140625 9.421875 
Q 21.96875 7.515625 27.59375 7.515625 
L 36.8125 7.515625 
L 36.8125 0 
L 27.59375 0 
Q 17.1875 0 13.234375 3.875 
Q 9.28125 7.765625 9.28125 18.015625 
L 9.28125 47.703125 
L 2.6875 47.703125 
L 2.6875 54.6875 
L 9.28125 54.6875 
L 9.28125 70.21875 
z
" id="DejaVuSans-116"/>
      </defs>
      <use xlink:href="#DejaVuSans-68"/>
      <use x="77.001953" xlink:href="#DejaVuSans-101"/>
      <use x="138.525391" xlink:href="#DejaVuSans-110"/>
      <use x="201.904297" xlink:href="#DejaVuSans-115"/>
      <use x="254.003906" xlink:href="#DejaVuSans-105"/>
      <use x="281.787109" xlink:href="#DejaVuSans-116"/>
      <use x="320.996094" xlink:href="#DejaVuSans-121"/>
     </g>
    </g>
   </g>
   <g id="line2d_13">
    <path clip-path="url(#p2f4fa0941c)" d="M 73.832727 288.972432 
L 75.132645 288.607698 
L 76.107584 288.145512 
L 77.082523 287.414717 
L 77.732482 286.697789 
L 78.382441 285.733347 
L 79.0324 284.470223 
L 79.682359 282.775243 
L 80.332318 280.475177 
L 80.982277 277.385709 
L 81.957215 271.338175 
L 82.607174 265.453045 
L 83.582113 252.779567 
L 84.557052 237.573901 
L 85.207011 224.262133 
L 86.831908 189.455126 
L 87.481867 170.96916 
L 87.806847 166.952072 
L 88.456806 146.982404 
L 88.781785 144.227678 
L 89.106765 140.368754 
L 89.431744 133.115868 
L 89.756724 128.945574 
L 90.081704 131.526653 
L 90.406683 130.382545 
L 90.731663 130.133837 
L 91.381622 116.694017 
L 91.706601 116.787713 
L 92.031581 106.174344 
L 92.35656 107.071182 
L 92.68154 110.403581 
L 93.006519 102.435163 
L 93.331499 106.581368 
L 93.981458 95.291702 
L 94.306437 86.674266 
L 94.631417 87.803497 
L 94.956396 91.62563 
L 95.281376 91.327376 
L 95.606355 91.658196 
L 95.931335 84.602786 
L 96.256314 82.374275 
L 96.581294 104.255785 
L 96.906274 101.378428 
L 97.231253 105.677058 
L 97.556233 99.520169 
L 97.881212 97.074459 
L 98.206192 93.215939 
L 98.531171 92.768798 
L 98.856151 93.648923 
L 99.18113 95.074899 
L 99.50611 106.027025 
L 99.831089 110.268632 
L 100.156069 109.587892 
L 100.481048 119.028822 
L 100.806028 113.978244 
L 101.131007 113.132553 
L 101.455987 115.923398 
L 101.780966 105.697071 
L 102.105946 104.366726 
L 102.430925 97.747037 
L 102.755905 104.079128 
L 103.080885 98.686311 
L 103.405864 53.568 
L 103.730844 58.262772 
L 104.055823 65.94559 
L 104.380803 65.427444 
L 105.030762 85.953431 
L 105.355741 80.75928 
L 105.680721 83.609417 
L 106.33068 101.924903 
L 106.655659 92.299704 
L 106.980639 91.963223 
L 107.305618 105.149562 
L 107.630598 105.683566 
L 107.955577 95.030549 
L 108.605536 101.828959 
L 108.930516 98.036978 
L 109.255495 91.183483 
L 109.580475 103.571474 
L 109.905455 99.846544 
L 110.230434 93.142294 
L 110.555414 89.118144 
L 110.880393 82.047885 
L 111.205373 78.327415 
L 111.855332 91.96838 
L 112.180311 88.207289 
L 112.505291 100.525865 
L 112.83027 99.284018 
L 113.15525 104.133037 
L 113.480229 101.72327 
L 113.805209 98.241267 
L 114.130188 93.017638 
L 114.455168 83.397981 
L 114.780147 99.77248 
L 115.105127 108.074244 
L 115.430106 103.833198 
L 115.755086 107.295272 
L 116.080066 106.738499 
L 116.405045 112.901702 
L 116.730025 111.212654 
L 117.055004 110.244196 
L 117.379984 107.712667 
L 117.704963 106.820327 
L 118.029943 109.894847 
L 118.679902 104.782021 
L 119.329861 96.532473 
L 119.65484 96.988911 
L 119.97982 92.05242 
L 120.304799 94.403004 
L 120.629779 91.651063 
L 120.954758 92.009762 
L 121.279738 95.450698 
L 121.604717 89.031764 
L 121.929697 88.273945 
L 122.254676 86.684738 
L 122.579656 92.643966 
L 122.904636 88.912207 
L 123.229615 87.534665 
L 123.554595 82.132497 
L 123.879574 85.012887 
L 124.204554 83.667555 
L 124.529533 77.230302 
L 124.854513 80.50875 
L 125.179492 76.521902 
L 125.504472 81.641919 
L 125.829451 80.824111 
L 126.154431 69.600519 
L 126.47941 62.271054 
L 126.80439 63.067352 
L 127.129369 69.977659 
L 127.454349 73.546155 
L 127.779328 78.354198 
L 128.104308 86.213438 
L 128.429287 86.46868 
L 128.754267 82.781754 
L 129.079247 81.469822 
L 129.404226 75.147954 
L 129.729206 80.367621 
L 130.054185 80.10384 
L 130.379165 70.203622 
L 130.704144 73.79625 
L 131.029124 83.626569 
L 131.354103 101.650988 
L 131.679083 93.950918 
L 132.004062 105.502008 
L 132.329042 102.015245 
L 132.654021 102.366968 
L 132.979001 113.266001 
L 133.30398 118.250291 
L 133.62896 110.6366 
L 133.953939 109.830036 
L 134.278919 119.638373 
L 134.603898 120.423099 
L 134.928878 114.799218 
L 135.253857 114.811934 
L 135.578837 125.350449 
L 135.903817 123.722346 
L 136.228796 127.974014 
L 136.553776 137.259266 
L 137.203735 126.572981 
L 137.528714 130.772693 
L 138.503653 111.36141 
L 138.828632 97.851199 
L 139.153612 102.067182 
L 139.478591 100.132462 
L 140.12855 94.119064 
L 140.45353 97.647628 
L 140.778509 95.440057 
L 141.103489 106.820554 
L 141.428468 107.267368 
L 142.403407 99.653266 
L 142.728387 106.488313 
L 143.053366 124.453999 
L 144.028305 112.680917 
L 144.353284 111.97637 
L 144.678264 101.036958 
L 145.328223 111.691143 
L 145.978182 101.656301 
L 146.303161 104.563564 
L 146.628141 100.347601 
L 146.95312 100.2178 
L 147.2781 98.760719 
L 147.603079 92.839369 
L 147.928059 97.352035 
L 148.253038 104.229635 
L 148.578018 116.948227 
L 148.902998 122.022526 
L 149.227977 119.604001 
L 149.552957 114.58348 
L 150.202916 108.710009 
L 150.527895 100.935418 
L 150.852875 108.380296 
L 151.177854 112.964461 
L 151.502834 106.580616 
L 151.827813 115.114237 
L 152.152793 108.274519 
L 152.477772 105.117002 
L 153.452711 91.067913 
L 153.77769 90.189819 
L 154.10267 105.157759 
L 154.427649 94.623868 
L 154.752629 95.396925 
L 155.077609 98.195349 
L 155.727568 88.034017 
L 156.052547 86.727626 
L 156.702506 69.265363 
L 157.027486 76.226648 
L 157.352465 90.582174 
L 157.677445 91.719614 
L 158.002424 98.839689 
L 158.327404 96.691377 
L 159.302342 81.296979 
L 160.277281 97.427842 
L 160.60226 98.667483 
L 160.92724 100.657904 
L 161.252219 100.296219 
L 161.577199 99.10494 
L 161.902179 94.928802 
L 162.227158 99.050933 
L 162.552138 112.140416 
L 162.877117 109.670552 
L 163.202097 109.364443 
L 163.527076 105.31003 
L 163.852056 104.954232 
L 164.177035 108.420582 
L 164.502015 101.884015 
L 164.826994 109.473205 
L 165.151974 106.429691 
L 165.476953 100.888304 
L 166.126912 97.953422 
L 166.451892 101.131405 
L 166.776871 97.129146 
L 167.101851 95.50487 
L 167.42683 91.717089 
L 167.75181 99.876878 
L 168.07679 98.169181 
L 168.726749 91.55682 
L 169.051728 106.327895 
L 169.376708 106.470398 
L 169.701687 108.761883 
L 170.026667 105.981322 
L 171.001605 91.832338 
L 171.326585 90.280969 
L 171.651564 84.358818 
L 171.976544 86.863671 
L 172.301523 86.826774 
L 172.626503 99.764282 
L 173.276462 90.048773 
L 173.601441 87.495414 
L 173.926421 99.373519 
L 174.57638 103.161503 
L 174.90136 103.06661 
L 175.551319 99.833636 
L 175.876298 104.241276 
L 176.201278 99.771175 
L 176.526257 93.500065 
L 176.851237 92.348158 
L 177.176216 86.114817 
L 177.826175 96.258775 
L 178.476134 90.449943 
L 178.801114 97.32068 
L 179.776052 83.444378 
L 180.101032 76.474878 
L 180.426011 78.173834 
L 180.750991 81.32453 
L 181.075971 81.263874 
L 181.40095 81.026073 
L 181.72593 84.360142 
L 182.050909 85.979356 
L 182.375889 86.907993 
L 182.700868 84.295877 
L 183.025848 83.891123 
L 183.350827 87.416189 
L 183.675807 86.899367 
L 184.000786 91.20718 
L 184.325766 86.499574 
L 184.650745 87.831121 
L 184.975725 105.763828 
L 185.300704 108.930762 
L 185.625684 115.964324 
L 185.950663 109.391137 
L 186.275643 107.05024 
L 186.600622 150.663784 
L 187.250581 142.028025 
L 187.575561 134.023652 
L 187.900541 131.015394 
L 188.22552 133.69536 
L 189.525438 118.576964 
L 189.850418 109.94335 
L 190.500377 129.642398 
L 190.825356 125.165559 
L 191.150336 124.863408 
L 191.475315 119.496043 
L 191.800295 120.083766 
L 192.125274 121.198422 
L 192.775233 112.444404 
L 193.100213 108.063282 
L 193.425192 99.074651 
L 193.750172 101.601469 
L 194.075152 103.080054 
L 194.400131 105.183816 
L 194.725111 99.491872 
L 195.05009 101.219385 
L 195.37507 104.61399 
L 195.700049 105.000427 
L 196.025029 97.164722 
L 196.350008 93.687443 
L 196.674988 99.773162 
L 196.999967 101.445779 
L 197.324947 101.50507 
L 197.649926 94.113623 
L 197.974906 91.614824 
L 198.624865 96.511421 
L 198.949844 104.369381 
L 199.274824 102.638642 
L 199.599803 109.150973 
L 199.924783 106.706265 
L 200.249762 112.826276 
L 200.574742 113.66284 
L 200.899722 103.786089 
L 201.224701 100.514433 
L 201.549681 102.545512 
L 201.87466 102.413897 
L 202.19964 99.236485 
L 202.524619 103.179671 
L 202.849599 96.949842 
L 203.174578 105.047097 
L 203.499558 109.272546 
L 203.824537 107.584793 
L 204.149517 128.655255 
L 205.124455 116.316584 
L 205.449435 125.190804 
L 205.774414 127.075888 
L 206.099394 132.541421 
L 206.424373 127.748508 
L 206.749353 127.283028 
L 207.399312 142.977546 
L 207.724292 139.556408 
L 208.049271 133.611656 
L 208.374251 130.988489 
L 208.69923 123.48397 
L 209.02421 127.836261 
L 209.349189 136.332128 
L 209.999148 125.26092 
L 210.649107 118.306893 
L 210.974087 124.745154 
L 211.299066 120.594511 
L 211.624046 121.646102 
L 211.949025 119.55732 
L 212.274005 113.995257 
L 212.598984 118.740724 
L 212.923964 119.59695 
L 213.248943 116.819848 
L 213.898903 100.784038 
L 214.223882 95.367692 
L 214.548862 96.516344 
L 214.873841 88.944829 
L 215.198821 91.564154 
L 215.5238 92.617469 
L 215.84878 84.321507 
L 216.173759 88.079616 
L 216.498739 89.847751 
L 216.823718 97.361749 
L 217.148698 94.109677 
L 217.473677 93.389908 
L 217.798657 102.576518 
L 218.123636 101.925751 
L 218.448616 101.809124 
L 219.098575 109.124114 
L 219.423554 107.954355 
L 219.748534 104.030527 
L 220.073514 101.744561 
L 220.398493 104.37365 
L 220.723473 110.74719 
L 221.048452 111.561422 
L 221.698411 96.576207 
L 222.34837 110.716961 
L 222.67335 113.361324 
L 222.998329 113.638187 
L 223.323309 107.543864 
L 223.648288 107.787715 
L 223.973268 107.514761 
L 224.298247 101.747729 
L 224.623227 111.258227 
L 224.948206 107.745424 
L 225.598165 93.24311 
L 225.923145 92.160095 
L 226.248124 99.425064 
L 226.573104 95.049726 
L 226.898084 100.905822 
L 227.223063 109.636789 
L 227.548043 105.933352 
L 227.873022 104.776989 
L 228.198002 95.774081 
L 228.522981 102.122267 
L 228.847961 102.321969 
L 229.17294 102.79315 
L 229.49792 101.531511 
L 229.822899 101.248482 
L 230.147879 104.18565 
L 230.472858 102.437864 
L 230.797838 113.875406 
L 231.122817 106.246965 
L 231.447797 104.203218 
L 231.772776 99.688701 
L 232.097756 101.89929 
L 232.422735 93.098423 
L 233.397674 85.091127 
L 233.722654 79.747809 
L 234.047633 80.740532 
L 234.372613 92.945527 
L 234.697592 94.908837 
L 235.022572 102.751272 
L 235.672531 110.373983 
L 235.99751 109.07314 
L 236.972449 90.248866 
L 237.297428 86.828574 
L 237.622408 89.480207 
L 237.947387 90.537303 
L 238.272367 86.91971 
L 238.597346 85.491064 
L 238.922326 92.72491 
L 239.247305 95.857345 
L 239.572285 91.722782 
L 239.897265 95.008362 
L 240.222244 96.841698 
L 240.547224 85.556954 
L 240.872203 82.516148 
L 241.197183 104.843598 
L 241.522162 102.300823 
L 241.847142 102.115419 
L 242.172121 102.603647 
L 242.497101 102.513412 
L 242.82208 103.740964 
L 243.14706 104.305735 
L 243.472039 101.090551 
L 243.797019 106.369622 
L 244.121998 102.114122 
L 244.446978 107.758711 
L 244.771957 105.032203 
L 245.096937 107.444277 
L 245.421916 99.968851 
L 245.746896 97.435603 
L 246.071876 97.67217 
L 246.396855 99.001856 
L 246.721835 97.992273 
L 247.046814 98.62627 
L 247.371794 109.9891 
L 247.696773 101.051157 
L 248.346732 107.685154 
L 248.996691 89.474204 
L 249.64665 95.273419 
L 249.97163 90.96903 
L 250.296609 96.537097 
L 250.621589 99.087037 
L 251.271548 96.101189 
L 251.596527 95.032433 
L 251.921507 89.573274 
L 252.246486 99.030472 
L 252.571466 100.71997 
L 253.221425 108.336695 
L 253.546405 105.01822 
L 253.871384 110.617491 
L 254.196364 101.309052 
L 254.521343 103.161302 
L 254.846323 97.27639 
L 255.496282 101.453971 
L 255.821261 105.445639 
L 256.146241 107.833517 
L 256.47122 115.579852 
L 256.7962 115.346147 
L 257.121179 107.356397 
L 257.446159 112.757352 
L 257.771138 110.396284 
L 258.096118 105.387934 
L 258.421097 114.962345 
L 258.746077 108.39401 
L 259.071057 104.503105 
L 259.396036 112.62846 
L 260.370975 97.060468 
L 260.695954 92.166883 
L 261.020934 96.229853 
L 261.345913 112.027583 
L 261.670893 111.541837 
L 261.995872 107.67647 
L 262.320852 105.769195 
L 262.645831 113.114979 
L 263.29579 102.281157 
L 264.270729 91.351558 
L 264.595708 96.467736 
L 264.920688 89.115993 
L 265.245667 91.988577 
L 265.570647 85.836021 
L 265.895627 93.347076 
L 266.545586 83.188237 
L 266.870565 80.320883 
L 267.195545 83.54372 
L 267.845504 71.342907 
L 268.820442 88.975997 
L 269.145422 80.496723 
L 269.470401 84.811688 
L 269.795381 82.430909 
L 270.44534 75.211831 
L 270.770319 81.505118 
L 271.095299 83.255599 
L 271.745258 89.190687 
L 272.070238 91.482997 
L 272.395217 101.726769 
L 272.720197 101.06863 
L 273.370156 104.65661 
L 274.020115 116.173201 
L 274.345094 107.892045 
L 274.670074 110.840322 
L 274.995053 109.363627 
L 275.320033 107.128827 
L 275.969992 86.265478 
L 276.294971 91.549765 
L 276.619951 91.548432 
L 276.94493 89.814491 
L 277.919869 79.028806 
L 278.244848 90.756492 
L 278.569828 84.585278 
L 278.894808 95.166066 
L 279.219787 91.247865 
L 279.544767 90.11677 
L 280.194726 103.438567 
L 280.519705 103.759025 
L 280.844685 98.968232 
L 281.169664 97.057873 
L 281.494644 90.670687 
L 281.819623 87.96785 
L 282.144603 92.768374 
L 282.469582 90.582827 
L 282.794562 92.601864 
L 283.119541 108.381466 
L 283.444521 109.342565 
L 283.7695 107.806011 
L 284.419459 96.930607 
L 284.744439 93.255472 
L 285.069419 90.887763 
L 285.394398 86.083871 
L 285.719378 87.397709 
L 286.044357 98.995983 
L 286.369337 100.952028 
L 286.694316 107.616228 
L 287.019296 106.132134 
L 287.344275 101.365649 
L 287.669255 93.565083 
L 287.994234 91.232369 
L 288.319214 84.561748 
L 288.644193 83.745415 
L 288.969173 86.414976 
L 289.294152 90.302411 
L 289.619132 90.492046 
L 289.944111 100.277581 
L 290.269091 90.878056 
L 290.59407 93.129681 
L 290.91905 86.339748 
L 291.244029 87.732744 
L 291.569009 100.608892 
L 291.893989 104.011619 
L 292.218968 96.629248 
L 292.543948 86.250005 
L 292.868927 86.398101 
L 293.193907 94.631083 
L 293.518886 107.410657 
L 293.843866 105.686542 
L 294.168845 99.2023 
L 294.493825 106.655151 
L 294.818804 104.372548 
L 295.143784 97.247841 
L 295.468763 94.657018 
L 296.118722 100.627122 
L 296.443702 107.326142 
L 296.768681 101.298234 
L 297.093661 104.134765 
L 297.41864 109.779881 
L 297.74362 106.468311 
L 298.0686 107.453528 
L 298.718559 96.74497 
L 299.043538 105.622559 
L 299.368518 96.520912 
L 299.693497 96.361029 
L 300.018477 100.334557 
L 300.343456 93.351188 
L 300.668436 95.782017 
L 300.993415 93.981234 
L 301.643374 108.774288 
L 301.968354 102.19551 
L 302.293333 106.208577 
L 302.618313 105.640381 
L 302.943292 114.851653 
L 303.593251 107.438022 
L 303.918231 111.07104 
L 304.89317 94.59971 
L 305.218149 97.090137 
L 305.543129 97.990878 
L 305.868108 98.254079 
L 306.193088 103.064526 
L 306.518067 109.946092 
L 306.843047 106.902117 
L 307.168026 101.701149 
L 307.493006 100.524927 
L 307.817985 104.018869 
L 308.142965 98.62114 
L 308.467944 107.697964 
L 308.792924 109.603999 
L 309.117903 100.710746 
L 309.442883 106.5062 
L 309.767862 107.617478 
L 310.092842 106.141851 
L 310.417821 107.033493 
L 311.067781 118.268855 
L 311.71774 107.986617 
L 312.042719 107.760962 
L 312.367699 101.03877 
L 312.692678 100.125009 
L 313.017658 97.661536 
L 313.342637 98.787092 
L 313.667617 98.812366 
L 313.992596 93.657784 
L 314.317576 96.495481 
L 314.642555 103.859315 
L 314.967535 98.719719 
L 315.292514 99.911696 
L 315.617494 91.754833 
L 316.267453 90.213433 
L 316.592432 86.922394 
L 316.917412 91.50061 
L 317.242391 104.343293 
L 317.567371 100.102774 
L 317.892351 100.555992 
L 318.21733 98.330016 
L 318.54231 93.368196 
L 318.867289 113.928003 
L 319.192269 108.743644 
L 319.517248 105.521133 
L 319.842228 106.081207 
L 320.167207 109.010219 
L 320.492187 105.810028 
L 320.817166 100.753 
L 321.142146 103.27085 
L 321.467125 95.708324 
L 321.792105 94.469761 
L 322.117084 85.818986 
L 322.767043 77.051261 
L 323.092023 79.338832 
L 323.417002 79.476708 
L 323.741982 80.829453 
L 324.066962 76.437531 
L 324.391941 90.62323 
L 324.716921 88.344158 
L 325.0419 82.838137 
L 325.36688 83.854369 
L 325.691859 83.696567 
L 326.016839 91.979641 
L 326.341818 91.351014 
L 326.666798 91.232663 
L 326.991777 108.933615 
L 327.316757 98.207362 
L 327.641736 93.655735 
L 327.966716 92.031994 
L 328.291695 88.156834 
L 328.616675 105.971938 
L 328.941654 104.776335 
L 329.266634 97.23898 
L 329.591613 102.329974 
L 329.916593 98.288848 
L 330.241572 91.833202 
L 330.891532 99.832746 
L 331.216511 97.837138 
L 331.541491 102.415159 
L 331.86647 98.8562 
L 332.19145 100.203087 
L 332.841409 91.744896 
L 333.166388 101.270523 
L 333.491368 103.838738 
L 333.816347 101.397786 
L 334.141327 105.60007 
L 334.466306 98.125287 
L 334.791286 109.700522 
L 335.116265 116.722057 
L 335.441245 115.092819 
L 335.766224 103.983522 
L 336.091204 103.76107 
L 336.416183 102.839419 
L 337.066143 121.348826 
L 337.391122 123.844439 
L 337.716102 128.225012 
L 338.041081 126.484625 
L 338.366061 123.74598 
L 338.69104 116.02888 
L 339.01602 112.024145 
L 339.340999 111.263035 
L 339.665979 115.033608 
L 339.990958 109.533263 
L 340.315938 106.947656 
L 340.640917 98.902712 
L 340.965897 100.961603 
L 341.615856 91.158809 
L 342.265815 93.332834 
L 342.590794 94.426082 
L 342.915774 95.10266 
L 343.240753 91.279453 
L 343.565733 97.479514 
L 343.890713 94.602967 
L 344.215692 89.732798 
L 344.540672 104.160044 
L 344.865651 101.587863 
L 345.190631 104.182453 
L 345.51561 99.511439 
L 345.84059 106.735488 
L 346.165569 102.021901 
L 346.490549 91.892385 
L 346.815528 97.191519 
L 347.140508 91.536868 
L 347.465487 92.600236 
L 347.790467 90.887509 
L 348.115446 97.776823 
L 348.440426 93.517717 
L 349.415364 101.470135 
L 349.740344 100.747828 
L 350.065324 97.52781 
L 350.390303 96.203088 
L 351.040262 113.070517 
L 351.365242 108.890088 
L 351.690221 112.520357 
L 352.015201 107.991278 
L 352.34018 107.856811 
L 352.66516 106.466025 
L 352.990139 101.134737 
L 353.315119 92.647614 
L 353.640098 102.772922 
L 353.965078 103.893877 
L 354.290057 95.903364 
L 354.615037 98.537798 
L 354.940016 103.417652 
L 355.264996 103.193461 
L 355.589975 106.143344 
L 355.914955 110.902293 
L 356.239934 113.724263 
L 356.564914 119.341771 
L 356.889894 118.551234 
L 357.214873 116.708468 
L 357.864832 105.864957 
L 358.189812 116.610989 
L 358.514791 108.938311 
L 358.839771 104.685284 
L 359.16475 103.009283 
L 359.48973 106.826401 
L 359.814709 112.555625 
L 360.139689 113.656238 
L 360.789648 110.72939 
L 361.114627 107.109089 
L 361.439607 105.985363 
L 361.764586 101.252517 
L 362.089566 111.60687 
L 362.414545 106.489767 
L 362.739525 103.654618 
L 363.389484 100.383391 
L 363.714464 102.509729 
L 364.039443 99.752886 
L 364.364423 103.032539 
L 364.689402 104.214873 
L 365.014382 96.871264 
L 365.664341 100.055025 
L 365.98932 106.135727 
L 366.3143 102.160676 
L 366.639279 104.850313 
L 366.964259 114.845594 
L 367.289238 108.650886 
L 367.939197 101.656892 
L 368.589156 88.13808 
L 368.914136 87.409367 
L 369.239115 88.919544 
L 369.564095 85.952272 
L 369.889075 89.610879 
L 370.214054 96.983331 
L 370.539034 95.945981 
L 370.864013 93.938866 
L 371.188993 88.081017 
L 371.513972 95.359831 
L 371.838952 95.688992 
L 372.163931 93.783081 
L 372.488911 100.759542 
L 372.81389 92.902259 
L 373.13887 94.641864 
L 373.463849 98.867806 
L 373.788829 93.249734 
L 374.113808 94.331109 
L 374.438788 100.493659 
L 374.763767 96.897478 
L 375.088747 97.023529 
L 375.413726 113.758991 
L 375.738706 110.326572 
L 376.063686 109.729345 
L 376.388665 115.31235 
L 376.713645 113.632505 
L 377.038624 107.057864 
L 377.363604 110.423273 
L 377.688583 105.102922 
L 378.013563 102.789978 
L 378.338542 109.582219 
L 378.663522 107.680504 
L 378.988501 100.507368 
L 379.313481 101.317671 
L 379.63846 110.115101 
L 379.96344 106.693978 
L 380.288419 99.547965 
L 380.613399 99.7187 
L 380.938378 99.585931 
L 381.588337 86.69853 
L 381.913317 94.932877 
L 382.238296 95.053647 
L 382.563276 96.978725 
L 382.888256 85.386175 
L 383.213235 88.100371 
L 383.538215 84.107026 
L 383.863194 85.365975 
L 384.188174 96.352837 
L 384.513153 92.379679 
L 384.838133 86.594025 
L 385.163112 86.536595 
L 385.488092 108.309022 
L 385.813071 103.665072 
L 386.138051 103.875531 
L 386.46303 103.446978 
L 386.78801 104.143344 
L 387.112989 101.264754 
L 387.762948 114.768355 
L 388.087928 112.880621 
L 388.412907 113.388814 
L 389.062867 102.452267 
L 389.387846 94.377949 
L 389.712826 102.370817 
L 390.037805 95.613824 
L 390.362785 99.221183 
L 391.012744 95.227804 
L 391.337723 102.338308 
L 391.662703 105.631502 
L 391.987682 106.866903 
L 392.312662 107.371539 
L 392.637641 98.533857 
L 393.2876 109.656795 
L 393.937559 104.500575 
L 394.262539 96.329221 
L 394.587518 94.169045 
L 394.912498 96.710528 
L 395.237477 97.772404 
L 395.562457 104.938127 
L 396.212416 111.778108 
L 396.537396 106.633553 
L 397.187355 118.374211 
L 397.512334 115.552504 
L 397.837314 127.541765 
L 398.487273 120.017348 
L 398.487273 120.017348 
" style="fill:none;stroke:#1f77b4;stroke-linecap:square;stroke-width:1.5;"/>
   </g>
   <g id="line2d_14">
    <path clip-path="url(#p2f4fa0941c)" d="M 73.832727 289.445521 
L 79.0324 289.630255 
L 81.957215 289.94108 
L 84.232072 290.409132 
L 86.831908 291.072415 
L 87.806847 291.316794 
L 89.431744 291.66018 
L 90.406683 291.700351 
L 91.056642 291.782501 
L 92.35656 291.937463 
L 93.331499 291.948893 
L 94.631417 292.133399 
L 95.606355 292.107898 
L 96.256314 292.197562 
L 96.581294 292.009706 
L 99.18113 292.114935 
L 99.831089 291.980366 
L 103.080885 292.128636 
L 103.405864 292.414615 
L 107.630598 292.022313 
L 107.955577 292.120734 
L 108.930516 292.098356 
L 109.255495 292.162425 
L 109.580475 292.050718 
L 112.180311 292.216506 
L 112.505291 292.11103 
L 114.780147 292.149314 
L 115.105127 292.074766 
L 116.080066 292.103307 
L 116.730025 292.070479 
L 126.154431 292.58911 
L 126.80439 292.655452 
L 128.104308 292.451704 
L 129.079247 292.511346 
L 129.729206 292.530991 
L 131.029124 292.450239 
L 131.354103 292.279217 
L 131.679083 292.357245 
L 132.004062 292.250362 
L 132.654021 292.289251 
L 133.30398 292.136518 
L 133.953939 292.233217 
L 134.603898 292.133753 
L 135.253857 292.201381 
L 135.578837 292.098458 
L 136.228796 292.077903 
L 136.553776 291.981938 
L 137.203735 292.107809 
L 137.853694 292.136904 
L 139.478591 292.377332 
L 140.778509 292.443681 
L 141.428468 292.332522 
L 142.728387 292.355976 
L 143.053366 292.171326 
L 145.003243 292.385917 
L 145.328223 292.338442 
L 146.303161 292.426124 
L 147.603079 292.563265 
L 148.253038 292.452154 
L 148.902998 292.270918 
L 151.502834 292.46124 
L 151.827813 292.374987 
L 153.452711 292.657483 
L 153.77769 292.671279 
L 154.10267 292.502736 
L 154.427649 292.618552 
L 155.727568 292.707192 
L 156.377527 292.817147 
L 156.702506 292.917355 
L 158.327404 292.650569 
L 159.627322 292.783096 
L 161.252219 292.651993 
L 162.227158 292.677159 
L 162.552138 292.529407 
L 164.502015 292.670649 
L 164.826994 292.589527 
L 167.42683 292.810947 
L 167.75181 292.719187 
L 168.726749 292.828028 
L 169.051728 292.666236 
L 170.351646 292.74013 
L 171.651564 292.948929 
L 173.276462 292.901295 
L 173.601441 292.933254 
L 174.2514 292.782835 
L 175.876298 292.773894 
L 177.176216 292.999049 
L 178.151155 292.925365 
L 178.476134 292.963665 
L 178.801114 292.889212 
L 180.750991 293.099536 
L 183.675807 293.072458 
L 184.325766 293.081116 
L 184.650745 293.06968 
L 184.975725 292.859546 
L 185.950663 292.828359 
L 186.275643 292.8593 
L 186.600622 292.282711 
L 189.850418 292.8404 
L 190.500377 292.602915 
L 191.800295 292.743443 
L 192.450254 292.801813 
L 194.075152 292.986608 
L 195.700049 292.986412 
L 196.350008 293.132599 
L 196.999967 293.049893 
L 197.649926 293.151055 
L 198.299885 293.161805 
L 200.574742 292.941672 
L 201.224701 293.118271 
L 202.524619 293.103188 
L 202.849599 293.183343 
L 203.499558 293.03819 
L 203.824537 293.064405 
L 204.149517 292.803041 
L 205.124455 292.981665 
L 205.774414 292.844822 
L 206.099394 292.770914 
L 206.749353 292.846336 
L 207.399312 292.636053 
L 209.02421 292.86711 
L 209.349189 292.751392 
L 210.649107 293.013901 
L 210.974087 292.9294 
L 212.274005 293.091576 
L 212.923964 293.027272 
L 213.573923 293.196464 
L 214.223882 293.3725 
L 214.548862 293.361943 
L 214.873841 293.466092 
L 215.5238 293.426464 
L 215.84878 293.535871 
L 217.148698 293.41553 
L 217.473677 293.429423 
L 217.798657 293.312381 
L 218.773595 293.276655 
L 219.423554 293.26135 
L 220.398493 293.320183 
L 221.048452 293.221227 
L 221.698411 293.42777 
L 222.67335 293.216139 
L 223.973268 293.315739 
L 224.298247 293.398956 
L 224.623227 293.27347 
L 226.573104 293.522065 
L 227.548043 293.381687 
L 230.472858 293.471794 
L 230.797838 293.311825 
L 231.447797 293.461341 
L 233.072695 293.720287 
L 234.047633 293.821683 
L 234.372613 293.652532 
L 235.022572 293.51804 
L 235.99751 293.444448 
L 237.297428 293.777166 
L 238.272367 293.790476 
L 238.597346 293.815259 
L 239.247305 293.674114 
L 239.897265 293.694274 
L 240.222244 293.671862 
L 240.872203 293.882075 
L 241.197183 293.564129 
L 242.497101 293.619239 
L 245.096937 293.587717 
L 245.746896 293.74302 
L 247.046814 293.740231 
L 247.371794 293.579525 
L 247.696773 293.71591 
L 248.346732 293.623622 
L 248.996691 293.896894 
L 249.64665 293.820954 
L 249.97163 293.888905 
L 250.621589 293.778706 
L 251.921507 293.931355 
L 252.571466 293.777125 
L 253.871384 293.639439 
L 254.196364 293.783879 
L 254.521343 293.760655 
L 254.846323 293.855008 
L 256.146241 293.716605 
L 256.47122 293.603484 
L 256.7962 293.612239 
L 257.121179 293.74124 
L 257.771138 293.703095 
L 258.096118 293.785714 
L 258.421097 293.63291 
L 259.071057 293.803228 
L 259.396036 293.682442 
L 260.695954 294.011601 
L 261.020934 293.955981 
L 261.345913 293.7163 
L 262.970811 293.801846 
L 264.270729 294.065055 
L 264.595708 293.983713 
L 264.920688 294.098985 
L 265.245667 294.056886 
L 265.570647 294.137723 
L 265.895627 294.027901 
L 266.870565 294.235277 
L 267.195545 294.190736 
L 267.845504 294.380429 
L 268.820442 294.120416 
L 269.145422 294.25225 
L 269.795381 294.231859 
L 270.44534 294.350748 
L 271.095299 294.232022 
L 274.020115 293.75503 
L 274.345094 293.891013 
L 274.995053 293.874862 
L 275.645012 294.068208 
L 275.969992 294.238902 
L 276.619951 294.160501 
L 277.919869 294.364153 
L 278.244848 294.18846 
L 278.569828 294.287548 
L 278.894808 294.11331 
L 279.544767 294.201293 
L 280.519705 293.993722 
L 281.819623 294.262211 
L 282.469582 294.227677 
L 282.794562 294.194618 
L 283.119541 293.940174 
L 283.7695 293.957376 
L 285.069419 294.246605 
L 285.719378 294.310827 
L 286.044357 294.133559 
L 287.344275 294.101833 
L 288.319214 294.378607 
L 288.969173 294.355476 
L 289.944111 294.144895 
L 290.269091 294.288033 
L 290.59407 294.256036 
L 290.91905 294.366959 
L 291.244029 294.349822 
L 291.569009 294.150978 
L 291.893989 294.103154 
L 292.868927 294.398768 
L 293.843866 294.096376 
L 294.168845 294.208397 
L 294.818804 294.067571 
L 295.468763 294.235073 
L 297.41864 294.004985 
L 298.718559 294.236541 
L 299.043538 294.091551 
L 299.368518 294.243222 
L 301.318395 294.197609 
L 301.643374 294.063564 
L 301.968354 294.177417 
L 303.268272 294.046911 
L 303.593251 294.116674 
L 303.918231 294.058598 
L 304.89317 294.339841 
L 306.843047 294.154161 
L 307.493006 294.267847 
L 307.817985 294.213553 
L 308.142965 294.308581 
L 308.792924 294.120372 
L 309.117903 294.272345 
L 309.767862 294.166298 
L 310.417821 294.186389 
L 311.067781 293.999424 
L 312.367699 294.310991 
L 314.317576 294.390653 
L 314.642555 294.270668 
L 315.617494 294.492994 
L 316.917412 294.514371 
L 317.242391 294.303248 
L 318.54231 294.509999 
L 318.867289 294.153241 
L 319.517248 294.308398 
L 320.492187 294.314167 
L 320.817166 294.403122 
L 321.142146 294.365023 
L 322.117084 294.668595 
L 323.092023 294.791589 
L 324.066962 294.858835 
L 324.391941 294.617436 
L 325.691859 294.749635 
L 326.016839 294.610023 
L 326.666798 294.631402 
L 326.991777 294.326278 
L 327.641736 294.600721 
L 328.291695 294.703026 
L 328.616675 294.399108 
L 329.916593 294.551442 
L 330.241572 294.666923 
L 330.891532 294.533842 
L 331.86647 294.567043 
L 332.516429 294.637688 
L 332.841409 294.703214 
L 333.491368 294.516651 
L 333.816347 294.564435 
L 334.141327 294.49528 
L 334.466306 294.628646 
L 335.116265 294.298332 
L 335.441245 294.333432 
L 335.766224 294.539974 
L 336.416183 294.57019 
L 337.066143 294.223895 
L 338.041081 294.141602 
L 338.69104 294.344291 
L 339.340999 294.442768 
L 339.665979 294.379035 
L 340.640917 294.682154 
L 341.290876 294.732723 
L 341.615856 294.836135 
L 343.890713 294.759361 
L 344.215692 294.845881 
L 344.540672 294.595005 
L 345.51561 294.689141 
L 345.84059 294.563713 
L 347.140508 294.849985 
L 350.715283 294.669405 
L 351.040262 294.517222 
L 351.365242 294.600457 
L 351.690221 294.539267 
L 352.34018 294.633604 
L 352.990139 294.768464 
L 353.315119 294.923141 
L 353.640098 294.751107 
L 353.965078 294.735972 
L 354.290057 294.887902 
L 357.214873 294.535606 
L 357.864832 294.751196 
L 358.189812 294.550132 
L 358.839771 294.784034 
L 359.48973 294.744121 
L 360.139689 294.622357 
L 361.764586 294.883462 
L 362.089566 294.689941 
L 363.064505 294.887917 
L 364.039443 294.941294 
L 364.689402 294.865587 
L 365.014382 295.009012 
L 366.639279 294.878895 
L 366.964259 294.690223 
L 368.589156 295.233024 
L 369.889075 295.216802 
L 370.214054 295.078999 
L 372.163931 295.15957 
L 372.488911 295.03014 
L 372.81389 295.185407 
L 374.438788 295.057439 
L 375.088747 295.134914 
L 375.413726 294.811829 
L 376.063686 294.897055 
L 376.388665 294.790743 
L 379.313481 295.094655 
L 379.63846 294.919743 
L 381.588337 295.398582 
L 381.913317 295.245643 
L 382.563276 295.22286 
L 382.888256 295.45609 
L 383.213235 295.406609 
L 383.863194 295.467991 
L 384.188174 295.252952 
L 385.163112 295.455861 
L 385.488092 295.042506 
L 386.138051 295.1328 
L 387.112989 295.200707 
L 387.762948 294.921092 
L 388.737887 295.070985 
L 389.387846 295.344074 
L 389.712826 295.19093 
L 390.037805 295.328705 
L 390.362785 295.262642 
L 391.012744 295.34812 
L 391.662703 295.158164 
L 392.312662 295.132056 
L 392.637641 295.313365 
L 393.2876 295.089339 
L 395.237477 295.359588 
L 395.887437 295.144592 
L 396.212416 295.069248 
L 396.537396 295.177673 
L 397.187355 294.935845 
L 397.512334 294.999226 
L 397.837314 294.753337 
L 398.487273 294.922698 
L 398.487273 294.922698 
" style="fill:none;stroke:#ff7f0e;stroke-linecap:square;stroke-width:1.5;"/>
   </g>
   <g id="patch_3">
    <path d="M 57.6 307.584 
L 57.6 41.472 
" style="fill:none;stroke:#000000;stroke-linecap:square;stroke-linejoin:miter;stroke-width:0.8;"/>
   </g>
   <g id="patch_4">
    <path d="M 414.72 307.584 
L 414.72 41.472 
" style="fill:none;stroke:#000000;stroke-linecap:square;stroke-linejoin:miter;stroke-width:0.8;"/>
   </g>
   <g id="patch_5">
    <path d="M 57.6 307.584 
L 414.72 307.584 
" style="fill:none;stroke:#000000;stroke-linecap:square;stroke-linejoin:miter;stroke-width:0.8;"/>
   </g>
   <g id="patch_6">
    <path d="M 57.6 41.472 
L 414.72 41.472 
" style="fill:none;stroke:#000000;stroke-linecap:square;stroke-linejoin:miter;stroke-width:0.8;"/>
   </g>
  </g>
 </g>
 <defs>
  <clipPath id="p2f4fa0941c">
   <rect height="266.112" width="357.12" x="57.6" y="41.472"/>
  </clipPath>
 </defs>
</svg>
