<?xml version="1.0" encoding="utf-8" standalone="no"?>
<!DOCTYPE svg PUBLIC "-//W3C//DTD SVG 1.1//EN"
  "http://www.w3.org/Graphics/SVG/1.1/DTD/svg11.dtd">
<!-- Created with matplotlib (https://matplotlib.org/) -->
<svg height="345.6pt" version="1.1" viewBox="0 0 460.8 345.6" width="460.8pt" xmlns="http://www.w3.org/2000/svg" xmlns:xlink="http://www.w3.org/1999/xlink">
 <metadata>
  <rdf:RDF xmlns:cc="http://creativecommons.org/ns#" xmlns:dc="http://purl.org/dc/elements/1.1/" xmlns:rdf="http://www.w3.org/1999/02/22-rdf-syntax-ns#">
   <cc:Work>
    <dc:type rdf:resource="http://purl.org/dc/dcmitype/StillImage"/>
    <dc:date>2020-10-03T18:09:55.980843</dc:date>
    <dc:format>image/svg+xml</dc:format>
    <dc:creator>
     <cc:Agent>
      <dc:title>Matplotlib v3.3.2, https://matplotlib.org/</dc:title>
     </cc:Agent>
    </dc:creator>
   </cc:Work>
  </rdf:RDF>
 </metadata>
 <defs>
  <style type="text/css">*{stroke-linecap:butt;stroke-linejoin:round;}</style>
 </defs>
 <g id="figure_1">
  <g id="patch_1">
   <path d="M 0 345.6 
L 460.8 345.6 
L 460.8 0 
L 0 0 
z
" style="fill:#ffffff;"/>
  </g>
  <g id="axes_1">
   <g id="patch_2">
    <path d="M 57.6 307.584 
L 414.72 307.584 
L 414.72 41.472 
L 57.6 41.472 
z
" style="fill:#ffffff;"/>
   </g>
   <g id="matplotlib.axis_1">
    <g id="xtick_1">
     <g id="line2d_1">
      <defs>
       <path d="M 0 0 
L 0 3.5 
" id="ma00f87d19e" style="stroke:#000000;stroke-width:0.8;"/>
      </defs>
      <g>
       <use style="stroke:#000000;stroke-width:0.8;" x="73.832727" xlink:href="#ma00f87d19e" y="307.584"/>
      </g>
     </g>
     <g id="text_1">
      <!-- 0 -->
      <g transform="translate(70.651477 322.182437)scale(0.1 -0.1)">
       <defs>
        <path d="M 31.78125 66.40625 
Q 24.171875 66.40625 20.328125 58.90625 
Q 16.5 51.421875 16.5 36.375 
Q 16.5 21.390625 20.328125 13.890625 
Q 24.171875 6.390625 31.78125 6.390625 
Q 39.453125 6.390625 43.28125 13.890625 
Q 47.125 21.390625 47.125 36.375 
Q 47.125 51.421875 43.28125 58.90625 
Q 39.453125 66.40625 31.78125 66.40625 
z
M 31.78125 74.21875 
Q 44.046875 74.21875 50.515625 64.515625 
Q 56.984375 54.828125 56.984375 36.375 
Q 56.984375 17.96875 50.515625 8.265625 
Q 44.046875 -1.421875 31.78125 -1.421875 
Q 19.53125 -1.421875 13.0625 8.265625 
Q 6.59375 17.96875 6.59375 36.375 
Q 6.59375 54.828125 13.0625 64.515625 
Q 19.53125 74.21875 31.78125 74.21875 
z
" id="DejaVuSans-48"/>
       </defs>
       <use xlink:href="#DejaVuSans-48"/>
      </g>
     </g>
    </g>
    <g id="xtick_2">
     <g id="line2d_2">
      <g>
       <use style="stroke:#000000;stroke-width:0.8;" x="138.828632" xlink:href="#ma00f87d19e" y="307.584"/>
      </g>
     </g>
     <g id="text_2">
      <!-- 20 -->
      <g transform="translate(132.466132 322.182437)scale(0.1 -0.1)">
       <defs>
        <path d="M 19.1875 8.296875 
L 53.609375 8.296875 
L 53.609375 0 
L 7.328125 0 
L 7.328125 8.296875 
Q 12.9375 14.109375 22.625 23.890625 
Q 32.328125 33.6875 34.8125 36.53125 
Q 39.546875 41.84375 41.421875 45.53125 
Q 43.3125 49.21875 43.3125 52.78125 
Q 43.3125 58.59375 39.234375 62.25 
Q 35.15625 65.921875 28.609375 65.921875 
Q 23.96875 65.921875 18.8125 64.3125 
Q 13.671875 62.703125 7.8125 59.421875 
L 7.8125 69.390625 
Q 13.765625 71.78125 18.9375 73 
Q 24.125 74.21875 28.421875 74.21875 
Q 39.75 74.21875 46.484375 68.546875 
Q 53.21875 62.890625 53.21875 53.421875 
Q 53.21875 48.921875 51.53125 44.890625 
Q 49.859375 40.875 45.40625 35.40625 
Q 44.1875 33.984375 37.640625 27.21875 
Q 31.109375 20.453125 19.1875 8.296875 
z
" id="DejaVuSans-50"/>
       </defs>
       <use xlink:href="#DejaVuSans-50"/>
       <use x="63.623047" xlink:href="#DejaVuSans-48"/>
      </g>
     </g>
    </g>
    <g id="xtick_3">
     <g id="line2d_3">
      <g>
       <use style="stroke:#000000;stroke-width:0.8;" x="203.824537" xlink:href="#ma00f87d19e" y="307.584"/>
      </g>
     </g>
     <g id="text_3">
      <!-- 40 -->
      <g transform="translate(197.462037 322.182437)scale(0.1 -0.1)">
       <defs>
        <path d="M 37.796875 64.3125 
L 12.890625 25.390625 
L 37.796875 25.390625 
z
M 35.203125 72.90625 
L 47.609375 72.90625 
L 47.609375 25.390625 
L 58.015625 25.390625 
L 58.015625 17.1875 
L 47.609375 17.1875 
L 47.609375 0 
L 37.796875 0 
L 37.796875 17.1875 
L 4.890625 17.1875 
L 4.890625 26.703125 
z
" id="DejaVuSans-52"/>
       </defs>
       <use xlink:href="#DejaVuSans-52"/>
       <use x="63.623047" xlink:href="#DejaVuSans-48"/>
      </g>
     </g>
    </g>
    <g id="xtick_4">
     <g id="line2d_4">
      <g>
       <use style="stroke:#000000;stroke-width:0.8;" x="268.820442" xlink:href="#ma00f87d19e" y="307.584"/>
      </g>
     </g>
     <g id="text_4">
      <!-- 60 -->
      <g transform="translate(262.457942 322.182437)scale(0.1 -0.1)">
       <defs>
        <path d="M 33.015625 40.375 
Q 26.375 40.375 22.484375 35.828125 
Q 18.609375 31.296875 18.609375 23.390625 
Q 18.609375 15.53125 22.484375 10.953125 
Q 26.375 6.390625 33.015625 6.390625 
Q 39.65625 6.390625 43.53125 10.953125 
Q 47.40625 15.53125 47.40625 23.390625 
Q 47.40625 31.296875 43.53125 35.828125 
Q 39.65625 40.375 33.015625 40.375 
z
M 52.59375 71.296875 
L 52.59375 62.3125 
Q 48.875 64.0625 45.09375 64.984375 
Q 41.3125 65.921875 37.59375 65.921875 
Q 27.828125 65.921875 22.671875 59.328125 
Q 17.53125 52.734375 16.796875 39.40625 
Q 19.671875 43.65625 24.015625 45.921875 
Q 28.375 48.1875 33.59375 48.1875 
Q 44.578125 48.1875 50.953125 41.515625 
Q 57.328125 34.859375 57.328125 23.390625 
Q 57.328125 12.15625 50.6875 5.359375 
Q 44.046875 -1.421875 33.015625 -1.421875 
Q 20.359375 -1.421875 13.671875 8.265625 
Q 6.984375 17.96875 6.984375 36.375 
Q 6.984375 53.65625 15.1875 63.9375 
Q 23.390625 74.21875 37.203125 74.21875 
Q 40.921875 74.21875 44.703125 73.484375 
Q 48.484375 72.75 52.59375 71.296875 
z
" id="DejaVuSans-54"/>
       </defs>
       <use xlink:href="#DejaVuSans-54"/>
       <use x="63.623047" xlink:href="#DejaVuSans-48"/>
      </g>
     </g>
    </g>
    <g id="xtick_5">
     <g id="line2d_5">
      <g>
       <use style="stroke:#000000;stroke-width:0.8;" x="333.816347" xlink:href="#ma00f87d19e" y="307.584"/>
      </g>
     </g>
     <g id="text_5">
      <!-- 80 -->
      <g transform="translate(327.453847 322.182437)scale(0.1 -0.1)">
       <defs>
        <path d="M 31.78125 34.625 
Q 24.75 34.625 20.71875 30.859375 
Q 16.703125 27.09375 16.703125 20.515625 
Q 16.703125 13.921875 20.71875 10.15625 
Q 24.75 6.390625 31.78125 6.390625 
Q 38.8125 6.390625 42.859375 10.171875 
Q 46.921875 13.96875 46.921875 20.515625 
Q 46.921875 27.09375 42.890625 30.859375 
Q 38.875 34.625 31.78125 34.625 
z
M 21.921875 38.8125 
Q 15.578125 40.375 12.03125 44.71875 
Q 8.5 49.078125 8.5 55.328125 
Q 8.5 64.0625 14.71875 69.140625 
Q 20.953125 74.21875 31.78125 74.21875 
Q 42.671875 74.21875 48.875 69.140625 
Q 55.078125 64.0625 55.078125 55.328125 
Q 55.078125 49.078125 51.53125 44.71875 
Q 48 40.375 41.703125 38.8125 
Q 48.828125 37.15625 52.796875 32.3125 
Q 56.78125 27.484375 56.78125 20.515625 
Q 56.78125 9.90625 50.3125 4.234375 
Q 43.84375 -1.421875 31.78125 -1.421875 
Q 19.734375 -1.421875 13.25 4.234375 
Q 6.78125 9.90625 6.78125 20.515625 
Q 6.78125 27.484375 10.78125 32.3125 
Q 14.796875 37.15625 21.921875 38.8125 
z
M 18.3125 54.390625 
Q 18.3125 48.734375 21.84375 45.5625 
Q 25.390625 42.390625 31.78125 42.390625 
Q 38.140625 42.390625 41.71875 45.5625 
Q 45.3125 48.734375 45.3125 54.390625 
Q 45.3125 60.0625 41.71875 63.234375 
Q 38.140625 66.40625 31.78125 66.40625 
Q 25.390625 66.40625 21.84375 63.234375 
Q 18.3125 60.0625 18.3125 54.390625 
z
" id="DejaVuSans-56"/>
       </defs>
       <use xlink:href="#DejaVuSans-56"/>
       <use x="63.623047" xlink:href="#DejaVuSans-48"/>
      </g>
     </g>
    </g>
    <g id="xtick_6">
     <g id="line2d_6">
      <g>
       <use style="stroke:#000000;stroke-width:0.8;" x="398.812252" xlink:href="#ma00f87d19e" y="307.584"/>
      </g>
     </g>
     <g id="text_6">
      <!-- 100 -->
      <g transform="translate(389.268502 322.182437)scale(0.1 -0.1)">
       <defs>
        <path d="M 12.40625 8.296875 
L 28.515625 8.296875 
L 28.515625 63.921875 
L 10.984375 60.40625 
L 10.984375 69.390625 
L 28.421875 72.90625 
L 38.28125 72.90625 
L 38.28125 8.296875 
L 54.390625 8.296875 
L 54.390625 0 
L 12.40625 0 
z
" id="DejaVuSans-49"/>
       </defs>
       <use xlink:href="#DejaVuSans-49"/>
       <use x="63.623047" xlink:href="#DejaVuSans-48"/>
       <use x="127.246094" xlink:href="#DejaVuSans-48"/>
      </g>
     </g>
    </g>
    <g id="text_7">
     <!-- Time (days) -->
     <g transform="translate(206.633437 335.860562)scale(0.1 -0.1)">
      <defs>
       <path d="M -0.296875 72.90625 
L 61.375 72.90625 
L 61.375 64.59375 
L 35.5 64.59375 
L 35.5 0 
L 25.59375 0 
L 25.59375 64.59375 
L -0.296875 64.59375 
z
" id="DejaVuSans-84"/>
       <path d="M 9.421875 54.6875 
L 18.40625 54.6875 
L 18.40625 0 
L 9.421875 0 
z
M 9.421875 75.984375 
L 18.40625 75.984375 
L 18.40625 64.59375 
L 9.421875 64.59375 
z
" id="DejaVuSans-105"/>
       <path d="M 52 44.1875 
Q 55.375 50.25 60.0625 53.125 
Q 64.75 56 71.09375 56 
Q 79.640625 56 84.28125 50.015625 
Q 88.921875 44.046875 88.921875 33.015625 
L 88.921875 0 
L 79.890625 0 
L 79.890625 32.71875 
Q 79.890625 40.578125 77.09375 44.375 
Q 74.3125 48.1875 68.609375 48.1875 
Q 61.625 48.1875 57.5625 43.546875 
Q 53.515625 38.921875 53.515625 30.90625 
L 53.515625 0 
L 44.484375 0 
L 44.484375 32.71875 
Q 44.484375 40.625 41.703125 44.40625 
Q 38.921875 48.1875 33.109375 48.1875 
Q 26.21875 48.1875 22.15625 43.53125 
Q 18.109375 38.875 18.109375 30.90625 
L 18.109375 0 
L 9.078125 0 
L 9.078125 54.6875 
L 18.109375 54.6875 
L 18.109375 46.1875 
Q 21.1875 51.21875 25.484375 53.609375 
Q 29.78125 56 35.6875 56 
Q 41.65625 56 45.828125 52.96875 
Q 50 49.953125 52 44.1875 
z
" id="DejaVuSans-109"/>
       <path d="M 56.203125 29.59375 
L 56.203125 25.203125 
L 14.890625 25.203125 
Q 15.484375 15.921875 20.484375 11.0625 
Q 25.484375 6.203125 34.421875 6.203125 
Q 39.59375 6.203125 44.453125 7.46875 
Q 49.3125 8.734375 54.109375 11.28125 
L 54.109375 2.78125 
Q 49.265625 0.734375 44.1875 -0.34375 
Q 39.109375 -1.421875 33.890625 -1.421875 
Q 20.796875 -1.421875 13.15625 6.1875 
Q 5.515625 13.8125 5.515625 26.8125 
Q 5.515625 40.234375 12.765625 48.109375 
Q 20.015625 56 32.328125 56 
Q 43.359375 56 49.78125 48.890625 
Q 56.203125 41.796875 56.203125 29.59375 
z
M 47.21875 32.234375 
Q 47.125 39.59375 43.09375 43.984375 
Q 39.0625 48.390625 32.421875 48.390625 
Q 24.90625 48.390625 20.390625 44.140625 
Q 15.875 39.890625 15.1875 32.171875 
z
" id="DejaVuSans-101"/>
       <path id="DejaVuSans-32"/>
       <path d="M 31 75.875 
Q 24.46875 64.65625 21.28125 53.65625 
Q 18.109375 42.671875 18.109375 31.390625 
Q 18.109375 20.125 21.3125 9.0625 
Q 24.515625 -2 31 -13.1875 
L 23.1875 -13.1875 
Q 15.875 -1.703125 12.234375 9.375 
Q 8.59375 20.453125 8.59375 31.390625 
Q 8.59375 42.28125 12.203125 53.3125 
Q 15.828125 64.359375 23.1875 75.875 
z
" id="DejaVuSans-40"/>
       <path d="M 45.40625 46.390625 
L 45.40625 75.984375 
L 54.390625 75.984375 
L 54.390625 0 
L 45.40625 0 
L 45.40625 8.203125 
Q 42.578125 3.328125 38.25 0.953125 
Q 33.9375 -1.421875 27.875 -1.421875 
Q 17.96875 -1.421875 11.734375 6.484375 
Q 5.515625 14.40625 5.515625 27.296875 
Q 5.515625 40.1875 11.734375 48.09375 
Q 17.96875 56 27.875 56 
Q 33.9375 56 38.25 53.625 
Q 42.578125 51.265625 45.40625 46.390625 
z
M 14.796875 27.296875 
Q 14.796875 17.390625 18.875 11.75 
Q 22.953125 6.109375 30.078125 6.109375 
Q 37.203125 6.109375 41.296875 11.75 
Q 45.40625 17.390625 45.40625 27.296875 
Q 45.40625 37.203125 41.296875 42.84375 
Q 37.203125 48.484375 30.078125 48.484375 
Q 22.953125 48.484375 18.875 42.84375 
Q 14.796875 37.203125 14.796875 27.296875 
z
" id="DejaVuSans-100"/>
       <path d="M 34.28125 27.484375 
Q 23.390625 27.484375 19.1875 25 
Q 14.984375 22.515625 14.984375 16.5 
Q 14.984375 11.71875 18.140625 8.90625 
Q 21.296875 6.109375 26.703125 6.109375 
Q 34.1875 6.109375 38.703125 11.40625 
Q 43.21875 16.703125 43.21875 25.484375 
L 43.21875 27.484375 
z
M 52.203125 31.203125 
L 52.203125 0 
L 43.21875 0 
L 43.21875 8.296875 
Q 40.140625 3.328125 35.546875 0.953125 
Q 30.953125 -1.421875 24.3125 -1.421875 
Q 15.921875 -1.421875 10.953125 3.296875 
Q 6 8.015625 6 15.921875 
Q 6 25.140625 12.171875 29.828125 
Q 18.359375 34.515625 30.609375 34.515625 
L 43.21875 34.515625 
L 43.21875 35.40625 
Q 43.21875 41.609375 39.140625 45 
Q 35.0625 48.390625 27.6875 48.390625 
Q 23 48.390625 18.546875 47.265625 
Q 14.109375 46.140625 10.015625 43.890625 
L 10.015625 52.203125 
Q 14.9375 54.109375 19.578125 55.046875 
Q 24.21875 56 28.609375 56 
Q 40.484375 56 46.34375 49.84375 
Q 52.203125 43.703125 52.203125 31.203125 
z
" id="DejaVuSans-97"/>
       <path d="M 32.171875 -5.078125 
Q 28.375 -14.84375 24.75 -17.8125 
Q 21.140625 -20.796875 15.09375 -20.796875 
L 7.90625 -20.796875 
L 7.90625 -13.28125 
L 13.1875 -13.28125 
Q 16.890625 -13.28125 18.9375 -11.515625 
Q 21 -9.765625 23.484375 -3.21875 
L 25.09375 0.875 
L 2.984375 54.6875 
L 12.5 54.6875 
L 29.59375 11.921875 
L 46.6875 54.6875 
L 56.203125 54.6875 
z
" id="DejaVuSans-121"/>
       <path d="M 44.28125 53.078125 
L 44.28125 44.578125 
Q 40.484375 46.53125 36.375 47.5 
Q 32.28125 48.484375 27.875 48.484375 
Q 21.1875 48.484375 17.84375 46.4375 
Q 14.5 44.390625 14.5 40.28125 
Q 14.5 37.15625 16.890625 35.375 
Q 19.28125 33.59375 26.515625 31.984375 
L 29.59375 31.296875 
Q 39.15625 29.25 43.1875 25.515625 
Q 47.21875 21.78125 47.21875 15.09375 
Q 47.21875 7.46875 41.1875 3.015625 
Q 35.15625 -1.421875 24.609375 -1.421875 
Q 20.21875 -1.421875 15.453125 -0.5625 
Q 10.6875 0.296875 5.421875 2 
L 5.421875 11.28125 
Q 10.40625 8.6875 15.234375 7.390625 
Q 20.0625 6.109375 24.8125 6.109375 
Q 31.15625 6.109375 34.5625 8.28125 
Q 37.984375 10.453125 37.984375 14.40625 
Q 37.984375 18.0625 35.515625 20.015625 
Q 33.0625 21.96875 24.703125 23.78125 
L 21.578125 24.515625 
Q 13.234375 26.265625 9.515625 29.90625 
Q 5.8125 33.546875 5.8125 39.890625 
Q 5.8125 47.609375 11.28125 51.796875 
Q 16.75 56 26.8125 56 
Q 31.78125 56 36.171875 55.265625 
Q 40.578125 54.546875 44.28125 53.078125 
z
" id="DejaVuSans-115"/>
       <path d="M 8.015625 75.875 
L 15.828125 75.875 
Q 23.140625 64.359375 26.78125 53.3125 
Q 30.421875 42.28125 30.421875 31.390625 
Q 30.421875 20.453125 26.78125 9.375 
Q 23.140625 -1.703125 15.828125 -13.1875 
L 8.015625 -13.1875 
Q 14.5 -2 17.703125 9.0625 
Q 20.90625 20.125 20.90625 31.390625 
Q 20.90625 42.671875 17.703125 53.65625 
Q 14.5 64.65625 8.015625 75.875 
z
" id="DejaVuSans-41"/>
      </defs>
      <use xlink:href="#DejaVuSans-84"/>
      <use x="57.958984" xlink:href="#DejaVuSans-105"/>
      <use x="85.742188" xlink:href="#DejaVuSans-109"/>
      <use x="183.154297" xlink:href="#DejaVuSans-101"/>
      <use x="244.677734" xlink:href="#DejaVuSans-32"/>
      <use x="276.464844" xlink:href="#DejaVuSans-40"/>
      <use x="315.478516" xlink:href="#DejaVuSans-100"/>
      <use x="378.955078" xlink:href="#DejaVuSans-97"/>
      <use x="440.234375" xlink:href="#DejaVuSans-121"/>
      <use x="499.414062" xlink:href="#DejaVuSans-115"/>
      <use x="551.513672" xlink:href="#DejaVuSans-41"/>
     </g>
    </g>
   </g>
   <g id="matplotlib.axis_2">
    <g id="ytick_1">
     <g id="line2d_7">
      <defs>
       <path d="M 0 0 
L -3.5 0 
" id="m116d08f65d" style="stroke:#000000;stroke-width:0.8;"/>
      </defs>
      <g>
       <use style="stroke:#000000;stroke-width:0.8;" x="57.6" xlink:href="#m116d08f65d" y="290.818453"/>
      </g>
     </g>
     <g id="text_8">
      <!-- 0 -->
      <g transform="translate(44.2375 294.617672)scale(0.1 -0.1)">
       <use xlink:href="#DejaVuSans-48"/>
      </g>
     </g>
    </g>
    <g id="ytick_2">
     <g id="line2d_8">
      <g>
       <use style="stroke:#000000;stroke-width:0.8;" x="57.6" xlink:href="#m116d08f65d" y="242.428562"/>
      </g>
     </g>
     <g id="text_9">
      <!-- 1000 -->
      <g transform="translate(25.15 246.227781)scale(0.1 -0.1)">
       <use xlink:href="#DejaVuSans-49"/>
       <use x="63.623047" xlink:href="#DejaVuSans-48"/>
       <use x="127.246094" xlink:href="#DejaVuSans-48"/>
       <use x="190.869141" xlink:href="#DejaVuSans-48"/>
      </g>
     </g>
    </g>
    <g id="ytick_3">
     <g id="line2d_9">
      <g>
       <use style="stroke:#000000;stroke-width:0.8;" x="57.6" xlink:href="#m116d08f65d" y="194.038671"/>
      </g>
     </g>
     <g id="text_10">
      <!-- 2000 -->
      <g transform="translate(25.15 197.837889)scale(0.1 -0.1)">
       <use xlink:href="#DejaVuSans-50"/>
       <use x="63.623047" xlink:href="#DejaVuSans-48"/>
       <use x="127.246094" xlink:href="#DejaVuSans-48"/>
       <use x="190.869141" xlink:href="#DejaVuSans-48"/>
      </g>
     </g>
    </g>
    <g id="ytick_4">
     <g id="line2d_10">
      <g>
       <use style="stroke:#000000;stroke-width:0.8;" x="57.6" xlink:href="#m116d08f65d" y="145.648779"/>
      </g>
     </g>
     <g id="text_11">
      <!-- 3000 -->
      <g transform="translate(25.15 149.447998)scale(0.1 -0.1)">
       <defs>
        <path d="M 40.578125 39.3125 
Q 47.65625 37.796875 51.625 33 
Q 55.609375 28.21875 55.609375 21.1875 
Q 55.609375 10.40625 48.1875 4.484375 
Q 40.765625 -1.421875 27.09375 -1.421875 
Q 22.515625 -1.421875 17.65625 -0.515625 
Q 12.796875 0.390625 7.625 2.203125 
L 7.625 11.71875 
Q 11.71875 9.328125 16.59375 8.109375 
Q 21.484375 6.890625 26.8125 6.890625 
Q 36.078125 6.890625 40.9375 10.546875 
Q 45.796875 14.203125 45.796875 21.1875 
Q 45.796875 27.640625 41.28125 31.265625 
Q 36.765625 34.90625 28.71875 34.90625 
L 20.21875 34.90625 
L 20.21875 43.015625 
L 29.109375 43.015625 
Q 36.375 43.015625 40.234375 45.921875 
Q 44.09375 48.828125 44.09375 54.296875 
Q 44.09375 59.90625 40.109375 62.90625 
Q 36.140625 65.921875 28.71875 65.921875 
Q 24.65625 65.921875 20.015625 65.03125 
Q 15.375 64.15625 9.8125 62.3125 
L 9.8125 71.09375 
Q 15.4375 72.65625 20.34375 73.4375 
Q 25.25 74.21875 29.59375 74.21875 
Q 40.828125 74.21875 47.359375 69.109375 
Q 53.90625 64.015625 53.90625 55.328125 
Q 53.90625 49.265625 50.4375 45.09375 
Q 46.96875 40.921875 40.578125 39.3125 
z
" id="DejaVuSans-51"/>
       </defs>
       <use xlink:href="#DejaVuSans-51"/>
       <use x="63.623047" xlink:href="#DejaVuSans-48"/>
       <use x="127.246094" xlink:href="#DejaVuSans-48"/>
       <use x="190.869141" xlink:href="#DejaVuSans-48"/>
      </g>
     </g>
    </g>
    <g id="ytick_5">
     <g id="line2d_11">
      <g>
       <use style="stroke:#000000;stroke-width:0.8;" x="57.6" xlink:href="#m116d08f65d" y="97.258888"/>
      </g>
     </g>
     <g id="text_12">
      <!-- 4000 -->
      <g transform="translate(25.15 101.058106)scale(0.1 -0.1)">
       <use xlink:href="#DejaVuSans-52"/>
       <use x="63.623047" xlink:href="#DejaVuSans-48"/>
       <use x="127.246094" xlink:href="#DejaVuSans-48"/>
       <use x="190.869141" xlink:href="#DejaVuSans-48"/>
      </g>
     </g>
    </g>
    <g id="ytick_6">
     <g id="line2d_12">
      <g>
       <use style="stroke:#000000;stroke-width:0.8;" x="57.6" xlink:href="#m116d08f65d" y="48.868996"/>
      </g>
     </g>
     <g id="text_13">
      <!-- 5000 -->
      <g transform="translate(25.15 52.668215)scale(0.1 -0.1)">
       <defs>
        <path d="M 10.796875 72.90625 
L 49.515625 72.90625 
L 49.515625 64.59375 
L 19.828125 64.59375 
L 19.828125 46.734375 
Q 21.96875 47.46875 24.109375 47.828125 
Q 26.265625 48.1875 28.421875 48.1875 
Q 40.625 48.1875 47.75 41.5 
Q 54.890625 34.8125 54.890625 23.390625 
Q 54.890625 11.625 47.5625 5.09375 
Q 40.234375 -1.421875 26.90625 -1.421875 
Q 22.3125 -1.421875 17.546875 -0.640625 
Q 12.796875 0.140625 7.71875 1.703125 
L 7.71875 11.625 
Q 12.109375 9.234375 16.796875 8.0625 
Q 21.484375 6.890625 26.703125 6.890625 
Q 35.15625 6.890625 40.078125 11.328125 
Q 45.015625 15.765625 45.015625 23.390625 
Q 45.015625 31 40.078125 35.4375 
Q 35.15625 39.890625 26.703125 39.890625 
Q 22.75 39.890625 18.8125 39.015625 
Q 14.890625 38.140625 10.796875 36.28125 
z
" id="DejaVuSans-53"/>
       </defs>
       <use xlink:href="#DejaVuSans-53"/>
       <use x="63.623047" xlink:href="#DejaVuSans-48"/>
       <use x="127.246094" xlink:href="#DejaVuSans-48"/>
       <use x="190.869141" xlink:href="#DejaVuSans-48"/>
      </g>
     </g>
    </g>
    <g id="text_14">
     <!-- Density -->
     <g transform="translate(19.070312 193.536594)rotate(-90)scale(0.1 -0.1)">
      <defs>
       <path d="M 19.671875 64.796875 
L 19.671875 8.109375 
L 31.59375 8.109375 
Q 46.6875 8.109375 53.6875 14.9375 
Q 60.6875 21.78125 60.6875 36.53125 
Q 60.6875 51.171875 53.6875 57.984375 
Q 46.6875 64.796875 31.59375 64.796875 
z
M 9.8125 72.90625 
L 30.078125 72.90625 
Q 51.265625 72.90625 61.171875 64.09375 
Q 71.09375 55.28125 71.09375 36.53125 
Q 71.09375 17.671875 61.125 8.828125 
Q 51.171875 0 30.078125 0 
L 9.8125 0 
z
" id="DejaVuSans-68"/>
       <path d="M 54.890625 33.015625 
L 54.890625 0 
L 45.90625 0 
L 45.90625 32.71875 
Q 45.90625 40.484375 42.875 44.328125 
Q 39.84375 48.1875 33.796875 48.1875 
Q 26.515625 48.1875 22.3125 43.546875 
Q 18.109375 38.921875 18.109375 30.90625 
L 18.109375 0 
L 9.078125 0 
L 9.078125 54.6875 
L 18.109375 54.6875 
L 18.109375 46.1875 
Q 21.34375 51.125 25.703125 53.5625 
Q 30.078125 56 35.796875 56 
Q 45.21875 56 50.046875 50.171875 
Q 54.890625 44.34375 54.890625 33.015625 
z
" id="DejaVuSans-110"/>
       <path d="M 18.3125 70.21875 
L 18.3125 54.6875 
L 36.8125 54.6875 
L 36.8125 47.703125 
L 18.3125 47.703125 
L 18.3125 18.015625 
Q 18.3125 11.328125 20.140625 9.421875 
Q 21.96875 7.515625 27.59375 7.515625 
L 36.8125 7.515625 
L 36.8125 0 
L 27.59375 0 
Q 17.1875 0 13.234375 3.875 
Q 9.28125 7.765625 9.28125 18.015625 
L 9.28125 47.703125 
L 2.6875 47.703125 
L 2.6875 54.6875 
L 9.28125 54.6875 
L 9.28125 70.21875 
z
" id="DejaVuSans-116"/>
      </defs>
      <use xlink:href="#DejaVuSans-68"/>
      <use x="77.001953" xlink:href="#DejaVuSans-101"/>
      <use x="138.525391" xlink:href="#DejaVuSans-110"/>
      <use x="201.904297" xlink:href="#DejaVuSans-115"/>
      <use x="254.003906" xlink:href="#DejaVuSans-105"/>
      <use x="281.787109" xlink:href="#DejaVuSans-116"/>
      <use x="320.996094" xlink:href="#DejaVuSans-121"/>
     </g>
    </g>
   </g>
   <g id="line2d_13">
    <path clip-path="url(#p3cc5b51947)" d="M 73.832727 290.334554 
L 74.807666 289.943118 
L 75.457625 289.515502 
L 76.107584 288.873642 
L 76.757543 287.913722 
L 77.407502 286.463159 
L 78.057461 284.3183 
L 78.70742 281.118983 
L 79.357379 276.480471 
L 80.007338 271.457427 
L 80.657297 262.932405 
L 81.632236 244.949892 
L 82.607174 222.59514 
L 83.582113 192.994229 
L 84.232072 170.349216 
L 85.207011 138.189891 
L 85.53199 133.528554 
L 85.85697 130.877131 
L 86.181949 129.256075 
L 86.506929 129.939111 
L 87.481867 102.744314 
L 87.806847 98.231215 
L 88.456806 108.304012 
L 88.781785 109.583767 
L 89.106765 113.70528 
L 89.431744 130.697062 
L 90.081704 115.223671 
L 90.406683 121.824348 
L 90.731663 120.746666 
L 91.056642 56.09638 
L 91.381622 53.568 
L 91.706601 70.618059 
L 92.35656 91.253962 
L 92.68154 100.829044 
L 93.331499 90.312649 
L 93.656478 90.689785 
L 93.981458 89.220753 
L 94.631417 105.231429 
L 95.281376 91.021096 
L 95.606355 91.161777 
L 95.931335 97.951607 
L 96.256314 98.777215 
L 96.581294 96.634076 
L 96.906274 90.329572 
L 97.231253 102.620522 
L 97.556233 103.113984 
L 97.881212 95.033416 
L 98.206192 92.431647 
L 98.531171 91.612959 
L 98.856151 87.694899 
L 99.18113 87.033744 
L 99.50611 94.01497 
L 99.831089 103.484827 
L 100.156069 103.805036 
L 100.481048 102.461729 
L 100.806028 107.378406 
L 101.131007 119.755149 
L 101.455987 117.055166 
L 102.430925 99.743627 
L 102.755905 98.054772 
L 103.080885 90.149346 
L 103.405864 87.476182 
L 103.730844 119.309093 
L 104.055823 112.855409 
L 104.380803 113.331793 
L 104.705782 105.086766 
L 105.030762 105.631219 
L 105.355741 109.488508 
L 105.680721 108.697264 
L 106.0057 107.567639 
L 106.33068 101.326473 
L 106.655659 100.872506 
L 107.305618 97.480874 
L 107.630598 89.70893 
L 107.955577 88.135973 
L 108.280557 94.196647 
L 108.605536 93.558391 
L 108.930516 93.324051 
L 109.255495 112.039683 
L 109.905455 108.417061 
L 110.555414 109.07478 
L 110.880393 115.087242 
L 111.530352 102.896611 
L 111.855332 100.787093 
L 112.180311 92.327701 
L 112.505291 79.649474 
L 112.83027 78.20475 
L 113.15525 82.772899 
L 113.480229 79.377467 
L 113.805209 67.963635 
L 114.130188 82.631339 
L 114.455168 91.171797 
L 114.780147 92.512875 
L 115.105127 91.795764 
L 115.430106 93.870451 
L 115.755086 91.536133 
L 116.080066 87.033279 
L 116.405045 85.004055 
L 116.730025 79.754611 
L 117.055004 87.633062 
L 117.379984 102.362996 
L 117.704963 107.669072 
L 118.029943 96.472848 
L 118.354922 99.758828 
L 118.679902 94.809318 
L 120.304799 110.758784 
L 120.629779 108.241152 
L 120.954758 107.38966 
L 121.279738 93.901032 
L 121.604717 104.382721 
L 121.929697 106.637324 
L 122.254676 113.076226 
L 122.579656 105.033432 
L 122.904636 100.785115 
L 123.229615 110.942756 
L 123.554595 107.143494 
L 123.879574 114.062477 
L 124.204554 113.217118 
L 124.529533 104.005414 
L 124.854513 99.869419 
L 125.179492 100.253418 
L 125.504472 91.472418 
L 125.829451 90.51032 
L 126.154431 92.723758 
L 126.47941 93.260617 
L 126.80439 108.012651 
L 127.129369 102.147871 
L 127.454349 101.99027 
L 127.779328 89.868318 
L 128.429287 97.913212 
L 128.754267 92.187551 
L 129.079247 106.639291 
L 129.404226 115.71842 
L 129.729206 110.186107 
L 130.054185 110.589344 
L 130.379165 110.587888 
L 130.704144 117.027737 
L 131.029124 103.705794 
L 131.679083 99.625267 
L 132.654021 116.222174 
L 132.979001 110.200844 
L 133.30398 106.373346 
L 133.953939 110.684176 
L 134.278919 123.650875 
L 134.603898 113.12552 
L 134.928878 120.079809 
L 135.253857 114.384195 
L 135.578837 111.739969 
L 136.228796 109.612202 
L 136.553776 104.932372 
L 136.878755 107.042173 
L 137.203735 99.190258 
L 137.528714 103.532466 
L 137.853694 94.855377 
L 138.178673 102.132467 
L 138.503653 103.746338 
L 138.828632 103.07674 
L 139.153612 101.600403 
L 139.478591 94.678839 
L 139.803571 101.150266 
L 140.45353 93.227858 
L 140.778509 97.159109 
L 141.103489 98.643534 
L 141.428468 100.916654 
L 142.078428 92.185057 
L 142.403407 102.153627 
L 143.053366 97.609684 
L 143.378346 104.139156 
L 143.703325 101.703181 
L 144.678264 80.957193 
L 145.003243 85.365252 
L 145.328223 93.991665 
L 145.653202 89.299688 
L 145.978182 93.052405 
L 146.303161 89.335689 
L 146.95312 84.046754 
L 147.2781 98.334838 
L 147.603079 93.184609 
L 147.928059 94.570675 
L 148.253038 95.059408 
L 148.578018 94.061524 
L 148.902998 91.772705 
L 149.227977 80.977255 
L 149.552957 81.109026 
L 150.202916 89.296942 
L 150.527895 85.212648 
L 150.852875 79.315524 
L 151.177854 81.262877 
L 151.502834 90.18647 
L 151.827813 94.079392 
L 152.152793 89.354029 
L 152.477772 95.844591 
L 152.802752 84.211838 
L 153.127731 87.593783 
L 153.452711 99.585852 
L 153.77769 105.35441 
L 154.752629 95.317182 
L 155.077609 88.538688 
L 155.402588 90.18436 
L 155.727568 83.097507 
L 156.052547 84.211186 
L 156.377527 81.736496 
L 157.027486 105.564381 
L 157.352465 99.282088 
L 157.677445 90.236805 
L 158.002424 88.737934 
L 158.327404 83.671394 
L 158.652383 80.554249 
L 158.977363 78.512676 
L 159.302342 81.762273 
L 159.627322 91.370105 
L 159.952301 107.516232 
L 160.60226 99.219369 
L 160.92724 107.525553 
L 161.252219 101.994991 
L 161.577199 105.802847 
L 161.902179 101.336548 
L 162.227158 109.990964 
L 162.552138 113.989214 
L 162.877117 112.486404 
L 163.202097 106.156484 
L 163.527076 119.41906 
L 163.852056 113.321145 
L 164.177035 111.26446 
L 164.826994 102.161641 
L 165.151974 101.847263 
L 165.801933 96.548654 
L 166.126912 98.243065 
L 166.451892 94.330477 
L 166.776871 107.55535 
L 167.101851 112.076292 
L 167.42683 112.645525 
L 167.75181 105.136055 
L 168.07679 116.388237 
L 168.401769 115.406598 
L 169.051728 91.06221 
L 169.376708 94.041955 
L 169.701687 93.655834 
L 170.026667 105.692121 
L 170.351646 101.815109 
L 170.676626 118.096917 
L 171.001605 121.898149 
L 171.326585 120.700377 
L 171.976544 101.276333 
L 172.301523 98.274526 
L 172.626503 91.010517 
L 172.951482 88.943347 
L 173.276462 83.970076 
L 173.926421 105.035368 
L 174.2514 105.574528 
L 174.57638 99.413289 
L 174.90136 99.095874 
L 175.226339 97.077582 
L 175.551319 97.177245 
L 175.876298 97.862855 
L 176.201278 102.724157 
L 176.526257 102.504802 
L 176.851237 100.514165 
L 177.176216 97.504609 
L 177.501196 91.388935 
L 177.826175 92.990883 
L 178.151155 101.33328 
L 178.476134 104.886338 
L 179.126093 97.667974 
L 179.451073 99.612117 
L 179.776052 95.847169 
L 180.101032 102.900278 
L 180.750991 103.587836 
L 181.075971 103.498794 
L 181.40095 108.94519 
L 181.72593 107.85361 
L 182.050909 109.962029 
L 182.375889 122.115352 
L 183.350827 101.91453 
L 183.675807 100.778018 
L 184.000786 106.413466 
L 184.325766 106.841694 
L 184.650745 114.544248 
L 185.625684 97.344749 
L 185.950663 97.388971 
L 186.275643 113.658128 
L 186.600622 113.879242 
L 186.925602 116.618762 
L 187.900541 107.39537 
L 188.22552 106.192654 
L 188.5505 112.599744 
L 189.200459 101.175971 
L 189.525438 108.133142 
L 189.850418 105.869753 
L 190.175397 97.074428 
L 190.500377 112.400931 
L 190.825356 104.096598 
L 191.150336 101.302028 
L 191.475315 102.009982 
L 191.800295 108.438945 
L 192.125274 97.075074 
L 192.450254 117.151983 
L 192.775233 123.812271 
L 193.750172 97.980222 
L 194.075152 99.478049 
L 194.400131 92.937953 
L 194.725111 97.997753 
L 195.05009 101.191617 
L 195.37507 99.771879 
L 195.700049 99.553629 
L 196.025029 100.620645 
L 196.674988 86.874786 
L 196.999967 87.642321 
L 197.324947 84.219712 
L 197.649926 74.200888 
L 197.974906 93.845355 
L 198.299885 100.416466 
L 198.624865 95.107173 
L 198.949844 101.990498 
L 199.274824 94.627376 
L 199.599803 92.051398 
L 199.924783 102.539352 
L 200.249762 101.777043 
L 200.899722 97.503711 
L 201.224701 94.220159 
L 201.549681 104.336643 
L 201.87466 106.906493 
L 202.19964 106.517786 
L 202.849599 91.266178 
L 203.174578 86.366553 
L 203.499558 94.376958 
L 203.824537 92.82853 
L 204.149517 94.942235 
L 204.474496 94.350009 
L 204.799476 95.118236 
L 205.124455 94.791172 
L 205.449435 97.38729 
L 205.774414 120.961555 
L 206.099394 116.38687 
L 206.424373 115.341421 
L 206.749353 113.230259 
L 207.074333 109.290277 
L 207.724292 96.288913 
L 208.049271 98.02053 
L 208.374251 91.436097 
L 208.69923 81.355496 
L 209.02421 87.027546 
L 209.349189 82.255967 
L 209.674169 92.336995 
L 209.999148 94.973439 
L 210.649107 91.452561 
L 210.974087 92.563934 
L 211.299066 87.803992 
L 211.624046 100.450359 
L 211.949025 95.963352 
L 212.274005 98.531666 
L 212.598984 98.775894 
L 212.923964 90.105995 
L 213.248943 90.522305 
L 213.573923 90.492428 
L 213.898903 97.185133 
L 214.223882 89.205134 
L 214.548862 86.032238 
L 214.873841 109.475441 
L 215.198821 103.418686 
L 215.5238 103.119449 
L 215.84878 92.283755 
L 216.173759 91.080528 
L 216.498739 108.133735 
L 216.823718 107.527475 
L 217.473677 83.865896 
L 217.798657 87.092788 
L 218.123636 83.829729 
L 218.448616 92.065333 
L 218.773595 78.948391 
L 219.098575 98.375554 
L 219.423554 103.120959 
L 219.748534 95.777715 
L 220.073514 101.4659 
L 220.398493 99.167387 
L 220.723473 91.576814 
L 221.048452 87.290977 
L 221.373432 91.556441 
L 221.698411 86.847514 
L 222.023391 98.616526 
L 222.34837 100.354971 
L 222.67335 102.70563 
L 222.998329 99.925721 
L 223.323309 105.169954 
L 223.648288 99.007362 
L 224.298247 111.276319 
L 224.623227 97.172542 
L 224.948206 110.15366 
L 225.273186 107.100319 
L 225.598165 101.168859 
L 225.923145 116.190615 
L 226.248124 111.20103 
L 226.573104 109.149593 
L 226.898084 110.424103 
L 227.223063 97.158594 
L 227.548043 100.105292 
L 227.873022 88.226573 
L 228.198002 94.89213 
L 228.522981 108.049138 
L 228.847961 96.315975 
L 229.17294 110.72663 
L 229.822899 98.407995 
L 230.472858 79.545104 
L 230.797838 85.524463 
L 231.122817 77.729829 
L 231.772776 84.80764 
L 232.097756 102.089975 
L 232.422735 94.747187 
L 232.747715 106.666496 
L 233.072695 111.252959 
L 233.397674 118.514155 
L 233.722654 112.628595 
L 234.047633 117.766501 
L 234.372613 107.007285 
L 234.697592 106.713042 
L 235.022572 101.224554 
L 235.347551 98.351447 
L 235.99751 103.191601 
L 236.32249 97.501125 
L 236.647469 101.793475 
L 236.972449 97.665282 
L 237.297428 113.728368 
L 237.622408 118.632438 
L 237.947387 120.047412 
L 238.272367 123.380727 
L 238.922326 110.501656 
L 239.247305 110.052424 
L 239.572285 115.594599 
L 239.897265 112.453618 
L 240.222244 115.543936 
L 240.547224 107.874612 
L 240.872203 110.710457 
L 241.197183 105.645497 
L 241.522162 94.206476 
L 241.847142 87.871345 
L 242.497101 84.805229 
L 242.82208 83.58658 
L 243.797019 70.397212 
L 244.121998 77.049752 
L 244.446978 69.689499 
L 244.771957 68.347092 
L 245.096937 69.478777 
L 245.421916 82.720422 
L 245.746896 78.519545 
L 246.071876 84.052982 
L 246.396855 92.804592 
L 246.721835 97.259181 
L 247.046814 103.675924 
L 247.371794 102.985159 
L 247.696773 99.468635 
L 248.021753 104.277553 
L 248.346732 100.434108 
L 248.671712 100.278001 
L 248.996691 93.650192 
L 249.321671 94.012713 
L 250.296609 74.577769 
L 250.621589 73.247316 
L 250.946568 69.406092 
L 251.596527 100.758277 
L 251.921507 99.277218 
L 252.246486 101.189176 
L 252.571466 93.237875 
L 252.896446 93.956828 
L 253.221425 99.089887 
L 253.871384 87.556752 
L 254.196364 84.16758 
L 254.521343 85.411256 
L 254.846323 78.463673 
L 255.171302 86.599413 
L 255.496282 87.055946 
L 255.821261 80.134852 
L 256.146241 90.197329 
L 256.47122 96.20331 
L 256.7962 97.686608 
L 257.121179 96.512232 
L 257.446159 92.081062 
L 257.771138 85.411173 
L 258.096118 82.795878 
L 258.421097 82.747034 
L 258.746077 89.264125 
L 259.071057 89.280704 
L 259.396036 93.271237 
L 259.721016 87.615554 
L 260.045995 95.666729 
L 260.695954 84.111598 
L 261.020934 89.66371 
L 261.345913 88.826717 
L 261.670893 94.806607 
L 261.995872 88.275408 
L 262.320852 100.333497 
L 262.645831 97.849724 
L 263.29579 101.069996 
L 263.62077 92.531529 
L 263.945749 90.769141 
L 264.270729 83.6653 
L 264.595708 88.863771 
L 264.920688 88.691638 
L 265.245667 85.87388 
L 265.570647 86.502692 
L 265.895627 67.122106 
L 266.220606 81.864864 
L 266.545586 89.696956 
L 266.870565 89.266489 
L 267.195545 90.299281 
L 267.520524 83.648327 
L 268.495463 113.534415 
L 268.820442 100.350747 
L 269.145422 103.817567 
L 269.470401 112.750935 
L 269.795381 102.511804 
L 270.12036 103.247604 
L 270.44534 98.498512 
L 270.770319 86.776724 
L 271.095299 81.46688 
L 271.420278 80.627641 
L 272.070238 102.696249 
L 272.395217 103.496636 
L 272.720197 99.147806 
L 273.045176 97.474086 
L 273.370156 93.03394 
L 273.695135 98.502707 
L 274.020115 98.690011 
L 274.345094 92.958012 
L 274.670074 95.125471 
L 274.995053 95.160628 
L 275.645012 94.708548 
L 275.969992 88.16493 
L 276.619951 98.194957 
L 276.94493 92.269144 
L 277.26991 99.127803 
L 277.594889 113.420778 
L 277.919869 106.569026 
L 278.569828 116.533702 
L 279.219787 106.896604 
L 279.544767 98.331981 
L 279.869746 100.39881 
L 280.194726 103.708722 
L 280.844685 97.934666 
L 281.169664 97.116256 
L 281.494644 102.87143 
L 281.819623 113.519193 
L 282.144603 117.762642 
L 282.469582 108.160822 
L 282.794562 104.024156 
L 283.444521 93.222535 
L 283.7695 93.887012 
L 284.09448 103.835274 
L 284.419459 99.08326 
L 284.744439 99.362793 
L 285.069419 92.451948 
L 285.394398 93.335515 
L 285.719378 89.833217 
L 286.044357 90.220536 
L 286.369337 85.761282 
L 286.694316 91.711037 
L 287.019296 95.572388 
L 287.344275 95.33563 
L 287.669255 98.900975 
L 287.994234 96.533048 
L 288.319214 103.754408 
L 288.644193 107.099606 
L 288.969173 112.332211 
L 289.294152 120.434716 
L 289.619132 113.06661 
L 289.944111 111.621553 
L 290.269091 114.840363 
L 290.59407 109.157783 
L 290.91905 119.525938 
L 291.244029 111.740877 
L 291.569009 111.94877 
L 291.893989 129.855792 
L 292.218968 110.316865 
L 293.193907 89.571612 
L 293.518886 86.829416 
L 293.843866 86.723136 
L 294.493825 95.101246 
L 294.818804 91.042449 
L 295.143784 93.178385 
L 295.468763 93.401592 
L 296.118722 101.770692 
L 296.443702 99.902847 
L 296.768681 99.888639 
L 297.093661 101.701441 
L 297.41864 106.001924 
L 297.74362 101.721827 
L 298.0686 104.926739 
L 298.393579 99.865728 
L 298.718559 109.539714 
L 299.043538 99.891949 
L 299.368518 104.423528 
L 299.693497 117.260908 
L 300.018477 111.77124 
L 300.343456 118.704327 
L 300.668436 108.579528 
L 300.993415 104.234698 
L 301.643374 92.286526 
L 301.968354 91.952633 
L 302.293333 97.055215 
L 302.943292 113.392525 
L 303.268272 109.902471 
L 303.593251 104.965914 
L 303.918231 95.485147 
L 304.24321 91.550079 
L 304.56819 91.239114 
L 304.89317 97.242289 
L 305.218149 99.051908 
L 305.543129 101.614439 
L 305.868108 100.990335 
L 306.193088 87.606208 
L 306.518067 98.340043 
L 306.843047 98.495145 
L 307.168026 87.896752 
L 307.493006 86.397157 
L 308.467944 63.607293 
L 308.792924 62.914489 
L 309.117903 58.292192 
L 309.442883 57.796822 
L 309.767862 67.130148 
L 310.092842 64.920701 
L 310.417821 66.160357 
L 310.742801 69.996845 
L 311.39276 100.586673 
L 311.71774 93.754501 
L 312.042719 106.427427 
L 312.367699 100.340905 
L 312.692678 104.606698 
L 313.017658 99.323696 
L 313.342637 98.449596 
L 313.992596 90.516741 
L 314.642555 80.572713 
L 314.967535 83.500767 
L 315.292514 94.470058 
L 315.617494 88.319321 
L 315.942473 88.966664 
L 316.267453 92.681874 
L 316.592432 94.946216 
L 317.242391 102.611303 
L 317.567371 99.238711 
L 317.892351 89.246105 
L 318.21733 98.695159 
L 318.54231 98.10889 
L 318.867289 96.82241 
L 319.192269 87.4433 
L 319.842228 118.676616 
L 320.167207 109.35186 
L 320.492187 115.332432 
L 320.817166 101.632385 
L 321.142146 113.154776 
L 321.467125 111.054464 
L 321.792105 110.299253 
L 322.117084 108.216831 
L 322.442064 102.932767 
L 322.767043 117.732407 
L 323.092023 113.510955 
L 323.417002 106.082118 
L 323.741982 119.349565 
L 324.066962 117.445202 
L 324.391941 114.657861 
L 324.716921 113.268213 
L 326.016839 93.059048 
L 326.666798 81.639533 
L 326.991777 88.435999 
L 327.316757 85.303631 
L 327.641736 83.675704 
L 327.966716 76.772737 
L 328.291695 89.607057 
L 328.941654 75.562195 
L 329.266634 78.568328 
L 329.591613 74.057158 
L 329.916593 86.825218 
L 330.241572 86.692104 
L 330.566552 77.984841 
L 330.891532 95.79217 
L 331.216511 99.71694 
L 331.541491 113.349327 
L 331.86647 99.383771 
L 332.19145 94.795401 
L 332.516429 102.972219 
L 332.841409 105.770951 
L 333.166388 91.61763 
L 333.491368 99.335038 
L 333.816347 94.917231 
L 334.141327 87.25917 
L 334.466306 86.621481 
L 334.791286 92.854743 
L 335.116265 89.141641 
L 335.441245 94.060053 
L 335.766224 93.939293 
L 336.091204 107.413393 
L 336.416183 97.217033 
L 336.741163 110.879799 
L 337.066143 109.67172 
L 337.391122 111.906749 
L 337.716102 115.608536 
L 338.041081 112.465133 
L 338.366061 101.3715 
L 338.69104 99.831035 
L 339.340999 102.876475 
L 339.665979 107.661891 
L 339.990958 104.4398 
L 340.640917 83.935868 
L 340.965897 88.836331 
L 341.615856 93.915847 
L 341.940835 103.01088 
L 342.265815 102.212043 
L 342.590794 97.225344 
L 343.240753 93.221263 
L 343.565733 87.546924 
L 343.890713 89.452786 
L 344.215692 85.39753 
L 344.540672 86.84059 
L 345.190631 75.304753 
L 345.51561 65.443212 
L 345.84059 81.207379 
L 346.165569 88.248206 
L 346.490549 86.835987 
L 346.815528 82.188445 
L 347.140508 80.814413 
L 347.790467 87.007131 
L 348.115446 82.729216 
L 348.440426 86.886057 
L 348.765405 82.644586 
L 349.090385 74.327981 
L 349.415364 84.847554 
L 349.740344 87.311135 
L 350.065324 82.844946 
L 350.390303 74.033503 
L 350.715283 71.058722 
L 351.365242 77.371606 
L 351.690221 73.525971 
L 352.015201 78.776147 
L 352.34018 81.230232 
L 352.66516 90.247372 
L 352.990139 89.38614 
L 353.315119 93.183323 
L 353.640098 86.47984 
L 353.965078 102.277333 
L 354.290057 96.112933 
L 354.615037 101.273847 
L 354.940016 97.304467 
L 355.264996 95.756263 
L 355.589975 86.055405 
L 355.914955 82.75473 
L 356.239934 88.307347 
L 356.564914 89.459346 
L 356.889894 83.067667 
L 357.214873 90.648761 
L 357.539853 87.981708 
L 357.864832 89.248398 
L 358.189812 86.181878 
L 358.514791 81.806811 
L 358.839771 67.740684 
L 359.16475 70.845011 
L 359.48973 72.280032 
L 359.814709 72.315453 
L 360.464668 96.461894 
L 360.789648 91.569941 
L 361.114627 80.03189 
L 361.439607 74.312437 
L 361.764586 98.076831 
L 362.089566 98.904052 
L 362.414545 104.870054 
L 362.739525 105.573783 
L 363.064505 105.665639 
L 363.389484 117.593375 
L 363.714464 107.938682 
L 364.039443 104.898658 
L 364.364423 113.075717 
L 364.689402 109.897694 
L 365.014382 101.978998 
L 365.339361 110.69889 
L 365.664341 107.23787 
L 365.98932 123.128458 
L 366.964259 102.359018 
L 367.289238 109.894611 
L 367.614218 113.870089 
L 367.939197 110.575493 
L 368.264177 97.539744 
L 368.914136 91.893566 
L 369.239115 103.512133 
L 369.564095 94.147573 
L 370.214054 85.639087 
L 370.539034 94.566698 
L 370.864013 94.549933 
L 371.188993 102.643236 
L 371.513972 106.961332 
L 371.838952 109.532117 
L 372.163931 114.28599 
L 372.488911 123.406648 
L 372.81389 121.604462 
L 373.13887 111.183564 
L 373.463849 112.478672 
L 373.788829 112.081887 
L 374.113808 114.798985 
L 374.438788 112.951792 
L 374.763767 102.560708 
L 375.088747 106.711422 
L 375.413726 105.113257 
L 375.738706 92.527918 
L 376.063686 86.774823 
L 376.388665 90.181383 
L 376.713645 110.25083 
L 377.038624 104.439702 
L 377.688583 98.722596 
L 378.013563 104.081756 
L 378.338542 107.593458 
L 379.63846 88.623168 
L 379.96344 79.266127 
L 380.288419 92.764119 
L 380.613399 98.163905 
L 380.938378 94.355989 
L 381.588337 80.369905 
L 381.913317 78.411508 
L 382.238296 73.7712 
L 382.563276 74.793556 
L 382.888256 70.069136 
L 383.213235 80.107337 
L 383.538215 75.347926 
L 383.863194 88.868889 
L 384.188174 92.855227 
L 384.838133 107.921701 
L 385.163112 100.921939 
L 385.488092 87.908567 
L 386.138051 81.63319 
L 386.46303 82.043379 
L 386.78801 89.240391 
L 387.112989 85.537439 
L 387.437969 88.366123 
L 387.762948 82.04446 
L 388.087928 95.309183 
L 388.412907 95.120879 
L 388.737887 103.544546 
L 389.062867 94.91629 
L 389.387846 96.286224 
L 389.712826 95.820974 
L 390.037805 92.939121 
L 390.362785 95.863043 
L 390.687764 89.617361 
L 391.337723 73.06698 
L 391.662703 76.054488 
L 391.987682 80.114193 
L 392.312662 81.146729 
L 392.637641 101.632962 
L 392.962621 98.144893 
L 393.2876 99.974528 
L 393.61258 110.070772 
L 393.937559 114.926967 
L 394.262539 116.142611 
L 394.587518 110.954659 
L 394.912498 114.599787 
L 395.237477 110.997975 
L 395.562457 115.200344 
L 395.887437 108.069415 
L 396.212416 113.254906 
L 396.537396 109.150725 
L 396.862375 116.905156 
L 397.187355 105.936463 
L 397.512334 113.077121 
L 398.487273 90.298708 
L 398.487273 90.298708 
" style="fill:none;stroke:#1f77b4;stroke-linecap:square;stroke-width:1.5;"/>
   </g>
   <g id="line2d_14">
    <path clip-path="url(#p3cc5b51947)" d="M 73.832727 290.818453 
L 79.0324 291.006765 
L 83.257133 291.422629 
L 86.181949 291.686196 
L 90.731663 291.768694 
L 91.381622 291.866409 
L 93.006519 291.793392 
L 95.931335 291.830167 
L 112.180311 292.07967 
L 113.15525 292.122902 
L 114.455168 292.088103 
L 125.179492 292.202909 
L 126.47941 292.247972 
L 127.129369 292.223622 
L 163.202097 292.682319 
L 163.852056 292.654027 
L 167.101851 292.696428 
L 168.726749 292.761119 
L 169.376708 292.805617 
L 170.351646 292.779095 
L 171.001605 292.682972 
L 172.301523 292.823722 
L 173.276462 292.908119 
L 174.2514 292.810685 
L 175.551319 292.874105 
L 182.700868 292.869817 
L 184.000786 292.937671 
L 194.075152 293.110332 
L 194.725111 293.131692 
L 196.025029 293.135921 
L 197.649926 293.310505 
L 198.299885 293.163048 
L 199.599803 293.232808 
L 200.249762 293.180208 
L 204.474496 293.283751 
L 205.449435 293.277991 
L 205.774414 293.115693 
L 209.349189 293.397775 
L 209.999148 293.330384 
L 212.274005 293.3423 
L 230.147879 293.581235 
L 230.797838 293.613197 
L 231.447797 293.638184 
L 232.422735 293.548514 
L 233.397674 293.386218 
L 235.022572 293.509607 
L 236.972449 293.560939 
L 237.622408 293.421057 
L 238.597346 293.45212 
L 239.572285 293.468911 
L 245.096937 293.854593 
L 245.421916 293.763074 
L 246.071876 293.762393 
L 247.371794 293.64615 
L 250.946568 293.925738 
L 251.596527 293.704956 
L 256.146241 293.836332 
L 257.121179 293.798398 
L 258.421097 293.920328 
L 259.396036 293.852946 
L 260.695954 293.941113 
L 261.670893 293.870787 
L 261.995872 293.924069 
L 262.645831 293.856511 
L 263.945749 293.930184 
L 264.595708 293.952481 
L 267.520524 293.960542 
L 268.495463 293.7449 
L 268.820442 293.854337 
L 270.12036 293.850622 
L 271.745258 293.963885 
L 272.395217 293.869077 
L 273.695135 293.927232 
L 278.244848 293.876064 
L 278.894808 293.887545 
L 280.519705 293.98158 
L 281.494644 293.982985 
L 282.144603 293.865905 
L 283.119541 294.040752 
L 283.7695 294.090435 
L 284.09448 294.013026 
L 285.719378 294.149701 
L 288.969173 293.993618 
L 289.294152 293.925635 
L 289.944111 294.010501 
L 291.244029 294.020485 
L 291.569009 294.022823 
L 291.893989 293.870323 
L 292.543948 294.06955 
L 293.518886 294.218838 
L 295.793743 294.164046 
L 296.768681 294.1552 
L 300.668436 294.122081 
L 302.293333 294.241527 
L 302.943292 294.102054 
L 305.218149 294.266034 
L 305.868108 294.260018 
L 306.193088 294.381812 
L 306.843047 294.290063 
L 307.817985 294.480845 
L 309.117903 294.655432 
L 310.742801 294.5768 
L 311.39276 294.319884 
L 311.71774 294.38176 
L 312.042719 294.254533 
L 313.017658 294.336727 
L 314.317576 294.481595 
L 314.967535 294.496674 
L 315.292514 294.401762 
L 315.942473 294.462588 
L 317.567371 294.399659 
L 317.892351 294.495003 
L 318.54231 294.421875 
L 319.517248 294.378441 
L 319.842228 294.227618 
L 320.167207 294.321355 
L 320.492187 294.266898 
L 320.817166 294.40284 
L 321.142146 294.293603 
L 322.442064 294.411624 
L 322.767043 294.276328 
L 323.417002 294.397317 
L 323.741982 294.27158 
L 325.691859 294.498591 
L 326.666798 294.669986 
L 327.316757 294.648155 
L 329.591613 294.757972 
L 329.916593 294.64591 
L 330.891532 294.568208 
L 331.86647 294.549597 
L 332.19145 294.597622 
L 332.841409 294.499495 
L 333.166388 294.627731 
L 333.491368 294.5555 
L 334.791286 294.632567 
L 335.441245 294.63193 
L 335.766224 294.635168 
L 336.091204 294.507488 
L 336.416183 294.612477 
L 336.741163 294.4585 
L 341.615856 294.690958 
L 342.265815 294.619939 
L 343.565733 294.784524 
L 344.540672 294.806334 
L 345.51561 295.011327 
L 346.165569 294.800765 
L 349.415364 294.871107 
L 350.065324 294.896165 
L 350.715283 295.017807 
L 353.315119 294.84067 
L 353.640098 294.906425 
L 353.965078 294.748224 
L 354.290057 294.813841 
L 354.940016 294.804717 
L 359.814709 295.095756 
L 360.464668 294.875295 
L 361.439607 295.101333 
L 361.764586 294.868483 
L 363.064505 294.80312 
L 363.389484 294.681486 
L 364.039443 294.827676 
L 364.364423 294.743815 
L 365.664341 294.801286 
L 365.98932 294.630926 
L 366.964259 294.866445 
L 367.614218 294.752929 
L 370.214054 295.094159 
L 371.188993 294.93147 
L 372.81389 294.73923 
L 373.13887 294.859655 
L 374.438788 294.856663 
L 374.763767 294.977198 
L 375.413726 294.961621 
L 376.063686 295.165492 
L 376.388665 295.132778 
L 376.713645 294.910562 
L 377.688583 295.047563 
L 378.338542 294.955838 
L 379.96344 295.279796 
L 380.613399 295.087433 
L 382.888256 295.416932 
L 383.213235 295.319192 
L 383.538215 295.374144 
L 384.188174 295.197593 
L 384.838133 295.038396 
L 386.46303 295.347795 
L 386.78801 295.274558 
L 387.762948 295.356189 
L 388.087928 295.219333 
L 390.687764 295.300866 
L 391.337723 295.488 
L 392.312662 295.419627 
L 392.637641 295.192644 
L 393.2876 295.209163 
L 393.937559 295.047156 
L 394.912498 295.0616 
L 395.887437 295.159963 
L 396.862375 295.06237 
L 397.187355 295.184973 
L 397.512334 295.095595 
L 398.487273 295.366684 
L 398.487273 295.366684 
" style="fill:none;stroke:#ff7f0e;stroke-linecap:square;stroke-width:1.5;"/>
   </g>
   <g id="patch_3">
    <path d="M 57.6 307.584 
L 57.6 41.472 
" style="fill:none;stroke:#000000;stroke-linecap:square;stroke-linejoin:miter;stroke-width:0.8;"/>
   </g>
   <g id="patch_4">
    <path d="M 414.72 307.584 
L 414.72 41.472 
" style="fill:none;stroke:#000000;stroke-linecap:square;stroke-linejoin:miter;stroke-width:0.8;"/>
   </g>
   <g id="patch_5">
    <path d="M 57.6 307.584 
L 414.72 307.584 
" style="fill:none;stroke:#000000;stroke-linecap:square;stroke-linejoin:miter;stroke-width:0.8;"/>
   </g>
   <g id="patch_6">
    <path d="M 57.6 41.472 
L 414.72 41.472 
" style="fill:none;stroke:#000000;stroke-linecap:square;stroke-linejoin:miter;stroke-width:0.8;"/>
   </g>
  </g>
 </g>
 <defs>
  <clipPath id="p3cc5b51947">
   <rect height="266.112" width="357.12" x="57.6" y="41.472"/>
  </clipPath>
 </defs>
</svg>
