<?xml version="1.0" encoding="utf-8" standalone="no"?>
<!DOCTYPE svg PUBLIC "-//W3C//DTD SVG 1.1//EN"
  "http://www.w3.org/Graphics/SVG/1.1/DTD/svg11.dtd">
<!-- Created with matplotlib (https://matplotlib.org/) -->
<svg height="345.6pt" version="1.1" viewBox="0 0 460.8 345.6" width="460.8pt" xmlns="http://www.w3.org/2000/svg" xmlns:xlink="http://www.w3.org/1999/xlink">
 <metadata>
  <rdf:RDF xmlns:cc="http://creativecommons.org/ns#" xmlns:dc="http://purl.org/dc/elements/1.1/" xmlns:rdf="http://www.w3.org/1999/02/22-rdf-syntax-ns#">
   <cc:Work>
    <dc:type rdf:resource="http://purl.org/dc/dcmitype/StillImage"/>
    <dc:date>2020-10-03T18:10:24.366977</dc:date>
    <dc:format>image/svg+xml</dc:format>
    <dc:creator>
     <cc:Agent>
      <dc:title>Matplotlib v3.3.2, https://matplotlib.org/</dc:title>
     </cc:Agent>
    </dc:creator>
   </cc:Work>
  </rdf:RDF>
 </metadata>
 <defs>
  <style type="text/css">*{stroke-linecap:butt;stroke-linejoin:round;}</style>
 </defs>
 <g id="figure_1">
  <g id="patch_1">
   <path d="M 0 345.6 
L 460.8 345.6 
L 460.8 0 
L 0 0 
z
" style="fill:#ffffff;"/>
  </g>
  <g id="axes_1">
   <g id="patch_2">
    <path d="M 57.6 307.584 
L 414.72 307.584 
L 414.72 41.472 
L 57.6 41.472 
z
" style="fill:#ffffff;"/>
   </g>
   <g id="matplotlib.axis_1">
    <g id="xtick_1">
     <g id="line2d_1">
      <defs>
       <path d="M 0 0 
L 0 3.5 
" id="m9e13cf2331" style="stroke:#000000;stroke-width:0.8;"/>
      </defs>
      <g>
       <use style="stroke:#000000;stroke-width:0.8;" x="73.832727" xlink:href="#m9e13cf2331" y="307.584"/>
      </g>
     </g>
     <g id="text_1">
      <!-- 0 -->
      <g transform="translate(70.651477 322.182437)scale(0.1 -0.1)">
       <defs>
        <path d="M 31.78125 66.40625 
Q 24.171875 66.40625 20.328125 58.90625 
Q 16.5 51.421875 16.5 36.375 
Q 16.5 21.390625 20.328125 13.890625 
Q 24.171875 6.390625 31.78125 6.390625 
Q 39.453125 6.390625 43.28125 13.890625 
Q 47.125 21.390625 47.125 36.375 
Q 47.125 51.421875 43.28125 58.90625 
Q 39.453125 66.40625 31.78125 66.40625 
z
M 31.78125 74.21875 
Q 44.046875 74.21875 50.515625 64.515625 
Q 56.984375 54.828125 56.984375 36.375 
Q 56.984375 17.96875 50.515625 8.265625 
Q 44.046875 -1.421875 31.78125 -1.421875 
Q 19.53125 -1.421875 13.0625 8.265625 
Q 6.59375 17.96875 6.59375 36.375 
Q 6.59375 54.828125 13.0625 64.515625 
Q 19.53125 74.21875 31.78125 74.21875 
z
" id="DejaVuSans-48"/>
       </defs>
       <use xlink:href="#DejaVuSans-48"/>
      </g>
     </g>
    </g>
    <g id="xtick_2">
     <g id="line2d_2">
      <g>
       <use style="stroke:#000000;stroke-width:0.8;" x="138.828632" xlink:href="#m9e13cf2331" y="307.584"/>
      </g>
     </g>
     <g id="text_2">
      <!-- 20 -->
      <g transform="translate(132.466132 322.182437)scale(0.1 -0.1)">
       <defs>
        <path d="M 19.1875 8.296875 
L 53.609375 8.296875 
L 53.609375 0 
L 7.328125 0 
L 7.328125 8.296875 
Q 12.9375 14.109375 22.625 23.890625 
Q 32.328125 33.6875 34.8125 36.53125 
Q 39.546875 41.84375 41.421875 45.53125 
Q 43.3125 49.21875 43.3125 52.78125 
Q 43.3125 58.59375 39.234375 62.25 
Q 35.15625 65.921875 28.609375 65.921875 
Q 23.96875 65.921875 18.8125 64.3125 
Q 13.671875 62.703125 7.8125 59.421875 
L 7.8125 69.390625 
Q 13.765625 71.78125 18.9375 73 
Q 24.125 74.21875 28.421875 74.21875 
Q 39.75 74.21875 46.484375 68.546875 
Q 53.21875 62.890625 53.21875 53.421875 
Q 53.21875 48.921875 51.53125 44.890625 
Q 49.859375 40.875 45.40625 35.40625 
Q 44.1875 33.984375 37.640625 27.21875 
Q 31.109375 20.453125 19.1875 8.296875 
z
" id="DejaVuSans-50"/>
       </defs>
       <use xlink:href="#DejaVuSans-50"/>
       <use x="63.623047" xlink:href="#DejaVuSans-48"/>
      </g>
     </g>
    </g>
    <g id="xtick_3">
     <g id="line2d_3">
      <g>
       <use style="stroke:#000000;stroke-width:0.8;" x="203.824537" xlink:href="#m9e13cf2331" y="307.584"/>
      </g>
     </g>
     <g id="text_3">
      <!-- 40 -->
      <g transform="translate(197.462037 322.182437)scale(0.1 -0.1)">
       <defs>
        <path d="M 37.796875 64.3125 
L 12.890625 25.390625 
L 37.796875 25.390625 
z
M 35.203125 72.90625 
L 47.609375 72.90625 
L 47.609375 25.390625 
L 58.015625 25.390625 
L 58.015625 17.1875 
L 47.609375 17.1875 
L 47.609375 0 
L 37.796875 0 
L 37.796875 17.1875 
L 4.890625 17.1875 
L 4.890625 26.703125 
z
" id="DejaVuSans-52"/>
       </defs>
       <use xlink:href="#DejaVuSans-52"/>
       <use x="63.623047" xlink:href="#DejaVuSans-48"/>
      </g>
     </g>
    </g>
    <g id="xtick_4">
     <g id="line2d_4">
      <g>
       <use style="stroke:#000000;stroke-width:0.8;" x="268.820442" xlink:href="#m9e13cf2331" y="307.584"/>
      </g>
     </g>
     <g id="text_4">
      <!-- 60 -->
      <g transform="translate(262.457942 322.182437)scale(0.1 -0.1)">
       <defs>
        <path d="M 33.015625 40.375 
Q 26.375 40.375 22.484375 35.828125 
Q 18.609375 31.296875 18.609375 23.390625 
Q 18.609375 15.53125 22.484375 10.953125 
Q 26.375 6.390625 33.015625 6.390625 
Q 39.65625 6.390625 43.53125 10.953125 
Q 47.40625 15.53125 47.40625 23.390625 
Q 47.40625 31.296875 43.53125 35.828125 
Q 39.65625 40.375 33.015625 40.375 
z
M 52.59375 71.296875 
L 52.59375 62.3125 
Q 48.875 64.0625 45.09375 64.984375 
Q 41.3125 65.921875 37.59375 65.921875 
Q 27.828125 65.921875 22.671875 59.328125 
Q 17.53125 52.734375 16.796875 39.40625 
Q 19.671875 43.65625 24.015625 45.921875 
Q 28.375 48.1875 33.59375 48.1875 
Q 44.578125 48.1875 50.953125 41.515625 
Q 57.328125 34.859375 57.328125 23.390625 
Q 57.328125 12.15625 50.6875 5.359375 
Q 44.046875 -1.421875 33.015625 -1.421875 
Q 20.359375 -1.421875 13.671875 8.265625 
Q 6.984375 17.96875 6.984375 36.375 
Q 6.984375 53.65625 15.1875 63.9375 
Q 23.390625 74.21875 37.203125 74.21875 
Q 40.921875 74.21875 44.703125 73.484375 
Q 48.484375 72.75 52.59375 71.296875 
z
" id="DejaVuSans-54"/>
       </defs>
       <use xlink:href="#DejaVuSans-54"/>
       <use x="63.623047" xlink:href="#DejaVuSans-48"/>
      </g>
     </g>
    </g>
    <g id="xtick_5">
     <g id="line2d_5">
      <g>
       <use style="stroke:#000000;stroke-width:0.8;" x="333.816347" xlink:href="#m9e13cf2331" y="307.584"/>
      </g>
     </g>
     <g id="text_5">
      <!-- 80 -->
      <g transform="translate(327.453847 322.182437)scale(0.1 -0.1)">
       <defs>
        <path d="M 31.78125 34.625 
Q 24.75 34.625 20.71875 30.859375 
Q 16.703125 27.09375 16.703125 20.515625 
Q 16.703125 13.921875 20.71875 10.15625 
Q 24.75 6.390625 31.78125 6.390625 
Q 38.8125 6.390625 42.859375 10.171875 
Q 46.921875 13.96875 46.921875 20.515625 
Q 46.921875 27.09375 42.890625 30.859375 
Q 38.875 34.625 31.78125 34.625 
z
M 21.921875 38.8125 
Q 15.578125 40.375 12.03125 44.71875 
Q 8.5 49.078125 8.5 55.328125 
Q 8.5 64.0625 14.71875 69.140625 
Q 20.953125 74.21875 31.78125 74.21875 
Q 42.671875 74.21875 48.875 69.140625 
Q 55.078125 64.0625 55.078125 55.328125 
Q 55.078125 49.078125 51.53125 44.71875 
Q 48 40.375 41.703125 38.8125 
Q 48.828125 37.15625 52.796875 32.3125 
Q 56.78125 27.484375 56.78125 20.515625 
Q 56.78125 9.90625 50.3125 4.234375 
Q 43.84375 -1.421875 31.78125 -1.421875 
Q 19.734375 -1.421875 13.25 4.234375 
Q 6.78125 9.90625 6.78125 20.515625 
Q 6.78125 27.484375 10.78125 32.3125 
Q 14.796875 37.15625 21.921875 38.8125 
z
M 18.3125 54.390625 
Q 18.3125 48.734375 21.84375 45.5625 
Q 25.390625 42.390625 31.78125 42.390625 
Q 38.140625 42.390625 41.71875 45.5625 
Q 45.3125 48.734375 45.3125 54.390625 
Q 45.3125 60.0625 41.71875 63.234375 
Q 38.140625 66.40625 31.78125 66.40625 
Q 25.390625 66.40625 21.84375 63.234375 
Q 18.3125 60.0625 18.3125 54.390625 
z
" id="DejaVuSans-56"/>
       </defs>
       <use xlink:href="#DejaVuSans-56"/>
       <use x="63.623047" xlink:href="#DejaVuSans-48"/>
      </g>
     </g>
    </g>
    <g id="xtick_6">
     <g id="line2d_6">
      <g>
       <use style="stroke:#000000;stroke-width:0.8;" x="398.812252" xlink:href="#m9e13cf2331" y="307.584"/>
      </g>
     </g>
     <g id="text_6">
      <!-- 100 -->
      <g transform="translate(389.268502 322.182437)scale(0.1 -0.1)">
       <defs>
        <path d="M 12.40625 8.296875 
L 28.515625 8.296875 
L 28.515625 63.921875 
L 10.984375 60.40625 
L 10.984375 69.390625 
L 28.421875 72.90625 
L 38.28125 72.90625 
L 38.28125 8.296875 
L 54.390625 8.296875 
L 54.390625 0 
L 12.40625 0 
z
" id="DejaVuSans-49"/>
       </defs>
       <use xlink:href="#DejaVuSans-49"/>
       <use x="63.623047" xlink:href="#DejaVuSans-48"/>
       <use x="127.246094" xlink:href="#DejaVuSans-48"/>
      </g>
     </g>
    </g>
    <g id="text_7">
     <!-- Time (days) -->
     <g transform="translate(206.633437 335.860562)scale(0.1 -0.1)">
      <defs>
       <path d="M -0.296875 72.90625 
L 61.375 72.90625 
L 61.375 64.59375 
L 35.5 64.59375 
L 35.5 0 
L 25.59375 0 
L 25.59375 64.59375 
L -0.296875 64.59375 
z
" id="DejaVuSans-84"/>
       <path d="M 9.421875 54.6875 
L 18.40625 54.6875 
L 18.40625 0 
L 9.421875 0 
z
M 9.421875 75.984375 
L 18.40625 75.984375 
L 18.40625 64.59375 
L 9.421875 64.59375 
z
" id="DejaVuSans-105"/>
       <path d="M 52 44.1875 
Q 55.375 50.25 60.0625 53.125 
Q 64.75 56 71.09375 56 
Q 79.640625 56 84.28125 50.015625 
Q 88.921875 44.046875 88.921875 33.015625 
L 88.921875 0 
L 79.890625 0 
L 79.890625 32.71875 
Q 79.890625 40.578125 77.09375 44.375 
Q 74.3125 48.1875 68.609375 48.1875 
Q 61.625 48.1875 57.5625 43.546875 
Q 53.515625 38.921875 53.515625 30.90625 
L 53.515625 0 
L 44.484375 0 
L 44.484375 32.71875 
Q 44.484375 40.625 41.703125 44.40625 
Q 38.921875 48.1875 33.109375 48.1875 
Q 26.21875 48.1875 22.15625 43.53125 
Q 18.109375 38.875 18.109375 30.90625 
L 18.109375 0 
L 9.078125 0 
L 9.078125 54.6875 
L 18.109375 54.6875 
L 18.109375 46.1875 
Q 21.1875 51.21875 25.484375 53.609375 
Q 29.78125 56 35.6875 56 
Q 41.65625 56 45.828125 52.96875 
Q 50 49.953125 52 44.1875 
z
" id="DejaVuSans-109"/>
       <path d="M 56.203125 29.59375 
L 56.203125 25.203125 
L 14.890625 25.203125 
Q 15.484375 15.921875 20.484375 11.0625 
Q 25.484375 6.203125 34.421875 6.203125 
Q 39.59375 6.203125 44.453125 7.46875 
Q 49.3125 8.734375 54.109375 11.28125 
L 54.109375 2.78125 
Q 49.265625 0.734375 44.1875 -0.34375 
Q 39.109375 -1.421875 33.890625 -1.421875 
Q 20.796875 -1.421875 13.15625 6.1875 
Q 5.515625 13.8125 5.515625 26.8125 
Q 5.515625 40.234375 12.765625 48.109375 
Q 20.015625 56 32.328125 56 
Q 43.359375 56 49.78125 48.890625 
Q 56.203125 41.796875 56.203125 29.59375 
z
M 47.21875 32.234375 
Q 47.125 39.59375 43.09375 43.984375 
Q 39.0625 48.390625 32.421875 48.390625 
Q 24.90625 48.390625 20.390625 44.140625 
Q 15.875 39.890625 15.1875 32.171875 
z
" id="DejaVuSans-101"/>
       <path id="DejaVuSans-32"/>
       <path d="M 31 75.875 
Q 24.46875 64.65625 21.28125 53.65625 
Q 18.109375 42.671875 18.109375 31.390625 
Q 18.109375 20.125 21.3125 9.0625 
Q 24.515625 -2 31 -13.1875 
L 23.1875 -13.1875 
Q 15.875 -1.703125 12.234375 9.375 
Q 8.59375 20.453125 8.59375 31.390625 
Q 8.59375 42.28125 12.203125 53.3125 
Q 15.828125 64.359375 23.1875 75.875 
z
" id="DejaVuSans-40"/>
       <path d="M 45.40625 46.390625 
L 45.40625 75.984375 
L 54.390625 75.984375 
L 54.390625 0 
L 45.40625 0 
L 45.40625 8.203125 
Q 42.578125 3.328125 38.25 0.953125 
Q 33.9375 -1.421875 27.875 -1.421875 
Q 17.96875 -1.421875 11.734375 6.484375 
Q 5.515625 14.40625 5.515625 27.296875 
Q 5.515625 40.1875 11.734375 48.09375 
Q 17.96875 56 27.875 56 
Q 33.9375 56 38.25 53.625 
Q 42.578125 51.265625 45.40625 46.390625 
z
M 14.796875 27.296875 
Q 14.796875 17.390625 18.875 11.75 
Q 22.953125 6.109375 30.078125 6.109375 
Q 37.203125 6.109375 41.296875 11.75 
Q 45.40625 17.390625 45.40625 27.296875 
Q 45.40625 37.203125 41.296875 42.84375 
Q 37.203125 48.484375 30.078125 48.484375 
Q 22.953125 48.484375 18.875 42.84375 
Q 14.796875 37.203125 14.796875 27.296875 
z
" id="DejaVuSans-100"/>
       <path d="M 34.28125 27.484375 
Q 23.390625 27.484375 19.1875 25 
Q 14.984375 22.515625 14.984375 16.5 
Q 14.984375 11.71875 18.140625 8.90625 
Q 21.296875 6.109375 26.703125 6.109375 
Q 34.1875 6.109375 38.703125 11.40625 
Q 43.21875 16.703125 43.21875 25.484375 
L 43.21875 27.484375 
z
M 52.203125 31.203125 
L 52.203125 0 
L 43.21875 0 
L 43.21875 8.296875 
Q 40.140625 3.328125 35.546875 0.953125 
Q 30.953125 -1.421875 24.3125 -1.421875 
Q 15.921875 -1.421875 10.953125 3.296875 
Q 6 8.015625 6 15.921875 
Q 6 25.140625 12.171875 29.828125 
Q 18.359375 34.515625 30.609375 34.515625 
L 43.21875 34.515625 
L 43.21875 35.40625 
Q 43.21875 41.609375 39.140625 45 
Q 35.0625 48.390625 27.6875 48.390625 
Q 23 48.390625 18.546875 47.265625 
Q 14.109375 46.140625 10.015625 43.890625 
L 10.015625 52.203125 
Q 14.9375 54.109375 19.578125 55.046875 
Q 24.21875 56 28.609375 56 
Q 40.484375 56 46.34375 49.84375 
Q 52.203125 43.703125 52.203125 31.203125 
z
" id="DejaVuSans-97"/>
       <path d="M 32.171875 -5.078125 
Q 28.375 -14.84375 24.75 -17.8125 
Q 21.140625 -20.796875 15.09375 -20.796875 
L 7.90625 -20.796875 
L 7.90625 -13.28125 
L 13.1875 -13.28125 
Q 16.890625 -13.28125 18.9375 -11.515625 
Q 21 -9.765625 23.484375 -3.21875 
L 25.09375 0.875 
L 2.984375 54.6875 
L 12.5 54.6875 
L 29.59375 11.921875 
L 46.6875 54.6875 
L 56.203125 54.6875 
z
" id="DejaVuSans-121"/>
       <path d="M 44.28125 53.078125 
L 44.28125 44.578125 
Q 40.484375 46.53125 36.375 47.5 
Q 32.28125 48.484375 27.875 48.484375 
Q 21.1875 48.484375 17.84375 46.4375 
Q 14.5 44.390625 14.5 40.28125 
Q 14.5 37.15625 16.890625 35.375 
Q 19.28125 33.59375 26.515625 31.984375 
L 29.59375 31.296875 
Q 39.15625 29.25 43.1875 25.515625 
Q 47.21875 21.78125 47.21875 15.09375 
Q 47.21875 7.46875 41.1875 3.015625 
Q 35.15625 -1.421875 24.609375 -1.421875 
Q 20.21875 -1.421875 15.453125 -0.5625 
Q 10.6875 0.296875 5.421875 2 
L 5.421875 11.28125 
Q 10.40625 8.6875 15.234375 7.390625 
Q 20.0625 6.109375 24.8125 6.109375 
Q 31.15625 6.109375 34.5625 8.28125 
Q 37.984375 10.453125 37.984375 14.40625 
Q 37.984375 18.0625 35.515625 20.015625 
Q 33.0625 21.96875 24.703125 23.78125 
L 21.578125 24.515625 
Q 13.234375 26.265625 9.515625 29.90625 
Q 5.8125 33.546875 5.8125 39.890625 
Q 5.8125 47.609375 11.28125 51.796875 
Q 16.75 56 26.8125 56 
Q 31.78125 56 36.171875 55.265625 
Q 40.578125 54.546875 44.28125 53.078125 
z
" id="DejaVuSans-115"/>
       <path d="M 8.015625 75.875 
L 15.828125 75.875 
Q 23.140625 64.359375 26.78125 53.3125 
Q 30.421875 42.28125 30.421875 31.390625 
Q 30.421875 20.453125 26.78125 9.375 
Q 23.140625 -1.703125 15.828125 -13.1875 
L 8.015625 -13.1875 
Q 14.5 -2 17.703125 9.0625 
Q 20.90625 20.125 20.90625 31.390625 
Q 20.90625 42.671875 17.703125 53.65625 
Q 14.5 64.65625 8.015625 75.875 
z
" id="DejaVuSans-41"/>
      </defs>
      <use xlink:href="#DejaVuSans-84"/>
      <use x="57.958984" xlink:href="#DejaVuSans-105"/>
      <use x="85.742188" xlink:href="#DejaVuSans-109"/>
      <use x="183.154297" xlink:href="#DejaVuSans-101"/>
      <use x="244.677734" xlink:href="#DejaVuSans-32"/>
      <use x="276.464844" xlink:href="#DejaVuSans-40"/>
      <use x="315.478516" xlink:href="#DejaVuSans-100"/>
      <use x="378.955078" xlink:href="#DejaVuSans-97"/>
      <use x="440.234375" xlink:href="#DejaVuSans-121"/>
      <use x="499.414062" xlink:href="#DejaVuSans-115"/>
      <use x="551.513672" xlink:href="#DejaVuSans-41"/>
     </g>
    </g>
   </g>
   <g id="matplotlib.axis_2">
    <g id="ytick_1">
     <g id="line2d_7">
      <defs>
       <path d="M 0 0 
L -3.5 0 
" id="m755891b10b" style="stroke:#000000;stroke-width:0.8;"/>
      </defs>
      <g>
       <use style="stroke:#000000;stroke-width:0.8;" x="57.6" xlink:href="#m755891b10b" y="291.022417"/>
      </g>
     </g>
     <g id="text_8">
      <!-- 0 -->
      <g transform="translate(44.2375 294.821636)scale(0.1 -0.1)">
       <use xlink:href="#DejaVuSans-48"/>
      </g>
     </g>
    </g>
    <g id="ytick_2">
     <g id="line2d_8">
      <g>
       <use style="stroke:#000000;stroke-width:0.8;" x="57.6" xlink:href="#m755891b10b" y="240.567609"/>
      </g>
     </g>
     <g id="text_9">
      <!-- 1000 -->
      <g transform="translate(25.15 244.366828)scale(0.1 -0.1)">
       <use xlink:href="#DejaVuSans-49"/>
       <use x="63.623047" xlink:href="#DejaVuSans-48"/>
       <use x="127.246094" xlink:href="#DejaVuSans-48"/>
       <use x="190.869141" xlink:href="#DejaVuSans-48"/>
      </g>
     </g>
    </g>
    <g id="ytick_3">
     <g id="line2d_9">
      <g>
       <use style="stroke:#000000;stroke-width:0.8;" x="57.6" xlink:href="#m755891b10b" y="190.112801"/>
      </g>
     </g>
     <g id="text_10">
      <!-- 2000 -->
      <g transform="translate(25.15 193.912019)scale(0.1 -0.1)">
       <use xlink:href="#DejaVuSans-50"/>
       <use x="63.623047" xlink:href="#DejaVuSans-48"/>
       <use x="127.246094" xlink:href="#DejaVuSans-48"/>
       <use x="190.869141" xlink:href="#DejaVuSans-48"/>
      </g>
     </g>
    </g>
    <g id="ytick_4">
     <g id="line2d_10">
      <g>
       <use style="stroke:#000000;stroke-width:0.8;" x="57.6" xlink:href="#m755891b10b" y="139.657992"/>
      </g>
     </g>
     <g id="text_11">
      <!-- 3000 -->
      <g transform="translate(25.15 143.457211)scale(0.1 -0.1)">
       <defs>
        <path d="M 40.578125 39.3125 
Q 47.65625 37.796875 51.625 33 
Q 55.609375 28.21875 55.609375 21.1875 
Q 55.609375 10.40625 48.1875 4.484375 
Q 40.765625 -1.421875 27.09375 -1.421875 
Q 22.515625 -1.421875 17.65625 -0.515625 
Q 12.796875 0.390625 7.625 2.203125 
L 7.625 11.71875 
Q 11.71875 9.328125 16.59375 8.109375 
Q 21.484375 6.890625 26.8125 6.890625 
Q 36.078125 6.890625 40.9375 10.546875 
Q 45.796875 14.203125 45.796875 21.1875 
Q 45.796875 27.640625 41.28125 31.265625 
Q 36.765625 34.90625 28.71875 34.90625 
L 20.21875 34.90625 
L 20.21875 43.015625 
L 29.109375 43.015625 
Q 36.375 43.015625 40.234375 45.921875 
Q 44.09375 48.828125 44.09375 54.296875 
Q 44.09375 59.90625 40.109375 62.90625 
Q 36.140625 65.921875 28.71875 65.921875 
Q 24.65625 65.921875 20.015625 65.03125 
Q 15.375 64.15625 9.8125 62.3125 
L 9.8125 71.09375 
Q 15.4375 72.65625 20.34375 73.4375 
Q 25.25 74.21875 29.59375 74.21875 
Q 40.828125 74.21875 47.359375 69.109375 
Q 53.90625 64.015625 53.90625 55.328125 
Q 53.90625 49.265625 50.4375 45.09375 
Q 46.96875 40.921875 40.578125 39.3125 
z
" id="DejaVuSans-51"/>
       </defs>
       <use xlink:href="#DejaVuSans-51"/>
       <use x="63.623047" xlink:href="#DejaVuSans-48"/>
       <use x="127.246094" xlink:href="#DejaVuSans-48"/>
       <use x="190.869141" xlink:href="#DejaVuSans-48"/>
      </g>
     </g>
    </g>
    <g id="ytick_5">
     <g id="line2d_11">
      <g>
       <use style="stroke:#000000;stroke-width:0.8;" x="57.6" xlink:href="#m755891b10b" y="89.203184"/>
      </g>
     </g>
     <g id="text_12">
      <!-- 4000 -->
      <g transform="translate(25.15 93.002403)scale(0.1 -0.1)">
       <use xlink:href="#DejaVuSans-52"/>
       <use x="63.623047" xlink:href="#DejaVuSans-48"/>
       <use x="127.246094" xlink:href="#DejaVuSans-48"/>
       <use x="190.869141" xlink:href="#DejaVuSans-48"/>
      </g>
     </g>
    </g>
    <g id="text_13">
     <!-- Density -->
     <g transform="translate(19.070312 193.536594)rotate(-90)scale(0.1 -0.1)">
      <defs>
       <path d="M 19.671875 64.796875 
L 19.671875 8.109375 
L 31.59375 8.109375 
Q 46.6875 8.109375 53.6875 14.9375 
Q 60.6875 21.78125 60.6875 36.53125 
Q 60.6875 51.171875 53.6875 57.984375 
Q 46.6875 64.796875 31.59375 64.796875 
z
M 9.8125 72.90625 
L 30.078125 72.90625 
Q 51.265625 72.90625 61.171875 64.09375 
Q 71.09375 55.28125 71.09375 36.53125 
Q 71.09375 17.671875 61.125 8.828125 
Q 51.171875 0 30.078125 0 
L 9.8125 0 
z
" id="DejaVuSans-68"/>
       <path d="M 54.890625 33.015625 
L 54.890625 0 
L 45.90625 0 
L 45.90625 32.71875 
Q 45.90625 40.484375 42.875 44.328125 
Q 39.84375 48.1875 33.796875 48.1875 
Q 26.515625 48.1875 22.3125 43.546875 
Q 18.109375 38.921875 18.109375 30.90625 
L 18.109375 0 
L 9.078125 0 
L 9.078125 54.6875 
L 18.109375 54.6875 
L 18.109375 46.1875 
Q 21.34375 51.125 25.703125 53.5625 
Q 30.078125 56 35.796875 56 
Q 45.21875 56 50.046875 50.171875 
Q 54.890625 44.34375 54.890625 33.015625 
z
" id="DejaVuSans-110"/>
       <path d="M 18.3125 70.21875 
L 18.3125 54.6875 
L 36.8125 54.6875 
L 36.8125 47.703125 
L 18.3125 47.703125 
L 18.3125 18.015625 
Q 18.3125 11.328125 20.140625 9.421875 
Q 21.96875 7.515625 27.59375 7.515625 
L 36.8125 7.515625 
L 36.8125 0 
L 27.59375 0 
Q 17.1875 0 13.234375 3.875 
Q 9.28125 7.765625 9.28125 18.015625 
L 9.28125 47.703125 
L 2.6875 47.703125 
L 2.6875 54.6875 
L 9.28125 54.6875 
L 9.28125 70.21875 
z
" id="DejaVuSans-116"/>
      </defs>
      <use xlink:href="#DejaVuSans-68"/>
      <use x="77.001953" xlink:href="#DejaVuSans-101"/>
      <use x="138.525391" xlink:href="#DejaVuSans-110"/>
      <use x="201.904297" xlink:href="#DejaVuSans-115"/>
      <use x="254.003906" xlink:href="#DejaVuSans-105"/>
      <use x="281.787109" xlink:href="#DejaVuSans-116"/>
      <use x="320.996094" xlink:href="#DejaVuSans-121"/>
     </g>
    </g>
   </g>
   <g id="line2d_12">
    <path clip-path="url(#p1b18637551)" d="M 73.832727 290.517869 
L 74.807666 290.02196 
L 75.457625 289.423912 
L 76.107584 288.46479 
L 76.757543 286.914688 
L 77.407502 284.437792 
L 78.057461 280.603986 
L 78.70742 274.643239 
L 79.357379 265.327969 
L 80.007338 251.335398 
L 80.657297 232.875404 
L 81.307256 209.649844 
L 83.257133 138.898838 
L 84.232072 117.903847 
L 84.557052 117.314225 
L 84.882031 112.350555 
L 85.207011 112.501044 
L 85.85697 110.542516 
L 86.506929 93.866667 
L 86.831908 88.974823 
L 87.156888 87.302169 
L 87.481867 82.113533 
L 87.806847 93.940549 
L 88.131826 96.696588 
L 88.781785 108.961767 
L 89.106765 124.325491 
L 89.431744 118.745904 
L 89.756724 117.422842 
L 90.081704 121.690213 
L 90.406683 119.96589 
L 90.731663 112.500832 
L 91.381622 103.774938 
L 91.706601 103.777778 
L 92.68154 88.202746 
L 93.006519 75.86605 
L 93.331499 84.462603 
L 93.656478 86.318438 
L 93.981458 108.251157 
L 94.306437 105.59896 
L 94.631417 101.000334 
L 95.281376 90.046396 
L 95.931335 86.10347 
L 96.256314 82.348041 
L 96.581294 76.188272 
L 96.906274 80.014781 
L 97.231253 92.64541 
L 97.556233 86.057882 
L 97.881212 84.409258 
L 98.206192 92.368927 
L 98.531171 106.545858 
L 98.856151 98.239828 
L 99.50611 77.8704 
L 99.831089 88.224934 
L 100.481048 78.881018 
L 100.806028 69.53309 
L 101.131007 78.834079 
L 101.455987 83.746758 
L 101.780966 86.562395 
L 102.105946 92.916188 
L 102.430925 93.146226 
L 102.755905 79.881904 
L 103.080885 72.544653 
L 103.405864 72.873758 
L 103.730844 74.650845 
L 104.380803 79.582277 
L 104.705782 75.753595 
L 105.030762 70.045992 
L 105.355741 119.588377 
L 106.0057 106.497833 
L 106.33068 105.161406 
L 106.655659 103.060182 
L 106.980639 97.351321 
L 107.305618 94.866265 
L 107.630598 97.792893 
L 108.280557 116.371554 
L 108.605536 104.347087 
L 108.930516 98.716297 
L 109.255495 89.789788 
L 109.580475 87.620305 
L 109.905455 89.345728 
L 110.555414 98.245115 
L 110.880393 101.120755 
L 111.530352 81.662888 
L 111.855332 78.710737 
L 112.180311 81.666443 
L 112.505291 87.615336 
L 113.15525 58.331394 
L 113.480229 76.838568 
L 113.805209 70.660544 
L 114.130188 85.244829 
L 114.455168 84.105425 
L 114.780147 87.556862 
L 115.105127 82.307779 
L 115.430106 81.811859 
L 115.755086 96.825734 
L 116.405045 82.917965 
L 116.730025 84.586591 
L 117.055004 75.938961 
L 117.704963 93.831105 
L 118.354922 89.13808 
L 118.679902 81.173397 
L 119.004881 84.147812 
L 119.329861 80.551036 
L 119.65484 88.847076 
L 119.97982 86.818641 
L 120.304799 102.693758 
L 120.629779 98.126691 
L 120.954758 97.829176 
L 121.279738 91.668896 
L 121.604717 90.171436 
L 121.929697 90.40759 
L 122.254676 83.673851 
L 122.579656 97.757123 
L 122.904636 97.521385 
L 123.229615 96.354926 
L 123.554595 92.912548 
L 123.879574 85.57085 
L 124.204554 81.625011 
L 124.529533 93.925543 
L 124.854513 92.536557 
L 125.179492 110.216505 
L 125.504472 94.100054 
L 125.829451 90.358218 
L 126.47941 105.605852 
L 126.80439 97.049219 
L 127.129369 95.419756 
L 127.454349 97.358091 
L 127.779328 101.838985 
L 128.104308 96.536492 
L 128.429287 105.449494 
L 128.754267 109.879834 
L 129.079247 109.666861 
L 129.404226 100.052769 
L 129.729206 101.830065 
L 130.054185 106.255179 
L 130.379165 108.892198 
L 130.704144 93.357349 
L 131.029124 88.319967 
L 131.354103 86.101916 
L 131.679083 80.780308 
L 132.004062 102.090312 
L 132.329042 106.855302 
L 132.654021 108.088029 
L 132.979001 101.245256 
L 133.30398 99.708847 
L 133.62896 106.195583 
L 133.953939 99.908575 
L 134.278919 100.702568 
L 134.603898 96.731814 
L 134.928878 96.373554 
L 135.253857 94.892906 
L 135.578837 87.423908 
L 135.903817 84.222156 
L 136.228796 94.523695 
L 136.553776 98.046662 
L 136.878755 108.215849 
L 137.203735 100.743932 
L 137.528714 104.858605 
L 137.853694 92.268339 
L 138.178673 86.01783 
L 138.503653 73.196461 
L 138.828632 73.007974 
L 139.153612 65.085033 
L 139.478591 63.71338 
L 139.803571 76.968451 
L 140.12855 77.784215 
L 140.45353 66.954998 
L 141.103489 78.021798 
L 141.428468 90.306179 
L 141.753448 92.757215 
L 142.078428 88.839963 
L 142.403407 92.311559 
L 142.728387 91.8633 
L 143.053366 93.864344 
L 143.703325 106.757122 
L 144.028305 95.846796 
L 144.353284 79.337368 
L 144.678264 79.567432 
L 145.003243 103.300711 
L 145.328223 95.51285 
L 145.653202 94.491816 
L 145.978182 86.006045 
L 146.303161 84.881516 
L 146.95312 71.936419 
L 147.2781 56.04027 
L 147.603079 65.833749 
L 147.928059 59.787287 
L 148.253038 62.664991 
L 148.578018 63.002883 
L 148.902998 64.737612 
L 149.227977 82.176193 
L 149.552957 81.051872 
L 149.877936 90.341757 
L 150.202916 90.905521 
L 150.527895 90.648227 
L 151.177854 82.985407 
L 151.502834 84.653005 
L 151.827813 96.926344 
L 152.152793 98.24825 
L 152.477772 100.939232 
L 153.452711 91.489908 
L 153.77769 106.267581 
L 154.10267 98.365803 
L 154.427649 105.202467 
L 154.752629 104.676447 
L 155.077609 102.819408 
L 155.402588 98.789075 
L 155.727568 96.932538 
L 156.052547 103.889183 
L 156.377527 98.138594 
L 156.702506 97.690598 
L 157.027486 96.40599 
L 157.352465 119.426629 
L 157.677445 114.150968 
L 158.002424 121.343039 
L 158.327404 110.507502 
L 158.652383 112.626337 
L 159.302342 96.622232 
L 159.627322 89.409455 
L 159.952301 97.094259 
L 160.277281 89.131903 
L 160.60226 90.382495 
L 160.92724 84.054829 
L 161.252219 88.006378 
L 161.577199 87.152854 
L 161.902179 95.627381 
L 162.227158 84.369611 
L 162.877117 85.378664 
L 163.202097 113.44937 
L 163.527076 103.515144 
L 163.852056 106.098638 
L 164.177035 101.425061 
L 164.826994 109.466807 
L 165.151974 94.304817 
L 165.476953 98.055117 
L 165.801933 93.199853 
L 166.126912 95.352666 
L 166.451892 96.507047 
L 166.776871 99.471453 
L 167.75181 79.675926 
L 168.07679 80.625957 
L 168.401769 99.348907 
L 168.726749 89.898944 
L 169.051728 85.554981 
L 169.376708 122.412294 
L 169.701687 112.39666 
L 170.026667 115.646314 
L 170.351646 114.679663 
L 170.676626 105.106498 
L 171.001605 101.116734 
L 171.326585 90.685722 
L 171.651564 90.809636 
L 171.976544 90.523131 
L 172.301523 102.877944 
L 172.626503 104.650368 
L 172.951482 96.289198 
L 173.601441 101.100266 
L 173.926421 110.120242 
L 174.2514 99.940669 
L 174.57638 102.55652 
L 174.90136 98.561123 
L 175.226339 89.31457 
L 175.551319 86.072152 
L 175.876298 90.715841 
L 176.201278 85.279713 
L 176.526257 86.301327 
L 176.851237 92.805645 
L 177.176216 96.804364 
L 177.501196 102.767612 
L 177.826175 91.662622 
L 178.151155 86.876032 
L 178.476134 78.886085 
L 178.801114 77.844567 
L 179.126093 78.206164 
L 179.451073 82.379023 
L 179.776052 95.868847 
L 180.101032 85.375236 
L 180.426011 92.538841 
L 180.750991 109.448325 
L 181.075971 110.941977 
L 181.40095 103.017199 
L 181.72593 103.256254 
L 182.375889 96.466688 
L 182.700868 98.094692 
L 183.025848 100.902832 
L 183.350827 94.555213 
L 183.675807 91.770053 
L 184.000786 86.99214 
L 184.325766 79.315735 
L 184.650745 85.711429 
L 184.975725 83.396089 
L 185.300704 79.266244 
L 185.625684 77.435545 
L 185.950663 79.021858 
L 186.275643 74.166605 
L 186.600622 77.668749 
L 186.925602 78.876262 
L 187.250581 70.761372 
L 187.575561 78.844743 
L 188.22552 106.612302 
L 188.5505 96.605185 
L 188.875479 96.21224 
L 189.200459 99.719923 
L 189.525438 88.107222 
L 190.500377 77.616621 
L 190.825356 77.262832 
L 191.150336 82.415065 
L 191.475315 75.205569 
L 192.125274 87.220505 
L 192.450254 94.909579 
L 192.775233 89.19498 
L 193.100213 92.524978 
L 193.425192 88.936302 
L 193.750172 83.865153 
L 194.075152 85.246865 
L 194.400131 78.976807 
L 194.725111 59.799983 
L 195.05009 86.67002 
L 195.37507 91.002937 
L 195.700049 99.956752 
L 196.025029 94.381468 
L 196.350008 102.340466 
L 196.674988 104.566781 
L 196.999967 116.031933 
L 197.324947 107.62781 
L 197.649926 107.853724 
L 198.299885 93.991801 
L 198.624865 95.924436 
L 198.949844 101.962927 
L 199.274824 97.432546 
L 199.599803 98.284274 
L 199.924783 111.183194 
L 200.249762 100.150479 
L 200.574742 103.847819 
L 200.899722 94.613352 
L 201.224701 95.10311 
L 201.549681 89.758954 
L 201.87466 79.062862 
L 202.19964 75.321075 
L 202.524619 80.768282 
L 202.849599 99.335353 
L 203.174578 99.916513 
L 203.499558 92.325985 
L 203.824537 99.928529 
L 204.149517 101.763219 
L 204.474496 98.471069 
L 204.799476 97.642476 
L 205.124455 90.119973 
L 205.449435 92.017467 
L 205.774414 92.829339 
L 206.099394 95.900135 
L 206.749353 79.489291 
L 207.074333 86.763026 
L 207.399312 86.960688 
L 207.724292 100.579512 
L 208.049271 91.834869 
L 208.374251 89.911061 
L 208.69923 99.065114 
L 209.02421 86.225931 
L 209.674169 79.593572 
L 209.999148 78.083688 
L 210.324128 77.735365 
L 210.649107 83.373804 
L 210.974087 80.28252 
L 211.299066 75.910954 
L 211.624046 82.744748 
L 211.949025 85.546464 
L 212.274005 85.840876 
L 212.598984 78.49196 
L 212.923964 76.016515 
L 213.248943 72.123548 
L 213.898903 83.933786 
L 214.223882 94.066706 
L 214.548862 94.083536 
L 214.873841 103.141144 
L 215.198821 104.434319 
L 215.5238 114.585219 
L 215.84878 110.306 
L 216.173759 110.224247 
L 216.498739 110.02183 
L 216.823718 103.589756 
L 217.148698 101.355462 
L 217.473677 101.673537 
L 217.798657 102.207377 
L 218.123636 101.974529 
L 218.448616 96.049318 
L 218.773595 92.239557 
L 219.098575 89.937589 
L 219.423554 90.360091 
L 219.748534 79.8532 
L 220.073514 96.80828 
L 220.398493 98.46098 
L 220.723473 103.258045 
L 221.048452 93.329196 
L 221.373432 93.900985 
L 221.698411 103.24238 
L 222.023391 103.400594 
L 222.34837 94.749456 
L 222.67335 99.351904 
L 222.998329 89.252469 
L 223.323309 89.979584 
L 224.298247 107.290706 
L 224.623227 108.737812 
L 224.948206 113.973691 
L 225.273186 116.850478 
L 225.598165 116.97251 
L 225.923145 119.131317 
L 226.248124 117.457337 
L 226.898084 110.12469 
L 227.548043 89.631695 
L 227.873022 94.009501 
L 228.198002 91.422979 
L 228.847961 83.703065 
L 229.17294 90.535157 
L 229.49792 87.557968 
L 229.822899 91.393878 
L 230.147879 80.841707 
L 230.472858 75.580478 
L 230.797838 73.020955 
L 231.122817 82.315948 
L 231.447797 75.258135 
L 231.772776 73.01038 
L 232.097756 77.780835 
L 232.422735 69.718765 
L 232.747715 70.219246 
L 233.072695 73.161246 
L 233.722654 80.935603 
L 234.047633 72.732259 
L 234.372613 67.398666 
L 234.697592 70.391352 
L 235.022572 78.489944 
L 235.347551 78.837929 
L 235.672531 72.040497 
L 235.99751 75.469198 
L 236.32249 75.142625 
L 236.647469 91.135251 
L 236.972449 93.041502 
L 237.297428 89.323776 
L 237.622408 92.640079 
L 237.947387 98.479187 
L 238.272367 97.118662 
L 238.597346 82.472316 
L 239.247305 79.882011 
L 239.572285 76.860574 
L 239.897265 88.624671 
L 240.222244 85.331547 
L 240.547224 84.875309 
L 240.872203 78.695668 
L 241.197183 74.935882 
L 241.522162 78.241225 
L 241.847142 90.385858 
L 242.172121 85.840761 
L 242.497101 87.197977 
L 242.82208 86.393102 
L 243.14706 95.900116 
L 243.472039 83.097274 
L 244.121998 75.643631 
L 244.446978 56.586682 
L 244.771957 57.485117 
L 245.096937 57.926287 
L 245.421916 64.187484 
L 245.746896 55.558331 
L 246.071876 53.568 
L 246.396855 62.595559 
L 246.721835 80.165488 
L 247.046814 81.547976 
L 247.371794 68.024601 
L 247.696773 76.706225 
L 248.021753 78.144485 
L 248.346732 78.374014 
L 248.671712 80.951536 
L 248.996691 67.727839 
L 249.321671 70.664846 
L 249.64665 75.049023 
L 249.97163 89.097665 
L 250.296609 87.359321 
L 250.621589 94.944776 
L 250.946568 85.547027 
L 251.596527 91.720924 
L 251.921507 87.389733 
L 252.246486 85.478811 
L 252.571466 88.575195 
L 252.896446 87.941544 
L 253.221425 90.337187 
L 253.546405 107.560185 
L 253.871384 103.438828 
L 254.196364 107.236663 
L 254.521343 106.52791 
L 254.846323 91.959454 
L 255.171302 85.735695 
L 255.496282 85.933969 
L 255.821261 83.061914 
L 256.146241 74.404326 
L 256.47122 79.203028 
L 256.7962 78.029947 
L 257.121179 75.436583 
L 257.446159 82.321593 
L 257.771138 94.433461 
L 258.096118 98.700125 
L 258.421097 108.601856 
L 259.071057 97.193495 
L 259.396036 96.902721 
L 259.721016 91.068946 
L 260.045995 103.226347 
L 260.370975 96.616003 
L 260.695954 96.647872 
L 261.020934 86.069445 
L 261.345913 88.269891 
L 261.670893 75.216633 
L 262.320852 95.994669 
L 262.645831 97.069004 
L 262.970811 84.746201 
L 263.29579 95.754805 
L 263.62077 88.354181 
L 263.945749 98.66511 
L 264.270729 93.886695 
L 264.595708 81.46889 
L 264.920688 81.062611 
L 265.245667 78.204382 
L 265.570647 71.641302 
L 266.545586 82.895006 
L 266.870565 80.883112 
L 267.195545 80.306159 
L 267.520524 83.356649 
L 268.170483 61.475138 
L 268.495463 98.43463 
L 268.820442 92.770842 
L 269.145422 96.871862 
L 269.795381 86.325687 
L 270.12036 91.008729 
L 270.44534 88.101142 
L 270.770319 97.871883 
L 271.095299 90.910075 
L 271.745258 101.235583 
L 272.070238 104.329799 
L 272.395217 103.622136 
L 272.720197 107.80226 
L 273.045176 103.835937 
L 273.370156 105.865791 
L 273.695135 94.70527 
L 274.020115 94.32725 
L 274.345094 87.364713 
L 274.670074 87.154737 
L 274.995053 88.938632 
L 275.320033 84.087503 
L 275.645012 94.122923 
L 275.969992 92.393737 
L 276.294971 85.248636 
L 276.619951 100.388096 
L 276.94493 92.774659 
L 277.26991 91.544795 
L 277.919869 84.571462 
L 278.244848 70.568376 
L 278.569828 78.2084 
L 278.894808 94.873126 
L 279.219787 91.84254 
L 279.544767 90.373745 
L 279.869746 80.103651 
L 280.194726 88.256743 
L 280.519705 89.475972 
L 280.844685 92.984716 
L 281.169664 91.450517 
L 281.494644 102.491563 
L 281.819623 103.86888 
L 282.144603 96.894006 
L 282.469582 94.997297 
L 282.794562 89.516696 
L 283.119541 90.115243 
L 283.444521 91.731654 
L 284.09448 88.714037 
L 284.419459 82.54656 
L 285.069419 89.004392 
L 285.394398 85.92503 
L 285.719378 77.557555 
L 286.044357 75.190422 
L 286.369337 76.632874 
L 286.694316 87.200227 
L 287.019296 89.446443 
L 287.344275 82.847156 
L 287.669255 82.784374 
L 287.994234 74.723802 
L 288.319214 87.574529 
L 288.644193 89.345233 
L 288.969173 98.452881 
L 289.294152 113.282108 
L 289.619132 99.746278 
L 289.944111 102.700887 
L 290.269091 103.710371 
L 290.59407 97.488451 
L 290.91905 101.434079 
L 291.244029 96.740395 
L 291.569009 94.494335 
L 291.893989 82.861386 
L 292.543948 86.374576 
L 292.868927 81.831947 
L 293.193907 79.288263 
L 293.518886 74.347777 
L 293.843866 76.972207 
L 294.168845 73.836412 
L 294.493825 74.06715 
L 294.818804 81.002574 
L 295.143784 82.641045 
L 295.468763 87.357012 
L 295.793743 74.781485 
L 296.118722 79.458296 
L 296.443702 72.007764 
L 296.768681 71.070186 
L 297.093661 73.71683 
L 297.41864 105.700282 
L 297.74362 90.059666 
L 298.0686 88.163529 
L 298.718559 82.853526 
L 299.043538 97.20692 
L 299.368518 98.007146 
L 299.693497 97.769012 
L 300.018477 109.883603 
L 300.343456 107.469773 
L 300.668436 115.27772 
L 300.993415 95.671951 
L 301.643374 84.557561 
L 301.968354 82.595702 
L 302.293333 85.842266 
L 302.618313 83.468685 
L 302.943292 91.811312 
L 303.268272 84.086687 
L 303.918231 92.279719 
L 304.24321 86.460152 
L 304.56819 75.225145 
L 304.89317 83.585341 
L 305.218149 77.766629 
L 305.543129 84.955843 
L 305.868108 69.924788 
L 306.193088 82.548918 
L 306.843047 68.988696 
L 307.168026 69.418331 
L 307.493006 63.896889 
L 307.817985 69.960122 
L 308.142965 71.650454 
L 309.117903 101.827848 
L 309.442883 105.753043 
L 309.767862 127.533231 
L 310.742801 107.338616 
L 311.067781 104.619002 
L 311.39276 94.996909 
L 311.71774 93.004753 
L 312.042719 99.161156 
L 312.367699 121.428931 
L 312.692678 112.984579 
L 313.017658 110.167251 
L 313.342637 109.224866 
L 313.667617 104.17762 
L 313.992596 95.984325 
L 314.317576 95.423979 
L 314.642555 100.320723 
L 314.967535 87.602345 
L 315.292514 89.400602 
L 315.617494 86.728951 
L 315.942473 76.88958 
L 317.242391 98.080466 
L 317.567371 96.998173 
L 318.21733 89.721223 
L 318.54231 96.729038 
L 318.867289 87.215922 
L 319.192269 85.826814 
L 319.517248 81.35409 
L 319.842228 82.884213 
L 320.167207 81.970039 
L 320.492187 68.79865 
L 320.817166 65.152672 
L 321.142146 74.05096 
L 321.467125 67.559538 
L 321.792105 79.724431 
L 322.117084 84.535911 
L 322.442064 77.512859 
L 322.767043 83.346389 
L 323.417002 72.788948 
L 323.741982 72.06757 
L 324.066962 67.937466 
L 324.391941 73.688242 
L 324.716921 82.857189 
L 325.0419 88.167852 
L 325.36688 85.2606 
L 325.691859 79.46408 
L 326.341818 87.900545 
L 326.991777 94.738007 
L 327.316757 89.876197 
L 327.641736 89.075949 
L 327.966716 98.673166 
L 328.291695 94.885345 
L 328.616675 87.950399 
L 328.941654 96.38664 
L 329.266634 98.189741 
L 329.591613 122.106312 
L 329.916593 116.221956 
L 330.566552 95.331318 
L 330.891532 98.044252 
L 331.216511 102.504383 
L 331.541491 98.339361 
L 331.86647 117.669892 
L 332.19145 106.920358 
L 332.516429 117.154796 
L 332.841409 106.045565 
L 333.166388 91.094916 
L 333.491368 98.789578 
L 333.816347 95.321524 
L 334.141327 93.968101 
L 334.466306 98.201718 
L 334.791286 111.730077 
L 335.116265 115.500189 
L 335.441245 111.062318 
L 335.766224 110.584621 
L 336.091204 121.991008 
L 336.416183 109.854532 
L 336.741163 113.514383 
L 337.066143 102.59351 
L 337.391122 97.814125 
L 337.716102 86.42493 
L 338.041081 81.581348 
L 338.366061 90.85173 
L 338.69104 94.163585 
L 339.01602 94.06508 
L 339.340999 83.711093 
L 339.665979 85.771302 
L 339.990958 89.709791 
L 340.315938 91.734601 
L 340.640917 89.411063 
L 341.290876 91.080232 
L 341.615856 88.51345 
L 341.940835 98.811368 
L 342.265815 114.141379 
L 343.565733 85.490187 
L 343.890713 83.381795 
L 344.215692 72.73469 
L 344.540672 70.274914 
L 345.190631 75.525289 
L 345.51561 72.903326 
L 345.84059 77.870782 
L 346.165569 86.230391 
L 346.490549 81.841393 
L 346.815528 87.740474 
L 347.465487 75.30958 
L 347.790467 87.826109 
L 348.440426 97.494202 
L 348.765405 111.943874 
L 349.415364 93.018332 
L 349.740344 96.424675 
L 350.065324 96.772942 
L 350.390303 89.158705 
L 350.715283 98.234342 
L 351.040262 87.0904 
L 351.365242 91.345726 
L 351.690221 80.088816 
L 352.015201 87.724513 
L 352.34018 71.40846 
L 352.66516 77.194146 
L 352.990139 75.406967 
L 353.640098 101.69676 
L 353.965078 94.221225 
L 354.290057 90.997328 
L 354.615037 100.520198 
L 354.940016 102.086407 
L 355.914955 94.222762 
L 356.239934 75.489015 
L 356.564914 68.860675 
L 356.889894 84.583144 
L 357.214873 87.224123 
L 357.539853 77.16585 
L 357.864832 82.388392 
L 358.189812 90.786574 
L 358.514791 88.090839 
L 358.839771 80.556886 
L 359.16475 93.511041 
L 359.48973 89.619067 
L 359.814709 83.274367 
L 360.139689 79.443385 
L 360.464668 79.988989 
L 360.789648 79.984387 
L 361.114627 86.800787 
L 361.439607 88.39102 
L 361.764586 84.838089 
L 362.089566 87.294566 
L 362.414545 85.761303 
L 362.739525 74.299435 
L 363.064505 85.602627 
L 363.389484 87.724239 
L 363.714464 82.552281 
L 364.039443 82.578277 
L 364.364423 95.002339 
L 364.689402 91.262806 
L 365.014382 92.839764 
L 365.339361 90.955142 
L 365.664341 85.178183 
L 365.98932 88.833866 
L 366.3143 103.588645 
L 366.639279 95.548499 
L 366.964259 91.35241 
L 367.289238 106.487925 
L 368.264177 87.766859 
L 368.589156 85.156106 
L 368.914136 93.468989 
L 369.239115 90.54389 
L 369.564095 85.944681 
L 369.889075 88.316441 
L 370.214054 99.825303 
L 370.539034 97.937378 
L 370.864013 88.672203 
L 371.188993 93.601002 
L 371.838952 69.555662 
L 372.163931 77.455362 
L 372.488911 80.290059 
L 372.81389 76.902502 
L 373.13887 70.066864 
L 373.463849 75.237462 
L 373.788829 87.316207 
L 374.113808 77.737212 
L 374.438788 75.178568 
L 374.763767 67.395103 
L 375.413726 89.134066 
L 375.738706 86.546964 
L 376.063686 89.823717 
L 376.388665 84.269746 
L 376.713645 86.308508 
L 377.038624 97.552631 
L 377.363604 90.514383 
L 377.688583 92.635968 
L 378.013563 91.877743 
L 378.663522 95.589981 
L 378.988501 91.938128 
L 379.313481 104.009281 
L 379.63846 91.229312 
L 379.96344 90.794483 
L 380.288419 92.048532 
L 380.938378 87.48186 
L 381.263358 82.325553 
L 381.588337 81.804383 
L 381.913317 97.037924 
L 382.238296 99.087236 
L 382.563276 95.366066 
L 382.888256 113.538284 
L 383.538215 96.71297 
L 383.863194 82.641318 
L 384.188174 73.75997 
L 384.513153 82.624074 
L 384.838133 76.563864 
L 385.163112 86.945686 
L 385.488092 79.774847 
L 385.813071 90.862234 
L 386.138051 92.000022 
L 386.78801 95.64562 
L 387.112989 91.207619 
L 387.437969 88.587822 
L 387.762948 91.731039 
L 388.087928 87.1655 
L 388.412907 104.857483 
L 388.737887 96.712086 
L 389.712826 87.243954 
L 390.037805 94.44813 
L 390.362785 56.842714 
L 390.687764 62.083473 
L 391.012744 72.486955 
L 391.337723 90.365248 
L 391.662703 83.83187 
L 391.987682 82.532289 
L 392.312662 77.907721 
L 392.637641 85.748839 
L 392.962621 98.820895 
L 393.2876 99.655372 
L 393.61258 92.514444 
L 393.937559 94.183483 
L 394.587518 87.076955 
L 394.912498 73.383518 
L 395.237477 85.544461 
L 395.887437 89.709854 
L 396.212416 82.068191 
L 396.537396 89.277214 
L 396.862375 102.968752 
L 397.187355 99.679473 
L 398.162293 80.042824 
L 398.487273 90.95485 
L 398.487273 90.95485 
" style="fill:none;stroke:#1f77b4;stroke-linecap:square;stroke-width:1.5;"/>
   </g>
   <g id="line2d_13">
    <path clip-path="url(#p1b18637551)" d="M 73.832727 291.022417 
L 79.0324 291.215644 
L 86.831908 291.681948 
L 105.030762 291.980629 
L 105.680721 291.908932 
L 107.955577 291.962147 
L 108.930516 291.991568 
L 110.555414 292.012717 
L 112.83027 292.093203 
L 113.805209 292.113762 
L 115.105127 292.109295 
L 128.104308 292.259611 
L 129.404226 292.265065 
L 135.253857 292.36834 
L 136.553776 292.377217 
L 137.528714 292.367486 
L 139.478591 292.513548 
L 140.45353 292.511588 
L 144.028305 292.475925 
L 144.678264 292.53317 
L 145.328223 292.493111 
L 153.452711 292.610716 
L 154.427649 292.577706 
L 169.051728 292.84958 
L 169.376708 292.721674 
L 170.676626 292.812061 
L 173.601441 292.868719 
L 174.57638 292.874579 
L 177.176216 292.92687 
L 177.826175 292.957068 
L 179.451073 293.018642 
L 180.101032 293.014484 
L 181.72593 292.960901 
L 186.600622 293.130313 
L 194.075152 293.184859 
L 195.05009 293.191153 
L 197.974906 293.159384 
L 198.949844 293.170856 
L 200.249762 293.200005 
L 201.224701 293.233414 
L 202.524619 293.317276 
L 203.174578 293.238941 
L 203.824537 293.247538 
L 206.099394 293.304955 
L 207.399312 293.363071 
L 208.049271 293.34866 
L 213.573923 293.49742 
L 216.498739 293.383032 
L 217.798657 293.445626 
L 225.923145 293.448264 
L 226.898084 293.498672 
L 227.873022 293.602063 
L 232.747715 293.779657 
L 235.347551 293.772052 
L 236.32249 293.805679 
L 236.972449 293.71318 
L 237.947387 293.689141 
L 242.82208 293.824797 
L 243.14706 293.776768 
L 244.446978 294.008363 
L 255.821261 294.011131 
L 256.47122 294.0415 
L 257.446159 294.04058 
L 258.421097 293.891536 
L 259.721016 294.020443 
L 260.045995 293.948193 
L 261.670893 294.144407 
L 262.645831 294.021598 
L 262.970811 294.099554 
L 263.29579 294.033612 
L 263.62077 294.086116 
L 264.270729 294.050827 
L 264.920688 294.134867 
L 267.195545 294.164288 
L 267.845504 294.22056 
L 268.170483 294.290118 
L 268.495463 294.066836 
L 269.795381 294.161085 
L 271.745258 294.08853 
L 273.370156 294.070786 
L 274.345094 294.206924 
L 281.169664 294.2686 
L 281.819623 294.194897 
L 282.794562 294.307537 
L 285.394398 294.343269 
L 286.369337 294.422621 
L 287.019296 294.341894 
L 287.994234 294.447253 
L 289.294152 294.19337 
L 289.619132 294.295816 
L 290.91905 294.298319 
L 293.518886 294.524701 
L 295.468763 294.462713 
L 295.793743 294.553593 
L 296.443702 294.565847 
L 297.093661 294.565749 
L 297.41864 294.342199 
L 298.0686 294.455025 
L 298.718559 294.500109 
L 299.368518 294.402697 
L 300.343456 294.337675 
L 300.668436 294.28618 
L 301.318395 294.440122 
L 302.618313 294.503935 
L 303.268272 294.505503 
L 304.24321 294.501079 
L 304.56819 294.584174 
L 305.543129 294.517032 
L 305.868108 294.624124 
L 306.193088 294.541566 
L 307.493006 294.687244 
L 309.442883 294.400667 
L 309.767862 294.230341 
L 311.71774 294.516002 
L 312.042719 294.46873 
L 312.367699 294.302636 
L 313.342637 294.414251 
L 315.292514 294.597725 
L 316.592432 294.629663 
L 317.567371 294.571901 
L 320.817166 294.822879 
L 322.117084 294.6899 
L 323.092023 294.758267 
L 324.391941 294.8037 
L 325.36688 294.724809 
L 326.016839 294.740621 
L 327.316757 294.704877 
L 329.266634 294.660668 
L 329.591613 294.465577 
L 331.216511 294.639434 
L 331.541491 294.679518 
L 331.86647 294.520893 
L 332.19145 294.611571 
L 332.516429 294.53143 
L 333.166388 294.744603 
L 333.816347 294.718832 
L 334.466306 294.701632 
L 335.116265 294.574017 
L 335.766224 294.62256 
L 336.091204 294.526542 
L 336.416183 294.632133 
L 336.741163 294.605189 
L 338.041081 294.86983 
L 338.69104 294.769844 
L 341.940835 294.783249 
L 342.265815 294.656521 
L 344.540672 295.032431 
L 347.140508 294.986727 
L 347.465487 295.032404 
L 348.765405 294.720971 
L 349.740344 294.849183 
L 351.365242 294.899409 
L 351.690221 294.994318 
L 352.015201 294.937392 
L 352.34018 295.068987 
L 354.940016 294.848661 
L 356.239934 295.080862 
L 356.564914 295.137211 
L 357.214873 295.005837 
L 357.539853 295.091626 
L 358.514791 295.02088 
L 358.839771 295.085172 
L 359.16475 294.975432 
L 360.789648 295.109585 
L 361.439607 295.040799 
L 362.739525 295.150333 
L 363.389484 295.050753 
L 364.039443 295.098638 
L 364.364423 295.0024 
L 365.98932 295.059568 
L 366.3143 294.93383 
L 366.964259 295.047168 
L 367.289238 294.923114 
L 368.589156 295.119987 
L 369.239115 295.07884 
L 369.889075 295.107551 
L 370.539034 295.037082 
L 371.838952 295.298177 
L 372.488911 295.21982 
L 373.463849 295.276162 
L 373.788829 295.178976 
L 374.763767 295.35669 
L 375.738706 295.214526 
L 377.363604 295.203145 
L 380.613399 295.257538 
L 381.588337 295.333143 
L 382.238296 295.189856 
L 382.563276 295.227618 
L 382.888256 295.074874 
L 384.838133 295.427266 
L 385.163112 295.341363 
L 385.488092 295.411118 
L 386.138051 295.279823 
L 387.762948 295.292692 
L 388.087928 295.336474 
L 388.412907 295.180153 
L 389.387846 295.321651 
L 390.687764 295.452836 
L 391.662703 295.276775 
L 392.637641 295.273173 
L 393.2876 295.154848 
L 394.262539 295.247251 
L 395.562457 295.300325 
L 397.512334 295.268686 
L 398.162293 295.387122 
L 398.487273 295.297523 
L 398.487273 295.297523 
" style="fill:none;stroke:#ff7f0e;stroke-linecap:square;stroke-width:1.5;"/>
   </g>
   <g id="patch_3">
    <path d="M 57.6 307.584 
L 57.6 41.472 
" style="fill:none;stroke:#000000;stroke-linecap:square;stroke-linejoin:miter;stroke-width:0.8;"/>
   </g>
   <g id="patch_4">
    <path d="M 414.72 307.584 
L 414.72 41.472 
" style="fill:none;stroke:#000000;stroke-linecap:square;stroke-linejoin:miter;stroke-width:0.8;"/>
   </g>
   <g id="patch_5">
    <path d="M 57.6 307.584 
L 414.72 307.584 
" style="fill:none;stroke:#000000;stroke-linecap:square;stroke-linejoin:miter;stroke-width:0.8;"/>
   </g>
   <g id="patch_6">
    <path d="M 57.6 41.472 
L 414.72 41.472 
" style="fill:none;stroke:#000000;stroke-linecap:square;stroke-linejoin:miter;stroke-width:0.8;"/>
   </g>
  </g>
 </g>
 <defs>
  <clipPath id="p1b18637551">
   <rect height="266.112" width="357.12" x="57.6" y="41.472"/>
  </clipPath>
 </defs>
</svg>
