<?xml version="1.0" encoding="utf-8" standalone="no"?>
<!DOCTYPE svg PUBLIC "-//W3C//DTD SVG 1.1//EN"
  "http://www.w3.org/Graphics/SVG/1.1/DTD/svg11.dtd">
<!-- Created with matplotlib (https://matplotlib.org/) -->
<svg height="345.6pt" version="1.1" viewBox="0 0 460.8 345.6" width="460.8pt" xmlns="http://www.w3.org/2000/svg" xmlns:xlink="http://www.w3.org/1999/xlink">
 <metadata>
  <rdf:RDF xmlns:cc="http://creativecommons.org/ns#" xmlns:dc="http://purl.org/dc/elements/1.1/" xmlns:rdf="http://www.w3.org/1999/02/22-rdf-syntax-ns#">
   <cc:Work>
    <dc:type rdf:resource="http://purl.org/dc/dcmitype/StillImage"/>
    <dc:date>2020-10-03T18:10:11.343976</dc:date>
    <dc:format>image/svg+xml</dc:format>
    <dc:creator>
     <cc:Agent>
      <dc:title>Matplotlib v3.3.2, https://matplotlib.org/</dc:title>
     </cc:Agent>
    </dc:creator>
   </cc:Work>
  </rdf:RDF>
 </metadata>
 <defs>
  <style type="text/css">*{stroke-linecap:butt;stroke-linejoin:round;}</style>
 </defs>
 <g id="figure_1">
  <g id="patch_1">
   <path d="M 0 345.6 
L 460.8 345.6 
L 460.8 0 
L 0 0 
z
" style="fill:#ffffff;"/>
  </g>
  <g id="axes_1">
   <g id="patch_2">
    <path d="M 57.6 307.584 
L 414.72 307.584 
L 414.72 41.472 
L 57.6 41.472 
z
" style="fill:#ffffff;"/>
   </g>
   <g id="matplotlib.axis_1">
    <g id="xtick_1">
     <g id="line2d_1">
      <defs>
       <path d="M 0 0 
L 0 3.5 
" id="m2da525ceb3" style="stroke:#000000;stroke-width:0.8;"/>
      </defs>
      <g>
       <use style="stroke:#000000;stroke-width:0.8;" x="73.832727" xlink:href="#m2da525ceb3" y="307.584"/>
      </g>
     </g>
     <g id="text_1">
      <!-- 0 -->
      <g transform="translate(70.651477 322.182437)scale(0.1 -0.1)">
       <defs>
        <path d="M 31.78125 66.40625 
Q 24.171875 66.40625 20.328125 58.90625 
Q 16.5 51.421875 16.5 36.375 
Q 16.5 21.390625 20.328125 13.890625 
Q 24.171875 6.390625 31.78125 6.390625 
Q 39.453125 6.390625 43.28125 13.890625 
Q 47.125 21.390625 47.125 36.375 
Q 47.125 51.421875 43.28125 58.90625 
Q 39.453125 66.40625 31.78125 66.40625 
z
M 31.78125 74.21875 
Q 44.046875 74.21875 50.515625 64.515625 
Q 56.984375 54.828125 56.984375 36.375 
Q 56.984375 17.96875 50.515625 8.265625 
Q 44.046875 -1.421875 31.78125 -1.421875 
Q 19.53125 -1.421875 13.0625 8.265625 
Q 6.59375 17.96875 6.59375 36.375 
Q 6.59375 54.828125 13.0625 64.515625 
Q 19.53125 74.21875 31.78125 74.21875 
z
" id="DejaVuSans-48"/>
       </defs>
       <use xlink:href="#DejaVuSans-48"/>
      </g>
     </g>
    </g>
    <g id="xtick_2">
     <g id="line2d_2">
      <g>
       <use style="stroke:#000000;stroke-width:0.8;" x="138.828632" xlink:href="#m2da525ceb3" y="307.584"/>
      </g>
     </g>
     <g id="text_2">
      <!-- 20 -->
      <g transform="translate(132.466132 322.182437)scale(0.1 -0.1)">
       <defs>
        <path d="M 19.1875 8.296875 
L 53.609375 8.296875 
L 53.609375 0 
L 7.328125 0 
L 7.328125 8.296875 
Q 12.9375 14.109375 22.625 23.890625 
Q 32.328125 33.6875 34.8125 36.53125 
Q 39.546875 41.84375 41.421875 45.53125 
Q 43.3125 49.21875 43.3125 52.78125 
Q 43.3125 58.59375 39.234375 62.25 
Q 35.15625 65.921875 28.609375 65.921875 
Q 23.96875 65.921875 18.8125 64.3125 
Q 13.671875 62.703125 7.8125 59.421875 
L 7.8125 69.390625 
Q 13.765625 71.78125 18.9375 73 
Q 24.125 74.21875 28.421875 74.21875 
Q 39.75 74.21875 46.484375 68.546875 
Q 53.21875 62.890625 53.21875 53.421875 
Q 53.21875 48.921875 51.53125 44.890625 
Q 49.859375 40.875 45.40625 35.40625 
Q 44.1875 33.984375 37.640625 27.21875 
Q 31.109375 20.453125 19.1875 8.296875 
z
" id="DejaVuSans-50"/>
       </defs>
       <use xlink:href="#DejaVuSans-50"/>
       <use x="63.623047" xlink:href="#DejaVuSans-48"/>
      </g>
     </g>
    </g>
    <g id="xtick_3">
     <g id="line2d_3">
      <g>
       <use style="stroke:#000000;stroke-width:0.8;" x="203.824537" xlink:href="#m2da525ceb3" y="307.584"/>
      </g>
     </g>
     <g id="text_3">
      <!-- 40 -->
      <g transform="translate(197.462037 322.182437)scale(0.1 -0.1)">
       <defs>
        <path d="M 37.796875 64.3125 
L 12.890625 25.390625 
L 37.796875 25.390625 
z
M 35.203125 72.90625 
L 47.609375 72.90625 
L 47.609375 25.390625 
L 58.015625 25.390625 
L 58.015625 17.1875 
L 47.609375 17.1875 
L 47.609375 0 
L 37.796875 0 
L 37.796875 17.1875 
L 4.890625 17.1875 
L 4.890625 26.703125 
z
" id="DejaVuSans-52"/>
       </defs>
       <use xlink:href="#DejaVuSans-52"/>
       <use x="63.623047" xlink:href="#DejaVuSans-48"/>
      </g>
     </g>
    </g>
    <g id="xtick_4">
     <g id="line2d_4">
      <g>
       <use style="stroke:#000000;stroke-width:0.8;" x="268.820442" xlink:href="#m2da525ceb3" y="307.584"/>
      </g>
     </g>
     <g id="text_4">
      <!-- 60 -->
      <g transform="translate(262.457942 322.182437)scale(0.1 -0.1)">
       <defs>
        <path d="M 33.015625 40.375 
Q 26.375 40.375 22.484375 35.828125 
Q 18.609375 31.296875 18.609375 23.390625 
Q 18.609375 15.53125 22.484375 10.953125 
Q 26.375 6.390625 33.015625 6.390625 
Q 39.65625 6.390625 43.53125 10.953125 
Q 47.40625 15.53125 47.40625 23.390625 
Q 47.40625 31.296875 43.53125 35.828125 
Q 39.65625 40.375 33.015625 40.375 
z
M 52.59375 71.296875 
L 52.59375 62.3125 
Q 48.875 64.0625 45.09375 64.984375 
Q 41.3125 65.921875 37.59375 65.921875 
Q 27.828125 65.921875 22.671875 59.328125 
Q 17.53125 52.734375 16.796875 39.40625 
Q 19.671875 43.65625 24.015625 45.921875 
Q 28.375 48.1875 33.59375 48.1875 
Q 44.578125 48.1875 50.953125 41.515625 
Q 57.328125 34.859375 57.328125 23.390625 
Q 57.328125 12.15625 50.6875 5.359375 
Q 44.046875 -1.421875 33.015625 -1.421875 
Q 20.359375 -1.421875 13.671875 8.265625 
Q 6.984375 17.96875 6.984375 36.375 
Q 6.984375 53.65625 15.1875 63.9375 
Q 23.390625 74.21875 37.203125 74.21875 
Q 40.921875 74.21875 44.703125 73.484375 
Q 48.484375 72.75 52.59375 71.296875 
z
" id="DejaVuSans-54"/>
       </defs>
       <use xlink:href="#DejaVuSans-54"/>
       <use x="63.623047" xlink:href="#DejaVuSans-48"/>
      </g>
     </g>
    </g>
    <g id="xtick_5">
     <g id="line2d_5">
      <g>
       <use style="stroke:#000000;stroke-width:0.8;" x="333.816347" xlink:href="#m2da525ceb3" y="307.584"/>
      </g>
     </g>
     <g id="text_5">
      <!-- 80 -->
      <g transform="translate(327.453847 322.182437)scale(0.1 -0.1)">
       <defs>
        <path d="M 31.78125 34.625 
Q 24.75 34.625 20.71875 30.859375 
Q 16.703125 27.09375 16.703125 20.515625 
Q 16.703125 13.921875 20.71875 10.15625 
Q 24.75 6.390625 31.78125 6.390625 
Q 38.8125 6.390625 42.859375 10.171875 
Q 46.921875 13.96875 46.921875 20.515625 
Q 46.921875 27.09375 42.890625 30.859375 
Q 38.875 34.625 31.78125 34.625 
z
M 21.921875 38.8125 
Q 15.578125 40.375 12.03125 44.71875 
Q 8.5 49.078125 8.5 55.328125 
Q 8.5 64.0625 14.71875 69.140625 
Q 20.953125 74.21875 31.78125 74.21875 
Q 42.671875 74.21875 48.875 69.140625 
Q 55.078125 64.0625 55.078125 55.328125 
Q 55.078125 49.078125 51.53125 44.71875 
Q 48 40.375 41.703125 38.8125 
Q 48.828125 37.15625 52.796875 32.3125 
Q 56.78125 27.484375 56.78125 20.515625 
Q 56.78125 9.90625 50.3125 4.234375 
Q 43.84375 -1.421875 31.78125 -1.421875 
Q 19.734375 -1.421875 13.25 4.234375 
Q 6.78125 9.90625 6.78125 20.515625 
Q 6.78125 27.484375 10.78125 32.3125 
Q 14.796875 37.15625 21.921875 38.8125 
z
M 18.3125 54.390625 
Q 18.3125 48.734375 21.84375 45.5625 
Q 25.390625 42.390625 31.78125 42.390625 
Q 38.140625 42.390625 41.71875 45.5625 
Q 45.3125 48.734375 45.3125 54.390625 
Q 45.3125 60.0625 41.71875 63.234375 
Q 38.140625 66.40625 31.78125 66.40625 
Q 25.390625 66.40625 21.84375 63.234375 
Q 18.3125 60.0625 18.3125 54.390625 
z
" id="DejaVuSans-56"/>
       </defs>
       <use xlink:href="#DejaVuSans-56"/>
       <use x="63.623047" xlink:href="#DejaVuSans-48"/>
      </g>
     </g>
    </g>
    <g id="xtick_6">
     <g id="line2d_6">
      <g>
       <use style="stroke:#000000;stroke-width:0.8;" x="398.812252" xlink:href="#m2da525ceb3" y="307.584"/>
      </g>
     </g>
     <g id="text_6">
      <!-- 100 -->
      <g transform="translate(389.268502 322.182437)scale(0.1 -0.1)">
       <defs>
        <path d="M 12.40625 8.296875 
L 28.515625 8.296875 
L 28.515625 63.921875 
L 10.984375 60.40625 
L 10.984375 69.390625 
L 28.421875 72.90625 
L 38.28125 72.90625 
L 38.28125 8.296875 
L 54.390625 8.296875 
L 54.390625 0 
L 12.40625 0 
z
" id="DejaVuSans-49"/>
       </defs>
       <use xlink:href="#DejaVuSans-49"/>
       <use x="63.623047" xlink:href="#DejaVuSans-48"/>
       <use x="127.246094" xlink:href="#DejaVuSans-48"/>
      </g>
     </g>
    </g>
    <g id="text_7">
     <!-- Time (days) -->
     <g transform="translate(206.633437 335.860562)scale(0.1 -0.1)">
      <defs>
       <path d="M -0.296875 72.90625 
L 61.375 72.90625 
L 61.375 64.59375 
L 35.5 64.59375 
L 35.5 0 
L 25.59375 0 
L 25.59375 64.59375 
L -0.296875 64.59375 
z
" id="DejaVuSans-84"/>
       <path d="M 9.421875 54.6875 
L 18.40625 54.6875 
L 18.40625 0 
L 9.421875 0 
z
M 9.421875 75.984375 
L 18.40625 75.984375 
L 18.40625 64.59375 
L 9.421875 64.59375 
z
" id="DejaVuSans-105"/>
       <path d="M 52 44.1875 
Q 55.375 50.25 60.0625 53.125 
Q 64.75 56 71.09375 56 
Q 79.640625 56 84.28125 50.015625 
Q 88.921875 44.046875 88.921875 33.015625 
L 88.921875 0 
L 79.890625 0 
L 79.890625 32.71875 
Q 79.890625 40.578125 77.09375 44.375 
Q 74.3125 48.1875 68.609375 48.1875 
Q 61.625 48.1875 57.5625 43.546875 
Q 53.515625 38.921875 53.515625 30.90625 
L 53.515625 0 
L 44.484375 0 
L 44.484375 32.71875 
Q 44.484375 40.625 41.703125 44.40625 
Q 38.921875 48.1875 33.109375 48.1875 
Q 26.21875 48.1875 22.15625 43.53125 
Q 18.109375 38.875 18.109375 30.90625 
L 18.109375 0 
L 9.078125 0 
L 9.078125 54.6875 
L 18.109375 54.6875 
L 18.109375 46.1875 
Q 21.1875 51.21875 25.484375 53.609375 
Q 29.78125 56 35.6875 56 
Q 41.65625 56 45.828125 52.96875 
Q 50 49.953125 52 44.1875 
z
" id="DejaVuSans-109"/>
       <path d="M 56.203125 29.59375 
L 56.203125 25.203125 
L 14.890625 25.203125 
Q 15.484375 15.921875 20.484375 11.0625 
Q 25.484375 6.203125 34.421875 6.203125 
Q 39.59375 6.203125 44.453125 7.46875 
Q 49.3125 8.734375 54.109375 11.28125 
L 54.109375 2.78125 
Q 49.265625 0.734375 44.1875 -0.34375 
Q 39.109375 -1.421875 33.890625 -1.421875 
Q 20.796875 -1.421875 13.15625 6.1875 
Q 5.515625 13.8125 5.515625 26.8125 
Q 5.515625 40.234375 12.765625 48.109375 
Q 20.015625 56 32.328125 56 
Q 43.359375 56 49.78125 48.890625 
Q 56.203125 41.796875 56.203125 29.59375 
z
M 47.21875 32.234375 
Q 47.125 39.59375 43.09375 43.984375 
Q 39.0625 48.390625 32.421875 48.390625 
Q 24.90625 48.390625 20.390625 44.140625 
Q 15.875 39.890625 15.1875 32.171875 
z
" id="DejaVuSans-101"/>
       <path id="DejaVuSans-32"/>
       <path d="M 31 75.875 
Q 24.46875 64.65625 21.28125 53.65625 
Q 18.109375 42.671875 18.109375 31.390625 
Q 18.109375 20.125 21.3125 9.0625 
Q 24.515625 -2 31 -13.1875 
L 23.1875 -13.1875 
Q 15.875 -1.703125 12.234375 9.375 
Q 8.59375 20.453125 8.59375 31.390625 
Q 8.59375 42.28125 12.203125 53.3125 
Q 15.828125 64.359375 23.1875 75.875 
z
" id="DejaVuSans-40"/>
       <path d="M 45.40625 46.390625 
L 45.40625 75.984375 
L 54.390625 75.984375 
L 54.390625 0 
L 45.40625 0 
L 45.40625 8.203125 
Q 42.578125 3.328125 38.25 0.953125 
Q 33.9375 -1.421875 27.875 -1.421875 
Q 17.96875 -1.421875 11.734375 6.484375 
Q 5.515625 14.40625 5.515625 27.296875 
Q 5.515625 40.1875 11.734375 48.09375 
Q 17.96875 56 27.875 56 
Q 33.9375 56 38.25 53.625 
Q 42.578125 51.265625 45.40625 46.390625 
z
M 14.796875 27.296875 
Q 14.796875 17.390625 18.875 11.75 
Q 22.953125 6.109375 30.078125 6.109375 
Q 37.203125 6.109375 41.296875 11.75 
Q 45.40625 17.390625 45.40625 27.296875 
Q 45.40625 37.203125 41.296875 42.84375 
Q 37.203125 48.484375 30.078125 48.484375 
Q 22.953125 48.484375 18.875 42.84375 
Q 14.796875 37.203125 14.796875 27.296875 
z
" id="DejaVuSans-100"/>
       <path d="M 34.28125 27.484375 
Q 23.390625 27.484375 19.1875 25 
Q 14.984375 22.515625 14.984375 16.5 
Q 14.984375 11.71875 18.140625 8.90625 
Q 21.296875 6.109375 26.703125 6.109375 
Q 34.1875 6.109375 38.703125 11.40625 
Q 43.21875 16.703125 43.21875 25.484375 
L 43.21875 27.484375 
z
M 52.203125 31.203125 
L 52.203125 0 
L 43.21875 0 
L 43.21875 8.296875 
Q 40.140625 3.328125 35.546875 0.953125 
Q 30.953125 -1.421875 24.3125 -1.421875 
Q 15.921875 -1.421875 10.953125 3.296875 
Q 6 8.015625 6 15.921875 
Q 6 25.140625 12.171875 29.828125 
Q 18.359375 34.515625 30.609375 34.515625 
L 43.21875 34.515625 
L 43.21875 35.40625 
Q 43.21875 41.609375 39.140625 45 
Q 35.0625 48.390625 27.6875 48.390625 
Q 23 48.390625 18.546875 47.265625 
Q 14.109375 46.140625 10.015625 43.890625 
L 10.015625 52.203125 
Q 14.9375 54.109375 19.578125 55.046875 
Q 24.21875 56 28.609375 56 
Q 40.484375 56 46.34375 49.84375 
Q 52.203125 43.703125 52.203125 31.203125 
z
" id="DejaVuSans-97"/>
       <path d="M 32.171875 -5.078125 
Q 28.375 -14.84375 24.75 -17.8125 
Q 21.140625 -20.796875 15.09375 -20.796875 
L 7.90625 -20.796875 
L 7.90625 -13.28125 
L 13.1875 -13.28125 
Q 16.890625 -13.28125 18.9375 -11.515625 
Q 21 -9.765625 23.484375 -3.21875 
L 25.09375 0.875 
L 2.984375 54.6875 
L 12.5 54.6875 
L 29.59375 11.921875 
L 46.6875 54.6875 
L 56.203125 54.6875 
z
" id="DejaVuSans-121"/>
       <path d="M 44.28125 53.078125 
L 44.28125 44.578125 
Q 40.484375 46.53125 36.375 47.5 
Q 32.28125 48.484375 27.875 48.484375 
Q 21.1875 48.484375 17.84375 46.4375 
Q 14.5 44.390625 14.5 40.28125 
Q 14.5 37.15625 16.890625 35.375 
Q 19.28125 33.59375 26.515625 31.984375 
L 29.59375 31.296875 
Q 39.15625 29.25 43.1875 25.515625 
Q 47.21875 21.78125 47.21875 15.09375 
Q 47.21875 7.46875 41.1875 3.015625 
Q 35.15625 -1.421875 24.609375 -1.421875 
Q 20.21875 -1.421875 15.453125 -0.5625 
Q 10.6875 0.296875 5.421875 2 
L 5.421875 11.28125 
Q 10.40625 8.6875 15.234375 7.390625 
Q 20.0625 6.109375 24.8125 6.109375 
Q 31.15625 6.109375 34.5625 8.28125 
Q 37.984375 10.453125 37.984375 14.40625 
Q 37.984375 18.0625 35.515625 20.015625 
Q 33.0625 21.96875 24.703125 23.78125 
L 21.578125 24.515625 
Q 13.234375 26.265625 9.515625 29.90625 
Q 5.8125 33.546875 5.8125 39.890625 
Q 5.8125 47.609375 11.28125 51.796875 
Q 16.75 56 26.8125 56 
Q 31.78125 56 36.171875 55.265625 
Q 40.578125 54.546875 44.28125 53.078125 
z
" id="DejaVuSans-115"/>
       <path d="M 8.015625 75.875 
L 15.828125 75.875 
Q 23.140625 64.359375 26.78125 53.3125 
Q 30.421875 42.28125 30.421875 31.390625 
Q 30.421875 20.453125 26.78125 9.375 
Q 23.140625 -1.703125 15.828125 -13.1875 
L 8.015625 -13.1875 
Q 14.5 -2 17.703125 9.0625 
Q 20.90625 20.125 20.90625 31.390625 
Q 20.90625 42.671875 17.703125 53.65625 
Q 14.5 64.65625 8.015625 75.875 
z
" id="DejaVuSans-41"/>
      </defs>
      <use xlink:href="#DejaVuSans-84"/>
      <use x="57.958984" xlink:href="#DejaVuSans-105"/>
      <use x="85.742188" xlink:href="#DejaVuSans-109"/>
      <use x="183.154297" xlink:href="#DejaVuSans-101"/>
      <use x="244.677734" xlink:href="#DejaVuSans-32"/>
      <use x="276.464844" xlink:href="#DejaVuSans-40"/>
      <use x="315.478516" xlink:href="#DejaVuSans-100"/>
      <use x="378.955078" xlink:href="#DejaVuSans-97"/>
      <use x="440.234375" xlink:href="#DejaVuSans-121"/>
      <use x="499.414062" xlink:href="#DejaVuSans-115"/>
      <use x="551.513672" xlink:href="#DejaVuSans-41"/>
     </g>
    </g>
   </g>
   <g id="matplotlib.axis_2">
    <g id="ytick_1">
     <g id="line2d_7">
      <defs>
       <path d="M 0 0 
L -3.5 0 
" id="mc4de964a1d" style="stroke:#000000;stroke-width:0.8;"/>
      </defs>
      <g>
       <use style="stroke:#000000;stroke-width:0.8;" x="57.6" xlink:href="#mc4de964a1d" y="291.562964"/>
      </g>
     </g>
     <g id="text_8">
      <!-- 0 -->
      <g transform="translate(44.2375 295.362183)scale(0.1 -0.1)">
       <use xlink:href="#DejaVuSans-48"/>
      </g>
     </g>
    </g>
    <g id="ytick_2">
     <g id="line2d_8">
      <g>
       <use style="stroke:#000000;stroke-width:0.8;" x="57.6" xlink:href="#mc4de964a1d" y="244.236671"/>
      </g>
     </g>
     <g id="text_9">
      <!-- 1000 -->
      <g transform="translate(25.15 248.03589)scale(0.1 -0.1)">
       <use xlink:href="#DejaVuSans-49"/>
       <use x="63.623047" xlink:href="#DejaVuSans-48"/>
       <use x="127.246094" xlink:href="#DejaVuSans-48"/>
       <use x="190.869141" xlink:href="#DejaVuSans-48"/>
      </g>
     </g>
    </g>
    <g id="ytick_3">
     <g id="line2d_9">
      <g>
       <use style="stroke:#000000;stroke-width:0.8;" x="57.6" xlink:href="#mc4de964a1d" y="196.910379"/>
      </g>
     </g>
     <g id="text_10">
      <!-- 2000 -->
      <g transform="translate(25.15 200.709598)scale(0.1 -0.1)">
       <use xlink:href="#DejaVuSans-50"/>
       <use x="63.623047" xlink:href="#DejaVuSans-48"/>
       <use x="127.246094" xlink:href="#DejaVuSans-48"/>
       <use x="190.869141" xlink:href="#DejaVuSans-48"/>
      </g>
     </g>
    </g>
    <g id="ytick_4">
     <g id="line2d_10">
      <g>
       <use style="stroke:#000000;stroke-width:0.8;" x="57.6" xlink:href="#mc4de964a1d" y="149.584086"/>
      </g>
     </g>
     <g id="text_11">
      <!-- 3000 -->
      <g transform="translate(25.15 153.383305)scale(0.1 -0.1)">
       <defs>
        <path d="M 40.578125 39.3125 
Q 47.65625 37.796875 51.625 33 
Q 55.609375 28.21875 55.609375 21.1875 
Q 55.609375 10.40625 48.1875 4.484375 
Q 40.765625 -1.421875 27.09375 -1.421875 
Q 22.515625 -1.421875 17.65625 -0.515625 
Q 12.796875 0.390625 7.625 2.203125 
L 7.625 11.71875 
Q 11.71875 9.328125 16.59375 8.109375 
Q 21.484375 6.890625 26.8125 6.890625 
Q 36.078125 6.890625 40.9375 10.546875 
Q 45.796875 14.203125 45.796875 21.1875 
Q 45.796875 27.640625 41.28125 31.265625 
Q 36.765625 34.90625 28.71875 34.90625 
L 20.21875 34.90625 
L 20.21875 43.015625 
L 29.109375 43.015625 
Q 36.375 43.015625 40.234375 45.921875 
Q 44.09375 48.828125 44.09375 54.296875 
Q 44.09375 59.90625 40.109375 62.90625 
Q 36.140625 65.921875 28.71875 65.921875 
Q 24.65625 65.921875 20.015625 65.03125 
Q 15.375 64.15625 9.8125 62.3125 
L 9.8125 71.09375 
Q 15.4375 72.65625 20.34375 73.4375 
Q 25.25 74.21875 29.59375 74.21875 
Q 40.828125 74.21875 47.359375 69.109375 
Q 53.90625 64.015625 53.90625 55.328125 
Q 53.90625 49.265625 50.4375 45.09375 
Q 46.96875 40.921875 40.578125 39.3125 
z
" id="DejaVuSans-51"/>
       </defs>
       <use xlink:href="#DejaVuSans-51"/>
       <use x="63.623047" xlink:href="#DejaVuSans-48"/>
       <use x="127.246094" xlink:href="#DejaVuSans-48"/>
       <use x="190.869141" xlink:href="#DejaVuSans-48"/>
      </g>
     </g>
    </g>
    <g id="ytick_5">
     <g id="line2d_11">
      <g>
       <use style="stroke:#000000;stroke-width:0.8;" x="57.6" xlink:href="#mc4de964a1d" y="102.257794"/>
      </g>
     </g>
     <g id="text_12">
      <!-- 4000 -->
      <g transform="translate(25.15 106.057013)scale(0.1 -0.1)">
       <use xlink:href="#DejaVuSans-52"/>
       <use x="63.623047" xlink:href="#DejaVuSans-48"/>
       <use x="127.246094" xlink:href="#DejaVuSans-48"/>
       <use x="190.869141" xlink:href="#DejaVuSans-48"/>
      </g>
     </g>
    </g>
    <g id="ytick_6">
     <g id="line2d_12">
      <g>
       <use style="stroke:#000000;stroke-width:0.8;" x="57.6" xlink:href="#mc4de964a1d" y="54.931502"/>
      </g>
     </g>
     <g id="text_13">
      <!-- 5000 -->
      <g transform="translate(25.15 58.73072)scale(0.1 -0.1)">
       <defs>
        <path d="M 10.796875 72.90625 
L 49.515625 72.90625 
L 49.515625 64.59375 
L 19.828125 64.59375 
L 19.828125 46.734375 
Q 21.96875 47.46875 24.109375 47.828125 
Q 26.265625 48.1875 28.421875 48.1875 
Q 40.625 48.1875 47.75 41.5 
Q 54.890625 34.8125 54.890625 23.390625 
Q 54.890625 11.625 47.5625 5.09375 
Q 40.234375 -1.421875 26.90625 -1.421875 
Q 22.3125 -1.421875 17.546875 -0.640625 
Q 12.796875 0.140625 7.71875 1.703125 
L 7.71875 11.625 
Q 12.109375 9.234375 16.796875 8.0625 
Q 21.484375 6.890625 26.703125 6.890625 
Q 35.15625 6.890625 40.078125 11.328125 
Q 45.015625 15.765625 45.015625 23.390625 
Q 45.015625 31 40.078125 35.4375 
Q 35.15625 39.890625 26.703125 39.890625 
Q 22.75 39.890625 18.8125 39.015625 
Q 14.890625 38.140625 10.796875 36.28125 
z
" id="DejaVuSans-53"/>
       </defs>
       <use xlink:href="#DejaVuSans-53"/>
       <use x="63.623047" xlink:href="#DejaVuSans-48"/>
       <use x="127.246094" xlink:href="#DejaVuSans-48"/>
       <use x="190.869141" xlink:href="#DejaVuSans-48"/>
      </g>
     </g>
    </g>
    <g id="text_14">
     <!-- Density -->
     <g transform="translate(19.070312 193.536594)rotate(-90)scale(0.1 -0.1)">
      <defs>
       <path d="M 19.671875 64.796875 
L 19.671875 8.109375 
L 31.59375 8.109375 
Q 46.6875 8.109375 53.6875 14.9375 
Q 60.6875 21.78125 60.6875 36.53125 
Q 60.6875 51.171875 53.6875 57.984375 
Q 46.6875 64.796875 31.59375 64.796875 
z
M 9.8125 72.90625 
L 30.078125 72.90625 
Q 51.265625 72.90625 61.171875 64.09375 
Q 71.09375 55.28125 71.09375 36.53125 
Q 71.09375 17.671875 61.125 8.828125 
Q 51.171875 0 30.078125 0 
L 9.8125 0 
z
" id="DejaVuSans-68"/>
       <path d="M 54.890625 33.015625 
L 54.890625 0 
L 45.90625 0 
L 45.90625 32.71875 
Q 45.90625 40.484375 42.875 44.328125 
Q 39.84375 48.1875 33.796875 48.1875 
Q 26.515625 48.1875 22.3125 43.546875 
Q 18.109375 38.921875 18.109375 30.90625 
L 18.109375 0 
L 9.078125 0 
L 9.078125 54.6875 
L 18.109375 54.6875 
L 18.109375 46.1875 
Q 21.34375 51.125 25.703125 53.5625 
Q 30.078125 56 35.796875 56 
Q 45.21875 56 50.046875 50.171875 
Q 54.890625 44.34375 54.890625 33.015625 
z
" id="DejaVuSans-110"/>
       <path d="M 18.3125 70.21875 
L 18.3125 54.6875 
L 36.8125 54.6875 
L 36.8125 47.703125 
L 18.3125 47.703125 
L 18.3125 18.015625 
Q 18.3125 11.328125 20.140625 9.421875 
Q 21.96875 7.515625 27.59375 7.515625 
L 36.8125 7.515625 
L 36.8125 0 
L 27.59375 0 
Q 17.1875 0 13.234375 3.875 
Q 9.28125 7.765625 9.28125 18.015625 
L 9.28125 47.703125 
L 2.6875 47.703125 
L 2.6875 54.6875 
L 9.28125 54.6875 
L 9.28125 70.21875 
z
" id="DejaVuSans-116"/>
      </defs>
      <use xlink:href="#DejaVuSans-68"/>
      <use x="77.001953" xlink:href="#DejaVuSans-101"/>
      <use x="138.525391" xlink:href="#DejaVuSans-110"/>
      <use x="201.904297" xlink:href="#DejaVuSans-115"/>
      <use x="254.003906" xlink:href="#DejaVuSans-105"/>
      <use x="281.787109" xlink:href="#DejaVuSans-116"/>
      <use x="320.996094" xlink:href="#DejaVuSans-121"/>
     </g>
    </g>
   </g>
   <g id="line2d_13">
    <path clip-path="url(#peb2a57edc3)" d="M 73.832727 291.089701 
L 74.482686 290.770076 
L 75.132645 290.217284 
L 75.782604 289.25705 
L 76.432563 287.697322 
L 77.082523 284.996945 
L 77.732482 280.927752 
L 78.382441 273.41239 
L 79.0324 261.626363 
L 79.682359 245.013653 
L 80.332318 221.24036 
L 81.632236 177.215665 
L 82.932154 126.410937 
L 83.582113 133.290758 
L 84.232072 118.89665 
L 84.557052 97.312843 
L 84.882031 86.343189 
L 85.207011 104.323374 
L 85.85697 99.626057 
L 86.506929 95.224291 
L 86.831908 93.09082 
L 87.156888 98.547238 
L 87.481867 93.121769 
L 87.806847 98.712613 
L 88.131826 96.426274 
L 88.456806 105.731419 
L 88.781785 110.381337 
L 89.106765 104.874205 
L 89.431744 93.264206 
L 90.081704 95.564204 
L 90.406683 94.502983 
L 90.731663 99.005474 
L 91.056642 97.310328 
L 91.706601 106.222434 
L 92.031581 104.483271 
L 92.68154 99.277112 
L 93.006519 100.012363 
L 93.331499 110.366701 
L 93.981458 114.782618 
L 94.306437 115.667983 
L 94.631417 134.026268 
L 94.956396 127.548779 
L 95.281376 125.289118 
L 95.606355 118.060954 
L 95.931335 114.251049 
L 96.256314 114.251596 
L 96.581294 105.855625 
L 96.906274 125.26396 
L 97.231253 118.008387 
L 97.556233 117.718474 
L 97.881212 112.585902 
L 98.206192 93.690287 
L 98.531171 93.709909 
L 98.856151 87.698676 
L 99.18113 97.19282 
L 99.50611 96.985044 
L 99.831089 95.54893 
L 100.156069 84.361758 
L 100.481048 84.803584 
L 100.806028 89.347085 
L 101.131007 90.5217 
L 101.455987 89.155454 
L 101.780966 94.898706 
L 102.105946 88.257118 
L 102.430925 108.73768 
L 102.755905 110.999257 
L 103.080885 109.109754 
L 103.405864 103.83442 
L 103.730844 108.57991 
L 104.055823 110.761902 
L 104.380803 109.983438 
L 104.705782 118.282178 
L 105.355741 103.892542 
L 105.680721 104.827795 
L 106.0057 109.652436 
L 106.33068 103.673291 
L 106.655659 108.890258 
L 106.980639 101.329355 
L 107.305618 104.165729 
L 107.630598 98.048849 
L 107.955577 110.558572 
L 108.280557 110.507306 
L 108.605536 111.198073 
L 108.930516 96.970417 
L 109.255495 99.271257 
L 109.580475 94.624151 
L 109.905455 94.628835 
L 110.230434 98.779936 
L 110.555414 104.576652 
L 111.205373 92.164576 
L 111.530352 101.358993 
L 112.180311 91.862462 
L 112.505291 91.079516 
L 112.83027 91.226268 
L 113.15525 97.147965 
L 113.480229 109.457984 
L 113.805209 92.878948 
L 114.130188 94.982612 
L 114.455168 95.017064 
L 114.780147 90.250585 
L 115.105127 107.552049 
L 115.430106 92.837751 
L 115.755086 104.050657 
L 116.080066 103.044434 
L 116.730025 90.317471 
L 117.055004 90.375836 
L 117.379984 81.431426 
L 117.704963 82.197449 
L 118.354922 100.530473 
L 118.679902 93.151289 
L 119.004881 102.619652 
L 119.329861 101.527394 
L 119.97982 113.313607 
L 120.304799 110.833785 
L 120.629779 109.439104 
L 120.954758 105.214103 
L 121.279738 126.258941 
L 121.604717 113.294292 
L 121.929697 106.8392 
L 122.254676 109.375579 
L 122.579656 116.441714 
L 122.904636 121.003556 
L 123.229615 114.7802 
L 123.554595 101.337147 
L 123.879574 94.191096 
L 124.204554 92.000312 
L 124.529533 95.469419 
L 124.854513 91.643658 
L 125.179492 99.399116 
L 125.504472 98.893793 
L 125.829451 126.987657 
L 126.154431 122.863124 
L 126.47941 113.617857 
L 126.80439 123.251272 
L 127.129369 112.268291 
L 127.454349 110.278294 
L 127.779328 113.082125 
L 128.104308 113.968673 
L 128.429287 119.92761 
L 128.754267 110.59054 
L 129.404226 121.08219 
L 129.729206 123.197062 
L 130.054185 121.123888 
L 130.379165 111.811527 
L 130.704144 96.593523 
L 131.029124 98.141048 
L 131.354103 98.935428 
L 131.679083 93.549009 
L 132.004062 97.601593 
L 132.329042 109.09405 
L 132.654021 102.89485 
L 133.62896 76.696328 
L 133.953939 77.401452 
L 134.278919 95.061385 
L 134.603898 104.269403 
L 134.928878 104.706736 
L 135.253857 101.863434 
L 135.578837 91.433009 
L 135.903817 88.828958 
L 136.228796 91.838681 
L 136.878755 106.148359 
L 137.203735 101.993285 
L 137.853694 114.38338 
L 138.503653 103.993874 
L 138.828632 98.351171 
L 139.153612 97.210917 
L 139.478591 94.045779 
L 139.803571 99.034037 
L 140.12855 95.21182 
L 140.45353 113.528243 
L 140.778509 114.306082 
L 141.103489 110.679554 
L 141.428468 118.936935 
L 141.753448 119.141824 
L 142.078428 115.657923 
L 142.728387 104.405571 
L 143.053366 116.666575 
L 143.378346 109.922354 
L 143.703325 113.060267 
L 144.028305 103.211626 
L 144.353284 108.678658 
L 144.678264 124.547972 
L 145.003243 129.586725 
L 145.328223 119.653284 
L 145.653202 119.803121 
L 145.978182 119.212697 
L 146.303161 117.21469 
L 146.628141 118.505638 
L 146.95312 108.604241 
L 147.2781 121.043993 
L 147.603079 118.166412 
L 147.928059 118.428061 
L 148.253038 121.127675 
L 148.578018 116.291344 
L 148.902998 114.424114 
L 149.227977 126.796823 
L 149.552957 122.591232 
L 149.877936 120.770331 
L 150.202916 111.432997 
L 150.527895 111.679988 
L 150.852875 99.604213 
L 151.177854 97.526808 
L 151.502834 92.433264 
L 151.827813 95.725932 
L 152.152793 96.826581 
L 153.127731 72.073842 
L 153.452711 98.664949 
L 153.77769 101.731552 
L 154.10267 94.946371 
L 154.427649 108.209422 
L 154.752629 108.411017 
L 155.077609 99.998913 
L 155.402588 100.047684 
L 155.727568 109.448632 
L 156.052547 96.612951 
L 156.377527 101.200198 
L 156.702506 116.393441 
L 157.352465 97.289366 
L 157.677445 91.099296 
L 158.002424 89.535198 
L 158.327404 88.960315 
L 158.652383 103.211408 
L 158.977363 94.069974 
L 159.302342 90.006545 
L 159.627322 101.709652 
L 159.952301 102.392021 
L 160.277281 103.382688 
L 160.60226 93.407757 
L 161.252219 108.513429 
L 161.577199 114.473716 
L 161.902179 115.719519 
L 162.227158 107.111863 
L 162.552138 108.230348 
L 162.877117 112.265375 
L 163.202097 114.23541 
L 163.527076 106.751258 
L 163.852056 115.049557 
L 164.177035 107.250994 
L 164.502015 115.296413 
L 164.826994 114.219195 
L 165.151974 106.240419 
L 165.476953 109.274453 
L 165.801933 124.206662 
L 167.101851 103.387128 
L 167.42683 114.277107 
L 167.75181 106.343297 
L 168.07679 108.423008 
L 168.401769 115.117609 
L 168.726749 126.433066 
L 169.051728 118.224901 
L 169.701687 112.411084 
L 170.026667 109.652437 
L 170.351646 104.060205 
L 170.676626 104.443094 
L 171.001605 101.730659 
L 171.326585 93.658008 
L 171.651564 94.006887 
L 171.976544 87.960119 
L 172.301523 95.005961 
L 172.626503 91.258868 
L 173.276462 95.179653 
L 173.601441 100.318717 
L 173.926421 101.912958 
L 174.2514 107.381989 
L 174.57638 104.849074 
L 174.90136 92.586921 
L 175.226339 107.080357 
L 175.876298 116.672389 
L 176.201278 110.760953 
L 176.526257 109.272838 
L 176.851237 100.734019 
L 177.176216 96.343142 
L 177.501196 93.973846 
L 178.151155 71.377964 
L 178.476134 69.780267 
L 179.126093 88.696932 
L 179.451073 98.354428 
L 179.776052 113.530967 
L 180.101032 100.921376 
L 180.426011 116.014972 
L 180.750991 116.535153 
L 181.075971 118.801951 
L 181.72593 102.874415 
L 182.050909 115.80354 
L 182.375889 122.781701 
L 182.700868 112.443094 
L 183.025848 109.06818 
L 183.350827 95.987302 
L 183.675807 98.174381 
L 184.000786 107.414986 
L 184.325766 111.908893 
L 184.650745 100.498055 
L 184.975725 94.751744 
L 185.300704 101.143322 
L 185.625684 104.732891 
L 185.950663 109.85739 
L 186.275643 100.469446 
L 186.600622 99.060469 
L 186.925602 96.483035 
L 187.250581 84.992968 
L 187.900541 89.442655 
L 188.22552 97.720167 
L 188.5505 91.563645 
L 188.875479 97.709534 
L 189.200459 95.633114 
L 189.525438 96.024834 
L 189.850418 110.744209 
L 190.175397 109.072942 
L 190.500377 102.244349 
L 190.825356 104.117153 
L 191.150336 110.094747 
L 191.800295 128.659093 
L 192.125274 119.192796 
L 192.450254 122.139626 
L 192.775233 114.834757 
L 193.100213 122.462397 
L 193.425192 118.779216 
L 193.750172 108.50491 
L 194.075152 117.861133 
L 194.400131 119.698213 
L 194.725111 120.625271 
L 195.05009 117.375368 
L 195.37507 110.534956 
L 195.700049 99.725271 
L 196.025029 101.598142 
L 196.350008 93.979322 
L 196.674988 97.49832 
L 196.999967 115.255223 
L 197.324947 111.693288 
L 197.649926 101.811061 
L 197.974906 104.388153 
L 198.299885 96.02771 
L 199.274824 103.33222 
L 199.599803 93.752683 
L 199.924783 108.906708 
L 200.249762 107.712093 
L 200.899722 104.059953 
L 201.224701 127.174803 
L 201.549681 113.101169 
L 201.87466 108.057139 
L 202.19964 114.9321 
L 202.849599 97.333327 
L 203.174578 105.404556 
L 203.499558 99.176088 
L 203.824537 95.791723 
L 204.149517 112.176601 
L 204.474496 109.535588 
L 204.799476 102.12624 
L 205.124455 102.139727 
L 205.449435 106.40577 
L 205.774414 114.186851 
L 206.424373 108.397409 
L 206.749353 100.982992 
L 207.074333 102.322009 
L 207.399312 96.456593 
L 207.724292 110.743882 
L 208.049271 98.316275 
L 208.374251 96.108951 
L 208.69923 96.037325 
L 209.349189 88.168064 
L 209.674169 95.447667 
L 209.999148 91.840919 
L 210.324128 83.931742 
L 210.649107 73.163978 
L 210.974087 79.803219 
L 211.299066 74.470337 
L 211.624046 81.966127 
L 211.949025 81.240946 
L 212.923964 100.3862 
L 213.248943 88.141035 
L 213.573923 108.903129 
L 213.898903 103.818228 
L 214.223882 108.679433 
L 214.548862 108.187717 
L 214.873841 134.275384 
L 215.198821 134.836666 
L 215.5238 131.880799 
L 215.84878 127.520516 
L 216.498739 142.119329 
L 216.823718 144.268459 
L 217.148698 132.282234 
L 217.473677 128.786382 
L 217.798657 134.897898 
L 218.123636 131.925472 
L 218.448616 132.263052 
L 218.773595 115.072315 
L 219.098575 118.21906 
L 219.423554 105.260832 
L 219.748534 104.272523 
L 220.073514 116.776878 
L 220.723473 106.555952 
L 221.048452 93.546639 
L 221.373432 93.296408 
L 221.698411 92.39209 
L 222.34837 108.031848 
L 222.67335 106.000123 
L 222.998329 115.767019 
L 223.323309 113.849145 
L 223.648288 117.97335 
L 223.973268 118.396898 
L 224.948206 95.779332 
L 225.273186 101.867088 
L 225.598165 103.613532 
L 225.923145 97.391604 
L 226.248124 104.399008 
L 226.573104 100.663145 
L 226.898084 110.103701 
L 227.223063 53.568 
L 227.548043 73.50858 
L 227.873022 73.882776 
L 228.198002 76.501924 
L 228.847961 86.96118 
L 229.17294 80.642858 
L 229.49792 97.37391 
L 229.822899 93.148922 
L 230.147879 91.408205 
L 230.472858 84.927197 
L 230.797838 105.385548 
L 231.122817 133.150718 
L 231.447797 119.17636 
L 232.097756 118.596931 
L 232.747715 104.287698 
L 233.072695 103.903656 
L 233.397674 91.134889 
L 233.722654 90.834822 
L 234.047633 89.266092 
L 234.372613 79.280238 
L 234.697592 92.04986 
L 235.022572 89.395027 
L 235.672531 108.038379 
L 235.99751 110.361178 
L 236.32249 102.822947 
L 236.647469 125.149461 
L 236.972449 130.565987 
L 237.297428 126.034797 
L 237.622408 107.056702 
L 237.947387 118.176938 
L 238.272367 118.964448 
L 238.597346 107.198778 
L 238.922326 124.242104 
L 239.247305 134.000611 
L 239.897265 127.845156 
L 240.222244 116.106393 
L 240.547224 111.290004 
L 240.872203 122.504497 
L 241.197183 116.82175 
L 241.847142 93.49996 
L 242.172121 106.285125 
L 242.497101 95.975396 
L 243.14706 101.430559 
L 243.472039 107.506776 
L 243.797019 110.639869 
L 244.121998 100.423489 
L 244.446978 107.513683 
L 244.771957 102.306588 
L 245.096937 123.2983 
L 245.421916 122.345184 
L 245.746896 112.97157 
L 246.071876 109.293998 
L 246.396855 97.210028 
L 246.721835 89.282005 
L 247.046814 91.003325 
L 247.371794 96.039418 
L 247.696773 103.992948 
L 248.021753 91.358705 
L 248.346732 96.567016 
L 248.671712 95.415403 
L 249.321671 102.594117 
L 249.64665 101.408101 
L 250.296609 114.490724 
L 250.621589 108.165628 
L 250.946568 96.355651 
L 251.271548 96.139748 
L 251.596527 99.31649 
L 251.921507 104.746921 
L 252.246486 103.640122 
L 252.571466 109.518002 
L 252.896446 103.396142 
L 253.221425 106.811558 
L 253.546405 96.514766 
L 253.871384 94.231891 
L 254.196364 92.844112 
L 254.521343 97.399696 
L 254.846323 94.460242 
L 255.171302 102.389004 
L 255.496282 89.037346 
L 255.821261 85.825919 
L 256.146241 86.157116 
L 256.47122 82.111645 
L 256.7962 93.399616 
L 257.121179 108.735426 
L 257.446159 103.160452 
L 257.771138 95.240223 
L 258.096118 96.039741 
L 258.421097 81.64297 
L 258.746077 96.81366 
L 259.071057 94.57464 
L 259.396036 90.255162 
L 259.721016 90.239301 
L 260.695954 108.432488 
L 261.020934 106.704772 
L 261.345913 121.686553 
L 261.670893 125.465947 
L 261.995872 121.202341 
L 262.320852 112.235374 
L 262.970811 117.434065 
L 263.62077 96.739935 
L 263.945749 104.318644 
L 264.270729 108.144296 
L 264.595708 100.662489 
L 264.920688 89.012435 
L 265.245667 89.308932 
L 265.570647 77.532145 
L 265.895627 69.992187 
L 266.220606 74.68026 
L 266.545586 83.195358 
L 266.870565 78.019157 
L 267.520524 103.40959 
L 268.170483 95.874246 
L 268.495463 98.320503 
L 269.145422 104.858704 
L 269.470401 97.838025 
L 269.795381 102.673152 
L 270.44534 85.359813 
L 270.770319 90.913459 
L 271.095299 80.155585 
L 271.420278 94.104902 
L 271.745258 90.374684 
L 272.070238 93.673408 
L 272.395217 98.51246 
L 272.720197 93.145805 
L 273.045176 100.793401 
L 273.370156 94.530824 
L 273.695135 81.595782 
L 274.020115 82.559954 
L 274.345094 93.786781 
L 274.670074 91.638673 
L 274.995053 95.448563 
L 275.320033 85.580114 
L 275.645012 103.026731 
L 275.969992 98.00906 
L 276.294971 96.045607 
L 276.619951 116.640975 
L 276.94493 119.30162 
L 277.26991 112.372727 
L 277.594889 111.191009 
L 277.919869 118.107857 
L 278.244848 101.3343 
L 278.569828 90.843139 
L 278.894808 88.286481 
L 279.219787 83.095777 
L 279.544767 74.795357 
L 279.869746 94.733315 
L 280.519705 102.125782 
L 280.844685 100.431742 
L 281.169664 101.73766 
L 281.494644 95.227252 
L 281.819623 100.736578 
L 282.469582 83.932683 
L 282.794562 103.636897 
L 283.119541 103.525103 
L 283.444521 108.101094 
L 283.7695 105.92747 
L 284.09448 122.448966 
L 284.744439 118.694051 
L 285.069419 113.529059 
L 285.394398 102.285353 
L 285.719378 100.873981 
L 286.044357 103.019257 
L 287.019296 118.152617 
L 287.344275 113.129723 
L 287.669255 122.029964 
L 287.994234 111.954353 
L 288.319214 105.336162 
L 288.644193 102.842412 
L 288.969173 107.099333 
L 289.294152 106.280564 
L 289.619132 94.895409 
L 289.944111 92.33336 
L 290.269091 101.287683 
L 290.59407 106.016484 
L 290.91905 105.684139 
L 291.244029 114.017918 
L 291.569009 107.165559 
L 291.893989 103.985087 
L 292.218968 107.977042 
L 292.543948 102.92947 
L 292.868927 101.894645 
L 293.193907 104.875036 
L 293.518886 96.570433 
L 293.843866 96.161746 
L 294.168845 95.954689 
L 294.493825 105.772314 
L 294.818804 111.670159 
L 295.143784 110.1351 
L 295.468763 106.345024 
L 295.793743 111.412536 
L 296.768681 88.169103 
L 297.093661 82.749044 
L 297.74362 68.833711 
L 298.0686 71.72152 
L 298.393579 82.588981 
L 298.718559 86.966499 
L 299.043538 95.687706 
L 299.368518 92.851097 
L 299.693497 92.823741 
L 300.018477 94.753852 
L 300.668436 84.511685 
L 301.643374 93.949175 
L 301.968354 129.099757 
L 302.293333 115.044594 
L 302.618313 115.200849 
L 302.943292 109.188925 
L 303.268272 112.547959 
L 303.593251 108.827957 
L 303.918231 117.066129 
L 304.24321 121.290142 
L 304.89317 115.890615 
L 305.218149 106.915936 
L 305.543129 106.769411 
L 305.868108 108.445911 
L 306.193088 108.936234 
L 307.168026 80.946715 
L 307.493006 88.967637 
L 307.817985 93.672271 
L 308.142965 104.467047 
L 308.467944 89.934274 
L 308.792924 101.165095 
L 309.117903 106.292858 
L 309.442883 101.60941 
L 309.767862 92.581854 
L 310.092842 92.357835 
L 310.417821 101.706614 
L 310.742801 91.675922 
L 311.067781 88.483957 
L 311.39276 79.490478 
L 311.71774 85.520506 
L 312.042719 80.827484 
L 312.367699 87.148674 
L 312.692678 89.21795 
L 313.017658 88.611783 
L 313.342637 77.088139 
L 313.667617 84.34989 
L 313.992596 79.059065 
L 314.642555 98.221998 
L 314.967535 100.786037 
L 315.292514 100.746347 
L 315.617494 110.961601 
L 315.942473 90.599145 
L 316.267453 83.15106 
L 316.592432 89.413219 
L 316.917412 91.9291 
L 317.242391 93.497733 
L 317.567371 93.071676 
L 317.892351 101.657995 
L 318.21733 106.750089 
L 318.54231 94.369268 
L 318.867289 95.73177 
L 319.192269 93.621931 
L 319.517248 100.734718 
L 319.842228 92.254494 
L 320.167207 89.887691 
L 320.817166 79.298579 
L 321.467125 109.466941 
L 321.792105 103.342648 
L 322.117084 107.516852 
L 322.767043 97.229723 
L 323.092023 96.747952 
L 323.417002 93.511273 
L 323.741982 97.479715 
L 324.066962 98.771054 
L 324.391941 101.903435 
L 324.716921 97.384763 
L 325.0419 85.257504 
L 325.36688 87.294904 
L 325.691859 85.844073 
L 326.016839 96.670594 
L 326.341818 89.800546 
L 326.666798 95.969183 
L 326.991777 99.455127 
L 327.641736 95.371075 
L 327.966716 90.053765 
L 328.291695 80.575908 
L 328.616675 94.67731 
L 328.941654 103.133661 
L 329.266634 102.71536 
L 329.591613 108.94979 
L 329.916593 117.382486 
L 330.241572 104.823686 
L 330.566552 106.760338 
L 330.891532 98.333169 
L 331.216511 99.370551 
L 331.541491 87.345413 
L 331.86647 83.143787 
L 332.19145 82.80496 
L 333.166388 99.105673 
L 333.491368 93.971003 
L 333.816347 101.203613 
L 334.466306 82.430532 
L 334.791286 90.896477 
L 335.116265 92.612207 
L 335.441245 88.491396 
L 335.766224 90.382598 
L 336.091204 89.76847 
L 336.416183 97.155935 
L 336.741163 96.364149 
L 337.066143 105.74367 
L 337.391122 107.39496 
L 337.716102 105.401368 
L 338.366061 97.111716 
L 338.69104 97.18273 
L 339.01602 99.834498 
L 339.340999 113.704968 
L 339.665979 102.545343 
L 339.990958 104.337861 
L 340.315938 101.657875 
L 340.640917 112.895005 
L 341.290876 118.877734 
L 341.615856 112.119708 
L 341.940835 116.484934 
L 342.265815 110.399371 
L 342.590794 109.431988 
L 342.915774 106.104244 
L 343.240753 98.915518 
L 343.890713 96.746133 
L 344.215692 99.941127 
L 344.540672 87.952082 
L 344.865651 80.921822 
L 345.190631 83.327875 
L 345.84059 118.839615 
L 346.165569 114.13881 
L 346.490549 104.945159 
L 347.140508 118.698131 
L 347.465487 105.038968 
L 347.790467 116.037789 
L 348.115446 116.450751 
L 348.440426 110.987276 
L 349.090385 113.656676 
L 350.065324 96.959071 
L 350.390303 114.763301 
L 350.715283 118.053193 
L 351.040262 102.656256 
L 351.365242 99.813444 
L 351.690221 92.500386 
L 352.015201 95.752187 
L 352.34018 86.875756 
L 352.66516 95.969381 
L 352.990139 92.348131 
L 353.315119 103.491339 
L 353.965078 67.658944 
L 354.290057 83.263876 
L 354.615037 87.53392 
L 354.940016 87.119836 
L 355.264996 86.892348 
L 355.589975 90.357505 
L 355.914955 86.796969 
L 356.239934 102.580153 
L 356.564914 98.299587 
L 356.889894 90.469645 
L 357.214873 86.969828 
L 357.539853 89.052423 
L 357.864832 96.210499 
L 358.189812 93.114298 
L 358.514791 88.486259 
L 358.839771 96.074557 
L 359.16475 91.320234 
L 359.48973 93.597411 
L 359.814709 89.449819 
L 360.139689 97.702311 
L 360.464668 101.199727 
L 360.789648 109.443868 
L 361.114627 110.72273 
L 361.439607 115.599231 
L 361.764586 107.868092 
L 362.089566 104.550926 
L 362.414545 97.881972 
L 363.064505 109.431948 
L 363.389484 105.55717 
L 363.714464 103.3172 
L 364.039443 111.247543 
L 364.689402 87.140931 
L 365.014382 82.36336 
L 365.339361 89.293375 
L 365.664341 102.42439 
L 365.98932 107.02244 
L 366.3143 97.921358 
L 366.639279 102.509069 
L 367.289238 78.016483 
L 367.614218 89.979314 
L 367.939197 116.784214 
L 368.264177 118.164353 
L 368.914136 106.474656 
L 369.239115 112.642477 
L 369.564095 104.900381 
L 369.889075 107.651935 
L 370.214054 96.948181 
L 370.539034 102.295547 
L 370.864013 122.407602 
L 371.188993 114.302178 
L 371.513972 110.062038 
L 371.838952 102.483634 
L 372.163931 92.31062 
L 372.488911 98.089227 
L 372.81389 99.363159 
L 373.13887 98.998248 
L 373.463849 97.012627 
L 373.788829 98.877708 
L 374.113808 90.462204 
L 374.438788 93.236429 
L 374.763767 99.756875 
L 375.088747 92.246272 
L 375.413726 102.028763 
L 375.738706 102.880377 
L 376.063686 91.806828 
L 376.388665 97.08356 
L 376.713645 106.928218 
L 377.038624 99.667381 
L 377.363604 99.321532 
L 377.688583 102.880946 
L 378.013563 104.925256 
L 378.338542 115.95 
L 378.663522 122.777369 
L 378.988501 120.154948 
L 379.313481 116.558171 
L 379.63846 117.824016 
L 379.96344 103.965886 
L 380.288419 113.170576 
L 380.613399 100.58389 
L 380.938378 97.313707 
L 381.263358 95.963951 
L 381.588337 87.08154 
L 381.913317 86.637897 
L 382.238296 90.538874 
L 382.563276 87.529042 
L 382.888256 82.446942 
L 383.213235 86.074565 
L 383.538215 86.966743 
L 383.863194 84.622832 
L 384.188174 83.851127 
L 384.513153 83.6379 
L 384.838133 86.191367 
L 385.163112 90.465877 
L 385.813071 76.337172 
L 386.138051 78.253128 
L 386.46303 67.559236 
L 386.78801 75.427609 
L 387.112989 79.702576 
L 387.437969 90.055601 
L 387.762948 90.019375 
L 388.087928 71.890499 
L 388.412907 79.20123 
L 388.737887 77.59809 
L 389.062867 93.658236 
L 389.387846 102.959582 
L 390.362785 93.989855 
L 391.012744 109.728976 
L 391.337723 120.557586 
L 391.987682 101.911617 
L 392.312662 113.220252 
L 392.637641 119.400462 
L 392.962621 99.263459 
L 393.2876 91.155546 
L 393.61258 88.962134 
L 393.937559 89.267021 
L 394.262539 96.529373 
L 394.587518 82.140305 
L 394.912498 81.237109 
L 395.237477 93.105574 
L 395.562457 94.027961 
L 395.887437 87.067632 
L 396.212416 95.503381 
L 396.537396 94.568573 
L 396.862375 92.440127 
L 397.187355 92.330109 
L 397.512334 108.702473 
L 397.837314 107.932729 
L 398.162293 104.772654 
L 398.487273 115.037024 
L 398.487273 115.037024 
" style="fill:none;stroke:#1f77b4;stroke-linecap:square;stroke-width:1.5;"/>
   </g>
   <g id="line2d_14">
    <path clip-path="url(#peb2a57edc3)" d="M 73.832727 291.562964 
L 79.0324 291.739366 
L 85.207011 292.001611 
L 113.15525 292.397664 
L 115.105127 292.409888 
L 116.730025 292.459691 
L 191.475315 293.338941 
L 192.450254 293.334213 
L 193.750172 293.399174 
L 195.05009 293.373935 
L 196.674988 293.468061 
L 197.324947 293.422655 
L 198.624865 293.489222 
L 203.174578 293.511889 
L 204.149517 293.49504 
L 211.299066 293.724424 
L 212.923964 293.653095 
L 213.248943 293.704731 
L 213.898903 293.650961 
L 217.148698 293.564161 
L 221.698411 293.793555 
L 223.973268 293.711458 
L 225.598165 293.794587 
L 226.573104 293.819093 
L 226.898084 293.78035 
L 227.223063 293.893887 
L 227.873022 293.825 
L 230.797838 293.71818 
L 231.122817 293.601808 
L 231.772776 293.676201 
L 233.072695 293.760346 
L 234.372613 293.8774 
L 235.672531 293.769858 
L 240.222244 293.777016 
L 242.497101 293.886612 
L 246.071876 293.869527 
L 247.046814 293.964656 
L 249.321671 293.93984 
L 261.345913 293.966248 
L 262.320852 294.019751 
L 263.29579 294.06915 
L 263.945749 294.082957 
L 264.595708 294.104849 
L 265.895627 294.261636 
L 269.145422 294.131137 
L 271.095299 294.275725 
L 271.745258 294.23436 
L 273.370156 294.229491 
L 274.020115 294.297147 
L 274.995053 294.240095 
L 275.320033 294.294605 
L 275.969992 294.245277 
L 276.294971 294.261073 
L 276.94493 294.135443 
L 277.594889 294.186187 
L 277.919869 294.144086 
L 278.894808 294.308392 
L 279.544767 294.376605 
L 280.194726 294.271324 
L 281.819623 294.276743 
L 282.469582 294.366825 
L 283.119541 294.282568 
L 285.069419 294.249271 
L 285.719378 294.321364 
L 288.969173 294.32799 
L 294.493825 294.389495 
L 295.793743 294.37612 
L 297.74362 294.617804 
L 301.643374 294.518014 
L 301.968354 294.318979 
L 302.618313 294.41158 
L 303.593251 294.458973 
L 304.56819 294.417962 
L 308.792924 294.52404 
L 309.442883 294.526512 
L 310.092842 294.587018 
L 310.742801 294.597429 
L 312.692678 294.635219 
L 318.21733 294.497156 
L 318.867289 294.56778 
L 321.142146 294.604016 
L 321.467125 294.518583 
L 322.767043 294.597922 
L 328.616675 294.672388 
L 329.916593 294.542947 
L 330.566552 294.612336 
L 332.19145 294.763457 
L 334.141327 294.733011 
L 334.791286 294.749107 
L 342.915774 294.755541 
L 343.890713 294.829917 
L 344.540672 294.888872 
L 345.190631 294.925755 
L 346.165569 294.751515 
L 346.490549 294.816467 
L 347.140508 294.729757 
L 347.465487 294.823479 
L 348.115446 294.761629 
L 350.065324 294.922901 
L 350.715283 294.785606 
L 351.365242 294.912546 
L 352.34018 295.002905 
L 353.315119 294.897181 
L 353.965078 295.095805 
L 354.615037 294.986027 
L 360.139689 295.004225 
L 362.089566 294.996928 
L 362.739525 295.006705 
L 364.039443 294.983508 
L 365.014382 295.164277 
L 366.639279 295.055184 
L 367.289238 295.215387 
L 368.589156 295.001029 
L 369.564095 295.071738 
L 371.513972 295.060257 
L 372.488911 295.150027 
L 380.613399 295.20966 
L 383.213235 295.336653 
L 385.488092 295.372533 
L 386.46303 295.488 
L 387.762948 295.334974 
L 388.087928 295.456402 
L 389.712826 295.279518 
L 390.687764 295.280069 
L 391.662703 295.211741 
L 391.987682 295.291763 
L 392.637641 295.176857 
L 393.2876 295.340965 
L 395.237477 295.342109 
L 398.487273 295.214251 
L 398.487273 295.214251 
" style="fill:none;stroke:#ff7f0e;stroke-linecap:square;stroke-width:1.5;"/>
   </g>
   <g id="patch_3">
    <path d="M 57.6 307.584 
L 57.6 41.472 
" style="fill:none;stroke:#000000;stroke-linecap:square;stroke-linejoin:miter;stroke-width:0.8;"/>
   </g>
   <g id="patch_4">
    <path d="M 414.72 307.584 
L 414.72 41.472 
" style="fill:none;stroke:#000000;stroke-linecap:square;stroke-linejoin:miter;stroke-width:0.8;"/>
   </g>
   <g id="patch_5">
    <path d="M 57.6 307.584 
L 414.72 307.584 
" style="fill:none;stroke:#000000;stroke-linecap:square;stroke-linejoin:miter;stroke-width:0.8;"/>
   </g>
   <g id="patch_6">
    <path d="M 57.6 41.472 
L 414.72 41.472 
" style="fill:none;stroke:#000000;stroke-linecap:square;stroke-linejoin:miter;stroke-width:0.8;"/>
   </g>
  </g>
 </g>
 <defs>
  <clipPath id="peb2a57edc3">
   <rect height="266.112" width="357.12" x="57.6" y="41.472"/>
  </clipPath>
 </defs>
</svg>
