<?xml version="1.0" encoding="utf-8" standalone="no"?>
<!DOCTYPE svg PUBLIC "-//W3C//DTD SVG 1.1//EN"
  "http://www.w3.org/Graphics/SVG/1.1/DTD/svg11.dtd">
<!-- Created with matplotlib (https://matplotlib.org/) -->
<svg height="345.6pt" version="1.1" viewBox="0 0 460.8 345.6" width="460.8pt" xmlns="http://www.w3.org/2000/svg" xmlns:xlink="http://www.w3.org/1999/xlink">
 <metadata>
  <rdf:RDF xmlns:cc="http://creativecommons.org/ns#" xmlns:dc="http://purl.org/dc/elements/1.1/" xmlns:rdf="http://www.w3.org/1999/02/22-rdf-syntax-ns#">
   <cc:Work>
    <dc:type rdf:resource="http://purl.org/dc/dcmitype/StillImage"/>
    <dc:date>2020-10-03T18:09:43.067794</dc:date>
    <dc:format>image/svg+xml</dc:format>
    <dc:creator>
     <cc:Agent>
      <dc:title>Matplotlib v3.3.2, https://matplotlib.org/</dc:title>
     </cc:Agent>
    </dc:creator>
   </cc:Work>
  </rdf:RDF>
 </metadata>
 <defs>
  <style type="text/css">*{stroke-linecap:butt;stroke-linejoin:round;}</style>
 </defs>
 <g id="figure_1">
  <g id="patch_1">
   <path d="M 0 345.6 
L 460.8 345.6 
L 460.8 0 
L 0 0 
z
" style="fill:#ffffff;"/>
  </g>
  <g id="axes_1">
   <g id="patch_2">
    <path d="M 57.6 307.584 
L 414.72 307.584 
L 414.72 41.472 
L 57.6 41.472 
z
" style="fill:#ffffff;"/>
   </g>
   <g id="matplotlib.axis_1">
    <g id="xtick_1">
     <g id="line2d_1">
      <defs>
       <path d="M 0 0 
L 0 3.5 
" id="m4e250a0338" style="stroke:#000000;stroke-width:0.8;"/>
      </defs>
      <g>
       <use style="stroke:#000000;stroke-width:0.8;" x="73.832727" xlink:href="#m4e250a0338" y="307.584"/>
      </g>
     </g>
     <g id="text_1">
      <!-- 0 -->
      <g transform="translate(70.651477 322.182437)scale(0.1 -0.1)">
       <defs>
        <path d="M 31.78125 66.40625 
Q 24.171875 66.40625 20.328125 58.90625 
Q 16.5 51.421875 16.5 36.375 
Q 16.5 21.390625 20.328125 13.890625 
Q 24.171875 6.390625 31.78125 6.390625 
Q 39.453125 6.390625 43.28125 13.890625 
Q 47.125 21.390625 47.125 36.375 
Q 47.125 51.421875 43.28125 58.90625 
Q 39.453125 66.40625 31.78125 66.40625 
z
M 31.78125 74.21875 
Q 44.046875 74.21875 50.515625 64.515625 
Q 56.984375 54.828125 56.984375 36.375 
Q 56.984375 17.96875 50.515625 8.265625 
Q 44.046875 -1.421875 31.78125 -1.421875 
Q 19.53125 -1.421875 13.0625 8.265625 
Q 6.59375 17.96875 6.59375 36.375 
Q 6.59375 54.828125 13.0625 64.515625 
Q 19.53125 74.21875 31.78125 74.21875 
z
" id="DejaVuSans-48"/>
       </defs>
       <use xlink:href="#DejaVuSans-48"/>
      </g>
     </g>
    </g>
    <g id="xtick_2">
     <g id="line2d_2">
      <g>
       <use style="stroke:#000000;stroke-width:0.8;" x="138.828632" xlink:href="#m4e250a0338" y="307.584"/>
      </g>
     </g>
     <g id="text_2">
      <!-- 20 -->
      <g transform="translate(132.466132 322.182437)scale(0.1 -0.1)">
       <defs>
        <path d="M 19.1875 8.296875 
L 53.609375 8.296875 
L 53.609375 0 
L 7.328125 0 
L 7.328125 8.296875 
Q 12.9375 14.109375 22.625 23.890625 
Q 32.328125 33.6875 34.8125 36.53125 
Q 39.546875 41.84375 41.421875 45.53125 
Q 43.3125 49.21875 43.3125 52.78125 
Q 43.3125 58.59375 39.234375 62.25 
Q 35.15625 65.921875 28.609375 65.921875 
Q 23.96875 65.921875 18.8125 64.3125 
Q 13.671875 62.703125 7.8125 59.421875 
L 7.8125 69.390625 
Q 13.765625 71.78125 18.9375 73 
Q 24.125 74.21875 28.421875 74.21875 
Q 39.75 74.21875 46.484375 68.546875 
Q 53.21875 62.890625 53.21875 53.421875 
Q 53.21875 48.921875 51.53125 44.890625 
Q 49.859375 40.875 45.40625 35.40625 
Q 44.1875 33.984375 37.640625 27.21875 
Q 31.109375 20.453125 19.1875 8.296875 
z
" id="DejaVuSans-50"/>
       </defs>
       <use xlink:href="#DejaVuSans-50"/>
       <use x="63.623047" xlink:href="#DejaVuSans-48"/>
      </g>
     </g>
    </g>
    <g id="xtick_3">
     <g id="line2d_3">
      <g>
       <use style="stroke:#000000;stroke-width:0.8;" x="203.824537" xlink:href="#m4e250a0338" y="307.584"/>
      </g>
     </g>
     <g id="text_3">
      <!-- 40 -->
      <g transform="translate(197.462037 322.182437)scale(0.1 -0.1)">
       <defs>
        <path d="M 37.796875 64.3125 
L 12.890625 25.390625 
L 37.796875 25.390625 
z
M 35.203125 72.90625 
L 47.609375 72.90625 
L 47.609375 25.390625 
L 58.015625 25.390625 
L 58.015625 17.1875 
L 47.609375 17.1875 
L 47.609375 0 
L 37.796875 0 
L 37.796875 17.1875 
L 4.890625 17.1875 
L 4.890625 26.703125 
z
" id="DejaVuSans-52"/>
       </defs>
       <use xlink:href="#DejaVuSans-52"/>
       <use x="63.623047" xlink:href="#DejaVuSans-48"/>
      </g>
     </g>
    </g>
    <g id="xtick_4">
     <g id="line2d_4">
      <g>
       <use style="stroke:#000000;stroke-width:0.8;" x="268.820442" xlink:href="#m4e250a0338" y="307.584"/>
      </g>
     </g>
     <g id="text_4">
      <!-- 60 -->
      <g transform="translate(262.457942 322.182437)scale(0.1 -0.1)">
       <defs>
        <path d="M 33.015625 40.375 
Q 26.375 40.375 22.484375 35.828125 
Q 18.609375 31.296875 18.609375 23.390625 
Q 18.609375 15.53125 22.484375 10.953125 
Q 26.375 6.390625 33.015625 6.390625 
Q 39.65625 6.390625 43.53125 10.953125 
Q 47.40625 15.53125 47.40625 23.390625 
Q 47.40625 31.296875 43.53125 35.828125 
Q 39.65625 40.375 33.015625 40.375 
z
M 52.59375 71.296875 
L 52.59375 62.3125 
Q 48.875 64.0625 45.09375 64.984375 
Q 41.3125 65.921875 37.59375 65.921875 
Q 27.828125 65.921875 22.671875 59.328125 
Q 17.53125 52.734375 16.796875 39.40625 
Q 19.671875 43.65625 24.015625 45.921875 
Q 28.375 48.1875 33.59375 48.1875 
Q 44.578125 48.1875 50.953125 41.515625 
Q 57.328125 34.859375 57.328125 23.390625 
Q 57.328125 12.15625 50.6875 5.359375 
Q 44.046875 -1.421875 33.015625 -1.421875 
Q 20.359375 -1.421875 13.671875 8.265625 
Q 6.984375 17.96875 6.984375 36.375 
Q 6.984375 53.65625 15.1875 63.9375 
Q 23.390625 74.21875 37.203125 74.21875 
Q 40.921875 74.21875 44.703125 73.484375 
Q 48.484375 72.75 52.59375 71.296875 
z
" id="DejaVuSans-54"/>
       </defs>
       <use xlink:href="#DejaVuSans-54"/>
       <use x="63.623047" xlink:href="#DejaVuSans-48"/>
      </g>
     </g>
    </g>
    <g id="xtick_5">
     <g id="line2d_5">
      <g>
       <use style="stroke:#000000;stroke-width:0.8;" x="333.816347" xlink:href="#m4e250a0338" y="307.584"/>
      </g>
     </g>
     <g id="text_5">
      <!-- 80 -->
      <g transform="translate(327.453847 322.182437)scale(0.1 -0.1)">
       <defs>
        <path d="M 31.78125 34.625 
Q 24.75 34.625 20.71875 30.859375 
Q 16.703125 27.09375 16.703125 20.515625 
Q 16.703125 13.921875 20.71875 10.15625 
Q 24.75 6.390625 31.78125 6.390625 
Q 38.8125 6.390625 42.859375 10.171875 
Q 46.921875 13.96875 46.921875 20.515625 
Q 46.921875 27.09375 42.890625 30.859375 
Q 38.875 34.625 31.78125 34.625 
z
M 21.921875 38.8125 
Q 15.578125 40.375 12.03125 44.71875 
Q 8.5 49.078125 8.5 55.328125 
Q 8.5 64.0625 14.71875 69.140625 
Q 20.953125 74.21875 31.78125 74.21875 
Q 42.671875 74.21875 48.875 69.140625 
Q 55.078125 64.0625 55.078125 55.328125 
Q 55.078125 49.078125 51.53125 44.71875 
Q 48 40.375 41.703125 38.8125 
Q 48.828125 37.15625 52.796875 32.3125 
Q 56.78125 27.484375 56.78125 20.515625 
Q 56.78125 9.90625 50.3125 4.234375 
Q 43.84375 -1.421875 31.78125 -1.421875 
Q 19.734375 -1.421875 13.25 4.234375 
Q 6.78125 9.90625 6.78125 20.515625 
Q 6.78125 27.484375 10.78125 32.3125 
Q 14.796875 37.15625 21.921875 38.8125 
z
M 18.3125 54.390625 
Q 18.3125 48.734375 21.84375 45.5625 
Q 25.390625 42.390625 31.78125 42.390625 
Q 38.140625 42.390625 41.71875 45.5625 
Q 45.3125 48.734375 45.3125 54.390625 
Q 45.3125 60.0625 41.71875 63.234375 
Q 38.140625 66.40625 31.78125 66.40625 
Q 25.390625 66.40625 21.84375 63.234375 
Q 18.3125 60.0625 18.3125 54.390625 
z
" id="DejaVuSans-56"/>
       </defs>
       <use xlink:href="#DejaVuSans-56"/>
       <use x="63.623047" xlink:href="#DejaVuSans-48"/>
      </g>
     </g>
    </g>
    <g id="xtick_6">
     <g id="line2d_6">
      <g>
       <use style="stroke:#000000;stroke-width:0.8;" x="398.812252" xlink:href="#m4e250a0338" y="307.584"/>
      </g>
     </g>
     <g id="text_6">
      <!-- 100 -->
      <g transform="translate(389.268502 322.182437)scale(0.1 -0.1)">
       <defs>
        <path d="M 12.40625 8.296875 
L 28.515625 8.296875 
L 28.515625 63.921875 
L 10.984375 60.40625 
L 10.984375 69.390625 
L 28.421875 72.90625 
L 38.28125 72.90625 
L 38.28125 8.296875 
L 54.390625 8.296875 
L 54.390625 0 
L 12.40625 0 
z
" id="DejaVuSans-49"/>
       </defs>
       <use xlink:href="#DejaVuSans-49"/>
       <use x="63.623047" xlink:href="#DejaVuSans-48"/>
       <use x="127.246094" xlink:href="#DejaVuSans-48"/>
      </g>
     </g>
    </g>
    <g id="text_7">
     <!-- Time (days) -->
     <g transform="translate(206.633437 335.860562)scale(0.1 -0.1)">
      <defs>
       <path d="M -0.296875 72.90625 
L 61.375 72.90625 
L 61.375 64.59375 
L 35.5 64.59375 
L 35.5 0 
L 25.59375 0 
L 25.59375 64.59375 
L -0.296875 64.59375 
z
" id="DejaVuSans-84"/>
       <path d="M 9.421875 54.6875 
L 18.40625 54.6875 
L 18.40625 0 
L 9.421875 0 
z
M 9.421875 75.984375 
L 18.40625 75.984375 
L 18.40625 64.59375 
L 9.421875 64.59375 
z
" id="DejaVuSans-105"/>
       <path d="M 52 44.1875 
Q 55.375 50.25 60.0625 53.125 
Q 64.75 56 71.09375 56 
Q 79.640625 56 84.28125 50.015625 
Q 88.921875 44.046875 88.921875 33.015625 
L 88.921875 0 
L 79.890625 0 
L 79.890625 32.71875 
Q 79.890625 40.578125 77.09375 44.375 
Q 74.3125 48.1875 68.609375 48.1875 
Q 61.625 48.1875 57.5625 43.546875 
Q 53.515625 38.921875 53.515625 30.90625 
L 53.515625 0 
L 44.484375 0 
L 44.484375 32.71875 
Q 44.484375 40.625 41.703125 44.40625 
Q 38.921875 48.1875 33.109375 48.1875 
Q 26.21875 48.1875 22.15625 43.53125 
Q 18.109375 38.875 18.109375 30.90625 
L 18.109375 0 
L 9.078125 0 
L 9.078125 54.6875 
L 18.109375 54.6875 
L 18.109375 46.1875 
Q 21.1875 51.21875 25.484375 53.609375 
Q 29.78125 56 35.6875 56 
Q 41.65625 56 45.828125 52.96875 
Q 50 49.953125 52 44.1875 
z
" id="DejaVuSans-109"/>
       <path d="M 56.203125 29.59375 
L 56.203125 25.203125 
L 14.890625 25.203125 
Q 15.484375 15.921875 20.484375 11.0625 
Q 25.484375 6.203125 34.421875 6.203125 
Q 39.59375 6.203125 44.453125 7.46875 
Q 49.3125 8.734375 54.109375 11.28125 
L 54.109375 2.78125 
Q 49.265625 0.734375 44.1875 -0.34375 
Q 39.109375 -1.421875 33.890625 -1.421875 
Q 20.796875 -1.421875 13.15625 6.1875 
Q 5.515625 13.8125 5.515625 26.8125 
Q 5.515625 40.234375 12.765625 48.109375 
Q 20.015625 56 32.328125 56 
Q 43.359375 56 49.78125 48.890625 
Q 56.203125 41.796875 56.203125 29.59375 
z
M 47.21875 32.234375 
Q 47.125 39.59375 43.09375 43.984375 
Q 39.0625 48.390625 32.421875 48.390625 
Q 24.90625 48.390625 20.390625 44.140625 
Q 15.875 39.890625 15.1875 32.171875 
z
" id="DejaVuSans-101"/>
       <path id="DejaVuSans-32"/>
       <path d="M 31 75.875 
Q 24.46875 64.65625 21.28125 53.65625 
Q 18.109375 42.671875 18.109375 31.390625 
Q 18.109375 20.125 21.3125 9.0625 
Q 24.515625 -2 31 -13.1875 
L 23.1875 -13.1875 
Q 15.875 -1.703125 12.234375 9.375 
Q 8.59375 20.453125 8.59375 31.390625 
Q 8.59375 42.28125 12.203125 53.3125 
Q 15.828125 64.359375 23.1875 75.875 
z
" id="DejaVuSans-40"/>
       <path d="M 45.40625 46.390625 
L 45.40625 75.984375 
L 54.390625 75.984375 
L 54.390625 0 
L 45.40625 0 
L 45.40625 8.203125 
Q 42.578125 3.328125 38.25 0.953125 
Q 33.9375 -1.421875 27.875 -1.421875 
Q 17.96875 -1.421875 11.734375 6.484375 
Q 5.515625 14.40625 5.515625 27.296875 
Q 5.515625 40.1875 11.734375 48.09375 
Q 17.96875 56 27.875 56 
Q 33.9375 56 38.25 53.625 
Q 42.578125 51.265625 45.40625 46.390625 
z
M 14.796875 27.296875 
Q 14.796875 17.390625 18.875 11.75 
Q 22.953125 6.109375 30.078125 6.109375 
Q 37.203125 6.109375 41.296875 11.75 
Q 45.40625 17.390625 45.40625 27.296875 
Q 45.40625 37.203125 41.296875 42.84375 
Q 37.203125 48.484375 30.078125 48.484375 
Q 22.953125 48.484375 18.875 42.84375 
Q 14.796875 37.203125 14.796875 27.296875 
z
" id="DejaVuSans-100"/>
       <path d="M 34.28125 27.484375 
Q 23.390625 27.484375 19.1875 25 
Q 14.984375 22.515625 14.984375 16.5 
Q 14.984375 11.71875 18.140625 8.90625 
Q 21.296875 6.109375 26.703125 6.109375 
Q 34.1875 6.109375 38.703125 11.40625 
Q 43.21875 16.703125 43.21875 25.484375 
L 43.21875 27.484375 
z
M 52.203125 31.203125 
L 52.203125 0 
L 43.21875 0 
L 43.21875 8.296875 
Q 40.140625 3.328125 35.546875 0.953125 
Q 30.953125 -1.421875 24.3125 -1.421875 
Q 15.921875 -1.421875 10.953125 3.296875 
Q 6 8.015625 6 15.921875 
Q 6 25.140625 12.171875 29.828125 
Q 18.359375 34.515625 30.609375 34.515625 
L 43.21875 34.515625 
L 43.21875 35.40625 
Q 43.21875 41.609375 39.140625 45 
Q 35.0625 48.390625 27.6875 48.390625 
Q 23 48.390625 18.546875 47.265625 
Q 14.109375 46.140625 10.015625 43.890625 
L 10.015625 52.203125 
Q 14.9375 54.109375 19.578125 55.046875 
Q 24.21875 56 28.609375 56 
Q 40.484375 56 46.34375 49.84375 
Q 52.203125 43.703125 52.203125 31.203125 
z
" id="DejaVuSans-97"/>
       <path d="M 32.171875 -5.078125 
Q 28.375 -14.84375 24.75 -17.8125 
Q 21.140625 -20.796875 15.09375 -20.796875 
L 7.90625 -20.796875 
L 7.90625 -13.28125 
L 13.1875 -13.28125 
Q 16.890625 -13.28125 18.9375 -11.515625 
Q 21 -9.765625 23.484375 -3.21875 
L 25.09375 0.875 
L 2.984375 54.6875 
L 12.5 54.6875 
L 29.59375 11.921875 
L 46.6875 54.6875 
L 56.203125 54.6875 
z
" id="DejaVuSans-121"/>
       <path d="M 44.28125 53.078125 
L 44.28125 44.578125 
Q 40.484375 46.53125 36.375 47.5 
Q 32.28125 48.484375 27.875 48.484375 
Q 21.1875 48.484375 17.84375 46.4375 
Q 14.5 44.390625 14.5 40.28125 
Q 14.5 37.15625 16.890625 35.375 
Q 19.28125 33.59375 26.515625 31.984375 
L 29.59375 31.296875 
Q 39.15625 29.25 43.1875 25.515625 
Q 47.21875 21.78125 47.21875 15.09375 
Q 47.21875 7.46875 41.1875 3.015625 
Q 35.15625 -1.421875 24.609375 -1.421875 
Q 20.21875 -1.421875 15.453125 -0.5625 
Q 10.6875 0.296875 5.421875 2 
L 5.421875 11.28125 
Q 10.40625 8.6875 15.234375 7.390625 
Q 20.0625 6.109375 24.8125 6.109375 
Q 31.15625 6.109375 34.5625 8.28125 
Q 37.984375 10.453125 37.984375 14.40625 
Q 37.984375 18.0625 35.515625 20.015625 
Q 33.0625 21.96875 24.703125 23.78125 
L 21.578125 24.515625 
Q 13.234375 26.265625 9.515625 29.90625 
Q 5.8125 33.546875 5.8125 39.890625 
Q 5.8125 47.609375 11.28125 51.796875 
Q 16.75 56 26.8125 56 
Q 31.78125 56 36.171875 55.265625 
Q 40.578125 54.546875 44.28125 53.078125 
z
" id="DejaVuSans-115"/>
       <path d="M 8.015625 75.875 
L 15.828125 75.875 
Q 23.140625 64.359375 26.78125 53.3125 
Q 30.421875 42.28125 30.421875 31.390625 
Q 30.421875 20.453125 26.78125 9.375 
Q 23.140625 -1.703125 15.828125 -13.1875 
L 8.015625 -13.1875 
Q 14.5 -2 17.703125 9.0625 
Q 20.90625 20.125 20.90625 31.390625 
Q 20.90625 42.671875 17.703125 53.65625 
Q 14.5 64.65625 8.015625 75.875 
z
" id="DejaVuSans-41"/>
      </defs>
      <use xlink:href="#DejaVuSans-84"/>
      <use x="57.958984" xlink:href="#DejaVuSans-105"/>
      <use x="85.742188" xlink:href="#DejaVuSans-109"/>
      <use x="183.154297" xlink:href="#DejaVuSans-101"/>
      <use x="244.677734" xlink:href="#DejaVuSans-32"/>
      <use x="276.464844" xlink:href="#DejaVuSans-40"/>
      <use x="315.478516" xlink:href="#DejaVuSans-100"/>
      <use x="378.955078" xlink:href="#DejaVuSans-97"/>
      <use x="440.234375" xlink:href="#DejaVuSans-121"/>
      <use x="499.414062" xlink:href="#DejaVuSans-115"/>
      <use x="551.513672" xlink:href="#DejaVuSans-41"/>
     </g>
    </g>
   </g>
   <g id="matplotlib.axis_2">
    <g id="ytick_1">
     <g id="line2d_7">
      <defs>
       <path d="M 0 0 
L -3.5 0 
" id="mdd010db30a" style="stroke:#000000;stroke-width:0.8;"/>
      </defs>
      <g>
       <use style="stroke:#000000;stroke-width:0.8;" x="57.6" xlink:href="#mdd010db30a" y="291.201248"/>
      </g>
     </g>
     <g id="text_8">
      <!-- 0 -->
      <g transform="translate(44.2375 295.000467)scale(0.1 -0.1)">
       <use xlink:href="#DejaVuSans-48"/>
      </g>
     </g>
    </g>
    <g id="ytick_2">
     <g id="line2d_8">
      <g>
       <use style="stroke:#000000;stroke-width:0.8;" x="57.6" xlink:href="#mdd010db30a" y="241.080852"/>
      </g>
     </g>
     <g id="text_9">
      <!-- 1000 -->
      <g transform="translate(25.15 244.880071)scale(0.1 -0.1)">
       <use xlink:href="#DejaVuSans-49"/>
       <use x="63.623047" xlink:href="#DejaVuSans-48"/>
       <use x="127.246094" xlink:href="#DejaVuSans-48"/>
       <use x="190.869141" xlink:href="#DejaVuSans-48"/>
      </g>
     </g>
    </g>
    <g id="ytick_3">
     <g id="line2d_9">
      <g>
       <use style="stroke:#000000;stroke-width:0.8;" x="57.6" xlink:href="#mdd010db30a" y="190.960457"/>
      </g>
     </g>
     <g id="text_10">
      <!-- 2000 -->
      <g transform="translate(25.15 194.759676)scale(0.1 -0.1)">
       <use xlink:href="#DejaVuSans-50"/>
       <use x="63.623047" xlink:href="#DejaVuSans-48"/>
       <use x="127.246094" xlink:href="#DejaVuSans-48"/>
       <use x="190.869141" xlink:href="#DejaVuSans-48"/>
      </g>
     </g>
    </g>
    <g id="ytick_4">
     <g id="line2d_10">
      <g>
       <use style="stroke:#000000;stroke-width:0.8;" x="57.6" xlink:href="#mdd010db30a" y="140.840062"/>
      </g>
     </g>
     <g id="text_11">
      <!-- 3000 -->
      <g transform="translate(25.15 144.63928)scale(0.1 -0.1)">
       <defs>
        <path d="M 40.578125 39.3125 
Q 47.65625 37.796875 51.625 33 
Q 55.609375 28.21875 55.609375 21.1875 
Q 55.609375 10.40625 48.1875 4.484375 
Q 40.765625 -1.421875 27.09375 -1.421875 
Q 22.515625 -1.421875 17.65625 -0.515625 
Q 12.796875 0.390625 7.625 2.203125 
L 7.625 11.71875 
Q 11.71875 9.328125 16.59375 8.109375 
Q 21.484375 6.890625 26.8125 6.890625 
Q 36.078125 6.890625 40.9375 10.546875 
Q 45.796875 14.203125 45.796875 21.1875 
Q 45.796875 27.640625 41.28125 31.265625 
Q 36.765625 34.90625 28.71875 34.90625 
L 20.21875 34.90625 
L 20.21875 43.015625 
L 29.109375 43.015625 
Q 36.375 43.015625 40.234375 45.921875 
Q 44.09375 48.828125 44.09375 54.296875 
Q 44.09375 59.90625 40.109375 62.90625 
Q 36.140625 65.921875 28.71875 65.921875 
Q 24.65625 65.921875 20.015625 65.03125 
Q 15.375 64.15625 9.8125 62.3125 
L 9.8125 71.09375 
Q 15.4375 72.65625 20.34375 73.4375 
Q 25.25 74.21875 29.59375 74.21875 
Q 40.828125 74.21875 47.359375 69.109375 
Q 53.90625 64.015625 53.90625 55.328125 
Q 53.90625 49.265625 50.4375 45.09375 
Q 46.96875 40.921875 40.578125 39.3125 
z
" id="DejaVuSans-51"/>
       </defs>
       <use xlink:href="#DejaVuSans-51"/>
       <use x="63.623047" xlink:href="#DejaVuSans-48"/>
       <use x="127.246094" xlink:href="#DejaVuSans-48"/>
       <use x="190.869141" xlink:href="#DejaVuSans-48"/>
      </g>
     </g>
    </g>
    <g id="ytick_5">
     <g id="line2d_11">
      <g>
       <use style="stroke:#000000;stroke-width:0.8;" x="57.6" xlink:href="#mdd010db30a" y="90.719666"/>
      </g>
     </g>
     <g id="text_12">
      <!-- 4000 -->
      <g transform="translate(25.15 94.518885)scale(0.1 -0.1)">
       <use xlink:href="#DejaVuSans-52"/>
       <use x="63.623047" xlink:href="#DejaVuSans-48"/>
       <use x="127.246094" xlink:href="#DejaVuSans-48"/>
       <use x="190.869141" xlink:href="#DejaVuSans-48"/>
      </g>
     </g>
    </g>
    <g id="text_13">
     <!-- Density -->
     <g transform="translate(19.070312 193.536594)rotate(-90)scale(0.1 -0.1)">
      <defs>
       <path d="M 19.671875 64.796875 
L 19.671875 8.109375 
L 31.59375 8.109375 
Q 46.6875 8.109375 53.6875 14.9375 
Q 60.6875 21.78125 60.6875 36.53125 
Q 60.6875 51.171875 53.6875 57.984375 
Q 46.6875 64.796875 31.59375 64.796875 
z
M 9.8125 72.90625 
L 30.078125 72.90625 
Q 51.265625 72.90625 61.171875 64.09375 
Q 71.09375 55.28125 71.09375 36.53125 
Q 71.09375 17.671875 61.125 8.828125 
Q 51.171875 0 30.078125 0 
L 9.8125 0 
z
" id="DejaVuSans-68"/>
       <path d="M 54.890625 33.015625 
L 54.890625 0 
L 45.90625 0 
L 45.90625 32.71875 
Q 45.90625 40.484375 42.875 44.328125 
Q 39.84375 48.1875 33.796875 48.1875 
Q 26.515625 48.1875 22.3125 43.546875 
Q 18.109375 38.921875 18.109375 30.90625 
L 18.109375 0 
L 9.078125 0 
L 9.078125 54.6875 
L 18.109375 54.6875 
L 18.109375 46.1875 
Q 21.34375 51.125 25.703125 53.5625 
Q 30.078125 56 35.796875 56 
Q 45.21875 56 50.046875 50.171875 
Q 54.890625 44.34375 54.890625 33.015625 
z
" id="DejaVuSans-110"/>
       <path d="M 18.3125 70.21875 
L 18.3125 54.6875 
L 36.8125 54.6875 
L 36.8125 47.703125 
L 18.3125 47.703125 
L 18.3125 18.015625 
Q 18.3125 11.328125 20.140625 9.421875 
Q 21.96875 7.515625 27.59375 7.515625 
L 36.8125 7.515625 
L 36.8125 0 
L 27.59375 0 
Q 17.1875 0 13.234375 3.875 
Q 9.28125 7.765625 9.28125 18.015625 
L 9.28125 47.703125 
L 2.6875 47.703125 
L 2.6875 54.6875 
L 9.28125 54.6875 
L 9.28125 70.21875 
z
" id="DejaVuSans-116"/>
      </defs>
      <use xlink:href="#DejaVuSans-68"/>
      <use x="77.001953" xlink:href="#DejaVuSans-101"/>
      <use x="138.525391" xlink:href="#DejaVuSans-110"/>
      <use x="201.904297" xlink:href="#DejaVuSans-115"/>
      <use x="254.003906" xlink:href="#DejaVuSans-105"/>
      <use x="281.787109" xlink:href="#DejaVuSans-116"/>
      <use x="320.996094" xlink:href="#DejaVuSans-121"/>
     </g>
    </g>
   </g>
   <g id="line2d_12">
    <path clip-path="url(#p8ee54b6dd6)" d="M 73.832727 290.700044 
L 74.482686 290.34655 
L 75.132645 289.690243 
L 75.782604 288.531159 
L 76.432563 286.511616 
L 77.082523 282.9438 
L 77.732482 276.924264 
L 78.382441 267.0454 
L 79.0324 253.314575 
L 79.682359 231.031662 
L 80.982277 177.261803 
L 81.307256 164.97892 
L 81.632236 148.026395 
L 81.957215 144.528259 
L 82.932154 122.915017 
L 83.582113 93.112326 
L 83.907093 91.597849 
L 84.232072 86.274794 
L 84.557052 83.34945 
L 84.882031 75.189183 
L 85.207011 60.141206 
L 85.53199 61.414569 
L 86.181949 76.975176 
L 86.506929 67.554537 
L 86.831908 71.410547 
L 87.156888 68.053401 
L 87.481867 88.988902 
L 87.806847 101.74797 
L 88.131826 84.580377 
L 88.456806 81.728394 
L 88.781785 82.801963 
L 89.106765 100.826532 
L 89.431744 94.761254 
L 89.756724 102.074395 
L 90.081704 92.682113 
L 90.406683 98.615649 
L 90.731663 108.378187 
L 91.381622 88.980496 
L 91.706601 81.855878 
L 92.031581 85.658002 
L 92.35656 91.010002 
L 92.68154 93.206564 
L 93.006519 103.694794 
L 93.331499 103.892468 
L 93.981458 91.227303 
L 94.306437 96.278417 
L 94.956396 93.427361 
L 95.281376 94.04665 
L 95.606355 93.894325 
L 95.931335 107.926427 
L 96.256314 106.684654 
L 96.581294 92.888555 
L 96.906274 88.009345 
L 97.231253 79.341782 
L 97.556233 85.851917 
L 97.881212 88.64051 
L 98.206192 88.333332 
L 98.531171 95.992326 
L 98.856151 91.195613 
L 99.18113 96.547413 
L 99.831089 86.325747 
L 100.156069 77.342722 
L 100.481048 88.144372 
L 101.131007 67.325605 
L 101.455987 69.902323 
L 102.105946 89.62852 
L 102.430925 90.241776 
L 102.755905 112.095328 
L 103.080885 102.441089 
L 103.405864 105.465975 
L 103.730844 102.730417 
L 104.055823 106.244024 
L 104.380803 104.596761 
L 104.705782 107.67812 
L 105.030762 105.664838 
L 105.355741 105.546734 
L 105.680721 96.787867 
L 106.0057 96.535019 
L 106.33068 95.403995 
L 106.655659 89.067505 
L 106.980639 77.331254 
L 107.305618 92.00553 
L 107.630598 92.024954 
L 107.955577 89.976473 
L 108.280557 93.943348 
L 108.605536 102.382662 
L 108.930516 103.130256 
L 109.255495 92.464329 
L 109.580475 102.141635 
L 110.230434 87.907675 
L 110.555414 73.137403 
L 110.880393 76.095349 
L 111.205373 81.422456 
L 111.530352 99.599776 
L 111.855332 94.614005 
L 112.180311 97.23712 
L 112.505291 93.571956 
L 112.83027 99.071761 
L 113.15525 97.561188 
L 113.480229 93.945682 
L 114.130188 83.09807 
L 114.455168 89.232472 
L 114.780147 88.916784 
L 115.105127 100.434568 
L 115.430106 103.830298 
L 115.755086 94.960939 
L 116.080066 104.893855 
L 116.405045 99.72752 
L 116.730025 89.052819 
L 117.379984 99.464544 
L 117.704963 88.198855 
L 118.029943 99.410429 
L 118.354922 103.808954 
L 118.679902 96.219198 
L 119.004881 92.116611 
L 119.329861 86.256579 
L 119.65484 88.203581 
L 119.97982 94.377512 
L 120.304799 93.843709 
L 120.629779 93.070068 
L 120.954758 83.152917 
L 121.279738 83.758367 
L 121.604717 76.382799 
L 121.929697 78.109814 
L 122.254676 83.52541 
L 122.904636 72.696273 
L 123.229615 92.3221 
L 123.554595 84.377569 
L 123.879574 90.877261 
L 124.204554 80.474888 
L 124.529533 85.939633 
L 124.854513 84.082309 
L 125.179492 88.939118 
L 125.504472 78.033465 
L 125.829451 77.065135 
L 126.154431 82.276451 
L 126.47941 79.129684 
L 126.80439 100.892423 
L 127.129369 106.739653 
L 127.454349 99.168624 
L 127.779328 100.818064 
L 128.104308 100.366832 
L 128.429287 99.286247 
L 128.754267 94.249497 
L 129.079247 92.609688 
L 129.404226 100.337184 
L 129.729206 101.631596 
L 130.054185 101.693848 
L 130.379165 104.263068 
L 131.679083 75.651076 
L 132.004062 74.815544 
L 132.329042 66.957106 
L 132.654021 73.201474 
L 132.979001 70.669171 
L 133.30398 74.821846 
L 133.62896 85.21115 
L 133.953939 87.694882 
L 134.278919 81.968325 
L 134.603898 86.921699 
L 135.578837 90.73005 
L 135.903817 97.290618 
L 136.228796 98.870913 
L 136.553776 80.400407 
L 136.878755 81.674806 
L 137.203735 92.34319 
L 137.528714 81.72865 
L 137.853694 90.930238 
L 138.503653 95.47462 
L 138.828632 102.303504 
L 139.153612 102.404953 
L 139.478591 103.775045 
L 139.803571 103.862374 
L 140.12855 113.757359 
L 140.45353 102.353638 
L 140.778509 96.3881 
L 141.103489 97.819827 
L 141.428468 84.500893 
L 142.078428 79.537768 
L 142.403407 64.147646 
L 142.728387 80.163522 
L 143.053366 90.671668 
L 143.378346 90.282056 
L 143.703325 84.093705 
L 144.028305 90.325805 
L 144.678264 66.466135 
L 145.003243 80.526117 
L 145.328223 72.82977 
L 145.653202 89.213841 
L 145.978182 85.311929 
L 146.303161 86.010707 
L 146.628141 98.133093 
L 146.95312 90.364092 
L 147.2781 85.546958 
L 147.603079 84.187202 
L 147.928059 82.009375 
L 148.253038 65.07472 
L 148.578018 70.567308 
L 149.227977 95.070275 
L 149.552957 95.609413 
L 149.877936 93.49416 
L 150.202916 106.384438 
L 150.527895 110.997867 
L 150.852875 91.794056 
L 151.177854 87.924887 
L 151.502834 91.011468 
L 151.827813 99.39887 
L 152.152793 101.946775 
L 152.477772 119.855384 
L 152.802752 103.668973 
L 153.127731 100.944603 
L 153.452711 120.60695 
L 153.77769 117.452462 
L 154.10267 109.914567 
L 154.427649 114.383995 
L 154.752629 102.109567 
L 155.402588 96.187468 
L 155.727568 85.433241 
L 156.052547 86.633066 
L 156.377527 85.536043 
L 156.702506 90.428285 
L 157.027486 78.517406 
L 157.352465 84.109829 
L 157.677445 79.403509 
L 158.002424 76.850474 
L 158.327404 80.896744 
L 158.652383 93.387661 
L 158.977363 114.22802 
L 159.302342 115.285426 
L 159.952301 98.831008 
L 160.277281 103.706193 
L 160.60226 93.654305 
L 160.92724 102.187163 
L 161.252219 95.493767 
L 161.577199 98.973752 
L 161.902179 97.213149 
L 162.227158 90.877379 
L 162.552138 90.023591 
L 162.877117 85.717456 
L 163.202097 87.095035 
L 163.852056 95.668787 
L 164.177035 93.632945 
L 164.502015 90.593261 
L 164.826994 94.517708 
L 165.151974 88.591911 
L 165.476953 94.845578 
L 165.801933 92.399231 
L 166.126912 85.627413 
L 166.451892 84.102311 
L 166.776871 89.892901 
L 167.101851 80.085694 
L 167.75181 76.451558 
L 168.07679 95.267896 
L 168.401769 102.00722 
L 168.726749 103.008257 
L 169.051728 95.67825 
L 169.376708 118.496887 
L 169.701687 114.125382 
L 170.026667 98.981707 
L 170.351646 98.194745 
L 170.676626 93.869834 
L 171.001605 85.130763 
L 171.326585 80.613868 
L 171.651564 62.64998 
L 171.976544 64.168548 
L 172.301523 58.75829 
L 172.626503 62.279206 
L 172.951482 67.026361 
L 173.276462 92.257495 
L 173.601441 104.566098 
L 173.926421 92.030117 
L 174.2514 100.253663 
L 174.57638 96.74647 
L 174.90136 98.500808 
L 175.226339 122.562301 
L 175.551319 117.242259 
L 175.876298 108.219792 
L 176.201278 112.936818 
L 176.526257 100.479942 
L 176.851237 99.473215 
L 177.176216 102.041669 
L 177.501196 102.450859 
L 177.826175 99.469168 
L 178.151155 106.622056 
L 178.476134 107.608046 
L 178.801114 95.548226 
L 179.126093 88.522399 
L 179.451073 98.572067 
L 179.776052 88.476879 
L 180.426011 57.923277 
L 180.750991 76.376505 
L 181.075971 86.967228 
L 181.40095 82.223503 
L 181.72593 80.597984 
L 182.050909 69.64563 
L 182.375889 71.990878 
L 182.700868 80.88131 
L 183.025848 75.28261 
L 183.350827 73.407048 
L 183.675807 76.402632 
L 184.000786 86.742135 
L 184.325766 85.830156 
L 184.650745 69.550271 
L 185.300704 93.552952 
L 185.625684 83.007641 
L 185.950663 85.085068 
L 186.275643 91.721752 
L 186.600622 90.326819 
L 186.925602 94.66365 
L 187.250581 108.47774 
L 187.575561 101.217679 
L 187.900541 103.005487 
L 188.22552 108.065915 
L 188.5505 110.975346 
L 188.875479 95.414363 
L 189.200459 95.518294 
L 189.525438 108.187923 
L 189.850418 107.885578 
L 190.175397 102.604563 
L 190.500377 111.074307 
L 191.150336 94.574385 
L 191.475315 89.826719 
L 191.800295 96.83573 
L 192.125274 90.970813 
L 192.450254 95.249667 
L 192.775233 82.07359 
L 193.100213 74.274738 
L 193.425192 78.824674 
L 193.750172 61.120014 
L 194.075152 57.486192 
L 194.400131 63.350051 
L 194.725111 71.385768 
L 195.05009 87.151461 
L 195.37507 75.623394 
L 195.700049 75.270838 
L 196.025029 83.941285 
L 196.350008 72.025197 
L 196.999967 78.372979 
L 197.324947 92.868667 
L 197.974906 94.087596 
L 198.299885 92.958927 
L 198.624865 102.813261 
L 198.949844 97.18152 
L 199.274824 87.119414 
L 199.599803 80.971287 
L 199.924783 85.851673 
L 200.249762 80.913987 
L 200.574742 95.097824 
L 200.899722 95.584904 
L 201.224701 105.563952 
L 201.549681 106.703374 
L 201.87466 98.060909 
L 202.19964 95.827792 
L 202.524619 89.313599 
L 202.849599 94.448385 
L 203.174578 95.750855 
L 203.499558 91.288376 
L 203.824537 102.26759 
L 204.149517 85.580624 
L 204.474496 98.430799 
L 204.799476 89.278958 
L 205.124455 89.546352 
L 205.449435 100.775019 
L 205.774414 107.074976 
L 206.099394 102.13822 
L 206.424373 104.455146 
L 206.749353 105.727782 
L 207.074333 105.945784 
L 207.399312 86.675349 
L 207.724292 92.969226 
L 208.049271 86.074601 
L 208.69923 79.275488 
L 209.02421 81.024936 
L 209.349189 84.91336 
L 209.674169 97.438399 
L 209.999148 91.966251 
L 210.324128 84.538701 
L 210.649107 72.143121 
L 210.974087 90.874446 
L 211.299066 89.359798 
L 211.624046 91.121634 
L 211.949025 97.572399 
L 212.598984 87.13201 
L 212.923964 101.346993 
L 213.248943 103.146584 
L 213.573923 95.937579 
L 213.898903 95.403785 
L 214.223882 91.348964 
L 214.548862 92.927712 
L 214.873841 87.424405 
L 215.198821 108.036393 
L 215.84878 93.393379 
L 216.173759 81.001594 
L 216.498739 80.306332 
L 216.823718 88.498265 
L 217.148698 78.909481 
L 217.473677 78.673769 
L 217.798657 85.335278 
L 218.123636 76.424781 
L 218.448616 75.495343 
L 218.773595 76.62998 
L 219.098575 70.249041 
L 219.423554 83.367686 
L 219.748534 88.773601 
L 220.073514 87.664259 
L 220.398493 112.494111 
L 220.723473 120.02654 
L 221.048452 116.477651 
L 221.698411 81.629193 
L 222.34837 94.395842 
L 222.67335 94.83702 
L 222.998329 89.690058 
L 223.323309 87.886195 
L 223.648288 103.684203 
L 223.973268 107.522713 
L 224.298247 97.959502 
L 224.623227 107.76736 
L 224.948206 96.719493 
L 225.273186 92.331032 
L 225.598165 82.530106 
L 225.923145 77.080943 
L 226.248124 79.018142 
L 226.573104 83.74068 
L 226.898084 81.535028 
L 227.223063 86.840065 
L 227.548043 89.485234 
L 227.873022 79.387163 
L 228.198002 102.382949 
L 228.847961 89.973676 
L 229.17294 110.557492 
L 229.49792 103.11921 
L 229.822899 111.473975 
L 230.147879 100.067141 
L 230.472858 96.04528 
L 231.122817 84.798522 
L 231.447797 106.212019 
L 231.772776 100.076882 
L 232.097756 90.535861 
L 232.422735 94.9588 
L 232.747715 96.340715 
L 233.072695 88.557484 
L 233.397674 93.532516 
L 233.722654 95.751737 
L 234.047633 91.357976 
L 234.372613 93.849995 
L 234.697592 74.782372 
L 235.347551 89.299707 
L 235.672531 75.116838 
L 235.99751 71.524344 
L 236.32249 71.409087 
L 236.972449 91.323093 
L 237.297428 93.360839 
L 237.947387 128.05623 
L 238.272367 122.789796 
L 238.597346 122.731462 
L 238.922326 121.063017 
L 239.897265 87.618864 
L 240.222244 81.949173 
L 240.547224 85.240385 
L 240.872203 81.565146 
L 241.197183 92.142415 
L 241.522162 85.896765 
L 241.847142 82.055561 
L 242.172121 75.961946 
L 242.82208 100.674698 
L 243.14706 100.2284 
L 243.472039 104.794796 
L 243.797019 100.4038 
L 244.121998 103.129834 
L 244.446978 100.616637 
L 244.771957 95.810971 
L 245.096937 101.898795 
L 245.421916 95.586621 
L 245.746896 96.432443 
L 246.071876 90.095096 
L 246.396855 94.562377 
L 246.721835 92.223626 
L 247.046814 88.019751 
L 247.371794 90.278756 
L 247.696773 99.46762 
L 248.021753 117.232675 
L 248.346732 110.234278 
L 248.671712 105.832343 
L 248.996691 107.222645 
L 249.64665 88.496288 
L 249.97163 98.41542 
L 250.296609 100.535963 
L 250.621589 91.775155 
L 250.946568 90.134911 
L 251.271548 97.550399 
L 251.596527 85.283187 
L 251.921507 77.379739 
L 252.246486 84.774899 
L 252.571466 88.406104 
L 252.896446 84.587765 
L 253.221425 89.033944 
L 253.546405 102.3821 
L 253.871384 92.342129 
L 254.196364 78.513686 
L 254.521343 79.688479 
L 254.846323 90.207902 
L 255.171302 85.759242 
L 255.496282 79.160597 
L 255.821261 76.904033 
L 256.146241 79.793174 
L 256.47122 73.391121 
L 256.7962 72.182724 
L 257.121179 84.614117 
L 257.446159 92.232904 
L 257.771138 92.30336 
L 258.096118 90.632628 
L 258.421097 93.114383 
L 258.746077 86.578103 
L 259.071057 88.4576 
L 259.396036 98.598545 
L 259.721016 86.77718 
L 260.045995 86.864984 
L 260.370975 89.073184 
L 260.695954 98.119181 
L 261.020934 96.249708 
L 261.345913 96.307416 
L 261.670893 92.362815 
L 262.320852 80.589993 
L 262.645831 89.535352 
L 262.970811 89.160276 
L 263.29579 85.842311 
L 263.62077 108.950474 
L 263.945749 107.006975 
L 264.270729 91.634673 
L 264.595708 85.194122 
L 264.920688 99.090386 
L 265.245667 101.625805 
L 265.570647 106.544177 
L 265.895627 99.871396 
L 266.545586 99.463279 
L 266.870565 81.776147 
L 267.195545 79.267726 
L 267.520524 75.247355 
L 267.845504 86.863887 
L 268.495463 96.952011 
L 268.820442 106.341223 
L 269.145422 110.398625 
L 269.795381 89.441388 
L 270.12036 104.028492 
L 270.44534 100.076936 
L 270.770319 81.726329 
L 271.095299 86.405442 
L 271.420278 98.00537 
L 272.070238 84.258845 
L 272.395217 99.227629 
L 272.720197 93.029853 
L 273.045176 90.123079 
L 273.370156 90.614159 
L 273.695135 81.849147 
L 274.020115 79.313181 
L 274.345094 87.102039 
L 274.670074 88.760467 
L 274.995053 88.281252 
L 275.320033 87.368787 
L 275.645012 87.297102 
L 275.969992 82.356164 
L 276.294971 83.04266 
L 276.619951 84.988962 
L 276.94493 81.928674 
L 277.594889 106.178537 
L 277.919869 98.638058 
L 278.244848 106.221727 
L 278.569828 98.413376 
L 278.894808 94.483694 
L 279.219787 97.866414 
L 279.544767 103.165466 
L 280.519705 82.584619 
L 280.844685 84.952895 
L 281.169664 84.269202 
L 281.494644 102.741014 
L 281.819623 106.300174 
L 282.144603 104.86877 
L 282.469582 108.836263 
L 282.794562 106.661157 
L 283.444521 79.176008 
L 283.7695 80.161471 
L 284.09448 81.886707 
L 284.419459 76.564872 
L 284.744439 74.601529 
L 285.069419 62.414923 
L 285.394398 56.626111 
L 286.044357 73.73859 
L 286.369337 94.642399 
L 286.694316 92.010167 
L 287.019296 90.52489 
L 287.344275 88.344635 
L 287.669255 103.692687 
L 288.319214 99.088346 
L 288.644193 89.273692 
L 288.969173 90.205053 
L 289.294152 109.108107 
L 289.619132 104.353324 
L 289.944111 97.260936 
L 290.269091 104.212307 
L 290.59407 93.071234 
L 290.91905 85.937136 
L 291.569009 78.955759 
L 291.893989 67.601821 
L 292.218968 79.789746 
L 292.543948 77.69875 
L 292.868927 73.741109 
L 293.193907 77.320264 
L 293.518886 91.354721 
L 293.843866 86.274389 
L 294.168845 90.415714 
L 294.818804 103.77299 
L 295.143784 112.785639 
L 296.768681 68.424232 
L 297.093661 83.556579 
L 297.41864 84.147392 
L 297.74362 86.924017 
L 298.393579 76.378844 
L 298.718559 80.03345 
L 299.043538 78.632348 
L 299.368518 90.38848 
L 300.343456 66.770679 
L 300.668436 75.293788 
L 300.993415 88.995299 
L 301.318395 88.195727 
L 301.643374 92.751727 
L 301.968354 100.780298 
L 302.293333 99.07761 
L 302.618313 92.912473 
L 303.268272 88.166543 
L 303.593251 90.513123 
L 303.918231 107.411978 
L 304.24321 143.674333 
L 304.56819 131.256092 
L 304.89317 125.502798 
L 305.218149 117.573272 
L 305.543129 106.245409 
L 305.868108 102.567287 
L 306.193088 92.776252 
L 306.518067 94.34042 
L 307.168026 81.813807 
L 307.493006 84.824518 
L 308.142965 86.839392 
L 308.467944 82.489856 
L 308.792924 90.284403 
L 309.117903 87.086402 
L 309.442883 79.031791 
L 309.767862 78.095351 
L 310.092842 75.967647 
L 310.417821 76.564509 
L 310.742801 81.979902 
L 311.067781 81.597116 
L 311.39276 86.824262 
L 311.71774 87.350853 
L 312.042719 78.512035 
L 312.367699 82.33909 
L 312.692678 64.657002 
L 313.342637 89.545605 
L 313.667617 82.151926 
L 313.992596 96.11226 
L 314.317576 98.210831 
L 314.642555 98.619543 
L 314.967535 86.07714 
L 315.292514 86.332437 
L 315.617494 82.468227 
L 315.942473 105.49232 
L 316.917412 60.676463 
L 317.242391 53.568 
L 317.892351 67.704953 
L 318.21733 71.204727 
L 318.867289 104.117997 
L 319.192269 101.729392 
L 319.517248 96.489421 
L 319.842228 73.230575 
L 320.167207 60.988497 
L 320.492187 73.940928 
L 320.817166 80.124023 
L 321.142146 79.116788 
L 321.467125 84.078611 
L 321.792105 86.22718 
L 322.117084 83.442046 
L 322.442064 97.736879 
L 322.767043 98.800199 
L 323.092023 107.152103 
L 323.417002 120.03996 
L 323.741982 111.738758 
L 324.066962 97.283424 
L 324.391941 109.613353 
L 324.716921 115.618057 
L 325.0419 102.568094 
L 325.36688 109.234017 
L 326.016839 88.647562 
L 326.341818 88.302644 
L 326.666798 82.734419 
L 326.991777 85.912463 
L 327.316757 74.11724 
L 327.641736 57.628443 
L 327.966716 73.494943 
L 328.291695 70.345057 
L 328.616675 82.149435 
L 328.941654 84.393638 
L 329.266634 87.471234 
L 329.916593 96.573778 
L 330.241572 87.72165 
L 330.566552 84.44281 
L 330.891532 88.404119 
L 331.216511 95.191582 
L 331.541491 93.192726 
L 332.19145 71.264675 
L 332.516429 88.393609 
L 332.841409 86.435965 
L 333.166388 79.898359 
L 333.491368 81.853986 
L 334.141327 64.123321 
L 334.466306 93.000891 
L 334.791286 96.353926 
L 335.441245 88.089428 
L 335.766224 106.496774 
L 336.091204 95.95698 
L 336.416183 113.499697 
L 336.741163 118.549706 
L 337.066143 116.082351 
L 337.391122 119.821156 
L 337.716102 132.798524 
L 338.041081 119.963376 
L 338.366061 112.975212 
L 338.69104 109.187067 
L 339.01602 102.748162 
L 339.340999 91.997096 
L 339.665979 93.214511 
L 339.990958 80.888492 
L 340.315938 92.699842 
L 340.640917 134.043406 
L 340.965897 134.069674 
L 341.615856 117.023871 
L 341.940835 122.610856 
L 342.590794 109.999089 
L 342.915774 98.840926 
L 343.240753 100.137912 
L 343.565733 100.925956 
L 343.890713 97.554702 
L 344.215692 101.281959 
L 344.540672 95.778714 
L 344.865651 97.381921 
L 345.190631 93.26833 
L 345.51561 83.224633 
L 345.84059 112.976363 
L 346.490549 111.586948 
L 346.815528 106.63981 
L 347.140508 98.935518 
L 347.465487 98.22459 
L 347.790467 94.986697 
L 348.115446 94.016132 
L 348.765405 91.008201 
L 349.090385 98.895908 
L 349.415364 89.356665 
L 349.740344 116.905574 
L 350.065324 106.713697 
L 350.390303 113.453384 
L 350.715283 103.317103 
L 351.040262 122.19897 
L 351.365242 117.096132 
L 351.690221 115.393468 
L 352.015201 117.134799 
L 352.34018 104.266309 
L 352.66516 100.507344 
L 352.990139 94.752378 
L 353.315119 92.878284 
L 353.640098 97.158349 
L 353.965078 105.129534 
L 354.290057 108.363235 
L 354.940016 96.882392 
L 355.264996 84.836237 
L 355.589975 93.841555 
L 356.239934 69.171917 
L 356.564914 58.712624 
L 356.889894 67.881502 
L 357.214873 63.038102 
L 357.539853 86.401695 
L 357.864832 92.121925 
L 358.189812 82.760024 
L 358.514791 84.68889 
L 358.839771 84.570781 
L 359.16475 67.376052 
L 359.48973 76.471545 
L 359.814709 74.997192 
L 360.139689 79.279466 
L 360.464668 75.292207 
L 360.789648 75.782284 
L 361.439607 82.660108 
L 361.764586 85.054892 
L 362.089566 76.58729 
L 362.414545 72.739886 
L 362.739525 76.574258 
L 363.064505 77.288872 
L 363.389484 75.79945 
L 363.714464 73.285025 
L 364.039443 68.286874 
L 364.364423 77.551782 
L 364.689402 75.319859 
L 365.98932 114.20916 
L 366.3143 104.756242 
L 366.639279 107.196388 
L 366.964259 101.10657 
L 367.289238 116.871136 
L 367.614218 115.22491 
L 368.264177 96.854786 
L 368.914136 84.283261 
L 369.239115 91.619632 
L 369.564095 88.760428 
L 369.889075 90.04061 
L 370.214054 95.812988 
L 370.539034 93.277718 
L 370.864013 98.406972 
L 371.188993 105.529279 
L 371.513972 94.706692 
L 372.163931 86.171605 
L 372.488911 103.037201 
L 372.81389 105.207163 
L 373.463849 74.064662 
L 373.788829 76.64501 
L 374.113808 73.821866 
L 374.438788 75.805008 
L 374.763767 76.022344 
L 375.088747 96.605504 
L 375.413726 88.747821 
L 375.738706 104.100592 
L 376.063686 113.059016 
L 376.713645 95.589972 
L 377.363604 131.826363 
L 377.688583 127.936908 
L 378.338542 110.649137 
L 378.663522 113.923487 
L 378.988501 100.941866 
L 379.313481 101.892329 
L 379.63846 119.3578 
L 379.96344 106.32721 
L 380.288419 113.945291 
L 380.613399 103.512229 
L 380.938378 98.50911 
L 381.263358 89.692105 
L 381.588337 98.004048 
L 381.913317 93.045196 
L 382.238296 93.881275 
L 382.563276 102.737584 
L 383.213235 111.256841 
L 383.538215 105.700805 
L 384.188174 91.089141 
L 384.513153 96.849987 
L 384.838133 94.335052 
L 385.163112 87.664469 
L 385.488092 84.977399 
L 385.813071 86.676937 
L 386.138051 83.854515 
L 386.46303 89.908094 
L 386.78801 82.445474 
L 387.112989 89.534674 
L 387.437969 100.661484 
L 387.762948 106.113472 
L 388.087928 104.294946 
L 388.412907 106.613449 
L 388.737887 106.475783 
L 389.062867 99.651223 
L 389.387846 96.943647 
L 389.712826 85.160177 
L 390.037805 88.620778 
L 390.362785 103.388273 
L 390.687764 102.523783 
L 391.337723 78.224903 
L 391.662703 76.367617 
L 391.987682 84.34179 
L 392.312662 83.276929 
L 392.637641 90.022946 
L 392.962621 82.189815 
L 393.2876 80.47696 
L 393.61258 91.486816 
L 393.937559 83.1175 
L 394.262539 83.472553 
L 394.587518 80.388605 
L 394.912498 79.278577 
L 395.237477 92.43942 
L 395.562457 94.803437 
L 395.887437 102.214452 
L 396.212416 104.172444 
L 396.537396 111.986635 
L 396.862375 108.040613 
L 397.512334 103.90353 
L 397.837314 92.0785 
L 398.487273 84.120334 
L 398.487273 84.120334 
" style="fill:none;stroke:#1f77b4;stroke-linecap:square;stroke-width:1.5;"/>
   </g>
   <g id="line2d_13">
    <path clip-path="url(#p8ee54b6dd6)" d="M 73.832727 291.201248 
L 79.0324 291.38442 
L 85.207011 291.660248 
L 171.326585 292.877436 
L 172.301523 292.94332 
L 179.776052 292.943817 
L 180.750991 292.980846 
L 181.72593 292.983882 
L 183.025848 293.019211 
L 185.950663 293.020398 
L 188.5505 292.975038 
L 189.200459 293.035484 
L 190.500377 293.004582 
L 194.075152 293.200019 
L 196.025029 293.1333 
L 196.999967 293.164611 
L 197.974906 293.123017 
L 205.124455 293.22586 
L 206.424373 293.194439 
L 208.049271 293.283528 
L 210.649107 293.363775 
L 211.299066 293.308107 
L 215.84878 293.34445 
L 216.498739 293.404813 
L 217.798657 293.407772 
L 219.098575 293.479104 
L 220.723473 293.314421 
L 223.648288 293.410505 
L 224.948206 293.455189 
L 227.223063 293.528221 
L 230.472858 293.544451 
L 231.122817 293.600172 
L 231.447797 293.497056 
L 233.072695 293.587284 
L 234.372613 293.579112 
L 235.022572 293.639524 
L 235.672531 293.677877 
L 236.647469 293.668179 
L 238.597346 293.519065 
L 239.572285 293.667919 
L 240.872203 293.731307 
L 241.522162 293.718069 
L 242.497101 293.727725 
L 243.472039 293.654812 
L 245.421916 293.718052 
L 251.271548 293.778229 
L 252.246486 293.846802 
L 253.871384 293.828398 
L 254.521343 293.89236 
L 255.171302 293.872261 
L 256.7962 293.955722 
L 257.771138 293.874972 
L 263.29579 293.994167 
L 263.945749 293.908827 
L 264.595708 294.023686 
L 265.570647 293.932106 
L 267.520524 294.101892 
L 269.145422 293.952173 
L 269.795381 294.06614 
L 270.44534 294.026779 
L 271.095299 294.102978 
L 271.745258 294.089945 
L 272.720197 294.091152 
L 275.320033 294.13552 
L 283.119541 294.188708 
L 283.7695 294.264985 
L 284.744439 294.305652 
L 285.394398 294.399524 
L 287.994234 294.198161 
L 293.193907 294.376952 
L 293.843866 294.337986 
L 295.793743 294.326976 
L 296.768681 294.465435 
L 297.41864 294.390755 
L 299.693497 294.42234 
L 300.668436 294.473741 
L 301.318395 294.41056 
L 302.618313 294.399081 
L 303.593251 294.426194 
L 304.56819 294.220584 
L 308.142965 294.523164 
L 310.092842 294.604298 
L 313.667617 294.602335 
L 314.317576 294.514872 
L 316.267453 294.576625 
L 317.242391 294.783643 
L 319.517248 294.580134 
L 320.167207 294.789871 
L 320.817166 294.689815 
L 322.117084 294.682675 
L 323.417002 294.477602 
L 324.391941 294.555718 
L 324.716921 294.516292 
L 325.0419 294.605974 
L 325.691859 294.629017 
L 326.666798 294.74291 
L 327.316757 294.799524 
L 327.641736 294.897396 
L 328.291695 294.837274 
L 329.266634 294.74787 
L 330.241572 294.759142 
L 331.216511 294.731587 
L 334.141327 294.940547 
L 334.466306 294.769469 
L 338.041081 294.632446 
L 339.990958 294.914182 
L 340.315938 294.837016 
L 340.640917 294.583439 
L 341.290876 294.66555 
L 342.265815 294.716218 
L 343.890713 294.86009 
L 344.865651 294.867075 
L 345.51561 294.966332 
L 345.84059 294.77371 
L 348.115446 294.927398 
L 349.415364 294.961913 
L 349.740344 294.774112 
L 350.065324 294.849043 
L 350.390303 294.802387 
L 350.715283 294.87436 
L 351.040262 294.748447 
L 353.640098 294.945436 
L 354.290057 294.875911 
L 357.214873 295.176544 
L 357.864832 295.003314 
L 358.514791 295.057498 
L 365.014382 295.073442 
L 366.3143 294.950813 
L 367.614218 294.881372 
L 368.914136 295.11333 
L 369.564095 295.090505 
L 373.13887 295.113436 
L 373.788829 295.208421 
L 374.763767 295.218371 
L 375.088747 295.092415 
L 375.413726 295.149059 
L 376.063686 294.984591 
L 376.713645 295.117619 
L 377.363604 294.875088 
L 379.313481 295.106347 
L 379.63846 294.993278 
L 379.96344 295.094527 
L 380.288419 295.029685 
L 381.263358 295.216976 
L 381.913317 295.197972 
L 385.163112 295.271615 
L 386.78801 295.331023 
L 388.737887 295.185912 
L 390.037805 295.330627 
L 390.687764 295.240921 
L 391.662703 295.435115 
L 392.637641 295.349029 
L 393.2876 295.428525 
L 393.61258 295.355716 
L 394.587518 295.444664 
L 395.237477 295.370545 
L 397.512334 295.323504 
L 398.162293 295.453203 
L 398.487273 295.488 
L 398.487273 295.488 
" style="fill:none;stroke:#ff7f0e;stroke-linecap:square;stroke-width:1.5;"/>
   </g>
   <g id="patch_3">
    <path d="M 57.6 307.584 
L 57.6 41.472 
" style="fill:none;stroke:#000000;stroke-linecap:square;stroke-linejoin:miter;stroke-width:0.8;"/>
   </g>
   <g id="patch_4">
    <path d="M 414.72 307.584 
L 414.72 41.472 
" style="fill:none;stroke:#000000;stroke-linecap:square;stroke-linejoin:miter;stroke-width:0.8;"/>
   </g>
   <g id="patch_5">
    <path d="M 57.6 307.584 
L 414.72 307.584 
" style="fill:none;stroke:#000000;stroke-linecap:square;stroke-linejoin:miter;stroke-width:0.8;"/>
   </g>
   <g id="patch_6">
    <path d="M 57.6 41.472 
L 414.72 41.472 
" style="fill:none;stroke:#000000;stroke-linecap:square;stroke-linejoin:miter;stroke-width:0.8;"/>
   </g>
  </g>
 </g>
 <defs>
  <clipPath id="p8ee54b6dd6">
   <rect height="266.112" width="357.12" x="57.6" y="41.472"/>
  </clipPath>
 </defs>
</svg>
