<?xml version="1.0" encoding="utf-8" standalone="no"?>
<!DOCTYPE svg PUBLIC "-//W3C//DTD SVG 1.1//EN"
  "http://www.w3.org/Graphics/SVG/1.1/DTD/svg11.dtd">
<!-- Created with matplotlib (https://matplotlib.org/) -->
<svg height="288pt" version="1.1" viewBox="0 0 432 288" width="432pt" xmlns="http://www.w3.org/2000/svg" xmlns:xlink="http://www.w3.org/1999/xlink">
 <metadata>
  <rdf:RDF xmlns:cc="http://creativecommons.org/ns#" xmlns:dc="http://purl.org/dc/elements/1.1/" xmlns:rdf="http://www.w3.org/1999/02/22-rdf-syntax-ns#">
   <cc:Work>
    <dc:type rdf:resource="http://purl.org/dc/dcmitype/StillImage"/>
    <dc:date>2020-11-09T21:50:15.317368</dc:date>
    <dc:format>image/svg+xml</dc:format>
    <dc:creator>
     <cc:Agent>
      <dc:title>Matplotlib v3.3.2, https://matplotlib.org/</dc:title>
     </cc:Agent>
    </dc:creator>
   </cc:Work>
  </rdf:RDF>
 </metadata>
 <defs>
  <style type="text/css">*{stroke-linecap:butt;stroke-linejoin:round;}</style>
 </defs>
 <g id="figure_1">
  <g id="patch_1">
   <path d="M 0 288 
L 432 288 
L 432 0 
L 0 0 
z
" style="fill:none;"/>
  </g>
  <g id="axes_1">
   <g id="patch_2">
    <path d="M 54 252 
L 388.8 252 
L 388.8 34.56 
L 54 34.56 
z
" style="fill:#ffffff;"/>
   </g>
   <g id="PathCollection_1">
    <defs>
     <path d="M 0 3 
C 0.795609 3 1.55874 2.683901 2.12132 2.12132 
C 2.683901 1.55874 3 0.795609 3 -0 
C 3 -0.795609 2.683901 -1.55874 2.12132 -2.12132 
C 1.55874 -2.683901 0.795609 -3 0 -3 
C -0.795609 -3 -1.55874 -2.683901 -2.12132 -2.12132 
C -2.683901 -1.55874 -3 -0.795609 -3 0 
C -3 0.795609 -2.683901 1.55874 -2.12132 2.12132 
C -1.55874 2.683901 -0.795609 3 0 3 
z
" id="C0_0_e0501a63fa"/>
    </defs>
    <g clip-path="url(#pade56ed50e)">
     <use style="fill:#440154;stroke:#440154;" x="69.218182" xlink:href="#C0_0_e0501a63fa" y="241.762512"/>
    </g>
    <g clip-path="url(#pade56ed50e)">
     <use style="fill:#440154;stroke:#440154;" x="69.369191" xlink:href="#C0_0_e0501a63fa" y="242.000186"/>
    </g>
    <g clip-path="url(#pade56ed50e)">
     <use style="fill:#440154;stroke:#440154;" x="69.789381" xlink:href="#C0_0_e0501a63fa" y="242.0856"/>
    </g>
    <g clip-path="url(#pade56ed50e)">
     <use style="fill:#440154;stroke:#440154;" x="70.958587" xlink:href="#C0_0_e0501a63fa" y="242.116364"/>
    </g>
    <g clip-path="url(#pade56ed50e)">
     <use style="fill:#440256;stroke:#440256;" x="69.218182" xlink:href="#C0_0_e0501a63fa" y="240.700123"/>
    </g>
    <g clip-path="url(#pade56ed50e)">
     <use style="fill:#440256;stroke:#440256;" x="69.369191" xlink:href="#C0_0_e0501a63fa" y="240.937845"/>
    </g>
    <g clip-path="url(#pade56ed50e)">
     <use style="fill:#440256;stroke:#440256;" x="69.789381" xlink:href="#C0_0_e0501a63fa" y="241.023276"/>
    </g>
    <g clip-path="url(#pade56ed50e)">
     <use style="fill:#440256;stroke:#440256;" x="70.958587" xlink:href="#C0_0_e0501a63fa" y="241.053912"/>
    </g>
    <g clip-path="url(#pade56ed50e)">
     <use style="fill:#440256;stroke:#440256;" x="74.211972" xlink:href="#C0_0_e0501a63fa" y="241.064856"/>
    </g>
    <g clip-path="url(#pade56ed50e)">
     <use style="fill:#440256;stroke:#440256;" x="83.264708" xlink:href="#C0_0_e0501a63fa" y="241.072532"/>
    </g>
    <g clip-path="url(#pade56ed50e)">
     <use style="fill:#440256;stroke:#440256;" x="108.454484" xlink:href="#C0_0_e0501a63fa" y="241.071824"/>
    </g>
    <g clip-path="url(#pade56ed50e)">
     <use style="fill:#440256;stroke:#440256;" x="178.546532" xlink:href="#C0_0_e0501a63fa" y="241.067173"/>
    </g>
    <g clip-path="url(#pade56ed50e)">
     <use style="fill:#440256;stroke:#440256;" x="373.581818" xlink:href="#C0_0_e0501a63fa" y="241.068259"/>
    </g>
    <g clip-path="url(#pade56ed50e)">
     <use style="fill:#46075a;stroke:#46075a;" x="69.218182" xlink:href="#C0_0_e0501a63fa" y="238.411593"/>
    </g>
    <g clip-path="url(#pade56ed50e)">
     <use style="fill:#46075a;stroke:#46075a;" x="69.369191" xlink:href="#C0_0_e0501a63fa" y="238.649178"/>
    </g>
    <g clip-path="url(#pade56ed50e)">
     <use style="fill:#46075a;stroke:#46075a;" x="69.789381" xlink:href="#C0_0_e0501a63fa" y="238.734493"/>
    </g>
    <g clip-path="url(#pade56ed50e)">
     <use style="fill:#46075a;stroke:#46075a;" x="70.958587" xlink:href="#C0_0_e0501a63fa" y="238.762945"/>
    </g>
    <g clip-path="url(#pade56ed50e)">
     <use style="fill:#46075a;stroke:#46075a;" x="74.211972" xlink:href="#C0_0_e0501a63fa" y="238.778845"/>
    </g>
    <g clip-path="url(#pade56ed50e)">
     <use style="fill:#46075a;stroke:#46075a;" x="83.264708" xlink:href="#C0_0_e0501a63fa" y="238.778455"/>
    </g>
    <g clip-path="url(#pade56ed50e)">
     <use style="fill:#46075a;stroke:#46075a;" x="373.581818" xlink:href="#C0_0_e0501a63fa" y="238.7759"/>
    </g>
    <g clip-path="url(#pade56ed50e)">
     <use style="fill:#471063;stroke:#471063;" x="69.218182" xlink:href="#C0_0_e0501a63fa" y="233.48103"/>
    </g>
    <g clip-path="url(#pade56ed50e)">
     <use style="fill:#471063;stroke:#471063;" x="69.369191" xlink:href="#C0_0_e0501a63fa" y="233.718981"/>
    </g>
    <g clip-path="url(#pade56ed50e)">
     <use style="fill:#471063;stroke:#471063;" x="69.789381" xlink:href="#C0_0_e0501a63fa" y="233.80446"/>
    </g>
    <g clip-path="url(#pade56ed50e)">
     <use style="fill:#471063;stroke:#471063;" x="70.958587" xlink:href="#C0_0_e0501a63fa" y="233.83332"/>
    </g>
    <g clip-path="url(#pade56ed50e)">
     <use style="fill:#471063;stroke:#471063;" x="74.211972" xlink:href="#C0_0_e0501a63fa" y="233.845638"/>
    </g>
    <g clip-path="url(#pade56ed50e)">
     <use style="fill:#471063;stroke:#471063;" x="108.454484" xlink:href="#C0_0_e0501a63fa" y="233.850427"/>
    </g>
    <g clip-path="url(#pade56ed50e)">
     <use style="fill:#482374;stroke:#482374;" x="69.218182" xlink:href="#C0_0_e0501a63fa" y="222.858705"/>
    </g>
    <g clip-path="url(#pade56ed50e)">
     <use style="fill:#482374;stroke:#482374;" x="69.369191" xlink:href="#C0_0_e0501a63fa" y="223.09699"/>
    </g>
    <g clip-path="url(#pade56ed50e)">
     <use style="fill:#482374;stroke:#482374;" x="69.789381" xlink:href="#C0_0_e0501a63fa" y="223.180366"/>
    </g>
    <g clip-path="url(#pade56ed50e)">
     <use style="fill:#482374;stroke:#482374;" x="70.958587" xlink:href="#C0_0_e0501a63fa" y="223.187123"/>
    </g>
    <g clip-path="url(#pade56ed50e)">
     <use style="fill:#482374;stroke:#482374;" x="74.211972" xlink:href="#C0_0_e0501a63fa" y="223.22712"/>
    </g>
    <g clip-path="url(#pade56ed50e)">
     <use style="fill:#482374;stroke:#482374;" x="83.264708" xlink:href="#C0_0_e0501a63fa" y="223.230531"/>
    </g>
    <g clip-path="url(#pade56ed50e)">
     <use style="fill:#482374;stroke:#482374;" x="108.454484" xlink:href="#C0_0_e0501a63fa" y="223.238925"/>
    </g>
    <g clip-path="url(#pade56ed50e)">
     <use style="fill:#482374;stroke:#482374;" x="178.546532" xlink:href="#C0_0_e0501a63fa" y="223.206125"/>
    </g>
    <g clip-path="url(#pade56ed50e)">
     <use style="fill:#3f4788;stroke:#3f4788;" x="69.218182" xlink:href="#C0_0_e0501a63fa" y="199.973023"/>
    </g>
    <g clip-path="url(#pade56ed50e)">
     <use style="fill:#3f4788;stroke:#3f4788;" x="69.369191" xlink:href="#C0_0_e0501a63fa" y="200.211224"/>
    </g>
    <g clip-path="url(#pade56ed50e)">
     <use style="fill:#3f4788;stroke:#3f4788;" x="69.789381" xlink:href="#C0_0_e0501a63fa" y="200.327462"/>
    </g>
    <g clip-path="url(#pade56ed50e)">
     <use style="fill:#3f4788;stroke:#3f4788;" x="70.958587" xlink:href="#C0_0_e0501a63fa" y="200.270219"/>
    </g>
    <g clip-path="url(#pade56ed50e)">
     <use style="fill:#3f4788;stroke:#3f4788;" x="74.211972" xlink:href="#C0_0_e0501a63fa" y="200.334765"/>
    </g>
    <g clip-path="url(#pade56ed50e)">
     <use style="fill:#3f4788;stroke:#3f4788;" x="108.454484" xlink:href="#C0_0_e0501a63fa" y="200.526035"/>
    </g>
    <g clip-path="url(#pade56ed50e)">
     <use style="fill:#24878e;stroke:#24878e;" x="69.218182" xlink:href="#C0_0_e0501a63fa" y="150.66677"/>
    </g>
    <g clip-path="url(#pade56ed50e)">
     <use style="fill:#24878e;stroke:#24878e;" x="69.369191" xlink:href="#C0_0_e0501a63fa" y="150.903649"/>
    </g>
    <g clip-path="url(#pade56ed50e)">
     <use style="fill:#24878e;stroke:#24878e;" x="69.789381" xlink:href="#C0_0_e0501a63fa" y="150.984903"/>
    </g>
    <g clip-path="url(#pade56ed50e)">
     <use style="fill:#24878e;stroke:#24878e;" x="70.958587" xlink:href="#C0_0_e0501a63fa" y="151.001276"/>
    </g>
    <g clip-path="url(#pade56ed50e)">
     <use style="fill:#24878e;stroke:#24878e;" x="74.211972" xlink:href="#C0_0_e0501a63fa" y="151.002638"/>
    </g>
    <g clip-path="url(#pade56ed50e)">
     <use style="fill:#fde725;stroke:#fde725;" x="69.218182" xlink:href="#C0_0_e0501a63fa" y="44.443636"/>
    </g>
    <g clip-path="url(#pade56ed50e)">
     <use style="fill:#fde725;stroke:#fde725;" x="69.369191" xlink:href="#C0_0_e0501a63fa" y="44.680022"/>
    </g>
    <g clip-path="url(#pade56ed50e)">
     <use style="fill:#fde725;stroke:#fde725;" x="69.789381" xlink:href="#C0_0_e0501a63fa" y="44.721145"/>
    </g>
    <g clip-path="url(#pade56ed50e)">
     <use style="fill:#fde725;stroke:#fde725;" x="70.958587" xlink:href="#C0_0_e0501a63fa" y="44.721327"/>
    </g>
    <g clip-path="url(#pade56ed50e)">
     <use style="fill:#fde725;stroke:#fde725;" x="74.211972" xlink:href="#C0_0_e0501a63fa" y="44.781806"/>
    </g>
   </g>
   <g id="matplotlib.axis_1">
    <g id="xtick_1">
     <g id="line2d_1">
      <defs>
       <path d="M 0 0 
L 0 3.5 
" id="m5f72f6c53a" style="stroke:#000000;stroke-width:0.8;"/>
      </defs>
      <g>
       <use style="stroke:#000000;stroke-width:0.8;" x="69.133467" xlink:href="#m5f72f6c53a" y="252"/>
      </g>
     </g>
     <g id="text_1">
      <!-- 0.0 -->
      <g transform="translate(61.181905 266.598437)scale(0.1 -0.1)">
       <defs>
        <path d="M 31.78125 66.40625 
Q 24.171875 66.40625 20.328125 58.90625 
Q 16.5 51.421875 16.5 36.375 
Q 16.5 21.390625 20.328125 13.890625 
Q 24.171875 6.390625 31.78125 6.390625 
Q 39.453125 6.390625 43.28125 13.890625 
Q 47.125 21.390625 47.125 36.375 
Q 47.125 51.421875 43.28125 58.90625 
Q 39.453125 66.40625 31.78125 66.40625 
z
M 31.78125 74.21875 
Q 44.046875 74.21875 50.515625 64.515625 
Q 56.984375 54.828125 56.984375 36.375 
Q 56.984375 17.96875 50.515625 8.265625 
Q 44.046875 -1.421875 31.78125 -1.421875 
Q 19.53125 -1.421875 13.0625 8.265625 
Q 6.59375 17.96875 6.59375 36.375 
Q 6.59375 54.828125 13.0625 64.515625 
Q 19.53125 74.21875 31.78125 74.21875 
z
" id="DejaVuSans-48"/>
        <path d="M 10.6875 12.40625 
L 21 12.40625 
L 21 0 
L 10.6875 0 
z
" id="DejaVuSans-46"/>
       </defs>
       <use xlink:href="#DejaVuSans-48"/>
       <use x="63.623047" xlink:href="#DejaVuSans-46"/>
       <use x="95.410156" xlink:href="#DejaVuSans-48"/>
      </g>
     </g>
    </g>
    <g id="xtick_2">
     <g id="line2d_2">
      <g>
       <use style="stroke:#000000;stroke-width:0.8;" x="111.490748" xlink:href="#m5f72f6c53a" y="252"/>
      </g>
     </g>
     <g id="text_2">
      <!-- 0.5 -->
      <g transform="translate(103.539186 266.598437)scale(0.1 -0.1)">
       <defs>
        <path d="M 10.796875 72.90625 
L 49.515625 72.90625 
L 49.515625 64.59375 
L 19.828125 64.59375 
L 19.828125 46.734375 
Q 21.96875 47.46875 24.109375 47.828125 
Q 26.265625 48.1875 28.421875 48.1875 
Q 40.625 48.1875 47.75 41.5 
Q 54.890625 34.8125 54.890625 23.390625 
Q 54.890625 11.625 47.5625 5.09375 
Q 40.234375 -1.421875 26.90625 -1.421875 
Q 22.3125 -1.421875 17.546875 -0.640625 
Q 12.796875 0.140625 7.71875 1.703125 
L 7.71875 11.625 
Q 12.109375 9.234375 16.796875 8.0625 
Q 21.484375 6.890625 26.703125 6.890625 
Q 35.15625 6.890625 40.078125 11.328125 
Q 45.015625 15.765625 45.015625 23.390625 
Q 45.015625 31 40.078125 35.4375 
Q 35.15625 39.890625 26.703125 39.890625 
Q 22.75 39.890625 18.8125 39.015625 
Q 14.890625 38.140625 10.796875 36.28125 
z
" id="DejaVuSans-53"/>
       </defs>
       <use xlink:href="#DejaVuSans-48"/>
       <use x="63.623047" xlink:href="#DejaVuSans-46"/>
       <use x="95.410156" xlink:href="#DejaVuSans-53"/>
      </g>
     </g>
    </g>
    <g id="xtick_3">
     <g id="line2d_3">
      <g>
       <use style="stroke:#000000;stroke-width:0.8;" x="153.848029" xlink:href="#m5f72f6c53a" y="252"/>
      </g>
     </g>
     <g id="text_3">
      <!-- 1.0 -->
      <g transform="translate(145.896467 266.598437)scale(0.1 -0.1)">
       <defs>
        <path d="M 12.40625 8.296875 
L 28.515625 8.296875 
L 28.515625 63.921875 
L 10.984375 60.40625 
L 10.984375 69.390625 
L 28.421875 72.90625 
L 38.28125 72.90625 
L 38.28125 8.296875 
L 54.390625 8.296875 
L 54.390625 0 
L 12.40625 0 
z
" id="DejaVuSans-49"/>
       </defs>
       <use xlink:href="#DejaVuSans-49"/>
       <use x="63.623047" xlink:href="#DejaVuSans-46"/>
       <use x="95.410156" xlink:href="#DejaVuSans-48"/>
      </g>
     </g>
    </g>
    <g id="xtick_4">
     <g id="line2d_4">
      <g>
       <use style="stroke:#000000;stroke-width:0.8;" x="196.20531" xlink:href="#m5f72f6c53a" y="252"/>
      </g>
     </g>
     <g id="text_4">
      <!-- 1.5 -->
      <g transform="translate(188.253748 266.598437)scale(0.1 -0.1)">
       <use xlink:href="#DejaVuSans-49"/>
       <use x="63.623047" xlink:href="#DejaVuSans-46"/>
       <use x="95.410156" xlink:href="#DejaVuSans-53"/>
      </g>
     </g>
    </g>
    <g id="xtick_5">
     <g id="line2d_5">
      <g>
       <use style="stroke:#000000;stroke-width:0.8;" x="238.562592" xlink:href="#m5f72f6c53a" y="252"/>
      </g>
     </g>
     <g id="text_5">
      <!-- 2.0 -->
      <g transform="translate(230.611029 266.598437)scale(0.1 -0.1)">
       <defs>
        <path d="M 19.1875 8.296875 
L 53.609375 8.296875 
L 53.609375 0 
L 7.328125 0 
L 7.328125 8.296875 
Q 12.9375 14.109375 22.625 23.890625 
Q 32.328125 33.6875 34.8125 36.53125 
Q 39.546875 41.84375 41.421875 45.53125 
Q 43.3125 49.21875 43.3125 52.78125 
Q 43.3125 58.59375 39.234375 62.25 
Q 35.15625 65.921875 28.609375 65.921875 
Q 23.96875 65.921875 18.8125 64.3125 
Q 13.671875 62.703125 7.8125 59.421875 
L 7.8125 69.390625 
Q 13.765625 71.78125 18.9375 73 
Q 24.125 74.21875 28.421875 74.21875 
Q 39.75 74.21875 46.484375 68.546875 
Q 53.21875 62.890625 53.21875 53.421875 
Q 53.21875 48.921875 51.53125 44.890625 
Q 49.859375 40.875 45.40625 35.40625 
Q 44.1875 33.984375 37.640625 27.21875 
Q 31.109375 20.453125 19.1875 8.296875 
z
" id="DejaVuSans-50"/>
       </defs>
       <use xlink:href="#DejaVuSans-50"/>
       <use x="63.623047" xlink:href="#DejaVuSans-46"/>
       <use x="95.410156" xlink:href="#DejaVuSans-48"/>
      </g>
     </g>
    </g>
    <g id="xtick_6">
     <g id="line2d_6">
      <g>
       <use style="stroke:#000000;stroke-width:0.8;" x="280.919873" xlink:href="#m5f72f6c53a" y="252"/>
      </g>
     </g>
     <g id="text_6">
      <!-- 2.5 -->
      <g transform="translate(272.96831 266.598437)scale(0.1 -0.1)">
       <use xlink:href="#DejaVuSans-50"/>
       <use x="63.623047" xlink:href="#DejaVuSans-46"/>
       <use x="95.410156" xlink:href="#DejaVuSans-53"/>
      </g>
     </g>
    </g>
    <g id="xtick_7">
     <g id="line2d_7">
      <g>
       <use style="stroke:#000000;stroke-width:0.8;" x="323.277154" xlink:href="#m5f72f6c53a" y="252"/>
      </g>
     </g>
     <g id="text_7">
      <!-- 3.0 -->
      <g transform="translate(315.325591 266.598437)scale(0.1 -0.1)">
       <defs>
        <path d="M 40.578125 39.3125 
Q 47.65625 37.796875 51.625 33 
Q 55.609375 28.21875 55.609375 21.1875 
Q 55.609375 10.40625 48.1875 4.484375 
Q 40.765625 -1.421875 27.09375 -1.421875 
Q 22.515625 -1.421875 17.65625 -0.515625 
Q 12.796875 0.390625 7.625 2.203125 
L 7.625 11.71875 
Q 11.71875 9.328125 16.59375 8.109375 
Q 21.484375 6.890625 26.8125 6.890625 
Q 36.078125 6.890625 40.9375 10.546875 
Q 45.796875 14.203125 45.796875 21.1875 
Q 45.796875 27.640625 41.28125 31.265625 
Q 36.765625 34.90625 28.71875 34.90625 
L 20.21875 34.90625 
L 20.21875 43.015625 
L 29.109375 43.015625 
Q 36.375 43.015625 40.234375 45.921875 
Q 44.09375 48.828125 44.09375 54.296875 
Q 44.09375 59.90625 40.109375 62.90625 
Q 36.140625 65.921875 28.71875 65.921875 
Q 24.65625 65.921875 20.015625 65.03125 
Q 15.375 64.15625 9.8125 62.3125 
L 9.8125 71.09375 
Q 15.4375 72.65625 20.34375 73.4375 
Q 25.25 74.21875 29.59375 74.21875 
Q 40.828125 74.21875 47.359375 69.109375 
Q 53.90625 64.015625 53.90625 55.328125 
Q 53.90625 49.265625 50.4375 45.09375 
Q 46.96875 40.921875 40.578125 39.3125 
z
" id="DejaVuSans-51"/>
       </defs>
       <use xlink:href="#DejaVuSans-51"/>
       <use x="63.623047" xlink:href="#DejaVuSans-46"/>
       <use x="95.410156" xlink:href="#DejaVuSans-48"/>
      </g>
     </g>
    </g>
    <g id="xtick_8">
     <g id="line2d_8">
      <g>
       <use style="stroke:#000000;stroke-width:0.8;" x="365.634435" xlink:href="#m5f72f6c53a" y="252"/>
      </g>
     </g>
     <g id="text_8">
      <!-- 3.5 -->
      <g transform="translate(357.682872 266.598437)scale(0.1 -0.1)">
       <use xlink:href="#DejaVuSans-51"/>
       <use x="63.623047" xlink:href="#DejaVuSans-46"/>
       <use x="95.410156" xlink:href="#DejaVuSans-53"/>
      </g>
     </g>
    </g>
    <g id="text_9">
     <!-- r_Tneg (/min) -->
     <g transform="translate(187.767969 280.276563)scale(0.1 -0.1)">
      <defs>
       <path d="M 41.109375 46.296875 
Q 39.59375 47.171875 37.8125 47.578125 
Q 36.03125 48 33.890625 48 
Q 26.265625 48 22.1875 43.046875 
Q 18.109375 38.09375 18.109375 28.8125 
L 18.109375 0 
L 9.078125 0 
L 9.078125 54.6875 
L 18.109375 54.6875 
L 18.109375 46.1875 
Q 20.953125 51.171875 25.484375 53.578125 
Q 30.03125 56 36.53125 56 
Q 37.453125 56 38.578125 55.875 
Q 39.703125 55.765625 41.0625 55.515625 
z
" id="DejaVuSans-114"/>
       <path d="M 50.984375 -16.609375 
L 50.984375 -23.578125 
L -0.984375 -23.578125 
L -0.984375 -16.609375 
z
" id="DejaVuSans-95"/>
       <path d="M -0.296875 72.90625 
L 61.375 72.90625 
L 61.375 64.59375 
L 35.5 64.59375 
L 35.5 0 
L 25.59375 0 
L 25.59375 64.59375 
L -0.296875 64.59375 
z
" id="DejaVuSans-84"/>
       <path d="M 54.890625 33.015625 
L 54.890625 0 
L 45.90625 0 
L 45.90625 32.71875 
Q 45.90625 40.484375 42.875 44.328125 
Q 39.84375 48.1875 33.796875 48.1875 
Q 26.515625 48.1875 22.3125 43.546875 
Q 18.109375 38.921875 18.109375 30.90625 
L 18.109375 0 
L 9.078125 0 
L 9.078125 54.6875 
L 18.109375 54.6875 
L 18.109375 46.1875 
Q 21.34375 51.125 25.703125 53.5625 
Q 30.078125 56 35.796875 56 
Q 45.21875 56 50.046875 50.171875 
Q 54.890625 44.34375 54.890625 33.015625 
z
" id="DejaVuSans-110"/>
       <path d="M 56.203125 29.59375 
L 56.203125 25.203125 
L 14.890625 25.203125 
Q 15.484375 15.921875 20.484375 11.0625 
Q 25.484375 6.203125 34.421875 6.203125 
Q 39.59375 6.203125 44.453125 7.46875 
Q 49.3125 8.734375 54.109375 11.28125 
L 54.109375 2.78125 
Q 49.265625 0.734375 44.1875 -0.34375 
Q 39.109375 -1.421875 33.890625 -1.421875 
Q 20.796875 -1.421875 13.15625 6.1875 
Q 5.515625 13.8125 5.515625 26.8125 
Q 5.515625 40.234375 12.765625 48.109375 
Q 20.015625 56 32.328125 56 
Q 43.359375 56 49.78125 48.890625 
Q 56.203125 41.796875 56.203125 29.59375 
z
M 47.21875 32.234375 
Q 47.125 39.59375 43.09375 43.984375 
Q 39.0625 48.390625 32.421875 48.390625 
Q 24.90625 48.390625 20.390625 44.140625 
Q 15.875 39.890625 15.1875 32.171875 
z
" id="DejaVuSans-101"/>
       <path d="M 45.40625 27.984375 
Q 45.40625 37.75 41.375 43.109375 
Q 37.359375 48.484375 30.078125 48.484375 
Q 22.859375 48.484375 18.828125 43.109375 
Q 14.796875 37.75 14.796875 27.984375 
Q 14.796875 18.265625 18.828125 12.890625 
Q 22.859375 7.515625 30.078125 7.515625 
Q 37.359375 7.515625 41.375 12.890625 
Q 45.40625 18.265625 45.40625 27.984375 
z
M 54.390625 6.78125 
Q 54.390625 -7.171875 48.1875 -13.984375 
Q 42 -20.796875 29.203125 -20.796875 
Q 24.46875 -20.796875 20.265625 -20.09375 
Q 16.0625 -19.390625 12.109375 -17.921875 
L 12.109375 -9.1875 
Q 16.0625 -11.328125 19.921875 -12.34375 
Q 23.78125 -13.375 27.78125 -13.375 
Q 36.625 -13.375 41.015625 -8.765625 
Q 45.40625 -4.15625 45.40625 5.171875 
L 45.40625 9.625 
Q 42.625 4.78125 38.28125 2.390625 
Q 33.9375 0 27.875 0 
Q 17.828125 0 11.671875 7.65625 
Q 5.515625 15.328125 5.515625 27.984375 
Q 5.515625 40.671875 11.671875 48.328125 
Q 17.828125 56 27.875 56 
Q 33.9375 56 38.28125 53.609375 
Q 42.625 51.21875 45.40625 46.390625 
L 45.40625 54.6875 
L 54.390625 54.6875 
z
" id="DejaVuSans-103"/>
       <path id="DejaVuSans-32"/>
       <path d="M 31 75.875 
Q 24.46875 64.65625 21.28125 53.65625 
Q 18.109375 42.671875 18.109375 31.390625 
Q 18.109375 20.125 21.3125 9.0625 
Q 24.515625 -2 31 -13.1875 
L 23.1875 -13.1875 
Q 15.875 -1.703125 12.234375 9.375 
Q 8.59375 20.453125 8.59375 31.390625 
Q 8.59375 42.28125 12.203125 53.3125 
Q 15.828125 64.359375 23.1875 75.875 
z
" id="DejaVuSans-40"/>
       <path d="M 25.390625 72.90625 
L 33.6875 72.90625 
L 8.296875 -9.28125 
L 0 -9.28125 
z
" id="DejaVuSans-47"/>
       <path d="M 52 44.1875 
Q 55.375 50.25 60.0625 53.125 
Q 64.75 56 71.09375 56 
Q 79.640625 56 84.28125 50.015625 
Q 88.921875 44.046875 88.921875 33.015625 
L 88.921875 0 
L 79.890625 0 
L 79.890625 32.71875 
Q 79.890625 40.578125 77.09375 44.375 
Q 74.3125 48.1875 68.609375 48.1875 
Q 61.625 48.1875 57.5625 43.546875 
Q 53.515625 38.921875 53.515625 30.90625 
L 53.515625 0 
L 44.484375 0 
L 44.484375 32.71875 
Q 44.484375 40.625 41.703125 44.40625 
Q 38.921875 48.1875 33.109375 48.1875 
Q 26.21875 48.1875 22.15625 43.53125 
Q 18.109375 38.875 18.109375 30.90625 
L 18.109375 0 
L 9.078125 0 
L 9.078125 54.6875 
L 18.109375 54.6875 
L 18.109375 46.1875 
Q 21.1875 51.21875 25.484375 53.609375 
Q 29.78125 56 35.6875 56 
Q 41.65625 56 45.828125 52.96875 
Q 50 49.953125 52 44.1875 
z
" id="DejaVuSans-109"/>
       <path d="M 9.421875 54.6875 
L 18.40625 54.6875 
L 18.40625 0 
L 9.421875 0 
z
M 9.421875 75.984375 
L 18.40625 75.984375 
L 18.40625 64.59375 
L 9.421875 64.59375 
z
" id="DejaVuSans-105"/>
       <path d="M 8.015625 75.875 
L 15.828125 75.875 
Q 23.140625 64.359375 26.78125 53.3125 
Q 30.421875 42.28125 30.421875 31.390625 
Q 30.421875 20.453125 26.78125 9.375 
Q 23.140625 -1.703125 15.828125 -13.1875 
L 8.015625 -13.1875 
Q 14.5 -2 17.703125 9.0625 
Q 20.90625 20.125 20.90625 31.390625 
Q 20.90625 42.671875 17.703125 53.65625 
Q 14.5 64.65625 8.015625 75.875 
z
" id="DejaVuSans-41"/>
      </defs>
      <use xlink:href="#DejaVuSans-114"/>
      <use x="41.113281" xlink:href="#DejaVuSans-95"/>
      <use x="91.113281" xlink:href="#DejaVuSans-84"/>
      <use x="152.197266" xlink:href="#DejaVuSans-110"/>
      <use x="215.576172" xlink:href="#DejaVuSans-101"/>
      <use x="277.099609" xlink:href="#DejaVuSans-103"/>
      <use x="340.576172" xlink:href="#DejaVuSans-32"/>
      <use x="372.363281" xlink:href="#DejaVuSans-40"/>
      <use x="411.376953" xlink:href="#DejaVuSans-47"/>
      <use x="445.068359" xlink:href="#DejaVuSans-109"/>
      <use x="542.480469" xlink:href="#DejaVuSans-105"/>
      <use x="570.263672" xlink:href="#DejaVuSans-110"/>
      <use x="633.642578" xlink:href="#DejaVuSans-41"/>
     </g>
    </g>
   </g>
   <g id="matplotlib.axis_2">
    <g id="ytick_1">
     <g id="line2d_9">
      <defs>
       <path d="M 0 0 
L -3.5 0 
" id="me28d78f064" style="stroke:#000000;stroke-width:0.8;"/>
      </defs>
      <g>
       <use style="stroke:#000000;stroke-width:0.8;" x="54" xlink:href="#me28d78f064" y="242.116869"/>
      </g>
     </g>
     <g id="text_10">
      <!-- 0.0 -->
      <g transform="translate(31.096875 245.916087)scale(0.1 -0.1)">
       <use xlink:href="#DejaVuSans-48"/>
       <use x="63.623047" xlink:href="#DejaVuSans-46"/>
       <use x="95.410156" xlink:href="#DejaVuSans-48"/>
      </g>
     </g>
    </g>
    <g id="ytick_2">
     <g id="line2d_10">
      <g>
       <use style="stroke:#000000;stroke-width:0.8;" x="54" xlink:href="#me28d78f064" y="207.424546"/>
      </g>
     </g>
     <g id="text_11">
      <!-- 0.5 -->
      <g transform="translate(31.096875 211.223765)scale(0.1 -0.1)">
       <use xlink:href="#DejaVuSans-48"/>
       <use x="63.623047" xlink:href="#DejaVuSans-46"/>
       <use x="95.410156" xlink:href="#DejaVuSans-53"/>
      </g>
     </g>
    </g>
    <g id="ytick_3">
     <g id="line2d_11">
      <g>
       <use style="stroke:#000000;stroke-width:0.8;" x="54" xlink:href="#me28d78f064" y="172.732224"/>
      </g>
     </g>
     <g id="text_12">
      <!-- 1.0 -->
      <g transform="translate(31.096875 176.531443)scale(0.1 -0.1)">
       <use xlink:href="#DejaVuSans-49"/>
       <use x="63.623047" xlink:href="#DejaVuSans-46"/>
       <use x="95.410156" xlink:href="#DejaVuSans-48"/>
      </g>
     </g>
    </g>
    <g id="ytick_4">
     <g id="line2d_12">
      <g>
       <use style="stroke:#000000;stroke-width:0.8;" x="54" xlink:href="#me28d78f064" y="138.039902"/>
      </g>
     </g>
     <g id="text_13">
      <!-- 1.5 -->
      <g transform="translate(31.096875 141.839121)scale(0.1 -0.1)">
       <use xlink:href="#DejaVuSans-49"/>
       <use x="63.623047" xlink:href="#DejaVuSans-46"/>
       <use x="95.410156" xlink:href="#DejaVuSans-53"/>
      </g>
     </g>
    </g>
    <g id="ytick_5">
     <g id="line2d_13">
      <g>
       <use style="stroke:#000000;stroke-width:0.8;" x="54" xlink:href="#me28d78f064" y="103.34758"/>
      </g>
     </g>
     <g id="text_14">
      <!-- 2.0 -->
      <g transform="translate(31.096875 107.146799)scale(0.1 -0.1)">
       <use xlink:href="#DejaVuSans-50"/>
       <use x="63.623047" xlink:href="#DejaVuSans-46"/>
       <use x="95.410156" xlink:href="#DejaVuSans-48"/>
      </g>
     </g>
    </g>
    <g id="ytick_6">
     <g id="line2d_14">
      <g>
       <use style="stroke:#000000;stroke-width:0.8;" x="54" xlink:href="#me28d78f064" y="68.655258"/>
      </g>
     </g>
     <g id="text_15">
      <!-- 2.5 -->
      <g transform="translate(31.096875 72.454477)scale(0.1 -0.1)">
       <use xlink:href="#DejaVuSans-50"/>
       <use x="63.623047" xlink:href="#DejaVuSans-46"/>
       <use x="95.410156" xlink:href="#DejaVuSans-53"/>
      </g>
     </g>
    </g>
    <g id="text_16">
     <!-- Tneg_eq -->
     <g transform="translate(24.739062 164.504219)rotate(-90)scale(0.1 -0.1)">
      <defs>
       <path d="M 14.796875 27.296875 
Q 14.796875 17.390625 18.875 11.75 
Q 22.953125 6.109375 30.078125 6.109375 
Q 37.203125 6.109375 41.296875 11.75 
Q 45.40625 17.390625 45.40625 27.296875 
Q 45.40625 37.203125 41.296875 42.84375 
Q 37.203125 48.484375 30.078125 48.484375 
Q 22.953125 48.484375 18.875 42.84375 
Q 14.796875 37.203125 14.796875 27.296875 
z
M 45.40625 8.203125 
Q 42.578125 3.328125 38.25 0.953125 
Q 33.9375 -1.421875 27.875 -1.421875 
Q 17.96875 -1.421875 11.734375 6.484375 
Q 5.515625 14.40625 5.515625 27.296875 
Q 5.515625 40.1875 11.734375 48.09375 
Q 17.96875 56 27.875 56 
Q 33.9375 56 38.25 53.625 
Q 42.578125 51.265625 45.40625 46.390625 
L 45.40625 54.6875 
L 54.390625 54.6875 
L 54.390625 -20.796875 
L 45.40625 -20.796875 
z
" id="DejaVuSans-113"/>
      </defs>
      <use xlink:href="#DejaVuSans-84"/>
      <use x="61.083984" xlink:href="#DejaVuSans-110"/>
      <use x="124.462891" xlink:href="#DejaVuSans-101"/>
      <use x="185.986328" xlink:href="#DejaVuSans-103"/>
      <use x="249.462891" xlink:href="#DejaVuSans-95"/>
      <use x="299.462891" xlink:href="#DejaVuSans-101"/>
      <use x="360.986328" xlink:href="#DejaVuSans-113"/>
     </g>
    </g>
    <g id="text_17">
     <!-- 1e11 -->
     <g transform="translate(54 31.56)scale(0.1 -0.1)">
      <use xlink:href="#DejaVuSans-49"/>
      <use x="63.623047" xlink:href="#DejaVuSans-101"/>
      <use x="125.146484" xlink:href="#DejaVuSans-49"/>
      <use x="188.769531" xlink:href="#DejaVuSans-49"/>
     </g>
    </g>
   </g>
   <g id="patch_3">
    <path d="M 54 252 
L 54 34.56 
" style="fill:none;stroke:#000000;stroke-linecap:square;stroke-linejoin:miter;stroke-width:0.8;"/>
   </g>
   <g id="patch_4">
    <path d="M 388.8 252 
L 388.8 34.56 
" style="fill:none;stroke:#000000;stroke-linecap:square;stroke-linejoin:miter;stroke-width:0.8;"/>
   </g>
   <g id="patch_5">
    <path d="M 54 252 
L 388.8 252 
" style="fill:none;stroke:#000000;stroke-linecap:square;stroke-linejoin:miter;stroke-width:0.8;"/>
   </g>
   <g id="patch_6">
    <path d="M 54 34.56 
L 388.8 34.56 
" style="fill:none;stroke:#000000;stroke-linecap:square;stroke-linejoin:miter;stroke-width:0.8;"/>
   </g>
  </g>
 </g>
 <defs>
  <clipPath id="pade56ed50e">
   <rect height="217.44" width="334.8" x="54" y="34.56"/>
  </clipPath>
 </defs>
</svg>
