<?xml version="1.0" encoding="utf-8" standalone="no"?>
<!DOCTYPE svg PUBLIC "-//W3C//DTD SVG 1.1//EN"
  "http://www.w3.org/Graphics/SVG/1.1/DTD/svg11.dtd">
<!-- Created with matplotlib (https://matplotlib.org/) -->
<svg height="345.6pt" version="1.1" viewBox="0 0 460.8 345.6" width="460.8pt" xmlns="http://www.w3.org/2000/svg" xmlns:xlink="http://www.w3.org/1999/xlink">
 <metadata>
  <rdf:RDF xmlns:cc="http://creativecommons.org/ns#" xmlns:dc="http://purl.org/dc/elements/1.1/" xmlns:rdf="http://www.w3.org/1999/02/22-rdf-syntax-ns#">
   <cc:Work>
    <dc:type rdf:resource="http://purl.org/dc/dcmitype/StillImage"/>
    <dc:date>2020-10-07T16:10:56.914794</dc:date>
    <dc:format>image/svg+xml</dc:format>
    <dc:creator>
     <cc:Agent>
      <dc:title>Matplotlib v3.3.2, https://matplotlib.org/</dc:title>
     </cc:Agent>
    </dc:creator>
   </cc:Work>
  </rdf:RDF>
 </metadata>
 <defs>
  <style type="text/css">*{stroke-linecap:butt;stroke-linejoin:round;}</style>
 </defs>
 <g id="figure_1">
  <g id="patch_1">
   <path d="M 0 345.6 
L 460.8 345.6 
L 460.8 0 
L 0 0 
z
" style="fill:#ffffff;"/>
  </g>
  <g id="axes_1">
   <g id="patch_2">
    <path d="M 57.6 307.584 
L 414.72 307.584 
L 414.72 41.472 
L 57.6 41.472 
z
" style="fill:#ffffff;"/>
   </g>
   <g id="matplotlib.axis_1">
    <g id="xtick_1">
     <g id="line2d_1">
      <defs>
       <path d="M 0 0 
L 0 3.5 
" id="mc4331fdac9" style="stroke:#000000;stroke-width:0.8;"/>
      </defs>
      <g>
       <use style="stroke:#000000;stroke-width:0.8;" x="73.832727" xlink:href="#mc4331fdac9" y="307.584"/>
      </g>
     </g>
     <g id="text_1">
      <!-- 0 -->
      <g transform="translate(70.651477 322.182437)scale(0.1 -0.1)">
       <defs>
        <path d="M 31.78125 66.40625 
Q 24.171875 66.40625 20.328125 58.90625 
Q 16.5 51.421875 16.5 36.375 
Q 16.5 21.390625 20.328125 13.890625 
Q 24.171875 6.390625 31.78125 6.390625 
Q 39.453125 6.390625 43.28125 13.890625 
Q 47.125 21.390625 47.125 36.375 
Q 47.125 51.421875 43.28125 58.90625 
Q 39.453125 66.40625 31.78125 66.40625 
z
M 31.78125 74.21875 
Q 44.046875 74.21875 50.515625 64.515625 
Q 56.984375 54.828125 56.984375 36.375 
Q 56.984375 17.96875 50.515625 8.265625 
Q 44.046875 -1.421875 31.78125 -1.421875 
Q 19.53125 -1.421875 13.0625 8.265625 
Q 6.59375 17.96875 6.59375 36.375 
Q 6.59375 54.828125 13.0625 64.515625 
Q 19.53125 74.21875 31.78125 74.21875 
z
" id="DejaVuSans-48"/>
       </defs>
       <use xlink:href="#DejaVuSans-48"/>
      </g>
     </g>
    </g>
    <g id="xtick_2">
     <g id="line2d_2">
      <g>
       <use style="stroke:#000000;stroke-width:0.8;" x="138.828632" xlink:href="#mc4331fdac9" y="307.584"/>
      </g>
     </g>
     <g id="text_2">
      <!-- 20 -->
      <g transform="translate(132.466132 322.182437)scale(0.1 -0.1)">
       <defs>
        <path d="M 19.1875 8.296875 
L 53.609375 8.296875 
L 53.609375 0 
L 7.328125 0 
L 7.328125 8.296875 
Q 12.9375 14.109375 22.625 23.890625 
Q 32.328125 33.6875 34.8125 36.53125 
Q 39.546875 41.84375 41.421875 45.53125 
Q 43.3125 49.21875 43.3125 52.78125 
Q 43.3125 58.59375 39.234375 62.25 
Q 35.15625 65.921875 28.609375 65.921875 
Q 23.96875 65.921875 18.8125 64.3125 
Q 13.671875 62.703125 7.8125 59.421875 
L 7.8125 69.390625 
Q 13.765625 71.78125 18.9375 73 
Q 24.125 74.21875 28.421875 74.21875 
Q 39.75 74.21875 46.484375 68.546875 
Q 53.21875 62.890625 53.21875 53.421875 
Q 53.21875 48.921875 51.53125 44.890625 
Q 49.859375 40.875 45.40625 35.40625 
Q 44.1875 33.984375 37.640625 27.21875 
Q 31.109375 20.453125 19.1875 8.296875 
z
" id="DejaVuSans-50"/>
       </defs>
       <use xlink:href="#DejaVuSans-50"/>
       <use x="63.623047" xlink:href="#DejaVuSans-48"/>
      </g>
     </g>
    </g>
    <g id="xtick_3">
     <g id="line2d_3">
      <g>
       <use style="stroke:#000000;stroke-width:0.8;" x="203.824537" xlink:href="#mc4331fdac9" y="307.584"/>
      </g>
     </g>
     <g id="text_3">
      <!-- 40 -->
      <g transform="translate(197.462037 322.182437)scale(0.1 -0.1)">
       <defs>
        <path d="M 37.796875 64.3125 
L 12.890625 25.390625 
L 37.796875 25.390625 
z
M 35.203125 72.90625 
L 47.609375 72.90625 
L 47.609375 25.390625 
L 58.015625 25.390625 
L 58.015625 17.1875 
L 47.609375 17.1875 
L 47.609375 0 
L 37.796875 0 
L 37.796875 17.1875 
L 4.890625 17.1875 
L 4.890625 26.703125 
z
" id="DejaVuSans-52"/>
       </defs>
       <use xlink:href="#DejaVuSans-52"/>
       <use x="63.623047" xlink:href="#DejaVuSans-48"/>
      </g>
     </g>
    </g>
    <g id="xtick_4">
     <g id="line2d_4">
      <g>
       <use style="stroke:#000000;stroke-width:0.8;" x="268.820442" xlink:href="#mc4331fdac9" y="307.584"/>
      </g>
     </g>
     <g id="text_4">
      <!-- 60 -->
      <g transform="translate(262.457942 322.182437)scale(0.1 -0.1)">
       <defs>
        <path d="M 33.015625 40.375 
Q 26.375 40.375 22.484375 35.828125 
Q 18.609375 31.296875 18.609375 23.390625 
Q 18.609375 15.53125 22.484375 10.953125 
Q 26.375 6.390625 33.015625 6.390625 
Q 39.65625 6.390625 43.53125 10.953125 
Q 47.40625 15.53125 47.40625 23.390625 
Q 47.40625 31.296875 43.53125 35.828125 
Q 39.65625 40.375 33.015625 40.375 
z
M 52.59375 71.296875 
L 52.59375 62.3125 
Q 48.875 64.0625 45.09375 64.984375 
Q 41.3125 65.921875 37.59375 65.921875 
Q 27.828125 65.921875 22.671875 59.328125 
Q 17.53125 52.734375 16.796875 39.40625 
Q 19.671875 43.65625 24.015625 45.921875 
Q 28.375 48.1875 33.59375 48.1875 
Q 44.578125 48.1875 50.953125 41.515625 
Q 57.328125 34.859375 57.328125 23.390625 
Q 57.328125 12.15625 50.6875 5.359375 
Q 44.046875 -1.421875 33.015625 -1.421875 
Q 20.359375 -1.421875 13.671875 8.265625 
Q 6.984375 17.96875 6.984375 36.375 
Q 6.984375 53.65625 15.1875 63.9375 
Q 23.390625 74.21875 37.203125 74.21875 
Q 40.921875 74.21875 44.703125 73.484375 
Q 48.484375 72.75 52.59375 71.296875 
z
" id="DejaVuSans-54"/>
       </defs>
       <use xlink:href="#DejaVuSans-54"/>
       <use x="63.623047" xlink:href="#DejaVuSans-48"/>
      </g>
     </g>
    </g>
    <g id="xtick_5">
     <g id="line2d_5">
      <g>
       <use style="stroke:#000000;stroke-width:0.8;" x="333.816347" xlink:href="#mc4331fdac9" y="307.584"/>
      </g>
     </g>
     <g id="text_5">
      <!-- 80 -->
      <g transform="translate(327.453847 322.182437)scale(0.1 -0.1)">
       <defs>
        <path d="M 31.78125 34.625 
Q 24.75 34.625 20.71875 30.859375 
Q 16.703125 27.09375 16.703125 20.515625 
Q 16.703125 13.921875 20.71875 10.15625 
Q 24.75 6.390625 31.78125 6.390625 
Q 38.8125 6.390625 42.859375 10.171875 
Q 46.921875 13.96875 46.921875 20.515625 
Q 46.921875 27.09375 42.890625 30.859375 
Q 38.875 34.625 31.78125 34.625 
z
M 21.921875 38.8125 
Q 15.578125 40.375 12.03125 44.71875 
Q 8.5 49.078125 8.5 55.328125 
Q 8.5 64.0625 14.71875 69.140625 
Q 20.953125 74.21875 31.78125 74.21875 
Q 42.671875 74.21875 48.875 69.140625 
Q 55.078125 64.0625 55.078125 55.328125 
Q 55.078125 49.078125 51.53125 44.71875 
Q 48 40.375 41.703125 38.8125 
Q 48.828125 37.15625 52.796875 32.3125 
Q 56.78125 27.484375 56.78125 20.515625 
Q 56.78125 9.90625 50.3125 4.234375 
Q 43.84375 -1.421875 31.78125 -1.421875 
Q 19.734375 -1.421875 13.25 4.234375 
Q 6.78125 9.90625 6.78125 20.515625 
Q 6.78125 27.484375 10.78125 32.3125 
Q 14.796875 37.15625 21.921875 38.8125 
z
M 18.3125 54.390625 
Q 18.3125 48.734375 21.84375 45.5625 
Q 25.390625 42.390625 31.78125 42.390625 
Q 38.140625 42.390625 41.71875 45.5625 
Q 45.3125 48.734375 45.3125 54.390625 
Q 45.3125 60.0625 41.71875 63.234375 
Q 38.140625 66.40625 31.78125 66.40625 
Q 25.390625 66.40625 21.84375 63.234375 
Q 18.3125 60.0625 18.3125 54.390625 
z
" id="DejaVuSans-56"/>
       </defs>
       <use xlink:href="#DejaVuSans-56"/>
       <use x="63.623047" xlink:href="#DejaVuSans-48"/>
      </g>
     </g>
    </g>
    <g id="xtick_6">
     <g id="line2d_6">
      <g>
       <use style="stroke:#000000;stroke-width:0.8;" x="398.812252" xlink:href="#mc4331fdac9" y="307.584"/>
      </g>
     </g>
     <g id="text_6">
      <!-- 100 -->
      <g transform="translate(389.268502 322.182437)scale(0.1 -0.1)">
       <defs>
        <path d="M 12.40625 8.296875 
L 28.515625 8.296875 
L 28.515625 63.921875 
L 10.984375 60.40625 
L 10.984375 69.390625 
L 28.421875 72.90625 
L 38.28125 72.90625 
L 38.28125 8.296875 
L 54.390625 8.296875 
L 54.390625 0 
L 12.40625 0 
z
" id="DejaVuSans-49"/>
       </defs>
       <use xlink:href="#DejaVuSans-49"/>
       <use x="63.623047" xlink:href="#DejaVuSans-48"/>
       <use x="127.246094" xlink:href="#DejaVuSans-48"/>
      </g>
     </g>
    </g>
    <g id="text_7">
     <!-- Time (days) -->
     <g transform="translate(206.633437 335.860562)scale(0.1 -0.1)">
      <defs>
       <path d="M -0.296875 72.90625 
L 61.375 72.90625 
L 61.375 64.59375 
L 35.5 64.59375 
L 35.5 0 
L 25.59375 0 
L 25.59375 64.59375 
L -0.296875 64.59375 
z
" id="DejaVuSans-84"/>
       <path d="M 9.421875 54.6875 
L 18.40625 54.6875 
L 18.40625 0 
L 9.421875 0 
z
M 9.421875 75.984375 
L 18.40625 75.984375 
L 18.40625 64.59375 
L 9.421875 64.59375 
z
" id="DejaVuSans-105"/>
       <path d="M 52 44.1875 
Q 55.375 50.25 60.0625 53.125 
Q 64.75 56 71.09375 56 
Q 79.640625 56 84.28125 50.015625 
Q 88.921875 44.046875 88.921875 33.015625 
L 88.921875 0 
L 79.890625 0 
L 79.890625 32.71875 
Q 79.890625 40.578125 77.09375 44.375 
Q 74.3125 48.1875 68.609375 48.1875 
Q 61.625 48.1875 57.5625 43.546875 
Q 53.515625 38.921875 53.515625 30.90625 
L 53.515625 0 
L 44.484375 0 
L 44.484375 32.71875 
Q 44.484375 40.625 41.703125 44.40625 
Q 38.921875 48.1875 33.109375 48.1875 
Q 26.21875 48.1875 22.15625 43.53125 
Q 18.109375 38.875 18.109375 30.90625 
L 18.109375 0 
L 9.078125 0 
L 9.078125 54.6875 
L 18.109375 54.6875 
L 18.109375 46.1875 
Q 21.1875 51.21875 25.484375 53.609375 
Q 29.78125 56 35.6875 56 
Q 41.65625 56 45.828125 52.96875 
Q 50 49.953125 52 44.1875 
z
" id="DejaVuSans-109"/>
       <path d="M 56.203125 29.59375 
L 56.203125 25.203125 
L 14.890625 25.203125 
Q 15.484375 15.921875 20.484375 11.0625 
Q 25.484375 6.203125 34.421875 6.203125 
Q 39.59375 6.203125 44.453125 7.46875 
Q 49.3125 8.734375 54.109375 11.28125 
L 54.109375 2.78125 
Q 49.265625 0.734375 44.1875 -0.34375 
Q 39.109375 -1.421875 33.890625 -1.421875 
Q 20.796875 -1.421875 13.15625 6.1875 
Q 5.515625 13.8125 5.515625 26.8125 
Q 5.515625 40.234375 12.765625 48.109375 
Q 20.015625 56 32.328125 56 
Q 43.359375 56 49.78125 48.890625 
Q 56.203125 41.796875 56.203125 29.59375 
z
M 47.21875 32.234375 
Q 47.125 39.59375 43.09375 43.984375 
Q 39.0625 48.390625 32.421875 48.390625 
Q 24.90625 48.390625 20.390625 44.140625 
Q 15.875 39.890625 15.1875 32.171875 
z
" id="DejaVuSans-101"/>
       <path id="DejaVuSans-32"/>
       <path d="M 31 75.875 
Q 24.46875 64.65625 21.28125 53.65625 
Q 18.109375 42.671875 18.109375 31.390625 
Q 18.109375 20.125 21.3125 9.0625 
Q 24.515625 -2 31 -13.1875 
L 23.1875 -13.1875 
Q 15.875 -1.703125 12.234375 9.375 
Q 8.59375 20.453125 8.59375 31.390625 
Q 8.59375 42.28125 12.203125 53.3125 
Q 15.828125 64.359375 23.1875 75.875 
z
" id="DejaVuSans-40"/>
       <path d="M 45.40625 46.390625 
L 45.40625 75.984375 
L 54.390625 75.984375 
L 54.390625 0 
L 45.40625 0 
L 45.40625 8.203125 
Q 42.578125 3.328125 38.25 0.953125 
Q 33.9375 -1.421875 27.875 -1.421875 
Q 17.96875 -1.421875 11.734375 6.484375 
Q 5.515625 14.40625 5.515625 27.296875 
Q 5.515625 40.1875 11.734375 48.09375 
Q 17.96875 56 27.875 56 
Q 33.9375 56 38.25 53.625 
Q 42.578125 51.265625 45.40625 46.390625 
z
M 14.796875 27.296875 
Q 14.796875 17.390625 18.875 11.75 
Q 22.953125 6.109375 30.078125 6.109375 
Q 37.203125 6.109375 41.296875 11.75 
Q 45.40625 17.390625 45.40625 27.296875 
Q 45.40625 37.203125 41.296875 42.84375 
Q 37.203125 48.484375 30.078125 48.484375 
Q 22.953125 48.484375 18.875 42.84375 
Q 14.796875 37.203125 14.796875 27.296875 
z
" id="DejaVuSans-100"/>
       <path d="M 34.28125 27.484375 
Q 23.390625 27.484375 19.1875 25 
Q 14.984375 22.515625 14.984375 16.5 
Q 14.984375 11.71875 18.140625 8.90625 
Q 21.296875 6.109375 26.703125 6.109375 
Q 34.1875 6.109375 38.703125 11.40625 
Q 43.21875 16.703125 43.21875 25.484375 
L 43.21875 27.484375 
z
M 52.203125 31.203125 
L 52.203125 0 
L 43.21875 0 
L 43.21875 8.296875 
Q 40.140625 3.328125 35.546875 0.953125 
Q 30.953125 -1.421875 24.3125 -1.421875 
Q 15.921875 -1.421875 10.953125 3.296875 
Q 6 8.015625 6 15.921875 
Q 6 25.140625 12.171875 29.828125 
Q 18.359375 34.515625 30.609375 34.515625 
L 43.21875 34.515625 
L 43.21875 35.40625 
Q 43.21875 41.609375 39.140625 45 
Q 35.0625 48.390625 27.6875 48.390625 
Q 23 48.390625 18.546875 47.265625 
Q 14.109375 46.140625 10.015625 43.890625 
L 10.015625 52.203125 
Q 14.9375 54.109375 19.578125 55.046875 
Q 24.21875 56 28.609375 56 
Q 40.484375 56 46.34375 49.84375 
Q 52.203125 43.703125 52.203125 31.203125 
z
" id="DejaVuSans-97"/>
       <path d="M 32.171875 -5.078125 
Q 28.375 -14.84375 24.75 -17.8125 
Q 21.140625 -20.796875 15.09375 -20.796875 
L 7.90625 -20.796875 
L 7.90625 -13.28125 
L 13.1875 -13.28125 
Q 16.890625 -13.28125 18.9375 -11.515625 
Q 21 -9.765625 23.484375 -3.21875 
L 25.09375 0.875 
L 2.984375 54.6875 
L 12.5 54.6875 
L 29.59375 11.921875 
L 46.6875 54.6875 
L 56.203125 54.6875 
z
" id="DejaVuSans-121"/>
       <path d="M 44.28125 53.078125 
L 44.28125 44.578125 
Q 40.484375 46.53125 36.375 47.5 
Q 32.28125 48.484375 27.875 48.484375 
Q 21.1875 48.484375 17.84375 46.4375 
Q 14.5 44.390625 14.5 40.28125 
Q 14.5 37.15625 16.890625 35.375 
Q 19.28125 33.59375 26.515625 31.984375 
L 29.59375 31.296875 
Q 39.15625 29.25 43.1875 25.515625 
Q 47.21875 21.78125 47.21875 15.09375 
Q 47.21875 7.46875 41.1875 3.015625 
Q 35.15625 -1.421875 24.609375 -1.421875 
Q 20.21875 -1.421875 15.453125 -0.5625 
Q 10.6875 0.296875 5.421875 2 
L 5.421875 11.28125 
Q 10.40625 8.6875 15.234375 7.390625 
Q 20.0625 6.109375 24.8125 6.109375 
Q 31.15625 6.109375 34.5625 8.28125 
Q 37.984375 10.453125 37.984375 14.40625 
Q 37.984375 18.0625 35.515625 20.015625 
Q 33.0625 21.96875 24.703125 23.78125 
L 21.578125 24.515625 
Q 13.234375 26.265625 9.515625 29.90625 
Q 5.8125 33.546875 5.8125 39.890625 
Q 5.8125 47.609375 11.28125 51.796875 
Q 16.75 56 26.8125 56 
Q 31.78125 56 36.171875 55.265625 
Q 40.578125 54.546875 44.28125 53.078125 
z
" id="DejaVuSans-115"/>
       <path d="M 8.015625 75.875 
L 15.828125 75.875 
Q 23.140625 64.359375 26.78125 53.3125 
Q 30.421875 42.28125 30.421875 31.390625 
Q 30.421875 20.453125 26.78125 9.375 
Q 23.140625 -1.703125 15.828125 -13.1875 
L 8.015625 -13.1875 
Q 14.5 -2 17.703125 9.0625 
Q 20.90625 20.125 20.90625 31.390625 
Q 20.90625 42.671875 17.703125 53.65625 
Q 14.5 64.65625 8.015625 75.875 
z
" id="DejaVuSans-41"/>
      </defs>
      <use xlink:href="#DejaVuSans-84"/>
      <use x="57.958984" xlink:href="#DejaVuSans-105"/>
      <use x="85.742188" xlink:href="#DejaVuSans-109"/>
      <use x="183.154297" xlink:href="#DejaVuSans-101"/>
      <use x="244.677734" xlink:href="#DejaVuSans-32"/>
      <use x="276.464844" xlink:href="#DejaVuSans-40"/>
      <use x="315.478516" xlink:href="#DejaVuSans-100"/>
      <use x="378.955078" xlink:href="#DejaVuSans-97"/>
      <use x="440.234375" xlink:href="#DejaVuSans-121"/>
      <use x="499.414062" xlink:href="#DejaVuSans-115"/>
      <use x="551.513672" xlink:href="#DejaVuSans-41"/>
     </g>
    </g>
   </g>
   <g id="matplotlib.axis_2">
    <g id="ytick_1">
     <g id="line2d_7">
      <defs>
       <path d="M 0 0 
L -3.5 0 
" id="m97bf112987" style="stroke:#000000;stroke-width:0.8;"/>
      </defs>
      <g>
       <use style="stroke:#000000;stroke-width:0.8;" x="57.6" xlink:href="#m97bf112987" y="285.347255"/>
      </g>
     </g>
     <g id="text_8">
      <!-- 0 -->
      <g transform="translate(44.2375 289.146474)scale(0.1 -0.1)">
       <use xlink:href="#DejaVuSans-48"/>
      </g>
     </g>
    </g>
    <g id="ytick_2">
     <g id="line2d_8">
      <g>
       <use style="stroke:#000000;stroke-width:0.8;" x="57.6" xlink:href="#m97bf112987" y="237.689537"/>
      </g>
     </g>
     <g id="text_9">
      <!-- 500 -->
      <g transform="translate(31.5125 241.488756)scale(0.1 -0.1)">
       <defs>
        <path d="M 10.796875 72.90625 
L 49.515625 72.90625 
L 49.515625 64.59375 
L 19.828125 64.59375 
L 19.828125 46.734375 
Q 21.96875 47.46875 24.109375 47.828125 
Q 26.265625 48.1875 28.421875 48.1875 
Q 40.625 48.1875 47.75 41.5 
Q 54.890625 34.8125 54.890625 23.390625 
Q 54.890625 11.625 47.5625 5.09375 
Q 40.234375 -1.421875 26.90625 -1.421875 
Q 22.3125 -1.421875 17.546875 -0.640625 
Q 12.796875 0.140625 7.71875 1.703125 
L 7.71875 11.625 
Q 12.109375 9.234375 16.796875 8.0625 
Q 21.484375 6.890625 26.703125 6.890625 
Q 35.15625 6.890625 40.078125 11.328125 
Q 45.015625 15.765625 45.015625 23.390625 
Q 45.015625 31 40.078125 35.4375 
Q 35.15625 39.890625 26.703125 39.890625 
Q 22.75 39.890625 18.8125 39.015625 
Q 14.890625 38.140625 10.796875 36.28125 
z
" id="DejaVuSans-53"/>
       </defs>
       <use xlink:href="#DejaVuSans-53"/>
       <use x="63.623047" xlink:href="#DejaVuSans-48"/>
       <use x="127.246094" xlink:href="#DejaVuSans-48"/>
      </g>
     </g>
    </g>
    <g id="ytick_3">
     <g id="line2d_9">
      <g>
       <use style="stroke:#000000;stroke-width:0.8;" x="57.6" xlink:href="#m97bf112987" y="190.031819"/>
      </g>
     </g>
     <g id="text_10">
      <!-- 1000 -->
      <g transform="translate(25.15 193.831038)scale(0.1 -0.1)">
       <use xlink:href="#DejaVuSans-49"/>
       <use x="63.623047" xlink:href="#DejaVuSans-48"/>
       <use x="127.246094" xlink:href="#DejaVuSans-48"/>
       <use x="190.869141" xlink:href="#DejaVuSans-48"/>
      </g>
     </g>
    </g>
    <g id="ytick_4">
     <g id="line2d_10">
      <g>
       <use style="stroke:#000000;stroke-width:0.8;" x="57.6" xlink:href="#m97bf112987" y="142.374101"/>
      </g>
     </g>
     <g id="text_11">
      <!-- 1500 -->
      <g transform="translate(25.15 146.17332)scale(0.1 -0.1)">
       <use xlink:href="#DejaVuSans-49"/>
       <use x="63.623047" xlink:href="#DejaVuSans-53"/>
       <use x="127.246094" xlink:href="#DejaVuSans-48"/>
       <use x="190.869141" xlink:href="#DejaVuSans-48"/>
      </g>
     </g>
    </g>
    <g id="ytick_5">
     <g id="line2d_11">
      <g>
       <use style="stroke:#000000;stroke-width:0.8;" x="57.6" xlink:href="#m97bf112987" y="94.716383"/>
      </g>
     </g>
     <g id="text_12">
      <!-- 2000 -->
      <g transform="translate(25.15 98.515602)scale(0.1 -0.1)">
       <use xlink:href="#DejaVuSans-50"/>
       <use x="63.623047" xlink:href="#DejaVuSans-48"/>
       <use x="127.246094" xlink:href="#DejaVuSans-48"/>
       <use x="190.869141" xlink:href="#DejaVuSans-48"/>
      </g>
     </g>
    </g>
    <g id="ytick_6">
     <g id="line2d_12">
      <g>
       <use style="stroke:#000000;stroke-width:0.8;" x="57.6" xlink:href="#m97bf112987" y="47.058665"/>
      </g>
     </g>
     <g id="text_13">
      <!-- 2500 -->
      <g transform="translate(25.15 50.857883)scale(0.1 -0.1)">
       <use xlink:href="#DejaVuSans-50"/>
       <use x="63.623047" xlink:href="#DejaVuSans-53"/>
       <use x="127.246094" xlink:href="#DejaVuSans-48"/>
       <use x="190.869141" xlink:href="#DejaVuSans-48"/>
      </g>
     </g>
    </g>
    <g id="text_14">
     <!-- Density -->
     <g transform="translate(19.070312 193.536594)rotate(-90)scale(0.1 -0.1)">
      <defs>
       <path d="M 19.671875 64.796875 
L 19.671875 8.109375 
L 31.59375 8.109375 
Q 46.6875 8.109375 53.6875 14.9375 
Q 60.6875 21.78125 60.6875 36.53125 
Q 60.6875 51.171875 53.6875 57.984375 
Q 46.6875 64.796875 31.59375 64.796875 
z
M 9.8125 72.90625 
L 30.078125 72.90625 
Q 51.265625 72.90625 61.171875 64.09375 
Q 71.09375 55.28125 71.09375 36.53125 
Q 71.09375 17.671875 61.125 8.828125 
Q 51.171875 0 30.078125 0 
L 9.8125 0 
z
" id="DejaVuSans-68"/>
       <path d="M 54.890625 33.015625 
L 54.890625 0 
L 45.90625 0 
L 45.90625 32.71875 
Q 45.90625 40.484375 42.875 44.328125 
Q 39.84375 48.1875 33.796875 48.1875 
Q 26.515625 48.1875 22.3125 43.546875 
Q 18.109375 38.921875 18.109375 30.90625 
L 18.109375 0 
L 9.078125 0 
L 9.078125 54.6875 
L 18.109375 54.6875 
L 18.109375 46.1875 
Q 21.34375 51.125 25.703125 53.5625 
Q 30.078125 56 35.796875 56 
Q 45.21875 56 50.046875 50.171875 
Q 54.890625 44.34375 54.890625 33.015625 
z
" id="DejaVuSans-110"/>
       <path d="M 18.3125 70.21875 
L 18.3125 54.6875 
L 36.8125 54.6875 
L 36.8125 47.703125 
L 18.3125 47.703125 
L 18.3125 18.015625 
Q 18.3125 11.328125 20.140625 9.421875 
Q 21.96875 7.515625 27.59375 7.515625 
L 36.8125 7.515625 
L 36.8125 0 
L 27.59375 0 
Q 17.1875 0 13.234375 3.875 
Q 9.28125 7.765625 9.28125 18.015625 
L 9.28125 47.703125 
L 2.6875 47.703125 
L 2.6875 54.6875 
L 9.28125 54.6875 
L 9.28125 70.21875 
z
" id="DejaVuSans-116"/>
      </defs>
      <use xlink:href="#DejaVuSans-68"/>
      <use x="77.001953" xlink:href="#DejaVuSans-101"/>
      <use x="138.525391" xlink:href="#DejaVuSans-110"/>
      <use x="201.904297" xlink:href="#DejaVuSans-115"/>
      <use x="254.003906" xlink:href="#DejaVuSans-105"/>
      <use x="281.787109" xlink:href="#DejaVuSans-116"/>
      <use x="320.996094" xlink:href="#DejaVuSans-121"/>
     </g>
    </g>
   </g>
   <g id="line2d_13">
    <path clip-path="url(#p9a42838953)" d="M 73.832727 284.394101 
L 74.482686 283.842304 
L 75.132645 282.982574 
L 75.782604 281.579695 
L 76.432563 279.359994 
L 76.757543 278.102568 
L 77.407502 273.810286 
L 78.057461 267.12748 
L 78.70742 256.661756 
L 80.007338 228.564332 
L 81.632236 181.515563 
L 82.282195 174.233786 
L 82.932154 157.085091 
L 83.257133 154.873771 
L 83.582113 150.147689 
L 83.907093 133.027514 
L 84.232072 132.45525 
L 84.557052 127.740458 
L 85.207011 105.738892 
L 85.53199 112.15664 
L 85.85697 104.131854 
L 86.181949 111.11503 
L 86.506929 110.432358 
L 86.831908 109.292789 
L 87.481867 99.866128 
L 87.806847 102.102005 
L 88.131826 123.693796 
L 88.456806 120.014004 
L 88.781785 110.115065 
L 89.106765 120.967146 
L 89.431744 111.735916 
L 89.756724 115.345531 
L 90.081704 116.486874 
L 90.406683 112.680969 
L 90.731663 94.330433 
L 91.381622 90.383316 
L 91.706601 97.399453 
L 92.031581 107.147012 
L 92.35656 103.85808 
L 92.68154 112.065848 
L 93.006519 105.882405 
L 93.331499 115.34994 
L 93.656478 106.294782 
L 93.981458 104.228748 
L 94.306437 90.712816 
L 94.631417 86.468122 
L 94.956396 84.955903 
L 95.281376 95.184723 
L 95.606355 94.096733 
L 95.931335 84.318641 
L 96.256314 86.79992 
L 96.581294 91.849686 
L 96.906274 108.003121 
L 97.231253 103.329525 
L 97.556233 95.987793 
L 97.881212 109.043147 
L 98.206192 112.781941 
L 98.531171 127.367713 
L 98.856151 115.20321 
L 99.18113 118.62749 
L 99.50611 103.814625 
L 99.831089 107.851809 
L 100.156069 102.602676 
L 100.481048 100.819432 
L 100.806028 109.109028 
L 101.455987 102.954704 
L 101.780966 111.506267 
L 102.105946 126.779232 
L 102.755905 138.072679 
L 103.080885 131.203727 
L 103.405864 117.541501 
L 103.730844 126.007051 
L 104.055823 119.137813 
L 105.030762 106.970891 
L 105.355741 108.280413 
L 105.680721 144.031135 
L 106.0057 126.849932 
L 106.33068 118.363106 
L 106.655659 119.577389 
L 106.980639 135.992227 
L 107.305618 131.02581 
L 107.955577 113.227498 
L 108.280557 111.205013 
L 108.605536 98.479956 
L 108.930516 107.47218 
L 109.255495 95.124948 
L 109.580475 91.747677 
L 109.905455 111.256636 
L 110.230434 91.506893 
L 110.555414 84.723552 
L 110.880393 80.636299 
L 111.205373 110.427788 
L 111.530352 120.338471 
L 111.855332 120.447422 
L 112.180311 127.374405 
L 112.505291 127.793635 
L 112.83027 111.404918 
L 113.15525 111.197762 
L 113.480229 101.2155 
L 113.805209 113.266668 
L 114.130188 102.030473 
L 114.455168 98.185308 
L 114.780147 95.917754 
L 115.105127 97.457685 
L 115.430106 86.732229 
L 115.755086 106.248481 
L 116.080066 109.187976 
L 116.405045 114.943682 
L 116.730025 102.347971 
L 117.055004 95.483432 
L 117.379984 94.035863 
L 117.704963 93.43982 
L 118.029943 83.928009 
L 118.679902 80.267048 
L 119.004881 83.257176 
L 119.329861 115.030208 
L 119.65484 108.57568 
L 120.304799 107.812834 
L 120.954758 96.844528 
L 121.279738 112.880153 
L 121.604717 109.854547 
L 121.929697 109.61463 
L 122.579656 122.510301 
L 122.904636 120.296523 
L 123.229615 115.045385 
L 123.554595 103.436096 
L 123.879574 111.9767 
L 124.204554 97.058884 
L 124.529533 97.603918 
L 124.854513 94.120774 
L 125.179492 99.92601 
L 125.504472 94.346292 
L 125.829451 100.116367 
L 126.154431 100.829983 
L 126.47941 91.796309 
L 126.80439 96.311251 
L 127.129369 83.663969 
L 127.454349 76.289925 
L 127.779328 84.117969 
L 128.104308 106.618552 
L 128.429287 112.907288 
L 128.754267 110.46403 
L 129.079247 113.905263 
L 129.404226 107.948891 
L 129.729206 91.053376 
L 130.054185 100.837434 
L 130.379165 104.700383 
L 130.704144 100.665308 
L 131.029124 105.914145 
L 131.354103 106.577359 
L 131.679083 108.693383 
L 132.004062 104.051608 
L 132.329042 125.806637 
L 132.654021 131.540548 
L 132.979001 125.717166 
L 133.62896 102.654075 
L 133.953939 98.851695 
L 134.278919 101.649754 
L 134.603898 121.384596 
L 134.928878 121.876234 
L 135.253857 114.05451 
L 135.578837 109.721117 
L 135.903817 120.194022 
L 136.553776 99.18689 
L 136.878755 94.804048 
L 137.203735 95.399209 
L 137.528714 91.330461 
L 137.853694 102.819435 
L 138.178673 100.229013 
L 138.503653 111.210482 
L 139.153612 115.72649 
L 139.478591 104.300806 
L 139.803571 97.764038 
L 140.12855 126.254728 
L 140.778509 118.820892 
L 141.103489 112.264079 
L 141.428468 98.846504 
L 141.753448 95.372486 
L 142.728387 100.40918 
L 143.053366 98.383764 
L 143.378346 90.924303 
L 144.028305 64.182951 
L 144.353284 79.841143 
L 144.678264 82.696972 
L 145.328223 101.58693 
L 145.653202 117.071824 
L 145.978182 124.243759 
L 146.628141 115.938959 
L 147.2781 100.894576 
L 147.603079 105.35387 
L 147.928059 86.556608 
L 148.253038 89.759592 
L 148.578018 91.217347 
L 148.902998 94.355539 
L 149.552957 102.40691 
L 150.202916 119.363369 
L 150.527895 110.790125 
L 150.852875 116.348964 
L 151.177854 104.624514 
L 151.502834 106.74541 
L 151.827813 113.697103 
L 152.152793 107.800195 
L 152.477772 114.972778 
L 152.802752 116.047827 
L 153.127731 112.02618 
L 153.452711 104.444304 
L 153.77769 111.202337 
L 154.10267 101.110242 
L 154.427649 97.679811 
L 154.752629 91.908346 
L 155.077609 89.183776 
L 155.402588 90.177921 
L 155.727568 93.90122 
L 156.052547 94.55263 
L 156.702506 118.589853 
L 157.027486 122.835113 
L 157.352465 113.341309 
L 157.677445 125.936126 
L 158.002424 116.102731 
L 158.327404 120.210562 
L 158.652383 116.249109 
L 158.977363 116.050787 
L 159.627322 94.539444 
L 159.952301 96.567852 
L 160.277281 99.956579 
L 160.60226 99.627875 
L 160.92724 100.647646 
L 161.252219 92.801498 
L 161.577199 90.214957 
L 161.902179 97.104018 
L 162.227158 95.425907 
L 162.552138 110.864107 
L 163.202097 93.345159 
L 163.527076 89.147027 
L 163.852056 74.266249 
L 164.177035 74.202621 
L 164.502015 69.362814 
L 164.826994 102.021247 
L 165.151974 107.031615 
L 165.476953 102.736923 
L 165.801933 120.790457 
L 166.126912 128.285676 
L 166.451892 127.002757 
L 166.776871 119.293337 
L 167.101851 115.754076 
L 167.42683 125.485008 
L 167.75181 122.368545 
L 168.726749 90.028335 
L 169.376708 112.717329 
L 169.701687 119.176415 
L 170.026667 110.421369 
L 170.351646 109.397074 
L 170.676626 114.691921 
L 171.001605 122.790449 
L 171.326585 122.665585 
L 171.651564 120.362435 
L 171.976544 119.144444 
L 172.301523 129.742308 
L 172.626503 115.859882 
L 172.951482 107.673656 
L 173.276462 95.044597 
L 173.601441 92.778577 
L 173.926421 89.131911 
L 174.57638 116.056691 
L 174.90136 121.337604 
L 175.551319 124.743015 
L 175.876298 125.576683 
L 176.201278 125.106295 
L 176.526257 115.838106 
L 176.851237 114.780955 
L 177.501196 136.975351 
L 177.826175 120.404864 
L 178.151155 122.811245 
L 178.476134 112.432998 
L 178.801114 131.349791 
L 179.126093 123.359525 
L 179.451073 120.392388 
L 180.101032 125.484099 
L 180.426011 118.715729 
L 180.750991 115.649066 
L 181.075971 113.82364 
L 181.40095 114.614829 
L 181.72593 114.383999 
L 182.375889 104.856532 
L 182.700868 106.595404 
L 183.025848 104.839214 
L 183.350827 98.172736 
L 183.675807 82.350714 
L 184.000786 97.872445 
L 184.325766 94.654167 
L 184.650745 147.217047 
L 184.975725 141.063675 
L 185.300704 126.379702 
L 185.625684 121.392958 
L 185.950663 105.291428 
L 186.275643 101.175017 
L 186.600622 101.407788 
L 187.250581 110.024126 
L 187.900541 88.989734 
L 188.22552 93.424587 
L 188.5505 100.140736 
L 188.875479 102.799865 
L 189.200459 101.448521 
L 189.850418 107.077887 
L 190.500377 106.308149 
L 190.825356 113.420233 
L 191.150336 105.484044 
L 191.475315 116.410832 
L 191.800295 93.685498 
L 192.125274 115.294407 
L 192.450254 117.989376 
L 192.775233 124.744515 
L 193.750172 94.963443 
L 194.075152 108.390538 
L 194.400131 116.02251 
L 194.725111 112.856272 
L 195.05009 103.550414 
L 195.37507 84.894993 
L 195.700049 99.15596 
L 196.025029 104.858193 
L 196.350008 105.720579 
L 196.674988 86.26621 
L 196.999967 97.807169 
L 197.324947 95.484921 
L 197.649926 100.745017 
L 197.974906 95.564523 
L 198.624865 72.694582 
L 198.949844 85.572511 
L 199.274824 84.556359 
L 199.599803 91.859446 
L 199.924783 85.570449 
L 200.249762 106.002195 
L 200.574742 100.237391 
L 200.899722 110.107669 
L 201.224701 103.689901 
L 201.549681 102.371906 
L 201.87466 108.082579 
L 202.19964 105.152574 
L 202.524619 108.905698 
L 202.849599 108.382677 
L 203.174578 100.609832 
L 203.824537 96.612684 
L 204.149517 107.353267 
L 204.474496 104.744277 
L 204.799476 100.951564 
L 205.124455 106.501177 
L 205.449435 106.62084 
L 205.774414 122.87865 
L 206.099394 119.861083 
L 206.749353 108.497778 
L 207.074333 104.352091 
L 207.399312 94.603996 
L 207.724292 95.807134 
L 208.049271 83.073443 
L 208.374251 82.706447 
L 208.69923 78.794633 
L 209.02421 104.693139 
L 209.674169 82.982077 
L 210.324128 96.391965 
L 210.649107 117.761934 
L 210.974087 108.982877 
L 211.299066 103.212765 
L 211.624046 114.667068 
L 211.949025 108.923676 
L 212.274005 108.794043 
L 212.598984 94.604515 
L 213.248943 127.965714 
L 213.573923 125.924089 
L 213.898903 120.359919 
L 214.223882 117.026117 
L 214.548862 122.909322 
L 214.873841 117.084691 
L 215.198821 98.36922 
L 215.5238 103.475278 
L 215.84878 101.773637 
L 216.173759 122.322907 
L 216.498739 108.414624 
L 216.823718 121.162833 
L 217.148698 115.87442 
L 217.798657 91.80529 
L 218.123636 116.037223 
L 218.448616 113.136599 
L 218.773595 113.171998 
L 219.098575 122.474099 
L 219.423554 127.164429 
L 219.748534 118.406739 
L 220.073514 105.71704 
L 220.398493 114.60555 
L 220.723473 117.98494 
L 221.048452 116.967857 
L 221.373432 113.053885 
L 222.023391 99.846222 
L 222.34837 84.538471 
L 222.67335 85.192373 
L 222.998329 101.135388 
L 223.323309 130.359626 
L 223.973268 95.105655 
L 224.298247 100.976947 
L 224.623227 92.8608 
L 225.273186 85.706903 
L 225.598165 87.401337 
L 225.923145 102.478785 
L 226.248124 106.943622 
L 226.573104 114.064772 
L 226.898084 103.79253 
L 227.223063 105.117843 
L 227.548043 108.343935 
L 227.873022 106.429982 
L 228.198002 94.838112 
L 228.522981 96.678539 
L 228.847961 107.366654 
L 229.822899 116.14987 
L 230.472858 129.158529 
L 231.122817 120.311658 
L 231.447797 120.860464 
L 231.772776 124.935875 
L 232.422735 116.28049 
L 232.747715 106.618365 
L 233.072695 121.621114 
L 233.397674 120.031671 
L 233.722654 115.201836 
L 235.022572 69.884443 
L 235.347551 70.726153 
L 235.672531 82.699227 
L 235.99751 72.464594 
L 236.32249 68.900748 
L 236.647469 78.711666 
L 236.972449 82.453237 
L 237.297428 91.430281 
L 237.622408 88.371938 
L 237.947387 90.196364 
L 238.597346 113.744887 
L 238.922326 113.624766 
L 239.247305 107.622011 
L 239.897265 104.849942 
L 240.222244 99.395364 
L 240.547224 119.920013 
L 240.872203 118.599424 
L 241.197183 115.704156 
L 241.522162 118.507522 
L 241.847142 124.944478 
L 242.172121 126.665634 
L 242.497101 117.818659 
L 242.82208 114.209357 
L 243.14706 103.741642 
L 243.472039 81.423302 
L 243.797019 81.107409 
L 244.121998 84.07788 
L 244.446978 82.943938 
L 244.771957 70.379644 
L 245.096937 72.443761 
L 245.421916 73.298969 
L 245.746896 68.311785 
L 246.396855 87.314791 
L 246.721835 91.339779 
L 247.046814 105.318868 
L 247.696773 89.942249 
L 248.021753 99.612061 
L 248.346732 95.855583 
L 248.671712 87.401127 
L 248.996691 84.079018 
L 249.321671 93.802138 
L 249.64665 85.892687 
L 250.621589 124.942847 
L 250.946568 115.778751 
L 251.271548 113.511029 
L 251.596527 100.87699 
L 251.921507 119.182814 
L 252.246486 108.149592 
L 252.571466 93.251582 
L 252.896446 83.653351 
L 253.221425 99.694098 
L 253.546405 108.302896 
L 253.871384 97.761382 
L 254.196364 100.110833 
L 254.846323 115.174248 
L 255.171302 110.786411 
L 255.496282 93.448221 
L 255.821261 97.27766 
L 256.146241 93.136425 
L 256.47122 104.103517 
L 256.7962 102.868461 
L 257.121179 104.840148 
L 257.446159 105.574147 
L 257.771138 97.105679 
L 258.096118 101.594722 
L 258.421097 97.053095 
L 258.746077 131.856146 
L 259.071057 121.522516 
L 259.396036 121.715998 
L 260.045995 97.440049 
L 260.370975 97.773126 
L 260.695954 96.288895 
L 261.020934 87.3516 
L 261.345913 87.366002 
L 261.670893 86.559565 
L 261.995872 86.124191 
L 262.320852 81.164091 
L 262.645831 101.125239 
L 262.970811 91.968881 
L 263.62077 105.724316 
L 263.945749 104.62817 
L 264.270729 95.700021 
L 264.595708 104.545637 
L 264.920688 135.313442 
L 265.245667 119.396741 
L 265.570647 128.129054 
L 265.895627 140.315301 
L 266.220606 141.677724 
L 266.545586 131.108907 
L 266.870565 126.260626 
L 267.195545 169.148587 
L 267.520524 152.576624 
L 267.845504 144.743041 
L 268.170483 132.446853 
L 268.495463 125.670715 
L 268.820442 127.640631 
L 269.145422 133.753364 
L 269.470401 131.598381 
L 270.12036 115.269237 
L 270.44534 112.452497 
L 270.770319 99.99872 
L 271.095299 100.314297 
L 271.745258 93.4747 
L 272.070238 112.781961 
L 272.395217 99.783747 
L 272.720197 131.038077 
L 273.045176 131.240849 
L 273.370156 128.196457 
L 273.695135 140.002869 
L 274.020115 147.603721 
L 274.345094 131.095887 
L 274.670074 121.92962 
L 274.995053 117.633051 
L 275.320033 130.229776 
L 275.645012 124.394691 
L 275.969992 116.307772 
L 276.294971 112.43184 
L 276.619951 111.398707 
L 277.26991 105.957613 
L 277.594889 109.440836 
L 277.919869 110.1488 
L 278.244848 93.809397 
L 278.569828 86.335459 
L 278.894808 83.203058 
L 279.219787 75.478886 
L 279.544767 75.659475 
L 279.869746 76.543207 
L 280.194726 80.739276 
L 280.519705 82.441267 
L 280.844685 89.944672 
L 281.169664 108.012103 
L 281.494644 109.042713 
L 281.819623 115.249745 
L 282.144603 116.636063 
L 282.469582 96.547283 
L 282.794562 105.163293 
L 283.119541 122.764103 
L 283.444521 118.783225 
L 283.7695 108.475937 
L 284.09448 114.520721 
L 284.419459 111.707334 
L 284.744439 112.007258 
L 285.069419 120.895785 
L 285.394398 115.598262 
L 285.719378 97.370122 
L 286.044357 112.925355 
L 286.369337 122.908971 
L 287.019296 101.04385 
L 287.344275 117.436003 
L 287.669255 121.581146 
L 287.994234 109.569152 
L 288.319214 117.009855 
L 288.644193 121.794627 
L 288.969173 113.890827 
L 289.294152 110.625929 
L 289.619132 117.991577 
L 289.944111 113.984177 
L 290.269091 116.841186 
L 290.59407 109.687441 
L 290.91905 107.250398 
L 291.244029 107.449482 
L 291.569009 108.286001 
L 291.893989 107.424935 
L 292.218968 108.050914 
L 292.543948 93.976541 
L 292.868927 95.860517 
L 293.193907 92.99897 
L 293.518886 97.922325 
L 293.843866 93.356769 
L 294.493825 108.685252 
L 294.818804 107.556377 
L 295.143784 116.910546 
L 295.468763 103.577194 
L 295.793743 95.532282 
L 296.118722 98.528235 
L 296.443702 89.91545 
L 296.768681 89.307301 
L 297.093661 94.047935 
L 297.41864 94.590243 
L 297.74362 85.221789 
L 298.0686 88.601259 
L 298.393579 85.365144 
L 299.043538 74.475167 
L 299.368518 77.882564 
L 299.693497 109.385361 
L 300.018477 117.794259 
L 300.343456 122.130777 
L 300.993415 101.453919 
L 301.318395 97.888454 
L 301.643374 117.169648 
L 301.968354 112.10298 
L 302.293333 122.904918 
L 302.618313 123.313696 
L 302.943292 110.937682 
L 303.268272 103.675078 
L 303.593251 103.382126 
L 303.918231 108.865033 
L 304.24321 106.238122 
L 304.89317 81.01979 
L 305.543129 71.70366 
L 305.868108 100.362871 
L 306.193088 104.600356 
L 306.518067 91.285493 
L 306.843047 90.715301 
L 307.168026 100.281005 
L 307.493006 97.348519 
L 307.817985 98.1247 
L 308.142965 87.986013 
L 308.467944 90.911212 
L 308.792924 83.327148 
L 309.117903 79.1159 
L 309.442883 85.870813 
L 309.767862 114.455406 
L 310.092842 102.971325 
L 310.417821 86.667063 
L 310.742801 127.807704 
L 311.067781 125.029391 
L 311.39276 120.087958 
L 311.71774 138.756038 
L 312.692678 115.450117 
L 313.017658 114.234768 
L 313.342637 116.077089 
L 313.667617 103.65614 
L 313.992596 111.220585 
L 314.317576 109.002904 
L 314.642555 97.943893 
L 314.967535 100.398119 
L 315.292514 92.066751 
L 315.617494 92.979937 
L 315.942473 88.154512 
L 316.267453 97.976038 
L 316.592432 96.022735 
L 316.917412 91.172214 
L 317.242391 88.57641 
L 317.567371 88.852086 
L 317.892351 98.581773 
L 318.21733 86.616534 
L 318.54231 93.703955 
L 318.867289 95.926842 
L 319.192269 84.472531 
L 319.517248 99.827249 
L 319.842228 97.197568 
L 320.167207 102.63433 
L 320.492187 91.304894 
L 320.817166 106.61001 
L 321.142146 108.863967 
L 322.117084 82.513071 
L 322.442064 79.638168 
L 322.767043 81.961504 
L 323.092023 87.526005 
L 323.417002 88.189845 
L 323.741982 87.267821 
L 324.391941 104.09877 
L 324.716921 92.421304 
L 325.0419 90.82165 
L 325.36688 91.725611 
L 326.016839 64.31135 
L 326.341818 66.640402 
L 326.666798 78.147819 
L 326.991777 95.232537 
L 327.316757 96.202895 
L 327.641736 91.406655 
L 328.291695 107.308264 
L 329.266634 93.866738 
L 329.591613 91.22402 
L 329.916593 81.714697 
L 330.241572 79.223481 
L 330.566552 83.227516 
L 331.216511 93.407221 
L 331.541491 105.527633 
L 331.86647 99.018636 
L 332.19145 108.079619 
L 332.516429 106.467826 
L 332.841409 108.622119 
L 333.166388 129.433362 
L 333.491368 113.58702 
L 333.816347 106.092021 
L 334.141327 106.653259 
L 334.466306 96.346585 
L 334.791286 110.547902 
L 335.116265 112.359026 
L 335.441245 134.655342 
L 335.766224 131.03339 
L 336.091204 122.257184 
L 336.416183 121.868985 
L 336.741163 118.706973 
L 337.066143 99.745092 
L 337.716102 82.353971 
L 338.041081 77.935764 
L 338.366061 88.422277 
L 338.69104 106.958152 
L 339.01602 110.021914 
L 339.340999 126.161117 
L 339.665979 121.585162 
L 340.315938 101.42591 
L 340.640917 97.165328 
L 340.965897 85.227919 
L 341.290876 85.919445 
L 341.615856 98.914384 
L 341.940835 103.531717 
L 342.265815 95.011023 
L 342.590794 92.35168 
L 342.915774 86.983372 
L 343.240753 77.261641 
L 343.565733 86.801875 
L 343.890713 77.271932 
L 344.215692 85.857252 
L 344.540672 101.696772 
L 344.865651 112.070336 
L 345.190631 105.308561 
L 345.51561 93.943719 
L 345.84059 97.219151 
L 346.165569 109.504054 
L 346.490549 131.528897 
L 346.815528 134.941867 
L 347.140508 129.132707 
L 347.790467 104.229268 
L 348.115446 123.030968 
L 348.440426 116.949138 
L 348.765405 119.571246 
L 349.090385 117.790704 
L 349.415364 110.484273 
L 349.740344 92.127847 
L 350.065324 85.299264 
L 350.390303 84.10504 
L 350.715283 93.427952 
L 351.040262 98.519243 
L 351.365242 95.530953 
L 351.690221 98.693308 
L 352.015201 98.150553 
L 352.34018 90.053625 
L 352.66516 93.137448 
L 352.990139 90.356689 
L 353.315119 92.279429 
L 353.640098 91.979002 
L 353.965078 103.299807 
L 354.290057 87.923843 
L 354.615037 95.755162 
L 354.940016 95.590427 
L 355.589975 90.571499 
L 355.914955 73.423516 
L 356.239934 72.380823 
L 356.564914 76.510041 
L 356.889894 73.787423 
L 357.214873 67.228489 
L 357.539853 74.437004 
L 357.864832 102.852482 
L 358.189812 105.333325 
L 358.514791 100.277897 
L 358.839771 115.169293 
L 359.48973 101.311431 
L 359.814709 100.472463 
L 360.139689 93.517436 
L 360.464668 93.098506 
L 360.789648 102.207672 
L 361.114627 116.851231 
L 361.439607 124.256446 
L 361.764586 114.844733 
L 362.089566 109.112287 
L 362.414545 100.911871 
L 362.739525 104.709495 
L 363.389484 90.246069 
L 364.039443 95.081297 
L 364.364423 83.62406 
L 364.689402 92.197965 
L 365.014382 122.463777 
L 365.339361 115.242333 
L 365.664341 105.408027 
L 365.98932 107.537748 
L 366.3143 94.816664 
L 366.639279 96.997473 
L 366.964259 102.566837 
L 367.289238 111.614956 
L 367.614218 100.935089 
L 367.939197 116.197425 
L 368.264177 114.218624 
L 368.589156 125.168543 
L 368.914136 128.170916 
L 369.239115 114.505201 
L 369.564095 116.408614 
L 369.889075 105.940382 
L 370.539034 114.491857 
L 370.864013 111.284878 
L 371.188993 103.814511 
L 371.513972 106.572054 
L 371.838952 101.987283 
L 372.488911 89.620238 
L 372.81389 87.978698 
L 373.463849 81.903483 
L 374.113808 87.867696 
L 374.438788 94.230218 
L 374.763767 93.215493 
L 375.088747 108.933865 
L 376.063686 83.092186 
L 376.388665 83.284822 
L 376.713645 79.198259 
L 377.038624 89.825913 
L 377.363604 82.97516 
L 377.688583 81.397222 
L 378.013563 82.691942 
L 378.338542 87.000292 
L 378.663522 78.678639 
L 378.988501 58.791232 
L 379.63846 85.803174 
L 379.96344 75.293978 
L 380.288419 107.728376 
L 380.613399 128.946635 
L 381.263358 116.714017 
L 381.588337 108.693151 
L 381.913317 96.609677 
L 382.238296 93.044773 
L 382.563276 105.334372 
L 382.888256 124.868494 
L 383.213235 118.730944 
L 383.538215 116.864643 
L 383.863194 121.001819 
L 384.188174 108.094207 
L 384.513153 100.977869 
L 385.163112 92.792924 
L 385.488092 119.169375 
L 385.813071 107.184224 
L 386.138051 100.539679 
L 386.46303 112.454285 
L 386.78801 110.034744 
L 387.112989 110.143312 
L 387.437969 109.820707 
L 387.762948 107.500646 
L 388.087928 107.175677 
L 388.412907 91.550356 
L 389.062867 119.858906 
L 389.387846 108.551967 
L 389.712826 103.455912 
L 390.037805 124.109188 
L 390.362785 127.723835 
L 391.012744 113.704561 
L 391.337723 92.125552 
L 391.987682 98.818693 
L 392.312662 85.296566 
L 392.637641 92.695627 
L 392.962621 87.043324 
L 393.2876 88.178142 
L 393.61258 99.03941 
L 394.587518 63.492346 
L 394.912498 64.714401 
L 395.237477 68.298557 
L 395.562457 53.568 
L 395.887437 57.175218 
L 396.212416 71.432308 
L 396.537396 71.333255 
L 396.862375 72.231316 
L 397.187355 91.012698 
L 397.512334 94.423212 
L 397.837314 95.943642 
L 398.162293 94.877437 
L 398.487273 97.012252 
L 398.487273 97.012252 
" style="fill:none;stroke:#1f77b4;stroke-linecap:square;stroke-width:1.5;"/>
   </g>
   <g id="line2d_14">
    <path clip-path="url(#p9a42838953)" d="M 73.832727 285.347255 
L 77.732482 285.561018 
L 86.506929 286.301839 
L 96.581294 286.626944 
L 97.231253 286.614002 
L 98.206192 286.608275 
L 98.856151 286.619802 
L 101.131007 286.705121 
L 102.105946 286.671213 
L 103.730844 286.724157 
L 105.355741 286.832141 
L 105.680721 286.71135 
L 106.655659 286.834514 
L 107.305618 286.804734 
L 109.580475 287.017347 
L 109.905455 286.954729 
L 110.880393 287.093099 
L 111.530352 286.963838 
L 115.105127 287.157083 
L 115.430106 287.208904 
L 116.405045 287.121793 
L 117.379984 287.241604 
L 121.929697 287.29018 
L 123.229615 287.303009 
L 124.204554 287.415256 
L 132.004062 287.600666 
L 132.654021 287.469765 
L 134.278919 287.678468 
L 134.928878 287.586221 
L 135.578837 287.672709 
L 136.228796 287.690058 
L 137.203735 287.796024 
L 138.178673 287.792397 
L 139.153612 287.728798 
L 139.803571 287.842904 
L 140.12855 287.691885 
L 144.678264 288.073122 
L 146.628141 287.935072 
L 148.253038 288.134257 
L 149.877936 288.051123 
L 150.202916 288.004471 
L 151.177854 288.120801 
L 153.77769 288.122167 
L 154.752629 288.270467 
L 156.052547 288.291232 
L 157.027486 288.133759 
L 157.352465 288.207977 
L 157.677445 288.127316 
L 158.327404 288.180953 
L 161.577199 288.483076 
L 162.877117 288.434647 
L 164.502015 288.690815 
L 164.826994 288.516455 
L 166.776871 288.442737 
L 169.051728 288.635582 
L 169.701687 288.544993 
L 170.351646 288.623165 
L 171.651564 288.564953 
L 172.951482 288.710295 
L 173.601441 288.850906 
L 173.926421 288.890082 
L 174.90136 288.664127 
L 176.201278 288.659717 
L 176.851237 288.776444 
L 177.501196 288.603154 
L 177.826175 288.758505 
L 180.101032 288.784976 
L 181.075971 288.902164 
L 182.700868 289.015387 
L 183.350827 289.103324 
L 183.675807 289.238195 
L 184.000786 289.109596 
L 184.325766 289.146025 
L 184.650745 288.72026 
L 185.625684 288.970823 
L 186.275643 289.173117 
L 187.575561 289.222966 
L 187.900541 289.32075 
L 189.850418 289.209443 
L 191.800295 289.329546 
L 192.125274 289.141022 
L 193.100213 289.178276 
L 193.750172 289.371326 
L 194.400131 289.188646 
L 195.05009 289.327683 
L 195.37507 289.500384 
L 196.025029 289.33122 
L 196.350008 289.335397 
L 196.674988 289.519472 
L 196.999967 289.424998 
L 198.299885 289.588152 
L 198.624865 289.692326 
L 198.949844 289.59206 
L 199.924783 289.617624 
L 200.249762 289.436531 
L 200.574742 289.503634 
L 200.899722 289.418471 
L 201.549681 289.510321 
L 202.524619 289.477817 
L 203.499558 289.602452 
L 203.824537 289.628887 
L 204.149517 289.535241 
L 205.449435 289.580963 
L 205.774414 289.422518 
L 207.724292 289.756793 
L 208.374251 289.899881 
L 208.69923 289.943639 
L 209.02421 289.686826 
L 209.674169 289.915005 
L 210.324128 289.811771 
L 210.649107 289.652814 
L 211.299066 289.822764 
L 211.624046 289.714296 
L 212.598984 289.951118 
L 213.248943 289.613192 
L 214.873841 289.783541 
L 215.198821 289.991229 
L 216.823718 289.796023 
L 217.473677 290.014267 
L 217.798657 290.113665 
L 218.123636 289.869939 
L 218.773595 289.920477 
L 219.423554 289.757107 
L 220.073514 290.008954 
L 220.723473 289.889495 
L 221.698411 290.033802 
L 222.67335 290.279566 
L 222.998329 290.123667 
L 223.323309 289.800162 
L 223.973268 290.207937 
L 224.298247 290.1557 
L 225.273186 290.341886 
L 225.598165 290.333244 
L 226.248124 290.152789 
L 226.573104 290.058523 
L 226.898084 290.183144 
L 227.873022 290.18484 
L 228.198002 290.319029 
L 229.17294 290.174125 
L 230.797838 290.054216 
L 231.447797 290.10884 
L 232.097756 290.133627 
L 232.747715 290.318664 
L 233.072695 290.155823 
L 233.722654 290.242619 
L 235.022572 290.790653 
L 235.347551 290.789424 
L 235.672531 290.667729 
L 236.32249 290.835468 
L 237.297428 290.608068 
L 237.947387 290.64973 
L 238.597346 290.387155 
L 239.572285 290.472827 
L 240.222244 290.570127 
L 240.547224 290.335627 
L 241.522162 290.357272 
L 242.172121 290.260363 
L 243.797019 290.847498 
L 244.446978 290.840784 
L 244.771957 290.982969 
L 246.721835 290.79791 
L 247.046814 290.650296 
L 247.696773 290.84705 
L 248.021753 290.745305 
L 248.996691 290.928918 
L 249.321671 290.806615 
L 249.64665 290.9099 
L 250.621589 290.462966 
L 251.596527 290.760772 
L 251.921507 290.521322 
L 252.896446 290.976294 
L 253.546405 290.692639 
L 253.871384 290.830792 
L 254.521343 290.726531 
L 254.846323 290.649866 
L 256.146241 290.902837 
L 256.47122 290.773281 
L 258.421097 290.920527 
L 258.746077 290.488314 
L 259.071057 290.633512 
L 259.396036 290.638578 
L 260.045995 290.967367 
L 260.695954 290.999066 
L 261.020934 291.108592 
L 262.320852 291.180855 
L 262.645831 290.949383 
L 262.970811 291.065329 
L 263.945749 290.92168 
L 264.270729 291.043805 
L 264.595708 290.939045 
L 264.920688 290.531861 
L 265.245667 290.763615 
L 266.220606 290.467179 
L 266.870565 290.710231 
L 267.195545 290.119381 
L 267.845504 290.5159 
L 268.495463 290.812745 
L 269.470401 290.75422 
L 270.770319 291.211409 
L 271.745258 291.326623 
L 272.070238 291.074171 
L 272.395217 291.252893 
L 272.720197 290.836763 
L 273.370156 290.900447 
L 274.020115 290.623844 
L 274.670074 291.027071 
L 274.995053 291.09679 
L 275.320033 290.927038 
L 276.619951 291.224587 
L 277.594889 291.290156 
L 277.919869 291.289357 
L 278.569828 291.625067 
L 279.869746 291.789864 
L 280.844685 291.63384 
L 281.169664 291.407393 
L 282.144603 291.314407 
L 282.469582 291.610934 
L 282.794562 291.498861 
L 283.119541 291.251605 
L 284.419459 291.42407 
L 284.744439 291.431225 
L 285.069419 291.304605 
L 285.394398 291.393577 
L 285.719378 291.663682 
L 286.369337 291.315472 
L 287.019296 291.656527 
L 287.669255 291.460686 
L 287.994234 291.646741 
L 288.644193 291.483449 
L 289.294152 291.690381 
L 289.619132 291.584019 
L 289.944111 291.660077 
L 290.269091 291.621393 
L 290.91905 291.786439 
L 292.218968 291.793531 
L 292.543948 292.011146 
L 294.818804 291.863366 
L 295.143784 291.702011 
L 295.793743 292.039987 
L 296.118722 292.002014 
L 296.768681 292.138043 
L 297.41864 292.090811 
L 297.74362 292.232892 
L 298.393579 292.250613 
L 299.043538 292.427573 
L 299.368518 292.385281 
L 299.693497 291.949822 
L 300.343456 291.78246 
L 301.318395 292.184615 
L 301.643374 291.894905 
L 301.968354 291.995245 
L 302.293333 291.834933 
L 302.618313 291.832664 
L 303.268272 292.171005 
L 304.24321 292.150155 
L 304.89317 292.544619 
L 305.543129 292.692493 
L 305.868108 292.283127 
L 306.193088 292.230725 
L 306.518067 292.448025 
L 306.843047 292.469083 
L 307.168026 292.330255 
L 309.442883 292.620928 
L 309.767862 292.183737 
L 310.417821 292.643836 
L 310.742801 292.005854 
L 311.39276 292.150793 
L 311.71774 291.828763 
L 313.017658 292.295972 
L 313.342637 292.272612 
L 313.667617 292.498022 
L 313.992596 292.385153 
L 314.317576 292.432462 
L 314.642555 292.620661 
L 314.967535 292.589392 
L 315.292514 292.739598 
L 316.917412 292.784465 
L 317.567371 292.848962 
L 317.892351 292.692528 
L 318.21733 292.891656 
L 318.867289 292.758764 
L 319.192269 292.953529 
L 319.517248 292.709954 
L 319.842228 292.764244 
L 320.167207 292.683693 
L 320.492187 292.879403 
L 320.817166 292.61757 
L 321.142146 292.591088 
L 322.442064 293.102424 
L 324.066962 292.913878 
L 324.391941 292.767908 
L 324.716921 292.969081 
L 325.36688 292.989827 
L 326.016839 293.428911 
L 326.341818 293.399915 
L 327.316757 292.946565 
L 327.641736 293.026028 
L 328.291695 292.780779 
L 330.241572 293.303089 
L 332.19145 292.87469 
L 332.841409 292.886216 
L 333.166388 292.475411 
L 333.491368 292.778153 
L 333.816347 292.910164 
L 334.141327 292.898362 
L 334.466306 293.089078 
L 334.791286 292.852448 
L 335.116265 292.833314 
L 335.441245 292.448537 
L 336.741163 292.789765 
L 337.066143 293.138612 
L 338.041081 293.539523 
L 338.366061 293.383665 
L 338.69104 293.048715 
L 339.01602 293.000723 
L 339.340999 292.70721 
L 339.990958 293.007251 
L 340.965897 293.466579 
L 341.290876 293.46488 
L 341.615856 293.253258 
L 341.940835 293.178629 
L 342.590794 293.399291 
L 343.240753 293.662298 
L 343.565733 293.504393 
L 343.890713 293.675256 
L 344.215692 293.552363 
L 344.865651 293.100776 
L 345.84059 293.371984 
L 346.165569 293.163013 
L 346.490549 292.753242 
L 346.815528 292.700473 
L 347.465487 293.065711 
L 347.790467 293.325231 
L 348.115446 292.986681 
L 348.440426 293.111263 
L 348.765405 293.038871 
L 349.415364 293.232308 
L 349.740344 293.573383 
L 350.390303 293.735422 
L 351.040262 293.489395 
L 351.690221 293.510708 
L 352.015201 293.531148 
L 352.34018 293.679333 
L 352.990139 293.684824 
L 353.640098 293.690614 
L 353.965078 293.497191 
L 354.290057 293.784547 
L 354.615037 293.649896 
L 355.589975 293.765391 
L 355.914955 294.0731 
L 357.539853 294.091096 
L 357.864832 293.592292 
L 358.189812 293.54953 
L 358.514791 293.656402 
L 358.839771 293.36161 
L 359.48973 293.634547 
L 359.814709 293.656713 
L 360.464668 293.813759 
L 361.439607 293.227475 
L 362.089566 293.511145 
L 362.414545 293.676587 
L 362.739525 293.618845 
L 363.389484 293.886173 
L 364.039443 293.78054 
L 364.364423 293.995328 
L 364.689402 293.850716 
L 365.014382 293.217586 
L 366.3143 293.72277 
L 366.964259 293.607316 
L 367.289238 293.441642 
L 367.614218 293.656779 
L 367.939197 293.402247 
L 368.264177 293.449969 
L 368.589156 293.244832 
L 368.914136 293.196418 
L 369.239115 293.480556 
L 369.564095 293.450758 
L 369.889075 293.665103 
L 370.539034 293.520957 
L 373.788829 294.142463 
L 374.763767 294.018264 
L 375.088747 293.720929 
L 376.063686 294.242912 
L 376.713645 294.339082 
L 377.038624 294.152575 
L 377.688583 294.321313 
L 378.338542 294.238818 
L 378.663522 294.399913 
L 378.988501 294.763796 
L 379.63846 294.297727 
L 379.96344 294.503533 
L 380.613399 293.509428 
L 381.588337 293.947932 
L 381.913317 294.198853 
L 382.238296 294.273514 
L 382.888256 293.691842 
L 383.538215 293.880067 
L 383.863194 293.790743 
L 384.513153 294.221248 
L 385.163112 294.412674 
L 385.488092 293.894667 
L 386.138051 294.292756 
L 386.46303 294.055829 
L 387.437969 294.141613 
L 388.087928 294.224445 
L 388.412907 294.534946 
L 389.062867 294.016125 
L 389.712826 294.391339 
L 390.037805 293.970727 
L 390.362785 293.895599 
L 391.012744 294.230438 
L 391.337723 294.669737 
L 391.987682 294.549642 
L 392.312662 294.830192 
L 392.637641 294.696869 
L 392.962621 294.808268 
L 393.2876 294.789104 
L 393.61258 294.580831 
L 394.587518 295.282957 
L 395.237477 295.199603 
L 395.562457 295.488 
L 395.887437 295.431195 
L 396.212416 295.178602 
L 396.862375 295.151565 
L 397.187355 294.794867 
L 398.162293 294.749413 
L 398.487273 294.728388 
L 398.487273 294.728388 
" style="fill:none;stroke:#ff7f0e;stroke-linecap:square;stroke-width:1.5;"/>
   </g>
   <g id="patch_3">
    <path d="M 57.6 307.584 
L 57.6 41.472 
" style="fill:none;stroke:#000000;stroke-linecap:square;stroke-linejoin:miter;stroke-width:0.8;"/>
   </g>
   <g id="patch_4">
    <path d="M 414.72 307.584 
L 414.72 41.472 
" style="fill:none;stroke:#000000;stroke-linecap:square;stroke-linejoin:miter;stroke-width:0.8;"/>
   </g>
   <g id="patch_5">
    <path d="M 57.6 307.584 
L 414.72 307.584 
" style="fill:none;stroke:#000000;stroke-linecap:square;stroke-linejoin:miter;stroke-width:0.8;"/>
   </g>
   <g id="patch_6">
    <path d="M 57.6 41.472 
L 414.72 41.472 
" style="fill:none;stroke:#000000;stroke-linecap:square;stroke-linejoin:miter;stroke-width:0.8;"/>
   </g>
  </g>
 </g>
 <defs>
  <clipPath id="p9a42838953">
   <rect height="266.112" width="357.12" x="57.6" y="41.472"/>
  </clipPath>
 </defs>
</svg>
