<?xml version="1.0" encoding="utf-8" standalone="no"?>
<!DOCTYPE svg PUBLIC "-//W3C//DTD SVG 1.1//EN"
  "http://www.w3.org/Graphics/SVG/1.1/DTD/svg11.dtd">
<!-- Created with matplotlib (https://matplotlib.org/) -->
<svg height="345.6pt" version="1.1" viewBox="0 0 460.8 345.6" width="460.8pt" xmlns="http://www.w3.org/2000/svg" xmlns:xlink="http://www.w3.org/1999/xlink">
 <metadata>
  <rdf:RDF xmlns:cc="http://creativecommons.org/ns#" xmlns:dc="http://purl.org/dc/elements/1.1/" xmlns:rdf="http://www.w3.org/1999/02/22-rdf-syntax-ns#">
   <cc:Work>
    <dc:type rdf:resource="http://purl.org/dc/dcmitype/StillImage"/>
    <dc:date>2020-10-24T13:28:07.200499</dc:date>
    <dc:format>image/svg+xml</dc:format>
    <dc:creator>
     <cc:Agent>
      <dc:title>Matplotlib v3.3.2, https://matplotlib.org/</dc:title>
     </cc:Agent>
    </dc:creator>
   </cc:Work>
  </rdf:RDF>
 </metadata>
 <defs>
  <style type="text/css">*{stroke-linecap:butt;stroke-linejoin:round;}</style>
 </defs>
 <g id="figure_1">
  <g id="patch_1">
   <path d="M 0 345.6 
L 460.8 345.6 
L 460.8 0 
L 0 0 
z
" style="fill:#ffffff;"/>
  </g>
  <g id="axes_1">
   <g id="patch_2">
    <path d="M 57.6 307.584 
L 414.72 307.584 
L 414.72 41.472 
L 57.6 41.472 
z
" style="fill:#ffffff;"/>
   </g>
   <g id="matplotlib.axis_1">
    <g id="xtick_1">
     <g id="line2d_1">
      <defs>
       <path d="M 0 0 
L 0 3.5 
" id="m8538485399" style="stroke:#000000;stroke-width:0.8;"/>
      </defs>
      <g>
       <use style="stroke:#000000;stroke-width:0.8;" x="73.832727" xlink:href="#m8538485399" y="307.584"/>
      </g>
     </g>
     <g id="text_1">
      <!-- 0.0 -->
      <g transform="translate(65.881165 322.182437)scale(0.1 -0.1)">
       <defs>
        <path d="M 31.78125 66.40625 
Q 24.171875 66.40625 20.328125 58.90625 
Q 16.5 51.421875 16.5 36.375 
Q 16.5 21.390625 20.328125 13.890625 
Q 24.171875 6.390625 31.78125 6.390625 
Q 39.453125 6.390625 43.28125 13.890625 
Q 47.125 21.390625 47.125 36.375 
Q 47.125 51.421875 43.28125 58.90625 
Q 39.453125 66.40625 31.78125 66.40625 
z
M 31.78125 74.21875 
Q 44.046875 74.21875 50.515625 64.515625 
Q 56.984375 54.828125 56.984375 36.375 
Q 56.984375 17.96875 50.515625 8.265625 
Q 44.046875 -1.421875 31.78125 -1.421875 
Q 19.53125 -1.421875 13.0625 8.265625 
Q 6.59375 17.96875 6.59375 36.375 
Q 6.59375 54.828125 13.0625 64.515625 
Q 19.53125 74.21875 31.78125 74.21875 
z
" id="DejaVuSans-48"/>
        <path d="M 10.6875 12.40625 
L 21 12.40625 
L 21 0 
L 10.6875 0 
z
" id="DejaVuSans-46"/>
       </defs>
       <use xlink:href="#DejaVuSans-48"/>
       <use x="63.623047" xlink:href="#DejaVuSans-46"/>
       <use x="95.410156" xlink:href="#DejaVuSans-48"/>
      </g>
     </g>
    </g>
    <g id="xtick_2">
     <g id="line2d_2">
      <g>
       <use style="stroke:#000000;stroke-width:0.8;" x="118.925515" xlink:href="#m8538485399" y="307.584"/>
      </g>
     </g>
     <g id="text_2">
      <!-- 0.2 -->
      <g transform="translate(110.973953 322.182437)scale(0.1 -0.1)">
       <defs>
        <path d="M 19.1875 8.296875 
L 53.609375 8.296875 
L 53.609375 0 
L 7.328125 0 
L 7.328125 8.296875 
Q 12.9375 14.109375 22.625 23.890625 
Q 32.328125 33.6875 34.8125 36.53125 
Q 39.546875 41.84375 41.421875 45.53125 
Q 43.3125 49.21875 43.3125 52.78125 
Q 43.3125 58.59375 39.234375 62.25 
Q 35.15625 65.921875 28.609375 65.921875 
Q 23.96875 65.921875 18.8125 64.3125 
Q 13.671875 62.703125 7.8125 59.421875 
L 7.8125 69.390625 
Q 13.765625 71.78125 18.9375 73 
Q 24.125 74.21875 28.421875 74.21875 
Q 39.75 74.21875 46.484375 68.546875 
Q 53.21875 62.890625 53.21875 53.421875 
Q 53.21875 48.921875 51.53125 44.890625 
Q 49.859375 40.875 45.40625 35.40625 
Q 44.1875 33.984375 37.640625 27.21875 
Q 31.109375 20.453125 19.1875 8.296875 
z
" id="DejaVuSans-50"/>
       </defs>
       <use xlink:href="#DejaVuSans-48"/>
       <use x="63.623047" xlink:href="#DejaVuSans-46"/>
       <use x="95.410156" xlink:href="#DejaVuSans-50"/>
      </g>
     </g>
    </g>
    <g id="xtick_3">
     <g id="line2d_3">
      <g>
       <use style="stroke:#000000;stroke-width:0.8;" x="164.018303" xlink:href="#m8538485399" y="307.584"/>
      </g>
     </g>
     <g id="text_3">
      <!-- 0.4 -->
      <g transform="translate(156.066741 322.182437)scale(0.1 -0.1)">
       <defs>
        <path d="M 37.796875 64.3125 
L 12.890625 25.390625 
L 37.796875 25.390625 
z
M 35.203125 72.90625 
L 47.609375 72.90625 
L 47.609375 25.390625 
L 58.015625 25.390625 
L 58.015625 17.1875 
L 47.609375 17.1875 
L 47.609375 0 
L 37.796875 0 
L 37.796875 17.1875 
L 4.890625 17.1875 
L 4.890625 26.703125 
z
" id="DejaVuSans-52"/>
       </defs>
       <use xlink:href="#DejaVuSans-48"/>
       <use x="63.623047" xlink:href="#DejaVuSans-46"/>
       <use x="95.410156" xlink:href="#DejaVuSans-52"/>
      </g>
     </g>
    </g>
    <g id="xtick_4">
     <g id="line2d_4">
      <g>
       <use style="stroke:#000000;stroke-width:0.8;" x="209.111091" xlink:href="#m8538485399" y="307.584"/>
      </g>
     </g>
     <g id="text_4">
      <!-- 0.6 -->
      <g transform="translate(201.159529 322.182437)scale(0.1 -0.1)">
       <defs>
        <path d="M 33.015625 40.375 
Q 26.375 40.375 22.484375 35.828125 
Q 18.609375 31.296875 18.609375 23.390625 
Q 18.609375 15.53125 22.484375 10.953125 
Q 26.375 6.390625 33.015625 6.390625 
Q 39.65625 6.390625 43.53125 10.953125 
Q 47.40625 15.53125 47.40625 23.390625 
Q 47.40625 31.296875 43.53125 35.828125 
Q 39.65625 40.375 33.015625 40.375 
z
M 52.59375 71.296875 
L 52.59375 62.3125 
Q 48.875 64.0625 45.09375 64.984375 
Q 41.3125 65.921875 37.59375 65.921875 
Q 27.828125 65.921875 22.671875 59.328125 
Q 17.53125 52.734375 16.796875 39.40625 
Q 19.671875 43.65625 24.015625 45.921875 
Q 28.375 48.1875 33.59375 48.1875 
Q 44.578125 48.1875 50.953125 41.515625 
Q 57.328125 34.859375 57.328125 23.390625 
Q 57.328125 12.15625 50.6875 5.359375 
Q 44.046875 -1.421875 33.015625 -1.421875 
Q 20.359375 -1.421875 13.671875 8.265625 
Q 6.984375 17.96875 6.984375 36.375 
Q 6.984375 53.65625 15.1875 63.9375 
Q 23.390625 74.21875 37.203125 74.21875 
Q 40.921875 74.21875 44.703125 73.484375 
Q 48.484375 72.75 52.59375 71.296875 
z
" id="DejaVuSans-54"/>
       </defs>
       <use xlink:href="#DejaVuSans-48"/>
       <use x="63.623047" xlink:href="#DejaVuSans-46"/>
       <use x="95.410156" xlink:href="#DejaVuSans-54"/>
      </g>
     </g>
    </g>
    <g id="xtick_5">
     <g id="line2d_5">
      <g>
       <use style="stroke:#000000;stroke-width:0.8;" x="254.203879" xlink:href="#m8538485399" y="307.584"/>
      </g>
     </g>
     <g id="text_5">
      <!-- 0.8 -->
      <g transform="translate(246.252317 322.182437)scale(0.1 -0.1)">
       <defs>
        <path d="M 31.78125 34.625 
Q 24.75 34.625 20.71875 30.859375 
Q 16.703125 27.09375 16.703125 20.515625 
Q 16.703125 13.921875 20.71875 10.15625 
Q 24.75 6.390625 31.78125 6.390625 
Q 38.8125 6.390625 42.859375 10.171875 
Q 46.921875 13.96875 46.921875 20.515625 
Q 46.921875 27.09375 42.890625 30.859375 
Q 38.875 34.625 31.78125 34.625 
z
M 21.921875 38.8125 
Q 15.578125 40.375 12.03125 44.71875 
Q 8.5 49.078125 8.5 55.328125 
Q 8.5 64.0625 14.71875 69.140625 
Q 20.953125 74.21875 31.78125 74.21875 
Q 42.671875 74.21875 48.875 69.140625 
Q 55.078125 64.0625 55.078125 55.328125 
Q 55.078125 49.078125 51.53125 44.71875 
Q 48 40.375 41.703125 38.8125 
Q 48.828125 37.15625 52.796875 32.3125 
Q 56.78125 27.484375 56.78125 20.515625 
Q 56.78125 9.90625 50.3125 4.234375 
Q 43.84375 -1.421875 31.78125 -1.421875 
Q 19.734375 -1.421875 13.25 4.234375 
Q 6.78125 9.90625 6.78125 20.515625 
Q 6.78125 27.484375 10.78125 32.3125 
Q 14.796875 37.15625 21.921875 38.8125 
z
M 18.3125 54.390625 
Q 18.3125 48.734375 21.84375 45.5625 
Q 25.390625 42.390625 31.78125 42.390625 
Q 38.140625 42.390625 41.71875 45.5625 
Q 45.3125 48.734375 45.3125 54.390625 
Q 45.3125 60.0625 41.71875 63.234375 
Q 38.140625 66.40625 31.78125 66.40625 
Q 25.390625 66.40625 21.84375 63.234375 
Q 18.3125 60.0625 18.3125 54.390625 
z
" id="DejaVuSans-56"/>
       </defs>
       <use xlink:href="#DejaVuSans-48"/>
       <use x="63.623047" xlink:href="#DejaVuSans-46"/>
       <use x="95.410156" xlink:href="#DejaVuSans-56"/>
      </g>
     </g>
    </g>
    <g id="xtick_6">
     <g id="line2d_6">
      <g>
       <use style="stroke:#000000;stroke-width:0.8;" x="299.296667" xlink:href="#m8538485399" y="307.584"/>
      </g>
     </g>
     <g id="text_6">
      <!-- 1.0 -->
      <g transform="translate(291.345105 322.182437)scale(0.1 -0.1)">
       <defs>
        <path d="M 12.40625 8.296875 
L 28.515625 8.296875 
L 28.515625 63.921875 
L 10.984375 60.40625 
L 10.984375 69.390625 
L 28.421875 72.90625 
L 38.28125 72.90625 
L 38.28125 8.296875 
L 54.390625 8.296875 
L 54.390625 0 
L 12.40625 0 
z
" id="DejaVuSans-49"/>
       </defs>
       <use xlink:href="#DejaVuSans-49"/>
       <use x="63.623047" xlink:href="#DejaVuSans-46"/>
       <use x="95.410156" xlink:href="#DejaVuSans-48"/>
      </g>
     </g>
    </g>
    <g id="xtick_7">
     <g id="line2d_7">
      <g>
       <use style="stroke:#000000;stroke-width:0.8;" x="344.389455" xlink:href="#m8538485399" y="307.584"/>
      </g>
     </g>
     <g id="text_7">
      <!-- 1.2 -->
      <g transform="translate(336.437893 322.182437)scale(0.1 -0.1)">
       <use xlink:href="#DejaVuSans-49"/>
       <use x="63.623047" xlink:href="#DejaVuSans-46"/>
       <use x="95.410156" xlink:href="#DejaVuSans-50"/>
      </g>
     </g>
    </g>
    <g id="xtick_8">
     <g id="line2d_8">
      <g>
       <use style="stroke:#000000;stroke-width:0.8;" x="389.482243" xlink:href="#m8538485399" y="307.584"/>
      </g>
     </g>
     <g id="text_8">
      <!-- 1.4 -->
      <g transform="translate(381.53068 322.182437)scale(0.1 -0.1)">
       <use xlink:href="#DejaVuSans-49"/>
       <use x="63.623047" xlink:href="#DejaVuSans-46"/>
       <use x="95.410156" xlink:href="#DejaVuSans-52"/>
      </g>
     </g>
    </g>
    <g id="text_9">
     <!-- Time (min) -->
     <g transform="translate(209.007656 335.860562)scale(0.1 -0.1)">
      <defs>
       <path d="M -0.296875 72.90625 
L 61.375 72.90625 
L 61.375 64.59375 
L 35.5 64.59375 
L 35.5 0 
L 25.59375 0 
L 25.59375 64.59375 
L -0.296875 64.59375 
z
" id="DejaVuSans-84"/>
       <path d="M 9.421875 54.6875 
L 18.40625 54.6875 
L 18.40625 0 
L 9.421875 0 
z
M 9.421875 75.984375 
L 18.40625 75.984375 
L 18.40625 64.59375 
L 9.421875 64.59375 
z
" id="DejaVuSans-105"/>
       <path d="M 52 44.1875 
Q 55.375 50.25 60.0625 53.125 
Q 64.75 56 71.09375 56 
Q 79.640625 56 84.28125 50.015625 
Q 88.921875 44.046875 88.921875 33.015625 
L 88.921875 0 
L 79.890625 0 
L 79.890625 32.71875 
Q 79.890625 40.578125 77.09375 44.375 
Q 74.3125 48.1875 68.609375 48.1875 
Q 61.625 48.1875 57.5625 43.546875 
Q 53.515625 38.921875 53.515625 30.90625 
L 53.515625 0 
L 44.484375 0 
L 44.484375 32.71875 
Q 44.484375 40.625 41.703125 44.40625 
Q 38.921875 48.1875 33.109375 48.1875 
Q 26.21875 48.1875 22.15625 43.53125 
Q 18.109375 38.875 18.109375 30.90625 
L 18.109375 0 
L 9.078125 0 
L 9.078125 54.6875 
L 18.109375 54.6875 
L 18.109375 46.1875 
Q 21.1875 51.21875 25.484375 53.609375 
Q 29.78125 56 35.6875 56 
Q 41.65625 56 45.828125 52.96875 
Q 50 49.953125 52 44.1875 
z
" id="DejaVuSans-109"/>
       <path d="M 56.203125 29.59375 
L 56.203125 25.203125 
L 14.890625 25.203125 
Q 15.484375 15.921875 20.484375 11.0625 
Q 25.484375 6.203125 34.421875 6.203125 
Q 39.59375 6.203125 44.453125 7.46875 
Q 49.3125 8.734375 54.109375 11.28125 
L 54.109375 2.78125 
Q 49.265625 0.734375 44.1875 -0.34375 
Q 39.109375 -1.421875 33.890625 -1.421875 
Q 20.796875 -1.421875 13.15625 6.1875 
Q 5.515625 13.8125 5.515625 26.8125 
Q 5.515625 40.234375 12.765625 48.109375 
Q 20.015625 56 32.328125 56 
Q 43.359375 56 49.78125 48.890625 
Q 56.203125 41.796875 56.203125 29.59375 
z
M 47.21875 32.234375 
Q 47.125 39.59375 43.09375 43.984375 
Q 39.0625 48.390625 32.421875 48.390625 
Q 24.90625 48.390625 20.390625 44.140625 
Q 15.875 39.890625 15.1875 32.171875 
z
" id="DejaVuSans-101"/>
       <path id="DejaVuSans-32"/>
       <path d="M 31 75.875 
Q 24.46875 64.65625 21.28125 53.65625 
Q 18.109375 42.671875 18.109375 31.390625 
Q 18.109375 20.125 21.3125 9.0625 
Q 24.515625 -2 31 -13.1875 
L 23.1875 -13.1875 
Q 15.875 -1.703125 12.234375 9.375 
Q 8.59375 20.453125 8.59375 31.390625 
Q 8.59375 42.28125 12.203125 53.3125 
Q 15.828125 64.359375 23.1875 75.875 
z
" id="DejaVuSans-40"/>
       <path d="M 54.890625 33.015625 
L 54.890625 0 
L 45.90625 0 
L 45.90625 32.71875 
Q 45.90625 40.484375 42.875 44.328125 
Q 39.84375 48.1875 33.796875 48.1875 
Q 26.515625 48.1875 22.3125 43.546875 
Q 18.109375 38.921875 18.109375 30.90625 
L 18.109375 0 
L 9.078125 0 
L 9.078125 54.6875 
L 18.109375 54.6875 
L 18.109375 46.1875 
Q 21.34375 51.125 25.703125 53.5625 
Q 30.078125 56 35.796875 56 
Q 45.21875 56 50.046875 50.171875 
Q 54.890625 44.34375 54.890625 33.015625 
z
" id="DejaVuSans-110"/>
       <path d="M 8.015625 75.875 
L 15.828125 75.875 
Q 23.140625 64.359375 26.78125 53.3125 
Q 30.421875 42.28125 30.421875 31.390625 
Q 30.421875 20.453125 26.78125 9.375 
Q 23.140625 -1.703125 15.828125 -13.1875 
L 8.015625 -13.1875 
Q 14.5 -2 17.703125 9.0625 
Q 20.90625 20.125 20.90625 31.390625 
Q 20.90625 42.671875 17.703125 53.65625 
Q 14.5 64.65625 8.015625 75.875 
z
" id="DejaVuSans-41"/>
      </defs>
      <use xlink:href="#DejaVuSans-84"/>
      <use x="57.958984" xlink:href="#DejaVuSans-105"/>
      <use x="85.742188" xlink:href="#DejaVuSans-109"/>
      <use x="183.154297" xlink:href="#DejaVuSans-101"/>
      <use x="244.677734" xlink:href="#DejaVuSans-32"/>
      <use x="276.464844" xlink:href="#DejaVuSans-40"/>
      <use x="315.478516" xlink:href="#DejaVuSans-109"/>
      <use x="412.890625" xlink:href="#DejaVuSans-105"/>
      <use x="440.673828" xlink:href="#DejaVuSans-110"/>
      <use x="504.052734" xlink:href="#DejaVuSans-41"/>
     </g>
    </g>
    <g id="text_10">
     <!-- 1e6 -->
     <g transform="translate(395.841875 334.860562)scale(0.1 -0.1)">
      <use xlink:href="#DejaVuSans-49"/>
      <use x="63.623047" xlink:href="#DejaVuSans-101"/>
      <use x="125.146484" xlink:href="#DejaVuSans-54"/>
     </g>
    </g>
   </g>
   <g id="matplotlib.axis_2">
    <g id="ytick_1">
     <g id="line2d_9">
      <defs>
       <path d="M 0 0 
L -3.5 0 
" id="mb12d1f3d15" style="stroke:#000000;stroke-width:0.8;"/>
      </defs>
      <g>
       <use style="stroke:#000000;stroke-width:0.8;" x="57.6" xlink:href="#mb12d1f3d15" y="295.488"/>
      </g>
     </g>
     <g id="text_11">
      <!-- 0 -->
      <g transform="translate(44.2375 299.287219)scale(0.1 -0.1)">
       <use xlink:href="#DejaVuSans-48"/>
      </g>
     </g>
    </g>
    <g id="ytick_2">
     <g id="line2d_10">
      <g>
       <use style="stroke:#000000;stroke-width:0.8;" x="57.6" xlink:href="#mb12d1f3d15" y="247.067726"/>
      </g>
     </g>
     <g id="text_12">
      <!-- 200 -->
      <g transform="translate(31.5125 250.866944)scale(0.1 -0.1)">
       <use xlink:href="#DejaVuSans-50"/>
       <use x="63.623047" xlink:href="#DejaVuSans-48"/>
       <use x="127.246094" xlink:href="#DejaVuSans-48"/>
      </g>
     </g>
    </g>
    <g id="ytick_3">
     <g id="line2d_11">
      <g>
       <use style="stroke:#000000;stroke-width:0.8;" x="57.6" xlink:href="#mb12d1f3d15" y="198.647451"/>
      </g>
     </g>
     <g id="text_13">
      <!-- 400 -->
      <g transform="translate(31.5125 202.44667)scale(0.1 -0.1)">
       <use xlink:href="#DejaVuSans-52"/>
       <use x="63.623047" xlink:href="#DejaVuSans-48"/>
       <use x="127.246094" xlink:href="#DejaVuSans-48"/>
      </g>
     </g>
    </g>
    <g id="ytick_4">
     <g id="line2d_12">
      <g>
       <use style="stroke:#000000;stroke-width:0.8;" x="57.6" xlink:href="#mb12d1f3d15" y="150.227177"/>
      </g>
     </g>
     <g id="text_14">
      <!-- 600 -->
      <g transform="translate(31.5125 154.026395)scale(0.1 -0.1)">
       <use xlink:href="#DejaVuSans-54"/>
       <use x="63.623047" xlink:href="#DejaVuSans-48"/>
       <use x="127.246094" xlink:href="#DejaVuSans-48"/>
      </g>
     </g>
    </g>
    <g id="ytick_5">
     <g id="line2d_13">
      <g>
       <use style="stroke:#000000;stroke-width:0.8;" x="57.6" xlink:href="#mb12d1f3d15" y="101.806902"/>
      </g>
     </g>
     <g id="text_15">
      <!-- 800 -->
      <g transform="translate(31.5125 105.606121)scale(0.1 -0.1)">
       <use xlink:href="#DejaVuSans-56"/>
       <use x="63.623047" xlink:href="#DejaVuSans-48"/>
       <use x="127.246094" xlink:href="#DejaVuSans-48"/>
      </g>
     </g>
    </g>
    <g id="ytick_6">
     <g id="line2d_14">
      <g>
       <use style="stroke:#000000;stroke-width:0.8;" x="57.6" xlink:href="#mb12d1f3d15" y="53.386628"/>
      </g>
     </g>
     <g id="text_16">
      <!-- 1000 -->
      <g transform="translate(25.15 57.185846)scale(0.1 -0.1)">
       <use xlink:href="#DejaVuSans-49"/>
       <use x="63.623047" xlink:href="#DejaVuSans-48"/>
       <use x="127.246094" xlink:href="#DejaVuSans-48"/>
       <use x="190.869141" xlink:href="#DejaVuSans-48"/>
      </g>
     </g>
    </g>
    <g id="text_17">
     <!-- Density -->
     <g transform="translate(19.070312 193.536594)rotate(-90)scale(0.1 -0.1)">
      <defs>
       <path d="M 19.671875 64.796875 
L 19.671875 8.109375 
L 31.59375 8.109375 
Q 46.6875 8.109375 53.6875 14.9375 
Q 60.6875 21.78125 60.6875 36.53125 
Q 60.6875 51.171875 53.6875 57.984375 
Q 46.6875 64.796875 31.59375 64.796875 
z
M 9.8125 72.90625 
L 30.078125 72.90625 
Q 51.265625 72.90625 61.171875 64.09375 
Q 71.09375 55.28125 71.09375 36.53125 
Q 71.09375 17.671875 61.125 8.828125 
Q 51.171875 0 30.078125 0 
L 9.8125 0 
z
" id="DejaVuSans-68"/>
       <path d="M 44.28125 53.078125 
L 44.28125 44.578125 
Q 40.484375 46.53125 36.375 47.5 
Q 32.28125 48.484375 27.875 48.484375 
Q 21.1875 48.484375 17.84375 46.4375 
Q 14.5 44.390625 14.5 40.28125 
Q 14.5 37.15625 16.890625 35.375 
Q 19.28125 33.59375 26.515625 31.984375 
L 29.59375 31.296875 
Q 39.15625 29.25 43.1875 25.515625 
Q 47.21875 21.78125 47.21875 15.09375 
Q 47.21875 7.46875 41.1875 3.015625 
Q 35.15625 -1.421875 24.609375 -1.421875 
Q 20.21875 -1.421875 15.453125 -0.5625 
Q 10.6875 0.296875 5.421875 2 
L 5.421875 11.28125 
Q 10.40625 8.6875 15.234375 7.390625 
Q 20.0625 6.109375 24.8125 6.109375 
Q 31.15625 6.109375 34.5625 8.28125 
Q 37.984375 10.453125 37.984375 14.40625 
Q 37.984375 18.0625 35.515625 20.015625 
Q 33.0625 21.96875 24.703125 23.78125 
L 21.578125 24.515625 
Q 13.234375 26.265625 9.515625 29.90625 
Q 5.8125 33.546875 5.8125 39.890625 
Q 5.8125 47.609375 11.28125 51.796875 
Q 16.75 56 26.8125 56 
Q 31.78125 56 36.171875 55.265625 
Q 40.578125 54.546875 44.28125 53.078125 
z
" id="DejaVuSans-115"/>
       <path d="M 18.3125 70.21875 
L 18.3125 54.6875 
L 36.8125 54.6875 
L 36.8125 47.703125 
L 18.3125 47.703125 
L 18.3125 18.015625 
Q 18.3125 11.328125 20.140625 9.421875 
Q 21.96875 7.515625 27.59375 7.515625 
L 36.8125 7.515625 
L 36.8125 0 
L 27.59375 0 
Q 17.1875 0 13.234375 3.875 
Q 9.28125 7.765625 9.28125 18.015625 
L 9.28125 47.703125 
L 2.6875 47.703125 
L 2.6875 54.6875 
L 9.28125 54.6875 
L 9.28125 70.21875 
z
" id="DejaVuSans-116"/>
       <path d="M 32.171875 -5.078125 
Q 28.375 -14.84375 24.75 -17.8125 
Q 21.140625 -20.796875 15.09375 -20.796875 
L 7.90625 -20.796875 
L 7.90625 -13.28125 
L 13.1875 -13.28125 
Q 16.890625 -13.28125 18.9375 -11.515625 
Q 21 -9.765625 23.484375 -3.21875 
L 25.09375 0.875 
L 2.984375 54.6875 
L 12.5 54.6875 
L 29.59375 11.921875 
L 46.6875 54.6875 
L 56.203125 54.6875 
z
" id="DejaVuSans-121"/>
      </defs>
      <use xlink:href="#DejaVuSans-68"/>
      <use x="77.001953" xlink:href="#DejaVuSans-101"/>
      <use x="138.525391" xlink:href="#DejaVuSans-110"/>
      <use x="201.904297" xlink:href="#DejaVuSans-115"/>
      <use x="254.003906" xlink:href="#DejaVuSans-105"/>
      <use x="281.787109" xlink:href="#DejaVuSans-116"/>
      <use x="320.996094" xlink:href="#DejaVuSans-121"/>
     </g>
    </g>
   </g>
   <g id="line2d_15">
    <path clip-path="url(#pa3efbb20bf)" d="M 73.832727 295.488 
L 398.487273 295.488 
L 398.487273 295.488 
" style="fill:none;stroke:#1f77b4;stroke-linecap:square;stroke-width:1.5;"/>
   </g>
   <g id="line2d_16">
    <path clip-path="url(#pa3efbb20bf)" d="M 73.832727 295.488 
L 398.487273 295.488 
L 398.487273 295.488 
" style="fill:none;stroke:#ff7f0e;stroke-linecap:square;stroke-width:1.5;"/>
   </g>
   <g id="line2d_17">
    <path clip-path="url(#pa3efbb20bf)" d="M 73.832727 293.066986 
L 74.13034 291.080334 
L 74.44148 287.301235 
L 74.75262 280.510217 
L 75.077288 267.98924 
L 75.44254 243.990499 
L 75.902486 196.538717 
L 76.849435 95.370537 
L 77.268798 73.529856 
L 77.661105 63.193947 
L 78.039884 58.349848 
L 78.459247 55.712388 
L 78.770388 54.88209 
L 79.068 54.696781 
L 79.365612 54.403835 
L 79.771447 54.173066 
L 81.137759 54.009077 
L 81.962957 54.042125 
L 82.706988 53.707472 
L 83.031656 53.890523 
L 83.816271 54.458117 
L 84.181522 54.126486 
L 84.533246 53.962231 
L 84.844386 54.071604 
L 85.304333 54.236068 
L 86.088947 54.009403 
L 86.968256 54.041889 
L 87.536426 53.856033 
L 87.901677 53.994268 
L 88.537485 54.269685 
L 88.902737 54.003876 
L 89.281516 53.84345 
L 89.579129 53.962676 
L 90.214937 54.30384 
L 90.661356 53.905317 
L 90.972496 53.804768 
L 91.256581 53.967734 
L 91.851805 54.371601 
L 92.13589 54.063262 
L 92.541725 53.722695 
L 92.771698 53.794664 
L 93.109894 54.199041 
L 93.461618 54.503107 
L 93.63748 54.34889 
L 94.219177 53.746458 
L 94.44915 53.850039 
L 95.179653 54.418999 
L 95.193181 54.404454 
L 95.828989 53.859478 
L 96.086018 53.984605 
L 96.654187 54.350648 
L 97.479385 53.921513 
L 97.871693 54.190489 
L 98.169305 54.289226 
L 98.507501 54.030089 
L 98.899808 53.839893 
L 99.183893 53.946847 
L 99.846757 54.305028 
L 100.212008 53.9188 
L 100.550204 53.71437 
L 100.793705 53.820715 
L 101.226596 54.350909 
L 101.483625 54.491806 
L 101.659487 54.31586 
L 102.241184 53.664916 
L 102.457629 53.774111 
L 102.809353 54.301349 
L 103.106965 54.594887 
L 103.255771 54.463277 
L 103.864524 53.827848 
L 104.094497 53.935171 
L 104.730306 54.38459 
L 105.420225 53.929247 
L 105.731365 54.077956 
L 106.164256 54.274017 
L 106.637731 53.959505 
L 106.975926 53.902245 
L 107.341178 54.099353 
L 107.747013 54.268384 
L 108.004042 54.077675 
L 108.491044 53.74984 
L 108.761601 53.848204 
L 109.573271 54.357676 
L 110.249663 53.866135 
L 110.533747 54.024446 
L 111.047805 54.336056 
L 111.940642 53.948213 
L 112.711729 54.196719 
L 113.361065 53.828915 
L 113.658678 53.977022 
L 114.253902 54.333416 
L 114.510931 54.072897 
L 114.95735 53.677691 
L 115.187323 53.748016 
L 115.498463 54.127347 
L 115.904298 54.548688 
L 116.053105 54.436495 
L 116.756552 53.662661 
L 116.972998 53.849381 
L 117.595278 54.599744 
L 117.622334 54.574407 
L 118.379892 53.876565 
L 118.650449 54.087713 
L 119.069812 54.401369 
L 119.353897 54.167159 
L 119.759732 53.944047 
L 120.070872 54.035802 
L 120.598458 54.234487 
L 121.477767 53.925474 
L 122.330021 54.168648 
L 122.992885 53.705895 
L 123.249914 53.856258 
L 123.993945 54.444461 
L 124.737976 53.899016 
L 125.035588 54.091177 
L 125.454951 54.331117 
L 125.887842 54.027711 
L 126.239565 53.948458 
L 126.618345 54.123956 
L 126.983596 54.221814 
L 127.971128 53.930161 
L 128.715159 54.261115 
L 129.080411 53.828098 
L 129.418607 53.603687 
L 129.64858 53.715396 
L 129.986776 54.198591 
L 130.365556 54.626724 
L 130.514362 54.520297 
L 131.123114 53.935017 
L 131.380143 54.02624 
L 131.921257 54.30217 
L 132.638232 53.991756 
L 133.111706 54.15726 
L 133.409319 54.148778 
L 134.220989 53.905318 
L 134.680935 54.157134 
L 135.032659 54.24611 
L 135.370855 53.999864 
L 135.77669 53.80342 
L 136.060775 53.912577 
L 136.791278 54.321008 
L 137.183585 53.854067 
L 137.494725 53.671442 
L 137.724699 53.790025 
L 138.117006 54.331053 
L 138.40109 54.554576 
L 138.563424 54.402409 
L 139.185705 53.684168 
L 139.388622 53.800794 
L 139.767402 54.377519 
L 140.024431 54.585092 
L 140.200293 54.4029 
L 140.71435 53.881648 
L 140.957851 53.947503 
L 141.634243 54.311383 
L 142.270052 53.93468 
L 142.59472 54.063946 
L 143.054666 54.246376 
L 144.02867 53.944287 
L 144.759173 54.239217 
L 145.597899 53.727045 
L 145.895512 54.029381 
L 146.396042 54.523069 
L 146.571904 54.375631 
L 147.113017 53.898701 
L 147.370046 53.973389 
L 148.005854 54.291119 
L 148.695774 53.954647 
L 149.074553 54.114544 
L 149.453333 54.211575 
L 150.427337 53.930472 
L 151.198424 54.235931 
L 152.037149 53.641194 
L 152.307706 53.946264 
L 152.875875 54.631803 
L 153.051737 54.455379 
L 153.565795 53.948427 
L 153.822824 54.00676 
L 154.431576 54.27578 
L 155.080913 53.994509 
L 155.513803 54.128041 
L 155.865527 54.147666 
L 156.717781 53.915216 
L 157.272422 54.217738 
L 157.556507 54.220021 
L 158.435816 53.851251 
L 158.828123 54.176067 
L 159.179847 54.365179 
L 159.382765 54.20303 
L 159.964462 53.668579 
L 160.194435 53.778713 
L 160.573214 54.297336 
L 160.884354 54.556811 
L 161.046688 54.401253 
L 161.668969 53.678169 
L 161.871886 53.797671 
L 162.250666 54.382685 
L 162.507695 54.592732 
L 162.683557 54.408275 
L 163.197614 53.881982 
L 163.441116 53.94858 
L 164.117507 54.311468 
L 164.739788 53.937023 
L 165.064456 54.058662 
L 165.53793 54.241864 
L 166.484879 53.934962 
L 167.255965 54.220168 
L 168.04058 53.709028 
L 168.311137 53.947405 
L 168.892834 54.518129 
L 169.095751 54.323391 
L 169.582753 53.90141 
L 169.839782 53.967366 
L 170.502646 54.278218 
L 171.151982 53.953438 
L 171.517234 54.093151 
L 171.936597 54.208492 
L 172.897073 53.925222 
L 173.681688 54.233074 
L 174.520414 53.639072 
L 174.79097 53.947792 
L 175.359139 54.636226 
L 175.535001 54.457987 
L 176.049059 53.950306 
L 176.306088 54.009256 
L 176.914841 54.27341 
L 177.550649 53.995559 
L 177.98354 54.123791 
L 178.335263 54.149481 
L 179.201045 53.91757 
L 180.161521 54.133706 
L 180.743218 53.804867 
L 181.040831 53.930809 
L 181.73075 54.332691 
L 182.041891 53.972384 
L 182.42067 53.667642 
L 182.650643 53.754137 
L 182.975311 54.177094 
L 183.354091 54.561746 
L 183.502897 54.440246 
L 184.179289 53.679659 
L 184.395734 53.844543 
L 185.031542 54.573279 
L 185.058598 54.546372 
L 185.789101 53.885044 
L 186.059658 54.07035 
L 186.506077 54.375171 
L 186.938967 54.031381 
L 187.277163 53.94352 
L 187.628887 54.114546 
L 188.007666 54.244115 
L 188.995198 53.951878 
L 189.712174 54.237358 
L 190.564427 53.729453 
L 190.86204 54.037573 
L 191.349042 54.526377 
L 191.524904 54.388069 
L 192.093073 53.899164 
L 192.350102 53.987836 
L 192.945327 54.302796 
L 193.67583 53.959801 
L 194.081665 54.140969 
L 194.419861 54.205082 
L 195.366809 53.920557 
L 196.17848 54.217348 
L 196.963094 53.613562 
L 197.220123 53.867577 
L 197.869459 54.629328 
L 198.099432 54.351099 
L 198.518795 53.956083 
L 198.775824 54.003058 
L 199.411632 54.262838 
L 200.020385 53.996923 
L 200.439748 54.113813 
L 200.818527 54.146092 
L 201.684309 53.919632 
L 202.631258 54.140921 
L 203.24001 53.80589 
L 203.537623 53.942977 
L 204.200487 54.340209 
L 204.484571 54.022662 
L 204.890406 53.667208 
L 205.120379 53.74169 
L 205.43152 54.135999 
L 205.837355 54.564343 
L 205.986161 54.442616 
L 206.662553 53.677183 
L 206.878998 53.842665 
L 207.514806 54.577019 
L 207.55539 54.534794 
L 208.24531 53.881192 
L 208.502339 54.031274 
L 209.002868 54.367594 
L 209.828066 53.961332 
L 210.68032 54.129184 
L 211.221434 53.873666 
L 211.546102 53.995205 
L 212.141326 54.26778 
L 212.425411 54.002344 
L 212.844774 53.682184 
L 213.088275 53.756054 
L 213.426471 54.151359 
L 213.818778 54.528994 
L 213.981112 54.420048 
L 214.589865 53.899616 
L 214.846894 53.998811 
L 215.428591 54.301321 
L 216.159094 53.961266 
L 216.564929 54.141515 
L 216.903125 54.202533 
L 217.836546 53.915304 
L 218.661744 54.214999 
L 219.446358 53.610522 
L 219.703387 53.866041 
L 220.352723 54.634026 
L 220.569169 54.374245 
L 221.002059 53.958474 
L 221.259088 54.004282 
L 221.894897 54.261702 
L 222.503649 53.998298 
L 222.923012 54.114163 
L 223.301792 54.143533 
L 224.154045 53.916737 
L 224.708686 54.212245 
L 224.992771 54.218438 
L 225.899136 53.861801 
L 226.318499 54.218068 
L 226.629639 54.362884 
L 226.832557 54.196688 
L 227.400726 53.662158 
L 227.630699 53.76289 
L 227.982423 54.240112 
L 228.320619 54.566767 
L 228.469425 54.446078 
L 229.159345 53.678066 
L 229.37579 53.857222 
L 229.998071 54.581128 
L 230.025126 54.554485 
L 230.755629 53.886824 
L 231.012658 54.057594 
L 231.472605 54.374501 
L 232.419553 54.008236 
L 233.028306 54.214488 
L 233.826448 53.89511 
L 234.218755 54.134041 
L 234.584007 54.281207 
L 234.81398 54.10639 
L 235.355094 53.678001 
L 235.598595 53.77623 
L 235.977374 54.245775 
L 236.31557 54.529839 
L 236.491432 54.392048 
L 237.059601 53.901543 
L 237.31663 53.98926 
L 237.911855 54.300629 
L 238.642358 53.962414 
L 239.048193 54.141461 
L 239.386389 54.200661 
L 240.31981 53.916107 
L 241.145008 54.213792 
L 241.929622 53.607323 
L 242.186651 53.863264 
L 242.835987 54.638767 
L 243.052433 54.37972 
L 243.485323 53.960904 
L 243.742352 54.004814 
L 244.378161 54.261309 
L 244.986913 53.9995 
L 245.419804 54.119275 
L 245.785056 54.141651 
L 246.637309 53.917733 
L 247.232534 54.227343 
L 247.503091 54.202381 
L 248.328289 53.83618 
L 248.680013 54.101775 
L 249.099376 54.365322 
L 249.302293 54.213328 
L 249.911046 53.660394 
L 250.141019 53.786121 
L 250.546854 54.358952 
L 250.817411 54.567183 
L 250.979745 54.412302 
L 251.602025 53.669189 
L 251.804943 53.788146 
L 252.170194 54.363162 
L 252.440751 54.606375 
L 252.603085 54.440945 
L 253.144199 53.884387 
L 253.3877 53.961154 
L 254.037036 54.319784 
L 254.686372 53.942729 
L 255.01104 54.071768 
L 255.457459 54.238785 
L 256.431463 53.947557 
L 257.161966 54.232173 
L 258.01422 53.725828 
L 258.311832 54.035941 
L 258.798834 54.531447 
L 258.974696 54.395383 
L 259.542865 53.902669 
L 259.799894 53.98884 
L 260.408647 54.291993 
L 261.098566 53.959778 
L 261.477346 54.111199 
L 261.856125 54.2047 
L 262.843657 53.937287 
L 263.601216 54.237082 
L 264.007051 53.752936 
L 264.318191 53.578134 
L 264.548165 53.707526 
L 264.899888 54.236752 
L 265.26514 54.655817 
L 265.413946 54.549793 
L 266.022699 53.952636 
L 266.279728 54.039283 
L 266.807313 54.294218 
L 267.524289 54.003461 
L 268.538876 54.006125 
L 268.998823 53.89235 
L 269.39113 54.048846 
L 269.905188 54.238218 
L 270.216328 54.02751 
L 270.649219 53.8051 
L 270.946831 53.912148 
L 271.677334 54.321914 
L 272.01553 53.918422 
L 272.367254 53.658955 
L 272.597227 53.757092 
L 272.935423 54.213848 
L 273.287147 54.57099 
L 273.435953 54.455733 
L 274.139401 53.677091 
L 274.355846 53.866692 
L 274.964599 54.590184 
L 274.991654 54.565019 
L 275.735685 53.890674 
L 276.006242 54.081988 
L 276.439133 54.37559 
L 276.844968 54.053437 
L 277.196692 53.945966 
L 277.548415 54.106028 
L 277.940723 54.23812 
L 278.914727 53.94736 
L 279.64523 54.232195 
L 280.497484 53.72375 
L 280.795096 54.032949 
L 281.295626 54.531145 
L 281.471488 54.383802 
L 282.012601 53.905442 
L 282.26963 53.978549 
L 282.905439 54.283797 
L 283.58183 53.960483 
L 283.96061 54.110337 
L 284.339389 54.203948 
L 285.326921 53.936883 
L 286.08448 54.237657 
L 286.476787 53.768195 
L 286.787928 53.575215 
L 287.017901 53.689547 
L 287.356097 54.185622 
L 287.748404 54.658546 
L 287.89721 54.55672 
L 288.505963 53.954439 
L 288.762992 54.038191 
L 289.304105 54.287032 
L 289.994025 54.003051 
L 290.508083 54.156687 
L 290.805695 54.116861 
L 291.536198 53.901222 
L 291.969089 54.105898 
L 292.388452 54.237685 
L 292.699592 54.028408 
L 293.146011 53.805004 
L 293.443623 53.920507 
L 294.160599 54.323474 
L 294.498794 53.920797 
L 294.850518 53.657747 
L 295.080491 53.753393 
L 295.418687 54.209325 
L 295.770411 54.572716 
L 295.919217 54.461669 
L 296.622665 53.674479 
L 296.83911 53.86112 
L 297.447863 54.594885 
L 297.474918 54.570971 
L 298.232477 53.89425 
L 298.503034 54.093192 
L 298.922397 54.376613 
L 299.287649 54.085216 
L 299.6529 53.944254 
L 299.977568 54.069904 
L 300.437515 54.232449 
L 301.370935 53.932942 
L 302.15555 54.212163 
L 302.926636 53.69475 
L 303.197193 53.923417 
L 303.819474 54.51897 
L 304.076503 54.240873 
L 304.482338 53.90918 
L 304.739367 53.968384 
L 305.402231 54.276029 
L 306.051567 53.959955 
L 306.416818 54.094103 
L 306.822653 54.203646 
L 307.810185 53.935994 
L 308.567744 54.238936 
L 308.932996 53.801154 
L 309.271192 53.57308 
L 309.501165 53.68479 
L 309.825833 54.156399 
L 310.231668 54.660768 
L 310.380474 54.564078 
L 311.002755 53.954837 
L 311.259784 54.045987 
L 311.773841 54.296009 
L 312.490817 54.004725 
L 313.518932 54.000151 
L 313.978879 53.894739 
L 314.384714 54.063157 
L 314.871716 54.237478 
L 315.182856 54.030012 
L 315.629275 53.805057 
L 315.926887 53.918519 
L 316.643863 54.325544 
L 316.968531 53.941316 
L 317.333782 53.6568 
L 317.563755 53.749276 
L 317.901951 54.20376 
L 318.267203 54.573615 
L 318.416009 54.449948 
L 319.092401 53.668534 
L 319.308846 53.837105 
L 319.944655 54.589623 
L 319.985238 54.546833 
L 320.675158 53.885232 
L 320.932187 54.035704 
L 321.419189 54.371957 
L 322.312026 53.987835 
L 323.015474 54.182881 
L 323.691865 53.880693 
L 324.030061 54.039151 
L 324.544119 54.271295 
L 324.801148 54.050561 
L 325.274622 53.675356 
L 325.518123 53.755072 
L 325.856319 54.156716 
L 326.248626 54.535346 
L 326.41096 54.424655 
L 327.019713 53.903914 
L 327.29027 54.013601 
L 327.831383 54.312082 
L 328.615998 53.97178 
L 329.535891 54.073914 
L 330.036421 53.860361 
L 330.361089 53.974464 
L 331.010425 54.267639 
L 331.267454 53.99607 
L 331.713872 53.576165 
L 331.943846 53.644097 
L 332.22793 54.010657 
L 332.741988 54.663129 
L 332.890794 54.537357 
L 333.458963 53.960207 
L 333.715992 54.025654 
L 334.284161 54.281924 
L 334.960553 54.004138 
L 335.461083 54.150782 
L 335.772223 54.117247 
L 336.502726 53.901283 
L 336.935617 54.10248 
L 337.35498 54.237536 
L 337.652592 54.043369 
L 338.112539 53.80513 
L 338.410151 53.916069 
L 339.140654 54.317979 
L 339.492378 53.894713 
L 339.830574 53.654987 
L 340.060547 53.756874 
L 340.412271 54.239713 
L 340.750467 54.575244 
L 340.899273 54.45718 
L 341.589193 53.669499 
L 341.805638 53.848107 
L 342.427919 54.594961 
L 342.454974 54.569172 
L 343.185478 53.889662 
L 343.442506 54.058217 
L 343.902453 54.373778 
L 344.835874 54.005281 
L 345.471682 54.200219 
L 346.229241 53.891144 
L 346.60802 54.105984 
L 347.013855 54.276111 
L 347.243828 54.098812 
L 347.771414 53.673503 
L 348.014915 53.761995 
L 348.366639 54.189445 
L 348.745418 54.535711 
L 348.92128 54.399776 
L 349.489449 53.905588 
L 349.746478 53.990973 
L 350.341703 54.297655 
L 351.058678 53.964525 
L 351.464513 54.134591 
L 351.816237 54.193837 
L 352.73613 53.912942 
L 353.588384 54.195715 
L 354.332415 53.584803 
L 354.575916 53.798104 
L 355.292891 54.637813 
L 355.306419 54.626059 
L 356.091033 53.971179 
L 356.415702 54.193615 
L 356.726842 54.306756 
L 357.497928 54.009815 
L 358.417821 54.037312 
L 358.931879 53.893403 
L 359.324186 54.04322 
L 359.851772 54.23415 
L 360.17644 54.012894 
L 360.609331 53.805178 
L 360.906943 53.923028 
L 361.610391 54.330822 
L 361.908003 53.986093 
L 362.286783 53.657907 
L 362.516756 53.728974 
L 362.827896 54.125874 
L 363.233731 54.576534 
L 363.382537 54.464814 
L 364.085985 53.670922 
L 364.30243 53.858965 
L 364.911183 54.600119 
L 364.938238 54.576156 
L 365.682269 53.892147 
L 365.952826 54.081016 
L 366.385717 54.375684 
L 366.778024 54.064921 
L 367.129748 53.947223 
L 367.467944 54.089218 
L 367.887307 54.234385 
L 368.861311 53.949306 
L 369.591814 54.228839 
L 370.444068 53.720484 
L 370.74168 54.030595 
L 371.24221 54.535354 
L 371.418072 54.39038 
L 371.972713 53.906592 
L 372.229742 53.988047 
L 372.838495 54.29157 
L 373.541942 53.964476 
L 373.947778 54.13225 
L 374.299501 54.194802 
L 375.232922 53.917565 
L 376.05812 54.212323 
L 376.856262 53.599498 
L 377.113291 53.866657 
L 377.762627 54.65235 
L 377.979073 54.387894 
L 378.411964 53.967791 
L 378.668992 54.012756 
L 379.291273 54.261978 
L 379.913553 54.004306 
L 380.3735 54.131439 
L 380.711696 54.130484 
L 381.523366 53.912749 
L 382.010368 54.160808 
L 382.362092 54.225584 
L 382.754399 53.942321 
L 383.119651 53.806217 
L 383.417263 53.940107 
L 384.093655 54.333848 
L 384.377739 54.010026 
L 384.783574 53.655582 
L 385.013548 53.735184 
L 385.324688 54.139134 
L 385.730523 54.577091 
L 385.879329 54.454496 
L 386.569249 53.668417 
L 386.785694 53.85114 
L 387.407975 54.595318 
L 387.43503 54.56842 
L 388.165534 53.891278 
L 388.422562 54.062362 
L 388.882509 54.371673 
L 389.775346 53.989458 
L 390.478794 54.180206 
L 391.155185 53.881929 
L 391.506909 54.050115 
L 391.993911 54.273679 
L 392.237412 54.077702 
L 392.75147 53.671823 
L 392.994971 53.764417 
L 393.360223 54.21437 
L 393.725474 54.536761 
L 393.901336 54.397082 
L 394.455977 53.907668 
L 394.713006 53.984847 
L 395.335287 54.285711 
L 396.011679 53.962993 
L 396.390458 54.107856 
L 396.782765 54.196013 
L 397.729714 53.922061 
L 398.487273 54.260109 
L 398.487273 54.260109 
" style="fill:none;stroke:#2ca02c;stroke-linecap:square;stroke-width:1.5;"/>
   </g>
   <g id="line2d_18">
    <path clip-path="url(#pa3efbb20bf)" d="M 73.832727 271.277863 
L 398.487273 271.277863 
L 398.487273 271.277863 
" style="fill:none;stroke:#d62728;stroke-linecap:square;stroke-width:1.5;"/>
   </g>
   <g id="line2d_19">
    <path clip-path="url(#pa3efbb20bf)" d="M 73.832727 295.488 
L 398.487273 295.488 
L 398.487273 295.488 
" style="fill:none;stroke:#9467bd;stroke-linecap:square;stroke-width:1.5;"/>
   </g>
   <g id="patch_3">
    <path d="M 57.6 307.584 
L 57.6 41.472 
" style="fill:none;stroke:#000000;stroke-linecap:square;stroke-linejoin:miter;stroke-width:0.8;"/>
   </g>
   <g id="patch_4">
    <path d="M 414.72 307.584 
L 414.72 41.472 
" style="fill:none;stroke:#000000;stroke-linecap:square;stroke-linejoin:miter;stroke-width:0.8;"/>
   </g>
   <g id="patch_5">
    <path d="M 57.6 307.584 
L 414.72 307.584 
" style="fill:none;stroke:#000000;stroke-linecap:square;stroke-linejoin:miter;stroke-width:0.8;"/>
   </g>
   <g id="patch_6">
    <path d="M 57.6 41.472 
L 414.72 41.472 
" style="fill:none;stroke:#000000;stroke-linecap:square;stroke-linejoin:miter;stroke-width:0.8;"/>
   </g>
   <g id="legend_1">
    <g id="patch_7">
     <path d="M 356.516875 212.723313 
L 407.72 212.723313 
Q 409.72 212.723313 409.72 210.723313 
L 409.72 138.332688 
Q 409.72 136.332688 407.72 136.332688 
L 356.516875 136.332688 
Q 354.516875 136.332688 354.516875 138.332688 
L 354.516875 210.723313 
Q 354.516875 212.723313 356.516875 212.723313 
z
" style="fill:#ffffff;opacity:0.8;stroke:#cccccc;stroke-linejoin:miter;"/>
    </g>
    <g id="line2d_20">
     <path d="M 358.516875 144.431125 
L 378.516875 144.431125 
" style="fill:none;stroke:#1f77b4;stroke-linecap:square;stroke-width:1.5;"/>
    </g>
    <g id="line2d_21"/>
    <g id="text_18">
     <!-- T+ -->
     <g transform="translate(386.516875 147.931125)scale(0.1 -0.1)">
      <defs>
       <path d="M 46 62.703125 
L 46 35.5 
L 73.1875 35.5 
L 73.1875 27.203125 
L 46 27.203125 
L 46 0 
L 37.796875 0 
L 37.796875 27.203125 
L 10.59375 27.203125 
L 10.59375 35.5 
L 37.796875 35.5 
L 37.796875 62.703125 
z
" id="DejaVuSans-43"/>
      </defs>
      <use xlink:href="#DejaVuSans-84"/>
      <use x="61.083984" xlink:href="#DejaVuSans-43"/>
     </g>
    </g>
    <g id="line2d_22">
     <path d="M 358.516875 159.10925 
L 378.516875 159.10925 
" style="fill:none;stroke:#ff7f0e;stroke-linecap:square;stroke-width:1.5;"/>
    </g>
    <g id="line2d_23"/>
    <g id="text_19">
     <!-- Tp -->
     <g transform="translate(386.516875 162.60925)scale(0.1 -0.1)">
      <defs>
       <path d="M 18.109375 8.203125 
L 18.109375 -20.796875 
L 9.078125 -20.796875 
L 9.078125 54.6875 
L 18.109375 54.6875 
L 18.109375 46.390625 
Q 20.953125 51.265625 25.265625 53.625 
Q 29.59375 56 35.59375 56 
Q 45.5625 56 51.78125 48.09375 
Q 58.015625 40.1875 58.015625 27.296875 
Q 58.015625 14.40625 51.78125 6.484375 
Q 45.5625 -1.421875 35.59375 -1.421875 
Q 29.59375 -1.421875 25.265625 0.953125 
Q 20.953125 3.328125 18.109375 8.203125 
z
M 48.6875 27.296875 
Q 48.6875 37.203125 44.609375 42.84375 
Q 40.53125 48.484375 33.40625 48.484375 
Q 26.265625 48.484375 22.1875 42.84375 
Q 18.109375 37.203125 18.109375 27.296875 
Q 18.109375 17.390625 22.1875 11.75 
Q 26.265625 6.109375 33.40625 6.109375 
Q 40.53125 6.109375 44.609375 11.75 
Q 48.6875 17.390625 48.6875 27.296875 
z
" id="DejaVuSans-112"/>
      </defs>
      <use xlink:href="#DejaVuSans-84"/>
      <use x="61.083984" xlink:href="#DejaVuSans-112"/>
     </g>
    </g>
    <g id="line2d_24">
     <path d="M 358.516875 173.787375 
L 378.516875 173.787375 
" style="fill:none;stroke:#2ca02c;stroke-linecap:square;stroke-width:1.5;"/>
    </g>
    <g id="line2d_25"/>
    <g id="text_20">
     <!-- T- -->
     <g transform="translate(386.516875 177.287375)scale(0.1 -0.1)">
      <defs>
       <path d="M 4.890625 31.390625 
L 31.203125 31.390625 
L 31.203125 23.390625 
L 4.890625 23.390625 
z
" id="DejaVuSans-45"/>
      </defs>
      <use xlink:href="#DejaVuSans-84"/>
      <use x="51.958984" xlink:href="#DejaVuSans-45"/>
     </g>
    </g>
    <g id="line2d_26">
     <path d="M 358.516875 188.4655 
L 378.516875 188.4655 
" style="fill:none;stroke:#d62728;stroke-linecap:square;stroke-width:1.5;"/>
    </g>
    <g id="line2d_27"/>
    <g id="text_21">
     <!-- O2 -->
     <g transform="translate(386.516875 191.9655)scale(0.1 -0.1)">
      <defs>
       <path d="M 39.40625 66.21875 
Q 28.65625 66.21875 22.328125 58.203125 
Q 16.015625 50.203125 16.015625 36.375 
Q 16.015625 22.609375 22.328125 14.59375 
Q 28.65625 6.59375 39.40625 6.59375 
Q 50.140625 6.59375 56.421875 14.59375 
Q 62.703125 22.609375 62.703125 36.375 
Q 62.703125 50.203125 56.421875 58.203125 
Q 50.140625 66.21875 39.40625 66.21875 
z
M 39.40625 74.21875 
Q 54.734375 74.21875 63.90625 63.9375 
Q 73.09375 53.65625 73.09375 36.375 
Q 73.09375 19.140625 63.90625 8.859375 
Q 54.734375 -1.421875 39.40625 -1.421875 
Q 24.03125 -1.421875 14.8125 8.828125 
Q 5.609375 19.09375 5.609375 36.375 
Q 5.609375 53.65625 14.8125 63.9375 
Q 24.03125 74.21875 39.40625 74.21875 
z
" id="DejaVuSans-79"/>
      </defs>
      <use xlink:href="#DejaVuSans-79"/>
      <use x="78.710938" xlink:href="#DejaVuSans-50"/>
     </g>
    </g>
    <g id="line2d_28">
     <path d="M 358.516875 203.143625 
L 378.516875 203.143625 
" style="fill:none;stroke:#9467bd;stroke-linecap:square;stroke-width:1.5;"/>
    </g>
    <g id="line2d_29"/>
    <g id="text_22">
     <!-- test -->
     <g transform="translate(386.516875 206.643625)scale(0.1 -0.1)">
      <use xlink:href="#DejaVuSans-116"/>
      <use x="39.208984" xlink:href="#DejaVuSans-101"/>
      <use x="100.732422" xlink:href="#DejaVuSans-115"/>
      <use x="152.832031" xlink:href="#DejaVuSans-116"/>
     </g>
    </g>
   </g>
  </g>
 </g>
 <defs>
  <clipPath id="pa3efbb20bf">
   <rect height="266.112" width="357.12" x="57.6" y="41.472"/>
  </clipPath>
 </defs>
</svg>
